<svg xmlns="http://www.w3.org/2000/svg" width="1280" height="720" xmlns:v="https://vecta.io/nano"><style><![CDATA[.B{clip-path:none}.C{stroke-miterlimit:10}.D{stroke-width:2.439}]]></style><defs><clipPath ><path d="M0 0h708.12v398.41H0z" fill="none" stroke-width="0"/></clipPath><clipPath ><path d="M-12.44-12.08h732.36v418.24H-12.44z" fill="none" stroke-width="0"/></clipPath><linearGradient id="C" x1="10505.52" y1="488.185" x2="10505.52" y2="-267.165" gradientUnits="userSpaceOnUse" spreadMethod="pad"><stop offset="0" stop-color="#1ead28"/><stop offset="1" stop-color="#248029"/></linearGradient></defs><g transform="translate(-9867.174 245.348)"><path d="M9867.174-245.348h1279.999v720H9867.174z" fill="url(#C)" class="B"/><path d="M10211.305 1.721l87.491 196.271" fill="none" stroke="#1dae27" stroke-width="16.261" class="B C"/><path d="M10252.805 474.193h894.369V309.891h-894.369z" fill="#1e5c93" class="B"/><path d="M10334.712 303.738l28.526-13.008c33.998-15.491 49.003-55.601 33.489-89.576-15.507-33.968-55.65-48.96-89.655-33.469l-28.526 13.011c-33.998 15.491-49.003 55.601-33.489 89.576 15.507 33.975 55.65 48.96 89.655 33.467" fill="#ffc93c" class="B"/><path d="M10263.058-91.639c-3.757-4.062-7.606-4.402-8.426-4.46-12.4-.722-5.659 29.527-3.323 35.745.414 1.12-1.14 1.637-1.685.65-4.321-7.949-8.982-15.804-14.839-22.727-5.498-6.48-13.143-13.545-22.246-13.254-11.354.378-19.131 11.017-21.551 21.147-2.728 11.38-1.335 23.986 2.788 34.839.357.961-.961 1.686-1.573.867-5.281-6.913-9.677-14.448-15.1-21.258-4.953-6.227-12.721-15.616-21.759-14.373-10.975 1.515-13.687 15.549-14.121 24.54-.489 10.121 1.037 20.432 3.473 30.214.181.744-.687 1.76-1.41 1.035-4.321-4.356-16.43-24.579-26.955-22.669-13.829 2.531-10.609 17.109-1.279 35.839 3.735 7.224 9.216 13.779 16.485 19.206 31.537 23.611 84.466 17.393 118.217-13.865 22.718-21.041 30.927-48.076 24.254-70.688-1.442-7.732-5.799-15.257-10.93-20.808z" fill="#34c3ff" class="B"/><g fill="#ff7b54"><path d="M10602.775-63.532l82.301-56.654-82.301-69.373zm199.345 0l-82.304-56.654 82.304-69.373z" class="B"/><path d="M10622.159-122.538c-12.183 16.507-19.404 36.91-19.404 59.006 0 54.99 44.636 99.584 99.674 99.584 55.045 0 99.671-44.594 99.671-99.584 0-22.096-7.211-42.48-19.375-59.006z" class="B"/></g><path d="M10685.115-58.755c0 4.12-3.343 7.46-7.467 7.46s-7.464-3.34-7.464-7.46c0-4.111 3.34-7.458 7.464-7.458a7.47 7.47 0 0 1 7.467 7.458m49.596 0c0 4.12-3.343 7.46-7.457 7.46-4.124 0-7.465-3.34-7.465-7.46a7.47 7.47 0 0 1 7.465-7.458 7.47 7.47 0 0 1 7.457 7.458" class="B"/><g fill="none" class="D"><path d="M10688.617-26.677c7.635 0 13.829-6.172 13.829-13.81m13.832 13.81c-7.626 0-13.832-6.172-13.832-13.81v-4.956m-5.818-5.813c0 3.217 2.608 5.813 5.818 5.813 3.22 0 5.828-2.596 5.828-5.813" class="B C" stroke="#000"/><path d="M10651.259-10.406l41.934-28.097-49.87 7.913m110.322 20.184l-41.944-28.097 49.88 7.913" stroke="#000" class="B" stroke-linejoin="bevel"/></g><g fill="#ff7b54"><path d="M10816.26 108.341c0 47.775-38.779 86.511-86.587 86.511-47.817 0-86.584-38.736-86.584-86.511 0-47.766 38.767-86.511 86.584-86.511 47.808 0 86.587 38.745 86.587 86.511" class="B"/><path d="M10643.089 108.341v202.424h218.342z" class="B"/><path d="M10862.966 310.764c13.68-19.178 21.776-42.629 21.776-67.959 0-64.735-52.505-117.194-117.287-117.194-64.792 0-117.297 52.459-117.297 117.194a116.49 116.49 0 0 0 21.776 67.959z" class="B"/></g><g fill="none" class="C"><g stroke="#ff7b54"><path d="M10859.905 281.774c38.685 38.651 101.416 38.651 140.09 0 38.685-38.649 38.685-101.315 0-139.967" stroke-width="23.489" class="B"/><path d="M10667.67 279.32c38.685-38.651 38.685-101.315 0-139.967s-101.404-38.651-140.089 0" stroke-width="32.523" class="B"/></g><path d="M10534.961 125.064c-7.636 0-13.83 6.181-13.83 13.82m23.33-5.871c-7.625 0-13.822 6.179-13.822 13.817" class="B D" stroke="#000"/></g><g fill="#1dae27"><path d="M10336.153 47.114c1.685-7.402-2.381-19.442-12.145-16.018-3.955 1.392-5.601 5.473-6.469 9.237-2.079 8.859-2.643 18.417-3.595 27.569-4.669-6.519.216-17.044-6.742-22.811-3.181-2.632-7.7-3.321-10.836-.12-4.519 4.609-1.788 10.976-.226 16.131 2.203 7.234 4.463 13.959 4.153 21.145-.528-1.647-2.787-2.654-4.36-3.829-3.049-2.276-7.701-2.136-10.063 1.026-3.757 5.059 4.264 17.957 4.283 23.534.02 9.606-7.088 14.506-13.398 21.533l-4.225 3.894c-2.261 2.042 1.429 4.664 3.379 2.023-.453.893-.978 2.642-.489 3.602.47.903 1.299 1.363 1.807.104.584-1.459 2.55-4.026 4.105-6.499 5.028-8.007 5.987-17.882 15.128-20.863 5.3-1.731 21.222 3.273 24.856-1.893 2.278-3.234.959-7.674-2.167-9.866-1.61-1.139-4.81-2.757-6.543-2.748 6.741-2.54 15.365-2.69 22.935-2.868 5.384-.123 12.296.45 15.261-5.269 2.053-3.959 0-8.043-3.531-10.224-7.662-4.806-16.136 3.123-23.8.744 8.399-3.8 17.295-7.301 25.089-12.05 3.288-2.003 6.648-4.845 6.742-9.03.216-10.403-12.69-10.422-19.168-6.434z" class="B"/><path d="M10298.485 97.757l-26.982 37.787" stroke="#1dae27" stroke-width="9.034" class="B C"/></g></g></svg>