<svg width="1280" height="720" viewBox="0 0 1280 720" fill="none" xmlns="http://www.w3.org/2000/svg">
<g clip-path="url(#clip0_410_4633)">
<rect width="1280" height="720" fill="#3E3E3E"/>
<circle cx="46" cy="45" r="25" fill="#707070"/>
<circle cx="46" cy="115" r="25" fill="#707070"/>
<circle cx="46" cy="185" r="25" fill="#707070"/>
<circle cx="46" cy="255" r="25" fill="#707070"/>
<circle cx="46" cy="325" r="25" fill="#707070"/>
<circle cx="46" cy="395" r="25" fill="#F3D6B6"/>
<circle cx="46" cy="465" r="25" fill="#FFC93C"/>
<circle cx="46" cy="535" r="25" fill="#F3D6B6"/>
<circle cx="46" cy="605" r="25" fill="#707070"/>
<circle cx="46" cy="675" r="25" fill="#707070"/>
<circle cx="116" cy="45" r="25" fill="#707070"/>
<circle cx="116" cy="115" r="25" fill="#707070"/>
<circle cx="116" cy="185" r="25" fill="#707070"/>
<circle cx="116" cy="255" r="25" fill="#707070"/>
<circle cx="116" cy="325" r="25" fill="#707070"/>
<circle cx="116" cy="395" r="25" fill="#707070"/>
<circle cx="116" cy="465" r="25" fill="#F3D6B6"/>
<circle cx="116" cy="535" r="25" fill="#FFC93C"/>
<circle cx="116" cy="605" r="25" fill="#F3D6B6"/>
<circle cx="116" cy="675" r="25" fill="#707070"/>
<circle cx="186" cy="45" r="25" fill="#707070"/>
<circle cx="186" cy="115" r="25" fill="#707070"/>
<circle cx="186" cy="185" r="25" fill="#707070"/>
<circle cx="186" cy="255" r="25" fill="#707070"/>
<circle cx="186" cy="325" r="25" fill="#707070"/>
<circle cx="186" cy="395" r="25" fill="#707070"/>
<circle cx="186" cy="465" r="25" fill="#707070"/>
<circle cx="186" cy="535" r="25" fill="#F3D6B6"/>
<circle cx="186" cy="605" r="25" fill="#FFC93C"/>
<circle cx="186" cy="675" r="25" fill="#F3D6B6"/>
<circle cx="256" cy="45" r="25" fill="#707070"/>
<circle cx="256" cy="115" r="25" fill="#707070"/>
<circle cx="256" cy="185" r="25" fill="#707070"/>
<circle cx="256" cy="255" r="25" fill="#707070"/>
<circle cx="256" cy="325" r="25" fill="#707070"/>
<circle cx="256" cy="395" r="25" fill="#707070"/>
<circle cx="256" cy="465" r="25" fill="#707070"/>
<circle cx="256" cy="535" r="25" fill="#707070"/>
<circle cx="256" cy="605" r="25" fill="#F3D6B6"/>
<circle cx="256" cy="675" r="25" fill="#FFC93C"/>
<circle cx="326" cy="45" r="25" fill="#707070"/>
<circle cx="326" cy="115" r="25" fill="#707070"/>
<circle cx="326" cy="185" r="25" fill="#707070"/>
<circle cx="326" cy="255" r="25" fill="#707070"/>
<circle cx="326" cy="325" r="25" fill="#707070"/>
<circle cx="326" cy="395" r="25" fill="#707070"/>
<circle cx="326" cy="465" r="25" fill="#707070"/>
<circle cx="326" cy="535" r="25" fill="#707070"/>
<circle cx="326" cy="605" r="25" fill="#F3D6B6"/>
<circle cx="326" cy="675" r="25" fill="#FFC93C"/>
<circle cx="396" cy="45" r="25" fill="#707070"/>
<circle cx="396" cy="115" r="25" fill="#707070"/>
<circle cx="396" cy="185" r="25" fill="#707070"/>
<circle cx="396" cy="255" r="25" fill="#707070"/>
<circle cx="396" cy="325" r="25" fill="#707070"/>
<circle cx="396" cy="395" r="25" fill="#707070"/>
<circle cx="396" cy="465" r="25" fill="#707070"/>
<circle cx="396" cy="535" r="25" fill="#F3D6B6"/>
<circle cx="396" cy="605" r="25" fill="#FFC93C"/>
<circle cx="396" cy="675" r="25" fill="#F3D6B6"/>
<circle cx="466" cy="45" r="25" fill="#707070"/>
<circle cx="466" cy="115" r="25" fill="#707070"/>
<circle cx="466" cy="185" r="25" fill="#707070"/>
<circle cx="466" cy="255" r="25" fill="#707070"/>
<circle cx="466" cy="325" r="25" fill="#707070"/>
<circle cx="466" cy="395" r="25" fill="#707070"/>
<circle cx="466" cy="465" r="25" fill="#F3D6B6"/>
<circle cx="466" cy="535" r="25" fill="#FFC93C"/>
<circle cx="466" cy="605" r="25" fill="#F3D6B6"/>
<circle cx="466" cy="675" r="25" fill="#707070"/>
<circle cx="536" cy="45" r="25" fill="#707070"/>
<circle cx="536" cy="115" r="25" fill="#707070"/>
<circle cx="536" cy="185" r="25" fill="#707070"/>
<circle cx="536" cy="255" r="25" fill="#707070"/>
<circle cx="536" cy="325" r="25" fill="#707070"/>
<circle cx="536" cy="395" r="25" fill="#F3D6B6"/>
<circle cx="536" cy="465" r="25" fill="#FFC93C"/>
<circle cx="536" cy="535" r="25" fill="#F3D6B6"/>
<circle cx="536" cy="605" r="25" fill="#707070"/>
<circle cx="536" cy="675" r="25" fill="#707070"/>
<circle cx="606" cy="45" r="25" fill="#707070"/>
<circle cx="606" cy="115" r="25" fill="#707070"/>
<circle cx="606" cy="185" r="25" fill="#707070"/>
<circle cx="606" cy="255" r="25" fill="#707070"/>
<circle cx="606" cy="325" r="25" fill="#F3D6B6"/>
<circle cx="606" cy="395" r="25" fill="#FFC93C"/>
<circle cx="606" cy="465" r="25" fill="#F3D6B6"/>
<circle cx="606" cy="535" r="25" fill="#707070"/>
<circle cx="606" cy="605" r="25" fill="#707070"/>
<circle cx="606" cy="675" r="25" fill="#707070"/>
<circle cx="676" cy="45" r="25" fill="#707070"/>
<circle cx="676" cy="115" r="25" fill="#707070"/>
<circle cx="676" cy="185" r="25" fill="#707070"/>
<circle cx="676" cy="255" r="25" fill="#F3D6B6"/>
<circle cx="676" cy="325" r="25" fill="#FFC93C"/>
<circle cx="676" cy="395" r="25" fill="#F3D6B6"/>
<circle cx="676" cy="465" r="25" fill="#707070"/>
<circle cx="676" cy="535" r="25" fill="#707070"/>
<circle cx="676" cy="605" r="25" fill="#707070"/>
<circle cx="676" cy="675" r="25" fill="#707070"/>
<circle cx="746" cy="45" r="25" fill="#707070"/>
<circle cx="746" cy="115" r="25" fill="#707070"/>
<circle cx="746" cy="185" r="25" fill="#F3D6B6"/>
<circle cx="746" cy="255" r="25" fill="#FFC93C"/>
<circle cx="746" cy="325" r="25" fill="#F3D6B6"/>
<circle cx="746" cy="395" r="25" fill="#707070"/>
<circle cx="746" cy="465" r="25" fill="#707070"/>
<circle cx="746" cy="535" r="25" fill="#707070"/>
<circle cx="746" cy="605" r="25" fill="#707070"/>
<circle cx="746" cy="675" r="25" fill="#707070"/>
<circle cx="816" cy="45" r="25" fill="#707070"/>
<circle cx="816" cy="115" r="25" fill="#F3D6B6"/>
<circle cx="816" cy="185" r="25" fill="#FFC93C"/>
<circle cx="816" cy="255" r="25" fill="#F3D6B6"/>
<circle cx="816" cy="325" r="25" fill="#707070"/>
<circle cx="816" cy="395" r="25" fill="#707070"/>
<circle cx="816" cy="465" r="25" fill="#707070"/>
<circle cx="816" cy="535" r="25" fill="#707070"/>
<circle cx="816" cy="605" r="25" fill="#707070"/>
<circle cx="816" cy="675" r="25" fill="#707070"/>
<circle cx="886" cy="45" r="25" fill="#F3D6B6"/>
<circle cx="886" cy="115" r="25" fill="#FFC93C"/>
<circle cx="886" cy="185" r="25" fill="#F3D6B6"/>
<circle cx="886" cy="255" r="25" fill="#707070"/>
<circle cx="886" cy="325" r="25" fill="#707070"/>
<circle cx="886" cy="395" r="25" fill="#707070"/>
<circle cx="886" cy="465" r="25" fill="#707070"/>
<circle cx="886" cy="535" r="25" fill="#707070"/>
<circle cx="886" cy="605" r="25" fill="#707070"/>
<circle cx="886" cy="675" r="25" fill="#707070"/>
<circle cx="956" cy="45" r="25" fill="#FFC93C"/>
<circle cx="956" cy="115" r="25" fill="#F3D6B6"/>
<circle cx="956" cy="185" r="25" fill="#707070"/>
<circle cx="956" cy="255" r="25" fill="#707070"/>
<circle cx="956" cy="325" r="25" fill="#707070"/>
<circle cx="956" cy="395" r="25" fill="#707070"/>
<circle cx="956" cy="465" r="25" fill="#707070"/>
<circle cx="956" cy="535" r="25" fill="#707070"/>
<circle cx="956" cy="605" r="25" fill="#707070"/>
<circle cx="956" cy="675" r="25" fill="#707070"/>
<circle cx="1026" cy="45" r="25" fill="#FFC93C"/>
<circle cx="1026" cy="115" r="25" fill="#F3D6B6"/>
<circle cx="1026" cy="185" r="25" fill="#707070"/>
<circle cx="1026" cy="255" r="25" fill="#707070"/>
<circle cx="1026" cy="325" r="25" fill="#707070"/>
<circle cx="1026" cy="395" r="25" fill="#707070"/>
<circle cx="1026" cy="465" r="25" fill="#707070"/>
<circle cx="1026" cy="535" r="25" fill="#707070"/>
<circle cx="1026" cy="605" r="25" fill="#707070"/>
<circle cx="1026" cy="675" r="25" fill="#707070"/>
<circle cx="1096" cy="45" r="25" fill="#FFC93C"/>
<circle cx="1096" cy="115" r="25" fill="#F3D6B6"/>
<circle cx="1096" cy="185" r="25" fill="#707070"/>
<circle cx="1096" cy="255" r="25" fill="#707070"/>
<circle cx="1096" cy="325" r="25" fill="#707070"/>
<circle cx="1096" cy="395" r="25" fill="#707070"/>
<circle cx="1096" cy="465" r="25" fill="#707070"/>
<circle cx="1096" cy="535" r="25" fill="#707070"/>
<circle cx="1096" cy="605" r="25" fill="#707070"/>
<circle cx="1096" cy="675" r="25" fill="#707070"/>
<circle cx="1166" cy="45" r="25" fill="#F3D6B6"/>
<circle cx="1166" cy="115" r="25" fill="#FFC93C"/>
<circle cx="1166" cy="185" r="25" fill="#F3D6B6"/>
<circle cx="1166" cy="255" r="25" fill="#707070"/>
<circle cx="1166" cy="325" r="25" fill="#707070"/>
<circle cx="1166" cy="395" r="25" fill="#707070"/>
<circle cx="1166" cy="465" r="25" fill="#707070"/>
<circle cx="1166" cy="535" r="25" fill="#707070"/>
<circle cx="1166" cy="605" r="25" fill="#707070"/>
<circle cx="1166" cy="675" r="25" fill="#707070"/>
<circle cx="1236" cy="45" r="25" fill="#707070"/>
<circle cx="1236" cy="115" r="25" fill="#F3D6B6"/>
<circle cx="1236" cy="185" r="25" fill="#FFC93C"/>
<circle cx="1236" cy="255" r="25" fill="#F3D6B6"/>
<circle cx="1236" cy="325" r="25" fill="#707070"/>
<circle cx="1236" cy="395" r="25" fill="#707070"/>
<circle cx="1236" cy="465" r="25" fill="#707070"/>
<circle cx="1236" cy="535" r="25" fill="#707070"/>
<circle cx="1236" cy="605" r="25" fill="#707070"/>
<circle cx="1236" cy="675" r="25" fill="#707070"/>
<g opacity="0.5" style="mix-blend-mode:plus-lighter">
<circle cx="53.5" cy="469.5" r="119.5" fill="url(#paint0_radial_410_4633)"/>
</g>
<g opacity="0.5" style="mix-blend-mode:plus-lighter">
<circle cx="111.5" cy="530.5" r="119.5" fill="url(#paint1_radial_410_4633)"/>
</g>
<g opacity="0.5" style="mix-blend-mode:plus-lighter">
<circle cx="181.5" cy="600.5" r="119.5" fill="url(#paint2_radial_410_4633)"/>
</g>
<g opacity="0.5" style="mix-blend-mode:plus-lighter">
<circle cx="244.5" cy="667.5" r="119.5" fill="url(#paint3_radial_410_4633)"/>
</g>
<g opacity="0.5" style="mix-blend-mode:plus-lighter">
<circle cx="321.5" cy="667.5" r="119.5" fill="url(#paint4_radial_410_4633)"/>
</g>
<g opacity="0.5" style="mix-blend-mode:plus-lighter">
<circle cx="391.5" cy="609.5" r="119.5" fill="url(#paint5_radial_410_4633)"/>
</g>
<g opacity="0.5" style="mix-blend-mode:plus-lighter">
<circle cx="470.5" cy="539.5" r="119.5" fill="url(#paint6_radial_410_4633)"/>
</g>
<g opacity="0.5" style="mix-blend-mode:plus-lighter">
<circle cx="531.5" cy="464.5" r="119.5" fill="url(#paint7_radial_410_4633)"/>
</g>
<g opacity="0.5" style="mix-blend-mode:plus-lighter">
<circle cx="590.5" cy="399.5" r="119.5" fill="url(#paint8_radial_410_4633)"/>
</g>
<g opacity="0.5" style="mix-blend-mode:plus-lighter">
<circle cx="671.5" cy="337.5" r="119.5" fill="url(#paint9_radial_410_4633)"/>
</g>
<g opacity="0.5" style="mix-blend-mode:plus-lighter">
<circle cx="741.5" cy="259.5" r="119.5" fill="url(#paint10_radial_410_4633)"/>
</g>
<g opacity="0.5" style="mix-blend-mode:plus-lighter">
<circle cx="811.5" cy="196.5" r="119.5" fill="url(#paint11_radial_410_4633)"/>
</g>
<g opacity="0.5" style="mix-blend-mode:plus-lighter">
<circle cx="881.5" cy="119.5" r="119.5" fill="url(#paint12_radial_410_4633)"/>
</g>
<g opacity="0.5" style="mix-blend-mode:plus-lighter">
<circle cx="951.5" cy="44.5" r="119.5" fill="url(#paint13_radial_410_4633)"/>
</g>
<g opacity="0.5" style="mix-blend-mode:plus-lighter">
<circle cx="1021.5" cy="44.5" r="119.5" fill="url(#paint14_radial_410_4633)"/>
</g>
<g opacity="0.5" style="mix-blend-mode:plus-lighter">
<circle cx="1091.5" cy="44.5" r="119.5" fill="url(#paint15_radial_410_4633)"/>
</g>
<g opacity="0.5" style="mix-blend-mode:plus-lighter">
<circle cx="1165.5" cy="119.5" r="119.5" fill="url(#paint16_radial_410_4633)"/>
</g>
<g opacity="0.5" style="mix-blend-mode:plus-lighter">
<circle cx="1231.5" cy="184.5" r="119.5" fill="url(#paint17_radial_410_4633)"/>
</g>
</g>
<defs>
<radialGradient id="paint0_radial_410_4633" cx="0" cy="0" r="1" gradientUnits="userSpaceOnUse" gradientTransform="translate(53.5 469.5) rotate(90) scale(119.5)">
<stop stop-color="#FFC93C"/>
<stop offset="1" stop-color="#FFC93C" stop-opacity="0"/>
</radialGradient>
<radialGradient id="paint1_radial_410_4633" cx="0" cy="0" r="1" gradientUnits="userSpaceOnUse" gradientTransform="translate(111.5 530.5) rotate(90) scale(119.5)">
<stop stop-color="#FFC93C"/>
<stop offset="1" stop-color="#FFC93C" stop-opacity="0"/>
</radialGradient>
<radialGradient id="paint2_radial_410_4633" cx="0" cy="0" r="1" gradientUnits="userSpaceOnUse" gradientTransform="translate(181.5 600.5) rotate(90) scale(119.5)">
<stop stop-color="#FFC93C"/>
<stop offset="1" stop-color="#FFC93C" stop-opacity="0"/>
</radialGradient>
<radialGradient id="paint3_radial_410_4633" cx="0" cy="0" r="1" gradientUnits="userSpaceOnUse" gradientTransform="translate(244.5 667.5) rotate(90) scale(119.5)">
<stop stop-color="#FFC93C"/>
<stop offset="1" stop-color="#FFC93C" stop-opacity="0"/>
</radialGradient>
<radialGradient id="paint4_radial_410_4633" cx="0" cy="0" r="1" gradientUnits="userSpaceOnUse" gradientTransform="translate(321.5 667.5) rotate(90) scale(119.5)">
<stop stop-color="#FFC93C"/>
<stop offset="1" stop-color="#FFC93C" stop-opacity="0"/>
</radialGradient>
<radialGradient id="paint5_radial_410_4633" cx="0" cy="0" r="1" gradientUnits="userSpaceOnUse" gradientTransform="translate(391.5 609.5) rotate(90) scale(119.5)">
<stop stop-color="#FFC93C"/>
<stop offset="1" stop-color="#FFC93C" stop-opacity="0"/>
</radialGradient>
<radialGradient id="paint6_radial_410_4633" cx="0" cy="0" r="1" gradientUnits="userSpaceOnUse" gradientTransform="translate(470.5 539.5) rotate(90) scale(119.5)">
<stop stop-color="#FFC93C"/>
<stop offset="1" stop-color="#FFC93C" stop-opacity="0"/>
</radialGradient>
<radialGradient id="paint7_radial_410_4633" cx="0" cy="0" r="1" gradientUnits="userSpaceOnUse" gradientTransform="translate(531.5 464.5) rotate(90) scale(119.5)">
<stop stop-color="#FFC93C"/>
<stop offset="1" stop-color="#FFC93C" stop-opacity="0"/>
</radialGradient>
<radialGradient id="paint8_radial_410_4633" cx="0" cy="0" r="1" gradientUnits="userSpaceOnUse" gradientTransform="translate(590.5 399.5) rotate(90) scale(119.5)">
<stop stop-color="#FFC93C"/>
<stop offset="1" stop-color="#FFC93C" stop-opacity="0"/>
</radialGradient>
<radialGradient id="paint9_radial_410_4633" cx="0" cy="0" r="1" gradientUnits="userSpaceOnUse" gradientTransform="translate(671.5 337.5) rotate(90) scale(119.5)">
<stop stop-color="#FFC93C"/>
<stop offset="1" stop-color="#FFC93C" stop-opacity="0"/>
</radialGradient>
<radialGradient id="paint10_radial_410_4633" cx="0" cy="0" r="1" gradientUnits="userSpaceOnUse" gradientTransform="translate(741.5 259.5) rotate(90) scale(119.5)">
<stop stop-color="#FFC93C"/>
<stop offset="1" stop-color="#FFC93C" stop-opacity="0"/>
</radialGradient>
<radialGradient id="paint11_radial_410_4633" cx="0" cy="0" r="1" gradientUnits="userSpaceOnUse" gradientTransform="translate(811.5 196.5) rotate(90) scale(119.5)">
<stop stop-color="#FFC93C"/>
<stop offset="1" stop-color="#FFC93C" stop-opacity="0"/>
</radialGradient>
<radialGradient id="paint12_radial_410_4633" cx="0" cy="0" r="1" gradientUnits="userSpaceOnUse" gradientTransform="translate(881.5 119.5) rotate(90) scale(119.5)">
<stop stop-color="#FFC93C"/>
<stop offset="1" stop-color="#FFC93C" stop-opacity="0"/>
</radialGradient>
<radialGradient id="paint13_radial_410_4633" cx="0" cy="0" r="1" gradientUnits="userSpaceOnUse" gradientTransform="translate(951.5 44.5) rotate(90) scale(119.5)">
<stop stop-color="#FFC93C"/>
<stop offset="1" stop-color="#FFC93C" stop-opacity="0"/>
</radialGradient>
<radialGradient id="paint14_radial_410_4633" cx="0" cy="0" r="1" gradientUnits="userSpaceOnUse" gradientTransform="translate(1021.5 44.5) rotate(90) scale(119.5)">
<stop stop-color="#FFC93C"/>
<stop offset="1" stop-color="#FFC93C" stop-opacity="0"/>
</radialGradient>
<radialGradient id="paint15_radial_410_4633" cx="0" cy="0" r="1" gradientUnits="userSpaceOnUse" gradientTransform="translate(1091.5 44.5) rotate(90) scale(119.5)">
<stop stop-color="#FFC93C"/>
<stop offset="1" stop-color="#FFC93C" stop-opacity="0"/>
</radialGradient>
<radialGradient id="paint16_radial_410_4633" cx="0" cy="0" r="1" gradientUnits="userSpaceOnUse" gradientTransform="translate(1165.5 119.5) rotate(90) scale(119.5)">
<stop stop-color="#FFC93C"/>
<stop offset="1" stop-color="#FFC93C" stop-opacity="0"/>
</radialGradient>
<radialGradient id="paint17_radial_410_4633" cx="0" cy="0" r="1" gradientUnits="userSpaceOnUse" gradientTransform="translate(1231.5 184.5) rotate(90) scale(119.5)">
<stop stop-color="#FFC93C"/>
<stop offset="1" stop-color="#FFC93C" stop-opacity="0"/>
</radialGradient>
<clipPath id="clip0_410_4633">
<rect width="1280" height="720" fill="white"/>
</clipPath>
</defs>
</svg>
