<svg width="1280" height="720" viewBox="0 0 1280 720" fill="none" xmlns="http://www.w3.org/2000/svg">
<rect width="1280" height="720" fill="#ECFAFF"/>
<rect x="50" y="434" width="100" height="100" fill="#8ECD6A"/>
<rect x="170" y="434" width="100" height="100" fill="#8ECD6A"/>
<rect x="410" y="434" width="100" height="100" fill="#8ECD6A"/>
<rect x="290" y="434" width="100" height="100" fill="#8ECD6A"/>
<rect x="530" y="434" width="100" height="100" fill="#8ECD6A"/>
<rect x="650" y="434" width="100" height="100" fill="#8ECD6A"/>
<rect x="890" y="434" width="100" height="100" fill="#8ECD6A"/>
<rect x="770" y="434" width="100" height="100" fill="#8ECD6A"/>
<rect x="1130" y="434" width="100" height="100" fill="#8ECD6A"/>
<rect x="1010" y="434" width="100" height="100" fill="#8ECD6A"/>
<path d="M230.308 249.611C232.649 252.807 231.968 257.312 228.765 259.652L221.496 264.981L213.003 253.396L220.278 248.068C223.475 245.728 227.98 246.415 230.321 249.611" fill="#FF7B54"/>
<path d="M82.2883 303.089C85.2518 305.725 89.7964 305.467 92.4355 302.505L98.4272 295.782L87.6966 286.227L81.7049 292.955C79.0672 295.918 79.3255 300.463 82.289 303.1" fill="#FF7B54"/>
<path d="M173.619 250.606C191.852 253.95 209.346 241.881 212.678 223.645C216.029 205.411 203.957 187.923 185.717 184.589C167.479 181.24 149.985 193.315 146.653 211.55C143.302 229.779 155.38 247.267 173.619 250.606Z" fill="#FF7B54"/>
<path d="M159.31 260.243C155.901 258.214 154.786 253.793 156.821 250.396L161.443 242.656L173.79 250.007L169.173 257.754C167.143 261.164 162.728 262.279 159.31 260.243Z" fill="#FF7B54"/>
<path d="M206.421 237.829C207.989 238.75 210.006 238.238 210.927 236.67C211.849 235.101 211.336 233.085 209.767 232.164" stroke="black" stroke-width="1.80736" stroke-miterlimit="10"/>
<path d="M221.308 253.548C221.597 253.72 221.917 253.833 222.25 253.881C222.583 253.929 222.923 253.911 223.249 253.827C223.575 253.743 223.881 253.596 224.15 253.393C224.418 253.191 224.644 252.937 224.815 252.647C224.987 252.358 225.101 252.038 225.149 251.705C225.198 251.373 225.18 251.033 225.097 250.708C225.014 250.382 224.867 250.075 224.665 249.807C224.463 249.538 224.21 249.311 223.92 249.141" stroke="black" stroke-width="1.80736" stroke-miterlimit="10"/>
<path d="M225.029 252.359C223.499 253.709 223.363 256.035 224.705 257.565C225.025 257.928 225.413 258.224 225.847 258.436C226.281 258.649 226.753 258.774 227.235 258.804C227.717 258.834 228.201 258.769 228.658 258.612C229.115 258.455 229.537 258.209 229.899 257.889" stroke="black" stroke-width="1.80736" stroke-miterlimit="10"/>
<path d="M203.123 241.516L196.463 238.055" stroke="black" stroke-width="1.80736" stroke-miterlimit="10"/>
<path d="M212.531 209.917C210.405 200.46 204.218 191.993 194.881 187.293C178.321 178.951 158.144 185.609 149.806 202.164C148.348 205.048 147.375 208.05 146.803 211.077L212.524 209.903L212.531 209.917Z" fill="black"/>
<path d="M174.584 208.248C174.584 199.996 171.441 192.491 166.319 186.805C156.411 191.109 148.741 200.107 146.653 211.536C144.832 221.427 147.587 231.099 153.39 238.404C165.748 233.938 174.584 222.14 174.584 208.235" fill="black"/>
<path d="M209.021 221.601C209.022 222.157 208.912 222.707 208.7 223.221C208.487 223.735 208.176 224.202 207.782 224.595C207.389 224.988 206.922 225.3 206.409 225.512C205.895 225.725 205.345 225.834 204.789 225.834C204.232 225.834 203.682 225.725 203.168 225.513C202.654 225.3 202.187 224.988 201.794 224.595C201.401 224.202 201.089 223.735 200.876 223.221C200.663 222.707 200.554 222.157 200.554 221.601C200.554 221.045 200.663 220.494 200.876 219.98C201.089 219.466 201.401 218.999 201.794 218.606C202.187 218.213 202.654 217.901 203.168 217.689C203.682 217.476 204.232 217.367 204.789 217.367C205.345 217.367 205.895 217.476 206.409 217.689C206.922 217.901 207.389 218.213 207.782 218.606C208.176 219 208.487 219.466 208.7 219.98C208.912 220.494 209.022 221.045 209.021 221.601Z" fill="black"/>
<path d="M110.28 339.151L80.797 346.424L80.188 366.312C80.188 366.312 111.286 364.516 118.255 360.725C123.338 357.963 127.63 353.464 131.774 348.939C134.556 346.275 137.116 343.474 139.51 340.584C146.058 347.565 151.367 352.634 151.497 352.557C150.027 370.194 154.694 379.328 157.436 394.373L175.572 393.22L176.098 345.426L157.333 311.44L119.5 306.344C116.031 316.95 112.906 327.852 110.266 339.178" fill="#34C3FF"/>
<path d="M166.629 279.13C188.247 284.687 216.814 273.095 224.271 262.951L218.209 249.223C199.295 259.813 182.404 260.89 170.689 258.401L150.907 248.094C109.404 252.127 84.7066 289.774 84.7066 289.774L93.9525 301.002C118.332 279.267 130.632 275.947 130.632 275.947C127.714 283.228 124.925 290.604 122.299 298.137C122.299 298.137 122.274 298.214 122.267 298.247C121.329 300.934 120.419 303.631 119.537 306.337L157.37 311.432L157.125 310.991C161.89 299.667 164.839 288.53 166.655 279.144" fill="#7C2869"/>
<path d="M161.792 189.188L212.08 208.842C212.866 211.758 213.252 214.767 213.229 217.786L154.867 194.989C156.902 192.755 159.232 190.808 161.792 189.201" fill="#FFC93C"/>
<path d="M165.574 177.01C165.574 172.032 169.606 168 174.585 168C179.564 168 183.598 172.032 183.598 177.011C183.598 181.989 179.565 186.022 174.585 186.022C169.606 186.022 165.574 181.988 165.574 177.01Z" fill="black"/>
<path d="M175.584 393.193C171.078 392.649 157.443 394.355 157.443 394.355V404.731H187.159C187.159 404.731 185.057 394.355 175.584 393.193Z" fill="black"/>
<path d="M80.7589 364.564C81.8167 360.143 81.6544 346.408 81.6544 346.408L71.3515 345.234L68.0002 374.762C68.0002 374.762 78.5413 373.834 80.7727 364.552L80.7589 364.564Z" fill="black"/>
<path d="M51.5 418L750 416" stroke="#1E5C93" stroke-width="8"/>
<path d="M761.086 416.568L738 428L738.058 405L761.086 416.568Z" fill="#1E5C93"/>
<path d="M820.513 431.2L812.129 416.001L829.256 416.185L820.513 431.2Z" fill="#1E5C93"/>
<path d="M939.513 431.192L931.128 415.993L948.256 416.177L939.513 431.192Z" fill="#1E5C93"/>
<path d="M1059.51 431.2L1051.13 416.001L1068.26 416.185L1059.51 431.2Z" fill="#1E5C93"/>
<path d="M1179.51 431.2L1171.13 416.001L1188.26 416.185L1179.51 431.2Z" fill="#1E5C93"/>
<path d="M56.99 549.94L56.99 571H51.86L51.86 549.94H56.99ZM70.9077 554.08C72.8677 554.08 74.4277 554.72 75.5877 556C76.7677 557.26 77.3577 559 77.3577 561.22V571H72.2577V561.91C72.2577 560.79 71.9677 559.92 71.3877 559.3C70.8077 558.68 70.0277 558.37 69.0477 558.37C68.0677 558.37 67.2877 558.68 66.7077 559.3C66.1277 559.92 65.8377 560.79 65.8377 561.91V571H60.7077L60.7077 554.26H65.8377V556.48C66.3577 555.74 67.0577 555.16 67.9377 554.74C68.8177 554.3 69.8077 554.08 70.9077 554.08ZM83.5025 552.52C82.6025 552.52 81.8625 552.26 81.2825 551.74C80.7225 551.2 80.4425 550.54 80.4425 549.76C80.4425 548.96 80.7225 548.3 81.2825 547.78C81.8625 547.24 82.6025 546.97 83.5025 546.97C84.3825 546.97 85.1025 547.24 85.6625 547.78C86.2425 548.3 86.5325 548.96 86.5325 549.76C86.5325 550.54 86.2425 551.2 85.6625 551.74C85.1025 552.26 84.3825 552.52 83.5025 552.52ZM86.0525 554.26V571H80.9225V554.26H86.0525ZM88.7502 562.63C88.7502 560.89 89.1002 559.37 89.8002 558.07C90.5202 556.77 91.5102 555.77 92.7702 555.07C94.0502 554.37 95.5102 554.02 97.1502 554.02C99.2502 554.02 101 554.57 102.4 555.67C103.82 556.77 104.75 558.32 105.19 560.32H99.7302C99.2702 559.04 98.3802 558.4 97.0602 558.4C96.1202 558.4 95.3702 558.77 94.8102 559.51C94.2502 560.23 93.9702 561.27 93.9702 562.63C93.9702 563.99 94.2502 565.04 94.8102 565.78C95.3702 566.5 96.1202 566.86 97.0602 566.86C98.3802 566.86 99.2702 566.22 99.7302 564.94H105.19C104.75 566.9 103.82 568.44 102.4 569.56C100.98 570.68 99.2302 571.24 97.1502 571.24C95.5102 571.24 94.0502 570.89 92.7702 570.19C91.5102 569.49 90.5202 568.49 89.8002 567.19C89.1002 565.89 88.7502 564.37 88.7502 562.63ZM110.514 552.52C109.614 552.52 108.874 552.26 108.294 551.74C107.734 551.2 107.454 550.54 107.454 549.76C107.454 548.96 107.734 548.3 108.294 547.78C108.874 547.24 109.614 546.97 110.514 546.97C111.394 546.97 112.114 547.24 112.674 547.78C113.254 548.3 113.544 548.96 113.544 549.76C113.544 550.54 113.254 551.2 112.674 551.74C112.114 552.26 111.394 552.52 110.514 552.52ZM113.064 554.26V571H107.934V554.26H113.064ZM124.402 571.24C122.762 571.24 121.282 570.89 119.962 570.19C118.662 569.49 117.632 568.49 116.872 567.19C116.132 565.89 115.762 564.37 115.762 562.63C115.762 560.91 116.142 559.4 116.902 558.1C117.662 556.78 118.702 555.77 120.022 555.07C121.342 554.37 122.822 554.02 124.462 554.02C126.102 554.02 127.582 554.37 128.902 555.07C130.222 555.77 131.262 556.78 132.022 558.1C132.782 559.4 133.162 560.91 133.162 562.63C133.162 564.35 132.772 565.87 131.992 567.19C131.232 568.49 130.182 569.49 128.842 570.19C127.522 570.89 126.042 571.24 124.402 571.24ZM124.402 566.8C125.382 566.8 126.212 566.44 126.892 565.72C127.592 565 127.942 563.97 127.942 562.63C127.942 561.29 127.602 560.26 126.922 559.54C126.262 558.82 125.442 558.46 124.462 558.46C123.462 558.46 122.632 558.82 121.972 559.54C121.312 560.24 120.982 561.27 120.982 562.63C120.982 563.97 121.302 565 121.942 565.72C122.602 566.44 123.422 566.8 124.402 566.8Z" fill="#1A3567"/>
<path d="M1145.57 549.94V554.05H1136.99V558.49H1143.41V562.48H1136.99V571H1131.86V549.94H1145.57ZM1150.85 552.52C1149.95 552.52 1149.21 552.26 1148.63 551.74C1148.07 551.2 1147.79 550.54 1147.79 549.76C1147.79 548.96 1148.07 548.3 1148.63 547.78C1149.21 547.24 1149.95 546.97 1150.85 546.97C1151.73 546.97 1152.45 547.24 1153.01 547.78C1153.59 548.3 1153.88 548.96 1153.88 549.76C1153.88 550.54 1153.59 551.2 1153.01 551.74C1152.45 552.26 1151.73 552.52 1150.85 552.52ZM1153.4 554.26V571H1148.27V554.26H1153.4ZM1167.31 554.08C1169.27 554.08 1170.83 554.72 1171.99 556C1173.17 557.26 1173.76 559 1173.76 561.22V571H1168.66V561.91C1168.66 560.79 1168.37 559.92 1167.79 559.3C1167.21 558.68 1166.43 558.37 1165.45 558.37C1164.47 558.37 1163.69 558.68 1163.11 559.3C1162.53 559.92 1162.24 560.79 1162.24 561.91V571H1157.11V554.26H1162.24V556.48C1162.76 555.74 1163.46 555.16 1164.34 554.74C1165.22 554.3 1166.21 554.08 1167.31 554.08Z" fill="#1A3567"/>
<path d="M667.91 556.72C667.91 557.94 667.63 559.06 667.07 560.08C666.51 561.08 665.65 561.89 664.49 562.51C663.33 563.13 661.89 563.44 660.17 563.44H656.99V571H651.86V549.94H660.17C661.85 549.94 663.27 550.23 664.43 550.81C665.59 551.39 666.46 552.19 667.04 553.21C667.62 554.23 667.91 555.4 667.91 556.72ZM659.78 559.36C660.76 559.36 661.49 559.13 661.97 558.67C662.45 558.21 662.69 557.56 662.69 556.72C662.69 555.88 662.45 555.23 661.97 554.77C661.49 554.31 660.76 554.08 659.78 554.08H656.99V559.36H659.78ZM669.561 562.6C669.561 560.88 669.881 559.37 670.521 558.07C671.181 556.77 672.071 555.77 673.191 555.07C674.311 554.37 675.561 554.02 676.941 554.02C678.121 554.02 679.151 554.26 680.031 554.74C680.931 555.22 681.621 555.85 682.101 556.63V554.26H687.231V571H682.101V568.63C681.601 569.41 680.901 570.04 680.001 570.52C679.121 571 678.091 571.24 676.911 571.24C675.551 571.24 674.311 570.89 673.191 570.19C672.071 569.47 671.181 568.46 670.521 567.16C669.881 565.84 669.561 564.32 669.561 562.6ZM682.101 562.63C682.101 561.35 681.741 560.34 681.021 559.6C680.321 558.86 679.461 558.49 678.441 558.49C677.421 558.49 676.551 558.86 675.831 559.6C675.131 560.32 674.781 561.32 674.781 562.6C674.781 563.88 675.131 564.9 675.831 565.66C676.551 566.4 677.421 566.77 678.441 566.77C679.461 566.77 680.321 566.4 681.021 565.66C681.741 564.92 682.101 563.91 682.101 562.63ZM697.752 571.24C696.292 571.24 694.992 570.99 693.852 570.49C692.712 569.99 691.812 569.31 691.152 568.45C690.492 567.57 690.122 566.59 690.042 565.51H695.112C695.172 566.09 695.442 566.56 695.922 566.92C696.402 567.28 696.992 567.46 697.692 567.46C698.332 567.46 698.822 567.34 699.162 567.1C699.522 566.84 699.702 566.51 699.702 566.11C699.702 565.63 699.452 565.28 698.952 565.06C698.452 564.82 697.642 564.56 696.522 564.28C695.322 564 694.322 563.71 693.522 563.41C692.722 563.09 692.032 562.6 691.452 561.94C690.872 561.26 690.582 560.35 690.582 559.21C690.582 558.25 690.842 557.38 691.362 556.6C691.902 555.8 692.682 555.17 693.702 554.71C694.742 554.25 695.972 554.02 697.392 554.02C699.492 554.02 701.142 554.54 702.342 555.58C703.562 556.62 704.262 558 704.442 559.72H699.702C699.622 559.14 699.362 558.68 698.922 558.34C698.502 558 697.942 557.83 697.242 557.83C696.642 557.83 696.182 557.95 695.862 558.19C695.542 558.41 695.382 558.72 695.382 559.12C695.382 559.6 695.632 559.96 696.132 560.2C696.652 560.44 697.452 560.68 698.532 560.92C699.772 561.24 700.782 561.56 701.562 561.88C702.342 562.18 703.022 562.68 703.602 563.38C704.202 564.06 704.512 564.98 704.532 566.14C704.532 567.12 704.252 568 703.692 568.78C703.152 569.54 702.362 570.14 701.322 570.58C700.302 571.02 699.112 571.24 697.752 571.24ZM715.291 571.24C713.651 571.24 712.171 570.89 710.851 570.19C709.551 569.49 708.521 568.49 707.761 567.19C707.021 565.89 706.651 564.37 706.651 562.63C706.651 560.91 707.031 559.4 707.791 558.1C708.551 556.78 709.591 555.77 710.911 555.07C712.231 554.37 713.711 554.02 715.351 554.02C716.991 554.02 718.471 554.37 719.791 555.07C721.111 555.77 722.151 556.78 722.911 558.1C723.671 559.4 724.051 560.91 724.051 562.63C724.051 564.35 723.661 565.87 722.881 567.19C722.121 568.49 721.071 569.49 719.731 570.19C718.411 570.89 716.931 571.24 715.291 571.24ZM715.291 566.8C716.271 566.8 717.101 566.44 717.781 565.72C718.481 565 718.831 563.97 718.831 562.63C718.831 561.29 718.491 560.26 717.811 559.54C717.151 558.82 716.331 558.46 715.351 558.46C714.351 558.46 713.521 558.82 712.861 559.54C712.201 560.24 711.871 561.27 711.871 562.63C711.871 563.97 712.191 565 712.831 565.72C713.491 566.44 714.311 566.8 715.291 566.8Z" fill="#1A3567"/>
<path d="M447.63 374.94L440.16 396H433.74L426.27 374.94H431.73L436.95 390.84L442.2 374.94H447.63ZM448.754 387.6C448.754 385.88 449.074 384.37 449.714 383.07C450.374 381.77 451.264 380.77 452.384 380.07C453.504 379.37 454.754 379.02 456.134 379.02C457.314 379.02 458.344 379.26 459.224 379.74C460.124 380.22 460.814 380.85 461.294 381.63V379.26H466.424V396H461.294V393.63C460.794 394.41 460.094 395.04 459.194 395.52C458.314 396 457.284 396.24 456.104 396.24C454.744 396.24 453.504 395.89 452.384 395.19C451.264 394.47 450.374 393.46 449.714 392.16C449.074 390.84 448.754 389.32 448.754 387.6ZM461.294 387.63C461.294 386.35 460.934 385.34 460.214 384.6C459.514 383.86 458.654 383.49 457.634 383.49C456.614 383.49 455.744 383.86 455.024 384.6C454.324 385.32 453.974 386.32 453.974 387.6C453.974 388.88 454.324 389.9 455.024 390.66C455.744 391.4 456.614 391.77 457.634 391.77C458.654 391.77 459.514 391.4 460.214 390.66C460.934 389.92 461.294 388.91 461.294 387.63ZM475.265 382.05C475.865 381.13 476.615 380.41 477.515 379.89C478.415 379.35 479.415 379.08 480.515 379.08V384.51H479.105C477.825 384.51 476.865 384.79 476.225 385.35C475.585 385.89 475.265 386.85 475.265 388.23V396H470.135V379.26H475.265V382.05ZM485.547 377.52C484.647 377.52 483.907 377.26 483.327 376.74C482.767 376.2 482.487 375.54 482.487 374.76C482.487 373.96 482.767 373.3 483.327 372.78C483.907 372.24 484.647 371.97 485.547 371.97C486.427 371.97 487.147 372.24 487.707 372.78C488.287 373.3 488.577 373.96 488.577 374.76C488.577 375.54 488.287 376.2 487.707 376.74C487.147 377.26 486.427 377.52 485.547 377.52ZM488.097 379.26V396H482.967V379.26H488.097ZM490.795 387.6C490.795 385.88 491.115 384.37 491.755 383.07C492.415 381.77 493.305 380.77 494.425 380.07C495.545 379.37 496.795 379.02 498.175 379.02C499.355 379.02 500.385 379.26 501.265 379.74C502.165 380.22 502.855 380.85 503.335 381.63V379.26H508.465V396H503.335V393.63C502.835 394.41 502.135 395.04 501.235 395.52C500.355 396 499.325 396.24 498.145 396.24C496.785 396.24 495.545 395.89 494.425 395.19C493.305 394.47 492.415 393.46 491.755 392.16C491.115 390.84 490.795 389.32 490.795 387.6ZM503.335 387.63C503.335 386.35 502.975 385.34 502.255 384.6C501.555 383.86 500.695 383.49 499.675 383.49C498.655 383.49 497.785 383.86 497.065 384.6C496.365 385.32 496.015 386.32 496.015 387.6C496.015 388.88 496.365 389.9 497.065 390.66C497.785 391.4 498.655 391.77 499.675 391.77C500.695 391.77 501.555 391.4 502.255 390.66C502.975 389.92 503.335 388.91 503.335 387.63ZM517.306 381.63C517.786 380.85 518.476 380.22 519.376 379.74C520.276 379.26 521.306 379.02 522.466 379.02C523.846 379.02 525.096 379.37 526.216 380.07C527.336 380.77 528.216 381.77 528.856 383.07C529.516 384.37 529.846 385.88 529.846 387.6C529.846 389.32 529.516 390.84 528.856 392.16C528.216 393.46 527.336 394.47 526.216 395.19C525.096 395.89 523.846 396.24 522.466 396.24C521.286 396.24 520.256 396.01 519.376 395.55C518.496 395.07 517.806 394.44 517.306 393.66V396H512.176V373.8H517.306V381.63ZM524.626 387.6C524.626 386.32 524.266 385.32 523.546 384.6C522.846 383.86 521.976 383.49 520.936 383.49C519.916 383.49 519.046 383.86 518.326 384.6C517.626 385.34 517.276 386.35 517.276 387.63C517.276 388.91 517.626 389.92 518.326 390.66C519.046 391.4 519.916 391.77 520.936 391.77C521.956 391.77 522.826 391.4 523.546 390.66C524.266 389.9 524.626 388.88 524.626 387.6ZM537.668 373.8V396H532.538V373.8H537.668ZM557.165 387.36C557.165 387.84 557.135 388.34 557.075 388.86H545.465C545.545 389.9 545.875 390.7 546.455 391.26C547.055 391.8 547.785 392.07 548.645 392.07C549.925 392.07 550.815 391.53 551.315 390.45H556.775C556.495 391.55 555.985 392.54 555.245 393.42C554.525 394.3 553.615 394.99 552.515 395.49C551.415 395.99 550.185 396.24 548.825 396.24C547.185 396.24 545.725 395.89 544.445 395.19C543.165 394.49 542.165 393.49 541.445 392.19C540.725 390.89 540.365 389.37 540.365 387.63C540.365 385.89 540.715 384.37 541.415 383.07C542.135 381.77 543.135 380.77 544.415 380.07C545.695 379.37 547.165 379.02 548.825 379.02C550.445 379.02 551.885 379.36 553.145 380.04C554.405 380.72 555.385 381.69 556.085 382.95C556.805 384.21 557.165 385.68 557.165 387.36ZM551.915 386.01C551.915 385.13 551.615 384.43 551.015 383.91C550.415 383.39 549.665 383.13 548.765 383.13C547.905 383.13 547.175 383.38 546.575 383.88C545.995 384.38 545.635 385.09 545.495 386.01H551.915ZM565.209 387.63C565.209 385.89 565.559 384.37 566.259 383.07C566.979 381.77 567.969 380.77 569.229 380.07C570.509 379.37 571.969 379.02 573.609 379.02C575.709 379.02 577.459 379.57 578.859 380.67C580.279 381.77 581.209 383.32 581.649 385.32H576.189C575.729 384.04 574.839 383.4 573.519 383.4C572.579 383.4 571.829 383.77 571.269 384.51C570.709 385.23 570.429 386.27 570.429 387.63C570.429 388.99 570.709 390.04 571.269 390.78C571.829 391.5 572.579 391.86 573.519 391.86C574.839 391.86 575.729 391.22 576.189 389.94H581.649C581.209 391.9 580.279 393.44 578.859 394.56C577.439 395.68 575.689 396.24 573.609 396.24C571.969 396.24 570.509 395.89 569.229 395.19C567.969 394.49 566.979 393.49 566.259 392.19C565.559 390.89 565.209 389.37 565.209 387.63ZM592.013 396.24C590.373 396.24 588.893 395.89 587.573 395.19C586.273 394.49 585.243 393.49 584.483 392.19C583.743 390.89 583.373 389.37 583.373 387.63C583.373 385.91 583.753 384.4 584.513 383.1C585.273 381.78 586.313 380.77 587.633 380.07C588.953 379.37 590.433 379.02 592.073 379.02C593.713 379.02 595.193 379.37 596.513 380.07C597.833 380.77 598.873 381.78 599.633 383.1C600.393 384.4 600.773 385.91 600.773 387.63C600.773 389.35 600.383 390.87 599.603 392.19C598.843 393.49 597.793 394.49 596.453 395.19C595.133 395.89 593.653 396.24 592.013 396.24ZM592.013 391.8C592.993 391.8 593.823 391.44 594.503 390.72C595.203 390 595.553 388.97 595.553 387.63C595.553 386.29 595.213 385.26 594.533 384.54C593.873 383.82 593.053 383.46 592.073 383.46C591.073 383.46 590.243 383.82 589.583 384.54C588.923 385.24 588.593 386.27 588.593 387.63C588.593 388.97 588.913 390 589.553 390.72C590.213 391.44 591.033 391.8 592.013 391.8ZM613.695 379.08C615.655 379.08 617.215 379.72 618.375 381C619.555 382.26 620.145 384 620.145 386.22V396L615.045 396V386.91C615.045 385.79 614.755 384.92 614.175 384.3C613.595 383.68 612.815 383.37 611.835 383.37C610.855 383.37 610.075 383.68 609.495 384.3C608.915 384.92 608.625 385.79 608.625 386.91V396H603.495V379.26L608.625 379.26V381.48C609.145 380.74 609.845 380.16 610.725 379.74C611.605 379.3 612.595 379.08 613.695 379.08ZM633.04 391.65V396H630.43C628.57 396 627.12 395.55 626.08 394.65C625.04 393.73 624.52 392.24 624.52 390.18V383.52H622.48V379.26H624.52V375.18H629.65V379.26H633.01V383.52H629.65V390.24C629.65 390.74 629.77 391.1 630.01 391.32C630.25 391.54 630.65 391.65 631.21 391.65H633.04ZM634.877 387.6C634.877 385.88 635.197 384.37 635.837 383.07C636.497 381.77 637.387 380.77 638.507 380.07C639.627 379.37 640.877 379.02 642.257 379.02C643.437 379.02 644.467 379.26 645.347 379.74C646.247 380.22 646.937 380.85 647.417 381.63V379.26H652.547V396H647.417V393.63C646.917 394.41 646.217 395.04 645.317 395.52C644.437 396 643.407 396.24 642.227 396.24C640.867 396.24 639.627 395.89 638.507 395.19C637.387 394.47 636.497 393.46 635.837 392.16C635.197 390.84 634.877 389.32 634.877 387.6ZM647.417 387.63C647.417 386.35 647.057 385.34 646.337 384.6C645.637 383.86 644.777 383.49 643.757 383.49C642.737 383.49 641.867 383.86 641.147 384.6C640.447 385.32 640.097 386.32 640.097 387.6C640.097 388.88 640.447 389.9 641.147 390.66C641.867 391.4 642.737 391.77 643.757 391.77C644.777 391.77 645.637 391.4 646.337 390.66C647.057 389.92 647.417 388.91 647.417 387.63ZM655.238 387.6C655.238 385.88 655.558 384.37 656.198 383.07C656.858 381.77 657.748 380.77 658.868 380.07C659.988 379.37 661.238 379.02 662.618 379.02C663.718 379.02 664.718 379.25 665.618 379.71C666.538 380.17 667.258 380.79 667.778 381.57V373.8H672.908V396H667.778V393.6C667.298 394.4 666.608 395.04 665.708 395.52C664.828 396 663.798 396.24 662.618 396.24C661.238 396.24 659.988 395.89 658.868 395.19C657.748 394.47 656.858 393.46 656.198 392.16C655.558 390.84 655.238 389.32 655.238 387.6ZM667.778 387.63C667.778 386.35 667.418 385.34 666.698 384.6C665.998 383.86 665.138 383.49 664.118 383.49C663.098 383.49 662.228 383.86 661.508 384.6C660.808 385.32 660.458 386.32 660.458 387.6C660.458 388.88 660.808 389.9 661.508 390.66C662.228 391.4 663.098 391.77 664.118 391.77C665.138 391.77 665.998 391.4 666.698 390.66C667.418 389.92 667.778 388.91 667.778 387.63ZM684.24 396.24C682.6 396.24 681.12 395.89 679.8 395.19C678.5 394.49 677.47 393.49 676.71 392.19C675.97 390.89 675.6 389.37 675.6 387.63C675.6 385.91 675.98 384.4 676.74 383.1C677.5 381.78 678.54 380.77 679.86 380.07C681.18 379.37 682.66 379.02 684.3 379.02C685.94 379.02 687.42 379.37 688.74 380.07C690.06 380.77 691.1 381.78 691.86 383.1C692.62 384.4 693 385.91 693 387.63C693 389.35 692.61 390.87 691.83 392.19C691.07 393.49 690.02 394.49 688.68 395.19C687.36 395.89 685.88 396.24 684.24 396.24ZM684.24 391.8C685.22 391.8 686.05 391.44 686.73 390.72C687.43 390 687.78 388.97 687.78 387.63C687.78 386.29 687.44 385.26 686.76 384.54C686.1 383.82 685.28 383.46 684.3 383.46C683.3 383.46 682.47 383.82 681.81 384.54C681.15 385.24 680.82 386.27 680.82 387.63C680.82 388.97 681.14 390 681.78 390.72C682.44 391.44 683.26 391.8 684.24 391.8ZM700.851 382.05C701.451 381.13 702.201 380.41 703.101 379.89C704.001 379.35 705.001 379.08 706.101 379.08V384.51H704.691C703.411 384.51 702.451 384.79 701.811 385.35C701.171 385.89 700.851 386.85 700.851 388.23V396H695.721V379.26H700.851V382.05ZM707.533 387.6C707.533 385.88 707.853 384.37 708.493 383.07C709.153 381.77 710.043 380.77 711.163 380.07C712.283 379.37 713.533 379.02 714.913 379.02C716.093 379.02 717.123 379.26 718.003 379.74C718.903 380.22 719.593 380.85 720.073 381.63V379.26H725.203V396H720.073V393.63C719.573 394.41 718.873 395.04 717.973 395.52C717.093 396 716.063 396.24 714.883 396.24C713.523 396.24 712.283 395.89 711.163 395.19C710.043 394.47 709.153 393.46 708.493 392.16C707.853 390.84 707.533 389.32 707.533 387.6ZM720.073 387.63C720.073 386.35 719.713 385.34 718.993 384.6C718.293 383.86 717.433 383.49 716.413 383.49C715.393 383.49 714.523 383.86 713.803 384.6C713.103 385.32 712.753 386.32 712.753 387.6C712.753 388.88 713.103 389.9 713.803 390.66C714.523 391.4 715.393 391.77 716.413 391.77C717.433 391.77 718.293 391.4 718.993 390.66C719.713 389.92 720.073 388.91 720.073 387.63Z" fill="#1A3567"/>
<path d="M266.003 75.88V118H255.743V75.88H266.003ZM292.099 109.3V118L286.879 118C283.159 118 280.259 117.1 278.179 115.3C276.099 113.46 275.059 110.48 275.059 106.36V93.04H270.979V84.52L275.059 84.52V76.36H285.319V84.52H292.039V93.04H285.319V106.48C285.319 107.48 285.559 108.2 286.039 108.64C286.519 109.08 287.319 109.3 288.439 109.3H292.099ZM329.374 100.72C329.374 101.68 329.314 102.68 329.194 103.72H305.974C306.134 105.8 306.794 107.4 307.954 108.52C309.154 109.6 310.614 110.14 312.334 110.14C314.894 110.14 316.674 109.06 317.674 106.9H328.594C328.034 109.1 327.014 111.08 325.534 112.84C324.094 114.6 322.274 115.98 320.074 116.98C317.874 117.98 315.414 118.48 312.694 118.48C309.414 118.48 306.494 117.78 303.934 116.38C301.374 114.98 299.374 112.98 297.934 110.38C296.494 107.78 295.774 104.74 295.774 101.26C295.774 97.78 296.474 94.74 297.874 92.14C299.314 89.54 301.314 87.54 303.874 86.14C306.434 84.74 309.374 84.04 312.694 84.04C315.934 84.04 318.814 84.72 321.334 86.08C323.854 87.44 325.814 89.38 327.214 91.9C328.654 94.42 329.374 97.36 329.374 100.72ZM318.874 98.02C318.874 96.26 318.274 94.86 317.074 93.82C315.874 92.78 314.374 92.26 312.574 92.26C310.854 92.26 309.394 92.76 308.194 93.76C307.034 94.76 306.314 96.18 306.034 98.02H318.874ZM345.046 90.1C346.246 88.26 347.746 86.82 349.546 85.78C351.346 84.7 353.346 84.16 355.546 84.16V95.02H352.726C350.166 95.02 348.246 95.58 346.966 96.7C345.686 97.78 345.046 99.7 345.046 102.46V118H334.786V84.52H345.046V90.1ZM358.41 101.2C358.41 97.76 359.05 94.74 360.33 92.14C361.65 89.54 363.43 87.54 365.67 86.14C367.91 84.74 370.41 84.04 373.17 84.04C375.53 84.04 377.59 84.52 379.35 85.48C381.15 86.44 382.53 87.7 383.49 89.26V84.52H393.75V118H383.49V113.26C382.49 114.82 381.09 116.08 379.29 117.04C377.53 118 375.47 118.48 373.11 118.48C370.39 118.48 367.91 117.78 365.67 116.38C363.43 114.94 361.65 112.92 360.33 110.32C359.05 107.68 358.41 104.64 358.41 101.2ZM383.49 101.26C383.49 98.7 382.77 96.68 381.33 95.2C379.93 93.72 378.21 92.98 376.17 92.98C374.13 92.98 372.39 93.72 370.95 95.2C369.55 96.64 368.85 98.64 368.85 101.2C368.85 103.76 369.55 105.8 370.95 107.32C372.39 108.8 374.13 109.54 376.17 109.54C378.21 109.54 379.93 108.8 381.33 107.32C382.77 105.84 383.49 103.82 383.49 101.26ZM399.133 101.26C399.133 97.78 399.833 94.74 401.233 92.14C402.673 89.54 404.653 87.54 407.173 86.14C409.733 84.74 412.653 84.04 415.933 84.04C420.133 84.04 423.633 85.14 426.433 87.34C429.273 89.54 431.133 92.64 432.013 96.64H421.093C420.173 94.08 418.393 92.8 415.753 92.8C413.873 92.8 412.373 93.54 411.253 95.02C410.133 96.46 409.573 98.54 409.573 101.26C409.573 103.98 410.133 106.08 411.253 107.56C412.373 109 413.873 109.72 415.753 109.72C418.393 109.72 420.173 108.44 421.093 105.88H432.013C431.133 109.8 429.273 112.88 426.433 115.12C423.593 117.36 420.093 118.48 415.933 118.48C412.653 118.48 409.733 117.78 407.173 116.38C404.653 114.98 402.673 112.98 401.233 110.38C399.833 107.78 399.133 104.74 399.133 101.26ZM442.661 81.04C440.861 81.04 439.381 80.52 438.221 79.48C437.101 78.4 436.541 77.08 436.541 75.52C436.541 73.92 437.101 72.6 438.221 71.56C439.381 70.48 440.861 69.94 442.661 69.94C444.421 69.94 445.861 70.48 446.981 71.56C448.141 72.6 448.721 73.92 448.721 75.52C448.721 77.08 448.141 78.4 446.981 79.48C445.861 80.52 444.421 81.04 442.661 81.04ZM447.761 84.52V118H437.501V84.52L447.761 84.52ZM470.437 118.48C467.157 118.48 464.197 117.78 461.557 116.38C458.957 114.98 456.897 112.98 455.377 110.38C453.897 107.78 453.157 104.74 453.157 101.26C453.157 97.82 453.917 94.8 455.437 92.2C456.957 89.56 459.037 87.54 461.677 86.14C464.317 84.74 467.277 84.04 470.557 84.04C473.837 84.04 476.797 84.74 479.437 86.14C482.077 87.54 484.157 89.56 485.677 92.2C487.197 94.8 487.957 97.82 487.957 101.26C487.957 104.7 487.177 107.74 485.617 110.38C484.097 112.98 481.997 114.98 479.317 116.38C476.677 117.78 473.717 118.48 470.437 118.48ZM470.437 109.6C472.397 109.6 474.057 108.88 475.417 107.44C476.817 106 477.517 103.94 477.517 101.26C477.517 98.58 476.837 96.52 475.477 95.08C474.157 93.64 472.517 92.92 470.557 92.92C468.557 92.92 466.897 93.64 465.577 95.08C464.257 96.48 463.597 98.54 463.597 101.26C463.597 103.94 464.237 106 465.517 107.44C466.837 108.88 468.477 109.6 470.437 109.6ZM478.357 75.94L463.897 82V74.92L478.357 67.96V75.94ZM513.8 84.16C517.72 84.16 520.84 85.44 523.16 88C525.52 90.52 526.7 94 526.7 98.44V118H516.5V99.82C516.5 97.58 515.92 95.84 514.76 94.6C513.6 93.36 512.04 92.74 510.08 92.74C508.12 92.74 506.56 93.36 505.4 94.6C504.24 95.84 503.66 97.58 503.66 99.82V118L493.4 118V84.52H503.66V88.96C504.7 87.48 506.1 86.32 507.86 85.48C509.62 84.6 511.6 84.16 513.8 84.16ZM544.504 101.2C544.504 97.76 545.144 94.74 546.424 92.14C547.744 89.54 549.524 87.54 551.764 86.14C554.004 84.74 556.504 84.04 559.264 84.04C561.464 84.04 563.464 84.5 565.264 85.42C567.104 86.34 568.544 87.58 569.584 89.14V73.6H579.844V118H569.584V113.2C568.624 114.8 567.244 116.08 565.444 117.04C563.684 118 561.624 118.48 559.264 118.48C556.504 118.48 554.004 117.78 551.764 116.38C549.524 114.94 547.744 112.92 546.424 110.32C545.144 107.68 544.504 104.64 544.504 101.2ZM569.584 101.26C569.584 98.7 568.864 96.68 567.424 95.2C566.024 93.72 564.304 92.98 562.264 92.98C560.224 92.98 558.484 93.72 557.044 95.2C555.644 96.64 554.944 98.64 554.944 101.2C554.944 103.76 555.644 105.8 557.044 107.32C558.484 108.8 560.224 109.54 562.264 109.54C564.304 109.54 566.024 108.8 567.424 107.32C568.864 105.84 569.584 103.82 569.584 101.26ZM618.827 100.72C618.827 101.68 618.767 102.68 618.647 103.72H595.427C595.587 105.8 596.247 107.4 597.407 108.52C598.607 109.6 600.067 110.14 601.787 110.14C604.347 110.14 606.127 109.06 607.127 106.9H618.047C617.487 109.1 616.467 111.08 614.987 112.84C613.547 114.6 611.727 115.98 609.527 116.98C607.327 117.98 604.867 118.48 602.147 118.48C598.867 118.48 595.947 117.78 593.387 116.38C590.827 114.98 588.827 112.98 587.387 110.38C585.947 107.78 585.227 104.74 585.227 101.26C585.227 97.78 585.927 94.74 587.327 92.14C588.767 89.54 590.767 87.54 593.327 86.14C595.887 84.74 598.827 84.04 602.147 84.04C605.387 84.04 608.267 84.72 610.787 86.08C613.307 87.44 615.267 89.38 616.667 91.9C618.107 94.42 618.827 97.36 618.827 100.72ZM608.327 98.02C608.327 96.26 607.727 94.86 606.527 93.82C605.327 92.78 603.827 92.26 602.027 92.26C600.307 92.26 598.847 92.76 597.647 93.76C596.487 94.76 595.767 96.18 595.487 98.02H608.327ZM634.854 83.74V74.2H651.474V118H640.794V83.74H634.854ZM670.188 101.2C670.188 97.76 670.828 94.74 672.108 92.14C673.428 89.54 675.208 87.54 677.448 86.14C679.688 84.74 682.188 84.04 684.948 84.04C687.308 84.04 689.368 84.52 691.128 85.48C692.928 86.44 694.308 87.7 695.268 89.26V84.52H705.528V118H695.268V113.26C694.268 114.82 692.868 116.08 691.068 117.04C689.308 118 687.248 118.48 684.888 118.48C682.168 118.48 679.688 117.78 677.448 116.38C675.208 114.94 673.428 112.92 672.108 110.32C670.828 107.68 670.188 104.64 670.188 101.2ZM695.268 101.26C695.268 98.7 694.548 96.68 693.108 95.2C691.708 93.72 689.988 92.98 687.948 92.98C685.908 92.98 684.168 93.72 682.728 95.2C681.328 96.64 680.628 98.64 680.628 101.2C680.628 103.76 681.328 105.8 682.728 107.32C684.168 108.8 685.908 109.54 687.948 109.54C689.988 109.54 691.708 108.8 693.108 107.32C694.548 105.84 695.268 103.82 695.268 101.26ZM723.565 83.74V74.2H740.185V118H729.505V83.74H723.565ZM747.204 95.5C747.204 88.62 748.524 83.2 751.164 79.24C753.844 75.28 758.144 73.3 764.064 73.3C769.984 73.3 774.264 75.28 776.904 79.24C779.584 83.2 780.924 88.62 780.924 95.5C780.924 102.46 779.584 107.92 776.904 111.88C774.264 115.84 769.984 117.82 764.064 117.82C758.144 117.82 753.844 115.84 751.164 111.88C748.524 107.92 747.204 102.46 747.204 95.5ZM770.844 95.5C770.844 91.46 770.404 88.36 769.524 86.2C768.644 84 766.824 82.9 764.064 82.9C761.304 82.9 759.484 84 758.604 86.2C757.724 88.36 757.284 91.46 757.284 95.5C757.284 98.22 757.444 100.48 757.764 102.28C758.084 104.04 758.724 105.48 759.684 106.6C760.684 107.68 762.144 108.22 764.064 108.22C765.984 108.22 767.424 107.68 768.384 106.6C769.384 105.48 770.044 104.04 770.364 102.28C770.684 100.48 770.844 98.22 770.844 95.5ZM825.879 92.68V101.2H799.479V92.68H825.879ZM879.699 89.44C879.699 91.88 879.139 94.12 878.019 96.16C876.899 98.16 875.179 99.78 872.859 101.02C870.539 102.26 867.659 102.88 864.219 102.88H857.859V118H847.599V75.88L864.219 75.88C867.579 75.88 870.419 76.46 872.739 77.62C875.059 78.78 876.799 80.38 877.959 82.42C879.119 84.46 879.699 86.8 879.699 89.44ZM863.439 94.72C865.399 94.72 866.859 94.26 867.819 93.34C868.779 92.42 869.259 91.12 869.259 89.44C869.259 87.76 868.779 86.46 867.819 85.54C866.859 84.62 865.399 84.16 863.439 84.16H857.859V94.72H863.439ZM883 101.2C883 97.76 883.64 94.74 884.92 92.14C886.24 89.54 888.02 87.54 890.26 86.14C892.5 84.74 895 84.04 897.76 84.04C900.12 84.04 902.18 84.52 903.94 85.48C905.74 86.44 907.12 87.7 908.08 89.26V84.52H918.34V118H908.08V113.26C907.08 114.82 905.68 116.08 903.88 117.04C902.12 118 900.06 118.48 897.7 118.48C894.98 118.48 892.5 117.78 890.26 116.38C888.02 114.94 886.24 112.92 884.92 110.32C883.64 107.68 883 104.64 883 101.2ZM908.08 101.26C908.08 98.7 907.36 96.68 905.92 95.2C904.52 93.72 902.8 92.98 900.76 92.98C898.72 92.98 896.98 93.72 895.54 95.2C894.14 96.64 893.44 98.64 893.44 101.2C893.44 103.76 894.14 105.8 895.54 107.32C896.98 108.8 898.72 109.54 900.76 109.54C902.8 109.54 904.52 108.8 905.92 107.32C907.36 105.84 908.08 103.82 908.08 101.26ZM939.383 118.48C936.463 118.48 933.863 117.98 931.583 116.98C929.303 115.98 927.503 114.62 926.183 112.9C924.863 111.14 924.123 109.18 923.963 107.02H934.103C934.223 108.18 934.763 109.12 935.723 109.84C936.683 110.56 937.863 110.92 939.263 110.92C940.543 110.92 941.523 110.68 942.203 110.2C942.923 109.68 943.283 109.02 943.283 108.22C943.283 107.26 942.783 106.56 941.783 106.12C940.783 105.64 939.163 105.12 936.923 104.56C934.523 104 932.523 103.42 930.923 102.82C929.323 102.18 927.943 101.2 926.783 99.88C925.623 98.52 925.043 96.7 925.043 94.42C925.043 92.5 925.563 90.76 926.603 89.2C927.683 87.6 929.243 86.34 931.283 85.42C933.363 84.5 935.823 84.04 938.663 84.04C942.863 84.04 946.163 85.08 948.563 87.16C951.003 89.24 952.403 92 952.763 95.44H943.283C943.123 94.28 942.603 93.36 941.723 92.68C940.883 92 939.763 91.66 938.363 91.66C937.163 91.66 936.243 91.9 935.603 92.38C934.963 92.82 934.643 93.44 934.643 94.24C934.643 95.2 935.143 95.92 936.143 96.4C937.183 96.88 938.783 97.36 940.943 97.84C943.423 98.48 945.443 99.12 947.003 99.76C948.563 100.36 949.923 101.36 951.083 102.76C952.283 104.12 952.903 105.96 952.943 108.28C952.943 110.24 952.383 112 951.263 113.56C950.183 115.08 948.603 116.28 946.523 117.16C944.483 118.04 942.103 118.48 939.383 118.48ZM974.46 118.48C971.18 118.48 968.22 117.78 965.58 116.38C962.98 114.98 960.92 112.98 959.4 110.38C957.92 107.78 957.18 104.74 957.18 101.26C957.18 97.82 957.94 94.8 959.46 92.2C960.98 89.56 963.06 87.54 965.7 86.14C968.34 84.74 971.3 84.04 974.58 84.04C977.86 84.04 980.82 84.74 983.46 86.14C986.1 87.54 988.18 89.56 989.7 92.2C991.22 94.8 991.98 97.82 991.98 101.26C991.98 104.7 991.2 107.74 989.64 110.38C988.12 112.98 986.02 114.98 983.34 116.38C980.7 117.78 977.74 118.48 974.46 118.48ZM974.46 109.6C976.42 109.6 978.08 108.88 979.44 107.44C980.84 106 981.54 103.94 981.54 101.26C981.54 98.58 980.86 96.52 979.5 95.08C978.18 93.64 976.54 92.92 974.58 92.92C972.58 92.92 970.92 93.64 969.6 95.08C968.28 96.48 967.62 98.54 967.62 101.26C967.62 103.94 968.26 106 969.54 107.44C970.86 108.88 972.5 109.6 974.46 109.6ZM1008.04 83.74V74.2H1024.66V118H1013.98V83.74H1008.04Z" fill="#1A3567"/>
<path d="M93.0605 475.16V468.8H104.14V498H97.0205V475.16H93.0605Z" fill="#ECFAFF"/>
<path d="M209.634 492.52C210.541 491.8 210.954 491.467 210.874 491.52C213.488 489.36 215.541 487.587 217.034 486.2C218.554 484.813 219.834 483.36 220.874 481.84C221.914 480.32 222.434 478.84 222.434 477.4C222.434 476.307 222.181 475.453 221.674 474.84C221.168 474.227 220.408 473.92 219.394 473.92C218.381 473.92 217.581 474.307 216.994 475.08C216.434 475.827 216.154 476.893 216.154 478.28H209.554C209.608 476.013 210.088 474.12 210.994 472.6C211.928 471.08 213.141 469.96 214.634 469.24C216.154 468.52 217.834 468.16 219.674 468.16C222.848 468.16 225.234 468.973 226.834 470.6C228.461 472.227 229.274 474.347 229.274 476.96C229.274 479.813 228.301 482.467 226.354 484.92C224.408 487.347 221.928 489.72 218.914 492.04H229.714V497.6H209.634V492.52Z" fill="#ECFAFF"/>
<path d="M329.431 477.04C329.537 474.187 330.471 471.987 332.231 470.44C333.991 468.893 336.377 468.12 339.391 468.12C341.391 468.12 343.097 468.467 344.511 469.16C345.951 469.853 347.031 470.8 347.751 472C348.497 473.2 348.871 474.547 348.871 476.04C348.871 477.8 348.431 479.24 347.551 480.36C346.671 481.453 345.644 482.2 344.471 482.6V482.76C345.991 483.267 347.191 484.107 348.071 485.28C348.951 486.453 349.391 487.96 349.391 489.8C349.391 491.453 349.004 492.92 348.231 494.2C347.484 495.453 346.377 496.44 344.911 497.16C343.471 497.88 341.751 498.24 339.751 498.24C336.551 498.24 333.991 497.453 332.071 495.88C330.177 494.307 329.177 491.933 329.071 488.76H335.711C335.737 489.933 336.071 490.867 336.711 491.56C337.351 492.227 338.284 492.56 339.511 492.56C340.551 492.56 341.351 492.267 341.911 491.68C342.497 491.067 342.791 490.267 342.791 489.28C342.791 488 342.377 487.08 341.551 486.52C340.751 485.933 339.457 485.64 337.671 485.64H336.391V480.08H337.671C339.031 480.08 340.124 479.853 340.951 479.4C341.804 478.92 342.231 478.08 342.231 476.88C342.231 475.92 341.964 475.173 341.431 474.64C340.897 474.107 340.164 473.84 339.231 473.84C338.217 473.84 337.457 474.147 336.951 474.76C336.471 475.373 336.191 476.133 336.111 477.04H329.431Z" fill="#ECFAFF"/>
<path d="M447.925 492.8V487.28L460.565 469.2H468.205V486.88H471.485V492.8H468.205V498H461.365V492.8H447.925ZM461.845 476.72L455.125 486.88H461.845V476.72Z" fill="#ECFAFF"/>
<path d="M588.852 474.76H576.372V480.28C576.906 479.693 577.652 479.213 578.612 478.84C579.572 478.467 580.612 478.28 581.732 478.28C583.732 478.28 585.386 478.733 586.692 479.64C588.026 480.547 588.999 481.72 589.612 483.16C590.226 484.6 590.532 486.16 590.532 487.84C590.532 490.96 589.652 493.44 587.892 495.28C586.132 497.093 583.652 498 580.452 498C578.319 498 576.466 497.64 574.892 496.92C573.319 496.173 572.106 495.147 571.252 493.84C570.399 492.533 569.932 491.027 569.852 489.32H576.532C576.692 490.147 577.079 490.84 577.692 491.4C578.306 491.933 579.146 492.2 580.212 492.2C581.466 492.2 582.399 491.8 583.012 491C583.626 490.2 583.932 489.133 583.932 487.8C583.932 486.493 583.612 485.493 582.972 484.8C582.332 484.107 581.399 483.76 580.172 483.76C579.266 483.76 578.519 483.987 577.932 484.44C577.346 484.867 576.959 485.44 576.772 486.16H570.172V468.76H588.852V474.76Z" fill="#ECFAFF"/>
<path d="M703.006 476.68C702.792 475.693 702.419 474.96 701.886 474.48C701.352 473.973 700.592 473.72 699.606 473.72C698.086 473.72 696.992 474.387 696.326 475.72C695.659 477.027 695.312 479.107 695.286 481.96C695.872 481.027 696.712 480.293 697.806 479.76C698.926 479.227 700.152 478.96 701.486 478.96C704.099 478.96 706.192 479.787 707.766 481.44C709.366 483.093 710.166 485.4 710.166 488.36C710.166 490.307 709.766 492.013 708.966 493.48C708.192 494.947 707.046 496.093 705.526 496.92C704.032 497.747 702.259 498.16 700.206 498.16C696.099 498.16 693.246 496.88 691.646 494.32C690.046 491.733 689.246 488.027 689.246 483.2C689.246 478.133 690.086 474.373 691.766 471.92C693.472 469.44 696.192 468.2 699.926 468.2C701.926 468.2 703.606 468.6 704.966 469.4C706.352 470.173 707.392 471.2 708.086 472.48C708.806 473.76 709.232 475.16 709.366 476.68H703.006ZM699.846 484.36C698.699 484.36 697.739 484.707 696.966 485.4C696.219 486.067 695.846 487.027 695.846 488.28C695.846 489.56 696.192 490.56 696.886 491.28C697.606 492 698.619 492.36 699.926 492.36C701.099 492.36 702.019 492.013 702.686 491.32C703.379 490.6 703.726 489.627 703.726 488.4C703.726 487.147 703.392 486.16 702.726 485.44C702.059 484.72 701.099 484.36 699.846 484.36Z" fill="#ECFAFF"/>
<path d="M829.237 473.92L819.197 498H812.197L822.357 474.68H809.917V468.84H829.237V473.92Z" fill="#ECFAFF"/>
<path d="M933.131 482.32C930.625 480.987 929.371 478.893 929.371 476.04C929.371 474.6 929.745 473.293 930.491 472.12C931.238 470.92 932.371 469.973 933.891 469.28C935.411 468.56 937.278 468.2 939.491 468.2C941.705 468.2 943.558 468.56 945.051 469.28C946.571 469.973 947.705 470.92 948.451 472.12C949.198 473.293 949.571 474.6 949.571 476.04C949.571 477.48 949.225 478.733 948.531 479.8C947.865 480.867 946.958 481.707 945.811 482.32C947.251 483.013 948.358 483.973 949.131 485.2C949.905 486.4 950.291 487.813 950.291 489.44C950.291 491.333 949.811 492.973 948.851 494.36C947.891 495.72 946.585 496.76 944.931 497.48C943.305 498.2 941.491 498.56 939.491 498.56C937.491 498.56 935.665 498.2 934.011 497.48C932.385 496.76 931.091 495.72 930.131 494.36C929.171 492.973 928.691 491.333 928.691 489.44C928.691 487.787 929.078 486.36 929.851 485.16C930.625 483.933 931.718 482.987 933.131 482.32ZM942.931 477.08C942.931 475.987 942.611 475.147 941.971 474.56C941.358 473.947 940.531 473.64 939.491 473.64C938.451 473.64 937.611 473.947 936.971 474.56C936.358 475.173 936.051 476.027 936.051 477.12C936.051 478.16 936.371 478.987 937.011 479.6C937.651 480.187 938.478 480.48 939.491 480.48C940.505 480.48 941.331 480.173 941.971 479.56C942.611 478.947 942.931 478.12 942.931 477.08ZM939.491 485.28C938.238 485.28 937.225 485.627 936.451 486.32C935.678 486.987 935.291 487.92 935.291 489.12C935.291 490.24 935.665 491.16 936.411 491.88C937.185 492.6 938.211 492.96 939.491 492.96C940.771 492.96 941.771 492.6 942.491 491.88C943.238 491.16 943.611 490.24 943.611 489.12C943.611 487.947 943.225 487.013 942.451 486.32C941.705 485.627 940.718 485.28 939.491 485.28Z" fill="#ECFAFF"/>
<path d="M1056.36 489.44C1056.76 491.547 1057.98 492.6 1060.04 492.6C1061.45 492.6 1062.45 491.973 1063.04 490.72C1063.62 489.467 1063.92 487.427 1063.92 484.6C1063.33 485.427 1062.53 486.067 1061.52 486.52C1060.5 486.973 1059.37 487.2 1058.12 487.2C1056.41 487.2 1054.89 486.853 1053.56 486.16C1052.22 485.44 1051.17 484.387 1050.4 483C1049.65 481.587 1049.28 479.88 1049.28 477.88C1049.28 475.907 1049.68 474.187 1050.48 472.72C1051.3 471.253 1052.46 470.12 1053.96 469.32C1055.48 468.52 1057.26 468.12 1059.32 468.12C1063.26 468.12 1066.02 469.347 1067.6 471.8C1069.17 474.253 1069.96 477.867 1069.96 482.64C1069.96 486.107 1069.64 488.973 1069 491.24C1068.38 493.48 1067.33 495.187 1065.84 496.36C1064.37 497.533 1062.36 498.12 1059.8 498.12C1057.77 498.12 1056.04 497.72 1054.6 496.92C1053.18 496.12 1052.09 495.067 1051.32 493.76C1050.57 492.453 1050.14 491.013 1050.04 489.44H1056.36ZM1059.68 481.8C1060.8 481.8 1061.69 481.467 1062.36 480.8C1063.02 480.107 1063.36 479.173 1063.36 478C1063.36 476.72 1063.01 475.733 1062.32 475.04C1061.62 474.347 1060.69 474 1059.52 474C1058.34 474 1057.41 474.36 1056.72 475.08C1056.05 475.773 1055.72 476.733 1055.72 477.96C1055.72 479.107 1056.05 480.04 1056.72 480.76C1057.41 481.453 1058.4 481.8 1059.68 481.8Z" fill="#ECFAFF"/>
<path d="M1160.01 475.16V468.8H1171.09V498H1163.97V475.16H1160.01ZM1175.77 483C1175.77 478.413 1176.65 474.8 1178.41 472.16C1180.2 469.52 1183.07 468.2 1187.01 468.2C1190.96 468.2 1193.81 469.52 1195.57 472.16C1197.36 474.8 1198.25 478.413 1198.25 483C1198.25 487.64 1197.36 491.28 1195.57 493.92C1193.81 496.56 1190.96 497.88 1187.01 497.88C1183.07 497.88 1180.2 496.56 1178.41 493.92C1176.65 491.28 1175.77 487.64 1175.77 483ZM1191.53 483C1191.53 480.307 1191.24 478.24 1190.65 476.8C1190.07 475.333 1188.85 474.6 1187.01 474.6C1185.17 474.6 1183.96 475.333 1183.37 476.8C1182.79 478.24 1182.49 480.307 1182.49 483C1182.49 484.813 1182.6 486.32 1182.81 487.52C1183.03 488.693 1183.45 489.653 1184.09 490.4C1184.76 491.12 1185.73 491.48 1187.01 491.48C1188.29 491.48 1189.25 491.12 1189.89 490.4C1190.56 489.653 1191 488.693 1191.21 487.52C1191.43 486.32 1191.53 484.813 1191.53 483Z" fill="#ECFAFF"/>
<path d="M820 425C820 389.101 846.863 360 880 360C913.137 360 940 389.101 940 425" stroke="#1E5C93" stroke-width="4"/>
<path d="M940 425C940 389.101 966.863 360 1000 360C1033.14 360 1060 389.101 1060 425" stroke="#1E5C93" stroke-width="4"/>
<path d="M1060 425C1060 389.101 1086.86 360 1120 360C1153.14 360 1180 389.101 1180 425" stroke="#1E5C93" stroke-width="4"/>
</svg>
