<svg width="1280" height="720" viewBox="0 0 1280 720" fill="none" xmlns="http://www.w3.org/2000/svg">
<rect width="1280" height="720" fill="#ECFAFF"/>
<path d="M233.209 303.462C233.209 301.932 233.975 301.178 233.975 299.655L236.257 297.355L238.53 295.07H877.771C878.938 295.626 879.989 296.401 880.865 297.355C881.639 298.116 882.374 298.878 882.374 299.647C883.14 301.17 884.076 302.25 883.14 303.462L882.875 366.37C882.875 367.131 882.875 367.901 882.132 369.424C882.132 370.201 881.375 370.939 880.624 371.716C879.874 372.493 879.101 373.232 877.53 374.009C876.765 374.009 875.249 374.778 874.499 374.778H439.55C434.986 374.778 433.463 376.293 431.197 378.586L422.781 386.978C420.507 389.27 418.226 391.555 414.428 391.555H388.541C384.735 391.555 382.469 389.27 380.188 386.985L371.834 378.593C369.552 376.293 368.021 374.778 363.473 374.778H343.673C342.533 375.349 341.506 376.123 340.641 377.062C339.891 377.816 339.117 378.578 339.117 379.347C338.351 380.878 338.351 381.632 338.351 383.163L338.554 411.297C338.554 412.058 338.554 413.59 339.32 414.351C339.32 415.874 340.078 416.642 340.828 417.396C341.579 418.15 342.352 418.935 343.868 418.935C344.641 419.712 345.392 419.713 346.915 419.713H363.684C368.224 419.713 369.747 421.996 372.037 424.281L380.39 432.674C382.672 434.974 384.938 436.489 388.743 436.489H414.631C418.429 436.489 420.71 434.974 422.984 432.682L431.392 424.281C433.666 421.996 435.197 419.713 439.745 419.713H876.764C877.522 419.713 879.038 419.712 879.796 420.473C881.358 421.235 882.124 421.235 882.89 421.997C883.648 422.751 884.397 424.282 884.397 425.044C885.163 425.821 885.163 427.335 885.163 428.096V479.269C885.163 480.03 885.163 481.56 884.397 482.314C884.397 483.091 883.64 484.614 882.89 485.376C882.139 486.137 881.366 486.138 879.796 486.891C879.03 487.669 877.522 487.667 876.764 487.667H339.577L329.345 513.07H280.231L260.79 487.667H241.516C240.758 487.667 240.008 487.668 238.484 486.907C237.719 486.168 236.968 486.168 236.21 485.391C235.444 484.614 234.695 483.098 233.929 482.329C233.929 481.567 233.163 480.038 233.163 479.276L233.209 303.462Z" fill="#0FBD8C"/>
<path d="M675.42 222.999C676.23 223.433 676.963 223.999 677.588 224.675L677.62 224.709L677.653 224.742C678.053 225.134 678.326 225.416 678.505 225.658C678.553 225.723 678.584 225.771 678.602 225.802V226.135L678.805 226.536C679.013 226.949 679.255 227.374 679.407 227.654C679.583 227.977 679.679 228.18 679.732 228.331C679.737 228.345 679.74 228.359 679.743 228.37L679.371 228.851V287.28C679.371 287.657 679.367 287.878 679.312 288.159C679.257 288.441 679.134 288.856 678.817 289.502L678.624 289.896V290.203C678.605 290.234 678.575 290.281 678.528 290.344C678.334 290.602 678.064 290.875 677.644 291.309C677.026 291.946 676.46 292.484 675.339 293.074C675.094 293.112 674.872 293.166 674.698 293.214C674.374 293.303 674.036 293.418 673.762 293.51C673.463 293.61 673.231 293.688 673.03 293.743C672.9 293.779 672.834 293.791 672.815 293.795H335.961C333.451 293.795 331.595 294.213 330.009 295.063C328.484 295.882 327.342 297.041 326.241 298.149L317.79 306.538L317.783 306.545C315.442 308.894 313.666 310.564 310.733 310.564H284.735C281.794 310.564 280.037 308.896 277.681 306.548H277.68L269.294 298.162C268.183 297.047 267.035 295.884 265.506 295.064C263.919 294.213 262.065 293.795 259.562 293.795H239.231L238.834 293.993C237.507 294.655 236.309 295.549 235.296 296.632C234.95 296.978 234.462 297.457 234.078 297.963C233.777 298.361 233.389 298.964 233.258 299.721C232.904 300.473 232.684 301.139 232.565 301.845C232.438 302.601 232.442 303.338 232.442 304.065H232.443L230.52 478.141V478.162C230.52 478.532 230.516 479.253 230.642 480.001C230.73 480.527 230.909 481.247 231.33 481.911C231.553 483.819 232.659 484.897 233.356 485.595C234.034 486.272 235.113 487.398 237.008 487.638C237.498 487.985 238.026 488.208 238.615 488.328C239.321 488.472 240.109 488.464 240.806 488.464H257.646C259.56 488.464 260.704 488.928 261.613 489.556C262.667 490.283 263.389 491.176 264.697 492.476V492.477L273.087 500.865C274.299 502.082 275.607 503.194 277.199 503.989C278.815 504.797 280.632 505.232 282.812 505.232H308.81C313.294 505.232 316.037 503.378 318.53 500.877L326.974 492.48L326.978 492.477C328.276 491.178 329.001 490.282 330.053 489.556C330.962 488.928 332.111 488.464 334.029 488.464H528.891C529.283 488.464 529.706 488.467 530.103 488.533C530.487 488.597 530.608 488.683 530.606 488.679L530.824 488.896L531.11 489.034C531.982 489.457 532.714 489.704 533.098 489.854C533.48 490.005 533.592 490.081 533.713 490.2C533.898 490.384 534.166 490.761 534.392 491.216C534.498 491.431 534.576 491.626 534.624 491.778C534.679 491.953 534.667 491.984 534.667 491.902V492.68L535.214 493.232C535.19 493.208 535.293 493.315 535.366 493.748C535.433 494.142 535.436 494.563 535.436 494.954V546.104C535.436 546.495 535.432 546.919 535.365 547.314C535.291 547.755 535.188 547.841 535.233 547.797L534.667 548.354V549.147C534.667 549.07 534.678 549.104 534.623 549.278C534.575 549.432 534.496 549.627 534.389 549.843C534.163 550.298 533.892 550.684 533.699 550.879C533.592 550.987 533.491 551.06 533.11 551.208C532.734 551.355 531.992 551.601 531.12 552.018L530.823 552.16L530.592 552.394C530.622 552.363 530.524 552.466 530.094 552.539C529.702 552.606 529.283 552.609 528.891 552.609H206.389C206.01 552.609 205.799 552.605 205.525 552.551C205.28 552.502 204.927 552.394 204.389 552.141C203.86 551.701 203.354 551.459 203.043 551.304C202.683 551.124 202.552 551.046 202.409 550.9L202.402 550.894L202.223 550.689C202.031 550.452 201.8 550.112 201.488 549.644C201.242 549.273 200.921 548.787 200.561 548.34C200.531 548.202 200.5 548.077 200.471 547.971C200.382 547.648 200.268 547.309 200.176 547.035C200.076 546.737 199.998 546.503 199.942 546.301C199.901 546.152 199.892 546.085 199.89 546.077L201.797 229.509V229.498C201.797 229.073 201.892 228.763 202.083 228.196C202.223 227.781 202.412 227.227 202.507 226.531L204.305 224.729L206.034 222.999H675.42Z" fill="#C02070" stroke="#A21A5E" stroke-width="3.77952"/>
<path d="M199.903 229.607C199.903 228.077 200.672 227.324 200.672 225.801L202.964 223.502L205.247 221.219H675.865C677.037 221.774 678.092 222.549 678.972 223.502C679.749 224.263 680.487 225.025 680.487 225.794C681.256 227.316 680.316 228.395 681.256 229.607V287.14C681.256 287.901 681.256 288.671 680.51 290.193C680.51 290.97 679.749 291.707 678.996 292.484C678.242 293.261 677.466 293.999 675.889 294.776C675.12 294.776 673.598 295.545 672.844 295.545H335.957C331.374 295.545 329.844 297.059 327.568 299.351L319.117 307.739C316.833 310.03 314.542 312.314 310.729 312.314H284.731C280.909 312.314 278.634 310.03 276.342 307.747L267.953 299.358C265.662 297.059 264.124 295.545 259.557 295.545H239.672C238.527 296.115 237.496 296.889 236.627 297.828C235.874 298.581 235.097 299.343 235.097 300.112C234.328 301.642 234.328 302.395 234.328 303.926L233.206 478.735C233.206 479.496 233.206 481.027 233.975 481.788C233.975 483.31 234.737 484.078 235.49 484.831C236.243 485.585 237.02 486.369 238.542 486.369C239.319 487.146 240.073 487.147 241.603 487.147H258.442C263.002 487.147 264.532 489.43 266.831 491.713L275.22 500.103C277.511 502.402 279.787 503.916 283.609 503.916H309.606C313.42 503.916 315.711 502.402 317.995 500.11L326.438 491.713C328.722 489.43 330.259 487.147 334.827 487.147H529.687C530.449 487.147 531.971 487.146 532.732 487.907C534.301 488.669 535.07 488.669 535.839 489.43C536.6 490.184 537.353 491.714 537.353 492.476C538.122 493.252 538.122 494.766 538.122 495.527V546.677C538.122 547.438 538.122 548.967 537.353 549.72C537.353 550.497 536.593 552.02 535.839 552.781C535.086 553.542 534.309 553.543 532.732 554.296C531.963 555.073 530.449 555.072 529.687 555.072H207.185C206.424 555.072 205.671 555.072 204.141 554.311C203.372 553.573 202.618 553.573 201.857 552.796C201.088 552.019 200.335 550.504 199.566 549.735C199.566 548.974 198.797 547.445 198.797 546.684L199.903 229.607Z" stroke="#A21A5E" stroke-width="1.03181"/>
<path d="M241.129 263.234H235.286L234.349 266H230.357L236.022 250.343H240.438L246.103 266H242.066L241.129 263.234ZM240.148 260.29L238.208 254.559L236.289 260.29H240.148ZM251.641 249.496V266H247.827V249.496H251.641ZM261.049 252.261C260.38 252.261 259.83 252.068 259.398 251.681C258.982 251.28 258.774 250.789 258.774 250.209C258.774 249.615 258.982 249.124 259.398 248.737C259.83 248.336 260.38 248.135 261.049 248.135C261.703 248.135 262.238 248.336 262.655 248.737C263.086 249.124 263.301 249.615 263.301 250.209C263.301 250.789 263.086 251.28 262.655 251.681C262.238 252.068 261.703 252.261 261.049 252.261ZM262.945 253.555V266H259.131V253.555H262.945ZM273.291 253.421C274.749 253.421 275.908 253.897 276.771 254.849C277.648 255.785 278.087 257.079 278.087 258.729V266H274.295V259.242C274.295 258.41 274.08 257.763 273.648 257.302C273.217 256.841 272.637 256.61 271.909 256.61C271.18 256.61 270.6 256.841 270.169 257.302C269.738 257.763 269.522 258.41 269.522 259.242V266H265.708V253.555H269.522V255.205C269.909 254.655 270.429 254.224 271.083 253.912C271.738 253.585 272.474 253.421 273.291 253.421ZM282.655 252.261C281.986 252.261 281.436 252.068 281.004 251.681C280.588 251.28 280.38 250.789 280.38 250.209C280.38 249.615 280.588 249.124 281.004 248.737C281.436 248.336 281.986 248.135 282.655 248.135C283.309 248.135 283.844 248.336 284.261 248.737C284.692 249.124 284.908 249.615 284.908 250.209C284.908 250.789 284.692 251.28 284.261 251.681C283.844 252.068 283.309 252.261 282.655 252.261ZM284.551 253.555V266H280.737V253.555H284.551ZM286.556 259.777C286.556 258.484 286.816 257.354 287.337 256.387C287.872 255.421 288.608 254.678 289.545 254.157C290.496 253.637 291.582 253.377 292.801 253.377C294.362 253.377 295.663 253.785 296.704 254.603C297.76 255.421 298.451 256.573 298.778 258.06H294.719C294.377 257.109 293.715 256.633 292.734 256.633C292.035 256.633 291.478 256.908 291.061 257.458C290.645 257.993 290.437 258.766 290.437 259.777C290.437 260.789 290.645 261.569 291.061 262.119C291.478 262.655 292.035 262.922 292.734 262.922C293.715 262.922 294.377 262.446 294.719 261.495H298.778C298.451 262.952 297.76 264.097 296.704 264.929C295.648 265.762 294.347 266.178 292.801 266.178C291.582 266.178 290.496 265.918 289.545 265.398C288.608 264.877 287.872 264.134 287.337 263.168C286.816 262.201 286.556 261.071 286.556 259.777ZM302.736 252.261C302.067 252.261 301.517 252.068 301.086 251.681C300.67 251.28 300.461 250.789 300.461 250.209C300.461 249.615 300.67 249.124 301.086 248.737C301.517 248.336 302.067 248.135 302.736 248.135C303.391 248.135 303.926 248.336 304.342 248.737C304.773 249.124 304.989 249.615 304.989 250.209C304.989 250.789 304.773 251.28 304.342 251.681C303.926 252.068 303.391 252.261 302.736 252.261ZM304.632 253.555V266H300.818V253.555H304.632ZM306.638 259.755C306.638 258.476 306.875 257.354 307.351 256.387C307.842 255.421 308.504 254.678 309.336 254.157C310.169 253.637 311.098 253.377 312.124 253.377C313.001 253.377 313.767 253.555 314.421 253.912C315.09 254.269 315.603 254.737 315.96 255.317V253.555H319.774V266H315.96V264.238C315.589 264.818 315.068 265.286 314.399 265.643C313.745 266 312.979 266.178 312.102 266.178C311.091 266.178 310.169 265.918 309.336 265.398C308.504 264.863 307.842 264.112 307.351 263.145C306.875 262.164 306.638 261.034 306.638 259.755ZM315.96 259.777C315.96 258.826 315.693 258.075 315.157 257.525C314.637 256.975 313.998 256.7 313.239 256.7C312.481 256.7 311.834 256.975 311.299 257.525C310.779 258.06 310.518 258.804 310.518 259.755C310.518 260.707 310.779 261.465 311.299 262.03C311.834 262.58 312.481 262.855 313.239 262.855C313.998 262.855 314.637 262.58 315.157 262.03C315.693 261.48 315.96 260.729 315.96 259.777ZM326.347 255.629C326.793 254.945 327.351 254.41 328.02 254.023C328.689 253.622 329.432 253.421 330.25 253.421V257.458H329.202C328.25 257.458 327.536 257.666 327.061 258.082C326.585 258.484 326.347 259.198 326.347 260.224V266H322.533V253.555H326.347V255.629ZM348.531 259.577C348.531 259.934 348.508 260.305 348.464 260.692H339.832C339.892 261.465 340.137 262.06 340.568 262.476C341.015 262.878 341.557 263.078 342.197 263.078C343.148 263.078 343.81 262.677 344.182 261.874H348.241C348.033 262.692 347.653 263.428 347.103 264.082C346.568 264.736 345.891 265.249 345.074 265.621C344.256 265.993 343.341 266.178 342.33 266.178C341.111 266.178 340.026 265.918 339.074 265.398C338.123 264.877 337.379 264.134 336.844 263.168C336.309 262.201 336.041 261.071 336.041 259.777C336.041 258.484 336.301 257.354 336.822 256.387C337.357 255.421 338.1 254.678 339.052 254.157C340.003 253.637 341.096 253.377 342.33 253.377C343.535 253.377 344.605 253.629 345.542 254.135C346.479 254.64 347.207 255.361 347.728 256.298C348.263 257.235 348.531 258.328 348.531 259.577ZM344.628 258.573C344.628 257.919 344.405 257.398 343.959 257.012C343.512 256.625 342.955 256.432 342.286 256.432C341.646 256.432 341.104 256.618 340.658 256.99C340.226 257.361 339.959 257.889 339.855 258.573H344.628ZM354.356 249.496V266H350.543V249.496H354.356ZM365.66 255.317C366.032 254.737 366.545 254.269 367.199 253.912C367.853 253.555 368.619 253.377 369.496 253.377C370.522 253.377 371.452 253.637 372.284 254.157C373.117 254.678 373.771 255.421 374.247 256.387C374.738 257.354 374.983 258.476 374.983 259.755C374.983 261.034 374.738 262.164 374.247 263.145C373.771 264.112 373.117 264.863 372.284 265.398C371.452 265.918 370.522 266.178 369.496 266.178C368.634 266.178 367.868 266 367.199 265.643C366.545 265.286 366.032 264.825 365.66 264.26V271.933H361.847V253.555H365.66V255.317ZM371.102 259.755C371.102 258.804 370.835 258.06 370.299 257.525C369.779 256.975 369.132 256.7 368.359 256.7C367.601 256.7 366.954 256.975 366.419 257.525C365.898 258.075 365.638 258.826 365.638 259.777C365.638 260.729 365.898 261.48 366.419 262.03C366.954 262.58 367.601 262.855 368.359 262.855C369.117 262.855 369.764 262.58 370.299 262.03C370.835 261.465 371.102 260.707 371.102 259.755ZM380.798 255.629C381.244 254.945 381.801 254.41 382.47 254.023C383.139 253.622 383.883 253.421 384.701 253.421V257.458H383.652C382.701 257.458 381.987 257.666 381.511 258.082C381.036 258.484 380.798 259.198 380.798 260.224V266H376.984V253.555H380.798V255.629ZM392.189 266.178C390.969 266.178 389.869 265.918 388.888 265.398C387.921 264.877 387.156 264.134 386.591 263.168C386.04 262.201 385.765 261.071 385.765 259.777C385.765 258.499 386.048 257.376 386.613 256.41C387.178 255.428 387.951 254.678 388.932 254.157C389.914 253.637 391.014 253.377 392.233 253.377C393.452 253.377 394.553 253.637 395.534 254.157C396.515 254.678 397.289 255.428 397.854 256.41C398.419 257.376 398.701 258.499 398.701 259.777C398.701 261.056 398.411 262.186 397.831 263.168C397.266 264.134 396.486 264.877 395.489 265.398C394.508 265.918 393.408 266.178 392.189 266.178ZM392.189 262.878C392.917 262.878 393.534 262.61 394.04 262.075C394.56 261.539 394.82 260.774 394.82 259.777C394.82 258.781 394.568 258.016 394.062 257.48C393.571 256.945 392.962 256.677 392.233 256.677C391.49 256.677 390.873 256.945 390.382 257.48C389.891 258.001 389.646 258.766 389.646 259.777C389.646 260.774 389.884 261.539 390.36 262.075C390.85 262.61 391.46 262.878 392.189 262.878ZM405.453 253.377C406.33 253.377 407.096 253.555 407.75 253.912C408.419 254.269 408.932 254.737 409.289 255.317V253.555H413.102V265.978C413.102 267.123 412.872 268.156 412.411 269.078C411.965 270.015 411.274 270.758 410.337 271.308C409.415 271.858 408.263 272.133 406.88 272.133C405.036 272.133 403.542 271.695 402.397 270.817C401.252 269.955 400.598 268.78 400.434 267.294H404.204C404.323 267.769 404.605 268.141 405.051 268.409C405.497 268.691 406.047 268.832 406.702 268.832C407.49 268.832 408.114 268.602 408.575 268.141C409.051 267.695 409.289 266.974 409.289 265.978V264.216C408.917 264.796 408.404 265.271 407.75 265.643C407.096 266 406.33 266.178 405.453 266.178C404.427 266.178 403.497 265.918 402.665 265.398C401.832 264.863 401.17 264.112 400.68 263.145C400.204 262.164 399.966 261.034 399.966 259.755C399.966 258.476 400.204 257.354 400.68 256.387C401.17 255.421 401.832 254.678 402.665 254.157C403.497 253.637 404.427 253.377 405.453 253.377ZM409.289 259.777C409.289 258.826 409.021 258.075 408.486 257.525C407.965 256.975 407.326 256.7 406.568 256.7C405.809 256.7 405.163 256.975 404.627 257.525C404.107 258.06 403.847 258.804 403.847 259.755C403.847 260.707 404.107 261.465 404.627 262.03C405.163 262.58 405.809 262.855 406.568 262.855C407.326 262.855 407.965 262.58 408.486 262.03C409.021 261.48 409.289 260.729 409.289 259.777ZM419.675 255.629C420.121 254.945 420.679 254.41 421.348 254.023C422.017 253.622 422.761 253.421 423.578 253.421V257.458H422.53C421.579 257.458 420.865 257.666 420.389 258.082C419.913 258.484 419.675 259.198 419.675 260.224V266H415.862V253.555H419.675V255.629ZM424.643 259.755C424.643 258.476 424.881 257.354 425.357 256.387C425.847 255.421 426.509 254.678 427.342 254.157C428.174 253.637 429.104 253.377 430.13 253.377C431.007 253.377 431.773 253.555 432.427 253.912C433.096 254.269 433.609 254.737 433.966 255.317V253.555H437.78V266H433.966V264.238C433.594 264.818 433.074 265.286 432.404 265.643C431.75 266 430.985 266.178 430.107 266.178C429.096 266.178 428.174 265.918 427.342 265.398C426.509 264.863 425.847 264.112 425.357 263.145C424.881 262.164 424.643 261.034 424.643 259.755ZM433.966 259.777C433.966 258.826 433.698 258.075 433.163 257.525C432.642 256.975 432.003 256.7 431.245 256.7C430.486 256.7 429.84 256.975 429.304 257.525C428.784 258.06 428.524 258.804 428.524 259.755C428.524 260.707 428.784 261.465 429.304 262.03C429.84 262.58 430.486 262.855 431.245 262.855C432.003 262.855 432.642 262.58 433.163 262.03C433.698 261.48 433.966 260.729 433.966 259.777ZM456.418 253.421C457.965 253.421 459.191 253.889 460.098 254.826C461.02 255.763 461.481 257.064 461.481 258.729V266H457.69V259.242C457.69 258.439 457.474 257.822 457.043 257.391C456.627 256.945 456.047 256.722 455.303 256.722C454.56 256.722 453.972 256.945 453.541 257.391C453.125 257.822 452.917 258.439 452.917 259.242V266H449.125V259.242C449.125 258.439 448.91 257.822 448.479 257.391C448.062 256.945 447.482 256.722 446.739 256.722C445.995 256.722 445.408 256.945 444.977 257.391C444.561 257.822 444.352 258.439 444.352 259.242V266H440.539V253.555H444.352V255.116C444.739 254.596 445.245 254.187 445.869 253.889C446.494 253.577 447.2 253.421 447.988 253.421C448.925 253.421 449.757 253.622 450.486 254.023C451.229 254.425 451.809 254.997 452.225 255.741C452.657 255.057 453.244 254.499 453.987 254.068C454.731 253.637 455.541 253.421 456.418 253.421ZM463.39 259.755C463.39 258.476 463.628 257.354 464.104 256.387C464.595 255.421 465.256 254.678 466.089 254.157C466.921 253.637 467.851 253.377 468.877 253.377C469.754 253.377 470.52 253.555 471.174 253.912C471.843 254.269 472.356 254.737 472.713 255.317V253.555H476.527V266H472.713V264.238C472.341 264.818 471.821 265.286 471.152 265.643C470.497 266 469.732 266.178 468.854 266.178C467.843 266.178 466.921 265.918 466.089 265.398C465.256 264.863 464.595 264.112 464.104 263.145C463.628 262.164 463.39 261.034 463.39 259.755ZM472.713 259.777C472.713 258.826 472.445 258.075 471.91 257.525C471.389 256.975 470.75 256.7 469.992 256.7C469.234 256.7 468.587 256.975 468.051 257.525C467.531 258.06 467.271 258.804 467.271 259.755C467.271 260.707 467.531 261.465 468.051 262.03C468.587 262.58 469.234 262.855 469.992 262.855C470.75 262.855 471.389 262.58 471.91 262.03C472.445 261.48 472.713 260.729 472.713 259.777Z" fill="white"/>
<path d="M179.103 128.94L171.633 150H165.213L157.743 128.94H163.203L168.423 144.84L173.673 128.94H179.103ZM180.227 141.6C180.227 139.88 180.547 138.37 181.187 137.07C181.847 135.77 182.737 134.77 183.857 134.07C184.977 133.37 186.227 133.02 187.607 133.02C188.787 133.02 189.817 133.26 190.697 133.74C191.597 134.22 192.287 134.85 192.767 135.63V133.26H197.897V150H192.767V147.63C192.267 148.41 191.567 149.04 190.667 149.52C189.787 150 188.757 150.24 187.577 150.24C186.217 150.24 184.977 149.89 183.857 149.19C182.737 148.47 181.847 147.46 181.187 146.16C180.547 144.84 180.227 143.32 180.227 141.6ZM192.767 141.63C192.767 140.35 192.407 139.34 191.687 138.6C190.987 137.86 190.127 137.49 189.107 137.49C188.087 137.49 187.217 137.86 186.497 138.6C185.797 139.32 185.447 140.32 185.447 141.6C185.447 142.88 185.797 143.9 186.497 144.66C187.217 145.4 188.087 145.77 189.107 145.77C190.127 145.77 190.987 145.4 191.687 144.66C192.407 143.92 192.767 142.91 192.767 141.63ZM206.738 136.05C207.338 135.13 208.088 134.41 208.988 133.89C209.888 133.35 210.888 133.08 211.988 133.08V138.51H210.578C209.298 138.51 208.338 138.79 207.698 139.35C207.058 139.89 206.738 140.85 206.738 142.23V150H201.608V133.26H206.738V136.05ZM217.02 131.52C216.12 131.52 215.38 131.26 214.8 130.74C214.24 130.2 213.96 129.54 213.96 128.76C213.96 127.96 214.24 127.3 214.8 126.78C215.38 126.24 216.12 125.97 217.02 125.97C217.9 125.97 218.62 126.24 219.18 126.78C219.76 127.3 220.05 127.96 220.05 128.76C220.05 129.54 219.76 130.2 219.18 130.74C218.62 131.26 217.9 131.52 217.02 131.52ZM219.57 133.26V150H214.44V133.26H219.57ZM222.268 141.6C222.268 139.88 222.588 138.37 223.228 137.07C223.888 135.77 224.778 134.77 225.898 134.07C227.018 133.37 228.268 133.02 229.648 133.02C230.828 133.02 231.858 133.26 232.738 133.74C233.638 134.22 234.328 134.85 234.808 135.63V133.26H239.938V150H234.808V147.63C234.308 148.41 233.608 149.04 232.708 149.52C231.828 150 230.798 150.24 229.618 150.24C228.258 150.24 227.018 149.89 225.898 149.19C224.778 148.47 223.888 147.46 223.228 146.16C222.588 144.84 222.268 143.32 222.268 141.6ZM234.808 141.63C234.808 140.35 234.448 139.34 233.728 138.6C233.028 137.86 232.168 137.49 231.148 137.49C230.128 137.49 229.258 137.86 228.538 138.6C227.838 139.32 227.488 140.32 227.488 141.6C227.488 142.88 227.838 143.9 228.538 144.66C229.258 145.4 230.128 145.77 231.148 145.77C232.168 145.77 233.028 145.4 233.728 144.66C234.448 143.92 234.808 142.91 234.808 141.63ZM248.779 135.63C249.259 134.85 249.949 134.22 250.849 133.74C251.749 133.26 252.779 133.02 253.939 133.02C255.319 133.02 256.569 133.37 257.689 134.07C258.809 134.77 259.689 135.77 260.329 137.07C260.989 138.37 261.319 139.88 261.319 141.6C261.319 143.32 260.989 144.84 260.329 146.16C259.689 147.46 258.809 148.47 257.689 149.19C256.569 149.89 255.319 150.24 253.939 150.24C252.759 150.24 251.729 150.01 250.849 149.55C249.969 149.07 249.279 148.44 248.779 147.66V150H243.649V127.8H248.779V135.63ZM256.099 141.6C256.099 140.32 255.739 139.32 255.019 138.6C254.319 137.86 253.449 137.49 252.409 137.49C251.389 137.49 250.519 137.86 249.799 138.6C249.099 139.34 248.749 140.35 248.749 141.63C248.749 142.91 249.099 143.92 249.799 144.66C250.519 145.4 251.389 145.77 252.409 145.77C253.429 145.77 254.299 145.4 255.019 144.66C255.739 143.9 256.099 142.88 256.099 141.6ZM269.14 127.8V150H264.01V127.8H269.14ZM288.638 141.36C288.638 141.84 288.608 142.34 288.548 142.86H276.938C277.018 143.9 277.348 144.7 277.928 145.26C278.528 145.8 279.258 146.07 280.118 146.07C281.398 146.07 282.288 145.53 282.788 144.45H288.248C287.968 145.55 287.458 146.54 286.718 147.42C285.998 148.3 285.088 148.99 283.988 149.49C282.888 149.99 281.658 150.24 280.298 150.24C278.658 150.24 277.198 149.89 275.918 149.19C274.638 148.49 273.638 147.49 272.918 146.19C272.198 144.89 271.838 143.37 271.838 141.63C271.838 139.89 272.188 138.37 272.888 137.07C273.608 135.77 274.608 134.77 275.888 134.07C277.168 133.37 278.638 133.02 280.298 133.02C281.918 133.02 283.358 133.36 284.618 134.04C285.878 134.72 286.858 135.69 287.558 136.95C288.278 138.21 288.638 139.68 288.638 141.36ZM283.388 140.01C283.388 139.13 283.088 138.43 282.488 137.91C281.888 137.39 281.138 137.13 280.238 137.13C279.378 137.13 278.648 137.38 278.048 137.88C277.468 138.38 277.108 139.09 276.968 140.01H283.388ZM296.682 141.63C296.682 139.89 297.032 138.37 297.732 137.07C298.452 135.77 299.442 134.77 300.702 134.07C301.982 133.37 303.442 133.02 305.082 133.02C307.182 133.02 308.932 133.57 310.332 134.67C311.752 135.77 312.682 137.32 313.122 139.32H307.662C307.202 138.04 306.312 137.4 304.992 137.4C304.052 137.4 303.302 137.77 302.742 138.51C302.182 139.23 301.902 140.27 301.902 141.63C301.902 142.99 302.182 144.04 302.742 144.78C303.302 145.5 304.052 145.86 304.992 145.86C306.312 145.86 307.202 145.22 307.662 143.94H313.122C312.682 145.9 311.752 147.44 310.332 148.56C308.912 149.68 307.162 150.24 305.082 150.24C303.442 150.24 301.982 149.89 300.702 149.19C299.442 148.49 298.452 147.49 297.732 146.19C297.032 144.89 296.682 143.37 296.682 141.63ZM323.486 150.24C321.846 150.24 320.366 149.89 319.046 149.19C317.746 148.49 316.716 147.49 315.956 146.19C315.216 144.89 314.846 143.37 314.846 141.63C314.846 139.91 315.226 138.4 315.986 137.1C316.746 135.78 317.786 134.77 319.106 134.07C320.426 133.37 321.906 133.02 323.546 133.02C325.186 133.02 326.666 133.37 327.986 134.07C329.306 134.77 330.346 135.78 331.106 137.1C331.866 138.4 332.246 139.91 332.246 141.63C332.246 143.35 331.856 144.87 331.076 146.19C330.316 147.49 329.266 148.49 327.926 149.19C326.606 149.89 325.126 150.24 323.486 150.24ZM323.486 145.8C324.466 145.8 325.296 145.44 325.976 144.72C326.676 144 327.026 142.97 327.026 141.63C327.026 140.29 326.686 139.26 326.006 138.54C325.346 137.82 324.526 137.46 323.546 137.46C322.546 137.46 321.716 137.82 321.056 138.54C320.396 139.24 320.066 140.27 320.066 141.63C320.066 142.97 320.386 144 321.026 144.72C321.686 145.44 322.506 145.8 323.486 145.8ZM345.167 133.08C347.127 133.08 348.687 133.72 349.847 135C351.027 136.26 351.617 138 351.617 140.22V150H346.517V140.91C346.517 139.79 346.227 138.92 345.647 138.3C345.067 137.68 344.287 137.37 343.307 137.37C342.327 137.37 341.547 137.68 340.967 138.3C340.387 138.92 340.097 139.79 340.097 140.91V150H334.967V133.26H340.097V135.48C340.617 134.74 341.317 134.16 342.197 133.74C343.077 133.3 344.067 133.08 345.167 133.08ZM364.512 145.65V150H361.902C360.042 150 358.592 149.55 357.552 148.65C356.512 147.73 355.992 146.24 355.992 144.18V137.52H353.952V133.26H355.992V129.18H361.122V133.26H364.482V137.52H361.122V144.24C361.122 144.74 361.242 145.1 361.482 145.32C361.722 145.54 362.122 145.65 362.682 145.65H364.512ZM366.35 141.6C366.35 139.88 366.67 138.37 367.31 137.07C367.97 135.77 368.86 134.77 369.98 134.07C371.1 133.37 372.35 133.02 373.73 133.02C374.91 133.02 375.94 133.26 376.82 133.74C377.72 134.22 378.41 134.85 378.89 135.63V133.26H384.02V150H378.89V147.63C378.39 148.41 377.69 149.04 376.79 149.52C375.91 150 374.88 150.24 373.7 150.24C372.34 150.24 371.1 149.89 369.98 149.19C368.86 148.47 367.97 147.46 367.31 146.16C366.67 144.84 366.35 143.32 366.35 141.6ZM378.89 141.63C378.89 140.35 378.53 139.34 377.81 138.6C377.11 137.86 376.25 137.49 375.23 137.49C374.21 137.49 373.34 137.86 372.62 138.6C371.92 139.32 371.57 140.32 371.57 141.6C371.57 142.88 371.92 143.9 372.62 144.66C373.34 145.4 374.21 145.77 375.23 145.77C376.25 145.77 377.11 145.4 377.81 144.66C378.53 143.92 378.89 142.91 378.89 141.63ZM386.711 141.6C386.711 139.88 387.031 138.37 387.671 137.07C388.331 135.77 389.221 134.77 390.341 134.07C391.461 133.37 392.711 133.02 394.091 133.02C395.191 133.02 396.191 133.25 397.091 133.71C398.011 134.17 398.731 134.79 399.251 135.57V127.8H404.381V150H399.251V147.6C398.771 148.4 398.081 149.04 397.181 149.52C396.301 150 395.271 150.24 394.091 150.24C392.711 150.24 391.461 149.89 390.341 149.19C389.221 148.47 388.331 147.46 387.671 146.16C387.031 144.84 386.711 143.32 386.711 141.6ZM399.251 141.63C399.251 140.35 398.891 139.34 398.171 138.6C397.471 137.86 396.611 137.49 395.591 137.49C394.571 137.49 393.701 137.86 392.981 138.6C392.281 139.32 391.931 140.32 391.931 141.6C391.931 142.88 392.281 143.9 392.981 144.66C393.701 145.4 394.571 145.77 395.591 145.77C396.611 145.77 397.471 145.4 398.171 144.66C398.891 143.92 399.251 142.91 399.251 141.63ZM415.712 150.24C414.072 150.24 412.592 149.89 411.272 149.19C409.972 148.49 408.942 147.49 408.182 146.19C407.442 144.89 407.072 143.37 407.072 141.63C407.072 139.91 407.452 138.4 408.212 137.1C408.972 135.78 410.012 134.77 411.332 134.07C412.652 133.37 414.132 133.02 415.772 133.02C417.412 133.02 418.892 133.37 420.212 134.07C421.532 134.77 422.572 135.78 423.332 137.1C424.092 138.4 424.472 139.91 424.472 141.63C424.472 143.35 424.082 144.87 423.302 146.19C422.542 147.49 421.492 148.49 420.152 149.19C418.832 149.89 417.352 150.24 415.712 150.24ZM415.712 145.8C416.692 145.8 417.522 145.44 418.202 144.72C418.902 144 419.252 142.97 419.252 141.63C419.252 140.29 418.912 139.26 418.232 138.54C417.572 137.82 416.752 137.46 415.772 137.46C414.772 137.46 413.942 137.82 413.282 138.54C412.622 139.24 412.292 140.27 412.292 141.63C412.292 142.97 412.612 144 413.252 144.72C413.912 145.44 414.732 145.8 415.712 145.8ZM432.324 136.05C432.924 135.13 433.674 134.41 434.574 133.89C435.474 133.35 436.474 133.08 437.574 133.08V138.51H436.164C434.884 138.51 433.924 138.79 433.284 139.35C432.644 139.89 432.324 140.85 432.324 142.23V150H427.194V133.26H432.324V136.05ZM439.006 141.6C439.006 139.88 439.326 138.37 439.966 137.07C440.626 135.77 441.516 134.77 442.636 134.07C443.756 133.37 445.006 133.02 446.386 133.02C447.566 133.02 448.596 133.26 449.476 133.74C450.376 134.22 451.066 134.85 451.546 135.63V133.26H456.676V150H451.546V147.63C451.046 148.41 450.346 149.04 449.446 149.52C448.566 150 447.536 150.24 446.356 150.24C444.996 150.24 443.756 149.89 442.636 149.19C441.516 148.47 440.626 147.46 439.966 146.16C439.326 144.84 439.006 143.32 439.006 141.6ZM451.546 141.63C451.546 140.35 451.186 139.34 450.466 138.6C449.766 137.86 448.906 137.49 447.886 137.49C446.866 137.49 445.996 137.86 445.276 138.6C444.576 139.32 444.226 140.32 444.226 141.6C444.226 142.88 444.576 143.9 445.276 144.66C445.996 145.4 446.866 145.77 447.886 145.77C448.906 145.77 449.766 145.4 450.466 144.66C451.186 143.92 451.546 142.91 451.546 141.63Z" fill="#1A3567"/>
<path d="M785.38 182.94L777.91 204H771.49L764.02 182.94H769.48L774.7 198.84L779.95 182.94H785.38ZM786.504 195.6C786.504 193.88 786.824 192.37 787.464 191.07C788.124 189.77 789.014 188.77 790.134 188.07C791.254 187.37 792.504 187.02 793.884 187.02C795.064 187.02 796.094 187.26 796.974 187.74C797.874 188.22 798.564 188.85 799.044 189.63V187.26H804.174V204H799.044V201.63C798.544 202.41 797.844 203.04 796.944 203.52C796.064 204 795.034 204.24 793.854 204.24C792.494 204.24 791.254 203.89 790.134 203.19C789.014 202.47 788.124 201.46 787.464 200.16C786.824 198.84 786.504 197.32 786.504 195.6ZM799.044 195.63C799.044 194.35 798.684 193.34 797.964 192.6C797.264 191.86 796.404 191.49 795.384 191.49C794.364 191.49 793.494 191.86 792.774 192.6C792.074 193.32 791.724 194.32 791.724 195.6C791.724 196.88 792.074 197.9 792.774 198.66C793.494 199.4 794.364 199.77 795.384 199.77C796.404 199.77 797.264 199.4 797.964 198.66C798.684 197.92 799.044 196.91 799.044 195.63ZM813.015 190.05C813.615 189.13 814.365 188.41 815.265 187.89C816.165 187.35 817.165 187.08 818.265 187.08V192.51H816.855C815.575 192.51 814.615 192.79 813.975 193.35C813.335 193.89 813.015 194.85 813.015 196.23V204H807.885V187.26H813.015V190.05ZM823.297 185.52C822.397 185.52 821.657 185.26 821.077 184.74C820.517 184.2 820.237 183.54 820.237 182.76C820.237 181.96 820.517 181.3 821.077 180.78C821.657 180.24 822.397 179.97 823.297 179.97C824.177 179.97 824.897 180.24 825.457 180.78C826.037 181.3 826.327 181.96 826.327 182.76C826.327 183.54 826.037 184.2 825.457 184.74C824.897 185.26 824.177 185.52 823.297 185.52ZM825.847 187.26V204H820.717V187.26H825.847ZM828.545 195.6C828.545 193.88 828.865 192.37 829.505 191.07C830.165 189.77 831.055 188.77 832.175 188.07C833.295 187.37 834.545 187.02 835.925 187.02C837.105 187.02 838.135 187.26 839.015 187.74C839.915 188.22 840.605 188.85 841.085 189.63V187.26H846.215V204H841.085V201.63C840.585 202.41 839.885 203.04 838.985 203.52C838.105 204 837.075 204.24 835.895 204.24C834.535 204.24 833.295 203.89 832.175 203.19C831.055 202.47 830.165 201.46 829.505 200.16C828.865 198.84 828.545 197.32 828.545 195.6ZM841.085 195.63C841.085 194.35 840.725 193.34 840.005 192.6C839.305 191.86 838.445 191.49 837.425 191.49C836.405 191.49 835.535 191.86 834.815 192.6C834.115 193.32 833.765 194.32 833.765 195.6C833.765 196.88 834.115 197.9 834.815 198.66C835.535 199.4 836.405 199.77 837.425 199.77C838.445 199.77 839.305 199.4 840.005 198.66C840.725 197.92 841.085 196.91 841.085 195.63ZM855.056 189.63C855.536 188.85 856.226 188.22 857.126 187.74C858.026 187.26 859.056 187.02 860.216 187.02C861.596 187.02 862.846 187.37 863.966 188.07C865.086 188.77 865.966 189.77 866.606 191.07C867.266 192.37 867.596 193.88 867.596 195.6C867.596 197.32 867.266 198.84 866.606 200.16C865.966 201.46 865.086 202.47 863.966 203.19C862.846 203.89 861.596 204.24 860.216 204.24C859.036 204.24 858.006 204.01 857.126 203.55C856.246 203.07 855.556 202.44 855.056 201.66V204H849.926V181.8H855.056V189.63ZM862.376 195.6C862.376 194.32 862.016 193.32 861.296 192.6C860.596 191.86 859.726 191.49 858.686 191.49C857.666 191.49 856.796 191.86 856.076 192.6C855.376 193.34 855.026 194.35 855.026 195.63C855.026 196.91 855.376 197.92 856.076 198.66C856.796 199.4 857.666 199.77 858.686 199.77C859.706 199.77 860.576 199.4 861.296 198.66C862.016 197.9 862.376 196.88 862.376 195.6ZM875.418 181.8V204H870.288V181.8H875.418ZM894.915 195.36C894.915 195.84 894.885 196.34 894.825 196.86H883.215C883.295 197.9 883.625 198.7 884.205 199.26C884.805 199.8 885.535 200.07 886.395 200.07C887.675 200.07 888.565 199.53 889.065 198.45H894.525C894.245 199.55 893.735 200.54 892.995 201.42C892.275 202.3 891.365 202.99 890.265 203.49C889.165 203.99 887.935 204.24 886.575 204.24C884.935 204.24 883.475 203.89 882.195 203.19C880.915 202.49 879.915 201.49 879.195 200.19C878.475 198.89 878.115 197.37 878.115 195.63C878.115 193.89 878.465 192.37 879.165 191.07C879.885 189.77 880.885 188.77 882.165 188.07C883.445 187.37 884.915 187.02 886.575 187.02C888.195 187.02 889.635 187.36 890.895 188.04C892.155 188.72 893.135 189.69 893.835 190.95C894.555 192.21 894.915 193.68 894.915 195.36ZM889.665 194.01C889.665 193.13 889.365 192.43 888.765 191.91C888.165 191.39 887.415 191.13 886.515 191.13C885.655 191.13 884.925 191.38 884.325 191.88C883.745 192.38 883.385 193.09 883.245 194.01H889.665ZM906.559 185.52C905.659 185.52 904.919 185.26 904.339 184.74C903.779 184.2 903.499 183.54 903.499 182.76C903.499 181.96 903.779 181.3 904.339 180.78C904.919 180.24 905.659 179.97 906.559 179.97C907.439 179.97 908.159 180.24 908.719 180.78C909.299 181.3 909.589 181.96 909.589 182.76C909.589 183.54 909.299 184.2 908.719 184.74C908.159 185.26 907.439 185.52 906.559 185.52ZM909.109 187.26V204H903.979V187.26H909.109ZM923.027 187.08C924.987 187.08 926.547 187.72 927.707 189C928.887 190.26 929.477 192 929.477 194.22V204H924.377V194.91C924.377 193.79 924.087 192.92 923.507 192.3C922.927 191.68 922.147 191.37 921.167 191.37C920.187 191.37 919.407 191.68 918.827 192.3C918.247 192.92 917.957 193.79 917.957 194.91V204H912.827V187.26H917.957V189.48C918.477 188.74 919.177 188.16 920.057 187.74C920.937 187.3 921.927 187.08 923.027 187.08ZM935.622 185.52C934.722 185.52 933.982 185.26 933.402 184.74C932.842 184.2 932.562 183.54 932.562 182.76C932.562 181.96 932.842 181.3 933.402 180.78C933.982 180.24 934.722 179.97 935.622 179.97C936.502 179.97 937.222 180.24 937.782 180.78C938.362 181.3 938.652 181.96 938.652 182.76C938.652 183.54 938.362 184.2 937.782 184.74C937.222 185.26 936.502 185.52 935.622 185.52ZM938.172 187.26V204H933.042V187.26H938.172ZM940.869 195.63C940.869 193.89 941.219 192.37 941.919 191.07C942.639 189.77 943.629 188.77 944.889 188.07C946.169 187.37 947.629 187.02 949.269 187.02C951.369 187.02 953.119 187.57 954.519 188.67C955.939 189.77 956.869 191.32 957.309 193.32H951.849C951.389 192.04 950.499 191.4 949.179 191.4C948.239 191.4 947.489 191.77 946.929 192.51C946.369 193.23 946.089 194.27 946.089 195.63C946.089 196.99 946.369 198.04 946.929 198.78C947.489 199.5 948.239 199.86 949.179 199.86C950.499 199.86 951.389 199.22 951.849 197.94H957.309C956.869 199.9 955.939 201.44 954.519 202.56C953.099 203.68 951.349 204.24 949.269 204.24C947.629 204.24 946.169 203.89 944.889 203.19C943.629 202.49 942.639 201.49 941.919 200.19C941.219 198.89 940.869 197.37 940.869 195.63ZM962.633 185.52C961.733 185.52 960.993 185.26 960.413 184.74C959.853 184.2 959.573 183.54 959.573 182.76C959.573 181.96 959.853 181.3 960.413 180.78C960.993 180.24 961.733 179.97 962.633 179.97C963.513 179.97 964.233 180.24 964.793 180.78C965.373 181.3 965.663 181.96 965.663 182.76C965.663 183.54 965.373 184.2 964.793 184.74C964.233 185.26 963.513 185.52 962.633 185.52ZM965.183 187.26V204H960.053V187.26H965.183ZM967.881 195.6C967.881 193.88 968.201 192.37 968.841 191.07C969.501 189.77 970.391 188.77 971.511 188.07C972.631 187.37 973.881 187.02 975.261 187.02C976.441 187.02 977.471 187.26 978.351 187.74C979.251 188.22 979.941 188.85 980.421 189.63V187.26H985.551V204H980.421V201.63C979.921 202.41 979.221 203.04 978.321 203.52C977.441 204 976.411 204.24 975.231 204.24C973.871 204.24 972.631 203.89 971.511 203.19C970.391 202.47 969.501 201.46 968.841 200.16C968.201 198.84 967.881 197.32 967.881 195.6ZM980.421 195.63C980.421 194.35 980.061 193.34 979.341 192.6C978.641 191.86 977.781 191.49 976.761 191.49C975.741 191.49 974.871 191.86 974.151 192.6C973.451 193.32 973.101 194.32 973.101 195.6C973.101 196.88 973.451 197.9 974.151 198.66C974.871 199.4 975.741 199.77 976.761 199.77C977.781 199.77 978.641 199.4 979.341 198.66C980.061 197.92 980.421 196.91 980.421 195.63ZM994.392 181.8V204H989.262V181.8H994.392Z" fill="#1A3567"/>
<path d="M699.904 583.94L692.434 605H686.014L678.544 583.94H684.004L689.224 599.84L694.474 583.94H699.904ZM701.028 596.6C701.028 594.88 701.348 593.37 701.988 592.07C702.648 590.77 703.538 589.77 704.658 589.07C705.778 588.37 707.028 588.02 708.408 588.02C709.588 588.02 710.618 588.26 711.498 588.74C712.398 589.22 713.088 589.85 713.568 590.63V588.26H718.698V605H713.568V602.63C713.068 603.41 712.368 604.04 711.468 604.52C710.588 605 709.558 605.24 708.378 605.24C707.018 605.24 705.778 604.89 704.658 604.19C703.538 603.47 702.648 602.46 701.988 601.16C701.348 599.84 701.028 598.32 701.028 596.6ZM713.568 596.63C713.568 595.35 713.208 594.34 712.488 593.6C711.788 592.86 710.928 592.49 709.908 592.49C708.888 592.49 708.018 592.86 707.298 593.6C706.598 594.32 706.248 595.32 706.248 596.6C706.248 597.88 706.598 598.9 707.298 599.66C708.018 600.4 708.888 600.77 709.908 600.77C710.928 600.77 711.788 600.4 712.488 599.66C713.208 598.92 713.568 597.91 713.568 596.63ZM727.54 591.05C728.14 590.13 728.89 589.41 729.79 588.89C730.69 588.35 731.69 588.08 732.79 588.08V593.51H731.38C730.1 593.51 729.14 593.79 728.5 594.35C727.86 594.89 727.54 595.85 727.54 597.23V605H722.41V588.26H727.54V591.05ZM737.822 586.52C736.922 586.52 736.182 586.26 735.602 585.74C735.042 585.2 734.762 584.54 734.762 583.76C734.762 582.96 735.042 582.3 735.602 581.78C736.182 581.24 736.922 580.97 737.822 580.97C738.702 580.97 739.422 581.24 739.982 581.78C740.562 582.3 740.852 582.96 740.852 583.76C740.852 584.54 740.562 585.2 739.982 585.74C739.422 586.26 738.702 586.52 737.822 586.52ZM740.372 588.26V605H735.242V588.26H740.372ZM743.069 596.6C743.069 594.88 743.389 593.37 744.029 592.07C744.689 590.77 745.579 589.77 746.699 589.07C747.819 588.37 749.069 588.02 750.449 588.02C751.629 588.02 752.659 588.26 753.539 588.74C754.439 589.22 755.129 589.85 755.609 590.63V588.26H760.739V605H755.609V602.63C755.109 603.41 754.409 604.04 753.509 604.52C752.629 605 751.599 605.24 750.419 605.24C749.059 605.24 747.819 604.89 746.699 604.19C745.579 603.47 744.689 602.46 744.029 601.16C743.389 599.84 743.069 598.32 743.069 596.6ZM755.609 596.63C755.609 595.35 755.249 594.34 754.529 593.6C753.829 592.86 752.969 592.49 751.949 592.49C750.929 592.49 750.059 592.86 749.339 593.6C748.639 594.32 748.289 595.32 748.289 596.6C748.289 597.88 748.639 598.9 749.339 599.66C750.059 600.4 750.929 600.77 751.949 600.77C752.969 600.77 753.829 600.4 754.529 599.66C755.249 598.92 755.609 597.91 755.609 596.63ZM769.581 590.63C770.061 589.85 770.751 589.22 771.651 588.74C772.551 588.26 773.581 588.02 774.741 588.02C776.121 588.02 777.371 588.37 778.491 589.07C779.611 589.77 780.491 590.77 781.131 592.07C781.791 593.37 782.121 594.88 782.121 596.6C782.121 598.32 781.791 599.84 781.131 601.16C780.491 602.46 779.611 603.47 778.491 604.19C777.371 604.89 776.121 605.24 774.741 605.24C773.561 605.24 772.531 605.01 771.651 604.55C770.771 604.07 770.081 603.44 769.581 602.66V605H764.451V582.8H769.581V590.63ZM776.901 596.6C776.901 595.32 776.541 594.32 775.821 593.6C775.121 592.86 774.251 592.49 773.211 592.49C772.191 592.49 771.321 592.86 770.601 593.6C769.901 594.34 769.551 595.35 769.551 596.63C769.551 597.91 769.901 598.92 770.601 599.66C771.321 600.4 772.191 600.77 773.211 600.77C774.231 600.77 775.101 600.4 775.821 599.66C776.541 598.9 776.901 597.88 776.901 596.6ZM789.942 582.8V605H784.812V582.8H789.942ZM809.44 596.36C809.44 596.84 809.41 597.34 809.35 597.86H797.74C797.82 598.9 798.15 599.7 798.73 600.26C799.33 600.8 800.06 601.07 800.92 601.07C802.2 601.07 803.09 600.53 803.59 599.45H809.05C808.77 600.55 808.26 601.54 807.52 602.42C806.8 603.3 805.89 603.99 804.79 604.49C803.69 604.99 802.46 605.24 801.1 605.24C799.46 605.24 798 604.89 796.72 604.19C795.44 603.49 794.44 602.49 793.72 601.19C793 599.89 792.64 598.37 792.64 596.63C792.64 594.89 792.99 593.37 793.69 592.07C794.41 590.77 795.41 589.77 796.69 589.07C797.97 588.37 799.44 588.02 801.1 588.02C802.72 588.02 804.16 588.36 805.42 589.04C806.68 589.72 807.66 590.69 808.36 591.95C809.08 593.21 809.44 594.68 809.44 596.36ZM804.19 595.01C804.19 594.13 803.89 593.43 803.29 592.91C802.69 592.39 801.94 592.13 801.04 592.13C800.18 592.13 799.45 592.38 798.85 592.88C798.27 593.38 797.91 594.09 797.77 595.01H804.19ZM826.904 592.52H824.144V605H819.014V592.52H817.154V588.26H819.014V587.78C819.014 585.72 819.604 584.16 820.784 583.1C821.964 582.02 823.694 581.48 825.974 581.48C826.354 581.48 826.634 581.49 826.814 581.51V585.86C825.834 585.8 825.144 585.94 824.744 586.28C824.344 586.62 824.144 587.23 824.144 588.11V588.26H826.904V592.52ZM831.894 586.52C830.994 586.52 830.254 586.26 829.674 585.74C829.114 585.2 828.834 584.54 828.834 583.76C828.834 582.96 829.114 582.3 829.674 581.78C830.254 581.24 830.994 580.97 831.894 580.97C832.774 580.97 833.494 581.24 834.054 581.78C834.634 582.3 834.924 582.96 834.924 583.76C834.924 584.54 834.634 585.2 834.054 585.74C833.494 586.26 832.774 586.52 831.894 586.52ZM834.444 588.26V605H829.314V588.26H834.444ZM848.362 588.08C850.322 588.08 851.882 588.72 853.042 590C854.222 591.26 854.812 593 854.812 595.22V605H849.712V595.91C849.712 594.79 849.422 593.92 848.842 593.3C848.262 592.68 847.482 592.37 846.502 592.37C845.522 592.37 844.742 592.68 844.162 593.3C843.582 593.92 843.292 594.79 843.292 595.91V605H838.162V588.26H843.292V590.48C843.812 589.74 844.512 589.16 845.392 588.74C846.272 588.3 847.262 588.08 848.362 588.08ZM857.357 596.6C857.357 594.88 857.677 593.37 858.317 592.07C858.977 590.77 859.867 589.77 860.987 589.07C862.107 588.37 863.357 588.02 864.737 588.02C865.917 588.02 866.947 588.26 867.827 588.74C868.727 589.22 869.417 589.85 869.897 590.63V588.26H875.027V605H869.897V602.63C869.397 603.41 868.697 604.04 867.797 604.52C866.917 605 865.887 605.24 864.707 605.24C863.347 605.24 862.107 604.89 860.987 604.19C859.867 603.47 858.977 602.46 858.317 601.16C857.677 599.84 857.357 598.32 857.357 596.6ZM869.897 596.63C869.897 595.35 869.537 594.34 868.817 593.6C868.117 592.86 867.257 592.49 866.237 592.49C865.217 592.49 864.347 592.86 863.627 593.6C862.927 594.32 862.577 595.32 862.577 596.6C862.577 597.88 862.927 598.9 863.627 599.66C864.347 600.4 865.217 600.77 866.237 600.77C867.257 600.77 868.117 600.4 868.817 599.66C869.537 598.92 869.897 597.91 869.897 596.63ZM883.868 582.8V605H878.738V582.8H883.868Z" fill="#1A3567"/>
<path d="M987.845 337.05V341.31H994.715V345.27H987.845V349.89H995.615V354H982.715V332.94H995.615V337.05H987.845ZM1009.15 337.08C1011.11 337.08 1012.67 337.72 1013.83 339C1015.01 340.26 1015.6 342 1015.6 344.22V354H1010.5V344.91C1010.5 343.79 1010.21 342.92 1009.63 342.3C1009.05 341.68 1008.27 341.37 1007.29 341.37C1006.31 341.37 1005.53 341.68 1004.95 342.3C1004.37 342.92 1004.08 343.79 1004.08 344.91V354H998.946V337.26H1004.08V339.48C1004.6 338.74 1005.3 338.16 1006.18 337.74C1007.06 337.3 1008.05 337.08 1009.15 337.08ZM1030.65 339.63C1031.15 338.85 1031.84 338.22 1032.72 337.74C1033.6 337.26 1034.63 337.02 1035.81 337.02C1037.19 337.02 1038.44 337.37 1039.56 338.07C1040.68 338.77 1041.56 339.77 1042.2 341.07C1042.86 342.37 1043.19 343.88 1043.19 345.6C1043.19 347.32 1042.86 348.84 1042.2 350.16C1041.56 351.46 1040.68 352.47 1039.56 353.19C1038.44 353.89 1037.19 354.24 1035.81 354.24C1034.65 354.24 1033.62 354 1032.72 353.52C1031.84 353.04 1031.15 352.42 1030.65 351.66V361.98H1025.52V337.26H1030.65V339.63ZM1037.97 345.6C1037.97 344.32 1037.61 343.32 1036.89 342.6C1036.19 341.86 1035.32 341.49 1034.28 341.49C1033.26 341.49 1032.39 341.86 1031.67 342.6C1030.97 343.34 1030.62 344.35 1030.62 345.63C1030.62 346.91 1030.97 347.92 1031.67 348.66C1032.39 349.4 1033.26 349.77 1034.28 349.77C1035.3 349.77 1036.17 349.4 1036.89 348.66C1037.61 347.9 1037.97 346.88 1037.97 345.6ZM1044.86 345.6C1044.86 343.88 1045.18 342.37 1045.82 341.07C1046.48 339.77 1047.37 338.77 1048.49 338.07C1049.61 337.37 1050.86 337.02 1052.24 337.02C1053.42 337.02 1054.45 337.26 1055.33 337.74C1056.23 338.22 1056.92 338.85 1057.4 339.63V337.26H1062.53V354H1057.4V351.63C1056.9 352.41 1056.2 353.04 1055.3 353.52C1054.42 354 1053.39 354.24 1052.21 354.24C1050.85 354.24 1049.61 353.89 1048.49 353.19C1047.37 352.47 1046.48 351.46 1045.82 350.16C1045.18 348.84 1044.86 347.32 1044.86 345.6ZM1057.4 345.63C1057.4 344.35 1057.04 343.34 1056.32 342.6C1055.62 341.86 1054.76 341.49 1053.74 341.49C1052.72 341.49 1051.85 341.86 1051.13 342.6C1050.43 343.32 1050.08 344.32 1050.08 345.6C1050.08 346.88 1050.43 347.9 1051.13 348.66C1051.85 349.4 1052.72 349.77 1053.74 349.77C1054.76 349.77 1055.62 349.4 1056.32 348.66C1057.04 347.92 1057.4 346.91 1057.4 345.63ZM1073.05 354.24C1071.59 354.24 1070.29 353.99 1069.15 353.49C1068.01 352.99 1067.11 352.31 1066.45 351.45C1065.79 350.57 1065.42 349.59 1065.34 348.51H1070.41C1070.47 349.09 1070.74 349.56 1071.22 349.92C1071.7 350.28 1072.29 350.46 1072.99 350.46C1073.63 350.46 1074.12 350.34 1074.46 350.1C1074.82 349.84 1075 349.51 1075 349.11C1075 348.63 1074.75 348.28 1074.25 348.06C1073.75 347.82 1072.94 347.56 1071.82 347.28C1070.62 347 1069.62 346.71 1068.82 346.41C1068.02 346.09 1067.33 345.6 1066.75 344.94C1066.17 344.26 1065.88 343.35 1065.88 342.21C1065.88 341.25 1066.14 340.38 1066.66 339.6C1067.2 338.8 1067.98 338.17 1069 337.71C1070.04 337.25 1071.27 337.02 1072.69 337.02C1074.79 337.02 1076.44 337.54 1077.64 338.58C1078.86 339.62 1079.56 341 1079.74 342.72H1075C1074.92 342.14 1074.66 341.68 1074.22 341.34C1073.8 341 1073.24 340.83 1072.54 340.83C1071.94 340.83 1071.48 340.95 1071.16 341.19C1070.84 341.41 1070.68 341.72 1070.68 342.12C1070.68 342.6 1070.93 342.96 1071.43 343.2C1071.95 343.44 1072.75 343.68 1073.83 343.92C1075.07 344.24 1076.08 344.56 1076.86 344.88C1077.64 345.18 1078.32 345.68 1078.9 346.38C1079.5 347.06 1079.81 347.98 1079.83 349.14C1079.83 350.12 1079.55 351 1078.99 351.78C1078.45 352.54 1077.66 353.14 1076.62 353.58C1075.6 354.02 1074.41 354.24 1073.05 354.24ZM1090.59 354.24C1088.95 354.24 1087.47 353.89 1086.15 353.19C1084.85 352.49 1083.82 351.49 1083.06 350.19C1082.32 348.89 1081.95 347.37 1081.95 345.63C1081.95 343.91 1082.33 342.4 1083.09 341.1C1083.85 339.78 1084.89 338.77 1086.21 338.07C1087.53 337.37 1089.01 337.02 1090.65 337.02C1092.29 337.02 1093.77 337.37 1095.09 338.07C1096.41 338.77 1097.45 339.78 1098.21 341.1C1098.97 342.4 1099.35 343.91 1099.35 345.63C1099.35 347.35 1098.96 348.87 1098.18 350.19C1097.42 351.49 1096.37 352.49 1095.03 353.19C1093.71 353.89 1092.23 354.24 1090.59 354.24ZM1090.59 349.8C1091.57 349.8 1092.4 349.44 1093.08 348.72C1093.78 348 1094.13 346.97 1094.13 345.63C1094.13 344.29 1093.79 343.26 1093.11 342.54C1092.45 341.82 1091.63 341.46 1090.65 341.46C1089.65 341.46 1088.82 341.82 1088.16 342.54C1087.5 343.24 1087.17 344.27 1087.17 345.63C1087.17 346.97 1087.49 348 1088.13 348.72C1088.79 349.44 1089.61 349.8 1090.59 349.8ZM1108.88 354.24C1107.42 354.24 1106.12 353.99 1104.98 353.49C1103.84 352.99 1102.94 352.31 1102.28 351.45C1101.62 350.57 1101.25 349.59 1101.17 348.51H1106.24C1106.3 349.09 1106.57 349.56 1107.05 349.92C1107.53 350.28 1108.12 350.46 1108.82 350.46C1109.46 350.46 1109.95 350.34 1110.29 350.1C1110.65 349.84 1110.83 349.51 1110.83 349.11C1110.83 348.63 1110.58 348.28 1110.08 348.06C1109.58 347.82 1108.77 347.56 1107.65 347.28C1106.45 347 1105.45 346.71 1104.65 346.41C1103.85 346.09 1103.16 345.6 1102.58 344.94C1102 344.26 1101.71 343.35 1101.71 342.21C1101.71 341.25 1101.97 340.38 1102.49 339.6C1103.03 338.8 1103.81 338.17 1104.83 337.71C1105.87 337.25 1107.1 337.02 1108.52 337.02C1110.62 337.02 1112.27 337.54 1113.47 338.58C1114.69 339.62 1115.39 341 1115.57 342.72H1110.83C1110.75 342.14 1110.49 341.68 1110.05 341.34C1109.63 341 1109.07 340.83 1108.37 340.83C1107.77 340.83 1107.31 340.95 1106.99 341.19C1106.67 341.41 1106.51 341.72 1106.51 342.12C1106.51 342.6 1106.76 342.96 1107.26 343.2C1107.78 343.44 1108.58 343.68 1109.66 343.92C1110.9 344.24 1111.91 344.56 1112.69 344.88C1113.47 345.18 1114.15 345.68 1114.73 346.38C1115.33 347.06 1115.64 347.98 1115.66 349.14C1115.66 350.12 1115.38 351 1114.82 351.78C1114.28 352.54 1113.49 353.14 1112.45 353.58C1111.43 354.02 1110.24 354.24 1108.88 354.24ZM1124.14 345.6C1124.14 343.88 1124.46 342.37 1125.1 341.07C1125.76 339.77 1126.65 338.77 1127.77 338.07C1128.89 337.37 1130.14 337.02 1131.52 337.02C1132.62 337.02 1133.62 337.25 1134.52 337.71C1135.44 338.17 1136.16 338.79 1136.68 339.57V331.8H1141.81V354H1136.68V351.6C1136.2 352.4 1135.51 353.04 1134.61 353.52C1133.73 354 1132.7 354.24 1131.52 354.24C1130.14 354.24 1128.89 353.89 1127.77 353.19C1126.65 352.47 1125.76 351.46 1125.1 350.16C1124.46 348.84 1124.14 347.32 1124.14 345.6ZM1136.68 345.63C1136.68 344.35 1136.32 343.34 1135.6 342.6C1134.9 341.86 1134.04 341.49 1133.02 341.49C1132 341.49 1131.13 341.86 1130.41 342.6C1129.71 343.32 1129.36 344.32 1129.36 345.6C1129.36 346.88 1129.71 347.9 1130.41 348.66C1131.13 349.4 1132 349.77 1133.02 349.77C1134.04 349.77 1134.9 349.4 1135.6 348.66C1136.32 347.92 1136.68 346.91 1136.68 345.63ZM1161.3 345.36C1161.3 345.84 1161.27 346.34 1161.21 346.86H1149.6C1149.68 347.9 1150.01 348.7 1150.59 349.26C1151.19 349.8 1151.92 350.07 1152.78 350.07C1154.06 350.07 1154.95 349.53 1155.45 348.45H1160.91C1160.63 349.55 1160.12 350.54 1159.38 351.42C1158.66 352.3 1157.75 352.99 1156.65 353.49C1155.55 353.99 1154.32 354.24 1152.96 354.24C1151.32 354.24 1149.86 353.89 1148.58 353.19C1147.3 352.49 1146.3 351.49 1145.58 350.19C1144.86 348.89 1144.5 347.37 1144.5 345.63C1144.5 343.89 1144.85 342.37 1145.55 341.07C1146.27 339.77 1147.27 338.77 1148.55 338.07C1149.83 337.37 1151.3 337.02 1152.96 337.02C1154.58 337.02 1156.02 337.36 1157.28 338.04C1158.54 338.72 1159.52 339.69 1160.22 340.95C1160.94 342.21 1161.3 343.68 1161.3 345.36ZM1156.05 344.01C1156.05 343.13 1155.75 342.43 1155.15 341.91C1154.55 341.39 1153.8 341.13 1152.9 341.13C1152.04 341.13 1151.31 341.38 1150.71 341.88C1150.13 342.38 1149.77 343.09 1149.63 344.01H1156.05Z" fill="#1A3567"/>
<path d="M266.943 387.343V403H263.129V396.554H257.197V403H253.383V387.343H257.197V393.477H263.129V387.343H266.943ZM268.938 396.755C268.938 395.476 269.176 394.354 269.652 393.387C270.142 392.421 270.804 391.678 271.637 391.157C272.469 390.637 273.398 390.377 274.424 390.377C275.302 390.377 276.067 390.555 276.722 390.912C277.391 391.269 277.904 391.737 278.261 392.317V390.555H282.074V403H278.261V401.238C277.889 401.818 277.368 402.286 276.699 402.643C276.045 403 275.279 403.178 274.402 403.178C273.391 403.178 272.469 402.918 271.637 402.398C270.804 401.863 270.142 401.112 269.652 400.145C269.176 399.164 268.938 398.034 268.938 396.755ZM278.261 396.777C278.261 395.826 277.993 395.075 277.458 394.525C276.937 393.975 276.298 393.7 275.54 393.7C274.781 393.7 274.134 393.975 273.599 394.525C273.079 395.06 272.819 395.804 272.819 396.755C272.819 397.707 273.079 398.465 273.599 399.03C274.134 399.58 274.781 399.855 275.54 399.855C276.298 399.855 276.937 399.58 277.458 399.03C277.993 398.48 278.261 397.729 278.261 396.777ZM284.075 396.777C284.075 395.484 284.335 394.354 284.856 393.387C285.391 392.421 286.127 391.678 287.064 391.157C288.015 390.637 289.101 390.377 290.32 390.377C291.881 390.377 293.182 390.785 294.223 391.603C295.279 392.421 295.97 393.573 296.297 395.06H292.238C291.896 394.109 291.234 393.633 290.253 393.633C289.554 393.633 288.997 393.908 288.58 394.458C288.164 394.993 287.956 395.766 287.956 396.777C287.956 397.789 288.164 398.569 288.58 399.119C288.997 399.655 289.554 399.922 290.253 399.922C291.234 399.922 291.896 399.446 292.238 398.495H296.297C295.97 399.952 295.279 401.097 294.223 401.929C293.167 402.762 291.866 403.178 290.32 403.178C289.101 403.178 288.015 402.918 287.064 402.398C286.127 401.877 285.391 401.134 284.856 400.168C284.335 399.201 284.075 398.071 284.075 396.777ZM310.069 396.577C310.069 396.934 310.046 397.305 310.002 397.692H301.37C301.43 398.465 301.675 399.06 302.106 399.476C302.553 399.878 303.095 400.078 303.735 400.078C304.686 400.078 305.348 399.677 305.72 398.874H309.779C309.571 399.692 309.191 400.428 308.641 401.082C308.106 401.736 307.429 402.249 306.612 402.621C305.794 402.993 304.879 403.178 303.868 403.178C302.649 403.178 301.564 402.918 300.612 402.398C299.661 401.877 298.917 401.134 298.382 400.168C297.847 399.201 297.579 398.071 297.579 396.777C297.579 395.484 297.839 394.354 298.36 393.387C298.895 392.421 299.638 391.678 300.59 391.157C301.541 390.637 302.634 390.377 303.868 390.377C305.073 390.377 306.143 390.629 307.08 391.135C308.017 391.64 308.745 392.361 309.266 393.298C309.801 394.235 310.069 395.328 310.069 396.577ZM306.166 395.573C306.166 394.919 305.943 394.398 305.497 394.012C305.05 393.625 304.493 393.432 303.824 393.432C303.184 393.432 302.642 393.618 302.196 393.99C301.764 394.361 301.497 394.889 301.393 395.573H306.166ZM315.894 392.629C316.34 391.945 316.898 391.41 317.567 391.023C318.236 390.622 318.98 390.421 319.797 390.421V394.458H318.749C317.798 394.458 317.084 394.666 316.608 395.082C316.132 395.484 315.894 396.198 315.894 397.224V403H312.081V390.555H315.894V392.629Z" fill="white"/>
<path d="M252.736 340.149C252.736 338.603 253.071 337.228 253.74 336.023C254.409 334.804 255.338 333.86 256.528 333.191C257.732 332.507 259.092 332.165 260.609 332.165C262.468 332.165 264.058 332.656 265.382 333.637C266.705 334.618 267.59 335.956 268.036 337.651H263.843C263.531 336.997 263.085 336.499 262.505 336.157C261.94 335.815 261.293 335.644 260.564 335.644C259.39 335.644 258.438 336.053 257.71 336.871C256.981 337.689 256.617 338.781 256.617 340.149C256.617 341.517 256.981 342.61 257.71 343.428C258.438 344.246 259.39 344.655 260.564 344.655C261.293 344.655 261.94 344.484 262.505 344.142C263.085 343.8 263.531 343.302 263.843 342.647H268.036C267.59 344.342 266.705 345.68 265.382 346.662C264.058 347.628 262.468 348.112 260.609 348.112C259.092 348.112 257.732 347.777 256.528 347.108C255.338 346.424 254.409 345.48 253.74 344.275C253.071 343.071 252.736 341.696 252.736 340.149ZM276.036 348.178C274.817 348.178 273.717 347.918 272.736 347.398C271.769 346.877 271.003 346.134 270.438 345.168C269.888 344.201 269.613 343.071 269.613 341.777C269.613 340.499 269.896 339.376 270.461 338.41C271.026 337.428 271.799 336.678 272.78 336.157C273.761 335.637 274.862 335.377 276.081 335.377C277.3 335.377 278.4 335.637 279.382 336.157C280.363 336.678 281.136 337.428 281.701 338.41C282.266 339.376 282.549 340.499 282.549 341.777C282.549 343.056 282.259 344.186 281.679 345.168C281.114 346.134 280.333 346.877 279.337 347.398C278.356 347.918 277.256 348.178 276.036 348.178ZM276.036 344.878C276.765 344.878 277.382 344.61 277.887 344.075C278.408 343.539 278.668 342.774 278.668 341.777C278.668 340.781 278.415 340.016 277.91 339.48C277.419 338.945 276.81 338.677 276.081 338.677C275.338 338.677 274.72 338.945 274.23 339.48C273.739 340.001 273.494 340.766 273.494 341.777C273.494 342.774 273.732 343.539 274.208 344.075C274.698 344.61 275.308 344.878 276.036 344.878ZM292.155 335.421C293.612 335.421 294.772 335.897 295.634 336.849C296.512 337.785 296.95 339.079 296.95 340.729V348H293.159V341.242C293.159 340.41 292.943 339.763 292.512 339.302C292.081 338.841 291.501 338.61 290.772 338.61C290.044 338.61 289.464 338.841 289.033 339.302C288.602 339.763 288.386 340.41 288.386 341.242V348H284.572V335.555H288.386V337.205C288.773 336.655 289.293 336.224 289.947 335.912C290.601 335.585 291.337 335.421 292.155 335.421ZM306.537 344.766V348H304.596C303.214 348 302.136 347.665 301.362 346.996C300.589 346.312 300.203 345.205 300.203 343.673V338.722H298.686V335.555H300.203V332.522H304.016V335.555H306.514V338.722H304.016V343.718C304.016 344.09 304.106 344.357 304.284 344.521C304.463 344.684 304.76 344.766 305.176 344.766H306.537ZM307.903 341.755C307.903 340.476 308.141 339.354 308.616 338.387C309.107 337.421 309.769 336.678 310.601 336.157C311.434 335.637 312.363 335.377 313.389 335.377C314.267 335.377 315.032 335.555 315.687 335.912C316.356 336.269 316.869 336.737 317.225 337.317V335.555H321.039V348H317.225V346.238C316.854 346.818 316.333 347.286 315.664 347.643C315.01 348 314.244 348.178 313.367 348.178C312.356 348.178 311.434 347.918 310.601 347.398C309.769 346.863 309.107 346.112 308.616 345.145C308.141 344.164 307.903 343.034 307.903 341.755ZM317.225 341.777C317.225 340.826 316.958 340.075 316.423 339.525C315.902 338.975 315.263 338.7 314.504 338.7C313.746 338.7 313.099 338.975 312.564 339.525C312.044 340.06 311.784 340.804 311.784 341.755C311.784 342.707 312.044 343.465 312.564 344.03C313.099 344.58 313.746 344.855 314.504 344.855C315.263 344.855 315.902 344.58 316.423 344.03C316.958 343.48 317.225 342.729 317.225 341.777ZM327.612 337.629C328.058 336.945 328.616 336.41 329.285 336.023C329.954 335.622 330.697 335.421 331.515 335.421V339.458H330.467C329.515 339.458 328.802 339.666 328.326 340.082C327.85 340.484 327.612 341.198 327.612 342.224V348H323.798V335.555H327.612V337.629ZM337.306 341.777C337.306 340.484 337.566 339.354 338.087 338.387C338.622 337.421 339.358 336.678 340.295 336.157C341.246 335.637 342.332 335.377 343.551 335.377C345.112 335.377 346.413 335.785 347.454 336.603C348.51 337.421 349.201 338.573 349.528 340.06H345.469C345.127 339.109 344.465 338.633 343.484 338.633C342.785 338.633 342.228 338.908 341.811 339.458C341.395 339.993 341.187 340.766 341.187 341.777C341.187 342.789 341.395 343.569 341.811 344.119C342.228 344.655 342.785 344.922 343.484 344.922C344.465 344.922 345.127 344.446 345.469 343.495H349.528C349.201 344.952 348.51 346.097 347.454 346.929C346.398 347.762 345.097 348.178 343.551 348.178C342.332 348.178 341.246 347.918 340.295 347.398C339.358 346.877 338.622 346.134 338.087 345.168C337.566 344.201 337.306 343.071 337.306 341.777ZM357.233 348.178C356.014 348.178 354.914 347.918 353.932 347.398C352.966 346.877 352.2 346.134 351.635 345.168C351.085 344.201 350.81 343.071 350.81 341.777C350.81 340.499 351.092 339.376 351.657 338.41C352.222 337.428 352.996 336.678 353.977 336.157C354.958 335.637 356.059 335.377 357.278 335.377C358.497 335.377 359.597 335.637 360.579 336.157C361.56 336.678 362.333 337.428 362.898 338.41C363.463 339.376 363.746 340.499 363.746 341.777C363.746 343.056 363.456 344.186 362.876 345.168C362.311 346.134 361.53 346.877 360.534 347.398C359.553 347.918 358.452 348.178 357.233 348.178ZM357.233 344.878C357.962 344.878 358.579 344.61 359.084 344.075C359.605 343.539 359.865 342.774 359.865 341.777C359.865 340.781 359.612 340.016 359.107 339.48C358.616 338.945 358.006 338.677 357.278 338.677C356.534 338.677 355.917 338.945 355.427 339.48C354.936 340.001 354.691 340.766 354.691 341.777C354.691 342.774 354.929 343.539 355.404 344.075C355.895 344.61 356.505 344.878 357.233 344.878ZM373.352 335.421C374.809 335.421 375.969 335.897 376.831 336.849C377.708 337.785 378.147 339.079 378.147 340.729V348H374.356V341.242C374.356 340.41 374.14 339.763 373.709 339.302C373.278 338.841 372.698 338.61 371.969 338.61C371.241 338.61 370.661 338.841 370.23 339.302C369.798 339.763 369.583 340.41 369.583 341.242V348H365.769V335.555H369.583V337.205C369.969 336.655 370.49 336.224 371.144 335.912C371.798 335.585 372.534 335.421 373.352 335.421Z" fill="white"/>
<path d="M459.624 341.755C459.624 340.476 459.862 339.354 460.338 338.387C460.829 337.421 461.491 336.678 462.323 336.157C463.156 335.637 464.085 335.377 465.111 335.377C465.929 335.377 466.672 335.547 467.341 335.889C468.025 336.231 468.561 336.692 468.947 337.272V331.496H472.761V348H468.947V346.216C468.59 346.811 468.077 347.286 467.408 347.643C466.754 348 465.988 348.178 465.111 348.178C464.085 348.178 463.156 347.918 462.323 347.398C461.491 346.863 460.829 346.112 460.338 345.145C459.862 344.164 459.624 343.034 459.624 341.755ZM468.947 341.777C468.947 340.826 468.679 340.075 468.144 339.525C467.624 338.975 466.984 338.7 466.226 338.7C465.468 338.7 464.821 338.975 464.286 339.525C463.765 340.06 463.505 340.804 463.505 341.755C463.505 342.707 463.765 343.465 464.286 344.03C464.821 344.58 465.468 344.855 466.226 344.855C466.984 344.855 467.624 344.58 468.144 344.03C468.679 343.48 468.947 342.729 468.947 341.777ZM487.251 341.577C487.251 341.934 487.229 342.305 487.185 342.692H478.553C478.613 343.465 478.858 344.06 479.289 344.476C479.735 344.878 480.278 345.078 480.917 345.078C481.869 345.078 482.531 344.677 482.902 343.874H486.962C486.753 344.692 486.374 345.428 485.824 346.082C485.289 346.736 484.612 347.249 483.794 347.621C482.977 347.993 482.062 348.178 481.051 348.178C479.832 348.178 478.747 347.918 477.795 347.398C476.843 346.877 476.1 346.134 475.565 345.168C475.029 344.201 474.762 343.071 474.762 341.777C474.762 340.484 475.022 339.354 475.542 338.387C476.078 337.421 476.821 336.678 477.773 336.157C478.724 335.637 479.817 335.377 481.051 335.377C482.256 335.377 483.326 335.629 484.263 336.135C485.2 336.64 485.928 337.361 486.449 338.298C486.984 339.235 487.251 340.328 487.251 341.577ZM483.348 340.573C483.348 339.919 483.125 339.398 482.679 339.012C482.233 338.625 481.676 338.432 481.007 338.432C480.367 338.432 479.825 338.618 479.378 338.99C478.947 339.361 478.68 339.889 478.576 340.573H483.348ZM494.326 348.178C493.241 348.178 492.274 347.993 491.427 347.621C490.579 347.249 489.91 346.744 489.42 346.104C488.929 345.45 488.654 344.721 488.594 343.919H492.364C492.408 344.35 492.609 344.699 492.966 344.967C493.323 345.234 493.761 345.368 494.282 345.368C494.757 345.368 495.122 345.279 495.374 345.101C495.642 344.907 495.776 344.662 495.776 344.365C495.776 344.008 495.59 343.748 495.218 343.584C494.847 343.406 494.244 343.212 493.412 343.004C492.52 342.796 491.776 342.58 491.181 342.357C490.587 342.119 490.074 341.755 489.643 341.264C489.211 340.759 488.996 340.082 488.996 339.235C488.996 338.521 489.189 337.874 489.576 337.295C489.977 336.7 490.557 336.231 491.315 335.889C492.088 335.547 493.003 335.377 494.059 335.377C495.62 335.377 496.846 335.763 497.739 336.536C498.646 337.309 499.166 338.335 499.3 339.614H495.776C495.716 339.183 495.523 338.841 495.196 338.588C494.884 338.335 494.467 338.209 493.947 338.209C493.501 338.209 493.159 338.298 492.921 338.477C492.683 338.64 492.564 338.871 492.564 339.168C492.564 339.525 492.75 339.793 493.122 339.971C493.508 340.149 494.103 340.328 494.906 340.506C495.828 340.744 496.579 340.982 497.159 341.22C497.739 341.443 498.244 341.815 498.675 342.335C499.121 342.841 499.352 343.525 499.367 344.387C499.367 345.115 499.159 345.77 498.742 346.35C498.341 346.915 497.753 347.361 496.98 347.688C496.222 348.015 495.337 348.178 494.326 348.178ZM500.942 341.755C500.942 340.476 501.18 339.354 501.655 338.387C502.146 337.421 502.808 336.678 503.64 336.157C504.473 335.637 505.402 335.377 506.428 335.377C507.246 335.377 507.989 335.547 508.658 335.889C509.342 336.231 509.878 336.692 510.264 337.272V331.496H514.078V348H510.264V346.216C509.907 346.811 509.394 347.286 508.725 347.643C508.071 348 507.305 348.178 506.428 348.178C505.402 348.178 504.473 347.918 503.64 347.398C502.808 346.863 502.146 346.112 501.655 345.145C501.18 344.164 500.942 343.034 500.942 341.755ZM510.264 341.777C510.264 340.826 509.997 340.075 509.461 339.525C508.941 338.975 508.302 338.7 507.543 338.7C506.785 338.7 506.138 338.975 505.603 339.525C505.083 340.06 504.822 340.804 504.822 341.755C504.822 342.707 505.083 343.465 505.603 344.03C506.138 344.58 506.785 344.855 507.543 344.855C508.302 344.855 508.941 344.58 509.461 344.03C509.997 343.48 510.264 342.729 510.264 341.777ZM528.569 341.577C528.569 341.934 528.546 342.305 528.502 342.692H519.87C519.93 343.465 520.175 344.06 520.606 344.476C521.052 344.878 521.595 345.078 522.235 345.078C523.186 345.078 523.848 344.677 524.22 343.874H528.279C528.07 344.692 527.691 345.428 527.141 346.082C526.606 346.736 525.929 347.249 525.112 347.621C524.294 347.993 523.379 348.178 522.368 348.178C521.149 348.178 520.064 347.918 519.112 347.398C518.161 346.877 517.417 346.134 516.882 345.168C516.347 344.201 516.079 343.071 516.079 341.777C516.079 340.484 516.339 339.354 516.86 338.387C517.395 337.421 518.138 336.678 519.09 336.157C520.041 335.637 521.134 335.377 522.368 335.377C523.573 335.377 524.643 335.629 525.58 336.135C526.517 336.64 527.245 337.361 527.766 338.298C528.301 339.235 528.569 340.328 528.569 341.577ZM524.666 340.573C524.666 339.919 524.443 339.398 523.996 339.012C523.55 338.625 522.993 338.432 522.324 338.432C521.684 338.432 521.142 338.618 520.696 338.99C520.264 339.361 519.997 339.889 519.893 340.573H524.666Z" fill="white"/>
<path d="M608.033 335.421C609.46 335.421 610.605 335.897 611.467 336.849C612.33 337.785 612.761 339.079 612.761 340.729V348H608.969V341.242C608.969 340.41 608.754 339.763 608.323 339.302C607.891 338.841 607.312 338.61 606.583 338.61C605.854 338.61 605.275 338.841 604.843 339.302C604.412 339.763 604.197 340.41 604.197 341.242V348H600.383V331.496H604.197V337.228C604.583 336.678 605.111 336.239 605.78 335.912C606.449 335.585 607.2 335.421 608.033 335.421ZM614.653 341.755C614.653 340.476 614.891 339.354 615.367 338.387C615.857 337.421 616.519 336.678 617.352 336.157C618.184 335.637 619.113 335.377 620.139 335.377C621.017 335.377 621.782 335.555 622.437 335.912C623.106 336.269 623.619 336.737 623.976 337.317V335.555H627.789V348H623.976V346.238C623.604 346.818 623.083 347.286 622.414 347.643C621.76 348 620.994 348.178 620.117 348.178C619.106 348.178 618.184 347.918 617.352 347.398C616.519 346.863 615.857 346.112 615.367 345.145C614.891 344.164 614.653 343.034 614.653 341.755ZM623.976 341.777C623.976 340.826 623.708 340.075 623.173 339.525C622.652 338.975 622.013 338.7 621.255 338.7C620.496 338.7 619.849 338.975 619.314 339.525C618.794 340.06 618.534 340.804 618.534 341.755C618.534 342.707 618.794 343.465 619.314 344.03C619.849 344.58 620.496 344.855 621.255 344.855C622.013 344.855 622.652 344.58 623.173 344.03C623.708 343.48 623.976 342.729 623.976 341.777ZM635.611 348.178C634.526 348.178 633.559 347.993 632.712 347.621C631.864 347.249 631.195 346.744 630.705 346.104C630.214 345.45 629.939 344.721 629.879 343.919H633.649C633.693 344.35 633.894 344.699 634.251 344.967C634.608 345.234 635.046 345.368 635.567 345.368C636.042 345.368 636.407 345.279 636.659 345.101C636.927 344.907 637.061 344.662 637.061 344.365C637.061 344.008 636.875 343.748 636.503 343.584C636.132 343.406 635.529 343.212 634.697 343.004C633.805 342.796 633.061 342.58 632.467 342.357C631.872 342.119 631.359 341.755 630.928 341.264C630.496 340.759 630.281 340.082 630.281 339.235C630.281 338.521 630.474 337.874 630.861 337.295C631.262 336.7 631.842 336.231 632.6 335.889C633.373 335.547 634.288 335.377 635.344 335.377C636.905 335.377 638.131 335.763 639.024 336.536C639.931 337.309 640.451 338.335 640.585 339.614H637.061C637.001 339.183 636.808 338.841 636.481 338.588C636.169 338.335 635.752 338.209 635.232 338.209C634.786 338.209 634.444 338.298 634.206 338.477C633.968 338.64 633.849 338.871 633.849 339.168C633.849 339.525 634.035 339.793 634.407 339.971C634.793 340.149 635.388 340.328 636.191 340.506C637.113 340.744 637.864 340.982 638.444 341.22C639.024 341.443 639.529 341.815 639.96 342.335C640.406 342.841 640.637 343.525 640.652 344.387C640.652 345.115 640.444 345.77 640.027 346.35C639.626 346.915 639.038 347.361 638.265 347.688C637.507 348.015 636.622 348.178 635.611 348.178ZM649.921 344.766V348H647.981C646.598 348 645.52 347.665 644.747 346.996C643.974 346.312 643.587 345.205 643.587 343.673V338.722H642.071V335.555H643.587V332.522H647.401V335.555H649.899V338.722H647.401V343.718C647.401 344.09 647.49 344.357 647.669 344.521C647.847 344.684 648.144 344.766 648.561 344.766H649.921ZM651.287 341.755C651.287 340.476 651.525 339.354 652.001 338.387C652.492 337.421 653.153 336.678 653.986 336.157C654.819 335.637 655.748 335.377 656.774 335.377C657.651 335.377 658.417 335.555 659.071 335.912C659.74 336.269 660.253 336.737 660.61 337.317V335.555H664.424V348H660.61V346.238C660.238 346.818 659.718 347.286 659.049 347.643C658.394 348 657.629 348.178 656.751 348.178C655.74 348.178 654.819 347.918 653.986 347.398C653.153 346.863 652.492 346.112 652.001 345.145C651.525 344.164 651.287 343.034 651.287 341.755ZM660.61 341.777C660.61 340.826 660.342 340.075 659.807 339.525C659.287 338.975 658.647 338.7 657.889 338.7C657.131 338.7 656.484 338.975 655.949 339.525C655.428 340.06 655.168 340.804 655.168 341.755C655.168 342.707 655.428 343.465 655.949 344.03C656.484 344.58 657.131 344.855 657.889 344.855C658.647 344.855 659.287 344.58 659.807 344.03C660.342 343.48 660.61 342.729 660.61 341.777Z" fill="white"/>
<path d="M742.624 341.755C742.624 340.476 742.862 339.354 743.338 338.387C743.829 337.421 744.491 336.678 745.323 336.157C746.156 335.637 747.085 335.377 748.111 335.377C748.929 335.377 749.672 335.547 750.341 335.889C751.025 336.231 751.561 336.692 751.947 337.272V331.496H755.761V348H751.947V346.216C751.59 346.811 751.077 347.286 750.408 347.643C749.754 348 748.988 348.178 748.111 348.178C747.085 348.178 746.156 347.918 745.323 347.398C744.491 346.863 743.829 346.112 743.338 345.145C742.862 344.164 742.624 343.034 742.624 341.755ZM751.947 341.777C751.947 340.826 751.679 340.075 751.144 339.525C750.624 338.975 749.984 338.7 749.226 338.7C748.468 338.7 747.821 338.975 747.286 339.525C746.765 340.06 746.505 340.804 746.505 341.755C746.505 342.707 746.765 343.465 747.286 344.03C747.821 344.58 748.468 344.855 749.226 344.855C749.984 344.855 750.624 344.58 751.144 344.03C751.679 343.48 751.947 342.729 751.947 341.777ZM770.251 341.577C770.251 341.934 770.229 342.305 770.185 342.692H761.553C761.613 343.465 761.858 344.06 762.289 344.476C762.735 344.878 763.278 345.078 763.917 345.078C764.869 345.078 765.531 344.677 765.902 343.874H769.962C769.753 344.692 769.374 345.428 768.824 346.082C768.289 346.736 767.612 347.249 766.794 347.621C765.977 347.993 765.062 348.178 764.051 348.178C762.832 348.178 761.747 347.918 760.795 347.398C759.843 346.877 759.1 346.134 758.565 345.168C758.029 344.201 757.762 343.071 757.762 341.777C757.762 340.484 758.022 339.354 758.542 338.387C759.078 337.421 759.821 336.678 760.773 336.157C761.724 335.637 762.817 335.377 764.051 335.377C765.256 335.377 766.326 335.629 767.263 336.135C768.2 336.64 768.928 337.361 769.449 338.298C769.984 339.235 770.251 340.328 770.251 341.577ZM766.348 340.573C766.348 339.919 766.125 339.398 765.679 339.012C765.233 338.625 764.676 338.432 764.007 338.432C763.367 338.432 762.825 338.618 762.378 338.99C761.947 339.361 761.68 339.889 761.576 340.573H766.348ZM776.231 341.755C776.231 340.476 776.469 339.354 776.945 338.387C777.436 337.421 778.097 336.678 778.93 336.157C779.763 335.637 780.692 335.377 781.718 335.377C782.595 335.377 783.361 335.555 784.015 335.912C784.684 336.269 785.197 336.737 785.554 337.317V335.555H789.368V348H785.554V346.238C785.182 346.818 784.662 347.286 783.993 347.643C783.339 348 782.573 348.178 781.696 348.178C780.685 348.178 779.763 347.918 778.93 347.398C778.097 346.863 777.436 346.112 776.945 345.145C776.469 344.164 776.231 343.034 776.231 341.755ZM785.554 341.777C785.554 340.826 785.286 340.075 784.751 339.525C784.231 338.975 783.591 338.7 782.833 338.7C782.075 338.7 781.428 338.975 780.893 339.525C780.372 340.06 780.112 340.804 780.112 341.755C780.112 342.707 780.372 343.465 780.893 344.03C781.428 344.58 782.075 344.855 782.833 344.855C783.591 344.855 784.231 344.58 784.751 344.03C785.286 343.48 785.554 342.729 785.554 341.777Z" fill="white"/>
<rect x="545.5" y="320.5" width="41" height="36" rx="13.5" fill="white" stroke="#1A3567"/>
<mask id="path-15-inside-1_410_4637" fill="white">
<path d="M562.605 333.061V330.741H567.244V347H564.679V333.061H562.605Z"/>
</mask>
<path d="M562.605 333.061V330.741H567.244V347H564.679V333.061H562.605Z" fill="#1A3567"/>
<path d="M562.605 333.061H558.825V336.84H562.605V333.061ZM562.605 330.741V326.962H558.825V330.741H562.605ZM567.244 330.741H571.024V326.962H567.244V330.741ZM567.244 347V350.78H571.024V347H567.244ZM564.679 347H560.9V350.78H564.679V347ZM564.679 333.061H568.459V329.281H564.679V333.061ZM562.605 333.061H566.384V330.741H562.605H558.825V333.061H562.605ZM562.605 330.741V334.521H567.244V330.741V326.962H562.605V330.741ZM567.244 330.741H563.464V347H567.244H571.024V330.741H567.244ZM567.244 347V343.22H564.679V347V350.78H567.244V347ZM564.679 347H568.459V333.061H564.679H560.9V347H564.679ZM564.679 333.061V329.281H562.605V333.061V336.84H564.679V333.061Z" fill="#1A3567" mask="url(#path-15-inside-1_410_4637)"/>
<rect x="811.5" y="320.5" width="41" height="36" rx="13.5" fill="white" stroke="#1A3567"/>
<mask id="path-18-inside-2_410_4637" fill="white">
<path d="M829.605 333.061V330.741H834.244V347H831.679V333.061H829.605Z"/>
</mask>
<path d="M829.605 333.061V330.741H834.244V347H831.679V333.061H829.605Z" fill="#1A3567"/>
<path d="M829.605 333.061H825.825V336.84H829.605V333.061ZM829.605 330.741V326.962H825.825V330.741H829.605ZM834.244 330.741H838.024V326.962H834.244V330.741ZM834.244 347V350.78H838.024V347H834.244ZM831.679 347H827.9V350.78H831.679V347ZM831.679 333.061H835.459V329.281H831.679V333.061ZM829.605 333.061H833.384V330.741H829.605H825.825V333.061H829.605ZM829.605 330.741V334.521H834.244V330.741V326.962H829.605V330.741ZM834.244 330.741H830.464V347H834.244H838.024V330.741H834.244ZM834.244 347V343.22H831.679V347V350.78H834.244V347ZM831.679 347H835.459V333.061H831.679H827.9V347H831.679ZM831.679 333.061V329.281H829.605V333.061V336.84H831.679V333.061Z" fill="#1A3567" mask="url(#path-18-inside-2_410_4637)"/>
<rect x="681.5" y="320.5" width="41" height="36" rx="13.5" fill="white" stroke="#1A3567"/>
<mask id="path-21-inside-3_410_4637" fill="white">
<path d="M691.461 333.061V330.741H696.1V347H693.535V333.061H691.461ZM699.593 338.659C699.593 336.086 700.024 334.079 700.886 332.637C701.764 331.18 703.265 330.451 705.392 330.451C707.518 330.451 709.012 331.18 709.875 332.637C710.752 334.079 711.19 336.086 711.19 338.659C711.19 341.261 710.752 343.298 709.875 344.77C709.012 346.227 707.518 346.955 705.392 346.955C703.265 346.955 701.764 346.227 700.886 344.77C700.024 343.298 699.593 341.261 699.593 338.659ZM708.693 338.659C708.693 337.454 708.611 336.436 708.447 335.603C708.299 334.771 707.986 334.094 707.51 333.574C707.035 333.038 706.328 332.771 705.392 332.771C704.455 332.771 703.749 333.038 703.273 333.574C702.797 334.094 702.477 334.771 702.314 335.603C702.165 336.436 702.091 337.454 702.091 338.659C702.091 339.908 702.165 340.956 702.314 341.803C702.463 342.651 702.775 343.335 703.251 343.855C703.741 344.376 704.455 344.636 705.392 344.636C706.328 344.636 707.035 344.376 707.51 343.855C708.001 343.335 708.321 342.651 708.47 341.803C708.618 340.956 708.693 339.908 708.693 338.659Z"/>
</mask>
<path d="M691.461 333.061V330.741H696.1V347H693.535V333.061H691.461ZM699.593 338.659C699.593 336.086 700.024 334.079 700.886 332.637C701.764 331.18 703.265 330.451 705.392 330.451C707.518 330.451 709.012 331.18 709.875 332.637C710.752 334.079 711.19 336.086 711.19 338.659C711.19 341.261 710.752 343.298 709.875 344.77C709.012 346.227 707.518 346.955 705.392 346.955C703.265 346.955 701.764 346.227 700.886 344.77C700.024 343.298 699.593 341.261 699.593 338.659ZM708.693 338.659C708.693 337.454 708.611 336.436 708.447 335.603C708.299 334.771 707.986 334.094 707.51 333.574C707.035 333.038 706.328 332.771 705.392 332.771C704.455 332.771 703.749 333.038 703.273 333.574C702.797 334.094 702.477 334.771 702.314 335.603C702.165 336.436 702.091 337.454 702.091 338.659C702.091 339.908 702.165 340.956 702.314 341.803C702.463 342.651 702.775 343.335 703.251 343.855C703.741 344.376 704.455 344.636 705.392 344.636C706.328 344.636 707.035 344.376 707.51 343.855C708.001 343.335 708.321 342.651 708.47 341.803C708.618 340.956 708.693 339.908 708.693 338.659Z" fill="#1A3567"/>
<path d="M691.461 333.061H687.682V336.84H691.461V333.061ZM691.461 330.741V326.962H687.682V330.741H691.461ZM696.1 330.741H699.88V326.962H696.1V330.741ZM696.1 347V350.78H699.88V347H696.1ZM693.535 347H689.756V350.78H693.535V347ZM693.535 333.061H697.315V329.281H693.535V333.061ZM691.461 333.061H695.241V330.741H691.461H687.682V333.061H691.461ZM691.461 330.741V334.521H696.1V330.741V326.962H691.461V330.741ZM696.1 330.741H692.321V347H696.1H699.88V330.741H696.1ZM696.1 347V343.22H693.535V347V350.78H696.1V347ZM693.535 347H697.315V333.061H693.535H689.756V347H693.535ZM693.535 333.061V329.281H691.461V333.061V336.84H693.535V333.061ZM700.886 332.637L697.648 330.687L697.643 330.697L700.886 332.637ZM709.875 332.637L706.622 334.562L706.634 334.581L706.645 334.601L709.875 332.637ZM709.875 344.77L706.628 342.835L706.622 342.845L709.875 344.77ZM700.886 344.77L697.625 346.68L697.637 346.7L697.649 346.719L700.886 344.77ZM708.447 335.603L704.727 336.268L704.732 336.3L704.739 336.332L708.447 335.603ZM707.51 333.574L704.686 336.085L704.703 336.104L704.721 336.124L707.51 333.574ZM703.273 333.574L706.062 336.124L706.08 336.104L706.098 336.085L703.273 333.574ZM702.314 335.603L698.605 334.875L698.599 334.907L698.593 334.939L702.314 335.603ZM702.314 341.803L706.037 341.15V341.15L702.314 341.803ZM703.251 343.855L700.461 346.406L700.481 346.427L700.501 346.448L703.251 343.855ZM707.51 343.855L704.761 341.262L704.741 341.284L704.721 341.305L707.51 343.855ZM708.47 341.803L712.192 342.457L712.192 342.457L708.47 341.803ZM699.593 338.659H703.372C703.372 336.436 703.757 335.2 704.13 334.577L700.886 332.637L697.643 330.697C696.291 332.958 695.813 335.737 695.813 338.659H699.593ZM700.886 332.637L704.124 334.586C704.193 334.472 704.242 334.436 704.32 334.398C704.436 334.342 704.748 334.231 705.392 334.231V330.451V326.672C702.323 326.672 699.386 327.801 697.649 330.687L700.886 332.637ZM705.392 330.451V334.231C706.036 334.231 706.343 334.342 706.451 334.395C706.52 334.429 706.56 334.457 706.622 334.562L709.875 332.637L713.127 330.712C711.405 327.801 708.458 326.672 705.392 326.672V330.451ZM709.875 332.637L706.645 334.601C707.021 335.219 707.411 336.444 707.411 338.659H711.19H714.97C714.97 335.729 714.482 332.94 713.104 330.673L709.875 332.637ZM711.19 338.659H707.411C707.411 340.906 707.021 342.176 706.628 342.835L709.875 344.77L713.121 346.705C714.483 344.419 714.97 341.616 714.97 338.659H711.19ZM709.875 344.77L706.622 342.845C706.56 342.949 706.52 342.978 706.451 343.012C706.343 343.064 706.036 343.176 705.392 343.176V346.955V350.735C708.458 350.735 711.405 349.605 713.127 346.695L709.875 344.77ZM705.392 346.955V343.176C704.748 343.176 704.436 343.065 704.32 343.009C704.242 342.97 704.193 342.934 704.124 342.82L700.886 344.77L697.649 346.719C699.386 349.606 702.323 350.735 705.392 350.735V346.955ZM700.886 344.77L704.148 342.859C703.758 342.194 703.372 340.914 703.372 338.659H699.593H695.813C695.813 341.607 696.29 344.401 697.625 346.68L700.886 344.77ZM708.693 338.659H712.472C712.472 337.303 712.382 336.024 712.156 334.875L708.447 335.603L704.739 336.332C704.84 336.848 704.913 337.606 704.913 338.659H708.693ZM708.447 335.603L712.168 334.939C711.919 333.544 711.347 332.169 710.3 331.023L707.51 333.574L704.721 336.124C704.703 336.104 704.689 336.086 704.68 336.072C704.671 336.057 704.668 336.051 704.67 336.055C704.674 336.064 704.701 336.127 704.727 336.268L708.447 335.603ZM707.51 333.574L710.335 331.063C708.937 329.49 707.056 328.991 705.392 328.991V332.771V336.55C705.508 336.55 705.448 336.568 705.285 336.506C705.099 336.435 704.875 336.298 704.686 336.085L707.51 333.574ZM705.392 332.771V328.991C703.728 328.991 701.846 329.49 700.448 331.063L703.273 333.574L706.098 336.085C705.908 336.298 705.684 336.435 705.499 336.506C705.335 336.568 705.275 336.55 705.392 336.55V332.771ZM703.273 333.574L700.484 331.023C699.453 332.151 698.875 333.501 698.605 334.875L702.314 335.603L706.023 336.332C706.052 336.182 706.083 336.107 706.094 336.086C706.102 336.068 706.094 336.089 706.062 336.124L703.273 333.574ZM702.314 335.603L698.593 334.939C698.393 336.061 698.311 337.317 698.311 338.659H702.091H705.87C705.87 337.592 705.938 336.811 706.035 336.268L702.314 335.603ZM702.091 338.659H698.311C698.311 340.038 698.392 341.321 698.591 342.457L702.314 341.803L706.037 341.15C705.938 340.591 705.87 339.777 705.87 338.659H702.091ZM702.314 341.803L698.591 342.457C698.837 343.856 699.403 345.248 700.461 346.406L703.251 343.855L706.04 341.305C706.085 341.355 706.101 341.389 706.098 341.382C706.093 341.371 706.063 341.302 706.037 341.15L702.314 341.803ZM703.251 343.855L700.501 346.448C701.908 347.941 703.752 348.415 705.392 348.415V344.636V340.856C705.266 340.856 705.306 340.838 705.448 340.89C705.61 340.949 705.817 341.068 706.001 341.262L703.251 343.855ZM705.392 344.636V348.415C707.024 348.415 708.894 347.944 710.3 346.406L707.51 343.855L704.721 341.305C704.918 341.09 705.143 340.958 705.317 340.894C705.471 340.838 705.519 340.856 705.392 340.856V344.636ZM707.51 343.855L710.26 346.448C711.353 345.289 711.942 343.882 712.192 342.457L708.47 341.803L704.747 341.15C704.722 341.291 704.695 341.349 704.694 341.352C704.694 341.353 704.699 341.342 704.711 341.324C704.723 341.306 704.74 341.285 704.761 341.262L707.51 343.855ZM708.47 341.803L712.192 342.457C712.391 341.321 712.472 340.038 712.472 338.659H708.693H704.913C704.913 339.777 704.845 340.591 704.747 341.15L708.47 341.803Z" fill="#1A3567" mask="url(#path-21-inside-3_410_4637)"/>
<rect x="393.5" y="324.5" width="46" height="29" rx="6.5" fill="#0FBD8C" stroke="#1A856A"/>
<path d="M408.301 334.261C407.632 334.261 407.082 334.068 406.65 333.681C406.234 333.28 406.026 332.789 406.026 332.209C406.026 331.615 406.234 331.124 406.65 330.737C407.082 330.336 407.632 330.135 408.301 330.135C408.955 330.135 409.49 330.336 409.907 330.737C410.338 331.124 410.553 331.615 410.553 332.209C410.553 332.789 410.338 333.28 409.907 333.681C409.49 334.068 408.955 334.261 408.301 334.261ZM410.197 335.555V348H406.383V335.555H410.197Z" fill="white"/>
<path d="M419 336L424.5 345L431 336H419Z" fill="white"/>
<path d="M343.103 170.035L406.43 302.281L411.329 300.162L347.993 167.912L343.103 170.035ZM400.506 302.014L414.029 313.143L415.19 295.66L400.506 302.014Z" fill="#1A3567"/>
<path d="M756 216L615.795 311.839L612.606 307.559L752.82 211.721L756 216ZM621.064 314.562L603.792 317.465L611.504 301.731L621.064 314.562Z" fill="#1A3567"/>
<path d="M772.027 556.92L710.731 384.96L715.708 383.031L777 555L772.027 556.92ZM706.7 389.309L708.518 371.89L721.618 383.526L706.7 389.309Z" fill="#1A3567"/>
<path d="M971.506 342.669L871.993 342.676L871.979 337.338H971.5L971.506 342.669ZM874.604 348L859 340.047L874.565 332L874.604 348Z" fill="#1A3567"/>
</svg>
