<svg width="1280" height="720" viewBox="0 0 1280 720" fill="none" xmlns="http://www.w3.org/2000/svg">
<rect width="1280" height="720" fill="#ECFAFF"/>
<rect x="265" y="157" width="65.5577" height="65.5577" fill="#FDC147"/>
<rect x="265" y="242.555" width="65.5577" height="65.5577" fill="#FDC147"/>
<rect x="265" y="328.109" width="65.5577" height="65.5577" fill="#FDC147"/>
<rect x="265" y="413.664" width="65.5577" height="65.5577" fill="#FDC147"/>
<rect x="265" y="499.219" width="65.5577" height="65.5577" fill="#FDC147"/>
<rect x="265" y="584.773" width="65.5577" height="65.5577" fill="#FDC147"/>
<rect x="350.558" y="157" width="65.5577" height="65.5577" fill="#FDC147"/>
<rect x="350.558" y="242.555" width="65.5577" height="65.5577" fill="#FDC147"/>
<rect x="350.558" y="328.109" width="65.5577" height="65.5577" fill="#FDC147"/>
<rect x="350.558" y="413.664" width="65.5577" height="65.5577" fill="#FDC147"/>
<rect x="350.558" y="499.219" width="65.5577" height="65.5577" fill="#FDC147"/>
<rect x="350.558" y="584.773" width="65.5577" height="65.5577" fill="#FDC147"/>
<rect x="436.115" y="157" width="65.5577" height="65.5577" fill="#707070"/>
<rect x="436.115" y="242.555" width="65.5577" height="65.5577" fill="#707070"/>
<rect x="436.115" y="328.109" width="65.5577" height="65.5577" fill="#707070"/>
<rect x="436.115" y="413.664" width="65.5577" height="65.5577" fill="#707070"/>
<rect x="436.115" y="499.219" width="65.5577" height="65.5577" fill="#707070"/>
<rect x="436.115" y="584.773" width="65.5577" height="65.5577" fill="#707070"/>
<rect x="521.673" y="157" width="65.5577" height="65.5577" fill="#707070"/>
<rect x="521.673" y="242.555" width="65.5577" height="65.5577" fill="#707070"/>
<rect x="521.673" y="328.109" width="65.5577" height="65.5577" fill="#707070"/>
<rect x="521.673" y="413.664" width="65.5577" height="65.5577" fill="#707070"/>
<rect x="521.673" y="499.219" width="65.5577" height="65.5577" fill="#707070"/>
<rect x="521.673" y="584.773" width="65.5577" height="65.5577" fill="#707070"/>
<rect x="607.23" y="157" width="65.5577" height="65.5577" fill="#707070"/>
<rect x="607.23" y="242.555" width="65.5577" height="65.5577" fill="#707070"/>
<rect x="607.23" y="328.109" width="65.5577" height="65.5577" fill="#707070"/>
<rect x="607.23" y="413.664" width="65.5577" height="65.5577" fill="#707070"/>
<rect x="607.23" y="499.219" width="65.5577" height="65.5577" fill="#707070"/>
<rect x="607.23" y="584.773" width="65.5577" height="65.5577" fill="#707070"/>
<rect x="692.788" y="157" width="65.5577" height="65.5577" fill="#707070"/>
<rect x="692.788" y="242.555" width="65.5577" height="65.5577" fill="#707070"/>
<rect x="692.788" y="328.109" width="65.5577" height="65.5577" fill="#707070"/>
<rect x="692.788" y="413.664" width="65.5577" height="65.5577" fill="#707070"/>
<rect x="692.788" y="499.219" width="65.5577" height="65.5577" fill="#707070"/>
<rect x="692.788" y="584.773" width="65.5577" height="65.5577" fill="#707070"/>
<rect x="778.346" y="157" width="65.5577" height="65.5577" fill="#707070"/>
<rect x="778.346" y="242.555" width="65.5577" height="65.5577" fill="#707070"/>
<rect x="778.346" y="328.109" width="65.5577" height="65.5577" fill="#707070"/>
<rect x="778.346" y="413.664" width="65.5577" height="65.5577" fill="#707070"/>
<rect x="778.346" y="499.219" width="65.5577" height="65.5577" fill="#707070"/>
<rect x="778.346" y="584.773" width="65.5577" height="65.5577" fill="#707070"/>
<rect x="863.903" y="157" width="65.5577" height="65.5577" fill="#707070"/>
<rect x="863.903" y="242.555" width="65.5577" height="65.5577" fill="#707070"/>
<rect x="863.903" y="328.109" width="65.5577" height="65.5577" fill="#707070"/>
<rect x="863.903" y="413.664" width="65.5577" height="65.5577" fill="#707070"/>
<rect x="863.903" y="499.219" width="65.5577" height="65.5577" fill="#707070"/>
<rect x="863.903" y="584.773" width="65.5577" height="65.5577" fill="#707070"/>
<rect x="949.461" y="157" width="65.5577" height="65.5577" fill="#707070"/>
<rect x="949.461" y="242.555" width="65.5577" height="65.5577" fill="#707070"/>
<rect x="949.461" y="328.109" width="65.5577" height="65.5577" fill="#707070"/>
<rect x="949.461" y="413.664" width="65.5577" height="65.5577" fill="#707070"/>
<rect x="949.461" y="499.219" width="65.5577" height="65.5577" fill="#707070"/>
<rect x="949.461" y="584.773" width="65.5577" height="65.5577" fill="#707070"/>
<path d="M486.394 83.6C488.021 83.9467 489.327 84.76 490.314 86.04C491.301 87.2933 491.794 88.7333 491.794 90.36C491.794 92.7067 490.967 94.5733 489.314 95.96C487.687 97.32 485.407 98 482.474 98H469.394V69.92H482.034C484.887 69.92 487.114 70.5733 488.714 71.88C490.341 73.1867 491.154 74.96 491.154 77.2C491.154 78.8533 490.714 80.2267 489.834 81.32C488.981 82.4133 487.834 83.1733 486.394 83.6ZM476.234 81.28H480.714C481.834 81.28 482.687 81.04 483.274 80.56C483.887 80.0533 484.194 79.32 484.194 78.36C484.194 77.4 483.887 76.6667 483.274 76.16C482.687 75.6533 481.834 75.4 480.714 75.4H476.234V81.28ZM481.274 92.48C482.421 92.48 483.301 92.2267 483.914 91.72C484.554 91.1867 484.874 90.4267 484.874 89.44C484.874 88.4533 484.541 87.68 483.874 87.12C483.234 86.56 482.341 86.28 481.194 86.28H476.234V92.48H481.274ZM517.801 75.68V98H510.961V94.96C510.268 95.9467 509.321 96.7467 508.121 97.36C506.948 97.9467 505.641 98.24 504.201 98.24C502.495 98.24 500.988 97.8667 499.681 97.12C498.375 96.3467 497.361 95.24 496.641 93.8C495.921 92.36 495.561 90.6667 495.561 88.72V75.68H502.361V87.8C502.361 89.2933 502.748 90.4533 503.521 91.28C504.295 92.1067 505.335 92.52 506.641 92.52C507.975 92.52 509.028 92.1067 509.801 91.28C510.575 90.4533 510.961 89.2933 510.961 87.8V75.68H517.801ZM521.354 86.84C521.354 84.52 521.821 82.4933 522.754 80.76C523.714 79.0267 525.034 77.6933 526.714 76.76C528.421 75.8267 530.368 75.36 532.554 75.36C535.354 75.36 537.688 76.0933 539.554 77.56C541.448 79.0267 542.688 81.0933 543.274 83.76H535.994C535.381 82.0533 534.194 81.2 532.434 81.2C531.181 81.2 530.181 81.6933 529.434 82.68C528.688 83.64 528.314 85.0267 528.314 86.84C528.314 88.6533 528.688 90.0533 529.434 91.04C530.181 92 531.181 92.48 532.434 92.48C534.194 92.48 535.381 91.6267 535.994 89.92H543.274C542.688 92.5333 541.448 94.5867 539.554 96.08C537.661 97.5733 535.328 98.32 532.554 98.32C530.368 98.32 528.421 97.8533 526.714 96.92C525.034 95.9867 523.714 94.6533 522.754 92.92C521.821 91.1867 521.354 89.16 521.354 86.84ZM553.773 68.4V98H546.933V68.4H553.773ZM579.77 86.48C579.77 87.12 579.73 87.7867 579.65 88.48H564.17C564.277 89.8667 564.717 90.9333 565.49 91.68C566.29 92.4 567.263 92.76 568.41 92.76C570.117 92.76 571.303 92.04 571.97 90.6H579.25C578.877 92.0667 578.197 93.3867 577.21 94.56C576.25 95.7333 575.037 96.6533 573.57 97.32C572.103 97.9867 570.463 98.32 568.65 98.32C566.463 98.32 564.517 97.8533 562.81 96.92C561.103 95.9867 559.77 94.6533 558.81 92.92C557.85 91.1867 557.37 89.16 557.37 86.84C557.37 84.52 557.837 82.4933 558.77 80.76C559.73 79.0267 561.063 77.6933 562.77 76.76C564.477 75.8267 566.437 75.36 568.65 75.36C570.81 75.36 572.73 75.8133 574.41 76.72C576.09 77.6267 577.397 78.92 578.33 80.6C579.29 82.28 579.77 84.24 579.77 86.48ZM572.77 84.68C572.77 83.5067 572.37 82.5733 571.57 81.88C570.77 81.1867 569.77 80.84 568.57 80.84C567.423 80.84 566.45 81.1733 565.65 81.84C564.877 82.5067 564.397 83.4533 564.21 84.68H572.77ZM590.495 86.8C590.495 84.5067 590.922 82.4933 591.775 80.76C592.655 79.0267 593.842 77.6933 595.335 76.76C596.828 75.8267 598.495 75.36 600.335 75.36C601.802 75.36 603.135 75.6667 604.335 76.28C605.562 76.8933 606.522 77.72 607.215 78.76V68.4H614.055V98H607.215V94.8C606.575 95.8667 605.655 96.72 604.455 97.36C603.282 98 601.908 98.32 600.335 98.32C598.495 98.32 596.828 97.8533 595.335 96.92C593.842 95.96 592.655 94.6133 591.775 92.88C590.922 91.12 590.495 89.0933 590.495 86.8ZM607.215 86.84C607.215 85.1333 606.735 83.7867 605.775 82.8C604.842 81.8133 603.695 81.32 602.335 81.32C600.975 81.32 599.815 81.8133 598.855 82.8C597.922 83.76 597.455 85.0933 597.455 86.8C597.455 88.5067 597.922 89.8667 598.855 90.88C599.815 91.8667 600.975 92.36 602.335 92.36C603.695 92.36 604.842 91.8667 605.775 90.88C606.735 89.8933 607.215 88.5467 607.215 86.84ZM640.043 86.48C640.043 87.12 640.003 87.7867 639.923 88.48H624.443C624.55 89.8667 624.99 90.9333 625.763 91.68C626.563 92.4 627.537 92.76 628.683 92.76C630.39 92.76 631.577 92.04 632.243 90.6H639.523C639.15 92.0667 638.47 93.3867 637.483 94.56C636.523 95.7333 635.31 96.6533 633.843 97.32C632.377 97.9867 630.737 98.32 628.923 98.32C626.737 98.32 624.79 97.8533 623.083 96.92C621.377 95.9867 620.043 94.6533 619.083 92.92C618.123 91.1867 617.643 89.16 617.643 86.84C617.643 84.52 618.11 82.4933 619.043 80.76C620.003 79.0267 621.337 77.6933 623.043 76.76C624.75 75.8267 626.71 75.36 628.923 75.36C631.083 75.36 633.003 75.8133 634.683 76.72C636.363 77.6267 637.67 78.92 638.603 80.6C639.563 82.28 640.043 84.24 640.043 86.48ZM633.043 84.68C633.043 83.5067 632.643 82.5733 631.843 81.88C631.043 81.1867 630.043 80.84 628.843 80.84C627.697 80.84 626.723 81.1733 625.923 81.84C625.15 82.5067 624.67 83.4533 624.483 84.68H633.043ZM650.968 83.92C650.968 81.1467 651.568 78.68 652.768 76.52C653.968 74.3333 655.635 72.64 657.768 71.44C659.928 70.2133 662.368 69.6 665.088 69.6C668.422 69.6 671.275 70.48 673.648 72.24C676.022 74 677.608 76.4 678.408 79.44H670.888C670.328 78.2667 669.528 77.3733 668.488 76.76C667.475 76.1467 666.315 75.84 665.008 75.84C662.902 75.84 661.195 76.5733 659.888 78.04C658.582 79.5067 657.928 81.4667 657.928 83.92C657.928 86.3733 658.582 88.3333 659.888 89.8C661.195 91.2667 662.902 92 665.008 92C666.315 92 667.475 91.6933 668.488 91.08C669.528 90.4667 670.328 89.5733 670.888 88.4H678.408C677.608 91.44 676.022 93.84 673.648 95.6C671.275 97.3333 668.422 98.2 665.088 98.2C662.368 98.2 659.928 97.6 657.768 96.4C655.635 95.1733 653.968 93.48 652.768 91.32C651.568 89.16 650.968 86.6933 650.968 83.92ZM692.757 98.32C690.571 98.32 688.597 97.8533 686.837 96.92C685.104 95.9867 683.731 94.6533 682.717 92.92C681.731 91.1867 681.237 89.16 681.237 86.84C681.237 84.5467 681.744 82.5333 682.757 80.8C683.771 79.04 685.157 77.6933 686.917 76.76C688.677 75.8267 690.651 75.36 692.837 75.36C695.024 75.36 696.997 75.8267 698.757 76.76C700.517 77.6933 701.904 79.04 702.917 80.8C703.931 82.5333 704.437 84.5467 704.437 86.84C704.437 89.1333 703.917 91.16 702.877 92.92C701.864 94.6533 700.464 95.9867 698.677 96.92C696.917 97.8533 694.944 98.32 692.757 98.32ZM692.757 92.4C694.064 92.4 695.171 91.92 696.077 90.96C697.011 90 697.477 88.6267 697.477 86.84C697.477 85.0533 697.024 83.68 696.117 82.72C695.237 81.76 694.144 81.28 692.837 81.28C691.504 81.28 690.397 81.76 689.517 82.72C688.637 83.6533 688.197 85.0267 688.197 86.84C688.197 88.6267 688.624 90 689.477 90.96C690.357 91.92 691.451 92.4 692.757 92.4ZM714.906 68.4V98H708.066V68.4H714.906ZM741.903 75.68V98H735.063V94.96C734.369 95.9467 733.423 96.7467 732.223 97.36C731.049 97.9467 729.743 98.24 728.303 98.24C726.596 98.24 725.089 97.8667 723.783 97.12C722.476 96.3467 721.463 95.24 720.743 93.8C720.023 92.36 719.663 90.6667 719.663 88.72V75.68H726.463V87.8C726.463 89.2933 726.849 90.4533 727.623 91.28C728.396 92.1067 729.436 92.52 730.743 92.52C732.076 92.52 733.129 92.1067 733.903 91.28C734.676 90.4533 735.063 89.2933 735.063 87.8V75.68H741.903ZM775.296 75.44C778.069 75.44 780.269 76.28 781.896 77.96C783.549 79.64 784.376 81.9733 784.376 84.96V98H777.576V85.88C777.576 84.44 777.189 83.3333 776.416 82.56C775.669 81.76 774.629 81.36 773.296 81.36C771.963 81.36 770.909 81.76 770.136 82.56C769.389 83.3333 769.016 84.44 769.016 85.88V98H762.216V85.88C762.216 84.44 761.829 83.3333 761.056 82.56C760.309 81.76 759.269 81.36 757.936 81.36C756.603 81.36 755.549 81.76 754.776 82.56C754.029 83.3333 753.656 84.44 753.656 85.88V98H746.816V75.68H753.656V78.48C754.349 77.5467 755.256 76.8133 756.376 76.28C757.496 75.72 758.763 75.44 760.176 75.44C761.856 75.44 763.349 75.8 764.656 76.52C765.989 77.24 767.029 78.2667 767.776 79.6C768.549 78.3733 769.603 77.3733 770.936 76.6C772.269 75.8267 773.723 75.44 775.296 75.44ZM802.76 75.44C805.373 75.44 807.453 76.2933 809 78C810.573 79.68 811.36 82 811.36 84.96V98H804.56V85.88C804.56 84.3867 804.173 83.2267 803.4 82.4C802.626 81.5733 801.586 81.16 800.28 81.16C798.973 81.16 797.933 81.5733 797.16 82.4C796.386 83.2267 796 84.3867 796 85.88V98H789.16V75.68H796V78.64C796.693 77.6533 797.626 76.88 798.8 76.32C799.973 75.7333 801.293 75.44 802.76 75.44ZM814.753 86.8C814.753 84.5067 815.179 82.4933 816.033 80.76C816.913 79.0267 818.099 77.6933 819.593 76.76C821.086 75.8267 822.753 75.36 824.593 75.36C826.166 75.36 827.539 75.68 828.713 76.32C829.913 76.96 830.833 77.8 831.473 78.84V75.68H838.313V98H831.473V94.84C830.806 95.88 829.873 96.72 828.673 97.36C827.499 98 826.126 98.32 824.553 98.32C822.739 98.32 821.086 97.8533 819.593 96.92C818.099 95.96 816.913 94.6133 816.033 92.88C815.179 91.12 814.753 89.0933 814.753 86.8ZM831.473 86.84C831.473 85.1333 830.993 83.7867 830.033 82.8C829.099 81.8133 827.953 81.32 826.593 81.32C825.233 81.32 824.073 81.8133 823.113 82.8C822.179 83.76 821.713 85.0933 821.713 86.8C821.713 88.5067 822.179 89.8667 823.113 90.88C824.073 91.8667 825.233 92.36 826.593 92.36C827.953 92.36 829.099 91.8667 830.033 90.88C830.993 89.8933 831.473 88.5467 831.473 86.84ZM852.341 98.32C850.395 98.32 848.661 97.9867 847.141 97.32C845.621 96.6533 844.421 95.7467 843.541 94.6C842.661 93.4267 842.168 92.12 842.061 90.68H848.821C848.901 91.4533 849.261 92.08 849.901 92.56C850.541 93.04 851.328 93.28 852.261 93.28C853.115 93.28 853.768 93.12 854.221 92.8C854.701 92.4533 854.941 92.0133 854.941 91.48C854.941 90.84 854.608 90.3733 853.941 90.08C853.275 89.76 852.195 89.4133 850.701 89.04C849.101 88.6667 847.768 88.28 846.701 87.88C845.635 87.4533 844.715 86.8 843.941 85.92C843.168 85.0133 842.781 83.8 842.781 82.28C842.781 81 843.128 79.84 843.821 78.8C844.541 77.7333 845.581 76.8933 846.941 76.28C848.328 75.6667 849.968 75.36 851.861 75.36C854.661 75.36 856.861 76.0533 858.461 77.44C860.088 78.8267 861.021 80.6667 861.261 82.96H854.941C854.835 82.1867 854.488 81.5733 853.901 81.12C853.341 80.6667 852.595 80.44 851.661 80.44C850.861 80.44 850.248 80.6 849.821 80.92C849.395 81.2133 849.181 81.6267 849.181 82.16C849.181 82.8 849.515 83.28 850.181 83.6C850.875 83.92 851.941 84.24 853.381 84.56C855.035 84.9867 856.381 85.4133 857.421 85.84C858.461 86.24 859.368 86.9067 860.141 87.84C860.941 88.7467 861.355 89.9733 861.381 91.52C861.381 92.8267 861.008 94 860.261 95.04C859.541 96.0533 858.488 96.8533 857.101 97.44C855.741 98.0267 854.155 98.32 852.341 98.32Z" fill="#1A3567"/>
<path d="M122.988 528.6C124.614 528.947 125.921 529.76 126.908 531.04C127.894 532.293 128.388 533.733 128.388 535.36C128.388 537.707 127.561 539.573 125.908 540.96C124.281 542.32 122.001 543 119.068 543H105.988V514.92H118.628C121.481 514.92 123.708 515.573 125.308 516.88C126.934 518.187 127.748 519.96 127.748 522.2C127.748 523.853 127.308 525.227 126.428 526.32C125.574 527.413 124.428 528.173 122.988 528.6ZM112.828 526.28H117.308C118.428 526.28 119.281 526.04 119.868 525.56C120.481 525.053 120.788 524.32 120.788 523.36C120.788 522.4 120.481 521.667 119.868 521.16C119.281 520.653 118.428 520.4 117.308 520.4H112.828V526.28ZM117.868 537.48C119.014 537.48 119.894 537.227 120.508 536.72C121.148 536.187 121.468 535.427 121.468 534.44C121.468 533.453 121.134 532.68 120.468 532.12C119.828 531.56 118.934 531.28 117.788 531.28H112.828V537.48H117.868ZM154.395 520.68V543H147.555V539.96C146.862 540.947 145.915 541.747 144.715 542.36C143.542 542.947 142.235 543.24 140.795 543.24C139.088 543.24 137.582 542.867 136.275 542.12C134.968 541.347 133.955 540.24 133.235 538.8C132.515 537.36 132.155 535.667 132.155 533.72V520.68H138.955V532.8C138.955 534.293 139.342 535.453 140.115 536.28C140.888 537.107 141.928 537.52 143.235 537.52C144.568 537.52 145.622 537.107 146.395 536.28C147.168 535.453 147.555 534.293 147.555 532.8V520.68H154.395ZM157.948 531.84C157.948 529.52 158.415 527.493 159.348 525.76C160.308 524.027 161.628 522.693 163.308 521.76C165.015 520.827 166.961 520.36 169.148 520.36C171.948 520.36 174.281 521.093 176.148 522.56C178.041 524.027 179.281 526.093 179.868 528.76H172.588C171.975 527.053 170.788 526.2 169.028 526.2C167.775 526.2 166.775 526.693 166.028 527.68C165.281 528.64 164.908 530.027 164.908 531.84C164.908 533.653 165.281 535.053 166.028 536.04C166.775 537 167.775 537.48 169.028 537.48C170.788 537.48 171.975 536.627 172.588 534.92H179.868C179.281 537.533 178.041 539.587 176.148 541.08C174.255 542.573 171.921 543.32 169.148 543.32C166.961 543.32 165.015 542.853 163.308 541.92C161.628 540.987 160.308 539.653 159.348 537.92C158.415 536.187 157.948 534.16 157.948 531.84ZM190.367 513.4V543H183.527V513.4H190.367ZM216.364 531.48C216.364 532.12 216.324 532.787 216.244 533.48H200.764C200.87 534.867 201.31 535.933 202.084 536.68C202.884 537.4 203.857 537.76 205.004 537.76C206.71 537.76 207.897 537.04 208.564 535.6H215.844C215.47 537.067 214.79 538.387 213.804 539.56C212.844 540.733 211.63 541.653 210.164 542.32C208.697 542.987 207.057 543.32 205.244 543.32C203.057 543.32 201.11 542.853 199.404 541.92C197.697 540.987 196.364 539.653 195.404 537.92C194.444 536.187 193.964 534.16 193.964 531.84C193.964 529.52 194.43 527.493 195.364 525.76C196.324 524.027 197.657 522.693 199.364 521.76C201.07 520.827 203.03 520.36 205.244 520.36C207.404 520.36 209.324 520.813 211.004 521.72C212.684 522.627 213.99 523.92 214.924 525.6C215.884 527.28 216.364 529.24 216.364 531.48ZM209.364 529.68C209.364 528.507 208.964 527.573 208.164 526.88C207.364 526.187 206.364 525.84 205.164 525.84C204.017 525.84 203.044 526.173 202.244 526.84C201.47 527.507 200.99 528.453 200.804 529.68H209.364ZM87.7528 573.8C87.7528 571.507 88.1795 569.493 89.0328 567.76C89.9128 566.027 91.0995 564.693 92.5928 563.76C94.0861 562.827 95.7528 562.36 97.5928 562.36C99.0595 562.36 100.393 562.667 101.593 563.28C102.819 563.893 103.779 564.72 104.473 565.76V555.4H111.313V585H104.473V581.8C103.833 582.867 102.913 583.72 101.713 584.36C100.539 585 99.1661 585.32 97.5928 585.32C95.7528 585.32 94.0861 584.853 92.5928 583.92C91.0995 582.96 89.9128 581.613 89.0328 579.88C88.1795 578.12 87.7528 576.093 87.7528 573.8ZM104.473 573.84C104.473 572.133 103.993 570.787 103.033 569.8C102.099 568.813 100.953 568.32 99.5928 568.32C98.2328 568.32 97.0728 568.813 96.1128 569.8C95.1795 570.76 94.7128 572.093 94.7128 573.8C94.7128 575.507 95.1795 576.867 96.1128 577.88C97.0728 578.867 98.2328 579.36 99.5928 579.36C100.953 579.36 102.099 578.867 103.033 577.88C103.993 576.893 104.473 575.547 104.473 573.84ZM137.301 573.48C137.301 574.12 137.261 574.787 137.181 575.48H121.701C121.808 576.867 122.248 577.933 123.021 578.68C123.821 579.4 124.795 579.76 125.941 579.76C127.648 579.76 128.835 579.04 129.501 577.6H136.781C136.408 579.067 135.728 580.387 134.741 581.56C133.781 582.733 132.568 583.653 131.101 584.32C129.635 584.987 127.995 585.32 126.181 585.32C123.995 585.32 122.048 584.853 120.341 583.92C118.635 582.987 117.301 581.653 116.341 579.92C115.381 578.187 114.901 576.16 114.901 573.84C114.901 571.52 115.368 569.493 116.301 567.76C117.261 566.027 118.595 564.693 120.301 563.76C122.008 562.827 123.968 562.36 126.181 562.36C128.341 562.36 130.261 562.813 131.941 563.72C133.621 564.627 134.928 565.92 135.861 567.6C136.821 569.28 137.301 571.24 137.301 573.48ZM130.301 571.68C130.301 570.507 129.901 569.573 129.101 568.88C128.301 568.187 127.301 567.84 126.101 567.84C124.955 567.84 123.981 568.173 123.181 568.84C122.408 569.507 121.928 570.453 121.741 571.68H130.301ZM160.586 568.36H156.906V585H150.066V568.36H147.586V562.68H150.066V562.04C150.066 559.293 150.853 557.213 152.426 555.8C154 554.36 156.306 553.64 159.346 553.64C159.853 553.64 160.226 553.653 160.466 553.68V559.48C159.16 559.4 158.24 559.587 157.706 560.04C157.173 560.493 156.906 561.307 156.906 562.48V562.68H160.586V568.36ZM167.24 560.36C166.04 560.36 165.054 560.013 164.28 559.32C163.534 558.6 163.16 557.72 163.16 556.68C163.16 555.613 163.534 554.733 164.28 554.04C165.054 553.32 166.04 552.96 167.24 552.96C168.414 552.96 169.374 553.32 170.12 554.04C170.894 554.733 171.28 555.613 171.28 556.68C171.28 557.72 170.894 558.6 170.12 559.32C169.374 560.013 168.414 560.36 167.24 560.36ZM170.64 562.68V585H163.8V562.68H170.64ZM182.437 555.4V585H175.597V555.4H182.437ZM186.034 573.8C186.034 571.507 186.461 569.493 187.314 567.76C188.194 566.027 189.381 564.693 190.874 563.76C192.367 562.827 194.034 562.36 195.874 562.36C197.447 562.36 198.821 562.68 199.994 563.32C201.194 563.96 202.114 564.8 202.754 565.84V562.68H209.594V585H202.754V581.84C202.087 582.88 201.154 583.72 199.954 584.36C198.781 585 197.407 585.32 195.834 585.32C194.021 585.32 192.367 584.853 190.874 583.92C189.381 582.96 188.194 581.613 187.314 579.88C186.461 578.12 186.034 576.093 186.034 573.8ZM202.754 573.84C202.754 572.133 202.274 570.787 201.314 569.8C200.381 568.813 199.234 568.32 197.874 568.32C196.514 568.32 195.354 568.813 194.394 569.8C193.461 570.76 192.994 572.093 192.994 573.8C192.994 575.507 193.461 576.867 194.394 577.88C195.354 578.867 196.514 579.36 197.874 579.36C199.234 579.36 200.381 578.867 201.314 577.88C202.274 576.893 202.754 575.547 202.754 573.84ZM223.623 585.32C221.676 585.32 219.943 584.987 218.423 584.32C216.903 583.653 215.703 582.747 214.823 581.6C213.943 580.427 213.449 579.12 213.343 577.68H220.103C220.183 578.453 220.543 579.08 221.183 579.56C221.823 580.04 222.609 580.28 223.543 580.28C224.396 580.28 225.049 580.12 225.503 579.8C225.983 579.453 226.223 579.013 226.223 578.48C226.223 577.84 225.889 577.373 225.223 577.08C224.556 576.76 223.476 576.413 221.983 576.04C220.383 575.667 219.049 575.28 217.983 574.88C216.916 574.453 215.996 573.8 215.223 572.92C214.449 572.013 214.063 570.8 214.063 569.28C214.063 568 214.409 566.84 215.103 565.8C215.823 564.733 216.863 563.893 218.223 563.28C219.609 562.667 221.249 562.36 223.143 562.36C225.943 562.36 228.143 563.053 229.743 564.44C231.369 565.827 232.303 567.667 232.543 569.96H226.223C226.116 569.187 225.769 568.573 225.183 568.12C224.623 567.667 223.876 567.44 222.943 567.44C222.143 567.44 221.529 567.6 221.103 567.92C220.676 568.213 220.463 568.627 220.463 569.16C220.463 569.8 220.796 570.28 221.463 570.6C222.156 570.92 223.223 571.24 224.663 571.56C226.316 571.987 227.663 572.413 228.703 572.84C229.743 573.24 230.649 573.907 231.423 574.84C232.223 575.747 232.636 576.973 232.663 578.52C232.663 579.827 232.289 581 231.543 582.04C230.823 583.053 229.769 583.853 228.383 584.44C227.023 585.027 225.436 585.32 223.623 585.32Z" fill="#1A3567"/>
<path d="M265 128H994" stroke="#1A3567" stroke-width="8"/>
<path d="M1015.09 127.568L992 139L992.058 116L1015.09 127.568Z" fill="#1A3567"/>
<path d="M298 511L297 629" stroke="#1A3567" stroke-width="8"/>
<path d="M297.432 650.086L286 627L309 627.058L297.432 650.086Z" fill="#1A3567"/>
<path d="M297.568 499L309 522.086L286 522.027L297.568 499Z" fill="#1A3567"/>
</svg>
