<svg width="1280" height="720" viewBox="0 0 1280 720" fill="none" xmlns="http://www.w3.org/2000/svg">
<g clip-path="url(#clip0_410_4676)">
<rect width="1280" height="720" fill="#ECFAFF"/>
<path d="M0 -0.25H1280V719.749H0V-0.25Z" fill="url(#paint0_radial_410_4676)"/>
<path d="M46.857 -159.678L648.036 359.996L444.699 -152.167L46.857 -159.678Z" fill="#FF7B54" fill-opacity="0.5"/>
<path d="M1093 -284L638 367.5L1356.5 -20.2906L1093 -284Z" fill="#FF7B54" fill-opacity="0.5"/>
<path d="M1246.84 865.546L639.569 353.003L848.936 862.731L1246.84 865.546Z" fill="#FF7B54" fill-opacity="0.5"/>
<path d="M307.344 1057.05L649.857 340.001L4.32064 839.908L307.344 1057.05Z" fill="#FF7B54" fill-opacity="0.5"/>
<path d="M-134.895 520.73L641.827 352.862L-148.573 148.187L-134.895 520.73Z" fill="#FF7B54" fill-opacity="0.5"/>
<path d="M1418.72 519.73L642 351.862L1432.4 147.187L1418.72 519.73Z" fill="#FF7B54" fill-opacity="0.5"/>
<path fill-rule="evenodd" clip-rule="evenodd" d="M703.91 212.409C767.406 217.678 814.608 273.423 809.339 336.918C808.445 347.688 806.097 357.988 802.507 367.644C789.315 410.045 735.845 496.116 692.142 529.137C667.794 549.476 635.745 560.621 601.63 557.79C532.799 552.078 481.63 491.649 487.342 422.818C490.442 385.458 509.663 353.303 537.597 332.621C567.354 306.554 577.005 300.631 593.894 270.619L593.902 270.623C615.383 232.653 657.583 208.565 703.91 212.409Z" fill="url(#paint1_radial_410_4676)"/>
<rect x="576.541" y="351.136" width="126.833" height="40.2249" rx="9" transform="rotate(32.1491 576.541 351.136)" fill="#3E3E3E" stroke="#707070" stroke-width="6"/>
<path d="M646.09 259.132L663.086 290.048L629.726 290.294" stroke="#62342A" stroke-width="3"/>
<path d="M721.348 340.649L704.353 309.733L737.713 309.487" stroke="#62342A" stroke-width="3"/>
<path d="M673.456 312.787C688.647 320.179 695.225 338.17 688.622 353.53L632.038 325.997C640.049 311.322 658.265 305.396 673.456 312.787Z" fill="#C06A60" stroke="#62342A" stroke-width="3"/>
<path d="M753 229.015C762.594 214.57 791.982 190.413 832.784 209.343" stroke="#62342A" stroke-width="19"/>
<path d="M829.985 163.801C830.9 163.274 831.937 162.998 832.993 163C834.049 162.998 835.087 163.274 836.002 163.801C836.917 164.328 837.676 165.087 838.204 166.001L853.79 193.014C856.608 197.902 857.615 203.626 856.634 209.183C855.653 214.739 852.745 219.772 848.423 223.399C839.537 230.867 826.449 230.867 817.564 223.399C813.249 219.767 810.348 214.734 809.367 209.18C808.386 203.626 809.387 197.904 812.197 193.014L827.782 166.001C828.31 165.087 829.07 164.328 829.985 163.801Z" fill="#EF6E48"/>
<path d="M831.241 191.461C831.775 191.158 832.38 190.999 832.996 191C833.612 190.999 834.217 191.158 834.751 191.461C835.285 191.765 835.728 192.202 836.036 192.728L845.127 208.281C846.772 211.095 847.359 214.391 846.786 217.59C846.214 220.789 844.518 223.687 841.996 225.775C836.813 230.075 829.179 230.075 823.996 225.775C821.479 223.684 819.786 220.786 819.214 217.589C818.642 214.391 819.226 211.096 820.865 208.281L829.956 192.728C830.264 192.202 830.707 191.765 831.241 191.461Z" fill="#FFC93C"/>
<path d="M612.069 384.204C613.892 385.326 615.055 386.698 615.558 388.323C616.078 389.958 615.804 391.645 614.735 393.382C613.75 394.983 612.452 395.91 610.84 396.164C609.256 396.41 607.599 396.013 605.868 394.971L604.561 396.809L600.728 394.451L603.524 389.62L605.057 390.563C606.369 391.37 607.465 391.821 608.346 391.917C609.243 392.023 609.954 391.65 610.478 390.798C610.845 390.202 610.971 389.634 610.857 389.094C610.743 388.554 610.396 388.106 609.817 387.75C609.204 387.373 608.617 387.258 608.056 387.406C607.506 387.537 607.047 387.901 606.68 388.497L602.567 385.966C603.172 384.906 603.961 384.1 604.935 383.549C605.925 383.007 607.027 382.781 608.24 382.87C609.481 382.953 610.757 383.397 612.069 384.204ZM598.608 402.305C597.842 401.833 597.348 401.224 597.126 400.477C596.932 399.724 597.04 399.015 597.448 398.351C597.868 397.669 598.457 397.245 599.217 397.079C599.994 396.923 600.766 397.081 601.532 397.552C602.282 398.013 602.754 398.621 602.948 399.374C603.159 400.138 603.055 400.86 602.635 401.542C602.227 402.206 601.634 402.616 600.857 402.772C600.107 402.922 599.358 402.766 598.608 402.305ZM625.818 392.663C627.641 393.784 628.804 395.157 629.307 396.782C629.827 398.417 629.553 400.103 628.484 401.841C627.499 403.442 626.201 404.369 624.589 404.622C623.005 404.869 621.348 404.471 619.617 403.43L618.31 405.268L614.477 402.91L617.273 398.078L618.806 399.022C620.118 399.828 621.214 400.28 622.095 400.375C622.992 400.481 623.703 400.108 624.227 399.257C624.594 398.661 624.72 398.092 624.606 397.553C624.492 397.013 624.145 396.565 623.566 396.209C622.953 395.831 622.366 395.717 621.805 395.865C621.255 395.996 620.796 396.36 620.429 396.956L616.316 394.425C616.921 393.365 617.71 392.559 618.684 392.007C619.674 391.466 620.776 391.24 621.989 391.329C623.23 391.411 624.506 391.856 625.818 392.663ZM612.358 410.763C611.591 410.292 611.097 409.683 610.875 408.936C610.681 408.182 610.789 407.474 611.197 406.809C611.617 406.128 612.206 405.704 612.966 405.537C613.743 405.381 614.515 405.539 615.281 406.011C616.031 406.472 616.503 407.079 616.697 407.833C616.908 408.596 616.804 409.319 616.384 410C615.976 410.665 615.383 411.075 614.606 411.231C613.857 411.38 613.107 411.225 612.358 410.763ZM639.567 401.121C641.39 402.243 642.553 403.616 643.056 405.24C643.576 406.875 643.302 408.562 642.233 410.299C641.248 411.9 639.95 412.828 638.338 413.081C636.754 413.327 635.097 412.93 633.366 411.888L632.059 413.726L628.226 411.368L631.022 406.537L632.555 407.48C633.867 408.287 634.963 408.738 635.844 408.834C636.741 408.94 637.452 408.567 637.976 407.715C638.343 407.119 638.469 406.551 638.355 406.011C638.241 405.471 637.894 405.023 637.315 404.667C636.702 404.29 636.115 404.175 635.554 404.323C635.004 404.454 634.545 404.818 634.179 405.414L630.065 402.883C630.67 401.823 631.459 401.017 632.433 400.466C633.423 399.924 634.525 399.698 635.738 399.787C636.979 399.87 638.255 400.314 639.567 401.121ZM626.107 419.222C625.34 418.75 624.846 418.141 624.624 417.394C624.43 416.641 624.538 415.932 624.946 415.268C625.366 414.586 625.955 414.163 626.715 413.996C627.492 413.84 628.264 413.998 629.03 414.469C629.78 414.93 630.252 415.538 630.446 416.291C630.657 417.055 630.553 417.778 630.133 418.459C629.725 419.123 629.132 419.533 628.355 419.689C627.606 419.839 626.856 419.683 626.107 419.222Z" fill="white"/>
<path d="M1143.43 936.456C1124.16 962.601 1080.39 960.302 1048.83 961.76C1044.21 961.973 1006.02 991.873 997.984 994.656C990.385 978.781 1009.63 984.073 1015.78 933.959C1033.74 935.914 1026.99 874.232 1062.67 862.586C1068.78 827.69 997.278 662.888 962.753 641.665C927.33 622.528 891.677 597.124 850.513 595.476C801.742 572.658 935.034 592.073 894.485 556.345C876.711 538.794 835.24 525.054 830.771 505.435C852.515 502.631 913.933 543.294 909.275 505.943C897.294 482.723 845.071 451.708 859.17 433.438C880.717 442.456 917.711 499.457 927.104 486.623C919.548 473.86 889.098 421.834 924.109 449.574C940.457 458.631 967.425 514.967 977.45 490.853C968.261 478.639 941.949 436.343 975.088 461.094C1015.17 501.451 1011.72 562.162 1039.04 609.319C1061.94 659.669 1136.52 796.117 1149.16 850.513C1151.08 875.675 1162.71 919.545 1143.43 936.456Z" fill="#B26B61"/>
<path d="M1222.55 -83.7552C1209.13 -109.008 1170.7 -112.627 1143.39 -117.952C1139.4 -118.73 1109.97 -149.685 1103.32 -153.142C1094.66 -140.288 1112.1 -142.426 1111.03 -97.9776C1126.92 -97.3734 1113.12 -44.5032 1142.71 -29.774C1143.55 1.41253 1060.09 135.802 1027.28 149.856C993.964 161.978 959.641 179.53 923.567 175.678C878.146 189.292 996.764 189.5 956.849 215.417C939.109 228.425 901.215 235.067 894.801 251.586C913.384 256.822 972.115 229.285 963.259 261.227C949.838 279.918 900.358 300.229 910.294 317.957C930.224 312.868 969.775 267.961 976.31 280.348C968.087 290.498 934.877 331.91 968.941 312.241C984.347 306.45 1015.08 260.835 1020.71 283.131C1011.14 292.591 982.784 326.059 1014.83 308.753C1054.94 278.743 1059.73 225.409 1089.59 187.836C1116 146.912 1198.51 37.6201 1216.51 -8.14566C1221.41 -29.8195 1237.18 -66.5459 1222.55 -83.7552Z" fill="#D99773"/>
<path d="M132.494 -108.058C146.848 -135.06 187.942 -138.93 217.142 -144.623C221.412 -145.456 252.882 -178.555 259.989 -182.252C269.248 -168.507 250.596 -170.794 251.749 -123.265C234.753 -122.619 249.507 -66.0861 217.868 -50.3364C216.97 -16.9891 306.217 126.712 341.293 141.739C376.921 154.701 413.623 173.469 452.196 169.35C500.763 183.907 373.927 184.13 416.608 211.843C435.576 225.751 476.097 232.854 482.955 250.517C463.084 256.116 400.284 226.672 409.753 260.826C424.104 280.812 477.013 302.531 466.388 321.487C445.077 316.046 402.786 268.027 395.798 281.273C404.59 292.125 440.102 336.407 403.677 315.374C387.205 309.183 354.344 260.407 348.317 284.248C358.555 294.363 388.876 330.151 354.605 311.645C311.722 279.556 306.594 222.527 274.667 182.35C246.425 138.591 158.205 21.727 138.954 -27.2096C133.711 -50.3851 116.857 -89.656 132.494 -108.058Z" fill="#F6B18C"/>
<path d="M112.856 740.079C126.8 769.933 170.803 776.385 201.906 784.136C206.455 785.269 238.476 822.637 245.918 827.01C256.645 812.736 207.359 817.435 211.245 766.357C244.414 785.065 192.993 764.716 211.245 766.357C180.139 702.277 236.647 603.418 275.227 589.2C314.285 577.236 354.822 559.082 396.099 565.661C449.17 552.7 312.702 545.402 360.17 517.957C381.355 504.046 425.352 498.658 433.714 480.034C412.644 472.904 343.43 501.092 355.52 464.867C372.074 444.16 430.215 423.734 419.837 402.746C396.603 407.414 348.423 456.731 341.642 442.089C351.706 430.901 392.383 385.228 352.018 405.833C333.948 411.578 295.874 462.234 290.716 436.245C302.295 425.93 336.913 389.109 299.007 407.115C251.076 439.257 242.385 500.338 205.795 541.793C172.969 587.307 147.745 601.856 124.307 653.442C117.375 678.088 97.0543 719.407 112.856 740.079Z" fill="#D99773"/>
</g>
<defs>
<radialGradient id="paint0_radial_410_4676" cx="0" cy="0" r="1" gradientUnits="userSpaceOnUse" gradientTransform="translate(642.112 349.716) rotate(-90) scale(284.28 284.043)">
<stop stop-color="#FFC592"/>
<stop offset="1" stop-color="#FFC977"/>
</radialGradient>
<radialGradient id="paint1_radial_410_4676" cx="0" cy="0" r="1" gradientTransform="matrix(-86.3106 231.364 -197.815 -73.7938 637.29 324.258)" gradientUnits="userSpaceOnUse">
<stop stop-color="#EDAD68"/>
<stop offset="0.677885" stop-color="#D38D65"/>
<stop offset="1" stop-color="#D08259"/>
</radialGradient>
<clipPath id="clip0_410_4676">
<rect width="1280" height="720" fill="white"/>
</clipPath>
</defs>
</svg>
