<svg width="1280" height="720" viewBox="0 0 1280 720" fill="none" xmlns="http://www.w3.org/2000/svg">
<g clip-path="url(#clip0_410_4682)">
<rect width="1280" height="720" fill="url(#paint0_linear_410_4682)"/>
<path d="M853.5 416.5L632 738.5H1299.5L1071 416.5H853.5Z" fill="#ECFFEE"/>
<rect width="640" height="720" fill="url(#paint1_linear_410_4682)"/>
<path d="M966 418V746.5" stroke="#B1CC96" stroke-width="10" stroke-dasharray="20 20"/>
<path d="M1177 582H766" stroke="#B1CC96" stroke-width="10" stroke-dasharray="20 20"/>
<path d="M494.734 462.547C529.242 482.05 550 507.134 550 534.499C550 596.631 442.996 646.999 311 646.999C227.798 646.999 154.526 626.987 111.724 596.63" stroke="#1E5C93" stroke-width="4"/>
<path d="M94.3512 582.066C80.0103 567.619 72 551.5 72 534.5C72 472.368 179.004 422 311 422C377.836 422 438.263 434.914 481.637 455.729" stroke="#1E5C93" stroke-width="4"/>
<path d="M486.761 458.527L461 458.666L471.148 438.026L486.761 458.527Z" fill="#1E5C93"/>
<path d="M102.819 589.226L128.207 593.602L114.601 612.145L102.819 589.226Z" fill="#1E5C93"/>
<path d="M477.018 278.753L480.25 283.164C483.645 287.801 482.649 294.32 477.995 297.734L462.506 309.098L446.971 287.876L462.47 276.516C467.11 273.118 473.626 274.117 477.035 278.753" fill="#FF7B54"/>
<path d="M205.895 377.045L209.973 380.677C214.269 384.503 220.857 384.127 224.682 379.829L237.453 365.465L217.82 347.969L205.051 362.324C201.225 366.623 201.6 373.217 205.895 377.045Z" fill="#FF7B54"/>
<path d="M373.655 287.33C403.973 292.897 433.042 272.815 438.616 242.471C444.179 212.136 424.114 183.023 393.795 177.456C363.476 171.896 334.387 191.979 328.834 222.314C323.279 252.658 343.344 281.771 373.655 287.33Z" fill="#FF7B54"/>
<path d="M362.18 334.994C401.7 345.16 453.955 323.96 467.583 305.363L456.484 280.222C421.906 299.598 390.995 301.563 369.575 297.019L333.402 278.141C257.5 285.527 212.334 354.465 212.334 354.465L229.239 375.036C273.818 335.247 296.296 329.162 296.296 329.162C290.977 342.49 285.865 355.996 281.072 369.777C281.072 369.777 281.036 369.928 280.997 369.993C272.624 394.035 265.17 418.869 259.127 444.904L205.208 458.206L204.09 494.607C204.09 494.607 260.969 491.343 273.724 484.374C283.018 479.295 290.866 471.091 298.45 462.786C303.514 457.914 308.206 452.788 312.575 447.492C324.557 460.255 334.267 469.54 334.501 469.398C331.813 501.689 340.347 518.396 345.347 545.956L378.532 543.82L379.482 456.341L344.726 393.312C353.448 372.58 358.842 352.188 362.18 334.994Z" fill="#A184DC"/>
<path d="M351.121 301.824L346.429 299.031C341.487 296.088 339.861 289.673 342.819 284.744L352.651 268.234L375.227 281.704L365.395 298.212C362.453 303.16 356.043 304.788 351.121 301.824Z" fill="#FF7B54"/>
<path d="M428.203 266.09C429.454 266.829 430.947 267.042 432.355 266.682C433.762 266.322 434.97 265.419 435.713 264.171C437.243 261.575 436.398 258.206 433.804 256.656" stroke="black" stroke-width="2.2746" stroke-miterlimit="10"/>
<path d="M462.17 288.153C464.388 289.471 467.254 288.727 468.57 286.506C469.895 284.287 469.152 281.419 466.934 280.102" stroke="black" stroke-width="2.2746" stroke-miterlimit="10"/>
<path d="M468.956 286C468.29 286.585 467.745 287.295 467.354 288.09C466.963 288.886 466.733 289.75 466.677 290.635C466.622 291.519 466.741 292.406 467.029 293.245C467.316 294.083 467.767 294.856 468.354 295.52C468.937 296.187 469.647 296.731 470.441 297.123C471.236 297.514 472.1 297.744 472.984 297.8C473.868 297.856 474.755 297.736 475.592 297.448C476.43 297.16 477.202 296.709 477.865 296.121" stroke="black" stroke-width="2.2746" stroke-miterlimit="10"/>
<path d="M422.724 272.217L411.645 266.461" stroke="black" stroke-width="2.2746" stroke-miterlimit="10"/>
<path d="M438.363 219.63C434.831 203.901 424.548 189.802 409.022 181.976C381.503 168.111 347.941 179.192 334.088 206.733C331.665 211.539 330.058 216.543 329.107 221.566L438.363 219.63Z" fill="black"/>
<path d="M375.282 216.874C375.282 203.122 370.048 190.648 361.533 181.188C345.057 188.353 332.312 203.329 328.835 222.357C325.818 238.828 330.404 254.903 340.018 267.095C360.554 259.654 375.263 240.022 375.263 216.893" fill="black"/>
<path d="M432.535 239.062C432.535 242.945 429.397 246.107 425.497 246.107C424.572 246.108 423.656 245.926 422.802 245.572C421.948 245.218 421.171 244.699 420.518 244.045C419.865 243.39 419.348 242.613 418.996 241.758C418.644 240.902 418.464 239.986 418.467 239.062C418.467 235.168 421.624 232.016 425.497 232.016C429.378 232.016 432.535 235.168 432.535 239.062Z" fill="black"/>
<path d="M278.235 378.019C272.211 396.616 263.713 425.058 259.108 444.896L205.19 458.188L204.07 494.59C204.07 494.59 260.952 491.327 273.705 484.355C282.999 479.278 290.848 471.083 298.431 462.768C303.498 457.897 308.188 452.77 312.557 447.475C324.541 460.247 334.249 469.523 334.482 469.381C331.794 501.674 340.329 518.378 345.328 545.938L378.514 543.805L379.464 456.325L344.717 393.296L278.216 378L278.235 378.019Z" fill="#1EAD28"/>
<path d="M318.656 301.068C318.67 301.818 318.535 302.564 318.257 303.262C317.98 303.959 317.566 304.595 317.04 305.131C316.514 305.666 315.887 306.092 315.194 306.383C314.502 306.673 313.759 306.823 313.008 306.823C312.257 306.823 311.514 306.673 310.822 306.383C310.13 306.092 309.502 305.666 308.976 305.131C308.451 304.595 308.037 303.959 307.759 303.262C307.482 302.564 307.346 301.818 307.36 301.068C307.346 300.317 307.482 299.571 307.759 298.874C308.037 298.176 308.451 297.541 308.976 297.005C309.502 296.469 310.13 296.043 310.822 295.753C311.514 295.462 312.257 295.312 313.008 295.312C313.759 295.312 314.502 295.462 315.194 295.753C315.887 296.043 316.514 296.469 317.04 297.005C317.566 297.541 317.98 298.176 318.257 298.874C318.535 299.571 318.67 300.317 318.656 301.068Z" fill="white"/>
<path d="M338.25 334.997C338.264 335.748 338.128 336.494 337.851 337.192C337.573 337.889 337.16 338.524 336.634 339.06C336.108 339.596 335.481 340.022 334.788 340.312C334.096 340.603 333.353 340.753 332.602 340.753C331.851 340.753 331.108 340.603 330.416 340.312C329.723 340.022 329.096 339.596 328.57 339.06C328.044 338.524 327.631 337.889 327.353 337.192C327.076 336.494 326.94 335.748 326.954 334.997C326.94 334.247 327.076 333.501 327.353 332.803C327.631 332.106 328.044 331.47 328.57 330.934C329.096 330.399 329.723 329.973 330.416 329.682C331.108 329.392 331.851 329.242 332.602 329.242C333.353 329.242 334.096 329.392 334.788 329.682C335.481 329.973 336.108 330.399 336.634 330.934C337.16 331.47 337.573 332.106 337.851 332.803C338.128 333.501 338.264 334.247 338.25 334.997Z" fill="white"/>
<path d="M310.912 363.728C310.913 364.47 310.767 365.205 310.483 365.891C310.199 366.577 309.783 367.2 309.259 367.725C308.734 368.25 308.111 368.667 307.425 368.951C306.739 369.235 306.005 369.381 305.262 369.381C302.152 369.381 299.613 366.85 299.613 363.728C299.613 362.229 300.209 360.792 301.268 359.733C302.328 358.673 303.764 358.078 305.263 358.078C306.761 358.078 308.198 358.673 309.258 359.733C310.317 360.792 310.912 362.229 310.912 363.728Z" fill="white"/>
<path d="M347.133 367.271C347.147 368.021 347.011 368.767 346.734 369.465C346.456 370.163 346.043 370.798 345.517 371.334C344.991 371.87 344.363 372.295 343.671 372.586C342.979 372.876 342.236 373.026 341.485 373.026C340.734 373.026 339.991 372.876 339.299 372.586C338.606 372.295 337.979 371.87 337.453 371.334C336.927 370.798 336.513 370.163 336.236 369.465C335.958 368.767 335.823 368.021 335.837 367.271C335.823 366.52 335.958 365.774 336.236 365.077C336.513 364.379 336.927 363.744 337.453 363.208C337.979 362.672 338.606 362.246 339.299 361.956C339.991 361.665 340.734 361.516 341.485 361.516C342.236 361.516 342.979 361.665 343.671 361.956C344.363 362.246 344.991 362.672 345.517 363.208C346.043 363.744 346.456 364.379 346.734 365.077C347.011 365.774 347.147 366.52 347.133 367.271Z" fill="white"/>
<path d="M390.42 314.74C390.434 315.49 390.298 316.236 390.021 316.934C389.743 317.631 389.33 318.267 388.804 318.803C388.278 319.338 387.65 319.764 386.958 320.055C386.266 320.345 385.523 320.495 384.772 320.495C384.021 320.495 383.278 320.345 382.586 320.055C381.893 319.764 381.266 319.338 380.74 318.803C380.214 318.267 379.801 317.631 379.523 316.934C379.246 316.236 379.11 315.49 379.124 314.74C379.11 313.989 379.246 313.243 379.523 312.545C379.801 311.848 380.214 311.213 380.74 310.677C381.266 310.141 381.893 309.715 382.586 309.425C383.278 309.134 384.021 308.984 384.772 308.984C385.523 308.984 386.266 309.134 386.958 309.425C387.65 309.715 388.278 310.141 388.804 310.677C389.33 311.213 389.743 311.848 390.021 312.545C390.298 313.243 390.434 313.989 390.42 314.74Z" fill="white"/>
<path d="M442.124 306.724C442.134 307.472 441.995 308.215 441.715 308.909C441.436 309.603 441.021 310.235 440.496 310.768C439.97 311.3 439.344 311.723 438.654 312.012C437.963 312.301 437.222 312.449 436.474 312.449C435.726 312.449 434.985 312.301 434.295 312.012C433.604 311.723 432.978 311.3 432.453 310.768C431.927 310.235 431.512 309.603 431.233 308.909C430.954 308.215 430.815 307.472 430.825 306.724C430.824 305.982 430.97 305.247 431.254 304.561C431.537 303.875 431.953 303.252 432.478 302.727C433.003 302.201 433.626 301.785 434.312 301.501C434.997 301.217 435.732 301.07 436.475 301.07C437.217 301.07 437.952 301.217 438.637 301.501C439.323 301.785 439.946 302.202 440.471 302.727C440.995 303.252 441.411 303.875 441.695 304.561C441.978 305.247 442.124 305.982 442.124 306.724Z" fill="white"/>
<path d="M273.656 322.096C273.656 323.594 273.061 325.031 272.002 326.091C270.944 327.151 269.507 327.748 268.009 327.75C267.267 327.75 266.532 327.604 265.846 327.32C265.16 327.036 264.537 326.619 264.013 326.094C263.488 325.569 263.072 324.946 262.788 324.26C262.505 323.574 262.359 322.839 262.359 322.096C262.36 320.598 262.956 319.161 264.015 318.102C265.075 317.042 266.511 316.447 268.009 316.445C271.119 316.445 273.656 318.983 273.656 322.096Z" fill="white"/>
<path d="M246.888 347.99C246.889 348.732 246.743 349.466 246.46 350.152C246.176 350.838 245.76 351.461 245.236 351.986C244.712 352.511 244.089 352.928 243.404 353.212C242.719 353.496 241.984 353.643 241.242 353.644C240.5 353.644 239.765 353.497 239.079 353.213C238.393 352.929 237.77 352.512 237.246 351.987C236.721 351.462 236.305 350.839 236.021 350.153C235.738 349.467 235.592 348.732 235.592 347.99C235.582 347.242 235.721 346.499 236 345.805C236.28 345.111 236.694 344.479 237.22 343.947C237.745 343.414 238.371 342.991 239.062 342.703C239.752 342.414 240.493 342.266 241.241 342.266C241.989 342.266 242.73 342.414 243.42 342.703C244.11 342.991 244.736 343.414 245.262 343.947C245.787 344.479 246.202 345.111 246.481 345.805C246.76 346.499 246.898 347.242 246.888 347.99Z" fill="white"/>
<path d="M326.164 266.843C330.132 264.425 332.567 260.437 333.185 256.175C333.308 255.217 333.365 254.258 333.308 253.297C333.252 252.324 333.108 251.358 332.878 250.41C332.508 248.944 331.918 247.542 331.128 246.252C326.814 239.198 317.613 236.959 310.554 241.277C299.766 250.682 295.762 260.201 292.688 269.73C302.557 271.358 312.847 272.157 326.147 266.843" fill="black"/>
<path d="M205.011 492.663C207.248 484.208 207.576 457.767 207.576 457.767L187.813 455.047L180 511.703C180 511.703 200.322 510.413 205.011 492.663Z" fill="black"/>
<path d="M380.151 543.376C371.475 542.296 345.273 545.548 345.273 545.548L345.234 565.518L402.387 565.631C402.387 565.631 398.383 545.652 380.169 543.376H380.151Z" fill="black"/>
<path d="M1086.89 274.805C1091.63 279.586 1091.56 287.393 1086.73 292.248L1075.78 303.261L1058.62 285.956L1069.58 274.947C1074.4 270.099 1082.16 270.027 1086.89 274.805Z" fill="#BC9353"/>
<path d="M1072.76 284.273C1074.92 285.083 1077.45 283.871 1078.42 281.571C1078.89 280.466 1078.93 279.252 1078.54 278.195C1078.15 277.138 1077.35 276.325 1076.33 275.935" stroke="black" stroke-width="2" stroke-miterlimit="10"/>
<path d="M1078.85 281.161C1076.59 283.858 1077.01 287.918 1079.77 290.214C1080.43 290.762 1081.18 291.178 1082 291.437C1082.81 291.697 1083.67 291.795 1084.51 291.727C1085.36 291.659 1086.18 291.426 1086.93 291.04C1087.68 290.655 1088.34 290.125 1088.88 289.481" stroke="black" stroke-width="2" stroke-miterlimit="10"/>
<ellipse cx="927.5" cy="534.5" rx="16.5" ry="20.5" fill="black"/>
<path d="M856.324 387.905C850.081 385.082 847.293 377.672 850.081 371.348L856.414 357L879 367.24L872.668 381.581C869.882 387.905 862.567 390.729 856.324 387.905Z" fill="#BC9353"/>
<path d="M900 212H1031V255H900V212Z" fill="#1E5C93"/>
<path d="M988.5 321.515C988.818 317.176 984.241 304.662 964.578 304.662L934.693 296C900 304.662 873.325 326.805 854.085 360.305L876 373.5C905 318.5 925.832 352.992 925.832 352.992L923.452 399.553L995.452 401.567C1002.33 340.987 988.5 321.5 988.5 321.5" fill="#FFC93C"/>
<path d="M924.845 396.117L923.184 396L911 527C913 541.5 933.135 545 941 531C941 531 940.26 534.971 964.928 487.749C965.156 487.315 965.378 486.859 965.606 486.414C979.632 459.043 986.783 428.917 989.999 400.562L924.845 396.117Z" fill="#34C3FF"/>
<path d="M993.164 396.117L994.823 396L1016 582H991.636C991.636 582 977.748 534.971 953.071 487.749C952.85 487.315 952.621 486.859 952.393 486.414C938.374 459.043 931.218 428.917 928 400.562L993.164 396.117Z" fill="#34C3FF"/>
<path d="M985.026 300.429C985.026 300.429 1023 335.5 1061 279.5L1080 304.5C1080 304.5 1031.96 365.865 986.887 336.571L958 301.453L985.015 300.438L985.026 300.429Z" fill="#FFC93C"/>
<path d="M1020 582H987" stroke="black" stroke-width="2.27727" stroke-miterlimit="10"/>
<path d="M997 323.997C997 344.436 980.211 361 959.497 361C938.789 361 922 344.436 922 323.997C922 303.566 938.789 287 959.497 287C980.211 287 997 303.566 997 323.997Z" fill="#FFC93C"/>
<path d="M975.122 165.014C983.123 187.366 1004.66 203.939 1030.7 206.348C1030.89 208.229 1031 210.131 1031 212.053C1031 245.718 1001.68 273 965.496 273C929.322 273 900 245.718 900 212.053C900 209.856 900.13 207.693 900.364 205.545C904.524 206.297 908.744 206.676 912.972 206.677C941.895 206.677 966.43 189.214 975.11 165" fill="#BC9353"/>
<path d="M965.469 151C999.752 151 1027.9 175.435 1031 206.655C1004.83 204.228 983.173 187.531 975.131 165.012C966.421 189.407 941.758 207 912.672 207C908.422 206.998 904.182 206.616 900 205.86C903.513 175.033 931.473 151.015 965.454 151.015" fill="#1E5C93"/>
<path d="M961.898 304.976C953.66 304.39 947.455 297.278 948.038 289.082L951.172 245L981 247.091L977.874 291.173C977.292 299.375 970.142 305.541 961.898 304.962" fill="#BC9353"/>
<path d="M984 217.503C984 221.093 986.685 224 989.997 224C993.309 224 996 221.093 996 217.503C996 213.914 993.309 211 989.997 211C986.685 211 984 213.914 984 217.503Z" fill="black"/>
<path d="M941 217.503C941 221.093 943.915 224 947.503 224C948.357 224 949.202 223.832 949.99 223.506C950.778 223.18 951.495 222.701 952.098 222.098C952.702 221.494 953.18 220.778 953.506 219.989C953.832 219.201 954 218.356 954 217.503C954 213.914 951.093 211 947.503 211C943.915 211 941 213.914 941 217.503Z" fill="black"/>
<path d="M978 237C978 243.625 972.849 249 966.503 249C960.151 249 955 243.625 955 237" stroke="black" stroke-width="3.00022" stroke-miterlimit="10"/>
<path d="M969 233C967.674 233 966.403 232.473 965.465 231.536C964.528 230.598 964.001 229.327 964 228.001C964 227.344 964.129 226.693 964.38 226.086C964.631 225.48 964.999 224.928 965.463 224.464C965.927 223.999 966.479 223.631 967.086 223.38C967.693 223.129 968.343 223 969 223" stroke="black" stroke-width="3.00022" stroke-miterlimit="10"/>
<path d="M481.675 179.579C484.241 179.579 486.702 180.602 488.516 182.423C490.331 184.244 491.35 186.714 491.35 189.289C491.35 191.865 490.331 194.335 488.516 196.156C486.702 197.977 484.241 199 481.675 199C479.109 199 476.648 197.977 474.834 196.156C473.019 194.335 472 191.865 472 189.289C472 186.714 473.019 184.244 474.834 182.423C476.648 180.602 479.109 179.579 481.675 179.579ZM513.925 160.158C518.202 160.158 522.303 161.863 525.327 164.898C528.351 167.933 530.05 172.05 530.05 176.342C530.05 180.634 528.351 184.751 525.327 187.786C522.303 190.821 518.202 192.526 513.925 192.526C509.648 192.526 505.547 190.821 502.523 187.786C499.499 184.751 497.8 180.634 497.8 176.342C497.8 172.05 499.499 167.933 502.523 164.898C505.547 161.863 509.648 160.158 513.925 160.158ZM552.625 153.684C544.95 153.684 537.983 150.447 533.275 144.945C528.566 150.447 521.6 153.684 513.925 153.684C501.283 153.684 490.77 144.556 488.576 132.58C483.705 130.689 479.517 127.366 476.559 123.046C473.601 118.726 472.012 113.61 472 108.368C472 101.501 474.718 94.9143 479.557 90.0581C484.395 85.2019 490.957 82.4737 497.8 82.4737C499.477 82.4737 501.025 82.6679 502.766 82.9268C507.475 78.6542 513.603 76 520.375 76C528.05 76 535.016 79.2368 539.725 84.7395C544.433 79.2368 551.399 76 559.075 76C571.717 76 582.23 85.1279 584.424 97.1042C589.295 98.9949 593.483 102.318 596.441 106.638C599.399 110.958 600.988 116.074 601 121.316C601 128.184 598.282 134.77 593.443 139.626C588.605 144.482 582.043 147.211 575.2 147.211L570.233 146.757C565.525 151.03 559.397 153.684 552.625 153.684Z" fill="#ECFAFF"/>
<path d="M520.296 103.77C522.436 103.77 524.146 104.33 525.426 105.45C526.726 106.57 527.376 108.15 527.376 110.19C527.376 112.07 526.756 113.54 525.516 114.6C524.296 115.64 522.676 116.17 520.656 116.19L520.506 118.44H516.006L515.856 112.86H517.656C519.196 112.86 520.366 112.67 521.166 112.29C521.986 111.91 522.396 111.22 522.396 110.22C522.396 109.52 522.206 108.97 521.826 108.57C521.446 108.17 520.916 107.97 520.236 107.97C519.516 107.97 518.956 108.18 518.556 108.6C518.156 109 517.956 109.55 517.956 110.25H513.126C513.086 109.03 513.336 107.93 513.876 106.95C514.436 105.97 515.256 105.2 516.336 104.64C517.436 104.06 518.756 103.77 520.296 103.77ZM518.316 126.24C517.416 126.24 516.676 125.98 516.096 125.46C515.536 124.92 515.256 124.26 515.256 123.48C515.256 122.68 515.536 122.01 516.096 121.47C516.676 120.93 517.416 120.66 518.316 120.66C519.196 120.66 519.916 120.93 520.476 121.47C521.056 122.01 521.346 122.68 521.346 123.48C521.346 124.26 521.056 124.92 520.476 125.46C519.916 125.98 519.196 126.24 518.316 126.24ZM536.439 103.77C538.579 103.77 540.289 104.33 541.569 105.45C542.869 106.57 543.519 108.15 543.519 110.19C543.519 112.07 542.899 113.54 541.659 114.6C540.439 115.64 538.819 116.17 536.799 116.19L536.649 118.44H532.149L531.999 112.86H533.799C535.339 112.86 536.509 112.67 537.309 112.29C538.129 111.91 538.539 111.22 538.539 110.22C538.539 109.52 538.349 108.97 537.969 108.57C537.589 108.17 537.059 107.97 536.379 107.97C535.659 107.97 535.099 108.18 534.699 108.6C534.299 109 534.099 109.55 534.099 110.25H529.269C529.229 109.03 529.479 107.93 530.019 106.95C530.579 105.97 531.399 105.2 532.479 104.64C533.579 104.06 534.899 103.77 536.439 103.77ZM534.459 126.24C533.559 126.24 532.819 125.98 532.239 125.46C531.679 124.92 531.399 124.26 531.399 123.48C531.399 122.68 531.679 122.01 532.239 121.47C532.819 120.93 533.559 120.66 534.459 120.66C535.339 120.66 536.059 120.93 536.619 121.47C537.199 122.01 537.489 122.68 537.489 123.48C537.489 124.26 537.199 124.92 536.619 125.46C536.059 125.98 535.339 126.24 534.459 126.24ZM552.581 103.77C554.721 103.77 556.431 104.33 557.711 105.45C559.011 106.57 559.661 108.15 559.661 110.19C559.661 112.07 559.041 113.54 557.801 114.6C556.581 115.64 554.961 116.17 552.941 116.19L552.791 118.44H548.291L548.141 112.86H549.941C551.481 112.86 552.651 112.67 553.451 112.29C554.271 111.91 554.681 111.22 554.681 110.22C554.681 109.52 554.491 108.97 554.111 108.57C553.731 108.17 553.201 107.97 552.521 107.97C551.801 107.97 551.241 108.18 550.841 108.6C550.441 109 550.241 109.55 550.241 110.25H545.411C545.371 109.03 545.621 107.93 546.161 106.95C546.721 105.97 547.541 105.2 548.621 104.64C549.721 104.06 551.041 103.77 552.581 103.77ZM550.601 126.24C549.701 126.24 548.961 125.98 548.381 125.46C547.821 124.92 547.541 124.26 547.541 123.48C547.541 122.68 547.821 122.01 548.381 121.47C548.961 120.93 549.701 120.66 550.601 120.66C551.481 120.66 552.201 120.93 552.761 121.47C553.341 122.01 553.631 122.68 553.631 123.48C553.631 124.26 553.341 124.92 552.761 125.46C552.201 125.98 551.481 126.24 550.601 126.24Z" fill="#1A3567"/>
<path d="M1238.21 469.928L1159.96 501.066V434.398L1238.21 469.928Z" fill="#CE393C"/>
<path d="M1160.33 636L1158.76 434" stroke="#3E3E3E" stroke-width="8"/>
<path d="M1140 634.406H1181.52" stroke="#3E3E3E" stroke-width="8"/>
</g>
<defs>
<linearGradient id="paint0_linear_410_4682" x1="640" y1="0" x2="640" y2="720" gradientUnits="userSpaceOnUse">
<stop stop-color="#AAC88D"/>
<stop offset="1" stop-color="#D5E5C9"/>
</linearGradient>
<linearGradient id="paint1_linear_410_4682" x1="320" y1="0" x2="320" y2="720" gradientUnits="userSpaceOnUse">
<stop stop-color="#79B8E4"/>
<stop offset="1" stop-color="#D3E6F9"/>
</linearGradient>
<clipPath id="clip0_410_4682">
<rect width="1280" height="720" fill="white"/>
</clipPath>
</defs>
</svg>
