<svg width="1280" height="720" viewBox="0 0 1280 720" fill="none" xmlns="http://www.w3.org/2000/svg">
<g clip-path="url(#clip0_560_2308)">
<rect width="1280" height="720" fill="#ECFAFF"/>
<g filter="url(#filter0_di_560_2308)">
<path fill-rule="evenodd" clip-rule="evenodd" d="M456 228.612L639.612 45L823.223 228.612L639.612 412.223L456 228.612Z" fill="url(#paint0_linear_560_2308)"/>
</g>
<path d="M540.2 197.76C540.893 197.76 541.48 198 541.96 198.48C542.44 198.96 542.68 199.547 542.68 200.24C542.68 200.933 542.44 201.52 541.96 202C541.48 202.48 540.893 202.72 540.2 202.72C539.533 202.72 538.96 202.48 538.48 202C538.027 201.52 537.8 200.933 537.8 200.24C537.8 199.547 538.027 198.96 538.48 198.48C538.96 198 539.533 197.76 540.2 197.76ZM537.68 226.24C535.04 226.24 532.907 225.493 531.28 224C529.653 222.507 528.84 220.507 528.84 218C528.84 215.2 529.707 213.133 531.44 211.8C533.173 210.44 535.52 209.76 538.48 209.76L538.6 205.96H541.76L541.92 212.28H540.76C538.12 212.28 536.053 212.68 534.56 213.48C533.067 214.28 532.32 215.787 532.32 218C532.32 219.6 532.8 220.867 533.76 221.8C534.72 222.733 536.013 223.2 537.64 223.2C539.293 223.2 540.587 222.747 541.52 221.84C542.48 220.96 542.96 219.747 542.96 218.2H546.4C546.4 219.8 546.04 221.2 545.32 222.4C544.6 223.627 543.573 224.573 542.24 225.24C540.933 225.907 539.413 226.24 537.68 226.24ZM549.462 206.04C549.462 203.32 550.076 200.88 551.302 198.72C552.529 196.533 554.196 194.827 556.302 193.6C558.436 192.373 560.796 191.76 563.382 191.76C566.422 191.76 569.076 192.493 571.342 193.96C573.609 195.427 575.262 197.507 576.302 200.2H571.942C571.169 198.52 570.049 197.227 568.582 196.32C567.142 195.413 565.409 194.96 563.382 194.96C561.436 194.96 559.689 195.413 558.142 196.32C556.596 197.227 555.382 198.52 554.502 200.2C553.622 201.853 553.182 203.8 553.182 206.04C553.182 208.253 553.622 210.2 554.502 211.88C555.382 213.533 556.596 214.813 558.142 215.72C559.689 216.627 561.436 217.08 563.382 217.08C565.409 217.08 567.142 216.64 568.582 215.76C570.049 214.853 571.169 213.56 571.942 211.88H576.302C575.262 214.547 573.609 216.613 571.342 218.08C569.076 219.52 566.422 220.24 563.382 220.24C560.796 220.24 558.436 219.64 556.302 218.44C554.196 217.213 552.529 215.52 551.302 213.36C550.076 211.2 549.462 208.76 549.462 206.04ZM591.281 220.36C589.227 220.36 587.361 219.893 585.681 218.96C584.027 218.027 582.721 216.707 581.761 215C580.827 213.267 580.361 211.267 580.361 209C580.361 206.76 580.841 204.787 581.801 203.08C582.787 201.347 584.121 200.027 585.801 199.12C587.481 198.187 589.361 197.72 591.441 197.72C593.521 197.72 595.401 198.187 597.081 199.12C598.761 200.027 600.081 201.333 601.041 203.04C602.027 204.747 602.521 206.733 602.521 209C602.521 211.267 602.014 213.267 601.001 215C600.014 216.707 598.667 218.027 596.961 218.96C595.254 219.893 593.361 220.36 591.281 220.36ZM591.281 217.16C592.587 217.16 593.814 216.853 594.961 216.24C596.107 215.627 597.027 214.707 597.721 213.48C598.441 212.253 598.801 210.76 598.801 209C598.801 207.24 598.454 205.747 597.761 204.52C597.067 203.293 596.161 202.387 595.041 201.8C593.921 201.187 592.707 200.88 591.401 200.88C590.067 200.88 588.841 201.187 587.721 201.8C586.627 202.387 585.747 203.293 585.081 204.52C584.414 205.747 584.081 207.24 584.081 209C584.081 210.787 584.401 212.293 585.041 213.52C585.707 214.747 586.587 215.667 587.681 216.28C588.774 216.867 589.974 217.16 591.281 217.16ZM617.987 197.68C620.653 197.68 622.813 198.493 624.467 200.12C626.12 201.72 626.947 204.04 626.947 207.08V220H623.347V207.6C623.347 205.413 622.8 203.747 621.707 202.6C620.613 201.427 619.12 200.84 617.227 200.84C615.307 200.84 613.773 201.44 612.627 202.64C611.507 203.84 610.947 205.587 610.947 207.88V220H607.307V198.08H610.947V201.2C611.667 200.08 612.64 199.213 613.867 198.6C615.12 197.987 616.493 197.68 617.987 197.68ZM631.533 208.96C631.533 206.72 631.986 204.76 632.893 203.08C633.799 201.373 635.039 200.053 636.613 199.12C638.213 198.187 639.999 197.72 641.973 197.72C643.679 197.72 645.266 198.12 646.733 198.92C648.199 199.693 649.319 200.72 650.093 202V190.4H653.773V220H650.093V215.88C649.373 217.187 648.306 218.267 646.893 219.12C645.479 219.947 643.826 220.36 641.933 220.36C639.986 220.36 638.213 219.88 636.613 218.92C635.039 217.96 633.799 216.613 632.893 214.88C631.986 213.147 631.533 211.173 631.533 208.96ZM650.093 209C650.093 207.347 649.759 205.907 649.093 204.68C648.426 203.453 647.519 202.52 646.373 201.88C645.253 201.213 644.013 200.88 642.653 200.88C641.293 200.88 640.053 201.2 638.933 201.84C637.813 202.48 636.919 203.413 636.253 204.64C635.586 205.867 635.253 207.307 635.253 208.96C635.253 210.64 635.586 212.107 636.253 213.36C636.919 214.587 637.813 215.533 638.933 216.2C640.053 216.84 641.293 217.16 642.653 217.16C644.013 217.16 645.253 216.84 646.373 216.2C647.519 215.533 648.426 214.587 649.093 213.36C649.759 212.107 650.093 210.653 650.093 209ZM661.804 194.52C661.11 194.52 660.524 194.28 660.044 193.8C659.564 193.32 659.324 192.733 659.324 192.04C659.324 191.347 659.564 190.76 660.044 190.28C660.524 189.8 661.11 189.56 661.804 189.56C662.47 189.56 663.03 189.8 663.484 190.28C663.964 190.76 664.204 191.347 664.204 192.04C664.204 192.733 663.964 193.32 663.484 193.8C663.03 194.28 662.47 194.52 661.804 194.52ZM663.564 198.08V220H659.924V198.08H663.564ZM668.408 209C668.408 206.733 668.861 204.76 669.768 203.08C670.674 201.373 671.928 200.053 673.528 199.12C675.154 198.187 677.008 197.72 679.088 197.72C681.781 197.72 683.994 198.373 685.728 199.68C687.488 200.987 688.648 202.8 689.208 205.12H685.288C684.914 203.787 684.181 202.733 683.088 201.96C682.021 201.187 680.688 200.8 679.088 200.8C677.008 200.8 675.328 201.52 674.048 202.96C672.768 204.373 672.128 206.387 672.128 209C672.128 211.64 672.768 213.68 674.048 215.12C675.328 216.56 677.008 217.28 679.088 217.28C680.688 217.28 682.021 216.907 683.088 216.16C684.154 215.413 684.888 214.347 685.288 212.96H689.208C688.621 215.2 687.448 217 685.688 218.36C683.928 219.693 681.728 220.36 679.088 220.36C677.008 220.36 675.154 219.893 673.528 218.96C671.928 218.027 670.674 216.707 669.768 215C668.861 213.293 668.408 211.293 668.408 209ZM695.944 194.52C695.251 194.52 694.664 194.28 694.184 193.8C693.704 193.32 693.464 192.733 693.464 192.04C693.464 191.347 693.704 190.76 694.184 190.28C694.664 189.8 695.251 189.56 695.944 189.56C696.611 189.56 697.171 189.8 697.624 190.28C698.104 190.76 698.344 191.347 698.344 192.04C698.344 192.733 698.104 193.32 697.624 193.8C697.171 194.28 696.611 194.52 695.944 194.52ZM697.704 198.08V220H694.064V198.08H697.704ZM713.468 220.36C711.415 220.36 709.548 219.893 707.868 218.96C706.215 218.027 704.908 216.707 703.948 215C703.015 213.267 702.548 211.267 702.548 209C702.548 206.76 703.028 204.787 703.988 203.08C704.975 201.347 706.308 200.027 707.988 199.12C709.668 198.187 711.548 197.72 713.628 197.72C715.708 197.72 717.588 198.187 719.268 199.12C720.948 200.027 722.268 201.333 723.228 203.04C724.215 204.747 724.708 206.733 724.708 209C724.708 211.267 724.201 213.267 723.188 215C722.201 216.707 720.855 218.027 719.148 218.96C717.441 219.893 715.548 220.36 713.468 220.36ZM713.468 217.16C714.775 217.16 716.001 216.853 717.148 216.24C718.295 215.627 719.215 214.707 719.908 213.48C720.628 212.253 720.988 210.76 720.988 209C720.988 207.24 720.641 205.747 719.948 204.52C719.255 203.293 718.348 202.387 717.228 201.8C716.108 201.187 714.895 200.88 713.588 200.88C712.255 200.88 711.028 201.187 709.908 201.8C708.815 202.387 707.935 203.293 707.268 204.52C706.601 205.747 706.268 207.24 706.268 209C706.268 210.787 706.588 212.293 707.228 213.52C707.895 214.747 708.775 215.667 709.868 216.28C710.961 216.867 712.161 217.16 713.468 217.16ZM717.548 191.6L709.028 196.16V193.44L717.548 188.44V191.6ZM740.174 197.68C742.841 197.68 745.001 198.493 746.654 200.12C748.307 201.72 749.134 204.04 749.134 207.08V220H745.534V207.6C745.534 205.413 744.987 203.747 743.894 202.6C742.801 201.427 741.307 200.84 739.414 200.84C737.494 200.84 735.961 201.44 734.814 202.64C733.694 203.84 733.134 205.587 733.134 207.88V220H729.494V198.08H733.134V201.2C733.854 200.08 734.827 199.213 736.054 198.6C737.307 197.987 738.681 197.68 740.174 197.68ZM535.252 261.64L542.052 243.08H545.932L537.332 265H533.092L524.492 243.08H528.412L535.252 261.64ZM569.514 253.2C569.514 253.893 569.474 254.627 569.394 255.4H551.874C552.007 257.56 552.74 259.253 554.074 260.48C555.434 261.68 557.074 262.28 558.994 262.28C560.567 262.28 561.874 261.92 562.914 261.2C563.98 260.453 564.727 259.467 565.154 258.24H569.074C568.487 260.347 567.314 262.067 565.554 263.4C563.794 264.707 561.607 265.36 558.994 265.36C556.914 265.36 555.047 264.893 553.394 263.96C551.767 263.027 550.487 261.707 549.554 260C548.62 258.267 548.154 256.267 548.154 254C548.154 251.733 548.607 249.747 549.514 248.04C550.42 246.333 551.687 245.027 553.314 244.12C554.967 243.187 556.86 242.72 558.994 242.72C561.074 242.72 562.914 243.173 564.514 244.08C566.114 244.987 567.34 246.24 568.194 247.84C569.074 249.413 569.514 251.2 569.514 253.2ZM565.754 252.44C565.754 251.053 565.447 249.867 564.834 248.88C564.22 247.867 563.38 247.107 562.314 246.6C561.274 246.067 560.114 245.8 558.834 245.8C556.994 245.8 555.42 246.387 554.114 247.56C552.834 248.733 552.1 250.36 551.914 252.44H565.754ZM577.958 246.64C578.598 245.387 579.505 244.413 580.678 243.72C581.878 243.027 583.332 242.68 585.038 242.68V246.44H584.078C579.998 246.44 577.958 248.653 577.958 253.08V265H574.318V243.08H577.958V246.64ZM587.88 253.96C587.88 251.72 588.333 249.76 589.24 248.08C590.147 246.373 591.387 245.053 592.96 244.12C594.56 243.187 596.347 242.72 598.32 242.72C600.027 242.72 601.613 243.12 603.08 243.92C604.547 244.693 605.667 245.72 606.44 247V235.4H610.12V265H606.44V260.88C605.72 262.187 604.653 263.267 603.24 264.12C601.827 264.947 600.173 265.36 598.28 265.36C596.333 265.36 594.56 264.88 592.96 263.92C591.387 262.96 590.147 261.613 589.24 259.88C588.333 258.147 587.88 256.173 587.88 253.96ZM606.44 254C606.44 252.347 606.107 250.907 605.44 249.68C604.773 248.453 603.867 247.52 602.72 246.88C601.6 246.213 600.36 245.88 599 245.88C597.64 245.88 596.4 246.2 595.28 246.84C594.16 247.48 593.267 248.413 592.6 249.64C591.933 250.867 591.6 252.307 591.6 253.96C591.6 255.64 591.933 257.107 592.6 258.36C593.267 259.587 594.16 260.533 595.28 261.2C596.4 261.84 597.64 262.16 599 262.16C600.36 262.16 601.6 261.84 602.72 261.2C603.867 260.533 604.773 259.587 605.44 258.36C606.107 257.107 606.44 255.653 606.44 254ZM614.911 253.96C614.911 251.72 615.365 249.76 616.271 248.08C617.178 246.373 618.418 245.053 619.991 244.12C621.591 243.187 623.365 242.72 625.311 242.72C627.231 242.72 628.898 243.133 630.311 243.96C631.725 244.787 632.778 245.827 633.471 247.08V243.08H637.151V265H633.471V260.92C632.751 262.2 631.671 263.267 630.231 264.12C628.818 264.947 627.165 265.36 625.271 265.36C623.325 265.36 621.565 264.88 619.991 263.92C618.418 262.96 617.178 261.613 616.271 259.88C615.365 258.147 614.911 256.173 614.911 253.96ZM633.471 254C633.471 252.347 633.138 250.907 632.471 249.68C631.805 248.453 630.898 247.52 629.751 246.88C628.631 246.213 627.391 245.88 626.031 245.88C624.671 245.88 623.431 246.2 622.311 246.84C621.191 247.48 620.298 248.413 619.631 249.64C618.965 250.867 618.631 252.307 618.631 253.96C618.631 255.64 618.965 257.107 619.631 258.36C620.298 259.587 621.191 260.533 622.311 261.2C623.431 261.84 624.671 262.16 626.031 262.16C627.391 262.16 628.631 261.84 629.751 261.2C630.898 260.533 631.805 259.587 632.471 258.36C633.138 257.107 633.471 255.653 633.471 254ZM641.943 253.96C641.943 251.72 642.396 249.76 643.303 248.08C644.209 246.373 645.449 245.053 647.023 244.12C648.623 243.187 650.409 242.72 652.383 242.72C654.089 242.72 655.676 243.12 657.143 243.92C658.609 244.693 659.729 245.72 660.503 247V235.4H664.183V265H660.503V260.88C659.783 262.187 658.716 263.267 657.303 264.12C655.889 264.947 654.236 265.36 652.343 265.36C650.396 265.36 648.623 264.88 647.023 263.92C645.449 262.96 644.209 261.613 643.303 259.88C642.396 258.147 641.943 256.173 641.943 253.96ZM660.503 254C660.503 252.347 660.169 250.907 659.503 249.68C658.836 248.453 657.929 247.52 656.783 246.88C655.663 246.213 654.423 245.88 653.063 245.88C651.703 245.88 650.463 246.2 649.343 246.84C648.223 247.48 647.329 248.413 646.663 249.64C645.996 250.867 645.663 252.307 645.663 253.96C645.663 255.64 645.996 257.107 646.663 258.36C647.329 259.587 648.223 260.533 649.343 261.2C650.463 261.84 651.703 262.16 653.063 262.16C654.423 262.16 655.663 261.84 656.783 261.2C657.929 260.533 658.836 259.587 659.503 258.36C660.169 257.107 660.503 255.653 660.503 254ZM690.334 253.2C690.334 253.893 690.294 254.627 690.214 255.4H672.694C672.827 257.56 673.561 259.253 674.894 260.48C676.254 261.68 677.894 262.28 679.814 262.28C681.387 262.28 682.694 261.92 683.734 261.2C684.801 260.453 685.547 259.467 685.974 258.24H689.894C689.307 260.347 688.134 262.067 686.374 263.4C684.614 264.707 682.427 265.36 679.814 265.36C677.734 265.36 675.867 264.893 674.214 263.96C672.587 263.027 671.307 261.707 670.374 260C669.441 258.267 668.974 256.267 668.974 254C668.974 251.733 669.427 249.747 670.334 248.04C671.241 246.333 672.507 245.027 674.134 244.12C675.787 243.187 677.681 242.72 679.814 242.72C681.894 242.72 683.734 243.173 685.334 244.08C686.934 244.987 688.161 246.24 689.014 247.84C689.894 249.413 690.334 251.2 690.334 253.2ZM686.574 252.44C686.574 251.053 686.267 249.867 685.654 248.88C685.041 247.867 684.201 247.107 683.134 246.6C682.094 246.067 680.934 245.8 679.654 245.8C677.814 245.8 676.241 246.387 674.934 247.56C673.654 248.733 672.921 250.36 672.734 252.44H686.574ZM698.779 246.64C699.419 245.387 700.325 244.413 701.499 243.72C702.699 243.027 704.152 242.68 705.859 242.68V246.44H704.899C700.819 246.44 698.779 248.653 698.779 253.08V265H695.139V243.08H698.779V246.64ZM708.7 253.96C708.7 251.72 709.154 249.76 710.06 248.08C710.967 246.373 712.207 245.053 713.78 244.12C715.38 243.187 717.154 242.72 719.1 242.72C721.02 242.72 722.687 243.133 724.1 243.96C725.514 244.787 726.567 245.827 727.26 247.08V243.08H730.94V265H727.26V260.92C726.54 262.2 725.46 263.267 724.02 264.12C722.607 264.947 720.954 265.36 719.06 265.36C717.114 265.36 715.354 264.88 713.78 263.92C712.207 262.96 710.967 261.613 710.06 259.88C709.154 258.147 708.7 256.173 708.7 253.96ZM727.26 254C727.26 252.347 726.927 250.907 726.26 249.68C725.594 248.453 724.687 247.52 723.54 246.88C722.42 246.213 721.18 245.88 719.82 245.88C718.46 245.88 717.22 246.2 716.1 246.84C714.98 247.48 714.087 248.413 713.42 249.64C712.754 250.867 712.42 252.307 712.42 253.96C712.42 255.64 712.754 257.107 713.42 258.36C714.087 259.587 714.98 260.533 716.1 261.2C717.22 261.84 718.46 262.16 719.82 262.16C721.18 262.16 722.42 261.84 723.54 261.2C724.687 260.533 725.594 259.587 726.26 258.36C726.927 257.107 727.26 255.653 727.26 254ZM744.212 236.76C746.852 236.76 748.985 237.507 750.612 239C752.238 240.493 753.052 242.493 753.052 245C753.052 247.8 752.185 249.88 750.452 251.24C748.718 252.573 746.372 253.24 743.412 253.24L743.292 257.04H740.132L739.972 250.72H741.132C743.772 250.72 745.838 250.32 747.332 249.52C748.825 248.72 749.572 247.213 749.572 245C749.572 243.4 749.092 242.133 748.132 241.2C747.172 240.267 745.878 239.8 744.252 239.8C742.598 239.8 741.292 240.253 740.332 241.16C739.398 242.04 738.932 243.253 738.932 244.8H735.492C735.492 243.2 735.852 241.8 736.572 240.6C737.292 239.373 738.305 238.427 739.612 237.76C740.945 237.093 742.478 236.76 744.212 236.76ZM741.692 265.24C740.998 265.24 740.412 265 739.932 264.52C739.452 264.04 739.212 263.453 739.212 262.76C739.212 262.067 739.452 261.48 739.932 261C740.412 260.52 740.998 260.28 741.692 260.28C742.358 260.28 742.918 260.52 743.372 261C743.852 261.48 744.092 262.067 744.092 262.76C744.092 263.453 743.852 264.04 743.372 264.52C742.918 265 742.358 265.24 741.692 265.24Z" fill="#ECFAFF"/>
<rect x="879" y="446" width="310" height="100" fill="#868FD5"/>
<path d="M912.985 488.28V493.88H920.505V497.432H912.985V503.352H921.465V507H908.505V484.632H921.465V488.28H912.985ZM927.808 487.16C926.997 487.16 926.325 486.915 925.792 486.424C925.28 485.912 925.024 485.283 925.024 484.536C925.024 483.789 925.28 483.171 925.792 482.68C926.325 482.168 926.997 481.912 927.808 481.912C928.597 481.912 929.248 482.168 929.76 482.68C930.272 483.171 930.528 483.789 930.528 484.536C930.528 485.283 930.272 485.912 929.76 486.424C929.248 486.915 928.597 487.16 927.808 487.16ZM930.016 509.912C930.016 511.875 929.525 513.283 928.544 514.136C927.584 515.011 926.197 515.448 924.384 515.448H922.4V511.64H923.68C924.363 511.64 924.843 511.501 925.12 511.224C925.397 510.968 925.536 510.541 925.536 509.944V489.272H930.016V509.912ZM950.922 497.752C950.922 498.392 950.88 498.968 950.794 499.48H937.834C937.941 500.76 938.389 501.763 939.178 502.488C939.968 503.213 940.938 503.576 942.09 503.576C943.754 503.576 944.938 502.861 945.642 501.432H950.474C949.962 503.139 948.981 504.547 947.53 505.656C946.08 506.744 944.298 507.288 942.186 507.288C940.48 507.288 938.944 506.915 937.578 506.168C936.234 505.4 935.178 504.323 934.41 502.936C933.664 501.549 933.29 499.949 933.29 498.136C933.29 496.301 933.664 494.691 934.41 493.304C935.157 491.917 936.202 490.851 937.546 490.104C938.89 489.357 940.437 488.984 942.186 488.984C943.872 488.984 945.376 489.347 946.698 490.072C948.042 490.797 949.077 491.832 949.802 493.176C950.549 494.499 950.922 496.024 950.922 497.752ZM946.282 496.472C946.261 495.32 945.845 494.403 945.034 493.72C944.224 493.016 943.232 492.664 942.058 492.664C940.949 492.664 940.01 493.005 939.242 493.688C938.496 494.349 938.037 495.277 937.866 496.472H946.282ZM953.04 498.136C953.04 496.301 953.414 494.701 954.16 493.336C954.907 491.949 955.942 490.883 957.264 490.136C958.587 489.368 960.102 488.984 961.808 488.984C964.006 488.984 965.819 489.539 967.248 490.648C968.699 491.736 969.67 493.272 970.16 495.256H965.328C965.072 494.488 964.635 493.891 964.016 493.464C963.419 493.016 962.672 492.792 961.776 492.792C960.496 492.792 959.483 493.261 958.736 494.2C957.99 495.117 957.616 496.429 957.616 498.136C957.616 499.821 957.99 501.133 958.736 502.072C959.483 502.989 960.496 503.448 961.776 503.448C963.59 503.448 964.774 502.637 965.328 501.016H970.16C969.67 502.936 968.699 504.461 967.248 505.592C965.798 506.723 963.984 507.288 961.808 507.288C960.102 507.288 958.587 506.915 957.264 506.168C955.942 505.4 954.907 504.333 954.16 502.968C953.414 501.581 953.04 499.971 953.04 498.136ZM990.178 489.272V507H985.666V504.76C985.09 505.528 984.333 506.136 983.394 506.584C982.477 507.011 981.474 507.224 980.386 507.224C979 507.224 977.773 506.936 976.706 506.36C975.64 505.763 974.797 504.899 974.178 503.768C973.581 502.616 973.282 501.251 973.282 499.672V489.272H977.762V499.032C977.762 500.44 978.114 501.528 978.818 502.296C979.522 503.043 980.482 503.416 981.698 503.416C982.936 503.416 983.906 503.043 984.61 502.296C985.314 501.528 985.666 500.44 985.666 499.032V489.272H990.178ZM999.815 492.952V501.528C999.815 502.125 999.953 502.563 1000.23 502.84C1000.53 503.096 1001.02 503.224 1001.7 503.224H1003.78V507H1000.97C997.191 507 995.303 505.165 995.303 501.496V492.952H993.191V489.272H995.303V484.888H999.815V489.272H1003.78V492.952H999.815ZM1005.85 498.072C1005.85 496.28 1006.2 494.691 1006.91 493.304C1007.63 491.917 1008.6 490.851 1009.82 490.104C1011.06 489.357 1012.43 488.984 1013.95 488.984C1015.27 488.984 1016.42 489.251 1017.4 489.784C1018.41 490.317 1019.21 490.989 1019.8 491.8V489.272H1024.32V507H1019.8V504.408C1019.23 505.24 1018.43 505.933 1017.4 506.488C1016.4 507.021 1015.24 507.288 1013.92 507.288C1012.42 507.288 1011.06 506.904 1009.82 506.136C1008.6 505.368 1007.63 504.291 1006.91 502.904C1006.2 501.496 1005.85 499.885 1005.85 498.072ZM1019.8 498.136C1019.8 497.048 1019.59 496.12 1019.16 495.352C1018.74 494.563 1018.16 493.965 1017.44 493.56C1016.71 493.133 1015.93 492.92 1015.1 492.92C1014.27 492.92 1013.5 493.123 1012.8 493.528C1012.09 493.933 1011.52 494.531 1011.07 495.32C1010.64 496.088 1010.43 497.005 1010.43 498.072C1010.43 499.139 1010.64 500.077 1011.07 500.888C1011.52 501.677 1012.09 502.285 1012.8 502.712C1013.52 503.139 1014.29 503.352 1015.1 503.352C1015.93 503.352 1016.71 503.149 1017.44 502.744C1018.16 502.317 1018.74 501.72 1019.16 500.952C1019.59 500.163 1019.8 499.224 1019.8 498.136ZM1033.17 492.024C1033.75 491.085 1034.5 490.349 1035.41 489.816C1036.35 489.283 1037.42 489.016 1038.61 489.016V493.72H1037.43C1036.02 493.72 1034.95 494.051 1034.23 494.712C1033.52 495.373 1033.17 496.525 1033.17 498.168V507H1028.69V489.272H1033.17V492.024ZM1048.17 495.8C1048.17 493.603 1048.66 491.64 1049.64 489.912C1050.64 488.163 1052 486.808 1053.7 485.848C1055.43 484.867 1057.36 484.376 1059.49 484.376C1061.99 484.376 1064.18 485.016 1066.05 486.296C1067.93 487.576 1069.24 489.347 1069.99 491.608H1064.84C1064.33 490.541 1063.6 489.741 1062.66 489.208C1061.75 488.675 1060.68 488.408 1059.46 488.408C1058.16 488.408 1057 488.717 1055.97 489.336C1054.97 489.933 1054.18 490.787 1053.61 491.896C1053.05 493.005 1052.77 494.307 1052.77 495.8C1052.77 497.272 1053.05 498.573 1053.61 499.704C1054.18 500.813 1054.97 501.677 1055.97 502.296C1057 502.893 1058.16 503.192 1059.46 503.192C1060.68 503.192 1061.75 502.925 1062.66 502.392C1063.6 501.837 1064.33 501.027 1064.84 499.96H1069.99C1069.24 502.243 1067.93 504.024 1066.05 505.304C1064.2 506.563 1062.01 507.192 1059.49 507.192C1057.36 507.192 1055.43 506.712 1053.7 505.752C1052 504.771 1050.64 503.416 1049.64 501.688C1048.66 499.96 1048.17 497.997 1048.17 495.8ZM1081.69 507.288C1079.98 507.288 1078.45 506.915 1077.08 506.168C1075.72 505.4 1074.64 504.323 1073.85 502.936C1073.08 501.549 1072.7 499.949 1072.7 498.136C1072.7 496.323 1073.09 494.723 1073.88 493.336C1074.69 491.949 1075.79 490.883 1077.18 490.136C1078.56 489.368 1080.11 488.984 1081.82 488.984C1083.52 488.984 1085.07 489.368 1086.46 490.136C1087.84 490.883 1088.93 491.949 1089.72 493.336C1090.53 494.723 1090.94 496.323 1090.94 498.136C1090.94 499.949 1090.52 501.549 1089.69 502.936C1088.88 504.323 1087.77 505.4 1086.36 506.168C1084.97 506.915 1083.42 507.288 1081.69 507.288ZM1081.69 503.384C1082.5 503.384 1083.26 503.192 1083.96 502.808C1084.69 502.403 1085.26 501.805 1085.69 501.016C1086.12 500.227 1086.33 499.267 1086.33 498.136C1086.33 496.451 1085.88 495.16 1084.99 494.264C1084.11 493.347 1083.03 492.888 1081.75 492.888C1080.47 492.888 1079.4 493.347 1078.52 494.264C1077.67 495.16 1077.24 496.451 1077.24 498.136C1077.24 499.821 1077.66 501.123 1078.49 502.04C1079.34 502.936 1080.41 503.384 1081.69 503.384ZM1085.5 484.44L1078.14 487.8V484.6L1085.5 480.792V484.44ZM1093.07 498.072C1093.07 496.28 1093.42 494.691 1094.13 493.304C1094.85 491.917 1095.83 490.851 1097.07 490.104C1098.31 489.357 1099.68 488.984 1101.2 488.984C1102.35 488.984 1103.45 489.24 1104.5 489.752C1105.54 490.243 1106.37 490.904 1106.99 491.736V483.32H1111.54V507H1106.99V504.376C1106.44 505.251 1105.66 505.955 1104.66 506.488C1103.65 507.021 1102.49 507.288 1101.17 507.288C1099.67 507.288 1098.31 506.904 1097.07 506.136C1095.83 505.368 1094.85 504.291 1094.13 502.904C1093.42 501.496 1093.07 499.885 1093.07 498.072ZM1107.02 498.136C1107.02 497.048 1106.81 496.12 1106.38 495.352C1105.96 494.563 1105.38 493.965 1104.66 493.56C1103.93 493.133 1103.15 492.92 1102.32 492.92C1101.49 492.92 1100.72 493.123 1100.02 493.528C1099.31 493.933 1098.74 494.531 1098.29 495.32C1097.86 496.088 1097.65 497.005 1097.65 498.072C1097.65 499.139 1097.86 500.077 1098.29 500.888C1098.74 501.677 1099.31 502.285 1100.02 502.712C1100.74 503.139 1101.51 503.352 1102.32 503.352C1103.15 503.352 1103.93 503.149 1104.66 502.744C1105.38 502.317 1105.96 501.72 1106.38 500.952C1106.81 500.163 1107.02 499.224 1107.02 498.136ZM1118.18 487.16C1117.39 487.16 1116.73 486.915 1116.2 486.424C1115.69 485.912 1115.43 485.283 1115.43 484.536C1115.43 483.789 1115.69 483.171 1116.2 482.68C1116.73 482.168 1117.39 481.912 1118.18 481.912C1118.97 481.912 1119.62 482.168 1120.14 482.68C1120.67 483.171 1120.94 483.789 1120.94 484.536C1120.94 485.283 1120.67 485.912 1120.14 486.424C1119.62 486.915 1118.97 487.16 1118.18 487.16ZM1120.39 489.272V507H1115.91V489.272H1120.39ZM1131.76 488.984C1133.08 488.984 1134.25 489.251 1135.25 489.784C1136.25 490.296 1137.04 490.968 1137.62 491.8V489.272H1142.13V507.128C1142.13 508.771 1141.8 510.232 1141.14 511.512C1140.48 512.813 1139.48 513.837 1138.16 514.584C1136.84 515.352 1135.24 515.736 1133.36 515.736C1130.84 515.736 1128.77 515.149 1127.15 513.976C1125.55 512.803 1124.65 511.203 1124.43 509.176H1128.88C1129.12 509.987 1129.62 510.627 1130.39 511.096C1131.17 511.587 1132.12 511.832 1133.23 511.832C1134.53 511.832 1135.59 511.437 1136.4 510.648C1137.21 509.88 1137.62 508.707 1137.62 507.128V504.376C1137.04 505.208 1136.24 505.901 1135.22 506.456C1134.21 507.011 1133.06 507.288 1131.76 507.288C1130.27 507.288 1128.9 506.904 1127.67 506.136C1126.43 505.368 1125.45 504.291 1124.72 502.904C1124.02 501.496 1123.67 499.885 1123.67 498.072C1123.67 496.28 1124.02 494.691 1124.72 493.304C1125.45 491.917 1126.42 490.851 1127.63 490.104C1128.87 489.357 1130.25 488.984 1131.76 488.984ZM1137.62 498.136C1137.62 497.048 1137.4 496.12 1136.98 495.352C1136.55 494.563 1135.97 493.965 1135.25 493.56C1134.52 493.133 1133.75 492.92 1132.91 492.92C1132.08 492.92 1131.31 493.123 1130.61 493.528C1129.91 493.933 1129.33 494.531 1128.88 495.32C1128.45 496.088 1128.24 497.005 1128.24 498.072C1128.24 499.139 1128.45 500.077 1128.88 500.888C1129.33 501.677 1129.91 502.285 1130.61 502.712C1131.33 503.139 1132.1 503.352 1132.91 503.352C1133.75 503.352 1134.52 503.149 1135.25 502.744C1135.97 502.317 1136.55 501.72 1136.98 500.952C1137.4 500.163 1137.62 499.224 1137.62 498.136ZM1154.38 507.288C1152.67 507.288 1151.13 506.915 1149.77 506.168C1148.4 505.4 1147.33 504.323 1146.54 502.936C1145.77 501.549 1145.38 499.949 1145.38 498.136C1145.38 496.323 1145.78 494.723 1146.57 493.336C1147.38 491.949 1148.48 490.883 1149.86 490.136C1151.25 489.368 1152.8 488.984 1154.5 488.984C1156.21 488.984 1157.76 489.368 1159.14 490.136C1160.53 490.883 1161.62 491.949 1162.41 493.336C1163.22 494.723 1163.62 496.323 1163.62 498.136C1163.62 499.949 1163.21 501.549 1162.38 502.936C1161.57 504.323 1160.46 505.4 1159.05 506.168C1157.66 506.915 1156.1 507.288 1154.38 507.288ZM1154.38 503.384C1155.19 503.384 1155.94 503.192 1156.65 502.808C1157.37 502.403 1157.95 501.805 1158.38 501.016C1158.8 500.227 1159.02 499.267 1159.02 498.136C1159.02 496.451 1158.57 495.16 1157.67 494.264C1156.8 493.347 1155.72 492.888 1154.44 492.888C1153.16 492.888 1152.08 493.347 1151.21 494.264C1150.36 495.16 1149.93 496.451 1149.93 498.136C1149.93 499.821 1150.34 501.123 1151.18 502.04C1152.03 502.936 1153.1 503.384 1154.38 503.384Z" fill="#ECFAFF"/>
<path fill-rule="evenodd" clip-rule="evenodd" d="M868.008 205.001H989.534C1007.36 205.001 1024.45 212.077 1037.05 224.67C1049.66 237.263 1056.74 254.343 1056.74 272.153V372.372H1083L1039.75 416L996.506 372.372H1022.77V272.153C1022.77 263.345 1019.27 254.898 1013.03 248.67C1006.8 242.442 998.348 238.942 989.534 238.94H868L868.008 205.001Z" fill="#1E5C93"/>
<path fill-rule="evenodd" clip-rule="evenodd" d="M402.992 205.001H281.466C263.643 205.001 246.55 212.077 233.948 224.67C221.345 237.263 214.264 254.343 214.264 272.153V372.372H188L231.251 416L274.494 372.372H248.229V272.153C248.231 263.345 251.733 254.898 257.966 248.67C264.199 242.442 272.652 238.942 281.466 238.94H403L402.992 205.001Z" fill="#1E5C93"/>
<path d="M963.614 153.418C960.549 153.418 957.803 152.92 955.376 151.925C952.948 150.93 950.998 149.458 949.525 147.508C948.092 145.558 947.336 143.21 947.257 140.463H958.122C958.281 142.016 958.818 143.21 959.734 144.045C960.649 144.841 961.843 145.239 963.315 145.239C964.828 145.239 966.022 144.901 966.897 144.224C967.773 143.508 968.211 142.533 968.211 141.299C968.211 140.264 967.852 139.409 967.136 138.732C966.459 138.056 965.604 137.498 964.569 137.061C963.574 136.623 962.141 136.125 960.271 135.568C957.564 134.732 955.356 133.897 953.644 133.061C951.933 132.225 950.46 130.991 949.227 129.36C947.993 127.728 947.376 125.599 947.376 122.972C947.376 119.072 948.789 116.027 951.615 113.838C954.44 111.609 958.122 110.495 962.659 110.495C967.275 110.495 970.997 111.609 973.822 113.838C976.648 116.027 978.16 119.092 978.359 123.032H967.315C967.236 121.678 966.738 120.624 965.823 119.868C964.907 119.072 963.733 118.674 962.301 118.674C961.067 118.674 960.072 119.012 959.316 119.689C958.559 120.325 958.181 121.261 958.181 122.494C958.181 123.847 958.818 124.902 960.092 125.658C961.365 126.414 963.355 127.23 966.062 128.106C968.768 129.021 970.957 129.897 972.628 130.733C974.34 131.568 975.812 132.782 977.046 134.374C978.28 135.966 978.897 138.016 978.897 140.523C978.897 142.911 978.28 145.08 977.046 147.03C975.852 148.98 974.101 150.532 971.793 151.687C969.484 152.841 966.758 153.418 963.614 153.418ZM996.163 119.689V153H985.955V119.689H996.163ZM998.014 111.39L983.627 117.42V110.376L998.014 103.451V111.39Z" fill="#1E5C93"/>
<path d="M357.745 153H347.537L330.463 127.151V153H320.255V111.092H330.463L347.537 137.061V111.092H357.745V153ZM380.308 153.478C377.045 153.478 374.1 152.781 371.473 151.388C368.886 149.995 366.836 148.005 365.324 145.418C363.851 142.831 363.115 139.807 363.115 136.344C363.115 132.922 363.871 129.917 365.384 127.33C366.896 124.703 368.965 122.693 371.592 121.3C374.219 119.907 377.164 119.211 380.428 119.211C383.691 119.211 386.636 119.907 389.263 121.3C391.89 122.693 393.959 124.703 395.471 127.33C396.984 129.917 397.74 132.922 397.74 136.344C397.74 139.767 396.964 142.792 395.412 145.418C393.899 148.005 391.81 149.995 389.143 151.388C386.517 152.781 383.572 153.478 380.308 153.478ZM380.308 144.642C382.258 144.642 383.91 143.926 385.263 142.493C386.656 141.06 387.352 139.011 387.352 136.344C387.352 133.678 386.676 131.628 385.323 130.195C384.009 128.763 382.378 128.046 380.428 128.046C378.438 128.046 376.786 128.763 375.473 130.195C374.159 131.588 373.503 133.638 373.503 136.344C373.503 139.011 374.139 141.06 375.413 142.493C376.726 143.926 378.358 144.642 380.308 144.642Z" fill="#1E5C93"/>
<path d="M155.882 494L150.042 483.4H148.402V494H141.562V465.92H153.042C155.255 465.92 157.135 466.307 158.682 467.08C160.255 467.853 161.429 468.92 162.202 470.28C162.975 471.613 163.362 473.107 163.362 474.76C163.362 476.627 162.829 478.293 161.762 479.76C160.722 481.227 159.175 482.267 157.122 482.88L163.602 494H155.882ZM148.402 478.56H152.642C153.895 478.56 154.829 478.253 155.442 477.64C156.082 477.027 156.402 476.16 156.402 475.04C156.402 473.973 156.082 473.133 155.442 472.52C154.829 471.907 153.895 471.6 152.642 471.6H148.402V478.56ZM188.696 482.48C188.696 483.12 188.656 483.787 188.576 484.48H173.096C173.202 485.867 173.642 486.933 174.416 487.68C175.216 488.4 176.189 488.76 177.336 488.76C179.042 488.76 180.229 488.04 180.896 486.6H188.176C187.802 488.067 187.122 489.387 186.136 490.56C185.176 491.733 183.962 492.653 182.496 493.32C181.029 493.987 179.389 494.32 177.576 494.32C175.389 494.32 173.442 493.853 171.736 492.92C170.029 491.987 168.696 490.653 167.736 488.92C166.776 487.187 166.296 485.16 166.296 482.84C166.296 480.52 166.762 478.493 167.696 476.76C168.656 475.027 169.989 473.693 171.696 472.76C173.402 471.827 175.362 471.36 177.576 471.36C179.736 471.36 181.656 471.813 183.336 472.72C185.016 473.627 186.322 474.92 187.256 476.6C188.216 478.28 188.696 480.24 188.696 482.48ZM181.696 480.68C181.696 479.507 181.296 478.573 180.496 477.88C179.696 477.187 178.696 476.84 177.496 476.84C176.349 476.84 175.376 477.173 174.576 477.84C173.802 478.507 173.322 479.453 173.136 480.68H181.696ZM201.384 494.32C199.438 494.32 197.704 493.987 196.184 493.32C194.664 492.653 193.464 491.747 192.584 490.6C191.704 489.427 191.211 488.12 191.104 486.68H197.864C197.944 487.453 198.304 488.08 198.944 488.56C199.584 489.04 200.371 489.28 201.304 489.28C202.158 489.28 202.811 489.12 203.264 488.8C203.744 488.453 203.984 488.013 203.984 487.48C203.984 486.84 203.651 486.373 202.984 486.08C202.318 485.76 201.238 485.413 199.744 485.04C198.144 484.667 196.811 484.28 195.744 483.88C194.678 483.453 193.758 482.8 192.984 481.92C192.211 481.013 191.824 479.8 191.824 478.28C191.824 477 192.171 475.84 192.864 474.8C193.584 473.733 194.624 472.893 195.984 472.28C197.371 471.667 199.011 471.36 200.904 471.36C203.704 471.36 205.904 472.053 207.504 473.44C209.131 474.827 210.064 476.667 210.304 478.96H203.984C203.878 478.187 203.531 477.573 202.944 477.12C202.384 476.667 201.638 476.44 200.704 476.44C199.904 476.44 199.291 476.6 198.864 476.92C198.438 477.213 198.224 477.627 198.224 478.16C198.224 478.8 198.558 479.28 199.224 479.6C199.918 479.92 200.984 480.24 202.424 480.56C204.078 480.987 205.424 481.413 206.464 481.84C207.504 482.24 208.411 482.907 209.184 483.84C209.984 484.747 210.398 485.973 210.424 487.52C210.424 488.827 210.051 490 209.304 491.04C208.584 492.053 207.531 492.853 206.144 493.44C204.784 494.027 203.198 494.32 201.384 494.32ZM227.049 488.2V494H223.569C221.089 494 219.156 493.4 217.769 492.2C216.382 490.973 215.689 488.987 215.689 486.24V477.36H212.969V471.68H215.689V466.24H222.529V471.68H227.009V477.36H222.529V486.32C222.529 486.987 222.689 487.467 223.009 487.76C223.329 488.053 223.862 488.2 224.609 488.2H227.049ZM241.019 494.32C238.832 494.32 236.859 493.853 235.099 492.92C233.366 491.987 231.992 490.653 230.979 488.92C229.992 487.187 229.499 485.16 229.499 482.84C229.499 480.547 230.006 478.533 231.019 476.8C232.032 475.04 233.419 473.693 235.179 472.76C236.939 471.827 238.912 471.36 241.099 471.36C243.286 471.36 245.259 471.827 247.019 472.76C248.779 473.693 250.166 475.04 251.179 476.8C252.192 478.533 252.699 480.547 252.699 482.84C252.699 485.133 252.179 487.16 251.139 488.92C250.126 490.653 248.726 491.987 246.939 492.92C245.179 493.853 243.206 494.32 241.019 494.32ZM241.019 488.4C242.326 488.4 243.432 487.92 244.339 486.96C245.272 486 245.739 484.627 245.739 482.84C245.739 481.053 245.286 479.68 244.379 478.72C243.499 477.76 242.406 477.28 241.099 477.28C239.766 477.28 238.659 477.76 237.779 478.72C236.899 479.653 236.459 481.027 236.459 482.84C236.459 484.627 236.886 486 237.739 486.96C238.619 487.92 239.712 488.4 241.019 488.4ZM263.444 482.8C263.444 480.507 263.871 478.493 264.724 476.76C265.604 475.027 266.791 473.693 268.284 472.76C269.778 471.827 271.444 471.36 273.284 471.36C274.751 471.36 276.084 471.667 277.284 472.28C278.511 472.893 279.471 473.72 280.164 474.76V464.4H287.004V494H280.164V490.8C279.524 491.867 278.604 492.72 277.404 493.36C276.231 494 274.858 494.32 273.284 494.32C271.444 494.32 269.778 493.853 268.284 492.92C266.791 491.96 265.604 490.613 264.724 488.88C263.871 487.12 263.444 485.093 263.444 482.8ZM280.164 482.84C280.164 481.133 279.684 479.787 278.724 478.8C277.791 477.813 276.644 477.32 275.284 477.32C273.924 477.32 272.764 477.813 271.804 478.8C270.871 479.76 270.404 481.093 270.404 482.8C270.404 484.507 270.871 485.867 271.804 486.88C272.764 487.867 273.924 488.36 275.284 488.36C276.644 488.36 277.791 487.867 278.724 486.88C279.684 485.893 280.164 484.547 280.164 482.84ZM312.993 482.48C312.993 483.12 312.953 483.787 312.873 484.48H297.393C297.499 485.867 297.939 486.933 298.713 487.68C299.513 488.4 300.486 488.76 301.633 488.76C303.339 488.76 304.526 488.04 305.193 486.6H312.473C312.099 488.067 311.419 489.387 310.433 490.56C309.473 491.733 308.259 492.653 306.793 493.32C305.326 493.987 303.686 494.32 301.873 494.32C299.686 494.32 297.739 493.853 296.033 492.92C294.326 491.987 292.993 490.653 292.033 488.92C291.073 487.187 290.593 485.16 290.593 482.84C290.593 480.52 291.059 478.493 291.993 476.76C292.953 475.027 294.286 473.693 295.993 472.76C297.699 471.827 299.659 471.36 301.873 471.36C304.033 471.36 305.953 471.813 307.633 472.72C309.313 473.627 310.619 474.92 311.553 476.6C312.513 478.28 312.993 480.24 312.993 482.48ZM305.993 480.68C305.993 479.507 305.593 478.573 304.793 477.88C303.993 477.187 302.993 476.84 301.793 476.84C300.646 476.84 299.673 477.173 298.873 477.84C298.099 478.507 297.619 479.453 297.433 480.68H305.993ZM323.441 464.4V494H316.601V464.4H323.441ZM136.508 528.84C137.174 527.8 138.094 526.96 139.268 526.32C140.441 525.68 141.814 525.36 143.388 525.36C145.228 525.36 146.894 525.827 148.388 526.76C149.881 527.693 151.054 529.027 151.908 530.76C152.788 532.493 153.228 534.507 153.228 536.8C153.228 539.093 152.788 541.12 151.908 542.88C151.054 544.613 149.881 545.96 148.388 546.92C146.894 547.853 145.228 548.32 143.388 548.32C141.841 548.32 140.468 548 139.268 547.36C138.094 546.72 137.174 545.893 136.508 544.88V558.64H129.668V525.68H136.508V528.84ZM146.268 536.8C146.268 535.093 145.788 533.76 144.828 532.8C143.894 531.813 142.734 531.32 141.348 531.32C139.988 531.32 138.828 531.813 137.868 532.8C136.934 533.787 136.468 535.133 136.468 536.84C136.468 538.547 136.934 539.893 137.868 540.88C138.828 541.867 139.988 542.36 141.348 542.36C142.708 542.36 143.868 541.867 144.828 540.88C145.788 539.867 146.268 538.507 146.268 536.8ZM163.656 529.4C164.456 528.173 165.456 527.213 166.656 526.52C167.856 525.8 169.189 525.44 170.656 525.44V532.68H168.776C167.069 532.68 165.789 533.053 164.936 533.8C164.083 534.52 163.656 535.8 163.656 537.64V548H156.816V525.68H163.656V529.4ZM184.085 548.32C181.899 548.32 179.925 547.853 178.165 546.92C176.432 545.987 175.059 544.653 174.045 542.92C173.059 541.187 172.565 539.16 172.565 536.84C172.565 534.547 173.072 532.533 174.085 530.8C175.099 529.04 176.485 527.693 178.245 526.76C180.005 525.827 181.979 525.36 184.165 525.36C186.352 525.36 188.325 525.827 190.085 526.76C191.845 527.693 193.232 529.04 194.245 530.8C195.259 532.533 195.765 534.547 195.765 536.84C195.765 539.133 195.245 541.16 194.205 542.92C193.192 544.653 191.792 545.987 190.005 546.92C188.245 547.853 186.272 548.32 184.085 548.32ZM184.085 542.4C185.392 542.4 186.499 541.92 187.405 540.96C188.339 540 188.805 538.627 188.805 536.84C188.805 535.053 188.352 533.68 187.445 532.72C186.565 531.76 185.472 531.28 184.165 531.28C182.832 531.28 181.725 531.76 180.845 532.72C179.965 533.653 179.525 535.027 179.525 536.84C179.525 538.627 179.952 540 180.805 540.96C181.685 541.92 182.779 542.4 184.085 542.4ZM207.874 525.36C209.447 525.36 210.821 525.68 211.994 526.32C213.194 526.96 214.114 527.8 214.754 528.84V525.68H221.594V547.96C221.594 550.013 221.181 551.867 220.354 553.52C219.554 555.2 218.314 556.533 216.634 557.52C214.981 558.507 212.914 559 210.434 559C207.127 559 204.447 558.213 202.394 556.64C200.341 555.093 199.167 552.987 198.874 550.32H205.634C205.847 551.173 206.354 551.84 207.154 552.32C207.954 552.827 208.941 553.08 210.114 553.08C211.527 553.08 212.647 552.667 213.474 551.84C214.327 551.04 214.754 549.747 214.754 547.96V544.8C214.087 545.84 213.167 546.693 211.994 547.36C210.821 548 209.447 548.32 207.874 548.32C206.034 548.32 204.367 547.853 202.874 546.92C201.381 545.96 200.194 544.613 199.314 542.88C198.461 541.12 198.034 539.093 198.034 536.8C198.034 534.507 198.461 532.493 199.314 530.76C200.194 529.027 201.381 527.693 202.874 526.76C204.367 525.827 206.034 525.36 207.874 525.36ZM214.754 536.84C214.754 535.133 214.274 533.787 213.314 532.8C212.381 531.813 211.234 531.32 209.874 531.32C208.514 531.32 207.354 531.813 206.394 532.8C205.461 533.76 204.994 535.093 204.994 536.8C204.994 538.507 205.461 539.867 206.394 540.88C207.354 541.867 208.514 542.36 209.874 542.36C211.234 542.36 212.381 541.867 213.314 540.88C214.274 539.893 214.754 538.547 214.754 536.84ZM233.383 529.4C234.183 528.173 235.183 527.213 236.383 526.52C237.583 525.8 238.916 525.44 240.383 525.44V532.68H238.503C236.796 532.68 235.516 533.053 234.663 533.8C233.809 534.52 233.383 535.8 233.383 537.64V548H226.543V525.68H233.383V529.4ZM242.292 536.8C242.292 534.507 242.719 532.493 243.572 530.76C244.452 529.027 245.639 527.693 247.132 526.76C248.625 525.827 250.292 525.36 252.132 525.36C253.705 525.36 255.079 525.68 256.252 526.32C257.452 526.96 258.372 527.8 259.012 528.84V525.68H265.852V548H259.012V544.84C258.345 545.88 257.412 546.72 256.212 547.36C255.039 548 253.665 548.32 252.092 548.32C250.279 548.32 248.625 547.853 247.132 546.92C245.639 545.96 244.452 544.613 243.572 542.88C242.719 541.12 242.292 539.093 242.292 536.8ZM259.012 536.84C259.012 535.133 258.532 533.787 257.572 532.8C256.639 531.813 255.492 531.32 254.132 531.32C252.772 531.32 251.612 531.813 250.652 532.8C249.719 533.76 249.252 535.093 249.252 536.8C249.252 538.507 249.719 539.867 250.652 540.88C251.612 541.867 252.772 542.36 254.132 542.36C255.492 542.36 256.639 541.867 257.572 540.88C258.532 539.893 259.012 538.547 259.012 536.84ZM299.28 525.44C302.054 525.44 304.254 526.28 305.88 527.96C307.534 529.64 308.36 531.973 308.36 534.96V548H301.56V535.88C301.56 534.44 301.174 533.333 300.4 532.56C299.654 531.76 298.614 531.36 297.28 531.36C295.947 531.36 294.894 531.76 294.12 532.56C293.374 533.333 293 534.44 293 535.88V548H286.2V535.88C286.2 534.44 285.814 533.333 285.04 532.56C284.294 531.76 283.254 531.36 281.92 531.36C280.587 531.36 279.534 531.76 278.76 532.56C278.014 533.333 277.64 534.44 277.64 535.88V548H270.8V525.68H277.64V528.48C278.334 527.547 279.24 526.813 280.36 526.28C281.48 525.72 282.747 525.44 284.16 525.44C285.84 525.44 287.334 525.8 288.64 526.52C289.974 527.24 291.014 528.267 291.76 529.6C292.534 528.373 293.587 527.373 294.92 526.6C296.254 525.827 297.707 525.44 299.28 525.44ZM311.784 536.8C311.784 534.507 312.211 532.493 313.064 530.76C313.944 529.027 315.131 527.693 316.624 526.76C318.117 525.827 319.784 525.36 321.624 525.36C323.197 525.36 324.571 525.68 325.744 526.32C326.944 526.96 327.864 527.8 328.504 528.84V525.68H335.344V548H328.504V544.84C327.837 545.88 326.904 546.72 325.704 547.36C324.531 548 323.157 548.32 321.584 548.32C319.771 548.32 318.117 547.853 316.624 546.92C315.131 545.96 313.944 544.613 313.064 542.88C312.211 541.12 311.784 539.093 311.784 536.8ZM328.504 536.84C328.504 535.133 328.024 533.787 327.064 532.8C326.131 531.813 324.984 531.32 323.624 531.32C322.264 531.32 321.104 531.813 320.144 532.8C319.211 533.76 318.744 535.093 318.744 536.8C318.744 538.507 319.211 539.867 320.144 540.88C321.104 541.867 322.264 542.36 323.624 542.36C324.984 542.36 326.131 541.867 327.064 540.88C328.024 539.893 328.504 538.547 328.504 536.84Z" fill="#1E5C93"/>
<path d="M914.713 123.247L906.072 111.906L875.29 132.968L896.892 151.869L914.713 123.247Z" fill="white"/>
<path fill-rule="evenodd" clip-rule="evenodd" d="M896.352 159.704C900.075 159.704 903.762 158.97 907.202 157.545C910.641 156.121 913.767 154.032 916.4 151.4C919.032 148.767 921.121 145.641 922.545 142.202C923.97 138.762 924.704 135.075 924.704 131.352C924.704 127.629 923.97 123.942 922.545 120.502C921.121 117.062 919.032 113.937 916.4 111.304C913.767 108.671 910.641 106.583 907.202 105.158C903.762 103.733 900.075 103 896.352 103C888.832 103 881.621 105.987 876.304 111.304C870.987 116.621 868 123.832 868 131.352C868 138.871 870.987 146.083 876.304 151.4C881.621 156.717 888.832 159.704 896.352 159.704ZM895.621 142.819L911.372 123.917L906.533 119.885L892.987 136.137L885.978 129.125L881.524 133.579L890.974 143.03L893.413 145.468L895.621 142.819Z" fill="url(#paint1_linear_560_2308)"/>
<path d="M286.104 118.302V147.464L244.521 151.784L247.761 115.602L286.104 118.302Z" fill="white"/>
<path fill-rule="evenodd" clip-rule="evenodd" d="M264.502 166.004C281.901 166.004 296.004 151.901 296.004 134.502C296.004 117.103 281.901 103 264.502 103C247.103 103 233 117.103 233 134.502C233 151.901 247.103 166.004 264.502 166.004ZM277.311 121.693C277.753 122.136 278.002 122.737 278.002 123.363C278.002 123.989 277.753 124.589 277.311 125.032L267.841 134.502L277.308 143.968C277.725 144.416 277.952 145.009 277.941 145.621C277.93 146.233 277.683 146.817 277.25 147.25C276.817 147.683 276.233 147.93 275.621 147.941C275.009 147.952 274.416 147.725 273.968 147.308L264.502 137.847L255.036 147.314C254.819 147.546 254.559 147.732 254.269 147.861C253.979 147.99 253.666 148.06 253.349 148.065C253.032 148.071 252.716 148.013 252.422 147.894C252.128 147.775 251.861 147.598 251.636 147.374C251.412 147.149 251.235 146.882 251.116 146.588C250.998 146.294 250.939 145.979 250.945 145.661C250.95 145.344 251.02 145.031 251.149 144.742C251.278 144.452 251.464 144.191 251.696 143.975L261.156 134.502L251.693 125.036C251.461 124.819 251.275 124.559 251.146 124.269C251.017 123.979 250.947 123.666 250.942 123.349C250.936 123.032 250.994 122.716 251.113 122.422C251.232 122.128 251.409 121.861 251.633 121.636C251.858 121.412 252.125 121.235 252.419 121.116C252.713 120.998 253.028 120.939 253.346 120.945C253.663 120.95 253.976 121.02 254.266 121.149C254.555 121.278 254.816 121.464 255.032 121.696L264.502 131.156L273.968 121.69C274.411 121.248 275.012 120.999 275.638 120.999C276.264 120.999 276.865 121.248 277.308 121.69" fill="url(#paint2_linear_560_2308)"/>
<path d="M263.854 623C263.854 622.057 263.813 621.155 263.73 620.212L271.382 614.431C273.028 613.201 273.48 610.905 272.452 609.101L264.759 595.858C264.266 594.99 263.468 594.333 262.519 594.016C261.569 593.698 260.536 593.741 259.616 594.136L250.772 597.867C249.25 596.801 247.645 595.858 245.959 595.079L244.766 585.608C244.519 583.558 242.75 582 240.693 582H225.348C223.25 582 221.481 583.558 221.234 585.608L220.041 595.079C218.355 595.858 216.75 596.801 215.228 597.867L206.384 594.136C204.491 593.316 202.27 594.054 201.241 595.858L193.548 609.142C192.52 610.946 192.972 613.201 194.618 614.472L202.27 620.253C202.098 622.094 202.098 623.947 202.27 625.788L194.618 631.569C192.972 632.799 192.52 635.095 193.548 636.899L201.241 650.142C202.27 651.946 204.491 652.684 206.384 651.864L215.228 648.133C216.75 649.199 218.355 650.142 220.041 650.921L221.234 660.392C221.481 662.442 223.25 664 225.307 664H240.652C242.709 664 244.478 662.442 244.724 660.392L245.917 650.921C247.604 650.142 249.208 649.199 250.731 648.133L259.575 651.864C261.468 652.684 263.689 651.946 264.718 650.142L272.41 636.899C273.439 635.095 272.986 632.84 271.341 631.569L263.689 625.788C263.813 624.845 263.854 623.943 263.854 623ZM233.165 637.35C225.225 637.35 218.766 630.913 218.766 623C218.766 615.087 225.225 608.65 233.165 608.65C241.104 608.65 247.563 615.087 247.563 623C247.563 630.913 241.104 637.35 233.165 637.35Z" fill="#707070"/>
<path d="M921.535 568.787C891.77 659.539 794.072 708.979 703.32 679.214C612.569 649.449 563.129 551.752 592.894 461" stroke="#1E5C93" stroke-width="30"/>
<path d="M552.5 465.5L622 492.5L603.5 434.5L552.5 465.5Z" fill="#1E5C93"/>
</g>
<defs>
<filter id="filter0_di_560_2308" x="452" y="45" width="375.223" height="376.227" filterUnits="userSpaceOnUse" color-interpolation-filters="sRGB">
<feFlood flood-opacity="0" result="BackgroundImageFix"/>
<feColorMatrix in="SourceAlpha" type="matrix" values="0 0 0 0 0 0 0 0 0 0 0 0 0 0 0 0 0 0 127 0" result="hardAlpha"/>
<feOffset dy="4"/>
<feGaussianBlur stdDeviation="2"/>
<feComposite in2="hardAlpha" operator="out"/>
<feColorMatrix type="matrix" values="0 0 0 0 0 0 0 0 0 0 0 0 0 0 0 0 0 0 0.25 0"/>
<feBlend mode="normal" in2="BackgroundImageFix" result="effect1_dropShadow_560_2308"/>
<feBlend mode="normal" in="SourceGraphic" in2="effect1_dropShadow_560_2308" result="shape"/>
<feColorMatrix in="SourceAlpha" type="matrix" values="0 0 0 0 0 0 0 0 0 0 0 0 0 0 0 0 0 0 127 0" result="hardAlpha"/>
<feOffset dy="9"/>
<feGaussianBlur stdDeviation="20.4"/>
<feComposite in2="hardAlpha" operator="arithmetic" k2="-1" k3="1"/>
<feColorMatrix type="matrix" values="0 0 0 0 0.557707 0 0 0 0 0.514631 0 0 0 0 0.822791 0 0 0 0.25 0"/>
<feBlend mode="normal" in2="shape" result="effect2_innerShadow_560_2308"/>
</filter>
<linearGradient id="paint0_linear_560_2308" x1="639.612" y1="45" x2="639.612" y2="412.223" gradientUnits="userSpaceOnUse">
<stop stop-color="#A5D4F0"/>
<stop offset="1" stop-color="#7568C5"/>
</linearGradient>
<linearGradient id="paint1_linear_560_2308" x1="896.352" y1="103" x2="896.352" y2="159.704" gradientUnits="userSpaceOnUse">
<stop stop-color="#1EAD28"/>
<stop offset="1" stop-color="#38813E"/>
</linearGradient>
<linearGradient id="paint2_linear_560_2308" x1="264.502" y1="103" x2="264.502" y2="166.004" gradientUnits="userSpaceOnUse">
<stop stop-color="#CE393C"/>
<stop offset="1" stop-color="#6F214F"/>
</linearGradient>
<clipPath id="clip0_560_2308">
<rect width="1280" height="720" fill="white"/>
</clipPath>
</defs>
</svg>
