<svg width="1280" height="720" viewBox="0 0 1280 720" fill="none" xmlns="http://www.w3.org/2000/svg">
<g clip-path="url(#clip0_410_4663)">
<rect width="1280" height="720" fill="#ECFAFF"/>
<mask id="mask0_410_4663" style="mask-type:luminance" maskUnits="userSpaceOnUse" x="-98" y="165" width="688" height="390">
<path d="M-95 168H587V551.625H-95V168Z" fill="white" stroke="white" stroke-width="5"/>
</mask>
<g mask="url(#mask0_410_4663)">
<path d="M158.911 417.467C158.911 450.955 197.651 478.099 245.424 478.099C293.201 478.099 331.94 450.955 331.94 417.467V395.961H158.911V417.467Z" fill="#1A3567" stroke="#1A3567" stroke-width="5"/>
</g>
<path d="M331.94 395.961C331.94 429.445 293.201 456.595 245.424 456.595C197.651 456.595 158.911 429.445 158.911 395.961C158.911 362.472 197.651 335.328 245.424 335.328C293.201 335.328 331.94 362.472 331.94 395.961Z" fill="#1A3567" stroke="#1A3567" stroke-width="5"/>
<path d="M170.083 392.006C170.083 421.169 203.816 444.805 245.424 444.805C287.038 444.805 320.758 421.159 320.758 392.006V366.906H170.083V392.006Z" fill="#CE393C" stroke="#1A3567" stroke-width="5"/>
<path d="M320.758 366.909C320.758 396.078 287.027 419.709 245.419 419.709C203.805 419.709 170.083 396.068 170.083 366.909C170.083 337.756 203.816 314.109 245.419 314.109C287.017 314.109 320.758 337.756 320.758 366.909Z" fill="#E35F61" stroke="#1A3567" stroke-width="5"/>
<path d="M249.273 329.671V284.817H253.725L260.573 269.067L253.725 253.659L237.632 238.936L203.392 234.484L184.56 250.235L179.424 266.327L184.56 291.323L193.12 294.404L203.392 302.964L215.718 309.47L228.045 311.866V329.671L239.344 334.122L249.273 329.671Z" fill="#ECFAFF"/>
<path fill-rule="evenodd" clip-rule="evenodd" d="M237.807 339.82C241.01 339.82 244.081 338.548 246.346 336.283C248.611 334.019 249.883 330.947 249.883 327.744V288.618C262.402 287.635 270.097 273.774 263.323 262.602C261.305 259.272 259.328 256.095 257.748 253.72C253.179 246.133 247.695 240.575 240.87 236.955C234.039 233.347 226.197 231.846 217.207 231.846C208.341 231.846 198.817 233.301 191.401 238.245C183.672 243.394 178.847 251.913 178.847 264.523L178.87 264.977V285.123C178.87 286.709 179.183 288.28 179.79 289.746C180.397 291.211 181.287 292.543 182.409 293.664C183.531 294.786 184.863 295.675 186.329 296.281C187.795 296.888 189.366 297.2 190.952 297.199H193.083C193.572 297.199 194.051 297.165 194.521 297.097C194.618 299.047 195.187 300.944 196.179 302.626C197.172 304.308 198.557 305.724 200.217 306.753C201.876 307.782 203.761 308.393 205.708 308.533C207.656 308.673 209.609 308.339 211.399 307.559C212.672 310.116 214.811 312.138 217.435 313.267C220.059 314.396 222.999 314.558 225.731 313.725V327.744C225.731 330.947 227.003 334.019 229.268 336.283C231.532 338.548 234.604 339.82 237.807 339.82ZM187.372 264.085L187.394 264.523V285.123C187.394 286.065 187.769 286.968 188.435 287.635C189.101 288.301 190.004 288.675 190.946 288.675H193.077C193.454 288.675 193.815 288.525 194.082 288.259C194.348 287.992 194.498 287.631 194.498 287.254V284.413C194.498 283.282 194.947 282.198 195.746 281.399C196.546 280.6 197.63 280.151 198.76 280.151C199.89 280.151 200.975 280.6 201.774 281.399C202.573 282.198 203.022 283.282 203.022 284.413V296.494C203.022 297.434 203.395 298.335 204.06 299C204.724 299.664 205.626 300.038 206.565 300.038C207.505 300.038 208.406 299.664 209.071 299C209.735 298.335 210.109 297.434 210.109 296.494L210.103 292.948L210.126 292.477V289.527C210.126 288.397 210.575 287.313 211.374 286.513C212.173 285.714 213.257 285.265 214.388 285.265C215.518 285.265 216.602 285.714 217.402 286.513C218.201 287.313 218.65 288.397 218.65 289.527V302.172C218.65 303.114 219.024 304.017 219.69 304.683C220.356 305.349 221.26 305.723 222.202 305.723C223.144 305.723 224.047 305.349 224.713 304.683C225.379 304.017 225.754 303.114 225.754 302.172V287.254C225.754 286.124 226.203 285.04 227.002 284.24C227.801 283.441 228.885 282.992 230.016 282.992C231.146 282.992 232.23 283.441 233.029 284.24C233.829 285.04 234.278 286.124 234.278 287.254V302.172C234.278 302.653 234.251 303.126 234.198 303.592C234.232 303.828 234.251 304.065 234.255 304.303V327.744C234.255 328.686 234.629 329.59 235.295 330.256C235.961 330.922 236.865 331.296 237.807 331.296C238.749 331.296 239.652 330.922 240.318 330.256C240.984 329.59 241.359 328.686 241.359 327.744V273.047C241.359 271.917 241.808 270.833 242.607 270.033C243.406 269.234 244.49 268.785 245.621 268.785C246.751 268.785 247.835 269.234 248.634 270.033C249.434 270.833 249.883 271.917 249.883 273.047V280.043C255.918 279.116 259.259 272.348 256.032 267.023C254.24 264.032 252.387 261.079 250.474 258.164C246.53 251.6 242.092 247.253 236.88 244.491C231.63 241.712 225.265 240.371 217.207 240.371C209.023 240.371 201.493 241.757 196.129 245.338C191.139 248.662 187.48 254.237 187.377 264.091" fill="#1A3567"/>
<path fill-rule="evenodd" clip-rule="evenodd" d="M242.194 234.449C249.553 238.342 255.378 244.292 260.152 252.197C262.077 255.138 263.945 258.117 265.755 261.13C273.182 273.388 265.681 288.334 252.724 291.079V327.739C252.724 331.695 251.153 335.489 248.355 338.287C245.557 341.085 241.763 342.656 237.807 342.656C233.85 342.656 230.056 341.085 227.258 338.287C224.461 335.489 222.889 331.695 222.889 327.739V317.066L222.207 317.083C219.859 317.086 217.543 316.532 215.449 315.469C213.355 314.405 211.543 312.861 210.16 310.963C206.314 311.91 202.249 311.292 198.858 309.244C195.467 307.196 193.028 303.886 192.077 300.041H190.94C186.984 300.041 183.19 298.469 180.392 295.671C177.595 292.874 176.023 289.08 176.023 285.123V265.114C176.008 264.917 176 264.72 176 264.523C176 251.089 181.206 241.621 189.821 235.881C197.925 230.483 208.114 229.005 217.206 229.005C226.504 229.005 234.84 230.557 242.194 234.449ZM257.748 253.714C253.179 246.133 247.695 240.575 240.87 236.961C234.045 233.347 226.197 231.847 217.206 231.847C208.341 231.847 198.817 233.301 191.401 238.246C183.672 243.394 178.847 251.913 178.847 264.523L178.87 264.978V285.123C178.87 286.71 179.183 288.28 179.79 289.746C180.397 291.211 181.287 292.543 182.409 293.664C183.531 294.786 184.863 295.675 186.329 296.282C187.794 296.888 189.365 297.2 190.952 297.199H193.083C193.572 297.199 194.051 297.165 194.521 297.097C194.67 300.19 196.004 303.106 198.246 305.242C200.488 307.377 203.466 308.567 206.562 308.565C208.284 308.565 209.915 308.207 211.393 307.559C212.667 310.117 214.807 312.14 217.432 313.269C220.057 314.398 222.998 314.56 225.731 313.725V327.744C225.731 330.947 227.003 334.019 229.268 336.284C231.532 338.548 234.604 339.821 237.807 339.821C241.009 339.821 244.081 338.548 246.346 336.284C248.61 334.019 249.883 330.947 249.883 327.744V288.618C262.402 287.635 270.097 273.775 263.323 262.602C261.305 259.272 259.328 256.095 257.748 253.72" fill="#1A3567"/>
<path d="M144.059 274.317L98.5296 247.758L52.9998 274.317M144.059 274.317L98.5296 300.876M144.059 274.317V319.847L98.5296 346.406M52.9998 274.317L98.5296 300.876M52.9998 274.317V319.847L98.5296 346.406M98.5296 300.876V346.406M111.177 309.729C111.784 310.078 113.119 308.889 114.172 307.073C115.219 305.262 115.578 303.507 114.971 303.158C114.364 302.808 113.028 303.997 111.976 305.808C110.929 307.63 110.57 309.38 111.177 309.729ZM127.618 317.317C128.225 317.666 129.561 316.478 130.613 314.661C131.66 312.85 132.019 311.095 131.412 310.746C130.805 310.397 129.47 311.586 128.417 313.397C127.37 315.218 127.011 316.968 127.618 317.317ZM85.8824 309.729C85.2754 310.078 83.9398 308.889 82.8876 307.073C81.8404 305.262 81.4812 303.507 82.0883 303.158C82.6953 302.808 84.0309 303.997 85.0831 305.808C86.1303 307.63 86.4895 309.38 85.8824 309.729ZM85.8824 326.17C85.2754 326.519 83.9398 325.331 82.8876 323.514C81.8404 321.703 81.4812 319.948 82.0883 319.599C82.6953 319.25 84.0309 320.439 85.0831 322.25C86.1303 324.071 86.4895 325.821 85.8824 326.17ZM69.4411 317.317C68.834 317.666 67.4985 316.478 66.4462 314.661C65.3991 312.85 65.0399 311.095 65.6469 310.746C66.254 310.397 67.5895 311.586 68.6418 313.397C69.689 315.218 70.0482 316.968 69.4411 317.317ZM69.4411 301.124C68.834 301.478 67.4985 300.284 66.4462 298.473C65.3991 296.652 65.0399 294.901 65.6469 294.552C66.254 294.203 67.5895 295.392 68.6418 297.208C69.689 299.019 70.0482 300.775 69.4411 301.124ZM102.324 273.052C102.324 273.388 101.924 273.709 101.212 273.946C100.501 274.184 99.5359 274.317 98.5296 274.317C97.5233 274.317 96.5583 274.184 95.8467 273.946C95.1352 273.709 94.7355 273.388 94.7355 273.052C94.7355 272.717 95.1352 272.395 95.8467 272.158C96.5583 271.921 97.5233 271.787 98.5296 271.787C99.5359 271.787 100.501 271.921 101.212 272.158C101.924 272.395 102.324 272.717 102.324 273.052Z" stroke="#1A3567" stroke-width="5" stroke-linecap="round" stroke-linejoin="round"/>
<path fill-rule="evenodd" clip-rule="evenodd" d="M671.077 218.82C724.825 223.28 764.781 270.467 760.321 324.215C759.565 333.326 757.581 342.04 754.546 350.208C743.386 386.105 698.086 459.023 661.078 486.96C640.472 504.157 613.358 513.578 584.498 511.183C526.233 506.348 482.92 455.195 487.754 396.93C490.38 365.293 506.661 338.065 530.322 320.559C555.49 298.513 563.658 293.494 577.949 268.099L577.954 268.101C596.137 235.958 631.86 215.566 671.077 218.82Z" fill="url(#paint0_radial_410_4663)"/>
<rect x="563.405" y="336.894" width="106.442" height="33.1289" rx="9" transform="rotate(32.1491 563.405 336.894)" fill="#3E3E3E" stroke="#707070" stroke-width="6"/>
<path d="M622.133 258.376L636.52 284.546L608.281 284.755" stroke="#62342A" stroke-width="3"/>
<path d="M685.838 327.381L671.452 301.211L699.691 301.003" stroke="#62342A" stroke-width="3"/>
<path d="M645.197 304.001C657.872 310.168 663.401 325.128 658.018 337.969L610.556 314.875C617.338 302.715 632.522 297.833 645.197 304.001Z" fill="#C06A60" stroke="#62342A" stroke-width="3"/>
<path d="M712.631 232.88C720.752 220.653 745.629 200.204 780.168 216.228" stroke="#62342A" stroke-width="19"/>
<path d="M777.798 177.678C778.572 177.232 779.451 176.998 780.345 177C781.238 176.998 782.117 177.232 782.891 177.678C783.666 178.124 784.309 178.767 784.756 179.541L797.949 202.406C800.335 206.544 801.187 211.39 800.356 216.093C799.526 220.797 797.065 225.057 793.405 228.128C785.884 234.449 774.805 234.449 767.284 228.128C763.631 225.053 761.176 220.792 760.345 216.091C759.515 211.39 760.363 206.546 762.741 202.406L775.933 179.541C776.38 178.767 777.023 178.124 777.798 177.678Z" fill="#EF6E48"/>
<path d="M778.861 201.094C779.313 200.837 779.826 200.702 780.347 200.703C780.868 200.702 781.381 200.837 781.833 201.094C782.284 201.35 782.66 201.72 782.92 202.166L790.616 215.331C792.008 217.713 792.505 220.503 792.021 223.211C791.536 225.919 790.1 228.372 787.966 230.14C783.578 233.78 777.116 233.78 772.728 230.14C770.598 228.37 769.165 225.917 768.681 223.21C768.196 220.503 768.691 217.715 770.078 215.331L777.774 202.166C778.034 201.72 778.41 201.35 778.861 201.094Z" fill="#FFC93C"/>
<path d="M564.354 357.274C566.156 354.344 568.138 352.382 570.3 351.387C572.479 350.403 574.829 350.686 577.35 352.237C579.871 353.788 581.175 355.753 581.262 358.131C581.365 360.519 580.516 363.179 578.714 366.109C576.89 369.073 574.889 371.047 572.71 372.031C570.548 373.026 568.207 372.748 565.686 371.197C563.165 369.646 561.852 367.676 561.748 365.287C561.662 362.909 562.53 360.238 564.354 357.274ZM574.421 363.468C575.479 361.747 576.104 360.312 576.295 359.161C576.497 357.994 576.01 357.049 574.835 356.326C573.659 355.602 572.596 355.594 571.645 356.3C570.704 356.99 569.705 358.195 568.646 359.915C567.934 361.073 567.41 362.078 567.074 362.928C566.749 363.762 566.645 364.542 566.76 365.271C566.903 365.993 567.383 366.605 568.201 367.108C569.019 367.611 569.773 367.759 570.465 367.55C571.184 367.335 571.843 366.895 572.44 366.229C573.048 365.547 573.708 364.626 574.421 363.468ZM581.022 367.529C582.825 364.599 584.807 362.637 586.969 361.642C589.147 360.658 591.497 360.941 594.018 362.492C596.539 364.043 597.843 366.007 597.93 368.386C598.034 370.774 597.185 373.433 595.382 376.363C593.559 379.327 591.558 381.301 589.379 382.286C587.217 383.28 584.875 383.002 582.354 381.451C579.833 379.9 578.521 377.931 578.417 375.542C578.33 373.164 579.199 370.493 581.022 367.529ZM591.089 373.722C592.148 372.002 592.773 370.566 592.964 369.416C593.165 368.249 592.679 367.303 591.503 366.58C590.328 365.857 589.265 365.849 588.313 366.555C587.373 367.244 586.373 368.449 585.315 370.17C584.602 371.328 584.078 372.332 583.743 373.183C583.418 374.016 583.313 374.797 583.429 375.526C583.572 376.248 584.052 376.86 584.87 377.363C585.687 377.866 586.442 378.013 587.134 377.805C587.853 377.59 588.511 377.15 589.109 376.484C589.717 375.801 590.377 374.881 591.089 373.722ZM594.148 389.095C593.382 388.623 592.888 388.014 592.666 387.267C592.472 386.514 592.58 385.805 592.988 385.14C593.408 384.459 593.997 384.035 594.757 383.869C595.534 383.713 596.306 383.87 597.072 384.342C597.822 384.803 598.294 385.41 598.488 386.164C598.699 386.928 598.595 387.65 598.175 388.332C597.767 388.996 597.174 389.406 596.397 389.562C595.647 389.712 594.898 389.556 594.148 389.095ZM600.546 378.695C599.78 378.223 599.286 377.614 599.064 376.867C598.87 376.114 598.978 375.405 599.386 374.741C599.805 374.059 600.395 373.636 601.155 373.469C601.932 373.313 602.704 373.471 603.47 373.942C604.22 374.404 604.692 375.011 604.886 375.764C605.097 376.528 604.992 377.251 604.573 377.932C604.165 378.596 603.572 379.006 602.795 379.162C602.045 379.312 601.296 379.156 600.546 378.695ZM604.952 382.251C606.754 379.321 608.737 377.358 610.898 376.364C613.077 375.379 615.427 375.663 617.948 377.214C620.469 378.765 621.773 380.729 621.86 383.107C621.964 385.496 621.114 388.155 619.312 391.085C617.488 394.049 615.487 396.023 613.308 397.008C611.147 398.002 608.805 397.724 606.284 396.173C603.763 394.622 602.451 392.652 602.347 390.264C602.26 387.886 603.128 385.215 604.952 382.251ZM615.019 388.444C616.078 386.724 616.703 385.288 616.894 384.138C617.095 382.97 616.608 382.025 615.433 381.302C614.258 380.579 613.194 380.571 612.243 381.277C611.303 381.966 610.303 383.171 609.245 384.892C608.532 386.05 608.008 387.054 607.673 387.905C607.348 388.738 607.243 389.519 607.358 390.247C607.501 390.969 607.982 391.582 608.799 392.085C609.617 392.588 610.372 392.735 611.063 392.527C611.783 392.312 612.441 391.871 613.039 391.206C613.646 390.523 614.307 389.603 615.019 388.444ZM621.62 392.505C623.423 389.575 625.405 387.613 627.567 386.618C629.746 385.634 632.096 385.917 634.617 387.468C637.138 389.019 638.442 390.984 638.529 393.362C638.632 395.751 637.783 398.41 635.98 401.34C634.157 404.304 632.156 406.278 629.977 407.262C627.815 408.257 625.474 407.979 622.953 406.428C620.432 404.877 619.119 402.907 619.015 400.518C618.929 398.14 619.797 395.469 621.62 392.505ZM631.688 398.699C632.746 396.978 633.371 395.543 633.562 394.393C633.764 393.225 633.277 392.28 632.102 391.557C630.926 390.834 629.863 390.825 628.912 391.532C627.971 392.221 626.972 393.426 625.913 395.146C625.2 396.305 624.676 397.309 624.341 398.159C624.016 398.993 623.912 399.774 624.027 400.502C624.17 401.224 624.65 401.836 625.468 402.34C626.286 402.843 627.04 402.99 627.732 402.781C628.451 402.566 629.11 402.126 629.707 401.46C630.315 400.778 630.975 399.857 631.688 398.699Z" fill="white"/>
<path d="M325 293L473 293" stroke="#1A3567" stroke-width="8"/>
<path d="M494.086 292.568L471 304L471.058 281L494.086 292.568Z" fill="#1A3567"/>
<path d="M790 293L903 293" stroke="#1A3567" stroke-width="8"/>
<path d="M926.086 292.568L903 304L903.058 281L926.086 292.568Z" fill="#1A3567"/>
<path d="M981.964 452.644C981.774 453.383 981.548 454.11 981.287 454.821L1115.33 453.964L1114.5 450.5L1113.93 448.254C1090.74 391.117 1087.2 357.537 1092.95 295.496H1132.19C1138.08 295.498 1143.91 294.331 1149.35 292.061C1154.78 289.791 1159.73 286.463 1163.89 282.266C1168.05 278.07 1171.35 273.089 1173.6 267.606C1175.85 262.124 1177 256.248 1177 250.315C1176.79 238.334 1171.95 226.909 1163.5 218.472C1155.06 210.034 1143.69 205.249 1131.8 205.134L1122.84 205.512L1120.63 199.178C1117.55 190.359 1111.84 182.721 1104.27 177.315C1096.71 171.91 1087.66 169.004 1078.39 169C1070.54 169 1062.81 171.129 1056.03 175.145L1051.5 177.806L1046.97 175.145C1040.19 171.135 1032.48 169.014 1024.63 169C1015.34 168.995 1006.29 171.898 998.709 177.307C991.134 182.717 985.413 190.365 982.338 199.195L980.124 205.546L971.302 205.134C959.396 205.222 947.996 209.995 939.532 218.436C931.069 226.876 926.213 238.316 926 250.315C925.993 256.252 927.149 262.133 929.4 267.619C931.651 273.106 934.954 278.091 939.119 282.29C943.284 286.488 948.23 289.817 953.674 292.086C959.117 294.355 964.951 295.52 970.842 295.513H1010.8C1013.1 359.365 1010.25 394.113 982.56 449.726L982.441 451.271L981.964 452.644Z" fill="url(#paint1_linear_410_4663)"/>
<mask id="path-24-outside-1_410_4663" maskUnits="userSpaceOnUse" x="847.204" y="343.48" width="100.53" height="102.301" fill="black">
<rect fill="white" x="847.204" y="343.48" width="100.53" height="102.301"/>
<path d="M909.103 403.696C911.669 406.968 912.872 410.623 912.714 414.66C912.599 418.646 911.238 422.2 908.631 425.321C904.87 429.824 900.293 432.081 894.898 432.092C889.597 432.095 884.133 429.745 878.504 425.045L853.407 404.083L898.407 350.203L922.661 370.46C928.136 375.033 931.361 379.855 932.337 384.926C933.364 390.04 932.083 394.746 928.493 399.044C925.843 402.217 922.798 404.147 919.358 404.834C915.968 405.565 912.55 405.185 909.103 403.696ZM893.326 382.962L901.922 390.142C904.071 391.937 906.093 392.844 907.988 392.863C909.977 392.874 911.741 391.958 913.279 390.116C914.818 388.274 915.405 386.376 915.04 384.42C914.726 382.508 913.495 380.654 911.346 378.86L902.75 371.68L893.326 382.962ZM885.048 412.53C887.248 414.367 889.343 415.292 891.331 415.302C893.414 415.305 895.246 414.359 896.827 412.466C898.409 410.573 899.008 408.555 898.627 406.412C898.296 404.312 897.031 402.343 894.83 400.505L885.313 392.556L875.377 404.453L885.048 412.53Z"/>
</mask>
<path d="M909.103 403.696C911.669 406.968 912.872 410.623 912.714 414.66C912.599 418.646 911.238 422.2 908.631 425.321C904.87 429.824 900.293 432.081 894.898 432.092C889.597 432.095 884.133 429.745 878.504 425.045L853.407 404.083L898.407 350.203L922.661 370.46C928.136 375.033 931.361 379.855 932.337 384.926C933.364 390.04 932.083 394.746 928.493 399.044C925.843 402.217 922.798 404.147 919.358 404.834C915.968 405.565 912.55 405.185 909.103 403.696ZM893.326 382.962L901.922 390.142C904.071 391.937 906.093 392.844 907.988 392.863C909.977 392.874 911.741 391.958 913.279 390.116C914.818 388.274 915.405 386.376 915.04 384.42C914.726 382.508 913.495 380.654 911.346 378.86L902.75 371.68L893.326 382.962ZM885.048 412.53C887.248 414.367 889.343 415.292 891.331 415.302C893.414 415.305 895.246 414.359 896.827 412.466C898.409 410.573 899.008 408.555 898.627 406.412C898.296 404.312 897.031 402.343 894.83 400.505L885.313 392.556L875.377 404.453L885.048 412.53Z" fill="#E35F61"/>
<path d="M909.103 403.696L910.689 400.024L905.955 406.164L909.103 403.696ZM912.714 414.66L908.717 414.504L908.717 414.524L908.716 414.544L912.714 414.66ZM894.898 432.092L894.9 436.092L894.906 436.092L894.898 432.092ZM853.407 404.083L850.337 401.518L847.772 404.589L850.842 407.153L853.407 404.083ZM898.407 350.203L900.971 347.133L897.901 344.569L895.337 347.639L898.407 350.203ZM932.337 384.926L928.409 385.682L928.412 385.698L928.415 385.714L932.337 384.926ZM919.358 404.834L918.574 400.912L918.544 400.918L918.515 400.924L919.358 404.834ZM893.326 382.962L890.256 380.398L887.692 383.468L890.762 386.032L893.326 382.962ZM907.988 392.863L907.948 396.863L907.957 396.863L907.967 396.863L907.988 392.863ZM915.04 384.42L911.093 385.068L911.1 385.111L911.108 385.154L915.04 384.42ZM902.75 371.68L905.314 368.61L902.244 366.046L899.679 369.116L902.75 371.68ZM891.331 415.302L891.31 419.302L891.318 419.302L891.327 419.302L891.331 415.302ZM898.627 406.412L894.675 407.034L894.682 407.074L894.689 407.113L898.627 406.412ZM885.313 392.556L887.877 389.486L884.807 386.922L882.243 389.992L885.313 392.556ZM875.377 404.453L872.307 401.889L869.743 404.959L872.813 407.523L875.377 404.453ZM909.103 403.696L905.955 406.164C907.954 408.714 908.837 411.444 908.717 414.504L912.714 414.66L916.711 414.817C916.908 409.802 915.383 405.223 912.251 401.228L909.103 403.696ZM912.714 414.66L908.716 414.544C908.627 417.614 907.605 420.31 905.561 422.757L908.631 425.321L911.701 427.885C914.871 424.09 916.571 419.678 916.713 414.776L912.714 414.66ZM908.631 425.321L905.561 422.757C902.483 426.442 898.989 428.083 894.89 428.092L894.898 432.092L894.906 436.092C901.596 436.078 907.257 433.206 911.701 427.885L908.631 425.321ZM894.898 432.092L894.896 428.092C890.837 428.094 886.251 426.303 881.068 421.974L878.504 425.044L875.94 428.115C882.014 433.188 888.357 436.095 894.9 436.092L894.898 432.092ZM878.504 425.044L881.068 421.974L855.971 401.013L853.407 404.083L850.842 407.153L875.94 428.115L878.504 425.044ZM853.407 404.083L856.477 406.647L901.477 352.767L898.407 350.203L895.337 347.639L850.337 401.518L853.407 404.083ZM898.407 350.203L895.843 353.273L920.096 373.53L922.661 370.46L925.225 367.39L900.971 347.133L898.407 350.203ZM922.661 370.46L920.096 373.53C925.131 377.735 927.663 381.808 928.409 385.682L932.337 384.926L936.265 384.17C935.059 377.902 931.14 372.331 925.225 367.39L922.661 370.46ZM932.337 384.926L928.415 385.714C929.184 389.542 928.301 393.034 925.423 396.48L928.493 399.044L931.563 401.609C935.864 396.459 937.544 390.538 936.259 384.139L932.337 384.926ZM928.493 399.044L925.423 396.48C923.25 399.082 920.967 400.434 918.574 400.912L919.358 404.834L920.141 408.757C924.63 407.86 928.437 405.351 931.563 401.609L928.493 399.044ZM919.358 404.834L918.515 400.924C916.009 401.464 913.438 401.212 910.689 400.024L909.103 403.696L907.517 407.368C911.662 409.159 915.927 409.665 920.2 408.745L919.358 404.834ZM893.326 382.962L890.762 386.032L899.358 393.212L901.922 390.142L904.487 387.072L895.89 379.892L893.326 382.962ZM901.922 390.142L899.358 393.212C901.889 395.326 904.778 396.831 907.948 396.863L907.988 392.863L908.029 388.863C907.409 388.857 906.254 388.548 904.487 387.072L901.922 390.142ZM907.988 392.863L907.967 396.863C911.396 396.882 914.22 395.229 916.349 392.68L913.279 390.116L910.209 387.552C909.261 388.687 908.558 388.866 908.01 388.863L907.988 392.863ZM913.279 390.116L916.349 392.68C918.478 390.131 919.601 387.058 918.972 383.687L915.04 384.42L911.108 385.154C911.208 385.693 911.157 386.417 910.209 387.552L913.279 390.116ZM915.04 384.42L918.987 383.773C918.461 380.568 916.474 377.931 913.91 375.79L911.346 378.86L908.782 381.93C910.516 383.378 910.991 384.448 911.093 385.068L915.04 384.42ZM911.346 378.86L913.91 375.79L905.314 368.61L902.75 371.68L900.185 374.75L908.782 381.93L911.346 378.86ZM902.75 371.68L899.679 369.116L890.256 380.398L893.326 382.962L896.396 385.527L905.82 374.244L902.75 371.68ZM885.048 412.53L882.484 415.6C885.09 417.776 888.057 419.285 891.31 419.302L891.331 415.302L891.353 411.302C890.629 411.298 889.406 410.958 887.612 409.46L885.048 412.53ZM891.331 415.302L891.327 419.302C894.82 419.306 897.711 417.648 899.897 415.03L896.827 412.466L893.757 409.902C892.782 411.07 892.009 411.303 891.336 411.302L891.331 415.302ZM896.827 412.466L899.897 415.03C902.123 412.365 903.183 409.18 902.565 405.71L898.627 406.412L894.689 407.113C894.834 407.93 894.694 408.78 893.757 409.902L896.827 412.466ZM898.627 406.412L902.578 405.79C902.051 402.443 900.077 399.675 897.395 397.435L894.83 400.505L892.266 403.575C893.984 405.01 894.541 406.181 894.675 407.034L898.627 406.412ZM894.83 400.505L897.395 397.435L887.877 389.486L885.313 392.556L882.749 395.626L892.266 403.575L894.83 400.505ZM885.313 392.556L882.243 389.992L872.307 401.889L875.377 404.453L878.447 407.017L888.383 395.12L885.313 392.556ZM875.377 404.453L872.813 407.523L882.484 415.6L885.048 412.53L887.612 409.46L877.941 401.383L875.377 404.453Z" fill="#FFC93C" mask="url(#path-24-outside-1_410_4663)"/>
<mask id="path-26-outside-2_410_4663" maskUnits="userSpaceOnUse" x="914.044" y="396.211" width="88.0501" height="99.3799" fill="black">
<rect fill="white" x="914.044" y="396.211" width="88.0501" height="99.3799"/>
<path d="M931.416 436.946C935.068 426.077 940.031 418.214 946.304 413.36C952.64 408.526 960.484 407.68 969.837 410.823C979.19 413.965 984.901 419.365 986.97 427.023C989.102 434.702 988.342 443.976 984.689 454.846C980.995 465.842 975.98 473.756 969.643 478.59C963.371 483.445 955.558 484.301 946.205 481.159C936.852 478.016 931.109 472.606 928.977 464.927C926.909 457.269 927.722 447.942 931.416 436.946ZM968.764 449.495C970.909 443.112 971.859 437.981 971.616 434.101C971.393 430.159 969.102 427.455 964.741 425.989C960.381 424.524 956.921 425.296 954.363 428.305C951.826 431.25 949.486 435.914 947.341 442.297C945.897 446.594 944.95 450.25 944.501 453.263C944.072 456.214 944.319 458.828 945.241 461.108C946.247 463.345 948.267 464.973 951.301 465.992C954.334 467.011 956.896 466.922 958.986 465.726C961.16 464.487 962.967 462.562 964.407 459.952C965.868 457.278 967.32 453.792 968.764 449.495Z"/>
</mask>
<path d="M931.416 436.946C935.068 426.077 940.031 418.214 946.304 413.36C952.64 408.526 960.484 407.68 969.837 410.823C979.19 413.965 984.901 419.365 986.97 427.023C989.102 434.702 988.342 443.976 984.689 454.846C980.995 465.842 975.98 473.756 969.643 478.59C963.371 483.445 955.558 484.301 946.205 481.159C936.852 478.016 931.109 472.606 928.977 464.927C926.909 457.269 927.722 447.942 931.416 436.946ZM968.764 449.495C970.909 443.112 971.859 437.981 971.616 434.101C971.393 430.159 969.102 427.455 964.741 425.989C960.381 424.524 956.921 425.296 954.363 428.305C951.826 431.25 949.486 435.914 947.341 442.297C945.897 446.594 944.95 450.25 944.501 453.263C944.072 456.214 944.319 458.828 945.241 461.108C946.247 463.345 948.267 464.973 951.301 465.992C954.334 467.011 956.896 466.922 958.986 465.726C961.16 464.487 962.967 462.562 964.407 459.952C965.868 457.278 967.32 453.792 968.764 449.495Z" fill="#E35F61"/>
<path d="M946.304 413.36L943.877 410.179L943.866 410.188L943.855 410.196L946.304 413.36ZM986.97 427.023L983.108 428.066L983.112 428.08L983.115 428.093L986.97 427.023ZM969.643 478.59L967.217 475.41L967.206 475.418L967.195 475.427L969.643 478.59ZM928.977 464.927L925.116 465.97L925.12 465.983L925.123 465.997L928.977 464.927ZM971.616 434.101L967.622 434.327L967.623 434.339L967.623 434.352L971.616 434.101ZM954.363 428.305L957.394 430.915L957.402 430.906L957.411 430.896L954.363 428.305ZM944.501 453.263L940.544 452.673L940.543 452.68L940.542 452.688L944.501 453.263ZM945.241 461.108L941.533 462.608L941.562 462.679L941.593 462.749L945.241 461.108ZM958.986 465.726L957.006 462.25L956.998 462.254L958.986 465.726ZM964.407 459.952L967.91 461.883L967.913 461.876L967.917 461.87L964.407 459.952ZM931.416 436.946L935.208 438.22C938.715 427.782 943.324 420.724 948.752 416.523L946.304 413.36L943.855 410.196C936.737 415.705 931.421 424.372 927.624 435.672L931.416 436.946ZM946.304 413.36L948.73 416.54C953.754 412.707 960.129 411.781 968.563 414.614L969.837 410.823L971.111 407.031C960.84 403.58 951.525 404.345 943.877 410.179L946.304 413.36ZM969.837 410.823L968.563 414.614C976.999 417.449 981.475 422.02 983.108 428.066L986.97 427.023L990.831 425.98C988.327 416.71 981.381 410.481 971.111 407.031L969.837 410.823ZM986.97 427.023L983.115 428.093C984.959 434.732 984.402 443.142 980.898 453.572L984.689 454.846L988.481 456.12C992.281 444.81 993.244 434.671 990.824 425.953L986.97 427.023ZM984.689 454.846L980.898 453.572C977.348 464.138 972.69 471.235 967.217 475.41L969.643 478.59L972.07 481.77C979.27 476.278 984.642 467.545 988.481 456.12L984.689 454.846ZM969.643 478.59L967.195 475.427C962.243 479.26 955.915 480.201 947.479 477.367L946.205 481.159L944.931 484.95C955.2 488.401 964.498 487.63 972.092 481.753L969.643 478.59ZM946.205 481.159L947.479 477.367C939.045 474.533 934.522 469.946 932.832 463.857L928.977 464.927L925.123 465.997C927.697 475.265 934.659 481.499 944.931 484.95L946.205 481.159ZM928.977 464.927L932.839 463.883C931.051 457.265 931.655 448.796 935.208 438.22L931.416 436.946L927.624 435.672C923.789 447.089 922.766 457.273 925.116 465.97L928.977 464.927ZM968.764 449.495L972.556 450.769C974.762 444.202 975.899 438.493 975.608 433.851L971.616 434.101L967.623 434.352C967.819 437.469 967.055 442.023 964.973 448.221L968.764 449.495ZM971.616 434.101L975.609 433.876C975.455 431.141 974.554 428.621 972.782 426.53C971.044 424.479 968.685 423.095 966.015 422.198L964.741 425.989L963.467 429.781C965.158 430.349 966.125 431.049 966.678 431.702C967.198 432.315 967.554 433.119 967.622 434.327L971.616 434.101ZM964.741 425.989L966.015 422.198C963.345 421.301 960.629 420.98 958.005 421.565C955.33 422.162 953.091 423.626 951.316 425.714L954.363 428.305L957.411 430.896C958.194 429.975 958.963 429.548 959.747 429.374C960.583 429.187 961.777 429.213 963.467 429.781L964.741 425.989ZM954.363 428.305L951.333 425.694C948.297 429.219 945.756 434.456 943.55 441.023L947.341 442.297L951.133 443.571C953.216 437.373 955.356 433.282 957.394 430.915L954.363 428.305ZM947.341 442.297L943.55 441.023C942.063 445.446 941.041 449.344 940.544 452.673L944.501 453.263L948.457 453.854C948.86 451.155 949.731 447.742 951.133 443.571L947.341 442.297ZM944.501 453.263L940.542 452.688C940.033 456.191 940.293 459.545 941.533 462.608L945.241 461.108L948.949 459.607C948.344 458.112 948.111 456.236 948.459 453.838L944.501 453.263ZM945.241 461.108L941.593 462.749C943.185 466.288 946.276 468.523 950.027 469.784L951.301 465.992L952.575 462.2C950.259 461.422 949.309 460.401 948.889 459.466L945.241 461.108ZM951.301 465.992L950.027 469.784C953.768 471.041 957.593 471.132 960.973 469.197L958.986 465.726L956.998 462.254C956.198 462.713 954.9 462.982 952.575 462.2L951.301 465.992ZM958.986 465.726L960.966 469.201C963.893 467.534 966.183 465.015 967.91 461.883L964.407 459.952L960.904 458.02C959.752 460.11 958.427 461.441 957.006 462.25L958.986 465.726ZM964.407 459.952L967.917 461.87C969.531 458.916 971.07 455.192 972.556 450.769L968.764 449.495L964.973 448.221C963.571 452.392 962.205 455.639 960.897 458.034L964.407 459.952Z" fill="#FFC93C" mask="url(#path-26-outside-2_410_4663)"/>
<mask id="path-28-outside-3_410_4663" maskUnits="userSpaceOnUse" x="1005.32" y="381.357" width="74.7319" height="90.3768" fill="black">
<rect fill="white" x="1005.32" y="381.357" width="74.7319" height="90.3768"/>
<path d="M1014.78 430.01C1013.37 418.631 1014.44 409.396 1017.99 402.304C1021.61 395.204 1028.31 391.046 1038.11 389.83C1047.9 388.614 1055.38 391.01 1060.56 397.018C1065.81 403.017 1069.14 411.706 1070.55 423.085C1071.98 434.597 1070.89 443.903 1067.27 451.003C1063.71 458.095 1057.04 462.249 1047.25 463.464C1037.46 464.68 1029.94 462.288 1024.69 456.289C1019.51 450.282 1016.21 441.522 1014.78 430.01ZM1053.88 425.156C1053.05 418.474 1051.68 413.437 1049.79 410.045C1047.88 406.587 1044.64 405.141 1040.08 405.708C1035.51 406.275 1032.73 408.468 1031.72 412.287C1030.71 416.041 1030.62 421.258 1031.45 427.94C1032.01 432.439 1032.74 436.144 1033.64 439.056C1034.53 441.901 1035.88 444.151 1037.7 445.806C1039.58 447.387 1042.1 447.981 1045.28 447.586C1048.45 447.192 1050.72 446.003 1052.09 444.02C1053.51 441.962 1054.31 439.445 1054.48 436.468C1054.64 433.425 1054.44 429.654 1053.88 425.156Z"/>
</mask>
<path d="M1014.78 430.01C1013.37 418.631 1014.44 409.396 1017.99 402.304C1021.61 395.204 1028.31 391.046 1038.11 389.83C1047.9 388.614 1055.38 391.01 1060.56 397.018C1065.81 403.017 1069.14 411.706 1070.55 423.085C1071.98 434.597 1070.89 443.903 1067.27 451.003C1063.71 458.095 1057.04 462.249 1047.25 463.464C1037.46 464.68 1029.94 462.288 1024.69 456.289C1019.51 450.282 1016.21 441.522 1014.78 430.01ZM1053.88 425.156C1053.05 418.474 1051.68 413.437 1049.79 410.045C1047.88 406.587 1044.64 405.141 1040.08 405.708C1035.51 406.275 1032.73 408.468 1031.72 412.287C1030.71 416.041 1030.62 421.258 1031.45 427.94C1032.01 432.439 1032.74 436.144 1033.64 439.056C1034.53 441.901 1035.88 444.151 1037.7 445.806C1039.58 447.387 1042.1 447.981 1045.28 447.586C1048.45 447.192 1050.72 446.003 1052.09 444.02C1053.51 441.962 1054.31 439.445 1054.48 436.468C1054.64 433.425 1054.44 429.654 1053.88 425.156Z" fill="#E35F61"/>
<path d="M1017.99 402.304L1014.43 400.487L1014.42 400.499L1014.41 400.512L1017.99 402.304ZM1060.56 397.018L1057.53 399.63L1057.54 399.64L1057.55 399.651L1060.56 397.018ZM1067.27 451.003L1063.7 449.186L1063.7 449.199L1063.69 449.211L1067.27 451.003ZM1024.69 456.289L1021.66 458.901L1021.67 458.912L1021.68 458.922L1024.69 456.289ZM1049.79 410.045L1046.28 411.977L1046.29 411.988L1046.3 411.999L1049.79 410.045ZM1031.72 412.287L1035.59 413.329L1035.59 413.316L1035.59 413.304L1031.72 412.287ZM1033.64 439.056L1029.82 440.236L1029.82 440.243L1029.82 440.251L1033.64 439.056ZM1037.7 445.806L1035.01 448.764L1035.06 448.816L1035.12 448.865L1037.7 445.806ZM1052.09 444.02L1048.8 441.744L1048.8 441.751L1052.09 444.02ZM1054.48 436.468L1058.47 436.693L1058.47 436.685L1058.47 436.678L1054.48 436.468ZM1014.78 430.01L1018.75 429.518C1017.39 418.59 1018.49 410.232 1021.57 404.095L1017.99 402.304L1014.41 400.512C1010.38 408.559 1009.34 418.673 1010.81 430.503L1014.78 430.01ZM1017.99 402.304L1021.55 404.12C1024.42 398.49 1029.77 394.896 1038.6 393.799L1038.11 389.83L1037.61 385.86C1026.86 387.196 1018.79 391.917 1014.43 400.487L1017.99 402.304ZM1038.11 389.83L1038.6 393.799C1047.43 392.703 1053.44 394.886 1057.53 399.63L1060.56 397.018L1063.59 394.406C1057.32 387.134 1048.36 384.525 1037.61 385.86L1038.11 389.83ZM1060.56 397.018L1057.55 399.651C1062.09 404.838 1065.23 412.66 1066.58 423.578L1070.55 423.085L1074.52 422.593C1073.05 410.753 1069.53 401.196 1063.57 394.385L1060.56 397.018ZM1070.55 423.085L1066.58 423.578C1067.96 434.64 1066.83 443.054 1063.7 449.186L1067.27 451.003L1070.83 452.82C1074.94 444.751 1076.01 434.554 1074.52 422.593L1070.55 423.085ZM1067.27 451.003L1063.69 449.211C1060.88 454.81 1055.59 458.398 1046.76 459.495L1047.25 463.464L1047.74 467.434C1058.49 466.099 1066.54 461.379 1070.84 452.795L1067.27 451.003ZM1047.25 463.464L1046.76 459.495C1037.93 460.591 1031.86 458.413 1027.7 453.656L1024.69 456.289L1021.68 458.922C1028.01 466.163 1036.99 468.769 1047.74 467.434L1047.25 463.464ZM1024.69 456.289L1027.72 453.677C1023.25 448.485 1020.12 440.589 1018.75 429.518L1014.78 430.01L1010.81 430.503C1012.29 442.455 1015.78 452.078 1021.66 458.901L1024.69 456.289ZM1053.88 425.156L1057.85 424.663C1056.99 417.788 1055.55 412.149 1053.28 408.091L1049.79 410.045L1046.3 411.999C1047.82 414.724 1049.1 419.159 1049.91 425.648L1053.88 425.156ZM1049.79 410.045L1053.29 408.113C1051.97 405.714 1050.06 403.833 1047.56 402.715C1045.11 401.618 1042.38 401.391 1039.58 401.738L1040.08 405.708L1040.57 409.677C1042.34 409.458 1043.52 409.67 1044.3 410.019C1045.03 410.347 1045.7 410.918 1046.28 411.977L1049.79 410.045ZM1040.08 405.708L1039.58 401.738C1036.79 402.085 1034.2 402.972 1032.09 404.636C1029.94 406.332 1028.55 408.621 1027.86 411.271L1031.72 412.287L1035.59 413.304C1035.9 412.134 1036.41 411.417 1037.04 410.92C1037.71 410.391 1038.8 409.897 1040.57 409.677L1040.08 405.708ZM1031.72 412.287L1027.86 411.246C1026.65 415.737 1026.63 421.558 1027.48 428.433L1031.45 427.94L1035.42 427.447C1034.62 420.958 1034.77 416.344 1035.59 413.329L1031.72 412.287ZM1031.45 427.94L1027.48 428.433C1028.06 433.064 1028.82 437.02 1029.82 440.236L1033.64 439.056L1037.46 437.876C1036.65 435.268 1035.96 431.814 1035.42 427.447L1031.45 427.94ZM1033.64 439.056L1029.82 440.251C1030.88 443.629 1032.56 446.539 1035.01 448.764L1037.7 445.806L1040.39 442.849C1039.2 441.763 1038.18 440.173 1037.45 437.861L1033.64 439.056ZM1037.7 445.806L1035.12 448.865C1038.09 451.366 1041.84 452.043 1045.77 451.556L1045.28 447.586L1044.78 443.617C1042.36 443.918 1041.06 443.409 1040.28 442.748L1037.7 445.806ZM1045.28 447.586L1045.77 451.556C1049.69 451.07 1053.18 449.496 1055.38 446.289L1052.09 444.02L1048.8 441.751C1048.27 442.51 1047.22 443.315 1044.78 443.617L1045.28 447.586ZM1052.09 444.02L1055.38 446.296C1057.3 443.525 1058.27 440.263 1058.47 436.693L1054.48 436.468L1050.48 436.243C1050.35 438.626 1049.73 440.399 1048.8 441.744L1052.09 444.02ZM1054.48 436.468L1058.47 436.678C1058.65 433.317 1058.42 429.294 1057.85 424.663L1053.88 425.156L1049.91 425.648C1050.45 430.015 1050.63 433.533 1050.48 436.258L1054.48 436.468Z" fill="#FFC93C" mask="url(#path-28-outside-3_410_4663)"/>
<mask id="path-30-outside-4_410_4663" maskUnits="userSpaceOnUse" x="1069.58" y="385.568" width="116.199" height="112.332" fill="black">
<rect fill="white" x="1069.58" y="385.568" width="116.199" height="112.332"/>
<path d="M1145.55 392.048L1179.72 453.37L1164.79 461.694L1144.29 424.918L1151.07 469.336L1139.02 476.054L1104.67 446.882L1125.22 483.745L1110.28 492.069L1076.11 430.748L1093.75 420.915L1134.62 453.778L1127.99 401.833L1145.55 392.048Z"/>
</mask>
<path d="M1145.55 392.048L1179.72 453.37L1164.79 461.694L1144.29 424.918L1151.07 469.336L1139.02 476.054L1104.67 446.882L1125.22 483.745L1110.28 492.069L1076.11 430.748L1093.75 420.915L1134.62 453.778L1127.99 401.833L1145.55 392.048Z" fill="#E35F61"/>
<path d="M1145.55 392.048L1149.05 390.101L1147.1 386.607L1143.6 388.554L1145.55 392.048ZM1179.72 453.37L1181.67 456.864L1185.17 454.917L1183.22 451.423L1179.72 453.37ZM1164.79 461.694L1161.29 463.641L1163.24 467.135L1166.73 465.188L1164.79 461.694ZM1144.29 424.918L1147.79 422.971L1140.34 425.522L1144.29 424.918ZM1151.07 469.336L1153.02 472.83L1155.45 471.478L1155.03 468.733L1151.07 469.336ZM1139.02 476.054L1136.43 479.102L1138.54 480.898L1140.96 479.548L1139.02 476.054ZM1104.67 446.882L1107.26 443.834L1101.18 448.829L1104.67 446.882ZM1125.22 483.745L1127.16 487.239L1130.66 485.292L1128.71 481.798L1125.22 483.745ZM1110.28 492.069L1106.78 494.016L1108.73 497.51L1112.23 495.563L1110.28 492.069ZM1076.11 430.748L1074.16 427.254L1070.67 429.201L1072.61 432.695L1076.11 430.748ZM1093.75 420.915L1096.26 417.798L1094.16 416.109L1091.8 417.421L1093.75 420.915ZM1134.62 453.778L1132.11 456.895L1139.84 463.111L1138.59 453.272L1134.62 453.778ZM1127.99 401.833L1126.05 398.339L1123.68 399.655L1124.03 402.339L1127.99 401.833ZM1145.55 392.048L1142.06 393.996L1176.23 455.317L1179.72 453.37L1183.22 451.423L1149.05 390.101L1145.55 392.048ZM1179.72 453.37L1177.78 449.876L1162.84 458.2L1164.79 461.694L1166.73 465.188L1181.67 456.864L1179.72 453.37ZM1164.79 461.694L1168.28 459.747L1147.79 422.971L1144.29 424.918L1140.8 426.866L1161.29 463.641L1164.79 461.694ZM1144.29 424.918L1140.34 425.522L1147.12 469.94L1151.07 469.336L1155.03 468.733L1148.25 424.315L1144.29 424.918ZM1151.07 469.336L1149.13 465.842L1137.07 472.56L1139.02 476.054L1140.96 479.548L1153.02 472.83L1151.07 469.336ZM1139.02 476.054L1141.61 473.005L1107.26 443.834L1104.67 446.882L1102.08 449.931L1136.43 479.102L1139.02 476.054ZM1104.67 446.882L1101.18 448.829L1121.72 485.692L1125.22 483.745L1128.71 481.798L1108.17 444.935L1104.67 446.882ZM1125.22 483.745L1123.27 480.251L1108.33 488.575L1110.28 492.069L1112.23 495.563L1127.16 487.239L1125.22 483.745ZM1110.28 492.069L1113.77 490.122L1079.6 428.801L1076.11 430.748L1072.61 432.695L1106.78 494.016L1110.28 492.069ZM1076.11 430.748L1078.05 434.242L1095.7 424.409L1093.75 420.915L1091.8 417.421L1074.16 427.254L1076.11 430.748ZM1093.75 420.915L1091.25 424.032L1132.11 456.895L1134.62 453.778L1137.12 450.661L1096.26 417.798L1093.75 420.915ZM1134.62 453.778L1138.59 453.272L1131.96 401.327L1127.99 401.833L1124.03 402.339L1130.65 454.284L1134.62 453.778ZM1127.99 401.833L1129.94 405.327L1147.5 395.543L1145.55 392.048L1143.6 388.554L1126.05 398.339L1127.99 401.833Z" fill="#FFC93C" mask="url(#path-30-outside-4_410_4663)"/>
<mask id="path-32-outside-5_410_4663" maskUnits="userSpaceOnUse" x="1137.95" y="319.814" width="74.6596" height="81.6366" fill="black">
<rect fill="white" x="1137.95" y="319.814" width="74.6596" height="81.6366"/>
<path d="M1158.88 326.558L1187.91 364.711L1176.75 373.965L1144.64 338.365L1158.88 326.558ZM1198.86 388.887C1196.55 390.801 1194.1 391.708 1191.5 391.608C1188.92 391.413 1186.79 390.315 1185.13 388.314C1183.43 386.261 1182.72 383.946 1183.01 381.369C1183.35 378.749 1184.68 376.482 1186.99 374.567C1189.25 372.695 1191.67 371.856 1194.25 372.051C1196.89 372.203 1199.06 373.305 1200.76 375.358C1202.42 377.36 1203.08 379.67 1202.74 382.29C1202.41 384.816 1201.12 387.014 1198.86 388.887Z"/>
</mask>
<path d="M1158.88 326.558L1187.91 364.711L1176.75 373.965L1144.64 338.365L1158.88 326.558ZM1198.86 388.887C1196.55 390.801 1194.1 391.708 1191.5 391.608C1188.92 391.413 1186.79 390.315 1185.13 388.314C1183.43 386.261 1182.72 383.946 1183.01 381.369C1183.35 378.749 1184.68 376.482 1186.99 374.567C1189.25 372.695 1191.67 371.856 1194.25 372.051C1196.89 372.203 1199.06 373.305 1200.76 375.358C1202.42 377.36 1203.08 379.67 1202.74 382.29C1202.41 384.816 1201.12 387.014 1198.86 388.887Z" fill="#E35F61"/>
<path d="M1158.88 326.558L1162.06 324.136L1159.54 320.817L1156.32 323.479L1158.88 326.558ZM1187.91 364.711L1190.46 367.79L1193.41 365.342L1191.09 362.289L1187.91 364.711ZM1176.75 373.965L1173.78 376.644L1176.34 379.493L1179.3 377.044L1176.75 373.965ZM1144.64 338.365L1142.08 335.286L1138.87 337.947L1141.66 341.044L1144.64 338.365ZM1191.5 391.608L1191.2 395.596L1191.27 395.602L1191.35 395.605L1191.5 391.608ZM1183.01 381.369L1179.05 380.854L1179.04 380.889L1179.04 380.924L1183.01 381.369ZM1194.25 372.051L1193.95 376.039L1193.99 376.042L1194.02 376.044L1194.25 372.051ZM1202.74 382.29L1206.71 382.809L1206.71 382.804L1202.74 382.29ZM1158.88 326.558L1155.69 328.98L1184.73 367.133L1187.91 364.711L1191.09 362.289L1162.06 324.136L1158.88 326.558ZM1187.91 364.711L1185.36 361.631L1174.19 370.885L1176.75 373.965L1179.3 377.044L1190.46 367.79L1187.91 364.711ZM1176.75 373.965L1179.72 371.286L1147.61 335.686L1144.64 338.365L1141.66 341.044L1173.78 376.644L1176.75 373.965ZM1144.64 338.365L1147.19 341.445L1161.43 329.638L1158.88 326.558L1156.32 323.479L1142.08 335.286L1144.64 338.365ZM1198.86 388.887L1196.3 385.807C1194.63 387.197 1193.11 387.667 1191.66 387.611L1191.5 391.608L1191.35 395.605C1195.08 395.749 1198.47 394.406 1201.41 391.966L1198.86 388.887ZM1191.5 391.608L1191.8 387.619C1190.3 387.506 1189.18 386.929 1188.21 385.761L1185.13 388.314L1182.05 390.867C1184.4 393.702 1187.53 395.32 1191.2 395.596L1191.5 391.608ZM1185.13 388.314L1188.21 385.761C1187.18 384.517 1186.82 383.277 1186.99 381.813L1183.01 381.369L1179.04 380.924C1178.63 384.614 1179.68 388.004 1182.05 390.867L1185.13 388.314ZM1183.01 381.369L1186.98 381.883C1187.17 380.404 1187.9 379.01 1189.54 377.647L1186.99 374.567L1184.43 371.488C1181.46 373.954 1179.53 377.094 1179.05 380.854L1183.01 381.369ZM1186.99 374.567L1189.54 377.647C1191.11 376.342 1192.54 375.933 1193.95 376.039L1194.25 372.051L1194.55 368.062C1190.8 367.78 1187.38 369.049 1184.43 371.488L1186.99 374.567ZM1194.25 372.051L1194.02 376.044C1195.54 376.131 1196.68 376.703 1197.68 377.911L1200.76 375.358L1203.84 372.805C1201.44 369.906 1198.24 368.274 1194.48 368.057L1194.25 372.051ZM1200.76 375.358L1197.68 377.911C1198.62 379.042 1198.97 380.237 1198.77 381.776L1202.74 382.29L1206.71 382.804C1207.19 379.103 1206.22 375.677 1203.84 372.805L1200.76 375.358ZM1202.74 382.29L1198.78 381.77C1198.6 383.143 1197.91 384.475 1196.3 385.807L1198.86 388.887L1201.41 391.966C1204.32 389.554 1206.23 386.488 1206.71 382.809L1202.74 382.29Z" fill="#FFC93C" mask="url(#path-32-outside-5_410_4663)"/>
<mask id="path-34-outside-6_410_4663" maskUnits="userSpaceOnUse" x="1163.7" y="280.235" width="61.8814" height="86.4347" fill="black">
<rect fill="white" x="1163.7" y="280.235" width="61.8814" height="86.4347"/>
<path d="M1186.83 286.452L1205.94 330.421L1192.89 336.75L1170.18 294.526L1186.83 286.452ZM1210.81 356.51C1208.11 357.819 1205.51 358.116 1203.02 357.4C1200.55 356.595 1198.75 355.023 1197.62 352.684C1196.45 350.285 1196.32 347.868 1197.21 345.434C1198.17 342.97 1199.99 341.084 1202.69 339.775C1205.33 338.494 1207.88 338.257 1210.35 339.062C1212.87 339.837 1214.72 341.425 1215.88 343.824C1217.02 346.163 1217.11 348.565 1216.15 351.028C1215.23 353.402 1213.45 355.229 1210.81 356.51Z"/>
</mask>
<path d="M1186.83 286.452L1205.94 330.421L1192.89 336.75L1170.18 294.526L1186.83 286.452ZM1210.81 356.51C1208.11 357.819 1205.51 358.116 1203.02 357.4C1200.55 356.595 1198.75 355.023 1197.62 352.684C1196.45 350.285 1196.32 347.868 1197.21 345.434C1198.17 342.97 1199.99 341.084 1202.69 339.775C1205.33 338.494 1207.88 338.257 1210.35 339.062C1212.87 339.837 1214.72 341.425 1215.88 343.824C1217.02 346.163 1217.11 348.565 1216.15 351.028C1215.23 353.402 1213.45 355.229 1210.81 356.51Z" fill="#E35F61"/>
<path d="M1186.83 286.452L1190.5 284.858L1188.83 281.033L1185.08 282.853L1186.83 286.452ZM1205.94 330.421L1207.68 334.02L1211.13 332.346L1209.6 328.827L1205.94 330.421ZM1192.89 336.75L1189.37 338.645L1191.18 342.023L1194.64 340.349L1192.89 336.75ZM1170.18 294.526L1168.44 290.927L1164.69 292.747L1166.66 296.421L1170.18 294.526ZM1203.02 357.4L1201.78 361.203L1201.85 361.225L1201.92 361.245L1203.02 357.4ZM1197.21 345.434L1193.48 343.989L1193.47 344.022L1193.46 344.055L1197.21 345.434ZM1210.35 339.062L1209.11 342.864L1209.14 342.875L1209.17 342.885L1210.35 339.062ZM1216.15 351.028L1219.88 352.477L1219.88 352.472L1216.15 351.028ZM1186.83 286.452L1183.16 288.046L1202.27 332.016L1205.94 330.421L1209.6 328.827L1190.5 284.858L1186.83 286.452ZM1205.94 330.421L1204.19 326.823L1191.14 333.151L1192.89 336.75L1194.64 340.349L1207.68 334.02L1205.94 330.421ZM1192.89 336.75L1196.41 334.856L1173.71 292.632L1170.18 294.526L1166.66 296.421L1189.37 338.645L1192.89 336.75ZM1170.18 294.526L1171.93 298.125L1188.57 290.051L1186.83 286.452L1185.08 282.853L1168.44 290.927L1170.18 294.526ZM1210.81 356.51L1209.06 352.911C1207.11 353.861 1205.52 353.957 1204.12 353.555L1203.02 357.4L1201.92 361.245C1205.5 362.274 1209.12 361.777 1212.56 360.109L1210.81 356.51ZM1203.02 357.4L1204.26 353.598C1202.83 353.131 1201.88 352.303 1201.22 350.938L1197.62 352.684L1194.02 354.43C1195.63 357.743 1198.28 360.06 1201.78 361.203L1203.02 357.4ZM1197.62 352.684L1201.22 350.938C1200.51 349.485 1200.46 348.195 1200.97 346.813L1197.21 345.434L1193.46 344.055C1192.18 347.541 1192.4 351.085 1194.02 354.43L1197.62 352.684ZM1197.21 345.434L1200.94 346.878C1201.48 345.487 1202.52 344.306 1204.44 343.374L1202.69 339.775L1200.95 336.176C1197.47 337.862 1194.85 340.454 1193.48 343.989L1197.21 345.434ZM1202.69 339.775L1204.44 343.374C1206.28 342.481 1207.76 342.424 1209.11 342.864L1210.35 339.062L1211.59 335.259C1208.01 334.09 1204.39 334.508 1200.95 336.176L1202.69 339.775ZM1210.35 339.062L1209.17 342.885C1210.63 343.331 1211.6 344.159 1212.28 345.57L1215.88 343.824L1219.48 342.078C1217.84 338.691 1215.12 336.343 1211.52 335.238L1210.35 339.062ZM1215.88 343.824L1212.28 345.57C1212.92 346.892 1212.98 348.137 1212.42 349.584L1216.15 351.028L1219.88 352.472C1221.23 348.992 1221.11 345.435 1219.48 342.078L1215.88 343.824ZM1216.15 351.028L1212.43 349.579C1211.92 350.869 1210.94 352 1209.06 352.911L1210.81 356.51L1212.56 360.109C1215.96 358.459 1218.54 355.935 1219.88 352.477L1216.15 351.028Z" fill="#FFC93C" mask="url(#path-34-outside-6_410_4663)"/>
</g>
<defs>
<radialGradient id="paint0_radial_410_4663" cx="0" cy="0" r="1" gradientTransform="matrix(-73.061 195.848 -167.448 -62.4659 614.684 313.5)" gradientUnits="userSpaceOnUse">
<stop stop-color="#EDAD68"/>
<stop offset="0.677885" stop-color="#D38D65"/>
<stop offset="1" stop-color="#D08259"/>
</radialGradient>
<linearGradient id="paint1_linear_410_4663" x1="1051.5" y1="169" x2="1051.5" y2="454.821" gradientUnits="userSpaceOnUse">
<stop stop-color="#707070"/>
<stop offset="1" stop-color="#D6D6D6"/>
</linearGradient>
<clipPath id="clip0_410_4663">
<rect width="1280" height="720" fill="white"/>
</clipPath>
</defs>
</svg>
