<svg width="1280" height="720" viewBox="0 0 1280 720" fill="none" xmlns="http://www.w3.org/2000/svg">
<g clip-path="url(#clip0_560_2426)">
<rect width="1280" height="720" fill="#ECFAFF"/>
<path d="M0 -0.25H1280V719.749H0V-0.25Z" fill="url(#paint0_radial_560_2426)"/>
<path d="M46.857 -159.678L648.036 359.996L444.699 -152.167L46.857 -159.678Z" fill="#FF7B54" fill-opacity="0.5"/>
<path d="M1093 -284L638 367.5L1356.5 -20.2906L1093 -284Z" fill="#FF7B54" fill-opacity="0.5"/>
<path d="M1246.84 865.546L639.569 353.003L848.936 862.731L1246.84 865.546Z" fill="#FF7B54" fill-opacity="0.5"/>
<path d="M307.344 1057.05L649.857 340.001L4.32064 839.908L307.344 1057.05Z" fill="#FF7B54" fill-opacity="0.5"/>
<path d="M-134.895 520.73L641.827 352.862L-148.573 148.187L-134.895 520.73Z" fill="#FF7B54" fill-opacity="0.5"/>
<path d="M1418.72 519.73L642 351.862L1432.4 147.187L1418.72 519.73Z" fill="#FF7B54" fill-opacity="0.5"/>
<path d="M703.91 212.409C767.406 217.678 814.608 273.423 809.339 336.918C808.445 347.688 806.097 357.988 802.507 367.644C789.315 410.045 735.845 496.116 692.142 529.137C667.794 549.476 635.745 560.621 601.63 557.79C532.799 552.078 481.63 491.649 487.342 422.818C490.442 385.458 509.663 353.303 537.597 332.621C567.354 306.554 577.005 300.631 593.894 270.619L593.902 270.623C615.383 232.653 657.583 208.565 703.91 212.409Z" fill="url(#paint1_radial_560_2426)"/>
<rect x="576.541" y="351.136" width="126.833" height="40.2249" rx="9" transform="rotate(32.1491 576.541 351.136)" fill="#3E3E3E" stroke="#707070" stroke-width="6"/>
<path d="M646.09 259.132L663.086 290.048L629.726 290.294" stroke="#62342A" stroke-width="3"/>
<path d="M721.348 340.649L704.353 309.733L737.713 309.487" stroke="#62342A" stroke-width="3"/>
<path d="M673.456 312.787C688.647 320.179 695.225 338.17 688.622 353.53L632.038 325.997C640.049 311.322 658.265 305.396 673.456 312.787Z" fill="#C06A60" stroke="#62342A" stroke-width="3"/>
<path d="M753 229.015C762.594 214.57 791.982 190.413 832.784 209.343" stroke="#62342A" stroke-width="19"/>
<path d="M829.985 163.801C830.9 163.274 831.937 162.998 832.993 163C834.049 162.998 835.087 163.274 836.002 163.801C836.917 164.328 837.676 165.087 838.204 166.001L853.79 193.014C856.608 197.902 857.615 203.626 856.634 209.183C855.653 214.739 852.745 219.772 848.423 223.399C839.537 230.867 826.449 230.867 817.564 223.399C813.249 219.767 810.348 214.734 809.367 209.18C808.386 203.626 809.387 197.904 812.197 193.014L827.782 166.001C828.31 165.087 829.07 164.328 829.985 163.801Z" fill="#EF6E48"/>
<path d="M831.241 191.461C831.775 191.158 832.38 190.999 832.996 191C833.612 190.999 834.217 191.158 834.751 191.461C835.285 191.765 835.728 192.202 836.036 192.728L845.127 208.281C846.772 211.095 847.359 214.391 846.786 217.59C846.214 220.789 844.518 223.687 841.996 225.775C836.813 230.075 829.179 230.075 823.996 225.775C821.479 223.684 819.786 220.786 819.214 217.589C818.642 214.391 819.226 211.096 820.865 208.281L829.956 192.728C830.264 192.202 830.707 191.765 831.241 191.461Z" fill="#FFC93C"/>
<path d="M584.898 380.38C586.7 377.45 588.682 375.487 590.844 374.493C593.023 373.508 595.373 373.792 597.894 375.343C600.415 376.894 601.719 378.858 601.806 381.236C601.91 383.625 601.06 386.284 599.258 389.214C597.434 392.178 595.433 394.152 593.254 395.137C591.093 396.131 588.751 395.853 586.23 394.302C583.709 392.751 582.397 390.781 582.293 388.393C582.206 386.015 583.074 383.344 584.898 380.38ZM594.965 386.573C596.024 384.853 596.648 383.417 596.84 382.267C597.041 381.099 596.554 380.154 595.379 379.431C594.204 378.708 593.14 378.7 592.189 379.406C591.248 380.095 590.249 381.3 589.19 383.021C588.478 384.179 587.954 385.183 587.619 386.034C587.294 386.867 587.189 387.648 587.304 388.376C587.447 389.098 587.928 389.711 588.745 390.214C589.563 390.717 590.318 390.864 591.009 390.656C591.729 390.441 592.387 390.001 592.984 389.335C593.592 388.652 594.253 387.732 594.965 386.573ZM601.566 390.634C603.369 387.704 605.351 385.742 607.513 384.747C609.692 383.763 612.042 384.046 614.563 385.597C617.084 387.148 618.388 389.113 618.474 391.491C618.578 393.88 617.729 396.539 615.926 399.469C614.103 402.433 612.102 404.407 609.923 405.391C607.761 406.386 605.42 406.108 602.899 404.557C600.378 403.006 599.065 401.036 598.961 398.647C598.874 396.269 599.743 393.598 601.566 390.634ZM611.634 396.828C612.692 395.107 613.317 393.672 613.508 392.522C613.71 391.354 613.223 390.409 612.047 389.686C610.872 388.963 609.809 388.954 608.858 389.661C607.917 390.35 606.917 391.555 605.859 393.275C605.146 394.434 604.622 395.438 604.287 396.288C603.962 397.122 603.858 397.903 603.973 398.631C604.116 399.353 604.596 399.966 605.414 400.469C606.231 400.972 606.986 401.119 607.678 400.91C608.397 400.695 609.056 400.255 609.653 399.589C610.261 398.907 610.921 397.986 611.634 396.828ZM614.693 412.2C613.926 411.729 613.432 411.119 613.211 410.372C613.017 409.619 613.124 408.91 613.533 408.246C613.952 407.565 614.541 407.141 615.301 406.974C616.078 406.818 616.85 406.976 617.617 407.447C618.366 407.909 618.838 408.516 619.032 409.269C619.243 410.033 619.139 410.756 618.72 411.437C618.311 412.101 617.718 412.512 616.941 412.668C616.192 412.817 615.442 412.661 614.693 412.2ZM621.091 401.801C620.324 401.329 619.83 400.72 619.608 399.973C619.414 399.22 619.522 398.511 619.931 397.846C620.35 397.165 620.939 396.741 621.699 396.575C622.476 396.419 623.248 396.576 624.014 397.048C624.764 397.509 625.236 398.116 625.43 398.87C625.641 399.633 625.537 400.356 625.118 401.037C624.709 401.702 624.116 402.112 623.339 402.268C622.59 402.417 621.84 402.262 621.091 401.801ZM625.496 405.356C627.299 402.426 629.281 400.464 631.443 399.469C633.621 398.485 635.971 398.768 638.492 400.319C641.014 401.87 642.317 403.835 642.404 406.213C642.508 408.601 641.659 411.261 639.856 414.191C638.033 417.155 636.032 419.129 633.853 420.113C631.691 421.108 629.35 420.83 626.828 419.279C624.307 417.728 622.995 415.758 622.891 413.369C622.804 410.991 623.673 408.32 625.496 405.356ZM635.563 411.55C636.622 409.829 637.247 408.394 637.438 407.243C637.64 406.076 637.153 405.131 635.977 404.408C634.802 403.684 633.739 403.676 632.787 404.382C631.847 405.072 630.847 406.277 629.789 407.997C629.076 409.155 628.552 410.16 628.217 411.01C627.892 411.844 627.787 412.624 627.903 413.353C628.046 414.075 628.526 414.687 629.344 415.19C630.161 415.693 630.916 415.841 631.608 415.632C632.327 415.417 632.985 414.977 633.583 414.311C634.191 413.629 634.851 412.708 635.563 411.55ZM644.66 411.898C645.85 410.117 647.31 409.079 649.043 408.782C650.775 408.486 652.603 408.93 654.528 410.114C655.806 410.9 656.76 411.792 657.39 412.791C658.037 413.799 658.355 414.829 658.344 415.878C658.349 416.938 658.058 417.945 657.471 418.899C656.78 420.023 655.933 420.77 654.93 421.14C653.939 421.492 652.989 421.566 652.083 421.36L652.02 421.462C652.792 422.383 653.228 423.392 653.329 424.487C653.43 425.582 653.119 426.718 652.396 427.893C651.746 428.949 650.923 429.734 649.926 430.248C648.956 430.755 647.862 430.95 646.642 430.834C645.439 430.728 644.199 430.282 642.921 429.496C640.877 428.238 639.551 426.73 638.943 424.97C638.351 423.221 638.645 421.312 639.824 419.243L644.066 421.853C643.622 422.613 643.468 423.34 643.604 424.034C643.751 424.712 644.216 425.291 645 425.773C645.664 426.182 646.291 426.309 646.879 426.154C647.495 425.993 647.996 425.597 648.384 424.967C648.887 424.149 648.985 423.399 648.677 422.717C648.396 422.028 647.685 421.332 646.544 420.63L645.726 420.127L647.911 416.575L648.729 417.078C649.598 417.613 650.385 417.897 651.092 417.933C651.825 417.961 652.428 417.593 652.9 416.826C653.277 416.213 653.4 415.631 653.269 415.081C653.138 414.53 652.774 414.072 652.178 413.705C651.531 413.307 650.925 413.204 650.36 413.397C649.812 413.6 649.335 413.975 648.927 414.523L644.66 411.898Z" fill="white"/>
<path d="M1143.43 936.456C1124.16 962.601 1080.39 960.302 1048.83 961.76C1044.21 961.973 1006.02 991.873 997.984 994.656C990.385 978.781 1009.63 984.073 1015.78 933.959C1033.74 935.914 1026.99 874.232 1062.67 862.586C1068.78 827.69 997.278 662.888 962.753 641.665C927.33 622.528 891.677 597.124 850.513 595.476C801.742 572.658 935.034 592.073 894.485 556.345C876.711 538.794 835.24 525.054 830.771 505.435C852.515 502.631 913.933 543.294 909.275 505.943C897.294 482.723 845.071 451.708 859.17 433.438C880.717 442.456 917.711 499.457 927.104 486.623C919.548 473.86 889.098 421.834 924.109 449.574C940.457 458.631 967.425 514.967 977.45 490.853C968.261 478.639 941.949 436.343 975.088 461.094C1015.17 501.451 1011.72 562.162 1039.04 609.319C1061.94 659.669 1136.52 796.117 1149.16 850.513C1151.08 875.675 1162.71 919.545 1143.43 936.456Z" fill="#B26B61"/>
<path d="M1222.55 -83.7552C1209.13 -109.008 1170.7 -112.627 1143.39 -117.952C1139.4 -118.73 1109.97 -149.685 1103.32 -153.142C1094.66 -140.288 1112.1 -142.426 1111.03 -97.9776C1126.92 -97.3734 1113.12 -44.5032 1142.71 -29.774C1143.55 1.41253 1060.09 135.802 1027.28 149.856C993.964 161.978 959.641 179.53 923.567 175.678C878.146 189.292 996.764 189.5 956.849 215.417C939.109 228.425 901.215 235.067 894.801 251.586C913.384 256.822 972.115 229.285 963.259 261.227C949.838 279.918 900.358 300.229 910.294 317.957C930.224 312.868 969.775 267.961 976.31 280.348C968.087 290.498 934.877 331.91 968.941 312.241C984.347 306.45 1015.08 260.835 1020.71 283.131C1011.14 292.591 982.784 326.059 1014.83 308.753C1054.94 278.743 1059.73 225.409 1089.59 187.836C1116 146.912 1198.51 37.6201 1216.51 -8.14566C1221.41 -29.8195 1237.18 -66.5459 1222.55 -83.7552Z" fill="#D99773"/>
<path d="M132.494 -108.058C146.848 -135.06 187.942 -138.93 217.142 -144.623C221.412 -145.456 252.882 -178.555 259.989 -182.252C269.248 -168.507 250.596 -170.794 251.749 -123.265C234.753 -122.619 249.507 -66.0861 217.868 -50.3364C216.97 -16.9891 306.217 126.712 341.293 141.739C376.921 154.701 413.623 173.469 452.196 169.35C500.763 183.907 373.927 184.13 416.608 211.843C435.576 225.751 476.097 232.854 482.955 250.517C463.084 256.116 400.284 226.672 409.753 260.826C424.104 280.812 477.013 302.531 466.388 321.487C445.077 316.046 402.786 268.027 395.798 281.273C404.59 292.125 440.102 336.407 403.677 315.374C387.205 309.183 354.344 260.407 348.317 284.248C358.555 294.363 388.876 330.151 354.605 311.645C311.722 279.556 306.594 222.527 274.667 182.35C246.425 138.591 158.205 21.727 138.954 -27.2096C133.711 -50.3851 116.857 -89.656 132.494 -108.058Z" fill="#F6B18C"/>
<path d="M112.856 740.079C126.8 769.933 170.803 776.385 201.906 784.136C206.455 785.269 238.476 822.637 245.918 827.01C256.645 812.736 207.359 817.435 211.245 766.357C244.414 785.065 192.993 764.716 211.245 766.357C180.139 702.277 236.647 603.418 275.227 589.2C314.285 577.236 354.822 559.082 396.099 565.661C449.17 552.7 312.702 545.402 360.17 517.957C381.355 504.046 425.352 498.658 433.714 480.034C412.644 472.904 343.43 501.092 355.52 464.867C372.074 444.16 430.215 423.734 419.837 402.746C396.603 407.414 348.423 456.731 341.642 442.089C351.706 430.901 392.383 385.228 352.018 405.833C333.948 411.578 295.874 462.234 290.716 436.245C302.295 425.93 336.913 389.109 299.007 407.115C251.076 439.257 242.385 500.338 205.795 541.793C172.969 587.307 147.745 601.856 124.307 653.442C117.375 678.088 97.0543 719.407 112.856 740.079Z" fill="#D99773"/>
</g>
<defs>
<radialGradient id="paint0_radial_560_2426" cx="0" cy="0" r="1" gradientUnits="userSpaceOnUse" gradientTransform="translate(642.112 349.716) rotate(-90) scale(284.28 284.043)">
<stop stop-color="#FFC592"/>
<stop offset="1" stop-color="#FFC977"/>
</radialGradient>
<radialGradient id="paint1_radial_560_2426" cx="0" cy="0" r="1" gradientTransform="matrix(-86.3106 231.364 -197.815 -73.7938 637.29 324.258)" gradientUnits="userSpaceOnUse">
<stop stop-color="#EDAD68"/>
<stop offset="0.677885" stop-color="#D38D65"/>
<stop offset="1" stop-color="#D08259"/>
</radialGradient>
<clipPath id="clip0_560_2426">
<rect width="1280" height="720" fill="white"/>
</clipPath>
</defs>
</svg>
