<?xml version="1.0" encoding="UTF-8" standalone="no"?>
<!DOCTYPE svg PUBLIC "-//W3C//DTD SVG 1.1//EN"
 "http://www.w3.org/Graphics/SVG/1.1/DTD/svg11.dtd">
<!-- Generated by graphviz version 14.1.2 (0)
 -->
<!-- Title: PDG_Protobject Pages: 1 -->
<svg width="1042pt" height="568pt"
 viewBox="0.00 0.00 1042.00 568.00" xmlns="http://www.w3.org/2000/svg" xmlns:xlink="http://www.w3.org/1999/xlink">
<g id="graph0" class="graph" transform="scale(1 1) rotate(0) translate(21.6 546.6)">
<title>PDG_Protobject</title>
<polygon fill="#fbf6eb" stroke="none" points="-21.6,21.6 -21.6,-546.6 1020.6,-546.6 1020.6,21.6 -21.6,21.6"/>
<g id="clust1" class="cluster">
<title>cluster_loop</title>
<path fill="#fbf6eb" stroke="#8b2418" stroke-width="1.8" stroke-dasharray="5,2" d="M20,-8C20,-8 979,-8 979,-8 985,-8 991,-14 991,-20 991,-20 991,-272 991,-272 991,-278 985,-284 979,-284 979,-284 20,-284 20,-284 14,-284 8,-278 8,-272 8,-272 8,-20 8,-20 8,-14 14,-8 20,-8"/>
<text xml:space="preserve" text-anchor="start" x="41.88" y="-270.55" font-family="Arial" font-weight="bold" font-size="11.00">loop</text>
<text xml:space="preserve" text-anchor="start" x="16" y="-261.45" font-family="Arial" font-size="9.00" fill="#8b2418">alcance de control</text>
</g>
<!-- n1 -->
<g id="node1" class="node">
<title>n1</title>
<path fill="#34495e" stroke="#1a1612" stroke-width="1.5" d="M484.52,-525C484.52,-525 377.48,-525 377.48,-525 371.48,-525 365.48,-519 365.48,-513 365.48,-513 365.48,-501 365.48,-501 365.48,-495 371.48,-489 377.48,-489 377.48,-489 484.52,-489 484.52,-489 490.52,-489 496.52,-495 496.52,-501 496.52,-501 496.52,-513 496.52,-513 496.52,-519 490.52,-525 484.52,-525"/>
<text xml:space="preserve" text-anchor="middle" x="431" y="-503.3" font-family="Arial" font-size="11.00" fill="#fbf6eb">1 &#160;&#160;ProgramStartEvent</text>
</g>
<!-- n2 -->
<g id="node2" class="node">
<title>n2</title>
<path fill="#8b2418" stroke="#1a1612" stroke-width="1.5" d="M465.77,-448C465.77,-448 396.23,-448 396.23,-448 390.23,-448 384.23,-442 384.23,-436 384.23,-436 384.23,-424 384.23,-424 384.23,-418 390.23,-412 396.23,-412 396.23,-412 465.77,-412 465.77,-412 471.77,-412 477.77,-418 477.77,-424 477.77,-424 477.77,-436 477.77,-436 477.77,-442 471.77,-448 465.77,-448"/>
<text xml:space="preserve" text-anchor="middle" x="431" y="-426.3" font-family="Arial" font-size="11.00" fill="#fbf6eb">2 &#160;&#160;SetVariable</text>
</g>
<!-- n1&#45;&gt;n2 -->
<g id="edge1" class="edge">
<title>n1&#45;&gt;n2</title>
<path fill="none" stroke="#8b2418" stroke-width="2" d="M431,-488.6C431,-480.52 431,-470.67 431,-461.42"/>
<polygon fill="#8b2418" stroke="#8b2418" stroke-width="2" points="434.5,-461.59 431,-451.59 427.5,-461.59 434.5,-461.59"/>
</g>
<!-- n4 -->
<g id="node4" class="node">
<title>n4</title>
<path fill="#8b2418" stroke="#1a1612" stroke-width="1.5" d="M589.27,-360C589.27,-360 504.73,-360 504.73,-360 498.73,-360 492.73,-354 492.73,-348 492.73,-348 492.73,-336 492.73,-336 492.73,-330 498.73,-324 504.73,-324 504.73,-324 589.27,-324 589.27,-324 595.27,-324 601.27,-330 601.27,-336 601.27,-336 601.27,-348 601.27,-348 601.27,-354 595.27,-360 589.27,-360"/>
<text xml:space="preserve" text-anchor="middle" x="547" y="-338.3" font-family="Arial" font-size="11.00" fill="#fbf6eb">4 &#160;&#160;ToggleVariable</text>
</g>
<!-- n2&#45;&gt;n4 -->
<g id="edge2" class="edge">
<title>n2&#45;&gt;n4</title>
<path fill="none" stroke="#4a3f33" stroke-width="1.3" d="M454.75,-411.39C471.8,-398.75 495,-381.55 513.86,-367.57"/>
<polygon fill="#4a3f33" stroke="#4a3f33" stroke-width="1.3" points="515.75,-370.53 521.7,-361.76 511.58,-364.9 515.75,-370.53"/>
<text xml:space="preserve" text-anchor="middle" x="510.95" y="-382.5" font-family="Arial" font-size="10.00" fill="#8b2418"> flama </text>
</g>
<!-- n5 -->
<g id="node5" class="node">
<title>n5</title>
<path fill="#b8843a" stroke="#1a1612" stroke-width="1.5" d="M525.27,-238C525.27,-238 422.73,-238 422.73,-238 416.73,-238 410.73,-232 410.73,-226 410.73,-226 410.73,-214 410.73,-214 410.73,-208 416.73,-202 422.73,-202 422.73,-202 525.27,-202 525.27,-202 531.27,-202 537.27,-208 537.27,-214 537.27,-214 537.27,-226 537.27,-226 537.27,-232 531.27,-238 525.27,-238"/>
<text xml:space="preserve" text-anchor="middle" x="474" y="-216.3" font-family="Arial" font-size="11.00" fill="#fbf6eb">5 &#160;&#160;ConditionalBranch</text>
</g>
<!-- n2&#45;&gt;n5 -->
<g id="edge3" class="edge">
<title>n2&#45;&gt;n5</title>
<path fill="none" stroke="#4a3f33" stroke-width="1.3" d="M433.1,-411.44C435.74,-390.5 440.69,-354.52 447,-324 452.2,-298.85 459.71,-270.65 465.49,-250.13"/>
<polygon fill="#4a3f33" stroke="#4a3f33" stroke-width="1.3" points="468.82,-251.2 468.2,-240.62 462.09,-249.28 468.82,-251.2"/>
<text xml:space="preserve" text-anchor="middle" x="462" y="-338.5" font-family="Arial" font-size="10.00" fill="#8b2418"> flama </text>
</g>
<!-- n3 -->
<g id="node3" class="node">
<title>n3</title>
<path fill="#34495e" stroke="#1a1612" stroke-width="1.5" d="M628.52,-448C628.52,-448 521.48,-448 521.48,-448 515.48,-448 509.48,-442 509.48,-436 509.48,-436 509.48,-424 509.48,-424 509.48,-418 515.48,-412 521.48,-412 521.48,-412 628.52,-412 628.52,-412 634.52,-412 640.52,-418 640.52,-424 640.52,-424 640.52,-436 640.52,-436 640.52,-442 634.52,-448 628.52,-448"/>
<text xml:space="preserve" text-anchor="middle" x="575" y="-426.3" font-family="Arial" font-size="11.00" fill="#fbf6eb">3 &#160;&#160;SuddenNoiseEvent</text>
</g>
<!-- n3&#45;&gt;n4 -->
<g id="edge4" class="edge">
<title>n3&#45;&gt;n4</title>
<path fill="none" stroke="#8b2418" stroke-width="2" d="M569.33,-411.6C565.71,-400.48 560.93,-385.77 556.71,-372.83"/>
<polygon fill="#8b2418" stroke="#8b2418" stroke-width="2" points="560.12,-371.98 553.69,-363.55 553.46,-374.14 560.12,-371.98"/>
</g>
<!-- n4&#45;&gt;n5 -->
<g id="edge5" class="edge">
<title>n4&#45;&gt;n5</title>
<path fill="none" stroke="#4a3f33" stroke-width="1.3" d="M536.23,-323.29C524.25,-303.59 504.73,-271.52 490.75,-248.54"/>
<polygon fill="#4a3f33" stroke="#4a3f33" stroke-width="1.3" points="493.79,-246.79 485.6,-240.07 487.81,-250.43 493.79,-246.79"/>
<text xml:space="preserve" text-anchor="middle" x="538.39" y="-294.5" font-family="Arial" font-size="10.00" fill="#8b2418"> flama </text>
</g>
<!-- n6 -->
<g id="node6" class="node">
<title>n6</title>
<path fill="#5a6b3b" stroke="#1a1612" stroke-width="1.5" d="M108.14,-150C108.14,-150 37.86,-150 37.86,-150 31.86,-150 25.86,-144 25.86,-138 25.86,-138 25.86,-126 25.86,-126 25.86,-120 31.86,-114 37.86,-114 37.86,-114 108.14,-114 108.14,-114 114.14,-114 120.14,-120 120.14,-126 120.14,-126 120.14,-138 120.14,-138 120.14,-144 114.14,-150 108.14,-150"/>
<text xml:space="preserve" text-anchor="middle" x="73" y="-128.3" font-family="Arial" font-size="11.00" fill="#fbf6eb">6 &#160;&#160;DrawImage</text>
</g>
<!-- n5&#45;&gt;n6 -->
<g id="edge6" class="edge">
<title>n5&#45;&gt;n6</title>
<path fill="none" stroke="#8b2418" stroke-width="2" d="M410.22,-210.96C363.5,-204.54 298.7,-194.57 242.5,-182 205.82,-173.8 165.36,-162.2 133.17,-152.35"/>
<polygon fill="#8b2418" stroke="#8b2418" stroke-width="2" points="134.29,-149.03 123.71,-149.42 132.23,-155.72 134.29,-149.03"/>
<text xml:space="preserve" text-anchor="middle" x="253.75" y="-172.5" font-family="Arial" font-size="10.00" fill="#8b2418"> true </text>
</g>
<!-- n7 -->
<g id="node7" class="node">
<title>n7</title>
<path fill="#5a6b3b" stroke="#1a1612" stroke-width="1.5" d="M253.52,-150C253.52,-150 164.48,-150 164.48,-150 158.48,-150 152.48,-144 152.48,-138 152.48,-138 152.48,-126 152.48,-126 152.48,-120 158.48,-114 164.48,-114 164.48,-114 253.52,-114 253.52,-114 259.52,-114 265.52,-120 265.52,-126 265.52,-126 265.52,-138 265.52,-138 265.52,-144 259.52,-150 253.52,-150"/>
<text xml:space="preserve" text-anchor="middle" x="209" y="-128.3" font-family="Arial" font-size="11.00" fill="#fbf6eb">7 &#160;&#160;RandomInteger</text>
</g>
<!-- n5&#45;&gt;n7 -->
<g id="edge7" class="edge">
<title>n5&#45;&gt;n7</title>
<path fill="none" stroke="#8b2418" stroke-width="2" d="M410.2,-210.18C376.34,-204.35 334.42,-195.29 298.5,-182 281.02,-175.53 262.8,-166.11 247.39,-157.25"/>
<polygon fill="#8b2418" stroke="#8b2418" stroke-width="2" points="249.21,-154.26 238.82,-152.18 245.65,-160.28 249.21,-154.26"/>
<text xml:space="preserve" text-anchor="middle" x="309.75" y="-172.5" font-family="Arial" font-size="10.00" fill="#8b2418"> true </text>
</g>
<!-- n8 -->
<g id="node8" class="node">
<title>n8</title>
<path fill="#5a6b3b" stroke="#1a1612" stroke-width="1.5" d="M327.77,-62C327.77,-62 270.23,-62 270.23,-62 264.23,-62 258.23,-56 258.23,-50 258.23,-50 258.23,-38 258.23,-38 258.23,-32 264.23,-26 270.23,-26 270.23,-26 327.77,-26 327.77,-26 333.77,-26 339.77,-32 339.77,-38 339.77,-38 339.77,-50 339.77,-50 339.77,-56 333.77,-62 327.77,-62"/>
<text xml:space="preserve" text-anchor="middle" x="299" y="-40.3" font-family="Arial" font-size="11.00" fill="#fbf6eb">8 &#160;&#160;PlotPoint</text>
</g>
<!-- n5&#45;&gt;n8 -->
<g id="edge8" class="edge">
<title>n5&#45;&gt;n8</title>
<path fill="none" stroke="#8b2418" stroke-width="2" d="M423.76,-201.25C397.66,-189.94 366.84,-173.03 345.5,-150 325.79,-128.73 313.46,-97.74 306.5,-74.93"/>
<polygon fill="#8b2418" stroke="#8b2418" stroke-width="2" points="309.92,-74.17 303.82,-65.5 303.18,-76.07 309.92,-74.17"/>
<text xml:space="preserve" text-anchor="middle" x="356.75" y="-128.5" font-family="Arial" font-size="10.00" fill="#8b2418"> true </text>
</g>
<!-- n9 -->
<g id="node9" class="node">
<title>n9</title>
<path fill="#4a3f33" stroke="#1a1612" stroke-width="1.5" d="M437.89,-150C437.89,-150 396.11,-150 396.11,-150 390.11,-150 384.11,-144 384.11,-138 384.11,-138 384.11,-126 384.11,-126 384.11,-120 390.11,-114 396.11,-114 396.11,-114 437.89,-114 437.89,-114 443.89,-114 449.89,-120 449.89,-126 449.89,-126 449.89,-138 449.89,-138 449.89,-144 443.89,-150 437.89,-150"/>
<text xml:space="preserve" text-anchor="middle" x="417" y="-128.3" font-family="Arial" font-size="11.00" fill="#fbf6eb">9 &#160;&#160;Delay</text>
</g>
<!-- n5&#45;&gt;n9 -->
<g id="edge9" class="edge">
<title>n5&#45;&gt;n9</title>
<path fill="none" stroke="#8b2418" stroke-width="2" d="M462.47,-201.6C454.79,-190.02 444.53,-174.54 435.71,-161.22"/>
<polygon fill="#8b2418" stroke="#8b2418" stroke-width="2" points="438.83,-159.6 430.39,-153.2 432.99,-163.46 438.83,-159.6"/>
<text xml:space="preserve" text-anchor="middle" x="460.16" y="-172.5" font-family="Arial" font-size="10.00" fill="#8b2418"> true </text>
</g>
<!-- n10 -->
<g id="node10" class="node">
<title>n10</title>
<path fill="#5a6b3b" stroke="#1a1612" stroke-width="1.5" d="M570.14,-150C570.14,-150 493.86,-150 493.86,-150 487.86,-150 481.86,-144 481.86,-138 481.86,-138 481.86,-126 481.86,-126 481.86,-120 487.86,-114 493.86,-114 493.86,-114 570.14,-114 570.14,-114 576.14,-114 582.14,-120 582.14,-126 582.14,-126 582.14,-138 582.14,-138 582.14,-144 576.14,-150 570.14,-150"/>
<text xml:space="preserve" text-anchor="middle" x="532" y="-128.3" font-family="Arial" font-size="11.00" fill="#fbf6eb">10 &#160;&#160;DrawImage</text>
</g>
<!-- n5&#45;&gt;n10 -->
<g id="edge10" class="edge">
<title>n5&#45;&gt;n10</title>
<path fill="none" stroke="#8b2418" stroke-width="2" d="M485.74,-201.6C493.55,-190.02 503.98,-174.54 512.97,-161.22"/>
<polygon fill="#8b2418" stroke="#8b2418" stroke-width="2" points="515.7,-163.43 518.39,-153.18 509.9,-159.52 515.7,-163.43"/>
<text xml:space="preserve" text-anchor="middle" x="517.72" y="-172.5" font-family="Arial" font-size="10.00" fill="#8b2418"> true </text>
</g>
<!-- n11 -->
<g id="node11" class="node">
<title>n11</title>
<path fill="#5a6b3b" stroke="#1a1612" stroke-width="1.5" d="M725.39,-150C725.39,-150 662.61,-150 662.61,-150 656.61,-150 650.61,-144 650.61,-138 650.61,-138 650.61,-126 650.61,-126 650.61,-120 656.61,-114 662.61,-114 662.61,-114 725.39,-114 725.39,-114 731.39,-114 737.39,-120 737.39,-126 737.39,-126 737.39,-138 737.39,-138 737.39,-144 731.39,-150 725.39,-150"/>
<text xml:space="preserve" text-anchor="middle" x="694" y="-128.3" font-family="Arial" font-size="11.00" fill="#fbf6eb">11 &#160;&#160;PlotPoint</text>
</g>
<!-- n5&#45;&gt;n11 -->
<g id="edge11" class="edge">
<title>n5&#45;&gt;n11</title>
<path fill="none" stroke="#8b2418" stroke-width="2" d="M519.32,-201.29C553.67,-187.86 601.08,-169.32 637.84,-154.95"/>
<polygon fill="#8b2418" stroke="#8b2418" stroke-width="2" points="639.01,-158.25 647.05,-151.35 636.46,-151.73 639.01,-158.25"/>
<text xml:space="preserve" text-anchor="middle" x="608.42" y="-172.5" font-family="Arial" font-size="10.00" fill="#8b2418"> true </text>
</g>
<!-- n12 -->
<g id="node12" class="node">
<title>n12</title>
<path fill="#4a3f33" stroke="#1a1612" stroke-width="1.5" d="M828.89,-150C828.89,-150 781.11,-150 781.11,-150 775.11,-150 769.11,-144 769.11,-138 769.11,-138 769.11,-126 769.11,-126 769.11,-120 775.11,-114 781.11,-114 781.11,-114 828.89,-114 828.89,-114 834.89,-114 840.89,-120 840.89,-126 840.89,-126 840.89,-138 840.89,-138 840.89,-144 834.89,-150 828.89,-150"/>
<text xml:space="preserve" text-anchor="middle" x="805" y="-128.3" font-family="Arial" font-size="11.00" fill="#fbf6eb">12 &#160;&#160;Delay</text>
</g>
<!-- n5&#45;&gt;n12 -->
<g id="edge12" class="edge">
<title>n5&#45;&gt;n12</title>
<path fill="none" stroke="#8b2418" stroke-width="2" d="M537.83,-204.78C594.64,-191.75 679.82,-171.3 753,-150 754.1,-149.68 755.21,-149.35 756.32,-149.02"/>
<polygon fill="#8b2418" stroke="#8b2418" stroke-width="2" points="757.03,-152.47 765.55,-146.17 754.97,-145.78 757.03,-152.47"/>
<text xml:space="preserve" text-anchor="middle" x="688.14" y="-172.5" font-family="Arial" font-size="10.00" fill="#8b2418"> true </text>
</g>
<!-- n13 -->
<g id="node13" class="node">
<title>n13</title>
<path fill="#5a6b3b" stroke="#1a1612" stroke-width="1.5" d="M961.14,-150C961.14,-150 884.86,-150 884.86,-150 878.86,-150 872.86,-144 872.86,-138 872.86,-138 872.86,-126 872.86,-126 872.86,-120 878.86,-114 884.86,-114 884.86,-114 961.14,-114 961.14,-114 967.14,-114 973.14,-120 973.14,-126 973.14,-126 973.14,-138 973.14,-138 973.14,-144 967.14,-150 961.14,-150"/>
<text xml:space="preserve" text-anchor="middle" x="923" y="-128.3" font-family="Arial" font-size="11.00" fill="#fbf6eb">13 &#160;&#160;DrawImage</text>
</g>
<!-- n5&#45;&gt;n13 -->
<g id="edge13" class="edge">
<title>n5&#45;&gt;n13</title>
<path fill="none" stroke="#8b2418" stroke-width="2" d="M537.94,-209.77C584.85,-202.78 650.02,-192.59 707,-182 774.02,-169.54 790.65,-165.62 857,-150 857.93,-149.78 858.86,-149.56 859.81,-149.34"/>
<polygon fill="#8b2418" stroke="#8b2418" stroke-width="2" points="860.42,-152.79 869.31,-147.02 858.76,-145.99 860.42,-152.79"/>
<text xml:space="preserve" text-anchor="middle" x="780.57" y="-172.5" font-family="Arial" font-size="10.00" fill="#8b2418"> false </text>
</g>
<!-- n6&#45;&gt;n8 -->
<g id="edge14" class="edge">
<title>n6&#45;&gt;n8</title>
<path fill="none" stroke="#5a6b3b" stroke-width="1.3" stroke-dasharray="5,2" d="M119.55,-113.29C156.6,-99.19 208.42,-79.47 246.86,-64.84"/>
<polygon fill="#5a6b3b" stroke="#5a6b3b" stroke-width="1.3" points="247.88,-68.2 255.98,-61.37 245.39,-61.65 247.88,-68.2"/>
<text xml:space="preserve" text-anchor="middle" x="217.91" y="-84.5" font-family="Arial" font-size="10.00" fill="#5a6b3b"> display </text>
</g>
<!-- n7&#45;&gt;n8 -->
<g id="edge15" class="edge">
<title>n7&#45;&gt;n8</title>
<path fill="none" stroke="#4a3f33" stroke-width="1.3" d="M227.21,-113.6C240.06,-101.32 257.48,-84.67 271.95,-70.85"/>
<polygon fill="#4a3f33" stroke="#4a3f33" stroke-width="1.3" points="274.27,-73.47 279.08,-64.03 269.43,-68.41 274.27,-73.47"/>
<text xml:space="preserve" text-anchor="middle" x="265.01" y="-84.5" font-family="Arial" font-size="10.00" fill="#8b2418"> x </text>
</g>
<!-- n8&#45;&gt;n10 -->
<g id="edge16" class="edge">
<title>n8&#45;&gt;n10</title>
<path fill="none" stroke="#5a6b3b" stroke-width="1.3" stroke-dasharray="5,2" d="M340.31,-60.25C377.16,-73.85 431.52,-93.91 472.96,-109.21"/>
<polygon fill="#5a6b3b" stroke="#5a6b3b" stroke-width="1.3" points="471.57,-112.42 482.16,-112.6 473.99,-105.86 471.57,-112.42"/>
<text xml:space="preserve" text-anchor="middle" x="447.83" y="-84.5" font-family="Arial" font-size="10.00" fill="#5a6b3b"> display </text>
</g>
<!-- n10&#45;&gt;n11 -->
<g id="edge17" class="edge">
<title>n10&#45;&gt;n11</title>
<path fill="none" stroke="#5a6b3b" stroke-width="1.3" stroke-dasharray="5,2" d="M582.81,-132C600.39,-132 620.18,-132 638.13,-132"/>
<polygon fill="#5a6b3b" stroke="#5a6b3b" stroke-width="1.3" points="637.96,-135.5 647.96,-132 637.96,-128.5 637.96,-135.5"/>
<text xml:space="preserve" text-anchor="middle" x="616.38" y="-137.5" font-family="Arial" font-size="10.00" fill="#5a6b3b"> display </text>
</g>
</g>
</svg>
