<svg width="1280" height="720" viewBox="0 0 1280 720" fill="none" xmlns="http://www.w3.org/2000/svg">
<g clip-path="url(#clip0_410_4588)">
<rect width="1280" height="720" fill="#B3E3FA"/>
<path d="M582.05 653.706C582.05 653.706 522.762 674.911 515.356 817.849C513.382 855.955 515.357 983.004 515.357 983.004L726.954 974.059C731.114 832.413 723.53 674.407 694.422 654.642C665.314 634.877 640.896 637.187 582.049 653.703L582.05 653.706Z" fill="#FF7B54"/>
<path d="M624.51 355C604.953 409.67 552.304 450.182 488.719 456.073C488.249 460.698 488.009 465.344 488 469.993C488 552.285 559.632 619 648 619C736.349 619 808 552.285 808 469.991C808 464.618 807.668 459.32 807.078 454.078C796.917 455.935 786.609 456.875 776.28 456.885C705.607 456.885 645.695 414.193 624.51 355Z" fill="#EEB98D"/>
<path d="M647.601 325C564.106 325 495.545 383.919 488 459.191C551.715 453.34 604.468 413.089 624.064 358.771C645.294 417.583 705.325 460 776.139 460C786.682 460 797.017 459.047 807 457.211C798.437 382.894 730.345 325 647.601 325Z" fill="black"/>
<path d="M639.321 686.919L624.991 685.776C609.611 684.51 597.966 669.217 599.073 651.527L606.928 524L677 529.655L669.145 657.188C668.058 674.834 654.701 688.167 639.288 686.919" fill="#EEB98D"/>
<path d="M604 481.498C604 485.609 602.261 489.552 599.167 492.459C596.072 495.367 591.876 497 587.5 497C583.124 497 578.927 495.367 575.832 492.459C572.738 489.552 571 485.609 571 481.498C571 479.462 571.426 477.446 572.256 475.565C573.085 473.684 574.3 471.976 575.832 470.536C577.365 469.097 579.184 467.956 581.186 467.177C583.188 466.399 585.334 465.999 587.501 466C589.668 465.998 591.814 466.398 593.816 467.176C595.818 467.954 597.638 469.095 599.171 470.535C600.703 471.974 601.918 473.683 602.746 475.564C603.575 477.446 604.001 479.462 604 481.498Z" fill="black"/>
<path d="M706 481.497C706 485.608 704.367 489.552 701.46 492.459C698.553 495.367 694.611 497 690.5 497C686.389 497 682.447 495.367 679.54 492.459C676.633 489.552 675 485.608 675 481.497C674.999 479.46 675.399 477.444 676.178 475.563C676.956 473.681 678.098 471.972 679.538 470.533C680.978 469.093 682.688 467.952 684.569 467.174C686.451 466.396 688.467 465.997 690.503 466C692.538 466 694.553 466.4 696.433 467.179C698.313 467.958 700.021 469.099 701.46 470.538C702.899 471.977 704.041 473.685 704.82 475.566C705.599 477.446 706 479.461 706 481.497Z" fill="black"/>
<path d="M728 475.501C728 495.096 711.872 511 692 511C672.123 511 656 495.096 656 475.501C656 455.9 672.121 440 692 440C711.872 440 728 455.9 728 475.501Z" stroke="#7C2869" stroke-width="3.00022" stroke-miterlimit="10"/>
<path d="M622.998 475.501C622.998 495.096 606.877 511 587 511C567.142 511 551 495.096 551 475.501C551 455.9 567.142 440 587 440C606.877 440 622.998 455.9 622.998 475.501Z" stroke="#7C2869" stroke-width="3.00022" stroke-miterlimit="10"/>
<path d="M615 532C615 547.999 628.218 561 644.506 561C660.78 561 674 548.001 674 532" stroke="black" stroke-width="5" stroke-miterlimit="10"/>
<path d="M638 520C644.613 520 650 514.609 650 507.99C650 501.374 644.611 496 638 496" stroke="black" stroke-width="5" stroke-miterlimit="10"/>
<path d="M656 474.998C656 466.711 648.621 460 639.498 460C637.331 459.999 635.185 460.386 633.182 461.14C631.18 461.893 629.361 462.998 627.829 464.391C626.296 465.785 625.082 467.439 624.253 469.259C623.425 471.079 622.998 473.03 623 475" stroke="#7C2869" stroke-width="3.00022" stroke-miterlimit="10"/>
<path d="M646.472 698.533L570.994 659.823C458.109 739.951 406.069 881.194 422.397 957.339L477.737 979.984C506.816 847.04 565.541 779.739 626.061 735.161C641.101 724.143 644.862 715.741 646.472 698.533Z" fill="#FF7B54"/>
<path d="M623.432 698.533L698.911 659.823C811.796 739.951 863.836 881.194 847.508 957.339L792.167 979.984C763.088 847.04 704.363 779.739 643.844 735.161C628.804 724.143 625.042 715.741 623.432 698.533Z" fill="#FF7B54"/>
<path d="M754 151.5H1003.5V376H754V151.5Z" fill="#FFC93C"/>
<path d="M516 151.5V376H614.336C619.645 380.056 607.706 388.415 606.601 398.92C604.985 414.29 614.336 435.5 639 435.5C663.683 435.5 676.514 414.823 673.448 398.92C671.79 390.325 660.897 378.582 667.923 376H763.497V288.955C770.678 282.747 775.856 298.691 795 295.5C813 292.5 820.5 275.87 820.5 262.5C820.5 249.13 812 236 795 233.5C775.936 230.697 770.126 244.663 763.497 237.5V151.5H516Z" fill="#ECFAFF"/>
<path d="M276 376H518.5V287C522.747 282.195 531.5 293 542.5 294C558.593 295.463 575.856 280.647 576.5 264.5C577.172 247.633 559.151 230.725 542.5 233.5C533.5 235 521.203 244.859 518.5 238.5V152H421.5C415 145.5 434.114 131 429 114C424.678 99.6326 413 90 399 90C385 90 372.839 99.4961 369 114C364.5 131 381.5 146 374 152H276V376Z" fill="#1E5C93"/>
<circle cx="10.5" cy="10.5" r="8" transform="matrix(1 0 0 -1 879 207)" stroke="#1A3567" stroke-width="5"/>
<path d="M862 226.5L889.5 231M917 226.5L889.5 231M889.5 205V231M889.5 231L874 259.5M889.5 231L905 259.5" stroke="#1A3567" stroke-width="5"/>
<circle cx="10.5" cy="10.5" r="8" transform="matrix(1 0 0 -1 858 275)" stroke="#1A3567" stroke-width="5"/>
<circle cx="10.5" cy="10.5" r="8" transform="matrix(1 0 0 -1 898 275)" stroke="#1A3567" stroke-width="5"/>
<circle cx="10.5" cy="10.5" r="8" transform="matrix(1 0 0 -1 843 235)" stroke="#1A3567" stroke-width="5"/>
<circle cx="10.5" cy="10.5" r="8" transform="matrix(1 0 0 -1 914 235)" stroke="#1A3567" stroke-width="5"/>
<path d="M394.502 218.194C395.619 218.194 396.691 218.637 397.481 219.424C398.272 220.212 398.716 221.28 398.716 222.393C398.716 223.507 399.16 224.575 399.95 225.362C400.74 226.15 401.812 226.592 402.93 226.592C404.048 226.592 405.119 226.15 405.91 225.362C406.7 224.575 407.144 223.507 407.144 222.393C407.144 220.296 406.619 218.233 405.615 216.389C404.612 214.546 403.163 212.981 401.399 211.837C399.636 210.693 397.613 210.006 395.516 209.837C393.418 209.669 391.311 210.025 389.387 210.874C387.462 211.722 385.781 213.036 384.494 214.696C383.208 216.356 382.359 218.309 382.022 220.379C381.685 222.449 381.873 224.57 382.567 226.549C383.261 228.529 384.44 230.305 385.997 231.715C386.04 231.757 386.68 232.429 386.815 232.622C387.291 233.314 387.545 234.133 387.545 234.971C387.545 235.81 387.291 236.629 386.815 237.321C386.474 237.774 386.228 238.291 386.093 238.841C385.958 239.391 385.936 239.963 386.028 240.522C386.12 241.081 386.325 241.616 386.63 242.093C386.935 242.571 387.334 242.983 387.803 243.303C388.272 243.624 388.801 243.846 389.358 243.957C389.916 244.069 390.49 244.066 391.047 243.951C391.603 243.835 392.13 243.609 392.597 243.285C393.063 242.961 393.459 242.546 393.76 242.066C395.207 239.973 395.98 237.491 395.976 234.949C395.972 232.408 395.192 229.928 393.739 227.839C393.093 227.024 392.403 226.243 391.674 225.501C391.419 225.275 391.193 225.02 391 224.74C390.572 224.108 390.325 223.372 390.285 222.61C390.246 221.849 390.415 221.091 390.775 220.418C391.135 219.745 391.672 219.183 392.329 218.791C392.985 218.399 393.736 218.193 394.502 218.194ZM394.502 193C389.977 193 385.512 194.037 381.453 196.031C377.395 198.025 373.851 200.922 371.096 204.499C368.342 208.076 366.45 212.237 365.567 216.659C364.684 221.081 364.834 225.647 366.005 230.002C366.295 231.078 367.001 231.995 367.97 232.552C368.938 233.108 370.088 233.259 371.168 232.971C372.247 232.682 373.168 231.978 373.727 231.014C374.285 230.049 374.437 228.903 374.147 227.827C373.372 224.94 373.224 221.922 373.713 218.974C374.202 216.026 375.317 213.216 376.984 210.732C378.65 208.247 380.83 206.146 383.376 204.569C385.923 202.991 388.778 201.973 391.752 201.583C394.725 201.193 397.747 201.44 400.617 202.307C403.487 203.174 406.138 204.642 408.393 206.612C410.648 208.582 412.454 211.009 413.693 213.73C414.931 216.452 415.572 219.405 415.572 222.393C415.557 226.185 414.532 229.905 412.601 233.172L397.578 264.384C396.839 265.659 395.776 266.718 394.497 267.455C393.217 268.192 391.765 268.581 390.287 268.583C388.061 268.553 385.935 267.659 384.36 266.09C382.786 264.522 381.889 262.403 381.859 260.185C381.861 258.711 382.252 257.265 382.993 255.99C383.553 255.025 383.705 253.878 383.416 252.801C383.127 251.724 382.421 250.805 381.452 250.248C380.484 249.69 379.333 249.538 378.252 249.826C377.171 250.113 376.25 250.817 375.69 251.782C374.571 253.704 373.846 255.827 373.557 258.029C373.268 260.232 373.42 262.47 374.005 264.613C374.589 266.757 375.595 268.763 376.964 270.516C378.332 272.27 380.036 273.735 381.977 274.828C383.918 275.921 386.057 276.619 388.271 276.882C390.484 277.145 392.728 276.968 394.872 276.361C397.017 275.754 399.019 274.729 400.763 273.345C402.507 271.962 403.958 270.247 405.033 268.301L420.048 237.09C422.637 232.622 424 227.553 424 222.393C424 217.234 422.637 212.165 420.048 207.697C417.459 203.229 413.735 199.518 409.251 196.938C404.767 194.358 399.68 193 394.502 193Z" fill="#ECFAFF"/>
<circle cx="660.656" cy="247.356" r="29.2154" stroke="#1A3567" stroke-width="5"/>
<circle cx="621.215" cy="247.356" r="29.2154" stroke="#1A3567" stroke-width="5"/>
<circle cx="640.936" cy="215.215" r="29.2154" stroke="#1A3567" stroke-width="5"/>
<path d="M598.624 313.94L591.154 335H584.734L577.264 313.94H582.724L587.944 329.84L593.194 313.94H598.624ZM599.748 326.6C599.748 324.88 600.068 323.37 600.708 322.07C601.368 320.77 602.258 319.77 603.378 319.07C604.498 318.37 605.748 318.02 607.128 318.02C608.308 318.02 609.338 318.26 610.218 318.74C611.118 319.22 611.808 319.85 612.288 320.63V318.26H617.418V335H612.288V332.63C611.788 333.41 611.088 334.04 610.188 334.52C609.308 335 608.278 335.24 607.098 335.24C605.738 335.24 604.498 334.89 603.378 334.19C602.258 333.47 601.368 332.46 600.708 331.16C600.068 329.84 599.748 328.32 599.748 326.6ZM612.288 326.63C612.288 325.35 611.928 324.34 611.208 323.6C610.508 322.86 609.648 322.49 608.628 322.49C607.608 322.49 606.738 322.86 606.018 323.6C605.318 324.32 604.968 325.32 604.968 326.6C604.968 327.88 605.318 328.9 606.018 329.66C606.738 330.4 607.608 330.77 608.628 330.77C609.648 330.77 610.508 330.4 611.208 329.66C611.928 328.92 612.288 327.91 612.288 326.63ZM626.26 321.05C626.86 320.13 627.61 319.41 628.51 318.89C629.41 318.35 630.41 318.08 631.51 318.08V323.51H630.1C628.82 323.51 627.86 323.79 627.22 324.35C626.58 324.89 626.26 325.85 626.26 327.23V335H621.13V318.26H626.26V321.05ZM636.542 316.52C635.642 316.52 634.902 316.26 634.322 315.74C633.762 315.2 633.482 314.54 633.482 313.76C633.482 312.96 633.762 312.3 634.322 311.78C634.902 311.24 635.642 310.97 636.542 310.97C637.422 310.97 638.142 311.24 638.702 311.78C639.282 312.3 639.572 312.96 639.572 313.76C639.572 314.54 639.282 315.2 638.702 315.74C638.142 316.26 637.422 316.52 636.542 316.52ZM639.092 318.26V335H633.962V318.26H639.092ZM641.789 326.6C641.789 324.88 642.109 323.37 642.749 322.07C643.409 320.77 644.299 319.77 645.419 319.07C646.539 318.37 647.789 318.02 649.169 318.02C650.349 318.02 651.379 318.26 652.259 318.74C653.159 319.22 653.849 319.85 654.329 320.63V318.26H659.459V335H654.329V332.63C653.829 333.41 653.129 334.04 652.229 334.52C651.349 335 650.319 335.24 649.139 335.24C647.779 335.24 646.539 334.89 645.419 334.19C644.299 333.47 643.409 332.46 642.749 331.16C642.109 329.84 641.789 328.32 641.789 326.6ZM654.329 326.63C654.329 325.35 653.969 324.34 653.249 323.6C652.549 322.86 651.689 322.49 650.669 322.49C649.649 322.49 648.779 322.86 648.059 323.6C647.359 324.32 647.009 325.32 647.009 326.6C647.009 327.88 647.359 328.9 648.059 329.66C648.779 330.4 649.649 330.77 650.669 330.77C651.689 330.77 652.549 330.4 653.249 329.66C653.969 328.92 654.329 327.91 654.329 326.63ZM668.301 320.63C668.781 319.85 669.471 319.22 670.371 318.74C671.271 318.26 672.301 318.02 673.461 318.02C674.841 318.02 676.091 318.37 677.211 319.07C678.331 319.77 679.211 320.77 679.851 322.07C680.511 323.37 680.841 324.88 680.841 326.6C680.841 328.32 680.511 329.84 679.851 331.16C679.211 332.46 678.331 333.47 677.211 334.19C676.091 334.89 674.841 335.24 673.461 335.24C672.281 335.24 671.251 335.01 670.371 334.55C669.491 334.07 668.801 333.44 668.301 332.66V335H663.171V312.8H668.301V320.63ZM675.621 326.6C675.621 325.32 675.261 324.32 674.541 323.6C673.841 322.86 672.971 322.49 671.931 322.49C670.911 322.49 670.041 322.86 669.321 323.6C668.621 324.34 668.271 325.35 668.271 326.63C668.271 327.91 668.621 328.92 669.321 329.66C670.041 330.4 670.911 330.77 671.931 330.77C672.951 330.77 673.821 330.4 674.541 329.66C675.261 328.9 675.621 327.88 675.621 326.6ZM688.662 312.8V335H683.532V312.8H688.662ZM708.16 326.36C708.16 326.84 708.13 327.34 708.07 327.86H696.46C696.54 328.9 696.87 329.7 697.45 330.26C698.05 330.8 698.78 331.07 699.64 331.07C700.92 331.07 701.81 330.53 702.31 329.45H707.77C707.49 330.55 706.98 331.54 706.24 332.42C705.52 333.3 704.61 333.99 703.51 334.49C702.41 334.99 701.18 335.24 699.82 335.24C698.18 335.24 696.72 334.89 695.44 334.19C694.16 333.49 693.16 332.49 692.44 331.19C691.72 329.89 691.36 328.37 691.36 326.63C691.36 324.89 691.71 323.37 692.41 322.07C693.13 320.77 694.13 319.77 695.41 319.07C696.69 318.37 698.16 318.02 699.82 318.02C701.44 318.02 702.88 318.36 704.14 319.04C705.4 319.72 706.38 320.69 707.08 321.95C707.8 323.21 708.16 324.68 708.16 326.36ZM702.91 325.01C702.91 324.13 702.61 323.43 702.01 322.91C701.41 322.39 700.66 322.13 699.76 322.13C698.9 322.13 698.17 322.38 697.57 322.88C696.99 323.38 696.63 324.09 696.49 325.01H702.91Z" fill="#1A3567"/>
<path d="M803.033 324.44C803.033 322.36 803.483 320.51 804.383 318.89C805.283 317.25 806.533 315.98 808.133 315.08C809.753 314.16 811.583 313.7 813.623 313.7C816.123 313.7 818.263 314.36 820.043 315.68C821.823 317 823.013 318.8 823.613 321.08H817.973C817.553 320.2 816.953 319.53 816.173 319.07C815.413 318.61 814.543 318.38 813.563 318.38C811.983 318.38 810.703 318.93 809.723 320.03C808.743 321.13 808.253 322.6 808.253 324.44C808.253 326.28 808.743 327.75 809.723 328.85C810.703 329.95 811.983 330.5 813.563 330.5C814.543 330.5 815.413 330.27 816.173 329.81C816.953 329.35 817.553 328.68 817.973 327.8H823.613C823.013 330.08 821.823 331.88 820.043 333.2C818.263 334.5 816.123 335.15 813.623 335.15C811.583 335.15 809.753 334.7 808.133 333.8C806.533 332.88 805.283 331.61 804.383 329.99C803.483 328.37 803.033 326.52 803.033 324.44ZM834.375 335.24C832.735 335.24 831.255 334.89 829.935 334.19C828.635 333.49 827.605 332.49 826.845 331.19C826.105 329.89 825.735 328.37 825.735 326.63C825.735 324.91 826.115 323.4 826.875 322.1C827.635 320.78 828.675 319.77 829.995 319.07C831.315 318.37 832.795 318.02 834.435 318.02C836.075 318.02 837.555 318.37 838.875 319.07C840.195 319.77 841.235 320.78 841.995 322.1C842.755 323.4 843.135 324.91 843.135 326.63C843.135 328.35 842.745 329.87 841.965 331.19C841.205 332.49 840.155 333.49 838.815 334.19C837.495 334.89 836.015 335.24 834.375 335.24ZM834.375 330.8C835.355 330.8 836.185 330.44 836.865 329.72C837.565 329 837.915 327.97 837.915 326.63C837.915 325.29 837.575 324.26 836.895 323.54C836.235 322.82 835.415 322.46 834.435 322.46C833.435 322.46 832.605 322.82 831.945 323.54C831.285 324.24 830.955 325.27 830.955 326.63C830.955 327.97 831.275 329 831.915 329.72C832.575 330.44 833.395 330.8 834.375 330.8ZM856.056 318.08C858.016 318.08 859.576 318.72 860.736 320C861.916 321.26 862.506 323 862.506 325.22V335H857.406V325.91C857.406 324.79 857.116 323.92 856.536 323.3C855.956 322.68 855.176 322.37 854.196 322.37C853.216 322.37 852.436 322.68 851.856 323.3C851.276 323.92 850.986 324.79 850.986 325.91V335H845.856V318.26H850.986V320.48C851.506 319.74 852.206 319.16 853.086 318.74C853.966 318.3 854.956 318.08 856.056 318.08ZM865.051 326.6C865.051 324.88 865.371 323.37 866.011 322.07C866.671 320.77 867.561 319.77 868.681 319.07C869.801 318.37 871.051 318.02 872.431 318.02C873.531 318.02 874.531 318.25 875.431 318.71C876.351 319.17 877.071 319.79 877.591 320.57V312.8H882.721V335H877.591V332.6C877.111 333.4 876.421 334.04 875.521 334.52C874.641 335 873.611 335.24 872.431 335.24C871.051 335.24 869.801 334.89 868.681 334.19C867.561 333.47 866.671 332.46 866.011 331.16C865.371 329.84 865.051 328.32 865.051 326.6ZM877.591 326.63C877.591 325.35 877.231 324.34 876.511 323.6C875.811 322.86 874.951 322.49 873.931 322.49C872.911 322.49 872.041 322.86 871.321 323.6C870.621 324.32 870.271 325.32 870.271 326.6C870.271 327.88 870.621 328.9 871.321 329.66C872.041 330.4 872.911 330.77 873.931 330.77C874.951 330.77 875.811 330.4 876.511 329.66C877.231 328.92 877.591 327.91 877.591 326.63ZM889.012 316.52C888.112 316.52 887.372 316.26 886.792 315.74C886.232 315.2 885.952 314.54 885.952 313.76C885.952 312.96 886.232 312.3 886.792 311.78C887.372 311.24 888.112 310.97 889.012 310.97C889.892 310.97 890.612 311.24 891.172 311.78C891.752 312.3 892.042 312.96 892.042 313.76C892.042 314.54 891.752 315.2 891.172 315.74C890.612 316.26 889.892 316.52 889.012 316.52ZM891.562 318.26V335H886.432V318.26H891.562ZM894.26 326.63C894.26 324.89 894.61 323.37 895.31 322.07C896.03 320.77 897.02 319.77 898.28 319.07C899.56 318.37 901.02 318.02 902.66 318.02C904.76 318.02 906.51 318.57 907.91 319.67C909.33 320.77 910.26 322.32 910.7 324.32H905.24C904.78 323.04 903.89 322.4 902.57 322.4C901.63 322.4 900.88 322.77 900.32 323.51C899.76 324.23 899.48 325.27 899.48 326.63C899.48 327.99 899.76 329.04 900.32 329.78C900.88 330.5 901.63 330.86 902.57 330.86C903.89 330.86 904.78 330.22 905.24 328.94H910.7C910.26 330.9 909.33 332.44 907.91 333.56C906.49 334.68 904.74 335.24 902.66 335.24C901.02 335.24 899.56 334.89 898.28 334.19C897.02 333.49 896.03 332.49 895.31 331.19C894.61 329.89 894.26 328.37 894.26 326.63ZM916.024 316.52C915.124 316.52 914.384 316.26 913.804 315.74C913.244 315.2 912.964 314.54 912.964 313.76C912.964 312.96 913.244 312.3 913.804 311.78C914.384 311.24 915.124 310.97 916.024 310.97C916.904 310.97 917.624 311.24 918.184 311.78C918.764 312.3 919.054 312.96 919.054 313.76C919.054 314.54 918.764 315.2 918.184 315.74C917.624 316.26 916.904 316.52 916.024 316.52ZM918.574 318.26V335H913.444V318.26H918.574ZM929.912 335.24C928.272 335.24 926.792 334.89 925.472 334.19C924.172 333.49 923.142 332.49 922.382 331.19C921.642 329.89 921.272 328.37 921.272 326.63C921.272 324.91 921.652 323.4 922.412 322.1C923.172 320.78 924.212 319.77 925.532 319.07C926.852 318.37 928.332 318.02 929.972 318.02C931.612 318.02 933.092 318.37 934.412 319.07C935.732 319.77 936.772 320.78 937.532 322.1C938.292 323.4 938.672 324.91 938.672 326.63C938.672 328.35 938.282 329.87 937.502 331.19C936.742 332.49 935.692 333.49 934.352 334.19C933.032 334.89 931.552 335.24 929.912 335.24ZM929.912 330.8C930.892 330.8 931.722 330.44 932.402 329.72C933.102 329 933.452 327.97 933.452 326.63C933.452 325.29 933.112 324.26 932.432 323.54C931.772 322.82 930.952 322.46 929.972 322.46C928.972 322.46 928.142 322.82 927.482 323.54C926.822 324.24 926.492 325.27 926.492 326.63C926.492 327.97 926.812 329 927.452 329.72C928.112 330.44 928.932 330.8 929.912 330.8ZM951.593 318.08C953.553 318.08 955.113 318.72 956.273 320C957.453 321.26 958.043 323 958.043 325.22V335H952.943V325.91C952.943 324.79 952.653 323.92 952.073 323.3C951.493 322.68 950.713 322.37 949.733 322.37C948.753 322.37 947.973 322.68 947.393 323.3C946.813 323.92 946.523 324.79 946.523 325.91V335H941.393V318.26H946.523V320.48C947.043 319.74 947.743 319.16 948.623 318.74C949.503 318.3 950.493 318.08 951.593 318.08ZM960.588 326.6C960.588 324.88 960.908 323.37 961.548 322.07C962.208 320.77 963.098 319.77 964.218 319.07C965.338 318.37 966.588 318.02 967.968 318.02C969.148 318.02 970.178 318.26 971.058 318.74C971.958 319.22 972.648 319.85 973.128 320.63V318.26H978.258V335H973.128V332.63C972.628 333.41 971.928 334.04 971.028 334.52C970.148 335 969.118 335.24 967.938 335.24C966.578 335.24 965.338 334.89 964.218 334.19C963.098 333.47 962.208 332.46 961.548 331.16C960.908 329.84 960.588 328.32 960.588 326.6ZM973.128 326.63C973.128 325.35 972.768 324.34 972.048 323.6C971.348 322.86 970.488 322.49 969.468 322.49C968.448 322.49 967.578 322.86 966.858 323.6C966.158 324.32 965.808 325.32 965.808 326.6C965.808 327.88 966.158 328.9 966.858 329.66C967.578 330.4 968.448 330.77 969.468 330.77C970.488 330.77 971.348 330.4 972.048 329.66C972.768 328.92 973.128 327.91 973.128 326.63ZM987.099 312.8V335H981.969V312.8H987.099Z" fill="#1A3567"/>
<path d="M349.49 318.05V322.31H356.36V326.27H349.49V330.89H357.26V335H344.36V313.94H357.26V318.05H349.49ZM368.12 330.2L371.75 318.26H377.21L371.27 335H364.94L359 318.26H364.49L368.12 330.2ZM395.15 326.36C395.15 326.84 395.12 327.34 395.06 327.86H383.45C383.53 328.9 383.86 329.7 384.44 330.26C385.04 330.8 385.77 331.07 386.63 331.07C387.91 331.07 388.8 330.53 389.3 329.45H394.76C394.48 330.55 393.97 331.54 393.23 332.42C392.51 333.3 391.6 333.99 390.5 334.49C389.4 334.99 388.17 335.24 386.81 335.24C385.17 335.24 383.71 334.89 382.43 334.19C381.15 333.49 380.15 332.49 379.43 331.19C378.71 329.89 378.35 328.37 378.35 326.63C378.35 324.89 378.7 323.37 379.4 322.07C380.12 320.77 381.12 319.77 382.4 319.07C383.68 318.37 385.15 318.02 386.81 318.02C388.43 318.02 389.87 318.36 391.13 319.04C392.39 319.72 393.37 320.69 394.07 321.95C394.79 323.21 395.15 324.68 395.15 326.36ZM389.9 325.01C389.9 324.13 389.6 323.43 389 322.91C388.4 322.39 387.65 322.13 386.75 322.13C385.89 322.13 385.16 322.38 384.56 322.88C383.98 323.38 383.62 324.09 383.48 325.01H389.9ZM408.056 318.08C410.016 318.08 411.576 318.72 412.736 320C413.916 321.26 414.506 323 414.506 325.22V335H409.406V325.91C409.406 324.79 409.116 323.92 408.536 323.3C407.956 322.68 407.176 322.37 406.196 322.37C405.216 322.37 404.436 322.68 403.856 323.3C403.276 323.92 402.986 324.79 402.986 325.91V335H397.856V318.26H402.986V320.48C403.506 319.74 404.206 319.16 405.086 318.74C405.966 318.3 406.956 318.08 408.056 318.08ZM427.401 330.65V335H424.791C422.931 335 421.481 334.55 420.441 333.65C419.401 332.73 418.881 331.24 418.881 329.18V322.52H416.841V318.26H418.881V314.18H424.011V318.26H427.371V322.52H424.011V329.24C424.011 329.74 424.131 330.1 424.371 330.32C424.611 330.54 425.011 330.65 425.571 330.65H427.401ZM437.878 335.24C436.238 335.24 434.758 334.89 433.438 334.19C432.138 333.49 431.108 332.49 430.348 331.19C429.608 329.89 429.238 328.37 429.238 326.63C429.238 324.91 429.618 323.4 430.378 322.1C431.138 320.78 432.178 319.77 433.498 319.07C434.818 318.37 436.298 318.02 437.938 318.02C439.578 318.02 441.058 318.37 442.378 319.07C443.698 319.77 444.738 320.78 445.498 322.1C446.258 323.4 446.638 324.91 446.638 326.63C446.638 328.35 446.248 329.87 445.468 331.19C444.708 332.49 443.658 333.49 442.318 334.19C440.998 334.89 439.518 335.24 437.878 335.24ZM437.878 330.8C438.858 330.8 439.688 330.44 440.368 329.72C441.068 329 441.418 327.97 441.418 326.63C441.418 325.29 441.078 324.26 440.398 323.54C439.738 322.82 438.918 322.46 437.938 322.46C436.938 322.46 436.108 322.82 435.448 323.54C434.788 324.24 434.458 325.27 434.458 326.63C434.458 327.97 434.778 329 435.418 329.72C436.078 330.44 436.898 330.8 437.878 330.8Z" fill="#ECFAFF"/>
<path d="M1029 262.649L1094.09 262.002L1094.1 259.001L1029 259.652L1029 262.649ZM1092.58 264.995L1101.6 260.524L1092.61 256L1092.58 264.995Z" fill="#1A3567"/>
<path d="M250.595 262.649L185.502 262.002L185.495 259.001L250.591 259.652L250.595 262.649ZM187.01 264.995L178 260.524L186.988 256L187.01 264.995Z" fill="#1A3567"/>
<path d="M853.941 448.794L848.017 457.896L858.852 457.173L853.941 448.794Z" fill="#1E5C93"/>
<path d="M891.165 410.09L887.838 409.232C883.16 426.355 872.047 441.741 855.464 451.523L857.225 454.508C874.61 444.253 886.265 428.082 891.165 410.09Z" fill="#1E5C93"/>
<path d="M444.487 448.794L450.411 457.896L439.576 457.173L444.487 448.794Z" fill="#1E5C93"/>
<path d="M407.263 410.09L410.59 409.232C415.268 426.355 426.381 441.741 442.964 451.523L441.203 454.508C423.818 444.253 412.163 428.082 407.263 410.09Z" fill="#1E5C93"/>
</g>
<defs>
<clipPath id="clip0_410_4588">
<rect width="1280" height="720" fill="white"/>
</clipPath>
</defs>
</svg>
