<svg width="1280" height="720" viewBox="0 0 1280 720" fill="none" xmlns="http://www.w3.org/2000/svg">
<rect width="1280" height="720" fill="url(#paint0_linear_410_4590)"/>
<path d="M609.826 164.606L645.104 198.921L656.008 188.98L673.326 183.848L703.793 155.947L706.359 145.043L700.265 139.27L703.793 130.29L700.265 127.083L696.417 120.348L700.265 112.331L693.53 108.482H684.551L677.816 101.106L670.439 83.4669V77.6942L663.705 75.77L656.008 77.6942L652.159 72.2422H641.576L609.826 103.351V92.126L604.694 83.4669L597.639 79.9392L592.828 92.126L590.263 122.914L580 137.025L609.826 164.606Z" fill="#E6C6B0"/>
<path d="M690.54 126.021C691.981 124.653 693.892 123.89 695.879 123.89C697.866 123.89 699.777 124.653 701.218 126.021C704.168 128.864 704.168 133.476 701.218 136.319L694.104 143.174M690.54 126.021L697.661 119.16C700.611 116.317 700.611 111.705 697.661 108.862C696.22 107.493 694.309 106.73 692.322 106.73C690.335 106.73 688.424 107.493 686.983 108.862L681.645 114.011L663.841 131.17M690.54 126.021L670.961 144.893M694.104 143.174C695.544 141.806 697.455 141.043 699.442 141.043C701.429 141.043 703.34 141.806 704.781 143.174C705.482 143.835 706.04 144.633 706.422 145.518C706.803 146.403 707 147.356 707 148.32C707 149.284 706.803 150.237 706.422 151.122C706.04 152.007 705.482 152.804 704.781 153.466L682.826 174.631C675.093 182.086 671.22 185.813 666.962 187.646C664.492 188.707 660.41 189.168 657.327 189.364C654.655 189.535 652.083 190.533 650.188 192.365L646.044 196.358M694.104 143.174L678.082 158.615M681.639 114.011C682.339 113.349 682.898 112.552 683.279 111.667C683.661 110.782 683.858 109.828 683.858 108.865C683.858 107.901 683.661 106.948 683.279 106.063C682.898 105.178 682.339 104.38 681.639 103.719C680.198 102.351 678.287 101.588 676.3 101.588C674.313 101.588 672.402 102.351 670.961 103.719L640.838 132.756L640.857 121.617C640.863 116.734 636.459 112.937 631.424 113.486C627.57 113.903 624.487 116.784 623.931 120.487L620.374 148.614C619.698 153.99 616.204 159.929 612.224 163.764M580.641 136.338C584.798 132.244 588.45 125.92 589.164 120.177L592.872 90.1544C593.167 88.2179 594.096 86.4339 595.514 85.0824C596.932 83.7309 598.758 82.8882 600.706 82.6866C605.976 82.1054 610.569 86.1488 610.562 91.3611L610.537 103.264L642.025 72.2748C643.517 70.8165 645.521 70 647.607 70C649.694 70 651.697 70.8165 653.189 72.2748C653.92 72.9896 654.5 73.8432 654.897 74.7855C655.293 75.7277 655.497 76.7396 655.497 77.7618C655.497 78.7841 655.293 79.796 654.897 80.7382C654.5 81.6805 653.92 82.5341 653.189 83.2489L658.774 77.7587C660.266 76.3004 662.27 75.4839 664.356 75.4839C666.442 75.4839 668.446 76.3004 669.938 77.7587C671.479 79.275 672.25 81.2651 672.25 83.2552M653.195 83.2552L637.495 98.6835" stroke="#1A3567" stroke-width="7" stroke-linecap="round" stroke-linejoin="round"/>
<rect x="538" y="225" width="203" height="203" rx="30" fill="#FB925A"/>
<rect x="557" y="244" width="165" height="165" rx="15" fill="#FFC93C"/>
<path d="M611.949 322.319C611.949 306.293 624.941 293.302 640.966 293.302C656.992 293.302 669.983 306.293 669.983 322.319C652.951 355.436 661.783 359.852 640.966 359.852C618.257 359.852 620.15 343.766 611.949 322.319Z" fill="white"/>
<path fill-rule="evenodd" clip-rule="evenodd" d="M641.136 283.758C641.881 283.758 642.596 283.462 643.123 282.935C643.651 282.409 643.947 281.694 643.948 280.949V264.71C643.922 263.983 643.614 263.294 643.09 262.789C642.566 262.283 641.866 262.001 641.138 262.001C640.41 262.001 639.71 262.283 639.186 262.789C638.662 263.294 638.354 263.983 638.327 264.71V280.949C638.328 281.694 638.625 282.408 639.151 282.934C639.678 283.461 640.392 283.757 641.136 283.758Z" fill="white"/>
<path fill-rule="evenodd" clip-rule="evenodd" d="M696.192 316.465H679.953C679.225 316.492 678.537 316.8 678.031 317.324C677.526 317.848 677.244 318.547 677.244 319.276C677.244 320.004 677.526 320.703 678.031 321.227C678.537 321.751 679.225 322.059 679.953 322.086H696.192C696.919 322.059 697.608 321.751 698.113 321.227C698.619 320.703 698.901 320.004 698.901 319.276C698.901 318.547 698.619 317.848 698.113 317.324C697.608 316.8 696.919 316.492 696.192 316.465Z" fill="#ECFAFF"/>
<path fill-rule="evenodd" clip-rule="evenodd" d="M602.323 316.465H586.084C585.356 316.492 584.668 316.8 584.162 317.324C583.657 317.848 583.375 318.547 583.375 319.276C583.375 320.004 583.657 320.703 584.162 321.227C584.668 321.751 585.356 322.059 586.084 322.086H602.323C603.05 322.059 603.739 321.751 604.245 321.227C604.75 320.703 605.032 320.004 605.032 319.276C605.032 318.547 604.75 317.848 604.245 317.324C603.739 316.8 603.05 316.492 602.323 316.465Z" fill="white"/>
<path fill-rule="evenodd" clip-rule="evenodd" d="M676.362 304.101L697.707 290.398C698.018 290.199 698.287 289.94 698.497 289.637C698.708 289.334 698.857 288.992 698.936 288.631C699.014 288.27 699.021 287.897 698.955 287.534C698.89 287.17 698.754 286.823 698.554 286.513C698.354 286.202 698.096 285.934 697.792 285.723C697.489 285.512 697.147 285.363 696.787 285.284C696.426 285.206 696.053 285.199 695.689 285.265C695.326 285.33 694.979 285.466 694.668 285.666L673.323 299.368C672.695 299.771 672.253 300.407 672.094 301.136C671.936 301.865 672.073 302.627 672.476 303.254C672.879 303.882 673.515 304.324 674.244 304.482C674.972 304.641 675.734 304.504 676.362 304.101Z" fill="white"/>
<path fill-rule="evenodd" clip-rule="evenodd" d="M658.686 288.985C659.309 289.393 660.068 289.538 660.797 289.387C661.527 289.236 662.166 288.802 662.576 288.18L670.045 276.814C670.431 276.191 670.558 275.442 670.4 274.726C670.242 274.011 669.811 273.385 669.199 272.983C668.587 272.58 667.841 272.433 667.122 272.571C666.402 272.71 665.765 273.124 665.347 273.726L657.877 285.092C657.468 285.715 657.323 286.475 657.474 287.205C657.625 287.935 658.063 288.576 658.686 288.985Z" fill="white"/>
<path fill-rule="evenodd" clip-rule="evenodd" d="M582.293 290.398L603.638 304.101C604.266 304.495 605.023 304.625 605.747 304.464C606.47 304.302 607.1 303.862 607.5 303.239C607.901 302.615 608.039 301.859 607.885 301.134C607.731 300.409 607.297 299.775 606.677 299.368L585.332 285.665C584.704 285.262 583.942 285.125 583.213 285.284C582.485 285.443 581.849 285.885 581.446 286.512C581.043 287.14 580.906 287.902 581.064 288.63C581.223 289.359 581.665 289.995 582.293 290.398Z" fill="white"/>
<path fill-rule="evenodd" clip-rule="evenodd" d="M617.424 288.18C617.627 288.488 617.888 288.753 618.194 288.96C618.499 289.168 618.842 289.313 619.203 289.387C619.565 289.462 619.937 289.465 620.3 289.395C620.662 289.326 621.007 289.186 621.316 288.983C621.624 288.78 621.889 288.519 622.096 288.213C622.303 287.908 622.448 287.565 622.523 287.204C622.598 286.842 622.6 286.47 622.531 286.107C622.462 285.745 622.322 285.4 622.119 285.091L614.65 273.725C614.231 273.124 613.594 272.71 612.874 272.571C612.155 272.432 611.409 272.58 610.797 272.982C610.185 273.385 609.754 274.01 609.596 274.726C609.438 275.441 609.565 276.19 609.951 276.813L617.42 288.18H617.424Z" fill="white"/>
<path fill-rule="evenodd" clip-rule="evenodd" d="M622.673 319.44C624.081 320.074 625.747 319.446 626.387 318.038C626.397 318.014 627.485 315.664 629.704 313.444C631.964 311.184 634.336 309.978 634.37 309.96C635.756 309.27 636.322 307.585 635.635 306.198C635.402 305.728 635.043 305.333 634.598 305.057C634.152 304.78 633.638 304.634 633.114 304.635C632.694 304.635 632.268 304.728 631.871 304.927C631.74 304.992 628.678 306.522 625.731 309.468C622.744 312.456 621.317 315.604 621.258 315.738C620.627 317.152 621.258 318.803 622.673 319.44Z" fill="white"/>
<path fill-rule="evenodd" clip-rule="evenodd" d="M622.704 357.437H621.265C620.419 357.437 619.617 357.819 619.083 358.475C618.819 358.799 618.631 359.178 618.532 359.584C618.434 359.99 618.428 360.413 618.514 360.822L623.453 384.434C623.585 385.066 623.931 385.633 624.432 386.039C624.933 386.446 625.559 386.669 626.204 386.669H627.329C628.709 388.68 631.69 391.754 637.31 392.491V392.492C637.31 392.492 638.339 392.417 639.89 392.417C641.441 392.417 642.93 392.416 642.93 392.416V392.416C648.252 391.577 651.087 388.633 652.411 386.666H653.515C654.845 386.666 655.992 385.733 656.266 384.431L661.205 360.819C661.379 359.989 661.171 359.128 660.636 358.472C660.372 358.148 660.039 357.887 659.662 357.707C659.285 357.528 658.872 357.434 658.454 357.434H657.568C658.162 350.922 660.832 347.403 663.869 343.406C667.658 338.42 671.954 332.769 671.954 321.075C671.954 314.451 668.734 306.99 663.337 301.122C657.133 294.373 648.886 290.656 640.12 290.656C622.738 290.656 608.051 305.234 608.051 322.492C608.051 331.034 612.089 337.151 615.99 343.07C619.033 347.686 621.927 352.084 622.704 357.434V357.437ZM651.23 381.049H650.767C649.595 381.049 648.56 381.739 648.149 382.836C648.078 383.007 646.347 387.036 639.89 387.036C633.434 387.036 631.631 382.985 631.569 382.836C631.363 382.31 631.003 381.857 630.536 381.538C630.069 381.22 629.517 381.049 628.952 381.049H628.489L624.724 363.057H654.994L651.23 381.049ZM640.117 296.279C656.12 296.279 666.331 310.966 666.331 321.078C666.331 331.19 662.961 335.311 659.393 340.008C656.026 344.438 652.554 349.004 651.923 357.44H642.93V347.531H645.772C646.181 347.53 646.586 347.441 646.958 347.268C647.329 347.095 647.659 346.843 647.923 346.53C648.187 346.216 648.379 345.849 648.486 345.453C648.593 345.057 648.612 344.643 648.541 344.239L644.867 323.129C644.631 321.762 643.443 320.801 642.1 320.801C641.942 320.801 641.777 320.814 641.616 320.842C641.25 320.905 640.9 321.04 640.587 321.24C640.273 321.439 640.003 321.699 639.791 322.004C639.571 321.687 639.288 321.42 638.959 321.217C638.631 321.015 638.264 320.883 637.882 320.829C636.356 320.612 634.923 321.678 634.702 323.213L631.687 344.323C631.572 345.131 631.812 345.945 632.346 346.561C632.61 346.865 632.936 347.109 633.302 347.276C633.669 347.444 634.067 347.53 634.469 347.531H637.31V357.44H628.383C627.615 350.49 624.096 345.156 620.683 339.98C617.078 334.516 613.671 329.352 613.671 322.498C613.671 308.535 626.03 296.285 640.12 296.285L640.117 296.279ZM637.708 341.904L639.834 327.015L642.427 341.904H637.708Z" fill="#1A3567"/>
<path d="M652.005 383.19L640.02 391.391L627.404 383.19L620.781 359.535H657.367L652.005 383.19Z" fill="#1A3567"/>
<path d="M180.064 462.87V458.1H188.374V480H183.034V462.87H180.064ZM194.793 480.24C193.893 480.24 193.153 479.98 192.573 479.46C192.013 478.92 191.733 478.26 191.733 477.48C191.733 476.68 192.013 476.01 192.573 475.47C193.153 474.93 193.893 474.66 194.793 474.66C195.673 474.66 196.393 474.93 196.953 475.47C197.533 476.01 197.823 476.68 197.823 477.48C197.823 478.26 197.533 478.92 196.953 479.46C196.393 479.98 195.673 480.24 194.793 480.24ZM218.75 458.94C220.97 458.94 222.91 459.38 224.57 460.26C226.23 461.14 227.51 462.38 228.41 463.98C229.33 465.56 229.79 467.39 229.79 469.47C229.79 471.53 229.33 473.36 228.41 474.96C227.51 476.56 226.22 477.8 224.54 478.68C222.88 479.56 220.95 480 218.75 480H210.86V458.94H218.75ZM218.42 475.56C220.36 475.56 221.87 475.03 222.95 473.97C224.03 472.91 224.57 471.41 224.57 469.47C224.57 467.53 224.03 466.02 222.95 464.94C221.87 463.86 220.36 463.32 218.42 463.32H215.99V475.56H218.42ZM240.277 480.24C238.637 480.24 237.157 479.89 235.837 479.19C234.537 478.49 233.507 477.49 232.747 476.19C232.007 474.89 231.637 473.37 231.637 471.63C231.637 469.91 232.017 468.4 232.777 467.1C233.537 465.78 234.577 464.77 235.897 464.07C237.217 463.37 238.697 463.02 240.337 463.02C241.977 463.02 243.457 463.37 244.777 464.07C246.097 464.77 247.137 465.78 247.897 467.1C248.657 468.4 249.037 469.91 249.037 471.63C249.037 473.35 248.647 474.87 247.867 476.19C247.107 477.49 246.057 478.49 244.717 479.19C243.397 479.89 241.917 480.24 240.277 480.24ZM240.277 475.8C241.257 475.8 242.087 475.44 242.767 474.72C243.467 474 243.817 472.97 243.817 471.63C243.817 470.29 243.477 469.26 242.797 468.54C242.137 467.82 241.317 467.46 240.337 467.46C239.337 467.46 238.507 467.82 237.847 468.54C237.187 469.24 236.857 470.27 236.857 471.63C236.857 472.97 237.177 474 237.817 474.72C238.477 475.44 239.297 475.8 240.277 475.8ZM256.888 466.05C257.488 465.13 258.238 464.41 259.138 463.89C260.038 463.35 261.038 463.08 262.138 463.08V468.51H260.728C259.448 468.51 258.488 468.79 257.848 469.35C257.208 469.89 256.888 470.85 256.888 472.23V480H251.758V463.26H256.888V466.05ZM285.95 463.08C288.03 463.08 289.68 463.71 290.9 464.97C292.14 466.23 292.76 467.98 292.76 470.22V480H287.66V470.91C287.66 469.83 287.37 469 286.79 468.42C286.23 467.82 285.45 467.52 284.45 467.52C283.45 467.52 282.66 467.82 282.08 468.42C281.52 469 281.24 469.83 281.24 470.91V480H276.14V470.91C276.14 469.83 275.85 469 275.27 468.42C274.71 467.82 273.93 467.52 272.93 467.52C271.93 467.52 271.14 467.82 270.56 468.42C270 469 269.72 469.83 269.72 470.91V480H264.59V463.26H269.72V465.36C270.24 464.66 270.92 464.11 271.76 463.71C272.6 463.29 273.55 463.08 274.61 463.08C275.87 463.08 276.99 463.35 277.97 463.89C278.97 464.43 279.75 465.2 280.31 466.2C280.89 465.28 281.68 464.53 282.68 463.95C283.68 463.37 284.77 463.08 285.95 463.08ZM298.928 461.52C298.028 461.52 297.288 461.26 296.708 460.74C296.148 460.2 295.868 459.54 295.868 458.76C295.868 457.96 296.148 457.3 296.708 456.78C297.288 456.24 298.028 455.97 298.928 455.97C299.808 455.97 300.528 456.24 301.088 456.78C301.668 457.3 301.958 457.96 301.958 458.76C301.958 459.54 301.668 460.2 301.088 460.74C300.528 461.26 299.808 461.52 298.928 461.52ZM301.478 463.26V480H296.348V463.26H301.478ZM304.176 471.6C304.176 469.88 304.496 468.37 305.136 467.07C305.796 465.77 306.686 464.77 307.806 464.07C308.926 463.37 310.176 463.02 311.556 463.02C312.656 463.02 313.656 463.25 314.556 463.71C315.476 464.17 316.196 464.79 316.716 465.57V457.8H321.846V480H316.716V477.6C316.236 478.4 315.546 479.04 314.646 479.52C313.766 480 312.736 480.24 311.556 480.24C310.176 480.24 308.926 479.89 307.806 479.19C306.686 478.47 305.796 477.46 305.136 476.16C304.496 474.84 304.176 473.32 304.176 471.6ZM316.716 471.63C316.716 470.35 316.356 469.34 315.636 468.6C314.936 467.86 314.076 467.49 313.056 467.49C312.036 467.49 311.166 467.86 310.446 468.6C309.746 469.32 309.396 470.32 309.396 471.6C309.396 472.88 309.746 473.9 310.446 474.66C311.166 475.4 312.036 475.77 313.056 475.77C314.076 475.77 314.936 475.4 315.636 474.66C316.356 473.92 316.716 472.91 316.716 471.63ZM333.177 480.24C331.537 480.24 330.057 479.89 328.737 479.19C327.437 478.49 326.407 477.49 325.647 476.19C324.907 474.89 324.537 473.37 324.537 471.63C324.537 469.91 324.917 468.4 325.677 467.1C326.437 465.78 327.477 464.77 328.797 464.07C330.117 463.37 331.597 463.02 333.237 463.02C334.877 463.02 336.357 463.37 337.677 464.07C338.997 464.77 340.037 465.78 340.797 467.1C341.557 468.4 341.937 469.91 341.937 471.63C341.937 473.35 341.547 474.87 340.767 476.19C340.007 477.49 338.957 478.49 337.617 479.19C336.297 479.89 334.817 480.24 333.177 480.24ZM333.177 475.8C334.157 475.8 334.987 475.44 335.667 474.72C336.367 474 336.717 472.97 336.717 471.63C336.717 470.29 336.377 469.26 335.697 468.54C335.037 467.82 334.217 467.46 333.237 467.46C332.237 467.46 331.407 467.82 330.747 468.54C330.087 469.24 329.757 470.27 329.757 471.63C329.757 472.97 330.077 474 330.717 474.72C331.377 475.44 332.197 475.8 333.177 475.8Z" fill="#1A3567"/>
<path d="M545.565 475.89C546.245 475.35 546.555 475.1 546.495 475.14C548.455 473.52 549.995 472.19 551.115 471.15C552.255 470.11 553.215 469.02 553.995 467.88C554.775 466.74 555.165 465.63 555.165 464.55C555.165 463.73 554.975 463.09 554.595 462.63C554.215 462.17 553.645 461.94 552.885 461.94C552.125 461.94 551.525 462.23 551.085 462.81C550.665 463.37 550.455 464.17 550.455 465.21H545.505C545.545 463.51 545.905 462.09 546.585 460.95C547.285 459.81 548.195 458.97 549.315 458.43C550.455 457.89 551.715 457.62 553.095 457.62C555.475 457.62 557.265 458.23 558.465 459.45C559.685 460.67 560.295 462.26 560.295 464.22C560.295 466.36 559.565 468.35 558.105 470.19C556.645 472.01 554.785 473.79 552.525 475.53H560.625V479.7H545.565V475.89ZM565.793 480.24C564.893 480.24 564.153 479.98 563.573 479.46C563.013 478.92 562.733 478.26 562.733 477.48C562.733 476.68 563.013 476.01 563.573 475.47C564.153 474.93 564.893 474.66 565.793 474.66C566.673 474.66 567.393 474.93 567.953 475.47C568.533 476.01 568.823 476.68 568.823 477.48C568.823 478.26 568.533 478.92 567.953 479.46C567.393 479.98 566.673 480.24 565.793 480.24ZM589.75 458.94C591.97 458.94 593.91 459.38 595.57 460.26C597.23 461.14 598.51 462.38 599.41 463.98C600.33 465.56 600.79 467.39 600.79 469.47C600.79 471.53 600.33 473.36 599.41 474.96C598.51 476.56 597.22 477.8 595.54 478.68C593.88 479.56 591.95 480 589.75 480H581.86V458.94H589.75ZM589.42 475.56C591.36 475.56 592.87 475.03 593.95 473.97C595.03 472.91 595.57 471.41 595.57 469.47C595.57 467.53 595.03 466.02 593.95 464.94C592.87 463.86 591.36 463.32 589.42 463.32H586.99V475.56H589.42ZM619.437 471.36C619.437 471.84 619.407 472.34 619.347 472.86H607.737C607.817 473.9 608.147 474.7 608.727 475.26C609.327 475.8 610.057 476.07 610.917 476.07C612.197 476.07 613.087 475.53 613.587 474.45H619.047C618.767 475.55 618.257 476.54 617.517 477.42C616.797 478.3 615.887 478.99 614.787 479.49C613.687 479.99 612.457 480.24 611.097 480.24C609.457 480.24 607.997 479.89 606.717 479.19C605.437 478.49 604.437 477.49 603.717 476.19C602.997 474.89 602.637 473.37 602.637 471.63C602.637 469.89 602.987 468.37 603.687 467.07C604.407 465.77 605.407 464.77 606.687 464.07C607.967 463.37 609.437 463.02 611.097 463.02C612.717 463.02 614.157 463.36 615.417 464.04C616.677 464.72 617.657 465.69 618.357 466.95C619.077 468.21 619.437 469.68 619.437 471.36ZM614.187 470.01C614.187 469.13 613.887 468.43 613.287 467.91C612.687 467.39 611.937 467.13 611.037 467.13C610.177 467.13 609.447 467.38 608.847 467.88C608.267 468.38 607.907 469.09 607.767 470.01H614.187ZM628.953 480.24C627.493 480.24 626.193 479.99 625.053 479.49C623.913 478.99 623.013 478.31 622.353 477.45C621.693 476.57 621.323 475.59 621.243 474.51H626.313C626.373 475.09 626.643 475.56 627.123 475.92C627.603 476.28 628.193 476.46 628.893 476.46C629.533 476.46 630.023 476.34 630.363 476.1C630.723 475.84 630.903 475.51 630.903 475.11C630.903 474.63 630.653 474.28 630.153 474.06C629.653 473.82 628.843 473.56 627.723 473.28C626.523 473 625.523 472.71 624.723 472.41C623.923 472.09 623.233 471.6 622.653 470.94C622.073 470.26 621.783 469.35 621.783 468.21C621.783 467.25 622.043 466.38 622.563 465.6C623.103 464.8 623.883 464.17 624.903 463.71C625.943 463.25 627.173 463.02 628.593 463.02C630.693 463.02 632.343 463.54 633.543 464.58C634.763 465.62 635.463 467 635.643 468.72H630.903C630.823 468.14 630.563 467.68 630.123 467.34C629.703 467 629.143 466.83 628.443 466.83C627.843 466.83 627.383 466.95 627.063 467.19C626.743 467.41 626.583 467.72 626.583 468.12C626.583 468.6 626.833 468.96 627.333 469.2C627.853 469.44 628.653 469.68 629.733 469.92C630.973 470.24 631.983 470.56 632.763 470.88C633.543 471.18 634.223 471.68 634.803 472.38C635.403 473.06 635.713 473.98 635.733 475.14C635.733 476.12 635.453 477 634.893 477.78C634.353 478.54 633.563 479.14 632.523 479.58C631.503 480.02 630.313 480.24 628.953 480.24ZM644.002 465.63C644.502 464.85 645.192 464.22 646.072 463.74C646.952 463.26 647.982 463.02 649.162 463.02C650.542 463.02 651.792 463.37 652.912 464.07C654.032 464.77 654.912 465.77 655.552 467.07C656.212 468.37 656.542 469.88 656.542 471.6C656.542 473.32 656.212 474.84 655.552 476.16C654.912 477.46 654.032 478.47 652.912 479.19C651.792 479.89 650.542 480.24 649.162 480.24C648.002 480.24 646.972 480 646.072 479.52C645.192 479.04 644.502 478.42 644.002 477.66V487.98H638.872V463.26H644.002V465.63ZM651.322 471.6C651.322 470.32 650.962 469.32 650.242 468.6C649.542 467.86 648.672 467.49 647.632 467.49C646.612 467.49 645.742 467.86 645.022 468.6C644.322 469.34 643.972 470.35 643.972 471.63C643.972 472.91 644.322 473.92 645.022 474.66C645.742 475.4 646.612 475.77 647.632 475.77C648.652 475.77 649.522 475.4 650.242 474.66C650.962 473.9 651.322 472.88 651.322 471.6ZM661.813 461.52C660.913 461.52 660.173 461.26 659.593 460.74C659.033 460.2 658.753 459.54 658.753 458.76C658.753 457.96 659.033 457.3 659.593 456.78C660.173 456.24 660.913 455.97 661.813 455.97C662.693 455.97 663.413 456.24 663.973 456.78C664.553 457.3 664.843 457.96 664.843 458.76C664.843 459.54 664.553 460.2 663.973 460.74C663.413 461.26 662.693 461.52 661.813 461.52ZM664.363 463.26V480H659.233V463.26H664.363ZM683.861 471.36C683.861 471.84 683.831 472.34 683.771 472.86H672.161C672.241 473.9 672.571 474.7 673.151 475.26C673.751 475.8 674.481 476.07 675.341 476.07C676.621 476.07 677.511 475.53 678.011 474.45H683.471C683.191 475.55 682.681 476.54 681.941 477.42C681.221 478.3 680.311 478.99 679.211 479.49C678.111 479.99 676.881 480.24 675.521 480.24C673.881 480.24 672.421 479.89 671.141 479.19C669.861 478.49 668.861 477.49 668.141 476.19C667.421 474.89 667.061 473.37 667.061 471.63C667.061 469.89 667.411 468.37 668.111 467.07C668.831 465.77 669.831 464.77 671.111 464.07C672.391 463.37 673.861 463.02 675.521 463.02C677.141 463.02 678.581 463.36 679.841 464.04C681.101 464.72 682.081 465.69 682.781 466.95C683.501 468.21 683.861 469.68 683.861 471.36ZM678.611 470.01C678.611 469.13 678.311 468.43 677.711 467.91C677.111 467.39 676.361 467.13 675.461 467.13C674.601 467.13 673.871 467.38 673.271 467.88C672.691 468.38 672.331 469.09 672.191 470.01H678.611ZM691.697 466.05C692.297 465.13 693.047 464.41 693.947 463.89C694.847 463.35 695.847 463.08 696.947 463.08V468.51H695.537C694.257 468.51 693.297 468.79 692.657 469.35C692.017 469.89 691.697 470.85 691.697 472.23V480H686.567V463.26H691.697V466.05ZM708.729 475.65V480H706.119C704.259 480 702.809 479.55 701.769 478.65C700.729 477.73 700.209 476.24 700.209 474.18V467.52H698.169V463.26H700.209V459.18H705.339V463.26H708.699V467.52H705.339V474.24C705.339 474.74 705.459 475.1 705.699 475.32C705.939 475.54 706.339 475.65 706.899 475.65H708.729ZM719.207 480.24C717.567 480.24 716.087 479.89 714.767 479.19C713.467 478.49 712.437 477.49 711.677 476.19C710.937 474.89 710.567 473.37 710.567 471.63C710.567 469.91 710.947 468.4 711.707 467.1C712.467 465.78 713.507 464.77 714.827 464.07C716.147 463.37 717.627 463.02 719.267 463.02C720.907 463.02 722.387 463.37 723.707 464.07C725.027 464.77 726.067 465.78 726.827 467.1C727.587 468.4 727.967 469.91 727.967 471.63C727.967 473.35 727.577 474.87 726.797 476.19C726.037 477.49 724.987 478.49 723.647 479.19C722.327 479.89 720.847 480.24 719.207 480.24ZM719.207 475.8C720.187 475.8 721.017 475.44 721.697 474.72C722.397 474 722.747 472.97 722.747 471.63C722.747 470.29 722.407 469.26 721.727 468.54C721.067 467.82 720.247 467.46 719.267 467.46C718.267 467.46 717.437 467.82 716.777 468.54C716.117 469.24 715.787 470.27 715.787 471.63C715.787 472.97 716.107 474 716.747 474.72C717.407 475.44 718.227 475.8 719.207 475.8Z" fill="#1A3567"/>
<path d="M932.899 464.28C932.979 462.14 933.679 460.49 934.999 459.33C936.319 458.17 938.109 457.59 940.369 457.59C941.869 457.59 943.149 457.85 944.209 458.37C945.289 458.89 946.099 459.6 946.639 460.5C947.199 461.4 947.479 462.41 947.479 463.53C947.479 464.85 947.149 465.93 946.489 466.77C945.829 467.59 945.059 468.15 944.179 468.45V468.57C945.319 468.95 946.219 469.58 946.879 470.46C947.539 471.34 947.869 472.47 947.869 473.85C947.869 475.09 947.579 476.19 946.999 477.15C946.439 478.09 945.609 478.83 944.509 479.37C943.429 479.91 942.139 480.18 940.639 480.18C938.239 480.18 936.319 479.59 934.879 478.41C933.459 477.23 932.709 475.45 932.629 473.07H937.609C937.629 473.95 937.879 474.65 938.359 475.17C938.839 475.67 939.539 475.92 940.459 475.92C941.239 475.92 941.839 475.7 942.259 475.26C942.699 474.8 942.919 474.2 942.919 473.46C942.919 472.5 942.609 471.81 941.989 471.39C941.389 470.95 940.419 470.73 939.079 470.73H938.119V466.56H939.079C940.099 466.56 940.919 466.39 941.539 466.05C942.179 465.69 942.499 465.06 942.499 464.16C942.499 463.44 942.299 462.88 941.899 462.48C941.499 462.08 940.949 461.88 940.249 461.88C939.489 461.88 938.919 462.11 938.539 462.57C938.179 463.03 937.969 463.6 937.909 464.28H932.899ZM953.793 480.24C952.893 480.24 952.153 479.98 951.573 479.46C951.013 478.92 950.733 478.26 950.733 477.48C950.733 476.68 951.013 476.01 951.573 475.47C952.153 474.93 952.893 474.66 953.793 474.66C954.673 474.66 955.393 474.93 955.953 475.47C956.533 476.01 956.823 476.68 956.823 477.48C956.823 478.26 956.533 478.92 955.953 479.46C955.393 479.98 954.673 480.24 953.793 480.24ZM977.75 458.94C979.97 458.94 981.91 459.38 983.57 460.26C985.23 461.14 986.51 462.38 987.41 463.98C988.33 465.56 988.79 467.39 988.79 469.47C988.79 471.53 988.33 473.36 987.41 474.96C986.51 476.56 985.22 477.8 983.54 478.68C981.88 479.56 979.95 480 977.75 480H969.86V458.94H977.75ZM977.42 475.56C979.36 475.56 980.87 475.03 981.95 473.97C983.03 472.91 983.57 471.41 983.57 469.47C983.57 467.53 983.03 466.02 981.95 464.94C980.87 463.86 979.36 463.32 977.42 463.32H974.99V475.56H977.42ZM999.277 480.24C997.637 480.24 996.157 479.89 994.837 479.19C993.537 478.49 992.507 477.49 991.747 476.19C991.007 474.89 990.637 473.37 990.637 471.63C990.637 469.91 991.017 468.4 991.777 467.1C992.537 465.78 993.577 464.77 994.897 464.07C996.217 463.37 997.697 463.02 999.337 463.02C1000.98 463.02 1002.46 463.37 1003.78 464.07C1005.1 464.77 1006.14 465.78 1006.9 467.1C1007.66 468.4 1008.04 469.91 1008.04 471.63C1008.04 473.35 1007.65 474.87 1006.87 476.19C1006.11 477.49 1005.06 478.49 1003.72 479.19C1002.4 479.89 1000.92 480.24 999.277 480.24ZM999.277 475.8C1000.26 475.8 1001.09 475.44 1001.77 474.72C1002.47 474 1002.82 472.97 1002.82 471.63C1002.82 470.29 1002.48 469.26 1001.8 468.54C1001.14 467.82 1000.32 467.46 999.337 467.46C998.337 467.46 997.507 467.82 996.847 468.54C996.187 469.24 995.857 470.27 995.857 471.63C995.857 472.97 996.177 474 996.817 474.72C997.477 475.44 998.297 475.8 999.277 475.8ZM1015.89 466.05C1016.49 465.13 1017.24 464.41 1018.14 463.89C1019.04 463.35 1020.04 463.08 1021.14 463.08V468.51H1019.73C1018.45 468.51 1017.49 468.79 1016.85 469.35C1016.21 469.89 1015.89 470.85 1015.89 472.23V480H1010.76V463.26H1015.89V466.05ZM1044.95 463.08C1047.03 463.08 1048.68 463.71 1049.9 464.97C1051.14 466.23 1051.76 467.98 1051.76 470.22V480H1046.66V470.91C1046.66 469.83 1046.37 469 1045.79 468.42C1045.23 467.82 1044.45 467.52 1043.45 467.52C1042.45 467.52 1041.66 467.82 1041.08 468.42C1040.52 469 1040.24 469.83 1040.24 470.91V480H1035.14V470.91C1035.14 469.83 1034.85 469 1034.27 468.42C1033.71 467.82 1032.93 467.52 1031.93 467.52C1030.93 467.52 1030.14 467.82 1029.56 468.42C1029 469 1028.72 469.83 1028.72 470.91V480H1023.59V463.26H1028.72V465.36C1029.24 464.66 1029.92 464.11 1030.76 463.71C1031.6 463.29 1032.55 463.08 1033.61 463.08C1034.87 463.08 1035.99 463.35 1036.97 463.89C1037.97 464.43 1038.75 465.2 1039.31 466.2C1039.89 465.28 1040.68 464.53 1041.68 463.95C1042.68 463.37 1043.77 463.08 1044.95 463.08ZM1057.93 461.52C1057.03 461.52 1056.29 461.26 1055.71 460.74C1055.15 460.2 1054.87 459.54 1054.87 458.76C1054.87 457.96 1055.15 457.3 1055.71 456.78C1056.29 456.24 1057.03 455.97 1057.93 455.97C1058.81 455.97 1059.53 456.24 1060.09 456.78C1060.67 457.3 1060.96 457.96 1060.96 458.76C1060.96 459.54 1060.67 460.2 1060.09 460.74C1059.53 461.26 1058.81 461.52 1057.93 461.52ZM1060.48 463.26V480H1055.35V463.26H1060.48ZM1063.18 471.6C1063.18 469.88 1063.5 468.37 1064.14 467.07C1064.8 465.77 1065.69 464.77 1066.81 464.07C1067.93 463.37 1069.18 463.02 1070.56 463.02C1071.66 463.02 1072.66 463.25 1073.56 463.71C1074.48 464.17 1075.2 464.79 1075.72 465.57V457.8H1080.85V480H1075.72V477.6C1075.24 478.4 1074.55 479.04 1073.65 479.52C1072.77 480 1071.74 480.24 1070.56 480.24C1069.18 480.24 1067.93 479.89 1066.81 479.19C1065.69 478.47 1064.8 477.46 1064.14 476.16C1063.5 474.84 1063.18 473.32 1063.18 471.6ZM1075.72 471.63C1075.72 470.35 1075.36 469.34 1074.64 468.6C1073.94 467.86 1073.08 467.49 1072.06 467.49C1071.04 467.49 1070.17 467.86 1069.45 468.6C1068.75 469.32 1068.4 470.32 1068.4 471.6C1068.4 472.88 1068.75 473.9 1069.45 474.66C1070.17 475.4 1071.04 475.77 1072.06 475.77C1073.08 475.77 1073.94 475.4 1074.64 474.66C1075.36 473.92 1075.72 472.91 1075.72 471.63ZM1092.18 480.24C1090.54 480.24 1089.06 479.89 1087.74 479.19C1086.44 478.49 1085.41 477.49 1084.65 476.19C1083.91 474.89 1083.54 473.37 1083.54 471.63C1083.54 469.91 1083.92 468.4 1084.68 467.1C1085.44 465.78 1086.48 464.77 1087.8 464.07C1089.12 463.37 1090.6 463.02 1092.24 463.02C1093.88 463.02 1095.36 463.37 1096.68 464.07C1098 464.77 1099.04 465.78 1099.8 467.1C1100.56 468.4 1100.94 469.91 1100.94 471.63C1100.94 473.35 1100.55 474.87 1099.77 476.19C1099.01 477.49 1097.96 478.49 1096.62 479.19C1095.3 479.89 1093.82 480.24 1092.18 480.24ZM1092.18 475.8C1093.16 475.8 1093.99 475.44 1094.67 474.72C1095.37 474 1095.72 472.97 1095.72 471.63C1095.72 470.29 1095.38 469.26 1094.7 468.54C1094.04 467.82 1093.22 467.46 1092.24 467.46C1091.24 467.46 1090.41 467.82 1089.75 468.54C1089.09 469.24 1088.76 470.27 1088.76 471.63C1088.76 472.97 1089.08 474 1089.72 474.72C1090.38 475.44 1091.2 475.8 1092.18 475.8Z" fill="#1A3567"/>
<rect x="160" y="225" width="203" height="203" rx="30" fill="#A6A7BB"/>
<rect x="179" y="244" width="165" height="165" rx="15" fill="#CAC7DA"/>
<path d="M216.004 306.516H246.016L216 343.419H246.016M265.162 279H287.548L265.162 306.516H287.548M272.424 330.265H308L272.424 374H308" stroke="#1A3567" stroke-width="7" stroke-linecap="round" stroke-linejoin="round"/>
<rect x="916" y="225" width="203" height="203" rx="30" fill="#A6A7BB"/>
<rect x="935" y="244" width="165" height="165" rx="15" fill="#CAC7DA"/>
<path d="M972.004 306.516H1002.02L972 343.419H1002.02M1021.16 279H1043.55L1021.16 306.516H1043.55M1028.42 330.265H1064L1028.42 374H1064" stroke="#1A3567" stroke-width="7" stroke-linecap="round" stroke-linejoin="round"/>
<path d="M383.491 330.337L507.778 330.346L507.797 322.674H383.5L383.491 330.337ZM503.914 338L527 326.568L503.973 315L503.914 338Z" fill="#FB925A"/>
<path d="M757 330.337L881.287 330.346L881.307 322.674H757.01L757 330.337ZM877.424 338L900.51 326.568L877.482 315L877.424 338Z" fill="#7EB4CE"/>
<path d="M773 63C810.333 99.726 810.333 159.272 773 196" stroke="#1E5C93" stroke-width="5" stroke-miterlimit="10"/>
<path d="M757 80C785 107.891 785 153.108 757 181" stroke="#1E5C93" stroke-width="5" stroke-miterlimit="10"/>
<path d="M741 97C759.667 116.056 759.667 146.946 741 166" stroke="#1E5C93" stroke-width="5" stroke-miterlimit="10"/>
<path d="M498 63C460.667 99.726 460.667 159.272 498 196" stroke="#1E5C93" stroke-width="5" stroke-miterlimit="10"/>
<path d="M514 80C486 107.891 486 153.108 514 181" stroke="#1E5C93" stroke-width="5" stroke-miterlimit="10"/>
<path d="M530 97C511.333 116.056 511.333 146.946 530 166" stroke="#1E5C93" stroke-width="5" stroke-miterlimit="10"/>
<path d="M440.568 390L452 413.086L429 413.027L440.568 390Z" fill="#7EB4CE"/>
<path d="M837.568 390L849 413.086L826 413.027L837.568 390Z" fill="#7EB4CE"/>
<path d="M838 403.5C798.5 677.5 440.5 597 440.5 403.5" stroke="#7EB4CE" stroke-width="5" stroke-dasharray="10 10"/>
<path d="M484.135 542.099L481.288 545.268L486.398 549.859L483.752 552.805L478.641 548.214L475.554 551.651L481.334 556.843L478.587 559.901L468.991 551.28L483.065 535.613L492.661 544.234L489.915 547.291L484.135 542.099ZM487.048 566.871C485.889 565.983 485.009 564.994 484.408 563.903C483.808 562.813 483.507 561.726 483.506 560.642C483.518 559.542 483.82 558.539 484.414 557.633L488.438 560.717C488.133 561.214 488.061 561.751 488.223 562.329C488.385 562.907 488.744 563.408 489.299 563.834C489.807 564.223 490.269 564.426 490.685 564.443C491.129 564.455 491.473 564.303 491.716 563.985C492.008 563.604 492.022 563.174 491.759 562.696C491.509 562.201 491.024 561.502 490.305 560.598C489.523 559.646 488.906 558.808 488.453 558.083C488.013 557.342 487.763 556.534 487.704 555.657C487.658 554.765 487.981 553.866 488.674 552.961C489.258 552.199 489.994 551.667 490.881 551.364C491.796 551.057 492.799 551.032 493.888 551.287C494.993 551.555 496.11 552.12 497.237 552.984C498.903 554.261 499.897 555.678 500.217 557.233C500.552 558.801 500.269 560.322 499.365 561.797L495.603 558.913C495.892 558.404 495.966 557.881 495.823 557.344C495.697 556.818 495.356 556.343 494.8 555.917C494.324 555.552 493.886 555.367 493.486 555.363C493.098 555.343 492.782 555.492 492.539 555.809C492.247 556.19 492.226 556.628 492.477 557.123C492.744 557.63 493.233 558.307 493.944 559.154C494.734 560.162 495.341 561.031 495.765 561.759C496.202 562.472 496.438 563.282 496.472 564.191C496.535 565.095 496.221 566.014 495.531 566.947C494.935 567.725 494.178 568.253 493.259 568.532C492.368 568.806 491.376 568.802 490.283 568.519C489.206 568.247 488.127 567.698 487.048 566.871ZM507.953 563.739C508.794 563.35 509.714 563.189 510.714 563.257C511.715 563.325 512.712 563.676 513.708 564.31C514.872 565.051 515.738 566.017 516.307 567.21C516.875 568.402 517.08 569.718 516.922 571.158C516.78 572.609 516.248 574.06 515.324 575.511C514.4 576.962 513.305 578.066 512.039 578.825C510.801 579.578 509.516 579.957 508.185 579.963C506.864 579.952 505.622 579.576 504.458 578.834C503.479 578.211 502.74 577.456 502.238 576.567C501.754 575.69 501.505 574.796 501.491 573.887L495.948 582.591L491.621 579.836L504.899 558.985L509.226 561.74L507.953 563.739ZM510.921 572.707C511.608 571.627 511.842 570.59 511.621 569.596C511.428 568.596 510.893 567.817 510.016 567.258C509.156 566.71 508.223 566.555 507.218 566.792C506.23 567.041 505.393 567.705 504.705 568.784C504.017 569.864 503.77 570.904 503.963 571.904C504.173 572.915 504.708 573.694 505.568 574.242C506.429 574.79 507.361 574.945 508.366 574.708C509.382 574.454 510.233 573.787 510.921 572.707ZM531.917 584.018C531.694 584.443 531.435 584.872 531.141 585.305L520.856 579.918C520.445 580.877 520.366 581.738 520.62 582.504C520.901 583.26 521.422 583.838 522.184 584.237C523.318 584.831 524.357 584.766 525.301 584.041L530.138 586.574C529.379 587.419 528.468 588.059 527.404 588.495C526.358 588.941 525.232 589.13 524.025 589.062C522.819 588.995 521.613 588.646 520.409 588.015C518.956 587.254 517.825 586.266 517.016 585.052C516.207 583.838 515.785 582.489 515.75 581.003C515.715 579.517 516.102 578.004 516.909 576.462C517.716 574.921 518.732 573.737 519.955 572.91C521.196 572.092 522.546 571.671 524.004 571.644C525.463 571.618 526.927 571.99 528.398 572.76C529.833 573.512 530.951 574.481 531.752 575.668C532.552 576.855 532.97 578.169 533.006 579.61C533.059 581.06 532.696 582.529 531.917 584.018ZM527.892 580.386C528.301 579.606 528.36 578.847 528.069 578.108C527.779 577.369 527.235 576.791 526.438 576.373C525.676 575.974 524.913 575.857 524.15 576.022C523.404 576.195 522.756 576.657 522.205 577.407L527.892 580.386ZM541.318 582.454C542.241 581.858 543.219 581.505 544.253 581.396C545.294 581.269 546.318 581.429 547.323 581.877L545.114 586.837L543.826 586.264C542.656 585.743 541.666 585.608 540.853 585.859C540.049 586.092 539.366 586.839 538.805 588.1L535.644 595.198L530.957 593.111L537.767 577.819L542.453 579.906L541.318 582.454ZM545.315 590.244C545.911 588.631 546.734 587.326 547.785 586.328C548.855 585.337 550.036 584.708 551.33 584.439C552.623 584.171 553.917 584.276 555.211 584.754C556.318 585.163 557.201 585.745 557.86 586.501C558.538 587.263 558.967 588.093 559.146 588.991L559.968 586.768L564.78 588.546L558.978 604.248L554.166 602.47L554.987 600.247C554.248 600.805 553.373 601.154 552.362 601.292C551.37 601.437 550.321 601.305 549.214 600.896C547.938 600.425 546.897 599.667 546.089 598.622C545.288 597.559 544.803 596.303 544.634 594.854C544.492 593.394 544.718 591.858 545.315 590.244ZM557.067 594.619C557.51 593.418 557.523 592.346 557.104 591.403C556.704 590.466 556.025 589.821 555.069 589.467C554.112 589.114 553.168 589.159 552.236 589.604C551.33 590.036 550.655 590.853 550.211 592.054C549.767 593.254 549.742 594.332 550.135 595.288C550.554 596.232 551.242 596.88 552.199 597.234C553.155 597.587 554.09 597.538 555.003 597.087C555.935 596.642 556.623 595.82 557.067 594.619ZM577.708 592.157C579.593 592.692 580.919 593.734 581.686 595.282C582.477 596.817 582.569 598.651 581.963 600.787L579.293 610.196L574.387 608.803L576.869 600.058C577.174 598.981 577.133 598.065 576.744 597.31C576.356 596.555 575.69 596.044 574.747 595.776C573.804 595.509 572.969 595.594 572.242 596.032C571.515 596.47 570.998 597.228 570.692 598.306L568.211 607.05L563.275 605.649L567.846 589.546L572.781 590.946L572.175 593.082C572.877 592.512 573.709 592.145 574.67 591.981C575.637 591.798 576.65 591.857 577.708 592.157ZM584.204 602.785C584.547 601.099 585.162 599.684 586.048 598.537C586.954 597.395 588.025 596.592 589.262 596.129C590.499 595.667 591.794 595.573 593.146 595.848C594.224 596.067 595.158 596.492 595.948 597.122C596.758 597.756 597.34 598.507 597.694 599.375L599.243 591.761L604.27 592.783L599.846 614.538L594.819 613.516L595.297 611.164C594.667 611.852 593.863 612.342 592.886 612.633C591.928 612.928 590.871 612.958 589.714 612.722C588.362 612.447 587.207 611.855 586.249 610.946C585.295 610.017 584.624 608.85 584.236 607.445C583.872 606.024 583.861 604.47 584.204 602.785ZM596.487 605.314C596.742 604.059 596.59 602.998 596.032 602.129C595.494 601.264 594.725 600.73 593.725 600.527C592.726 600.324 591.799 600.513 590.946 601.095C590.117 601.661 589.575 602.571 589.319 603.825C589.064 605.08 589.204 606.149 589.739 607.033C590.297 607.902 591.075 608.438 592.075 608.641C593.075 608.844 593.991 608.653 594.824 608.068C595.677 607.486 596.232 606.568 596.487 605.314ZM611.789 616.476C610.163 616.267 608.739 615.732 607.519 614.87C606.318 614.01 605.424 612.887 604.835 611.501C604.267 610.117 604.093 608.563 604.314 606.837C604.533 605.131 605.102 603.681 606.021 602.489C606.943 601.276 608.103 600.406 609.501 599.88C610.899 599.353 612.412 599.194 614.038 599.403C615.665 599.611 617.089 600.147 618.309 601.009C619.529 601.871 620.432 603.005 621.018 604.411C621.607 605.797 621.792 607.343 621.573 609.049C621.354 610.755 620.774 612.213 619.833 613.424C618.914 614.616 617.745 615.475 616.327 615.999C614.929 616.525 613.416 616.684 611.789 616.476ZM612.354 612.072C613.326 612.196 614.195 611.945 614.961 611.317C615.747 610.692 616.225 609.715 616.395 608.386C616.566 607.056 616.36 605.992 615.777 605.191C615.213 604.393 614.446 603.932 613.474 603.807C612.482 603.68 611.613 603.931 610.867 604.562C610.123 605.172 609.665 606.152 609.492 607.501C609.322 608.83 609.508 609.892 610.051 610.688C610.614 611.486 611.382 611.947 612.354 612.072ZM641.274 601.477C643.234 601.533 644.775 602.217 645.898 603.529C647.042 604.822 647.583 606.578 647.52 608.797L647.244 618.573L642.146 618.429L642.403 609.342C642.435 608.223 642.169 607.345 641.607 606.709C641.045 606.073 640.274 605.741 639.294 605.713C638.315 605.686 637.526 605.973 636.929 606.577C636.332 607.18 636.017 608.042 635.985 609.161L635.729 618.248L630.601 618.103L631.073 601.369L636.201 601.514L636.139 603.733C636.679 603.008 637.396 602.448 638.287 602.053C639.179 601.638 640.175 601.446 641.274 601.477ZM667.289 600.943L668.154 617.661L663.031 617.926L662.913 615.649C662.432 616.415 661.754 617.051 660.879 617.557C660.023 618.041 659.055 618.312 657.977 618.368C656.699 618.434 655.556 618.212 654.548 617.704C653.539 617.175 652.737 616.386 652.142 615.335C651.547 614.284 651.212 613.03 651.137 611.572L650.631 601.805L655.725 601.541L656.194 610.619C656.252 611.738 656.587 612.592 657.198 613.181C657.809 613.77 658.604 614.039 659.583 613.989C660.581 613.937 661.354 613.587 661.902 612.938C662.449 612.288 662.693 611.405 662.636 610.286L662.166 601.208L667.289 600.943ZM687.166 606.608C687.229 607.084 687.265 607.583 687.274 608.107L675.764 609.631C675.98 610.652 676.412 611.401 677.061 611.88C677.727 612.337 678.486 612.509 679.338 612.396C680.607 612.228 681.419 611.576 681.772 610.439L687.185 609.722C687.052 610.849 686.676 611.898 686.058 612.867C685.46 613.834 684.649 614.638 683.624 615.278C682.599 615.918 681.413 616.327 680.064 616.506C678.439 616.721 676.945 616.566 675.584 616.04C674.224 615.514 673.101 614.654 672.216 613.46C671.332 612.266 670.775 610.807 670.547 609.082C670.318 607.357 670.466 605.804 670.989 604.423C671.532 603.04 672.392 601.917 673.569 601.055C674.746 600.193 676.157 599.653 677.803 599.435C679.409 599.222 680.881 599.37 682.22 599.879C683.558 600.388 684.657 601.221 685.516 602.378C686.395 603.532 686.945 604.942 687.166 606.608ZM681.784 605.959C681.669 605.087 681.279 604.432 680.616 603.995C679.953 603.559 679.175 603.399 678.283 603.517C677.431 603.63 676.74 603.974 676.211 604.549C675.701 605.12 675.438 605.872 675.42 606.802L681.784 605.959ZM698.139 608.254L699.181 595.818L704.519 594.671L702.226 612.285L696.038 613.614L686.715 598.495L692.083 597.342L698.139 608.254ZM718.338 608.19C716.77 608.672 715.253 608.772 713.786 608.491C712.337 608.204 711.059 607.55 709.951 606.531C708.861 605.506 708.061 604.162 707.55 602.498C707.045 600.854 706.965 599.299 707.309 597.833C707.648 596.348 708.345 595.077 709.401 594.02C710.458 592.964 711.769 592.194 713.337 591.713C714.905 591.231 716.422 591.131 717.89 591.412C719.357 591.693 720.648 592.353 721.762 593.392C722.87 594.411 723.677 595.743 724.182 597.387C724.688 599.031 724.761 600.599 724.404 602.09C724.059 603.555 723.349 604.82 722.274 605.883C721.218 606.939 719.906 607.709 718.338 608.19ZM717.034 603.946C717.971 603.658 718.658 603.071 719.097 602.183C719.554 601.289 719.586 600.201 719.193 598.92C718.799 597.64 718.172 596.755 717.31 596.266C716.468 595.772 715.578 595.669 714.641 595.957C713.685 596.25 712.998 596.838 712.578 597.72C712.153 598.583 712.14 599.665 712.54 600.965C712.933 602.246 713.542 603.136 714.365 603.637C715.208 604.131 716.097 604.234 717.034 603.946ZM747.179 587.306C747.376 587.744 747.554 588.212 747.713 588.711L737.13 593.483C737.63 594.398 738.26 594.992 739.019 595.264C739.788 595.51 740.564 595.456 741.348 595.102C742.515 594.576 743.104 593.718 743.116 592.528L748.093 590.283C748.29 591.401 748.232 592.513 747.92 593.62C747.625 594.718 747.079 595.721 746.282 596.629C745.485 597.537 744.466 598.27 743.226 598.83C741.731 599.504 740.256 599.785 738.802 599.673C737.347 599.561 736.025 599.06 734.834 598.171C733.643 597.282 732.69 596.044 731.975 594.458C731.26 592.872 730.954 591.342 731.058 589.87C731.18 588.389 731.68 587.066 732.559 585.902C733.438 584.737 734.634 583.814 736.148 583.132C737.625 582.466 739.077 582.184 740.505 582.286C741.933 582.388 743.225 582.869 744.381 583.73C745.556 584.583 746.488 585.775 747.179 587.306ZM741.838 588.234C741.476 587.431 740.915 586.917 740.154 586.689C739.394 586.462 738.603 586.533 737.783 586.903C736.999 587.257 736.436 587.785 736.094 588.487C735.771 589.181 735.735 589.976 735.985 590.873L741.838 588.234ZM758.167 585.518L755.358 573.359L760.09 570.636L763.292 588.107L757.806 591.265L744.307 579.719L749.065 576.981L758.167 585.518ZM778.851 567.079C779.132 567.468 779.401 567.891 779.656 568.348L770.243 575.143C770.916 575.939 771.652 576.395 772.45 576.509C773.253 576.596 774.003 576.388 774.7 575.884C775.738 575.135 776.143 574.176 775.917 573.008L780.344 569.812C780.761 570.868 780.927 571.969 780.842 573.116C780.773 574.251 780.439 575.343 779.84 576.392C779.24 577.442 778.389 578.364 777.287 579.16C775.957 580.12 774.568 580.691 773.121 580.872C771.673 581.054 770.277 580.829 768.932 580.196C767.588 579.563 766.406 578.541 765.388 577.131C764.369 575.72 763.763 574.283 763.57 572.819C763.393 571.343 763.619 569.947 764.247 568.63C764.875 567.314 765.862 566.169 767.208 565.198C768.521 564.25 769.888 563.683 771.308 563.496C772.727 563.31 774.09 563.523 775.395 564.135C776.716 564.735 777.868 565.717 778.851 567.079ZM773.805 569.057C773.289 568.343 772.636 567.951 771.846 567.881C771.055 567.811 770.295 568.039 769.565 568.565C768.867 569.069 768.422 569.699 768.228 570.455C768.05 571.2 768.174 571.987 768.599 572.815L773.805 569.057ZM783.061 552.217C784.512 550.899 786.098 550.325 787.817 550.493C789.537 550.632 791.144 551.524 792.636 553.168L799.21 560.409L795.433 563.837L789.324 557.107C788.571 556.277 787.771 555.828 786.925 555.759C786.079 555.69 785.293 555.984 784.567 556.643C783.842 557.302 783.473 558.056 783.46 558.905C783.447 559.754 783.817 560.593 784.57 561.422L790.68 568.152L786.882 571.6L775.63 559.206L779.428 555.758L780.92 557.401C780.808 556.504 780.936 555.604 781.306 554.702C781.662 553.784 782.247 552.956 783.061 552.217ZM805.497 547.38L808.709 550.314L806.948 552.241C805.694 553.614 804.383 554.381 803.017 554.542C801.637 554.689 800.186 554.068 798.665 552.679L793.748 548.187L792.372 549.693L789.227 546.819L790.603 545.313L787.591 542.561L791.051 538.774L794.063 541.526L796.329 539.045L799.475 541.919L797.208 544.399L802.169 548.932C802.539 549.269 802.885 549.423 803.21 549.394C803.534 549.366 803.885 549.145 804.263 548.731L805.497 547.38ZM815.914 541.378C814.928 542.688 813.758 543.66 812.405 544.293C811.064 544.911 809.645 545.132 808.15 544.958C806.666 544.767 805.229 544.148 803.839 543.102C802.465 542.067 801.487 540.856 800.906 539.467C800.308 538.066 800.127 536.627 800.361 535.152C800.596 533.676 801.206 532.283 802.193 530.973C803.179 529.663 804.349 528.691 805.702 528.057C807.055 527.424 808.488 527.2 809.999 527.387C811.495 527.562 812.93 528.166 814.304 529.201C815.678 530.235 816.658 531.461 817.243 532.878C817.825 534.267 817.992 535.707 817.746 537.199C817.511 538.675 816.9 540.068 815.914 541.378ZM812.367 538.707C812.956 537.924 813.168 537.045 813.002 536.068C812.847 535.076 812.235 534.177 811.165 533.371C810.094 532.565 809.067 532.217 808.082 532.328C807.11 532.422 806.329 532.86 805.74 533.643C805.139 534.442 804.927 535.322 805.105 536.282C805.268 537.231 805.892 538.114 806.978 538.932C808.049 539.738 809.064 540.101 810.025 540.023C810.997 539.929 811.777 539.49 812.367 538.707Z" fill="#7EB4CE"/>
<defs>
<linearGradient id="paint0_linear_410_4590" x1="640" y1="720" x2="640" y2="0" gradientUnits="userSpaceOnUse">
<stop stop-color="#B3E3FA"/>
<stop offset="1" stop-color="#ECFAFF"/>
</linearGradient>
</defs>
</svg>
