<?xml version="1.0" encoding="UTF-8" standalone="no"?>
<!DOCTYPE svg PUBLIC "-//W3C//DTD SVG 1.1//EN"
 "http://www.w3.org/Graphics/SVG/1.1/DTD/svg11.dtd">
<!-- Generated by graphviz version 14.1.2 (0)
 -->
<!-- Title: PDG_Protobject Pages: 1 -->
<svg width="1108pt" height="596pt"
 viewBox="0.00 0.00 1108.00 596.00" xmlns="http://www.w3.org/2000/svg" xmlns:xlink="http://www.w3.org/1999/xlink">
<g id="graph0" class="graph" transform="scale(1 1) rotate(0) translate(21.6 574.6)">
<title>PDG_Protobject</title>
<polygon fill="#fbf6eb" stroke="none" points="-21.6,21.6 -21.6,-574.6 1086.6,-574.6 1086.6,21.6 -21.6,21.6"/>
<g id="clust1" class="cluster">
<title>cluster_loop</title>
<path fill="#fbf6eb" stroke="#8b2418" stroke-width="1.8" stroke-dasharray="5,2" d="M20,-8C20,-8 1045,-8 1045,-8 1051,-8 1057,-14 1057,-20 1057,-20 1057,-300 1057,-300 1057,-306 1051,-312 1045,-312 1045,-312 20,-312 20,-312 14,-312 8,-306 8,-300 8,-300 8,-20 8,-20 8,-14 14,-8 20,-8"/>
<text xml:space="preserve" text-anchor="start" x="41.88" y="-298.55" font-family="Arial" font-weight="bold" font-size="11.00">loop</text>
<text xml:space="preserve" text-anchor="start" x="16" y="-289.45" font-family="Arial" font-size="9.00" fill="#8b2418">alcance de control</text>
</g>
<!-- n1 -->
<g id="node1" class="node">
<title>n1</title>
<path fill="#34495e" stroke="#1a1612" stroke-width="1.5" d="M503.52,-553C503.52,-553 396.48,-553 396.48,-553 390.48,-553 384.48,-547 384.48,-541 384.48,-541 384.48,-529 384.48,-529 384.48,-523 390.48,-517 396.48,-517 396.48,-517 503.52,-517 503.52,-517 509.52,-517 515.52,-523 515.52,-529 515.52,-529 515.52,-541 515.52,-541 515.52,-547 509.52,-553 503.52,-553"/>
<text xml:space="preserve" text-anchor="middle" x="450" y="-531.3" font-family="Arial" font-size="11.00" fill="#fbf6eb">1 &#160;&#160;ProgramStartEvent</text>
</g>
<!-- n2 -->
<g id="node2" class="node">
<title>n2</title>
<path fill="#8b2418" stroke="#1a1612" stroke-width="1.5" d="M484.77,-476C484.77,-476 415.23,-476 415.23,-476 409.23,-476 403.23,-470 403.23,-464 403.23,-464 403.23,-452 403.23,-452 403.23,-446 409.23,-440 415.23,-440 415.23,-440 484.77,-440 484.77,-440 490.77,-440 496.77,-446 496.77,-452 496.77,-452 496.77,-464 496.77,-464 496.77,-470 490.77,-476 484.77,-476"/>
<text xml:space="preserve" text-anchor="middle" x="450" y="-454.3" font-family="Arial" font-size="11.00" fill="#fbf6eb">2 &#160;&#160;SetVariable</text>
</g>
<!-- n1&#45;&gt;n2 -->
<g id="edge1" class="edge">
<title>n1&#45;&gt;n2</title>
<path fill="none" stroke="#8b2418" stroke-width="2" d="M450,-516.6C450,-508.52 450,-498.67 450,-489.42"/>
<polygon fill="#8b2418" stroke="#8b2418" stroke-width="2" points="453.5,-489.59 450,-479.59 446.5,-489.59 453.5,-489.59"/>
</g>
<!-- n4 -->
<g id="node4" class="node">
<title>n4</title>
<path fill="#8b2418" stroke="#1a1612" stroke-width="1.5" d="M608.27,-388C608.27,-388 523.73,-388 523.73,-388 517.73,-388 511.73,-382 511.73,-376 511.73,-376 511.73,-364 511.73,-364 511.73,-358 517.73,-352 523.73,-352 523.73,-352 608.27,-352 608.27,-352 614.27,-352 620.27,-358 620.27,-364 620.27,-364 620.27,-376 620.27,-376 620.27,-382 614.27,-388 608.27,-388"/>
<text xml:space="preserve" text-anchor="middle" x="566" y="-366.3" font-family="Arial" font-size="11.00" fill="#fbf6eb">4 &#160;&#160;ToggleVariable</text>
</g>
<!-- n2&#45;&gt;n4 -->
<g id="edge2" class="edge">
<title>n2&#45;&gt;n4</title>
<path fill="none" stroke="#4a3f33" stroke-width="1.3" d="M473.75,-439.39C490.8,-426.75 514,-409.55 532.86,-395.57"/>
<polygon fill="#4a3f33" stroke="#4a3f33" stroke-width="1.3" points="534.75,-398.53 540.7,-389.76 530.58,-392.9 534.75,-398.53"/>
<text xml:space="preserve" text-anchor="middle" x="529.95" y="-410.5" font-family="Arial" font-size="10.00" fill="#8b2418"> flama </text>
</g>
<!-- n5 -->
<g id="node5" class="node">
<title>n5</title>
<path fill="#b8843a" stroke="#1a1612" stroke-width="1.5" d="M544.27,-238C544.27,-238 441.73,-238 441.73,-238 435.73,-238 429.73,-232 429.73,-226 429.73,-226 429.73,-214 429.73,-214 429.73,-208 435.73,-202 441.73,-202 441.73,-202 544.27,-202 544.27,-202 550.27,-202 556.27,-208 556.27,-214 556.27,-214 556.27,-226 556.27,-226 556.27,-232 550.27,-238 544.27,-238"/>
<text xml:space="preserve" text-anchor="middle" x="493" y="-216.3" font-family="Arial" font-size="11.00" fill="#fbf6eb">5 &#160;&#160;ConditionalBranch</text>
</g>
<!-- n2&#45;&gt;n5 -->
<g id="edge3" class="edge">
<title>n2&#45;&gt;n5</title>
<path fill="none" stroke="#4a3f33" stroke-width="1.3" d="M452.38,-439.49C455.29,-418.61 460.51,-382.67 466,-352 472.29,-316.88 480.76,-276.72 486.52,-250.23"/>
<polygon fill="#4a3f33" stroke="#4a3f33" stroke-width="1.3" points="489.9,-251.18 488.62,-240.66 483.06,-249.68 489.9,-251.18"/>
<text xml:space="preserve" text-anchor="middle" x="481" y="-366.5" font-family="Arial" font-size="10.00" fill="#8b2418"> flama </text>
</g>
<!-- n3 -->
<g id="node3" class="node">
<title>n3</title>
<path fill="#34495e" stroke="#1a1612" stroke-width="1.5" d="M647.52,-476C647.52,-476 540.48,-476 540.48,-476 534.48,-476 528.48,-470 528.48,-464 528.48,-464 528.48,-452 528.48,-452 528.48,-446 534.48,-440 540.48,-440 540.48,-440 647.52,-440 647.52,-440 653.52,-440 659.52,-446 659.52,-452 659.52,-452 659.52,-464 659.52,-464 659.52,-470 653.52,-476 647.52,-476"/>
<text xml:space="preserve" text-anchor="middle" x="594" y="-454.3" font-family="Arial" font-size="11.00" fill="#fbf6eb">3 &#160;&#160;SuddenNoiseEvent</text>
</g>
<!-- n3&#45;&gt;n4 -->
<g id="edge4" class="edge">
<title>n3&#45;&gt;n4</title>
<path fill="none" stroke="#8b2418" stroke-width="2" d="M588.33,-439.6C584.71,-428.48 579.93,-413.77 575.71,-400.83"/>
<polygon fill="#8b2418" stroke="#8b2418" stroke-width="2" points="579.12,-399.98 572.69,-391.55 572.46,-402.14 579.12,-399.98"/>
</g>
<!-- n4&#45;&gt;n5 -->
<g id="edge5" class="edge">
<title>n4&#45;&gt;n5</title>
<path fill="none" stroke="#4a3f33" stroke-width="1.3" d="M557.34,-351.44C544.88,-326.18 521.77,-279.33 506.9,-249.19"/>
<polygon fill="#4a3f33" stroke="#4a3f33" stroke-width="1.3" points="510.08,-247.72 502.52,-240.3 503.8,-250.82 510.08,-247.72"/>
<text xml:space="preserve" text-anchor="middle" x="561.42" y="-322.5" font-family="Arial" font-size="10.00" fill="#8b2418"> flama </text>
</g>
<!-- n6 -->
<g id="node6" class="node">
<title>n6</title>
<path fill="#5a6b3b" stroke="#1a1612" stroke-width="1.5" d="M123.64,-150C123.64,-150 38.36,-150 38.36,-150 32.36,-150 26.36,-144 26.36,-138 26.36,-138 26.36,-126 26.36,-126 26.36,-120 32.36,-114 38.36,-114 38.36,-114 123.64,-114 123.64,-114 129.64,-114 135.64,-120 135.64,-126 135.64,-126 135.64,-138 135.64,-138 135.64,-144 129.64,-150 123.64,-150"/>
<text xml:space="preserve" text-anchor="middle" x="81" y="-128.3" font-family="Arial" font-size="11.00" fill="#fbf6eb">6 &#160;&#160;DrawImage #1</text>
</g>
<!-- n5&#45;&gt;n6 -->
<g id="edge6" class="edge">
<title>n5&#45;&gt;n6</title>
<path fill="none" stroke="#8b2418" stroke-width="2" d="M429.16,-210.99C381.58,-204.54 315.14,-194.49 257.5,-182 221.12,-174.12 181.11,-163.2 148.4,-153.67"/>
<polygon fill="#8b2418" stroke="#8b2418" stroke-width="2" points="149.72,-150.41 139.14,-150.95 147.75,-157.13 149.72,-150.41"/>
<text xml:space="preserve" text-anchor="middle" x="268.75" y="-172.5" font-family="Arial" font-size="10.00" fill="#8b2418"> true </text>
</g>
<!-- n7 -->
<g id="node7" class="node">
<title>n7</title>
<path fill="#5a6b3b" stroke="#1a1612" stroke-width="1.5" d="M268.52,-150C268.52,-150 179.48,-150 179.48,-150 173.48,-150 167.48,-144 167.48,-138 167.48,-138 167.48,-126 167.48,-126 167.48,-120 173.48,-114 179.48,-114 179.48,-114 268.52,-114 268.52,-114 274.52,-114 280.52,-120 280.52,-126 280.52,-126 280.52,-138 280.52,-138 280.52,-144 274.52,-150 268.52,-150"/>
<text xml:space="preserve" text-anchor="middle" x="224" y="-128.3" font-family="Arial" font-size="11.00" fill="#fbf6eb">7 &#160;&#160;RandomInteger</text>
</g>
<!-- n5&#45;&gt;n7 -->
<g id="edge7" class="edge">
<title>n5&#45;&gt;n7</title>
<path fill="none" stroke="#8b2418" stroke-width="2" d="M429,-210.56C394.15,-204.79 350.68,-195.66 313.5,-182 296.01,-175.57 277.78,-166.16 262.38,-157.29"/>
<polygon fill="#8b2418" stroke="#8b2418" stroke-width="2" points="264.2,-154.3 253.81,-152.22 260.63,-160.32 264.2,-154.3"/>
<text xml:space="preserve" text-anchor="middle" x="324.75" y="-172.5" font-family="Arial" font-size="10.00" fill="#8b2418"> true </text>
</g>
<!-- n8 -->
<g id="node8" class="node">
<title>n8</title>
<path fill="#5a6b3b" stroke="#1a1612" stroke-width="1.5" d="M350.27,-62C350.27,-62 277.73,-62 277.73,-62 271.73,-62 265.73,-56 265.73,-50 265.73,-50 265.73,-38 265.73,-38 265.73,-32 271.73,-26 277.73,-26 277.73,-26 350.27,-26 350.27,-26 356.27,-26 362.27,-32 362.27,-38 362.27,-38 362.27,-50 362.27,-50 362.27,-56 356.27,-62 350.27,-62"/>
<text xml:space="preserve" text-anchor="middle" x="314" y="-40.3" font-family="Arial" font-size="11.00" fill="#fbf6eb">8 &#160;&#160;PlotPoint #1</text>
</g>
<!-- n5&#45;&gt;n8 -->
<g id="edge8" class="edge">
<title>n5&#45;&gt;n8</title>
<path fill="none" stroke="#8b2418" stroke-width="2" d="M440.55,-201.31C413.77,-190.1 382.33,-173.26 360.5,-150 340.65,-128.86 328.35,-97.84 321.42,-75"/>
<polygon fill="#8b2418" stroke="#8b2418" stroke-width="2" points="324.84,-74.23 318.77,-65.55 318.1,-76.12 324.84,-74.23"/>
<text xml:space="preserve" text-anchor="middle" x="371.75" y="-128.5" font-family="Arial" font-size="10.00" fill="#8b2418"> true </text>
</g>
<!-- n9 -->
<g id="node9" class="node">
<title>n9</title>
<path fill="#4a3f33" stroke="#1a1612" stroke-width="1.5" d="M452.89,-150C452.89,-150 411.11,-150 411.11,-150 405.11,-150 399.11,-144 399.11,-138 399.11,-138 399.11,-126 399.11,-126 399.11,-120 405.11,-114 411.11,-114 411.11,-114 452.89,-114 452.89,-114 458.89,-114 464.89,-120 464.89,-126 464.89,-126 464.89,-138 464.89,-138 464.89,-144 458.89,-150 452.89,-150"/>
<text xml:space="preserve" text-anchor="middle" x="432" y="-128.3" font-family="Arial" font-size="11.00" fill="#fbf6eb">9 &#160;&#160;Delay</text>
</g>
<!-- n5&#45;&gt;n9 -->
<g id="edge9" class="edge">
<title>n5&#45;&gt;n9</title>
<path fill="none" stroke="#8b2418" stroke-width="2" d="M480.66,-201.6C472.44,-190.02 461.47,-174.54 452.02,-161.22"/>
<polygon fill="#8b2418" stroke="#8b2418" stroke-width="2" points="454.93,-159.27 446.29,-153.14 449.22,-163.32 454.93,-159.27"/>
<text xml:space="preserve" text-anchor="middle" x="477.4" y="-172.5" font-family="Arial" font-size="10.00" fill="#8b2418"> true </text>
</g>
<!-- n10 -->
<g id="node10" class="node">
<title>n10</title>
<path fill="#5a6b3b" stroke="#1a1612" stroke-width="1.5" d="M600.64,-150C600.64,-150 509.36,-150 509.36,-150 503.36,-150 497.36,-144 497.36,-138 497.36,-138 497.36,-126 497.36,-126 497.36,-120 503.36,-114 509.36,-114 509.36,-114 600.64,-114 600.64,-114 606.64,-114 612.64,-120 612.64,-126 612.64,-126 612.64,-138 612.64,-138 612.64,-144 606.64,-150 600.64,-150"/>
<text xml:space="preserve" text-anchor="middle" x="555" y="-128.3" font-family="Arial" font-size="11.00" fill="#fbf6eb">10 &#160;&#160;DrawImage #1</text>
</g>
<!-- n5&#45;&gt;n10 -->
<g id="edge10" class="edge">
<title>n5&#45;&gt;n10</title>
<path fill="none" stroke="#8b2418" stroke-width="2" d="M505.55,-201.6C513.9,-190.02 525.05,-174.54 534.65,-161.22"/>
<polygon fill="#8b2418" stroke="#8b2418" stroke-width="2" points="537.48,-163.29 540.49,-153.13 531.8,-159.19 537.48,-163.29"/>
<text xml:space="preserve" text-anchor="middle" x="538.96" y="-172.5" font-family="Arial" font-size="10.00" fill="#8b2418"> true </text>
</g>
<!-- n11 -->
<g id="node11" class="node">
<title>n11</title>
<path fill="#5a6b3b" stroke="#1a1612" stroke-width="1.5" d="M770.89,-150C770.89,-150 693.11,-150 693.11,-150 687.11,-150 681.11,-144 681.11,-138 681.11,-138 681.11,-126 681.11,-126 681.11,-120 687.11,-114 693.11,-114 693.11,-114 770.89,-114 770.89,-114 776.89,-114 782.89,-120 782.89,-126 782.89,-126 782.89,-138 782.89,-138 782.89,-144 776.89,-150 770.89,-150"/>
<text xml:space="preserve" text-anchor="middle" x="732" y="-128.3" font-family="Arial" font-size="11.00" fill="#fbf6eb">11 &#160;&#160;PlotPoint #1</text>
</g>
<!-- n5&#45;&gt;n11 -->
<g id="edge11" class="edge">
<title>n5&#45;&gt;n11</title>
<path fill="none" stroke="#8b2418" stroke-width="2" d="M542.23,-201.29C579.43,-187.9 630.71,-169.45 670.59,-155.1"/>
<polygon fill="#8b2418" stroke="#8b2418" stroke-width="2" points="671.76,-158.4 679.98,-151.72 669.39,-151.81 671.76,-158.4"/>
<text xml:space="preserve" text-anchor="middle" x="638.06" y="-172.5" font-family="Arial" font-size="10.00" fill="#8b2418"> true </text>
</g>
<!-- n12 -->
<g id="node12" class="node">
<title>n12</title>
<path fill="#4a3f33" stroke="#1a1612" stroke-width="1.5" d="M874.89,-150C874.89,-150 827.11,-150 827.11,-150 821.11,-150 815.11,-144 815.11,-138 815.11,-138 815.11,-126 815.11,-126 815.11,-120 821.11,-114 827.11,-114 827.11,-114 874.89,-114 874.89,-114 880.89,-114 886.89,-120 886.89,-126 886.89,-126 886.89,-138 886.89,-138 886.89,-144 880.89,-150 874.89,-150"/>
<text xml:space="preserve" text-anchor="middle" x="851" y="-128.3" font-family="Arial" font-size="11.00" fill="#fbf6eb">12 &#160;&#160;Delay</text>
</g>
<!-- n5&#45;&gt;n12 -->
<g id="edge12" class="edge">
<title>n5&#45;&gt;n12</title>
<path fill="none" stroke="#8b2418" stroke-width="2" d="M556.84,-216.98C654.72,-213.2 832.64,-203.46 852,-182 856.58,-176.92 858.19,-170.19 858.23,-163.36"/>
<polygon fill="#8b2418" stroke="#8b2418" stroke-width="2" points="861.72,-163.03 857.11,-153.49 854.76,-163.82 861.72,-163.03"/>
<text xml:space="preserve" text-anchor="middle" x="868.75" y="-172.5" font-family="Arial" font-size="10.00" fill="#8b2418"> true </text>
</g>
<!-- n13 -->
<g id="node13" class="node">
<title>n13</title>
<path fill="#fbf6eb" stroke="#1a1612" stroke-width="1.5" d="M1027.27,-150C1027.27,-150 930.73,-150 930.73,-150 924.73,-150 918.73,-144 918.73,-138 918.73,-138 918.73,-126 918.73,-126 918.73,-120 924.73,-114 930.73,-114 930.73,-114 1027.27,-114 1027.27,-114 1033.27,-114 1039.27,-120 1039.27,-126 1039.27,-126 1039.27,-138 1039.27,-138 1039.27,-144 1033.27,-150 1027.27,-150"/>
<text xml:space="preserve" text-anchor="middle" x="979" y="-128.3" font-family="Arial" font-size="11.00" fill="#1a1612">13 &#160;&#160;ClearDisplay #1</text>
</g>
<!-- n5&#45;&gt;n13 -->
<g id="edge13" class="edge">
<title>n5&#45;&gt;n13</title>
<path fill="none" stroke="#8b2418" stroke-width="2" d="M556.72,-216.12C652.23,-211.28 827.76,-200.22 888,-182 906.8,-176.32 926.15,-166.54 942.15,-157.2"/>
<polygon fill="#8b2418" stroke="#8b2418" stroke-width="2" points="943.82,-160.29 950.57,-152.12 940.2,-154.3 943.82,-160.29"/>
<text xml:space="preserve" text-anchor="middle" x="930.43" y="-172.5" font-family="Arial" font-size="10.00" fill="#8b2418"> false </text>
</g>
<!-- n6&#45;&gt;n8 -->
<g id="edge14" class="edge">
<title>n6&#45;&gt;n8</title>
<path fill="none" stroke="#5a6b3b" stroke-width="1.3" stroke-dasharray="5,2" d="M129,-113.29C165.49,-99.81 215.9,-81.21 254.88,-66.82"/>
<polygon fill="#5a6b3b" stroke="#5a6b3b" stroke-width="1.3" points="256.05,-70.12 264.22,-63.37 253.63,-63.55 256.05,-70.12"/>
<text xml:space="preserve" text-anchor="middle" x="229.83" y="-84.5" font-family="Arial" font-size="10.00" fill="#5a6b3b"> display </text>
</g>
<!-- n7&#45;&gt;n8 -->
<g id="edge15" class="edge">
<title>n7&#45;&gt;n8</title>
<path fill="none" stroke="#4a3f33" stroke-width="1.3" d="M242.21,-113.6C255.06,-101.32 272.48,-84.67 286.95,-70.85"/>
<polygon fill="#4a3f33" stroke="#4a3f33" stroke-width="1.3" points="289.27,-73.47 294.08,-64.03 284.43,-68.41 289.27,-73.47"/>
<text xml:space="preserve" text-anchor="middle" x="289.01" y="-84.5" font-family="Arial" font-size="10.00" fill="#8b2418"> value </text>
</g>
<!-- n8&#45;&gt;n10 -->
<g id="edge16" class="edge">
<title>n8&#45;&gt;n10</title>
<path fill="none" stroke="#5a6b3b" stroke-width="1.3" stroke-dasharray="5,2" d="M362.75,-62.4C400.69,-75.93 453.54,-94.79 494.23,-109.31"/>
<polygon fill="#5a6b3b" stroke="#5a6b3b" stroke-width="1.3" points="492.91,-112.56 503.5,-112.62 495.26,-105.97 492.91,-112.56"/>
<text xml:space="preserve" text-anchor="middle" x="467.3" y="-84.5" font-family="Arial" font-size="10.00" fill="#5a6b3b"> display </text>
</g>
<!-- n10&#45;&gt;n11 -->
<g id="edge17" class="edge">
<title>n10&#45;&gt;n11</title>
<path fill="none" stroke="#5a6b3b" stroke-width="1.3" stroke-dasharray="5,2" d="M612.96,-132C630.74,-132 650.39,-132 668.52,-132"/>
<polygon fill="#5a6b3b" stroke="#5a6b3b" stroke-width="1.3" points="668.51,-135.5 678.51,-132 668.51,-128.5 668.51,-135.5"/>
<text xml:space="preserve" text-anchor="middle" x="646.88" y="-137.5" font-family="Arial" font-size="10.00" fill="#5a6b3b"> display </text>
</g>
<!-- n11&#45;&gt;n13 -->
<g id="edge18" class="edge">
<title>n11&#45;&gt;n13</title>
<path fill="none" stroke="#5a6b3b" stroke-width="1.3" stroke-dasharray="5,2" d="M759.73,-150.56C775.18,-159.78 795.17,-169.94 814.62,-174.67 855.42,-184.58 901.69,-170.26 934.73,-155.6"/>
<polygon fill="#5a6b3b" stroke="#5a6b3b" stroke-width="1.3" points="936.01,-158.87 943.61,-151.48 933.06,-152.52 936.01,-158.87"/>
<text xml:space="preserve" text-anchor="middle" x="833" y="-172.5" font-family="Arial" font-size="10.00" fill="#5a6b3b"> display </text>
</g>
</g>
</svg>
