<svg width="1280" height="720" viewBox="0 0 1280 720" fill="none" xmlns="http://www.w3.org/2000/svg">
<g clip-path="url(#clip0_410_4398)">
<rect width="1280" height="720" fill="url(#paint0_linear_410_4398)"/>
<path d="M0.078125 0.207031H1280.06V720.197H0.078125V0.207031Z" fill="url(#paint1_linear_410_4398)" fill-opacity="0.4"/>
<path d="M459.652 359.614C439.763 400.354 419.728 515.181 498.696 648.565C577.665 781.948 487.773 867.705 432.956 893.91" stroke="#26A67E" stroke-width="34"/>
<path d="M255.065 445C279.394 445.002 298.827 463.665 298.829 486.564V486.567C298.825 490.356 298.278 494.124 297.204 497.758L295.772 502.61L300.755 503.58C307.46 504.885 312.962 507.582 316.605 510.811C320.246 514.037 321.995 517.596 322 521.199V521.201C321.999 525.709 319.264 530.114 313.879 533.691C308.493 537.268 300.634 539.678 291.872 539.679C287.52 539.67 283.219 539.062 279.293 537.916L276.927 537.225L275.033 538.798C266.253 546.089 249.409 551.217 231.258 551.223C223.911 551.21 216.649 550.393 210.002 548.847L206.236 547.97L204.704 551.507C200.527 561.152 186.597 568.987 170.217 569C159.907 568.998 150.655 566 144.223 561.453C137.805 556.916 134.314 551.128 134.298 544.983C134.304 544.812 134.313 544.64 134.324 544.468L134.683 539.292L129.484 539.545C127.769 539.629 126.043 539.674 124.315 539.678C112.39 539.677 101.602 537.765 94.2085 534.918C90.5103 533.493 87.6823 531.817 86.0269 530.31C84.3746 528.805 84.0016 527.756 84 526.975C84.0021 526.272 84.3001 525.358 85.6518 524.009C87.0067 522.658 89.3589 521.107 92.512 519.734C98.8188 516.988 108.23 514.917 119.035 514.403L124.586 514.139L123.317 508.749C122.938 507.145 122.734 505.505 122.711 503.857C122.722 494.573 128.357 485.849 138.421 479.146C148.495 472.436 162.826 468.089 178.741 468.088C189.265 468.103 199.579 470.051 208.434 473.643L212.674 475.363L214.443 471.157C221.054 455.435 237.1 445.012 255.063 445.002H255.066L255.065 445Z" fill="white"/>
<path d="M-19.0976 40C-50.6844 40.002 -75.9141 64.2345 -75.9168 93.966V93.9706C-75.9116 98.8894 -75.2014 103.782 -73.8075 108.501L-71.9477 114.8L-78.4169 116.059C-87.1221 117.754 -94.2663 121.255 -98.9958 125.448C-103.723 129.637 -105.993 134.258 -106 138.936V138.938C-105.999 144.791 -102.448 150.51 -95.4557 155.155C-88.4636 159.8 -78.2601 162.929 -66.884 162.93C-61.234 162.919 -55.6494 162.128 -50.5523 160.642L-47.4805 159.744L-45.0217 161.786C-33.6229 171.253 -11.7539 177.911 11.8121 177.918C21.3512 177.902 30.7794 176.841 39.4086 174.834L44.2982 173.695L46.2873 178.288C51.7106 190.81 69.796 200.983 91.0627 201C104.448 200.998 116.461 197.105 124.811 191.201C133.144 185.311 137.676 177.796 137.697 169.817C137.689 169.594 137.678 169.371 137.664 169.148L137.197 162.428L143.948 162.757C146.174 162.866 148.414 162.924 150.658 162.929C166.141 162.928 180.146 160.445 189.746 156.748C194.548 154.898 198.219 152.722 200.368 150.766C202.514 148.811 202.998 147.449 203 146.436C202.997 145.523 202.61 144.335 200.855 142.585C199.096 140.83 196.043 138.816 191.949 137.033C183.761 133.468 171.542 130.78 157.513 130.112L150.307 129.769L151.954 122.77C152.446 120.688 152.71 118.558 152.741 116.419C152.726 104.365 145.41 93.0374 132.344 84.3347C119.265 75.6226 100.658 69.9787 79.9961 69.9774C66.3326 69.996 52.942 72.5258 41.4445 77.1893L35.9399 79.4226L33.6432 73.9616C25.0607 53.549 4.22764 40.0159 -19.0949 40.0027H-19.0983L-19.0976 40Z" fill="white"/>
<path d="M506.42 266.971C509.36 235.807 575.859 172.621 679.519 182.641C647.227 243.619 576.521 290.424 506.42 266.971Z" fill="url(#paint2_linear_410_4398)"/>
<path d="M323.617 342.232C320.677 373.396 254.178 436.582 150.518 426.562C182.809 365.584 253.516 318.779 323.617 342.232Z" fill="url(#paint3_linear_410_4398)"/>
<path d="M452.649 396.007C483.813 398.947 546.999 465.446 536.979 569.106C476 536.815 429.196 466.108 452.649 396.007Z" fill="url(#paint4_linear_410_4398)"/>
<path d="M377.388 213.204C346.223 210.264 283.038 143.765 293.058 40.1045C354.036 72.3961 400.841 143.103 377.388 213.204Z" fill="url(#paint5_linear_410_4398)"/>
<path d="M448.597 211.637C427.5 188.512 425.419 96.8054 502.517 26.7929C525.957 91.6899 513.082 175.501 448.597 211.637Z" fill="url(#paint6_linear_410_4398)"/>
<path d="M381.44 397.57C402.537 420.695 404.618 512.402 327.521 582.414C304.08 517.517 316.955 433.706 381.44 397.57Z" fill="url(#paint7_linear_410_4398)"/>
<path d="M349.439 373.827C356.63 396.52 328.822 460.498 253.267 484.248C257.78 431.968 293.396 378.211 349.439 373.827Z" fill="url(#paint8_linear_410_4398)"/>
<path d="M490.827 224.001C483.636 201.308 511.444 137.33 586.999 113.581C582.487 165.86 546.87 219.617 490.827 224.001Z" fill="url(#paint9_linear_410_4398)"/>
<path d="M339.29 229.962C316.597 237.153 252.62 209.344 228.87 133.79C281.149 138.302 334.906 173.918 339.29 229.962Z" fill="url(#paint10_linear_410_4398)"/>
<path d="M489.119 371.347C511.812 364.156 575.79 391.964 599.54 467.519C547.26 463.007 493.503 427.39 489.119 371.347Z" fill="url(#paint11_linear_410_4398)"/>
<path d="M517.398 299.753C528.689 278.796 593.983 254.239 663.621 291.964C622.939 325.108 559.55 336.946 517.398 299.753Z" fill="url(#paint12_linear_410_4398)"/>
<path d="M311.408 302.501C300.117 323.458 234.822 348.015 165.185 310.29C205.866 277.146 269.256 265.308 311.408 302.501Z" fill="url(#paint13_linear_410_4398)"/>
<path d="M417.968 404.067C439.161 414.91 465.101 479.667 428.865 550.091C394.863 510.124 381.68 447.001 417.968 404.067Z" fill="url(#paint14_linear_410_4398)"/>
<path d="M410.838 198.186C389.646 187.344 363.705 122.587 399.941 52.1629C433.943 92.1299 447.126 155.253 410.838 198.186Z" fill="url(#paint15_linear_410_4398)"/>
<path d="M505.978 343.286C530.239 323.505 621.92 326.517 687.546 407.381C621.448 427.184 538.48 409.678 505.978 343.286Z" fill="url(#paint16_linear_410_4398)"/>
<path d="M324.058 265.921C299.798 285.702 208.117 282.69 142.491 201.826C208.589 182.023 291.557 199.53 324.058 265.921Z" fill="url(#paint17_linear_410_4398)"/>
<path d="M500.846 245.85C497.169 213.17 551.968 133.894 660.723 121.911C640.626 191.562 577.977 254.896 500.846 245.85Z" fill="url(#paint18_linear_410_4398)"/>
<path d="M329.039 362.548C332.716 395.229 277.917 474.504 169.162 486.488C189.259 416.837 251.908 353.502 329.039 362.548Z" fill="url(#paint19_linear_410_4398)"/>
<path d="M473.293 390.104C505.973 386.427 585.248 441.226 597.232 549.981C527.581 529.884 464.246 467.236 473.293 390.104Z" fill="url(#paint20_linear_410_4398)"/>
<path d="M356.593 218.298C323.912 221.975 244.637 167.176 232.653 58.4213C302.304 78.5179 365.639 141.167 356.593 218.298Z" fill="url(#paint21_linear_410_4398)"/>
<path d="M429.485 201.376C402.817 182.131 380.959 88.2704 445.191 -0.304478C483.25 61.3932 488.03 150.35 429.485 201.376Z" fill="url(#paint22_linear_410_4398)"/>
<path d="M400.401 407.023C427.068 426.267 448.926 520.128 384.695 608.703C346.635 547.005 341.856 458.048 400.401 407.023Z" fill="url(#paint23_linear_410_4398)"/>
<path d="M362.388 389.489C374.661 411.28 359.82 483.051 287.229 523.719C280.629 468.986 305.697 406.047 362.388 389.489Z" fill="url(#paint24_linear_410_4398)"/>
<path d="M475.57 205.011C463.297 183.22 478.138 111.449 550.729 70.7811C557.329 125.514 532.261 188.453 475.57 205.011Z" fill="url(#paint25_linear_410_4398)"/>
<path d="M321.018 243.724C299.227 255.997 227.456 241.156 186.788 168.565C241.52 161.965 304.46 187.033 321.018 243.724Z" fill="url(#paint26_linear_410_4398)"/>
<path d="M505.496 356.905C527.287 344.632 599.058 359.473 639.726 432.064C584.993 438.664 522.054 413.596 505.496 356.905Z" fill="url(#paint27_linear_410_4398)"/>
<path d="M519.183 277.2C526.289 253.221 588.155 213.928 667.878 237.751C633.17 280.583 570.528 306.385 519.183 277.2Z" fill="url(#paint28_linear_410_4398)"/>
<path d="M307.942 324.319C300.837 348.298 238.971 387.591 159.247 363.768C193.956 320.937 256.598 295.135 307.942 324.319Z" fill="url(#paint29_linear_410_4398)"/>
<path d="M439.362 405.853C463.487 412.447 504.086 473.463 481.965 553.675C438.405 519.885 411.276 457.806 439.362 405.853Z" fill="url(#paint30_linear_410_4398)"/>
<path d="M387.764 195.667C363.639 189.073 323.04 128.056 345.161 47.8443C388.721 81.6342 415.85 143.713 387.764 195.667Z" fill="url(#paint31_linear_410_4398)"/>
<path d="M516.8 324.427C537.496 298.868 632.425 282.253 717.298 351.301C653.583 385.878 564.498 385.713 516.8 324.427Z" fill="url(#paint32_linear_410_4398)"/>
<path d="M313.085 283.976C292.39 309.534 197.461 326.149 112.587 257.101C176.302 222.525 265.387 222.689 313.085 283.976Z" fill="url(#paint33_linear_410_4398)"/>
<circle cx="414.087" cy="304.195" r="134.5" fill="url(#paint34_radial_410_4398)"/>
<path d="M391.187 301.821C370.464 277.833 323.615 290.926 326.412 328.306" stroke="#4E2820" stroke-width="5"/>
<path d="M508.01 268.102C488.74 242.931 441.2 253.234 441.783 290.714" stroke="#4E2820" stroke-width="5"/>
<path d="M377.587 331.195L467.087 318.195L444.156 384.167C440.15 395.69 424.795 397.867 417.745 387.91L377.587 331.195Z" fill="#E35F61" stroke="#4E2820" stroke-width="5"/>
<path d="M530.229 712.07C512.381 674.949 523.5 587.365 710.761 534.002C681.097 656.129 650.85 707.068 530.229 712.07Z" fill="#26A67E"/>
<path d="M503.261 681.324C479.928 715.267 398.41 749.169 259 613.231C379.71 578.243 438.945 579.159 503.261 681.324Z" fill="#26A67E"/>
<path d="M859.065 118C883.394 118.002 902.827 136.665 902.829 159.564V159.567C902.825 163.356 902.278 167.124 901.204 170.758L899.772 175.61L904.755 176.58C911.46 177.885 916.962 180.582 920.605 183.811C924.246 187.037 925.995 190.596 926 194.199V194.201C925.999 198.709 923.264 203.114 917.879 206.691C912.493 210.268 904.634 212.678 895.872 212.679C891.52 212.67 887.219 212.062 883.293 210.916L880.927 210.225L879.033 211.798C870.253 219.089 853.409 224.217 835.258 224.223C827.911 224.21 820.649 223.393 814.002 221.847L810.236 220.97L808.704 224.507C804.527 234.152 790.597 241.987 774.217 242C763.907 241.998 754.655 239 748.223 234.453C741.805 229.916 738.314 224.128 738.298 217.983C738.304 217.812 738.313 217.64 738.324 217.468L738.683 212.292L733.484 212.545C731.769 212.629 730.043 212.674 728.315 212.678C716.39 212.677 705.602 210.765 698.209 207.918C694.51 206.493 691.682 204.817 690.027 203.31C688.375 201.805 688.002 200.756 688 199.975C688.002 199.272 688.3 198.358 689.652 197.009C691.007 195.658 693.359 194.107 696.512 192.734C702.819 189.988 712.23 187.917 723.035 187.403L728.586 187.139L727.317 181.749C726.938 180.145 726.734 178.505 726.711 176.857C726.722 167.573 732.357 158.849 742.421 152.146C752.495 145.436 766.826 141.089 782.741 141.088C793.265 141.103 803.579 143.051 812.434 146.643L816.674 148.363L818.443 144.157C825.054 128.435 841.1 118.012 859.063 118.002H859.066L859.065 118Z" fill="white"/>
<path d="M974.714 372C932.291 372.003 898.407 404.664 898.403 444.737V444.743C898.41 451.373 899.364 457.967 901.236 464.327L903.734 472.817L895.045 474.514C883.354 476.799 873.759 481.518 867.407 487.169C861.058 492.815 858.009 499.043 858 505.349V505.351C858.002 513.241 862.771 520.949 872.161 527.209C881.552 533.47 895.256 537.686 910.534 537.688C918.123 537.673 925.623 536.608 932.469 534.604L936.594 533.394L939.896 536.146C955.205 548.907 984.577 557.881 1016.23 557.89C1029.04 557.868 1041.7 556.438 1053.29 553.733L1059.86 552.197L1062.53 558.388C1069.81 575.266 1094.1 588.978 1122.66 589C1140.64 588.997 1156.77 583.75 1167.99 575.793C1179.18 567.854 1185.27 557.725 1185.3 546.971C1185.28 546.671 1185.27 546.37 1185.25 546.068L1184.62 537.011L1193.69 537.454C1196.68 537.601 1199.69 537.68 1202.7 537.687C1223.5 537.686 1242.31 534.339 1255.2 529.356C1261.65 526.862 1266.58 523.93 1269.47 521.293C1272.35 518.659 1273 516.822 1273 515.457C1273 514.226 1272.48 512.626 1270.12 510.266C1267.76 507.901 1263.66 505.187 1258.16 502.784C1247.16 497.979 1230.75 494.355 1211.91 493.456L1202.23 492.994L1204.44 483.56C1205.1 480.753 1205.46 477.883 1205.5 475C1205.48 458.753 1195.65 443.485 1178.11 431.755C1160.54 420.013 1135.55 412.406 1107.8 412.404C1089.45 412.429 1071.47 415.839 1056.02 422.125L1048.63 425.135L1045.55 417.774C1034.02 390.262 1006.04 372.021 974.717 372.004H974.713L974.714 372Z" fill="white"/>
<g opacity="0.5" style="mix-blend-mode:hard-light">
<circle cx="1111.5" cy="168.5" r="168.5" fill="url(#paint35_radial_410_4398)"/>
</g>
<path d="M1106.39 91.0517L1104.09 88.8147V71.7743C1104.09 53.2972 1104.09 52.6971 1107.42 50.2238C1110.35 47.9869 1116.34 48.9507 1118.37 52.0242C1119.98 54.4611 1120.13 56.6978 1119.7 72.8835L1119.27 88.9602L1117.07 91.1244C1115.07 93.0703 1114.55 93.2703 1111.77 93.2703C1108.97 93.2703 1108.46 93.0703 1106.39 91.0517Z" fill="#FDC147"/>
<path d="M1051.42 114.908C1048.77 114.157 1026.83 93.2398 1025.65 90.3612C1025.07 89.1013 1024.9 87.7092 1025.16 86.3591C1025.42 85.009 1026.09 83.7606 1027.1 82.7702C1028.1 81.7798 1029.4 81.0913 1030.82 80.7907C1032.23 80.49 1033.72 80.5907 1035.07 81.08C1038.14 82.0745 1058.92 101.509 1060.59 104.928C1061.07 105.812 1061.34 106.78 1061.4 107.771C1061.45 108.762 1061.28 109.752 1060.91 110.678C1060.53 111.603 1059.95 112.443 1059.2 113.142C1058.45 113.84 1057.56 114.383 1056.57 114.733C1054.41 115.588 1053.87 115.605 1051.42 114.908Z" fill="#FDC147"/>
<path d="M1166.11 115.892C1164.78 114.964 1163.79 113.628 1163.28 112.082C1161.49 107.325 1162.37 105.987 1176.33 92.4028C1188.25 80.807 1188.49 80.6211 1190.95 80.6211C1196.88 80.6211 1200.77 86.6047 1198.11 91.6593C1197.12 93.5548 1175.43 115.446 1173.61 116.375C1172.4 116.849 1171.1 117.051 1169.81 116.968C1168.51 116.884 1167.25 116.517 1166.11 115.892Z" fill="#FDC147"/>
<path d="M1106.39 240.948L1104.09 243.185V260.226C1104.09 278.703 1104.09 279.303 1107.42 281.776C1110.35 284.013 1116.34 283.049 1118.37 279.976C1119.98 277.539 1120.13 275.302 1119.7 259.116L1119.27 243.04L1117.07 240.876C1115.07 238.93 1114.55 238.73 1111.77 238.73C1108.97 238.73 1108.46 238.93 1106.39 240.948Z" fill="#FDC147"/>
<path d="M1051.42 217.092C1048.77 217.843 1026.83 238.76 1025.65 241.639C1025.07 242.899 1024.9 244.291 1025.16 245.641C1025.42 246.991 1026.09 248.239 1027.1 249.23C1028.1 250.22 1029.4 250.909 1030.82 251.209C1032.23 251.51 1033.72 251.409 1035.07 250.92C1038.14 249.926 1058.92 230.491 1060.59 227.072C1061.07 226.188 1061.34 225.22 1061.4 224.229C1061.45 223.238 1061.28 222.248 1060.91 221.322C1060.53 220.397 1059.95 219.557 1059.2 218.858C1058.45 218.16 1057.56 217.617 1056.57 217.267C1054.41 216.412 1053.87 216.395 1051.42 217.092Z" fill="#FDC147"/>
<path d="M1166.11 216.108C1164.78 217.036 1163.79 218.372 1163.28 219.918C1161.49 224.675 1162.37 226.013 1176.33 239.597C1188.25 251.193 1188.49 251.379 1190.95 251.379C1196.88 251.379 1200.77 245.395 1198.11 240.341C1197.12 238.445 1175.43 216.554 1173.61 215.625C1172.4 215.151 1171.1 214.949 1169.81 215.032C1168.51 215.116 1167.25 215.483 1166.11 216.108Z" fill="#FDC147"/>
<path d="M1007.99 172.072L998.918 171.732L996.959 169.741C995.273 168.005 995 167.359 995 165.027C995 162.696 995.272 162.05 996.977 160.314L998.936 158.306L1016.31 158.153C1032.76 158.017 1033.79 158.068 1035.53 159.072C1038.12 160.569 1039.32 162.543 1039.27 165.266C1039.29 166.469 1038.98 167.657 1038.37 168.716C1037.76 169.774 1036.87 170.667 1035.79 171.306C1034.48 172.123 1032.98 172.276 1025.67 172.327C1020.95 172.327 1012.97 172.225 1008 172.055L1007.99 172.072Z" fill="#FDC147"/>
<path d="M1197.72 172.072L1188.65 171.732L1186.69 169.741C1185 168.005 1184.73 167.359 1184.73 165.027C1184.73 162.696 1185 162.05 1186.71 160.314L1188.67 158.306L1206.04 158.153C1222.49 158.017 1223.52 158.068 1225.26 159.072C1227.85 160.569 1229.05 162.543 1229 165.266C1229.02 166.469 1228.71 167.657 1228.1 168.716C1227.49 169.774 1226.6 170.667 1225.52 171.306C1224.21 172.123 1222.71 172.276 1215.4 172.327C1210.68 172.327 1202.7 172.225 1197.73 172.055L1197.72 172.072Z" fill="#FDC147"/>
<path d="M1126.3 222.799C1134.39 220.857 1141.97 217.288 1148.59 212.315C1155.21 207.343 1160.71 201.075 1164.76 193.905C1173.75 178.061 1174.52 157.224 1166.73 140.587C1163.96 134.441 1160.04 128.864 1155.18 124.148C1149.96 118.687 1143.68 114.322 1136.71 111.314C1125.96 106.337 1113.91 104.751 1102.22 106.772C1054.82 114.937 1035.44 171.175 1068.21 205.477C1083.68 221.664 1104.38 227.828 1126.3 222.781V222.799Z" fill="#FDC147"/>
</g>
<defs>
<linearGradient id="paint0_linear_410_4398" x1="640" y1="0" x2="640" y2="720" gradientUnits="userSpaceOnUse">
<stop stop-color="#ECFAFF"/>
<stop offset="1" stop-color="#7CB9FF"/>
</linearGradient>
<linearGradient id="paint1_linear_410_4398" x1="635.075" y1="747.054" x2="635.075" y2="-24.8986" gradientUnits="userSpaceOnUse">
<stop stop-color="#3291FF"/>
<stop offset="1" stop-color="#35C2FF"/>
</linearGradient>
<linearGradient id="paint2_linear_410_4398" x1="659.257" y1="185.55" x2="520.504" y2="261.994" gradientUnits="userSpaceOnUse">
<stop stop-color="#F7A76B"/>
<stop offset="1" stop-color="#E7744E"/>
</linearGradient>
<linearGradient id="paint3_linear_410_4398" x1="170.78" y1="423.653" x2="309.533" y2="347.209" gradientUnits="userSpaceOnUse">
<stop stop-color="#F7A76B"/>
<stop offset="1" stop-color="#E7744E"/>
</linearGradient>
<linearGradient id="paint4_linear_410_4398" x1="534.069" y1="548.845" x2="457.625" y2="410.091" gradientUnits="userSpaceOnUse">
<stop stop-color="#F7A76B"/>
<stop offset="1" stop-color="#E7744E"/>
</linearGradient>
<linearGradient id="paint5_linear_410_4398" x1="295.967" y1="60.3663" x2="372.411" y2="199.12" gradientUnits="userSpaceOnUse">
<stop stop-color="#F7A76B"/>
<stop offset="1" stop-color="#E7744E"/>
</linearGradient>
<linearGradient id="paint6_linear_410_4398" x1="491.051" y1="43.75" x2="454.38" y2="197.865" gradientUnits="userSpaceOnUse">
<stop stop-color="#F7A76B"/>
<stop offset="1" stop-color="#E7744E"/>
</linearGradient>
<linearGradient id="paint7_linear_410_4398" x1="338.986" y1="565.457" x2="375.657" y2="411.342" gradientUnits="userSpaceOnUse">
<stop stop-color="#F7A76B"/>
<stop offset="1" stop-color="#E7744E"/>
</linearGradient>
<linearGradient id="paint8_linear_410_4398" x1="266.591" y1="476.197" x2="341.055" y2="381.492" gradientUnits="userSpaceOnUse">
<stop stop-color="#F7A76B"/>
<stop offset="1" stop-color="#E7744E"/>
</linearGradient>
<linearGradient id="paint9_linear_410_4398" x1="573.675" y1="121.631" x2="499.211" y2="216.336" gradientUnits="userSpaceOnUse">
<stop stop-color="#F7A76B"/>
<stop offset="1" stop-color="#E7744E"/>
</linearGradient>
<linearGradient id="paint10_linear_410_4398" x1="236.921" y1="147.113" x2="331.626" y2="221.578" gradientUnits="userSpaceOnUse">
<stop stop-color="#F7A76B"/>
<stop offset="1" stop-color="#E7744E"/>
</linearGradient>
<linearGradient id="paint11_linear_410_4398" x1="591.489" y1="454.195" x2="496.784" y2="379.731" gradientUnits="userSpaceOnUse">
<stop stop-color="#F7A76B"/>
<stop offset="1" stop-color="#E7744E"/>
</linearGradient>
<linearGradient id="paint12_linear_410_4398" x1="648.567" y1="288" x2="528.737" y2="300.439" gradientUnits="userSpaceOnUse">
<stop stop-color="#F7A76B"/>
<stop offset="1" stop-color="#E7744E"/>
</linearGradient>
<linearGradient id="paint13_linear_410_4398" x1="180.239" y1="314.254" x2="300.069" y2="301.815" gradientUnits="userSpaceOnUse">
<stop stop-color="#F7A76B"/>
<stop offset="1" stop-color="#E7744E"/>
</linearGradient>
<linearGradient id="paint14_linear_410_4398" x1="432.509" y1="534.957" x2="417.523" y2="415.418" gradientUnits="userSpaceOnUse">
<stop stop-color="#F7A76B"/>
<stop offset="1" stop-color="#E7744E"/>
</linearGradient>
<linearGradient id="paint15_linear_410_4398" x1="396.298" y1="67.2973" x2="411.283" y2="186.836" gradientUnits="userSpaceOnUse">
<stop stop-color="#F7A76B"/>
<stop offset="1" stop-color="#E7744E"/>
</linearGradient>
<linearGradient id="paint16_linear_410_4398" x1="671.251" y1="394.992" x2="519.409" y2="349.824" gradientUnits="userSpaceOnUse">
<stop stop-color="#F7A76B"/>
<stop offset="1" stop-color="#E7744E"/>
</linearGradient>
<linearGradient id="paint17_linear_410_4398" x1="158.786" y1="214.215" x2="310.628" y2="259.383" gradientUnits="userSpaceOnUse">
<stop stop-color="#F7A76B"/>
<stop offset="1" stop-color="#E7744E"/>
</linearGradient>
<linearGradient id="paint18_linear_410_4398" x1="640.512" y1="129.259" x2="514.259" y2="237.704" gradientUnits="userSpaceOnUse">
<stop stop-color="#FFC93C"/>
<stop offset="1" stop-color="#F49C79"/>
</linearGradient>
<linearGradient id="paint19_linear_410_4398" x1="189.373" y1="479.139" x2="315.626" y2="370.694" gradientUnits="userSpaceOnUse">
<stop stop-color="#FFC93C"/>
<stop offset="1" stop-color="#F49C79"/>
</linearGradient>
<linearGradient id="paint20_linear_410_4398" x1="589.884" y1="529.77" x2="481.438" y2="403.517" gradientUnits="userSpaceOnUse">
<stop stop-color="#FFC93C"/>
<stop offset="1" stop-color="#F49C79"/>
</linearGradient>
<linearGradient id="paint21_linear_410_4398" x1="240.002" y1="78.6322" x2="348.447" y2="204.885" gradientUnits="userSpaceOnUse">
<stop stop-color="#FFC93C"/>
<stop offset="1" stop-color="#F49C79"/>
</linearGradient>
<linearGradient id="paint22_linear_410_4398" x1="437.046" y1="19.5988" x2="432.47" y2="185.969" gradientUnits="userSpaceOnUse">
<stop stop-color="#FFC93C"/>
<stop offset="1" stop-color="#F49C79"/>
</linearGradient>
<linearGradient id="paint23_linear_410_4398" x1="392.84" y1="588.8" x2="397.415" y2="422.429" gradientUnits="userSpaceOnUse">
<stop stop-color="#FFC93C"/>
<stop offset="1" stop-color="#F49C79"/>
</linearGradient>
<linearGradient id="paint24_linear_410_4398" x1="299.199" y1="512.575" x2="355.413" y2="399.174" gradientUnits="userSpaceOnUse">
<stop stop-color="#FFC93C"/>
<stop offset="1" stop-color="#F49C79"/>
</linearGradient>
<linearGradient id="paint25_linear_410_4398" x1="538.759" y1="81.9247" x2="482.545" y2="195.326" gradientUnits="userSpaceOnUse">
<stop stop-color="#FFC93C"/>
<stop offset="1" stop-color="#F49C79"/>
</linearGradient>
<linearGradient id="paint26_linear_410_4398" x1="197.932" y1="180.535" x2="311.333" y2="236.749" gradientUnits="userSpaceOnUse">
<stop stop-color="#FFC93C"/>
<stop offset="1" stop-color="#F49C79"/>
</linearGradient>
<linearGradient id="paint27_linear_410_4398" x1="628.582" y1="420.094" x2="515.18" y2="363.88" gradientUnits="userSpaceOnUse">
<stop stop-color="#FFC93C"/>
<stop offset="1" stop-color="#F49C79"/>
</linearGradient>
<linearGradient id="paint28_linear_410_4398" x1="651.546" y1="236.911" x2="530.991" y2="275.468" gradientUnits="userSpaceOnUse">
<stop stop-color="#FFC93C"/>
<stop offset="1" stop-color="#F49C79"/>
</linearGradient>
<linearGradient id="paint29_linear_410_4398" x1="175.58" y1="364.608" x2="296.134" y2="326.051" gradientUnits="userSpaceOnUse">
<stop stop-color="#FFC93C"/>
<stop offset="1" stop-color="#F49C79"/>
</linearGradient>
<linearGradient id="paint30_linear_410_4398" x1="482.457" y1="537.328" x2="441.345" y2="417.621" gradientUnits="userSpaceOnUse">
<stop stop-color="#FFC93C"/>
<stop offset="1" stop-color="#F49C79"/>
</linearGradient>
<linearGradient id="paint31_linear_410_4398" x1="344.669" y1="64.1913" x2="385.781" y2="183.898" gradientUnits="userSpaceOnUse">
<stop stop-color="#FFC93C"/>
<stop offset="1" stop-color="#F49C79"/>
</linearGradient>
<linearGradient id="paint32_linear_410_4398" x1="697.878" y1="342.064" x2="532.017" y2="328.263" gradientUnits="userSpaceOnUse">
<stop stop-color="#FFC93C"/>
<stop offset="1" stop-color="#F49C79"/>
</linearGradient>
<linearGradient id="paint33_linear_410_4398" x1="132.008" y1="266.338" x2="297.868" y2="280.14" gradientUnits="userSpaceOnUse">
<stop stop-color="#FFC93C"/>
<stop offset="1" stop-color="#F49C79"/>
</linearGradient>
<radialGradient id="paint34_radial_410_4398" cx="0" cy="0" r="1" gradientUnits="userSpaceOnUse" gradientTransform="translate(449.087 271.195) rotate(104.011) scale(276.733 306.011)">
<stop stop-color="#AC6042"/>
<stop offset="1" stop-color="#62342A"/>
</radialGradient>
<radialGradient id="paint35_radial_410_4398" cx="0" cy="0" r="1" gradientUnits="userSpaceOnUse" gradientTransform="translate(1111.5 168.5) rotate(90) scale(168.5)">
<stop stop-color="#FFC93C"/>
<stop offset="1" stop-color="#FFC93C" stop-opacity="0"/>
</radialGradient>
<clipPath id="clip0_410_4398">
<rect width="1280" height="720" fill="white"/>
</clipPath>
</defs>
</svg>
