<svg width="1280" height="720" viewBox="0 0 1280 720" fill="none" xmlns="http://www.w3.org/2000/svg">
<rect width="1280" height="720" fill="#ECFAFF"/>
<path d="M533.13 358.344H367.339" stroke="#50598C" stroke-width="5"/>
<g filter="url(#filter0_di_451_120)">
<path fill-rule="evenodd" clip-rule="evenodd" d="M66 358.342L249.612 174.73L433.223 358.342L249.612 541.954L66 358.342Z" fill="url(#paint0_linear_451_120)"/>
</g>
<path d="M167.907 352.21C166.527 352.21 165.287 351.97 164.187 351.49C163.107 350.99 162.257 350.31 161.637 349.45C161.017 348.57 160.697 347.56 160.677 346.42H163.587C163.687 347.4 164.087 348.23 164.787 348.91C165.507 349.57 166.547 349.9 167.907 349.9C169.207 349.9 170.227 349.58 170.967 348.94C171.727 348.28 172.107 347.44 172.107 346.42C172.107 345.62 171.887 344.97 171.447 344.469C171.007 343.969 170.457 343.589 169.797 343.329C169.137 343.069 168.247 342.789 167.127 342.489C165.747 342.129 164.637 341.769 163.797 341.409C162.977 341.049 162.267 340.489 161.667 339.729C161.087 338.949 160.797 337.909 160.797 336.609C160.797 335.469 161.087 334.459 161.667 333.579C162.247 332.699 163.057 332.019 164.097 331.539C165.157 331.059 166.367 330.819 167.727 330.819C169.687 330.819 171.287 331.309 172.528 332.289C173.788 333.269 174.498 334.569 174.658 336.189H171.657C171.557 335.389 171.137 334.689 170.397 334.089C169.657 333.469 168.677 333.159 167.457 333.159C166.317 333.159 165.387 333.459 164.667 334.059C163.947 334.639 163.587 335.459 163.587 336.519C163.587 337.279 163.797 337.899 164.217 338.379C164.657 338.859 165.187 339.229 165.807 339.489C166.447 339.729 167.337 340.009 168.477 340.329C169.857 340.709 170.967 341.089 171.807 341.469C172.648 341.829 173.368 342.399 173.968 343.179C174.568 343.939 174.868 344.98 174.868 346.3C174.868 347.32 174.598 348.28 174.058 349.18C173.518 350.08 172.718 350.81 171.657 351.37C170.597 351.93 169.347 352.21 167.907 352.21ZM180.295 332.889C179.775 332.889 179.335 332.709 178.975 332.349C178.615 331.989 178.435 331.549 178.435 331.029C178.435 330.509 178.615 330.069 178.975 329.709C179.335 329.348 179.775 329.168 180.295 329.168C180.795 329.168 181.216 329.348 181.556 329.709C181.916 330.069 182.096 330.509 182.096 331.029C182.096 331.549 181.916 331.989 181.556 332.349C181.216 332.709 180.795 332.889 180.295 332.889ZM181.616 335.559V352H178.885V335.559H181.616ZM195.677 332.889C195.157 332.889 194.717 332.709 194.357 332.349C193.997 331.989 193.817 331.549 193.817 331.029C193.817 330.509 193.997 330.069 194.357 329.709C194.717 329.348 195.157 329.168 195.677 329.168C196.177 329.168 196.597 329.348 196.937 329.709C197.297 330.069 197.477 330.509 197.477 331.029C197.477 331.549 197.297 331.989 196.937 332.349C196.597 332.709 196.177 332.889 195.677 332.889ZM196.997 335.559V352H194.267V335.559H196.997ZM209.661 335.259C211.661 335.259 213.281 335.869 214.521 337.089C215.761 338.289 216.382 340.029 216.382 342.309V352H213.681V342.699C213.681 341.059 213.271 339.809 212.451 338.949C211.631 338.069 210.511 337.629 209.091 337.629C207.651 337.629 206.501 338.079 205.641 338.979C204.801 339.879 204.381 341.189 204.381 342.909V352H201.651V335.559H204.381V337.899C204.921 337.059 205.651 336.409 206.571 335.949C207.511 335.489 208.541 335.259 209.661 335.259ZM224.172 337.809V347.5C224.172 348.3 224.342 348.87 224.682 349.21C225.022 349.53 225.612 349.69 226.452 349.69H228.462V352H226.002C224.482 352 223.341 351.65 222.581 350.95C221.821 350.25 221.441 349.1 221.441 347.5V337.809H219.311V335.559H221.441V331.419H224.172V335.559H228.462V337.809H224.172ZM246.771 343.149C246.771 343.669 246.741 344.219 246.681 344.8H233.54C233.64 346.42 234.19 347.69 235.19 348.61C236.21 349.51 237.44 349.96 238.88 349.96C240.06 349.96 241.04 349.69 241.82 349.15C242.62 348.59 243.181 347.85 243.501 346.93H246.441C246.001 348.51 245.121 349.8 243.801 350.8C242.48 351.78 240.84 352.27 238.88 352.27C237.32 352.27 235.92 351.92 234.68 351.22C233.46 350.52 232.5 349.53 231.8 348.25C231.1 346.95 230.75 345.45 230.75 343.749C230.75 342.049 231.09 340.559 231.77 339.279C232.45 337.999 233.4 337.019 234.62 336.339C235.86 335.639 237.28 335.289 238.88 335.289C240.44 335.289 241.82 335.629 243.02 336.309C244.221 336.989 245.141 337.929 245.781 339.129C246.441 340.309 246.771 341.649 246.771 343.149ZM243.951 342.579C243.951 341.539 243.721 340.649 243.261 339.909C242.8 339.149 242.17 338.579 241.37 338.199C240.59 337.799 239.72 337.599 238.76 337.599C237.38 337.599 236.2 338.039 235.22 338.919C234.26 339.799 233.71 341.019 233.57 342.579H243.951ZM253.105 338.229C253.585 337.289 254.265 336.559 255.145 336.039C256.045 335.519 257.135 335.259 258.415 335.259V338.079H257.695C254.635 338.079 253.105 339.739 253.105 343.059V352H250.375V335.559H253.105V338.229ZM264.297 338.229C264.777 337.289 265.457 336.559 266.337 336.039C267.237 335.519 268.327 335.259 269.607 335.259V338.079H268.887C265.827 338.079 264.297 339.739 264.297 343.059V352H261.567V335.559H264.297V338.229ZM287.34 335.559V352H284.61V349.57C284.09 350.41 283.36 351.07 282.419 351.55C281.499 352.01 280.479 352.24 279.359 352.24C278.079 352.24 276.929 351.98 275.909 351.46C274.889 350.92 274.079 350.12 273.479 349.06C272.899 348 272.609 346.71 272.609 345.19V335.559H275.309V344.83C275.309 346.45 275.719 347.7 276.539 348.58C277.359 349.44 278.479 349.87 279.899 349.87C281.359 349.87 282.509 349.42 283.35 348.52C284.19 347.62 284.61 346.31 284.61 344.59V335.559H287.34ZM294.68 338.589C295.22 337.649 296.02 336.869 297.08 336.249C298.16 335.609 299.41 335.289 300.83 335.289C302.29 335.289 303.61 335.639 304.79 336.339C305.99 337.039 306.931 338.029 307.611 339.309C308.291 340.569 308.631 342.039 308.631 343.719C308.631 345.38 308.291 346.86 307.611 348.16C306.931 349.46 305.99 350.47 304.79 351.19C303.61 351.91 302.29 352.27 300.83 352.27C299.43 352.27 298.19 351.96 297.11 351.34C296.05 350.7 295.24 349.91 294.68 348.97V359.801H291.95V335.559H294.68V338.589ZM305.84 343.719C305.84 342.479 305.59 341.399 305.09 340.479C304.59 339.559 303.91 338.859 303.05 338.379C302.21 337.899 301.28 337.659 300.26 337.659C299.26 337.659 298.33 337.909 297.47 338.409C296.63 338.889 295.95 339.599 295.43 340.539C294.93 341.459 294.68 342.529 294.68 343.749C294.68 344.99 294.93 346.08 295.43 347.02C295.95 347.94 296.63 348.65 297.47 349.15C298.33 349.63 299.26 349.87 300.26 349.87C301.28 349.87 302.21 349.63 303.05 349.15C303.91 348.65 304.59 347.94 305.09 347.02C305.59 346.08 305.84 344.98 305.84 343.719ZM315.555 337.809V347.5C315.555 348.3 315.725 348.87 316.065 349.21C316.405 349.53 316.995 349.69 317.835 349.69H319.845V352H317.385C315.865 352 314.725 351.65 313.964 350.95C313.204 350.25 312.824 349.1 312.824 347.5V337.809H310.694V335.559H312.824V331.419H315.555V335.559H319.845V337.809H315.555ZM330.323 352.27C328.783 352.27 327.383 351.92 326.123 351.22C324.883 350.52 323.903 349.53 323.183 348.25C322.483 346.95 322.133 345.45 322.133 343.749C322.133 342.069 322.493 340.589 323.213 339.309C323.953 338.009 324.953 337.019 326.213 336.339C327.473 335.639 328.883 335.289 330.443 335.289C332.003 335.289 333.413 335.639 334.674 336.339C335.934 337.019 336.924 337.999 337.644 339.279C338.384 340.559 338.754 342.049 338.754 343.749C338.754 345.45 338.374 346.95 337.614 348.25C336.874 349.53 335.864 350.52 334.584 351.22C333.303 351.92 331.883 352.27 330.323 352.27ZM330.323 349.87C331.303 349.87 332.223 349.64 333.083 349.18C333.944 348.72 334.634 348.03 335.154 347.11C335.694 346.19 335.964 345.07 335.964 343.749C335.964 342.429 335.704 341.309 335.184 340.389C334.664 339.469 333.984 338.789 333.143 338.349C332.303 337.889 331.393 337.659 330.413 337.659C329.413 337.659 328.493 337.889 327.653 338.349C326.833 338.789 326.173 339.469 325.673 340.389C325.173 341.309 324.923 342.429 324.923 343.749C324.923 345.09 325.163 346.22 325.643 347.14C326.143 348.06 326.803 348.75 327.623 349.21C328.443 349.65 329.343 349.87 330.323 349.87ZM204.381 388.719C204.381 387.039 204.721 385.569 205.401 384.309C206.081 383.029 207.011 382.039 208.191 381.339C209.391 380.639 210.721 380.289 212.181 380.289C213.621 380.289 214.871 380.599 215.932 381.219C216.992 381.839 217.782 382.619 218.302 383.559V380.559H221.062V397H218.302V393.94C217.762 394.9 216.952 395.7 215.872 396.34C214.811 396.96 213.571 397.27 212.151 397.27C210.691 397.27 209.371 396.91 208.191 396.19C207.011 395.47 206.081 394.46 205.401 393.16C204.721 391.86 204.381 390.38 204.381 388.719ZM218.302 388.749C218.302 387.509 218.052 386.429 217.552 385.509C217.052 384.589 216.372 383.889 215.511 383.409C214.671 382.909 213.741 382.659 212.721 382.659C211.701 382.659 210.771 382.899 209.931 383.379C209.091 383.859 208.421 384.559 207.921 385.479C207.421 386.399 207.171 387.479 207.171 388.719C207.171 389.98 207.421 391.08 207.921 392.02C208.421 392.94 209.091 393.65 209.931 394.15C210.771 394.63 211.701 394.87 212.721 394.87C213.741 394.87 214.671 394.63 215.511 394.15C216.372 393.65 217.052 392.94 217.552 392.02C218.052 391.08 218.302 389.99 218.302 388.749ZM224.656 388.749C224.656 387.049 224.996 385.569 225.676 384.309C226.356 383.029 227.296 382.039 228.496 381.339C229.716 380.639 231.106 380.289 232.666 380.289C234.686 380.289 236.346 380.779 237.646 381.759C238.966 382.739 239.837 384.099 240.257 385.839H237.316C237.036 384.839 236.486 384.049 235.666 383.469C234.866 382.889 233.866 382.599 232.666 382.599C231.106 382.599 229.846 383.139 228.886 384.219C227.926 385.279 227.446 386.789 227.446 388.749C227.446 390.73 227.926 392.26 228.886 393.34C229.846 394.42 231.106 394.96 232.666 394.96C233.866 394.96 234.866 394.68 235.666 394.12C236.466 393.56 237.016 392.76 237.316 391.72H240.257C239.817 393.4 238.936 394.75 237.616 395.77C236.296 396.77 234.646 397.27 232.666 397.27C231.106 397.27 229.716 396.92 228.496 396.22C227.296 395.52 226.356 394.53 225.676 393.25C224.996 391.97 224.656 390.47 224.656 388.749ZM247.23 382.809V392.5C247.23 393.3 247.4 393.87 247.74 394.21C248.08 394.53 248.67 394.69 249.51 394.69H251.52V397H249.06C247.54 397 246.4 396.65 245.64 395.95C244.88 395.25 244.5 394.1 244.5 392.5V382.809H242.369V380.559H244.5V376.419H247.23V380.559H251.52V382.809H247.23ZM256.238 377.889C255.718 377.889 255.278 377.709 254.918 377.349C254.558 376.989 254.378 376.549 254.378 376.029C254.378 375.509 254.558 375.069 254.918 374.709C255.278 374.348 255.718 374.168 256.238 374.168C256.738 374.168 257.158 374.348 257.498 374.709C257.858 375.069 258.038 375.509 258.038 376.029C258.038 376.549 257.858 376.989 257.498 377.349C257.158 377.709 256.738 377.889 256.238 377.889ZM257.558 380.559V397H254.828V380.559H257.558ZM268.332 394.48L273.432 380.559H276.342L269.892 397H266.712L260.261 380.559H263.201L268.332 394.48ZM286.199 397.27C284.659 397.27 283.259 396.92 281.999 396.22C280.759 395.52 279.779 394.53 279.059 393.25C278.359 391.95 278.009 390.45 278.009 388.749C278.009 387.069 278.369 385.589 279.089 384.309C279.829 383.009 280.829 382.019 282.089 381.339C283.349 380.639 284.759 380.289 286.319 380.289C287.879 380.289 289.289 380.639 290.55 381.339C291.81 382.019 292.8 382.999 293.52 384.279C294.26 385.559 294.63 387.049 294.63 388.749C294.63 390.45 294.25 391.95 293.49 393.25C292.75 394.53 291.74 395.52 290.46 396.22C289.179 396.92 287.759 397.27 286.199 397.27ZM286.199 394.87C287.179 394.87 288.099 394.64 288.959 394.18C289.819 393.72 290.51 393.03 291.03 392.11C291.57 391.19 291.84 390.07 291.84 388.749C291.84 387.429 291.58 386.309 291.06 385.389C290.54 384.469 289.859 383.789 289.019 383.349C288.179 382.889 287.269 382.659 286.289 382.659C285.289 382.659 284.369 382.889 283.529 383.349C282.709 383.789 282.049 384.469 281.549 385.389C281.049 386.309 280.799 387.429 280.799 388.749C280.799 390.09 281.039 391.22 281.519 392.14C282.019 393.06 282.679 393.75 283.499 394.21C284.319 394.65 285.219 394.87 286.199 394.87Z" fill="#ECFAFF"/>
<mask id="path-4-inside-1_451_120" fill="white">
<path d="M529.349 203.895H814.487V541.956H529.349V203.895Z"/>
</mask>
<path d="M529.349 203.895V198.895H524.349V203.895H529.349ZM529.349 541.956H524.349V546.956H529.349V541.956ZM529.349 203.895V208.895H814.487V203.895V198.895H529.349V203.895ZM814.487 541.956V536.956H529.349V541.956V546.956H814.487V541.956ZM529.349 541.956H534.349V203.895H529.349H524.349V541.956H529.349Z" fill="#50598C" mask="url(#path-4-inside-1_451_120)"/>
<path fill-rule="evenodd" clip-rule="evenodd" d="M817.255 207.615L808.128 215.775L805.847 213.735L813.833 206.595L805.847 199.454L808.128 197.414L817.255 205.575C817.558 205.845 817.727 206.212 817.727 206.595C817.727 206.977 817.558 207.344 817.255 207.615Z" fill="#50598C"/>
<path fill-rule="evenodd" clip-rule="evenodd" d="M817.255 540.275L808.128 548.435L805.847 546.396L813.833 539.255L805.847 532.114L808.128 530.074L817.255 538.235C817.558 538.505 817.727 538.872 817.727 539.255C817.727 539.637 817.558 540.004 817.255 540.275Z" fill="#50598C"/>
<path d="M851.209 637H1214.11V408.026H851.209V637Z" fill="#A9CEF6"/>
<path d="M690.279 199.032L681.639 187.691L650.857 208.753L672.458 227.654L690.279 199.032Z" fill="white"/>
<path fill-rule="evenodd" clip-rule="evenodd" d="M671.918 235.485C675.641 235.485 679.328 234.751 682.768 233.327C686.208 231.902 689.333 229.813 691.966 227.181C694.599 224.548 696.687 221.423 698.112 217.983C699.537 214.543 700.27 210.856 700.27 207.133C700.27 203.41 699.537 199.723 698.112 196.283C696.687 192.843 694.599 189.718 691.966 187.085C689.333 184.453 686.208 182.364 682.768 180.939C679.328 179.515 675.641 178.781 671.918 178.781C664.399 178.781 657.187 181.768 651.87 187.085C646.553 192.402 643.566 199.614 643.566 207.133C643.566 214.652 646.553 221.864 651.87 227.181C657.187 232.498 664.399 235.485 671.918 235.485ZM671.187 218.6L686.938 199.699L682.1 195.666L668.554 211.918L661.545 204.906L657.09 209.36L666.541 218.811L668.979 221.249L671.187 218.6Z" fill="url(#paint1_linear_451_120)"/>
<path d="M693.519 523.595V552.757L651.937 557.077L655.177 520.895L693.519 523.595Z" fill="white"/>
<path fill-rule="evenodd" clip-rule="evenodd" d="M671.918 571.297C689.317 571.297 703.42 557.194 703.42 539.795C703.42 522.396 689.317 508.293 671.918 508.293C654.519 508.293 640.416 522.396 640.416 539.795C640.416 557.194 654.519 571.297 671.918 571.297ZM684.727 526.986C685.169 527.429 685.418 528.03 685.418 528.656C685.418 529.282 685.169 529.882 684.727 530.325L675.257 539.795L684.724 549.261C685.141 549.709 685.368 550.302 685.357 550.914C685.346 551.526 685.099 552.11 684.666 552.543C684.233 552.975 683.649 553.223 683.037 553.234C682.425 553.245 681.832 553.018 681.384 552.601L671.918 543.14L662.452 552.607C662.235 552.839 661.975 553.025 661.685 553.154C661.395 553.283 661.082 553.353 660.765 553.358C660.448 553.364 660.132 553.306 659.838 553.187C659.544 553.068 659.277 552.891 659.052 552.667C658.828 552.442 658.651 552.175 658.532 551.881C658.414 551.587 658.355 551.272 658.361 550.954C658.366 550.637 658.436 550.324 658.565 550.035C658.694 549.745 658.88 549.484 659.112 549.268L668.572 539.795L659.109 530.329C658.877 530.112 658.691 529.851 658.562 529.562C658.433 529.272 658.363 528.959 658.358 528.642C658.352 528.325 658.41 528.009 658.529 527.715C658.648 527.421 658.825 527.154 659.049 526.929C659.274 526.705 659.541 526.528 659.835 526.409C660.129 526.291 660.444 526.232 660.762 526.238C661.079 526.243 661.392 526.313 661.682 526.442C661.971 526.571 662.232 526.757 662.449 526.989L671.918 536.449L681.384 526.983C681.827 526.541 682.428 526.292 683.054 526.292C683.68 526.292 684.281 526.541 684.724 526.983" fill="url(#paint2_linear_451_120)"/>
<path d="M851 102H1213.9V330.974H851V102Z" fill="#A9CEF6"/>
<path d="M661.91 150.418C658.846 150.418 656.1 149.92 653.672 148.925C651.244 147.93 649.294 146.458 647.822 144.508C646.389 142.558 645.633 140.21 645.553 137.463H656.418C656.577 139.016 657.115 140.21 658.03 141.045C658.945 141.841 660.139 142.239 661.612 142.239C663.124 142.239 664.318 141.901 665.194 141.224C666.069 140.508 666.507 139.533 666.507 138.299C666.507 137.264 666.149 136.409 665.432 135.732C664.756 135.056 663.9 134.498 662.865 134.061C661.87 133.623 660.438 133.125 658.567 132.568C655.861 131.732 653.652 130.897 651.941 130.061C650.229 129.225 648.757 127.991 647.523 126.36C646.289 124.728 645.672 122.599 645.672 119.972C645.672 116.072 647.085 113.027 649.911 110.838C652.737 108.609 656.418 107.495 660.955 107.495C665.572 107.495 669.293 108.609 672.119 110.838C674.944 113.027 676.457 116.092 676.656 120.032H665.612C665.532 118.678 665.034 117.624 664.119 116.868C663.204 116.072 662.03 115.674 660.597 115.674C659.363 115.674 658.368 116.012 657.612 116.689C656.856 117.325 656.478 118.261 656.478 119.494C656.478 120.847 657.115 121.902 658.388 122.658C659.662 123.414 661.652 124.23 664.358 125.106C667.064 126.021 669.253 126.897 670.925 127.733C672.636 128.568 674.109 129.782 675.342 131.374C676.576 132.966 677.193 135.016 677.193 137.523C677.193 139.911 676.576 142.08 675.342 144.03C674.148 145.98 672.397 147.532 670.089 148.687C667.781 149.841 665.054 150.418 661.91 150.418ZM694.46 116.689V150H684.251V116.689H694.46ZM696.31 108.39L681.923 114.42V107.376L696.31 100.451V108.39Z" fill="#1E5C93"/>
<path d="M670.241 478H660.033L642.959 452.151V478H632.751V436.092H642.959L660.033 462.061V436.092H670.241V478ZM692.804 478.478C689.541 478.478 686.596 477.781 683.969 476.388C681.382 474.995 679.332 473.005 677.82 470.418C676.347 467.831 675.611 464.807 675.611 461.344C675.611 457.922 676.367 454.917 677.88 452.33C679.392 449.703 681.462 447.693 684.088 446.3C686.715 444.907 689.66 444.211 692.924 444.211C696.187 444.211 699.132 444.907 701.759 446.3C704.386 447.693 706.455 449.703 707.967 452.33C709.48 454.917 710.236 457.922 710.236 461.344C710.236 464.767 709.46 467.792 707.908 470.418C706.395 473.005 704.306 474.995 701.64 476.388C699.013 477.781 696.068 478.478 692.804 478.478ZM692.804 469.642C694.754 469.642 696.406 468.926 697.759 467.493C699.152 466.06 699.849 464.011 699.849 461.344C699.849 458.678 699.172 456.628 697.819 455.195C696.505 453.763 694.874 453.046 692.924 453.046C690.934 453.046 689.282 453.763 687.969 455.195C686.655 456.588 685.999 458.638 685.999 461.344C685.999 464.011 686.635 466.06 687.909 467.493C689.222 468.926 690.854 469.642 692.804 469.642Z" fill="#1E5C93"/>
<path d="M1004.76 617L1015.76 541H1058.26L1074.76 617H1051.26L1043.26 567.5H1034.26L1028.76 617H1004.76Z" fill="#1E5C93"/>
<path d="M986.692 558.581C988.478 559.043 990.379 558.781 991.978 557.851C993.578 556.922 994.747 555.401 995.228 553.621L997.48 545.215L984.023 541.716L981.768 550.132C981.294 551.913 981.547 553.804 982.472 555.391C983.396 556.978 984.917 558.132 986.701 558.599" fill="#FF7B54"/>
<path d="M1083.03 558.581C1081.24 559.043 1079.34 558.781 1077.74 557.851C1076.14 556.922 1074.97 555.401 1074.49 553.621L1072.24 545.215L1085.7 541.716L1087.95 550.132C1088.42 551.913 1088.17 553.804 1087.25 555.391C1086.32 556.978 1084.8 558.132 1083.02 558.599" fill="#FF7B54"/>
<path d="M995.26 628L1005.55 617H1028.76V628H995.26Z" fill="black"/>
<path d="M1084.76 628L1074.47 617H1051.26V628H1084.76Z" fill="black"/>
<path d="M1060.26 516.497C1068.26 527.501 1071.26 541.5 1073.26 549L1086.76 546.5C1084.26 514.5 1058.76 484.637 1048.76 484.637L1017.76 484.637C996.26 494.001 982.76 546.501 982.76 546.501L996.26 551C1001.26 533 1012.26 516.497 1012.26 516.497C1012.38 524.339 1014.42 539.481 1014.42 539.481L1014.76 541.102L1058.76 541.102C1058.76 542.499 1060.26 516.497 1060.26 516.497Z" fill="#7C2869"/>
<path d="M1033.97 491.432C1033.08 491.297 1032.22 490.986 1031.45 490.516C1030.68 490.045 1030 489.426 1029.46 488.692C1028.92 487.959 1028.52 487.126 1028.3 486.242C1028.07 485.358 1028.02 484.441 1028.14 483.542L1029.3 474.95L1042.81 477.052L1041.65 485.643C1041.53 486.542 1041.24 487.405 1040.79 488.182C1040.34 488.96 1039.74 489.637 1039.03 490.174C1038.31 490.712 1037.5 491.098 1036.64 491.313C1035.77 491.527 1034.87 491.565 1033.98 491.424" fill="#FF7B54"/>
<path d="M1028.3 479.462C1046.23 482.696 1063.41 471.012 1066.71 453.371C1070 435.712 1058.14 418.791 1040.23 415.538C1022.29 412.304 1005.11 423.988 1001.81 441.646C998.522 459.305 1010.39 476.234 1028.3 479.482" fill="#FF7B54"/>
<path d="M1051.26 463.545C1052.51 464.454 1054.14 463.961 1054.89 462.416C1055.07 462.052 1055.18 461.649 1055.23 461.229C1055.28 460.81 1055.26 460.383 1055.18 459.972C1055.09 459.562 1054.94 459.176 1054.73 458.838C1054.52 458.499 1054.26 458.214 1053.96 458" stroke="black" stroke-width="2" stroke-miterlimit="10"/>
<path d="M1055.91 470.486L1048.26 471" stroke="black" stroke-width="2" stroke-miterlimit="10"/>
<path d="M1066.26 439.839C1064.16 430.521 1058.04 422.163 1048.8 417.535C1032.44 409.332 1012.46 415.888 1004.22 432.208C1002.82 434.982 1001.82 437.943 1001.26 441L1066.26 439.859V439.839Z" fill="black"/>
<path d="M1027.25 438.19C1027.25 430.035 1024.26 422.623 1019.42 417C1010.03 421.257 1002.76 430.142 1000.79 441.449C999.061 451.234 1001.68 460.787 1007.17 468C1018.89 463.579 1027.26 451.929 1027.26 438.19" fill="black"/>
<path d="M1046.26 451.499C1046.26 452.428 1045.84 453.318 1045.09 453.974C1044.34 454.63 1043.32 454.999 1042.26 455C1041.2 454.999 1040.18 454.63 1039.43 453.974C1038.68 453.318 1038.26 452.428 1038.26 451.501C1038.26 450.573 1038.68 449.683 1039.43 449.027C1040.18 448.37 1041.2 448.001 1042.26 448C1043.32 448.001 1044.34 448.37 1045.09 449.026C1045.84 449.682 1046.26 450.571 1046.26 451.499Z" fill="black"/>
<path d="M1064.26 451.499C1064.26 452.428 1063.84 453.318 1063.09 453.974C1062.34 454.63 1061.32 454.999 1060.26 455C1059.2 454.999 1058.18 454.63 1057.43 453.974C1056.68 453.318 1056.26 452.428 1056.26 451.501C1056.26 450.573 1056.68 449.683 1057.43 449.027C1058.18 448.37 1059.2 448.001 1060.26 448C1061.32 448.001 1062.34 448.37 1063.09 449.026C1063.84 449.682 1064.26 450.571 1064.26 451.499Z" fill="black"/>
<path d="M1117.59 173.918C1118.16 174.666 1118.56 175.514 1118.79 176.415C1119.02 177.316 1119.06 178.251 1118.91 179.168C1118.77 180.084 1118.44 180.964 1117.94 181.756C1117.44 182.549 1116.79 183.238 1116.01 183.785L1108.64 189L1100 177.61L1107.38 172.374C1108.15 171.823 1109.03 171.425 1109.96 171.203C1110.89 170.982 1111.86 170.941 1112.8 171.083C1113.75 171.225 1114.66 171.547 1115.48 172.031C1116.29 172.514 1117 173.15 1117.57 173.901" fill="#FF7B54"/>
<path d="M972.331 226.247C973.714 227.467 975.528 228.094 977.375 227.989C979.223 227.884 980.953 227.056 982.187 225.687L988 219.211L977.584 210L971.764 216.484C970.535 217.857 969.905 219.658 970.012 221.492C970.118 223.326 970.952 225.043 972.331 226.267" fill="#FF7B54"/>
<path d="M1063.04 174.462C1080.97 177.696 1098.15 166.012 1101.45 148.371C1104.74 130.712 1092.87 113.791 1074.96 110.538C1057.03 107.304 1039.85 118.988 1036.55 136.646C1033.26 154.305 1045.13 171.234 1063.04 174.482" fill="#FF7B54"/>
<path d="M1095 162.545C1096.25 163.454 1097.88 162.961 1098.63 161.416C1098.81 161.052 1098.92 160.649 1098.97 160.229C1099.02 159.81 1099 159.383 1098.92 158.972C1098.83 158.562 1098.68 158.176 1098.47 157.838C1098.26 157.499 1098 157.214 1097.7 157" stroke="black" stroke-width="2" stroke-miterlimit="10"/>
<path d="M1109 178.621C1110.26 179.38 1111.89 178.964 1112.63 177.687C1112.99 177.072 1113.09 176.34 1112.92 175.649C1112.74 174.958 1112.31 174.366 1111.71 174" stroke="black" stroke-width="2" stroke-miterlimit="10"/>
<path d="M1112.22 177C1110.73 178.262 1110.58 180.432 1111.9 181.84C1112.54 182.522 1113.43 182.936 1114.38 182.993C1115.34 183.05 1116.28 182.745 1117 182.144" stroke="black" stroke-width="2" stroke-miterlimit="10"/>
<path d="M1091 166L1085 163" stroke="black" stroke-width="2" stroke-miterlimit="10"/>
<path d="M1101 134.839C1098.9 125.521 1092.78 117.163 1083.54 112.535C1067.18 104.332 1047.2 110.888 1038.96 127.208C1037.56 129.982 1036.56 132.943 1036 136L1101 134.859V134.839Z" fill="black"/>
<path d="M1062.99 133.19C1062.99 125.035 1060 117.623 1055.16 112C1045.77 116.257 1038.5 125.142 1036.53 136.449C1034.8 146.234 1037.42 155.787 1042.91 163C1054.63 158.579 1063 146.929 1063 133.19" fill="black"/>
<path d="M1097 146.499C1097 147.428 1096.58 148.318 1095.83 148.974C1095.08 149.63 1094.06 149.999 1093 150C1091.94 149.999 1090.92 149.63 1090.17 148.974C1089.42 148.318 1089 147.428 1089 146.501C1089 145.573 1089.42 144.683 1090.17 144.027C1090.92 143.37 1091.94 143.001 1093 143C1094.06 143.001 1095.08 143.37 1095.83 144.026C1096.58 144.682 1097 145.571 1097 146.499Z" fill="black"/>
<path d="M999.521 261.195L970.6 268.334L970 287.85C970 287.85 1000.51 286.093 1007.35 282.352C1012.31 279.635 1016.54 275.24 1020.6 270.787C1023.28 268.207 1025.81 265.471 1028.17 262.593C1034.6 269.45 1041.1 279.228 1041.04 279.08C1044.5 287.996 1055.79 308.843 1060.55 315L1077 308.132L1064.09 267.345L1045.67 233.986L1008.57 229C1005.17 239.41 1002.09 250.098 999.521 261.215" fill="#1E5C93"/>
<path d="M1055.42 202.886C1076.64 208.422 1104.67 196.888 1112 186.789L1106.03 173.14C1087.48 183.673 1070.88 184.724 1059.39 182.255L1039.98 172C999.238 176.022 975 213.488 975 213.488L984.072 224.656C1007.99 203.042 1020.07 199.72 1020.07 199.72C1017.17 207.009 1014.44 214.365 1011.89 221.784C1011.89 221.784 1011.87 221.865 1011.85 221.902C1010.94 224.577 1010.04 227.259 1009.16 229.947L1046.29 235L1046.05 234.569C1050.73 223.299 1053.63 212.218 1055.42 202.877" fill="#7C2869"/>
<path d="M1048.32 185.012C1047.55 184.547 1046.88 183.932 1046.35 183.201C1045.81 182.47 1045.43 181.638 1045.21 180.754C1044.99 179.869 1044.94 178.948 1045.07 178.045C1045.2 177.142 1045.51 176.275 1045.97 175.493L1050.33 168L1062 175.121L1057.64 182.612C1057.18 183.396 1056.58 184.081 1055.87 184.626C1055.15 185.172 1054.34 185.567 1053.47 185.79C1052.61 186.013 1051.71 186.059 1050.83 185.925C1049.95 185.791 1049.1 185.481 1048.34 185.011" fill="#FF7B54"/>
<path d="M971 269H961.622L961 297C961 297 970.183 294.698 970.39 288.142L971 269Z" fill="black"/>
<path d="M1060 314.868L1064.32 323L1091 310.769C1091 310.769 1084.59 303.87 1078.32 306.668C1072.04 309.463 1060 314.87 1060 314.87L1060 314.868Z" fill="black"/>
<defs>
<filter id="filter0_di_451_120" x="62" y="174.73" width="375.223" height="376.223" filterUnits="userSpaceOnUse" color-interpolation-filters="sRGB">
<feFlood flood-opacity="0" result="BackgroundImageFix"/>
<feColorMatrix in="SourceAlpha" type="matrix" values="0 0 0 0 0 0 0 0 0 0 0 0 0 0 0 0 0 0 127 0" result="hardAlpha"/>
<feOffset dy="4"/>
<feGaussianBlur stdDeviation="2"/>
<feComposite in2="hardAlpha" operator="out"/>
<feColorMatrix type="matrix" values="0 0 0 0 0 0 0 0 0 0 0 0 0 0 0 0 0 0 0.25 0"/>
<feBlend mode="normal" in2="BackgroundImageFix" result="effect1_dropShadow_451_120"/>
<feBlend mode="normal" in="SourceGraphic" in2="effect1_dropShadow_451_120" result="shape"/>
<feColorMatrix in="SourceAlpha" type="matrix" values="0 0 0 0 0 0 0 0 0 0 0 0 0 0 0 0 0 0 127 0" result="hardAlpha"/>
<feOffset dy="9"/>
<feGaussianBlur stdDeviation="20.4"/>
<feComposite in2="hardAlpha" operator="arithmetic" k2="-1" k3="1"/>
<feColorMatrix type="matrix" values="0 0 0 0 0.557707 0 0 0 0 0.514631 0 0 0 0 0.822791 0 0 0 0.25 0"/>
<feBlend mode="normal" in2="shape" result="effect2_innerShadow_451_120"/>
</filter>
<linearGradient id="paint0_linear_451_120" x1="249.612" y1="174.73" x2="249.612" y2="541.954" gradientUnits="userSpaceOnUse">
<stop stop-color="#1C5D93"/>
<stop offset="1" stop-color="#745686"/>
</linearGradient>
<linearGradient id="paint1_linear_451_120" x1="671.918" y1="178.781" x2="671.918" y2="235.485" gradientUnits="userSpaceOnUse">
<stop stop-color="#1EAD28"/>
<stop offset="1" stop-color="#38813E"/>
</linearGradient>
<linearGradient id="paint2_linear_451_120" x1="671.918" y1="508.293" x2="671.918" y2="571.297" gradientUnits="userSpaceOnUse">
<stop stop-color="#CE393C"/>
<stop offset="1" stop-color="#6F214F"/>
</linearGradient>
</defs>
</svg>
