<svg width="1280" height="720" viewBox="0 0 1280 720" fill="none" xmlns="http://www.w3.org/2000/svg">
<rect width="1280" height="720" fill="#ECFAFF"/>
<mask id="mask0_410_4402" style="mask-type:alpha" maskUnits="userSpaceOnUse" x="462" y="49" width="311" height="622">
<path d="M462 671C633.761 671 773 531.761 773 360C773 188.239 633.761 49 462 49V671Z" fill="#D9D9D9"/>
</mask>
<g mask="url(#mask0_410_4402)">
<mask id="mask1_410_4402" style="mask-type:alpha" maskUnits="userSpaceOnUse" x="363" y="14" width="511" height="346">
<path d="M873.5 359.5H363V14H873.5V359.5Z" fill="url(#paint0_linear_410_4402)"/>
</mask>
<g mask="url(#mask1_410_4402)">
<path d="M873.5 359.5H363V14H873.5V359.5Z" fill="url(#paint1_linear_410_4402)"/>
<circle cx="482.5" cy="359.5" r="113.5" fill="#FFDD94"/>
</g>
<mask id="mask2_410_4402" style="mask-type:alpha" maskUnits="userSpaceOnUse" x="363" y="360" width="511" height="346">
<path d="M873.5 705.5H363V360H873.5V705.5Z" fill="url(#paint2_linear_410_4402)"/>
</mask>
<g mask="url(#mask2_410_4402)">
<path d="M873.5 705.5H363V360H873.5V705.5Z" fill="url(#paint3_linear_410_4402)"/>
<circle cx="474" cy="354" r="122" fill="#ECFAFF"/>
<path d="M703.959 426.451L706.885 437.191L709.812 426.451C710.547 423.753 710.916 422.402 711.638 421.291C712.275 420.314 713.109 419.481 714.086 418.845C715.191 418.123 716.543 417.758 719.251 417.02L730 414.095L719.251 411.171C716.551 410.437 715.203 410.068 714.086 409.346C713.109 408.71 712.275 407.877 711.638 406.9C710.916 405.797 710.551 404.446 709.812 401.74L706.885 391L703.959 401.74C703.224 404.438 702.854 405.789 702.132 406.9C701.495 407.877 700.661 408.71 699.684 409.346C698.58 410.068 697.228 410.433 694.519 411.171L683.77 414.095L694.519 417.02C697.219 417.754 698.571 418.123 699.684 418.845C700.661 419.481 701.495 420.314 702.132 421.291C702.854 422.394 703.22 423.745 703.959 426.451ZM678.261 448.518C678.971 449.542 679.37 450.792 680.176 453.301L681.696 458L683.216 453.301C684.018 450.805 684.421 449.555 685.131 448.518C685.756 447.612 686.558 446.84 687.486 446.24C688.532 445.565 689.796 445.204 692.315 444.487L696.392 443.325L692.315 442.162C689.792 441.441 688.528 441.08 687.486 440.409C686.559 439.811 685.759 439.037 685.131 438.131C684.421 437.107 684.022 435.857 683.216 433.348L681.696 428.649L680.176 433.348C679.374 435.844 678.971 437.094 678.261 438.131C677.636 439.037 676.834 439.809 675.906 440.409C674.86 441.084 673.596 441.445 671.077 442.162L667 443.325L671.077 444.487C673.601 445.208 674.865 445.569 675.906 446.24C676.833 446.838 677.634 447.612 678.261 448.518Z" fill="#ECFAFF"/>
</g>
<path d="M419 360H809" stroke="#A1C5DD" stroke-width="20"/>
<path d="M467 54.041C633.693 56.7114 768 192.671 768 360C768 527.329 633.693 663.288 467 665.958V54.041Z" stroke="#1A3567" stroke-width="10"/>
</g>
<path d="M598.407 205.002L470.719 335.876L489.212 348.693L598.407 205.002Z" fill="#1A3567"/>
<circle cx="462" cy="360" r="31" fill="#1A3567"/>
<circle cx="461.5" cy="359.5" r="21.5" fill="#A1C5DD"/>
<path d="M599.663 231.724L652.954 189" stroke="#FFDD94" stroke-width="16" stroke-linecap="round"/>
<path d="M492.656 180.287L491.92 111.988" stroke="#FFDD94" stroke-width="16" stroke-linecap="round"/>
<path d="M633 338.869L701.299 338.133" stroke="#FFDD94" stroke-width="16" stroke-linecap="round"/>
<path d="M630 282.15L667.391 265.498" stroke="#FFDD94" stroke-width="16" stroke-linecap="round"/>
<path d="M548.565 191.575L562.257 153.001" stroke="#FFDD94" stroke-width="16" stroke-linecap="round"/>
<path d="M132.034 78.0956L130 76.1755V61.5487C130 45.6885 130 45.1734 132.941 43.0504C135.536 41.1304 140.842 41.9577 142.643 44.5958C144.065 46.6876 144.197 48.6075 143.817 62.5007L143.436 76.3004L141.487 78.158C139.719 79.8283 139.255 80 136.793 80C134.314 80 133.868 79.8284 132.034 78.0956Z" fill="#FBB754"/>
<path d="M84.484 99.5568C82.2303 98.8882 63.5243 80.246 62.5157 77.6806C62.0252 76.5577 61.8798 75.3171 62.1001 74.1138C62.3204 72.9106 62.8969 71.798 63.7546 70.9153C64.6123 70.0326 65.7139 69.4191 66.9232 69.1511C68.1325 68.8832 69.3956 68.9729 70.5535 69.409C73.1697 70.2953 90.8841 87.6157 92.3025 90.6632C92.7108 91.4503 92.9445 92.3135 92.9913 93.1965C93.038 94.0794 92.8966 94.9622 92.5738 95.787C92.251 96.6118 91.7555 97.3601 91.1194 97.9829C90.4832 98.6057 89.7204 99.0892 88.8819 99.4014C87.038 100.163 86.5801 100.179 84.484 99.5568Z" fill="#FBB754"/>
<path d="M183.995 100.067C182.867 99.2765 182.023 98.1371 181.587 96.8195C180.055 92.7641 180.804 91.6237 192.707 80.0435C202.874 70.1585 203.077 70 205.173 70C210.225 70 213.541 75.1009 211.273 79.4097C210.428 81.0256 191.942 99.6869 190.393 100.479C189.361 100.883 188.254 101.055 187.149 100.984C186.045 100.913 184.968 100.6 183.995 100.067Z" fill="#FBB754"/>
<path d="M45.1466 147.767L37.3634 147.456L35.6817 145.637C34.234 144.051 34 143.461 34 141.331C34 139.201 34.2336 138.61 35.6969 137.025L37.3786 135.19L52.2914 135.05C66.4102 134.926 67.2965 134.973 68.7909 135.89C71.0169 137.258 72.0452 139.061 71.9985 141.549C72.0192 142.648 71.7545 143.734 71.2308 144.701C70.7071 145.668 69.9419 146.483 69.0094 147.067C67.8887 147.813 66.5969 147.953 60.3236 148C56.2763 148 49.4271 147.907 45.1618 147.751L45.1466 147.767Z" fill="#FBB754"/>
<path d="M149.378 192.538C156.375 190.867 162.943 187.797 168.671 183.52C174.399 179.243 179.162 173.851 182.66 167.684C190.447 154.055 191.112 136.132 184.37 121.821C181.971 116.535 178.578 111.738 174.368 107.681C169.854 102.983 164.416 99.2286 158.383 96.6415C149.081 92.3608 138.657 90.9964 128.534 92.7343C87.5109 99.758 70.7347 148.133 99.0963 177.638C112.486 191.561 130.402 196.864 149.378 192.522V192.538Z" fill="#FBB754"/>
<path d="M65.5326 215.322C63.0343 214.263 61.7777 211.927 62.0323 208.765L62.2227 206.133L72.232 196.305C77.7376 190.885 82.8453 186.15 83.5932 185.761C89.7513 182.568 95.8147 190.106 91.5979 195.682C89.2111 198.844 72.295 214.964 70.7674 215.524C69.9333 215.869 69.0325 216.03 68.1276 215.995C67.2228 215.96 66.3363 215.73 65.5326 215.322Z" fill="#FBB754"/>
<path d="M135.864 222.969C134.666 222.201 133.77 221.058 133.32 219.727C132.871 218.396 132.895 216.955 133.389 215.64C134.525 212.43 136.337 211.535 142.454 211.118C152.528 210.62 162.376 208.016 171.336 203.48C192.303 192.94 207.075 171.383 208.368 149.44C208.526 146.894 208.746 143.885 208.888 142.727C209.597 137.079 216.22 135.043 220.319 139.209C221.517 140.444 221.783 141.169 221.941 143.823C222.351 149.995 220.585 160.55 217.763 168.868C207.169 200.085 177.248 222.414 144.078 223.864C137.835 224.127 137.551 224.096 135.864 222.969Z" fill="#31C0FD"/>
<path d="M134.18 247.378C129.625 242.991 132.646 236.318 139.183 236.318C140.621 236.318 144.265 236.086 147.333 235.808C162.451 234.446 177.022 229.657 189.865 221.831C202.709 214.004 213.461 203.36 221.25 190.763C228.889 178.529 233.301 164.595 234.467 148.947C234.787 144.668 235.331 140.837 235.714 140.111C237.248 137.254 240.844 136.203 244.216 137.64C247.844 139.185 248.259 140.482 247.892 148.7C246.773 173.787 236.305 197.421 218.006 216.221C198.556 236.194 168.733 249 141.691 249H135.858L134.18 247.378Z" fill="#31C0FD"/>
<path d="M876.402 152.092C880.82 152.092 884.68 152.968 887.983 154.719C891.287 156.47 893.834 158.937 895.625 162.121C897.455 165.265 898.371 168.907 898.371 173.046C898.371 177.145 897.455 180.787 895.625 183.971C893.834 187.155 891.267 189.622 887.924 191.373C884.62 193.124 880.78 194 876.402 194H860.701V152.092H876.402ZM875.745 185.165C879.606 185.165 882.61 184.11 884.76 182.001C886.909 179.891 887.983 176.906 887.983 173.046C887.983 169.186 886.909 166.181 884.76 164.032C882.61 161.882 879.606 160.808 875.745 160.808H870.91V185.165H875.745ZM915.06 160.689V194H904.852V160.689H915.06ZM916.911 152.39L902.523 158.42V151.376L916.911 144.451V152.39ZM921.226 177.285C921.226 173.862 921.863 170.857 923.137 168.27C924.45 165.683 926.221 163.693 928.45 162.3C930.678 160.907 933.166 160.211 935.912 160.211C938.26 160.211 940.31 160.689 942.061 161.644C943.852 162.599 945.225 163.853 946.18 165.405V160.689H956.388V194H946.18V189.284C945.185 190.836 943.792 192.09 942.001 193.045C940.25 194 938.2 194.478 935.852 194.478C933.146 194.478 930.678 193.781 928.45 192.388C926.221 190.955 924.45 188.946 923.137 186.359C921.863 183.732 921.226 180.707 921.226 177.285ZM946.18 177.344C946.18 174.797 945.464 172.787 944.031 171.315C942.638 169.842 940.927 169.106 938.897 169.106C936.867 169.106 935.136 169.842 933.703 171.315C932.31 172.748 931.614 174.737 931.614 177.285C931.614 179.832 932.31 181.861 933.703 183.374C935.136 184.846 936.867 185.583 938.897 185.583C940.927 185.583 942.638 184.846 944.031 183.374C945.464 181.901 946.18 179.891 946.18 177.344Z" fill="#1E5C93"/>
<path d="M869.65 340.39V363.49C869.65 365.8 870.218 367.578 871.355 368.825C872.492 370.072 874.16 370.695 876.36 370.695C878.56 370.695 880.247 370.072 881.42 368.825C882.593 367.578 883.18 365.8 883.18 363.49V340.39H892.585V363.435C892.585 366.882 891.852 369.797 890.385 372.18C888.918 374.563 886.938 376.36 884.445 377.57C881.988 378.78 879.238 379.385 876.195 379.385C873.152 379.385 870.42 378.798 868 377.625C865.617 376.415 863.728 374.618 862.335 372.235C860.942 369.815 860.245 366.882 860.245 363.435V340.39H869.65ZM938.349 347.98C942.163 347.98 945.188 349.135 947.424 351.445C949.698 353.755 950.834 356.963 950.834 361.07V379H941.484V362.335C941.484 360.355 940.953 358.833 939.889 357.77C938.863 356.67 937.433 356.12 935.599 356.12C933.766 356.12 932.318 356.67 931.254 357.77C930.228 358.833 929.714 360.355 929.714 362.335V379H920.364V362.335C920.364 360.355 919.833 358.833 918.769 357.77C917.743 356.67 916.313 356.12 914.479 356.12C912.646 356.12 911.198 356.67 910.134 357.77C909.108 358.833 908.594 360.355 908.594 362.335V379H899.189V348.31H908.594V352.16C909.548 350.877 910.794 349.868 912.334 349.135C913.874 348.365 915.616 347.98 917.559 347.98C919.869 347.98 921.923 348.475 923.719 349.465C925.553 350.455 926.983 351.867 928.009 353.7C929.073 352.013 930.521 350.638 932.354 349.575C934.188 348.512 936.186 347.98 938.349 347.98ZM966.817 352.655C967.697 351.225 968.962 350.07 970.612 349.19C972.262 348.31 974.15 347.87 976.277 347.87C978.807 347.87 981.099 348.512 983.152 349.795C985.205 351.078 986.819 352.912 987.992 355.295C989.202 357.678 989.807 360.447 989.807 363.6C989.807 366.753 989.202 369.54 987.992 371.96C986.819 374.343 985.205 376.195 983.152 377.515C981.099 378.798 978.807 379.44 976.277 379.44C974.114 379.44 972.225 379.018 970.612 378.175C968.999 377.295 967.734 376.14 966.817 374.71V379H957.412V338.3H966.817V352.655ZM980.237 363.6C980.237 361.253 979.577 359.42 978.257 358.1C976.974 356.743 975.379 356.065 973.472 356.065C971.602 356.065 970.007 356.743 968.687 358.1C967.404 359.457 966.762 361.308 966.762 363.655C966.762 366.002 967.404 367.853 968.687 369.21C970.007 370.567 971.602 371.245 973.472 371.245C975.342 371.245 976.937 370.567 978.257 369.21C979.577 367.817 980.237 365.947 980.237 363.6ZM1004.15 353.425C1005.25 351.738 1006.62 350.418 1008.27 349.465C1009.92 348.475 1011.75 347.98 1013.77 347.98V357.935H1011.19C1008.84 357.935 1007.08 358.448 1005.91 359.475C1004.73 360.465 1004.15 362.225 1004.15 364.755V379H994.741V348.31H1004.15V353.425ZM1016.4 363.6C1016.4 360.447 1016.98 357.678 1018.16 355.295C1019.37 352.912 1021 351.078 1023.05 349.795C1025.1 348.512 1027.4 347.87 1029.93 347.87C1032.09 347.87 1033.98 348.31 1035.59 349.19C1037.24 350.07 1038.51 351.225 1039.39 352.655V348.31H1048.79V379H1039.39V374.655C1038.47 376.085 1037.19 377.24 1035.54 378.12C1033.92 379 1032.03 379.44 1029.87 379.44C1027.38 379.44 1025.1 378.798 1023.05 377.515C1021 376.195 1019.37 374.343 1018.16 371.96C1016.98 369.54 1016.4 366.753 1016.4 363.6ZM1039.39 363.655C1039.39 361.308 1038.73 359.457 1037.41 358.1C1036.12 356.743 1034.55 356.065 1032.68 356.065C1030.81 356.065 1029.21 356.743 1027.89 358.1C1026.61 359.42 1025.97 361.253 1025.97 363.6C1025.97 365.947 1026.61 367.817 1027.89 369.21C1029.21 370.567 1030.81 371.245 1032.68 371.245C1034.55 371.245 1036.12 370.567 1037.41 369.21C1038.73 367.853 1039.39 366.002 1039.39 363.655ZM1065 338.3V379H1055.6V338.3H1065ZM1096.12 390.495C1092.56 387.085 1089.8 382.685 1087.82 377.295C1085.84 371.905 1084.85 366.093 1084.85 359.86C1084.85 353.553 1085.87 347.668 1087.93 342.205C1089.98 336.705 1092.89 332.232 1096.67 328.785H1105.91V329.665C1102.06 333.478 1099.09 338.062 1097 343.415C1094.91 348.732 1093.87 354.213 1093.87 359.86C1093.87 365.47 1094.87 370.878 1096.89 376.085C1098.91 381.292 1101.75 385.802 1105.42 389.615V390.495H1096.12ZM1137.02 347.045H1119.86V354.635C1120.59 353.828 1121.62 353.168 1122.94 352.655C1124.26 352.142 1125.69 351.885 1127.23 351.885C1129.98 351.885 1132.25 352.508 1134.05 353.755C1135.88 355.002 1137.22 356.615 1138.06 358.595C1138.91 360.575 1139.33 362.72 1139.33 365.03C1139.33 369.32 1138.12 372.73 1135.7 375.26C1133.28 377.753 1129.87 379 1125.47 379C1122.53 379 1119.99 378.505 1117.82 377.515C1115.66 376.488 1113.99 375.077 1112.82 373.28C1111.64 371.483 1111 369.412 1110.89 367.065H1120.08C1120.3 368.202 1120.83 369.155 1121.67 369.925C1122.52 370.658 1123.67 371.025 1125.14 371.025C1126.86 371.025 1128.14 370.475 1128.99 369.375C1129.83 368.275 1130.25 366.808 1130.25 364.975C1130.25 363.178 1129.81 361.803 1128.93 360.85C1128.05 359.897 1126.77 359.42 1125.08 359.42C1123.84 359.42 1122.81 359.732 1122 360.355C1121.2 360.942 1120.66 361.73 1120.41 362.72H1111.33V338.795H1137.02V347.045ZM1144.52 358.375C1144.52 352.068 1145.73 347.1 1148.15 343.47C1150.61 339.84 1154.55 338.025 1159.97 338.025C1165.4 338.025 1169.32 339.84 1171.74 343.47C1174.2 347.1 1175.43 352.068 1175.43 358.375C1175.43 364.755 1174.2 369.76 1171.74 373.39C1169.32 377.02 1165.4 378.835 1159.97 378.835C1154.55 378.835 1150.61 377.02 1148.15 373.39C1145.73 369.76 1144.52 364.755 1144.52 358.375ZM1166.19 358.375C1166.19 354.672 1165.79 351.83 1164.98 349.85C1164.17 347.833 1162.5 346.825 1159.97 346.825C1157.44 346.825 1155.78 347.833 1154.97 349.85C1154.16 351.83 1153.76 354.672 1153.76 358.375C1153.76 360.868 1153.91 362.94 1154.2 364.59C1154.49 366.203 1155.08 367.523 1155.96 368.55C1156.88 369.54 1158.21 370.035 1159.97 370.035C1161.73 370.035 1163.05 369.54 1163.93 368.55C1164.85 367.523 1165.46 366.203 1165.75 364.59C1166.04 362.94 1166.19 360.868 1166.19 358.375ZM1178.8 390.495V389.615C1182.47 385.802 1185.31 381.292 1187.33 376.085C1189.34 370.878 1190.35 365.47 1190.35 359.86C1190.35 354.213 1189.31 348.732 1187.22 343.415C1185.13 338.062 1182.16 333.478 1178.31 329.665V328.785H1187.55C1191.32 332.232 1194.24 336.705 1196.29 342.205C1198.35 347.668 1199.37 353.553 1199.37 359.86C1199.37 366.093 1198.38 371.905 1196.4 377.295C1194.42 382.685 1191.65 387.085 1188.1 390.495H1178.8Z" fill="#1E5C93"/>
<path d="M894.95 569H885.545L869.815 545.185V569H860.41V530.39H869.815L885.545 554.315V530.39H894.95V569ZM915.737 569.44C912.731 569.44 910.017 568.798 907.597 567.515C905.214 566.232 903.326 564.398 901.932 562.015C900.576 559.632 899.897 556.845 899.897 553.655C899.897 550.502 900.594 547.733 901.987 545.35C903.381 542.93 905.287 541.078 907.707 539.795C910.127 538.512 912.841 537.87 915.847 537.87C918.854 537.87 921.567 538.512 923.987 539.795C926.407 541.078 928.314 542.93 929.707 545.35C931.101 547.733 931.797 550.502 931.797 553.655C931.797 556.808 931.082 559.595 929.652 562.015C928.259 564.398 926.334 566.232 923.877 567.515C921.457 568.798 918.744 569.44 915.737 569.44ZM915.737 561.3C917.534 561.3 919.056 560.64 920.302 559.32C921.586 558 922.227 556.112 922.227 553.655C922.227 551.198 921.604 549.31 920.357 547.99C919.147 546.67 917.644 546.01 915.847 546.01C914.014 546.01 912.492 546.67 911.282 547.99C910.072 549.273 909.467 551.162 909.467 553.655C909.467 556.112 910.054 558 911.227 559.32C912.437 560.64 913.941 561.3 915.737 561.3ZM934.917 553.655C934.917 550.465 935.559 547.678 936.842 545.295C938.162 542.912 939.977 541.078 942.287 539.795C944.634 538.512 947.31 537.87 950.317 537.87C954.167 537.87 957.375 538.878 959.942 540.895C962.545 542.912 964.25 545.753 965.057 549.42H955.047C954.204 547.073 952.572 545.9 950.152 545.9C948.429 545.9 947.054 546.578 946.027 547.935C945 549.255 944.487 551.162 944.487 553.655C944.487 556.148 945 558.073 946.027 559.43C947.054 560.75 948.429 561.41 950.152 561.41C952.572 561.41 954.204 560.237 955.047 557.89H965.057C964.25 561.483 962.545 564.307 959.942 566.36C957.339 568.413 954.13 569.44 950.317 569.44C947.31 569.44 944.634 568.798 942.287 567.515C939.977 566.232 938.162 564.398 936.842 562.015C935.559 559.632 934.917 556.845 934.917 553.655ZM988.953 537.98C992.473 537.98 995.296 539.153 997.423 541.5C999.549 543.81 1000.61 547 1000.61 551.07V569H991.263V552.335C991.263 550.282 990.731 548.687 989.668 547.55C988.604 546.413 987.174 545.845 985.378 545.845C983.581 545.845 982.151 546.413 981.088 547.55C980.024 548.687 979.493 550.282 979.493 552.335V569H970.088V528.3H979.493V542.435C980.446 541.078 981.748 539.997 983.398 539.19C985.048 538.383 986.899 537.98 988.953 537.98ZM1036.08 553.16C1036.08 554.04 1036.02 554.957 1035.91 555.91H1014.63C1014.77 557.817 1015.38 559.283 1016.44 560.31C1017.54 561.3 1018.88 561.795 1020.46 561.795C1022.8 561.795 1024.44 560.805 1025.35 558.825H1035.36C1034.85 560.842 1033.91 562.657 1032.56 564.27C1031.24 565.883 1029.57 567.148 1027.55 568.065C1025.54 568.982 1023.28 569.44 1020.79 569.44C1017.78 569.44 1015.1 568.798 1012.76 567.515C1010.41 566.232 1008.58 564.398 1007.26 562.015C1005.94 559.632 1005.28 556.845 1005.28 553.655C1005.28 550.465 1005.92 547.678 1007.2 545.295C1008.52 542.912 1010.36 541.078 1012.7 539.795C1015.05 538.512 1017.74 537.87 1020.79 537.87C1023.76 537.87 1026.4 538.493 1028.71 539.74C1031.02 540.987 1032.81 542.765 1034.1 545.075C1035.42 547.385 1036.08 550.08 1036.08 553.16ZM1026.45 550.685C1026.45 549.072 1025.9 547.788 1024.8 546.835C1023.7 545.882 1022.33 545.405 1020.68 545.405C1019.1 545.405 1017.76 545.863 1016.66 546.78C1015.6 547.697 1014.94 548.998 1014.68 550.685H1026.45Z" fill="#1E5C93"/>
<defs>
<linearGradient id="paint0_linear_410_4402" x1="618.25" y1="14" x2="618.25" y2="359.5" gradientUnits="userSpaceOnUse">
<stop stop-color="#FFC93C"/>
<stop offset="1" stop-color="#F7A76B"/>
</linearGradient>
<linearGradient id="paint1_linear_410_4402" x1="618.25" y1="14" x2="618.25" y2="359.5" gradientUnits="userSpaceOnUse">
<stop stop-color="#FFC93C"/>
<stop offset="1" stop-color="#F7A76B"/>
</linearGradient>
<linearGradient id="paint2_linear_410_4402" x1="618.25" y1="360" x2="618.25" y2="705.5" gradientUnits="userSpaceOnUse">
<stop stop-color="#5788B2"/>
<stop offset="1" stop-color="#1E5C93"/>
</linearGradient>
<linearGradient id="paint3_linear_410_4402" x1="618.25" y1="360" x2="618.25" y2="705.5" gradientUnits="userSpaceOnUse">
<stop stop-color="#5788B2"/>
<stop offset="1" stop-color="#1E5C93"/>
</linearGradient>
</defs>
</svg>
