<svg width="1280" height="720" viewBox="0 0 1280 720" fill="none" xmlns="http://www.w3.org/2000/svg">
<g clip-path="url(#clip0_544_202)">
<rect width="1280" height="720" fill="url(#paint0_linear_544_202)"/>
<path d="M0.078125 0.207031H1280.06V720.197H0.078125V0.207031Z" fill="url(#paint1_linear_544_202)" fill-opacity="0.4"/>
<path d="M255.065 445C279.394 445.002 298.827 463.665 298.829 486.564V486.567C298.825 490.356 298.278 494.124 297.204 497.758L295.772 502.61L300.755 503.58C307.46 504.885 312.962 507.582 316.605 510.811C320.246 514.037 321.995 517.596 322 521.199V521.201C321.999 525.709 319.264 530.114 313.879 533.691C308.493 537.268 300.634 539.678 291.872 539.679C287.52 539.67 283.219 539.062 279.293 537.916L276.927 537.225L275.033 538.798C266.253 546.089 249.409 551.217 231.258 551.223C223.911 551.21 216.649 550.393 210.002 548.847L206.236 547.97L204.704 551.507C200.527 561.152 186.597 568.987 170.217 569C159.907 568.998 150.655 566 144.223 561.453C137.805 556.916 134.314 551.128 134.298 544.983C134.304 544.812 134.313 544.64 134.324 544.468L134.683 539.292L129.484 539.545C127.769 539.629 126.043 539.674 124.315 539.678C112.39 539.677 101.602 537.765 94.2085 534.918C90.5103 533.493 87.6823 531.817 86.0269 530.31C84.3746 528.805 84.0016 527.756 84 526.975C84.0021 526.272 84.3001 525.358 85.6518 524.009C87.0067 522.658 89.3589 521.107 92.512 519.734C98.8188 516.988 108.23 514.917 119.035 514.403L124.586 514.139L123.317 508.749C122.938 507.145 122.734 505.505 122.711 503.857C122.722 494.573 128.357 485.849 138.421 479.146C148.495 472.436 162.826 468.089 178.741 468.088C189.265 468.103 199.579 470.051 208.434 473.643L212.674 475.363L214.443 471.157C221.054 455.435 237.1 445.012 255.063 445.002H255.066L255.065 445Z" fill="white"/>
<path d="M-19.0976 40C-50.6844 40.002 -75.9141 64.2345 -75.9168 93.966V93.9706C-75.9116 98.8894 -75.2014 103.782 -73.8075 108.501L-71.9477 114.8L-78.4169 116.059C-87.1221 117.754 -94.2663 121.255 -98.9958 125.448C-103.723 129.637 -105.993 134.258 -106 138.936V138.938C-105.999 144.791 -102.448 150.51 -95.4557 155.155C-88.4636 159.8 -78.2601 162.929 -66.884 162.93C-61.234 162.919 -55.6494 162.128 -50.5523 160.642L-47.4805 159.744L-45.0217 161.786C-33.6229 171.253 -11.7539 177.911 11.8121 177.918C21.3512 177.902 30.7794 176.841 39.4086 174.834L44.2982 173.695L46.2873 178.288C51.7106 190.81 69.796 200.983 91.0627 201C104.448 200.998 116.461 197.105 124.811 191.201C133.144 185.311 137.676 177.796 137.697 169.817C137.689 169.594 137.678 169.371 137.664 169.148L137.197 162.428L143.948 162.757C146.174 162.866 148.414 162.924 150.658 162.929C166.141 162.928 180.146 160.445 189.746 156.748C194.548 154.898 198.219 152.722 200.368 150.766C202.514 148.811 202.998 147.449 203 146.436C202.997 145.523 202.61 144.335 200.855 142.585C199.096 140.83 196.043 138.816 191.949 137.033C183.761 133.468 171.542 130.78 157.513 130.112L150.307 129.769L151.954 122.77C152.446 120.688 152.71 118.558 152.741 116.419C152.726 104.365 145.41 93.0374 132.344 84.3347C119.265 75.6226 100.658 69.9787 79.9961 69.9774C66.3326 69.996 52.942 72.5258 41.4445 77.1893L35.9399 79.4226L33.6432 73.9616C25.0607 53.549 4.22764 40.0159 -19.0949 40.0027H-19.0983L-19.0976 40Z" fill="white"/>
<path d="M459.652 359.614C439.763 400.354 419.728 515.181 498.696 648.565C577.665 781.948 487.773 867.705 432.956 893.91" stroke="#26A67E" stroke-width="34"/>
<path d="M506.42 266.975C509.361 235.811 575.859 172.625 679.519 182.645C647.228 243.623 576.521 290.428 506.42 266.975Z" fill="url(#paint2_linear_544_202)"/>
<path d="M323.617 342.232C320.677 373.396 254.178 436.582 150.518 426.562C182.81 365.584 253.516 318.779 323.617 342.232Z" fill="url(#paint3_linear_544_202)"/>
<path d="M452.649 396.007C483.813 398.947 546.999 465.446 536.979 569.106C476.001 536.815 429.196 466.108 452.649 396.007Z" fill="url(#paint4_linear_544_202)"/>
<path d="M377.388 213.207C346.224 210.267 283.038 143.769 293.058 40.1084C354.036 72.4 400.841 143.107 377.388 213.207Z" fill="url(#paint5_linear_544_202)"/>
<path d="M448.597 211.637C427.5 188.512 425.419 96.8054 502.517 26.7929C525.958 91.6899 513.083 175.501 448.597 211.637Z" fill="url(#paint6_linear_544_202)"/>
<path d="M381.44 397.574C402.537 420.699 404.619 512.406 327.521 582.418C304.08 517.521 316.955 433.709 381.44 397.574Z" fill="url(#paint7_linear_544_202)"/>
<path d="M349.44 373.827C356.63 396.52 328.822 460.498 253.268 484.248C257.78 431.968 293.396 378.211 349.44 373.827Z" fill="url(#paint8_linear_544_202)"/>
<path d="M490.827 224.001C483.636 201.308 511.444 137.33 586.999 113.581C582.487 165.86 546.871 219.617 490.827 224.001Z" fill="url(#paint9_linear_544_202)"/>
<path d="M339.29 229.962C316.597 237.153 252.62 209.344 228.87 133.79C281.15 138.302 334.907 173.918 339.29 229.962Z" fill="url(#paint10_linear_544_202)"/>
<path d="M489.12 371.347C511.813 364.156 575.79 391.964 599.54 467.519C547.26 463.007 493.503 427.39 489.12 371.347Z" fill="url(#paint11_linear_544_202)"/>
<path d="M517.398 299.757C528.689 278.8 593.984 254.242 663.621 291.968C622.94 325.112 559.551 336.95 517.398 299.757Z" fill="url(#paint12_linear_544_202)"/>
<path d="M311.408 302.505C300.117 323.462 234.823 348.019 165.186 310.294C205.867 277.149 269.256 265.312 311.408 302.505Z" fill="url(#paint13_linear_544_202)"/>
<path d="M417.969 404.071C439.161 414.914 465.101 479.671 428.866 550.095C394.863 510.128 381.68 447.005 417.969 404.071Z" fill="url(#paint14_linear_544_202)"/>
<path d="M410.838 198.19C389.646 187.348 363.706 122.59 399.941 52.1668C433.944 92.1338 447.126 155.257 410.838 198.19Z" fill="url(#paint15_linear_544_202)"/>
<path d="M505.979 343.29C530.239 323.509 621.92 326.52 687.546 407.385C621.448 427.188 538.48 409.681 505.979 343.29Z" fill="url(#paint16_linear_544_202)"/>
<path d="M324.058 265.921C299.798 285.702 208.117 282.69 142.491 201.826C208.589 182.023 291.557 199.53 324.058 265.921Z" fill="url(#paint17_linear_544_202)"/>
<path d="M500.846 245.85C497.169 213.17 551.968 133.894 660.723 121.911C640.626 191.562 577.977 254.896 500.846 245.85Z" fill="url(#paint18_linear_544_202)"/>
<path d="M329.039 362.548C332.716 395.229 277.917 474.504 169.162 486.488C189.259 416.837 251.908 353.502 329.039 362.548Z" fill="url(#paint19_linear_544_202)"/>
<path d="M473.293 390.104C505.973 386.427 585.248 441.226 597.232 549.981C527.581 529.884 464.246 467.236 473.293 390.104Z" fill="url(#paint20_linear_544_202)"/>
<path d="M356.593 218.298C323.912 221.975 244.637 167.176 232.653 58.4213C302.304 78.5179 365.639 141.167 356.593 218.298Z" fill="url(#paint21_linear_544_202)"/>
<path d="M429.485 201.376C402.817 182.131 380.959 88.2704 445.191 -0.304478C483.25 61.3932 488.03 150.35 429.485 201.376Z" fill="url(#paint22_linear_544_202)"/>
<path d="M400.401 407.023C427.068 426.267 448.926 520.128 384.695 608.703C346.635 547.005 341.856 458.048 400.401 407.023Z" fill="url(#paint23_linear_544_202)"/>
<path d="M362.388 389.489C374.661 411.28 359.82 483.051 287.229 523.719C280.629 468.986 305.697 406.047 362.388 389.489Z" fill="url(#paint24_linear_544_202)"/>
<path d="M475.57 205.011C463.297 183.22 478.138 111.449 550.729 70.7811C557.329 125.514 532.261 188.453 475.57 205.011Z" fill="url(#paint25_linear_544_202)"/>
<path d="M321.018 243.724C299.227 255.997 227.456 241.156 186.788 168.565C241.52 161.965 304.46 187.033 321.018 243.724Z" fill="url(#paint26_linear_544_202)"/>
<path d="M505.496 356.905C527.287 344.632 599.058 359.473 639.726 432.064C584.993 438.664 522.054 413.596 505.496 356.905Z" fill="url(#paint27_linear_544_202)"/>
<path d="M519.183 277.2C526.289 253.221 588.155 213.928 667.878 237.751C633.17 280.583 570.528 306.385 519.183 277.2Z" fill="url(#paint28_linear_544_202)"/>
<path d="M307.942 324.319C300.837 348.298 238.971 387.591 159.247 363.768C193.956 320.937 256.598 295.135 307.942 324.319Z" fill="url(#paint29_linear_544_202)"/>
<path d="M439.362 405.853C463.487 412.447 504.086 473.463 481.965 553.675C438.405 519.885 411.276 457.806 439.362 405.853Z" fill="url(#paint30_linear_544_202)"/>
<path d="M387.764 195.667C363.639 189.073 323.04 128.056 345.161 47.8443C388.721 81.6342 415.85 143.713 387.764 195.667Z" fill="url(#paint31_linear_544_202)"/>
<path d="M516.8 324.427C537.496 298.868 632.425 282.253 717.298 351.301C653.583 385.878 564.498 385.713 516.8 324.427Z" fill="url(#paint32_linear_544_202)"/>
<path d="M313.085 283.976C292.39 309.534 197.461 326.149 112.587 257.101C176.302 222.525 265.387 222.689 313.085 283.976Z" fill="url(#paint33_linear_544_202)"/>
<circle cx="414.087" cy="304.195" r="134.5" fill="url(#paint34_radial_544_202)"/>
<path d="M391.187 301.821C370.464 277.833 323.615 290.926 326.412 328.306" stroke="#4E2820" stroke-width="5"/>
<path d="M508.01 268.102C488.74 242.931 441.2 253.234 441.783 290.714" stroke="#4E2820" stroke-width="5"/>
<path d="M377.587 331.195L467.087 318.195L444.156 384.167C440.15 395.69 424.795 397.867 417.745 387.91L377.587 331.195Z" fill="#E35F61" stroke="#4E2820" stroke-width="5"/>
<path d="M530.229 712.07C512.381 674.949 523.5 587.365 710.761 534.002C681.097 656.129 650.85 707.068 530.229 712.07Z" fill="#26A67E"/>
<path d="M503.261 681.324C479.928 715.267 398.41 749.169 259 613.231C379.71 578.243 438.945 579.159 503.261 681.324Z" fill="#26A67E"/>
<path d="M859.065 118C883.394 118.002 902.827 136.665 902.829 159.564V159.567C902.825 163.356 902.278 167.124 901.204 170.758L899.772 175.61L904.755 176.58C911.46 177.885 916.962 180.582 920.605 183.811C924.246 187.037 925.995 190.596 926 194.199V194.201C925.999 198.709 923.264 203.114 917.879 206.691C912.493 210.268 904.634 212.678 895.872 212.679C891.52 212.67 887.219 212.062 883.293 210.916L880.927 210.225L879.033 211.798C870.253 219.089 853.409 224.217 835.258 224.223C827.911 224.21 820.649 223.393 814.002 221.847L810.236 220.97L808.704 224.507C804.527 234.152 790.597 241.987 774.217 242C763.907 241.998 754.655 239 748.223 234.453C741.805 229.916 738.314 224.128 738.298 217.983C738.304 217.812 738.313 217.64 738.324 217.468L738.683 212.292L733.484 212.545C731.769 212.629 730.043 212.674 728.315 212.678C716.39 212.677 705.602 210.765 698.209 207.918C694.51 206.493 691.682 204.817 690.027 203.31C688.375 201.805 688.002 200.756 688 199.975C688.002 199.272 688.3 198.358 689.652 197.009C691.007 195.658 693.359 194.107 696.512 192.734C702.819 189.988 712.23 187.917 723.035 187.403L728.586 187.139L727.317 181.749C726.938 180.145 726.734 178.505 726.711 176.857C726.722 167.573 732.357 158.849 742.421 152.146C752.495 145.436 766.826 141.089 782.741 141.088C793.265 141.103 803.579 143.051 812.434 146.643L816.674 148.363L818.443 144.157C825.054 128.435 841.1 118.012 859.063 118.002H859.066L859.065 118Z" fill="white"/>
<path d="M974.714 372C932.291 372.003 898.407 404.664 898.403 444.737V444.743C898.41 451.373 899.364 457.967 901.236 464.327L903.734 472.817L895.045 474.514C883.354 476.799 873.759 481.518 867.407 487.169C861.058 492.815 858.009 499.043 858 505.349V505.351C858.002 513.241 862.771 520.949 872.161 527.209C881.552 533.47 895.256 537.686 910.534 537.688C918.123 537.673 925.623 536.608 932.469 534.604L936.594 533.394L939.896 536.146C955.205 548.907 984.577 557.881 1016.23 557.89C1029.04 557.868 1041.7 556.438 1053.29 553.733L1059.86 552.197L1062.53 558.388C1069.81 575.266 1094.1 588.978 1122.66 589C1140.64 588.997 1156.77 583.75 1167.99 575.793C1179.18 567.854 1185.27 557.725 1185.3 546.971C1185.28 546.671 1185.27 546.37 1185.25 546.068L1184.62 537.011L1193.69 537.454C1196.68 537.601 1199.69 537.68 1202.7 537.687C1223.5 537.686 1242.31 534.339 1255.2 529.356C1261.65 526.862 1266.58 523.93 1269.47 521.293C1272.35 518.659 1273 516.822 1273 515.457C1273 514.226 1272.48 512.626 1270.12 510.266C1267.76 507.901 1263.66 505.187 1258.16 502.784C1247.16 497.979 1230.75 494.355 1211.91 493.456L1202.23 492.994L1204.44 483.56C1205.1 480.753 1205.46 477.883 1205.5 475C1205.48 458.753 1195.65 443.485 1178.11 431.755C1160.54 420.013 1135.55 412.406 1107.8 412.404C1089.45 412.429 1071.47 415.839 1056.02 422.125L1048.63 425.135L1045.55 417.774C1034.02 390.262 1006.04 372.021 974.717 372.004H974.713L974.714 372Z" fill="white"/>
<g opacity="0.5" style="mix-blend-mode:hard-light">
<circle cx="1111.5" cy="168.5" r="168.5" fill="url(#paint35_radial_544_202)"/>
</g>
<path d="M1106.39 91.0517L1104.09 88.8147V71.7743C1104.09 53.2972 1104.09 52.6971 1107.42 50.2238C1110.35 47.9869 1116.34 48.9507 1118.37 52.0242C1119.98 54.4611 1120.13 56.6978 1119.7 72.8835L1119.27 88.9602L1117.07 91.1244C1115.07 93.0703 1114.55 93.2703 1111.77 93.2703C1108.97 93.2703 1108.46 93.0703 1106.39 91.0517Z" fill="#FDC147"/>
<path d="M1051.42 114.908C1048.77 114.157 1026.83 93.2398 1025.65 90.3612C1025.07 89.1013 1024.9 87.7092 1025.16 86.3591C1025.42 85.009 1026.09 83.7606 1027.1 82.7702C1028.1 81.7798 1029.4 81.0913 1030.82 80.7907C1032.23 80.49 1033.72 80.5907 1035.07 81.08C1038.14 82.0745 1058.92 101.509 1060.59 104.928C1061.07 105.812 1061.34 106.78 1061.4 107.771C1061.45 108.762 1061.28 109.752 1060.91 110.678C1060.53 111.603 1059.95 112.443 1059.2 113.142C1058.45 113.84 1057.56 114.383 1056.57 114.733C1054.41 115.588 1053.87 115.605 1051.42 114.908Z" fill="#FDC147"/>
<path d="M1166.11 115.892C1164.78 114.964 1163.79 113.628 1163.28 112.082C1161.49 107.325 1162.37 105.987 1176.33 92.4028C1188.25 80.807 1188.49 80.6211 1190.95 80.6211C1196.88 80.6211 1200.77 86.6047 1198.11 91.6593C1197.12 93.5548 1175.43 115.446 1173.61 116.375C1172.4 116.849 1171.1 117.051 1169.81 116.968C1168.51 116.884 1167.25 116.517 1166.11 115.892Z" fill="#FDC147"/>
<path d="M1106.39 240.948L1104.09 243.185V260.226C1104.09 278.703 1104.09 279.303 1107.42 281.776C1110.35 284.013 1116.34 283.049 1118.37 279.976C1119.98 277.539 1120.13 275.302 1119.7 259.116L1119.27 243.04L1117.07 240.876C1115.07 238.93 1114.55 238.73 1111.77 238.73C1108.97 238.73 1108.46 238.93 1106.39 240.948Z" fill="#FDC147"/>
<path d="M1051.42 217.092C1048.77 217.843 1026.83 238.76 1025.65 241.639C1025.07 242.899 1024.9 244.291 1025.16 245.641C1025.42 246.991 1026.09 248.239 1027.1 249.23C1028.1 250.22 1029.4 250.909 1030.82 251.209C1032.23 251.51 1033.72 251.409 1035.07 250.92C1038.14 249.926 1058.92 230.491 1060.59 227.072C1061.07 226.188 1061.34 225.22 1061.4 224.229C1061.45 223.238 1061.28 222.248 1060.91 221.322C1060.53 220.397 1059.95 219.557 1059.2 218.858C1058.45 218.16 1057.56 217.617 1056.57 217.267C1054.41 216.412 1053.87 216.395 1051.42 217.092Z" fill="#FDC147"/>
<path d="M1166.11 216.108C1164.78 217.036 1163.79 218.372 1163.28 219.918C1161.49 224.675 1162.37 226.013 1176.33 239.597C1188.25 251.193 1188.49 251.379 1190.95 251.379C1196.88 251.379 1200.77 245.395 1198.11 240.341C1197.12 238.445 1175.43 216.554 1173.61 215.625C1172.4 215.151 1171.1 214.949 1169.81 215.032C1168.51 215.116 1167.25 215.483 1166.11 216.108Z" fill="#FDC147"/>
<path d="M1007.99 172.072L998.918 171.732L996.959 169.741C995.273 168.005 995 167.359 995 165.027C995 162.696 995.272 162.05 996.977 160.314L998.936 158.306L1016.31 158.153C1032.76 158.017 1033.79 158.068 1035.53 159.072C1038.12 160.569 1039.32 162.543 1039.27 165.266C1039.29 166.469 1038.98 167.657 1038.37 168.716C1037.76 169.774 1036.87 170.667 1035.79 171.306C1034.48 172.123 1032.98 172.276 1025.67 172.327C1020.95 172.327 1012.97 172.225 1008 172.055L1007.99 172.072Z" fill="#FDC147"/>
<path d="M1197.72 172.072L1188.65 171.732L1186.69 169.741C1185 168.005 1184.73 167.359 1184.73 165.027C1184.73 162.696 1185 162.05 1186.71 160.314L1188.67 158.306L1206.04 158.153C1222.49 158.017 1223.52 158.068 1225.26 159.072C1227.85 160.569 1229.05 162.543 1229 165.266C1229.02 166.469 1228.71 167.657 1228.1 168.716C1227.49 169.774 1226.6 170.667 1225.52 171.306C1224.21 172.123 1222.71 172.276 1215.4 172.327C1210.68 172.327 1202.7 172.225 1197.73 172.055L1197.72 172.072Z" fill="#FDC147"/>
<path d="M1126.3 222.799C1134.39 220.857 1141.97 217.288 1148.59 212.315C1155.21 207.343 1160.71 201.075 1164.76 193.905C1173.75 178.061 1174.52 157.224 1166.73 140.587C1163.96 134.441 1160.04 128.864 1155.18 124.148C1149.96 118.687 1143.68 114.322 1136.71 111.314C1125.96 106.337 1113.91 104.751 1102.22 106.772C1054.82 114.937 1035.44 171.175 1068.21 205.477C1083.68 221.664 1104.38 227.828 1126.3 222.781V222.799Z" fill="#FDC147"/>
<path d="M735.6 309.568C733.708 310.568 731.548 310.897 729.472 310.501C727.396 310.105 725.527 309.008 724.169 307.387C720.804 303.527 720.972 300.492 724.949 292.174C731.746 278.613 735.616 263.79 736.3 248.703C737.999 213.452 720.686 178.164 692.9 160.242C689.681 158.152 685.903 155.638 684.492 154.596C677.619 149.49 679.848 139.311 688.336 137.025C690.839 136.369 691.986 136.557 695.579 138.313C703.967 142.342 716.486 152.461 725.294 162.308C758.349 199.269 765.472 254.966 742.845 299.474C738.573 307.843 738.323 308.192 735.6 309.568Z" fill="#FF7B54"/>
<path d="M766.591 330.285C757.452 333.011 750.926 324.096 755.772 315.515C756.838 313.627 759.235 308.671 761.145 304.436C770.562 283.581 775.074 260.9 774.315 238.234C773.556 215.569 767.547 193.559 756.775 173.992C746.369 154.889 731.338 138.764 711.65 125.627C706.267 122.034 701.638 118.479 700.969 117.437C698.353 113.303 699.639 107.804 704.025 104.442C708.744 100.825 710.756 101.243 721.277 107.82C753.397 127.894 776.68 159.165 787.807 197.131C799.622 237.479 794.335 286.127 774.289 321.627L769.965 329.285L766.591 330.285Z" fill="#FF7B54"/>
<path d="M176.017 524.511C178.088 523.97 179.903 522.753 181.165 521.058C182.428 519.364 183.064 517.292 182.97 515.18C182.842 510.06 180.667 507.936 172.115 504.492C157.941 499.089 145.072 490.778 134.372 480.119C109.299 455.282 98.216 417.57 106.587 385.583C107.548 381.868 108.634 377.462 108.97 375.74C110.586 367.332 102.065 361.335 94.263 365.386C91.9748 366.593 91.256 367.506 89.7944 371.229C86.3336 379.867 83.9429 395.786 84.1045 408.996C84.7145 458.579 117.101 504.448 163.856 521.967C172.661 525.249 173.081 525.337 176.017 524.511Z" fill="#FF7B54"/>
<path d="M167.172 560.721C175.75 556.555 174.537 545.574 165.167 542.523C163.105 541.851 157.989 539.818 153.72 537.987C132.685 528.977 114.032 515.307 99.2757 498.087C84.5195 480.866 74.0758 460.581 68.7936 438.878C63.5559 417.765 63.7391 395.722 69.3746 372.734C70.9147 366.448 71.9247 360.7 71.7139 359.479C70.8491 354.664 66.1852 351.479 60.68 351.966C54.7578 352.488 53.5566 354.155 50.2456 366.113C40.1335 402.616 44.1022 441.4 61.5555 476.905C80.1101 514.631 116.882 546.919 155.647 559.541L164.009 562.264L167.172 560.721Z" fill="#FF7B54"/>
<path d="M782 471.457C782 480.237 774.928 487.356 766.205 487.356C757.486 487.356 750.409 480.245 750.409 471.457C750.409 462.673 757.478 455.558 766.205 455.558C774.935 455.558 782 462.673 782 471.457Z" fill="#FF7B54"/>
<path d="M721.191 394V474.315V394Z" fill="#FF7B54"/>
<path d="M779.214 394V474.315V394Z" fill="#FF7B54"/>
<path d="M723.591 479.101C723.591 487.882 716.518 495 707.795 495C699.076 495 692 487.89 692 479.101C692 470.318 699.068 463.203 707.795 463.203C716.522 463.203 723.591 470.318 723.591 479.101Z" fill="#FF7B54"/>
<path d="M721.191 394H779.376V412.404H721.191L721.191 394Z" fill="#FF7B54"/>
<path d="M721.191 394V474.315M721.191 394H779.376V412.404H721.191L721.191 394ZM779.214 394V474.315M782 471.457C782 480.237 774.928 487.356 766.205 487.356C757.486 487.356 750.409 480.245 750.409 471.457C750.409 462.673 757.478 455.558 766.205 455.558C774.935 455.558 782 462.673 782 471.457ZM723.591 479.101C723.591 487.882 716.518 495 707.795 495C699.076 495 692 487.89 692 479.101C692 470.318 699.068 463.203 707.795 463.203C716.522 463.203 723.591 470.318 723.591 479.101Z" stroke="#FF7B54" stroke-width="5" stroke-miterlimit="10"/>
<path d="M90 273.953C90 281.43 83.9496 287.491 76.4864 287.491C69.0269 287.491 62.9725 281.436 62.9725 273.953C62.9725 266.474 69.0204 260.416 76.4864 260.416C83.9555 260.416 90 266.474 90 273.953Z" fill="#FF7B54"/>
<path d="M37.9742 208V276.387V208Z" fill="#FF7B54"/>
<path d="M87.6164 208V276.387V208Z" fill="#FF7B54"/>
<path d="M40.0275 280.463C40.0275 287.939 33.9761 294 26.5136 294C19.0537 294 13 287.946 13 280.463C13 272.984 19.0469 266.925 26.5139 266.925C33.9795 266.925 40.0275 272.984 40.0275 280.463Z" fill="#FF7B54"/>
<path d="M37.9742 208H87.7546V223.671H37.9745L37.9742 208Z" fill="#FF7B54"/>
<path d="M37.9742 208V276.387M37.9742 208H87.7546V223.671H37.9745L37.9742 208ZM87.6164 208V276.387M90 273.953C90 281.43 83.9496 287.491 76.4864 287.491C69.0269 287.491 62.9725 281.436 62.9725 273.953C62.9725 266.474 69.0204 260.416 76.4864 260.416C83.9555 260.416 90 266.474 90 273.953ZM40.0275 280.463C40.0275 287.939 33.9761 294 26.5136 294C19.0537 294 13 287.946 13 280.463C13 272.984 19.0469 266.925 26.5139 266.925C33.9795 266.925 40.0275 272.984 40.0275 280.463Z" stroke="#FF7B54" stroke-width="5" stroke-miterlimit="10"/>
<path d="M627 21V73.9664V21Z" fill="#FF7B54"/>
<path d="M627 74.5191C627 80.3078 622.3 85 616.501 85C610.7 85 606 80.3078 606 74.5191C606 68.7299 610.7 64.0376 616.501 64.0376C622.3 64.0376 627 68.7299 627 74.5191Z" fill="#FF7B54"/>
<path d="M627 21V73.9664M627 74.5191C627 80.3078 622.3 85 616.501 85C610.7 85 606 80.3078 606 74.5191C606 68.7298 610.7 64.0376 616.501 64.0376C622.3 64.0376 627 68.7298 627 74.5191Z" stroke="#FF7B54" stroke-width="5"/>
<g filter="url(#filter0_d_544_202)">
<rect x="831" y="397" width="373" height="188" rx="30" fill="url(#paint36_linear_544_202)"/>
</g>
<g filter="url(#filter1_di_544_202)">
<path d="M898.699 444.584C898.699 447.011 898.142 449.24 897.028 451.27C895.913 453.26 894.202 454.872 891.894 456.105C889.585 457.339 886.72 457.956 883.297 457.956H876.969V473H866.761V431.092H883.297C886.64 431.092 889.466 431.669 891.774 432.823C894.083 433.977 895.814 435.569 896.968 437.599C898.122 439.629 898.699 441.957 898.699 444.584ZM882.521 449.837C884.471 449.837 885.924 449.379 886.879 448.464C887.834 447.549 888.312 446.255 888.312 444.584C888.312 442.912 887.834 441.619 886.879 440.703C885.924 439.788 884.471 439.33 882.521 439.33H876.969V449.837H882.521ZM919.177 473.478C915.914 473.478 912.968 472.781 910.342 471.388C907.755 469.995 905.705 468.005 904.193 465.418C902.72 462.831 901.984 459.807 901.984 456.344C901.984 452.922 902.74 449.917 904.253 447.33C905.765 444.703 907.834 442.693 910.461 441.3C913.088 439.907 916.033 439.211 919.296 439.211C922.56 439.211 925.505 439.907 928.132 441.3C930.758 442.693 932.828 444.703 934.34 447.33C935.853 449.917 936.609 452.922 936.609 456.344C936.609 459.767 935.833 462.792 934.281 465.418C932.768 468.005 930.679 469.995 928.012 471.388C925.386 472.781 922.441 473.478 919.177 473.478ZM919.177 464.642C921.127 464.642 922.779 463.926 924.132 462.493C925.525 461.06 926.221 459.011 926.221 456.344C926.221 453.678 925.545 451.628 924.192 450.195C922.878 448.763 921.247 448.046 919.296 448.046C917.307 448.046 915.655 448.763 914.342 450.195C913.028 451.588 912.372 453.638 912.372 456.344C912.372 459.011 913.008 461.06 914.282 462.493C915.595 463.926 917.227 464.642 919.177 464.642ZM955.576 473.478C952.671 473.478 950.084 472.98 947.815 471.985C945.547 470.99 943.756 469.637 942.443 467.926C941.129 466.175 940.393 464.224 940.234 462.075H950.323C950.442 463.229 950.979 464.165 951.934 464.881C952.89 465.597 954.064 465.956 955.457 465.956C956.73 465.956 957.705 465.717 958.382 465.239C959.098 464.722 959.456 464.065 959.456 463.269C959.456 462.314 958.959 461.618 957.964 461.18C956.969 460.702 955.357 460.185 953.128 459.628C950.741 459.07 948.751 458.493 947.159 457.896C945.567 457.26 944.194 456.285 943.039 454.971C941.885 453.618 941.308 451.807 941.308 449.539C941.308 447.628 941.826 445.897 942.86 444.345C943.935 442.753 945.487 441.499 947.517 440.584C949.586 439.669 952.034 439.211 954.86 439.211C959.039 439.211 962.322 440.246 964.71 442.315C967.138 444.385 968.531 447.131 968.889 450.554H959.456C959.297 449.399 958.78 448.484 957.904 447.807C957.069 447.131 955.954 446.793 954.561 446.793C953.367 446.793 952.452 447.031 951.815 447.509C951.178 447.947 950.86 448.564 950.86 449.36C950.86 450.315 951.357 451.031 952.352 451.509C953.387 451.986 954.979 452.464 957.128 452.941C959.596 453.578 961.606 454.215 963.158 454.852C964.71 455.449 966.063 456.444 967.217 457.837C968.411 459.19 969.028 461.021 969.068 463.329C969.068 465.279 968.511 467.03 967.396 468.582C966.322 470.095 964.75 471.289 962.68 472.164C960.65 473.04 958.282 473.478 955.576 473.478ZM993.879 464.344V473H988.686C984.984 473 982.099 472.105 980.029 470.314C977.96 468.483 976.925 465.518 976.925 461.419V448.166H972.866V439.689H976.925V431.57H987.133V439.689H993.82V448.166H987.133V461.538C987.133 462.533 987.372 463.249 987.85 463.687C988.327 464.125 989.123 464.344 990.238 464.344H993.879ZM1009.77 444.405C1010.77 442.853 1012.14 441.599 1013.89 440.644C1015.64 439.689 1017.69 439.211 1020.04 439.211C1022.79 439.211 1025.28 439.907 1027.5 441.3C1029.73 442.693 1031.48 444.683 1032.76 447.27C1034.07 449.857 1034.73 452.862 1034.73 456.285C1034.73 459.707 1034.07 462.732 1032.76 465.359C1031.48 467.946 1029.73 469.955 1027.5 471.388C1025.28 472.781 1022.79 473.478 1020.04 473.478C1017.73 473.478 1015.68 473 1013.89 472.045C1012.14 471.09 1010.77 469.856 1009.77 468.344V488.88H999.566V439.689H1009.77V444.405ZM1024.34 456.285C1024.34 453.737 1023.62 451.748 1022.19 450.315C1020.8 448.842 1019.07 448.106 1017 448.106C1014.97 448.106 1013.24 448.842 1011.8 450.315C1010.41 451.787 1009.71 453.797 1009.71 456.344C1009.71 458.891 1010.41 460.901 1011.8 462.374C1013.24 463.846 1014.97 464.583 1017 464.583C1019.03 464.583 1020.76 463.846 1022.19 462.374C1023.62 460.861 1024.34 458.832 1024.34 456.285ZM1055.25 473.478C1051.98 473.478 1049.04 472.781 1046.41 471.388C1043.82 469.995 1041.77 468.005 1040.26 465.418C1038.79 462.831 1038.05 459.807 1038.05 456.344C1038.05 452.922 1038.81 449.917 1040.32 447.33C1041.83 444.703 1043.9 442.693 1046.53 441.3C1049.16 439.907 1052.1 439.211 1055.37 439.211C1058.63 439.211 1061.57 439.907 1064.2 441.3C1066.83 442.693 1068.9 444.703 1070.41 447.33C1071.92 449.917 1072.68 452.922 1072.68 456.344C1072.68 459.767 1071.9 462.792 1070.35 465.418C1068.84 468.005 1066.75 469.995 1064.08 471.388C1061.46 472.781 1058.51 473.478 1055.25 473.478ZM1055.25 464.642C1057.2 464.642 1058.85 463.926 1060.2 462.493C1061.59 461.06 1062.29 459.011 1062.29 456.344C1062.29 453.678 1061.61 451.628 1060.26 450.195C1058.95 448.763 1057.32 448.046 1055.37 448.046C1053.38 448.046 1051.72 448.763 1050.41 450.195C1049.1 451.588 1048.44 453.638 1048.44 456.344C1048.44 459.011 1049.08 461.06 1050.35 462.493C1051.66 463.926 1053.3 464.642 1055.25 464.642ZM1098.39 439.33C1102.29 439.33 1105.4 440.604 1107.7 443.151C1110.05 445.658 1111.23 449.121 1111.23 453.538V473H1101.08V454.912C1101.08 452.683 1100.5 450.952 1099.35 449.718C1098.19 448.484 1096.64 447.867 1094.69 447.867C1092.74 447.867 1091.19 448.484 1090.03 449.718C1088.88 450.952 1088.3 452.683 1088.3 454.912V473H1078.09V439.689H1088.3V444.106C1089.34 442.634 1090.73 441.479 1092.48 440.644C1094.23 439.768 1096.2 439.33 1098.39 439.33ZM1149.72 455.807C1149.72 456.762 1149.66 457.757 1149.54 458.792H1126.44C1126.6 460.861 1127.26 462.453 1128.41 463.568C1129.6 464.642 1131.06 465.18 1132.77 465.18C1135.31 465.18 1137.09 464.105 1138.08 461.956H1148.95C1148.39 464.145 1147.37 466.115 1145.9 467.866C1144.47 469.617 1142.66 470.99 1140.47 471.985C1138.28 472.98 1135.83 473.478 1133.13 473.478C1129.86 473.478 1126.96 472.781 1124.41 471.388C1121.86 469.995 1119.87 468.005 1118.44 465.418C1117.01 462.831 1116.29 459.807 1116.29 456.344C1116.29 452.882 1116.99 449.857 1118.38 447.27C1119.81 444.683 1121.8 442.693 1124.35 441.3C1126.9 439.907 1129.82 439.211 1133.13 439.211C1136.35 439.211 1139.21 439.888 1141.72 441.241C1144.23 442.594 1146.18 444.524 1147.57 447.031C1149.01 449.539 1149.72 452.464 1149.72 455.807ZM1139.27 453.121C1139.27 451.369 1138.68 449.976 1137.48 448.942C1136.29 447.907 1134.8 447.39 1133.01 447.39C1131.29 447.39 1129.84 447.887 1128.65 448.882C1127.49 449.877 1126.78 451.29 1126.5 453.121H1139.27ZM1165.32 445.24C1166.51 443.41 1168 441.977 1169.79 440.942C1171.58 439.868 1173.57 439.33 1175.76 439.33V450.136H1172.96C1170.41 450.136 1168.5 450.693 1167.23 451.807C1165.95 452.882 1165.32 454.792 1165.32 457.538V473H1155.11V439.689H1165.32V445.24ZM985.856 538.583H1000.3V547H974.454V538.881L988.304 522.106H974.573V513.689H1000V521.807L985.856 538.583ZM1016.79 538.642H1034.81V547H1005.2V539.239L1023.11 513.45H1005.2V505.092H1034.81V512.853L1016.79 538.642ZM1051.03 538.583H1065.48V547H1039.63V538.881L1053.48 522.106H1039.75V513.689H1065.18V521.807L1051.03 538.583Z" fill="#ECFAFF"/>
</g>
<path d="M1132 587.5V614.5L1115.5 605.5H1109.5L1105.5 610V614.5L1109.5 624L1129.5 643.5L1146 658.5L1163.5 665L1183.5 658.5L1193.5 653.5L1199 636V601L1195.5 597.5H1183.5L1177 594H1163.5L1161 590.5L1155.5 587.5L1158 582.5L1163.5 579.5V570V556L1158 541.5H1144H1129.5L1117.5 556V574.5L1132 587.5Z" fill="#ECFAFF"/>
<path d="M1191.52 592.188C1193.25 592.188 1194.88 592.512 1196.39 593.162C1197.91 593.811 1199.23 594.699 1200.36 595.824C1201.49 596.95 1202.38 598.27 1203.02 599.786C1203.67 601.301 1204 602.924 1204 604.656V629.594C1204 634.746 1203.02 639.595 1201.07 644.141C1199.12 648.687 1196.44 652.648 1193.01 656.025C1189.59 659.402 1185.63 662.064 1181.12 664.013C1176.61 665.961 1171.76 666.957 1166.56 667C1160.32 667 1154.51 665.809 1149.14 663.428C1143.77 661.047 1138.87 657.67 1134.45 653.297L1103.77 622.645C1102.56 621.433 1101.62 620.026 1100.97 618.424C1100.32 616.822 1100 615.177 1100 613.488C1100 611.67 1100.35 609.981 1101.04 608.423C1101.73 606.864 1102.66 605.479 1103.83 604.267C1105 603.054 1106.37 602.145 1107.93 601.539C1109.49 600.933 1111.18 600.587 1113 600.5C1116.55 600.5 1119.61 601.777 1122.16 604.332L1129.12 611.215V589.395C1126.56 588.183 1124.27 586.667 1122.23 584.849C1120.19 583.031 1118.46 580.974 1117.03 578.68C1115.6 576.385 1114.47 573.917 1113.65 571.276C1112.83 568.635 1112.44 565.908 1112.48 563.094C1112.48 559.067 1113.24 555.301 1114.75 551.794C1116.27 548.287 1118.35 545.192 1120.99 542.507C1123.64 539.823 1126.71 537.745 1130.22 536.273C1133.74 534.801 1137.53 534.043 1141.6 534C1145.63 534 1149.4 534.758 1152.91 536.273C1156.42 537.788 1159.52 539.866 1162.2 542.507C1164.89 545.148 1166.97 548.222 1168.44 551.729C1169.92 555.236 1170.68 559.024 1170.72 563.094C1170.72 567.12 1169.92 570.973 1168.31 574.653C1166.71 578.333 1164.44 581.559 1161.49 584.33C1163.01 584.719 1164.37 585.369 1165.58 586.278C1166.8 587.187 1167.86 588.313 1168.77 589.655C1170.72 588.572 1172.76 588.031 1174.88 588.031C1177.05 588.031 1179.06 588.529 1180.92 589.525C1182.79 590.521 1184.28 591.949 1185.41 593.811C1187.36 592.729 1189.4 592.188 1191.52 592.188ZM1120.8 563.094C1120.8 566.341 1121.54 569.436 1123.01 572.38C1124.48 575.324 1126.52 577.771 1129.12 579.719V563.094C1129.12 561.362 1129.44 559.738 1130.09 558.223C1130.74 556.708 1131.63 555.387 1132.76 554.262C1133.89 553.136 1135.21 552.249 1136.72 551.599C1138.24 550.95 1139.87 550.625 1141.6 550.625C1143.33 550.625 1144.96 550.95 1146.47 551.599C1147.99 552.249 1149.31 553.136 1150.44 554.262C1151.57 555.387 1152.45 556.708 1153.1 558.223C1153.75 559.738 1154.08 561.362 1154.08 563.094V579.719C1156.68 577.771 1158.72 575.324 1160.19 572.38C1161.66 569.436 1162.4 566.341 1162.4 563.094C1162.4 560.236 1161.86 557.552 1160.77 555.041C1159.69 552.53 1158.2 550.344 1156.29 548.482C1154.38 546.62 1152.17 545.127 1149.66 544.001C1147.15 542.875 1144.46 542.312 1141.6 542.312C1138.74 542.312 1136.05 542.854 1133.54 543.936C1131.03 545.018 1128.82 546.512 1126.91 548.417C1125 550.322 1123.51 552.53 1122.42 555.041C1121.34 557.552 1120.8 560.236 1120.8 563.094ZM1195.68 604.656C1195.68 603.531 1195.27 602.556 1194.44 601.734C1193.62 600.911 1192.65 600.5 1191.52 600.5C1190.05 600.5 1189.03 600.911 1188.46 601.734C1187.9 602.556 1187.56 603.574 1187.42 604.786C1187.29 605.998 1187.27 607.34 1187.36 608.812C1187.45 610.285 1187.45 611.605 1187.36 612.774C1187.27 613.943 1186.93 614.982 1186.32 615.891C1185.71 616.8 1184.67 617.212 1183.2 617.125C1181.6 617.125 1180.51 616.627 1179.95 615.631C1179.39 614.636 1179.04 613.337 1178.91 611.735C1178.78 610.133 1178.82 608.466 1179.04 606.734C1179.26 605.003 1179.3 603.336 1179.17 601.734C1179.04 600.132 1178.71 598.855 1178.19 597.902C1177.67 596.95 1176.57 596.43 1174.88 596.344C1173.41 596.344 1172.39 596.755 1171.82 597.578C1171.26 598.4 1170.92 599.418 1170.78 600.63C1170.65 601.842 1170.63 603.184 1170.72 604.656C1170.81 606.128 1170.81 607.449 1170.72 608.618C1170.63 609.787 1170.29 610.826 1169.68 611.735C1169.07 612.644 1168.03 613.055 1166.56 612.969C1164.96 612.969 1163.87 612.471 1163.31 611.475C1162.75 610.479 1162.4 609.181 1162.27 607.579C1162.14 605.977 1162.18 604.31 1162.4 602.578C1162.62 600.846 1162.66 599.18 1162.53 597.578C1162.4 595.976 1162.07 594.699 1161.55 593.746C1161.03 592.794 1159.93 592.274 1158.24 592.188C1156.77 592.188 1155.75 592.599 1155.18 593.421C1154.62 594.244 1154.27 595.261 1154.14 596.474C1154.01 597.686 1153.99 599.028 1154.08 600.5C1154.17 601.972 1154.17 603.292 1154.08 604.461C1153.99 605.63 1153.65 606.669 1153.04 607.579C1152.43 608.488 1151.39 608.899 1149.92 608.812C1148.79 608.812 1147.82 608.401 1146.99 607.579C1146.17 606.756 1145.76 605.782 1145.76 604.656V563.094C1145.76 561.968 1145.35 560.994 1144.52 560.171C1143.7 559.349 1142.73 558.938 1141.6 558.938C1140.47 558.938 1139.5 559.349 1138.67 560.171C1137.85 560.994 1137.44 561.968 1137.44 563.094V614.203C1137.44 615.198 1137.27 616.108 1136.92 616.93C1136.57 617.753 1136.07 618.51 1135.42 619.203C1134.77 619.896 1134.02 620.394 1133.15 620.697C1132.28 621 1131.37 621.195 1130.42 621.281C1129.47 621.281 1128.56 621.108 1127.69 620.762C1126.82 620.415 1126.02 619.896 1125.28 619.203L1116.25 610.176C1115.34 609.267 1114.26 608.812 1113 608.812C1111.74 608.812 1110.66 609.267 1109.75 610.176C1108.84 611.085 1108.36 612.189 1108.32 613.488C1108.32 614.744 1108.77 615.826 1109.68 616.735L1140.36 647.453C1144 651.089 1147.99 653.86 1152.32 655.765C1156.66 657.67 1161.4 658.644 1166.56 658.688C1170.59 658.688 1174.36 657.93 1177.87 656.415C1181.38 654.899 1184.46 652.821 1187.1 650.18C1189.74 647.539 1191.82 644.465 1193.34 640.958C1194.86 637.452 1195.64 633.663 1195.68 629.594V604.656Z" fill="#1E5C93"/>
</g>
<defs>
<filter id="filter0_d_544_202" x="827" y="397" width="381" height="196" filterUnits="userSpaceOnUse" color-interpolation-filters="sRGB">
<feFlood flood-opacity="0" result="BackgroundImageFix"/>
<feColorMatrix in="SourceAlpha" type="matrix" values="0 0 0 0 0 0 0 0 0 0 0 0 0 0 0 0 0 0 127 0" result="hardAlpha"/>
<feOffset dy="4"/>
<feGaussianBlur stdDeviation="2"/>
<feComposite in2="hardAlpha" operator="out"/>
<feColorMatrix type="matrix" values="0 0 0 0 0 0 0 0 0 0 0 0 0 0 0 0 0 0 0.25 0"/>
<feBlend mode="normal" in2="BackgroundImageFix" result="effect1_dropShadow_544_202"/>
<feBlend mode="normal" in="SourceGraphic" in2="effect1_dropShadow_544_202" result="shape"/>
</filter>
<filter id="filter1_di_544_202" x="862.761" y="431.094" width="317.002" height="123.906" filterUnits="userSpaceOnUse" color-interpolation-filters="sRGB">
<feFlood flood-opacity="0" result="BackgroundImageFix"/>
<feColorMatrix in="SourceAlpha" type="matrix" values="0 0 0 0 0 0 0 0 0 0 0 0 0 0 0 0 0 0 127 0" result="hardAlpha"/>
<feOffset dy="4"/>
<feGaussianBlur stdDeviation="2"/>
<feComposite in2="hardAlpha" operator="out"/>
<feColorMatrix type="matrix" values="0 0 0 0 0 0 0 0 0 0 0 0 0 0 0 0 0 0 0.25 0"/>
<feBlend mode="normal" in2="BackgroundImageFix" result="effect1_dropShadow_544_202"/>
<feBlend mode="normal" in="SourceGraphic" in2="effect1_dropShadow_544_202" result="shape"/>
<feColorMatrix in="SourceAlpha" type="matrix" values="0 0 0 0 0 0 0 0 0 0 0 0 0 0 0 0 0 0 127 0" result="hardAlpha"/>
<feOffset dy="4"/>
<feGaussianBlur stdDeviation="2"/>
<feComposite in2="hardAlpha" operator="arithmetic" k2="-1" k3="1"/>
<feColorMatrix type="matrix" values="0 0 0 0 0 0 0 0 0 0 0 0 0 0 0 0 0 0 0.1 0"/>
<feBlend mode="normal" in2="shape" result="effect2_innerShadow_544_202"/>
</filter>
<linearGradient id="paint0_linear_544_202" x1="640" y1="0" x2="640" y2="720" gradientUnits="userSpaceOnUse">
<stop stop-color="#ECFAFF"/>
<stop offset="1" stop-color="#7CB9FF"/>
</linearGradient>
<linearGradient id="paint1_linear_544_202" x1="635.075" y1="747.054" x2="635.075" y2="-24.8986" gradientUnits="userSpaceOnUse">
<stop stop-color="#3291FF"/>
<stop offset="1" stop-color="#35C2FF"/>
</linearGradient>
<linearGradient id="paint2_linear_544_202" x1="659.258" y1="185.554" x2="520.504" y2="261.998" gradientUnits="userSpaceOnUse">
<stop stop-color="#F7A76B"/>
<stop offset="1" stop-color="#E7744E"/>
</linearGradient>
<linearGradient id="paint3_linear_544_202" x1="170.78" y1="423.653" x2="309.533" y2="347.209" gradientUnits="userSpaceOnUse">
<stop stop-color="#F7A76B"/>
<stop offset="1" stop-color="#E7744E"/>
</linearGradient>
<linearGradient id="paint4_linear_544_202" x1="534.069" y1="548.845" x2="457.625" y2="410.091" gradientUnits="userSpaceOnUse">
<stop stop-color="#F7A76B"/>
<stop offset="1" stop-color="#E7744E"/>
</linearGradient>
<linearGradient id="paint5_linear_544_202" x1="295.967" y1="60.3702" x2="372.411" y2="199.123" gradientUnits="userSpaceOnUse">
<stop stop-color="#F7A76B"/>
<stop offset="1" stop-color="#E7744E"/>
</linearGradient>
<linearGradient id="paint6_linear_544_202" x1="491.051" y1="43.75" x2="454.38" y2="197.865" gradientUnits="userSpaceOnUse">
<stop stop-color="#F7A76B"/>
<stop offset="1" stop-color="#E7744E"/>
</linearGradient>
<linearGradient id="paint7_linear_544_202" x1="338.986" y1="565.461" x2="375.658" y2="411.346" gradientUnits="userSpaceOnUse">
<stop stop-color="#F7A76B"/>
<stop offset="1" stop-color="#E7744E"/>
</linearGradient>
<linearGradient id="paint8_linear_544_202" x1="266.591" y1="476.197" x2="341.055" y2="381.492" gradientUnits="userSpaceOnUse">
<stop stop-color="#F7A76B"/>
<stop offset="1" stop-color="#E7744E"/>
</linearGradient>
<linearGradient id="paint9_linear_544_202" x1="573.676" y1="121.631" x2="499.211" y2="216.336" gradientUnits="userSpaceOnUse">
<stop stop-color="#F7A76B"/>
<stop offset="1" stop-color="#E7744E"/>
</linearGradient>
<linearGradient id="paint10_linear_544_202" x1="236.921" y1="147.113" x2="331.626" y2="221.578" gradientUnits="userSpaceOnUse">
<stop stop-color="#F7A76B"/>
<stop offset="1" stop-color="#E7744E"/>
</linearGradient>
<linearGradient id="paint11_linear_544_202" x1="591.489" y1="454.195" x2="496.784" y2="379.731" gradientUnits="userSpaceOnUse">
<stop stop-color="#F7A76B"/>
<stop offset="1" stop-color="#E7744E"/>
</linearGradient>
<linearGradient id="paint12_linear_544_202" x1="648.567" y1="288.003" x2="528.737" y2="300.443" gradientUnits="userSpaceOnUse">
<stop stop-color="#F7A76B"/>
<stop offset="1" stop-color="#E7744E"/>
</linearGradient>
<linearGradient id="paint13_linear_544_202" x1="180.239" y1="314.258" x2="300.069" y2="301.818" gradientUnits="userSpaceOnUse">
<stop stop-color="#F7A76B"/>
<stop offset="1" stop-color="#E7744E"/>
</linearGradient>
<linearGradient id="paint14_linear_544_202" x1="432.509" y1="534.961" x2="417.523" y2="415.422" gradientUnits="userSpaceOnUse">
<stop stop-color="#F7A76B"/>
<stop offset="1" stop-color="#E7744E"/>
</linearGradient>
<linearGradient id="paint15_linear_544_202" x1="396.298" y1="67.3012" x2="411.284" y2="186.84" gradientUnits="userSpaceOnUse">
<stop stop-color="#F7A76B"/>
<stop offset="1" stop-color="#E7744E"/>
</linearGradient>
<linearGradient id="paint16_linear_544_202" x1="671.251" y1="394.996" x2="519.409" y2="349.828" gradientUnits="userSpaceOnUse">
<stop stop-color="#F7A76B"/>
<stop offset="1" stop-color="#E7744E"/>
</linearGradient>
<linearGradient id="paint17_linear_544_202" x1="158.786" y1="214.215" x2="310.628" y2="259.383" gradientUnits="userSpaceOnUse">
<stop stop-color="#F7A76B"/>
<stop offset="1" stop-color="#E7744E"/>
</linearGradient>
<linearGradient id="paint18_linear_544_202" x1="640.512" y1="129.259" x2="514.259" y2="237.704" gradientUnits="userSpaceOnUse">
<stop stop-color="#FFC93C"/>
<stop offset="1" stop-color="#F49C79"/>
</linearGradient>
<linearGradient id="paint19_linear_544_202" x1="189.373" y1="479.139" x2="315.626" y2="370.694" gradientUnits="userSpaceOnUse">
<stop stop-color="#FFC93C"/>
<stop offset="1" stop-color="#F49C79"/>
</linearGradient>
<linearGradient id="paint20_linear_544_202" x1="589.884" y1="529.77" x2="481.438" y2="403.517" gradientUnits="userSpaceOnUse">
<stop stop-color="#FFC93C"/>
<stop offset="1" stop-color="#F49C79"/>
</linearGradient>
<linearGradient id="paint21_linear_544_202" x1="240.002" y1="78.6322" x2="348.447" y2="204.885" gradientUnits="userSpaceOnUse">
<stop stop-color="#FFC93C"/>
<stop offset="1" stop-color="#F49C79"/>
</linearGradient>
<linearGradient id="paint22_linear_544_202" x1="437.046" y1="19.5988" x2="432.47" y2="185.969" gradientUnits="userSpaceOnUse">
<stop stop-color="#FFC93C"/>
<stop offset="1" stop-color="#F49C79"/>
</linearGradient>
<linearGradient id="paint23_linear_544_202" x1="392.84" y1="588.8" x2="397.415" y2="422.429" gradientUnits="userSpaceOnUse">
<stop stop-color="#FFC93C"/>
<stop offset="1" stop-color="#F49C79"/>
</linearGradient>
<linearGradient id="paint24_linear_544_202" x1="299.199" y1="512.575" x2="355.413" y2="399.174" gradientUnits="userSpaceOnUse">
<stop stop-color="#FFC93C"/>
<stop offset="1" stop-color="#F49C79"/>
</linearGradient>
<linearGradient id="paint25_linear_544_202" x1="538.759" y1="81.9247" x2="482.545" y2="195.326" gradientUnits="userSpaceOnUse">
<stop stop-color="#FFC93C"/>
<stop offset="1" stop-color="#F49C79"/>
</linearGradient>
<linearGradient id="paint26_linear_544_202" x1="197.932" y1="180.535" x2="311.333" y2="236.749" gradientUnits="userSpaceOnUse">
<stop stop-color="#FFC93C"/>
<stop offset="1" stop-color="#F49C79"/>
</linearGradient>
<linearGradient id="paint27_linear_544_202" x1="628.582" y1="420.094" x2="515.18" y2="363.88" gradientUnits="userSpaceOnUse">
<stop stop-color="#FFC93C"/>
<stop offset="1" stop-color="#F49C79"/>
</linearGradient>
<linearGradient id="paint28_linear_544_202" x1="651.546" y1="236.911" x2="530.991" y2="275.468" gradientUnits="userSpaceOnUse">
<stop stop-color="#FFC93C"/>
<stop offset="1" stop-color="#F49C79"/>
</linearGradient>
<linearGradient id="paint29_linear_544_202" x1="175.58" y1="364.608" x2="296.134" y2="326.051" gradientUnits="userSpaceOnUse">
<stop stop-color="#FFC93C"/>
<stop offset="1" stop-color="#F49C79"/>
</linearGradient>
<linearGradient id="paint30_linear_544_202" x1="482.457" y1="537.328" x2="441.345" y2="417.621" gradientUnits="userSpaceOnUse">
<stop stop-color="#FFC93C"/>
<stop offset="1" stop-color="#F49C79"/>
</linearGradient>
<linearGradient id="paint31_linear_544_202" x1="344.669" y1="64.1913" x2="385.781" y2="183.898" gradientUnits="userSpaceOnUse">
<stop stop-color="#FFC93C"/>
<stop offset="1" stop-color="#F49C79"/>
</linearGradient>
<linearGradient id="paint32_linear_544_202" x1="697.878" y1="342.064" x2="532.017" y2="328.263" gradientUnits="userSpaceOnUse">
<stop stop-color="#FFC93C"/>
<stop offset="1" stop-color="#F49C79"/>
</linearGradient>
<linearGradient id="paint33_linear_544_202" x1="132.008" y1="266.338" x2="297.868" y2="280.14" gradientUnits="userSpaceOnUse">
<stop stop-color="#FFC93C"/>
<stop offset="1" stop-color="#F49C79"/>
</linearGradient>
<radialGradient id="paint34_radial_544_202" cx="0" cy="0" r="1" gradientUnits="userSpaceOnUse" gradientTransform="translate(449.087 271.195) rotate(104.011) scale(276.733 306.011)">
<stop stop-color="#AC6042"/>
<stop offset="1" stop-color="#62342A"/>
</radialGradient>
<radialGradient id="paint35_radial_544_202" cx="0" cy="0" r="1" gradientUnits="userSpaceOnUse" gradientTransform="translate(1111.5 168.5) rotate(90) scale(168.5)">
<stop stop-color="#FFC93C"/>
<stop offset="1" stop-color="#FFC93C" stop-opacity="0"/>
</radialGradient>
<linearGradient id="paint36_linear_544_202" x1="1017.5" y1="585" x2="1017.5" y2="397" gradientUnits="userSpaceOnUse">
<stop stop-color="#1E5C93"/>
<stop offset="0.831731" stop-color="#2E91E9"/>
<stop offset="1" stop-color="#7CB9FF"/>
</linearGradient>
<clipPath id="clip0_544_202">
<rect width="1280" height="720" fill="white"/>
</clipPath>
</defs>
</svg>
