<svg xmlns="http://www.w3.org/2000/svg" width="1280" height="720" xmlns:v="https://vecta.io/nano"><style><![CDATA[.B{clip-path:none}]]></style><defs><clipPath ><path d="M0 0h708.12v398.41H0z" fill="none" stroke-width="0"/></clipPath><linearGradient x1="638.924" y1="741.353" x2="638.924" y2="-25.591" gradientUnits="userSpaceOnUse" spreadMethod="pad" id="B"><stop offset="0" stop-color="#3291ff"/><stop offset="1" stop-color="#35c2ff"/></linearGradient></defs><path d="M0 0h1280v720H0z" fill="url(#B)" class="B"/><path d="M74.651 282.483h89.013v89.087H74.651zm646.41-48.594L893.825 60.981l172.774 172.908-172.774 172.918z" class="B" fill="#ff7b54"/><path d="M517.171 575.001l-51.607 89.473h103.213z" fill="#ffc93c" class="B"/><path d="M714.642 154.612L596.035 360.207 477.416 154.612z" fill="#1dae27" class="B"/><path d="M1221.279 190.393h-73.046l-36.512 63.297 36.512 63.305h73.046l36.504-63.305zM758.975 54.942h-43.599l-21.794 37.796 21.794 37.804h43.599l21.816-37.804z" class="B" fill="#a184dc"/><path d="M425.752 406.824l-63.853 46.432 24.389 75.147h78.937l24.39-75.147z" fill="#7c2869" class="B"/><path d="M1171.675 599.165h64.06v64.114h-64.06z" fill="#ff7b54" class="B"/><path d="M217.518 283.94l41.646-155.515 113.74 113.854zm608.696 322.29l22.65-84.62 61.868 61.951z" class="B" fill="#ffc93c"/><path d="M1172.483 386.958l22.912 39.732 22.923-39.732z" fill="#1dae27" class="B"/><path d="M164.191 458.419h90.048l45.019 78.063-45.019 78.034h-90.048l-45.019-78.034z" fill="#a184dc" class="B"/><path d="M1058.599 426.062l107.491 78.174-41.051 126.499H992.142l-41.051-126.499z" fill="#7c2869" class="B"/><path d="M138.356 54.378h-35.104L74.849 75.024l-10.844 33.411 10.844 33.392 28.403 20.658h35.104l28.383-20.658 10.847-33.392-10.847-33.411zm561.051 362.774h-35.205l-32.529 13.49-24.888 24.909-13.476 32.564v35.237l13.476 32.547 24.888 24.897 32.529 13.499h35.205l32.52-13.499 24.907-24.897 13.457-32.547v-35.237l-13.457-32.564-24.907-24.909z" class="B" fill="#1e5c93"/></svg>