<svg xmlns="http://www.w3.org/2000/svg" width="1280" height="720" xmlns:v="https://vecta.io/nano"><defs><clipPath ><path d="M0 0h708.12v398.41H0z" fill="none" stroke-width="0"/></clipPath><linearGradient id="B" gradientTransform="matrix(0,763.16996,762.53251,0,-752924.55,-1004797.3)" x1="1317.442" y1="988.242" x2="1316.696" y2="988.242" gradientUnits="userSpaceOnUse" spreadMethod="pad"><stop offset="0" stop-color="#f6a227"/><stop offset="1" stop-color="#ffc93c"/></linearGradient></defs><path d="M0 0h1280v720H0z" clip-path="none" fill="url(#B)"/><path d="M366.013 339.078l-126.654.385-126.654.385 62.994-109.878 62.993-109.878 63.661 109.493z" fill="#1dae27"/><path d="M609.852 330.431H408.929V129.508h200.923z" fill="#ff7b54"/><path d="M848.546 337.078l-139.074-.432-42.564-132.4 112.767-81.396 112.259 82.095z" fill="#7c2869"/><path d="M1108.855 331.745l-117.823.527-59.369-101.775 58.455-102.302 117.823-.527 59.369 101.775z" fill="#a184dc"/><path d="M351.553 510.411l-60.52 79.483-99.876 2.24-64.023-76.689 20.04-97.87 89.013-45.353 90.957 41.316z" fill="#1e5c93"/><path d="M556.102 595.624l-93.905-.208-66.255-66.549.209-93.906 66.548-66.255 93.906.208 66.254 66.549-.208 93.906z" fill="#34c3ff"/><path d="M884.611 546.407l-63.552 53.426-83.025.076-63.65-53.309-14.492-81.751 41.447-71.94 77.993-28.468 78.044 28.325 41.579 71.864z" fill="#bc9353"/><path d="M1087.224 593.003l-72.347 1.017-59.127-41.701-23.324-68.491 21.389-69.12 57.932-43.347 72.347-1.017 59.127 41.701 23.324 68.491-21.389 69.12z" fill="#ffc93c"/></svg>