<svg xmlns="http://www.w3.org/2000/svg" xmlns:xlink="http://www.w3.org/1999/xlink" width="1280" height="720" xmlns:v="https://vecta.io/nano"><style><![CDATA[.B{fill-opacity:.502}.C{fill:#1ead28}.D{fill:#1e5c93}.E{fill:#ff7b54}]]></style><defs><clipPath ><path d="M0 0h708.12v398.41H0z" fill="none" stroke-width="0"/></clipPath><clipPath ><path d="M-14.17-14.17h736.48v426.75H-14.17z" fill="none" stroke-width="0"/></clipPath><linearGradient id="C" x1="638.349" y1="733.525" x2="638.349" y2="-21.817" gradientUnits="userSpaceOnUse" spreadMethod="pad"><stop offset="0" stop-color="#1ead28"/><stop offset="1" stop-color="#248029"/></linearGradient><path id="D" d="M704.885 141.647h50v50h-50z"/></defs><path d="M0 0h1280v720H0z" fill="url(#C)"/><path d="M521.797 622.732c-2.11-.814-8.595-3.768-35.112-16-6.204-2.862-11.503-5.203-11.775-5.203s-7.429-3.273-15.904-7.273l-96.587-44.511-180.983-84.633c-.005-1.351 54.453-51.191 64.703-59.216 2.191-1.716 9.796-8.405 16.899-14.866l23.54-21.409 25.921-23.042 26.524-23.804c6.176-5.733 19.56-17.76 29.741-26.726l19.252-17.11c.407-.444 13.069-11.81 28.137-25.258l79.97-71.417 66.642-59.424 58.593-52.247c2.998-2.697 3.424-2.607 21.575 4.569l51.277 20.2 113.172 44.611 64.776 25.494 54.779 21.635 22.763 9.074-44.816 45.469L524.795 623.71c-.42-.064-1.77-.505-2.998-.979z" fill="#34c3ff"/><path d="M314.211 583.913c-10.58-3.397-18.447-12.718-18.447-21.855 0-27.45 46.2-39.978 65.639-17.798 10.775 12.294 7.074 26.362-9.47 35.991-9.066 5.277-27.207 7.038-37.722 3.661z" fill="#7c2869"/><path d="M663.366 49.362c-12.013.199-25.676 4.258-33.698 10.633-2.694 2.141-15.09 13.008-27.55 24.15l-96.477 85.718L342.59 314.669l-23.705 21.001c-3.451 2.953-12.369 10.814-19.819 17.467l-22.93 20.367-16.932 15.072-19.062 16.914-12.191 10.839c-.373.399-8.297 7.405-17.61 15.567-49.513 43.397-56.598 50.872-63.211 66.698h0c-5.588 15.141 2.412 32.865 18.385 40.413l39.283 18.702 42.67 20.311 28.446 13.549 27.092 12.861 26.415 12.525 81.532 38.754c16.003 7.555 24.668 10.848 34.285 13.03 9.815 2.227 26.099 2.55 36.05.714 4.013-.74 12.173-3.756 18.134-6.702 10.402-5.141 13.065-7.6 66.391-61.303l175.419-176.597 228.129-233.788c3.736-13.42-1.542-19.701-4.834-25.618-.514-.694-1.221-1.423-2.376-2.439-2.12-1.865-6.799-4.534-10.4-5.932l-14.673-5.686-18.964-7.347-20.996-8.122-20.319-7.889-31.156-12.075-92.789-35.957-78.294-29.491c-3.368-.848-7.189-1.209-11.194-1.143zm-43.342 35.46c1.307.053 2.99.604 5.863 1.685 5.985 2.251 51.925 20.332 110.034 43.307l44.701 17.615 54.861 21.679 61.623 24.364c27.554 10.842 29.812 11.988 29.812 15.133 0 1.054-88.844 90.949-197.431 199.768L530.024 607.29c-1.339.701-12.428-3.709-32.51-12.93l-38.606-17.692-37.929-17.443-14.901-6.807-49.443-22.663-153.471-71.304c-2.54-2.54 1.202-6.766 22.311-25.2l33.55-29.801 19.71-17.61c4.332-3.725 12.249-10.735 17.591-15.578l25.19-22.52 90.578-80.482 48.088-42.752 88.128-78.405 68.095-59.978c1.379-.91 2.312-1.357 3.619-1.304zm148.666 20.181c1.627-.016 4.122.963 8.924 2.926 4.261 1.743 15.572 6.147 25.134 9.786 18.872 7.183 21.516 9.384 17.898 14.906-2.652 4.048-4.782 4.054-14.287.034-4.098-1.733-14.939-6.055-24.092-9.604-18.218-7.064-20.94-9.422-17.29-14.993 1.327-2.025 2.085-3.039 3.712-3.056zm-265.759 91.829l-98.885 88.091 98.885-88.091zM331.655 534.61c6.247-.085 12.65 1.166 18.546 4.061 20.494 10.063 18.743 31.759-3.352 41.529-20.831 9.211-47.013.111-49.218-17.104-2.043-15.956 15.283-28.231 34.023-28.486z" class="D"/><g transform="matrix(2.239499 -2.239499 2.239499 2.239499 -1277.213641 -172.486701)"><path d="M242.686 516.238c5.762-7.941 15.884-22.882 27.584-22.962s22.155 14.721 28.093 22.583 17.47 22.168 11.708 30.109-27.426 7.601-39.126 7.681-33.354.714-39.292-7.148 5.272-22.323 11.033-30.264z" fill="#58ab3f"/><path d="M300.651 526.341c4.433-5.799 12.221-16.71 21.223-16.768s17.046 10.75 21.615 16.491 13.441 16.188 9.008 21.987-21.102 5.551-30.104 5.609-25.662.521-30.231-5.22 4.056-16.301 8.489-22.1z" fill="#bc9353"/><circle cx="307.568" cy="496.159" r="8.8" fill="#f3ca59"/></g><use xlink:href="#D" class="D"/><g class="C"><use xlink:href="#D" x="50" y="-50"/><use xlink:href="#D" x="100"/></g><use xlink:href="#D" x="100" y="-50" class="D"/><use xlink:href="#D" x="150" y="-50" class="C"/><g class="D"><use xlink:href="#D" x="150"/><use xlink:href="#D" x="200" y="50"/></g><g class="E"><use xlink:href="#D" x="200"/><use xlink:href="#D" x="250" y="50"/><use xlink:href="#D" x="50"/><use xlink:href="#D" y="-50"/></g><use xlink:href="#D" x="-50" class="C"/><use xlink:href="#D" x="50" y="50" class="D"/><g class="C"><use xlink:href="#D" y="50"/><use xlink:href="#D" x="-50" y="150"/></g><g class="E"><use xlink:href="#D" x="100" y="50"/><use xlink:href="#D" x="-50" y="50"/><use xlink:href="#D" x="-50" y="200"/></g><use xlink:href="#D" x="150" y="50" class="C"/><g class="D"><use xlink:href="#D" x="250" y="100"/><use xlink:href="#D" x="100" y="100"/><use xlink:href="#D" x="-50" y="100"/></g><use xlink:href="#D" x="50" y="100" class="C"/><g class="E"><use xlink:href="#D" x="150" y="100"/><use xlink:href="#D" y="100"/></g><use xlink:href="#D" x="200" y="100" class="C"/><g class="D"><use xlink:href="#D" x="150" y="150"/><use xlink:href="#D" y="150"/></g><use xlink:href="#D" x="100" y="150" class="C"/><g class="E"><use xlink:href="#D" x="200" y="150"/><use xlink:href="#D" x="50" y="150"/></g><g class="C"><use xlink:href="#D" x="250" y="150"/><use xlink:href="#D" y="200"/></g><g class="D"><use xlink:href="#D" x="200" y="200"/><use xlink:href="#D" x="50" y="200"/></g><use xlink:href="#D" x="150" y="200" class="C"/><g class="E"><use xlink:href="#D" x="100" y="200"/><use xlink:href="#D" y="250"/></g><use xlink:href="#D" x="50" y="250" class="C"/><use xlink:href="#D" x="100" y="250" class="D"/><use xlink:href="#D" x="200" y="250" class="C"/><use xlink:href="#D" x="150" y="250" class="E"/><g fill="#fff" class="B"><ellipse cx="829.885" cy="216.647" rx="10.25" ry="10.75"/><ellipse cx="779.885" cy="216.647" rx="10.25" ry="10.75"/><ellipse cx="729.885" cy="216.647" rx="10.25" ry="10.75"/><ellipse cx="779.885" cy="166.647" rx="10.25" ry="10.75"/><ellipse cx="829.885" cy="166.647" rx="10.25" ry="10.75"/><ellipse cx="729.885" cy="166.647" rx="10.25" ry="10.75"/><ellipse cx="879.885" cy="166.647" rx="10.25" ry="10.75"/><ellipse cx="879.885" cy="216.647" rx="10.25" ry="10.75"/><ellipse cx="929.885" cy="216.647" rx="10.25" ry="10.75"/><ellipse cx="929.885" cy="166.647" rx="10.25" ry="10.75"/><ellipse cx="679.885" cy="266.647" rx="10.25" ry="10.75"/><ellipse cx="729.885" cy="266.647" rx="10.25" ry="10.75"/><ellipse cx="779.885" cy="266.647" rx="10.25" ry="10.75"/><ellipse cx="829.885" cy="266.647" rx="10.25" ry="10.75"/><ellipse cx="879.885" cy="266.647" rx="10.25" ry="10.75"/><ellipse cx="929.885" cy="266.647" rx="10.25" ry="10.75"/><ellipse cx="929.885" cy="316.647" rx="10.25" ry="10.75"/><ellipse cx="879.885" cy="316.647" rx="10.25" ry="10.75"/><ellipse cx="829.885" cy="316.647" rx="10.25" ry="10.75"/><ellipse cx="779.885" cy="316.647" rx="10.25" ry="10.75"/><ellipse cx="729.885" cy="316.647" rx="10.25" ry="10.75"/><ellipse cx="679.885" cy="317.566" rx="10.25" ry="10.75"/><ellipse cx="729.885" cy="366.647" rx="10.25" ry="10.75"/><ellipse cx="779.885" cy="366.647" rx="10.25" ry="10.75"/><ellipse cx="829.885" cy="366.647" rx="10.25" ry="10.75"/><ellipse cx="879.885" cy="366.647" rx="10.25" ry="10.75"/><ellipse cx="929.885" cy="366.647" rx="10.25" ry="10.75"/><ellipse cx="779.885" cy="416.647" rx="10.25" ry="10.75"/><ellipse cx="829.885" cy="416.647" rx="10.25" ry="10.75"/><ellipse cx="879.885" cy="416.647" rx="10.25" ry="10.75"/><ellipse cx="679.885" cy="216.647" rx="10.25" ry="10.75"/></g><path d="M646.685 142.734c-62.133 77.966-61.109 191.719 1.998 268.636a213.695 213.695 0 0 0 283.644 42.404l136.653 136.853c5.844 5.868 15.209 5.868 20.778 0l38.284-38.334a14.559 14.559 0 0 0 0-20.802L991.414 394.638c55.241-83.036 46.375-196.538-26.621-269.935-88.979-89.354-237.519-83.26-318.157 18.031zm274.03 239.942a150.987 150.987 0 0 1-213.445 0 151.587 151.587 0 0 1 0-213.77 150.987 150.987 0 0 1 213.445 0c58.787 58.637 58.787 154.609 0 213.77z" fill="#f3ca59"/></svg>