<svg xmlns="http://www.w3.org/2000/svg" width="1280" height="720" xmlns:v="https://vecta.io/nano"><defs><clipPath ><path d="M0 0h708.12v398.41H0z" fill="none" stroke-width="0"/></clipPath><clipPath ><path d="M-14.17-14.17h736.48v426.75H-14.17z" fill="none" stroke-width="0"/></clipPath></defs><path d="M0 0h1280v720H0z" fill="#ecfaff"/><path d="M430.743 379.963c.719-3.64 4.253-6.538 8.013-6.13l51.683-.184c-.1-2.215-4.201-3.956-4.725-6.672-1.612-4.352 1.638-9.645 6.316-9.957 3.244-.533 5.873 1.623 7.893 3.866 5.509 5.422 11.076 10.797 16.334 16.464 2.208 2.452 1.871 6.395-.524 8.591-6.063 6.27-12.191 12.492-18.55 18.46-3.711 2.822-9.627 1.023-11.295-3.291-1.187-2.883-.476-6.379 1.884-8.468.808-1.178 4.929-3.904 1.23-3.6-10.339-.21-41.607.101-51.943-.218-4.145-.543-7.089-4.78-6.315-8.861zM260.22 487.542a6.01 6.01 0 0 0-6.009 6.009v34.719a6.01 6.01 0 0 0 6.009 6.009 6.01 6.01 0 0 0 6.009-6.009v-34.72a6.01 6.01 0 0 0-6.009-6.009zm-117.707-69.927h34.719a6.01 6.01 0 0 0 6.025-6.009 6.01 6.01 0 0 0-6.025-6.009h-34.719c-8.033-.022-8.033 12.039 0 12.017zm200.695 0h34.719a6.01 6.01 0 0 0 6.025-6.009 6.01 6.01 0 0 0-6.025-6.009h-34.719c-8.033-.022-8.033 12.039 0 12.017zm-158.301 26.438l-45.638 29.296c-6.744 4.333-.244 14.447 6.5 10.114l45.638-29.296a6.01 6.01 0 0 0 1.809-8.3c-1.787-2.792-5.511-3.602-8.309-1.815zm37.796 32.325a6.01 6.01 0 0 0-8.321 1.721l-15.971 24.304a6.01 6.01 0 0 0 1.721 8.321 5.96 5.96 0 0 0 3.296.989c2.027 0 3.919-1.018 5.031-2.713l15.971-24.304a6.01 6.01 0 0 0-1.721-8.321zm163.329-3.038l-45.638-29.296c-6.754-4.385-13.295 5.792-6.5 10.115l45.638 29.296a5.98 5.98 0 0 0 3.244.95c6.003.012 8.307-7.82 3.256-11.064zm-75.113 4.758c-4.422-6.586-14.334-.072-10.042 6.6l15.971 24.304a6.01 6.01 0 0 0 5.031 2.713c1.172 0 2.318-.344 3.296-.989a6.01 6.01 0 0 0 1.721-8.321l-15.971-24.304zM299.631 330.02h3.077c1.809 0 3.523-.816 4.664-2.218a6.01 6.01 0 0 0 1.217-5.016l-10.56-50.481a6.01 6.01 0 0 0-5.881-4.779h-2.406c-2.95-4.3-9.325-10.873-21.339-12.448v-20.641c0-8.011-12.017-8.011-12.017 0v20.802c-11.377 1.794-17.44 8.087-20.271 12.296h-2.358a6.01 6.01 0 0 0-5.881 4.78l-10.56 50.481a5.98 5.98 0 0 0 1.217 5.016c1.144 1.402 2.859 2.218 4.664 2.218h1.894c-1.268 13.923-6.98 21.446-13.471 29.994-8.102 10.661-17.285 22.741-17.285 47.744 0 14.163 6.886 30.113 18.423 42.661 13.264 14.43 30.895 22.377 49.637 22.377 37.165 0 68.567-31.168 68.567-68.066 0-18.262-8.634-31.342-16.973-43.996-6.506-9.869-12.694-19.273-14.354-30.71zm-60.99-50.481h.989c2.507 0 4.719-1.475 5.596-3.82.152-.364 3.854-8.979 17.658-8.979s17.658 8.661 17.792 8.979a6.01 6.01 0 0 0 5.596 3.82h.989l8.048 38.467h-64.716zm23.758 181.24c-34.212 0-56.046-31.402-56.046-53.021s7.204-30.431 14.833-40.473c7.198-9.471 14.621-19.233 15.971-37.271h19.227v21.188h-6.075a6.01 6.01 0 0 0-4.6 2.139 5.99 5.99 0 0 0-1.323 4.898l7.857 45.131a6.01 6.01 0 0 0 5.914 4.977 6.22 6.22 0 0 0 1.038-.085 6.01 6.01 0 0 0 3.903-2.485c3.051 4.398 10.104 2.825 10.879-2.586l6.446-45.131a6.01 6.01 0 0 0-5.948-6.858h-6.072v-21.188h19.088c1.642 14.861 9.165 26.265 16.463 37.329 7.708 11.683 14.994 22.723 14.994 37.378 0 29.855-26.425 56.046-56.55 56.046zm5.15-97.548l-4.546 31.833-5.541-31.833zm424.996 48.017c-3.01-1.356-6.573-.012-7.942 2.998-.021.051-2.346 5.077-7.092 9.823-4.831 4.831-9.902 7.411-9.975 7.45-5.68 2.832-3.661 11.391 2.686 11.386a5.93 5.93 0 0 0 2.658-.625c.279-.14 6.825-3.408 13.125-9.711 6.388-6.388 9.438-13.119 9.562-13.404 1.35-3.022 0-6.552-3.022-7.914zm-.066-81.228h3.077c1.809 0 3.523-.816 4.664-2.218a6.01 6.01 0 0 0 1.217-5.016l-10.561-50.481a6.01 6.01 0 0 0-5.881-4.779h-2.407c-2.95-4.3-9.325-10.873-21.34-12.448v-20.641c0-8.011-12.017-8.011-12.017 0v20.802c-11.377 1.794-17.44 8.087-20.271 12.296h-2.358a6.01 6.01 0 0 0-5.881 4.78l-10.561 50.481a5.98 5.98 0 0 0 1.217 5.016c1.144 1.402 2.859 2.218 4.664 2.218h1.894c-1.269 13.923-6.98 21.446-13.471 29.994-8.102 10.661-17.285 22.741-17.285 47.744 0 14.163 6.886 30.113 18.423 42.661 13.264 14.43 30.895 22.377 49.637 22.377 37.165 0 68.567-31.168 68.567-68.066 0-18.262-8.633-31.342-16.973-43.996-6.506-9.869-12.694-19.273-14.354-30.71zm-60.99-50.481h.989c2.506 0 4.719-1.475 5.596-3.82.152-.364 3.854-8.979 17.659-8.979s17.659 8.661 17.792 8.979a6.01 6.01 0 0 0 5.596 3.82h.989l8.048 38.467h-64.716zm23.758 181.24c-34.212 0-56.047-31.402-56.047-53.021s7.204-30.431 14.833-40.473c7.198-9.471 14.621-19.233 15.971-37.271h19.227v21.188h-6.075a6.01 6.01 0 0 0-4.601 2.139 5.99 5.99 0 0 0-1.323 4.898l7.857 45.131a6.01 6.01 0 0 0 5.914 4.977 6.22 6.22 0 0 0 1.038-.085 6.01 6.01 0 0 0 3.903-2.485 5.98 5.98 0 0 0 4.082 2.513 6.03 6.03 0 0 0 6.798-5.098l6.446-45.131a6.01 6.01 0 0 0-5.948-6.858h-6.072v-21.188h19.088c1.642 14.861 9.164 26.265 16.463 37.329 7.708 11.683 14.994 22.723 14.994 37.378 0 29.855-26.426 56.046-56.55 56.046zm5.15-97.548l-4.546 31.833-5.541-31.833zm427.319 48.017c-3.01-1.356-6.573-.012-7.942 2.998-.021.051-2.346 5.077-7.092 9.823-4.831 4.831-9.902 7.411-9.975 7.45-5.68 2.832-3.661 11.391 2.686 11.386a5.93 5.93 0 0 0 2.658-.625c.279-.14 6.825-3.408 13.125-9.711 6.388-6.388 9.438-13.119 9.562-13.404 1.35-3.022 0-6.552-3.022-7.914zm-.066-81.228h3.077c1.809 0 3.523-.816 4.664-2.218a6.01 6.01 0 0 0 1.217-5.016l-10.561-50.481a6.01 6.01 0 0 0-5.881-4.779h-2.407c-2.95-4.3-9.325-10.873-21.34-12.448v-20.641c0-8.011-12.017-8.011-12.017 0v20.802c-11.377 1.794-17.44 8.087-20.271 12.296h-2.358a6.01 6.01 0 0 0-5.881 4.78l-10.56 50.481a5.98 5.98 0 0 0 1.217 5.016c1.144 1.402 2.859 2.218 4.664 2.218h1.894c-1.269 13.923-6.98 21.446-13.471 29.994-8.102 10.661-17.285 22.741-17.285 47.744 0 14.163 6.886 30.113 18.423 42.661 13.264 14.43 30.896 22.377 49.637 22.377 37.165 0 68.567-31.168 68.567-68.066 0-18.262-8.633-31.342-16.973-43.996-6.506-9.869-12.694-19.273-14.354-30.71zm-60.99-50.481h.989c2.506 0 4.719-1.475 5.596-3.82.152-.364 3.854-8.979 17.659-8.979s17.659 8.661 17.792 8.979a6.01 6.01 0 0 0 5.596 3.82h.989l8.048 38.467h-64.717zm23.758 181.24c-34.212 0-56.047-31.402-56.047-53.021s7.204-30.431 14.833-40.473c7.198-9.471 14.621-19.233 15.971-37.271h19.227v21.188h-6.075a6.01 6.01 0 0 0-4.601 2.139 5.99 5.99 0 0 0-1.323 4.898l7.857 45.131a6.01 6.01 0 0 0 5.915 4.977 6.22 6.22 0 0 0 1.038-.085 6.01 6.01 0 0 0 3.903-2.485 5.98 5.98 0 0 0 4.082 2.513 6.03 6.03 0 0 0 6.797-5.098l6.446-45.131a6.01 6.01 0 0 0-5.948-6.858h-6.072v-21.188h19.088c1.642 14.861 9.165 26.265 16.463 37.329 7.708 11.683 14.994 22.723 14.994 37.378 0 29.855-26.426 56.046-56.55 56.046zm5.15-97.548l-4.546 31.833-5.541-31.833z" fill="#1e5c93"/><g transform="matrix(1.162269 0 0 1.162269 -808.5958 -2695.9668)" fill="#1e5c93"><rect width="80.578" height="17.116" x="1389.058" y="2624.469" ry="8.558"/><rect width="80.578" height="17.116" x="1389.058" y="2653.774" ry="8.558"/></g></svg>