<svg xmlns="http://www.w3.org/2000/svg" width="1280" height="720" xmlns:v="https://vecta.io/nano"><style><![CDATA[.B{clip-path:none}.C{fill:none}.D{fill:#1e5c93}.E{stroke-linecap:round}.F{stroke:#ff7b54}.G{stroke-width:4.875}.H{stroke-linejoin:round}]]></style><defs><clipPath ><path d="M0 0h708.12v398.41H0z" stroke-width="0" class="C"/></clipPath><clipPath ><path d="M-14.17-14.17h736.48v426.75H-14.17z" stroke-width="0" class="C"/></clipPath><linearGradient id="C" gradientTransform="matrix(0,-757.84214,757.20904,0,-2043751.2,338183.44)" x1="445.24" y1="2699.89" x2="446.31" y2="2699.89" gradientUnits="userSpaceOnUse" spreadMethod="pad"><stop offset="0" stop-color="#1e5c93"/><stop offset="1" stop-color="#35c2ff"/></linearGradient></defs><path d="M0 0h1280v720H0z" fill="url(#C)" class="B"/><path d="M337.215 241.363v19.727m-40.942-44.977l-14.371 9.215m99.024-9.215l14.363 9.215m-81.266 9.129l-9.074 13.809m58.223-13.809l9.074 13.809" class="B C E F G H" transform="scale(2.4060151 2.4080268)"/><path d="M505.863 0h-14.539c.8 13.358.246 26.866-.947 38.924-2.42 24.45-7.168 42.709-7.168 42.709l13.971 3.641s5.029-19.325 7.563-44.924c1.224-12.372 1.893-26.27 1.121-40.35zm-307.49 0c5.499 12.263 10.768 25.42 15.387 38.801 12.865 37.27 20.73 76.543 17.289 100.818-2.815 19.856-9.639 36.008-18.098 47.592-.752-1.23-1.353-2.618-2.139-3.801-6.146-9.254-13.311-17-21.719-21.381s-19.412-4.393-27.289 2.578c-12.728 11.269-17.321 23.324-15.277 33.543s9.608 17.024 17.156 20.34c14.968 6.576 31.167 3.028 44.809-6.777 4.158 11.675 6.27 23.576 4.408 31.652-7.294 31.607-10.264 48.463-11.426 57.736-.581 4.637-.719 7.364-.662 9.318.028.977.1 1.762.283 2.609a8.4 8.4 0 0 0 .408 1.363c.198.501.936 1.693.936 1.693l11.607-8.588s.715 1.157.879 1.57.239.713.281.908c.084.391.044.386.033.02-.021-.734.037-2.903.562-7.098 1.051-8.388 3.932-24.934 11.166-56.281v-.006c3.278-14.222-.212-30.664-6.791-45.662 12.343-14.213 21.633-34.383 25.166-59.299 4.133-29.162-4.675-69.147-17.937-107.566-4.041-11.707-8.529-23.146-13.23-34.084h-15.803zm-21.949 172.945c1.683-.061 3.524.609 6.002 1.9 4.957 2.583 11.109 8.65 16.361 16.559 1.397 2.103 2.51 4.576 3.756 6.896-10.884 9.093-22.226 11.719-33.055 6.961-3.945-1.733-7.941-5.614-8.807-9.943s.29-10.682 10.691-19.891c1.844-1.631 3.369-2.422 5.051-2.482z" class="D"/><g transform="scale(2.4060151 2.4080268)"><g class="C H"><g stroke="#ffc93c" stroke-width="3.495"><path d="M203.715 133.531c-20.152 0-33.043-18.543-33.043-31.433 0-23.91 16.519-22.836 16.519-44.594h32.911c0 17.195 16.929 25.519 16.929 42.98s-15.047 33.047-33.316 33.047z" class="B"/><path d="M350.184 219.66s3.117-1.547 6.14-4.566 4.434-6.18 4.434-6.18" class="B E"/></g><path d="M85.273 241.363v19.727m-40.949-44.977l-14.363 9.215m99.016-9.215l14.371 9.215m-81.27 9.129l-9.074 13.809m58.223-13.809l9.074 13.809" class="B F G E"/></g><path d="M86.52 228.352c-20.153 0-33.043-18.539-33.043-31.43 0-23.91 16.519-22.84 16.519-44.598h32.91c0 17.199 16.93 25.524 16.93 42.985s-15.047 33.043-33.316 33.043" fill="#ff7b54" class="B"/><g class="D"><path d="M99.074 127.449s-2.601-6.82-12.457-6.82-12.383 6.82-12.383 6.82z" class="B"/><path d="M107.82 155.836H65.484l5.625-28.387h31.086z" class="B"/></g><path d="M202.469 148.02v19.726m-40.949-44.98l-14.364 9.218m99.016-9.218l14.371 9.218m-81.27 9.129l-9.074 13.809m58.223-13.809l9.074 13.809" class="B C E G H" stroke="#ffc93c"/><path d="M203.715 133.531c-20.152 0-33.043-18.543-33.043-31.433 0-23.91 16.519-22.836 16.519-44.594h32.911c0 17.195 16.929 25.519 16.929 42.98s-15.047 33.047-33.316 33.047" fill="#ffc93c" class="B"/><g class="D"><path d="M216.27 28.582s-2.602-6.816-12.457-6.816-12.383 6.816-12.383 6.816z" class="B"/><path d="M225.016 56.961h-42.34l5.625-28.379h31.09z" class="B"/></g></g><path d="M826.439 0c5.735 11.466 9.902 21.704 10.779 28.125 3.837 28.032-3.112 50.543-12.469 73.082s-21.312 44.855-25.633 71.338c-10.839 66.408 8.609 133.029 8.609 133.029l13.871-4.006s-18.374-64.558-8.232-126.695c3.836-23.512 15.013-44.746 24.717-68.121s17.743-49.15 13.441-80.584v-.004c-1.068-7.808-4.283-16.765-8.625-26.164h-16.459z" class="D"/><g transform="scale(2.4060151 2.4080268)"><path d="M338.469 228.352c-20.153 0-33.047-18.539-33.047-31.43 0-23.91 16.523-22.84 16.523-44.598h32.91c0 17.199 16.926 25.524 16.926 42.985s-15.043 33.043-33.312 33.043" fill="#ff7b54" class="B"/><g class="D"><path d="M351.18 125.723s-2.602-6.817-12.457-6.817-12.383 6.817-12.383 6.817z" class="B"/><path d="M359.934 154.109h-42.348l5.625-28.386h31.098zM486.605 47.867L502.242 63.5l-6.902 6.902-15.633-15.636zm-74.55 7.067l-15.633 15.632-6.899-6.898 15.633-15.637zm22.773-21.231h22.109v9.758h-22.109z" class="B"/><path d="M427.867 22.094h36.031v11.609h-36.031z" class="B"/></g><path d="M502.641 98.102c0 31.347-25.411 56.757-56.758 56.757s-56.762-25.41-56.762-56.757 25.414-56.762 56.762-56.762 56.758 25.414 56.758 56.762z" fill="#ffc93c" class="B"/><path d="M490.574 97.754c0 24.684-20.008 44.695-44.691 44.695s-44.692-20.011-44.692-44.695 20.008-44.691 44.692-44.691 44.691 20.007 44.691 44.691z" fill="#fff" class="B"/><g stroke-width="3.75" stroke-miterlimit="10" class="C E F"><path d="M445.883 53.063v9.082m0 71.218v9.086m44.691-44.695h-9.082m-71.219 0h-9.082m76.289-31.598l-6.421 6.414m-50.36 50.364l-6.422 6.418" class="B"/><path d="M414.277 66.156l6.422 6.414m50.36 50.364l6.421 6.418" class="B"/></g><path d="M449.379 102.602a6.04 6.04 0 0 1-8.551.043c-2.371-2.356-2.402-6.18-.047-8.551 2.348-2.375 21.821-13.461 21.821-13.461s-10.868 19.59-13.215 21.969z" class="B D"/></g></svg>