<svg xmlns="http://www.w3.org/2000/svg" width="1280" height="720" xmlns:v="https://vecta.io/nano"><path d="M0 0h1280v720H0z" fill="#ecfaff"/><g fill="#1e5c93"><g stroke="#1e5c93" stroke-width="3.987" stroke-miterlimit="10"><path d="M722.473 432.483H618.009a3.18 3.18 0 0 1-3.131-2.614c-3.12-17.167 10.56-41.228 43.023-75.601-32.462-34.369-46.143-58.43-43.023-75.597.274-1.513 1.594-2.614 3.131-2.614h104.464a3.18 3.18 0 0 1 3.131 2.614c3.12 17.167-10.56 41.232-43.023 75.601 32.462 34.369 46.143 58.434 43.023 75.601-.274 1.513-1.594 2.614-3.131 2.614zm-101.636-6.364h98.811c.813-15.2-13.543-38.038-43.754-69.652a3.18 3.18 0 0 1 0-4.394c30.207-31.618 44.563-54.455 43.751-69.652h-98.808c-.813 15.197 13.543 38.038 43.754 69.652a3.18 3.18 0 0 1 0 4.394c-30.207 31.618-44.563 54.455-43.754 69.652z"/><path d="M731.792 432.483H608.69a3.18 3.18 0 1 1 0-6.36h123.101a3.18 3.18 0 1 1 0 6.36zm0-150.061H608.69a3.18 3.18 0 1 1 0-6.36h123.101a3.18 3.18 0 1 1 0 6.36zM618.59 420.365c-1.115 0-2.199-.587-2.783-1.632a3.18 3.18 0 0 1 1.228-4.327c.098-.053 9.839-5.477 21.17-10.863 15.496-7.366 26.524-11.172 32.789-11.32l.792-.01c19.045 0 48.5 15.436 49.759 16.101a3.18 3.18 0 0 1 1.326 4.299c-.82 1.551-2.74 2.149-4.299 1.33-.299-.158-30.074-15.802-47.434-15.359-10.845.253-40.497 15.517-51.004 21.378a3.16 3.16 0 0 1-1.548.405zm54.124-92.05c-14.289 0-40.986-7.412-42.115-7.729a3.18 3.18 0 1 1 1.71-6.128c.267.074 26.985 7.493 40.402 7.493s31.562-1.594 31.737-1.608c1.731-.155 3.296 1.133 3.454 2.881s-1.133 3.296-2.881 3.454c-.179.018-18.31 1.636-32.307 1.636zm-2.473 41.809c-1.284 0-2.494-.784-2.976-2.054-.021-.056-2.364-6.093-7.359-11.676-1.171-1.309-1.062-3.321.246-4.492s3.321-1.062 4.492.246c5.822 6.501 8.464 13.378 8.573 13.667.623 1.643-.208 3.479-1.85 4.102-.369.141-.749.208-1.126.208z"/><path d="M670.241 370.124a3.18 3.18 0 0 1-1.126-.208c-1.643-.623-2.469-2.459-1.85-4.102.109-.288 2.751-7.166 8.573-13.667a3.18 3.18 0 1 1 4.738 4.246c-5.037 5.625-7.338 11.616-7.359 11.676a3.18 3.18 0 0 1-2.976 2.054zm.827 13.156a3.18 3.18 0 0 1-3.18-3.18v-.201a3.18 3.18 0 1 1 6.36 0v.201a3.18 3.18 0 0 1-3.18 3.18z"/></g><path d="M418.591 358.558c.748-3.783 4.42-6.795 8.326-6.37l53.707-.191c-.104-2.302-4.365-4.111-4.91-6.933-1.675-4.523 1.702-10.023 6.563-10.346 3.371-.554 6.103 1.687 8.202 4.017 5.724 5.635 11.51 11.22 16.974 17.109 2.295 2.548 1.945 6.645-.545 8.927-6.3 6.515-12.668 12.981-19.277 19.183-3.857 2.933-10.005 1.063-11.737-3.42-1.233-2.996-.495-6.629 1.958-8.8.839-1.224 5.122-4.057 1.279-3.741-10.744-.219-43.237.105-53.978-.227-4.307-.564-7.366-4.967-6.563-9.208zm391.326 0c.747-3.783 4.42-6.795 8.326-6.37l53.707-.191c-.104-2.302-4.365-4.111-4.91-6.933-1.676-4.523 1.702-10.023 6.563-10.346 3.371-.554 6.103 1.687 8.202 4.017 5.724 5.635 11.51 11.22 16.974 17.109 2.295 2.548 1.945 6.645-.545 8.927-6.3 6.515-12.668 12.981-19.277 19.183-3.857 2.933-10.005 1.063-11.737-3.42-1.234-2.996-.495-6.629 1.958-8.8.839-1.224 5.122-4.057 1.279-3.741-10.744-.219-43.237.105-53.978-.227-4.307-.564-7.366-4.967-6.563-9.208zM241.388 470.351c-3.448 0-6.244 2.796-6.244 6.244v36.079c0 3.448 2.795 6.244 6.244 6.244s6.244-2.796 6.244-6.244v-36.079c0-3.448-2.795-6.244-6.244-6.244zM119.07 397.685h36.079c3.455.012 6.261-2.789 6.261-6.244s-2.806-6.253-6.261-6.244H119.07c-8.348-.023-8.348 12.511 0 12.488zm208.556 0h36.079c3.455.012 6.261-2.789 6.261-6.244s-2.806-6.253-6.261-6.244h-36.079c-8.348-.023-8.348 12.511 0 12.488zm-164.502 27.473L115.7 455.602c-7.009 4.503-.254 15.013 6.755 10.511l47.425-30.444c2.9-1.863 3.741-5.724 1.879-8.625a6.26 6.26 0 0 0-8.634-1.886zm39.277 33.591c-2.882-1.894-6.753-1.093-8.647 1.788l-16.597 25.256c-1.894 2.882-1.093 6.753 1.788 8.647a6.19 6.19 0 0 0 3.425 1.028 6.25 6.25 0 0 0 5.228-2.819l16.597-25.256c1.894-2.882 1.093-6.753-1.788-8.647zm169.727-3.157l-47.425-30.444c-7.019-4.557-13.815 6.019-6.755 10.511l47.425 30.444a6.21 6.21 0 0 0 3.371.987c6.238.012 8.632-8.127 3.384-11.498zm-78.055 4.945c-4.596-6.844-14.895-.075-10.435 6.859l16.597 25.256c1.156 1.762 3.122 2.822 5.228 2.819a6.21 6.21 0 0 0 3.425-1.028c2.881-1.894 3.682-5.765 1.788-8.647L294.08 460.54zm-11.662-69.468c-3.128-1.41-6.83-.012-8.253 3.116-.022.053-2.438 5.276-7.37 10.208-5.02 5.02-10.29 7.701-10.366 7.742-5.903 2.943-3.805 11.837 2.791 11.832.933 0 1.879-.208 2.762-.65.29-.145 7.092-3.541 13.639-10.091 6.638-6.638 9.807-13.632 9.937-13.929 1.403-3.141 0-6.808-3.141-8.224zm-.069-84.409h3.198c1.879 0 3.661-.848 4.847-2.305a6.24 6.24 0 0 0 1.265-5.213l-10.974-52.458c-.605-2.893-3.155-4.966-6.111-4.967h-2.501c-3.065-4.469-9.691-11.299-22.175-12.936v-21.45c0-8.325-12.488-8.325-12.488 0v21.617c-11.822 1.864-18.123 8.404-21.065 12.778h-2.45c-2.956 0-5.507 2.073-6.111 4.967l-10.974 52.458a6.21 6.21 0 0 0 1.265 5.213c1.189 1.457 2.971 2.305 4.847 2.305h1.968c-1.318 14.468-7.253 22.286-13.998 31.169-8.42 11.078-17.962 23.632-17.962 49.614 0 14.717 7.155 31.292 19.145 44.332 13.784 14.995 32.106 23.254 51.582 23.254 38.621 0 71.253-32.389 71.253-70.733 0-18.978-8.972-32.569-17.637-45.719-6.761-10.255-13.191-20.028-14.916-31.913zm-63.379-52.458h1.028c2.605 0 4.904-1.532 5.815-3.97.158-.379 4.005-9.331 18.35-9.331s18.35 9 18.489 9.331c.936 2.394 3.244 3.97 5.815 3.97h1.028l8.363 39.974H210.6zm24.689 188.339c-35.552 0-58.242-32.632-58.242-55.098s7.486-31.623 15.414-42.058c7.48-9.842 15.194-19.987 16.597-38.731h19.981v22.018h-6.313a6.25 6.25 0 0 0-4.781 2.223c-1.187 1.41-1.693 3.273-1.375 5.09l8.164 46.899c.521 2.988 3.113 5.169 6.146 5.172a6.49 6.49 0 0 0 1.078-.088 6.24 6.24 0 0 0 4.055-2.583 6.21 6.21 0 0 0 4.241 2.611c3.39.482 6.575-1.886 7.064-5.298l6.698-46.899c.537-3.761-2.381-7.127-6.181-7.127h-6.31v-22.018h19.835c1.706 15.443 9.524 27.293 17.108 38.791 8.01 12.141 15.581 23.613 15.581 38.842 0 31.024-27.461 58.242-58.765 58.242zm5.351-101.369l-4.724 33.08-5.758-33.08zm850.525 55.386c-3.128-1.41-6.831-.012-8.253 3.116-.022.053-2.438 5.276-7.37 10.208-5.02 5.02-10.29 7.701-10.365 7.742-5.903 2.943-3.805 11.837 2.791 11.832a6.16 6.16 0 0 0 2.763-.65c.29-.145 7.092-3.541 13.639-10.091 6.638-6.638 9.807-13.632 9.937-13.929 1.403-3.141 0-6.808-3.141-8.224zm-.069-84.409h3.197c1.88 0 3.661-.848 4.847-2.305a6.24 6.24 0 0 0 1.265-5.213l-10.974-52.458c-.605-2.893-3.156-4.966-6.111-4.967h-2.501c-3.065-4.469-9.691-11.299-22.175-12.936v-21.45c0-8.325-12.488-8.325-12.488 0v21.617c-11.822 1.864-18.123 8.404-21.065 12.778h-2.45c-2.956 0-5.507 2.073-6.111 4.967l-10.974 52.458a6.21 6.21 0 0 0 1.265 5.213c1.189 1.457 2.971 2.305 4.847 2.305h1.968c-1.318 14.468-7.253 22.286-13.998 31.169-8.42 11.078-17.962 23.632-17.962 49.614 0 14.717 7.155 31.292 19.145 44.332 13.784 14.995 32.106 23.254 51.582 23.254 38.621 0 71.253-32.389 71.253-70.733 0-18.978-8.972-32.569-17.637-45.719-6.761-10.255-13.191-20.028-14.916-31.913zm-63.379-52.458h1.028c2.605 0 4.904-1.533 5.815-3.97.158-.379 4.005-9.331 18.35-9.331s18.35 9 18.489 9.331c.936 2.394 3.244 3.97 5.815 3.97h1.028l8.363 39.974h-67.251zm24.689 188.339c-35.553 0-58.242-32.632-58.242-55.098s7.486-31.623 15.414-42.058c7.48-9.842 15.194-19.987 16.597-38.731h19.981v22.018h-6.313a6.25 6.25 0 0 0-4.781 2.223c-1.187 1.41-1.694 3.273-1.375 5.09l8.164 46.899c.521 2.988 3.113 5.169 6.146 5.172a6.49 6.49 0 0 0 1.078-.088 6.24 6.24 0 0 0 4.055-2.583 6.21 6.21 0 0 0 4.241 2.611c3.39.482 6.575-1.886 7.064-5.298l6.698-46.899c.537-3.761-2.381-7.127-6.181-7.127h-6.31v-22.018h19.836c1.706 15.443 9.523 27.293 17.108 38.791 8.01 12.141 15.581 23.613 15.581 38.842 0 31.024-27.461 58.242-58.765 58.242zm5.351-101.369l-4.724 33.08-5.758-33.08z"/></g></svg>