<svg xmlns="http://www.w3.org/2000/svg" xmlns:xlink="http://www.w3.org/1999/xlink" width="1280" height="720" xmlns:v="https://vecta.io/nano"><style><![CDATA[.C{clip-path:url(#clippath)}.D{clip-path:none}.E{fill:#1e5c93}.F{stroke-linecap:round}.G{stroke-linejoin:round}.H{stroke-width:4.875}.I{stroke-width:3.197}.J{stroke-miterlimit:10}.K{stroke-width:11.334}]]></style><defs><clipPath ><path d="M-14.17-14.17h736.48v426.75H-14.17z" fill="none" stroke-width="0"/></clipPath><path id="B" d="M403.6 477.45H106.64a9.04 9.04 0 0 1-8.9-7.43c-8.87-48.8 30.02-117.2 122.3-214.91-92.28-97.7-131.17-166.1-122.3-214.9a9.05 9.05 0 0 1 8.9-7.43H403.6a9.04 9.04 0 0 1 8.9 7.43c8.87 48.8-30.02 117.21-122.3 214.91 92.28 97.7 131.17 166.11 122.3 214.91a9.05 9.05 0 0 1-8.9 7.43zm-288.92-18.09h280.89c2.31-43.21-38.5-108.13-124.38-198a9.04 9.04 0 0 1 0-12.49c85.87-89.88 126.68-154.8 124.37-198H114.68c-2.31 43.2 38.5 108.13 124.38 198a9.04 9.04 0 0 1 0 12.49c-85.87 89.88-126.68 154.8-124.38 198z"/><path id="C" d="M430.09 477.45H80.15c-4.99 0-9.04-4.05-9.04-9.04s4.05-9.04 9.04-9.04h349.94c4.99 0 9.04 4.05 9.04 9.04s-4.05 9.04-9.04 9.04z"/><path id="D" d="M108.29 443a9.05 9.05 0 0 1-7.91-4.64c-2.43-4.36-.87-9.87 3.49-12.3.28-.15 27.97-15.57 60.18-30.88 44.05-20.94 75.4-31.76 93.21-32.18l2.25-.03c54.14 0 137.87 43.88 141.45 45.77 4.42 2.33 6.1 7.8 3.77 12.22a9.05 9.05 0 0 1-12.22 3.78c-.85-.45-85.49-44.92-134.84-43.66-30.83.72-115.12 44.11-144.99 60.77-1.39.78-2.91 1.15-4.4 1.15z"/><path id="E" d="M262.15 181.33c-40.62 0-116.51-21.07-119.72-21.97-4.81-1.34-7.62-6.33-6.28-11.14s6.33-7.62 11.14-6.28c.76.21 76.71 21.3 114.85 21.3s89.72-4.53 90.22-4.57c4.92-.44 9.37 3.22 9.82 8.19a9.05 9.05 0 0 1-8.19 9.82c-.51.05-52.05 4.65-91.84 4.65z"/><path id="F" d="M255.12 300.18c-3.65 0-7.09-2.23-8.46-5.84-.06-.16-6.72-17.32-20.92-33.19-3.33-3.72-3.02-9.44.7-12.77s9.44-3.02 12.77.7c16.55 18.48 24.06 38.03 24.37 38.85a9.05 9.05 0 0 1-5.26 11.66c-1.05.4-2.13.59-3.2.59z"/><path id="G" d="M255.12 300.18c-1.06 0-2.14-.19-3.2-.59-4.67-1.77-7.02-6.99-5.26-11.66.31-.82 7.82-20.37 24.37-38.85a9.04 9.04 0 0 1 12.77-.7c3.72 3.33 4.03 9.05.7 12.77-14.32 15.99-20.86 33.02-20.92 33.19-1.37 3.62-4.81 5.84-8.46 5.84z"/><path id="H" d="M257.47 337.58c-4.99 0-9.04-4.05-9.04-9.04v-.57c0-4.99 4.05-9.04 9.04-9.04s9.04 4.05 9.04 9.04v.57c0 4.99-4.05 9.04-9.04 9.04z"/><path id="I" d="M203.715 133.531c-20.152 0-33.043-18.543-33.043-31.433 0-23.91 16.519-22.836 16.519-44.594h32.911c0 17.195 16.929 25.519 16.929 42.98s-15.047 33.047-33.316 33.047"/><path id="J" d="M216.27 28.582s-2.602-6.816-12.457-6.816-12.383 6.816-12.383 6.816z"/></defs><path d="M0 0h1280v720H0z" fill="#ecfaff" class="D"/><path d="M375.087 407.259c30.544 0 50.08 28.117 50.08 47.681 0 36.275-25.034 34.643-25.034 67.657h-49.874c0-26.083-25.656-38.717-25.656-65.201 0-26.49 22.798-50.125 50.484-50.125" fill="#34c3ff" class="D"/><g class="E"><path d="M356.063 555.414s3.956 10.345 18.875 10.345c14.925 0 18.77-10.345 18.77-10.345z" class="D"/><path d="M342.814 512.507h64.16l-8.522 43.055h-47.115z" class="D"/></g><g stroke="#1e5c93"><path d="M341.298 440.88s2.142-4.787 6.725-9.374c4.576-4.588 9.309-6.93 9.309-6.93" fill="none" class="D F G I"/><g transform="matrix(.161122 0 0 .161122 202.31459 489.5591)" class="E J K"><use xlink:href="#B" class="C"/><use xlink:href="#C" class="C"/><path d="M430.09 50.87H80.15c-4.99 0-9.04-4.05-9.04-9.04s4.05-9.04 9.04-9.04h349.94c4.99 0 9.04 4.05 9.04 9.04s-4.05 9.04-9.04 9.04z" class="C"/><use xlink:href="#D" class="C"/><use xlink:href="#E" class="C"/><use xlink:href="#F" class="C"/><use xlink:href="#G" class="C"/><use xlink:href="#H" class="C"/></g></g><path d="M900.62 207.259c30.544 0 50.08 28.117 50.08 47.681 0 36.275-25.034 34.643-25.034 67.657h-49.874c0-26.083-25.656-38.717-25.656-65.201 0-26.49 22.798-50.125 50.484-50.125" fill="#34c3ff" class="D"/><g class="E"><path d="M881.596 355.414s3.956 10.345 18.875 10.345c14.925 0 18.77-10.345 18.77-10.345z" class="D"/><path d="M868.347 312.507h64.16l-8.522 43.055h-47.115z" class="D"/></g><g stroke="#1e5c93"><path d="M866.831 240.88s2.142-4.787 6.725-9.374c4.576-4.588 9.309-6.93 9.309-6.93" fill="none" class="D F G I"/><g class="E J K"><g transform="matrix(.161122 0 0 .161122 729.28967 289.5591)"><use xlink:href="#B" class="C"/><use xlink:href="#C" class="C"/><path d="M430.09 50.87H80.15c-4.99 0-9.04-4.05-9.04-9.04s4.05-9.04 9.04-9.04h349.94c4.99 0 9.04 4.05 9.04 9.04s-4.05 9.04-9.04 9.04z" class="C"/><use xlink:href="#D" class="C"/><use xlink:href="#E" class="C"/><use xlink:href="#F" class="C"/><use xlink:href="#G" class="C"/><use xlink:href="#H" class="C"/></g><g transform="matrix(.161122 0 0 .161122 992.77717 209.5591)"><use xlink:href="#B" class="C"/><use xlink:href="#C" class="C"/><path d="M430.09 50.87H80.15c-4.99 0-9.04-4.05-9.04-9.04s4.05-9.04 9.04-9.04h349.94c4.99 0 9.04 4.05 9.04 9.04s-4.05 9.04-9.04 9.04z" class="C"/><use xlink:href="#D" class="C"/><use xlink:href="#E" class="C"/><use xlink:href="#F" class="C"/><use xlink:href="#G" class="C"/><use xlink:href="#H" class="C"/></g><g transform="matrix(.161122 0 0 .161122 465.80207 409.5591)"><use xlink:href="#B" class="C"/><use xlink:href="#C" class="C"/><path d="M430.09 50.87H80.15c-4.99 0-9.04-4.05-9.04-9.04s4.05-9.04 9.04-9.04h349.94c4.99 0 9.04 4.05 9.04 9.04s-4.05 9.04-9.04 9.04z" class="C"/><use xlink:href="#D" class="C"/><use xlink:href="#E" class="C"/><use xlink:href="#F" class="C"/><use xlink:href="#G" class="C"/><use xlink:href="#H" class="C"/></g></g></g><path d="M202.469 148.02v19.726m-23.196-26.633l-9.074 13.809m58.223-13.809l9.074 13.809" class="D F G H" stroke="#ffc93c" transform="matrix(-1.456404 0 0 -1.457621 409.00576 681.09006)" fill="none"/><use xlink:href="#I" transform="matrix(-1.456404 0 0 -1.457621 409.00576 681.09006)" fill="#ffc93c" class="D"/><g class="E"><use xlink:href="#J" transform="matrix(-1.456404 0 0 -1.457621 409.00575 678.69971)" class="D"/><path d="M225.016 56.961h-42.34l5.625-28.379h31.09z" transform="matrix(-1.456404 0 0 -1.457621 409.00575 679.52817)" class="D"/></g><path d="M202.469 148.02v19.726m-23.196-26.633l-9.074 13.809m58.223-13.809l9.074 13.809" class="D F G H" stroke="#ff7b54" fill="#ff7b54" transform="matrix(-1.456404 0 0 -1.457621 934.53857 501.09)"/><use xlink:href="#I" transform="matrix(-1.456404 0 0 -1.457621 934.53857 501.09)" fill="#ff7b54" stroke="#ff7b54" class="D"/><g class="E"><use xlink:href="#J" transform="matrix(-1.456404 0 0 -1.457621 934.53855 498.69971)" class="D"/><path d="M225.016 56.961h-42.34l5.625-28.379h31.09z" transform="matrix(-1.456404 0 0 -1.457621 934.53855 499.52817)" class="D"/></g><path d="M202.469 148.02v19.726m-23.196-26.633l-9.074 13.809m58.223-13.809l9.074 13.809" class="D F G H" stroke="#1ead28" fill="#1ead28" transform="matrix(-1.456404 0 0 -1.457621 1460.0714 321.09)"/><use xlink:href="#I" transform="matrix(-1.456404 0 0 -1.457621 1460.0714 321.09)" fill="#1ead28" stroke="#1ead28" class="D"/><g class="E"><use xlink:href="#J" transform="matrix(-1.456404 0 0 -1.457621 1460.0714 318.69961)" class="D"/><path d="M225.016 56.961h-42.34l5.625-28.379h31.09z" transform="matrix(-1.456404 0 0 -1.457621 1460.0714 319.52807)" class="D"/></g></svg>