<svg width="1280" height="720" viewBox="0 0 1280 720" fill="none" xmlns="http://www.w3.org/2000/svg">
<g clip-path="url(#clip0_114_930)">
<rect width="1280" height="720" fill="white"/>
<path d="M-1 0H1279V719.999H-1V0Z" fill="#ECFAFF"/>
<path d="M-1 0H1279V719.999H-1V0Z" fill="#ECFAFF"/>
<mask id="mask0_114_930" style="mask-type:alpha" maskUnits="userSpaceOnUse" x="384" y="274" width="146" height="85">
<path d="M411.5 359L384 343V329L503.5 274L530 290.5L411.5 359Z" fill="#D08259"/>
</mask>
<g mask="url(#mask0_114_930)">
<path d="M411.5 359L384 343V329L503.5 274L530 290.5L411.5 359Z" fill="#D99773"/>
<path d="M411.5 361V342L429.5 327.5L457 340.5L411.5 361Z" fill="#D68270"/>
</g>
<path d="M384 328L503.5 259L530 275.5L411.5 344L384 328Z" fill="#EEBA8D"/>
<mask id="mask1_114_930" style="mask-type:alpha" maskUnits="userSpaceOnUse" x="768" y="497" width="146" height="85">
<path d="M795.5 582L768 566V552L887.5 497L914 513.5L795.5 582Z" fill="#D08259"/>
</mask>
<g mask="url(#mask1_114_930)">
<path d="M795.5 582L768 566V552L887.5 497L914 513.5L795.5 582Z" fill="#D99773"/>
<path d="M795.5 584V565L813.5 550.5L841 563.5L795.5 584Z" fill="#D68270"/>
</g>
<path d="M768 551L887.5 482L914 498.5L795.5 567L768 551Z" fill="#EEBA8D"/>
<mask id="mask2_114_930" style="mask-type:alpha" maskUnits="userSpaceOnUse" x="348" y="152" width="649" height="444">
<path d="M348 293L877 595.5L996.5 528.5V498L587 152.5L348 262.5V293Z" fill="#D09059"/>
</mask>
<g mask="url(#mask2_114_930)">
<path d="M348 293L877 595.5L996.5 528.5V498L587 152.5L348 262.5V293Z" fill="#D99773"/>
<path d="M878 530.5V620.5L1009 564V453.5L878 530.5Z" fill="#D68270"/>
</g>
<path d="M348 262.5L877.5 565L997 498L589 125L348 262.5Z" fill="#EEBA8D"/>
<g filter="url(#filter0_d_114_930)">
<path d="M591.017 133.05L634.512 153.5L634.512 158.059L393.5 296C379 280 367 273 351.005 270.52L351.005 265.5L591.017 133.05Z" fill="#6C205B"/>
<path d="M591.017 128.05C611.212 129.147 619.978 136.665 634.512 153.059L394.5 290.529C381.689 275.319 371.5 268.5 351.005 265.52L591.017 128.05Z" fill="#7C2869"/>
</g>
<g filter="url(#filter1_d_114_930)">
<path d="M634.505 172.73L678 193.18L678 197.739L449.995 328.456C435.495 312.456 423.495 305.456 407.5 302.976L407.5 297.956L634.505 172.73Z" fill="#2F2878"/>
<path d="M634.505 168.049C654.699 169.146 663.465 176.664 678 193.058L450.995 323.019C438.184 307.808 427.995 300.99 407.5 298.01L634.505 168.049Z" fill="#404E9D"/>
</g>
<g filter="url(#filter2_d_114_930)">
<path d="M679.011 214.728L722.506 235.178L722.506 239.737L508 362.762C493.5 346.762 481.5 339.762 465.505 337.282L465.505 332.262L679.011 214.728Z" fill="#3291FF"/>
<path d="M679.012 210.047C699.206 211.144 707.972 218.663 722.506 235.056L509.387 357C496.576 341.79 486.387 334.971 465.892 331.991L679.012 210.047Z" fill="#35C2FF"/>
</g>
<g filter="url(#filter3_d_114_930)">
<path d="M724.504 254.726L767.999 275.177L767.999 279.735L565.995 395.543C551.495 379.543 539.495 372.543 523.5 370.063L523.5 365.043L724.504 254.726Z" fill="#4CBA65"/>
<path d="M724.505 250.045C744.699 251.142 753.465 258.661 768 275.054L566.985 390.009C554.174 374.799 543.985 367.98 523.49 365L724.505 250.045Z" fill="#A5CD5B"/>
</g>
<g filter="url(#filter4_d_114_930)">
<path d="M771.506 294.538L815 314.989L815 319.547L624.353 428.98C609.853 412.98 597.853 405.98 581.858 403.5L581.858 398.48L771.506 294.538Z" fill="#F6A227"/>
<path d="M771.501 290.042C791.695 291.139 800.461 298.658 814.995 315.051L625.25 423.5C612.439 408.29 602.25 401.471 581.755 398.491L771.501 290.042Z" fill="#FFC93C"/>
</g>
<g filter="url(#filter5_d_114_930)">
<path d="M817.496 334.542L860.991 354.992L860.991 359.551L682.5 461.965C668 445.965 656 438.965 640.005 436.485L640.005 431.465L817.496 334.542Z" fill="#E7574A"/>
<path d="M817.501 330.04C837.696 331.137 846.461 338.655 860.996 355.049L683.354 456.509C670.543 441.298 660.354 434.48 639.859 431.5L817.501 330.04Z" fill="#FD7853"/>
</g>
<g filter="url(#filter6_d_114_930)">
<path d="M862.765 378.678L906.26 399.128L906.26 403.687L743.495 497.023C728.995 481.023 716.995 474.023 701 471.543L701 466.523L862.765 378.678Z" fill="#922D35"/>
<path d="M863.009 374.036C883.204 375.133 891.97 382.652 906.504 399.045L744.441 491.509C731.63 476.298 721.441 469.48 700.946 466.5L863.009 374.036Z" fill="#CE393C"/>
</g>
<g filter="url(#filter7_d_114_930)">
<path d="M907.505 420.542L951 440.992L951 445.551L803 530.518C788.5 514.518 776.5 507.518 760.505 505.038L760.505 500.018L907.505 420.542Z" fill="#7C2869"/>
<path d="M907.511 416.034C927.705 417.131 936.471 424.65 951.005 441.043L803.994 525.009C791.183 509.799 780.994 502.98 760.5 500L907.511 416.034Z" fill="#AC4695"/>
</g>
<g filter="url(#filter8_d_114_930)">
<path d="M953.499 460.537L996.993 480.987L996.993 485.546L855.71 566.477C841.21 550.477 829.21 543.477 813.216 540.997L813.216 535.977L953.499 460.537Z" fill="#B03A95"/>
<path d="M953.498 456.029C973.692 457.126 982.458 464.645 996.992 481.038L856.499 561.057C843.688 545.847 833.499 539.028 813.004 536.048L953.498 456.029Z" fill="#E165C5"/>
</g>
<g filter="url(#filter9_di_114_930)">
<circle cx="603" cy="141" r="5" fill="#D99773"/>
</g>
<g filter="url(#filter10_di_114_930)">
<circle cx="389" cy="266" r="5" fill="#D99773"/>
</g>
<g filter="url(#filter11_di_114_930)">
<circle cx="647" cy="183" r="5" fill="#D99773"/>
</g>
<g filter="url(#filter12_di_114_930)">
<circle cx="443" cy="299" r="5" fill="#D99773"/>
</g>
<g filter="url(#filter13_di_114_930)">
<circle cx="693" cy="225" r="5" fill="#D99773"/>
</g>
<g filter="url(#filter14_di_114_930)">
<circle cx="502" cy="334" r="5" fill="#D99773"/>
</g>
<g filter="url(#filter15_di_114_930)">
<circle cx="739" cy="265" r="5" fill="#D99773"/>
</g>
<g filter="url(#filter16_di_114_930)">
<circle cx="558" cy="367" r="5" fill="#D99773"/>
</g>
<g filter="url(#filter17_di_114_930)">
<circle cx="788" cy="304" r="5" fill="#D99773"/>
</g>
<g filter="url(#filter18_di_114_930)">
<circle cx="615" cy="401" r="5" fill="#D99773"/>
</g>
<g filter="url(#filter19_di_114_930)">
<circle cx="833" cy="344" r="5" fill="#D99773"/>
</g>
<g filter="url(#filter20_di_114_930)">
<circle cx="674" cy="434" r="5" fill="#D99773"/>
</g>
<g filter="url(#filter21_di_114_930)">
<circle cx="879" cy="388" r="5" fill="#D99773"/>
</g>
<g filter="url(#filter22_di_114_930)">
<circle cx="734" cy="467" r="5" fill="#D99773"/>
</g>
<g filter="url(#filter23_di_114_930)">
<circle cx="923" cy="430" r="5" fill="#D99773"/>
</g>
<g filter="url(#filter24_di_114_930)">
<circle cx="793" cy="502" r="5" fill="#D99773"/>
</g>
<g filter="url(#filter25_di_114_930)">
<circle cx="968" cy="471" r="5" fill="#D99773"/>
</g>
<g filter="url(#filter26_di_114_930)">
<circle cx="848" cy="538" r="5" fill="#D99773"/>
</g>
<path d="M-1 0H1279V719.999H-1V0Z" fill="#ECFAFF" fill-opacity="0.5"/>
<path d="M673.268 334.056H676.578V340.734H673.268V334.056Z" fill="#1EAD28"/>
<path d="M673.268 615.999H676.578V622.677H673.268V615.999Z" fill="#1EAD28"/>
<path d="M684.784 72.4122H665.211L674.998 36L684.784 72.4122Z" fill="#FF7B54"/>
<path d="M646.838 63.768H657.328V66.692H642.783V63.768L653.156 48.2092H642.861V45.3232H657.25V48.2092L646.838 63.768Z" fill="#FF7B54"/>
<path d="M325.545 54.6623L329.561 65.2317L335.529 69.7471L334.159 71.5565L328.384 67.1863L316.915 66.0671L318.429 64.0658L327.33 64.9517L324.086 56.5905L325.545 54.6623Z" fill="#7C2869"/>
<path d="M919.976 234.353L909.729 233.388L905.12 242.762L903.825 240.478L907.643 232.963L899.177 232.28L897.956 230.126L908.311 231.095L912.874 221.826L914.163 224.1L910.397 231.52L918.749 232.189L919.976 234.353Z" fill="#1EAD28"/>
<path d="M314.928 87.2275L316.818 84.5096L1081.75 616.424L1079.86 619.142L314.928 87.2275Z" fill="#7C2869"/>
<path d="M291.674 69.127L327.072 81.8954L315.952 97.645L291.674 69.127Z" fill="#7C2869"/>
<path d="M438 471.466L892.214 213.632L893.861 216.535L439.648 474.369L438 471.466Z" fill="#1EAD28"/>
<path d="M918.805 200.793L882.494 210.139L891.981 226.961L918.805 200.793Z" fill="#1EAD28"/>
<path d="M673.268 70.7324H676.578V334.086H673.268V70.7324Z" fill="#FF7B54"/>
<path d="M662.961 119.867C648.34 119.867 632.996 112.114 632.996 102.55C632.996 92.9862 650.617 85.2334 672.355 85.2334C694.092 85.2334 711.712 92.9862 711.712 102.55C711.712 112.114 695.515 119.867 680.681 119.867" stroke="#FF7B54" stroke-width="2.99996" stroke-miterlimit="1"/>
<path d="M358.269 121.535C351.01 131.194 338.27 137.481 331.952 132.733C325.633 127.984 329.261 112.493 340.053 98.1329C350.846 83.7715 364.718 75.9788 371.036 80.7276C377.354 85.4763 374.432 100.027 367.067 109.827" stroke="#7C2869" stroke-width="2.99996" stroke-miterlimit="1"/>
<path d="M888.636 310.398L884.52 302.939L876.955 307.112L875.313 304.135L882.878 299.962L878.781 292.537L881.478 291.049L885.574 298.474L893.174 294.281L894.817 297.257L887.217 301.451L891.333 308.91L888.636 310.398Z" fill="#1EAD28"/>
<path d="M627.915 107.492L619.396 107.664L619.571 116.302L616.172 116.37L615.997 107.732L607.519 107.903L607.457 104.824L615.935 104.653L615.76 95.9747L619.159 95.9061L619.334 104.584L627.852 104.412L627.915 107.492Z" fill="#FF7B54"/>
<path d="M393.991 62.3391L388.484 68.8395L395.075 74.4247L392.878 77.0187L386.286 71.4335L380.804 77.9034L378.454 75.9123L383.936 69.4425L377.313 63.8315L379.511 61.2374L386.134 66.8485L391.641 60.3481L393.991 62.3391Z" fill="#7C2869"/>
<path d="M825.226 195.723L822.558 197.261L814.586 183.436L817.254 181.897L825.226 195.723Z" fill="#1EAD28"/>
<path d="M735.551 104.678L735.582 107.757L719.623 107.917L719.592 104.837L735.551 104.678Z" fill="#FF7B54"/>
<path d="M327.367 139.315L329.685 141.343L319.174 153.353L316.857 151.325L327.367 139.315Z" fill="#7C2869"/>
<path d="M830.991 243.197C822.074 227.784 820.891 206.88 830.976 201.045C841.055 195.214 859.976 209.059 873.233 231.975C886.491 254.89 889.065 278.197 878.982 284.03C868.9 289.863 850.848 277.512 841.802 261.876" stroke="#1EAD28" stroke-width="2.99996" stroke-miterlimit="1"/>
</g>
<defs>
<filter id="filter0_d_114_930" x="344.305" y="125.35" width="296.907" height="181.35" filterUnits="userSpaceOnUse" color-interpolation-filters="sRGB">
<feFlood flood-opacity="0" result="BackgroundImageFix"/>
<feColorMatrix in="SourceAlpha" type="matrix" values="0 0 0 0 0 0 0 0 0 0 0 0 0 0 0 0 0 0 127 0" result="hardAlpha"/>
<feOffset dy="4"/>
<feGaussianBlur stdDeviation="3.35"/>
<feComposite in2="hardAlpha" operator="out"/>
<feColorMatrix type="matrix" values="0 0 0 0 0.893893 0 0 0 0 0.783885 0 0 0 0 0.86901 0 0 0 1 0"/>
<feBlend mode="multiply" in2="BackgroundImageFix" result="effect1_dropShadow_114_930"/>
<feBlend mode="normal" in="SourceGraphic" in2="effect1_dropShadow_114_930" result="shape"/>
</filter>
<filter id="filter1_d_114_930" x="400.8" y="165.349" width="283.9" height="173.807" filterUnits="userSpaceOnUse" color-interpolation-filters="sRGB">
<feFlood flood-opacity="0" result="BackgroundImageFix"/>
<feColorMatrix in="SourceAlpha" type="matrix" values="0 0 0 0 0 0 0 0 0 0 0 0 0 0 0 0 0 0 127 0" result="hardAlpha"/>
<feOffset dy="4"/>
<feGaussianBlur stdDeviation="3.35"/>
<feComposite in2="hardAlpha" operator="out"/>
<feColorMatrix type="matrix" values="0 0 0 0 0.893893 0 0 0 0 0.783885 0 0 0 0 0.86901 0 0 0 1 0"/>
<feBlend mode="multiply" in2="BackgroundImageFix" result="effect1_dropShadow_114_930"/>
<feBlend mode="normal" in="SourceGraphic" in2="effect1_dropShadow_114_930" result="shape"/>
</filter>
<filter id="filter2_d_114_930" x="458.805" y="207.347" width="270.401" height="166.116" filterUnits="userSpaceOnUse" color-interpolation-filters="sRGB">
<feFlood flood-opacity="0" result="BackgroundImageFix"/>
<feColorMatrix in="SourceAlpha" type="matrix" values="0 0 0 0 0 0 0 0 0 0 0 0 0 0 0 0 0 0 127 0" result="hardAlpha"/>
<feOffset dy="4"/>
<feGaussianBlur stdDeviation="3.35"/>
<feComposite in2="hardAlpha" operator="out"/>
<feColorMatrix type="matrix" values="0 0 0 0 0.893893 0 0 0 0 0.783885 0 0 0 0 0.86901 0 0 0 1 0"/>
<feBlend mode="multiply" in2="BackgroundImageFix" result="effect1_dropShadow_114_930"/>
<feBlend mode="normal" in="SourceGraphic" in2="effect1_dropShadow_114_930" result="shape"/>
</filter>
<filter id="filter3_d_114_930" x="516.79" y="247.346" width="257.909" height="158.897" filterUnits="userSpaceOnUse" color-interpolation-filters="sRGB">
<feFlood flood-opacity="0" result="BackgroundImageFix"/>
<feColorMatrix in="SourceAlpha" type="matrix" values="0 0 0 0 0 0 0 0 0 0 0 0 0 0 0 0 0 0 127 0" result="hardAlpha"/>
<feOffset dy="4"/>
<feGaussianBlur stdDeviation="3.35"/>
<feComposite in2="hardAlpha" operator="out"/>
<feColorMatrix type="matrix" values="0 0 0 0 0.893893 0 0 0 0 0.783885 0 0 0 0 0.86901 0 0 0 1 0"/>
<feBlend mode="multiply" in2="BackgroundImageFix" result="effect1_dropShadow_114_930"/>
<feBlend mode="normal" in="SourceGraphic" in2="effect1_dropShadow_114_930" result="shape"/>
</filter>
<filter id="filter4_d_114_930" x="575.055" y="287.342" width="246.646" height="152.337" filterUnits="userSpaceOnUse" color-interpolation-filters="sRGB">
<feFlood flood-opacity="0" result="BackgroundImageFix"/>
<feColorMatrix in="SourceAlpha" type="matrix" values="0 0 0 0 0 0 0 0 0 0 0 0 0 0 0 0 0 0 127 0" result="hardAlpha"/>
<feOffset dy="4"/>
<feGaussianBlur stdDeviation="3.35"/>
<feComposite in2="hardAlpha" operator="out"/>
<feColorMatrix type="matrix" values="0 0 0 0 0.893893 0 0 0 0 0.783885 0 0 0 0 0.86901 0 0 0 1 0"/>
<feBlend mode="multiply" in2="BackgroundImageFix" result="effect1_dropShadow_114_930"/>
<feBlend mode="normal" in="SourceGraphic" in2="effect1_dropShadow_114_930" result="shape"/>
</filter>
<filter id="filter5_d_114_930" x="633.159" y="327.34" width="234.536" height="145.325" filterUnits="userSpaceOnUse" color-interpolation-filters="sRGB">
<feFlood flood-opacity="0" result="BackgroundImageFix"/>
<feColorMatrix in="SourceAlpha" type="matrix" values="0 0 0 0 0 0 0 0 0 0 0 0 0 0 0 0 0 0 127 0" result="hardAlpha"/>
<feOffset dy="4"/>
<feGaussianBlur stdDeviation="3.35"/>
<feComposite in2="hardAlpha" operator="out"/>
<feColorMatrix type="matrix" values="0 0 0 0 0.893893 0 0 0 0 0.783885 0 0 0 0 0.86901 0 0 0 1 0"/>
<feBlend mode="multiply" in2="BackgroundImageFix" result="effect1_dropShadow_114_930"/>
<feBlend mode="normal" in="SourceGraphic" in2="effect1_dropShadow_114_930" result="shape"/>
</filter>
<filter id="filter6_d_114_930" x="694.247" y="371.336" width="218.957" height="136.386" filterUnits="userSpaceOnUse" color-interpolation-filters="sRGB">
<feFlood flood-opacity="0" result="BackgroundImageFix"/>
<feColorMatrix in="SourceAlpha" type="matrix" values="0 0 0 0 0 0 0 0 0 0 0 0 0 0 0 0 0 0 127 0" result="hardAlpha"/>
<feOffset dy="4"/>
<feGaussianBlur stdDeviation="3.35"/>
<feComposite in2="hardAlpha" operator="out"/>
<feColorMatrix type="matrix" values="0 0 0 0 0.893893 0 0 0 0 0.783885 0 0 0 0 0.86901 0 0 0 1 0"/>
<feBlend mode="multiply" in2="BackgroundImageFix" result="effect1_dropShadow_114_930"/>
<feBlend mode="normal" in="SourceGraphic" in2="effect1_dropShadow_114_930" result="shape"/>
</filter>
<filter id="filter7_d_114_930" x="753.8" y="413.334" width="203.906" height="127.883" filterUnits="userSpaceOnUse" color-interpolation-filters="sRGB">
<feFlood flood-opacity="0" result="BackgroundImageFix"/>
<feColorMatrix in="SourceAlpha" type="matrix" values="0 0 0 0 0 0 0 0 0 0 0 0 0 0 0 0 0 0 127 0" result="hardAlpha"/>
<feOffset dy="4"/>
<feGaussianBlur stdDeviation="3.35"/>
<feComposite in2="hardAlpha" operator="out"/>
<feColorMatrix type="matrix" values="0 0 0 0 0.893893 0 0 0 0 0.783885 0 0 0 0 0.86901 0 0 0 1 0"/>
<feBlend mode="multiply" in2="BackgroundImageFix" result="effect1_dropShadow_114_930"/>
<feBlend mode="normal" in="SourceGraphic" in2="effect1_dropShadow_114_930" result="shape"/>
</filter>
<filter id="filter8_d_114_930" x="806.304" y="453.329" width="197.39" height="123.847" filterUnits="userSpaceOnUse" color-interpolation-filters="sRGB">
<feFlood flood-opacity="0" result="BackgroundImageFix"/>
<feColorMatrix in="SourceAlpha" type="matrix" values="0 0 0 0 0 0 0 0 0 0 0 0 0 0 0 0 0 0 127 0" result="hardAlpha"/>
<feOffset dy="4"/>
<feGaussianBlur stdDeviation="3.35"/>
<feComposite in2="hardAlpha" operator="out"/>
<feColorMatrix type="matrix" values="0 0 0 0 0.893893 0 0 0 0 0.783885 0 0 0 0 0.86901 0 0 0 1 0"/>
<feBlend mode="multiply" in2="BackgroundImageFix" result="effect1_dropShadow_114_930"/>
<feBlend mode="normal" in="SourceGraphic" in2="effect1_dropShadow_114_930" result="shape"/>
</filter>
<filter id="filter9_di_114_930" x="594" y="136" width="18" height="18" filterUnits="userSpaceOnUse" color-interpolation-filters="sRGB">
<feFlood flood-opacity="0" result="BackgroundImageFix"/>
<feColorMatrix in="SourceAlpha" type="matrix" values="0 0 0 0 0 0 0 0 0 0 0 0 0 0 0 0 0 0 127 0" result="hardAlpha"/>
<feOffset dy="4"/>
<feGaussianBlur stdDeviation="2"/>
<feComposite in2="hardAlpha" operator="out"/>
<feColorMatrix type="matrix" values="0 0 0 0 0.893893 0 0 0 0 0.783885 0 0 0 0 0.86901 0 0 0 0.3 0"/>
<feBlend mode="multiply" in2="BackgroundImageFix" result="effect1_dropShadow_114_930"/>
<feBlend mode="normal" in="SourceGraphic" in2="effect1_dropShadow_114_930" result="shape"/>
<feColorMatrix in="SourceAlpha" type="matrix" values="0 0 0 0 0 0 0 0 0 0 0 0 0 0 0 0 0 0 127 0" result="hardAlpha"/>
<feOffset dy="4"/>
<feGaussianBlur stdDeviation="2"/>
<feComposite in2="hardAlpha" operator="arithmetic" k2="-1" k3="1"/>
<feColorMatrix type="matrix" values="0 0 0 0 0.933333 0 0 0 0 0.72549 0 0 0 0 0.552941 0 0 0 1 0"/>
<feBlend mode="normal" in2="shape" result="effect2_innerShadow_114_930"/>
</filter>
<filter id="filter10_di_114_930" x="380" y="261" width="18" height="18" filterUnits="userSpaceOnUse" color-interpolation-filters="sRGB">
<feFlood flood-opacity="0" result="BackgroundImageFix"/>
<feColorMatrix in="SourceAlpha" type="matrix" values="0 0 0 0 0 0 0 0 0 0 0 0 0 0 0 0 0 0 127 0" result="hardAlpha"/>
<feOffset dy="4"/>
<feGaussianBlur stdDeviation="2"/>
<feComposite in2="hardAlpha" operator="out"/>
<feColorMatrix type="matrix" values="0 0 0 0 0.893893 0 0 0 0 0.783885 0 0 0 0 0.86901 0 0 0 0.3 0"/>
<feBlend mode="multiply" in2="BackgroundImageFix" result="effect1_dropShadow_114_930"/>
<feBlend mode="normal" in="SourceGraphic" in2="effect1_dropShadow_114_930" result="shape"/>
<feColorMatrix in="SourceAlpha" type="matrix" values="0 0 0 0 0 0 0 0 0 0 0 0 0 0 0 0 0 0 127 0" result="hardAlpha"/>
<feOffset dy="4"/>
<feGaussianBlur stdDeviation="2"/>
<feComposite in2="hardAlpha" operator="arithmetic" k2="-1" k3="1"/>
<feColorMatrix type="matrix" values="0 0 0 0 0.933333 0 0 0 0 0.72549 0 0 0 0 0.552941 0 0 0 1 0"/>
<feBlend mode="normal" in2="shape" result="effect2_innerShadow_114_930"/>
</filter>
<filter id="filter11_di_114_930" x="638" y="178" width="18" height="18" filterUnits="userSpaceOnUse" color-interpolation-filters="sRGB">
<feFlood flood-opacity="0" result="BackgroundImageFix"/>
<feColorMatrix in="SourceAlpha" type="matrix" values="0 0 0 0 0 0 0 0 0 0 0 0 0 0 0 0 0 0 127 0" result="hardAlpha"/>
<feOffset dy="4"/>
<feGaussianBlur stdDeviation="2"/>
<feComposite in2="hardAlpha" operator="out"/>
<feColorMatrix type="matrix" values="0 0 0 0 0.893893 0 0 0 0 0.783885 0 0 0 0 0.86901 0 0 0 0.3 0"/>
<feBlend mode="multiply" in2="BackgroundImageFix" result="effect1_dropShadow_114_930"/>
<feBlend mode="normal" in="SourceGraphic" in2="effect1_dropShadow_114_930" result="shape"/>
<feColorMatrix in="SourceAlpha" type="matrix" values="0 0 0 0 0 0 0 0 0 0 0 0 0 0 0 0 0 0 127 0" result="hardAlpha"/>
<feOffset dy="4"/>
<feGaussianBlur stdDeviation="2"/>
<feComposite in2="hardAlpha" operator="arithmetic" k2="-1" k3="1"/>
<feColorMatrix type="matrix" values="0 0 0 0 0.933333 0 0 0 0 0.72549 0 0 0 0 0.552941 0 0 0 1 0"/>
<feBlend mode="normal" in2="shape" result="effect2_innerShadow_114_930"/>
</filter>
<filter id="filter12_di_114_930" x="434" y="294" width="18" height="18" filterUnits="userSpaceOnUse" color-interpolation-filters="sRGB">
<feFlood flood-opacity="0" result="BackgroundImageFix"/>
<feColorMatrix in="SourceAlpha" type="matrix" values="0 0 0 0 0 0 0 0 0 0 0 0 0 0 0 0 0 0 127 0" result="hardAlpha"/>
<feOffset dy="4"/>
<feGaussianBlur stdDeviation="2"/>
<feComposite in2="hardAlpha" operator="out"/>
<feColorMatrix type="matrix" values="0 0 0 0 0.893893 0 0 0 0 0.783885 0 0 0 0 0.86901 0 0 0 0.3 0"/>
<feBlend mode="multiply" in2="BackgroundImageFix" result="effect1_dropShadow_114_930"/>
<feBlend mode="normal" in="SourceGraphic" in2="effect1_dropShadow_114_930" result="shape"/>
<feColorMatrix in="SourceAlpha" type="matrix" values="0 0 0 0 0 0 0 0 0 0 0 0 0 0 0 0 0 0 127 0" result="hardAlpha"/>
<feOffset dy="4"/>
<feGaussianBlur stdDeviation="2"/>
<feComposite in2="hardAlpha" operator="arithmetic" k2="-1" k3="1"/>
<feColorMatrix type="matrix" values="0 0 0 0 0.933333 0 0 0 0 0.72549 0 0 0 0 0.552941 0 0 0 1 0"/>
<feBlend mode="normal" in2="shape" result="effect2_innerShadow_114_930"/>
</filter>
<filter id="filter13_di_114_930" x="684" y="220" width="18" height="18" filterUnits="userSpaceOnUse" color-interpolation-filters="sRGB">
<feFlood flood-opacity="0" result="BackgroundImageFix"/>
<feColorMatrix in="SourceAlpha" type="matrix" values="0 0 0 0 0 0 0 0 0 0 0 0 0 0 0 0 0 0 127 0" result="hardAlpha"/>
<feOffset dy="4"/>
<feGaussianBlur stdDeviation="2"/>
<feComposite in2="hardAlpha" operator="out"/>
<feColorMatrix type="matrix" values="0 0 0 0 0.893893 0 0 0 0 0.783885 0 0 0 0 0.86901 0 0 0 0.3 0"/>
<feBlend mode="multiply" in2="BackgroundImageFix" result="effect1_dropShadow_114_930"/>
<feBlend mode="normal" in="SourceGraphic" in2="effect1_dropShadow_114_930" result="shape"/>
<feColorMatrix in="SourceAlpha" type="matrix" values="0 0 0 0 0 0 0 0 0 0 0 0 0 0 0 0 0 0 127 0" result="hardAlpha"/>
<feOffset dy="4"/>
<feGaussianBlur stdDeviation="2"/>
<feComposite in2="hardAlpha" operator="arithmetic" k2="-1" k3="1"/>
<feColorMatrix type="matrix" values="0 0 0 0 0.933333 0 0 0 0 0.72549 0 0 0 0 0.552941 0 0 0 1 0"/>
<feBlend mode="normal" in2="shape" result="effect2_innerShadow_114_930"/>
</filter>
<filter id="filter14_di_114_930" x="493" y="329" width="18" height="18" filterUnits="userSpaceOnUse" color-interpolation-filters="sRGB">
<feFlood flood-opacity="0" result="BackgroundImageFix"/>
<feColorMatrix in="SourceAlpha" type="matrix" values="0 0 0 0 0 0 0 0 0 0 0 0 0 0 0 0 0 0 127 0" result="hardAlpha"/>
<feOffset dy="4"/>
<feGaussianBlur stdDeviation="2"/>
<feComposite in2="hardAlpha" operator="out"/>
<feColorMatrix type="matrix" values="0 0 0 0 0.893893 0 0 0 0 0.783885 0 0 0 0 0.86901 0 0 0 0.3 0"/>
<feBlend mode="multiply" in2="BackgroundImageFix" result="effect1_dropShadow_114_930"/>
<feBlend mode="normal" in="SourceGraphic" in2="effect1_dropShadow_114_930" result="shape"/>
<feColorMatrix in="SourceAlpha" type="matrix" values="0 0 0 0 0 0 0 0 0 0 0 0 0 0 0 0 0 0 127 0" result="hardAlpha"/>
<feOffset dy="4"/>
<feGaussianBlur stdDeviation="2"/>
<feComposite in2="hardAlpha" operator="arithmetic" k2="-1" k3="1"/>
<feColorMatrix type="matrix" values="0 0 0 0 0.933333 0 0 0 0 0.72549 0 0 0 0 0.552941 0 0 0 1 0"/>
<feBlend mode="normal" in2="shape" result="effect2_innerShadow_114_930"/>
</filter>
<filter id="filter15_di_114_930" x="730" y="260" width="18" height="18" filterUnits="userSpaceOnUse" color-interpolation-filters="sRGB">
<feFlood flood-opacity="0" result="BackgroundImageFix"/>
<feColorMatrix in="SourceAlpha" type="matrix" values="0 0 0 0 0 0 0 0 0 0 0 0 0 0 0 0 0 0 127 0" result="hardAlpha"/>
<feOffset dy="4"/>
<feGaussianBlur stdDeviation="2"/>
<feComposite in2="hardAlpha" operator="out"/>
<feColorMatrix type="matrix" values="0 0 0 0 0.893893 0 0 0 0 0.783885 0 0 0 0 0.86901 0 0 0 0.3 0"/>
<feBlend mode="multiply" in2="BackgroundImageFix" result="effect1_dropShadow_114_930"/>
<feBlend mode="normal" in="SourceGraphic" in2="effect1_dropShadow_114_930" result="shape"/>
<feColorMatrix in="SourceAlpha" type="matrix" values="0 0 0 0 0 0 0 0 0 0 0 0 0 0 0 0 0 0 127 0" result="hardAlpha"/>
<feOffset dy="4"/>
<feGaussianBlur stdDeviation="2"/>
<feComposite in2="hardAlpha" operator="arithmetic" k2="-1" k3="1"/>
<feColorMatrix type="matrix" values="0 0 0 0 0.933333 0 0 0 0 0.72549 0 0 0 0 0.552941 0 0 0 1 0"/>
<feBlend mode="normal" in2="shape" result="effect2_innerShadow_114_930"/>
</filter>
<filter id="filter16_di_114_930" x="549" y="362" width="18" height="18" filterUnits="userSpaceOnUse" color-interpolation-filters="sRGB">
<feFlood flood-opacity="0" result="BackgroundImageFix"/>
<feColorMatrix in="SourceAlpha" type="matrix" values="0 0 0 0 0 0 0 0 0 0 0 0 0 0 0 0 0 0 127 0" result="hardAlpha"/>
<feOffset dy="4"/>
<feGaussianBlur stdDeviation="2"/>
<feComposite in2="hardAlpha" operator="out"/>
<feColorMatrix type="matrix" values="0 0 0 0 0.893893 0 0 0 0 0.783885 0 0 0 0 0.86901 0 0 0 0.3 0"/>
<feBlend mode="multiply" in2="BackgroundImageFix" result="effect1_dropShadow_114_930"/>
<feBlend mode="normal" in="SourceGraphic" in2="effect1_dropShadow_114_930" result="shape"/>
<feColorMatrix in="SourceAlpha" type="matrix" values="0 0 0 0 0 0 0 0 0 0 0 0 0 0 0 0 0 0 127 0" result="hardAlpha"/>
<feOffset dy="4"/>
<feGaussianBlur stdDeviation="2"/>
<feComposite in2="hardAlpha" operator="arithmetic" k2="-1" k3="1"/>
<feColorMatrix type="matrix" values="0 0 0 0 0.933333 0 0 0 0 0.72549 0 0 0 0 0.552941 0 0 0 1 0"/>
<feBlend mode="normal" in2="shape" result="effect2_innerShadow_114_930"/>
</filter>
<filter id="filter17_di_114_930" x="779" y="299" width="18" height="18" filterUnits="userSpaceOnUse" color-interpolation-filters="sRGB">
<feFlood flood-opacity="0" result="BackgroundImageFix"/>
<feColorMatrix in="SourceAlpha" type="matrix" values="0 0 0 0 0 0 0 0 0 0 0 0 0 0 0 0 0 0 127 0" result="hardAlpha"/>
<feOffset dy="4"/>
<feGaussianBlur stdDeviation="2"/>
<feComposite in2="hardAlpha" operator="out"/>
<feColorMatrix type="matrix" values="0 0 0 0 0.893893 0 0 0 0 0.783885 0 0 0 0 0.86901 0 0 0 0.3 0"/>
<feBlend mode="multiply" in2="BackgroundImageFix" result="effect1_dropShadow_114_930"/>
<feBlend mode="normal" in="SourceGraphic" in2="effect1_dropShadow_114_930" result="shape"/>
<feColorMatrix in="SourceAlpha" type="matrix" values="0 0 0 0 0 0 0 0 0 0 0 0 0 0 0 0 0 0 127 0" result="hardAlpha"/>
<feOffset dy="4"/>
<feGaussianBlur stdDeviation="2"/>
<feComposite in2="hardAlpha" operator="arithmetic" k2="-1" k3="1"/>
<feColorMatrix type="matrix" values="0 0 0 0 0.933333 0 0 0 0 0.72549 0 0 0 0 0.552941 0 0 0 1 0"/>
<feBlend mode="normal" in2="shape" result="effect2_innerShadow_114_930"/>
</filter>
<filter id="filter18_di_114_930" x="606" y="396" width="18" height="18" filterUnits="userSpaceOnUse" color-interpolation-filters="sRGB">
<feFlood flood-opacity="0" result="BackgroundImageFix"/>
<feColorMatrix in="SourceAlpha" type="matrix" values="0 0 0 0 0 0 0 0 0 0 0 0 0 0 0 0 0 0 127 0" result="hardAlpha"/>
<feOffset dy="4"/>
<feGaussianBlur stdDeviation="2"/>
<feComposite in2="hardAlpha" operator="out"/>
<feColorMatrix type="matrix" values="0 0 0 0 0.893893 0 0 0 0 0.783885 0 0 0 0 0.86901 0 0 0 0.3 0"/>
<feBlend mode="multiply" in2="BackgroundImageFix" result="effect1_dropShadow_114_930"/>
<feBlend mode="normal" in="SourceGraphic" in2="effect1_dropShadow_114_930" result="shape"/>
<feColorMatrix in="SourceAlpha" type="matrix" values="0 0 0 0 0 0 0 0 0 0 0 0 0 0 0 0 0 0 127 0" result="hardAlpha"/>
<feOffset dy="4"/>
<feGaussianBlur stdDeviation="2"/>
<feComposite in2="hardAlpha" operator="arithmetic" k2="-1" k3="1"/>
<feColorMatrix type="matrix" values="0 0 0 0 0.933333 0 0 0 0 0.72549 0 0 0 0 0.552941 0 0 0 1 0"/>
<feBlend mode="normal" in2="shape" result="effect2_innerShadow_114_930"/>
</filter>
<filter id="filter19_di_114_930" x="824" y="339" width="18" height="18" filterUnits="userSpaceOnUse" color-interpolation-filters="sRGB">
<feFlood flood-opacity="0" result="BackgroundImageFix"/>
<feColorMatrix in="SourceAlpha" type="matrix" values="0 0 0 0 0 0 0 0 0 0 0 0 0 0 0 0 0 0 127 0" result="hardAlpha"/>
<feOffset dy="4"/>
<feGaussianBlur stdDeviation="2"/>
<feComposite in2="hardAlpha" operator="out"/>
<feColorMatrix type="matrix" values="0 0 0 0 0.893893 0 0 0 0 0.783885 0 0 0 0 0.86901 0 0 0 0.3 0"/>
<feBlend mode="multiply" in2="BackgroundImageFix" result="effect1_dropShadow_114_930"/>
<feBlend mode="normal" in="SourceGraphic" in2="effect1_dropShadow_114_930" result="shape"/>
<feColorMatrix in="SourceAlpha" type="matrix" values="0 0 0 0 0 0 0 0 0 0 0 0 0 0 0 0 0 0 127 0" result="hardAlpha"/>
<feOffset dy="4"/>
<feGaussianBlur stdDeviation="2"/>
<feComposite in2="hardAlpha" operator="arithmetic" k2="-1" k3="1"/>
<feColorMatrix type="matrix" values="0 0 0 0 0.933333 0 0 0 0 0.72549 0 0 0 0 0.552941 0 0 0 1 0"/>
<feBlend mode="normal" in2="shape" result="effect2_innerShadow_114_930"/>
</filter>
<filter id="filter20_di_114_930" x="665" y="429" width="18" height="18" filterUnits="userSpaceOnUse" color-interpolation-filters="sRGB">
<feFlood flood-opacity="0" result="BackgroundImageFix"/>
<feColorMatrix in="SourceAlpha" type="matrix" values="0 0 0 0 0 0 0 0 0 0 0 0 0 0 0 0 0 0 127 0" result="hardAlpha"/>
<feOffset dy="4"/>
<feGaussianBlur stdDeviation="2"/>
<feComposite in2="hardAlpha" operator="out"/>
<feColorMatrix type="matrix" values="0 0 0 0 0.893893 0 0 0 0 0.783885 0 0 0 0 0.86901 0 0 0 0.3 0"/>
<feBlend mode="multiply" in2="BackgroundImageFix" result="effect1_dropShadow_114_930"/>
<feBlend mode="normal" in="SourceGraphic" in2="effect1_dropShadow_114_930" result="shape"/>
<feColorMatrix in="SourceAlpha" type="matrix" values="0 0 0 0 0 0 0 0 0 0 0 0 0 0 0 0 0 0 127 0" result="hardAlpha"/>
<feOffset dy="4"/>
<feGaussianBlur stdDeviation="2"/>
<feComposite in2="hardAlpha" operator="arithmetic" k2="-1" k3="1"/>
<feColorMatrix type="matrix" values="0 0 0 0 0.933333 0 0 0 0 0.72549 0 0 0 0 0.552941 0 0 0 1 0"/>
<feBlend mode="normal" in2="shape" result="effect2_innerShadow_114_930"/>
</filter>
<filter id="filter21_di_114_930" x="870" y="383" width="18" height="18" filterUnits="userSpaceOnUse" color-interpolation-filters="sRGB">
<feFlood flood-opacity="0" result="BackgroundImageFix"/>
<feColorMatrix in="SourceAlpha" type="matrix" values="0 0 0 0 0 0 0 0 0 0 0 0 0 0 0 0 0 0 127 0" result="hardAlpha"/>
<feOffset dy="4"/>
<feGaussianBlur stdDeviation="2"/>
<feComposite in2="hardAlpha" operator="out"/>
<feColorMatrix type="matrix" values="0 0 0 0 0.893893 0 0 0 0 0.783885 0 0 0 0 0.86901 0 0 0 0.3 0"/>
<feBlend mode="multiply" in2="BackgroundImageFix" result="effect1_dropShadow_114_930"/>
<feBlend mode="normal" in="SourceGraphic" in2="effect1_dropShadow_114_930" result="shape"/>
<feColorMatrix in="SourceAlpha" type="matrix" values="0 0 0 0 0 0 0 0 0 0 0 0 0 0 0 0 0 0 127 0" result="hardAlpha"/>
<feOffset dy="4"/>
<feGaussianBlur stdDeviation="2"/>
<feComposite in2="hardAlpha" operator="arithmetic" k2="-1" k3="1"/>
<feColorMatrix type="matrix" values="0 0 0 0 0.933333 0 0 0 0 0.72549 0 0 0 0 0.552941 0 0 0 1 0"/>
<feBlend mode="normal" in2="shape" result="effect2_innerShadow_114_930"/>
</filter>
<filter id="filter22_di_114_930" x="725" y="462" width="18" height="18" filterUnits="userSpaceOnUse" color-interpolation-filters="sRGB">
<feFlood flood-opacity="0" result="BackgroundImageFix"/>
<feColorMatrix in="SourceAlpha" type="matrix" values="0 0 0 0 0 0 0 0 0 0 0 0 0 0 0 0 0 0 127 0" result="hardAlpha"/>
<feOffset dy="4"/>
<feGaussianBlur stdDeviation="2"/>
<feComposite in2="hardAlpha" operator="out"/>
<feColorMatrix type="matrix" values="0 0 0 0 0.893893 0 0 0 0 0.783885 0 0 0 0 0.86901 0 0 0 0.3 0"/>
<feBlend mode="multiply" in2="BackgroundImageFix" result="effect1_dropShadow_114_930"/>
<feBlend mode="normal" in="SourceGraphic" in2="effect1_dropShadow_114_930" result="shape"/>
<feColorMatrix in="SourceAlpha" type="matrix" values="0 0 0 0 0 0 0 0 0 0 0 0 0 0 0 0 0 0 127 0" result="hardAlpha"/>
<feOffset dy="4"/>
<feGaussianBlur stdDeviation="2"/>
<feComposite in2="hardAlpha" operator="arithmetic" k2="-1" k3="1"/>
<feColorMatrix type="matrix" values="0 0 0 0 0.933333 0 0 0 0 0.72549 0 0 0 0 0.552941 0 0 0 1 0"/>
<feBlend mode="normal" in2="shape" result="effect2_innerShadow_114_930"/>
</filter>
<filter id="filter23_di_114_930" x="914" y="425" width="18" height="18" filterUnits="userSpaceOnUse" color-interpolation-filters="sRGB">
<feFlood flood-opacity="0" result="BackgroundImageFix"/>
<feColorMatrix in="SourceAlpha" type="matrix" values="0 0 0 0 0 0 0 0 0 0 0 0 0 0 0 0 0 0 127 0" result="hardAlpha"/>
<feOffset dy="4"/>
<feGaussianBlur stdDeviation="2"/>
<feComposite in2="hardAlpha" operator="out"/>
<feColorMatrix type="matrix" values="0 0 0 0 0.893893 0 0 0 0 0.783885 0 0 0 0 0.86901 0 0 0 0.3 0"/>
<feBlend mode="multiply" in2="BackgroundImageFix" result="effect1_dropShadow_114_930"/>
<feBlend mode="normal" in="SourceGraphic" in2="effect1_dropShadow_114_930" result="shape"/>
<feColorMatrix in="SourceAlpha" type="matrix" values="0 0 0 0 0 0 0 0 0 0 0 0 0 0 0 0 0 0 127 0" result="hardAlpha"/>
<feOffset dy="4"/>
<feGaussianBlur stdDeviation="2"/>
<feComposite in2="hardAlpha" operator="arithmetic" k2="-1" k3="1"/>
<feColorMatrix type="matrix" values="0 0 0 0 0.933333 0 0 0 0 0.72549 0 0 0 0 0.552941 0 0 0 1 0"/>
<feBlend mode="normal" in2="shape" result="effect2_innerShadow_114_930"/>
</filter>
<filter id="filter24_di_114_930" x="784" y="497" width="18" height="18" filterUnits="userSpaceOnUse" color-interpolation-filters="sRGB">
<feFlood flood-opacity="0" result="BackgroundImageFix"/>
<feColorMatrix in="SourceAlpha" type="matrix" values="0 0 0 0 0 0 0 0 0 0 0 0 0 0 0 0 0 0 127 0" result="hardAlpha"/>
<feOffset dy="4"/>
<feGaussianBlur stdDeviation="2"/>
<feComposite in2="hardAlpha" operator="out"/>
<feColorMatrix type="matrix" values="0 0 0 0 0.893893 0 0 0 0 0.783885 0 0 0 0 0.86901 0 0 0 0.3 0"/>
<feBlend mode="multiply" in2="BackgroundImageFix" result="effect1_dropShadow_114_930"/>
<feBlend mode="normal" in="SourceGraphic" in2="effect1_dropShadow_114_930" result="shape"/>
<feColorMatrix in="SourceAlpha" type="matrix" values="0 0 0 0 0 0 0 0 0 0 0 0 0 0 0 0 0 0 127 0" result="hardAlpha"/>
<feOffset dy="4"/>
<feGaussianBlur stdDeviation="2"/>
<feComposite in2="hardAlpha" operator="arithmetic" k2="-1" k3="1"/>
<feColorMatrix type="matrix" values="0 0 0 0 0.933333 0 0 0 0 0.72549 0 0 0 0 0.552941 0 0 0 1 0"/>
<feBlend mode="normal" in2="shape" result="effect2_innerShadow_114_930"/>
</filter>
<filter id="filter25_di_114_930" x="959" y="466" width="18" height="18" filterUnits="userSpaceOnUse" color-interpolation-filters="sRGB">
<feFlood flood-opacity="0" result="BackgroundImageFix"/>
<feColorMatrix in="SourceAlpha" type="matrix" values="0 0 0 0 0 0 0 0 0 0 0 0 0 0 0 0 0 0 127 0" result="hardAlpha"/>
<feOffset dy="4"/>
<feGaussianBlur stdDeviation="2"/>
<feComposite in2="hardAlpha" operator="out"/>
<feColorMatrix type="matrix" values="0 0 0 0 0.893893 0 0 0 0 0.783885 0 0 0 0 0.86901 0 0 0 0.3 0"/>
<feBlend mode="multiply" in2="BackgroundImageFix" result="effect1_dropShadow_114_930"/>
<feBlend mode="normal" in="SourceGraphic" in2="effect1_dropShadow_114_930" result="shape"/>
<feColorMatrix in="SourceAlpha" type="matrix" values="0 0 0 0 0 0 0 0 0 0 0 0 0 0 0 0 0 0 127 0" result="hardAlpha"/>
<feOffset dy="4"/>
<feGaussianBlur stdDeviation="2"/>
<feComposite in2="hardAlpha" operator="arithmetic" k2="-1" k3="1"/>
<feColorMatrix type="matrix" values="0 0 0 0 0.933333 0 0 0 0 0.72549 0 0 0 0 0.552941 0 0 0 1 0"/>
<feBlend mode="normal" in2="shape" result="effect2_innerShadow_114_930"/>
</filter>
<filter id="filter26_di_114_930" x="839" y="533" width="18" height="18" filterUnits="userSpaceOnUse" color-interpolation-filters="sRGB">
<feFlood flood-opacity="0" result="BackgroundImageFix"/>
<feColorMatrix in="SourceAlpha" type="matrix" values="0 0 0 0 0 0 0 0 0 0 0 0 0 0 0 0 0 0 127 0" result="hardAlpha"/>
<feOffset dy="4"/>
<feGaussianBlur stdDeviation="2"/>
<feComposite in2="hardAlpha" operator="out"/>
<feColorMatrix type="matrix" values="0 0 0 0 0.893893 0 0 0 0 0.783885 0 0 0 0 0.86901 0 0 0 0.3 0"/>
<feBlend mode="multiply" in2="BackgroundImageFix" result="effect1_dropShadow_114_930"/>
<feBlend mode="normal" in="SourceGraphic" in2="effect1_dropShadow_114_930" result="shape"/>
<feColorMatrix in="SourceAlpha" type="matrix" values="0 0 0 0 0 0 0 0 0 0 0 0 0 0 0 0 0 0 127 0" result="hardAlpha"/>
<feOffset dy="4"/>
<feGaussianBlur stdDeviation="2"/>
<feComposite in2="hardAlpha" operator="arithmetic" k2="-1" k3="1"/>
<feColorMatrix type="matrix" values="0 0 0 0 0.933333 0 0 0 0 0.72549 0 0 0 0 0.552941 0 0 0 1 0"/>
<feBlend mode="normal" in2="shape" result="effect2_innerShadow_114_930"/>
</filter>
<clipPath id="clip0_114_930">
<rect width="1280" height="720" fill="white"/>
</clipPath>
</defs>
</svg>
