<svg width="1280" height="720" viewBox="0 0 1280 720" fill="none" xmlns="http://www.w3.org/2000/svg">
<g clip-path="url(#clip0_116_1351)">
<rect width="1280" height="720" fill="white"/>
<path d="M-1 0H1279V719.999H-1V0Z" fill="#ECFAFF"/>
<path d="M280.908 246H215.092L248 189L280.908 246Z" fill="#FF7B54" stroke="#FF7B54" stroke-width="12"/>
<rect x="141.007" y="137.348" width="238" height="18" transform="rotate(15 141.007 137.348)" fill="#FF7B54" stroke="#FF7B54" stroke-width="12"/>
<path d="M325.44 124.48V113.44H314.1V107.92H325.44V96.88H331.26V107.92H342.66V113.44H331.26V124.48H325.44ZM362.536 130.9C359.816 130.9 357.336 130.32 355.096 129.16C352.856 127.96 351.076 126.28 349.756 124.12C348.436 121.92 347.776 119.3 347.776 116.26C347.776 115.1 347.856 113.96 348.016 112.84C348.216 111.72 348.596 110.44 349.156 109C349.716 107.56 350.536 105.78 351.616 103.66C352.736 101.5 354.196 98.88 355.996 95.8C357.796 92.68 360.056 88.88 362.776 84.4L368.536 87.76C366.376 91.04 364.656 93.7 363.376 95.74C362.096 97.78 361.116 99.38 360.436 100.54C359.796 101.66 359.336 102.48 359.056 103C358.776 103.52 358.536 103.88 358.336 104.08C358.936 103.52 359.756 103.06 360.796 102.7C361.876 102.3 363.156 102.1 364.636 102.1C367.396 102.1 369.776 102.74 371.776 104.02C373.776 105.3 375.316 107 376.396 109.12C377.476 111.2 378.016 113.44 378.016 115.84C378.016 119.04 377.356 121.76 376.036 124C374.716 126.24 372.876 127.96 370.516 129.16C368.196 130.32 365.536 130.9 362.536 130.9ZM362.956 125.02C365.516 125.02 367.516 124.22 368.956 122.62C370.396 120.98 371.116 118.92 371.116 116.44C371.116 113.72 370.336 111.62 368.776 110.14C367.256 108.62 365.376 107.86 363.136 107.86C360.576 107.86 358.516 108.64 356.956 110.2C355.436 111.72 354.676 113.84 354.676 116.56C354.676 119 355.456 121.02 357.016 122.62C358.616 124.22 360.596 125.02 362.956 125.02Z" fill="#1E5C93"/>
<path d="M226.338 595H292.154L259.246 538L226.338 595Z" fill="#2E91E9" stroke="#2E91E9" stroke-width="12"/>
<rect x="-4.24264" y="7.34847" width="238" height="18" transform="matrix(-0.965926 0.258819 0.258819 0.965926 360.239 480.348)" fill="#2E91E9" stroke="#2E91E9" stroke-width="12"/>
<mask id="path-7-outside-1_116_1351" maskUnits="userSpaceOnUse" x="134" y="416" width="62" height="48" fill="black">
<rect fill="white" x="134" y="416" width="62" height="48"/>
<path d="M135.6 449.82V444.06H156.18V449.82H135.6ZM179.668 462.9C176.908 462.9 174.368 462.34 172.048 461.22C169.728 460.1 167.868 458.52 166.468 456.48C165.108 454.44 164.428 452.04 164.428 449.28C164.428 447.24 164.768 445.5 165.448 444.06C166.128 442.58 167.008 441.36 168.088 440.4C169.208 439.44 170.368 438.7 171.568 438.18C170.088 437.3 168.828 436.1 167.788 434.58C166.788 433.02 166.288 431.2 166.288 429.12C166.288 426.64 166.868 424.52 168.028 422.76C169.228 420.96 170.828 419.58 172.828 418.62C174.868 417.66 177.148 417.18 179.668 417.18C182.228 417.18 184.508 417.66 186.508 418.62C188.508 419.58 190.088 420.96 191.248 422.76C192.448 424.52 193.048 426.6 193.048 429C193.048 431.28 192.508 433.18 191.428 434.7C190.348 436.22 189.048 437.4 187.528 438.24C188.768 438.76 189.948 439.5 191.068 440.46C192.188 441.42 193.108 442.62 193.828 444.06C194.548 445.5 194.908 447.24 194.908 449.28C194.908 452.04 194.208 454.44 192.808 456.48C191.408 458.52 189.548 460.1 187.228 461.22C184.948 462.34 182.428 462.9 179.668 462.9ZM179.668 435.42C180.868 435.42 181.948 435.12 182.908 434.52C183.908 433.92 184.708 433.12 185.308 432.12C185.908 431.12 186.208 430.02 186.208 428.82C186.208 426.94 185.608 425.42 184.408 424.26C183.208 423.06 181.628 422.46 179.668 422.46C177.668 422.46 176.068 423.06 174.868 424.26C173.668 425.42 173.068 426.94 173.068 428.82C173.068 430.66 173.668 432.22 174.868 433.5C176.108 434.78 177.708 435.42 179.668 435.42ZM179.668 457.02C182.268 457.02 184.308 456.26 185.788 454.74C187.308 453.22 188.068 451.34 188.068 449.1C188.068 446.78 187.268 444.88 185.668 443.4C184.068 441.92 182.068 441.18 179.668 441.18C177.268 441.18 175.248 441.92 173.608 443.4C172.008 444.84 171.208 446.74 171.208 449.1C171.208 451.34 171.968 453.22 173.488 454.74C175.008 456.26 177.068 457.02 179.668 457.02Z"/>
</mask>
<path d="M135.6 449.82V444.06H156.18V449.82H135.6ZM179.668 462.9C176.908 462.9 174.368 462.34 172.048 461.22C169.728 460.1 167.868 458.52 166.468 456.48C165.108 454.44 164.428 452.04 164.428 449.28C164.428 447.24 164.768 445.5 165.448 444.06C166.128 442.58 167.008 441.36 168.088 440.4C169.208 439.44 170.368 438.7 171.568 438.18C170.088 437.3 168.828 436.1 167.788 434.58C166.788 433.02 166.288 431.2 166.288 429.12C166.288 426.64 166.868 424.52 168.028 422.76C169.228 420.96 170.828 419.58 172.828 418.62C174.868 417.66 177.148 417.18 179.668 417.18C182.228 417.18 184.508 417.66 186.508 418.62C188.508 419.58 190.088 420.96 191.248 422.76C192.448 424.52 193.048 426.6 193.048 429C193.048 431.28 192.508 433.18 191.428 434.7C190.348 436.22 189.048 437.4 187.528 438.24C188.768 438.76 189.948 439.5 191.068 440.46C192.188 441.42 193.108 442.62 193.828 444.06C194.548 445.5 194.908 447.24 194.908 449.28C194.908 452.04 194.208 454.44 192.808 456.48C191.408 458.52 189.548 460.1 187.228 461.22C184.948 462.34 182.428 462.9 179.668 462.9ZM179.668 435.42C180.868 435.42 181.948 435.12 182.908 434.52C183.908 433.92 184.708 433.12 185.308 432.12C185.908 431.12 186.208 430.02 186.208 428.82C186.208 426.94 185.608 425.42 184.408 424.26C183.208 423.06 181.628 422.46 179.668 422.46C177.668 422.46 176.068 423.06 174.868 424.26C173.668 425.42 173.068 426.94 173.068 428.82C173.068 430.66 173.668 432.22 174.868 433.5C176.108 434.78 177.708 435.42 179.668 435.42ZM179.668 457.02C182.268 457.02 184.308 456.26 185.788 454.74C187.308 453.22 188.068 451.34 188.068 449.1C188.068 446.78 187.268 444.88 185.668 443.4C184.068 441.92 182.068 441.18 179.668 441.18C177.268 441.18 175.248 441.92 173.608 443.4C172.008 444.84 171.208 446.74 171.208 449.1C171.208 451.34 171.968 453.22 173.488 454.74C175.008 456.26 177.068 457.02 179.668 457.02Z" fill="#1A3567"/>
<path d="M135.6 449.82H134.6V450.82H135.6V449.82ZM135.6 444.06V443.06H134.6V444.06H135.6ZM156.18 444.06H157.18V443.06H156.18V444.06ZM156.18 449.82V450.82H157.18V449.82H156.18ZM135.6 449.82H136.6V444.06H135.6H134.6V449.82H135.6ZM135.6 444.06V445.06H156.18V444.06V443.06H135.6V444.06ZM156.18 444.06H155.18V449.82H156.18H157.18V444.06H156.18ZM156.18 449.82V448.82H135.6V449.82V450.82H156.18V449.82ZM172.048 461.22L171.613 462.121L171.613 462.121L172.048 461.22ZM166.468 456.48L165.636 457.035L165.643 457.046L166.468 456.48ZM165.448 444.06L166.352 444.487L166.356 444.477L165.448 444.06ZM168.088 440.4L167.437 439.641L167.43 439.647L167.423 439.653L168.088 440.4ZM171.568 438.18L171.965 439.098L173.76 438.32L172.079 437.32L171.568 438.18ZM167.788 434.58L166.946 435.12L166.954 435.132L166.962 435.145L167.788 434.58ZM168.028 422.76L167.196 422.205L167.193 422.21L168.028 422.76ZM172.828 418.62L172.402 417.715L172.395 417.718L172.828 418.62ZM191.248 422.76L190.407 423.302L190.414 423.313L190.421 423.323L191.248 422.76ZM191.428 434.7L190.612 434.121L190.612 434.121L191.428 434.7ZM187.528 438.24L187.044 437.365L185.237 438.364L187.141 439.162L187.528 438.24ZM191.068 440.46L191.718 439.701L191.718 439.701L191.068 440.46ZM193.828 444.06L194.722 443.613L194.722 443.613L193.828 444.06ZM192.808 456.48L191.983 455.914L191.983 455.914L192.808 456.48ZM187.228 461.22L186.793 460.319L186.787 460.322L187.228 461.22ZM182.908 434.52L182.393 433.663L182.385 433.667L182.378 433.672L182.908 434.52ZM185.308 432.12L184.45 431.606L184.45 431.606L185.308 432.12ZM184.408 424.26L183.701 424.967L183.707 424.973L183.713 424.979L184.408 424.26ZM174.868 424.26L175.563 424.979L175.569 424.973L175.575 424.967L174.868 424.26ZM174.868 433.5L174.138 434.184L174.144 434.19L174.149 434.196L174.868 433.5ZM185.788 454.74L185.08 454.033L185.071 454.042L185.788 454.74ZM173.608 443.4L174.277 444.143L174.278 444.142L173.608 443.4ZM173.488 454.74L174.195 454.033L174.195 454.033L173.488 454.74ZM179.668 462.9V461.9C177.047 461.9 174.657 461.369 172.482 460.319L172.048 461.22L171.613 462.121C174.078 463.311 176.768 463.9 179.668 463.9V462.9ZM172.048 461.22L172.482 460.319C170.313 459.272 168.589 457.805 167.292 455.914L166.468 456.48L165.643 457.046C167.146 459.235 169.143 460.928 171.613 462.121L172.048 461.22ZM166.468 456.48L167.3 455.925C166.063 454.07 165.428 451.868 165.428 449.28H164.428H163.428C163.428 452.212 164.153 454.81 165.636 457.035L166.468 456.48ZM164.428 449.28H165.428C165.428 447.348 165.75 445.761 166.352 444.487L165.448 444.06L164.543 443.633C163.785 445.239 163.428 447.132 163.428 449.28H164.428ZM165.448 444.06L166.356 444.477C166.986 443.107 167.788 442.005 168.752 441.147L168.088 440.4L167.423 439.653C166.228 440.715 165.269 442.053 164.539 443.642L165.448 444.06ZM168.088 440.4L168.738 441.159C169.792 440.256 170.868 439.573 171.965 439.098L171.568 438.18L171.17 437.262C169.867 437.827 168.623 438.624 167.437 439.641L168.088 440.4ZM171.568 438.18L172.079 437.32C170.732 436.52 169.577 435.424 168.613 434.015L167.788 434.58L166.962 435.145C168.079 436.776 169.443 438.08 171.057 439.04L171.568 438.18ZM167.788 434.58L168.63 434.04C167.745 432.661 167.288 431.033 167.288 429.12H166.288H165.288C165.288 431.367 165.83 433.379 166.946 435.12L167.788 434.58ZM166.288 429.12H167.288C167.288 426.8 167.828 424.88 168.863 423.31L168.028 422.76L167.193 422.21C165.907 424.16 165.288 426.48 165.288 429.12H166.288ZM168.028 422.76L168.86 423.315C169.958 421.668 171.418 420.406 173.26 419.522L172.828 418.62L172.395 417.718C170.237 418.754 168.498 420.252 167.196 422.205L168.028 422.76ZM172.828 418.62L173.253 419.525C175.145 418.635 177.277 418.18 179.668 418.18V417.18V416.18C177.018 416.18 174.59 416.685 172.402 417.715L172.828 418.62ZM179.668 417.18V418.18C182.101 418.18 184.229 418.636 186.075 419.522L186.508 418.62L186.94 417.718C184.786 416.684 182.354 416.18 179.668 416.18V417.18ZM186.508 418.62L186.075 419.522C187.915 420.405 189.351 421.663 190.407 423.302L191.248 422.76L192.088 422.218C190.824 420.257 189.101 418.755 186.94 417.718L186.508 418.62ZM191.248 422.76L190.421 423.323C191.494 424.897 192.048 426.775 192.048 429H193.048H194.048C194.048 426.425 193.401 424.143 192.074 422.197L191.248 422.76ZM193.048 429H192.048C192.048 431.119 191.548 432.805 190.612 434.121L191.428 434.7L192.243 435.279C193.468 433.555 194.048 431.441 194.048 429H193.048ZM191.428 434.7L190.612 434.121C189.613 435.528 188.423 436.603 187.044 437.365L187.528 438.24L188.011 439.115C189.672 438.197 191.082 436.912 192.243 435.279L191.428 434.7ZM187.528 438.24L187.141 439.162C188.276 439.638 189.368 440.32 190.417 441.219L191.068 440.46L191.718 439.701C190.527 438.68 189.259 437.882 187.914 437.318L187.528 438.24ZM191.068 440.46L190.417 441.219C191.427 442.085 192.267 443.175 192.933 444.507L193.828 444.06L194.722 443.613C193.948 442.065 192.949 440.755 191.718 439.701L191.068 440.46ZM193.828 444.06L192.933 444.507C193.568 445.776 193.908 447.355 193.908 449.28H194.908H195.908C195.908 447.125 195.528 445.224 194.722 443.613L193.828 444.06ZM194.908 449.28H193.908C193.908 451.862 193.256 454.06 191.983 455.914L192.808 456.48L193.632 457.046C195.159 454.82 195.908 452.218 195.908 449.28H194.908ZM192.808 456.48L191.983 455.914C190.686 457.805 188.963 459.272 186.793 460.319L187.228 461.22L187.662 462.121C190.133 460.928 192.129 459.235 193.632 457.046L192.808 456.48ZM187.228 461.22L186.787 460.322C184.656 461.369 182.288 461.9 179.668 461.9V462.9V463.9C182.567 463.9 185.24 463.311 187.669 462.118L187.228 461.22ZM179.668 435.42V436.42C181.043 436.42 182.309 436.073 183.438 435.368L182.908 434.52L182.378 433.672C181.586 434.167 180.692 434.42 179.668 434.42V435.42ZM182.908 434.52L183.422 435.377C184.563 434.693 185.481 433.775 186.165 432.634L185.308 432.12L184.45 431.606C183.935 432.465 183.252 433.147 182.393 433.663L182.908 434.52ZM185.308 432.12L186.165 432.634C186.861 431.474 187.208 430.196 187.208 428.82H186.208H185.208C185.208 429.844 184.954 430.766 184.45 431.606L185.308 432.12ZM186.208 428.82H187.208C187.208 426.707 186.523 424.914 185.103 423.541L184.408 424.26L183.713 424.979C184.692 425.926 185.208 427.173 185.208 428.82H186.208ZM184.408 424.26L185.115 423.553C183.698 422.136 181.848 421.46 179.668 421.46V422.46V423.46C181.407 423.46 182.717 423.984 183.701 424.967L184.408 424.26ZM179.668 422.46V421.46C177.453 421.46 175.581 422.132 174.161 423.553L174.868 424.26L175.575 424.967C176.554 423.988 177.882 423.46 179.668 423.46V422.46ZM174.868 424.26L174.173 423.541C172.752 424.914 172.068 426.707 172.068 428.82H173.068H174.068C174.068 427.173 174.583 425.926 175.563 424.979L174.868 424.26ZM173.068 428.82H172.068C172.068 430.9 172.755 432.709 174.138 434.184L174.868 433.5L175.597 432.816C174.58 431.731 174.068 430.42 174.068 428.82H173.068ZM174.868 433.5L174.149 434.196C175.598 435.691 177.467 436.42 179.668 436.42V435.42V434.42C177.949 434.42 176.618 433.869 175.586 432.804L174.868 433.5ZM179.668 457.02V458.02C182.473 458.02 184.795 457.193 186.504 455.438L185.788 454.74L185.071 454.042C183.82 455.327 182.063 456.02 179.668 456.02V457.02ZM185.788 454.74L186.495 455.447C188.211 453.731 189.068 451.593 189.068 449.1H188.068H187.068C187.068 451.087 186.404 452.709 185.081 454.033L185.788 454.74ZM188.068 449.1H189.068C189.068 446.521 188.166 444.348 186.347 442.666L185.668 443.4L184.989 444.134C186.37 445.412 187.068 447.039 187.068 449.1H188.068ZM185.668 443.4L186.347 442.666C184.543 440.997 182.292 440.18 179.668 440.18V441.18V442.18C181.844 442.18 183.593 442.843 184.989 444.134L185.668 443.4ZM179.668 441.18V440.18C177.043 440.18 174.778 440.997 172.938 442.658L173.608 443.4L174.278 444.142C175.717 442.843 177.492 442.18 179.668 442.18V441.18ZM173.608 443.4L172.939 442.657C171.106 444.306 170.208 446.487 170.208 449.1H171.208H172.208C172.208 446.993 172.909 445.374 174.277 444.143L173.608 443.4ZM171.208 449.1H170.208C170.208 451.593 171.064 453.731 172.781 455.447L173.488 454.74L174.195 454.033C172.871 452.709 172.208 451.087 172.208 449.1H171.208ZM173.488 454.74L172.781 455.447C174.526 457.193 176.862 458.02 179.668 458.02V457.02V456.02C177.274 456.02 175.489 455.327 174.195 454.033L173.488 454.74Z" fill="#2E91E9" mask="url(#path-7-outside-1_116_1351)"/>
<path d="M747.496 206.071C749.205 204.378 749.205 201.629 747.496 199.936L725.621 178.27C723.912 176.577 721.137 176.577 719.428 178.27C717.719 179.962 717.719 182.711 719.428 184.404L733.838 198.677H519.375C516.955 198.677 515 200.613 515 203.01C515 205.407 516.955 207.343 519.375 207.343H733.838L719.428 221.616C717.719 223.309 717.719 226.058 719.428 227.751C721.137 229.443 723.912 229.443 725.621 227.751L747.496 206.084V206.071Z" fill="#FF7B54"/>
<path d="M742.496 550.071C744.205 548.378 744.205 545.629 742.496 543.936L720.621 522.27C718.912 520.577 716.137 520.577 714.428 522.27C712.719 523.962 712.719 526.711 714.428 528.404L728.838 542.677H514.375C511.955 542.677 510 544.613 510 547.01C510 549.407 511.955 551.343 514.375 551.343H728.838L714.428 565.616C712.719 567.309 712.719 570.058 714.428 571.751C716.137 573.443 718.912 573.443 720.621 571.751L742.496 550.084V550.071Z" fill="#2E91E9"/>
<rect x="1063" y="132" width="56" height="149" fill="#FF7B54"/>
<path fill-rule="evenodd" clip-rule="evenodd" d="M1108 288.5C1113.04 288.5 1117.87 286.498 1121.44 282.935C1125 279.372 1127 274.539 1127 269.5V136.5C1127 131.461 1125 126.628 1121.44 123.065C1117.87 119.502 1113.04 117.5 1108 117.5H927.5C922.461 117.5 917.628 119.502 914.065 123.065C910.502 126.628 908.5 131.461 908.5 136.5V269.5C908.5 274.539 910.502 279.372 914.065 282.935C917.628 286.498 922.461 288.5 927.5 288.5H1108ZM1003.5 136.5H984.357V212.5H974.858V269.5H1013V212.5H1003.5V136.5ZM1070.14 269.5H1108V136.5H1079.64V212.5H1070.14V269.5ZM1060.64 212.5H1051.14V136.5H1032V212.5H1022.5V269.5H1060.64V212.5ZM965.358 269.5V212.5H955.858V136.5H927.5V269.5H965.358Z" fill="#1A3567"/>
<rect x="923" y="473" width="48" height="149" fill="#2E91E9"/>
<path fill-rule="evenodd" clip-rule="evenodd" d="M1108 632.5C1113.04 632.5 1117.87 630.498 1121.44 626.935C1125 623.372 1127 618.539 1127 613.5V480.5C1127 475.461 1125 470.628 1121.44 467.065C1117.87 463.502 1113.04 461.5 1108 461.5H927.5C922.461 461.5 917.628 463.502 914.065 467.065C910.502 470.628 908.5 475.461 908.5 480.5V613.5C908.5 618.539 910.502 623.372 914.065 626.935C917.628 630.498 922.461 632.5 927.5 632.5H1108ZM1003.5 480.5H984.357V556.5H974.858V613.5H1013V556.5H1003.5V480.5ZM1070.14 613.5H1108V480.5H1079.64V556.5H1070.14V613.5ZM1060.64 556.5H1051.14V480.5H1032V556.5H1022.5V613.5H1060.64V556.5ZM965.358 613.5V556.5H955.858V480.5H927.5V613.5H965.358Z" fill="#1A3567"/>
</g>
<defs>
<clipPath id="clip0_116_1351">
<rect width="1280" height="720" fill="white"/>
</clipPath>
</defs>
</svg>
