<svg width="1280" height="720" viewBox="0 0 1280 720" fill="none" xmlns="http://www.w3.org/2000/svg">
<g clip-path="url(#clip0_115_1180)">
<rect width="1280" height="720" fill="white"/>
<path d="M0 0H1279.98V719.99H0V0Z" fill="url(#paint0_linear_115_1180)"/>
<path d="M1102.22 286.394C1043.4 358.929 1026.91 398.641 933.774 434.452L875.264 426.86L1041.93 90.508L1325.39 15.8586L1343.28 181.034C1268.52 150.484 1172.14 200.174 1102.22 286.394Z" fill="#E165C5" stroke="black"/>
<path d="M878.687 431.559L877.007 432.935L804.79 418.22L885.177 147.174L1171.37 -71.6859L1411.49 51.7341C1275.51 58.2937 1077.61 91.1043 1014.46 234.627C955.497 368.653 947.856 374.911 878.687 431.559Z" fill="#AC4695"/>
<path d="M810.327 427.71L808.893 429.341L761.788 423.229L770.524 146.049L977.409 -65.0871L1204.46 -11.9325C1092.5 -7.80359 951.289 59.4577 912.303 211.334C875.896 353.16 869.373 360.576 810.327 427.71Z" fill="#CE393C"/>
<path d="M822.278 205.704C806.565 396.771 770.894 411.528 732.061 454.162L691.049 404.976L683.938 187.756L792.845 -92.0575L1027.84 -53.5021C883.882 17.3819 837.65 104.528 822.278 205.704Z" fill="#FD7853"/>
<path d="M732.689 173.409C727.761 312.431 725.662 363.586 696.447 417.777L650.288 408.259L580.683 93.6889L635.545 -127.087L860.934 -103.895C777.933 -11.4866 747.274 47.9951 732.689 173.409Z" fill="#FFC93C"/>
<path d="M636.135 132.192C678.047 250.624 672.614 304.565 645.83 393.426L577.944 405.22L494.641 124.799L485.864 -159.634L668.053 -143.479C623.42 -54.9094 606.718 -0.314257 636.135 132.192Z" fill="#A5CD5B"/>
<path d="M560.912 183.895C560.912 183.895 612.672 282.373 589.438 383.726L513.078 373.819L326.695 -140.436L503.704 -129.067C484.726 17.2067 560.912 183.895 560.912 183.895Z" fill="#35C2FF"/>
<path d="M417.477 75.865C482.329 194.82 509.467 260.789 519.251 375.372L465.827 370.451L282.196 183.941L136.449 -179.74L372.638 -140.051C357.578 -61.572 366.063 -14.4947 417.477 75.865Z" fill="#404E9D" stroke="#1E5C93" stroke-width="2" stroke-linecap="round"/>
<path d="M217.629 253.303C359.341 264.706 375.017 303.744 423.762 362.735L470.867 368.846C446.832 274.711 436.182 222.363 325.813 115.074C206.185 19.7602 172.336 -45.4077 158.119 -177.938L16.5275 -190.258L-23.7443 120.141C23.2258 215.315 89.5956 232.133 217.629 253.303Z" fill="#7C2869"/>
<path d="M0 0H1279.98V719.99H0V0Z" fill="url(#paint1_linear_115_1180)" fill-opacity="0.4"/>
<mask id="mask0_115_1180" style="mask-type:alpha" maskUnits="userSpaceOnUse" x="348" y="519" width="101" height="126">
<path d="M387.961 642.207L356.208 644.213L348.418 632.58L417.111 520.39L448.311 519.356L387.961 642.207Z" fill="#D08259"/>
</mask>
<g mask="url(#mask0_115_1180)">
<path d="M387.961 642.207L356.208 644.213L348.418 632.58L417.111 520.39L448.311 519.356L387.961 642.207Z" fill="#D99773"/>
<path d="M389.073 643.869L378.502 628.081L385.39 606.018L415.474 601.519L389.073 643.869Z" fill="#D68270"/>
</g>
<path d="M347.862 631.749L408.765 507.926L439.965 506.892L379.615 629.743L347.862 631.749Z" fill="#EEBA8D"/>
<mask id="mask1_115_1180" style="mask-type:alpha" maskUnits="userSpaceOnUse" x="791" y="490" width="101" height="126">
<path d="M831.109 613.842L799.356 615.849L791.567 604.216L860.259 492.026L891.459 490.991L831.109 613.842Z" fill="#D08259"/>
</mask>
<g mask="url(#mask1_115_1180)">
<path d="M831.109 613.842L799.356 615.849L791.567 604.216L860.259 492.026L891.459 490.991L831.109 613.842Z" fill="#D99773"/>
<path d="M832.222 615.505L821.65 599.717L828.539 577.654L858.622 573.155L832.222 615.505Z" fill="#D68270"/>
</g>
<path d="M791.01 603.385L851.913 479.562L883.113 478.527L822.763 601.379L791.01 603.385Z" fill="#EEBA8D"/>
<mask id="mask2_115_1180" style="mask-type:alpha" maskUnits="userSpaceOnUse" x="281" y="372" width="688" height="251">
<path d="M298.475 622.698L906.34 579.714L968.356 457.553L951.385 432.21L418.89 372.975L281.505 597.355L298.475 622.698Z" fill="#D09059"/>
</mask>
<g mask="url(#mask2_115_1180)">
<path d="M298.475 622.698L906.34 579.714L968.356 457.553L951.385 432.21L418.89 372.975L281.505 597.355L298.475 622.698Z" fill="#D99773"/>
<path d="M871.005 525.148L921.081 599.931L998.494 480.096L937.012 388.28L871.005 525.148Z" fill="#D68270"/>
</g>
<path d="M281.505 597.354L889.785 554.092L951.801 431.931L405.25 349.011L281.505 597.354Z" fill="#EEBA8D"/>
<g filter="url(#filter0_d_115_1180)">
<path d="M411.405 354.577L458.924 347.369L461.461 351.157L337.951 599.874C317 594.647 303.135 595.507 288.464 602.346L285.671 598.175L411.405 354.577Z" fill="#6C205B"/>
<path d="M408.623 350.423C426.014 340.098 437.481 341.468 458.679 347.003L335.738 594.771C316.63 589.261 304.37 589.264 285.682 598.192L408.623 350.423Z" fill="#7C2869"/>
</g>
<g filter="url(#filter1_d_115_1180)">
<path d="M469.618 363.35L517.137 356.142L519.673 359.93L402.952 595.408C382.001 590.181 368.135 591.041 353.465 597.88L350.672 593.709L469.618 363.35Z" fill="#2F2878"/>
<path d="M467.013 359.461C484.403 349.137 495.87 350.507 517.068 356.041L400.757 590.333C381.649 584.822 369.389 584.826 350.701 593.753L467.013 359.461Z" fill="#404E9D"/>
</g>
<g filter="url(#filter2_d_115_1180)">
<path d="M529.967 373.485L577.486 366.277L580.022 370.065L470.237 591.64C449.287 586.413 435.421 587.273 420.751 594.112L417.958 589.941L529.967 373.485Z" fill="#3291FF"/>
<path d="M527.363 369.596C544.753 359.271 556.22 360.641 577.418 366.176L468.183 586.08C449.075 580.57 436.815 580.573 418.128 589.501L527.363 369.596Z" fill="#35C2FF"/>
</g>
<g filter="url(#filter3_d_115_1180)">
<path d="M590.023 381.408L637.541 374.2L640.078 377.988L536.665 586.609C515.714 581.382 501.849 582.243 487.178 589.081L484.385 584.91L590.023 381.408Z" fill="#4CBA65"/>
<path d="M587.418 377.518C604.809 367.193 616.276 368.563 637.474 374.098L534.409 581.46C515.301 575.949 503.041 575.953 484.353 584.88L587.418 377.518Z" fill="#A5CD5B"/>
</g>
<g filter="url(#filter4_d_115_1180)">
<path d="M651.228 388.337L698.747 381.129L701.284 384.917L603.76 581.922C582.809 576.696 568.943 577.556 554.273 584.395L551.48 580.223L651.228 388.337Z" fill="#F6A227"/>
<path d="M648.722 384.603C666.112 374.279 677.579 375.649 698.777 381.183L601.456 576.869C582.348 571.359 570.088 571.362 551.401 580.29L648.722 384.603Z" fill="#FFC93C"/>
</g>
<g filter="url(#filter5_d_115_1180)">
<path d="M711.701 395.987L759.219 388.779L761.756 392.567L670.428 576.977C649.477 571.75 635.612 572.61 620.942 579.449L618.149 575.278L711.701 395.987Z" fill="#E7574A"/>
<path d="M709.199 392.243C726.59 381.918 738.057 383.289 759.255 388.823L668.102 571.968C648.994 566.457 636.734 566.461 618.047 575.388L709.199 392.243Z" fill="#FD7853"/>
</g>
<g filter="url(#filter6_d_115_1180)">
<path d="M773.872 407.472L821.391 400.264L823.928 404.052L740.616 572.169C719.665 566.942 705.799 567.802 691.129 574.641L688.336 570.47L773.872 407.472Z" fill="#922D35"/>
<path d="M771.493 403.48C788.883 393.155 800.35 394.525 821.548 400.06L738.334 567.061C719.226 561.55 706.966 561.554 688.279 570.481L771.493 403.48Z" fill="#CE393C"/>
</g>
<g filter="url(#filter7_d_115_1180)">
<path d="M834.34 417.365L881.859 410.157L884.396 413.945L808.695 566.892C787.745 561.665 773.879 562.526 759.209 569.364L756.416 565.193L834.34 417.365Z" fill="#7C2869"/>
<path d="M831.837 413.617C849.227 403.292 860.694 404.662 881.892 410.197L806.457 561.762C787.349 556.252 775.089 556.255 756.402 565.183L831.837 413.617Z" fill="#AC4695"/>
</g>
<g filter="url(#filter8_d_115_1180)">
<path d="M894.81 425.008L942.329 417.8L944.866 421.588L872.501 567.444C851.551 562.217 837.685 563.078 823.015 569.916L820.222 565.745L894.81 425.008Z" fill="#B03A95"/>
<path d="M892.302 421.262C909.692 410.937 921.159 412.307 942.357 417.842L870.141 562.502C851.034 556.991 838.773 556.995 820.086 565.922L892.302 421.262Z" fill="#E165C5"/>
</g>
<g filter="url(#filter9_di_115_1180)">
<circle cx="425.786" cy="354.516" r="5" transform="rotate(-33.8072 425.786 354.516)" fill="#D99773"/>
</g>
<g filter="url(#filter10_di_115_1180)">
<circle cx="317.52" cy="577.45" r="5" transform="rotate(-33.8072 317.52 577.45)" fill="#D99773"/>
</g>
<g filter="url(#filter11_di_115_1180)">
<circle cx="485.715" cy="364.933" r="5" transform="rotate(-33.8072 485.715 364.933)" fill="#D99773"/>
</g>
<g filter="url(#filter12_di_115_1180)">
<circle cx="380.751" cy="574.825" r="5" transform="rotate(-33.8072 380.751 574.825)" fill="#D99773"/>
</g>
<g filter="url(#filter13_di_115_1180)">
<circle cx="547.305" cy="374.237" r="5" transform="rotate(-33.8072 547.305 374.237)" fill="#D99773"/>
</g>
<g filter="url(#filter14_di_115_1180)">
<circle cx="449.248" cy="571.079" r="5" transform="rotate(-33.8072 449.248 571.079)" fill="#D99773"/>
</g>
<g filter="url(#filter15_di_115_1180)">
<circle cx="607.784" cy="381.879" r="5" transform="rotate(-33.8072 607.784 381.879)" fill="#D99773"/>
</g>
<g filter="url(#filter16_di_115_1180)">
<circle cx="514.141" cy="567.34" r="5" transform="rotate(-33.8072 514.141 567.34)" fill="#D99773"/>
</g>
<g filter="url(#filter17_di_115_1180)">
<circle cx="670.198" cy="387.021" r="5" transform="rotate(-33.8072 670.198 387.021)" fill="#D99773"/>
</g>
<g filter="url(#filter18_di_115_1180)">
<circle cx="580.42" cy="563.876" r="5" transform="rotate(-33.8072 580.42 563.876)" fill="#D99773"/>
</g>
<g filter="url(#filter19_di_115_1180)">
<circle cx="729.845" cy="395.219" r="5" transform="rotate(-33.8072 729.845 395.219)" fill="#D99773"/>
</g>
<g filter="url(#filter20_di_115_1180)">
<circle cx="647.806" cy="558.469" r="5" transform="rotate(-33.8072 647.806 558.469)" fill="#D99773"/>
</g>
<g filter="url(#filter21_di_115_1180)">
<circle cx="792.549" cy="406.185" r="5" transform="rotate(-33.8072 792.549 406.185)" fill="#D99773"/>
</g>
<g filter="url(#filter22_di_115_1180)">
<circle cx="716.022" cy="552.505" r="5" transform="rotate(-33.8072 716.022 552.505)" fill="#D99773"/>
</g>
<g filter="url(#filter23_di_115_1180)">
<circle cx="852.478" cy="416.602" r="5" transform="rotate(-33.8072 852.478 416.602)" fill="#D99773"/>
</g>
<g filter="url(#filter24_di_115_1180)">
<circle cx="784.52" cy="548.76" r="5" transform="rotate(-33.8072 784.52 548.76)" fill="#D99773"/>
</g>
<g filter="url(#filter25_di_115_1180)">
<circle cx="912.681" cy="425.631" r="5" transform="rotate(-33.8072 912.681 425.631)" fill="#D99773"/>
</g>
<g filter="url(#filter26_di_115_1180)">
<circle cx="850.251" cy="548.071" r="5" transform="rotate(-33.8072 850.251 548.071)" fill="#D99773"/>
</g>
<path d="M747.935 852.045C716.987 848.211 698.328 810.481 682.267 784.744C679.917 780.98 636.926 763.066 630.815 757.643C640.533 743.817 645.152 762.416 690 744C696.808 759.953 745.278 725.302 771.807 749.699C803.896 738.404 834.813 700.691 836.346 661.807C835.711 623.15 840.215 581.355 822.237 546.116C818.407 494.554 864.831 615.279 875.676 564.53C882.013 541.396 874.015 500.214 888.339 487.247C900.911 504.133 895.748 574.676 924.829 553.212C938.636 532.262 940.045 473.955 961.971 477.168C964.553 499.448 934.226 557.225 949.388 559.054C956.521 546.726 985.759 496.768 978.998 539.125C979.103 557.07 944.618 606.14 969.521 603.194C975.426 589.757 998.464 547.839 993.325 587.223C978.386 639.759 925.936 665.422 899.302 710.469C867.913 753.312 862.183 780.269 822.586 816.435C802.423 829.873 771.16 860.234 747.935 852.045Z" fill="#FF7B54"/>
<path d="M247.264 877.786C272.087 896.663 311.795 882.701 341.267 875.506C345.578 874.454 388.854 891.669 397.014 892.058C399.72 875.376 405.426 860.927 386.2 816.42C370.185 823.079 337.706 788.955 301.681 787.879C286.611 757.38 290.835 708.797 316.902 679.903C344.362 652.688 370.336 619.636 407.817 606.98C446.578 572.762 329.024 626.712 356.716 582.824C368.344 561.844 402.836 537.965 401.645 518.68C380.853 521.979 335.267 576.061 329.453 540.388C334.21 515.752 373.934 473.048 356.001 460.03C338.588 474.168 319.926 536.694 307.799 527.412C311.308 513.607 325.287 457.436 300.535 492.466C287.924 505.233 278.319 564.435 262.558 544.93C267.72 531.191 280.519 485.102 256.683 516.873C230.671 564.9 250.272 619.903 237.861 670.742C230.39 723.325 215.659 746.617 218.726 800.156C223.766 823.857 224.926 867.421 247.264 877.786Z" fill="#FF7B54"/>
<path d="M1207 382.261C1207 392.606 1198.67 400.993 1188.4 400.993C1178.13 400.993 1169.79 392.615 1169.79 382.261C1169.79 371.912 1178.12 363.529 1188.4 363.529C1198.68 363.529 1207 371.912 1207 382.261Z" fill="#0D3896"/>
<path d="M1135.38 291V385.629Z" fill="#0D3896"/>
<path d="M1203.72 291V385.629Z" fill="#0D3896"/>
<path d="M1138.21 391.268C1138.21 401.613 1129.88 410 1119.6 410C1109.33 410 1101 401.622 1101 391.268C1101 380.919 1109.32 372.536 1119.6 372.536C1129.88 372.536 1138.21 380.919 1138.21 391.268Z" fill="#0D3896"/>
<path d="M1135.38 291H1203.91V312.684H1135.38L1135.38 291Z" fill="#0D3896"/>
<path d="M1135.38 291V385.629M1135.38 291H1203.91V312.684H1135.38L1135.38 291ZM1203.72 291V385.629M1207 382.261C1207 392.606 1198.67 400.993 1188.4 400.993C1178.13 400.993 1169.79 392.615 1169.79 382.261C1169.79 371.912 1178.12 363.529 1188.4 363.529C1198.68 363.529 1207 371.912 1207 382.261ZM1138.21 391.268C1138.21 401.613 1129.88 410 1119.6 410C1109.33 410 1101 401.622 1101 391.268C1101 380.919 1109.32 372.536 1119.6 372.536C1129.88 372.536 1138.21 380.919 1138.21 391.268Z" stroke="#0D3896" stroke-width="5" stroke-miterlimit="10"/>
<path d="M185 521.261C185 531.606 176.671 539.993 166.397 539.993C156.128 539.993 147.793 531.615 147.793 521.261C147.793 510.912 156.119 502.529 166.397 502.529C176.679 502.529 185 510.912 185 521.261Z" fill="#FFC93C"/>
<path d="M113.38 430V524.629Z" fill="#FFC93C"/>
<path d="M181.719 430V524.629Z" fill="#FFC93C"/>
<path d="M116.207 530.268C116.207 540.613 107.876 549 97.6031 549C87.3337 549 79 540.622 79 530.268C79 519.919 87.3243 511.536 97.6036 511.536C107.881 511.536 116.207 519.919 116.207 530.268Z" fill="#FFC93C"/>
<path d="M113.38 430H181.909V451.684H113.381L113.38 430Z" fill="#FFC93C"/>
<path d="M113.38 430V524.629M113.38 430H181.909V451.684H113.381L113.38 430ZM181.719 430V524.629M185 521.261C185 531.606 176.671 539.993 166.397 539.993C156.128 539.993 147.793 531.615 147.793 521.261C147.793 510.912 156.119 502.529 166.397 502.529C176.679 502.529 185 510.912 185 521.261ZM116.207 530.268C116.207 540.613 107.876 549 97.6031 549C87.3337 549 79 540.622 79 530.268C79 519.919 87.3243 511.536 97.6036 511.536C107.881 511.536 116.207 519.919 116.207 530.268Z" stroke="#FFC93C" stroke-width="5" stroke-miterlimit="10"/>
<path d="M1122 481V586.933Z" fill="#35C2FF"/>
<path d="M1122 588.038C1122 599.616 1112.6 609 1101 609C1089.4 609 1080 599.616 1080 588.038C1080 576.46 1089.4 567.075 1101 567.075C1112.6 567.075 1122 576.46 1122 588.038Z" fill="#35C2FF"/>
<path d="M1122 481V586.933M1122 588.038C1122 599.616 1112.6 609 1101 609C1089.4 609 1080 599.616 1080 588.038C1080 576.46 1089.4 567.075 1101 567.075C1112.6 567.075 1122 576.46 1122 588.038Z" stroke="#35C2FF" stroke-width="5"/>
<path d="M247 198V303.933Z" fill="#99D594"/>
<path d="M247 305.038C247 316.616 237.6 326 226.002 326C214.4 326 205 316.616 205 305.038C205 293.46 214.4 284.075 226.002 284.075C237.6 284.075 247 293.46 247 305.038Z" fill="#99D594"/>
<path d="M247 198V303.933M247 305.038C247 316.616 237.6 326 226.002 326C214.4 326 205 316.616 205 305.038C205 293.46 214.4 284.075 226.002 284.075C237.6 284.075 247 293.46 247 305.038Z" stroke="#99D594" stroke-width="5"/>
</g>
<defs>
<filter id="filter0_d_115_1180" x="278.971" y="340.04" width="189.19" height="273.005" filterUnits="userSpaceOnUse" color-interpolation-filters="sRGB">
<feFlood flood-opacity="0" result="BackgroundImageFix"/>
<feColorMatrix in="SourceAlpha" type="matrix" values="0 0 0 0 0 0 0 0 0 0 0 0 0 0 0 0 0 0 127 0" result="hardAlpha"/>
<feOffset dy="4"/>
<feGaussianBlur stdDeviation="3.35"/>
<feComposite in2="hardAlpha" operator="out"/>
<feColorMatrix type="matrix" values="0 0 0 0 0.893893 0 0 0 0 0.783885 0 0 0 0 0.86901 0 0 0 1 0"/>
<feBlend mode="multiply" in2="BackgroundImageFix" result="effect1_dropShadow_115_1180"/>
<feBlend mode="normal" in="SourceGraphic" in2="effect1_dropShadow_115_1180" result="shape"/>
</filter>
<filter id="filter1_d_115_1180" x="343.972" y="349.079" width="182.401" height="259.501" filterUnits="userSpaceOnUse" color-interpolation-filters="sRGB">
<feFlood flood-opacity="0" result="BackgroundImageFix"/>
<feColorMatrix in="SourceAlpha" type="matrix" values="0 0 0 0 0 0 0 0 0 0 0 0 0 0 0 0 0 0 127 0" result="hardAlpha"/>
<feOffset dy="4"/>
<feGaussianBlur stdDeviation="3.35"/>
<feComposite in2="hardAlpha" operator="out"/>
<feColorMatrix type="matrix" values="0 0 0 0 0.893893 0 0 0 0 0.783885 0 0 0 0 0.86901 0 0 0 1 0"/>
<feBlend mode="multiply" in2="BackgroundImageFix" result="effect1_dropShadow_115_1180"/>
<feBlend mode="normal" in="SourceGraphic" in2="effect1_dropShadow_115_1180" result="shape"/>
</filter>
<filter id="filter2_d_115_1180" x="411.258" y="359.213" width="175.465" height="245.599" filterUnits="userSpaceOnUse" color-interpolation-filters="sRGB">
<feFlood flood-opacity="0" result="BackgroundImageFix"/>
<feColorMatrix in="SourceAlpha" type="matrix" values="0 0 0 0 0 0 0 0 0 0 0 0 0 0 0 0 0 0 127 0" result="hardAlpha"/>
<feOffset dy="4"/>
<feGaussianBlur stdDeviation="3.35"/>
<feComposite in2="hardAlpha" operator="out"/>
<feColorMatrix type="matrix" values="0 0 0 0 0.893893 0 0 0 0 0.783885 0 0 0 0 0.86901 0 0 0 1 0"/>
<feBlend mode="multiply" in2="BackgroundImageFix" result="effect1_dropShadow_115_1180"/>
<feBlend mode="normal" in="SourceGraphic" in2="effect1_dropShadow_115_1180" result="shape"/>
</filter>
<filter id="filter3_d_115_1180" x="477.654" y="367.135" width="169.124" height="232.646" filterUnits="userSpaceOnUse" color-interpolation-filters="sRGB">
<feFlood flood-opacity="0" result="BackgroundImageFix"/>
<feColorMatrix in="SourceAlpha" type="matrix" values="0 0 0 0 0 0 0 0 0 0 0 0 0 0 0 0 0 0 127 0" result="hardAlpha"/>
<feOffset dy="4"/>
<feGaussianBlur stdDeviation="3.35"/>
<feComposite in2="hardAlpha" operator="out"/>
<feColorMatrix type="matrix" values="0 0 0 0 0.893893 0 0 0 0 0.783885 0 0 0 0 0.86901 0 0 0 1 0"/>
<feBlend mode="multiply" in2="BackgroundImageFix" result="effect1_dropShadow_115_1180"/>
<feBlend mode="normal" in="SourceGraphic" in2="effect1_dropShadow_115_1180" result="shape"/>
</filter>
<filter id="filter4_d_115_1180" x="544.701" y="374.221" width="163.283" height="220.874" filterUnits="userSpaceOnUse" color-interpolation-filters="sRGB">
<feFlood flood-opacity="0" result="BackgroundImageFix"/>
<feColorMatrix in="SourceAlpha" type="matrix" values="0 0 0 0 0 0 0 0 0 0 0 0 0 0 0 0 0 0 127 0" result="hardAlpha"/>
<feOffset dy="4"/>
<feGaussianBlur stdDeviation="3.35"/>
<feComposite in2="hardAlpha" operator="out"/>
<feColorMatrix type="matrix" values="0 0 0 0 0.893893 0 0 0 0 0.783885 0 0 0 0 0.86901 0 0 0 1 0"/>
<feBlend mode="multiply" in2="BackgroundImageFix" result="effect1_dropShadow_115_1180"/>
<feBlend mode="normal" in="SourceGraphic" in2="effect1_dropShadow_115_1180" result="shape"/>
</filter>
<filter id="filter5_d_115_1180" x="611.347" y="381.861" width="157.109" height="208.289" filterUnits="userSpaceOnUse" color-interpolation-filters="sRGB">
<feFlood flood-opacity="0" result="BackgroundImageFix"/>
<feColorMatrix in="SourceAlpha" type="matrix" values="0 0 0 0 0 0 0 0 0 0 0 0 0 0 0 0 0 0 127 0" result="hardAlpha"/>
<feOffset dy="4"/>
<feGaussianBlur stdDeviation="3.35"/>
<feComposite in2="hardAlpha" operator="out"/>
<feColorMatrix type="matrix" values="0 0 0 0 0.893893 0 0 0 0 0.783885 0 0 0 0 0.86901 0 0 0 1 0"/>
<feBlend mode="multiply" in2="BackgroundImageFix" result="effect1_dropShadow_115_1180"/>
<feBlend mode="normal" in="SourceGraphic" in2="effect1_dropShadow_115_1180" result="shape"/>
</filter>
<filter id="filter6_d_115_1180" x="681.579" y="393.098" width="149.049" height="192.243" filterUnits="userSpaceOnUse" color-interpolation-filters="sRGB">
<feFlood flood-opacity="0" result="BackgroundImageFix"/>
<feColorMatrix in="SourceAlpha" type="matrix" values="0 0 0 0 0 0 0 0 0 0 0 0 0 0 0 0 0 0 127 0" result="hardAlpha"/>
<feOffset dy="4"/>
<feGaussianBlur stdDeviation="3.35"/>
<feComposite in2="hardAlpha" operator="out"/>
<feColorMatrix type="matrix" values="0 0 0 0 0.893893 0 0 0 0 0.783885 0 0 0 0 0.86901 0 0 0 1 0"/>
<feBlend mode="multiply" in2="BackgroundImageFix" result="effect1_dropShadow_115_1180"/>
<feBlend mode="normal" in="SourceGraphic" in2="effect1_dropShadow_115_1180" result="shape"/>
</filter>
<filter id="filter7_d_115_1180" x="749.702" y="403.235" width="141.394" height="176.83" filterUnits="userSpaceOnUse" color-interpolation-filters="sRGB">
<feFlood flood-opacity="0" result="BackgroundImageFix"/>
<feColorMatrix in="SourceAlpha" type="matrix" values="0 0 0 0 0 0 0 0 0 0 0 0 0 0 0 0 0 0 127 0" result="hardAlpha"/>
<feOffset dy="4"/>
<feGaussianBlur stdDeviation="3.35"/>
<feComposite in2="hardAlpha" operator="out"/>
<feColorMatrix type="matrix" values="0 0 0 0 0.893893 0 0 0 0 0.783885 0 0 0 0 0.86901 0 0 0 1 0"/>
<feBlend mode="multiply" in2="BackgroundImageFix" result="effect1_dropShadow_115_1180"/>
<feBlend mode="normal" in="SourceGraphic" in2="effect1_dropShadow_115_1180" result="shape"/>
</filter>
<filter id="filter8_d_115_1180" x="813.386" y="410.88" width="138.18" height="169.736" filterUnits="userSpaceOnUse" color-interpolation-filters="sRGB">
<feFlood flood-opacity="0" result="BackgroundImageFix"/>
<feColorMatrix in="SourceAlpha" type="matrix" values="0 0 0 0 0 0 0 0 0 0 0 0 0 0 0 0 0 0 127 0" result="hardAlpha"/>
<feOffset dy="4"/>
<feGaussianBlur stdDeviation="3.35"/>
<feComposite in2="hardAlpha" operator="out"/>
<feColorMatrix type="matrix" values="0 0 0 0 0.893893 0 0 0 0 0.783885 0 0 0 0 0.86901 0 0 0 1 0"/>
<feBlend mode="multiply" in2="BackgroundImageFix" result="effect1_dropShadow_115_1180"/>
<feBlend mode="normal" in="SourceGraphic" in2="effect1_dropShadow_115_1180" result="shape"/>
</filter>
<filter id="filter9_di_115_1180" x="416.785" y="349.516" width="18.001" height="18.001" filterUnits="userSpaceOnUse" color-interpolation-filters="sRGB">
<feFlood flood-opacity="0" result="BackgroundImageFix"/>
<feColorMatrix in="SourceAlpha" type="matrix" values="0 0 0 0 0 0 0 0 0 0 0 0 0 0 0 0 0 0 127 0" result="hardAlpha"/>
<feOffset dy="4"/>
<feGaussianBlur stdDeviation="2"/>
<feComposite in2="hardAlpha" operator="out"/>
<feColorMatrix type="matrix" values="0 0 0 0 0.893893 0 0 0 0 0.783885 0 0 0 0 0.86901 0 0 0 0.3 0"/>
<feBlend mode="multiply" in2="BackgroundImageFix" result="effect1_dropShadow_115_1180"/>
<feBlend mode="normal" in="SourceGraphic" in2="effect1_dropShadow_115_1180" result="shape"/>
<feColorMatrix in="SourceAlpha" type="matrix" values="0 0 0 0 0 0 0 0 0 0 0 0 0 0 0 0 0 0 127 0" result="hardAlpha"/>
<feOffset dy="4"/>
<feGaussianBlur stdDeviation="2"/>
<feComposite in2="hardAlpha" operator="arithmetic" k2="-1" k3="1"/>
<feColorMatrix type="matrix" values="0 0 0 0 0.933333 0 0 0 0 0.72549 0 0 0 0 0.552941 0 0 0 1 0"/>
<feBlend mode="normal" in2="shape" result="effect2_innerShadow_115_1180"/>
</filter>
<filter id="filter10_di_115_1180" x="308.519" y="572.449" width="18.001" height="18.001" filterUnits="userSpaceOnUse" color-interpolation-filters="sRGB">
<feFlood flood-opacity="0" result="BackgroundImageFix"/>
<feColorMatrix in="SourceAlpha" type="matrix" values="0 0 0 0 0 0 0 0 0 0 0 0 0 0 0 0 0 0 127 0" result="hardAlpha"/>
<feOffset dy="4"/>
<feGaussianBlur stdDeviation="2"/>
<feComposite in2="hardAlpha" operator="out"/>
<feColorMatrix type="matrix" values="0 0 0 0 0.893893 0 0 0 0 0.783885 0 0 0 0 0.86901 0 0 0 0.3 0"/>
<feBlend mode="multiply" in2="BackgroundImageFix" result="effect1_dropShadow_115_1180"/>
<feBlend mode="normal" in="SourceGraphic" in2="effect1_dropShadow_115_1180" result="shape"/>
<feColorMatrix in="SourceAlpha" type="matrix" values="0 0 0 0 0 0 0 0 0 0 0 0 0 0 0 0 0 0 127 0" result="hardAlpha"/>
<feOffset dy="4"/>
<feGaussianBlur stdDeviation="2"/>
<feComposite in2="hardAlpha" operator="arithmetic" k2="-1" k3="1"/>
<feColorMatrix type="matrix" values="0 0 0 0 0.933333 0 0 0 0 0.72549 0 0 0 0 0.552941 0 0 0 1 0"/>
<feBlend mode="normal" in2="shape" result="effect2_innerShadow_115_1180"/>
</filter>
<filter id="filter11_di_115_1180" x="476.714" y="359.933" width="18.001" height="18.001" filterUnits="userSpaceOnUse" color-interpolation-filters="sRGB">
<feFlood flood-opacity="0" result="BackgroundImageFix"/>
<feColorMatrix in="SourceAlpha" type="matrix" values="0 0 0 0 0 0 0 0 0 0 0 0 0 0 0 0 0 0 127 0" result="hardAlpha"/>
<feOffset dy="4"/>
<feGaussianBlur stdDeviation="2"/>
<feComposite in2="hardAlpha" operator="out"/>
<feColorMatrix type="matrix" values="0 0 0 0 0.893893 0 0 0 0 0.783885 0 0 0 0 0.86901 0 0 0 0.3 0"/>
<feBlend mode="multiply" in2="BackgroundImageFix" result="effect1_dropShadow_115_1180"/>
<feBlend mode="normal" in="SourceGraphic" in2="effect1_dropShadow_115_1180" result="shape"/>
<feColorMatrix in="SourceAlpha" type="matrix" values="0 0 0 0 0 0 0 0 0 0 0 0 0 0 0 0 0 0 127 0" result="hardAlpha"/>
<feOffset dy="4"/>
<feGaussianBlur stdDeviation="2"/>
<feComposite in2="hardAlpha" operator="arithmetic" k2="-1" k3="1"/>
<feColorMatrix type="matrix" values="0 0 0 0 0.933333 0 0 0 0 0.72549 0 0 0 0 0.552941 0 0 0 1 0"/>
<feBlend mode="normal" in2="shape" result="effect2_innerShadow_115_1180"/>
</filter>
<filter id="filter12_di_115_1180" x="371.75" y="569.824" width="18.001" height="18.001" filterUnits="userSpaceOnUse" color-interpolation-filters="sRGB">
<feFlood flood-opacity="0" result="BackgroundImageFix"/>
<feColorMatrix in="SourceAlpha" type="matrix" values="0 0 0 0 0 0 0 0 0 0 0 0 0 0 0 0 0 0 127 0" result="hardAlpha"/>
<feOffset dy="4"/>
<feGaussianBlur stdDeviation="2"/>
<feComposite in2="hardAlpha" operator="out"/>
<feColorMatrix type="matrix" values="0 0 0 0 0.893893 0 0 0 0 0.783885 0 0 0 0 0.86901 0 0 0 0.3 0"/>
<feBlend mode="multiply" in2="BackgroundImageFix" result="effect1_dropShadow_115_1180"/>
<feBlend mode="normal" in="SourceGraphic" in2="effect1_dropShadow_115_1180" result="shape"/>
<feColorMatrix in="SourceAlpha" type="matrix" values="0 0 0 0 0 0 0 0 0 0 0 0 0 0 0 0 0 0 127 0" result="hardAlpha"/>
<feOffset dy="4"/>
<feGaussianBlur stdDeviation="2"/>
<feComposite in2="hardAlpha" operator="arithmetic" k2="-1" k3="1"/>
<feColorMatrix type="matrix" values="0 0 0 0 0.933333 0 0 0 0 0.72549 0 0 0 0 0.552941 0 0 0 1 0"/>
<feBlend mode="normal" in2="shape" result="effect2_innerShadow_115_1180"/>
</filter>
<filter id="filter13_di_115_1180" x="538.305" y="369.236" width="18.001" height="18.001" filterUnits="userSpaceOnUse" color-interpolation-filters="sRGB">
<feFlood flood-opacity="0" result="BackgroundImageFix"/>
<feColorMatrix in="SourceAlpha" type="matrix" values="0 0 0 0 0 0 0 0 0 0 0 0 0 0 0 0 0 0 127 0" result="hardAlpha"/>
<feOffset dy="4"/>
<feGaussianBlur stdDeviation="2"/>
<feComposite in2="hardAlpha" operator="out"/>
<feColorMatrix type="matrix" values="0 0 0 0 0.893893 0 0 0 0 0.783885 0 0 0 0 0.86901 0 0 0 0.3 0"/>
<feBlend mode="multiply" in2="BackgroundImageFix" result="effect1_dropShadow_115_1180"/>
<feBlend mode="normal" in="SourceGraphic" in2="effect1_dropShadow_115_1180" result="shape"/>
<feColorMatrix in="SourceAlpha" type="matrix" values="0 0 0 0 0 0 0 0 0 0 0 0 0 0 0 0 0 0 127 0" result="hardAlpha"/>
<feOffset dy="4"/>
<feGaussianBlur stdDeviation="2"/>
<feComposite in2="hardAlpha" operator="arithmetic" k2="-1" k3="1"/>
<feColorMatrix type="matrix" values="0 0 0 0 0.933333 0 0 0 0 0.72549 0 0 0 0 0.552941 0 0 0 1 0"/>
<feBlend mode="normal" in2="shape" result="effect2_innerShadow_115_1180"/>
</filter>
<filter id="filter14_di_115_1180" x="440.248" y="566.078" width="18.001" height="18.001" filterUnits="userSpaceOnUse" color-interpolation-filters="sRGB">
<feFlood flood-opacity="0" result="BackgroundImageFix"/>
<feColorMatrix in="SourceAlpha" type="matrix" values="0 0 0 0 0 0 0 0 0 0 0 0 0 0 0 0 0 0 127 0" result="hardAlpha"/>
<feOffset dy="4"/>
<feGaussianBlur stdDeviation="2"/>
<feComposite in2="hardAlpha" operator="out"/>
<feColorMatrix type="matrix" values="0 0 0 0 0.893893 0 0 0 0 0.783885 0 0 0 0 0.86901 0 0 0 0.3 0"/>
<feBlend mode="multiply" in2="BackgroundImageFix" result="effect1_dropShadow_115_1180"/>
<feBlend mode="normal" in="SourceGraphic" in2="effect1_dropShadow_115_1180" result="shape"/>
<feColorMatrix in="SourceAlpha" type="matrix" values="0 0 0 0 0 0 0 0 0 0 0 0 0 0 0 0 0 0 127 0" result="hardAlpha"/>
<feOffset dy="4"/>
<feGaussianBlur stdDeviation="2"/>
<feComposite in2="hardAlpha" operator="arithmetic" k2="-1" k3="1"/>
<feColorMatrix type="matrix" values="0 0 0 0 0.933333 0 0 0 0 0.72549 0 0 0 0 0.552941 0 0 0 1 0"/>
<feBlend mode="normal" in2="shape" result="effect2_innerShadow_115_1180"/>
</filter>
<filter id="filter15_di_115_1180" x="598.783" y="376.879" width="18.001" height="18.001" filterUnits="userSpaceOnUse" color-interpolation-filters="sRGB">
<feFlood flood-opacity="0" result="BackgroundImageFix"/>
<feColorMatrix in="SourceAlpha" type="matrix" values="0 0 0 0 0 0 0 0 0 0 0 0 0 0 0 0 0 0 127 0" result="hardAlpha"/>
<feOffset dy="4"/>
<feGaussianBlur stdDeviation="2"/>
<feComposite in2="hardAlpha" operator="out"/>
<feColorMatrix type="matrix" values="0 0 0 0 0.893893 0 0 0 0 0.783885 0 0 0 0 0.86901 0 0 0 0.3 0"/>
<feBlend mode="multiply" in2="BackgroundImageFix" result="effect1_dropShadow_115_1180"/>
<feBlend mode="normal" in="SourceGraphic" in2="effect1_dropShadow_115_1180" result="shape"/>
<feColorMatrix in="SourceAlpha" type="matrix" values="0 0 0 0 0 0 0 0 0 0 0 0 0 0 0 0 0 0 127 0" result="hardAlpha"/>
<feOffset dy="4"/>
<feGaussianBlur stdDeviation="2"/>
<feComposite in2="hardAlpha" operator="arithmetic" k2="-1" k3="1"/>
<feColorMatrix type="matrix" values="0 0 0 0 0.933333 0 0 0 0 0.72549 0 0 0 0 0.552941 0 0 0 1 0"/>
<feBlend mode="normal" in2="shape" result="effect2_innerShadow_115_1180"/>
</filter>
<filter id="filter16_di_115_1180" x="505.14" y="562.34" width="18.001" height="18.001" filterUnits="userSpaceOnUse" color-interpolation-filters="sRGB">
<feFlood flood-opacity="0" result="BackgroundImageFix"/>
<feColorMatrix in="SourceAlpha" type="matrix" values="0 0 0 0 0 0 0 0 0 0 0 0 0 0 0 0 0 0 127 0" result="hardAlpha"/>
<feOffset dy="4"/>
<feGaussianBlur stdDeviation="2"/>
<feComposite in2="hardAlpha" operator="out"/>
<feColorMatrix type="matrix" values="0 0 0 0 0.893893 0 0 0 0 0.783885 0 0 0 0 0.86901 0 0 0 0.3 0"/>
<feBlend mode="multiply" in2="BackgroundImageFix" result="effect1_dropShadow_115_1180"/>
<feBlend mode="normal" in="SourceGraphic" in2="effect1_dropShadow_115_1180" result="shape"/>
<feColorMatrix in="SourceAlpha" type="matrix" values="0 0 0 0 0 0 0 0 0 0 0 0 0 0 0 0 0 0 127 0" result="hardAlpha"/>
<feOffset dy="4"/>
<feGaussianBlur stdDeviation="2"/>
<feComposite in2="hardAlpha" operator="arithmetic" k2="-1" k3="1"/>
<feColorMatrix type="matrix" values="0 0 0 0 0.933333 0 0 0 0 0.72549 0 0 0 0 0.552941 0 0 0 1 0"/>
<feBlend mode="normal" in2="shape" result="effect2_innerShadow_115_1180"/>
</filter>
<filter id="filter17_di_115_1180" x="661.198" y="382.021" width="18.001" height="18.001" filterUnits="userSpaceOnUse" color-interpolation-filters="sRGB">
<feFlood flood-opacity="0" result="BackgroundImageFix"/>
<feColorMatrix in="SourceAlpha" type="matrix" values="0 0 0 0 0 0 0 0 0 0 0 0 0 0 0 0 0 0 127 0" result="hardAlpha"/>
<feOffset dy="4"/>
<feGaussianBlur stdDeviation="2"/>
<feComposite in2="hardAlpha" operator="out"/>
<feColorMatrix type="matrix" values="0 0 0 0 0.893893 0 0 0 0 0.783885 0 0 0 0 0.86901 0 0 0 0.3 0"/>
<feBlend mode="multiply" in2="BackgroundImageFix" result="effect1_dropShadow_115_1180"/>
<feBlend mode="normal" in="SourceGraphic" in2="effect1_dropShadow_115_1180" result="shape"/>
<feColorMatrix in="SourceAlpha" type="matrix" values="0 0 0 0 0 0 0 0 0 0 0 0 0 0 0 0 0 0 127 0" result="hardAlpha"/>
<feOffset dy="4"/>
<feGaussianBlur stdDeviation="2"/>
<feComposite in2="hardAlpha" operator="arithmetic" k2="-1" k3="1"/>
<feColorMatrix type="matrix" values="0 0 0 0 0.933333 0 0 0 0 0.72549 0 0 0 0 0.552941 0 0 0 1 0"/>
<feBlend mode="normal" in2="shape" result="effect2_innerShadow_115_1180"/>
</filter>
<filter id="filter18_di_115_1180" x="571.42" y="558.876" width="18.001" height="18.001" filterUnits="userSpaceOnUse" color-interpolation-filters="sRGB">
<feFlood flood-opacity="0" result="BackgroundImageFix"/>
<feColorMatrix in="SourceAlpha" type="matrix" values="0 0 0 0 0 0 0 0 0 0 0 0 0 0 0 0 0 0 127 0" result="hardAlpha"/>
<feOffset dy="4"/>
<feGaussianBlur stdDeviation="2"/>
<feComposite in2="hardAlpha" operator="out"/>
<feColorMatrix type="matrix" values="0 0 0 0 0.893893 0 0 0 0 0.783885 0 0 0 0 0.86901 0 0 0 0.3 0"/>
<feBlend mode="multiply" in2="BackgroundImageFix" result="effect1_dropShadow_115_1180"/>
<feBlend mode="normal" in="SourceGraphic" in2="effect1_dropShadow_115_1180" result="shape"/>
<feColorMatrix in="SourceAlpha" type="matrix" values="0 0 0 0 0 0 0 0 0 0 0 0 0 0 0 0 0 0 127 0" result="hardAlpha"/>
<feOffset dy="4"/>
<feGaussianBlur stdDeviation="2"/>
<feComposite in2="hardAlpha" operator="arithmetic" k2="-1" k3="1"/>
<feColorMatrix type="matrix" values="0 0 0 0 0.933333 0 0 0 0 0.72549 0 0 0 0 0.552941 0 0 0 1 0"/>
<feBlend mode="normal" in2="shape" result="effect2_innerShadow_115_1180"/>
</filter>
<filter id="filter19_di_115_1180" x="720.845" y="390.219" width="18.001" height="18.001" filterUnits="userSpaceOnUse" color-interpolation-filters="sRGB">
<feFlood flood-opacity="0" result="BackgroundImageFix"/>
<feColorMatrix in="SourceAlpha" type="matrix" values="0 0 0 0 0 0 0 0 0 0 0 0 0 0 0 0 0 0 127 0" result="hardAlpha"/>
<feOffset dy="4"/>
<feGaussianBlur stdDeviation="2"/>
<feComposite in2="hardAlpha" operator="out"/>
<feColorMatrix type="matrix" values="0 0 0 0 0.893893 0 0 0 0 0.783885 0 0 0 0 0.86901 0 0 0 0.3 0"/>
<feBlend mode="multiply" in2="BackgroundImageFix" result="effect1_dropShadow_115_1180"/>
<feBlend mode="normal" in="SourceGraphic" in2="effect1_dropShadow_115_1180" result="shape"/>
<feColorMatrix in="SourceAlpha" type="matrix" values="0 0 0 0 0 0 0 0 0 0 0 0 0 0 0 0 0 0 127 0" result="hardAlpha"/>
<feOffset dy="4"/>
<feGaussianBlur stdDeviation="2"/>
<feComposite in2="hardAlpha" operator="arithmetic" k2="-1" k3="1"/>
<feColorMatrix type="matrix" values="0 0 0 0 0.933333 0 0 0 0 0.72549 0 0 0 0 0.552941 0 0 0 1 0"/>
<feBlend mode="normal" in2="shape" result="effect2_innerShadow_115_1180"/>
</filter>
<filter id="filter20_di_115_1180" x="638.805" y="553.469" width="18.001" height="18.001" filterUnits="userSpaceOnUse" color-interpolation-filters="sRGB">
<feFlood flood-opacity="0" result="BackgroundImageFix"/>
<feColorMatrix in="SourceAlpha" type="matrix" values="0 0 0 0 0 0 0 0 0 0 0 0 0 0 0 0 0 0 127 0" result="hardAlpha"/>
<feOffset dy="4"/>
<feGaussianBlur stdDeviation="2"/>
<feComposite in2="hardAlpha" operator="out"/>
<feColorMatrix type="matrix" values="0 0 0 0 0.893893 0 0 0 0 0.783885 0 0 0 0 0.86901 0 0 0 0.3 0"/>
<feBlend mode="multiply" in2="BackgroundImageFix" result="effect1_dropShadow_115_1180"/>
<feBlend mode="normal" in="SourceGraphic" in2="effect1_dropShadow_115_1180" result="shape"/>
<feColorMatrix in="SourceAlpha" type="matrix" values="0 0 0 0 0 0 0 0 0 0 0 0 0 0 0 0 0 0 127 0" result="hardAlpha"/>
<feOffset dy="4"/>
<feGaussianBlur stdDeviation="2"/>
<feComposite in2="hardAlpha" operator="arithmetic" k2="-1" k3="1"/>
<feColorMatrix type="matrix" values="0 0 0 0 0.933333 0 0 0 0 0.72549 0 0 0 0 0.552941 0 0 0 1 0"/>
<feBlend mode="normal" in2="shape" result="effect2_innerShadow_115_1180"/>
</filter>
<filter id="filter21_di_115_1180" x="783.548" y="401.185" width="18.001" height="18.001" filterUnits="userSpaceOnUse" color-interpolation-filters="sRGB">
<feFlood flood-opacity="0" result="BackgroundImageFix"/>
<feColorMatrix in="SourceAlpha" type="matrix" values="0 0 0 0 0 0 0 0 0 0 0 0 0 0 0 0 0 0 127 0" result="hardAlpha"/>
<feOffset dy="4"/>
<feGaussianBlur stdDeviation="2"/>
<feComposite in2="hardAlpha" operator="out"/>
<feColorMatrix type="matrix" values="0 0 0 0 0.893893 0 0 0 0 0.783885 0 0 0 0 0.86901 0 0 0 0.3 0"/>
<feBlend mode="multiply" in2="BackgroundImageFix" result="effect1_dropShadow_115_1180"/>
<feBlend mode="normal" in="SourceGraphic" in2="effect1_dropShadow_115_1180" result="shape"/>
<feColorMatrix in="SourceAlpha" type="matrix" values="0 0 0 0 0 0 0 0 0 0 0 0 0 0 0 0 0 0 127 0" result="hardAlpha"/>
<feOffset dy="4"/>
<feGaussianBlur stdDeviation="2"/>
<feComposite in2="hardAlpha" operator="arithmetic" k2="-1" k3="1"/>
<feColorMatrix type="matrix" values="0 0 0 0 0.933333 0 0 0 0 0.72549 0 0 0 0 0.552941 0 0 0 1 0"/>
<feBlend mode="normal" in2="shape" result="effect2_innerShadow_115_1180"/>
</filter>
<filter id="filter22_di_115_1180" x="707.021" y="547.505" width="18.001" height="18.001" filterUnits="userSpaceOnUse" color-interpolation-filters="sRGB">
<feFlood flood-opacity="0" result="BackgroundImageFix"/>
<feColorMatrix in="SourceAlpha" type="matrix" values="0 0 0 0 0 0 0 0 0 0 0 0 0 0 0 0 0 0 127 0" result="hardAlpha"/>
<feOffset dy="4"/>
<feGaussianBlur stdDeviation="2"/>
<feComposite in2="hardAlpha" operator="out"/>
<feColorMatrix type="matrix" values="0 0 0 0 0.893893 0 0 0 0 0.783885 0 0 0 0 0.86901 0 0 0 0.3 0"/>
<feBlend mode="multiply" in2="BackgroundImageFix" result="effect1_dropShadow_115_1180"/>
<feBlend mode="normal" in="SourceGraphic" in2="effect1_dropShadow_115_1180" result="shape"/>
<feColorMatrix in="SourceAlpha" type="matrix" values="0 0 0 0 0 0 0 0 0 0 0 0 0 0 0 0 0 0 127 0" result="hardAlpha"/>
<feOffset dy="4"/>
<feGaussianBlur stdDeviation="2"/>
<feComposite in2="hardAlpha" operator="arithmetic" k2="-1" k3="1"/>
<feColorMatrix type="matrix" values="0 0 0 0 0.933333 0 0 0 0 0.72549 0 0 0 0 0.552941 0 0 0 1 0"/>
<feBlend mode="normal" in2="shape" result="effect2_innerShadow_115_1180"/>
</filter>
<filter id="filter23_di_115_1180" x="843.477" y="411.602" width="18.001" height="18.001" filterUnits="userSpaceOnUse" color-interpolation-filters="sRGB">
<feFlood flood-opacity="0" result="BackgroundImageFix"/>
<feColorMatrix in="SourceAlpha" type="matrix" values="0 0 0 0 0 0 0 0 0 0 0 0 0 0 0 0 0 0 127 0" result="hardAlpha"/>
<feOffset dy="4"/>
<feGaussianBlur stdDeviation="2"/>
<feComposite in2="hardAlpha" operator="out"/>
<feColorMatrix type="matrix" values="0 0 0 0 0.893893 0 0 0 0 0.783885 0 0 0 0 0.86901 0 0 0 0.3 0"/>
<feBlend mode="multiply" in2="BackgroundImageFix" result="effect1_dropShadow_115_1180"/>
<feBlend mode="normal" in="SourceGraphic" in2="effect1_dropShadow_115_1180" result="shape"/>
<feColorMatrix in="SourceAlpha" type="matrix" values="0 0 0 0 0 0 0 0 0 0 0 0 0 0 0 0 0 0 127 0" result="hardAlpha"/>
<feOffset dy="4"/>
<feGaussianBlur stdDeviation="2"/>
<feComposite in2="hardAlpha" operator="arithmetic" k2="-1" k3="1"/>
<feColorMatrix type="matrix" values="0 0 0 0 0.933333 0 0 0 0 0.72549 0 0 0 0 0.552941 0 0 0 1 0"/>
<feBlend mode="normal" in2="shape" result="effect2_innerShadow_115_1180"/>
</filter>
<filter id="filter24_di_115_1180" x="775.519" y="543.76" width="18.001" height="18.001" filterUnits="userSpaceOnUse" color-interpolation-filters="sRGB">
<feFlood flood-opacity="0" result="BackgroundImageFix"/>
<feColorMatrix in="SourceAlpha" type="matrix" values="0 0 0 0 0 0 0 0 0 0 0 0 0 0 0 0 0 0 127 0" result="hardAlpha"/>
<feOffset dy="4"/>
<feGaussianBlur stdDeviation="2"/>
<feComposite in2="hardAlpha" operator="out"/>
<feColorMatrix type="matrix" values="0 0 0 0 0.893893 0 0 0 0 0.783885 0 0 0 0 0.86901 0 0 0 0.3 0"/>
<feBlend mode="multiply" in2="BackgroundImageFix" result="effect1_dropShadow_115_1180"/>
<feBlend mode="normal" in="SourceGraphic" in2="effect1_dropShadow_115_1180" result="shape"/>
<feColorMatrix in="SourceAlpha" type="matrix" values="0 0 0 0 0 0 0 0 0 0 0 0 0 0 0 0 0 0 127 0" result="hardAlpha"/>
<feOffset dy="4"/>
<feGaussianBlur stdDeviation="2"/>
<feComposite in2="hardAlpha" operator="arithmetic" k2="-1" k3="1"/>
<feColorMatrix type="matrix" values="0 0 0 0 0.933333 0 0 0 0 0.72549 0 0 0 0 0.552941 0 0 0 1 0"/>
<feBlend mode="normal" in2="shape" result="effect2_innerShadow_115_1180"/>
</filter>
<filter id="filter25_di_115_1180" x="903.681" y="420.631" width="18.001" height="18.001" filterUnits="userSpaceOnUse" color-interpolation-filters="sRGB">
<feFlood flood-opacity="0" result="BackgroundImageFix"/>
<feColorMatrix in="SourceAlpha" type="matrix" values="0 0 0 0 0 0 0 0 0 0 0 0 0 0 0 0 0 0 127 0" result="hardAlpha"/>
<feOffset dy="4"/>
<feGaussianBlur stdDeviation="2"/>
<feComposite in2="hardAlpha" operator="out"/>
<feColorMatrix type="matrix" values="0 0 0 0 0.893893 0 0 0 0 0.783885 0 0 0 0 0.86901 0 0 0 0.3 0"/>
<feBlend mode="multiply" in2="BackgroundImageFix" result="effect1_dropShadow_115_1180"/>
<feBlend mode="normal" in="SourceGraphic" in2="effect1_dropShadow_115_1180" result="shape"/>
<feColorMatrix in="SourceAlpha" type="matrix" values="0 0 0 0 0 0 0 0 0 0 0 0 0 0 0 0 0 0 127 0" result="hardAlpha"/>
<feOffset dy="4"/>
<feGaussianBlur stdDeviation="2"/>
<feComposite in2="hardAlpha" operator="arithmetic" k2="-1" k3="1"/>
<feColorMatrix type="matrix" values="0 0 0 0 0.933333 0 0 0 0 0.72549 0 0 0 0 0.552941 0 0 0 1 0"/>
<feBlend mode="normal" in2="shape" result="effect2_innerShadow_115_1180"/>
</filter>
<filter id="filter26_di_115_1180" x="841.25" y="543.07" width="18.001" height="18.001" filterUnits="userSpaceOnUse" color-interpolation-filters="sRGB">
<feFlood flood-opacity="0" result="BackgroundImageFix"/>
<feColorMatrix in="SourceAlpha" type="matrix" values="0 0 0 0 0 0 0 0 0 0 0 0 0 0 0 0 0 0 127 0" result="hardAlpha"/>
<feOffset dy="4"/>
<feGaussianBlur stdDeviation="2"/>
<feComposite in2="hardAlpha" operator="out"/>
<feColorMatrix type="matrix" values="0 0 0 0 0.893893 0 0 0 0 0.783885 0 0 0 0 0.86901 0 0 0 0.3 0"/>
<feBlend mode="multiply" in2="BackgroundImageFix" result="effect1_dropShadow_115_1180"/>
<feBlend mode="normal" in="SourceGraphic" in2="effect1_dropShadow_115_1180" result="shape"/>
<feColorMatrix in="SourceAlpha" type="matrix" values="0 0 0 0 0 0 0 0 0 0 0 0 0 0 0 0 0 0 127 0" result="hardAlpha"/>
<feOffset dy="4"/>
<feGaussianBlur stdDeviation="2"/>
<feComposite in2="hardAlpha" operator="arithmetic" k2="-1" k3="1"/>
<feColorMatrix type="matrix" values="0 0 0 0 0.933333 0 0 0 0 0.72549 0 0 0 0 0.552941 0 0 0 1 0"/>
<feBlend mode="normal" in2="shape" result="effect2_innerShadow_115_1180"/>
</filter>
<linearGradient id="paint0_linear_115_1180" x1="615.612" y1="807.951" x2="615.612" y2="-79.748" gradientUnits="userSpaceOnUse">
<stop stop-color="#7C2869"/>
<stop offset="1" stop-color="#C3598C"/>
</linearGradient>
<linearGradient id="paint1_linear_115_1180" x1="615.612" y1="807.951" x2="615.612" y2="-79.748" gradientUnits="userSpaceOnUse">
<stop stop-color="#7C2869"/>
<stop offset="1" stop-color="#C3598C"/>
</linearGradient>
<clipPath id="clip0_115_1180">
<rect width="1280" height="720" fill="white"/>
</clipPath>
</defs>
</svg>
