<svg width="1280" height="720" viewBox="0 0 1280 720" fill="none" xmlns="http://www.w3.org/2000/svg">
<rect width="1280" height="720" fill="#ECFAFF"/>
<path d="M656.552 300C655.97 300 655.408 300.017 654.864 300.058C653.831 300.133 652.806 300.288 651.798 300.521C650.885 300.745 649.999 301.056 649.147 301.448C648.347 301.827 647.591 302.293 646.897 302.839C646.553 303.109 646.233 303.4 645.927 303.712C645.331 304.331 644.783 304.997 644.287 305.718C643.788 306.438 643.34 307.206 642.937 308.025C642.537 308.844 642.185 309.717 641.882 310.634C641.571 311.588 641.319 312.56 641.125 313.543C640.936 314.548 640.774 315.607 640.633 316.724C640.495 317.84 640.374 319.014 640.281 320.242C640.184 321.526 640.114 322.812 640.071 324.099C639.976 326.942 639.976 329.786 640.071 332.629C640.116 334.016 640.188 335.339 640.281 336.601C640.374 337.863 640.491 339.067 640.633 340.207C640.77 341.351 640.936 342.43 641.125 343.448C641.329 344.47 641.583 345.441 641.882 346.358C642.185 347.282 642.537 348.151 642.937 348.97C643.34 349.789 643.788 350.56 644.287 351.277C644.783 351.995 645.331 352.664 645.927 353.284C646.852 354.222 647.94 354.988 649.142 355.547C649.99 355.95 650.881 356.261 651.798 356.474C652.277 356.593 652.77 356.687 653.28 356.765C653.789 356.843 654.32 356.9 654.864 356.941C655.978 357.02 657.098 357.02 658.212 356.941C658.746 356.9 659.267 356.84 659.77 356.765C660.258 356.69 660.743 356.593 661.223 356.474C662.553 356.158 663.821 355.629 664.976 354.908C665.706 354.447 666.377 353.902 666.974 353.284C667.589 352.662 668.148 351.991 668.648 351.277C669.158 350.557 669.612 349.789 670.008 348.97C670.408 348.151 670.756 347.278 671.053 346.361C671.354 345.407 671.595 344.436 671.773 343.452C671.979 342.43 672.151 341.351 672.306 340.207C672.461 339.067 672.589 337.863 672.692 336.601C672.796 335.339 672.871 334.016 672.923 332.632C673.026 329.79 673.026 326.945 672.923 324.103C672.875 322.815 672.798 321.53 672.692 320.246C672.589 319.014 672.461 317.844 672.306 316.727C672.154 315.611 671.976 314.548 671.773 313.547C671.593 312.563 671.352 311.591 671.049 310.637C670.767 309.743 670.418 308.87 670.008 308.025C669.425 306.829 668.7 305.705 667.849 304.676C667.294 304.015 666.684 303.4 666.024 302.839C665.353 302.291 664.615 301.825 663.829 301.452C662.545 300.845 661.176 300.435 659.766 300.233C659.251 300.154 658.732 300.095 658.212 300.058C657.659 300.018 657.107 299.999 656.552 300Z" fill="#34C3FF"/>
<mask id="mask0_410_4280" style="mask-type:alpha" maskUnits="userSpaceOnUse" x="612" y="273" width="89" height="243">
<path d="M612 273.691L612.035 515.202L700.913 515.209V273.691H612ZM656.501 291.328C657.663 291.328 658.784 291.378 659.861 291.48C660.938 291.582 661.972 291.734 662.961 291.938C663.95 292.141 664.9 292.395 665.804 292.696C666.705 293.001 667.565 293.357 668.378 293.763C670.793 294.945 672.906 296.663 674.555 298.787C675.114 299.499 675.624 300.261 676.095 301.074C676.562 301.877 677.003 302.72 677.413 303.605C677.819 304.485 678.202 305.41 678.554 306.372C678.907 307.338 679.232 308.337 679.524 309.381C679.815 310.424 680.079 311.508 680.313 312.629C680.55 313.751 680.754 314.913 680.93 316.115C681.106 317.315 681.251 318.554 681.37 319.838C681.485 321.119 681.573 322.44 681.634 323.802C681.753 326.626 681.753 329.454 681.634 332.278C681.573 333.66 681.485 335.002 681.37 336.306C681.251 337.607 681.106 338.867 680.93 340.087C680.754 341.306 680.546 342.488 680.313 343.627C680.076 344.765 679.818 345.863 679.524 346.919C679.229 347.976 678.907 348.993 678.554 349.968C678.202 350.944 677.823 351.879 677.413 352.773C677.003 353.668 676.562 354.518 676.091 355.331C675.624 356.144 675.114 356.906 674.558 357.618C673.459 359.02 672.159 360.252 670.699 361.273C669.97 361.781 669.198 362.235 668.381 362.642C667.565 363.048 666.705 363.404 665.804 363.709C664.872 364.021 663.921 364.276 662.957 364.471C661.972 364.674 660.938 364.827 659.861 364.928C658.784 365.03 657.663 365.081 656.498 365.081C655.326 365.081 654.198 365.03 653.114 364.928C652.067 364.832 651.027 364.679 649.997 364.471C649.028 364.276 648.072 364.021 647.134 363.709C646.247 363.412 645.381 363.056 644.542 362.642C643.733 362.243 642.954 361.786 642.211 361.273C640.744 360.257 639.439 359.023 638.342 357.614C637.777 356.89 637.264 356.127 636.805 355.331C636.326 354.499 635.884 353.646 635.484 352.773C635.077 351.879 634.695 350.944 634.342 349.968C633.99 348.993 633.668 347.976 633.376 346.919C633.075 345.831 632.811 344.733 632.584 343.627C632.347 342.488 632.143 341.306 631.97 340.087C631.794 338.867 631.646 337.607 631.53 336.306C631.412 335.002 631.327 333.66 631.266 332.275C631.147 329.452 631.147 326.625 631.266 323.802C631.323 322.44 631.412 321.119 631.53 319.838C631.646 318.558 631.794 317.315 631.97 316.112C632.143 314.913 632.35 313.751 632.584 312.629C632.821 311.508 633.082 310.424 633.376 309.381C633.668 308.337 633.99 307.338 634.342 306.372C634.695 305.41 635.077 304.489 635.487 303.605C635.894 302.724 636.335 301.877 636.805 301.074C637.273 300.261 637.787 299.499 638.342 298.787C639.443 297.383 640.747 296.151 642.211 295.132C642.943 294.624 643.722 294.17 644.542 293.763C645.362 293.357 646.226 293.001 647.134 292.696C648.045 292.391 648.998 292.141 649.994 291.938C650.99 291.734 652.03 291.582 653.114 291.48C654.198 291.378 655.326 291.328 656.501 291.328ZM647.005 424.928H665.892V497.576H656.65V433.268H647.005V424.928Z" fill="#34C3FF"/>
</mask>
<g mask="url(#mask0_410_4280)">
<path d="M612 273.691L612.035 515.202L700.913 515.209V273.691H612ZM656.501 291.328C657.663 291.328 658.784 291.378 659.861 291.48C660.938 291.582 661.972 291.734 662.961 291.938C663.95 292.141 664.9 292.395 665.804 292.696C666.705 293.001 667.565 293.357 668.378 293.763C670.793 294.945 672.906 296.663 674.555 298.787C675.114 299.499 675.624 300.261 676.095 301.074C676.562 301.877 677.003 302.72 677.413 303.605C677.819 304.485 678.202 305.41 678.554 306.372C678.907 307.338 679.232 308.337 679.524 309.381C679.815 310.424 680.079 311.508 680.313 312.629C680.55 313.751 680.754 314.913 680.93 316.115C681.106 317.315 681.251 318.554 681.37 319.838C681.485 321.119 681.573 322.44 681.634 323.802C681.753 326.626 681.753 329.454 681.634 332.278C681.573 333.66 681.485 335.002 681.37 336.306C681.251 337.607 681.106 338.867 680.93 340.087C680.754 341.306 680.546 342.488 680.313 343.627C680.076 344.765 679.818 345.863 679.524 346.919C679.229 347.976 678.907 348.993 678.554 349.968C678.202 350.944 677.823 351.879 677.413 352.773C677.003 353.668 676.562 354.518 676.091 355.331C675.624 356.144 675.114 356.906 674.558 357.618C673.459 359.02 672.159 360.252 670.699 361.273C669.97 361.781 669.198 362.235 668.381 362.642C667.565 363.048 666.705 363.404 665.804 363.709C664.872 364.021 663.921 364.276 662.957 364.471C661.972 364.674 660.938 364.827 659.861 364.928C658.784 365.03 657.663 365.081 656.498 365.081C655.326 365.081 654.198 365.03 653.114 364.928C652.067 364.832 651.027 364.679 649.997 364.471C649.028 364.276 648.072 364.021 647.134 363.709C646.247 363.412 645.381 363.056 644.542 362.642C643.733 362.243 642.954 361.786 642.211 361.273C640.744 360.257 639.439 359.023 638.342 357.614C637.777 356.89 637.264 356.127 636.805 355.331C636.326 354.499 635.884 353.646 635.484 352.773C635.077 351.879 634.695 350.944 634.342 349.968C633.99 348.993 633.668 347.976 633.376 346.919C633.075 345.831 632.811 344.733 632.584 343.627C632.347 342.488 632.143 341.306 631.97 340.087C631.794 338.867 631.646 337.607 631.53 336.306C631.412 335.002 631.327 333.66 631.266 332.275C631.147 329.452 631.147 326.625 631.266 323.802C631.323 322.44 631.412 321.119 631.53 319.838C631.646 318.558 631.794 317.315 631.97 316.112C632.143 314.913 632.35 313.751 632.584 312.629C632.821 311.508 633.082 310.424 633.376 309.381C633.668 308.337 633.99 307.338 634.342 306.372C634.695 305.41 635.077 304.489 635.487 303.605C635.894 302.724 636.335 301.877 636.805 301.074C637.273 300.261 637.787 299.499 638.342 298.787C639.443 297.383 640.747 296.151 642.211 295.132C642.943 294.624 643.722 294.17 644.542 293.763C645.362 293.357 646.226 293.001 647.134 292.696C648.045 292.391 648.998 292.141 649.994 291.938C650.99 291.734 652.03 291.582 653.114 291.48C654.198 291.378 655.326 291.328 656.501 291.328ZM647.005 424.928H665.892V497.576H656.65V433.268H647.005V424.928Z" fill="#34C3FF"/>
<rect x="611.848" y="397.586" width="89.6325" height="117.419" fill="#2EA2D3"/>
</g>
<path d="M505 160V619H808V160.003H505.003L505 160ZM586.212 247.859H726.791V541.016H586.212V247.859Z" fill="url(#paint0_linear_410_4280)"/>
<path d="M565.91 81.2706V89.7477H579.58V97.6279H565.91V106.821H581.371V115H555.701V73.092H581.371V81.2706H565.91ZM601.55 115.478C598.645 115.478 596.058 114.98 593.79 113.985C591.521 112.99 589.73 111.637 588.417 109.926C587.103 108.175 586.367 106.224 586.208 104.075H596.297C596.416 105.229 596.954 106.165 597.909 106.881C598.864 107.597 600.038 107.956 601.431 107.956C602.704 107.956 603.68 107.717 604.356 107.239C605.072 106.722 605.431 106.065 605.431 105.269C605.431 104.314 604.933 103.618 603.938 103.18C602.943 102.702 601.331 102.185 599.103 101.628C596.715 101.07 594.725 100.493 593.133 99.8964C591.541 99.2596 590.168 98.2846 589.014 96.9712C587.86 95.618 587.282 93.8072 587.282 91.5387C587.282 89.6283 587.8 87.8971 588.835 86.345C589.909 84.753 591.461 83.4994 593.491 82.584C595.561 81.6686 598.008 81.2109 600.834 81.2109C605.013 81.2109 608.296 82.2457 610.684 84.3152C613.112 86.3848 614.505 89.1309 614.863 92.5536H605.431C605.271 91.3994 604.754 90.484 603.878 89.8074C603.043 89.1309 601.928 88.7926 600.535 88.7926C599.341 88.7926 598.426 89.0314 597.789 89.509C597.153 89.9467 596.834 90.5636 596.834 91.3596C596.834 92.3148 597.332 93.0311 598.327 93.5087C599.361 93.9863 600.953 94.4639 603.102 94.9415C605.57 95.5782 607.58 96.215 609.132 96.8518C610.684 97.4488 612.037 98.4438 613.191 99.8367C614.385 101.19 615.002 103.021 615.042 105.329C615.042 107.279 614.485 109.03 613.37 110.582C612.296 112.095 610.724 113.289 608.654 114.164C606.625 115.04 604.257 115.478 601.55 115.478ZM639.854 106.344V115H634.66C630.959 115 628.073 114.105 626.004 112.314C623.934 110.483 622.899 107.518 622.899 103.419V90.1656H618.84V81.6885H622.899V73.5696H633.108V81.6885H639.794V90.1656H633.108V103.538C633.108 104.533 633.346 105.249 633.824 105.687C634.302 106.125 635.098 106.344 636.212 106.344H639.854ZM643.51 98.2846C643.51 94.8619 644.147 91.8571 645.42 89.2702C646.734 86.6832 648.505 84.6933 650.733 83.3004C652.962 81.9074 655.45 81.2109 658.196 81.2109C660.544 81.2109 662.593 81.6885 664.345 82.6437C666.136 83.5988 667.509 84.8525 668.464 86.4047V81.6885H678.672V115H668.464V110.284C667.469 111.836 666.076 113.09 664.285 114.045C662.534 115 660.484 115.478 658.136 115.478C655.43 115.478 652.962 114.781 650.733 113.388C648.505 111.955 646.734 109.946 645.42 107.359C644.147 104.732 643.51 101.707 643.51 98.2846ZM668.464 98.3443C668.464 95.7971 667.747 93.7873 666.315 92.3148C664.922 90.8422 663.21 90.1059 661.181 90.1059C659.151 90.1059 657.42 90.8422 655.987 92.3148C654.594 93.7475 653.897 95.7374 653.897 98.2846C653.897 100.832 654.594 102.861 655.987 104.374C657.42 105.846 659.151 106.583 661.181 106.583C663.21 106.583 664.922 105.846 666.315 104.374C667.747 102.901 668.464 100.891 668.464 98.3443ZM684.028 98.2846C684.028 94.8619 684.665 91.8571 685.938 89.2702C687.251 86.6832 689.022 84.6933 691.251 83.3004C693.48 81.9074 695.967 81.2109 698.713 81.2109C700.902 81.2109 702.892 81.6686 704.683 82.584C706.514 83.4994 707.947 84.7331 708.981 86.2853V70.8235H719.19V115H708.981V110.224C708.026 111.816 706.653 113.09 704.862 114.045C703.111 115 701.062 115.478 698.713 115.478C695.967 115.478 693.48 114.781 691.251 113.388C689.022 111.955 687.251 109.946 685.938 107.359C684.665 104.732 684.028 101.707 684.028 98.2846ZM708.981 98.3443C708.981 95.7971 708.265 93.7873 706.832 92.3148C705.439 90.8422 703.728 90.1059 701.698 90.1059C699.669 90.1059 697.937 90.8422 696.505 92.3148C695.112 93.7475 694.415 95.7374 694.415 98.2846C694.415 100.832 695.112 102.861 696.505 104.374C697.937 105.846 699.669 106.583 701.698 106.583C703.728 106.583 705.439 105.846 706.832 104.374C708.265 102.901 708.981 100.891 708.981 98.3443ZM741.738 115.478C738.475 115.478 735.53 114.781 732.903 113.388C730.316 111.995 728.267 110.005 726.754 107.418C725.282 104.831 724.545 101.807 724.545 98.3443C724.545 94.9216 725.302 91.9168 726.814 89.3299C728.326 86.7031 730.396 84.6933 733.023 83.3004C735.649 81.9074 738.594 81.2109 741.858 81.2109C745.121 81.2109 748.066 81.9074 750.693 83.3004C753.32 84.6933 755.389 86.7031 756.902 89.3299C758.414 91.9168 759.17 94.9216 759.17 98.3443C759.17 101.767 758.394 104.792 756.842 107.418C755.33 110.005 753.24 111.995 750.574 113.388C747.947 114.781 745.002 115.478 741.738 115.478ZM741.738 106.642C743.689 106.642 745.34 105.926 746.693 104.493C748.086 103.06 748.783 101.011 748.783 98.3443C748.783 95.6777 748.106 93.6281 746.753 92.1954C745.44 90.7626 743.808 90.0462 741.858 90.0462C739.868 90.0462 738.216 90.7626 736.903 92.1954C735.59 93.5883 734.933 95.6379 734.933 98.3443C734.933 101.011 735.57 103.06 736.843 104.493C738.157 105.926 739.788 106.642 741.738 106.642Z" fill="#1E5C93"/>
<defs>
<linearGradient id="paint0_linear_410_4280" x1="656.5" y1="160" x2="656.5" y2="619" gradientUnits="userSpaceOnUse">
<stop stop-color="#FF7A54"/>
<stop offset="1" stop-color="#ED583E"/>
</linearGradient>
</defs>
</svg>
