<svg width="1280" height="720" viewBox="0 0 1280 720" fill="none" xmlns="http://www.w3.org/2000/svg">
<rect width="1280" height="720" fill="#ECFAFF"/>
<path d="M873.182 90.1709L915.665 102.593L880.653 129.673L873.182 90.1709Z" fill="#E35F61"/>
<path d="M839.792 425.137C841.012 425.397 841.992 426.007 842.732 426.967C843.472 427.907 843.842 428.987 843.842 430.207C843.842 431.967 843.222 433.367 841.982 434.407C840.762 435.427 839.052 435.938 836.852 435.938H827.042V414.877H836.522C838.662 414.877 840.332 415.367 841.532 416.347C842.752 417.327 843.362 418.657 843.362 420.337C843.362 421.577 843.032 422.607 842.372 423.427C841.732 424.247 840.872 424.817 839.792 425.137ZM832.172 423.397H835.532C836.372 423.397 837.012 423.217 837.452 422.857C837.912 422.477 838.142 421.927 838.142 421.207C838.142 420.487 837.912 419.937 837.452 419.557C837.012 419.178 836.372 418.988 835.532 418.988H832.172V423.397ZM835.952 431.797C836.812 431.797 837.472 431.607 837.932 431.227C838.412 430.827 838.652 430.257 838.652 429.517C838.652 428.777 838.402 428.197 837.902 427.777C837.422 427.357 836.752 427.147 835.892 427.147H832.172V431.797H835.952ZM863.347 419.197V435.938H858.217V433.657C857.697 434.397 856.987 434.997 856.087 435.457C855.207 435.897 854.227 436.118 853.147 436.118C851.867 436.118 850.737 435.837 849.757 435.277C848.777 434.697 848.017 433.867 847.477 432.787C846.937 431.707 846.667 430.437 846.667 428.977V419.197H851.767V428.287C851.767 429.407 852.057 430.277 852.637 430.897C853.217 431.517 853.997 431.827 854.977 431.827C855.977 431.827 856.767 431.517 857.347 430.897C857.927 430.277 858.217 429.407 858.217 428.287V419.197H863.347ZM866.012 427.567C866.012 425.827 866.362 424.307 867.062 423.007C867.782 421.707 868.772 420.707 870.032 420.007C871.312 419.307 872.772 418.957 874.412 418.957C876.512 418.957 878.262 419.507 879.662 420.607C881.082 421.707 882.012 423.257 882.452 425.257H876.992C876.532 423.977 875.642 423.337 874.322 423.337C873.382 423.337 872.632 423.707 872.072 424.447C871.512 425.167 871.232 426.207 871.232 427.567C871.232 428.927 871.512 429.977 872.072 430.717C872.632 431.437 873.382 431.797 874.322 431.797C875.642 431.797 876.532 431.157 876.992 429.877H882.452C882.012 431.837 881.082 433.377 879.662 434.497C878.242 435.618 876.492 436.178 874.412 436.178C872.772 436.178 871.312 435.828 870.032 435.127C868.772 434.427 867.782 433.427 867.062 432.127C866.362 430.827 866.012 429.307 866.012 427.567ZM890.326 413.737V435.938H885.196V413.737H890.326ZM909.824 427.297C909.824 427.777 909.794 428.277 909.734 428.797H898.124C898.204 429.837 898.534 430.637 899.114 431.197C899.714 431.737 900.444 432.007 901.304 432.007C902.584 432.007 903.474 431.467 903.974 430.387H909.434C909.154 431.487 908.644 432.477 907.904 433.357C907.184 434.237 906.274 434.927 905.174 435.427C904.074 435.927 902.844 436.178 901.484 436.178C899.844 436.178 898.384 435.828 897.104 435.127C895.824 434.427 894.824 433.427 894.104 432.127C893.384 430.827 893.024 429.307 893.024 427.567C893.024 425.827 893.374 424.307 894.074 423.007C894.794 421.707 895.794 420.707 897.074 420.007C898.354 419.307 899.824 418.957 901.484 418.957C903.104 418.957 904.544 419.297 905.804 419.977C907.064 420.657 908.044 421.627 908.744 422.887C909.464 424.147 909.824 425.617 909.824 427.297ZM904.574 425.947C904.574 425.067 904.274 424.367 903.674 423.847C903.074 423.327 902.324 423.067 901.424 423.067C900.564 423.067 899.834 423.317 899.234 423.817C898.654 424.317 898.294 425.027 898.154 425.947H904.574ZM934.937 421.657C934.937 422.877 934.657 423.997 934.097 425.017C933.537 426.017 932.677 426.827 931.517 427.447C930.357 428.067 928.917 428.377 927.197 428.377H924.017V435.938H918.887V414.877H927.197C928.877 414.877 930.297 415.167 931.457 415.747C932.617 416.327 933.487 417.127 934.067 418.147C934.647 419.167 934.937 420.337 934.937 421.657ZM926.807 424.297C927.787 424.297 928.517 424.067 928.997 423.607C929.477 423.147 929.717 422.497 929.717 421.657C929.717 420.817 929.477 420.167 928.997 419.707C928.517 419.247 927.787 419.017 926.807 419.017H924.017V424.297H926.807ZM942.738 421.987C943.338 421.067 944.088 420.347 944.988 419.827C945.888 419.287 946.888 419.017 947.988 419.017V424.447H946.578C945.298 424.447 944.338 424.727 943.698 425.287C943.058 425.827 942.738 426.787 942.738 428.167V435.938H937.608V419.197H942.738V421.987ZM953.02 417.457C952.12 417.457 951.38 417.197 950.8 416.677C950.24 416.137 949.96 415.477 949.96 414.697C949.96 413.897 950.24 413.237 950.8 412.717C951.38 412.177 952.12 411.907 953.02 411.907C953.9 411.907 954.62 412.177 955.18 412.717C955.76 413.237 956.05 413.897 956.05 414.697C956.05 415.477 955.76 416.137 955.18 416.677C954.62 417.197 953.9 417.457 953.02 417.457ZM955.57 419.197V435.938H950.44V419.197H955.57ZM969.488 419.017C971.448 419.017 973.008 419.657 974.168 420.938C975.348 422.197 975.938 423.937 975.938 426.157V435.938H970.838V426.847C970.838 425.727 970.548 424.857 969.968 424.237C969.388 423.617 968.608 423.307 967.628 423.307C966.648 423.307 965.868 423.617 965.288 424.237C964.708 424.857 964.418 425.727 964.418 426.847V435.938H959.288V419.197H964.418V421.417C964.938 420.677 965.638 420.097 966.518 419.677C967.398 419.237 968.388 419.017 969.488 419.017ZM978.483 427.567C978.483 425.827 978.833 424.307 979.533 423.007C980.253 421.707 981.243 420.707 982.503 420.007C983.783 419.307 985.243 418.957 986.883 418.957C988.983 418.957 990.733 419.507 992.133 420.607C993.553 421.707 994.483 423.257 994.923 425.257H989.463C989.003 423.977 988.113 423.337 986.793 423.337C985.853 423.337 985.103 423.707 984.543 424.447C983.983 425.167 983.703 426.207 983.703 427.567C983.703 428.927 983.983 429.977 984.543 430.717C985.103 431.437 985.853 431.797 986.793 431.797C988.113 431.797 989.003 431.157 989.463 429.877H994.923C994.483 431.837 993.553 433.377 992.133 434.497C990.713 435.618 988.963 436.178 986.883 436.178C985.243 436.178 983.783 435.828 982.503 435.127C981.243 434.427 980.253 433.427 979.533 432.127C978.833 430.827 978.483 429.307 978.483 427.567ZM1000.25 417.457C999.347 417.457 998.607 417.197 998.027 416.677C997.467 416.137 997.187 415.477 997.187 414.697C997.187 413.897 997.467 413.237 998.027 412.717C998.607 412.177 999.347 411.907 1000.25 411.907C1001.13 411.907 1001.85 412.177 1002.41 412.717C1002.99 413.237 1003.28 413.897 1003.28 414.697C1003.28 415.477 1002.99 416.137 1002.41 416.677C1001.85 417.197 1001.13 417.457 1000.25 417.457ZM1002.8 419.197V435.938H997.667V419.197H1002.8ZM1011.64 421.567C1012.14 420.787 1012.83 420.157 1013.71 419.677C1014.59 419.197 1015.62 418.957 1016.8 418.957C1018.18 418.957 1019.43 419.307 1020.55 420.007C1021.67 420.707 1022.55 421.707 1023.19 423.007C1023.85 424.307 1024.18 425.817 1024.18 427.537C1024.18 429.257 1023.85 430.777 1023.19 432.097C1022.55 433.397 1021.67 434.407 1020.55 435.127C1019.43 435.828 1018.18 436.178 1016.8 436.178C1015.64 436.178 1014.61 435.938 1013.71 435.457C1012.83 434.977 1012.14 434.357 1011.64 433.597V443.918H1006.51V419.197H1011.64V421.567ZM1018.96 427.537C1018.96 426.257 1018.6 425.257 1017.88 424.537C1017.18 423.797 1016.31 423.427 1015.27 423.427C1014.25 423.427 1013.38 423.797 1012.66 424.537C1011.96 425.277 1011.61 426.287 1011.61 427.567C1011.61 428.847 1011.96 429.857 1012.66 430.597C1013.38 431.337 1014.25 431.707 1015.27 431.707C1016.29 431.707 1017.16 431.337 1017.88 430.597C1018.6 429.837 1018.96 428.817 1018.96 427.537ZM1025.86 427.537C1025.86 425.817 1026.18 424.307 1026.82 423.007C1027.48 421.707 1028.37 420.707 1029.49 420.007C1030.61 419.307 1031.86 418.957 1033.24 418.957C1034.42 418.957 1035.45 419.197 1036.33 419.677C1037.23 420.157 1037.92 420.787 1038.4 421.567V419.197H1043.53V435.938H1038.4V433.567C1037.9 434.347 1037.2 434.977 1036.3 435.457C1035.42 435.938 1034.39 436.178 1033.21 436.178C1031.85 436.178 1030.61 435.828 1029.49 435.127C1028.37 434.407 1027.48 433.397 1026.82 432.097C1026.18 430.777 1025.86 429.257 1025.86 427.537ZM1038.4 427.567C1038.4 426.287 1038.04 425.277 1037.32 424.537C1036.62 423.797 1035.76 423.427 1034.74 423.427C1033.72 423.427 1032.85 423.797 1032.13 424.537C1031.43 425.257 1031.08 426.257 1031.08 427.537C1031.08 428.817 1031.43 429.837 1032.13 430.597C1032.85 431.337 1033.72 431.707 1034.74 431.707C1035.76 431.707 1036.62 431.337 1037.32 430.597C1038.04 429.857 1038.4 428.847 1038.4 427.567ZM1052.37 413.737V435.938H1047.24V413.737H1052.37Z" fill="#1A3567"/>
<path d="M887.702 454.177V474.938H884.972V459.457L878.072 474.938H876.152L869.222 459.427V474.938H866.492V454.177H869.432L877.112 471.337L884.792 454.177H887.702ZM899.501 475.208C897.961 475.208 896.561 474.858 895.301 474.157C894.061 473.457 893.081 472.467 892.361 471.188C891.661 469.887 891.311 468.387 891.311 466.687C891.311 465.007 891.671 463.527 892.391 462.247C893.131 460.947 894.131 459.957 895.391 459.277C896.651 458.577 898.061 458.227 899.621 458.227C901.181 458.227 902.591 458.577 903.851 459.277C905.111 459.957 906.101 460.937 906.821 462.217C907.561 463.497 907.931 464.987 907.931 466.687C907.931 468.387 907.551 469.887 906.791 471.188C906.051 472.467 905.041 473.457 903.761 474.157C902.481 474.858 901.061 475.208 899.501 475.208ZM899.501 472.807C900.481 472.807 901.401 472.577 902.261 472.117C903.121 471.657 903.811 470.967 904.331 470.047C904.871 469.127 905.141 468.007 905.141 466.687C905.141 465.367 904.881 464.247 904.361 463.327C903.841 462.407 903.161 461.727 902.321 461.287C901.481 460.827 900.571 460.597 899.591 460.597C898.591 460.597 897.671 460.827 896.831 461.287C896.011 461.727 895.351 462.407 894.851 463.327C894.351 464.247 894.101 465.367 894.101 466.687C894.101 468.027 894.341 469.157 894.821 470.077C895.321 470.997 895.981 471.687 896.801 472.147C897.621 472.587 898.521 472.807 899.501 472.807ZM919.531 458.197C921.531 458.197 923.151 458.807 924.391 460.027C925.631 461.227 926.251 462.967 926.251 465.247V474.938H923.551V465.637C923.551 463.997 923.141 462.747 922.321 461.887C921.501 461.007 920.381 460.567 918.961 460.567C917.521 460.567 916.371 461.017 915.511 461.917C914.671 462.817 914.251 464.127 914.251 465.847V474.938H911.521V458.497H914.251V460.837C914.791 459.997 915.521 459.347 916.441 458.887C917.381 458.427 918.411 458.197 919.531 458.197ZM932.12 455.827C931.6 455.827 931.16 455.647 930.8 455.287C930.44 454.927 930.26 454.487 930.26 453.967C930.26 453.447 930.44 453.007 930.8 452.647C931.16 452.287 931.6 452.107 932.12 452.107C932.62 452.107 933.04 452.287 933.38 452.647C933.74 453.007 933.92 453.447 933.92 453.967C933.92 454.487 933.74 454.927 933.38 455.287C933.04 455.647 932.62 455.827 932.12 455.827ZM933.44 458.497V474.938H930.71V458.497H933.44ZM941.423 460.747V470.437C941.423 471.237 941.593 471.807 941.933 472.147C942.273 472.467 942.863 472.627 943.703 472.627H945.713V474.938H943.253C941.733 474.938 940.593 474.587 939.833 473.887C939.073 473.187 938.693 472.037 938.693 470.437V460.747H936.563V458.497H938.693V454.357H941.423V458.497H945.713V460.747H941.423ZM956.191 475.208C954.651 475.208 953.251 474.858 951.991 474.157C950.751 473.457 949.771 472.467 949.051 471.188C948.351 469.887 948.001 468.387 948.001 466.687C948.001 465.007 948.361 463.527 949.081 462.247C949.821 460.947 950.821 459.957 952.081 459.277C953.341 458.577 954.751 458.227 956.311 458.227C957.871 458.227 959.281 458.577 960.541 459.277C961.801 459.957 962.791 460.937 963.511 462.217C964.251 463.497 964.621 464.987 964.621 466.687C964.621 468.387 964.241 469.887 963.481 471.188C962.741 472.467 961.731 473.457 960.451 474.157C959.171 474.858 957.751 475.208 956.191 475.208ZM956.191 472.807C957.171 472.807 958.091 472.577 958.951 472.117C959.811 471.657 960.501 470.967 961.021 470.047C961.561 469.127 961.831 468.007 961.831 466.687C961.831 465.367 961.571 464.247 961.051 463.327C960.531 462.407 959.851 461.727 959.011 461.287C958.171 460.827 957.261 460.597 956.281 460.597C955.281 460.597 954.361 460.827 953.521 461.287C952.701 461.727 952.041 462.407 951.541 463.327C951.041 464.247 950.791 465.367 950.791 466.687C950.791 468.027 951.031 469.157 951.511 470.077C952.011 470.997 952.671 471.687 953.491 472.147C954.311 472.587 955.211 472.807 956.191 472.807ZM970.94 461.167C971.42 460.227 972.1 459.497 972.98 458.977C973.88 458.457 974.97 458.197 976.25 458.197V461.017H975.53C972.47 461.017 970.94 462.677 970.94 465.997V474.938H968.21V458.497H970.94V461.167ZM994.402 466.087C994.402 466.607 994.372 467.157 994.312 467.737H981.172C981.272 469.357 981.822 470.627 982.822 471.547C983.842 472.447 985.072 472.897 986.512 472.897C987.692 472.897 988.672 472.627 989.452 472.087C990.252 471.527 990.812 470.787 991.132 469.867H994.072C993.632 471.447 992.752 472.737 991.432 473.737C990.112 474.717 988.472 475.208 986.512 475.208C984.952 475.208 983.552 474.858 982.312 474.157C981.092 473.457 980.132 472.467 979.432 471.188C978.732 469.887 978.382 468.387 978.382 466.687C978.382 464.987 978.722 463.497 979.402 462.217C980.082 460.937 981.032 459.957 982.252 459.277C983.492 458.577 984.912 458.227 986.512 458.227C988.072 458.227 989.452 458.567 990.652 459.247C991.852 459.927 992.772 460.867 993.412 462.067C994.072 463.247 994.402 464.587 994.402 466.087ZM991.582 465.517C991.582 464.477 991.352 463.587 990.892 462.847C990.432 462.087 989.802 461.517 989.002 461.137C988.222 460.737 987.352 460.537 986.392 460.537C985.012 460.537 983.832 460.977 982.852 461.857C981.892 462.737 981.342 463.957 981.202 465.517H991.582ZM1005.18 475.208C1003.64 475.208 1002.24 474.858 1000.98 474.157C999.735 473.457 998.755 472.467 998.035 471.188C997.335 469.887 996.985 468.387 996.985 466.687C996.985 465.007 997.345 463.527 998.065 462.247C998.805 460.947 999.805 459.957 1001.07 459.277C1002.33 458.577 1003.74 458.227 1005.3 458.227C1006.86 458.227 1008.27 458.577 1009.53 459.277C1010.79 459.957 1011.78 460.937 1012.5 462.217C1013.24 463.497 1013.61 464.987 1013.61 466.687C1013.61 468.387 1013.23 469.887 1012.47 471.188C1011.73 472.467 1010.72 473.457 1009.44 474.157C1008.16 474.858 1006.74 475.208 1005.18 475.208ZM1005.18 472.807C1006.16 472.807 1007.08 472.577 1007.94 472.117C1008.8 471.657 1009.49 470.967 1010.01 470.047C1010.55 469.127 1010.82 468.007 1010.82 466.687C1010.82 465.367 1010.56 464.247 1010.04 463.327C1009.52 462.407 1008.84 461.727 1008 461.287C1007.16 460.827 1006.25 460.597 1005.27 460.597C1004.27 460.597 1003.35 460.827 1002.51 461.287C1001.69 461.727 1001.03 462.407 1000.53 463.327C1000.03 464.247 999.775 465.367 999.775 466.687C999.775 468.027 1000.02 469.157 1000.5 470.077C1001 470.997 1001.66 471.687 1002.48 472.147C1003.3 472.587 1004.2 472.807 1005.18 472.807Z" fill="#1A3567"/>
<path d="M940.182 101.938C1073.28 101.938 1181.18 209.613 1181.18 342.438C1181.18 441.965 1120.6 527.372 1034.23 563.938M898.682 105.49C785.357 125.118 699.182 223.735 699.182 342.438C699.182 475.262 807.081 582.938 940.182 582.938C965.359 582.938 985.682 579.938 1005.18 575.438" stroke="#E35F61" stroke-width="14"/>
<path d="M1063.04 574.715L1019.09 569.436L1049.19 536.975L1063.04 574.715Z" fill="#E35F61"/>
<path fill-rule="evenodd" clip-rule="evenodd" d="M939.682 387.938C915.898 387.938 890.428 377.203 866.017 356.895C847.944 341.861 836.814 326.991 836.35 326.366C835.578 325.327 835.17 324.098 835.182 322.842C835.194 321.586 835.624 320.364 836.415 319.337C836.88 318.734 848.026 304.377 866.106 289.864C890.501 270.285 915.939 259.938 939.682 259.938C963.425 259.938 988.862 270.285 1013.26 289.864C1031.34 304.377 1042.48 318.734 1042.95 319.337C1043.74 320.364 1044.17 321.586 1044.18 322.842C1044.19 324.098 1043.79 325.327 1043.01 326.366C1042.55 326.991 1031.42 341.861 1013.35 356.895C988.936 377.203 963.465 387.938 939.682 387.938ZM850.389 322.959C860.639 335.285 897.37 375.574 939.682 375.574C981.994 375.574 1018.72 335.293 1028.97 322.959C1018.63 310.975 981.961 272.293 939.682 272.293C897.402 272.293 860.729 310.983 850.389 322.959ZM939.682 357.647C919.32 357.647 902.747 342.523 902.747 323.934C902.747 305.344 919.312 290.221 939.682 290.221C960.051 290.221 976.608 305.344 976.608 323.934C976.608 342.523 960.043 357.647 939.682 357.647ZM939.682 302.577C926.784 302.577 916.289 312.158 916.289 323.934C916.289 335.709 926.784 345.291 939.682 345.291C952.58 345.291 963.074 335.709 963.074 323.934C963.074 312.158 952.58 302.577 939.682 302.577Z" fill="#E35F61"/>
<path d="M940.182 329.938C944.048 329.938 947.182 327.251 947.182 323.937C947.182 320.624 944.048 317.938 940.182 317.938C936.316 317.938 933.182 320.624 933.182 323.937C933.182 327.251 936.316 329.938 940.182 329.938Z" fill="#E35F61"/>
<path d="M164.182 235.938L175.682 223.938L239.182 170.438L248.682 161.938H264.182L300.682 202.438L306.682 218.438L292.182 235.938L225.682 294.938L202.682 299.438L175.682 271.938L164.182 248.438V235.938Z" fill="url(#paint0_linear_451_53)"/>
<path d="M171.182 207.438L178.682 203.938L184.682 194.438L196.182 188.438L203.682 175.438L215.682 170.438L220.682 163.438H234.682L245.182 175.438L241.182 188.438L231.182 194.438L234.682 203.938L231.182 214.438H215.682L207.182 218.438L196.182 222.438L189.682 228.938H178.682L166.682 214.438L171.182 207.438Z" fill="#E6C6B0"/>
<path d="M167.182 318.938L231.682 360.438L245.182 323.438L258.182 312.938L279.182 298.938L285.682 276.938L319.682 247.438L305.682 238.938H291.182L266.682 259.438L231.682 290.438L205.682 298.938L167.182 267.438L176.182 307.938L167.182 318.938Z" fill="#E6C6B0"/>
<path d="M587.812 605.877L580.342 626.938H573.922L566.452 605.877H571.912L577.132 621.777L582.382 605.877H587.812ZM588.936 618.537C588.936 616.817 589.256 615.307 589.896 614.007C590.556 612.707 591.446 611.707 592.566 611.007C593.686 610.307 594.936 609.957 596.316 609.957C597.496 609.957 598.526 610.197 599.406 610.677C600.306 611.157 600.996 611.787 601.476 612.567V610.197H606.606V626.938H601.476V624.567C600.976 625.347 600.276 625.977 599.376 626.457C598.496 626.938 597.466 627.178 596.286 627.178C594.926 627.178 593.686 626.828 592.566 626.127C591.446 625.407 590.556 624.397 589.896 623.097C589.256 621.777 588.936 620.257 588.936 618.537ZM601.476 618.567C601.476 617.287 601.116 616.277 600.396 615.537C599.696 614.797 598.836 614.427 597.816 614.427C596.796 614.427 595.926 614.797 595.206 615.537C594.506 616.257 594.156 617.257 594.156 618.537C594.156 619.817 594.506 620.837 595.206 621.597C595.926 622.337 596.796 622.707 597.816 622.707C598.836 622.707 599.696 622.337 600.396 621.597C601.116 620.857 601.476 619.847 601.476 618.567ZM615.447 612.987C616.047 612.067 616.797 611.347 617.697 610.827C618.597 610.287 619.597 610.017 620.697 610.017V615.447H619.287C618.007 615.447 617.047 615.727 616.407 616.287C615.767 616.827 615.447 617.787 615.447 619.167V626.938H610.317V610.197H615.447V612.987ZM625.729 608.457C624.829 608.457 624.089 608.197 623.509 607.677C622.949 607.137 622.669 606.477 622.669 605.697C622.669 604.897 622.949 604.237 623.509 603.717C624.089 603.177 624.829 602.907 625.729 602.907C626.609 602.907 627.329 603.177 627.889 603.717C628.469 604.237 628.759 604.897 628.759 605.697C628.759 606.477 628.469 607.137 627.889 607.677C627.329 608.197 626.609 608.457 625.729 608.457ZM628.279 610.197V626.938H623.149V610.197H628.279ZM630.977 618.537C630.977 616.817 631.297 615.307 631.937 614.007C632.597 612.707 633.487 611.707 634.607 611.007C635.727 610.307 636.977 609.957 638.357 609.957C639.537 609.957 640.567 610.197 641.447 610.677C642.347 611.157 643.037 611.787 643.517 612.567V610.197H648.647V626.938H643.517V624.567C643.017 625.347 642.317 625.977 641.417 626.457C640.537 626.938 639.507 627.178 638.327 627.178C636.967 627.178 635.727 626.828 634.607 626.127C633.487 625.407 632.597 624.397 631.937 623.097C631.297 621.777 630.977 620.257 630.977 618.537ZM643.517 618.567C643.517 617.287 643.157 616.277 642.437 615.537C641.737 614.797 640.877 614.427 639.857 614.427C638.837 614.427 637.967 614.797 637.247 615.537C636.547 616.257 636.197 617.257 636.197 618.537C636.197 619.817 636.547 620.837 637.247 621.597C637.967 622.337 638.837 622.707 639.857 622.707C640.877 622.707 641.737 622.337 642.437 621.597C643.157 620.857 643.517 619.847 643.517 618.567ZM657.488 612.567C657.968 611.787 658.658 611.157 659.558 610.677C660.458 610.197 661.488 609.957 662.648 609.957C664.028 609.957 665.278 610.307 666.398 611.007C667.518 611.707 668.398 612.707 669.038 614.007C669.698 615.307 670.028 616.817 670.028 618.537C670.028 620.257 669.698 621.777 669.038 623.097C668.398 624.397 667.518 625.407 666.398 626.127C665.278 626.828 664.028 627.178 662.648 627.178C661.468 627.178 660.438 626.948 659.558 626.487C658.678 626.007 657.988 625.377 657.488 624.597V626.938H652.358V604.737H657.488V612.567ZM664.808 618.537C664.808 617.257 664.448 616.257 663.728 615.537C663.028 614.797 662.158 614.427 661.118 614.427C660.098 614.427 659.228 614.797 658.508 615.537C657.808 616.277 657.458 617.287 657.458 618.567C657.458 619.847 657.808 620.857 658.508 621.597C659.228 622.337 660.098 622.707 661.118 622.707C662.138 622.707 663.008 622.337 663.728 621.597C664.448 620.837 664.808 619.817 664.808 618.537ZM677.849 604.737V626.938H672.719V604.737H677.849ZM697.347 618.297C697.347 618.777 697.317 619.277 697.257 619.797H685.647C685.727 620.837 686.057 621.637 686.637 622.197C687.237 622.737 687.967 623.007 688.827 623.007C690.107 623.007 690.997 622.467 691.497 621.387H696.957C696.677 622.487 696.167 623.477 695.427 624.357C694.707 625.237 693.797 625.927 692.697 626.427C691.597 626.927 690.367 627.178 689.007 627.178C687.367 627.178 685.907 626.828 684.627 626.127C683.347 625.427 682.347 624.427 681.627 623.127C680.907 621.827 680.547 620.307 680.547 618.567C680.547 616.827 680.897 615.307 681.597 614.007C682.317 612.707 683.317 611.707 684.597 611.007C685.877 610.307 687.347 609.957 689.007 609.957C690.627 609.957 692.067 610.297 693.327 610.977C694.587 611.657 695.567 612.627 696.267 613.887C696.987 615.147 697.347 616.617 697.347 618.297ZM692.097 616.947C692.097 616.067 691.797 615.367 691.197 614.847C690.597 614.327 689.847 614.067 688.947 614.067C688.087 614.067 687.357 614.317 686.757 614.817C686.177 615.317 685.817 616.027 685.677 616.947H692.097Z" fill="#1A3567"/>
<path d="M160.174 397.988V402.247H167.044V406.207H160.174V410.827H167.944V414.938H155.044V393.877H167.944V397.988H160.174ZM178.804 410.137L182.434 398.197H187.894L181.954 414.938H175.624L169.684 398.197H175.174L178.804 410.137ZM205.833 406.297C205.833 406.777 205.803 407.277 205.743 407.797H194.133C194.213 408.837 194.543 409.637 195.123 410.197C195.723 410.737 196.453 411.007 197.313 411.007C198.593 411.007 199.483 410.467 199.983 409.387H205.443C205.163 410.487 204.653 411.477 203.913 412.357C203.193 413.237 202.283 413.927 201.183 414.427C200.083 414.927 198.853 415.178 197.493 415.178C195.853 415.178 194.393 414.828 193.113 414.127C191.833 413.427 190.833 412.427 190.113 411.127C189.393 409.827 189.033 408.307 189.033 406.567C189.033 404.827 189.383 403.307 190.083 402.007C190.803 400.707 191.803 399.707 193.083 399.007C194.363 398.307 195.833 397.957 197.493 397.957C199.113 397.957 200.553 398.297 201.813 398.977C203.073 399.657 204.053 400.627 204.753 401.887C205.473 403.147 205.833 404.617 205.833 406.297ZM200.583 404.947C200.583 404.067 200.283 403.367 199.683 402.847C199.083 402.327 198.333 402.067 197.433 402.067C196.573 402.067 195.843 402.317 195.243 402.817C194.663 403.317 194.303 404.027 194.163 404.947H200.583ZM218.74 398.017C220.7 398.017 222.26 398.657 223.42 399.938C224.6 401.197 225.19 402.937 225.19 405.157V414.938H220.09V405.847C220.09 404.727 219.8 403.857 219.22 403.237C218.64 402.617 217.86 402.307 216.88 402.307C215.9 402.307 215.12 402.617 214.54 403.237C213.96 403.857 213.67 404.727 213.67 405.847V414.938H208.54V398.197H213.67V400.417C214.19 399.677 214.89 399.097 215.77 398.677C216.65 398.237 217.64 398.017 218.74 398.017ZM238.085 410.587V414.938H235.475C233.615 414.938 232.165 414.487 231.125 413.587C230.085 412.667 229.565 411.177 229.565 409.117V402.457H227.525V398.197H229.565V394.117H234.695V398.197H238.055V402.457H234.695V409.177C234.695 409.677 234.815 410.037 235.055 410.257C235.295 410.477 235.695 410.587 236.255 410.587H238.085ZM248.562 415.178C246.922 415.178 245.442 414.828 244.122 414.127C242.822 413.427 241.792 412.427 241.032 411.127C240.292 409.827 239.922 408.307 239.922 406.567C239.922 404.847 240.302 403.337 241.062 402.037C241.822 400.717 242.862 399.707 244.182 399.007C245.502 398.307 246.982 397.957 248.622 397.957C250.262 397.957 251.742 398.307 253.062 399.007C254.382 399.707 255.422 400.717 256.182 402.037C256.942 403.337 257.322 404.847 257.322 406.567C257.322 408.287 256.932 409.807 256.152 411.127C255.392 412.427 254.342 413.427 253.002 414.127C251.682 414.828 250.202 415.178 248.562 415.178ZM248.562 410.737C249.542 410.737 250.372 410.377 251.052 409.657C251.752 408.937 252.102 407.907 252.102 406.567C252.102 405.227 251.762 404.197 251.082 403.477C250.422 402.757 249.602 402.397 248.622 402.397C247.622 402.397 246.792 402.757 246.132 403.477C245.472 404.177 245.142 405.207 245.142 406.567C245.142 407.907 245.462 408.937 246.102 409.657C246.762 410.377 247.582 410.737 248.562 410.737Z" fill="#1A3567"/>
<path d="M131.224 436.027V456.938H128.494V436.027H131.224ZM143.886 440.197C145.886 440.197 147.506 440.807 148.746 442.027C149.986 443.227 150.606 444.967 150.606 447.247V456.938H147.906V447.637C147.906 445.997 147.496 444.747 146.676 443.887C145.856 443.007 144.736 442.567 143.316 442.567C141.876 442.567 140.726 443.017 139.866 443.917C139.026 444.817 138.606 446.127 138.606 447.847V456.938H135.876V440.497H138.606V442.837C139.146 441.997 139.876 441.347 140.796 440.887C141.736 440.427 142.766 440.197 143.886 440.197ZM154.046 448.687C154.046 446.987 154.386 445.507 155.066 444.247C155.746 442.967 156.686 441.977 157.886 441.277C159.106 440.577 160.496 440.227 162.056 440.227C164.076 440.227 165.736 440.717 167.036 441.697C168.356 442.677 169.226 444.037 169.646 445.777H166.706C166.426 444.777 165.876 443.987 165.056 443.407C164.256 442.827 163.256 442.537 162.056 442.537C160.496 442.537 159.236 443.077 158.276 444.157C157.316 445.217 156.836 446.727 156.836 448.687C156.836 450.667 157.316 452.197 158.276 453.277C159.236 454.357 160.496 454.897 162.056 454.897C163.256 454.897 164.256 454.617 165.056 454.057C165.856 453.497 166.406 452.697 166.706 451.657H169.646C169.206 453.337 168.326 454.687 167.006 455.707C165.686 456.707 164.036 457.208 162.056 457.208C160.496 457.208 159.106 456.858 157.886 456.157C156.686 455.457 155.746 454.467 155.066 453.188C154.386 451.907 154.046 450.407 154.046 448.687ZM176.019 434.737V456.938H173.289V434.737H176.019ZM182.081 437.827C181.561 437.827 181.121 437.647 180.761 437.287C180.401 436.927 180.221 436.487 180.221 435.967C180.221 435.447 180.401 435.007 180.761 434.647C181.121 434.287 181.561 434.107 182.081 434.107C182.581 434.107 183.001 434.287 183.341 434.647C183.701 435.007 183.881 435.447 183.881 435.967C183.881 436.487 183.701 436.927 183.341 437.287C183.001 437.647 182.581 437.827 182.081 437.827ZM183.401 440.497V456.938H180.671V440.497H183.401ZM196.064 440.197C198.064 440.197 199.684 440.807 200.924 442.027C202.164 443.227 202.784 444.967 202.784 447.247V456.938H200.084V447.637C200.084 445.997 199.674 444.747 198.854 443.887C198.034 443.007 196.914 442.567 195.494 442.567C194.054 442.567 192.904 443.017 192.044 443.917C191.204 444.817 190.784 446.127 190.784 447.847V456.938H188.054V440.497H190.784V442.837C191.324 441.997 192.054 441.347 192.974 440.887C193.914 440.427 194.944 440.197 196.064 440.197ZM206.224 448.657C206.224 446.977 206.564 445.507 207.244 444.247C207.924 442.967 208.854 441.977 210.034 441.277C211.234 440.577 212.564 440.227 214.024 440.227C215.464 440.227 216.714 440.537 217.774 441.157C218.834 441.777 219.624 442.557 220.144 443.497V440.497H222.904V456.938H220.144V453.877C219.604 454.837 218.794 455.637 217.714 456.277C216.654 456.897 215.414 457.208 213.994 457.208C212.534 457.208 211.214 456.848 210.034 456.127C208.854 455.407 207.924 454.397 207.244 453.097C206.564 451.797 206.224 450.317 206.224 448.657ZM220.144 448.687C220.144 447.447 219.894 446.367 219.394 445.447C218.894 444.527 218.214 443.827 217.354 443.347C216.514 442.847 215.584 442.597 214.564 442.597C213.544 442.597 212.614 442.837 211.774 443.317C210.934 443.797 210.264 444.497 209.764 445.417C209.264 446.337 209.014 447.417 209.014 448.657C209.014 449.917 209.264 451.017 209.764 451.957C210.264 452.877 210.934 453.587 211.774 454.087C212.614 454.567 213.544 454.807 214.564 454.807C215.584 454.807 216.514 454.567 217.354 454.087C218.214 453.587 218.894 452.877 219.394 451.957C219.894 451.017 220.144 449.927 220.144 448.687ZM226.497 448.687C226.497 446.987 226.837 445.507 227.517 444.247C228.197 442.967 229.137 441.977 230.337 441.277C231.557 440.577 232.947 440.227 234.507 440.227C236.527 440.227 238.187 440.717 239.487 441.697C240.807 442.677 241.677 444.037 242.097 445.777H239.157C238.877 444.777 238.327 443.987 237.507 443.407C236.707 442.827 235.707 442.537 234.507 442.537C232.947 442.537 231.687 443.077 230.727 444.157C229.767 445.217 229.287 446.727 229.287 448.687C229.287 450.667 229.767 452.197 230.727 453.277C231.687 454.357 232.947 454.897 234.507 454.897C235.707 454.897 236.707 454.617 237.507 454.057C238.307 453.497 238.857 452.697 239.157 451.657H242.097C241.657 453.337 240.777 454.687 239.457 455.707C238.137 456.707 236.487 457.208 234.507 457.208C232.947 457.208 231.557 456.858 230.337 456.157C229.137 455.457 228.197 454.467 227.517 453.188C226.837 451.907 226.497 450.407 226.497 448.687ZM247.15 437.827C246.63 437.827 246.19 437.647 245.83 437.287C245.47 436.927 245.29 436.487 245.29 435.967C245.29 435.447 245.47 435.007 245.83 434.647C246.19 434.287 246.63 434.107 247.15 434.107C247.65 434.107 248.07 434.287 248.41 434.647C248.77 435.007 248.95 435.447 248.95 435.967C248.95 436.487 248.77 436.927 248.41 437.287C248.07 437.647 247.65 437.827 247.15 437.827ZM248.47 440.497V456.938H245.74V440.497H248.47ZM260.293 457.208C258.753 457.208 257.353 456.858 256.093 456.157C254.853 455.457 253.873 454.467 253.153 453.188C252.453 451.887 252.103 450.387 252.103 448.687C252.103 447.007 252.463 445.527 253.183 444.247C253.923 442.947 254.923 441.957 256.183 441.277C257.443 440.577 258.853 440.227 260.413 440.227C261.973 440.227 263.383 440.577 264.643 441.277C265.903 441.957 266.893 442.937 267.613 444.217C268.353 445.497 268.723 446.987 268.723 448.687C268.723 450.387 268.343 451.887 267.583 453.188C266.843 454.467 265.833 455.457 264.553 456.157C263.273 456.858 261.853 457.208 260.293 457.208ZM260.293 454.807C261.273 454.807 262.193 454.577 263.053 454.117C263.913 453.657 264.603 452.967 265.123 452.047C265.663 451.127 265.933 450.007 265.933 448.687C265.933 447.367 265.673 446.247 265.153 445.327C264.633 444.407 263.953 443.727 263.113 443.287C262.273 442.827 261.363 442.597 260.383 442.597C259.383 442.597 258.463 442.827 257.623 443.287C256.803 443.727 256.143 444.407 255.643 445.327C255.143 446.247 254.893 447.367 254.893 448.687C254.893 450.027 255.133 451.157 255.613 452.077C256.113 452.997 256.773 453.687 257.593 454.147C258.413 454.587 259.313 454.807 260.293 454.807ZM263.353 435.637L256.963 439.057V437.017L263.353 433.267V435.637ZM280.322 440.197C282.322 440.197 283.942 440.807 285.182 442.027C286.422 443.227 287.042 444.967 287.042 447.247V456.938H284.342V447.637C284.342 445.997 283.932 444.747 283.112 443.887C282.292 443.007 281.172 442.567 279.752 442.567C278.312 442.567 277.162 443.017 276.302 443.917C275.462 444.817 275.042 446.127 275.042 447.847V456.938H272.312V440.497H275.042V442.837C275.582 441.997 276.312 441.347 277.232 440.887C278.172 440.427 279.202 440.197 280.322 440.197Z" fill="#1A3567"/>
<path d="M230.982 359.71C235.758 348.15 239.098 329.612 248.912 321.078C260.059 311.386 275.897 301.843 281.756 287.659C284.22 281.668 287.256 276.217 292.236 271.887L316.018 251.208C316.765 250.559 317.224 249.639 317.294 248.652C317.364 247.664 317.04 246.689 316.392 245.941C314.467 243.725 312.124 241.91 309.497 240.6C306.869 239.29 304.01 238.51 301.081 238.306C298.153 238.101 295.213 238.476 292.429 239.408C289.645 240.341 287.073 241.813 284.858 243.74M169.944 263.012L175.775 299.821C176.16 302.251 176.023 304.744 175.376 307.126L172.224 318.634" stroke="#1A3567" stroke-width="10" stroke-linecap="round"/>
<path d="M172.667 226.394C165.783 233.012 162.232 237.978 161.809 243.957C161.182 252.935 167.902 260.663 181.353 276.133C194.805 291.604 201.519 299.325 210.503 299.959C219.488 300.58 227.216 293.86 242.68 280.414L282.044 246.187C297.507 232.741 305.242 226.015 305.869 217.037C306.49 208.053 299.77 200.324 286.324 184.861C272.879 169.397 266.153 161.662 257.175 161.035C251.202 160.618 245.784 163.451 238.274 169.348" stroke="#1A3567" stroke-width="10" stroke-linejoin="round"/>
<path d="M217.44 178.517L225.997 188.358C227.888 190.533 230.566 191.868 233.441 192.068C236.316 192.269 239.153 191.319 241.328 189.428C243.503 187.537 244.838 184.859 245.039 181.984C245.239 179.109 244.29 176.272 242.398 174.097L233.842 164.256C231.95 162.081 229.273 160.746 226.397 160.545C223.522 160.344 220.685 161.294 218.51 163.185C216.335 165.077 215 167.754 214.8 170.63C214.599 173.505 215.549 176.342 217.44 178.517ZM217.44 178.517L231.701 194.919C233.592 197.094 234.542 199.931 234.341 202.806C234.141 205.681 232.806 208.359 230.631 210.25C228.456 212.141 225.619 213.091 222.744 212.89C219.869 212.69 217.191 211.355 215.3 209.18L201.038 192.778M217.44 178.517C215.549 176.342 212.871 175.007 209.996 174.807C207.121 174.606 204.283 175.556 202.108 177.447C199.933 179.338 198.599 182.016 198.398 184.891C198.197 187.766 199.147 190.603 201.038 192.778M201.038 192.778L209.595 202.619C211.486 204.794 212.436 207.631 212.235 210.507C212.035 213.382 210.7 216.06 208.525 217.951C206.35 219.842 203.513 220.792 200.637 220.591C197.762 220.39 195.085 219.056 193.193 216.881L184.637 207.04M201.038 192.778C199.147 190.603 196.469 189.269 193.594 189.068C190.719 188.867 187.882 189.817 185.707 191.708C183.532 193.599 182.197 196.277 181.996 199.152C181.796 202.027 182.745 204.865 184.637 207.04M184.637 207.04L190.341 213.6C192.232 215.775 193.182 218.613 192.981 221.488C192.781 224.363 191.446 227.041 189.271 228.932C187.096 230.823 184.259 231.773 181.384 231.572C178.508 231.371 175.831 230.037 173.939 227.862L168.235 221.301C166.344 219.126 165.394 216.289 165.595 213.414C165.795 210.538 167.13 207.861 169.305 205.969C171.48 204.078 174.317 203.129 177.192 203.329C180.068 203.53 182.745 204.865 184.637 207.04Z" stroke="#1A3567" stroke-width="10" stroke-linecap="round"/>
<path d="M201.036 259.023L201.087 259.082" stroke="#1A3567" stroke-width="10" stroke-linecap="round" stroke-linejoin="round"/>
<path d="M138.823 138.168L138.83 138.171L120.301 177.839L135.327 184.858L153.856 145.19L153.863 145.193C155.715 141.495 158.914 138.648 162.802 137.238L193.683 126.02L198.063 138.078L210.89 110.947L183.638 98.3722L188.018 110.43L157.137 121.643C149.111 124.55 142.538 130.482 138.823 138.168Z" fill="#1A3567"/>
<path d="M156.689 122.467L156.691 122.474L197.468 106.531L203.507 121.976L162.731 137.92L162.734 137.927C158.925 139.538 155.878 142.547 154.221 146.336L141.044 176.434L152.795 181.579L124.897 192.637L114.098 164.634L125.849 169.779L139.022 139.682C142.438 131.859 148.78 125.68 156.689 122.467Z" fill="#1A3567"/>
<path d="M459.399 538.749L501.883 551.171L466.87 578.252L459.399 538.749Z" fill="#1A3567"/>
<path d="M242.024 518.519L249.88 506.824C310.06 547.703 385.223 565.725 462.065 551.41L464.692 565.512C384.136 580.519 305.212 561.512 242.024 518.519Z" fill="#1A3567"/>
<path d="M634.182 575.438L544.682 528.438V442.438L505.182 401.938L535.682 414.938L526.682 389.938L618.682 340.438L634.682 384.438L661.182 337.938L753.682 384.438L742.682 409.938H753.682L728.682 438.438V528.438L634.182 575.438Z" fill="#D0E9FC"/>
<path fill-rule="evenodd" clip-rule="evenodd" d="M767.195 396.943C766.468 395.942 765.406 395.232 764.201 394.941C762.997 394.65 761.728 394.796 760.622 395.353L752.804 399.289L758.067 389.441C758.396 388.828 758.599 388.156 758.663 387.464C758.727 386.772 758.65 386.074 758.438 385.412C758.227 384.749 757.883 384.136 757.43 383.609C756.976 383.082 756.42 382.65 755.796 382.341L663.514 336.495C662.299 335.892 660.896 335.786 659.603 336.199C658.31 336.612 657.23 337.511 656.592 338.705L636.229 376.777L623.487 339.473C623.25 338.764 622.862 338.115 622.35 337.57C621.837 337.026 621.212 336.598 620.518 336.317C619.824 336.036 619.077 335.909 618.329 335.943C617.58 335.977 616.848 336.173 616.183 336.517L523.59 383.675C522.474 384.244 521.6 385.195 521.129 386.354C520.658 387.512 520.621 388.801 521.024 389.985L526.816 406.955L505.716 396.638C504.589 396.076 503.296 395.942 502.076 396.259C500.856 396.576 499.794 397.323 499.084 398.362C498.375 399.401 498.068 400.661 498.219 401.909C498.371 403.157 498.971 404.307 499.908 405.148L537.358 439.251V530.552C537.358 532.533 538.488 534.341 540.273 535.217L632.714 580.405L632.828 580.454C633.081 580.566 633.341 580.657 633.609 580.726C633.7 580.759 633.793 580.789 633.887 580.813C634.629 580.979 635.399 580.979 636.142 580.813L636.431 580.715C636.702 580.644 636.965 580.547 637.217 580.427L637.354 580.378L729.788 533.878C730.65 533.445 731.374 532.782 731.88 531.963C732.386 531.144 732.654 530.201 732.655 529.24V437.792L766.665 403.656C767.538 402.78 768.07 401.624 768.166 400.393C768.262 399.162 767.916 397.937 767.189 396.937L767.195 396.943ZM634.826 474.949L599.369 442.653C599.002 442.321 598.591 442.043 598.146 441.826L570.757 428.433L629.787 398.375V460.119C629.787 461.498 630.336 462.82 631.314 463.795C632.292 464.77 633.618 465.318 635.001 465.318C636.383 465.318 637.709 464.77 638.687 463.795C639.665 462.82 640.215 461.498 640.215 460.119V398.113L698.027 426.838L668.181 441.853C667.68 442.104 667.223 442.435 666.828 442.833L634.831 474.943L634.826 474.949ZM663.405 348.053L746.341 389.266L736.634 407.418L709.65 420.996L642.289 387.53L663.405 348.053ZM540.038 413.417L532.341 390.889L615.566 348.511L628.777 387.22L559.064 422.716L543.101 414.915L540.038 413.423V413.417ZM537.096 423.56L556.814 433.202L592.889 450.841L604.582 461.485L545.531 432.614L533.837 421.965L537.096 423.56ZM547.78 445.294L629.793 485.391V567.399L547.78 527.307V445.294ZM640.22 567.29V485.348L722.233 444.085V526.033L640.22 567.29ZM724.345 431.378L661.38 463.053L673.635 450.749L712.013 431.449L720.055 427.398L736.596 419.08L724.345 431.378Z" fill="#1A3567"/>
<defs>
<linearGradient id="paint0_linear_451_53" x1="164.182" y1="297.932" x2="306.682" y2="163.443" gradientUnits="userSpaceOnUse">
<stop stop-color="#1E5C93"/>
<stop offset="1" stop-color="#76ACD1"/>
</linearGradient>
</defs>
</svg>
