<svg width="1280" height="720" viewBox="0 0 1280 720" fill="none" xmlns="http://www.w3.org/2000/svg">
<g clip-path="url(#clip0_476_84)">
<rect width="1280" height="720" fill="#ECFAFF"/>
<path d="M0.078125 0.207031H1280.06V720.197H0.078125V0.207031Z" fill="url(#paint0_linear_476_84)"/>
<path d="M352.188 309.621L351.174 386.794" stroke="#C3B2B2" stroke-width="30"/>
<rect x="226.369" y="152.105" width="243.256" height="174.566" transform="rotate(-0.531941 226.369 152.105)" fill="url(#paint1_linear_476_84)"/>
<path d="M247.124 646.957C241.711 680.388 229.635 747.238 224.633 747.186" stroke="#B0B0AF" stroke-width="20"/>
<path d="M446.772 649.242L427.729 725.487" stroke="#B0B0AF" stroke-width="20"/>
<rect x="237.096" y="352.121" width="213.688" height="299.716" transform="rotate(-0.133632 237.096 352.121)" fill="url(#paint2_linear_476_84)"/>
<path d="M451.204 384.473L538.085 495.75L659.085 430.254" stroke="url(#paint3_linear_476_84)" stroke-width="20"/>
<circle cx="536.49" cy="496.653" r="27.7795" transform="rotate(-109.318 536.49 496.653)" fill="url(#paint4_linear_476_84)"/>
<circle cx="448.45" cy="376.899" r="27.7795" transform="rotate(-109.318 448.45 376.899)" fill="url(#paint5_linear_476_84)"/>
<path d="M709.593 446.108C713.859 466.617 700.224 486.798 679.137 491.185C658.05 495.571 624.338 474.326 620.072 453.817C615.805 433.308 629.441 413.126 650.528 408.74C691.771 394.703 697.901 405.979 678.633 420.9C693.185 428.065 707.417 435.647 709.593 446.108Z" fill="url(#paint6_linear_476_84)"/>
<path d="M233.872 381.472L112.723 481.964L233.873 563.961" stroke="url(#paint7_linear_476_84)" stroke-width="20"/>
<circle cx="27.7795" cy="27.7795" r="27.7795" transform="matrix(0.330815 -0.943696 -0.943696 -0.330815 122.154 515.77)" fill="url(#paint8_linear_476_84)"/>
<circle cx="27.7795" cy="27.7795" r="27.7795" transform="matrix(0.330815 -0.943696 -0.943696 -0.330815 253.652 409.305)" fill="url(#paint9_linear_476_84)"/>
<circle cx="442.668" cy="647.153" r="27.7795" transform="rotate(-6.09521 442.668 647.153)" fill="url(#paint10_linear_476_84)"/>
<circle cx="246.311" cy="646.817" r="27.7795" transform="rotate(-6.09521 246.311 646.817)" fill="url(#paint11_linear_476_84)"/>
<path d="M260.427 631.165C245.15 645.498 220.819 644.385 206.083 628.677C191.346 612.97 191.9 573.126 207.176 558.793C222.453 544.46 246.784 545.574 261.521 561.281C295.001 589.158 288.575 600.267 265.797 591.605C267.27 607.758 268.219 623.855 260.427 631.165Z" fill="url(#paint12_linear_476_84)"/>
<rect x="191.077" y="188.488" width="36" height="100" transform="rotate(-0.376281 191.077 188.488)" fill="url(#paint13_linear_476_84)"/>
<rect x="470.077" y="188.488" width="36" height="100" transform="rotate(-0.376281 470.077 188.488)" fill="url(#paint14_linear_476_84)"/>
<path d="M407.92 237.6C407.919 241.474 409.45 245.19 412.183 247.931C414.916 250.673 418.624 252.215 422.492 252.22C426.36 252.21 430.069 250.667 432.804 247.927C435.539 245.188 437.08 241.474 437.089 237.6C437.077 233.728 435.536 230.018 432.8 227.282C430.065 224.546 426.357 223.007 422.492 223C418.628 223.007 414.926 224.548 412.194 227.284C409.462 230.021 407.926 233.73 407.92 237.6ZM311 237.6C311.002 241.477 312.54 245.194 315.277 247.935C318.014 250.676 321.727 252.217 325.597 252.22C329.462 252.207 333.164 250.662 335.895 247.922C338.626 245.182 340.166 241.471 340.173 237.6C340.166 233.73 338.627 230.021 335.895 227.284C333.163 224.548 329.461 223.007 325.597 223C321.731 223.007 318.024 224.546 315.288 227.282C312.553 230.018 311.011 233.728 311 237.6Z" fill="#3E3E3E"/>
<mask id="path-20-inside-1_476_84" fill="white">
<path d="M374.003 287.77C380.9 287.765 387.513 285.47 392.39 281.388C397.268 277.307 400.013 271.773 400.021 266H348C348.008 271.773 350.752 277.307 355.63 281.388C360.507 285.47 367.121 287.765 374.018 287.77"/>
</mask>
<path d="M374.003 287.77C380.9 287.765 387.513 285.47 392.39 281.388C397.268 277.307 400.013 271.773 400.021 266H348C348.008 271.773 350.752 277.307 355.63 281.388C360.507 285.47 367.121 287.765 374.018 287.77" fill="#3E3E3E" fill-opacity="0.4"/>
<path d="M400.021 266L404.021 266.006L404.027 262H400.021V266ZM348 266V262H343.994L344 266.006L348 266ZM374.003 287.77L374.006 291.77C381.755 291.764 389.298 289.192 394.957 284.456L392.39 281.388L389.824 278.321C385.727 281.748 380.044 283.766 374 283.77L374.003 287.77ZM392.39 281.388L394.957 284.456C400.637 279.703 404.011 273.091 404.021 266.006L400.021 266L396.021 265.994C396.015 270.455 393.899 274.911 389.824 278.321L392.39 281.388ZM400.021 266V262H348V266V270H400.021V266ZM348 266L344 266.006C344.01 273.09 347.382 279.703 353.063 284.456L355.63 281.388L358.196 278.321C354.121 274.911 352.006 270.455 352 265.994L348 266ZM355.63 281.388L353.063 284.456C358.722 289.192 366.265 291.764 374.015 291.77L374.018 287.77L374.021 283.77C367.976 283.766 362.293 281.748 358.196 278.321L355.63 281.388Z" fill="#3E3E3E" mask="url(#path-20-inside-1_476_84)"/>
<rect x="722" y="45" width="488" height="680" fill="#D99773"/>
<rect x="741" y="295" width="449" height="203" fill="#C08260"/>
<rect x="847" y="343" width="343" height="155" fill="#CB8C6A"/>
<path d="M741 295L847 343V498H741V295Z" fill="#BE765E"/>
<path d="M741 295L847 343V498H741V295Z" fill="#C08260" fill-opacity="0.4"/>
<rect x="741" y="63" width="449" height="203" fill="#C08260"/>
<rect x="847" y="111" width="343" height="155" fill="#CB8C6A"/>
<path d="M741 63L847 111V266H741V63Z" fill="#BE765E"/>
<path d="M741 63L847 111V266H741V63Z" fill="#C08260" fill-opacity="0.4"/>
<rect x="744.037" y="527" width="445.963" height="203" fill="#C08260"/>
<rect x="849.32" y="575" width="340.68" height="155" fill="#CB8C6A"/>
<path d="M744.037 527L849.32 575V730H744.037V527Z" fill="#BE765E"/>
<path d="M744.037 527L849.32 575V730H744.037V527Z" fill="#C08260" fill-opacity="0.4"/>
<path d="M1210 45L1676 234V914L1210 725V45Z" fill="url(#paint15_linear_476_84)"/>
<circle cx="853.768" cy="187.769" r="137.399" transform="rotate(-2.28499 853.768 187.769)" fill="url(#paint16_radial_476_84)"/>
<mask id="mask0_476_84" style="mask-type:alpha" maskUnits="userSpaceOnUse" x="808" y="139" width="113" height="108">
<path fill-rule="evenodd" clip-rule="evenodd" d="M818.049 148.533C831.308 135.594 852.115 137.32 863.188 152.278L864.928 154.629L866.855 152.429C879.115 138.428 899.994 138.411 912.149 152.392C923.657 165.629 922.81 186.291 910.257 198.541L861.163 246.449L861.162 246.449L861.14 246.423L816.156 194.682C804.648 181.445 805.495 160.783 818.049 148.533Z" fill="url(#paint17_linear_476_84)"/>
<path fill-rule="evenodd" clip-rule="evenodd" d="M818.049 148.533C831.308 135.594 852.115 137.32 863.188 152.278L864.928 154.629L866.855 152.429C879.115 138.428 899.994 138.411 912.149 152.392C923.657 165.629 922.81 186.291 910.257 198.541L861.163 246.449L861.162 246.449L861.14 246.423L816.156 194.682C804.648 181.445 805.495 160.783 818.049 148.533Z" fill="#ED5D5D" fill-opacity="0.2"/>
</mask>
<g mask="url(#mask0_476_84)">
<g filter="url(#filter0_di_476_84)">
<path fill-rule="evenodd" clip-rule="evenodd" d="M818.049 148.533C831.308 135.594 852.115 137.32 863.188 152.278L864.928 154.629L866.855 152.429C879.115 138.428 899.994 138.411 912.149 152.392C923.657 165.629 922.81 186.291 910.257 198.541L861.163 246.449L861.162 246.449L861.14 246.423L816.156 194.682C804.648 181.445 805.495 160.783 818.049 148.533Z" fill="url(#paint18_linear_476_84)"/>
<path fill-rule="evenodd" clip-rule="evenodd" d="M818.049 148.533C831.308 135.594 852.115 137.32 863.188 152.278L864.928 154.629L866.855 152.429C879.115 138.428 899.994 138.411 912.149 152.392C923.657 165.629 922.81 186.291 910.257 198.541L861.163 246.449L861.162 246.449L861.14 246.423L816.156 194.682C804.648 181.445 805.495 160.783 818.049 148.533Z" fill="#ED5D5D" fill-opacity="0.2"/>
</g>
</g>
<g filter="url(#filter1_di_476_84)">
<path fill-rule="evenodd" clip-rule="evenodd" d="M817.227 376.678C830.112 363.365 850.96 364.497 862.454 379.133L864.261 381.434L866.124 379.179C877.98 364.834 898.85 364.222 911.399 377.851C923.28 390.754 923.023 411.431 910.824 424.034L863.116 473.323L863.116 473.323L863.093 473.298L816.651 422.861C804.77 409.958 805.028 389.281 817.227 376.678Z" fill="url(#paint19_linear_476_84)"/>
<path d="M867.281 380.135C878.563 366.485 898.367 365.913 910.296 378.867C921.638 391.186 921.392 410.959 909.746 422.992L863.143 471.138L817.755 421.845C806.412 409.527 806.658 389.753 818.304 377.721C830.552 365.068 850.337 366.133 861.275 380.06L863.082 382.36L864.232 383.824L865.418 382.389L867.281 380.135Z" stroke="#3C3C3C" stroke-width="3"/>
</g>
<g filter="url(#filter2_di_476_84)">
<path fill-rule="evenodd" clip-rule="evenodd" d="M1017.23 601.678C1030.11 588.365 1050.96 589.497 1062.45 604.133L1064.26 606.434L1066.12 604.179C1077.98 589.834 1098.85 589.222 1111.4 602.851C1123.28 615.754 1123.02 636.431 1110.82 649.034L1063.12 698.323L1063.12 698.323L1063.09 698.298L1016.65 647.861C1004.77 634.958 1005.03 614.281 1017.23 601.678Z" fill="url(#paint20_linear_476_84)"/>
<path d="M1067.28 605.135C1078.56 591.485 1098.37 590.913 1110.3 603.867C1121.64 616.186 1121.39 635.959 1109.75 647.992L1063.14 696.138L1017.75 646.845C1006.41 634.527 1006.66 614.753 1018.3 602.721C1030.55 590.068 1050.34 591.133 1061.27 605.06L1063.08 607.36L1064.23 608.824L1065.42 607.389L1067.28 605.135Z" stroke="#95282A" stroke-width="3"/>
</g>
<path d="M918.844 221.68C919.332 221.784 919.724 222.028 920.02 222.412C920.316 222.788 920.464 223.22 920.464 223.708C920.464 224.412 920.216 224.972 919.72 225.388C919.232 225.796 918.548 226 917.668 226H913.744V217.576H917.536C918.392 217.576 919.06 217.772 919.54 218.164C920.028 218.556 920.272 219.088 920.272 219.76C920.272 220.256 920.14 220.668 919.876 220.996C919.62 221.324 919.276 221.552 918.844 221.68ZM915.796 220.984H917.14C917.476 220.984 917.732 220.912 917.908 220.768C918.092 220.616 918.184 220.396 918.184 220.108C918.184 219.82 918.092 219.6 917.908 219.448C917.732 219.296 917.476 219.22 917.14 219.22H915.796V220.984ZM917.308 224.344C917.652 224.344 917.916 224.268 918.1 224.116C918.292 223.956 918.388 223.728 918.388 223.432C918.388 223.136 918.288 222.904 918.088 222.736C917.896 222.568 917.628 222.484 917.284 222.484H915.796V224.344H917.308ZM921.246 222.64C921.246 221.952 921.374 221.348 921.63 220.828C921.894 220.308 922.25 219.908 922.698 219.628C923.146 219.348 923.646 219.208 924.198 219.208C924.67 219.208 925.082 219.304 925.434 219.496C925.794 219.688 926.07 219.94 926.262 220.252V219.304H928.314V226H926.262V225.052C926.062 225.364 925.782 225.616 925.422 225.808C925.07 226 924.658 226.096 924.186 226.096C923.642 226.096 923.146 225.956 922.698 225.676C922.25 225.388 921.894 224.984 921.63 224.464C921.374 223.936 921.246 223.328 921.246 222.64ZM926.262 222.652C926.262 222.14 926.118 221.736 925.83 221.44C925.55 221.144 925.206 220.996 924.798 220.996C924.39 220.996 924.042 221.144 923.754 221.44C923.474 221.728 923.334 222.128 923.334 222.64C923.334 223.152 923.474 223.56 923.754 223.864C924.042 224.16 924.39 224.308 924.798 224.308C925.206 224.308 925.55 224.16 925.83 223.864C926.118 223.568 926.262 223.164 926.262 222.652ZM929.391 222.64C929.391 221.952 929.519 221.348 929.775 220.828C930.039 220.308 930.395 219.908 930.843 219.628C931.291 219.348 931.791 219.208 932.343 219.208C932.783 219.208 933.183 219.3 933.543 219.484C933.911 219.668 934.199 219.916 934.407 220.228V217.12H936.459V226H934.407V225.04C934.215 225.36 933.939 225.616 933.579 225.808C933.227 226 932.815 226.096 932.343 226.096C931.791 226.096 931.291 225.956 930.843 225.676C930.395 225.388 930.039 224.984 929.775 224.464C929.519 223.936 929.391 223.328 929.391 222.64ZM934.407 222.652C934.407 222.14 934.263 221.736 933.975 221.44C933.695 221.144 933.351 220.996 932.943 220.996C932.535 220.996 932.187 221.144 931.899 221.44C931.619 221.728 931.479 222.128 931.479 222.64C931.479 223.152 931.619 223.56 931.899 223.864C932.187 224.16 932.535 224.308 932.943 224.308C933.351 224.308 933.695 224.16 933.975 223.864C934.263 223.568 934.407 223.164 934.407 222.652ZM944.555 219.304V226H942.503V225.088C942.295 225.384 942.011 225.624 941.651 225.808C941.299 225.984 940.907 226.072 940.475 226.072C939.963 226.072 939.511 225.96 939.119 225.736C938.727 225.504 938.423 225.172 938.207 224.74C937.991 224.308 937.883 223.8 937.883 223.216V219.304H939.923V222.94C939.923 223.388 940.039 223.736 940.271 223.984C940.503 224.232 940.815 224.356 941.207 224.356C941.607 224.356 941.923 224.232 942.155 223.984C942.387 223.736 942.503 223.388 942.503 222.94V219.304H944.555ZM954.573 219.232C955.405 219.232 956.065 219.484 956.553 219.988C957.049 220.492 957.297 221.192 957.297 222.088V226H955.257V222.364C955.257 221.932 955.141 221.6 954.909 221.368C954.685 221.128 954.373 221.008 953.973 221.008C953.573 221.008 953.257 221.128 953.025 221.368C952.801 221.6 952.689 221.932 952.689 222.364V226H950.649V222.364C950.649 221.932 950.533 221.6 950.301 221.368C950.077 221.128 949.765 221.008 949.365 221.008C948.965 221.008 948.649 221.128 948.417 221.368C948.193 221.6 948.081 221.932 948.081 222.364V226H946.029V219.304H948.081V220.144C948.289 219.864 948.561 219.644 948.897 219.484C949.233 219.316 949.613 219.232 950.037 219.232C950.541 219.232 950.989 219.34 951.381 219.556C951.781 219.772 952.093 220.08 952.317 220.48C952.549 220.112 952.865 219.812 953.265 219.58C953.665 219.348 954.101 219.232 954.573 219.232Z" fill="white"/>
<path d="M903.844 239.68C904.332 239.784 904.724 240.028 905.02 240.412C905.316 240.788 905.464 241.22 905.464 241.708C905.464 242.412 905.216 242.972 904.72 243.388C904.232 243.796 903.548 244 902.668 244H898.744V235.576H902.536C903.392 235.576 904.06 235.772 904.54 236.164C905.028 236.556 905.272 237.088 905.272 237.76C905.272 238.256 905.14 238.668 904.876 238.996C904.62 239.324 904.276 239.552 903.844 239.68ZM900.796 238.984H902.14C902.476 238.984 902.732 238.912 902.908 238.768C903.092 238.616 903.184 238.396 903.184 238.108C903.184 237.82 903.092 237.6 902.908 237.448C902.732 237.296 902.476 237.22 902.14 237.22H900.796V238.984ZM902.308 242.344C902.652 242.344 902.916 242.268 903.1 242.116C903.292 241.956 903.388 241.728 903.388 241.432C903.388 241.136 903.288 240.904 903.088 240.736C902.896 240.568 902.628 240.484 902.284 240.484H900.796V242.344H902.308ZM906.246 240.64C906.246 239.952 906.374 239.348 906.63 238.828C906.894 238.308 907.25 237.908 907.698 237.628C908.146 237.348 908.646 237.208 909.198 237.208C909.67 237.208 910.082 237.304 910.434 237.496C910.794 237.688 911.07 237.94 911.262 238.252V237.304H913.314V244H911.262V243.052C911.062 243.364 910.782 243.616 910.422 243.808C910.07 244 909.658 244.096 909.186 244.096C908.642 244.096 908.146 243.956 907.698 243.676C907.25 243.388 906.894 242.984 906.63 242.464C906.374 241.936 906.246 241.328 906.246 240.64ZM911.262 240.652C911.262 240.14 911.118 239.736 910.83 239.44C910.55 239.144 910.206 238.996 909.798 238.996C909.39 238.996 909.042 239.144 908.754 239.44C908.474 239.728 908.334 240.128 908.334 240.64C908.334 241.152 908.474 241.56 908.754 241.864C909.042 242.16 909.39 242.308 909.798 242.308C910.206 242.308 910.55 242.16 910.83 241.864C911.118 241.568 911.262 241.164 911.262 240.652ZM914.391 240.64C914.391 239.952 914.519 239.348 914.775 238.828C915.039 238.308 915.395 237.908 915.843 237.628C916.291 237.348 916.791 237.208 917.343 237.208C917.783 237.208 918.183 237.3 918.543 237.484C918.911 237.668 919.199 237.916 919.407 238.228V235.12H921.459V244H919.407V243.04C919.215 243.36 918.939 243.616 918.579 243.808C918.227 244 917.815 244.096 917.343 244.096C916.791 244.096 916.291 243.956 915.843 243.676C915.395 243.388 915.039 242.984 914.775 242.464C914.519 241.936 914.391 241.328 914.391 240.64ZM919.407 240.652C919.407 240.14 919.263 239.736 918.975 239.44C918.695 239.144 918.351 238.996 917.943 238.996C917.535 238.996 917.187 239.144 916.899 239.44C916.619 239.728 916.479 240.128 916.479 240.64C916.479 241.152 916.619 241.56 916.899 241.864C917.187 242.16 917.535 242.308 917.943 242.308C918.351 242.308 918.695 242.16 918.975 241.864C919.263 241.568 919.407 241.164 919.407 240.652ZM929.555 237.304V244H927.503V243.088C927.295 243.384 927.011 243.624 926.651 243.808C926.299 243.984 925.907 244.072 925.475 244.072C924.963 244.072 924.511 243.96 924.119 243.736C923.727 243.504 923.423 243.172 923.207 242.74C922.991 242.308 922.883 241.8 922.883 241.216V237.304H924.923V240.94C924.923 241.388 925.039 241.736 925.271 241.984C925.503 242.232 925.815 242.356 926.207 242.356C926.607 242.356 926.923 242.232 927.155 241.984C927.387 241.736 927.503 241.388 927.503 240.94V237.304H929.555ZM939.573 237.232C940.405 237.232 941.065 237.484 941.553 237.988C942.049 238.492 942.297 239.192 942.297 240.088V244H940.257V240.364C940.257 239.932 940.141 239.6 939.909 239.368C939.685 239.128 939.373 239.008 938.973 239.008C938.573 239.008 938.257 239.128 938.025 239.368C937.801 239.6 937.689 239.932 937.689 240.364V244H935.649V240.364C935.649 239.932 935.533 239.6 935.301 239.368C935.077 239.128 934.765 239.008 934.365 239.008C933.965 239.008 933.649 239.128 933.417 239.368C933.193 239.6 933.081 239.932 933.081 240.364V244H931.029V237.304H933.081V238.144C933.289 237.864 933.561 237.644 933.897 237.484C934.233 237.316 934.613 237.232 935.037 237.232C935.541 237.232 935.989 237.34 936.381 237.556C936.781 237.772 937.093 238.08 937.317 238.48C937.549 238.112 937.865 237.812 938.265 237.58C938.665 237.348 939.101 237.232 939.573 237.232Z" fill="white"/>
<path d="M918.844 671.68C919.332 671.784 919.724 672.028 920.02 672.412C920.316 672.788 920.464 673.22 920.464 673.708C920.464 674.412 920.216 674.972 919.72 675.388C919.232 675.796 918.548 676 917.668 676H913.744V667.576H917.536C918.392 667.576 919.06 667.772 919.54 668.164C920.028 668.556 920.272 669.088 920.272 669.76C920.272 670.256 920.14 670.668 919.876 670.996C919.62 671.324 919.276 671.552 918.844 671.68ZM915.796 670.984H917.14C917.476 670.984 917.732 670.912 917.908 670.768C918.092 670.616 918.184 670.396 918.184 670.108C918.184 669.82 918.092 669.6 917.908 669.448C917.732 669.296 917.476 669.22 917.14 669.22H915.796V670.984ZM917.308 674.344C917.652 674.344 917.916 674.268 918.1 674.116C918.292 673.956 918.388 673.728 918.388 673.432C918.388 673.136 918.288 672.904 918.088 672.736C917.896 672.568 917.628 672.484 917.284 672.484H915.796V674.344H917.308ZM921.246 672.64C921.246 671.952 921.374 671.348 921.63 670.828C921.894 670.308 922.25 669.908 922.698 669.628C923.146 669.348 923.646 669.208 924.198 669.208C924.67 669.208 925.082 669.304 925.434 669.496C925.794 669.688 926.07 669.94 926.262 670.252V669.304H928.314V676H926.262V675.052C926.062 675.364 925.782 675.616 925.422 675.808C925.07 676 924.658 676.096 924.186 676.096C923.642 676.096 923.146 675.956 922.698 675.676C922.25 675.388 921.894 674.984 921.63 674.464C921.374 673.936 921.246 673.328 921.246 672.64ZM926.262 672.652C926.262 672.14 926.118 671.736 925.83 671.44C925.55 671.144 925.206 670.996 924.798 670.996C924.39 670.996 924.042 671.144 923.754 671.44C923.474 671.728 923.334 672.128 923.334 672.64C923.334 673.152 923.474 673.56 923.754 673.864C924.042 674.16 924.39 674.308 924.798 674.308C925.206 674.308 925.55 674.16 925.83 673.864C926.118 673.568 926.262 673.164 926.262 672.652ZM929.391 672.64C929.391 671.952 929.519 671.348 929.775 670.828C930.039 670.308 930.395 669.908 930.843 669.628C931.291 669.348 931.791 669.208 932.343 669.208C932.783 669.208 933.183 669.3 933.543 669.484C933.911 669.668 934.199 669.916 934.407 670.228V667.12H936.459V676H934.407V675.04C934.215 675.36 933.939 675.616 933.579 675.808C933.227 676 932.815 676.096 932.343 676.096C931.791 676.096 931.291 675.956 930.843 675.676C930.395 675.388 930.039 674.984 929.775 674.464C929.519 673.936 929.391 673.328 929.391 672.64ZM934.407 672.652C934.407 672.14 934.263 671.736 933.975 671.44C933.695 671.144 933.351 670.996 932.943 670.996C932.535 670.996 932.187 671.144 931.899 671.44C931.619 671.728 931.479 672.128 931.479 672.64C931.479 673.152 931.619 673.56 931.899 673.864C932.187 674.16 932.535 674.308 932.943 674.308C933.351 674.308 933.695 674.16 933.975 673.864C934.263 673.568 934.407 673.164 934.407 672.652ZM944.555 669.304V676H942.503V675.088C942.295 675.384 942.011 675.624 941.651 675.808C941.299 675.984 940.907 676.072 940.475 676.072C939.963 676.072 939.511 675.96 939.119 675.736C938.727 675.504 938.423 675.172 938.207 674.74C937.991 674.308 937.883 673.8 937.883 673.216V669.304H939.923V672.94C939.923 673.388 940.039 673.736 940.271 673.984C940.503 674.232 940.815 674.356 941.207 674.356C941.607 674.356 941.923 674.232 942.155 673.984C942.387 673.736 942.503 673.388 942.503 672.94V669.304H944.555ZM954.573 669.232C955.405 669.232 956.065 669.484 956.553 669.988C957.049 670.492 957.297 671.192 957.297 672.088V676H955.257V672.364C955.257 671.932 955.141 671.6 954.909 671.368C954.685 671.128 954.373 671.008 953.973 671.008C953.573 671.008 953.257 671.128 953.025 671.368C952.801 671.6 952.689 671.932 952.689 672.364V676H950.649V672.364C950.649 671.932 950.533 671.6 950.301 671.368C950.077 671.128 949.765 671.008 949.365 671.008C948.965 671.008 948.649 671.128 948.417 671.368C948.193 671.6 948.081 671.932 948.081 672.364V676H946.029V669.304H948.081V670.144C948.289 669.864 948.561 669.644 948.897 669.484C949.233 669.316 949.613 669.232 950.037 669.232C950.541 669.232 950.989 669.34 951.381 669.556C951.781 669.772 952.093 670.08 952.317 670.48C952.549 670.112 952.865 669.812 953.265 669.58C953.665 669.348 954.101 669.232 954.573 669.232Z" fill="white"/>
<path d="M903.844 689.68C904.332 689.784 904.724 690.028 905.02 690.412C905.316 690.788 905.464 691.22 905.464 691.708C905.464 692.412 905.216 692.972 904.72 693.388C904.232 693.796 903.548 694 902.668 694H898.744V685.576H902.536C903.392 685.576 904.06 685.772 904.54 686.164C905.028 686.556 905.272 687.088 905.272 687.76C905.272 688.256 905.14 688.668 904.876 688.996C904.62 689.324 904.276 689.552 903.844 689.68ZM900.796 688.984H902.14C902.476 688.984 902.732 688.912 902.908 688.768C903.092 688.616 903.184 688.396 903.184 688.108C903.184 687.82 903.092 687.6 902.908 687.448C902.732 687.296 902.476 687.22 902.14 687.22H900.796V688.984ZM902.308 692.344C902.652 692.344 902.916 692.268 903.1 692.116C903.292 691.956 903.388 691.728 903.388 691.432C903.388 691.136 903.288 690.904 903.088 690.736C902.896 690.568 902.628 690.484 902.284 690.484H900.796V692.344H902.308ZM906.246 690.64C906.246 689.952 906.374 689.348 906.63 688.828C906.894 688.308 907.25 687.908 907.698 687.628C908.146 687.348 908.646 687.208 909.198 687.208C909.67 687.208 910.082 687.304 910.434 687.496C910.794 687.688 911.07 687.94 911.262 688.252V687.304H913.314V694H911.262V693.052C911.062 693.364 910.782 693.616 910.422 693.808C910.07 694 909.658 694.096 909.186 694.096C908.642 694.096 908.146 693.956 907.698 693.676C907.25 693.388 906.894 692.984 906.63 692.464C906.374 691.936 906.246 691.328 906.246 690.64ZM911.262 690.652C911.262 690.14 911.118 689.736 910.83 689.44C910.55 689.144 910.206 688.996 909.798 688.996C909.39 688.996 909.042 689.144 908.754 689.44C908.474 689.728 908.334 690.128 908.334 690.64C908.334 691.152 908.474 691.56 908.754 691.864C909.042 692.16 909.39 692.308 909.798 692.308C910.206 692.308 910.55 692.16 910.83 691.864C911.118 691.568 911.262 691.164 911.262 690.652ZM914.391 690.64C914.391 689.952 914.519 689.348 914.775 688.828C915.039 688.308 915.395 687.908 915.843 687.628C916.291 687.348 916.791 687.208 917.343 687.208C917.783 687.208 918.183 687.3 918.543 687.484C918.911 687.668 919.199 687.916 919.407 688.228V685.12H921.459V694H919.407V693.04C919.215 693.36 918.939 693.616 918.579 693.808C918.227 694 917.815 694.096 917.343 694.096C916.791 694.096 916.291 693.956 915.843 693.676C915.395 693.388 915.039 692.984 914.775 692.464C914.519 691.936 914.391 691.328 914.391 690.64ZM919.407 690.652C919.407 690.14 919.263 689.736 918.975 689.44C918.695 689.144 918.351 688.996 917.943 688.996C917.535 688.996 917.187 689.144 916.899 689.44C916.619 689.728 916.479 690.128 916.479 690.64C916.479 691.152 916.619 691.56 916.899 691.864C917.187 692.16 917.535 692.308 917.943 692.308C918.351 692.308 918.695 692.16 918.975 691.864C919.263 691.568 919.407 691.164 919.407 690.652ZM929.555 687.304V694H927.503V693.088C927.295 693.384 927.011 693.624 926.651 693.808C926.299 693.984 925.907 694.072 925.475 694.072C924.963 694.072 924.511 693.96 924.119 693.736C923.727 693.504 923.423 693.172 923.207 692.74C922.991 692.308 922.883 691.8 922.883 691.216V687.304H924.923V690.94C924.923 691.388 925.039 691.736 925.271 691.984C925.503 692.232 925.815 692.356 926.207 692.356C926.607 692.356 926.923 692.232 927.155 691.984C927.387 691.736 927.503 691.388 927.503 690.94V687.304H929.555ZM939.573 687.232C940.405 687.232 941.065 687.484 941.553 687.988C942.049 688.492 942.297 689.192 942.297 690.088V694H940.257V690.364C940.257 689.932 940.141 689.6 939.909 689.368C939.685 689.128 939.373 689.008 938.973 689.008C938.573 689.008 938.257 689.128 938.025 689.368C937.801 689.6 937.689 689.932 937.689 690.364V694H935.649V690.364C935.649 689.932 935.533 689.6 935.301 689.368C935.077 689.128 934.765 689.008 934.365 689.008C933.965 689.008 933.649 689.128 933.417 689.368C933.193 689.6 933.081 689.932 933.081 690.364V694H931.029V687.304H933.081V688.144C933.289 687.864 933.561 687.644 933.897 687.484C934.233 687.316 934.613 687.232 935.037 687.232C935.541 687.232 935.989 687.34 936.381 687.556C936.781 687.772 937.093 688.08 937.317 688.48C937.549 688.112 937.865 687.812 938.265 687.58C938.665 687.348 939.101 687.232 939.573 687.232Z" fill="white"/>
<path d="M789.9 356.576C790.788 356.576 791.564 356.752 792.228 357.104C792.892 357.456 793.404 357.952 793.764 358.592C794.132 359.224 794.316 359.956 794.316 360.788C794.316 361.612 794.132 362.344 793.764 362.984C793.404 363.624 792.888 364.12 792.216 364.472C791.552 364.824 790.78 365 789.9 365H786.744V356.576H789.9ZM789.768 363.224C790.544 363.224 791.148 363.012 791.58 362.588C792.012 362.164 792.228 361.564 792.228 360.788C792.228 360.012 792.012 359.408 791.58 358.976C791.148 358.544 790.544 358.328 789.768 358.328H788.796V363.224H789.768ZM802.075 358.304V365H800.023V364.088C799.815 364.384 799.531 364.624 799.171 364.808C798.819 364.984 798.427 365.072 797.995 365.072C797.483 365.072 797.031 364.96 796.639 364.736C796.247 364.504 795.943 364.172 795.727 363.74C795.511 363.308 795.403 362.8 795.403 362.216V358.304H797.443V361.94C797.443 362.388 797.559 362.736 797.791 362.984C798.023 363.232 798.335 363.356 798.727 363.356C799.127 363.356 799.443 363.232 799.675 362.984C799.907 362.736 800.023 362.388 800.023 361.94V358.304H802.075ZM812.093 358.232C812.925 358.232 813.585 358.484 814.073 358.988C814.569 359.492 814.817 360.192 814.817 361.088V365H812.777V361.364C812.777 360.932 812.661 360.6 812.429 360.368C812.205 360.128 811.893 360.008 811.493 360.008C811.093 360.008 810.777 360.128 810.545 360.368C810.321 360.6 810.209 360.932 810.209 361.364V365H808.169V361.364C808.169 360.932 808.053 360.6 807.821 360.368C807.597 360.128 807.285 360.008 806.885 360.008C806.485 360.008 806.169 360.128 805.937 360.368C805.713 360.6 805.601 360.932 805.601 361.364V365H803.549V358.304H805.601V359.144C805.809 358.864 806.081 358.644 806.417 358.484C806.753 358.316 807.133 358.232 807.557 358.232C808.061 358.232 808.509 358.34 808.901 358.556C809.301 358.772 809.613 359.08 809.837 359.48C810.069 359.112 810.385 358.812 810.785 358.58C811.185 358.348 811.621 358.232 812.093 358.232Z" fill="white"/>
<path d="M774.9 374.576C775.788 374.576 776.564 374.752 777.228 375.104C777.892 375.456 778.404 375.952 778.764 376.592C779.132 377.224 779.316 377.956 779.316 378.788C779.316 379.612 779.132 380.344 778.764 380.984C778.404 381.624 777.888 382.12 777.216 382.472C776.552 382.824 775.78 383 774.9 383H771.744V374.576H774.9ZM774.768 381.224C775.544 381.224 776.148 381.012 776.58 380.588C777.012 380.164 777.228 379.564 777.228 378.788C777.228 378.012 777.012 377.408 776.58 376.976C776.148 376.544 775.544 376.328 774.768 376.328H773.796V381.224H774.768ZM787.075 376.304V383H785.023V382.088C784.815 382.384 784.531 382.624 784.171 382.808C783.819 382.984 783.427 383.072 782.995 383.072C782.483 383.072 782.031 382.96 781.639 382.736C781.247 382.504 780.943 382.172 780.727 381.74C780.511 381.308 780.403 380.8 780.403 380.216V376.304H782.443V379.94C782.443 380.388 782.559 380.736 782.791 380.984C783.023 381.232 783.335 381.356 783.727 381.356C784.127 381.356 784.443 381.232 784.675 380.984C784.907 380.736 785.023 380.388 785.023 379.94V376.304H787.075ZM797.093 376.232C797.925 376.232 798.585 376.484 799.073 376.988C799.569 377.492 799.817 378.192 799.817 379.088V383H797.777V379.364C797.777 378.932 797.661 378.6 797.429 378.368C797.205 378.128 796.893 378.008 796.493 378.008C796.093 378.008 795.777 378.128 795.545 378.368C795.321 378.6 795.209 378.932 795.209 379.364V383H793.169V379.364C793.169 378.932 793.053 378.6 792.821 378.368C792.597 378.128 792.285 378.008 791.885 378.008C791.485 378.008 791.169 378.128 790.937 378.368C790.713 378.6 790.601 378.932 790.601 379.364V383H788.549V376.304H790.601V377.144C790.809 376.864 791.081 376.644 791.417 376.484C791.753 376.316 792.133 376.232 792.557 376.232C793.061 376.232 793.509 376.34 793.901 376.556C794.301 376.772 794.613 377.08 794.837 377.48C795.069 377.112 795.385 376.812 795.785 376.58C796.185 376.348 796.621 376.232 797.093 376.232Z" fill="white"/>
<path d="M1145.47 391.096C1144.88 391.096 1144.36 390.996 1143.91 390.796C1143.45 390.596 1143.09 390.324 1142.83 389.98C1142.56 389.628 1142.42 389.236 1142.38 388.804H1144.41C1144.44 389.036 1144.54 389.224 1144.74 389.368C1144.93 389.512 1145.16 389.584 1145.44 389.584C1145.7 389.584 1145.9 389.536 1146.03 389.44C1146.18 389.336 1146.25 389.204 1146.25 389.044C1146.25 388.852 1146.15 388.712 1145.95 388.624C1145.75 388.528 1145.42 388.424 1144.98 388.312C1144.5 388.2 1144.1 388.084 1143.78 387.964C1143.46 387.836 1143.18 387.64 1142.95 387.376C1142.72 387.104 1142.6 386.74 1142.6 386.284C1142.6 385.9 1142.7 385.552 1142.91 385.24C1143.13 384.92 1143.44 384.668 1143.85 384.484C1144.26 384.3 1144.76 384.208 1145.32 384.208C1146.16 384.208 1146.82 384.416 1147.3 384.832C1147.79 385.248 1148.07 385.8 1148.14 386.488H1146.25C1146.22 386.256 1146.11 386.072 1145.94 385.936C1145.77 385.8 1145.54 385.732 1145.26 385.732C1145.02 385.732 1144.84 385.78 1144.71 385.876C1144.58 385.964 1144.52 386.088 1144.52 386.248C1144.52 386.44 1144.62 386.584 1144.82 386.68C1145.03 386.776 1145.35 386.872 1145.78 386.968C1146.28 387.096 1146.68 387.224 1146.99 387.352C1147.3 387.472 1147.58 387.672 1147.81 387.952C1148.05 388.224 1148.17 388.592 1148.18 389.056C1148.18 389.448 1148.07 389.8 1147.84 390.112C1147.63 390.416 1147.31 390.656 1146.9 390.832C1146.49 391.008 1146.01 391.096 1145.47 391.096ZM1153.55 384.232C1154.32 384.232 1154.94 384.488 1155.4 385C1155.86 385.504 1156.1 386.2 1156.1 387.088V391H1154.06V387.364C1154.06 386.916 1153.94 386.568 1153.71 386.32C1153.48 386.072 1153.16 385.948 1152.77 385.948C1152.38 385.948 1152.07 386.072 1151.84 386.32C1151.6 386.568 1151.49 386.916 1151.49 387.364V391H1149.44V382.12H1151.49V385.204C1151.7 384.908 1151.98 384.672 1152.34 384.496C1152.7 384.32 1153.1 384.232 1153.55 384.232ZM1161.64 384.232C1162.41 384.232 1163.02 384.488 1163.49 385C1163.95 385.504 1164.18 386.2 1164.18 387.088V391H1162.14V387.364C1162.14 386.916 1162.03 386.568 1161.79 386.32C1161.56 386.072 1161.25 385.948 1160.86 385.948C1160.47 385.948 1160.15 386.072 1159.92 386.32C1159.69 386.568 1159.57 386.916 1159.57 387.364V391H1157.52V382.12H1159.57V385.204C1159.78 384.908 1160.07 384.672 1160.43 384.496C1160.79 384.32 1161.19 384.232 1161.64 384.232Z" fill="white"/>
<path d="M1130.47 373.096C1129.88 373.096 1129.36 372.996 1128.91 372.796C1128.45 372.596 1128.09 372.324 1127.83 371.98C1127.56 371.628 1127.42 371.236 1127.38 370.804H1129.41C1129.44 371.036 1129.54 371.224 1129.74 371.368C1129.93 371.512 1130.16 371.584 1130.44 371.584C1130.7 371.584 1130.9 371.536 1131.03 371.44C1131.18 371.336 1131.25 371.204 1131.25 371.044C1131.25 370.852 1131.15 370.712 1130.95 370.624C1130.75 370.528 1130.42 370.424 1129.98 370.312C1129.5 370.2 1129.1 370.084 1128.78 369.964C1128.46 369.836 1128.18 369.64 1127.95 369.376C1127.72 369.104 1127.6 368.74 1127.6 368.284C1127.6 367.9 1127.7 367.552 1127.91 367.24C1128.13 366.92 1128.44 366.668 1128.85 366.484C1129.26 366.3 1129.76 366.208 1130.32 366.208C1131.16 366.208 1131.82 366.416 1132.3 366.832C1132.79 367.248 1133.07 367.8 1133.14 368.488H1131.25C1131.22 368.256 1131.11 368.072 1130.94 367.936C1130.77 367.8 1130.54 367.732 1130.26 367.732C1130.02 367.732 1129.84 367.78 1129.71 367.876C1129.58 367.964 1129.52 368.088 1129.52 368.248C1129.52 368.44 1129.62 368.584 1129.82 368.68C1130.03 368.776 1130.35 368.872 1130.78 368.968C1131.28 369.096 1131.68 369.224 1131.99 369.352C1132.3 369.472 1132.58 369.672 1132.81 369.952C1133.05 370.224 1133.17 370.592 1133.18 371.056C1133.18 371.448 1133.07 371.8 1132.84 372.112C1132.63 372.416 1132.31 372.656 1131.9 372.832C1131.49 373.008 1131.01 373.096 1130.47 373.096ZM1138.55 366.232C1139.32 366.232 1139.94 366.488 1140.4 367C1140.86 367.504 1141.1 368.2 1141.1 369.088V373H1139.06V369.364C1139.06 368.916 1138.94 368.568 1138.71 368.32C1138.48 368.072 1138.16 367.948 1137.77 367.948C1137.38 367.948 1137.07 368.072 1136.84 368.32C1136.6 368.568 1136.49 368.916 1136.49 369.364V373H1134.44V364.12H1136.49V367.204C1136.7 366.908 1136.98 366.672 1137.34 366.496C1137.7 366.32 1138.1 366.232 1138.55 366.232ZM1146.64 366.232C1147.41 366.232 1148.02 366.488 1148.49 367C1148.95 367.504 1149.18 368.2 1149.18 369.088V373H1147.14V369.364C1147.14 368.916 1147.03 368.568 1146.79 368.32C1146.56 368.072 1146.25 367.948 1145.86 367.948C1145.47 367.948 1145.15 368.072 1144.92 368.32C1144.69 368.568 1144.57 368.916 1144.57 369.364V373H1142.52V364.12H1144.57V367.204C1144.78 366.908 1145.07 366.672 1145.43 366.496C1145.79 366.32 1146.19 366.232 1146.64 366.232Z" fill="white"/>
<path d="M1142.34 610.652C1142.34 609.956 1142.48 609.348 1142.76 608.828C1143.04 608.308 1143.44 607.908 1143.94 607.628C1144.46 607.348 1145.04 607.208 1145.7 607.208C1146.54 607.208 1147.24 607.428 1147.8 607.868C1148.36 608.308 1148.74 608.928 1148.91 609.728H1146.73C1146.54 609.216 1146.19 608.96 1145.66 608.96C1145.28 608.96 1144.98 609.108 1144.76 609.404C1144.54 609.692 1144.42 610.108 1144.42 610.652C1144.42 611.196 1144.54 611.616 1144.76 611.912C1144.98 612.2 1145.28 612.344 1145.66 612.344C1146.19 612.344 1146.54 612.088 1146.73 611.576H1148.91C1148.74 612.36 1148.36 612.976 1147.8 613.424C1147.23 613.872 1146.53 614.096 1145.7 614.096C1145.04 614.096 1144.46 613.956 1143.94 613.676C1143.44 613.396 1143.04 612.996 1142.76 612.476C1142.48 611.956 1142.34 611.348 1142.34 610.652ZM1152.06 605.12V614H1150.01V605.12H1152.06ZM1153.14 610.64C1153.14 609.952 1153.27 609.348 1153.52 608.828C1153.79 608.308 1154.14 607.908 1154.59 607.628C1155.04 607.348 1155.54 607.208 1156.09 607.208C1156.56 607.208 1156.98 607.304 1157.33 607.496C1157.69 607.688 1157.96 607.94 1158.16 608.252V607.304H1160.21V614H1158.16V613.052C1157.96 613.364 1157.68 613.616 1157.32 613.808C1156.96 614 1156.55 614.096 1156.08 614.096C1155.54 614.096 1155.04 613.956 1154.59 613.676C1154.14 613.388 1153.79 612.984 1153.52 612.464C1153.27 611.936 1153.14 611.328 1153.14 610.64ZM1158.16 610.652C1158.16 610.14 1158.01 609.736 1157.72 609.44C1157.44 609.144 1157.1 608.996 1156.69 608.996C1156.28 608.996 1155.94 609.144 1155.65 609.44C1155.37 609.728 1155.23 610.128 1155.23 610.64C1155.23 611.152 1155.37 611.56 1155.65 611.864C1155.94 612.16 1156.28 612.308 1156.69 612.308C1157.1 612.308 1157.44 612.16 1157.72 611.864C1158.01 611.568 1158.16 611.164 1158.16 610.652ZM1165.77 607.232C1166.56 607.232 1167.18 607.488 1167.65 608C1168.12 608.504 1168.35 609.2 1168.35 610.088V614H1166.31V610.364C1166.31 609.916 1166.2 609.568 1165.97 609.32C1165.73 609.072 1165.42 608.948 1165.03 608.948C1164.64 608.948 1164.33 609.072 1164.09 609.32C1163.86 609.568 1163.75 609.916 1163.75 610.364V614H1161.69V607.304H1163.75V608.192C1163.95 607.896 1164.23 607.664 1164.59 607.496C1164.94 607.32 1165.33 607.232 1165.77 607.232ZM1173.87 614L1171.83 611.192V614H1169.78V605.12H1171.83V610.028L1173.86 607.304H1176.39L1173.61 610.664L1176.42 614H1173.87Z" fill="white"/>
<path d="M1127.34 592.652C1127.34 591.956 1127.48 591.348 1127.76 590.828C1128.04 590.308 1128.44 589.908 1128.94 589.628C1129.46 589.348 1130.04 589.208 1130.7 589.208C1131.54 589.208 1132.24 589.428 1132.8 589.868C1133.36 590.308 1133.74 590.928 1133.91 591.728H1131.73C1131.54 591.216 1131.19 590.96 1130.66 590.96C1130.28 590.96 1129.98 591.108 1129.76 591.404C1129.54 591.692 1129.42 592.108 1129.42 592.652C1129.42 593.196 1129.54 593.616 1129.76 593.912C1129.98 594.2 1130.28 594.344 1130.66 594.344C1131.19 594.344 1131.54 594.088 1131.73 593.576H1133.91C1133.74 594.36 1133.36 594.976 1132.8 595.424C1132.23 595.872 1131.53 596.096 1130.7 596.096C1130.04 596.096 1129.46 595.956 1128.94 595.676C1128.44 595.396 1128.04 594.996 1127.76 594.476C1127.48 593.956 1127.34 593.348 1127.34 592.652ZM1137.06 587.12V596H1135.01V587.12H1137.06ZM1138.14 592.64C1138.14 591.952 1138.27 591.348 1138.52 590.828C1138.79 590.308 1139.14 589.908 1139.59 589.628C1140.04 589.348 1140.54 589.208 1141.09 589.208C1141.56 589.208 1141.98 589.304 1142.33 589.496C1142.69 589.688 1142.96 589.94 1143.16 590.252V589.304H1145.21V596H1143.16V595.052C1142.96 595.364 1142.68 595.616 1142.32 595.808C1141.96 596 1141.55 596.096 1141.08 596.096C1140.54 596.096 1140.04 595.956 1139.59 595.676C1139.14 595.388 1138.79 594.984 1138.52 594.464C1138.27 593.936 1138.14 593.328 1138.14 592.64ZM1143.16 592.652C1143.16 592.14 1143.01 591.736 1142.72 591.44C1142.44 591.144 1142.1 590.996 1141.69 590.996C1141.28 590.996 1140.94 591.144 1140.65 591.44C1140.37 591.728 1140.23 592.128 1140.23 592.64C1140.23 593.152 1140.37 593.56 1140.65 593.864C1140.94 594.16 1141.28 594.308 1141.69 594.308C1142.1 594.308 1142.44 594.16 1142.72 593.864C1143.01 593.568 1143.16 593.164 1143.16 592.652ZM1150.77 589.232C1151.56 589.232 1152.18 589.488 1152.65 590C1153.12 590.504 1153.35 591.2 1153.35 592.088V596H1151.31V592.364C1151.31 591.916 1151.2 591.568 1150.97 591.32C1150.73 591.072 1150.42 590.948 1150.03 590.948C1149.64 590.948 1149.33 591.072 1149.09 591.32C1148.86 591.568 1148.75 591.916 1148.75 592.364V596H1146.69V589.304H1148.75V590.192C1148.95 589.896 1149.23 589.664 1149.59 589.496C1149.94 589.32 1150.33 589.232 1150.77 589.232ZM1158.87 596L1156.83 593.192V596H1154.78V587.12H1156.83V592.028L1158.86 589.304H1161.39L1158.61 592.664L1161.42 596H1158.87Z" fill="white"/>
<path d="M1016.8 125.576V127.22H1014.57V134H1012.52V127.22H1010.29V125.576H1016.8ZM1024.45 127.304V134H1022.39V133.088C1022.19 133.384 1021.9 133.624 1021.54 133.808C1021.19 133.984 1020.8 134.072 1020.37 134.072C1019.85 134.072 1019.4 133.96 1019.01 133.736C1018.62 133.504 1018.31 133.172 1018.1 132.74C1017.88 132.308 1017.77 131.8 1017.77 131.216V127.304H1019.81V130.94C1019.81 131.388 1019.93 131.736 1020.16 131.984C1020.39 132.232 1020.71 132.356 1021.1 132.356C1021.5 132.356 1021.81 132.232 1022.05 131.984C1022.28 131.736 1022.39 131.388 1022.39 130.94V127.304H1024.45ZM1030.01 134L1027.97 131.192V134H1025.92V125.12H1027.97V130.028L1030 127.304H1032.53L1029.75 130.664L1032.56 134H1030.01ZM1039.95 127.304V134H1037.9V133.088C1037.69 133.384 1037.41 133.624 1037.05 133.808C1036.69 133.984 1036.3 134.072 1035.87 134.072C1035.36 134.072 1034.91 133.96 1034.51 133.736C1034.12 133.504 1033.82 133.172 1033.6 132.74C1033.39 132.308 1033.28 131.8 1033.28 131.216V127.304H1035.32V130.94C1035.32 131.388 1035.43 131.736 1035.67 131.984C1035.9 132.232 1036.21 132.356 1036.6 132.356C1037 132.356 1037.32 132.232 1037.55 131.984C1037.78 131.736 1037.9 131.388 1037.9 130.94V127.304H1039.95Z" fill="white"/>
<path d="M987.804 140.576V142.22H985.572V149H983.52V142.22H981.288V140.576H987.804ZM995.446 142.304V149H993.394V148.088C993.186 148.384 992.902 148.624 992.542 148.808C992.19 148.984 991.798 149.072 991.366 149.072C990.854 149.072 990.402 148.96 990.01 148.736C989.618 148.504 989.314 148.172 989.098 147.74C988.882 147.308 988.774 146.8 988.774 146.216V142.304H990.814V145.94C990.814 146.388 990.93 146.736 991.162 146.984C991.394 147.232 991.706 147.356 992.098 147.356C992.498 147.356 992.814 147.232 993.046 146.984C993.278 146.736 993.394 146.388 993.394 145.94V142.304H995.446ZM1001.01 149L998.972 146.192V149H996.92V140.12H998.972V145.028L1001 142.304H1003.53L1000.75 145.664L1003.56 149H1001.01ZM1010.95 142.304V149H1008.9V148.088C1008.69 148.384 1008.41 148.624 1008.05 148.808C1007.69 148.984 1007.3 149.072 1006.87 149.072C1006.36 149.072 1005.91 148.96 1005.51 148.736C1005.12 148.504 1004.82 148.172 1004.6 147.74C1004.39 147.308 1004.28 146.8 1004.28 146.216V142.304H1006.32V145.94C1006.32 146.388 1006.43 146.736 1006.67 146.984C1006.9 147.232 1007.21 147.356 1007.6 147.356C1008 147.356 1008.32 147.232 1008.55 146.984C1008.78 146.736 1008.9 146.388 1008.9 145.94V142.304H1010.95Z" fill="white"/>
<path d="M1019.29 163.582L1038.29 154.082L1043.29 157.082L1063.29 177.082L1065.79 172.582L1082.29 155.082L1093.29 154.082L1111.79 174.082V199.082L1062.29 249.082L1013.79 200.082L1011.29 177.082L1019.29 163.582Z" fill="#CE393C"/>
<path d="M1067.5 254.167H1057.08V243.75H1067.5V254.167ZM1057.08 243.75H1046.67V233.333H1057.08V243.75ZM1077.92 243.75H1067.5V233.333H1077.92V243.75ZM1046.67 233.333H1036.25V222.917H1046.67V233.333ZM1088.33 233.333H1077.92V222.917H1088.33V233.333ZM1036.25 222.917H1025.83V212.5H1036.25V222.917ZM1098.75 222.917H1088.33V212.5H1098.75V222.917ZM1025.83 212.5H1015.42V202.083H1025.83V212.5ZM1109.17 212.5H1098.75V202.083H1109.17V212.5ZM1015.42 202.083H1005V170.833H1015.42V202.083ZM1119.58 202.083H1109.17V170.833H1119.58V202.083ZM1067.5 181.25H1057.08V170.833H1067.5V181.25ZM1025.83 170.833H1015.42V160.417H1025.83V170.833ZM1057.08 170.833H1046.67V160.417H1057.08V170.833ZM1077.92 170.833H1067.5V160.417H1077.92V170.833ZM1109.17 170.833H1098.75V160.417H1109.17V170.833ZM1046.67 160.417H1025.83V150H1046.67V160.417ZM1098.75 160.417H1077.92V150H1098.75V160.417Z" fill="#922D35"/>
<path d="M1159.03 406.452C1161.31 463.587 1116.84 511.751 1059.71 514.031C1002.57 516.31 954.408 471.842 952.128 414.708C949.848 357.574 994.316 309.41 1051.45 307.13C1108.58 304.85 1156.75 349.318 1159.03 406.452Z" fill="url(#paint21_radial_476_84)"/>
<path d="M892.116 601.41C871.575 601.41 864.028 622.401 864.028 622.401C864.028 622.401 856.585 601.41 835.903 601.41C820.36 601.41 802.641 613.729 809.185 641.732C815.728 669.735 864.085 704.62 864.085 704.62C864.085 704.62 912.263 669.735 918.816 641.732C925.36 613.729 908.916 601.41 892.116 601.41Z" fill="#1976D2"/>
<path d="M832.734 603.501C848.859 603.501 856.865 620.835 859.453 627.857C859.819 628.86 861.215 628.888 861.637 627.913L864 622.391C860.672 611.76 851.522 601.41 835.903 601.41C829.434 601.41 822.6 603.548 817.284 608.057C821.981 604.973 827.484 603.501 832.734 603.501ZM892.115 601.41C887.156 601.41 882.956 602.854 879.431 605.02C881.906 604.063 884.644 603.501 887.681 603.501C902.878 603.501 916.481 615.023 910.34 641.657C905.072 664.523 874.284 692.263 864.881 702.848C864.281 703.523 864.075 704.61 864.075 704.61C864.075 704.61 912.253 669.726 918.806 641.723C925.359 613.729 907.659 601.41 892.115 601.41Z" fill="url(#paint22_radial_476_84)"/>
<path opacity="0.5" d="M819.975 616.27C823.491 611.882 829.772 608.254 835.097 612.435C837.975 614.695 836.719 619.326 834.141 621.276C830.391 624.126 827.128 625.841 824.841 630.304C823.472 632.985 822.647 635.92 822.225 638.91C822.056 640.091 820.51 640.382 819.928 639.341C815.972 632.329 814.847 622.673 819.975 616.27ZM876.338 625.495C874.688 625.495 873.525 623.901 874.125 622.363C875.241 619.532 876.685 616.795 878.419 614.357C880.988 610.757 885.872 608.657 888.966 610.841C892.135 613.073 891.722 617.535 889.5 619.691C884.728 624.313 878.71 625.495 876.338 625.495Z" fill="url(#paint23_radial_476_84)"/>
<path d="M1047.51 368.5L1062.98 382.938L1064 383.895L1065.02 382.938L1080.49 368.5H1100.38L1115.5 387.316V420.716L1068.76 459.5H1059.24L1012.5 420.716V387.316L1027.62 368.5H1047.51Z" fill="url(#paint24_linear_476_84)" stroke="#359DFF" stroke-width="3"/>
</g>
<defs>
<filter id="filter0_di_476_84" x="804.05" y="139.844" width="120.206" height="114.605" filterUnits="userSpaceOnUse" color-interpolation-filters="sRGB">
<feFlood flood-opacity="0" result="BackgroundImageFix"/>
<feColorMatrix in="SourceAlpha" type="matrix" values="0 0 0 0 0 0 0 0 0 0 0 0 0 0 0 0 0 0 127 0" result="hardAlpha"/>
<feOffset dy="4"/>
<feGaussianBlur stdDeviation="2"/>
<feComposite in2="hardAlpha" operator="out"/>
<feColorMatrix type="matrix" values="0 0 0 0 0 0 0 0 0 0 0 0 0 0 0 0 0 0 0.25 0"/>
<feBlend mode="normal" in2="BackgroundImageFix" result="effect1_dropShadow_476_84"/>
<feBlend mode="normal" in="SourceGraphic" in2="effect1_dropShadow_476_84" result="shape"/>
<feColorMatrix in="SourceAlpha" type="matrix" values="0 0 0 0 0 0 0 0 0 0 0 0 0 0 0 0 0 0 127 0" result="hardAlpha"/>
<feOffset dy="3"/>
<feGaussianBlur stdDeviation="5.3"/>
<feComposite in2="hardAlpha" operator="arithmetic" k2="-1" k3="1"/>
<feColorMatrix type="matrix" values="0 0 0 0 0.982215 0 0 0 0 0.83983 0 0 0 0 0.899157 0 0 0 0.25 0"/>
<feBlend mode="normal" in2="shape" result="effect2_innerShadow_476_84"/>
</filter>
<filter id="filter1_di_476_84" x="803.906" y="367.383" width="120.238" height="113.941" filterUnits="userSpaceOnUse" color-interpolation-filters="sRGB">
<feFlood flood-opacity="0" result="BackgroundImageFix"/>
<feColorMatrix in="SourceAlpha" type="matrix" values="0 0 0 0 0 0 0 0 0 0 0 0 0 0 0 0 0 0 127 0" result="hardAlpha"/>
<feOffset dy="4"/>
<feGaussianBlur stdDeviation="2"/>
<feComposite in2="hardAlpha" operator="out"/>
<feColorMatrix type="matrix" values="0 0 0 0 0 0 0 0 0 0 0 0 0 0 0 0 0 0 0.25 0"/>
<feBlend mode="normal" in2="BackgroundImageFix" result="effect1_dropShadow_476_84"/>
<feBlend mode="normal" in="SourceGraphic" in2="effect1_dropShadow_476_84" result="shape"/>
<feColorMatrix in="SourceAlpha" type="matrix" values="0 0 0 0 0 0 0 0 0 0 0 0 0 0 0 0 0 0 127 0" result="hardAlpha"/>
<feOffset dy="3"/>
<feGaussianBlur stdDeviation="5.3"/>
<feComposite in2="hardAlpha" operator="arithmetic" k2="-1" k3="1"/>
<feColorMatrix type="matrix" values="0 0 0 0 0.982215 0 0 0 0 0.83983 0 0 0 0 0.899157 0 0 0 0.25 0"/>
<feBlend mode="normal" in2="shape" result="effect2_innerShadow_476_84"/>
</filter>
<filter id="filter2_di_476_84" x="1003.91" y="592.383" width="120.238" height="113.941" filterUnits="userSpaceOnUse" color-interpolation-filters="sRGB">
<feFlood flood-opacity="0" result="BackgroundImageFix"/>
<feColorMatrix in="SourceAlpha" type="matrix" values="0 0 0 0 0 0 0 0 0 0 0 0 0 0 0 0 0 0 127 0" result="hardAlpha"/>
<feOffset dy="4"/>
<feGaussianBlur stdDeviation="2"/>
<feComposite in2="hardAlpha" operator="out"/>
<feColorMatrix type="matrix" values="0 0 0 0 0 0 0 0 0 0 0 0 0 0 0 0 0 0 0.25 0"/>
<feBlend mode="normal" in2="BackgroundImageFix" result="effect1_dropShadow_476_84"/>
<feBlend mode="normal" in="SourceGraphic" in2="effect1_dropShadow_476_84" result="shape"/>
<feColorMatrix in="SourceAlpha" type="matrix" values="0 0 0 0 0 0 0 0 0 0 0 0 0 0 0 0 0 0 127 0" result="hardAlpha"/>
<feOffset dy="3"/>
<feGaussianBlur stdDeviation="5.3"/>
<feComposite in2="hardAlpha" operator="arithmetic" k2="-1" k3="1"/>
<feColorMatrix type="matrix" values="0 0 0 0 0.982215 0 0 0 0 0.83983 0 0 0 0 0.899157 0 0 0 0.25 0"/>
<feBlend mode="normal" in2="shape" result="effect2_innerShadow_476_84"/>
</filter>
<linearGradient id="paint0_linear_476_84" x1="635.075" y1="747.054" x2="635.075" y2="-24.8986" gradientUnits="userSpaceOnUse">
<stop stop-color="#3291FF"/>
<stop offset="1" stop-color="#35C2FF"/>
</linearGradient>
<linearGradient id="paint1_linear_476_84" x1="347.996" y1="152.105" x2="347.996" y2="326.672" gradientUnits="userSpaceOnUse">
<stop stop-color="#D9D9D9"/>
<stop offset="1" stop-color="#CAB6B6"/>
</linearGradient>
<linearGradient id="paint2_linear_476_84" x1="343.94" y1="352.121" x2="343.94" y2="651.837" gradientUnits="userSpaceOnUse">
<stop stop-color="#D8D7D7"/>
<stop offset="1" stop-color="#CBB8B8"/>
</linearGradient>
<linearGradient id="paint3_linear_476_84" x1="460.313" y1="463.558" x2="658.801" y2="440.705" gradientUnits="userSpaceOnUse">
<stop stop-color="#D7D6D6"/>
<stop offset="1" stop-color="#ADACAC"/>
</linearGradient>
<linearGradient id="paint4_linear_476_84" x1="536.49" y1="468.874" x2="536.49" y2="524.433" gradientUnits="userSpaceOnUse">
<stop stop-color="#CDCDCD"/>
<stop offset="1" stop-color="#CBB8B8"/>
</linearGradient>
<linearGradient id="paint5_linear_476_84" x1="448.45" y1="349.12" x2="448.45" y2="404.679" gradientUnits="userSpaceOnUse">
<stop stop-color="#CDCDCD"/>
<stop offset="1" stop-color="#CBB8B8"/>
</linearGradient>
<linearGradient id="paint6_linear_476_84" x1="649.577" y1="404.027" x2="665.027" y2="478.296" gradientUnits="userSpaceOnUse">
<stop stop-color="#C3C3C3"/>
<stop offset="1" stop-color="#B4A4A4"/>
</linearGradient>
<linearGradient id="paint7_linear_476_84" x1="224.763" y1="460.558" x2="26.2755" y2="437.705" gradientUnits="userSpaceOnUse">
<stop stop-color="#D7D6D6"/>
<stop offset="1" stop-color="#ADACAC"/>
</linearGradient>
<linearGradient id="paint8_linear_476_84" x1="27.7795" y1="0" x2="27.7795" y2="55.5589" gradientUnits="userSpaceOnUse">
<stop stop-color="#CDCDCD"/>
<stop offset="1" stop-color="#CBB8B8"/>
</linearGradient>
<linearGradient id="paint9_linear_476_84" x1="27.7795" y1="0" x2="27.7795" y2="55.5589" gradientUnits="userSpaceOnUse">
<stop stop-color="#CDCDCD"/>
<stop offset="1" stop-color="#CBB8B8"/>
</linearGradient>
<linearGradient id="paint10_linear_476_84" x1="442.668" y1="619.374" x2="442.668" y2="674.933" gradientUnits="userSpaceOnUse">
<stop stop-color="#CDCDCD"/>
<stop offset="1" stop-color="#CBB9B8"/>
</linearGradient>
<linearGradient id="paint11_linear_476_84" x1="246.311" y1="619.038" x2="246.311" y2="674.597" gradientUnits="userSpaceOnUse">
<stop stop-color="#CDCDCD"/>
<stop offset="1" stop-color="#CBB9B8"/>
</linearGradient>
<linearGradient id="paint12_linear_476_84" x1="265.047" y1="558.013" x2="209.725" y2="609.917" gradientUnits="userSpaceOnUse">
<stop stop-color="#C3C3C3"/>
<stop offset="1" stop-color="#B4A4A4"/>
</linearGradient>
<linearGradient id="paint13_linear_476_84" x1="209.077" y1="188.488" x2="209.077" y2="288.488" gradientUnits="userSpaceOnUse">
<stop stop-color="#AF9D9D"/>
<stop offset="1" stop-color="#9D8A8A"/>
</linearGradient>
<linearGradient id="paint14_linear_476_84" x1="488.077" y1="188.488" x2="488.077" y2="288.488" gradientUnits="userSpaceOnUse">
<stop stop-color="#AF9D9D"/>
<stop offset="1" stop-color="#9D8A8A"/>
</linearGradient>
<linearGradient id="paint15_linear_476_84" x1="1443" y1="45" x2="1443" y2="914" gradientUnits="userSpaceOnUse">
<stop stop-color="#C08260"/>
<stop offset="1" stop-color="#BF7B5F"/>
</linearGradient>
<radialGradient id="paint16_radial_476_84" cx="0" cy="0" r="1" gradientUnits="userSpaceOnUse" gradientTransform="translate(853.768 187.769) rotate(90) scale(137.399)">
<stop stop-color="#E5B0CA"/>
<stop offset="1" stop-color="#DF88B2" stop-opacity="0"/>
</radialGradient>
<linearGradient id="paint17_linear_476_84" x1="865.491" y1="140.905" x2="861.163" y2="246.449" gradientUnits="userSpaceOnUse">
<stop stop-color="#DA78A7"/>
<stop offset="1" stop-color="#A44C89"/>
</linearGradient>
<linearGradient id="paint18_linear_476_84" x1="865.491" y1="140.905" x2="861.163" y2="246.449" gradientUnits="userSpaceOnUse">
<stop stop-color="#DA78A7"/>
<stop offset="1" stop-color="#A44C89"/>
</linearGradient>
<linearGradient id="paint19_linear_476_84" x1="864.432" y1="367.699" x2="863.116" y2="473.323" gradientUnits="userSpaceOnUse">
<stop stop-color="#B3B3B3"/>
<stop offset="1" stop-color="#808080"/>
</linearGradient>
<linearGradient id="paint20_linear_476_84" x1="1064.43" y1="592.699" x2="1063.12" y2="698.323" gradientUnits="userSpaceOnUse">
<stop stop-color="#E35F61"/>
<stop offset="1" stop-color="#CE393C"/>
</linearGradient>
<radialGradient id="paint21_radial_476_84" cx="0" cy="0" r="1" gradientUnits="userSpaceOnUse" gradientTransform="translate(1063.83 410.58) rotate(87.715) scale(103.533)">
<stop stop-color="white"/>
<stop offset="0.865385" stop-color="#AFE0F5" stop-opacity="0"/>
</radialGradient>
<radialGradient id="paint22_radial_476_84" cx="0" cy="0" r="1" gradientUnits="userSpaceOnUse" gradientTransform="translate(886 640) rotate(104.952) scale(66.8743 66.6951)">
<stop stop-color="#1E5C93"/>
<stop offset="0.715594" stop-color="#1E5C93" stop-opacity="0"/>
</radialGradient>
<radialGradient id="paint23_radial_476_84" cx="0" cy="0" r="1" gradientUnits="userSpaceOnUse" gradientTransform="translate(854 622) rotate(90.3379) scale(17.9811 44.7446)">
<stop stop-color="white"/>
<stop offset="1" stop-color="white" stop-opacity="0"/>
</radialGradient>
<linearGradient id="paint24_linear_476_84" x1="1064" y1="367" x2="1064" y2="461" gradientUnits="userSpaceOnUse">
<stop stop-color="#CAEBFD"/>
<stop offset="1" stop-color="#74BBFF"/>
</linearGradient>
<clipPath id="clip0_476_84">
<rect width="1280" height="720" fill="white"/>
</clipPath>
</defs>
</svg>
