<svg width="1280" height="720" viewBox="0 0 1280 720" fill="none" xmlns="http://www.w3.org/2000/svg">
<g clip-path="url(#clip0_137_2)">
<rect width="1280" height="720" fill="white"/>
<path d="M0.00390625 -0.0976562H1279.99V719.892H0.00390625V-0.0976562Z" fill="url(#paint0_linear_137_2)"/>
<path d="M610.898 171.895C627.952 147.519 664.048 147.519 681.102 171.895C693.844 190.109 716.624 198.401 738.094 192.639C766.826 184.928 794.477 208.129 791.872 237.764C789.926 259.907 802.046 280.902 822.196 290.288C849.163 302.849 855.431 338.397 834.388 359.424C818.663 375.136 814.453 399.01 823.855 419.152C836.439 446.109 818.39 477.369 788.754 479.95C766.609 481.879 748.038 497.461 742.294 518.935C734.606 547.673 700.687 560.018 676.325 542.945C658.121 530.188 633.879 530.188 615.675 542.945C591.313 560.018 557.394 547.673 549.706 518.935C543.961 497.461 525.391 481.879 503.246 479.95C473.61 477.369 455.561 446.109 468.145 419.152C477.547 399.01 473.337 375.136 457.612 359.424C436.569 338.397 442.837 302.849 469.804 290.288C489.954 280.902 502.074 259.907 500.128 237.764C497.523 208.129 525.174 184.928 553.906 192.639C575.376 198.401 598.156 190.109 610.898 171.895Z" stroke="#D3BDFF" stroke-width="10"/>
<path d="M500.399 142.99C509.131 103.159 554.806 84.1361 589.231 105.993C613.637 121.489 645.132 120.053 668.027 102.4C700.319 77.5009 747.536 92.2881 759.857 131.159C768.592 158.718 793.642 177.863 822.527 179.056C863.27 180.739 889.935 222.417 874.387 260.113C863.365 286.84 870.249 317.607 891.609 337.088C921.737 364.566 915.374 413.633 879.233 432.517C853.61 445.906 839.106 473.9 842.947 502.553C848.364 542.969 811.949 576.467 772.125 567.702C743.891 561.488 714.787 573.609 699.311 598.027C677.482 632.47 628.055 634.723 603.182 602.411C585.547 579.502 555.461 570.079 527.909 578.837C489.048 591.19 449.736 561.145 451.453 520.405C452.67 491.52 435.679 464.962 408.944 453.962C371.234 438.445 360.432 390.161 387.935 360.055C407.434 338.711 411.488 307.445 398.079 281.832C379.165 245.707 401.927 201.776 442.347 196.391C471.004 192.574 494.207 171.229 500.399 142.99Z" stroke="#D3BDFF" stroke-width="10"/>
<path d="M332.209 224.092C315.589 185.129 342.767 141.503 385.067 139.246L416.298 137.579C446.125 135.987 471.766 115.898 480.448 87.3182L489.539 57.3934C501.852 16.8621 550.715 0.912298 584.57 26.3733L609.565 45.1708C633.437 63.124 665.992 64.2171 691.014 47.9049L717.214 30.8248C752.7 7.69121 800.382 26.8812 809.95 68.1467L817.014 98.6135C823.761 127.711 847.998 149.475 877.652 153.062L908.7 156.818C950.754 161.907 974.946 207.257 955.751 245.018L941.578 272.898C928.043 299.525 932.621 331.776 953.03 353.586L974.399 376.42C1003.34 407.35 992.726 457.641 953.749 474.229L924.972 486.477C897.488 498.174 880.264 525.821 881.88 555.647L883.571 586.877C885.863 629.175 845.403 660.874 804.882 648.528L774.965 639.413C746.392 630.707 715.426 640.814 697.492 664.701L678.715 689.712C653.281 723.587 601.911 721.863 578.806 686.359L561.748 660.145C545.456 635.11 515.237 622.949 486.145 629.719L455.684 636.808C414.426 646.41 376.182 612.069 381.305 570.02L385.087 538.974C388.699 509.324 373.367 480.584 346.73 467.071L318.838 452.921C281.061 433.756 273.838 382.867 304.791 353.948L327.644 332.597C349.47 312.205 356.199 280.333 344.48 252.859L332.209 224.092Z" stroke="#D3BDFF" stroke-width="10"/>
<mask id="mask0_137_2" style="mask-type:alpha" maskUnits="userSpaceOnUse" x="384" y="274" width="146" height="85">
<path d="M411.5 359L384 343V329L503.5 274L530 290.5L411.5 359Z" fill="#D08259"/>
</mask>
<g mask="url(#mask0_137_2)">
<path d="M411.5 359L384 343V329L503.5 274L530 290.5L411.5 359Z" fill="#D99773"/>
<path d="M411.5 361V342L429.5 327.5L457 340.5L411.5 361Z" fill="#D68270"/>
</g>
<path d="M384 328L503.5 259L530 275.5L411.5 344L384 328Z" fill="#EEBA8D"/>
<mask id="mask1_137_2" style="mask-type:alpha" maskUnits="userSpaceOnUse" x="768" y="497" width="146" height="85">
<path d="M795.5 582L768 566V552L887.5 497L914 513.5L795.5 582Z" fill="#D08259"/>
</mask>
<g mask="url(#mask1_137_2)">
<path d="M795.5 582L768 566V552L887.5 497L914 513.5L795.5 582Z" fill="#D99773"/>
<path d="M795.5 584V565L813.5 550.5L841 563.5L795.5 584Z" fill="#D68270"/>
</g>
<path d="M768 551L887.5 482L914 498.5L795.5 567L768 551Z" fill="#EEBA8D"/>
<mask id="mask2_137_2" style="mask-type:alpha" maskUnits="userSpaceOnUse" x="348" y="152" width="649" height="444">
<path d="M348 293L877 595.5L996.5 528.5V498L587 152.5L348 262.5V293Z" fill="#D09059"/>
</mask>
<g mask="url(#mask2_137_2)">
<path d="M348 293L877 595.5L996.5 528.5V498L587 152.5L348 262.5V293Z" fill="#D99773"/>
<path d="M878 530.5V620.5L1009 564V453.5L878 530.5Z" fill="#D68270"/>
</g>
<path d="M348 262.5L877.5 565L997 498L589 125L348 262.5Z" fill="#EEBA8D"/>
<g filter="url(#filter0_d_137_2)">
<path d="M591.017 133.05L634.512 153.5L634.512 158.059L393.5 296C379 280 367 273 351.005 270.52L351.005 265.5L591.017 133.05Z" fill="#6C205B"/>
<path d="M591.017 128.05C611.212 129.147 619.978 136.665 634.512 153.059L394.5 290.529C381.689 275.319 371.5 268.5 351.005 265.52L591.017 128.05Z" fill="#7C2869"/>
</g>
<g filter="url(#filter1_d_137_2)">
<path d="M634.505 172.73L678 193.18L678 197.739L449.995 328.456C435.495 312.456 423.495 305.456 407.5 302.976L407.5 297.956L634.505 172.73Z" fill="#2F2878"/>
<path d="M634.505 168.049C654.699 169.146 663.465 176.664 678 193.058L450.995 323.019C438.184 307.808 427.995 300.99 407.5 298.01L634.505 168.049Z" fill="#404E9D"/>
</g>
<g filter="url(#filter2_d_137_2)">
<path d="M679.011 214.728L722.506 235.178L722.506 239.737L508 362.762C493.5 346.762 481.5 339.762 465.505 337.282L465.505 332.262L679.011 214.728Z" fill="#3291FF"/>
<path d="M679.012 210.047C699.206 211.144 707.972 218.663 722.506 235.056L509.387 357C496.576 341.79 486.387 334.971 465.892 331.991L679.012 210.047Z" fill="#35C2FF"/>
</g>
<g filter="url(#filter3_d_137_2)">
<path d="M724.504 254.726L767.999 275.177L767.999 279.735L565.995 395.543C551.495 379.543 539.495 372.543 523.5 370.063L523.5 365.043L724.504 254.726Z" fill="#4CBA65"/>
<path d="M724.505 250.045C744.699 251.142 753.465 258.661 768 275.054L566.985 390.009C554.174 374.799 543.985 367.98 523.49 365L724.505 250.045Z" fill="#A5CD5B"/>
</g>
<g filter="url(#filter4_d_137_2)">
<path d="M771.506 294.538L815 314.989L815 319.547L624.353 428.98C609.853 412.98 597.853 405.98 581.858 403.5L581.858 398.48L771.506 294.538Z" fill="#F6A227"/>
<path d="M771.501 290.042C791.695 291.139 800.461 298.658 814.995 315.051L625.25 423.5C612.439 408.29 602.25 401.471 581.755 398.491L771.501 290.042Z" fill="#FFC93C"/>
</g>
<g filter="url(#filter5_d_137_2)">
<path d="M817.496 334.542L860.991 354.992L860.991 359.551L682.5 461.965C668 445.965 656 438.965 640.005 436.485L640.005 431.465L817.496 334.542Z" fill="#E7574A"/>
<path d="M817.501 330.04C837.696 331.137 846.461 338.655 860.996 355.049L683.354 456.509C670.543 441.298 660.354 434.48 639.859 431.5L817.501 330.04Z" fill="#FD7853"/>
</g>
<g filter="url(#filter6_d_137_2)">
<path d="M862.765 378.678L906.26 399.128L906.26 403.687L743.495 497.023C728.995 481.023 716.995 474.023 701 471.543L701 466.523L862.765 378.678Z" fill="#922D35"/>
<path d="M863.009 374.036C883.204 375.133 891.97 382.652 906.504 399.045L744.441 491.509C731.63 476.298 721.441 469.48 700.946 466.5L863.009 374.036Z" fill="#CE393C"/>
</g>
<g filter="url(#filter7_d_137_2)">
<path d="M907.505 420.542L951 440.992L951 445.551L803 530.518C788.5 514.518 776.5 507.518 760.505 505.038L760.505 500.018L907.505 420.542Z" fill="#7C2869"/>
<path d="M907.511 416.034C927.705 417.131 936.471 424.65 951.005 441.043L803.994 525.009C791.183 509.799 780.994 502.98 760.5 500L907.511 416.034Z" fill="#AC4695"/>
</g>
<g filter="url(#filter8_d_137_2)">
<path d="M953.499 460.537L996.993 480.987L996.993 485.546L855.71 566.477C841.21 550.477 829.21 543.477 813.216 540.997L813.216 535.977L953.499 460.537Z" fill="#B03A95"/>
<path d="M953.498 456.029C973.692 457.126 982.458 464.645 996.992 481.038L856.499 561.057C843.688 545.847 833.499 539.028 813.004 536.048L953.498 456.029Z" fill="#E165C5"/>
</g>
<g filter="url(#filter9_di_137_2)">
<circle cx="603" cy="141" r="5" fill="#D99773"/>
</g>
<g filter="url(#filter10_di_137_2)">
<circle cx="389" cy="266" r="5" fill="#D99773"/>
</g>
<g filter="url(#filter11_di_137_2)">
<circle cx="647" cy="183" r="5" fill="#D99773"/>
</g>
<g filter="url(#filter12_di_137_2)">
<circle cx="443" cy="299" r="5" fill="#D99773"/>
</g>
<g filter="url(#filter13_di_137_2)">
<circle cx="693" cy="225" r="5" fill="#D99773"/>
</g>
<g filter="url(#filter14_di_137_2)">
<circle cx="502" cy="334" r="5" fill="#D99773"/>
</g>
<g filter="url(#filter15_di_137_2)">
<circle cx="739" cy="265" r="5" fill="#D99773"/>
</g>
<g filter="url(#filter16_di_137_2)">
<circle cx="558" cy="367" r="5" fill="#D99773"/>
</g>
<g filter="url(#filter17_di_137_2)">
<circle cx="788" cy="304" r="5" fill="#D99773"/>
</g>
<g filter="url(#filter18_di_137_2)">
<circle cx="615" cy="401" r="5" fill="#D99773"/>
</g>
<g filter="url(#filter19_di_137_2)">
<circle cx="833" cy="344" r="5" fill="#D99773"/>
</g>
<g filter="url(#filter20_di_137_2)">
<circle cx="674" cy="434" r="5" fill="#D99773"/>
</g>
<g filter="url(#filter21_di_137_2)">
<circle cx="879" cy="388" r="5" fill="#D99773"/>
</g>
<g filter="url(#filter22_di_137_2)">
<circle cx="734" cy="467" r="5" fill="#D99773"/>
</g>
<g filter="url(#filter23_di_137_2)">
<circle cx="923" cy="430" r="5" fill="#D99773"/>
</g>
<g filter="url(#filter24_di_137_2)">
<circle cx="793" cy="502" r="5" fill="#D99773"/>
</g>
<g filter="url(#filter25_di_137_2)">
<circle cx="968" cy="471" r="5" fill="#D99773"/>
</g>
<g filter="url(#filter26_di_137_2)">
<circle cx="848" cy="538" r="5" fill="#D99773"/>
</g>
<g filter="url(#filter27_d_137_2)">
<g filter="url(#filter28_i_137_2)">
<path d="M526.802 281.79L260 225.594" stroke="#D99773" stroke-width="22" stroke-linecap="round"/>
</g>
<circle cx="543.244" cy="281.409" r="32.5" transform="rotate(18.2112 543.244 281.409)" fill="url(#paint1_radial_137_2)"/>
</g>
<path d="M891 172.261C891 182.606 882.671 190.993 872.397 190.993C862.128 190.993 853.793 182.615 853.793 172.261C853.793 161.912 862.119 153.529 872.397 153.529C882.679 153.529 891 161.912 891 172.261Z" fill="#7C2869"/>
<path d="M822.207 181.268C822.207 191.613 813.876 200 803.603 200C793.334 200 785 191.622 785 181.268C785 170.919 793.324 162.536 803.604 162.536C813.881 162.536 822.207 170.919 822.207 181.268Z" fill="#7C2869"/>
<path d="M819.38 81H887.909V102.684H819.381L819.38 81Z" fill="#7C2869"/>
<path d="M819.38 81V175.629M819.38 81H887.909V102.684H819.381L819.38 81ZM887.719 81V175.629M891 172.261C891 182.606 882.671 190.993 872.397 190.993C862.128 190.993 853.793 182.615 853.793 172.261C853.793 161.912 862.119 153.529 872.397 153.529C882.679 153.529 891 161.912 891 172.261ZM822.207 181.268C822.207 191.613 813.876 200 803.603 200C793.334 200 785 191.622 785 181.268C785 170.919 793.324 162.536 803.604 162.536C813.881 162.536 822.207 170.919 822.207 181.268Z" stroke="#7C2869" stroke-width="5" stroke-miterlimit="10"/>
<path d="M1194 513.261C1194 523.606 1185.67 531.993 1175.4 531.993C1165.13 531.993 1156.79 523.615 1156.79 513.261C1156.79 502.912 1165.12 494.529 1175.4 494.529C1185.68 494.529 1194 502.912 1194 513.261Z" fill="#0D3896"/>
<path d="M1122.38 422V516.629V422Z" fill="#0D3896"/>
<path d="M1190.72 422V516.629V422Z" fill="#0D3896"/>
<path d="M1125.21 522.268C1125.21 532.613 1116.88 541 1106.6 541C1096.33 541 1088 532.622 1088 522.268C1088 511.919 1096.32 503.536 1106.6 503.536C1116.88 503.536 1125.21 511.919 1125.21 522.268Z" fill="#0D3896"/>
<path d="M1122.38 422H1190.91V443.684H1122.38L1122.38 422Z" fill="#0D3896"/>
<path d="M1122.38 422V516.629M1122.38 422H1190.91V443.684H1122.38L1122.38 422ZM1190.72 422V516.629M1194 513.261C1194 523.606 1185.67 531.993 1175.4 531.993C1165.13 531.993 1156.79 523.615 1156.79 513.261C1156.79 502.912 1165.12 494.529 1175.4 494.529C1185.68 494.529 1194 502.912 1194 513.261ZM1125.21 522.268C1125.21 532.613 1116.88 541 1106.6 541C1096.33 541 1088 532.622 1088 522.268C1088 511.919 1096.32 503.536 1106.6 503.536C1116.88 503.536 1125.21 511.919 1125.21 522.268Z" stroke="#0D3896" stroke-width="5" stroke-miterlimit="10"/>
<path d="M313 512.261C313 522.606 304.671 530.993 294.397 530.993C284.128 530.993 275.793 522.615 275.793 512.261C275.793 501.912 284.119 493.529 294.397 493.529C304.679 493.529 313 501.912 313 512.261Z" fill="#FFC93C"/>
<path d="M241.38 421V515.629V421Z" fill="#FFC93C"/>
<path d="M309.719 421V515.629V421Z" fill="#FFC93C"/>
<path d="M244.207 521.268C244.207 531.613 235.876 540 225.603 540C215.334 540 207 531.622 207 521.268C207 510.919 215.324 502.536 225.604 502.536C235.881 502.536 244.207 510.919 244.207 521.268Z" fill="#FFC93C"/>
<path d="M241.38 421H309.909V442.684H241.381L241.38 421Z" fill="#FFC93C"/>
<path d="M241.38 421V515.629M241.38 421H309.909V442.684H241.381L241.38 421ZM309.719 421V515.629M313 512.261C313 522.606 304.671 530.993 294.397 530.993C284.128 530.993 275.793 522.615 275.793 512.261C275.793 501.912 284.119 493.529 294.397 493.529C304.679 493.529 313 501.912 313 512.261ZM244.207 521.268C244.207 531.613 235.876 540 225.603 540C215.334 540 207 531.622 207 521.268C207 510.919 215.324 502.536 225.604 502.536C235.881 502.536 244.207 510.919 244.207 521.268Z" stroke="#FFC93C" stroke-width="5" stroke-miterlimit="10"/>
<path d="M1065 118V223.933V118Z" fill="#D3BDFF"/>
<path d="M1065 225.038C1065 236.616 1055.6 246 1044 246C1032.4 246 1023 236.616 1023 225.038C1023 213.46 1032.4 204.075 1044 204.075C1055.6 204.075 1065 213.46 1065 225.038Z" fill="#D3BDFF"/>
<path d="M1065 118V223.933M1065 225.038C1065 236.616 1055.6 246 1044 246C1032.4 246 1023 236.616 1023 225.038C1023 213.46 1032.4 204.075 1044 204.075C1055.6 204.075 1065 213.46 1065 225.038Z" stroke="#D3BDFF" stroke-width="5"/>
<path d="M544 531V636.933V531Z" fill="#99D594"/>
<path d="M544 638.038C544 649.616 534.6 659 523.002 659C511.4 659 502 649.616 502 638.038C502 626.46 511.4 617.075 523.002 617.075C534.6 617.075 544 626.46 544 638.038Z" fill="#99D594"/>
<path d="M544 531V636.933M544 638.038C544 649.616 534.6 659 523.002 659C511.4 659 502 649.616 502 638.038C502 626.46 511.4 617.075 523.002 617.075C534.6 617.075 544 626.46 544 638.038Z" stroke="#99D594" stroke-width="5"/>
<path d="M152 211.038C152 222.616 142.6 232 131.002 232C119.4 232 110 222.616 110 211.038C110 199.46 119.4 190.075 131.002 190.075C142.6 190.075 152 199.46 152 211.038Z" fill="#FF7B54"/>
<path d="M152 104V209.933M152 211.038C152 222.616 142.6 232 131.002 232C119.4 232 110 222.616 110 211.038C110 199.46 119.4 190.075 131.002 190.075C142.6 190.075 152 199.46 152 211.038Z" stroke="#FF7B54" stroke-width="5"/>
<path d="M132.586 343.178C132.586 368.934 111.732 389.816 86 389.816C111.732 389.816 132.586 410.689 132.586 436.442C132.586 410.689 153.451 389.816 179.182 389.816C153.451 389.816 132.586 368.934 132.586 343.178Z" fill="#FFC93C"/>
<path d="M324.587 577C324.587 602.754 303.733 623.626 278 623.626C303.732 623.626 324.587 644.508 324.587 670.262C324.587 644.508 345.452 623.626 371.184 623.626C345.452 623.626 324.587 602.754 324.587 577Z" fill="#FF7B54"/>
<path d="M1147.6 48C1147.6 73.7536 1126.73 94.6363 1101 94.6363C1126.73 94.6363 1147.6 115.508 1147.6 141.265C1147.6 115.508 1168.45 94.6353 1194.19 94.6353C1168.45 94.6353 1147.6 73.7536 1147.6 48Z" fill="#D3BDFF"/>
<path d="M673.587 549C673.587 574.757 652.732 595.639 627 595.639C652.732 595.639 673.587 616.511 673.587 642.265C673.587 616.511 694.452 595.639 720.183 595.639C694.452 595.639 673.587 574.757 673.587 549Z" fill="#99D594"/>
<path d="M1043.6 582C1043.6 607.754 1022.73 628.626 997 628.626C1022.73 628.626 1043.6 649.508 1043.6 675.262C1043.6 649.508 1064.45 628.626 1090.19 628.626C1064.45 628.626 1043.6 607.754 1043.6 582Z" fill="#0D3896"/>
<path d="M395.573 36C395.573 56.4297 379.032 72.9845 358.617 72.9845C379.032 72.9845 395.573 89.5492 395.573 109.971C395.573 89.5492 412.121 72.9845 432.526 72.9845C412.121 72.9845 395.573 56.4297 395.573 36Z" fill="#FFC93C"/>
</g>
<defs>
<filter id="filter0_d_137_2" x="344.305" y="125.35" width="296.907" height="181.35" filterUnits="userSpaceOnUse" color-interpolation-filters="sRGB">
<feFlood flood-opacity="0" result="BackgroundImageFix"/>
<feColorMatrix in="SourceAlpha" type="matrix" values="0 0 0 0 0 0 0 0 0 0 0 0 0 0 0 0 0 0 127 0" result="hardAlpha"/>
<feOffset dy="4"/>
<feGaussianBlur stdDeviation="3.35"/>
<feComposite in2="hardAlpha" operator="out"/>
<feColorMatrix type="matrix" values="0 0 0 0 0.893893 0 0 0 0 0.783885 0 0 0 0 0.86901 0 0 0 1 0"/>
<feBlend mode="multiply" in2="BackgroundImageFix" result="effect1_dropShadow_137_2"/>
<feBlend mode="normal" in="SourceGraphic" in2="effect1_dropShadow_137_2" result="shape"/>
</filter>
<filter id="filter1_d_137_2" x="400.8" y="165.349" width="283.9" height="173.807" filterUnits="userSpaceOnUse" color-interpolation-filters="sRGB">
<feFlood flood-opacity="0" result="BackgroundImageFix"/>
<feColorMatrix in="SourceAlpha" type="matrix" values="0 0 0 0 0 0 0 0 0 0 0 0 0 0 0 0 0 0 127 0" result="hardAlpha"/>
<feOffset dy="4"/>
<feGaussianBlur stdDeviation="3.35"/>
<feComposite in2="hardAlpha" operator="out"/>
<feColorMatrix type="matrix" values="0 0 0 0 0.893893 0 0 0 0 0.783885 0 0 0 0 0.86901 0 0 0 1 0"/>
<feBlend mode="multiply" in2="BackgroundImageFix" result="effect1_dropShadow_137_2"/>
<feBlend mode="normal" in="SourceGraphic" in2="effect1_dropShadow_137_2" result="shape"/>
</filter>
<filter id="filter2_d_137_2" x="458.805" y="207.347" width="270.401" height="166.116" filterUnits="userSpaceOnUse" color-interpolation-filters="sRGB">
<feFlood flood-opacity="0" result="BackgroundImageFix"/>
<feColorMatrix in="SourceAlpha" type="matrix" values="0 0 0 0 0 0 0 0 0 0 0 0 0 0 0 0 0 0 127 0" result="hardAlpha"/>
<feOffset dy="4"/>
<feGaussianBlur stdDeviation="3.35"/>
<feComposite in2="hardAlpha" operator="out"/>
<feColorMatrix type="matrix" values="0 0 0 0 0.893893 0 0 0 0 0.783885 0 0 0 0 0.86901 0 0 0 1 0"/>
<feBlend mode="multiply" in2="BackgroundImageFix" result="effect1_dropShadow_137_2"/>
<feBlend mode="normal" in="SourceGraphic" in2="effect1_dropShadow_137_2" result="shape"/>
</filter>
<filter id="filter3_d_137_2" x="516.79" y="247.346" width="257.909" height="158.897" filterUnits="userSpaceOnUse" color-interpolation-filters="sRGB">
<feFlood flood-opacity="0" result="BackgroundImageFix"/>
<feColorMatrix in="SourceAlpha" type="matrix" values="0 0 0 0 0 0 0 0 0 0 0 0 0 0 0 0 0 0 127 0" result="hardAlpha"/>
<feOffset dy="4"/>
<feGaussianBlur stdDeviation="3.35"/>
<feComposite in2="hardAlpha" operator="out"/>
<feColorMatrix type="matrix" values="0 0 0 0 0.893893 0 0 0 0 0.783885 0 0 0 0 0.86901 0 0 0 1 0"/>
<feBlend mode="multiply" in2="BackgroundImageFix" result="effect1_dropShadow_137_2"/>
<feBlend mode="normal" in="SourceGraphic" in2="effect1_dropShadow_137_2" result="shape"/>
</filter>
<filter id="filter4_d_137_2" x="575.055" y="287.342" width="246.646" height="152.337" filterUnits="userSpaceOnUse" color-interpolation-filters="sRGB">
<feFlood flood-opacity="0" result="BackgroundImageFix"/>
<feColorMatrix in="SourceAlpha" type="matrix" values="0 0 0 0 0 0 0 0 0 0 0 0 0 0 0 0 0 0 127 0" result="hardAlpha"/>
<feOffset dy="4"/>
<feGaussianBlur stdDeviation="3.35"/>
<feComposite in2="hardAlpha" operator="out"/>
<feColorMatrix type="matrix" values="0 0 0 0 0.893893 0 0 0 0 0.783885 0 0 0 0 0.86901 0 0 0 1 0"/>
<feBlend mode="multiply" in2="BackgroundImageFix" result="effect1_dropShadow_137_2"/>
<feBlend mode="normal" in="SourceGraphic" in2="effect1_dropShadow_137_2" result="shape"/>
</filter>
<filter id="filter5_d_137_2" x="633.159" y="327.34" width="234.536" height="145.325" filterUnits="userSpaceOnUse" color-interpolation-filters="sRGB">
<feFlood flood-opacity="0" result="BackgroundImageFix"/>
<feColorMatrix in="SourceAlpha" type="matrix" values="0 0 0 0 0 0 0 0 0 0 0 0 0 0 0 0 0 0 127 0" result="hardAlpha"/>
<feOffset dy="4"/>
<feGaussianBlur stdDeviation="3.35"/>
<feComposite in2="hardAlpha" operator="out"/>
<feColorMatrix type="matrix" values="0 0 0 0 0.893893 0 0 0 0 0.783885 0 0 0 0 0.86901 0 0 0 1 0"/>
<feBlend mode="multiply" in2="BackgroundImageFix" result="effect1_dropShadow_137_2"/>
<feBlend mode="normal" in="SourceGraphic" in2="effect1_dropShadow_137_2" result="shape"/>
</filter>
<filter id="filter6_d_137_2" x="694.247" y="371.336" width="218.957" height="136.386" filterUnits="userSpaceOnUse" color-interpolation-filters="sRGB">
<feFlood flood-opacity="0" result="BackgroundImageFix"/>
<feColorMatrix in="SourceAlpha" type="matrix" values="0 0 0 0 0 0 0 0 0 0 0 0 0 0 0 0 0 0 127 0" result="hardAlpha"/>
<feOffset dy="4"/>
<feGaussianBlur stdDeviation="3.35"/>
<feComposite in2="hardAlpha" operator="out"/>
<feColorMatrix type="matrix" values="0 0 0 0 0.893893 0 0 0 0 0.783885 0 0 0 0 0.86901 0 0 0 1 0"/>
<feBlend mode="multiply" in2="BackgroundImageFix" result="effect1_dropShadow_137_2"/>
<feBlend mode="normal" in="SourceGraphic" in2="effect1_dropShadow_137_2" result="shape"/>
</filter>
<filter id="filter7_d_137_2" x="753.8" y="413.334" width="203.906" height="127.883" filterUnits="userSpaceOnUse" color-interpolation-filters="sRGB">
<feFlood flood-opacity="0" result="BackgroundImageFix"/>
<feColorMatrix in="SourceAlpha" type="matrix" values="0 0 0 0 0 0 0 0 0 0 0 0 0 0 0 0 0 0 127 0" result="hardAlpha"/>
<feOffset dy="4"/>
<feGaussianBlur stdDeviation="3.35"/>
<feComposite in2="hardAlpha" operator="out"/>
<feColorMatrix type="matrix" values="0 0 0 0 0.893893 0 0 0 0 0.783885 0 0 0 0 0.86901 0 0 0 1 0"/>
<feBlend mode="multiply" in2="BackgroundImageFix" result="effect1_dropShadow_137_2"/>
<feBlend mode="normal" in="SourceGraphic" in2="effect1_dropShadow_137_2" result="shape"/>
</filter>
<filter id="filter8_d_137_2" x="806.304" y="453.329" width="197.39" height="123.847" filterUnits="userSpaceOnUse" color-interpolation-filters="sRGB">
<feFlood flood-opacity="0" result="BackgroundImageFix"/>
<feColorMatrix in="SourceAlpha" type="matrix" values="0 0 0 0 0 0 0 0 0 0 0 0 0 0 0 0 0 0 127 0" result="hardAlpha"/>
<feOffset dy="4"/>
<feGaussianBlur stdDeviation="3.35"/>
<feComposite in2="hardAlpha" operator="out"/>
<feColorMatrix type="matrix" values="0 0 0 0 0.893893 0 0 0 0 0.783885 0 0 0 0 0.86901 0 0 0 1 0"/>
<feBlend mode="multiply" in2="BackgroundImageFix" result="effect1_dropShadow_137_2"/>
<feBlend mode="normal" in="SourceGraphic" in2="effect1_dropShadow_137_2" result="shape"/>
</filter>
<filter id="filter9_di_137_2" x="594" y="136" width="18" height="18" filterUnits="userSpaceOnUse" color-interpolation-filters="sRGB">
<feFlood flood-opacity="0" result="BackgroundImageFix"/>
<feColorMatrix in="SourceAlpha" type="matrix" values="0 0 0 0 0 0 0 0 0 0 0 0 0 0 0 0 0 0 127 0" result="hardAlpha"/>
<feOffset dy="4"/>
<feGaussianBlur stdDeviation="2"/>
<feComposite in2="hardAlpha" operator="out"/>
<feColorMatrix type="matrix" values="0 0 0 0 0.893893 0 0 0 0 0.783885 0 0 0 0 0.86901 0 0 0 0.3 0"/>
<feBlend mode="multiply" in2="BackgroundImageFix" result="effect1_dropShadow_137_2"/>
<feBlend mode="normal" in="SourceGraphic" in2="effect1_dropShadow_137_2" result="shape"/>
<feColorMatrix in="SourceAlpha" type="matrix" values="0 0 0 0 0 0 0 0 0 0 0 0 0 0 0 0 0 0 127 0" result="hardAlpha"/>
<feOffset dy="4"/>
<feGaussianBlur stdDeviation="2"/>
<feComposite in2="hardAlpha" operator="arithmetic" k2="-1" k3="1"/>
<feColorMatrix type="matrix" values="0 0 0 0 0.933333 0 0 0 0 0.72549 0 0 0 0 0.552941 0 0 0 1 0"/>
<feBlend mode="normal" in2="shape" result="effect2_innerShadow_137_2"/>
</filter>
<filter id="filter10_di_137_2" x="380" y="261" width="18" height="18" filterUnits="userSpaceOnUse" color-interpolation-filters="sRGB">
<feFlood flood-opacity="0" result="BackgroundImageFix"/>
<feColorMatrix in="SourceAlpha" type="matrix" values="0 0 0 0 0 0 0 0 0 0 0 0 0 0 0 0 0 0 127 0" result="hardAlpha"/>
<feOffset dy="4"/>
<feGaussianBlur stdDeviation="2"/>
<feComposite in2="hardAlpha" operator="out"/>
<feColorMatrix type="matrix" values="0 0 0 0 0.893893 0 0 0 0 0.783885 0 0 0 0 0.86901 0 0 0 0.3 0"/>
<feBlend mode="multiply" in2="BackgroundImageFix" result="effect1_dropShadow_137_2"/>
<feBlend mode="normal" in="SourceGraphic" in2="effect1_dropShadow_137_2" result="shape"/>
<feColorMatrix in="SourceAlpha" type="matrix" values="0 0 0 0 0 0 0 0 0 0 0 0 0 0 0 0 0 0 127 0" result="hardAlpha"/>
<feOffset dy="4"/>
<feGaussianBlur stdDeviation="2"/>
<feComposite in2="hardAlpha" operator="arithmetic" k2="-1" k3="1"/>
<feColorMatrix type="matrix" values="0 0 0 0 0.933333 0 0 0 0 0.72549 0 0 0 0 0.552941 0 0 0 1 0"/>
<feBlend mode="normal" in2="shape" result="effect2_innerShadow_137_2"/>
</filter>
<filter id="filter11_di_137_2" x="638" y="178" width="18" height="18" filterUnits="userSpaceOnUse" color-interpolation-filters="sRGB">
<feFlood flood-opacity="0" result="BackgroundImageFix"/>
<feColorMatrix in="SourceAlpha" type="matrix" values="0 0 0 0 0 0 0 0 0 0 0 0 0 0 0 0 0 0 127 0" result="hardAlpha"/>
<feOffset dy="4"/>
<feGaussianBlur stdDeviation="2"/>
<feComposite in2="hardAlpha" operator="out"/>
<feColorMatrix type="matrix" values="0 0 0 0 0.893893 0 0 0 0 0.783885 0 0 0 0 0.86901 0 0 0 0.3 0"/>
<feBlend mode="multiply" in2="BackgroundImageFix" result="effect1_dropShadow_137_2"/>
<feBlend mode="normal" in="SourceGraphic" in2="effect1_dropShadow_137_2" result="shape"/>
<feColorMatrix in="SourceAlpha" type="matrix" values="0 0 0 0 0 0 0 0 0 0 0 0 0 0 0 0 0 0 127 0" result="hardAlpha"/>
<feOffset dy="4"/>
<feGaussianBlur stdDeviation="2"/>
<feComposite in2="hardAlpha" operator="arithmetic" k2="-1" k3="1"/>
<feColorMatrix type="matrix" values="0 0 0 0 0.933333 0 0 0 0 0.72549 0 0 0 0 0.552941 0 0 0 1 0"/>
<feBlend mode="normal" in2="shape" result="effect2_innerShadow_137_2"/>
</filter>
<filter id="filter12_di_137_2" x="434" y="294" width="18" height="18" filterUnits="userSpaceOnUse" color-interpolation-filters="sRGB">
<feFlood flood-opacity="0" result="BackgroundImageFix"/>
<feColorMatrix in="SourceAlpha" type="matrix" values="0 0 0 0 0 0 0 0 0 0 0 0 0 0 0 0 0 0 127 0" result="hardAlpha"/>
<feOffset dy="4"/>
<feGaussianBlur stdDeviation="2"/>
<feComposite in2="hardAlpha" operator="out"/>
<feColorMatrix type="matrix" values="0 0 0 0 0.893893 0 0 0 0 0.783885 0 0 0 0 0.86901 0 0 0 0.3 0"/>
<feBlend mode="multiply" in2="BackgroundImageFix" result="effect1_dropShadow_137_2"/>
<feBlend mode="normal" in="SourceGraphic" in2="effect1_dropShadow_137_2" result="shape"/>
<feColorMatrix in="SourceAlpha" type="matrix" values="0 0 0 0 0 0 0 0 0 0 0 0 0 0 0 0 0 0 127 0" result="hardAlpha"/>
<feOffset dy="4"/>
<feGaussianBlur stdDeviation="2"/>
<feComposite in2="hardAlpha" operator="arithmetic" k2="-1" k3="1"/>
<feColorMatrix type="matrix" values="0 0 0 0 0.933333 0 0 0 0 0.72549 0 0 0 0 0.552941 0 0 0 1 0"/>
<feBlend mode="normal" in2="shape" result="effect2_innerShadow_137_2"/>
</filter>
<filter id="filter13_di_137_2" x="684" y="220" width="18" height="18" filterUnits="userSpaceOnUse" color-interpolation-filters="sRGB">
<feFlood flood-opacity="0" result="BackgroundImageFix"/>
<feColorMatrix in="SourceAlpha" type="matrix" values="0 0 0 0 0 0 0 0 0 0 0 0 0 0 0 0 0 0 127 0" result="hardAlpha"/>
<feOffset dy="4"/>
<feGaussianBlur stdDeviation="2"/>
<feComposite in2="hardAlpha" operator="out"/>
<feColorMatrix type="matrix" values="0 0 0 0 0.893893 0 0 0 0 0.783885 0 0 0 0 0.86901 0 0 0 0.3 0"/>
<feBlend mode="multiply" in2="BackgroundImageFix" result="effect1_dropShadow_137_2"/>
<feBlend mode="normal" in="SourceGraphic" in2="effect1_dropShadow_137_2" result="shape"/>
<feColorMatrix in="SourceAlpha" type="matrix" values="0 0 0 0 0 0 0 0 0 0 0 0 0 0 0 0 0 0 127 0" result="hardAlpha"/>
<feOffset dy="4"/>
<feGaussianBlur stdDeviation="2"/>
<feComposite in2="hardAlpha" operator="arithmetic" k2="-1" k3="1"/>
<feColorMatrix type="matrix" values="0 0 0 0 0.933333 0 0 0 0 0.72549 0 0 0 0 0.552941 0 0 0 1 0"/>
<feBlend mode="normal" in2="shape" result="effect2_innerShadow_137_2"/>
</filter>
<filter id="filter14_di_137_2" x="493" y="329" width="18" height="18" filterUnits="userSpaceOnUse" color-interpolation-filters="sRGB">
<feFlood flood-opacity="0" result="BackgroundImageFix"/>
<feColorMatrix in="SourceAlpha" type="matrix" values="0 0 0 0 0 0 0 0 0 0 0 0 0 0 0 0 0 0 127 0" result="hardAlpha"/>
<feOffset dy="4"/>
<feGaussianBlur stdDeviation="2"/>
<feComposite in2="hardAlpha" operator="out"/>
<feColorMatrix type="matrix" values="0 0 0 0 0.893893 0 0 0 0 0.783885 0 0 0 0 0.86901 0 0 0 0.3 0"/>
<feBlend mode="multiply" in2="BackgroundImageFix" result="effect1_dropShadow_137_2"/>
<feBlend mode="normal" in="SourceGraphic" in2="effect1_dropShadow_137_2" result="shape"/>
<feColorMatrix in="SourceAlpha" type="matrix" values="0 0 0 0 0 0 0 0 0 0 0 0 0 0 0 0 0 0 127 0" result="hardAlpha"/>
<feOffset dy="4"/>
<feGaussianBlur stdDeviation="2"/>
<feComposite in2="hardAlpha" operator="arithmetic" k2="-1" k3="1"/>
<feColorMatrix type="matrix" values="0 0 0 0 0.933333 0 0 0 0 0.72549 0 0 0 0 0.552941 0 0 0 1 0"/>
<feBlend mode="normal" in2="shape" result="effect2_innerShadow_137_2"/>
</filter>
<filter id="filter15_di_137_2" x="730" y="260" width="18" height="18" filterUnits="userSpaceOnUse" color-interpolation-filters="sRGB">
<feFlood flood-opacity="0" result="BackgroundImageFix"/>
<feColorMatrix in="SourceAlpha" type="matrix" values="0 0 0 0 0 0 0 0 0 0 0 0 0 0 0 0 0 0 127 0" result="hardAlpha"/>
<feOffset dy="4"/>
<feGaussianBlur stdDeviation="2"/>
<feComposite in2="hardAlpha" operator="out"/>
<feColorMatrix type="matrix" values="0 0 0 0 0.893893 0 0 0 0 0.783885 0 0 0 0 0.86901 0 0 0 0.3 0"/>
<feBlend mode="multiply" in2="BackgroundImageFix" result="effect1_dropShadow_137_2"/>
<feBlend mode="normal" in="SourceGraphic" in2="effect1_dropShadow_137_2" result="shape"/>
<feColorMatrix in="SourceAlpha" type="matrix" values="0 0 0 0 0 0 0 0 0 0 0 0 0 0 0 0 0 0 127 0" result="hardAlpha"/>
<feOffset dy="4"/>
<feGaussianBlur stdDeviation="2"/>
<feComposite in2="hardAlpha" operator="arithmetic" k2="-1" k3="1"/>
<feColorMatrix type="matrix" values="0 0 0 0 0.933333 0 0 0 0 0.72549 0 0 0 0 0.552941 0 0 0 1 0"/>
<feBlend mode="normal" in2="shape" result="effect2_innerShadow_137_2"/>
</filter>
<filter id="filter16_di_137_2" x="549" y="362" width="18" height="18" filterUnits="userSpaceOnUse" color-interpolation-filters="sRGB">
<feFlood flood-opacity="0" result="BackgroundImageFix"/>
<feColorMatrix in="SourceAlpha" type="matrix" values="0 0 0 0 0 0 0 0 0 0 0 0 0 0 0 0 0 0 127 0" result="hardAlpha"/>
<feOffset dy="4"/>
<feGaussianBlur stdDeviation="2"/>
<feComposite in2="hardAlpha" operator="out"/>
<feColorMatrix type="matrix" values="0 0 0 0 0.893893 0 0 0 0 0.783885 0 0 0 0 0.86901 0 0 0 0.3 0"/>
<feBlend mode="multiply" in2="BackgroundImageFix" result="effect1_dropShadow_137_2"/>
<feBlend mode="normal" in="SourceGraphic" in2="effect1_dropShadow_137_2" result="shape"/>
<feColorMatrix in="SourceAlpha" type="matrix" values="0 0 0 0 0 0 0 0 0 0 0 0 0 0 0 0 0 0 127 0" result="hardAlpha"/>
<feOffset dy="4"/>
<feGaussianBlur stdDeviation="2"/>
<feComposite in2="hardAlpha" operator="arithmetic" k2="-1" k3="1"/>
<feColorMatrix type="matrix" values="0 0 0 0 0.933333 0 0 0 0 0.72549 0 0 0 0 0.552941 0 0 0 1 0"/>
<feBlend mode="normal" in2="shape" result="effect2_innerShadow_137_2"/>
</filter>
<filter id="filter17_di_137_2" x="779" y="299" width="18" height="18" filterUnits="userSpaceOnUse" color-interpolation-filters="sRGB">
<feFlood flood-opacity="0" result="BackgroundImageFix"/>
<feColorMatrix in="SourceAlpha" type="matrix" values="0 0 0 0 0 0 0 0 0 0 0 0 0 0 0 0 0 0 127 0" result="hardAlpha"/>
<feOffset dy="4"/>
<feGaussianBlur stdDeviation="2"/>
<feComposite in2="hardAlpha" operator="out"/>
<feColorMatrix type="matrix" values="0 0 0 0 0.893893 0 0 0 0 0.783885 0 0 0 0 0.86901 0 0 0 0.3 0"/>
<feBlend mode="multiply" in2="BackgroundImageFix" result="effect1_dropShadow_137_2"/>
<feBlend mode="normal" in="SourceGraphic" in2="effect1_dropShadow_137_2" result="shape"/>
<feColorMatrix in="SourceAlpha" type="matrix" values="0 0 0 0 0 0 0 0 0 0 0 0 0 0 0 0 0 0 127 0" result="hardAlpha"/>
<feOffset dy="4"/>
<feGaussianBlur stdDeviation="2"/>
<feComposite in2="hardAlpha" operator="arithmetic" k2="-1" k3="1"/>
<feColorMatrix type="matrix" values="0 0 0 0 0.933333 0 0 0 0 0.72549 0 0 0 0 0.552941 0 0 0 1 0"/>
<feBlend mode="normal" in2="shape" result="effect2_innerShadow_137_2"/>
</filter>
<filter id="filter18_di_137_2" x="606" y="396" width="18" height="18" filterUnits="userSpaceOnUse" color-interpolation-filters="sRGB">
<feFlood flood-opacity="0" result="BackgroundImageFix"/>
<feColorMatrix in="SourceAlpha" type="matrix" values="0 0 0 0 0 0 0 0 0 0 0 0 0 0 0 0 0 0 127 0" result="hardAlpha"/>
<feOffset dy="4"/>
<feGaussianBlur stdDeviation="2"/>
<feComposite in2="hardAlpha" operator="out"/>
<feColorMatrix type="matrix" values="0 0 0 0 0.893893 0 0 0 0 0.783885 0 0 0 0 0.86901 0 0 0 0.3 0"/>
<feBlend mode="multiply" in2="BackgroundImageFix" result="effect1_dropShadow_137_2"/>
<feBlend mode="normal" in="SourceGraphic" in2="effect1_dropShadow_137_2" result="shape"/>
<feColorMatrix in="SourceAlpha" type="matrix" values="0 0 0 0 0 0 0 0 0 0 0 0 0 0 0 0 0 0 127 0" result="hardAlpha"/>
<feOffset dy="4"/>
<feGaussianBlur stdDeviation="2"/>
<feComposite in2="hardAlpha" operator="arithmetic" k2="-1" k3="1"/>
<feColorMatrix type="matrix" values="0 0 0 0 0.933333 0 0 0 0 0.72549 0 0 0 0 0.552941 0 0 0 1 0"/>
<feBlend mode="normal" in2="shape" result="effect2_innerShadow_137_2"/>
</filter>
<filter id="filter19_di_137_2" x="824" y="339" width="18" height="18" filterUnits="userSpaceOnUse" color-interpolation-filters="sRGB">
<feFlood flood-opacity="0" result="BackgroundImageFix"/>
<feColorMatrix in="SourceAlpha" type="matrix" values="0 0 0 0 0 0 0 0 0 0 0 0 0 0 0 0 0 0 127 0" result="hardAlpha"/>
<feOffset dy="4"/>
<feGaussianBlur stdDeviation="2"/>
<feComposite in2="hardAlpha" operator="out"/>
<feColorMatrix type="matrix" values="0 0 0 0 0.893893 0 0 0 0 0.783885 0 0 0 0 0.86901 0 0 0 0.3 0"/>
<feBlend mode="multiply" in2="BackgroundImageFix" result="effect1_dropShadow_137_2"/>
<feBlend mode="normal" in="SourceGraphic" in2="effect1_dropShadow_137_2" result="shape"/>
<feColorMatrix in="SourceAlpha" type="matrix" values="0 0 0 0 0 0 0 0 0 0 0 0 0 0 0 0 0 0 127 0" result="hardAlpha"/>
<feOffset dy="4"/>
<feGaussianBlur stdDeviation="2"/>
<feComposite in2="hardAlpha" operator="arithmetic" k2="-1" k3="1"/>
<feColorMatrix type="matrix" values="0 0 0 0 0.933333 0 0 0 0 0.72549 0 0 0 0 0.552941 0 0 0 1 0"/>
<feBlend mode="normal" in2="shape" result="effect2_innerShadow_137_2"/>
</filter>
<filter id="filter20_di_137_2" x="665" y="429" width="18" height="18" filterUnits="userSpaceOnUse" color-interpolation-filters="sRGB">
<feFlood flood-opacity="0" result="BackgroundImageFix"/>
<feColorMatrix in="SourceAlpha" type="matrix" values="0 0 0 0 0 0 0 0 0 0 0 0 0 0 0 0 0 0 127 0" result="hardAlpha"/>
<feOffset dy="4"/>
<feGaussianBlur stdDeviation="2"/>
<feComposite in2="hardAlpha" operator="out"/>
<feColorMatrix type="matrix" values="0 0 0 0 0.893893 0 0 0 0 0.783885 0 0 0 0 0.86901 0 0 0 0.3 0"/>
<feBlend mode="multiply" in2="BackgroundImageFix" result="effect1_dropShadow_137_2"/>
<feBlend mode="normal" in="SourceGraphic" in2="effect1_dropShadow_137_2" result="shape"/>
<feColorMatrix in="SourceAlpha" type="matrix" values="0 0 0 0 0 0 0 0 0 0 0 0 0 0 0 0 0 0 127 0" result="hardAlpha"/>
<feOffset dy="4"/>
<feGaussianBlur stdDeviation="2"/>
<feComposite in2="hardAlpha" operator="arithmetic" k2="-1" k3="1"/>
<feColorMatrix type="matrix" values="0 0 0 0 0.933333 0 0 0 0 0.72549 0 0 0 0 0.552941 0 0 0 1 0"/>
<feBlend mode="normal" in2="shape" result="effect2_innerShadow_137_2"/>
</filter>
<filter id="filter21_di_137_2" x="870" y="383" width="18" height="18" filterUnits="userSpaceOnUse" color-interpolation-filters="sRGB">
<feFlood flood-opacity="0" result="BackgroundImageFix"/>
<feColorMatrix in="SourceAlpha" type="matrix" values="0 0 0 0 0 0 0 0 0 0 0 0 0 0 0 0 0 0 127 0" result="hardAlpha"/>
<feOffset dy="4"/>
<feGaussianBlur stdDeviation="2"/>
<feComposite in2="hardAlpha" operator="out"/>
<feColorMatrix type="matrix" values="0 0 0 0 0.893893 0 0 0 0 0.783885 0 0 0 0 0.86901 0 0 0 0.3 0"/>
<feBlend mode="multiply" in2="BackgroundImageFix" result="effect1_dropShadow_137_2"/>
<feBlend mode="normal" in="SourceGraphic" in2="effect1_dropShadow_137_2" result="shape"/>
<feColorMatrix in="SourceAlpha" type="matrix" values="0 0 0 0 0 0 0 0 0 0 0 0 0 0 0 0 0 0 127 0" result="hardAlpha"/>
<feOffset dy="4"/>
<feGaussianBlur stdDeviation="2"/>
<feComposite in2="hardAlpha" operator="arithmetic" k2="-1" k3="1"/>
<feColorMatrix type="matrix" values="0 0 0 0 0.933333 0 0 0 0 0.72549 0 0 0 0 0.552941 0 0 0 1 0"/>
<feBlend mode="normal" in2="shape" result="effect2_innerShadow_137_2"/>
</filter>
<filter id="filter22_di_137_2" x="725" y="462" width="18" height="18" filterUnits="userSpaceOnUse" color-interpolation-filters="sRGB">
<feFlood flood-opacity="0" result="BackgroundImageFix"/>
<feColorMatrix in="SourceAlpha" type="matrix" values="0 0 0 0 0 0 0 0 0 0 0 0 0 0 0 0 0 0 127 0" result="hardAlpha"/>
<feOffset dy="4"/>
<feGaussianBlur stdDeviation="2"/>
<feComposite in2="hardAlpha" operator="out"/>
<feColorMatrix type="matrix" values="0 0 0 0 0.893893 0 0 0 0 0.783885 0 0 0 0 0.86901 0 0 0 0.3 0"/>
<feBlend mode="multiply" in2="BackgroundImageFix" result="effect1_dropShadow_137_2"/>
<feBlend mode="normal" in="SourceGraphic" in2="effect1_dropShadow_137_2" result="shape"/>
<feColorMatrix in="SourceAlpha" type="matrix" values="0 0 0 0 0 0 0 0 0 0 0 0 0 0 0 0 0 0 127 0" result="hardAlpha"/>
<feOffset dy="4"/>
<feGaussianBlur stdDeviation="2"/>
<feComposite in2="hardAlpha" operator="arithmetic" k2="-1" k3="1"/>
<feColorMatrix type="matrix" values="0 0 0 0 0.933333 0 0 0 0 0.72549 0 0 0 0 0.552941 0 0 0 1 0"/>
<feBlend mode="normal" in2="shape" result="effect2_innerShadow_137_2"/>
</filter>
<filter id="filter23_di_137_2" x="914" y="425" width="18" height="18" filterUnits="userSpaceOnUse" color-interpolation-filters="sRGB">
<feFlood flood-opacity="0" result="BackgroundImageFix"/>
<feColorMatrix in="SourceAlpha" type="matrix" values="0 0 0 0 0 0 0 0 0 0 0 0 0 0 0 0 0 0 127 0" result="hardAlpha"/>
<feOffset dy="4"/>
<feGaussianBlur stdDeviation="2"/>
<feComposite in2="hardAlpha" operator="out"/>
<feColorMatrix type="matrix" values="0 0 0 0 0.893893 0 0 0 0 0.783885 0 0 0 0 0.86901 0 0 0 0.3 0"/>
<feBlend mode="multiply" in2="BackgroundImageFix" result="effect1_dropShadow_137_2"/>
<feBlend mode="normal" in="SourceGraphic" in2="effect1_dropShadow_137_2" result="shape"/>
<feColorMatrix in="SourceAlpha" type="matrix" values="0 0 0 0 0 0 0 0 0 0 0 0 0 0 0 0 0 0 127 0" result="hardAlpha"/>
<feOffset dy="4"/>
<feGaussianBlur stdDeviation="2"/>
<feComposite in2="hardAlpha" operator="arithmetic" k2="-1" k3="1"/>
<feColorMatrix type="matrix" values="0 0 0 0 0.933333 0 0 0 0 0.72549 0 0 0 0 0.552941 0 0 0 1 0"/>
<feBlend mode="normal" in2="shape" result="effect2_innerShadow_137_2"/>
</filter>
<filter id="filter24_di_137_2" x="784" y="497" width="18" height="18" filterUnits="userSpaceOnUse" color-interpolation-filters="sRGB">
<feFlood flood-opacity="0" result="BackgroundImageFix"/>
<feColorMatrix in="SourceAlpha" type="matrix" values="0 0 0 0 0 0 0 0 0 0 0 0 0 0 0 0 0 0 127 0" result="hardAlpha"/>
<feOffset dy="4"/>
<feGaussianBlur stdDeviation="2"/>
<feComposite in2="hardAlpha" operator="out"/>
<feColorMatrix type="matrix" values="0 0 0 0 0.893893 0 0 0 0 0.783885 0 0 0 0 0.86901 0 0 0 0.3 0"/>
<feBlend mode="multiply" in2="BackgroundImageFix" result="effect1_dropShadow_137_2"/>
<feBlend mode="normal" in="SourceGraphic" in2="effect1_dropShadow_137_2" result="shape"/>
<feColorMatrix in="SourceAlpha" type="matrix" values="0 0 0 0 0 0 0 0 0 0 0 0 0 0 0 0 0 0 127 0" result="hardAlpha"/>
<feOffset dy="4"/>
<feGaussianBlur stdDeviation="2"/>
<feComposite in2="hardAlpha" operator="arithmetic" k2="-1" k3="1"/>
<feColorMatrix type="matrix" values="0 0 0 0 0.933333 0 0 0 0 0.72549 0 0 0 0 0.552941 0 0 0 1 0"/>
<feBlend mode="normal" in2="shape" result="effect2_innerShadow_137_2"/>
</filter>
<filter id="filter25_di_137_2" x="959" y="466" width="18" height="18" filterUnits="userSpaceOnUse" color-interpolation-filters="sRGB">
<feFlood flood-opacity="0" result="BackgroundImageFix"/>
<feColorMatrix in="SourceAlpha" type="matrix" values="0 0 0 0 0 0 0 0 0 0 0 0 0 0 0 0 0 0 127 0" result="hardAlpha"/>
<feOffset dy="4"/>
<feGaussianBlur stdDeviation="2"/>
<feComposite in2="hardAlpha" operator="out"/>
<feColorMatrix type="matrix" values="0 0 0 0 0.893893 0 0 0 0 0.783885 0 0 0 0 0.86901 0 0 0 0.3 0"/>
<feBlend mode="multiply" in2="BackgroundImageFix" result="effect1_dropShadow_137_2"/>
<feBlend mode="normal" in="SourceGraphic" in2="effect1_dropShadow_137_2" result="shape"/>
<feColorMatrix in="SourceAlpha" type="matrix" values="0 0 0 0 0 0 0 0 0 0 0 0 0 0 0 0 0 0 127 0" result="hardAlpha"/>
<feOffset dy="4"/>
<feGaussianBlur stdDeviation="2"/>
<feComposite in2="hardAlpha" operator="arithmetic" k2="-1" k3="1"/>
<feColorMatrix type="matrix" values="0 0 0 0 0.933333 0 0 0 0 0.72549 0 0 0 0 0.552941 0 0 0 1 0"/>
<feBlend mode="normal" in2="shape" result="effect2_innerShadow_137_2"/>
</filter>
<filter id="filter26_di_137_2" x="839" y="533" width="18" height="18" filterUnits="userSpaceOnUse" color-interpolation-filters="sRGB">
<feFlood flood-opacity="0" result="BackgroundImageFix"/>
<feColorMatrix in="SourceAlpha" type="matrix" values="0 0 0 0 0 0 0 0 0 0 0 0 0 0 0 0 0 0 127 0" result="hardAlpha"/>
<feOffset dy="4"/>
<feGaussianBlur stdDeviation="2"/>
<feComposite in2="hardAlpha" operator="out"/>
<feColorMatrix type="matrix" values="0 0 0 0 0.893893 0 0 0 0 0.783885 0 0 0 0 0.86901 0 0 0 0.3 0"/>
<feBlend mode="multiply" in2="BackgroundImageFix" result="effect1_dropShadow_137_2"/>
<feBlend mode="normal" in="SourceGraphic" in2="effect1_dropShadow_137_2" result="shape"/>
<feColorMatrix in="SourceAlpha" type="matrix" values="0 0 0 0 0 0 0 0 0 0 0 0 0 0 0 0 0 0 127 0" result="hardAlpha"/>
<feOffset dy="4"/>
<feGaussianBlur stdDeviation="2"/>
<feComposite in2="hardAlpha" operator="arithmetic" k2="-1" k3="1"/>
<feColorMatrix type="matrix" values="0 0 0 0 0.933333 0 0 0 0 0.72549 0 0 0 0 0.552941 0 0 0 1 0"/>
<feBlend mode="normal" in2="shape" result="effect2_innerShadow_137_2"/>
</filter>
<filter id="filter27_d_137_2" x="237.098" y="212.692" width="344.555" height="117.126" filterUnits="userSpaceOnUse" color-interpolation-filters="sRGB">
<feFlood flood-opacity="0" result="BackgroundImageFix"/>
<feColorMatrix in="SourceAlpha" type="matrix" values="0 0 0 0 0 0 0 0 0 0 0 0 0 0 0 0 0 0 127 0" result="hardAlpha"/>
<feOffset dx="-3" dy="7"/>
<feGaussianBlur stdDeviation="4.45"/>
<feComposite in2="hardAlpha" operator="out"/>
<feColorMatrix type="matrix" values="0 0 0 0 0.893893 0 0 0 0 0.783885 0 0 0 0 0.86901 0 0 0 1 0"/>
<feBlend mode="multiply" in2="BackgroundImageFix" result="effect1_dropShadow_137_2"/>
<feBlend mode="normal" in="SourceGraphic" in2="effect1_dropShadow_137_2" result="shape"/>
</filter>
<filter id="filter28_i_137_2" x="248.998" y="214.592" width="293.806" height="90.0002" filterUnits="userSpaceOnUse" color-interpolation-filters="sRGB">
<feFlood flood-opacity="0" result="BackgroundImageFix"/>
<feBlend mode="normal" in="SourceGraphic" in2="BackgroundImageFix" result="shape"/>
<feColorMatrix in="SourceAlpha" type="matrix" values="0 0 0 0 0 0 0 0 0 0 0 0 0 0 0 0 0 0 127 0" result="hardAlpha"/>
<feOffset dx="5" dy="12"/>
<feGaussianBlur stdDeviation="5.9"/>
<feComposite in2="hardAlpha" operator="arithmetic" k2="-1" k3="1"/>
<feColorMatrix type="matrix" values="0 0 0 0 0.933333 0 0 0 0 0.72549 0 0 0 0 0.552941 0 0 0 1 0"/>
<feBlend mode="normal" in2="shape" result="effect1_innerShadow_137_2"/>
</filter>
<linearGradient id="paint0_linear_137_2" x1="638.91" y1="745.019" x2="638.91" y2="-25.6886" gradientUnits="userSpaceOnUse">
<stop stop-color="#C0B4E5"/>
<stop offset="0.25" stop-color="#BA9BE5"/>
<stop offset="1" stop-color="#7568C5"/>
</linearGradient>
<radialGradient id="paint1_radial_137_2" cx="0" cy="0" r="1" gradientUnits="userSpaceOnUse" gradientTransform="translate(538.369 269.384) rotate(65.1795) scale(57.2923)">
<stop stop-color="#EEBA8D"/>
<stop offset="1" stop-color="#C97A59"/>
</radialGradient>
<clipPath id="clip0_137_2">
<rect width="1280" height="720" fill="white"/>
</clipPath>
</defs>
</svg>
