<svg width="1280" height="720" viewBox="0 0 1280 720" fill="none" xmlns="http://www.w3.org/2000/svg">
<rect width="1280" height="720" fill="white"/>
<rect x="116" y="410" width="48" height="149" fill="#FFC93C"/>
<path fill-rule="evenodd" clip-rule="evenodd" d="M301 569.5C306.039 569.5 310.872 567.498 314.435 563.935C317.998 560.372 320 555.539 320 550.5V417.5C320 412.461 317.998 407.628 314.435 404.065C310.872 400.502 306.039 398.5 301 398.5H120.5C115.461 398.5 110.628 400.502 107.065 404.065C103.502 407.628 101.5 412.461 101.5 417.5V550.5C101.5 555.539 103.502 560.372 107.065 563.935C110.628 567.498 115.461 569.5 120.5 569.5H301ZM196.5 417.5H177.357V493.5H167.857V550.5H206V493.5H196.5V417.5ZM263.142 550.5H301V417.5H272.642V493.5H263.142V550.5ZM253.642 493.5H244.142V417.5H225V493.5H215.5V550.5H253.642V493.5ZM158.358 550.5V493.5H148.858V417.5H120.5V550.5H158.358Z" fill="#1A3567"/>
<path fill-rule="evenodd" clip-rule="evenodd" d="M242.189 364.793L223.044 369.642L218.098 350.525L225.42 354.861L252.974 308.337L262.426 313.935L234.872 360.46L242.189 364.793Z" fill="#FFC93C"/>
<path fill-rule="evenodd" clip-rule="evenodd" d="M389.555 364.793L408.7 369.642L413.646 350.525L406.324 354.861L378.77 308.337L369.318 313.935L396.872 360.46L389.555 364.793Z" fill="#FFC93C"/>
<path d="M491.918 498.987C491.918 520.511 474.469 537.959 452.945 537.959C431.421 537.959 413.973 520.511 413.973 498.987C436.848 454.507 424.987 448.576 452.945 448.576C483.446 448.576 480.904 470.181 491.918 498.987Z" fill="#FFC93C"/>
<path fill-rule="evenodd" clip-rule="evenodd" d="M452.717 550.779C451.716 550.779 450.757 551.177 450.048 551.884C449.34 552.591 448.942 553.551 448.94 554.552V576.362C448.976 577.339 449.389 578.264 450.093 578.943C450.797 579.622 451.737 580.001 452.715 580.001C453.693 580.001 454.632 579.622 455.336 578.943C456.04 578.264 456.454 577.339 456.49 576.362V554.552C456.488 553.551 456.09 552.593 455.383 551.886C454.676 551.178 453.717 550.781 452.717 550.779Z" fill="#1A3567"/>
<path fill-rule="evenodd" clip-rule="evenodd" d="M378.772 506.848H400.582C401.56 506.812 402.485 506.399 403.163 505.695C403.842 504.991 404.221 504.051 404.221 503.074C404.221 502.096 403.842 501.156 403.163 500.452C402.485 499.748 401.56 499.335 400.582 499.299H378.772C377.795 499.335 376.87 499.748 376.191 500.452C375.512 501.156 375.133 502.096 375.133 503.074C375.133 504.051 375.512 504.991 376.191 505.695C376.87 506.399 377.795 506.812 378.772 506.848Z" fill="#1A3567"/>
<path fill-rule="evenodd" clip-rule="evenodd" d="M504.847 506.848H526.658C527.635 506.812 528.56 506.399 529.239 505.695C529.917 504.991 530.297 504.051 530.297 503.074C530.297 502.096 529.917 501.156 529.239 500.452C528.56 499.748 527.635 499.335 526.658 499.299H504.847C503.87 499.335 502.945 499.748 502.266 500.452C501.588 501.156 501.209 502.096 501.209 503.074C501.209 504.051 501.588 504.991 502.266 505.695C502.945 506.399 503.87 506.812 504.847 506.848Z" fill="#1A3567"/>
<path fill-rule="evenodd" clip-rule="evenodd" d="M405.406 523.454L376.736 541.858C376.319 542.126 375.958 542.474 375.675 542.881C375.392 543.288 375.192 543.748 375.087 544.232C374.981 544.717 374.972 545.217 375.06 545.706C375.148 546.194 375.331 546.66 375.599 547.077C375.867 547.495 376.215 547.855 376.622 548.138C377.029 548.421 377.488 548.621 377.973 548.727C378.458 548.832 378.958 548.842 379.446 548.754C379.935 548.666 380.401 548.483 380.818 548.215L409.487 529.811C410.33 529.269 410.924 528.415 411.137 527.437C411.35 526.458 411.166 525.434 410.625 524.592C410.083 523.749 409.229 523.155 408.25 522.942C407.272 522.729 406.248 522.913 405.406 523.454Z" fill="#1A3567"/>
<path fill-rule="evenodd" clip-rule="evenodd" d="M429.146 543.762C428.309 543.214 427.289 543.02 426.31 543.223C425.331 543.426 424.471 544.009 423.921 544.844L413.889 560.11C413.371 560.947 413.2 561.953 413.412 562.914C413.624 563.875 414.203 564.715 415.026 565.255C415.848 565.796 416.849 565.994 417.815 565.808C418.782 565.622 419.637 565.065 420.2 564.258L430.232 548.992C430.782 548.155 430.976 547.134 430.774 546.153C430.571 545.172 429.982 544.313 429.146 543.762Z" fill="#1A3567"/>
<path fill-rule="evenodd" clip-rule="evenodd" d="M531.75 541.853L503.081 523.45C502.238 522.92 501.22 522.745 500.249 522.962C499.278 523.179 498.431 523.77 497.894 524.607C497.356 525.445 497.17 526.46 497.377 527.434C497.584 528.407 498.167 529.26 498.999 529.806L527.668 548.21C528.511 548.751 529.535 548.935 530.513 548.722C531.492 548.509 532.346 547.915 532.887 547.073C533.429 546.23 533.613 545.206 533.399 544.227C533.186 543.249 532.593 542.395 531.75 541.853Z" fill="#1A3567"/>
<path fill-rule="evenodd" clip-rule="evenodd" d="M484.565 544.844C484.293 544.43 483.942 544.074 483.532 543.796C483.122 543.517 482.661 543.323 482.175 543.222C481.69 543.122 481.19 543.119 480.703 543.212C480.216 543.305 479.752 543.493 479.338 543.765C478.924 544.038 478.568 544.389 478.29 544.799C478.012 545.209 477.817 545.67 477.717 546.155C477.616 546.641 477.613 547.141 477.706 547.628C477.799 548.115 477.987 548.578 478.259 548.992L488.292 564.258C488.854 565.066 489.71 565.622 490.676 565.809C491.642 565.995 492.643 565.797 493.466 565.256C494.288 564.715 494.867 563.875 495.079 562.914C495.291 561.953 495.12 560.947 494.602 560.111L484.57 544.844H484.565Z" fill="#1A3567"/>
<path fill-rule="evenodd" clip-rule="evenodd" d="M477.515 502.848C475.624 501.996 473.386 502.839 472.526 504.731C472.514 504.764 471.052 507.92 468.072 510.901C465.036 513.936 461.851 515.556 461.805 515.581C459.943 516.508 459.183 518.771 460.106 520.633C460.418 521.264 460.9 521.795 461.499 522.166C462.097 522.538 462.788 522.734 463.492 522.733C464.055 522.733 464.627 522.608 465.162 522.34C465.337 522.253 469.449 520.199 473.407 516.241C477.419 512.229 479.336 508 479.415 507.82C480.262 505.92 479.415 503.704 477.515 502.848Z" fill="#1A3567"/>
<path fill-rule="evenodd" clip-rule="evenodd" d="M477.473 451.822H479.406C480.542 451.822 481.619 451.309 482.337 450.428C482.691 449.993 482.944 449.484 483.076 448.938C483.208 448.393 483.217 447.825 483.101 447.276L476.467 415.563C476.29 414.715 475.825 413.953 475.153 413.406C474.48 412.86 473.639 412.561 472.772 412.561H471.261C469.407 409.86 465.404 405.731 457.855 404.742V391.774C457.855 389.691 456.165 388 454.081 388C451.998 388 450.307 389.691 450.307 391.774V404.842C443.16 405.969 439.352 409.923 437.574 412.565H436.091C434.305 412.565 432.764 413.818 432.397 415.567L425.763 447.28C425.529 448.395 425.809 449.551 426.527 450.432C426.881 450.867 427.328 451.218 427.835 451.459C428.342 451.701 428.896 451.826 429.457 451.826H430.647C429.85 460.573 426.264 465.299 422.185 470.668C417.095 477.365 411.326 484.955 411.326 500.661C411.326 509.558 415.651 519.577 422.899 527.46C431.232 536.523 442.308 541.517 454.081 541.517C477.428 541.517 497.154 521.936 497.154 498.757C497.154 487.284 491.731 479.068 486.491 471.119C482.404 464.919 478.517 459.012 477.473 451.826V451.822ZM439.16 420.109H439.782C441.356 420.109 442.746 419.183 443.297 417.709C443.393 417.479 445.719 412.069 454.39 412.069C463.062 412.069 465.483 417.508 465.567 417.709C465.843 418.416 466.326 419.024 466.954 419.452C467.581 419.88 468.322 420.109 469.082 420.109H469.704L474.76 444.274H434.104L439.16 420.109ZM454.085 533.964C432.593 533.964 418.878 514.238 418.878 500.657C418.878 487.076 423.404 481.54 428.197 475.231C432.718 469.282 437.381 463.149 438.229 451.818H450.307V465.128H446.491C445.941 465.128 445.397 465.248 444.898 465.481C444.399 465.713 443.957 466.051 443.602 466.472C443.247 466.893 442.989 467.387 442.845 467.918C442.702 468.45 442.677 469.007 442.771 469.549L447.706 497.901C448.023 499.738 449.618 501.028 451.422 501.028C451.635 501.028 451.856 501.011 452.073 500.974C452.565 500.889 453.034 500.707 453.455 500.439C453.876 500.171 454.239 499.822 454.524 499.412C454.819 499.838 455.2 500.197 455.641 500.469C456.082 500.741 456.574 500.918 457.087 500.991C459.137 501.283 461.062 499.851 461.358 497.788L465.408 469.436C465.562 468.351 465.241 467.257 464.523 466.43C464.168 466.022 463.73 465.694 463.238 465.469C462.747 465.245 462.212 465.128 461.671 465.128H457.855V451.818H469.846C470.877 461.153 475.603 468.317 480.187 475.269C485.03 482.608 489.606 489.543 489.606 498.749C489.606 517.502 473.006 533.956 454.081 533.956L454.085 533.964ZM457.321 472.684L454.465 492.682L450.983 472.684H457.321Z" fill="#1A3567"/>
<path d="M438.119 417.229L454.216 406.215L471.161 417.229L480.057 449H430.917L438.119 417.229Z" fill="#1A3567"/>
<rect x="895" y="413" width="56" height="149" fill="#CE393C"/>
<path fill-rule="evenodd" clip-rule="evenodd" d="M940 569.5C945.039 569.5 949.872 567.498 953.435 563.935C956.998 560.372 959 555.539 959 550.5V417.5C959 412.461 956.998 407.628 953.435 404.065C949.872 400.502 945.039 398.5 940 398.5H759.5C754.461 398.5 749.628 400.502 746.065 404.065C742.502 407.628 740.5 412.461 740.5 417.5V550.5C740.5 555.539 742.502 560.372 746.065 563.935C749.628 567.498 754.461 569.5 759.5 569.5H940ZM835.5 417.5H816.357V493.5H806.857V550.5H845V493.5H835.5V417.5ZM902.142 550.5H940V417.5H911.642V493.5H902.142V550.5ZM892.642 493.5H883.142V417.5H864V493.5H854.5V550.5H892.642V493.5ZM797.358 550.5V493.5H787.858V417.5H759.5V550.5H797.358Z" fill="#1A3567"/>
<path fill-rule="evenodd" clip-rule="evenodd" d="M901.189 364.793L882.044 369.642L877.098 350.525L884.42 354.861L911.974 308.337L921.426 313.935L893.872 360.46L901.189 364.793Z" fill="#CE393C"/>
<path fill-rule="evenodd" clip-rule="evenodd" d="M1048.55 364.793L1067.7 369.642L1072.65 350.525L1065.32 354.861L1037.77 308.337L1028.32 313.935L1055.87 360.46L1048.55 364.793Z" fill="#CE393C"/>
<path d="M1135.92 498.987C1135.92 520.511 1118.47 537.959 1096.95 537.959C1075.42 537.959 1057.97 520.511 1057.97 498.987C1080.85 454.507 1068.99 448.576 1096.95 448.576C1127.45 448.576 1124.9 470.181 1135.92 498.987Z" fill="#CE393C"/>
<path fill-rule="evenodd" clip-rule="evenodd" d="M1096.72 550.779C1095.72 550.779 1094.76 551.177 1094.05 551.884C1093.34 552.591 1092.94 553.551 1092.94 554.552V576.362C1092.98 577.339 1093.39 578.264 1094.09 578.943C1094.8 579.622 1095.74 580.001 1096.71 580.001C1097.69 580.001 1098.63 579.622 1099.34 578.943C1100.04 578.264 1100.45 577.339 1100.49 576.362V554.552C1100.49 553.551 1100.09 552.593 1099.38 551.886C1098.68 551.178 1097.72 550.781 1096.72 550.779Z" fill="#1A3567"/>
<path fill-rule="evenodd" clip-rule="evenodd" d="M1022.77 506.848H1044.58C1045.56 506.812 1046.48 506.399 1047.16 505.695C1047.84 504.991 1048.22 504.051 1048.22 503.074C1048.22 502.096 1047.84 501.156 1047.16 500.452C1046.48 499.748 1045.56 499.335 1044.58 499.299H1022.77C1021.79 499.335 1020.87 499.748 1020.19 500.452C1019.51 501.156 1019.13 502.096 1019.13 503.074C1019.13 504.051 1019.51 504.991 1020.19 505.695C1020.87 506.399 1021.79 506.812 1022.77 506.848Z" fill="#1A3567"/>
<path fill-rule="evenodd" clip-rule="evenodd" d="M1148.85 506.848H1170.66C1171.63 506.812 1172.56 506.399 1173.24 505.695C1173.92 504.991 1174.3 504.051 1174.3 503.074C1174.3 502.096 1173.92 501.156 1173.24 500.452C1172.56 499.748 1171.63 499.335 1170.66 499.299H1148.85C1147.87 499.335 1146.94 499.748 1146.27 500.452C1145.59 501.156 1145.21 502.096 1145.21 503.074C1145.21 504.051 1145.59 504.991 1146.27 505.695C1146.94 506.399 1147.87 506.812 1148.85 506.848Z" fill="#1A3567"/>
<path fill-rule="evenodd" clip-rule="evenodd" d="M1049.41 523.454L1020.74 541.858C1020.32 542.126 1019.96 542.474 1019.68 542.881C1019.39 543.288 1019.19 543.748 1019.09 544.232C1018.98 544.717 1018.97 545.217 1019.06 545.706C1019.15 546.194 1019.33 546.66 1019.6 547.077C1019.87 547.495 1020.21 547.855 1020.62 548.138C1021.03 548.421 1021.49 548.621 1021.97 548.727C1022.46 548.832 1022.96 548.842 1023.45 548.754C1023.93 548.666 1024.4 548.483 1024.82 548.215L1053.49 529.811C1054.33 529.269 1054.92 528.415 1055.14 527.437C1055.35 526.458 1055.17 525.434 1054.62 524.592C1054.08 523.749 1053.23 523.155 1052.25 522.942C1051.27 522.729 1050.25 522.913 1049.41 523.454Z" fill="#1A3567"/>
<path fill-rule="evenodd" clip-rule="evenodd" d="M1073.15 543.762C1072.31 543.214 1071.29 543.02 1070.31 543.223C1069.33 543.426 1068.47 544.009 1067.92 544.844L1057.89 560.11C1057.37 560.947 1057.2 561.953 1057.41 562.914C1057.62 563.875 1058.2 564.715 1059.03 565.255C1059.85 565.796 1060.85 565.994 1061.82 565.808C1062.78 565.622 1063.64 565.065 1064.2 564.258L1074.23 548.992C1074.78 548.155 1074.98 547.134 1074.77 546.153C1074.57 545.172 1073.98 544.313 1073.15 543.762Z" fill="#1A3567"/>
<path fill-rule="evenodd" clip-rule="evenodd" d="M1175.75 541.853L1147.08 523.45C1146.24 522.92 1145.22 522.745 1144.25 522.962C1143.28 523.179 1142.43 523.77 1141.89 524.607C1141.36 525.445 1141.17 526.46 1141.38 527.434C1141.58 528.407 1142.17 529.26 1143 529.806L1171.67 548.21C1172.51 548.751 1173.53 548.935 1174.51 548.722C1175.49 548.509 1176.35 547.915 1176.89 547.073C1177.43 546.23 1177.61 545.206 1177.4 544.227C1177.19 543.249 1176.59 542.395 1175.75 541.853Z" fill="#1A3567"/>
<path fill-rule="evenodd" clip-rule="evenodd" d="M1128.56 544.844C1128.29 544.43 1127.94 544.074 1127.53 543.796C1127.12 543.517 1126.66 543.323 1126.18 543.222C1125.69 543.122 1125.19 543.119 1124.7 543.212C1124.22 543.305 1123.75 543.493 1123.34 543.765C1122.92 544.038 1122.57 544.389 1122.29 544.799C1122.01 545.209 1121.82 545.67 1121.72 546.155C1121.62 546.641 1121.61 547.141 1121.71 547.628C1121.8 548.115 1121.99 548.578 1122.26 548.992L1132.29 564.258C1132.85 565.066 1133.71 565.622 1134.68 565.809C1135.64 565.995 1136.64 565.797 1137.47 565.256C1138.29 564.715 1138.87 563.875 1139.08 562.914C1139.29 561.953 1139.12 560.947 1138.6 560.111L1128.57 544.844H1128.56Z" fill="#1A3567"/>
<path fill-rule="evenodd" clip-rule="evenodd" d="M1121.52 502.848C1119.62 501.996 1117.39 502.839 1116.53 504.731C1116.51 504.764 1115.05 507.92 1112.07 510.901C1109.04 513.936 1105.85 515.556 1105.8 515.581C1103.94 516.508 1103.18 518.771 1104.11 520.633C1104.42 521.264 1104.9 521.795 1105.5 522.166C1106.1 522.538 1106.79 522.734 1107.49 522.733C1108.06 522.733 1108.63 522.608 1109.16 522.34C1109.34 522.253 1113.45 520.199 1117.41 516.241C1121.42 512.229 1123.34 508 1123.41 507.82C1124.26 505.92 1123.41 503.704 1121.52 502.848Z" fill="#1A3567"/>
<path fill-rule="evenodd" clip-rule="evenodd" d="M1121.47 451.822H1123.41C1124.54 451.822 1125.62 451.309 1126.34 450.428C1126.69 449.993 1126.94 449.484 1127.08 448.938C1127.21 448.393 1127.22 447.825 1127.1 447.276L1120.47 415.563C1120.29 414.715 1119.83 413.953 1119.15 413.406C1118.48 412.86 1117.64 412.561 1116.77 412.561H1115.26C1113.41 409.86 1109.4 405.731 1101.86 404.742V391.774C1101.86 389.691 1100.16 388 1098.08 388C1096 388 1094.31 389.691 1094.31 391.774V404.842C1087.16 405.969 1083.35 409.923 1081.57 412.565H1080.09C1078.3 412.565 1076.76 413.818 1076.4 415.567L1069.76 447.28C1069.53 448.395 1069.81 449.551 1070.53 450.432C1070.88 450.867 1071.33 451.218 1071.83 451.459C1072.34 451.701 1072.9 451.826 1073.46 451.826H1074.65C1073.85 460.573 1070.26 465.299 1066.18 470.668C1061.1 477.365 1055.33 484.955 1055.33 500.661C1055.33 509.558 1059.65 519.577 1066.9 527.46C1075.23 536.523 1086.31 541.517 1098.08 541.517C1121.43 541.517 1141.15 521.936 1141.15 498.757C1141.15 487.284 1135.73 479.068 1130.49 471.119C1126.4 464.919 1122.52 459.012 1121.47 451.826V451.822ZM1083.16 420.109H1083.78C1085.36 420.109 1086.75 419.183 1087.3 417.709C1087.39 417.479 1089.72 412.069 1098.39 412.069C1107.06 412.069 1109.48 417.508 1109.57 417.709C1109.84 418.416 1110.33 419.024 1110.95 419.452C1111.58 419.88 1112.32 420.109 1113.08 420.109H1113.7L1118.76 444.274H1078.1L1083.16 420.109ZM1098.09 533.964C1076.59 533.964 1062.88 514.238 1062.88 500.657C1062.88 487.076 1067.4 481.54 1072.2 475.231C1076.72 469.282 1081.38 463.149 1082.23 451.818H1094.31V465.128H1090.49C1089.94 465.128 1089.4 465.248 1088.9 465.481C1088.4 465.713 1087.96 466.051 1087.6 466.472C1087.25 466.893 1086.99 467.387 1086.85 467.918C1086.7 468.45 1086.68 469.007 1086.77 469.549L1091.71 497.901C1092.02 499.738 1093.62 501.028 1095.42 501.028C1095.63 501.028 1095.86 501.011 1096.07 500.974C1096.56 500.889 1097.03 500.707 1097.46 500.439C1097.88 500.171 1098.24 499.822 1098.52 499.412C1098.82 499.838 1099.2 500.197 1099.64 500.469C1100.08 500.741 1100.57 500.918 1101.09 500.991C1103.14 501.283 1105.06 499.851 1105.36 497.788L1109.41 469.436C1109.56 468.351 1109.24 467.257 1108.52 466.43C1108.17 466.022 1107.73 465.694 1107.24 465.469C1106.75 465.245 1106.21 465.128 1105.67 465.128H1101.86V451.818H1113.85C1114.88 461.153 1119.6 468.317 1124.19 475.269C1129.03 482.608 1133.61 489.543 1133.61 498.749C1133.61 517.502 1117.01 533.956 1098.08 533.956L1098.09 533.964ZM1101.32 472.684L1098.47 492.682L1094.98 472.684H1101.32Z" fill="#1A3567"/>
<path d="M1082.12 417.229L1098.22 406.215L1115.16 417.229L1124.06 449H1074.92L1082.12 417.229Z" fill="#1A3567"/>
<path d="M977.498 246.95C997.63 246.95 1013.95 230.63 1013.95 210.499C1013.95 190.367 997.63 174.047 977.498 174.047C957.367 174.047 941.047 190.367 941.047 210.499C941.047 230.63 957.367 246.95 977.498 246.95Z" fill="#FFC93C"/>
<path d="M977.5 252.913C954.114 252.913 935.089 233.886 935.089 210.499C935.089 187.115 954.114 168.09 977.5 168.09C1000.88 168.09 1019.91 187.115 1019.91 210.499C1019.91 233.886 1000.89 252.91 977.5 252.91V252.913ZM977.5 180.01C960.688 180.01 947.009 193.686 947.009 210.499C947.009 227.312 960.688 240.991 977.5 240.991C994.313 240.991 1007.99 227.312 1007.99 210.499C1007.99 193.686 994.313 180.01 977.5 180.01Z" fill="#FFC93C"/>
<path d="M977.5 159.299C976.717 159.299 975.943 159.144 975.22 158.845C974.497 158.545 973.839 158.106 973.286 157.553C972.732 157 972.294 156.343 971.995 155.619C971.695 154.896 971.541 154.121 971.541 153.339V133.96C971.541 132.379 972.168 130.863 973.286 129.746C974.404 128.628 975.919 128 977.5 128C979.08 128 980.597 128.628 981.715 129.746C982.833 130.863 983.46 132.379 983.46 133.96V153.339C983.46 154.121 983.306 154.896 983.006 155.619C982.707 156.343 982.268 157 981.715 157.553C981.162 158.106 980.504 158.545 979.781 158.845C979.058 159.144 978.282 159.299 977.5 159.299Z" fill="#FFC93C"/>
<path d="M977.5 293C975.919 293 974.404 292.372 973.286 291.254C972.168 290.136 971.541 288.621 971.541 287.04V267.661C971.541 266.08 972.168 264.565 973.286 263.447C974.404 262.329 975.919 261.701 977.5 261.701C979.08 261.701 980.597 262.329 981.715 263.447C982.833 264.565 983.46 266.08 983.46 267.661V287.037C983.46 287.82 983.306 288.595 983.006 289.318C982.707 290.041 982.268 290.698 981.715 291.252C981.162 291.805 980.504 292.244 979.781 292.544C979.058 292.843 978.282 293 977.5 293Z" fill="#FFC93C"/>
<path d="M1054.04 216.461H1034.66C1033.08 216.461 1031.56 215.833 1030.45 214.715C1029.33 213.598 1028.7 212.082 1028.7 210.501C1028.7 208.92 1029.33 207.404 1030.45 206.287C1031.56 205.169 1033.08 204.541 1034.66 204.541H1054.04C1055.62 204.541 1057.14 205.169 1058.25 206.287C1059.37 207.404 1060 208.92 1060 210.501C1060 212.082 1059.37 213.598 1058.25 214.715C1057.14 215.833 1055.62 216.461 1054.04 216.461Z" fill="#FFC93C"/>
<path d="M920.338 216.461H900.96C899.379 216.461 897.864 215.833 896.746 214.715C895.628 213.598 895 212.082 895 210.501C895 208.92 895.628 207.404 896.746 206.287C897.864 205.169 899.379 204.541 900.96 204.541H920.338C921.919 204.541 923.436 205.169 924.553 206.287C925.671 207.404 926.298 208.92 926.298 210.501C926.298 212.082 925.671 213.598 924.553 214.715C923.436 215.833 921.919 216.461 920.338 216.461Z" fill="#FFC93C"/>
<path d="M1017.92 176.041C1016.74 176.042 1015.59 175.693 1014.61 175.038C1013.62 174.383 1012.86 173.452 1012.41 172.363C1011.96 171.273 1011.84 170.074 1012.07 168.918C1012.3 167.761 1012.87 166.699 1013.7 165.865L1027.41 152.163C1027.96 151.609 1028.62 151.17 1029.34 150.87C1030.06 150.57 1030.84 150.416 1031.62 150.416C1032.41 150.416 1033.18 150.57 1033.9 150.87C1034.63 151.169 1035.28 151.608 1035.84 152.162C1036.39 152.715 1036.83 153.373 1037.13 154.096C1037.43 154.819 1037.58 155.594 1037.58 156.377C1037.58 157.16 1037.43 157.935 1037.13 158.659C1036.83 159.382 1036.39 160.039 1035.84 160.592L1022.13 174.295C1021.58 174.849 1020.92 175.289 1020.2 175.588C1019.48 175.887 1018.7 176.043 1017.92 176.041Z" fill="#FFC93C"/>
<path d="M923.376 270.583C922.197 270.584 921.044 270.235 920.063 269.58C919.082 268.925 918.318 267.994 917.867 266.904C917.416 265.815 917.297 264.616 917.528 263.459C917.758 262.303 918.326 261.241 919.161 260.407L932.865 246.707C933.417 246.149 934.075 245.705 934.799 245.401C935.523 245.097 936.301 244.94 937.087 244.938C937.872 244.935 938.649 245.088 939.375 245.388C940.101 245.687 940.762 246.127 941.317 246.682C941.872 247.238 942.312 247.897 942.612 248.623C942.912 249.349 943.065 250.127 943.063 250.913C943.061 251.698 942.904 252.476 942.6 253.2C942.297 253.924 941.854 254.582 941.295 255.134L927.59 268.837C927.037 269.391 926.38 269.831 925.657 270.131C924.934 270.43 924.159 270.584 923.376 270.583Z" fill="#FFC93C"/>
<path d="M937.082 176.042C936.299 176.043 935.524 175.89 934.8 175.59C934.076 175.29 933.419 174.85 932.866 174.296L919.164 160.593C918.056 159.473 917.437 157.961 917.441 156.386C917.445 154.811 918.072 153.302 919.186 152.188C920.299 151.074 921.808 150.446 923.383 150.441C924.958 150.437 926.471 151.056 927.591 152.163L941.296 165.866C942.13 166.699 942.699 167.762 942.929 168.918C943.159 170.075 943.041 171.274 942.59 172.363C942.138 173.453 941.373 174.384 940.393 175.039C939.412 175.694 938.262 176.043 937.082 176.042Z" fill="#FFC93C"/>
<path d="M1027.41 268.836L1013.7 255.134C1012.59 254.016 1011.96 252.5 1011.96 250.919C1011.96 249.339 1012.59 247.823 1013.71 246.705C1014.82 245.587 1016.34 244.959 1017.92 244.959C1019.5 244.959 1021.02 245.587 1022.13 246.704L1035.84 260.407C1036.95 261.525 1037.58 263.041 1037.58 264.621C1037.58 266.202 1036.95 267.718 1035.84 268.836C1034.72 269.953 1033.2 270.581 1031.62 270.582C1030.04 270.582 1028.52 269.954 1027.41 268.836Z" fill="#FFC93C"/>
<path d="M326 155.121C315.893 155.123 305.975 157.868 297.306 163.065C288.636 168.261 281.54 175.713 276.774 184.627C272.008 193.54 269.751 203.58 270.243 213.675C270.736 223.771 273.96 233.543 279.571 241.95C285.182 250.357 292.97 257.083 302.104 261.411C311.238 265.739 321.375 267.506 331.435 266.524C341.495 265.542 351.099 261.847 359.224 255.835C367.348 249.822 373.689 241.717 377.568 232.383C379.472 227.805 374.91 223.204 370.321 225.069C362.455 228.255 353.721 228.584 345.638 225.998C337.554 223.412 330.633 218.076 326.077 210.915C321.521 203.755 319.618 195.225 320.7 186.807C321.781 178.39 325.778 170.617 331.997 164.842L332.426 164.395C335.503 160.878 333.057 155.166 328.194 155.166H326.709L326.329 155.132L326 155.121Z" fill="#2E91E9"/>
</svg>
