<svg width="1280" height="720" viewBox="0 0 1280 720" fill="none" xmlns="http://www.w3.org/2000/svg">
<rect width="1280" height="720" fill="white"/>
<path d="M292.338 273H358.154L325.246 216L292.338 273Z" fill="#FFC93C" stroke="#FFC93C" stroke-width="12"/>
<rect x="-4.24264" y="7.34847" width="238" height="18" transform="matrix(-0.965926 0.258819 0.258819 0.965926 426.239 158.348)" fill="#FFC93C" stroke="#FFC93C" stroke-width="12"/>
<path d="M201.6 144.82V139.06H222.18V144.82H201.6ZM245.668 157.9C242.908 157.9 240.368 157.34 238.048 156.22C235.728 155.1 233.868 153.52 232.468 151.48C231.108 149.44 230.428 147.04 230.428 144.28C230.428 142.24 230.768 140.5 231.448 139.06C232.128 137.58 233.008 136.36 234.088 135.4C235.208 134.44 236.368 133.7 237.568 133.18C236.088 132.3 234.828 131.1 233.788 129.58C232.788 128.02 232.288 126.2 232.288 124.12C232.288 121.64 232.868 119.52 234.028 117.76C235.228 115.96 236.828 114.58 238.828 113.62C240.868 112.66 243.148 112.18 245.668 112.18C248.228 112.18 250.508 112.66 252.508 113.62C254.508 114.58 256.088 115.96 257.248 117.76C258.448 119.52 259.048 121.6 259.048 124C259.048 126.28 258.508 128.18 257.428 129.7C256.348 131.22 255.048 132.4 253.528 133.24C254.768 133.76 255.948 134.5 257.068 135.46C258.188 136.42 259.108 137.62 259.828 139.06C260.548 140.5 260.908 142.24 260.908 144.28C260.908 147.04 260.208 149.44 258.808 151.48C257.408 153.52 255.548 155.1 253.228 156.22C250.948 157.34 248.428 157.9 245.668 157.9ZM245.668 130.42C246.868 130.42 247.948 130.12 248.908 129.52C249.908 128.92 250.708 128.12 251.308 127.12C251.908 126.12 252.208 125.02 252.208 123.82C252.208 121.94 251.608 120.42 250.408 119.26C249.208 118.06 247.628 117.46 245.668 117.46C243.668 117.46 242.068 118.06 240.868 119.26C239.668 120.42 239.068 121.94 239.068 123.82C239.068 125.66 239.668 127.22 240.868 128.5C242.108 129.78 243.708 130.42 245.668 130.42ZM245.668 152.02C248.268 152.02 250.308 151.26 251.788 149.74C253.308 148.22 254.068 146.34 254.068 144.1C254.068 141.78 253.268 139.88 251.668 138.4C250.068 136.92 248.068 136.18 245.668 136.18C243.268 136.18 241.248 136.92 239.608 138.4C238.008 139.84 237.208 141.74 237.208 144.1C237.208 146.34 237.968 148.22 239.488 149.74C241.008 151.26 243.068 152.02 245.668 152.02Z" fill="#1A3567"/>
<rect x="116" y="410" width="48" height="149" fill="#FFC93C"/>
<path fill-rule="evenodd" clip-rule="evenodd" d="M301 569.5C306.039 569.5 310.872 567.498 314.435 563.935C317.998 560.372 320 555.539 320 550.5V417.5C320 412.461 317.998 407.628 314.435 404.065C310.872 400.502 306.039 398.5 301 398.5H120.5C115.461 398.5 110.628 400.502 107.065 404.065C103.502 407.628 101.5 412.461 101.5 417.5V550.5C101.5 555.539 103.502 560.372 107.065 563.935C110.628 567.498 115.461 569.5 120.5 569.5H301ZM196.5 417.5H177.357V493.5H167.857V550.5H206V493.5H196.5V417.5ZM263.142 550.5H301V417.5H272.642V493.5H263.142V550.5ZM253.642 493.5H244.142V417.5H225V493.5H215.5V550.5H253.642V493.5ZM158.358 550.5V493.5H148.858V417.5H120.5V550.5H158.358Z" fill="#1A3567"/>
<path fill-rule="evenodd" clip-rule="evenodd" d="M242.189 364.793L223.044 369.642L218.098 350.525L225.42 354.861L252.974 308.337L262.426 313.935L234.872 360.46L242.189 364.793Z" fill="#FFC93C"/>
<path fill-rule="evenodd" clip-rule="evenodd" d="M389.555 364.793L408.7 369.642L413.646 350.525L406.324 354.861L378.77 308.337L369.318 313.935L396.872 360.46L389.555 364.793Z" fill="#FFC93C"/>
<path d="M491.918 498.987C491.918 520.512 474.469 537.96 452.945 537.96C431.421 537.96 413.973 520.512 413.973 498.987C436.848 454.508 424.987 448.577 452.945 448.577C483.446 448.577 480.904 470.182 491.918 498.987Z" fill="#FFC93C"/>
<path fill-rule="evenodd" clip-rule="evenodd" d="M452.717 550.778C451.716 550.778 450.757 551.176 450.048 551.883C449.34 552.59 448.942 553.55 448.94 554.551V576.361C448.976 577.338 449.389 578.263 450.093 578.942C450.797 579.621 451.737 580 452.715 580C453.693 580 454.632 579.621 455.336 578.942C456.04 578.263 456.454 577.338 456.49 576.361V554.551C456.488 553.551 456.09 552.592 455.383 551.885C454.676 551.178 453.717 550.78 452.717 550.778Z" fill="#1A3567"/>
<path fill-rule="evenodd" clip-rule="evenodd" d="M378.772 506.848H400.582C401.56 506.812 402.485 506.399 403.163 505.695C403.842 504.991 404.221 504.051 404.221 503.074C404.221 502.096 403.842 501.156 403.163 500.452C402.485 499.748 401.56 499.335 400.582 499.299H378.772C377.795 499.335 376.87 499.748 376.191 500.452C375.512 501.156 375.133 502.096 375.133 503.074C375.133 504.051 375.512 504.991 376.191 505.695C376.87 506.399 377.795 506.812 378.772 506.848Z" fill="#1A3567"/>
<path fill-rule="evenodd" clip-rule="evenodd" d="M504.847 506.848H526.658C527.635 506.812 528.56 506.399 529.239 505.695C529.917 504.991 530.297 504.051 530.297 503.074C530.297 502.096 529.917 501.156 529.239 500.452C528.56 499.748 527.635 499.335 526.658 499.299H504.847C503.87 499.335 502.945 499.748 502.266 500.452C501.588 501.156 501.209 502.096 501.209 503.074C501.209 504.051 501.588 504.991 502.266 505.695C502.945 506.399 503.87 506.812 504.847 506.848Z" fill="#1A3567"/>
<path fill-rule="evenodd" clip-rule="evenodd" d="M405.406 523.454L376.736 541.858C376.319 542.126 375.958 542.474 375.675 542.881C375.392 543.288 375.192 543.748 375.087 544.232C374.981 544.717 374.972 545.217 375.06 545.706C375.148 546.194 375.331 546.66 375.599 547.077C375.867 547.495 376.215 547.855 376.622 548.138C377.029 548.421 377.488 548.621 377.973 548.727C378.458 548.832 378.958 548.842 379.446 548.754C379.935 548.666 380.401 548.483 380.818 548.215L409.487 529.811C410.33 529.269 410.924 528.415 411.137 527.437C411.35 526.458 411.166 525.434 410.625 524.592C410.083 523.749 409.229 523.155 408.25 522.942C407.272 522.729 406.248 522.913 405.406 523.454Z" fill="#1A3567"/>
<path fill-rule="evenodd" clip-rule="evenodd" d="M429.146 543.762C428.309 543.214 427.289 543.02 426.31 543.223C425.331 543.426 424.471 544.009 423.921 544.844L413.889 560.11C413.371 560.947 413.2 561.953 413.412 562.914C413.624 563.875 414.203 564.715 415.026 565.255C415.848 565.796 416.849 565.994 417.815 565.808C418.782 565.622 419.637 565.065 420.2 564.258L430.232 548.992C430.782 548.155 430.976 547.134 430.774 546.153C430.571 545.172 429.982 544.313 429.146 543.762Z" fill="#1A3567"/>
<path fill-rule="evenodd" clip-rule="evenodd" d="M531.75 541.853L503.081 523.45C502.238 522.92 501.22 522.745 500.249 522.962C499.278 523.179 498.431 523.77 497.894 524.607C497.356 525.445 497.17 526.46 497.377 527.434C497.584 528.407 498.167 529.26 498.999 529.806L527.668 548.21C528.511 548.751 529.535 548.935 530.513 548.722C531.492 548.509 532.346 547.915 532.887 547.073C533.429 546.23 533.613 545.206 533.399 544.227C533.186 543.249 532.593 542.395 531.75 541.853Z" fill="#1A3567"/>
<path fill-rule="evenodd" clip-rule="evenodd" d="M484.565 544.843C484.293 544.429 483.942 544.073 483.532 543.795C483.122 543.516 482.661 543.322 482.175 543.221C481.69 543.121 481.19 543.118 480.703 543.211C480.216 543.304 479.752 543.492 479.338 543.765C478.924 544.037 478.568 544.388 478.29 544.798C478.012 545.208 477.817 545.669 477.717 546.154C477.616 546.64 477.613 547.14 477.706 547.627C477.799 548.114 477.987 548.577 478.259 548.991L488.292 564.258C488.854 565.065 489.71 565.621 490.676 565.808C491.642 565.994 492.643 565.796 493.466 565.255C494.288 564.715 494.867 563.874 495.079 562.913C495.291 561.952 495.12 560.946 494.602 560.11L484.57 544.843H484.565Z" fill="#1A3567"/>
<path fill-rule="evenodd" clip-rule="evenodd" d="M477.515 502.849C475.624 501.997 473.386 502.84 472.526 504.732C472.514 504.765 471.052 507.921 468.072 510.902C465.036 513.937 461.851 515.557 461.805 515.582C459.943 516.509 459.183 518.772 460.106 520.634C460.418 521.265 460.9 521.796 461.499 522.167C462.097 522.539 462.788 522.735 463.492 522.734C464.055 522.734 464.627 522.609 465.162 522.341C465.337 522.254 469.449 520.2 473.407 516.242C477.419 512.23 479.336 508.001 479.415 507.821C480.262 505.921 479.415 503.704 477.515 502.849Z" fill="#1A3567"/>
<path fill-rule="evenodd" clip-rule="evenodd" d="M477.473 451.822H479.406C480.542 451.822 481.619 451.309 482.337 450.428C482.691 449.993 482.944 449.484 483.076 448.938C483.208 448.393 483.217 447.825 483.101 447.276L476.467 415.563C476.29 414.715 475.825 413.953 475.153 413.406C474.48 412.86 473.639 412.561 472.772 412.561H471.261C469.407 409.86 465.404 405.731 457.855 404.742V391.774C457.855 389.691 456.165 388 454.081 388C451.998 388 450.307 389.691 450.307 391.774V404.842C443.16 405.969 439.352 409.923 437.574 412.565H436.091C434.305 412.565 432.764 413.818 432.397 415.567L425.763 447.28C425.529 448.395 425.809 449.551 426.527 450.432C426.881 450.867 427.328 451.218 427.835 451.459C428.342 451.701 428.896 451.826 429.457 451.826H430.647C429.85 460.573 426.264 465.299 422.185 470.668C417.095 477.365 411.326 484.955 411.326 500.661C411.326 509.558 415.651 519.577 422.899 527.46C431.232 536.523 442.308 541.517 454.081 541.517C477.428 541.517 497.154 521.936 497.154 498.757C497.154 487.284 491.731 479.068 486.491 471.119C482.404 464.919 478.517 459.012 477.473 451.826V451.822ZM439.16 420.109H439.782C441.356 420.109 442.746 419.183 443.297 417.709C443.393 417.479 445.719 412.069 454.39 412.069C463.062 412.069 465.483 417.508 465.567 417.709C465.843 418.416 466.326 419.024 466.954 419.452C467.581 419.88 468.322 420.109 469.082 420.109H469.704L474.76 444.274H434.104L439.16 420.109ZM454.085 533.964C432.593 533.964 418.878 514.238 418.878 500.657C418.878 487.076 423.404 481.54 428.197 475.231C432.718 469.282 437.381 463.149 438.229 451.818H450.307V465.128H446.491C445.941 465.128 445.397 465.248 444.898 465.481C444.399 465.713 443.957 466.051 443.602 466.472C443.247 466.893 442.989 467.387 442.845 467.918C442.702 468.45 442.677 469.007 442.771 469.549L447.706 497.901C448.023 499.738 449.618 501.028 451.422 501.028C451.635 501.028 451.856 501.011 452.073 500.974C452.565 500.889 453.034 500.707 453.455 500.439C453.876 500.171 454.239 499.822 454.524 499.412C454.819 499.838 455.2 500.197 455.641 500.469C456.082 500.741 456.574 500.918 457.087 500.991C459.137 501.283 461.062 499.851 461.358 497.788L465.408 469.436C465.562 468.351 465.241 467.257 464.523 466.43C464.168 466.022 463.73 465.694 463.238 465.469C462.747 465.245 462.212 465.128 461.671 465.128H457.855V451.818H469.846C470.877 461.153 475.603 468.317 480.187 475.269C485.03 482.608 489.606 489.543 489.606 498.749C489.606 517.502 473.006 533.956 454.081 533.956L454.085 533.964ZM457.321 472.684L454.465 492.682L450.983 472.684H457.321Z" fill="#1A3567"/>
<path d="M438.119 417.23L454.216 406.216L471.161 417.23L480.057 449.001H430.917L438.119 417.23Z" fill="#1A3567"/>
<path d="M1001.91 273H936.092L969 216L1001.91 273Z" fill="#CE393C" stroke="#CE393C" stroke-width="12"/>
<rect x="862.007" y="164.348" width="238" height="18" transform="rotate(15 862.007 164.348)" fill="#CE393C" stroke="#CE393C" stroke-width="12"/>
<path d="M1046.44 151.48V140.44H1035.1V134.92H1046.44V123.88H1052.26V134.92H1063.66V140.44H1052.26V151.48H1046.44ZM1083.54 157.9C1080.82 157.9 1078.34 157.32 1076.1 156.16C1073.86 154.96 1072.08 153.28 1070.76 151.12C1069.44 148.92 1068.78 146.3 1068.78 143.26C1068.78 142.1 1068.86 140.96 1069.02 139.84C1069.22 138.72 1069.6 137.44 1070.16 136C1070.72 134.56 1071.54 132.78 1072.62 130.66C1073.74 128.5 1075.2 125.88 1077 122.8C1078.8 119.68 1081.06 115.88 1083.78 111.4L1089.54 114.76C1087.38 118.04 1085.66 120.7 1084.38 122.74C1083.1 124.78 1082.12 126.38 1081.44 127.54C1080.8 128.66 1080.34 129.48 1080.06 130C1079.78 130.52 1079.54 130.88 1079.34 131.08C1079.94 130.52 1080.76 130.06 1081.8 129.7C1082.88 129.3 1084.16 129.1 1085.64 129.1C1088.4 129.1 1090.78 129.74 1092.78 131.02C1094.78 132.3 1096.32 134 1097.4 136.12C1098.48 138.2 1099.02 140.44 1099.02 142.84C1099.02 146.04 1098.36 148.76 1097.04 151C1095.72 153.24 1093.88 154.96 1091.52 156.16C1089.2 157.32 1086.54 157.9 1083.54 157.9ZM1083.96 152.02C1086.52 152.02 1088.52 151.22 1089.96 149.62C1091.4 147.98 1092.12 145.92 1092.12 143.44C1092.12 140.72 1091.34 138.62 1089.78 137.14C1088.26 135.62 1086.38 134.86 1084.14 134.86C1081.58 134.86 1079.52 135.64 1077.96 137.2C1076.44 138.72 1075.68 140.84 1075.68 143.56C1075.68 146 1076.46 148.02 1078.02 149.62C1079.62 151.22 1081.6 152.02 1083.96 152.02Z" fill="#1E5C93"/>
<rect x="895" y="413" width="56" height="149" fill="#CE393C"/>
<path fill-rule="evenodd" clip-rule="evenodd" d="M940 569.5C945.039 569.5 949.872 567.498 953.435 563.935C956.998 560.372 959 555.539 959 550.5V417.5C959 412.461 956.998 407.628 953.435 404.065C949.872 400.502 945.039 398.5 940 398.5H759.5C754.461 398.5 749.628 400.502 746.065 404.065C742.502 407.628 740.5 412.461 740.5 417.5V550.5C740.5 555.539 742.502 560.372 746.065 563.935C749.628 567.498 754.461 569.5 759.5 569.5H940ZM835.5 417.5H816.357V493.5H806.857V550.5H845V493.5H835.5V417.5ZM902.142 550.5H940V417.5H911.642V493.5H902.142V550.5ZM892.642 493.5H883.142V417.5H864V493.5H854.5V550.5H892.642V493.5ZM797.358 550.5V493.5H787.858V417.5H759.5V550.5H797.358Z" fill="#1A3567"/>
<path fill-rule="evenodd" clip-rule="evenodd" d="M901.189 364.793L882.044 369.642L877.098 350.525L884.42 354.861L911.974 308.337L921.426 313.935L893.872 360.46L901.189 364.793Z" fill="#CE393C"/>
<path fill-rule="evenodd" clip-rule="evenodd" d="M1048.55 364.793L1067.7 369.642L1072.65 350.525L1065.32 354.861L1037.77 308.337L1028.32 313.935L1055.87 360.46L1048.55 364.793Z" fill="#CE393C"/>
<path d="M1135.92 498.987C1135.92 520.512 1118.47 537.96 1096.95 537.96C1075.42 537.96 1057.97 520.512 1057.97 498.987C1080.85 454.508 1068.99 448.577 1096.95 448.577C1127.45 448.577 1124.9 470.182 1135.92 498.987Z" fill="#CE393C"/>
<path fill-rule="evenodd" clip-rule="evenodd" d="M1096.72 550.778C1095.72 550.778 1094.76 551.176 1094.05 551.883C1093.34 552.59 1092.94 553.55 1092.94 554.551V576.361C1092.98 577.338 1093.39 578.263 1094.09 578.942C1094.8 579.621 1095.74 580 1096.71 580C1097.69 580 1098.63 579.621 1099.34 578.942C1100.04 578.263 1100.45 577.338 1100.49 576.361V554.551C1100.49 553.551 1100.09 552.592 1099.38 551.885C1098.68 551.178 1097.72 550.78 1096.72 550.778Z" fill="#1A3567"/>
<path fill-rule="evenodd" clip-rule="evenodd" d="M1022.77 506.848H1044.58C1045.56 506.812 1046.48 506.399 1047.16 505.695C1047.84 504.991 1048.22 504.051 1048.22 503.074C1048.22 502.096 1047.84 501.156 1047.16 500.452C1046.48 499.748 1045.56 499.335 1044.58 499.299H1022.77C1021.79 499.335 1020.87 499.748 1020.19 500.452C1019.51 501.156 1019.13 502.096 1019.13 503.074C1019.13 504.051 1019.51 504.991 1020.19 505.695C1020.87 506.399 1021.79 506.812 1022.77 506.848Z" fill="#1A3567"/>
<path fill-rule="evenodd" clip-rule="evenodd" d="M1148.85 506.848H1170.66C1171.63 506.812 1172.56 506.399 1173.24 505.695C1173.92 504.991 1174.3 504.051 1174.3 503.074C1174.3 502.096 1173.92 501.156 1173.24 500.452C1172.56 499.748 1171.63 499.335 1170.66 499.299H1148.85C1147.87 499.335 1146.94 499.748 1146.27 500.452C1145.59 501.156 1145.21 502.096 1145.21 503.074C1145.21 504.051 1145.59 504.991 1146.27 505.695C1146.94 506.399 1147.87 506.812 1148.85 506.848Z" fill="#1A3567"/>
<path fill-rule="evenodd" clip-rule="evenodd" d="M1049.41 523.454L1020.74 541.858C1020.32 542.126 1019.96 542.474 1019.68 542.881C1019.39 543.288 1019.19 543.748 1019.09 544.232C1018.98 544.717 1018.97 545.217 1019.06 545.706C1019.15 546.194 1019.33 546.66 1019.6 547.077C1019.87 547.495 1020.21 547.855 1020.62 548.138C1021.03 548.421 1021.49 548.621 1021.97 548.727C1022.46 548.832 1022.96 548.842 1023.45 548.754C1023.93 548.666 1024.4 548.483 1024.82 548.215L1053.49 529.811C1054.33 529.269 1054.92 528.415 1055.14 527.437C1055.35 526.458 1055.17 525.434 1054.62 524.592C1054.08 523.749 1053.23 523.155 1052.25 522.942C1051.27 522.729 1050.25 522.913 1049.41 523.454Z" fill="#1A3567"/>
<path fill-rule="evenodd" clip-rule="evenodd" d="M1073.15 543.762C1072.31 543.214 1071.29 543.02 1070.31 543.223C1069.33 543.426 1068.47 544.009 1067.92 544.844L1057.89 560.11C1057.37 560.947 1057.2 561.953 1057.41 562.914C1057.62 563.875 1058.2 564.715 1059.03 565.255C1059.85 565.796 1060.85 565.994 1061.82 565.808C1062.78 565.622 1063.64 565.065 1064.2 564.258L1074.23 548.992C1074.78 548.155 1074.98 547.134 1074.77 546.153C1074.57 545.172 1073.98 544.313 1073.15 543.762Z" fill="#1A3567"/>
<path fill-rule="evenodd" clip-rule="evenodd" d="M1175.75 541.853L1147.08 523.45C1146.24 522.92 1145.22 522.745 1144.25 522.962C1143.28 523.179 1142.43 523.77 1141.89 524.607C1141.36 525.445 1141.17 526.46 1141.38 527.434C1141.58 528.407 1142.17 529.26 1143 529.806L1171.67 548.21C1172.51 548.751 1173.53 548.935 1174.51 548.722C1175.49 548.509 1176.35 547.915 1176.89 547.073C1177.43 546.23 1177.61 545.206 1177.4 544.227C1177.19 543.249 1176.59 542.395 1175.75 541.853Z" fill="#1A3567"/>
<path fill-rule="evenodd" clip-rule="evenodd" d="M1128.56 544.843C1128.29 544.429 1127.94 544.073 1127.53 543.795C1127.12 543.516 1126.66 543.322 1126.18 543.221C1125.69 543.121 1125.19 543.118 1124.7 543.211C1124.22 543.304 1123.75 543.492 1123.34 543.765C1122.92 544.037 1122.57 544.388 1122.29 544.798C1122.01 545.208 1121.82 545.669 1121.72 546.154C1121.62 546.64 1121.61 547.14 1121.71 547.627C1121.8 548.114 1121.99 548.577 1122.26 548.991L1132.29 564.258C1132.85 565.065 1133.71 565.621 1134.68 565.808C1135.64 565.994 1136.64 565.796 1137.47 565.255C1138.29 564.715 1138.87 563.874 1139.08 562.913C1139.29 561.952 1139.12 560.946 1138.6 560.11L1128.57 544.843H1128.56Z" fill="#1A3567"/>
<path fill-rule="evenodd" clip-rule="evenodd" d="M1121.52 502.849C1119.62 501.997 1117.39 502.84 1116.53 504.732C1116.51 504.765 1115.05 507.921 1112.07 510.902C1109.04 513.937 1105.85 515.557 1105.8 515.582C1103.94 516.509 1103.18 518.772 1104.11 520.634C1104.42 521.265 1104.9 521.796 1105.5 522.167C1106.1 522.539 1106.79 522.735 1107.49 522.734C1108.06 522.734 1108.63 522.609 1109.16 522.341C1109.34 522.254 1113.45 520.2 1117.41 516.242C1121.42 512.23 1123.34 508.001 1123.41 507.821C1124.26 505.921 1123.41 503.704 1121.52 502.849Z" fill="#1A3567"/>
<path fill-rule="evenodd" clip-rule="evenodd" d="M1121.47 451.822H1123.41C1124.54 451.822 1125.62 451.309 1126.34 450.428C1126.69 449.993 1126.94 449.484 1127.08 448.938C1127.21 448.393 1127.22 447.825 1127.1 447.276L1120.47 415.563C1120.29 414.715 1119.83 413.953 1119.15 413.406C1118.48 412.86 1117.64 412.561 1116.77 412.561H1115.26C1113.41 409.86 1109.4 405.731 1101.86 404.742V391.774C1101.86 389.691 1100.16 388 1098.08 388C1096 388 1094.31 389.691 1094.31 391.774V404.842C1087.16 405.969 1083.35 409.923 1081.57 412.565H1080.09C1078.3 412.565 1076.76 413.818 1076.4 415.567L1069.76 447.28C1069.53 448.395 1069.81 449.551 1070.53 450.432C1070.88 450.867 1071.33 451.218 1071.83 451.459C1072.34 451.701 1072.9 451.826 1073.46 451.826H1074.65C1073.85 460.573 1070.26 465.299 1066.18 470.668C1061.1 477.365 1055.33 484.955 1055.33 500.661C1055.33 509.558 1059.65 519.577 1066.9 527.46C1075.23 536.523 1086.31 541.517 1098.08 541.517C1121.43 541.517 1141.15 521.936 1141.15 498.757C1141.15 487.284 1135.73 479.068 1130.49 471.119C1126.4 464.919 1122.52 459.012 1121.47 451.826V451.822ZM1083.16 420.109H1083.78C1085.36 420.109 1086.75 419.183 1087.3 417.709C1087.39 417.479 1089.72 412.069 1098.39 412.069C1107.06 412.069 1109.48 417.508 1109.57 417.709C1109.84 418.416 1110.33 419.024 1110.95 419.452C1111.58 419.88 1112.32 420.109 1113.08 420.109H1113.7L1118.76 444.274H1078.1L1083.16 420.109ZM1098.09 533.964C1076.59 533.964 1062.88 514.238 1062.88 500.657C1062.88 487.076 1067.4 481.54 1072.2 475.231C1076.72 469.282 1081.38 463.149 1082.23 451.818H1094.31V465.128H1090.49C1089.94 465.128 1089.4 465.248 1088.9 465.481C1088.4 465.713 1087.96 466.051 1087.6 466.472C1087.25 466.893 1086.99 467.387 1086.85 467.918C1086.7 468.45 1086.68 469.007 1086.77 469.549L1091.71 497.901C1092.02 499.738 1093.62 501.028 1095.42 501.028C1095.63 501.028 1095.86 501.011 1096.07 500.974C1096.56 500.889 1097.03 500.707 1097.46 500.439C1097.88 500.171 1098.24 499.822 1098.52 499.412C1098.82 499.838 1099.2 500.197 1099.64 500.469C1100.08 500.741 1100.57 500.918 1101.09 500.991C1103.14 501.283 1105.06 499.851 1105.36 497.788L1109.41 469.436C1109.56 468.351 1109.24 467.257 1108.52 466.43C1108.17 466.022 1107.73 465.694 1107.24 465.469C1106.75 465.245 1106.21 465.128 1105.67 465.128H1101.86V451.818H1113.85C1114.88 461.153 1119.6 468.317 1124.19 475.269C1129.03 482.608 1133.61 489.543 1133.61 498.749C1133.61 517.502 1117.01 533.956 1098.08 533.956L1098.09 533.964ZM1101.32 472.684L1098.47 492.682L1094.98 472.684H1101.32Z" fill="#1A3567"/>
<path d="M1082.12 417.23L1098.22 406.216L1115.16 417.23L1124.06 449.001H1074.92L1082.12 417.23Z" fill="#1A3567"/>
</svg>
