<svg width="1280" height="720" viewBox="0 0 1280 720" fill="none" xmlns="http://www.w3.org/2000/svg">
<rect width="1280" height="720" fill="white"/>
<path d="M53.32 52.4V58.08H62.48V63.36H53.32V69.52H63.68V75H46.48V46.92H63.68V52.4H53.32ZM81.7206 52.44C84.334 52.44 86.414 53.2933 87.9606 55C89.534 56.68 90.3206 59 90.3206 61.96V75H83.5206V62.88C83.5206 61.3867 83.134 60.2267 82.3606 59.4C81.5873 58.5733 80.5473 58.16 79.2406 58.16C77.934 58.16 76.894 58.5733 76.1206 59.4C75.3473 60.2267 74.9606 61.3867 74.9606 62.88V75H68.1206V52.68H74.9606V55.64C75.654 54.6533 76.5873 53.88 77.7606 53.32C78.934 52.7333 80.254 52.44 81.7206 52.44ZM107.514 69.2V75H104.034C101.554 75 99.6204 74.4 98.2338 73.2C96.8471 71.9733 96.1538 69.9867 96.1538 67.24V58.36H93.4338V52.68H96.1538V47.24H102.994V52.68H107.474V58.36H102.994V67.32C102.994 67.9867 103.154 68.4667 103.474 68.76C103.794 69.0533 104.327 69.2 105.074 69.2H107.514ZM118.164 56.4C118.964 55.1733 119.964 54.2133 121.164 53.52C122.364 52.8 123.697 52.44 125.164 52.44V59.68H123.284C121.577 59.68 120.297 60.0533 119.444 60.8C118.59 61.52 118.164 62.8 118.164 64.64V75H111.324V52.68H118.164V56.4ZM127.073 63.8C127.073 61.5067 127.5 59.4933 128.353 57.76C129.233 56.0267 130.42 54.6933 131.913 53.76C133.406 52.8267 135.073 52.36 136.913 52.36C138.486 52.36 139.86 52.68 141.033 53.32C142.233 53.96 143.153 54.8 143.793 55.84V52.68H150.633V75H143.793V71.84C143.126 72.88 142.193 73.72 140.993 74.36C139.82 75 138.446 75.32 136.873 75.32C135.06 75.32 133.406 74.8533 131.913 73.92C130.42 72.96 129.233 71.6133 128.353 69.88C127.5 68.12 127.073 66.0933 127.073 63.8ZM143.793 63.84C143.793 62.1333 143.313 60.7867 142.353 59.8C141.42 58.8133 140.273 58.32 138.913 58.32C137.553 58.32 136.393 58.8133 135.433 59.8C134.5 60.76 134.033 62.0933 134.033 63.8C134.033 65.5067 134.5 66.8667 135.433 67.88C136.393 68.8667 137.553 69.36 138.913 69.36C140.273 69.36 141.42 68.8667 142.353 67.88C143.313 66.8933 143.793 65.5467 143.793 63.84ZM154.222 63.8C154.222 61.5067 154.648 59.4933 155.502 57.76C156.382 56.0267 157.568 54.6933 159.062 53.76C160.555 52.8267 162.222 52.36 164.062 52.36C165.528 52.36 166.862 52.6667 168.062 53.28C169.288 53.8933 170.248 54.72 170.942 55.76V45.4H177.782V75H170.942V71.8C170.302 72.8667 169.382 73.72 168.182 74.36C167.008 75 165.635 75.32 164.062 75.32C162.222 75.32 160.555 74.8533 159.062 73.92C157.568 72.96 156.382 71.6133 155.502 69.88C154.648 68.12 154.222 66.0933 154.222 63.8ZM170.942 63.84C170.942 62.1333 170.462 60.7867 169.502 59.8C168.568 58.8133 167.422 58.32 166.062 58.32C164.702 58.32 163.542 58.8133 162.582 59.8C161.648 60.76 161.182 62.0933 161.182 63.8C161.182 65.5067 161.648 66.8667 162.582 67.88C163.542 68.8667 164.702 69.36 166.062 69.36C167.422 69.36 168.568 68.8667 169.502 67.88C170.462 66.8933 170.942 65.5467 170.942 63.84ZM181.37 63.8C181.37 61.5067 181.797 59.4933 182.65 57.76C183.53 56.0267 184.717 54.6933 186.21 53.76C187.703 52.8267 189.37 52.36 191.21 52.36C192.783 52.36 194.157 52.68 195.33 53.32C196.53 53.96 197.45 54.8 198.09 55.84V52.68H204.93V75H198.09V71.84C197.423 72.88 196.49 73.72 195.29 74.36C194.117 75 192.743 75.32 191.17 75.32C189.357 75.32 187.703 74.8533 186.21 73.92C184.717 72.96 183.53 71.6133 182.65 69.88C181.797 68.12 181.37 66.0933 181.37 63.8ZM198.09 63.84C198.09 62.1333 197.61 60.7867 196.65 59.8C195.717 58.8133 194.57 58.32 193.21 58.32C191.85 58.32 190.69 58.8133 189.73 59.8C188.797 60.76 188.33 62.0933 188.33 63.8C188.33 65.5067 188.797 66.8667 189.73 67.88C190.69 68.8667 191.85 69.36 193.21 69.36C194.57 69.36 195.717 68.8667 196.65 67.88C197.61 66.8933 198.09 65.5467 198.09 63.84ZM216.995 63.8C216.995 61.5067 217.422 59.4933 218.275 57.76C219.155 56.0267 220.342 54.6933 221.835 53.76C223.328 52.8267 224.995 52.36 226.835 52.36C228.302 52.36 229.635 52.6667 230.835 53.28C232.062 53.8933 233.022 54.72 233.715 55.76V45.4H240.555V75H233.715V71.8C233.075 72.8667 232.155 73.72 230.955 74.36C229.782 75 228.408 75.32 226.835 75.32C224.995 75.32 223.328 74.8533 221.835 73.92C220.342 72.96 219.155 71.6133 218.275 69.88C217.422 68.12 216.995 66.0933 216.995 63.8ZM233.715 63.84C233.715 62.1333 233.235 60.7867 232.275 59.8C231.342 58.8133 230.195 58.32 228.835 58.32C227.475 58.32 226.315 58.8133 225.355 59.8C224.422 60.76 223.955 62.0933 223.955 63.8C223.955 65.5067 224.422 66.8667 225.355 67.88C226.315 68.8667 227.475 69.36 228.835 69.36C230.195 69.36 231.342 68.8667 232.275 67.88C233.235 66.8933 233.715 65.5467 233.715 63.84ZM266.543 63.48C266.543 64.12 266.503 64.7867 266.423 65.48H250.943C251.05 66.8667 251.49 67.9333 252.263 68.68C253.063 69.4 254.037 69.76 255.183 69.76C256.89 69.76 258.077 69.04 258.743 67.6H266.023C265.65 69.0667 264.97 70.3867 263.983 71.56C263.023 72.7333 261.81 73.6533 260.343 74.32C258.877 74.9867 257.237 75.32 255.423 75.32C253.237 75.32 251.29 74.8533 249.583 73.92C247.877 72.9867 246.543 71.6533 245.583 69.92C244.623 68.1867 244.143 66.16 244.143 63.84C244.143 61.52 244.61 59.4933 245.543 57.76C246.503 56.0267 247.837 54.6933 249.543 53.76C251.25 52.8267 253.21 52.36 255.423 52.36C257.583 52.36 259.503 52.8133 261.183 53.72C262.863 54.6267 264.17 55.92 265.103 57.6C266.063 59.28 266.543 61.24 266.543 63.48ZM259.543 61.68C259.543 60.5067 259.143 59.5733 258.343 58.88C257.543 58.1867 256.543 57.84 255.343 57.84C254.197 57.84 253.223 58.1733 252.423 58.84C251.65 59.5067 251.17 60.4533 250.983 61.68H259.543ZM276.992 45.4V75H270.152V45.4H276.992ZM299.505 75.32C297.559 75.32 295.825 74.9867 294.305 74.32C292.785 73.6533 291.585 72.7467 290.705 71.6C289.825 70.4267 289.332 69.12 289.225 67.68H295.985C296.065 68.4533 296.425 69.08 297.065 69.56C297.705 70.04 298.492 70.28 299.425 70.28C300.279 70.28 300.932 70.12 301.385 69.8C301.865 69.4533 302.105 69.0133 302.105 68.48C302.105 67.84 301.772 67.3733 301.105 67.08C300.439 66.76 299.359 66.4133 297.865 66.04C296.265 65.6667 294.932 65.28 293.865 64.88C292.799 64.4533 291.879 63.8 291.105 62.92C290.332 62.0133 289.945 60.8 289.945 59.28C289.945 58 290.292 56.84 290.985 55.8C291.705 54.7333 292.745 53.8933 294.105 53.28C295.492 52.6667 297.132 52.36 299.025 52.36C301.825 52.36 304.025 53.0533 305.625 54.44C307.252 55.8267 308.185 57.6667 308.425 59.96H302.105C301.999 59.1867 301.652 58.5733 301.065 58.12C300.505 57.6667 299.759 57.44 298.825 57.44C298.025 57.44 297.412 57.6 296.985 57.92C296.559 58.2133 296.345 58.6267 296.345 59.16C296.345 59.8 296.679 60.28 297.345 60.6C298.039 60.92 299.105 61.24 300.545 61.56C302.199 61.9867 303.545 62.4133 304.585 62.84C305.625 63.24 306.532 63.9067 307.305 64.84C308.105 65.7467 308.519 66.9733 308.545 68.52C308.545 69.8267 308.172 71 307.425 72.04C306.705 73.0533 305.652 73.8533 304.265 74.44C302.905 75.0267 301.319 75.32 299.505 75.32ZM333.77 63.48C333.77 64.12 333.73 64.7867 333.65 65.48H318.17C318.277 66.8667 318.717 67.9333 319.49 68.68C320.29 69.4 321.263 69.76 322.41 69.76C324.117 69.76 325.303 69.04 325.97 67.6H333.25C332.877 69.0667 332.197 70.3867 331.21 71.56C330.25 72.7333 329.037 73.6533 327.57 74.32C326.103 74.9867 324.463 75.32 322.65 75.32C320.463 75.32 318.517 74.8533 316.81 73.92C315.103 72.9867 313.77 71.6533 312.81 69.92C311.85 68.1867 311.37 66.16 311.37 63.84C311.37 61.52 311.837 59.4933 312.77 57.76C313.73 56.0267 315.063 54.6933 316.77 53.76C318.477 52.8267 320.437 52.36 322.65 52.36C324.81 52.36 326.73 52.8133 328.41 53.72C330.09 54.6267 331.397 55.92 332.33 57.6C333.29 59.28 333.77 61.24 333.77 63.48ZM326.77 61.68C326.77 60.5067 326.37 59.5733 325.57 58.88C324.77 58.1867 323.77 57.84 322.57 57.84C321.423 57.84 320.45 58.1733 319.65 58.84C318.877 59.5067 318.397 60.4533 318.21 61.68H326.77ZM350.978 52.44C353.592 52.44 355.672 53.2933 357.218 55C358.792 56.68 359.578 59 359.578 61.96V75H352.778V62.88C352.778 61.3867 352.392 60.2267 351.618 59.4C350.845 58.5733 349.805 58.16 348.498 58.16C347.192 58.16 346.152 58.5733 345.378 59.4C344.605 60.2267 344.218 61.3867 344.218 62.88V75H337.378V52.68H344.218V55.64C344.912 54.6533 345.845 53.88 347.018 53.32C348.192 52.7333 349.512 52.44 350.978 52.44ZM373.412 75.32C371.465 75.32 369.732 74.9867 368.212 74.32C366.692 73.6533 365.492 72.7467 364.612 71.6C363.732 70.4267 363.238 69.12 363.132 67.68H369.892C369.972 68.4533 370.332 69.08 370.972 69.56C371.612 70.04 372.398 70.28 373.332 70.28C374.185 70.28 374.838 70.12 375.292 69.8C375.772 69.4533 376.012 69.0133 376.012 68.48C376.012 67.84 375.678 67.3733 375.012 67.08C374.345 66.76 373.265 66.4133 371.772 66.04C370.172 65.6667 368.838 65.28 367.772 64.88C366.705 64.4533 365.785 63.8 365.012 62.92C364.238 62.0133 363.852 60.8 363.852 59.28C363.852 58 364.198 56.84 364.892 55.8C365.612 54.7333 366.652 53.8933 368.012 53.28C369.398 52.6667 371.038 52.36 372.932 52.36C375.732 52.36 377.932 53.0533 379.532 54.44C381.158 55.8267 382.092 57.6667 382.332 59.96H376.012C375.905 59.1867 375.558 58.5733 374.972 58.12C374.412 57.6667 373.665 57.44 372.732 57.44C371.932 57.44 371.318 57.6 370.892 57.92C370.465 58.2133 370.252 58.6267 370.252 59.16C370.252 59.8 370.585 60.28 371.252 60.6C371.945 60.92 373.012 61.24 374.452 61.56C376.105 61.9867 377.452 62.4133 378.492 62.84C379.532 63.24 380.438 63.9067 381.212 64.84C382.012 65.7467 382.425 66.9733 382.452 68.52C382.452 69.8267 382.078 71 381.332 72.04C380.612 73.0533 379.558 73.8533 378.172 74.44C376.812 75.0267 375.225 75.32 373.412 75.32ZM396.796 75.32C394.61 75.32 392.636 74.8533 390.876 73.92C389.143 72.9867 387.77 71.6533 386.756 69.92C385.77 68.1867 385.276 66.16 385.276 63.84C385.276 61.5467 385.783 59.5333 386.796 57.8C387.81 56.04 389.196 54.6933 390.956 53.76C392.716 52.8267 394.69 52.36 396.876 52.36C399.063 52.36 401.036 52.8267 402.796 53.76C404.556 54.6933 405.943 56.04 406.956 57.8C407.97 59.5333 408.476 61.5467 408.476 63.84C408.476 66.1333 407.956 68.16 406.916 69.92C405.903 71.6533 404.503 72.9867 402.716 73.92C400.956 74.8533 398.983 75.32 396.796 75.32ZM396.796 69.4C398.103 69.4 399.21 68.92 400.116 67.96C401.05 67 401.516 65.6267 401.516 63.84C401.516 62.0533 401.063 60.68 400.156 59.72C399.276 58.76 398.183 58.28 396.876 58.28C395.543 58.28 394.436 58.76 393.556 59.72C392.676 60.6533 392.236 62.0267 392.236 63.84C392.236 65.6267 392.663 67 393.516 67.96C394.396 68.92 395.49 69.4 396.796 69.4ZM418.945 56.4C419.745 55.1733 420.745 54.2133 421.945 53.52C423.145 52.8 424.478 52.44 425.945 52.44V59.68H424.065C422.358 59.68 421.078 60.0533 420.225 60.8C419.372 61.52 418.945 62.8 418.945 64.64V75H412.105V52.68H418.945V56.4ZM436.331 63.8C436.331 61.5067 436.758 59.4933 437.611 57.76C438.491 56.0267 439.678 54.6933 441.171 53.76C442.664 52.8267 444.331 52.36 446.171 52.36C447.638 52.36 448.971 52.6667 450.171 53.28C451.398 53.8933 452.358 54.72 453.051 55.76V45.4H459.891V75H453.051V71.8C452.411 72.8667 451.491 73.72 450.291 74.36C449.118 75 447.744 75.32 446.171 75.32C444.331 75.32 442.664 74.8533 441.171 73.92C439.678 72.96 438.491 71.6133 437.611 69.88C436.758 68.12 436.331 66.0933 436.331 63.8ZM453.051 63.84C453.051 62.1333 452.571 60.7867 451.611 59.8C450.678 58.8133 449.531 58.32 448.171 58.32C446.811 58.32 445.651 58.8133 444.691 59.8C443.758 60.76 443.291 62.0933 443.291 63.8C443.291 65.5067 443.758 66.8667 444.691 67.88C445.651 68.8667 446.811 69.36 448.171 69.36C449.531 69.36 450.678 68.8667 451.611 67.88C452.571 66.8933 453.051 65.5467 453.051 63.84ZM485.879 63.48C485.879 64.12 485.839 64.7867 485.759 65.48H470.279C470.386 66.8667 470.826 67.9333 471.599 68.68C472.399 69.4 473.373 69.76 474.519 69.76C476.226 69.76 477.413 69.04 478.079 67.6H485.359C484.986 69.0667 484.306 70.3867 483.319 71.56C482.359 72.7333 481.146 73.6533 479.679 74.32C478.213 74.9867 476.573 75.32 474.759 75.32C472.573 75.32 470.626 74.8533 468.919 73.92C467.213 72.9867 465.879 71.6533 464.919 69.92C463.959 68.1867 463.479 66.16 463.479 63.84C463.479 61.52 463.946 59.4933 464.879 57.76C465.839 56.0267 467.173 54.6933 468.879 53.76C470.586 52.8267 472.546 52.36 474.759 52.36C476.919 52.36 478.839 52.8133 480.519 53.72C482.199 54.6267 483.506 55.92 484.439 57.6C485.399 59.28 485.879 61.24 485.879 63.48ZM478.879 61.68C478.879 60.5067 478.479 59.5733 477.679 58.88C476.879 58.1867 475.879 57.84 474.679 57.84C473.533 57.84 472.559 58.1733 471.759 58.84C470.986 59.5067 470.506 60.4533 470.319 61.68H478.879ZM501.404 50.36C500.204 50.36 499.218 50.0133 498.444 49.32C497.698 48.6 497.324 47.72 497.324 46.68C497.324 45.6133 497.698 44.7333 498.444 44.04C499.218 43.32 500.204 42.96 501.404 42.96C502.578 42.96 503.538 43.32 504.284 44.04C505.058 44.7333 505.444 45.6133 505.444 46.68C505.444 47.72 505.058 48.6 504.284 49.32C503.538 50.0133 502.578 50.36 501.404 50.36ZM504.804 52.68V75H497.964V52.68H504.804ZM523.361 52.44C525.975 52.44 528.055 53.2933 529.601 55C531.175 56.68 531.961 59 531.961 61.96V75H525.161V62.88C525.161 61.3867 524.775 60.2267 524.001 59.4C523.228 58.5733 522.188 58.16 520.881 58.16C519.575 58.16 518.535 58.5733 517.761 59.4C516.988 60.2267 516.601 61.3867 516.601 62.88V75H509.761V52.68H516.601V55.64C517.295 54.6533 518.228 53.88 519.401 53.32C520.575 52.7333 521.895 52.44 523.361 52.44ZM535.354 63.84C535.354 61.52 535.821 59.4933 536.754 57.76C537.714 56.0267 539.034 54.6933 540.714 53.76C542.421 52.8267 544.368 52.36 546.554 52.36C549.354 52.36 551.688 53.0933 553.554 54.56C555.448 56.0267 556.688 58.0933 557.274 60.76H549.994C549.381 59.0533 548.194 58.2 546.434 58.2C545.181 58.2 544.181 58.6933 543.434 59.68C542.688 60.64 542.314 62.0267 542.314 63.84C542.314 65.6533 542.688 67.0533 543.434 68.04C544.181 69 545.181 69.48 546.434 69.48C548.194 69.48 549.381 68.6267 549.994 66.92H557.274C556.688 69.5333 555.448 71.5867 553.554 73.08C551.661 74.5733 549.328 75.32 546.554 75.32C544.368 75.32 542.421 74.8533 540.714 73.92C539.034 72.9867 537.714 71.6533 536.754 69.92C535.821 68.1867 535.354 66.16 535.354 63.84ZM567.773 45.4V75H560.933V45.4H567.773ZM576.17 50.36C574.97 50.36 573.983 50.0133 573.21 49.32C572.463 48.6 572.09 47.72 572.09 46.68C572.09 45.6133 572.463 44.7333 573.21 44.04C573.983 43.32 574.97 42.96 576.17 42.96C577.343 42.96 578.303 43.32 579.05 44.04C579.823 44.7333 580.21 45.6133 580.21 46.68C580.21 47.72 579.823 48.6 579.05 49.32C578.303 50.0133 577.343 50.36 576.17 50.36ZM579.57 52.68V75H572.73V52.68H579.57ZM598.127 52.44C600.74 52.44 602.82 53.2933 604.367 55C605.94 56.68 606.727 59 606.727 61.96V75H599.927V62.88C599.927 61.3867 599.54 60.2267 598.767 59.4C597.994 58.5733 596.954 58.16 595.647 58.16C594.34 58.16 593.3 58.5733 592.527 59.4C591.754 60.2267 591.367 61.3867 591.367 62.88V75H584.527V52.68H591.367V55.64C592.06 54.6533 592.994 53.88 594.167 53.32C595.34 52.7333 596.66 52.44 598.127 52.44ZM610.12 63.8C610.12 61.5067 610.547 59.4933 611.4 57.76C612.28 56.0267 613.467 54.6933 614.96 53.76C616.453 52.8267 618.12 52.36 619.96 52.36C621.533 52.36 622.907 52.68 624.08 53.32C625.28 53.96 626.2 54.8 626.84 55.84V52.68H633.68V75H626.84V71.84C626.173 72.88 625.24 73.72 624.04 74.36C622.867 75 621.493 75.32 619.92 75.32C618.107 75.32 616.453 74.8533 614.96 73.92C613.467 72.96 612.28 71.6133 611.4 69.88C610.547 68.12 610.12 66.0933 610.12 63.8ZM626.84 63.84C626.84 62.1333 626.36 60.7867 625.4 59.8C624.467 58.8133 623.32 58.32 621.96 58.32C620.6 58.32 619.44 58.8133 618.48 59.8C617.547 60.76 617.08 62.0933 617.08 63.8C617.08 65.5067 617.547 66.8667 618.48 67.88C619.44 68.8667 620.6 69.36 621.96 69.36C623.32 69.36 624.467 68.8667 625.4 67.88C626.36 66.8933 626.84 65.5467 626.84 63.84ZM637.268 63.84C637.268 61.52 637.735 59.4933 638.668 57.76C639.628 56.0267 640.948 54.6933 642.628 53.76C644.335 52.8267 646.282 52.36 648.468 52.36C651.268 52.36 653.602 53.0933 655.468 54.56C657.362 56.0267 658.602 58.0933 659.188 60.76H651.908C651.295 59.0533 650.108 58.2 648.348 58.2C647.095 58.2 646.095 58.6933 645.348 59.68C644.602 60.64 644.228 62.0267 644.228 63.84C644.228 65.6533 644.602 67.0533 645.348 68.04C646.095 69 647.095 69.48 648.348 69.48C650.108 69.48 651.295 68.6267 651.908 66.92H659.188C658.602 69.5333 657.362 71.5867 655.468 73.08C653.575 74.5733 651.242 75.32 648.468 75.32C646.282 75.32 644.335 74.8533 642.628 73.92C640.948 72.9867 639.628 71.6533 638.668 69.92C637.735 68.1867 637.268 66.16 637.268 63.84ZM666.287 50.36C665.087 50.36 664.101 50.0133 663.327 49.32C662.581 48.6 662.207 47.72 662.207 46.68C662.207 45.6133 662.581 44.7333 663.327 44.04C664.101 43.32 665.087 42.96 666.287 42.96C667.461 42.96 668.421 43.32 669.167 44.04C669.941 44.7333 670.327 45.6133 670.327 46.68C670.327 47.72 669.941 48.6 669.167 49.32C668.421 50.0133 667.461 50.36 666.287 50.36ZM669.687 52.68V75H662.847V52.68H669.687ZM684.804 75.32C682.617 75.32 680.644 74.8533 678.884 73.92C677.151 72.9867 675.777 71.6533 674.764 69.92C673.777 68.1867 673.284 66.16 673.284 63.84C673.284 61.5467 673.791 59.5333 674.804 57.8C675.817 56.04 677.204 54.6933 678.964 53.76C680.724 52.8267 682.697 52.36 684.884 52.36C687.071 52.36 689.044 52.8267 690.804 53.76C692.564 54.6933 693.951 56.04 694.964 57.8C695.977 59.5333 696.484 61.5467 696.484 63.84C696.484 66.1333 695.964 68.16 694.924 69.92C693.911 71.6533 692.511 72.9867 690.724 73.92C688.964 74.8533 686.991 75.32 684.804 75.32ZM684.804 69.4C686.111 69.4 687.217 68.92 688.124 67.96C689.057 67 689.524 65.6267 689.524 63.84C689.524 62.0533 689.071 60.68 688.164 59.72C687.284 58.76 686.191 58.28 684.884 58.28C683.551 58.28 682.444 58.76 681.564 59.72C680.684 60.6533 680.244 62.0267 680.244 63.84C680.244 65.6267 680.671 67 681.524 67.96C682.404 68.92 683.497 69.4 684.804 69.4ZM690.084 46.96L680.444 51V46.28L690.084 41.64V46.96ZM713.713 52.44C716.326 52.44 718.406 53.2933 719.953 55C721.526 56.68 722.313 59 722.313 61.96V75H715.513V62.88C715.513 61.3867 715.126 60.2267 714.353 59.4C713.579 58.5733 712.539 58.16 711.233 58.16C709.926 58.16 708.886 58.5733 708.113 59.4C707.339 60.2267 706.953 61.3867 706.953 62.88V75H700.113V52.68H706.953V55.64C707.646 54.6533 708.579 53.88 709.753 53.32C710.926 52.7333 712.246 52.44 713.713 52.44Z" fill="#1E5C93"/>
<path d="M74.7 298.04V305.12H49.26V298.04H74.7ZM111 285.62L95.0405 323H86.5205L102.6 286.58H82.0805V279.38H111V285.62ZM116.032 300.56C116.032 293.64 117.272 288.22 119.752 284.3C122.272 280.38 126.432 278.42 132.232 278.42C138.032 278.42 142.172 280.38 144.652 284.3C147.172 288.22 148.432 293.64 148.432 300.56C148.432 307.52 147.172 312.98 144.652 316.94C142.172 320.9 138.032 322.88 132.232 322.88C126.432 322.88 122.272 320.9 119.752 316.94C117.272 312.98 116.032 307.52 116.032 300.56ZM140.152 300.56C140.152 297.6 139.952 295.12 139.552 293.12C139.192 291.08 138.432 289.42 137.272 288.14C136.152 286.86 134.472 286.22 132.232 286.22C129.992 286.22 128.292 286.86 127.132 288.14C126.012 289.42 125.252 291.08 124.852 293.12C124.492 295.12 124.312 297.6 124.312 300.56C124.312 303.6 124.492 306.16 124.852 308.24C125.212 310.28 125.972 311.94 127.132 313.22C128.292 314.46 129.992 315.08 132.232 315.08C134.472 315.08 136.172 314.46 137.332 313.22C138.492 311.94 139.252 310.28 139.612 308.24C139.972 306.16 140.152 303.6 140.152 300.56Z" fill="#1E5C93"/>
<path d="M1164.52 305.3H1153.18V316.94H1145.26V305.3H1133.92V297.98H1145.26V286.34H1153.18V297.98H1164.52V305.3ZM1200.45 285.62L1184.49 323H1175.97L1192.05 286.58H1171.53V279.38H1200.45V285.62ZM1205.48 300.56C1205.48 293.64 1206.72 288.22 1209.2 284.3C1211.72 280.38 1215.88 278.42 1221.68 278.42C1227.48 278.42 1231.62 280.38 1234.1 284.3C1236.62 288.22 1237.88 293.64 1237.88 300.56C1237.88 307.52 1236.62 312.98 1234.1 316.94C1231.62 320.9 1227.48 322.88 1221.68 322.88C1215.88 322.88 1211.72 320.9 1209.2 316.94C1206.72 312.98 1205.48 307.52 1205.48 300.56ZM1229.6 300.56C1229.6 297.6 1229.4 295.12 1229 293.12C1228.64 291.08 1227.88 289.42 1226.72 288.14C1225.6 286.86 1223.92 286.22 1221.68 286.22C1219.44 286.22 1217.74 286.86 1216.58 288.14C1215.46 289.42 1214.7 291.08 1214.3 293.12C1213.94 295.12 1213.76 297.6 1213.76 300.56C1213.76 303.6 1213.94 306.16 1214.3 308.24C1214.66 310.28 1215.42 311.94 1216.58 313.22C1217.74 314.46 1219.44 315.08 1221.68 315.08C1223.92 315.08 1225.62 314.46 1226.78 313.22C1227.94 311.94 1228.7 310.28 1229.06 308.24C1229.42 306.16 1229.6 303.6 1229.6 300.56Z" fill="#1E5C93"/>
<path d="M172.7 235.04V242.12H147.26V235.04H172.7ZM210.56 223.52H191.12V233.78C191.96 232.74 193.16 231.9 194.72 231.26C196.28 230.58 197.94 230.24 199.7 230.24C202.9 230.24 205.52 230.94 207.56 232.34C209.6 233.74 211.08 235.54 212 237.74C212.92 239.9 213.38 242.22 213.38 244.7C213.38 249.3 212.06 253 209.42 255.8C206.82 258.6 203.1 260 198.26 260C193.7 260 190.06 258.86 187.34 256.58C184.62 254.3 183.08 251.32 182.72 247.64H190.88C191.24 249.24 192.04 250.52 193.28 251.48C194.56 252.44 196.18 252.92 198.14 252.92C200.5 252.92 202.28 252.18 203.48 250.7C204.68 249.22 205.28 247.26 205.28 244.82C205.28 242.34 204.66 240.46 203.42 239.18C202.22 237.86 200.44 237.2 198.08 237.2C196.4 237.2 195 237.62 193.88 238.46C192.76 239.3 191.96 240.42 191.48 241.82H183.44V216.14H210.56V223.52ZM219.774 237.56C219.774 230.64 221.014 225.22 223.494 221.3C226.014 217.38 230.174 215.42 235.974 215.42C241.774 215.42 245.914 217.38 248.394 221.3C250.914 225.22 252.174 230.64 252.174 237.56C252.174 244.52 250.914 249.98 248.394 253.94C245.914 257.9 241.774 259.88 235.974 259.88C230.174 259.88 226.014 257.9 223.494 253.94C221.014 249.98 219.774 244.52 219.774 237.56ZM243.894 237.56C243.894 234.6 243.694 232.12 243.294 230.12C242.934 228.08 242.174 226.42 241.014 225.14C239.894 223.86 238.214 223.22 235.974 223.22C233.734 223.22 232.034 223.86 230.874 225.14C229.754 226.42 228.994 228.08 228.594 230.12C228.234 232.12 228.054 234.6 228.054 237.56C228.054 240.6 228.234 243.16 228.594 245.24C228.954 247.28 229.714 248.94 230.874 250.22C232.034 251.46 233.734 252.08 235.974 252.08C238.214 252.08 239.914 251.46 241.074 250.22C242.234 248.94 242.994 247.28 243.354 245.24C243.714 243.16 243.894 240.6 243.894 237.56Z" fill="#1E5C93"/>
<path d="M1050.52 242.3H1039.18V253.94H1031.26V242.3H1019.92V234.98H1031.26V223.34H1039.18V234.98H1050.52V242.3ZM1088.01 223.52H1068.57V233.78C1069.41 232.74 1070.61 231.9 1072.17 231.26C1073.73 230.58 1075.39 230.24 1077.15 230.24C1080.35 230.24 1082.97 230.94 1085.01 232.34C1087.05 233.74 1088.53 235.54 1089.45 237.74C1090.37 239.9 1090.83 242.22 1090.83 244.7C1090.83 249.3 1089.51 253 1086.87 255.8C1084.27 258.6 1080.55 260 1075.71 260C1071.15 260 1067.51 258.86 1064.79 256.58C1062.07 254.3 1060.53 251.32 1060.17 247.64H1068.33C1068.69 249.24 1069.49 250.52 1070.73 251.48C1072.01 252.44 1073.63 252.92 1075.59 252.92C1077.95 252.92 1079.73 252.18 1080.93 250.7C1082.13 249.22 1082.73 247.26 1082.73 244.82C1082.73 242.34 1082.11 240.46 1080.87 239.18C1079.67 237.86 1077.89 237.2 1075.53 237.2C1073.85 237.2 1072.45 237.62 1071.33 238.46C1070.21 239.3 1069.41 240.42 1068.93 241.82H1060.89V216.14H1088.01V223.52ZM1097.22 237.56C1097.22 230.64 1098.46 225.22 1100.94 221.3C1103.46 217.38 1107.62 215.42 1113.42 215.42C1119.22 215.42 1123.36 217.38 1125.84 221.3C1128.36 225.22 1129.62 230.64 1129.62 237.56C1129.62 244.52 1128.36 249.98 1125.84 253.94C1123.36 257.9 1119.22 259.88 1113.42 259.88C1107.62 259.88 1103.46 257.9 1100.94 253.94C1098.46 249.98 1097.22 244.52 1097.22 237.56ZM1121.34 237.56C1121.34 234.6 1121.14 232.12 1120.74 230.12C1120.38 228.08 1119.62 226.42 1118.46 225.14C1117.34 223.86 1115.66 223.22 1113.42 223.22C1111.18 223.22 1109.48 223.86 1108.32 225.14C1107.2 226.42 1106.44 228.08 1106.04 230.12C1105.68 232.12 1105.5 234.6 1105.5 237.56C1105.5 240.6 1105.68 243.16 1106.04 245.24C1106.4 247.28 1107.16 248.94 1108.32 250.22C1109.48 251.46 1111.18 252.08 1113.42 252.08C1115.66 252.08 1117.36 251.46 1118.52 250.22C1119.68 248.94 1120.44 247.28 1120.8 245.24C1121.16 243.16 1121.34 240.6 1121.34 237.56Z" fill="#1E5C93"/>
<path d="M336.7 190.04V197.12H311.26V190.04H336.7ZM345.28 182.78C345.48 178.78 346.88 175.7 349.48 173.54C352.12 171.34 355.58 170.24 359.86 170.24C362.78 170.24 365.28 170.76 367.36 171.8C369.44 172.8 371 174.18 372.04 175.94C373.12 177.66 373.66 179.62 373.66 181.82C373.66 184.34 373 186.48 371.68 188.24C370.4 189.96 368.86 191.12 367.06 191.72V191.96C369.38 192.68 371.18 193.96 372.46 195.8C373.78 197.64 374.44 200 374.44 202.88C374.44 205.28 373.88 207.42 372.76 209.3C371.68 211.18 370.06 212.66 367.9 213.74C365.78 214.78 363.22 215.3 360.22 215.3C355.7 215.3 352.02 214.16 349.18 211.88C346.34 209.6 344.84 206.24 344.68 201.8H352.84C352.92 203.76 353.58 205.34 354.82 206.54C356.1 207.7 357.84 208.28 360.04 208.28C362.08 208.28 363.64 207.72 364.72 206.6C365.84 205.44 366.4 203.96 366.4 202.16C366.4 199.76 365.64 198.04 364.12 197C362.6 195.96 360.24 195.44 357.04 195.44H355.3V188.54H357.04C362.72 188.54 365.56 186.64 365.56 182.84C365.56 181.12 365.04 179.78 364 178.82C363 177.86 361.54 177.38 359.62 177.38C357.74 177.38 356.28 177.9 355.24 178.94C354.24 179.94 353.66 181.22 353.5 182.78H345.28ZM381.078 192.56C381.078 185.64 382.318 180.22 384.798 176.3C387.318 172.38 391.478 170.42 397.278 170.42C403.078 170.42 407.218 172.38 409.698 176.3C412.218 180.22 413.478 185.64 413.478 192.56C413.478 199.52 412.218 204.98 409.698 208.94C407.218 212.9 403.078 214.88 397.278 214.88C391.478 214.88 387.318 212.9 384.798 208.94C382.318 204.98 381.078 199.52 381.078 192.56ZM405.198 192.56C405.198 189.6 404.998 187.12 404.598 185.12C404.238 183.08 403.478 181.42 402.318 180.14C401.198 178.86 399.518 178.22 397.278 178.22C395.038 178.22 393.338 178.86 392.178 180.14C391.058 181.42 390.298 183.08 389.898 185.12C389.538 187.12 389.358 189.6 389.358 192.56C389.358 195.6 389.538 198.16 389.898 200.24C390.258 202.28 391.018 203.94 392.178 205.22C393.338 206.46 395.038 207.08 397.278 207.08C399.518 207.08 401.218 206.46 402.378 205.22C403.538 203.94 404.298 202.28 404.658 200.24C405.018 198.16 405.198 195.6 405.198 192.56Z" fill="#1E5C93"/>
<path d="M902.52 197.3H891.18V208.94H883.26V197.3H871.92V189.98H883.26V178.34H891.18V189.98H902.52V197.3ZM910.73 182.78C910.93 178.78 912.33 175.7 914.93 173.54C917.57 171.34 921.03 170.24 925.31 170.24C928.23 170.24 930.73 170.76 932.81 171.8C934.89 172.8 936.45 174.18 937.49 175.94C938.57 177.66 939.11 179.62 939.11 181.82C939.11 184.34 938.45 186.48 937.13 188.24C935.85 189.96 934.31 191.12 932.51 191.72V191.96C934.83 192.68 936.63 193.96 937.91 195.8C939.23 197.64 939.89 200 939.89 202.88C939.89 205.28 939.33 207.42 938.21 209.3C937.13 211.18 935.51 212.66 933.35 213.74C931.23 214.78 928.67 215.3 925.67 215.3C921.15 215.3 917.47 214.16 914.63 211.88C911.79 209.6 910.29 206.24 910.13 201.8H918.29C918.37 203.76 919.03 205.34 920.27 206.54C921.55 207.7 923.29 208.28 925.49 208.28C927.53 208.28 929.09 207.72 930.17 206.6C931.29 205.44 931.85 203.96 931.85 202.16C931.85 199.76 931.09 198.04 929.57 197C928.05 195.96 925.69 195.44 922.49 195.44H920.75V188.54H922.49C928.17 188.54 931.01 186.64 931.01 182.84C931.01 181.12 930.49 179.78 929.45 178.82C928.45 177.86 926.99 177.38 925.07 177.38C923.19 177.38 921.73 177.9 920.69 178.94C919.69 179.94 919.11 181.22 918.95 182.78H910.73ZM946.528 192.56C946.528 185.64 947.768 180.22 950.248 176.3C952.768 172.38 956.928 170.42 962.728 170.42C968.528 170.42 972.668 172.38 975.148 176.3C977.668 180.22 978.928 185.64 978.928 192.56C978.928 199.52 977.668 204.98 975.148 208.94C972.668 212.9 968.528 214.88 962.728 214.88C956.928 214.88 952.768 212.9 950.248 208.94C947.768 204.98 946.528 199.52 946.528 192.56ZM970.648 192.56C970.648 189.6 970.448 187.12 970.048 185.12C969.688 183.08 968.928 181.42 967.768 180.14C966.648 178.86 964.968 178.22 962.728 178.22C960.488 178.22 958.788 178.86 957.628 180.14C956.508 181.42 955.748 183.08 955.348 185.12C954.988 187.12 954.808 189.6 954.808 192.56C954.808 195.6 954.988 198.16 955.348 200.24C955.708 202.28 956.468 203.94 957.628 205.22C958.788 206.46 960.488 207.08 962.728 207.08C964.968 207.08 966.668 206.46 967.828 205.22C968.988 203.94 969.748 202.28 970.108 200.24C970.468 198.16 970.648 195.6 970.648 192.56Z" fill="#1E5C93"/>
<path d="M508.7 169.04V176.12H483.26V169.04H508.7ZM516.14 158V150.26H530.6V194H521.96V158H516.14ZM538.899 171.56C538.899 164.64 540.139 159.22 542.619 155.3C545.139 151.38 549.299 149.42 555.099 149.42C560.899 149.42 565.039 151.38 567.519 155.3C570.039 159.22 571.299 164.64 571.299 171.56C571.299 178.52 570.039 183.98 567.519 187.94C565.039 191.9 560.899 193.88 555.099 193.88C549.299 193.88 545.139 191.9 542.619 187.94C540.139 183.98 538.899 178.52 538.899 171.56ZM563.019 171.56C563.019 168.6 562.819 166.12 562.419 164.12C562.059 162.08 561.299 160.42 560.139 159.14C559.019 157.86 557.339 157.22 555.099 157.22C552.859 157.22 551.159 157.86 549.999 159.14C548.879 160.42 548.119 162.08 547.719 164.12C547.359 166.12 547.179 168.6 547.179 171.56C547.179 174.6 547.359 177.16 547.719 179.24C548.079 181.28 548.839 182.94 549.999 184.22C551.159 185.46 552.859 186.08 555.099 186.08C557.339 186.08 559.039 185.46 560.199 184.22C561.359 182.94 562.119 181.28 562.479 179.24C562.839 177.16 563.019 174.6 563.019 171.56Z" fill="#1E5C93"/>
<path d="M726.52 176.3H715.18V187.94H707.26V176.3H695.92V168.98H707.26V157.34H715.18V168.98H726.52V176.3ZM733.59 158V150.26H748.05V194H739.41V158H733.59ZM756.348 171.56C756.348 164.64 757.588 159.22 760.068 155.3C762.588 151.38 766.748 149.42 772.548 149.42C778.348 149.42 782.488 151.38 784.968 155.3C787.488 159.22 788.748 164.64 788.748 171.56C788.748 178.52 787.488 183.98 784.968 187.94C782.488 191.9 778.348 193.88 772.548 193.88C766.748 193.88 762.588 191.9 760.068 187.94C757.588 183.98 756.348 178.52 756.348 171.56ZM780.468 171.56C780.468 168.6 780.268 166.12 779.868 164.12C779.508 162.08 778.748 160.42 777.588 159.14C776.468 157.86 774.788 157.22 772.548 157.22C770.308 157.22 768.608 157.86 767.448 159.14C766.328 160.42 765.568 162.08 765.168 164.12C764.808 166.12 764.628 168.6 764.628 171.56C764.628 174.6 764.808 177.16 765.168 179.24C765.528 181.28 766.288 182.94 767.448 184.22C768.608 185.46 770.308 186.08 772.548 186.08C774.788 186.08 776.488 185.46 777.648 184.22C778.808 182.94 779.568 181.28 779.928 179.24C780.288 177.16 780.468 174.6 780.468 171.56Z" fill="#1E5C93"/>
<path d="M119 351.499C391.5 162 927.5 186.5 1160 351" stroke="#1E5C93" stroke-width="2"/>
<path d="M531.667 221.5C531.667 224.446 534.054 226.833 537 226.833C539.946 226.833 542.333 224.446 542.333 221.5C542.333 218.554 539.946 216.167 537 216.167C534.054 216.167 531.667 218.554 531.667 221.5ZM537 221.5L536.017 221.682L591.017 518.182L592 518L592.983 517.818L537.983 221.318L537 221.5Z" fill="#1E5C93"/>
<path d="M748.833 221.5C748.833 224.446 746.446 226.833 743.5 226.833C740.554 226.833 738.167 224.446 738.167 221.5C738.167 218.554 740.554 216.167 743.5 216.167C746.446 216.167 748.833 218.554 748.833 221.5ZM743.5 221.5L744.484 221.681L689.984 518.181L689 518L688.016 517.819L742.516 221.319L743.5 221.5Z" fill="#1E5C93"/>
<path d="M748.833 221.5C748.833 224.446 746.446 226.833 743.5 226.833C740.554 226.833 738.167 224.446 738.167 221.5C738.167 218.554 740.554 216.167 743.5 216.167C746.446 216.167 748.833 218.554 748.833 221.5ZM743.5 221.5L744.494 221.609L711.994 518.609L711 518.5L710.006 518.391L742.506 221.391L743.5 221.5Z" fill="#1E5C93"/>
<path d="M918.833 249.5C918.833 252.446 916.446 254.833 913.5 254.833C910.554 254.833 908.167 252.446 908.167 249.5C908.167 246.554 910.554 244.167 913.5 244.167C916.446 244.167 918.833 246.554 918.833 249.5ZM913.5 249.5L914.433 249.86L810.933 518.36L810 518L809.067 517.64L912.567 249.14L913.5 249.5Z" fill="#1E5C93"/>
<path d="M918.833 250C918.833 252.946 916.446 255.333 913.5 255.333C910.554 255.333 908.167 252.946 908.167 250C908.167 247.054 910.554 244.667 913.5 244.667C916.446 244.667 918.833 247.054 918.833 250ZM913.5 250L914.457 250.29L832.957 518.79L832 518.5L831.043 518.21L912.543 249.71L913.5 250Z" fill="#1E5C93"/>
<path d="M1056.83 291C1056.83 293.946 1054.45 296.333 1051.5 296.333C1048.55 296.333 1046.17 293.946 1046.17 291C1046.17 288.054 1048.55 285.667 1051.5 285.667C1054.45 285.667 1056.83 288.054 1056.83 291ZM1051.5 291L1052.38 291.472L930.882 518.472L930 518L929.118 517.528L1050.62 290.528L1051.5 291Z" fill="#1E5C93"/>
<path d="M1056.33 291C1056.33 293.946 1053.95 296.333 1051 296.333C1048.05 296.333 1045.67 293.946 1045.67 291C1045.67 288.054 1048.05 285.667 1051 285.667C1053.95 285.667 1056.33 288.054 1056.33 291ZM1051 291L1051.92 291.399L952.917 518.899L952 518.5L951.083 518.101L1050.08 290.601L1051 291Z" fill="#1E5C93"/>
<path d="M1166.83 351C1166.83 353.946 1164.45 356.333 1161.5 356.333C1158.55 356.333 1156.17 353.946 1156.17 351C1156.17 348.054 1158.55 345.667 1161.5 345.667C1164.45 345.667 1166.83 348.054 1166.83 351ZM1161.5 351L1162.33 351.555L1050.83 518.555L1050 518L1049.17 517.445L1160.67 350.445L1161.5 351Z" fill="#1E5C93"/>
<path d="M531.667 221.5C531.667 224.446 534.054 226.833 537 226.833C539.946 226.833 542.333 224.446 542.333 221.5C542.333 218.554 539.946 216.167 537 216.167C534.054 216.167 531.667 218.554 531.667 221.5ZM537 221.5L536.006 221.609L568.506 518.609L569.5 518.5L570.494 518.391L537.994 221.391L537 221.5Z" fill="#1E5C93"/>
<path d="M361.667 249.5C361.667 252.446 364.054 254.833 367 254.833C369.946 254.833 372.333 252.446 372.333 249.5C372.333 246.554 369.946 244.167 367 244.167C364.054 244.167 361.667 246.554 361.667 249.5ZM367 249.5L366.067 249.86L469.567 518.36L470.5 518L471.433 517.64L367.933 249.14L367 249.5Z" fill="#1E5C93"/>
<path d="M361.667 250C361.667 252.946 364.054 255.333 367 255.333C369.946 255.333 372.333 252.946 372.333 250C372.333 247.054 369.946 244.667 367 244.667C364.054 244.667 361.667 247.054 361.667 250ZM367 250L366.043 250.29L447.543 518.79L448.5 518.5L449.457 518.21L367.957 249.71L367 250Z" fill="#1E5C93"/>
<path d="M223.667 291C223.667 293.946 226.054 296.333 229 296.333C231.946 296.333 234.333 293.946 234.333 291C234.333 288.054 231.946 285.667 229 285.667C226.054 285.667 223.667 288.054 223.667 291ZM229 291L228.118 291.472L349.618 518.472L350.5 518L351.382 517.528L229.882 290.528L229 291Z" fill="#1E5C93"/>
<path d="M224.167 291C224.167 293.946 226.554 296.333 229.5 296.333C232.446 296.333 234.833 293.946 234.833 291C234.833 288.054 232.446 285.667 229.5 285.667C226.554 285.667 224.167 288.054 224.167 291ZM229.5 291L228.583 291.399L327.583 518.899L328.5 518.5L329.417 518.101L230.417 290.601L229.5 291Z" fill="#1E5C93"/>
<path d="M113.667 351C113.667 353.946 116.054 356.333 119 356.333C121.946 356.333 124.333 353.946 124.333 351C124.333 348.054 121.946 345.667 119 345.667C116.054 345.667 113.667 348.054 113.667 351ZM119 351L118.168 351.555L229.668 518.555L230.5 518L231.332 517.445L119.832 350.445L119 351Z" fill="#1E5C93"/>
<path d="M574.99 660.04H581.71V664H569.86V642.94H574.99V660.04ZM600.687 647.26V664H595.557V661.72C595.037 662.46 594.327 663.06 593.427 663.52C592.547 663.96 591.567 664.18 590.487 664.18C589.207 664.18 588.077 663.9 587.097 663.34C586.117 662.76 585.357 661.93 584.817 660.85C584.277 659.77 584.007 658.5 584.007 657.04V647.26H589.107V656.35C589.107 657.47 589.397 658.34 589.977 658.96C590.557 659.58 591.337 659.89 592.317 659.89C593.317 659.89 594.107 659.58 594.687 658.96C595.267 658.34 595.557 657.47 595.557 656.35V647.26H600.687ZM603.352 655.63C603.352 653.89 603.702 652.37 604.402 651.07C605.122 649.77 606.112 648.77 607.372 648.07C608.652 647.37 610.112 647.02 611.752 647.02C613.852 647.02 615.602 647.57 617.002 648.67C618.422 649.77 619.352 651.32 619.792 653.32H614.332C613.872 652.04 612.982 651.4 611.662 651.4C610.722 651.4 609.972 651.77 609.412 652.51C608.852 653.23 608.572 654.27 608.572 655.63C608.572 656.99 608.852 658.04 609.412 658.78C609.972 659.5 610.722 659.86 611.662 659.86C612.982 659.86 613.872 659.22 614.332 657.94H619.792C619.352 659.9 618.422 661.44 617.002 662.56C615.582 663.68 613.832 664.24 611.752 664.24C610.112 664.24 608.652 663.89 607.372 663.19C606.112 662.49 605.122 661.49 604.402 660.19C603.702 658.89 603.352 657.37 603.352 655.63ZM638.316 655.36C638.316 655.84 638.286 656.34 638.226 656.86H626.616C626.696 657.9 627.026 658.7 627.606 659.26C628.206 659.8 628.936 660.07 629.796 660.07C631.076 660.07 631.966 659.53 632.466 658.45H637.926C637.646 659.55 637.136 660.54 636.396 661.42C635.676 662.3 634.766 662.99 633.666 663.49C632.566 663.99 631.336 664.24 629.976 664.24C628.336 664.24 626.876 663.89 625.596 663.19C624.316 662.49 623.316 661.49 622.596 660.19C621.876 658.89 621.516 657.37 621.516 655.63C621.516 653.89 621.866 652.37 622.566 651.07C623.286 649.77 624.286 648.77 625.566 648.07C626.846 647.37 628.316 647.02 629.976 647.02C631.596 647.02 633.036 647.36 634.296 648.04C635.556 648.72 636.536 649.69 637.236 650.95C637.956 652.21 638.316 653.68 638.316 655.36ZM633.066 654.01C633.066 653.13 632.766 652.43 632.166 651.91C631.566 651.39 630.816 651.13 629.916 651.13C629.056 651.13 628.326 651.38 627.726 651.88C627.146 652.38 626.786 653.09 626.646 654.01H633.066ZM647.832 664.24C646.372 664.24 645.072 663.99 643.932 663.49C642.792 662.99 641.892 662.31 641.232 661.45C640.572 660.57 640.202 659.59 640.122 658.51H645.192C645.252 659.09 645.522 659.56 646.002 659.92C646.482 660.28 647.072 660.46 647.772 660.46C648.412 660.46 648.902 660.34 649.242 660.1C649.602 659.84 649.782 659.51 649.782 659.11C649.782 658.63 649.532 658.28 649.032 658.06C648.532 657.82 647.722 657.56 646.602 657.28C645.402 657 644.402 656.71 643.602 656.41C642.802 656.09 642.112 655.6 641.532 654.94C640.952 654.26 640.662 653.35 640.662 652.21C640.662 651.25 640.922 650.38 641.442 649.6C641.982 648.8 642.762 648.17 643.782 647.71C644.822 647.25 646.052 647.02 647.472 647.02C649.572 647.02 651.222 647.54 652.422 648.58C653.642 649.62 654.342 651 654.522 652.72H649.782C649.702 652.14 649.442 651.68 649.002 651.34C648.582 651 648.022 650.83 647.322 650.83C646.722 650.83 646.262 650.95 645.942 651.19C645.622 651.41 645.462 651.72 645.462 652.12C645.462 652.6 645.712 652.96 646.212 653.2C646.732 653.44 647.532 653.68 648.612 653.92C649.852 654.24 650.862 654.56 651.642 654.88C652.422 655.18 653.102 655.68 653.682 656.38C654.282 657.06 654.592 657.98 654.612 659.14C654.612 660.12 654.332 661 653.772 661.78C653.232 662.54 652.442 663.14 651.402 663.58C650.382 664.02 649.192 664.24 647.832 664.24ZM669.238 660.04H675.958V664H664.108V642.94H669.238V660.04ZM683.535 647.05V651.31H690.405V655.27H683.535V659.89H691.305V664H678.405V642.94H691.305V647.05H683.535ZM702.525 642.94C704.745 642.94 706.685 643.38 708.345 644.26C710.005 645.14 711.285 646.38 712.185 647.98C713.105 649.56 713.565 651.39 713.565 653.47C713.565 655.53 713.105 657.36 712.185 658.96C711.285 660.56 709.995 661.8 708.315 662.68C706.655 663.56 704.725 664 702.525 664H694.635V642.94H702.525ZM702.195 659.56C704.135 659.56 705.645 659.03 706.725 657.97C707.805 656.91 708.345 655.41 708.345 653.47C708.345 651.53 707.805 650.02 706.725 648.94C705.645 647.86 704.135 647.32 702.195 647.32H699.765V659.56H702.195Z" fill="#1E5C93"/>
<rect x="230" y="518" width="100" height="100" fill="#CE393C"/>
<rect x="350" y="518" width="100" height="100" fill="#CE393C"/>
<rect x="470" y="518" width="100" height="100" fill="#CE393C"/>
<rect x="590" y="518" width="100" height="100" fill="#CE393C"/>
<rect x="710" y="518" width="100" height="100" fill="#CE393C"/>
<rect x="950" y="518" width="100" height="100" fill="#CE393C"/>
<rect x="830" y="518" width="100" height="100" fill="#CE393C"/>
<path d="M271.35 556.45V548.5H285.2V585H276.3V556.45H271.35Z" fill="white"/>
<path d="M386.95 578.15C388.083 577.25 388.6 576.833 388.5 576.9C391.767 574.2 394.333 571.983 396.2 570.25C398.1 568.517 399.7 566.7 401 564.8C402.3 562.9 402.95 561.05 402.95 559.25C402.95 557.883 402.633 556.817 402 556.05C401.367 555.283 400.417 554.9 399.15 554.9C397.883 554.9 396.883 555.383 396.15 556.35C395.45 557.283 395.1 558.617 395.1 560.35H386.85C386.917 557.517 387.517 555.15 388.65 553.25C389.817 551.35 391.333 549.95 393.2 549.05C395.1 548.15 397.2 547.7 399.5 547.7C403.467 547.7 406.45 548.717 408.45 550.75C410.483 552.783 411.5 555.433 411.5 558.7C411.5 562.267 410.283 565.583 407.85 568.65C405.417 571.683 402.317 574.65 398.55 577.55H412.05V584.5H386.95V578.15Z" fill="white"/>
<path d="M507.55 558.8C507.683 555.233 508.85 552.483 511.05 550.55C513.25 548.617 516.233 547.65 520 547.65C522.5 547.65 524.633 548.083 526.4 548.95C528.2 549.817 529.55 551 530.45 552.5C531.383 554 531.85 555.683 531.85 557.55C531.85 559.75 531.3 561.55 530.2 562.95C529.1 564.317 527.817 565.25 526.35 565.75V565.95C528.25 566.583 529.75 567.633 530.85 569.1C531.95 570.567 532.5 572.45 532.5 574.75C532.5 576.817 532.017 578.65 531.05 580.25C530.117 581.817 528.733 583.05 526.9 583.95C525.1 584.85 522.95 585.3 520.45 585.3C516.45 585.3 513.25 584.317 510.85 582.35C508.483 580.383 507.233 577.417 507.1 573.45H515.4C515.433 574.917 515.85 576.083 516.65 576.95C517.45 577.783 518.617 578.2 520.15 578.2C521.45 578.2 522.45 577.833 523.15 577.1C523.883 576.333 524.25 575.333 524.25 574.1C524.25 572.5 523.733 571.35 522.7 570.65C521.7 569.917 520.083 569.55 517.85 569.55H516.25V562.6H517.85C519.55 562.6 520.917 562.317 521.95 561.75C523.017 561.15 523.55 560.1 523.55 558.6C523.55 557.4 523.217 556.467 522.55 555.8C521.883 555.133 520.967 554.8 519.8 554.8C518.533 554.8 517.583 555.183 516.95 555.95C516.35 556.717 516 557.667 515.9 558.8H507.55Z" fill="white"/>
<path d="M626.45 578.5V571.6L642.25 549H651.8V571.1H655.9V578.5H651.8V585H643.25V578.5H626.45ZM643.85 558.4L635.45 571.1H643.85V558.4Z" fill="white"/>
<path d="M770.95 555.95H755.35V562.85C756.017 562.117 756.95 561.517 758.15 561.05C759.35 560.583 760.65 560.35 762.05 560.35C764.55 560.35 766.617 560.917 768.25 562.05C769.917 563.183 771.133 564.65 771.9 566.45C772.667 568.25 773.05 570.2 773.05 572.3C773.05 576.2 771.95 579.3 769.75 581.6C767.55 583.867 764.45 585 760.45 585C757.783 585 755.467 584.55 753.5 583.65C751.533 582.717 750.017 581.433 748.95 579.8C747.883 578.167 747.3 576.283 747.2 574.15H755.55C755.75 575.183 756.233 576.05 757 576.75C757.767 577.417 758.817 577.75 760.15 577.75C761.717 577.75 762.883 577.25 763.65 576.25C764.417 575.25 764.8 573.917 764.8 572.25C764.8 570.617 764.4 569.367 763.6 568.5C762.8 567.633 761.633 567.2 760.1 567.2C758.967 567.2 758.033 567.483 757.3 568.05C756.567 568.583 756.083 569.3 755.85 570.2H747.6V548.45H770.95V555.95Z" fill="white"/>
<path d="M883.3 558.35C883.033 557.117 882.567 556.2 881.9 555.6C881.233 554.967 880.283 554.65 879.05 554.65C877.15 554.65 875.783 555.483 874.95 557.15C874.117 558.783 873.683 561.383 873.65 564.95C874.383 563.783 875.433 562.867 876.8 562.2C878.2 561.533 879.733 561.2 881.4 561.2C884.667 561.2 887.283 562.233 889.25 564.3C891.25 566.367 892.25 569.25 892.25 572.95C892.25 575.383 891.75 577.517 890.75 579.35C889.783 581.183 888.35 582.617 886.45 583.65C884.583 584.683 882.367 585.2 879.8 585.2C874.667 585.2 871.1 583.6 869.1 580.4C867.1 577.167 866.1 572.533 866.1 566.5C866.1 560.167 867.15 555.467 869.25 552.4C871.383 549.3 874.783 547.75 879.45 547.75C881.95 547.75 884.05 548.25 885.75 549.25C887.483 550.217 888.783 551.5 889.65 553.1C890.55 554.7 891.083 556.45 891.25 558.35H883.3ZM879.35 567.95C877.917 567.95 876.717 568.383 875.75 569.25C874.817 570.083 874.35 571.283 874.35 572.85C874.35 574.45 874.783 575.7 875.65 576.6C876.55 577.5 877.817 577.95 879.45 577.95C880.917 577.95 882.067 577.517 882.9 576.65C883.767 575.75 884.2 574.533 884.2 573C884.2 571.433 883.783 570.2 882.95 569.3C882.117 568.4 880.917 567.95 879.35 567.95Z" fill="white"/>
<path d="M1008.55 554.9L996 585H987.25L999.95 555.85H984.4V548.55H1008.55V554.9Z" fill="white"/>
<path d="M779 657H1081V605" stroke="#1E5C93" stroke-width="7"/>
<path d="M505 657H203V605" stroke="#1E5C93" stroke-width="7"/>
</svg>
