<svg xmlns="http://www.w3.org/2000/svg" width="1280" height="720" xmlns:v="https://vecta.io/nano"><style><![CDATA[.B{clip-path:none}.C{fill:#ffc93c}.D{stroke-miterlimit:10}]]></style><defs><clipPath ><path d="M0 0h708.12v398.41H0z" fill="none" stroke-width="0"/></clipPath><clipPath ><path d="M-14.17-14.17h736.48v412.58H-14.17z" fill="none" stroke-width="0"/></clipPath><linearGradient x1="442.58" y1="1568.8" x2="443.61" y2="1568.8" gradientUnits="userSpaceOnUse" gradientTransform="matrix(0,-757.15508,-756.52327,0,1187462.9,335840.45)" spreadMethod="pad" id="C"><stop offset="0" stop-color="#1e5c93"/><stop offset="1" stop-color="#35c2ff"/></linearGradient></defs><path d="M1280 719.539V0H0v719.539z" fill="url(#C)" class="B"/><path d="M0 416.643V720h1280V534.318l-420.997-84.545-394.359-48.693z" fill="#13752d" class="B"/><path d="M221.251 375.399c0 3.742-3.027 6.791-6.785 6.791a6.79 6.79 0 0 1-6.787-6.791c0-3.754 3.036-6.774 6.787-6.774 3.758 0 6.785 3.039 6.785 6.774" fill="#ededed" class="B"/><path d="M883.504 720H1280V600.297c-41.792.252-462.262 2.751-496.897-.107l-455.076-38.913-115.451-41.417 35.036-114.296h-63.711l-61.465 137.736s72.377 71.723 98.306 85.268c25.949 13.545 189.607 28.511 189.607 28.511z" fill="#bc9353" class="B"/><g class="C"><path d="M165.188 160.379h26.993v44.51h-26.993z" class="B"/><path d="M495.301 237.275L296.176 118.388 97.05 237.275h-1.569v177.32h401.391v-177.32z" class="B"/></g><path d="M309.145 270.705h109.558v71.516H309.145z" fill="#1e5c93" class="B"/><path d="M183.103 257.018h62.886v157.584h-62.886z" fill="#34c3ff" class="B"/><path d="M832.646 0h-30.697c47.501 64.292 75.611 143.826 75.611 230.003 0 213.933-173.02 387.098-386.786 387.098-213.759 0-386.777-173.165-386.777-387.098 0-86.177 28.107-165.711 75.607-230.003h-30.697c-44.25 65.721-70.098 144.861-70.098 230.003 0 227.563 184.597 412.312 411.966 412.312 227.376 0 411.974-184.749 411.974-412.312 0-85.142-25.85-164.282-70.101-230.003zM706.374 0h-38.555c68.529 52.896 112.77 135.764 113.017 229.201.415 160.458-128.945 290.621-289.278 291.036-160.336.422-290.38-129.055-290.802-289.526C200.513 136.742 244.821 53.213 313.75 0h-38.553c-61.476 57.765-99.869 139.837-99.634 230.778.458 174.095 142.112 315.13 316.062 314.672 173.948-.451 314.855-142.232 314.405-316.315-.24-90.36-38.573-171.749-99.656-229.135z" fill="#ff7b54"/><g fill="none" stroke="#ff7b54" class="D"><g stroke-width="25.202"><path d="M491.317 23.94c113.711.3 205.649 92.793 205.356 206.601-.3 113.806-92.726 205.828-206.436 205.527s-205.649-92.793-205.358-206.601c.3-113.806 92.726-205.83 206.439-205.527z" class="B"/><path d="M599.926 229.995c0 60.331-48.864 109.245-109.154 109.245-60.283 0-109.156-48.914-109.156-109.245s48.873-109.245 109.156-109.245c60.29 0 109.154 48.912 109.154 109.245z" class="B"/></g><path d="M492.783 217.748c6.765 1.102 11.361 7.478 10.263 14.25-1.1 6.783-7.472 11.383-14.239 10.281s-11.363-7.486-10.264-14.26a12.41 12.41 0 0 1 14.24-10.271z" stroke-width="25.201" class="B"/></g><g class="C"><path d="M975.912 422.806c3.393 4.647 2.406 11.185-2.254 14.581l-10.536 7.723-12.302-16.81 10.536-7.732c4.632-3.395 11.154-2.398 14.556 2.239m-214.549 77.602a10.41 10.41 0 0 0 14.701-.848l8.683-9.774-15.555-13.863-8.683 9.753a10.43 10.43 0 0 0 .854 14.713" class="B"/><path d="M892.726 427.884c24.022 4.404 47.086-11.503 51.486-35.564 4.398-24.051-11.496-47.118-35.527-51.529-24.041-4.402-47.086 11.506-51.486 35.567-4.408 24.051 11.496 47.115 35.527 51.527" class="B"/></g><path d="M883.619 465.642c31.324 8.062 72.734-8.758 83.544-23.478l-8.789-19.912c-27.404 15.351-51.898 16.902-68.872 13.309l-28.675-14.956c-60.17 5.851-95.966 60.482-95.966 60.482l13.392 16.293c35.33-31.54 53.159-36.356 53.159-36.356-4.22 10.564-8.262 21.277-12.069 32.198l-.055.161c-6.645 19.057-12.547 38.743-17.34 59.382l-42.736 10.554-.883 28.858s45.074-2.605 55.177-8.108c7.37-4.007 13.592-10.535 19.607-17.102 4.023-3.865 7.735-7.93 11.202-12.124 9.492 10.131 17.198 17.487 17.379 17.374-2.134 25.595 4.632 38.849 8.609 60.68l26.288-1.674.76-69.354-27.556-49.957c6.908-16.432 11.183-32.593 13.825-46.212" class="B"/><path d="M873.009 438.251c-4.944-2.945-6.571-9.36-3.609-14.287l6.691-11.233 17.903 10.668-6.701 11.241c-2.94 4.948-9.343 6.576-14.265 3.612" class="B C"/><g fill="none" stroke="#000" stroke-width="1.805" class="D"><path d="M870.283 632.851s19.756-.922 26.288-1.686c6.025-.686 23.909-3.988 23.909-3.988M759.192 563.3s-1.006 19.753-.902 26.365c.113 6.068 1.646 24.203 1.646 24.203m176.034-202.84c2.048 1.233 4.728.547 5.931-1.512 1.23-2.061.544-4.732-1.513-5.945m22.478 24.944c1.768 1.045 4.042.47 5.077-1.298 1.042-1.777.469-4.045-1.297-5.098" class="B"/><path d="M968.263 426.813c-2.218 1.958-2.416 5.334-.472 7.554 1.956 2.22 5.329 2.418 7.529.47m-43.703-18.925l-8.787-4.59" class="B"/></g><path d="M944.013 374.202c-2.801-12.471-10.957-23.637-23.259-29.826-21.815-11.007-48.414-2.211-59.409 19.63-1.908 3.809-3.186 7.761-3.948 11.758l86.6-1.544z" class="B"/><path d="M894.013 372.021c0-10.891-4.153-20.788-10.902-28.304-13.065 5.693-23.148 17.562-25.913 32.641-2.406 13.056 1.241 25.812 8.873 35.453 16.279-5.89 27.941-21.458 27.941-39.79" class="B"/><g fill="#1ead28"><path d="M856.477 376.969l85.553 24.042 2.923-8.079 1.636-12.765zm.337 0l-7.752-21.834-8.395 6.916-5.055 5.746z" class="B"/><path d="M856.814 376.649l-23.129-.903 3.279 10.386 3.45 6.8z" class="B"/></g><path d="M939.391 389.611a5.57 5.57 0 1 1-11.147 0 5.57 5.57 0 0 1 5.572-5.579c3.082 0 5.575 2.495 5.575 5.579" class="B"/></svg>