<svg xmlns="http://www.w3.org/2000/svg" width="1280" height="720" xmlns:v="https://vecta.io/nano"><style><![CDATA[.B{clip-path:none}]]></style><defs><clipPath ><path d="M0 0h708.12v398.41H0z" fill="none" stroke-width="0"/></clipPath><clipPath ><path d="M-14.17-14.17h736.48v412.58H-14.17z" fill="none" stroke-width="0"/></clipPath><linearGradient id="C" gradientTransform="matrix(0,763.16996,762.53247,0,-752924.46,-1004797.2)" x1="1317.442" y1="988.242" x2="1316.696" y2="988.242" gradientUnits="userSpaceOnUse" spreadMethod="pad"><stop offset="0" stop-color="#f6a227"/><stop offset="1" stop-color="#ffc93c"/></linearGradient><linearGradient id="D" x1="638.349" y1="721.524" x2="638.349" y2="636.398" gradientUnits="userSpaceOnUse" spreadMethod="pad"><stop offset="0" stop-color="#1ead28"/><stop offset="1" stop-color="#248029"/></linearGradient></defs><path d="M0 0h1280v720H0z" fill="url(#C)" class="B"/><g fill="#ff7b54"><path d="M573.635 272.818c5.664 7.711 3.971 18.534-3.734 24.174l-17.487 12.779-20.49-27.908 17.511-12.827c7.711-5.683 18.534-3.996 24.15 3.74M217.372 401.535a17.36 17.36 0 0 0 24.455-1.401l14.423-16.177-25.843-23.011-14.442 16.202c-6.353 7.139-5.707 18.084 1.407 24.436" class="B"/><path d="M438.754 274.773c43.897 8.04 85.966-21.007 94.054-64.861 8.04-43.896-21.007-85.959-64.861-94.048-43.921-8.04-85.984 21.007-94.072 64.904-8.04 43.896 21.007 85.984 64.879 94.054" class="B"/></g><g fill="none" stroke="#000" stroke-width="3.015" stroke-miterlimit="10"><path d="M517.722 243.984c3.758 2.235 8.637 1.023 10.872-2.783a7.91 7.91 0 0 0-2.783-10.872m26.171 51.935c2.93 1.736 6.736.786 8.472-2.138 1.712-2.93.762-6.712-2.168-8.448" class="B"/><path d="M560.905 279.432c-3.66 3.265-4.02 8.874-.786 12.517 3.234 3.667 8.826 4.02 12.517.786m-62.857-39.828l-16.037-8.375" class="B"/></g><path d="M532.4 176.796c-5.11-22.749-20.008-43.16-42.489-54.464-39.828-20.033-88.438-4.02-108.495 35.832-3.52 6.95-5.853 14.155-7.205 21.464l158.19-2.784z" class="B"/><path d="M441.087 172.825c0-19.868-7.589-37.927-19.886-51.632-23.839 10.373-42.307 32.025-47.325 59.574-4.379 23.839 2.284 47.112 16.226 64.69 29.741-10.775 51.01-39.158 51.01-72.633m82.871 32.118c0 5.616-4.568 10.184-10.184 10.184s-10.184-4.568-10.184-10.184 4.568-10.184 10.184-10.184 10.184 4.568 10.184 10.184" class="B"/><path d="M284.748 488.377l-70.97 17.511-1.474 47.868s74.874-4.306 91.648-13.485c12.182-6.663 22.554-17.444 32.519-28.365 6.663-6.395 12.876-13.156 18.583-20.1 15.775 16.817 31.715 40.802 31.575 40.443 8.491 21.866 36.186 72.998 47.868 88.104l40.376-16.847-31.691-100.041L398 421.64l-91.051-12.23c-8.35 25.533-15.897 51.748-22.201 79.016" fill="#1e5c93" class="B"/><path d="M420.39 343.842c52.034 13.394 120.768-14.514 138.73-38.951l-14.63-33.024c-45.492 25.484-86.203 28.03-114.373 22.055l-47.606-24.814c-99.901 9.733-159.335 100.383-159.335 100.383l22.244 27.025c58.648-52.296 88.268-60.336 88.268-60.336a1215.47 1215.47 0 0 0-20.057 53.386s-.042.195-.091.286l-6.59 19.466 91.051 12.224-.597-1.041c11.469-27.268 18.583-54.08 22.987-76.683" fill="#7c2869" class="B"/><path d="M402.757 298.399c-8.229-4.879-10.921-15.489-5.993-23.699l11.11-18.65 29.741 17.724-11.11 18.65a17.24 17.24 0 0 1-23.7 5.975" fill="#ff7b54" class="B"/><path d="M213.778 505.888h-22.627l-1.498 70.02s22.152-5.756 22.651-22.152zm220.128 113.326l10.226 20.197 63.143-30.381s-15.178-17.133-30.022-10.184l-43.348 20.368z" class="B"/><path d="M960.661 233.175c-8.972-5.344-19.406-15.136-25.633-24.055-14.751-21.131-19.404-47.772-12.611-72.21 11.907-42.838 55.327-69.457 99.38-60.925 7.192 1.393 18.439 5.663 25.559 9.703 28.274 16.045 45.139 48.078 42.625 80.962-1.207 15.789-7.604 32.542-17.165 44.955-19.574 25.411-52.035 37.997-83.476 32.364-6.909-1.237-22.46-7.091-28.678-10.794zm34.236-24.367c13.484 2.89 28.354-.415 39.793-8.845 5.087-3.749 7.655-6.456 11.394-12.009 9.782-14.53 11.427-32.575 4.408-48.353-5.376-12.085-14.086-20.645-26.238-25.786-12.646-5.349-25.329-5.416-38.192-.2s-21.918 14.097-27.267 26.742c-5.14 12.152-5.429 24.361-.87 36.778 5.964 16.245 19.638 27.958 36.972 31.673zm-9.26-15.748c-14.087-8.293-21.414-24.963-18.211-41.434 3.618-18.606 22.438-31.97 41.942-29.784 9.706 1.088 17.776 5.518 24.748 13.586 7.272 8.416 10.356 20.67 8.115 32.236-1.143 5.898-2.295 8.621-5.731 13.549-11.473 16.453-34.09 21.721-50.863 11.847zm34.261-24.402c5.24-.143 8.072-9.639 5.077-17.024-3.087-7.612-11.804-12.296-15.715-8.443-2.658 2.619-2.385 6.528.603 8.636 4.045 2.853 5.583 6.04 4.337 8.986-1.646 3.892 1.312 7.965 5.697 7.846z" fill="#fd7853" stroke="#73e442" stroke-width=".24"/><path d="M974.732 472.326c-8.104-1.463-32.457-9.419-48.152-15.732-51.375-20.663-96.354-50.734-138.306-92.464-25.734-25.599-53.249-64.074-71.594-100.116-10.132-19.906-21.341-47.552-25.358-62.544-.732-2.733-2.141-6.882-3.129-9.22-1.349-3.19-1.79-4.904-1.77-6.867.079-7.216 7.448-14.083 13.651-12.726 1.034.226 2.789 1.113 3.9 1.971 1.961 1.514 2.126 1.895 5.641 12.982 13.356 42.14 28.801 75.038 50.284 107.105 23.625 35.264 58.016 70.925 92.927 96.36 34.936 25.452 77.644 46.318 119.78 58.52 3.82 1.106 7.689 2.384 8.598 2.838 4.066 2.033 5.644 5.929 4.562 11.257-1.213 5.968-5.825 9.577-11.036 8.636zm-6.122-61.567c-8.781-1.483-31.03-9.151-46.61-16.065-55.367-24.569-101.89-64.542-135.249-116.209-14.713-22.788-24.551-43.754-35.733-76.152-1.957-5.671-3.202-13.915-2.6-17.225 1.022-5.616 8.521-8.713 14.827-6.122 3.396 1.395 4.665 3.137 6.049 8.302.669 2.496 2.535 8.394 4.146 13.107 19.183 56.099 50.818 101.182 96.536 137.57 18.872 15.021 38.75 26.942 62.652 37.575 9.007 4.006 14.264 5.995 25.805 9.764 14.362 4.689 19.333 6.717 20.857 8.51 3.673 4.318 2.544 11.415-2.426 15.254-2.511 1.939-4.441 2.334-8.254 1.69zm-3.782-58.162c-8.4-1.085-25.361-7.123-40.368-14.372-37.81-18.263-70.95-48.195-93.038-84.034-10.216-16.576-19.641-38.042-24.136-54.971-2.153-8.18-.872-12.873 4.403-15.927 2.701-1.564 5.093-1.753 8.356-.662 4.438 1.485 5.885 3.71 9.239 14.21 9.117 28.534 21.078 50.153 38.791 70.113 19.362 21.817 31.579 32.292 50.33 43.153 12.534 7.26 21.236 10.97 52.756 22.497l5.751 2.103.994 3.055c.851 2.619.843 3.569-.049 6.651-1.186 4.096-4.052 7.237-7.403 8.111-1.127.294-3.658.327-5.625.073zm-12.357-57.419c-6.303-1.724-20.28-7.553-27.266-11.37-10.763-5.882-25.22-17.024-32.02-24.678-12.049-13.564-21.741-30.13-27.526-47.047-3.373-9.862-3.323-13.159.261-17.387 4.584-5.409 13.186-4.672 16.704 1.431.735 1.274 2.469 5.531 3.853 9.459 11.021 31.276 36.029 56.652 65.373 66.334 11.383 3.756 14.335 5.83 15.771 11.08.794 2.817.385 5.138-1.321 7.913-2.805 4.563-7.477 6.004-13.829 4.266z" fill="#7c2869"/><path d="M0 638.857h1280V720H0z" fill="url(#D)"/></svg>