<svg xmlns="http://www.w3.org/2000/svg" width="1280" height="720" xmlns:v="https://vecta.io/nano"><defs><clipPath ><path d="M0 0h708.12v398.41H0z" fill="none" stroke-width="0"/></clipPath><clipPath ><path d="M-14.17-14.17h736.48v412.58H-14.17z" fill="none" stroke-width="0"/></clipPath><linearGradient id="C" gradientTransform="matrix(0,391.70768,391.3805,0,-613730.76,173985.12)" x1="-444.171" y1="1569.753" x2="-442.334" y2="1569.751" gradientUnits="userSpaceOnUse" spreadMethod="pad"><stop offset="0" stop-color="#ff7b54"/><stop offset="1" stop-color="#d64e4e"/></linearGradient></defs><path d="M0 0h1280v720H0z" fill="url(#C)"/><path d="M967.615 720v-.001h50.547V295.48c0-76.617-65.386-138.663-146.05-138.663H407.886c-80.631 0-146.048 62.001-146.048 138.646v424.537h51.545V720z" fill="#002752"/><rect width="195.346" height="374.692" x="367.168" y="257.411" ry="73.937" fill="#ffc93c"/><g fill="#fd7853" stroke="#73e442"><path d="M435.018 418.931c-21.905-12.895-33.298-38.817-28.317-64.43 5.626-28.932 34.891-49.713 65.221-46.314 15.092 1.691 27.642 8.581 38.482 21.127 11.307 13.086 16.104 32.142 12.618 50.127-1.778 9.172-3.569 13.406-8.912 21.068-17.84 25.584-53.009 33.776-79.092 18.422zm53.275-37.946c8.149-.223 12.552-14.989 7.895-26.473-4.8-11.837-18.355-19.12-24.436-13.129-4.134 4.072-3.709 10.152.938 13.429 6.29 4.437 8.682 9.392 6.745 13.973-2.56 6.052 2.039 12.386 8.858 12.2z" stroke-width=".376"/><path d="M444.752 571.485c-14.755-8.686-22.429-26.147-19.074-43.4 3.79-19.488 23.502-33.487 43.932-31.197 10.166 1.139 18.619 5.78 25.922 14.231 7.616 8.815 10.848 21.651 8.5 33.766-1.198 6.178-2.404 9.03-6.003 14.192-12.017 17.233-35.707 22.751-53.276 12.409zm35.887-25.56c5.489-.15 8.454-10.096 5.317-17.832-3.233-7.973-12.364-12.879-16.46-8.843-2.784 2.743-2.498 6.838.632 9.046 4.236 2.989 5.848 6.327 4.543 9.412-1.724 4.077 1.373 8.343 5.967 8.218z" stroke-width=".254"/></g></svg>