<svg width="1280" height="720" viewBox="0 0 1280 720" fill="none" xmlns="http://www.w3.org/2000/svg">
<rect width="1280" height="720" fill="white"/>
<path d="M144.711 403.138L489.561 275.586L495.14 281.513L495.212 287.012L147.388 416.603L143.323 411.657L144.711 403.138Z" fill="#D9D9D9"/>
<path d="M143.323 411.657L144.711 403.138L489.561 275.586L495.14 281.513M143.323 411.657L495.14 281.513M143.323 411.657L147.388 416.603L495.212 287.012L495.14 281.513" stroke="black" stroke-width="2"/>
<path d="M135.377 491.768L526.591 315.601L532.17 321.529L532.262 328.528L137.561 505.741L133.989 500.287L135.377 491.768Z" fill="#D9D9D9"/>
<path d="M133.989 500.287L135.377 491.768L526.591 315.601L532.17 321.529M133.989 500.287L532.17 321.529M133.989 500.287L137.561 505.741L532.262 328.528L532.17 321.529" stroke="black" stroke-width="2"/>
<mask id="mask0_151_2" style="mask-type:alpha" maskUnits="userSpaceOnUse" x="144" y="268" width="391" height="248">
<path d="M184.746 367.608L156.427 381.482L144.528 503.149L152.192 515.55L189.458 497.557L190.864 376.528L184.746 367.608Z" fill="#F4F2F2"/>
<path d="M223.559 353.095L194.739 366.976L193.74 480.999L201.384 491.899L238.144 473.413L229.203 364.022L223.559 353.095Z" fill="#F4F2F2"/>
<path d="M234.064 353.457L262.884 339.576L269.015 349.496L288.863 451.744L251.097 469.743L244.439 457.829L234.064 353.457Z" fill="#F4F2F2"/>
<path d="M304.709 326.025L273.39 339.938L294.139 434.673L300.303 447.093L339.569 429.075L310.347 336.451L304.709 326.025Z" fill="#F4F2F2"/>
<path d="M382.144 396.511L345.521 311.486L314.202 325.399L342.865 413.529L348.522 425.456L386.295 407.957L382.144 396.511Z" fill="#F4F2F2"/>
<path d="M431.857 374.354L386.347 297.947L354.527 311.867L356.132 319.847L395.748 404.332L434.028 387.327L431.857 374.354Z" fill="#F4F2F2"/>
<path d="M484.22 363.664L481.056 351.204L430.172 284.368L398.852 298.282L401.997 309.242L446.454 381.662L484.22 363.664Z" fill="#F4F2F2"/>
<path d="M534.933 341.494L532.262 328.528L474.97 268.778L443.651 282.691L446.828 296.151L496.16 359.006L534.933 341.494Z" fill="#F4F2F2"/>
</mask>
<g mask="url(#mask0_151_2)">
<path d="M184.746 367.608L156.427 381.482L144.528 503.149L152.192 515.55L189.458 497.557L190.864 376.528L184.746 367.608Z" fill="#FFDF53"/>
<path d="M223.559 353.096L194.739 366.977L193.74 481L201.384 491.9L238.144 473.414L229.203 364.023L223.559 353.096Z" fill="#F4F2F2"/>
<path d="M234.064 353.458L262.884 339.577L269.015 349.497L288.863 451.745L251.097 469.744L244.439 457.83L234.064 353.458Z" fill="#F4F2F2"/>
<path d="M304.709 326.025L273.39 339.938L294.139 434.673L300.303 447.093L339.569 429.075L310.347 336.451L304.709 326.025Z" fill="#F4F2F2"/>
<path d="M382.144 396.511L345.521 311.486L314.202 325.399L342.865 413.529L348.522 425.456L386.295 407.957L382.144 396.511Z" fill="#F4F2F2"/>
<path d="M431.857 374.355L386.347 297.948L354.527 311.868L356.132 319.848L395.748 404.333L434.028 387.328L431.857 374.355Z" fill="#F4F2F2"/>
<path d="M484.22 363.665L481.056 351.205L430.172 284.369L398.852 298.283L401.997 309.243L446.454 381.663L484.22 363.665Z" fill="#F4F2F2"/>
<path d="M534.933 341.494L532.262 328.528L474.97 268.778L443.651 282.691L446.828 296.151L496.16 359.006L534.933 341.494Z" fill="#F4F2F2"/>
<g style="mix-blend-mode:multiply">
<path d="M156.448 534.995L134.075 506.788L181.801 485.657L190.471 498.544L193.74 481L531.242 327.042L545.083 352.862L156.448 534.995Z" fill="#D9D9D9"/>
</g>
<g style="mix-blend-mode:multiply">
<path d="M190.991 500.037L192.338 374.509L184.674 362.109L181.787 484.657L190.991 500.037Z" fill="#D9D9D9" fill-opacity="0.4"/>
</g>
<path d="M240.769 482.881L231.551 352.491L222.907 341.604L231.086 469.007L240.769 482.881Z" fill="#D9D9D9"/>
<path d="M296.172 475.15L271.015 349.47L262.371 338.583L286.489 461.276L296.172 475.15Z" fill="#D9D9D9"/>
<path d="M414.181 437.093L354.014 310.874L347.903 302.454L406.096 430.699L414.181 437.093Z" fill="#D9D9D9"/>
<path d="M459.67 397.99L396.8 294.309L395.359 298.829L455.763 405.043L459.67 397.99Z" fill="#D9D9D9"/>
<path d="M499.627 356.46L432.961 268.331L430.033 273.87L495.719 363.512L499.627 356.46Z" fill="#D9D9D9"/>
<path d="M349.963 458.94L314.801 332.892L303.644 321.038L340.28 445.066L349.963 458.94Z" fill="#D9D9D9"/>
</g>
<path d="M181.905 485.655L144.528 503.148L156.113 381.485L184.746 367.607L181.905 485.655Z" stroke="black" stroke-width="2"/>
<path d="M161.479 385.415L165.571 392.361C169.597 394.308 177.043 390.21 177.484 385.704L173.899 379.25" stroke="black" stroke-width="2"/>
<path d="M173.532 378.658C170.697 375.805 160.055 380.567 161.023 384.604C162.01 388.72 176.372 381.924 173.532 378.658Z" stroke="black" stroke-width="2"/>
<path d="M155.572 468.499L159.664 475.446C163.69 477.393 171.137 473.295 171.578 468.789L167.992 462.335" stroke="black" stroke-width="2"/>
<path d="M167.626 461.743C164.791 458.89 154.149 463.652 155.117 467.689C156.103 471.805 170.466 465.009 167.626 461.743Z" stroke="black" stroke-width="2"/>
<path d="M184.74 367.107L190.864 376.527L189.458 497.556L152.192 515.549L144.534 503.648" stroke="black" stroke-width="2"/>
<path d="M181.794 485.156L189.458 497.556" stroke="black" stroke-width="2"/>
<path d="M231.118 463.505L193.74 480.999L194.925 366.973L223.559 353.095L231.118 463.505Z" stroke="black" stroke-width="2"/>
<path d="M199.331 373.915L203.423 380.862C207.449 382.809 214.895 378.711 215.336 374.205L211.751 367.751" stroke="black" stroke-width="2"/>
<path d="M211.384 367.159C208.549 364.306 197.908 369.068 198.875 373.105C199.862 377.221 214.224 370.425 211.384 367.159Z" stroke="black" stroke-width="2"/>
<path d="M200.332 449.909L204.424 456.855C208.45 458.803 215.896 454.704 216.337 450.198L212.752 443.745" stroke="black" stroke-width="2"/>
<path d="M212.385 443.153C209.55 440.299 198.908 445.062 199.876 449.098C200.863 453.215 215.225 446.418 212.385 443.153Z" stroke="black" stroke-width="2"/>
<path d="M193.747 481.499L201.385 491.899L238.151 473.913M238.151 473.913L229.203 364.022L223.552 352.595M238.151 473.913L231.007 463.006" stroke="black" stroke-width="2"/>
<path d="M281.823 440.836L244.445 458.33L234.25 353.455L262.883 339.577L281.823 440.836Z" stroke="black" stroke-width="2"/>
<path d="M251.037 427.24L255.128 434.186C259.154 436.134 266.601 432.035 267.042 427.529L263.456 421.076" stroke="black" stroke-width="2"/>
<path d="M263.09 420.484C260.255 417.631 249.613 422.393 250.581 426.429C251.568 430.546 265.93 423.749 263.09 420.484Z" stroke="black" stroke-width="2"/>
<path d="M242.155 360.351L246.247 367.298C250.273 369.245 257.72 365.147 258.16 360.64L254.575 354.187" stroke="black" stroke-width="2"/>
<path d="M254.208 353.595C251.374 350.742 240.732 355.504 241.699 359.541C242.686 363.657 257.048 356.861 254.208 353.595Z" stroke="black" stroke-width="2"/>
<path d="M244.445 458.33L251.09 469.243L288.863 451.744M288.863 451.744L269.014 349.497L262.877 339.076M288.863 451.744L281.718 440.837" stroke="black" stroke-width="2"/>
<path d="M333.016 417.159L294.145 435.172L273.389 339.937L304.709 326.024L333.016 417.159Z" stroke="black" stroke-width="2"/>
<path d="M298.769 406.609L302.861 413.556C306.887 415.503 314.334 411.404 314.775 406.898L311.189 400.445" stroke="black" stroke-width="2"/>
<path d="M310.823 399.853C307.988 397 297.346 401.762 298.314 405.798C299.3 409.915 313.663 403.119 310.823 399.853Z" stroke="black" stroke-width="2"/>
<path d="M282.967 345.812L287.059 352.759C291.085 354.706 298.532 350.607 298.973 346.101L295.387 339.648" stroke="black" stroke-width="2"/>
<path d="M295.021 339.056C292.186 336.203 281.544 340.965 282.512 345.002C283.498 349.118 297.861 342.322 295.021 339.056Z" stroke="black" stroke-width="2"/>
<path d="M294.145 435.172L300.302 447.092L339.569 429.074M339.569 429.074L309.84 335.957L304.709 326.024M339.569 429.074L332.905 416.66" stroke="black" stroke-width="2"/>
<path d="M381.735 395.516L342.864 413.529L314.201 325.399L345.521 311.486L381.735 395.516Z" stroke="black" stroke-width="2"/>
<path d="M347.515 386.965L351.607 393.912C355.633 395.859 363.08 391.761 363.52 387.255L359.935 380.801" stroke="black" stroke-width="2"/>
<path d="M359.568 380.209C356.733 377.356 346.092 382.118 347.059 386.155C348.046 390.271 362.408 383.475 359.568 380.209Z" stroke="black" stroke-width="2"/>
<path d="M325.766 330.248L329.858 337.194C333.884 339.141 341.331 335.043 341.771 330.537L338.186 324.083" stroke="black" stroke-width="2"/>
<path d="M337.819 323.491C334.985 320.638 324.343 325.4 325.31 329.437C326.297 333.553 340.66 326.757 337.819 323.491Z" stroke="black" stroke-width="2"/>
<path d="M342.858 413.03L348.522 425.456L386.295 407.957L381.631 395.518" stroke="black" stroke-width="2"/>
<path d="M431.454 373.859L392.583 391.873L355.027 311.86L386.346 297.947L431.454 373.859Z" stroke="black" stroke-width="2"/>
<path d="M394.234 365.349L398.326 372.296C402.352 374.243 409.799 370.145 410.239 365.638L406.654 359.185" stroke="black" stroke-width="2"/>
<path d="M406.287 358.593C403.453 355.74 392.811 360.502 393.779 364.539C394.765 368.655 409.128 361.859 406.287 358.593Z" stroke="black" stroke-width="2"/>
<path d="M367.565 314.696L371.657 321.642C375.683 323.59 383.13 319.491 383.57 314.985L379.985 308.532" stroke="black" stroke-width="2"/>
<path d="M379.618 307.94C376.784 305.087 366.142 309.849 367.109 313.885C368.096 318.002 382.458 311.205 379.618 307.94Z" stroke="black" stroke-width="2"/>
<path d="M431.495 374.02L434.027 387.327L395.748 404.332M395.748 404.332L356.632 319.84L354.527 311.867M395.748 404.332L392.577 391.373" stroke="black" stroke-width="2"/>
<path d="M480.653 350.709L441.782 368.723L398.851 298.282L430.17 284.368L480.653 350.709Z" stroke="black" stroke-width="2"/>
<path d="M444.966 344.679L449.058 351.626C453.084 353.573 460.53 349.475 460.971 344.968L457.386 338.515" stroke="black" stroke-width="2"/>
<path d="M457.019 337.923C454.184 335.07 443.542 339.832 444.51 343.869C445.497 347.985 459.859 341.189 457.019 337.923Z" stroke="black" stroke-width="2"/>
<path d="M411.389 301.117L415.481 308.063C419.507 310.011 426.954 305.912 427.394 301.406L423.809 294.953" stroke="black" stroke-width="2"/>
<path d="M423.442 294.361C420.608 291.507 409.966 296.27 410.933 300.306C411.92 304.423 426.282 297.626 423.442 294.361Z" stroke="black" stroke-width="2"/>
<path d="M480.548 350.711L484.219 363.664L446.453 381.663L402.002 309.742L398.851 298.282" stroke="black" stroke-width="2"/>
<path d="M441.782 368.723L446.453 381.662" stroke="black" stroke-width="2"/>
<path d="M531.754 328.035L492.883 346.048L443.649 282.691L474.969 268.778L531.754 328.035Z" stroke="black" stroke-width="2"/>
<path d="M494.711 325.022L498.803 331.969C502.829 333.916 510.276 329.817 510.716 325.311L507.131 318.858" stroke="black" stroke-width="2"/>
<path d="M506.764 318.266C503.93 315.413 493.288 320.175 494.255 324.212C495.242 328.328 509.604 321.532 506.764 318.266Z" stroke="black" stroke-width="2"/>
<path d="M457.161 283.513L461.253 290.46C465.279 292.407 472.726 288.309 473.166 283.802L469.581 277.349" stroke="black" stroke-width="2"/>
<path d="M469.214 276.757C466.38 273.904 455.738 278.666 456.706 282.703C457.692 286.819 472.055 280.023 469.214 276.757Z" stroke="black" stroke-width="2"/>
<path d="M443.649 282.691L447.327 296.144L495.659 359.013M495.659 359.013L534.925 340.995L532.254 328.029M495.659 359.013L492.481 345.554" stroke="black" stroke-width="2"/>
<path d="M775.886 273.843L1112.42 421.952L1112.31 430.091L1108.54 434.094L768.447 285.383L768.965 279.001L775.886 273.843Z" fill="#D9D9D9"/>
<path d="M768.965 279.001L775.886 273.843L1112.42 421.952L1112.31 430.091M768.965 279.001L1112.31 430.091M768.965 279.001L768.447 285.383L1108.54 434.094L1112.31 430.091" stroke="black" stroke-width="2"/>
<path d="M707.551 331.052L1111.21 476.459L1111.1 484.598L1106.3 489.692L699.406 342.613L700.63 336.21L707.551 331.052Z" fill="#D9D9D9"/>
<path d="M700.63 336.21L707.551 331.052L1111.21 476.459L1111.1 484.598M700.63 336.21L1111.1 484.598M700.63 336.21L699.406 342.613L1106.3 489.692L1111.1 484.598" stroke="black" stroke-width="2"/>
<mask id="mask1_151_2" style="mask-type:alpha" maskUnits="userSpaceOnUse" x="703" y="266" width="404" height="235">
<path d="M829.364 276.145L799.364 266.425L706.215 345.594L703.101 359.835L742.394 372.816L827.559 286.81L829.364 276.145Z" fill="#F4F2F2"/>
<path d="M867.349 292.702L836.985 282.639L756.985 363.894L754.9 377.043L794.172 389.317L863.809 304.48L867.349 292.702Z" fill="#F4F2F2"/>
<path d="M874.648 300.267L905.013 310.329L902.521 321.722L845.692 409.008L806.034 395.685L809.533 382.493L874.648 300.267Z" fill="#F4F2F2"/>
<path d="M944.495 329.672L912.312 317.895L861.353 400.408L857.147 413.62L897.897 427.973L941.297 341.086L944.495 329.672Z" fill="#F4F2F2"/>
<path d="M951.137 434.172L983.936 347.6L951.752 335.822L911.074 419.092L906.847 431.597L946.162 445.285L951.137 434.172Z" fill="#F4F2F2"/>
<path d="M1002.27 452.814L1022.69 366.256L990.143 354.136L985.749 360.987L955.476 449.253L994.812 463.647L1002.27 452.814Z" fill="#F4F2F2"/>
<path d="M1047.34 481.54L1053.73 470.386L1063.63 386.97L1031.45 375.192L1026.09 385.256L1007.68 468.217L1047.34 481.54Z" fill="#F4F2F2"/>
<path d="M1099.2 500.869L1106.3 489.693L1106.67 406.914L1074.48 395.137L1067.41 407.019L1059.16 486.495L1099.2 500.869Z" fill="#F4F2F2"/>
</mask>
<g mask="url(#mask1_151_2)">
<path d="M829.364 276.145L799.364 266.425L706.214 345.594L703.1 359.835L742.394 372.816L827.559 286.81L829.364 276.145Z" fill="#F4F2F2"/>
<path d="M867.349 292.702L836.985 282.639L756.985 363.894L754.9 377.043L794.172 389.317L863.809 304.48L867.349 292.702Z" fill="#F4F2F2"/>
<path d="M874.648 300.267L905.013 310.329L902.521 321.722L845.692 409.008L806.034 395.685L809.533 382.493L874.648 300.267Z" fill="#F4F2F2"/>
<path d="M944.495 329.671L912.311 317.894L861.353 400.407L857.147 413.619L897.897 427.972L941.297 341.085L944.495 329.671Z" fill="#F4F2F2"/>
<path d="M951.137 434.172L983.936 347.6L951.752 335.822L911.074 419.092L906.847 431.597L946.162 445.285L951.137 434.172Z" fill="#F4F2F2"/>
<path d="M1002.27 452.814L1022.69 366.256L990.143 354.136L985.748 360.987L955.476 449.253L994.812 463.647L1002.27 452.814Z" fill="#F4F2F2"/>
<path d="M1047.34 481.54L1053.73 470.386L1063.63 386.97L1031.45 375.192L1026.09 385.256L1007.68 468.217L1047.34 481.54Z" fill="#F4F2F2"/>
<path d="M1099.2 500.868L1106.3 489.692L1106.67 406.913L1074.48 395.136L1067.41 407.018L1059.16 486.494L1099.2 500.868Z" fill="#D84141"/>
<g style="mix-blend-mode:multiply">
<path d="M692.639 376.77L696.172 340.94L745.165 358.939L742.436 374.229L756.985 363.893L1053.26 469.95L1056.54 489.551L1065.6 474.369L1106.1 488.866L1098.59 516.096L692.639 376.77Z" fill="#D9D9D9"/>
</g>
<g style="mix-blend-mode:multiply">
<path d="M741.771 375.664L830.022 286.383L833.136 272.142L745.851 358.211L741.771 375.664Z" fill="#D9D9D9" fill-opacity="0.4"/>
</g>
<path d="M789.477 397.945L873.515 297.824L874.872 283.989L792.164 381.241L789.477 397.945Z" fill="#D9D9D9"/>
<path d="M834.67 430.912L903.977 323.094L905.334 309.259L837.357 414.208L834.67 430.912Z" fill="#D9D9D9"/>
<path d="M945.945 485.614L990.465 353.065L991.927 342.764L944.58 475.397L945.945 485.614Z" fill="#D9D9D9"/>
<path d="M1005.83 489.141L1032.73 370.91L1028.56 373.156L998.115 491.492L1005.83 489.141Z" fill="#D9D9D9"/>
<g style="mix-blend-mode:multiply">
<path d="M1066.08 474.891L1076.79 377.383L1070.83 379.328L1055.71 489.427L1066.08 474.891Z" fill="#D9D9D9"/>
</g>
<path d="M884.601 456.664L946.973 341.624L947.196 325.347L887.288 439.96L884.601 456.664Z" fill="#D9D9D9"/>
</g>
<path d="M745.242 359.011L706.215 345.594L799.135 266.21L829.364 276.145L745.242 359.011Z" stroke="black" stroke-width="2"/>
<path d="M800.26 272.765L798.37 280.603C799.91 284.802 808.112 287.034 811.562 284.102L813.472 276.971" stroke="black" stroke-width="2"/>
<path d="M813.62 276.29C813.567 272.269 802.607 268.292 800.496 271.866C798.343 275.51 813.391 280.612 813.62 276.29Z" stroke="black" stroke-width="2"/>
<path d="M738.244 328.372L736.355 336.209C737.895 340.408 746.096 342.64 749.546 339.708L751.457 332.577" stroke="black" stroke-width="2"/>
<path d="M751.605 331.897C751.551 327.875 740.592 323.898 738.48 327.472C736.327 331.117 751.375 336.219 751.605 331.897Z" stroke="black" stroke-width="2"/>
<path d="M829.707 275.781L827.559 286.81L742.395 372.816L703.101 359.835L705.872 345.958" stroke="black" stroke-width="2"/>
<path d="M745.509 358.574L742.395 372.815" stroke="black" stroke-width="2"/>
<path d="M796.012 377.31L756.985 363.894L837.12 282.767L867.349 292.702L796.012 377.31Z" stroke="black" stroke-width="2"/>
<path d="M835.46 290.82L833.57 298.658C835.11 302.856 843.312 305.089 846.762 302.157L848.672 295.026" stroke="black" stroke-width="2"/>
<path d="M848.82 294.345C848.767 290.323 837.807 286.347 835.696 289.921C833.543 293.565 848.591 298.667 848.82 294.345Z" stroke="black" stroke-width="2"/>
<path d="M783.339 346.132L781.45 353.97C782.99 358.169 791.191 360.401 794.641 357.469L796.552 350.338" stroke="black" stroke-width="2"/>
<path d="M796.7 349.657C796.646 345.636 785.687 341.659 783.575 345.233C781.422 348.878 796.47 353.979 796.7 349.657Z" stroke="black" stroke-width="2"/>
<path d="M756.642 364.257L754.9 377.042L793.83 389.68M793.83 389.68L863.809 304.479L867.692 292.338M793.83 389.68L796.279 376.874" stroke="black" stroke-width="2"/>
<path d="M848.217 396.274L809.19 382.858L874.784 300.395L905.013 310.33L848.217 396.274Z" stroke="black" stroke-width="2"/>
<path d="M835.544 365.096L833.655 372.934C835.195 377.133 843.396 379.365 846.846 376.433L848.757 369.302" stroke="black" stroke-width="2"/>
<path d="M848.905 368.621C848.851 364.6 837.892 360.623 835.78 364.197C833.627 367.841 848.675 372.943 848.905 368.621Z" stroke="black" stroke-width="2"/>
<path d="M875.67 310.847L873.781 318.685C875.321 322.884 883.522 325.116 886.972 322.184L888.883 315.053" stroke="black" stroke-width="2"/>
<path d="M889.031 314.372C888.977 310.351 878.018 306.374 875.906 309.948C873.753 313.592 888.801 318.694 889.031 314.372Z" stroke="black" stroke-width="2"/>
<path d="M809.19 382.858L806.377 395.321L845.692 409.009M845.692 409.009L902.522 321.722L905.356 309.966M845.692 409.009L848.141 396.202" stroke="black" stroke-width="2"/>
<path d="M901.472 414.853L861.01 400.772L912.312 317.895L944.495 329.672L901.472 414.853Z" stroke="black" stroke-width="2"/>
<path d="M884.194 383.459L882.305 391.296C883.845 395.495 892.046 397.727 895.496 394.795L897.407 387.664" stroke="black" stroke-width="2"/>
<path d="M897.555 386.984C897.501 382.962 886.542 378.985 884.43 382.559C882.277 386.204 897.325 391.306 897.555 386.984Z" stroke="black" stroke-width="2"/>
<path d="M915.111 328.776L913.221 336.614C914.761 340.812 922.963 343.045 926.413 340.113L928.323 332.982" stroke="black" stroke-width="2"/>
<path d="M928.471 332.301C928.418 328.28 917.458 324.303 915.347 327.877C913.194 331.521 928.242 336.623 928.471 332.301Z" stroke="black" stroke-width="2"/>
<path d="M861.01 400.772L857.147 413.621L897.897 427.973M897.897 427.973L941.276 340.379L944.495 329.672M897.897 427.973L901.738 414.418" stroke="black" stroke-width="2"/>
<path d="M951.536 433.173L911.074 419.092L951.753 335.822L983.936 347.6L951.536 433.173Z" stroke="black" stroke-width="2"/>
<path d="M932.887 403.234L930.997 411.072C932.537 415.27 940.739 417.503 944.189 414.571L946.099 407.44" stroke="black" stroke-width="2"/>
<path d="M946.247 406.759C946.194 402.738 935.234 398.761 933.123 402.335C930.97 405.979 946.018 411.081 946.247 406.759Z" stroke="black" stroke-width="2"/>
<path d="M956.693 347.348L954.804 355.186C956.343 359.385 964.545 361.617 967.995 358.685L969.905 351.554" stroke="black" stroke-width="2"/>
<path d="M970.054 350.873C970 346.852 959.04 342.875 956.929 346.449C954.776 350.093 969.824 355.195 970.054 350.873Z" stroke="black" stroke-width="2"/>
<path d="M911.417 418.728L906.847 431.597L946.162 445.285L951.459 433.101" stroke="black" stroke-width="2"/>
<path d="M1002.33 452.179L961.865 438.098L990.507 354.479L1022.69 366.256L1002.33 452.179Z" stroke="black" stroke-width="2"/>
<path d="M981.495 420.183L979.605 428.021C981.145 432.22 989.346 434.452 992.796 431.52L994.707 424.389" stroke="black" stroke-width="2"/>
<path d="M994.855 423.708C994.802 419.687 983.842 415.71 981.731 419.284C979.578 422.928 994.625 428.03 994.855 423.708Z" stroke="black" stroke-width="2"/>
<path d="M997.547 365.235L995.658 373.073C997.198 377.271 1005.4 379.504 1008.85 376.572L1010.76 369.441" stroke="black" stroke-width="2"/>
<path d="M1010.91 368.76C1010.85 364.739 999.895 360.762 997.783 364.336C995.63 367.98 1010.68 373.082 1010.91 368.76Z" stroke="black" stroke-width="2"/>
<path d="M1002.25 452.322L994.812 463.647L955.476 449.252M955.476 449.252L986.113 361.33L990.143 354.136M955.476 449.252L962.208 437.734" stroke="black" stroke-width="2"/>
<path d="M1053.78 469.751L1013.32 455.669L1031.45 375.192L1063.63 386.97L1053.78 469.751Z" stroke="black" stroke-width="2"/>
<path d="M1032.33 440.602L1030.44 448.44C1031.98 452.639 1040.18 454.871 1043.63 451.939L1045.54 444.808" stroke="black" stroke-width="2"/>
<path d="M1045.69 444.127C1045.63 440.106 1034.68 436.129 1032.56 439.703C1030.41 443.347 1045.46 448.449 1045.69 444.127Z" stroke="black" stroke-width="2"/>
<path d="M1038.49 385.948L1036.6 393.786C1038.14 397.984 1046.34 400.217 1049.79 397.284L1051.7 390.153" stroke="black" stroke-width="2"/>
<path d="M1051.85 389.473C1051.79 385.451 1040.83 381.474 1038.72 385.048C1036.57 388.693 1051.62 393.795 1051.85 389.473Z" stroke="black" stroke-width="2"/>
<path d="M1053.71 469.679L1047.34 481.54L1007.68 468.217L1025.74 385.619L1031.45 375.192" stroke="black" stroke-width="2"/>
<path d="M1013.32 455.669L1007.68 468.216" stroke="black" stroke-width="2"/>
<path d="M1106.28 488.985L1065.81 474.904L1074.48 395.136L1106.67 406.913L1106.28 488.985Z" stroke="black" stroke-width="2"/>
<path d="M1081.75 461.064L1079.86 468.902C1081.4 473.101 1089.6 475.333 1093.05 472.401L1094.96 465.27" stroke="black" stroke-width="2"/>
<path d="M1095.11 464.589C1095.05 460.568 1084.1 456.591 1081.98 460.165C1079.83 463.809 1094.88 468.911 1095.11 464.589Z" stroke="black" stroke-width="2"/>
<path d="M1083.62 405.122L1081.73 412.959C1083.27 417.158 1091.47 419.39 1094.92 416.458L1096.84 409.327" stroke="black" stroke-width="2"/>
<path d="M1096.98 408.647C1096.93 404.625 1085.97 400.648 1083.86 404.222C1081.71 407.867 1096.75 412.969 1096.98 408.647Z" stroke="black" stroke-width="2"/>
<path d="M1074.48 395.136L1067.77 407.361L1058.79 486.151M1058.79 486.151L1099.54 500.504L1106.64 489.328M1058.79 486.151L1065.87 474.269" stroke="black" stroke-width="2"/>
<path d="M1083.5 265C1083.5 286.262 1066.26 303.503 1045 303.503C1066.26 303.503 1083.5 320.735 1083.5 342C1083.5 320.735 1100.74 303.502 1122 303.502C1100.74 303.502 1083.5 286.262 1083.5 265Z" fill="#CE393C"/>
<path d="M1102.5 325C1102.5 337.426 1092.43 347.502 1080 347.502C1092.43 347.502 1102.5 357.572 1102.5 370C1102.5 357.572 1112.57 347.501 1125 347.501C1112.57 347.501 1102.5 337.426 1102.5 325Z" fill="#CE393C"/>
<path d="M1130.5 298C1130.5 310.426 1120.43 320.502 1108 320.502C1120.43 320.502 1130.5 330.572 1130.5 343C1130.5 330.572 1140.57 320.501 1153 320.501C1140.57 320.501 1130.5 310.426 1130.5 298Z" fill="#CE393C"/>
<path d="M1150 137V242.933V137Z" fill="#CE393C"/>
<path d="M1150 244.038C1150 255.616 1140.6 265 1129 265C1117.4 265 1108 255.616 1108 244.038C1108 232.46 1117.4 223.075 1129 223.075C1140.6 223.075 1150 232.46 1150 244.038Z" fill="#CE393C"/>
<path d="M1150 137V242.933M1150 244.038C1150 255.616 1140.6 265 1129 265C1117.4 265 1108 255.616 1108 244.038C1108 232.46 1117.4 223.075 1129 223.075C1140.6 223.075 1150 232.46 1150 244.038Z" stroke="#CE393C" stroke-width="5"/>
<path d="M188.503 233C188.503 254.262 171.263 271.503 150 271.503C171.263 271.503 188.503 288.735 188.503 310C188.503 288.735 205.736 271.502 227 271.502C205.736 271.502 188.503 254.262 188.503 233Z" fill="#FFC93C"/>
<path d="M153.502 276C153.502 288.426 143.426 298.502 131 298.502C143.426 298.502 153.502 308.572 153.502 321C153.502 308.572 163.573 298.501 176 298.501C163.573 298.501 153.502 288.426 153.502 276Z" fill="#FFC93C"/>
<path d="M149.502 227C149.502 239.426 139.426 249.502 127 249.502C139.426 249.502 149.502 259.572 149.502 272C149.502 259.572 159.573 249.501 172 249.501C159.573 249.501 149.502 239.426 149.502 227Z" fill="#FFC93C"/>
<path d="M248 97V202.933V97Z" fill="#FFC93C"/>
<path d="M248 204.038C248 215.616 238.6 225 227.002 225C215.4 225 206 215.616 206 204.038C206 192.46 215.4 183.075 227.002 183.075C238.6 183.075 248 192.46 248 204.038Z" fill="#FFC93C"/>
<path d="M248 97V202.933M248 204.038C248 215.616 238.6 225 227.002 225C215.4 225 206 215.616 206 204.038C206 192.46 215.4 183.075 227.002 183.075C238.6 183.075 248 192.46 248 204.038Z" stroke="#FFC93C" stroke-width="5"/>
</svg>
