<svg width="1280" height="720" viewBox="0 0 1280 720" fill="none" xmlns="http://www.w3.org/2000/svg">
<g clip-path="url(#clip0_410_4492)">
<rect width="1280" height="720" fill="#ECFAFF"/>
<path d="M0 0H1279.98V719.99H0V0Z" fill="url(#paint0_linear_410_4492)"/>
<path d="M1062 546.545C1043.5 414 998.799 351.641 996.532 236.475L625.484 242.104L634.38 546.545C634.38 736 1062 782.045 1062 546.545Z" fill="black" stroke="black" stroke-width="4"/>
<path d="M880.942 430.665C880.403 436.181 872.843 494 813.445 494C751.121 494 761.556 432.224 761.556 432.224L761.374 431.827L755 389.173C788.402 382.336 858.314 366.841 892 362L880.862 430.66L880.942 430.665Z" fill="#F7B28B"/>
<path d="M882.162 412C881.571 417.638 873.992 476.711 814.481 476.711C751.995 476.711 762.457 413.607 762.457 413.607L762.275 413.196C694.809 436.319 664.675 555.641 629.424 616.039C623.477 616.722 507.393 537.65 506.609 538.681C501.304 545.35 480 570.659 480 570.659C480 570.659 549.399 669.756 596.186 707.784C596.061 709.549 595.578 732.41 595.254 744.721V749H1006C997.329 663.765 976.634 578.314 966.212 493.927C959.759 431.115 912.767 415.493 882.161 412.001L882.162 412Z" fill="#CE393C"/>
<path d="M438.179 496.007C422.34 495.667 410.382 508.183 401.175 519.63C396.551 525.018 383.813 539.279 396.404 542.007C403.407 543.523 391.381 553.809 403.407 557.126C411.511 557.216 404.114 565.632 415.433 570.763C422.507 573.971 427.371 561.776 431.162 570.763C435.899 578.271 445.621 578.368 453.187 581.084C462.893 583.386 473.543 585.717 483.203 582.201C494.657 575.822 498.528 562.212 506.303 552.391C510.813 547.418 517.451 537.988 508.754 533.377C495.658 526.714 484.827 516.258 472.066 508.937C461.885 502.348 450.692 495.793 438.179 496.008V496.007Z" fill="#F7B28B"/>
<path d="M1004 222.486C1004 330.999 916.045 419 807.487 419C698.948 419 611 331.05 611 222.486C611 113.954 698.948 26 807.487 26C916.045 26 1004 113.954 1004 222.486Z" fill="#F7B28B"/>
<path d="M769.521 253.986C769.519 259.025 771.49 263.858 775.002 267.423C778.513 270.989 783.277 272.995 788.247 273C793.217 272.988 797.98 270.981 801.495 267.417C805.009 263.854 806.988 259.025 807 253.986C806.985 248.951 805.003 244.127 801.489 240.569C797.974 237.011 793.213 235.009 788.247 235C783.283 235.009 778.525 237.012 775.015 240.571C771.505 244.129 769.529 248.954 769.521 253.986ZM645.001 253.986C645.005 259.028 646.981 263.862 650.497 267.427C654.013 270.992 658.781 272.996 663.753 273C668.72 272.984 673.479 270.975 676.988 267.412C680.498 263.849 682.473 259.022 682.481 253.986C682.472 248.953 680.496 244.129 676.986 240.57C673.476 237.011 668.717 235.008 663.753 235C658.787 235.009 654.026 237.011 650.511 240.569C646.997 244.127 645.015 248.951 645 253.986" fill="black"/>
<path d="M726.751 299.144C722.905 299.144 719.217 297.609 716.497 294.876C713.778 292.143 712.25 288.437 712.25 284.572C712.25 280.707 713.778 277.001 716.497 274.268C719.217 271.535 722.905 270 726.751 270" stroke="black" stroke-width="4.54448" stroke-miterlimit="10"/>
<path d="M719.501 336C717.38 336 715.345 335.157 713.845 333.657C712.344 332.157 711.501 330.122 711.501 328C711.501 325.878 712.344 323.843 713.845 322.343C715.345 320.843 717.38 320 719.501 320" stroke="black" stroke-width="4.54448" stroke-miterlimit="10"/>
<path d="M719.501 352C717.38 352 715.345 351.157 713.845 349.657C712.344 348.157 711.501 346.122 711.501 344C711.501 341.878 712.344 339.843 713.845 338.343C715.345 336.843 717.38 336 719.501 336" stroke="black" stroke-width="4.54448" stroke-miterlimit="10"/>
<path d="M807.691 26C704.337 26 619.664 106.103 612 207.771H852.777V170.234H855.807C864.593 233.973 914.207 286.979 980.929 297.033C983.653 297.411 986.404 297.771 989.102 298C998.955 274.158 1004.02 248.602 1004 222.795C1004 114.146 916.116 26 807.645 26" fill="black"/>
<path d="M338 327V339.51" stroke="black" stroke-width="4"/>
<path d="M287 442H387C367.992 502.975 358.939 537.165 368 598H305C310.905 536.775 304.488 502.689 287 442Z" fill="#1A3567"/>
<rect x="283" y="598" width="108" height="25" fill="#1A3567"/>
<path d="M368.247 478.999C374.831 479.328 381.296 480.752 387.273 483.189C393.249 485.626 398.62 489.029 403.078 493.203C407.537 497.376 410.996 502.24 413.258 507.514C415.52 512.789 416.541 518.373 416.262 523.946C415.983 529.519 414.41 534.972 411.633 539.995C408.856 545.018 404.928 549.511 400.075 553.219C395.222 556.927 389.539 559.776 383.349 561.605C377.159 563.433 370.584 564.204 364 563.875" stroke="#1A3567" stroke-width="12"/>
<path d="M302 354C302 345.163 309.163 338 318 338H356C364.837 338 372 345.163 372 354V442H302V354Z" fill="#ECFAFF"/>
<path d="M494.8 376.605C494.8 380.953 496.538 385.123 499.633 388.198C502.727 391.273 506.924 393 511.3 393C518.395 393 525.248 388.42 527.596 382.113C527.9 381.297 527.865 380.395 527.498 379.605C527.132 378.815 526.465 378.201 525.644 377.9C524.823 377.598 523.915 377.633 523.119 377.997C522.324 378.361 521.707 379.024 521.403 379.84C520.028 383.54 515.59 386.442 511.3 386.442C508.674 386.442 506.156 385.405 504.3 383.561C502.443 381.716 501.4 379.214 501.4 376.605C501.4 373.996 502.443 371.494 504.3 369.649C506.156 367.804 508.674 366.767 511.3 366.767H572.9C573.775 366.767 574.615 366.422 575.233 365.807C575.852 365.192 576.2 364.358 576.2 363.488C576.2 362.619 575.852 361.785 575.233 361.17C574.615 360.555 573.775 360.209 572.9 360.209H511.3C506.924 360.209 502.727 361.937 499.633 365.011C496.538 368.086 494.8 372.256 494.8 376.605ZM512.4 315.395C512.4 311.047 514.138 306.877 517.233 303.802C520.327 300.727 524.524 299 528.9 299C535.995 299 542.848 303.58 545.196 309.887C545.5 310.703 545.465 311.605 545.098 312.395C544.732 313.185 544.065 313.799 543.244 314.1C542.423 314.402 541.515 314.367 540.719 314.003C539.924 313.639 539.307 312.976 539.004 312.16C537.629 308.46 533.19 305.558 528.9 305.558C526.274 305.558 523.756 306.595 521.9 308.439C520.043 310.284 519 312.786 519 315.395C519 318.004 520.043 320.506 521.9 322.351C523.756 324.196 526.274 325.233 528.9 325.233H581.7C582.575 325.233 583.415 325.578 584.033 326.193C584.652 326.808 585 327.642 585 328.512C585 329.381 584.652 330.215 584.033 330.83C583.415 331.445 582.575 331.791 581.7 331.791H528.9C524.524 331.791 520.327 330.063 517.233 326.989C514.138 323.914 512.4 319.744 512.4 315.395ZM480.5 316.488C487.595 316.488 494.448 321.068 496.797 327.375C496.947 327.779 497.015 328.208 496.999 328.639C496.982 329.069 496.88 329.492 496.698 329.883C496.517 330.275 496.26 330.627 495.942 330.919C495.624 331.212 495.251 331.439 494.844 331.588C494.437 331.738 494.005 331.806 493.572 331.789C493.139 331.773 492.713 331.671 492.319 331.491C491.926 331.311 491.571 331.055 491.277 330.739C490.983 330.423 490.754 330.052 490.603 329.648C489.228 325.948 484.79 323.047 480.5 323.047C477.874 323.047 475.356 324.083 473.5 325.928C471.643 327.773 470.6 330.275 470.6 332.884C470.6 335.493 471.643 337.995 473.5 339.84C475.356 341.685 477.874 342.721 480.5 342.721H577.3C578.175 342.721 579.015 343.066 579.633 343.681C580.252 344.296 580.6 345.13 580.6 346C580.6 346.87 580.252 347.704 579.633 348.319C579.015 348.934 578.175 349.279 577.3 349.279H480.5C476.124 349.279 471.927 347.552 468.833 344.477C465.738 341.402 464 337.232 464 332.884C464 328.535 465.738 324.365 468.833 321.29C471.927 318.216 476.124 316.488 480.5 316.488Z" fill="#85DBFF"/>
<path d="M333.985 261.801C334.9 261.274 335.937 260.998 336.993 261C338.049 260.998 339.087 261.274 340.002 261.801C340.917 262.328 341.676 263.087 342.204 264.001L357.79 291.014C360.608 295.902 361.615 301.626 360.634 307.183C359.653 312.739 356.745 317.772 352.423 321.399C343.537 328.867 330.449 328.867 321.564 321.399C317.249 317.767 314.348 312.734 313.367 307.18C312.386 301.626 313.387 295.904 316.197 291.014L331.782 264.001C332.31 263.087 333.07 262.328 333.985 261.801Z" fill="#FF7B54"/>
<path d="M335.241 289.461C335.775 289.158 336.38 288.999 336.996 289C337.612 288.999 338.217 289.158 338.751 289.461C339.285 289.765 339.728 290.202 340.036 290.728L349.127 306.281C350.772 309.095 351.359 312.391 350.786 315.59C350.214 318.789 348.518 321.687 345.996 323.775C340.813 328.075 333.179 328.075 327.996 323.775C325.479 321.684 323.786 318.786 323.214 315.589C322.642 312.391 323.226 309.096 324.865 306.281L333.956 290.728C334.264 290.202 334.707 289.765 335.241 289.461Z" fill="#FFC93C"/>
</g>
<defs>
<linearGradient id="paint0_linear_410_4492" x1="638.906" y1="745.117" x2="638.906" y2="-25.5909" gradientUnits="userSpaceOnUse">
<stop stop-color="#C0B4E5"/>
<stop offset="0.25" stop-color="#BA9BE5"/>
<stop offset="1" stop-color="#7568C5"/>
</linearGradient>
<clipPath id="clip0_410_4492">
<rect width="1280" height="720" fill="white"/>
</clipPath>
</defs>
</svg>
