<svg width="1280" height="720" viewBox="0 0 1280 720" fill="none" xmlns="http://www.w3.org/2000/svg">
<g clip-path="url(#clip0_549_331)">
<rect width="1280" height="720" fill="url(#paint0_linear_549_331)"/>
<path d="M461.972 149.775L485.911 112.993L442.126 115.915L461.972 149.775Z" fill="#1E5C93"/>
<path d="M311.553 306.173L324.999 309.642C343.902 240.45 388.806 178.278 455.818 138.749L448.703 126.688C378.452 168.127 331.355 233.471 311.553 306.173Z" fill="#1E5C93"/>
<path d="M885.329 293.011L917.784 322.552L921.939 278.867L885.329 293.011Z" fill="#1E5C93"/>
<path d="M755.15 119.404L749.565 132.118C814.817 161.898 868.962 216.214 897.204 288.708L910.252 283.625C880.645 207.626 823.723 150.637 755.15 119.404Z" fill="#1E5C93"/>
<path d="M501.741 600.304L457.893 602.142L485.674 636.111L501.741 600.304Z" fill="#1E5C93"/>
<path d="M716.394 632.101L711.419 619.135C644.095 643.877 567.403 643.368 496.332 611.716L490.635 624.508C565.142 657.69 645.688 658.146 716.394 632.101Z" fill="#1E5C93"/>
<path d="M706 109.994C706 158.038 667.058 197 618.994 197C570.939 197 532 158.06 532 109.994C532 61.9416 570.939 23 618.994 23C667.058 23 706 61.9416 706 109.994Z" fill="#F7B28B"/>
<path d="M602.477 123.63C602.476 125.868 603.345 128.015 604.893 129.599C606.441 131.182 608.542 132.074 610.733 132.076C612.924 132.07 615.024 131.179 616.573 129.596C618.122 128.013 618.995 125.868 619 123.63C618.993 121.393 618.12 119.25 616.57 117.669C615.021 116.089 612.922 115.199 610.733 115.195C608.544 115.199 606.447 116.089 604.899 117.67C603.352 119.251 602.481 121.394 602.477 123.63ZM547.583 123.63C547.584 125.869 548.456 128.016 550.006 129.6C551.556 131.184 553.657 132.074 555.849 132.076C558.039 132.069 560.137 131.176 561.684 129.594C563.231 128.011 564.102 125.866 564.106 123.63C564.102 121.394 563.231 119.251 561.683 117.67C560.136 116.089 558.038 115.199 555.849 115.195C553.66 115.199 551.561 116.089 550.012 117.669C548.462 119.25 547.589 121.393 547.582 123.63" fill="black"/>
<path d="M582.642 143.759C581.264 143.759 579.943 143.074 578.969 141.857C577.995 140.639 577.448 138.988 577.448 137.266C577.448 135.544 577.995 133.893 578.969 132.675C579.943 131.457 581.264 130.773 582.642 130.773" stroke="black" stroke-width="2" stroke-miterlimit="10"/>
<path d="M580.045 160.643C579.012 160.643 578.021 160.232 577.29 159.502C576.56 158.771 576.149 157.78 576.149 156.747C576.149 155.714 576.56 154.723 577.29 153.993C578.021 153.262 579.012 152.852 580.045 152.852" stroke="black" stroke-width="2" stroke-miterlimit="10"/>
<path d="M580.045 167.133C579.012 167.133 578.021 166.791 577.29 166.182C576.56 165.574 576.149 164.748 576.149 163.887C576.149 163.026 576.56 162.2 577.29 161.591C578.021 160.983 579.012 160.641 580.045 160.641" stroke="black" stroke-width="2" stroke-miterlimit="10"/>
<path d="M618.863 23C572.986 23 535.402 58.5638 532 103.702H638.875V87.0362H640.221C644.12 115.335 666.143 138.868 695.759 143.332C696.968 143.5 698.189 143.66 699.387 143.761C703.761 133.176 706.008 121.83 706 110.372C706 62.1344 666.99 23 618.843 23" fill="black"/>
<path d="M571.016 229.48C571.016 230.12 570.976 230.787 570.896 231.48H555.416C555.523 232.867 555.963 233.933 556.736 234.68C557.536 235.4 558.509 235.76 559.656 235.76C561.363 235.76 562.549 235.04 563.216 233.6H570.496C570.123 235.067 569.443 236.387 568.456 237.56C567.496 238.733 566.283 239.653 564.816 240.32C563.349 240.987 561.709 241.32 559.896 241.32C557.709 241.32 555.763 240.853 554.056 239.92C552.349 238.987 551.016 237.653 550.056 235.92C549.096 234.187 548.616 232.16 548.616 229.84C548.616 227.52 549.083 225.493 550.016 223.76C550.976 222.027 552.309 220.693 554.016 219.76C555.723 218.827 557.683 218.36 559.896 218.36C562.056 218.36 563.976 218.813 565.656 219.72C567.336 220.627 568.643 221.92 569.576 223.6C570.536 225.28 571.016 227.24 571.016 229.48ZM564.016 227.68C564.016 226.507 563.616 225.573 562.816 224.88C562.016 224.187 561.016 223.84 559.816 223.84C558.669 223.84 557.696 224.173 556.896 224.84C556.123 225.507 555.643 226.453 555.456 227.68H564.016ZM584.665 234.6L589.505 218.68H596.785L588.865 241H580.425L572.505 218.68H579.825L584.665 234.6ZM620.704 229.48C620.704 230.12 620.664 230.787 620.584 231.48H605.104C605.21 232.867 605.65 233.933 606.424 234.68C607.224 235.4 608.197 235.76 609.344 235.76C611.05 235.76 612.237 235.04 612.904 233.6H620.184C619.81 235.067 619.13 236.387 618.144 237.56C617.184 238.733 615.97 239.653 614.504 240.32C613.037 240.987 611.397 241.32 609.584 241.32C607.397 241.32 605.45 240.853 603.744 239.92C602.037 238.987 600.704 237.653 599.744 235.92C598.784 234.187 598.304 232.16 598.304 229.84C598.304 227.52 598.77 225.493 599.704 223.76C600.664 222.027 601.997 220.693 603.704 219.76C605.41 218.827 607.37 218.36 609.584 218.36C611.744 218.36 613.664 218.813 615.344 219.72C617.024 220.627 618.33 221.92 619.264 223.6C620.224 225.28 620.704 227.24 620.704 229.48ZM613.704 227.68C613.704 226.507 613.304 225.573 612.504 224.88C611.704 224.187 610.704 223.84 609.504 223.84C608.357 223.84 607.384 224.173 606.584 224.84C605.81 225.507 605.33 226.453 605.144 227.68H613.704ZM637.912 218.44C640.525 218.44 642.605 219.293 644.152 221C645.725 222.68 646.512 225 646.512 227.96V241H639.712V228.88C639.712 227.387 639.325 226.227 638.552 225.4C637.779 224.573 636.739 224.16 635.432 224.16C634.125 224.16 633.085 224.573 632.312 225.4C631.539 226.227 631.152 227.387 631.152 228.88V241H624.312V218.68H631.152V221.64C631.845 220.653 632.779 219.88 633.952 219.32C635.125 218.733 636.445 218.44 637.912 218.44ZM663.705 235.2V241H660.225C657.745 241 655.812 240.4 654.425 239.2C653.038 237.973 652.345 235.987 652.345 233.24V224.36H649.625V218.68H652.345V213.24H659.185V218.68H663.665V224.36H659.185V233.32C659.185 233.987 659.345 234.467 659.665 234.76C659.985 235.053 660.518 235.2 661.265 235.2H663.705ZM677.675 241.32C675.488 241.32 673.515 240.853 671.755 239.92C670.022 238.987 668.648 237.653 667.635 235.92C666.648 234.187 666.155 232.16 666.155 229.84C666.155 227.547 666.662 225.533 667.675 223.8C668.688 222.04 670.075 220.693 671.835 219.76C673.595 218.827 675.568 218.36 677.755 218.36C679.942 218.36 681.915 218.827 683.675 219.76C685.435 220.693 686.822 222.04 687.835 223.8C688.848 225.533 689.355 227.547 689.355 229.84C689.355 232.133 688.835 234.16 687.795 235.92C686.782 237.653 685.382 238.987 683.595 239.92C681.835 240.853 679.862 241.32 677.675 241.32ZM677.675 235.4C678.982 235.4 680.088 234.92 680.995 233.96C681.928 233 682.395 231.627 682.395 229.84C682.395 228.053 681.942 226.68 681.035 225.72C680.155 224.76 679.062 224.28 677.755 224.28C676.422 224.28 675.315 224.76 674.435 225.72C673.555 226.653 673.115 228.027 673.115 229.84C673.115 231.627 673.542 233 674.395 233.96C675.275 234.92 676.368 235.4 677.675 235.4Z" fill="#1E5C93"/>
<path d="M253.602 520.6L258.442 504.68H265.722L257.802 527H249.362L241.442 504.68H248.762L253.602 520.6ZM267.241 515.8C267.241 513.507 267.668 511.493 268.521 509.76C269.401 508.027 270.588 506.693 272.081 505.76C273.574 504.827 275.241 504.36 277.081 504.36C278.654 504.36 280.028 504.68 281.201 505.32C282.401 505.96 283.321 506.8 283.961 507.84V504.68H290.801V527H283.961V523.84C283.294 524.88 282.361 525.72 281.161 526.36C279.988 527 278.614 527.32 277.041 527.32C275.228 527.32 273.574 526.853 272.081 525.92C270.588 524.96 269.401 523.613 268.521 521.88C267.668 520.12 267.241 518.093 267.241 515.8ZM283.961 515.84C283.961 514.133 283.481 512.787 282.521 511.8C281.588 510.813 280.441 510.32 279.081 510.32C277.721 510.32 276.561 510.813 275.601 511.8C274.668 512.76 274.201 514.093 274.201 515.8C274.201 517.507 274.668 518.867 275.601 519.88C276.561 520.867 277.721 521.36 279.081 521.36C280.441 521.36 281.588 520.867 282.521 519.88C283.481 518.893 283.961 517.547 283.961 515.84ZM302.59 508.4C303.39 507.173 304.39 506.213 305.59 505.52C306.79 504.8 308.123 504.44 309.59 504.44V511.68H307.71C306.003 511.68 304.723 512.053 303.87 512.8C303.016 513.52 302.59 514.8 302.59 516.64V527H295.75V504.68H302.59V508.4ZM316.299 502.36C315.099 502.36 314.112 502.013 313.339 501.32C312.592 500.6 312.219 499.72 312.219 498.68C312.219 497.613 312.592 496.733 313.339 496.04C314.112 495.32 315.099 494.96 316.299 494.96C317.472 494.96 318.432 495.32 319.179 496.04C319.952 496.733 320.339 497.613 320.339 498.68C320.339 499.72 319.952 500.6 319.179 501.32C318.432 502.013 317.472 502.36 316.299 502.36ZM319.699 504.68V527H312.859V504.68H319.699ZM323.296 515.8C323.296 513.507 323.722 511.493 324.576 509.76C325.456 508.027 326.642 506.693 328.136 505.76C329.629 504.827 331.296 504.36 333.136 504.36C334.709 504.36 336.082 504.68 337.256 505.32C338.456 505.96 339.376 506.8 340.016 507.84V504.68H346.856V527H340.016V523.84C339.349 524.88 338.416 525.72 337.216 526.36C336.042 527 334.669 527.32 333.096 527.32C331.282 527.32 329.629 526.853 328.136 525.92C326.642 524.96 325.456 523.613 324.576 521.88C323.722 520.12 323.296 518.093 323.296 515.8ZM340.016 515.84C340.016 514.133 339.536 512.787 338.576 511.8C337.642 510.813 336.496 510.32 335.136 510.32C333.776 510.32 332.616 510.813 331.656 511.8C330.722 512.76 330.256 514.093 330.256 515.8C330.256 517.507 330.722 518.867 331.656 519.88C332.616 520.867 333.776 521.36 335.136 521.36C336.496 521.36 337.642 520.867 338.576 519.88C339.536 518.893 340.016 517.547 340.016 515.84ZM358.644 507.84C359.284 506.8 360.204 505.96 361.404 505.32C362.604 504.68 363.978 504.36 365.524 504.36C367.364 504.36 369.031 504.827 370.524 505.76C372.018 506.693 373.191 508.027 374.044 509.76C374.924 511.493 375.364 513.507 375.364 515.8C375.364 518.093 374.924 520.12 374.044 521.88C373.191 523.613 372.018 524.96 370.524 525.92C369.031 526.853 367.364 527.32 365.524 527.32C363.951 527.32 362.578 527.013 361.404 526.4C360.231 525.76 359.311 524.92 358.644 523.88V527H351.804V497.4H358.644V507.84ZM368.404 515.8C368.404 514.093 367.924 512.76 366.964 511.8C366.031 510.813 364.871 510.32 363.484 510.32C362.124 510.32 360.964 510.813 360.004 511.8C359.071 512.787 358.604 514.133 358.604 515.84C358.604 517.547 359.071 518.893 360.004 519.88C360.964 520.867 362.124 521.36 363.484 521.36C364.844 521.36 366.004 520.867 366.964 519.88C367.924 518.867 368.404 517.507 368.404 515.8ZM385.793 497.4V527H378.953V497.4H385.793ZM411.79 515.48C411.79 516.12 411.75 516.787 411.67 517.48H396.19C396.296 518.867 396.736 519.933 397.51 520.68C398.31 521.4 399.283 521.76 400.43 521.76C402.136 521.76 403.323 521.04 403.99 519.6H411.27C410.896 521.067 410.216 522.387 409.23 523.56C408.27 524.733 407.056 525.653 405.59 526.32C404.123 526.987 402.483 527.32 400.67 527.32C398.483 527.32 396.536 526.853 394.83 525.92C393.123 524.987 391.79 523.653 390.83 521.92C389.87 520.187 389.39 518.16 389.39 515.84C389.39 513.52 389.856 511.493 390.79 509.76C391.75 508.027 393.083 506.693 394.79 505.76C396.496 504.827 398.456 504.36 400.67 504.36C402.83 504.36 404.75 504.813 406.43 505.72C408.11 506.627 409.416 507.92 410.35 509.6C411.31 511.28 411.79 513.24 411.79 515.48ZM404.79 513.68C404.79 512.507 404.39 511.573 403.59 510.88C402.79 510.187 401.79 509.84 400.59 509.84C399.443 509.84 398.47 510.173 397.67 510.84C396.896 511.507 396.416 512.453 396.23 513.68H404.79Z" fill="#1E5C93"/>
<path d="M507.218 184.372C507.218 186.13 507.908 187.816 509.135 189.059C510.363 190.302 512.028 191 513.764 191C516.578 191 519.297 189.149 520.228 186.599C520.349 186.269 520.335 185.904 520.189 185.585C520.044 185.266 519.78 185.018 519.454 184.896C519.128 184.774 518.768 184.788 518.452 184.935C518.137 185.082 517.892 185.35 517.772 185.68C517.226 187.176 515.465 188.349 513.764 188.349C512.722 188.349 511.723 187.93 510.987 187.184C510.25 186.438 509.836 185.427 509.836 184.372C509.836 183.317 510.25 182.306 510.987 181.56C511.723 180.814 512.722 180.395 513.764 180.395H538.2C538.547 180.395 538.88 180.256 539.126 180.007C539.371 179.759 539.509 179.421 539.509 179.07C539.509 178.718 539.371 178.381 539.126 178.132C538.88 177.884 538.547 177.744 538.2 177.744H513.764C512.028 177.744 510.363 178.442 509.135 179.685C507.908 180.928 507.218 182.614 507.218 184.372ZM514.2 159.628C514.2 157.87 514.89 156.184 516.117 154.941C517.345 153.698 519.009 153 520.745 153C523.56 153 526.279 154.851 527.21 157.401C527.331 157.731 527.317 158.096 527.171 158.415C527.026 158.734 526.761 158.982 526.436 159.104C526.11 159.226 525.75 159.212 525.434 159.065C525.119 158.918 524.874 158.65 524.753 158.32C524.208 156.824 522.447 155.651 520.745 155.651C519.704 155.651 518.705 156.07 517.968 156.816C517.232 157.562 516.818 158.573 516.818 159.628C516.818 160.683 517.232 161.694 517.968 162.44C518.705 163.186 519.704 163.605 520.745 163.605H541.691C542.038 163.605 542.371 163.744 542.617 163.993C542.862 164.242 543 164.579 543 164.93C543 165.282 542.862 165.619 542.617 165.868C542.371 166.116 542.038 166.256 541.691 166.256H520.745C519.009 166.256 517.345 165.558 516.117 164.315C514.89 163.072 514.2 161.386 514.2 159.628ZM501.545 160.07C504.36 160.07 507.079 161.921 508.01 164.471C508.07 164.634 508.097 164.808 508.09 164.982C508.084 165.156 508.043 165.327 507.971 165.485C507.899 165.643 507.797 165.785 507.671 165.904C507.545 166.022 507.397 166.114 507.236 166.174C507.074 166.234 506.903 166.262 506.731 166.255C506.559 166.248 506.39 166.208 506.234 166.135C506.078 166.062 505.937 165.959 505.821 165.831C505.704 165.703 505.613 165.553 505.553 165.39C505.008 163.894 503.247 162.721 501.545 162.721C500.504 162.721 499.505 163.14 498.768 163.886C498.032 164.631 497.618 165.643 497.618 166.698C497.618 167.752 498.032 168.764 498.768 169.51C499.505 170.255 500.504 170.674 501.545 170.674H539.945C540.293 170.674 540.626 170.814 540.871 171.063C541.117 171.311 541.255 171.648 541.255 172C541.255 172.352 541.117 172.689 540.871 172.937C540.626 173.186 540.293 173.326 539.945 173.326H501.545C499.809 173.326 498.145 172.627 496.917 171.384C495.69 170.141 495 168.456 495 166.698C495 164.94 495.69 163.254 496.917 162.011C498.145 160.768 499.809 160.07 501.545 160.07Z" fill="#85DBFF"/>
<path d="M321.723 363.396C323.324 362.478 325.14 361.996 326.988 362C328.836 361.996 330.652 362.478 332.253 363.396C333.854 364.314 335.184 365.637 336.108 367.23L363.382 414.297C368.315 422.814 370.077 432.788 368.359 442.47C366.642 452.151 361.554 460.922 353.989 467.241C338.44 480.253 315.536 480.253 299.987 467.241C292.436 460.912 287.359 452.143 285.642 442.465C283.925 432.788 285.678 422.818 290.594 414.297L317.869 367.23C318.792 365.637 320.122 364.314 321.723 363.396Z" fill="#FF7B54"/>
<path d="M323.985 411.801C324.9 411.274 325.937 410.998 326.993 411C328.049 410.998 329.087 411.274 330.002 411.801C330.917 412.328 331.676 413.087 332.204 414.001L347.79 441.014C350.608 445.902 351.615 451.626 350.634 457.183C349.653 462.739 346.745 467.772 342.423 471.399C333.537 478.867 320.449 478.867 311.564 471.399C307.249 467.767 304.348 462.734 303.367 457.18C302.386 451.626 303.387 445.904 306.197 441.014L321.782 414.001C322.31 413.087 323.07 412.328 323.985 411.801Z" fill="#FFC93C"/>
<path d="M799.569 566.863C799.569 564.543 800.036 562.517 800.969 560.783C801.929 559.05 803.249 557.717 804.929 556.783C806.636 555.85 808.583 555.383 810.769 555.383C813.569 555.383 815.903 556.117 817.769 557.583C819.663 559.05 820.903 561.117 821.489 563.783H814.209C813.596 562.077 812.409 561.223 810.649 561.223C809.396 561.223 808.396 561.717 807.649 562.703C806.903 563.663 806.529 565.05 806.529 566.863C806.529 568.677 806.903 570.077 807.649 571.063C808.396 572.023 809.396 572.503 810.649 572.503C812.409 572.503 813.596 571.65 814.209 569.943H821.489C820.903 572.557 819.663 574.61 817.769 576.103C815.876 577.597 813.543 578.343 810.769 578.343C808.583 578.343 806.636 577.877 804.929 576.943C803.249 576.01 801.929 574.677 800.969 572.943C800.036 571.21 799.569 569.183 799.569 566.863ZM835.308 578.343C833.121 578.343 831.148 577.877 829.388 576.943C827.655 576.01 826.281 574.677 825.268 572.943C824.281 571.21 823.788 569.183 823.788 566.863C823.788 564.57 824.295 562.557 825.308 560.823C826.321 559.063 827.708 557.717 829.468 556.783C831.228 555.85 833.201 555.383 835.388 555.383C837.575 555.383 839.548 555.85 841.308 556.783C843.068 557.717 844.455 559.063 845.468 560.823C846.481 562.557 846.988 564.57 846.988 566.863C846.988 569.157 846.468 571.183 845.428 572.943C844.415 574.677 843.015 576.01 841.228 576.943C839.468 577.877 837.495 578.343 835.308 578.343ZM835.308 572.423C836.615 572.423 837.721 571.943 838.628 570.983C839.561 570.023 840.028 568.65 840.028 566.863C840.028 565.077 839.575 563.703 838.668 562.743C837.788 561.783 836.695 561.303 835.388 561.303C834.055 561.303 832.948 561.783 832.068 562.743C831.188 563.677 830.748 565.05 830.748 566.863C830.748 568.65 831.175 570.023 832.028 570.983C832.908 571.943 834.001 572.423 835.308 572.423ZM864.217 555.463C866.83 555.463 868.91 556.317 870.457 558.023C872.03 559.703 872.817 562.023 872.817 564.983V578.023H866.017V565.903C866.017 564.41 865.63 563.25 864.857 562.423C864.083 561.597 863.043 561.183 861.737 561.183C860.43 561.183 859.39 561.597 858.617 562.423C857.843 563.25 857.457 564.41 857.457 565.903V578.023H850.617V555.703H857.457V558.663C858.15 557.677 859.083 556.903 860.257 556.343C861.43 555.757 862.75 555.463 864.217 555.463ZM876.21 566.823C876.21 564.53 876.637 562.517 877.49 560.783C878.37 559.05 879.557 557.717 881.05 556.783C882.543 555.85 884.21 555.383 886.05 555.383C887.517 555.383 888.85 555.69 890.05 556.303C891.277 556.917 892.237 557.743 892.93 558.783V548.423H899.77V578.023H892.93V574.823C892.29 575.89 891.37 576.743 890.17 577.383C888.997 578.023 887.623 578.343 886.05 578.343C884.21 578.343 882.543 577.877 881.05 576.943C879.557 575.983 878.37 574.637 877.49 572.903C876.637 571.143 876.21 569.117 876.21 566.823ZM892.93 566.863C892.93 565.157 892.45 563.81 891.49 562.823C890.557 561.837 889.41 561.343 888.05 561.343C886.69 561.343 885.53 561.837 884.57 562.823C883.637 563.783 883.17 565.117 883.17 566.823C883.17 568.53 883.637 569.89 884.57 570.903C885.53 571.89 886.69 572.383 888.05 572.383C889.41 572.383 890.557 571.89 891.49 570.903C892.45 569.917 892.93 568.57 892.93 566.863ZM908.158 553.383C906.958 553.383 905.972 553.037 905.198 552.343C904.452 551.623 904.078 550.743 904.078 549.703C904.078 548.637 904.452 547.757 905.198 547.063C905.972 546.343 906.958 545.983 908.158 545.983C909.332 545.983 910.292 546.343 911.038 547.063C911.812 547.757 912.198 548.637 912.198 549.703C912.198 550.743 911.812 551.623 911.038 552.343C910.292 553.037 909.332 553.383 908.158 553.383ZM911.558 555.703V578.023H904.718V555.703H911.558ZM915.155 566.863C915.155 564.543 915.622 562.517 916.555 560.783C917.515 559.05 918.835 557.717 920.515 556.783C922.222 555.85 924.168 555.383 926.355 555.383C929.155 555.383 931.488 556.117 933.355 557.583C935.248 559.05 936.488 561.117 937.075 563.783H929.795C929.182 562.077 927.995 561.223 926.235 561.223C924.982 561.223 923.982 561.717 923.235 562.703C922.488 563.663 922.115 565.05 922.115 566.863C922.115 568.677 922.488 570.077 923.235 571.063C923.982 572.023 924.982 572.503 926.235 572.503C927.995 572.503 929.182 571.65 929.795 569.943H937.075C936.488 572.557 935.248 574.61 933.355 576.103C931.462 577.597 929.128 578.343 926.355 578.343C924.168 578.343 922.222 577.877 920.515 576.943C918.835 576.01 917.515 574.677 916.555 572.943C915.622 571.21 915.155 569.183 915.155 566.863ZM944.174 553.383C942.974 553.383 941.987 553.037 941.214 552.343C940.467 551.623 940.094 550.743 940.094 549.703C940.094 548.637 940.467 547.757 941.214 547.063C941.987 546.343 942.974 545.983 944.174 545.983C945.347 545.983 946.307 546.343 947.054 547.063C947.827 547.757 948.214 548.637 948.214 549.703C948.214 550.743 947.827 551.623 947.054 552.343C946.307 553.037 945.347 553.383 944.174 553.383ZM947.574 555.703V578.023H940.734V555.703H947.574ZM962.691 578.343C960.504 578.343 958.531 577.877 956.771 576.943C955.037 576.01 953.664 574.677 952.651 572.943C951.664 571.21 951.171 569.183 951.171 566.863C951.171 564.57 951.677 562.557 952.691 560.823C953.704 559.063 955.091 557.717 956.851 556.783C958.611 555.85 960.584 555.383 962.771 555.383C964.957 555.383 966.931 555.85 968.691 556.783C970.451 557.717 971.837 559.063 972.851 560.823C973.864 562.557 974.371 564.57 974.371 566.863C974.371 569.157 973.851 571.183 972.811 572.943C971.797 574.677 970.397 576.01 968.611 576.943C966.851 577.877 964.877 578.343 962.691 578.343ZM962.691 572.423C963.997 572.423 965.104 571.943 966.011 570.983C966.944 570.023 967.411 568.65 967.411 566.863C967.411 565.077 966.957 563.703 966.051 562.743C965.171 561.783 964.077 561.303 962.771 561.303C961.437 561.303 960.331 561.783 959.451 562.743C958.571 563.677 958.131 565.05 958.131 566.863C958.131 568.65 958.557 570.023 959.411 570.983C960.291 571.943 961.384 572.423 962.691 572.423ZM967.971 549.983L958.331 554.023V549.303L967.971 544.663V549.983ZM991.6 555.463C994.213 555.463 996.293 556.317 997.84 558.023C999.413 559.703 1000.2 562.023 1000.2 564.983V578.023H993.4V565.903C993.4 564.41 993.013 563.25 992.24 562.423C991.466 561.597 990.426 561.183 989.12 561.183C987.813 561.183 986.773 561.597 986 562.423C985.226 563.25 984.84 564.41 984.84 565.903V578.023H978V555.703H984.84V558.663C985.533 557.677 986.466 556.903 987.64 556.343C988.813 555.757 990.133 555.463 991.6 555.463ZM1028.67 540.023L1017.95 585.503H1011.35L1022.07 540.023H1028.67ZM836.539 602.423C837.339 601.197 838.339 600.237 839.539 599.543C840.739 598.823 842.072 598.463 843.539 598.463V605.703H841.659C839.952 605.703 838.672 606.077 837.819 606.823C836.965 607.543 836.539 608.823 836.539 610.663V621.023H829.699V598.703H836.539V602.423ZM867.848 609.503C867.848 610.143 867.808 610.81 867.728 611.503H852.248C852.355 612.89 852.795 613.957 853.568 614.703C854.368 615.423 855.341 615.783 856.488 615.783C858.195 615.783 859.381 615.063 860.048 613.623H867.328C866.955 615.09 866.275 616.41 865.288 617.583C864.328 618.757 863.115 619.677 861.648 620.343C860.181 621.01 858.541 621.343 856.728 621.343C854.541 621.343 852.595 620.877 850.888 619.943C849.181 619.01 847.848 617.677 846.888 615.943C845.928 614.21 845.448 612.183 845.448 609.863C845.448 607.543 845.915 605.517 846.848 603.783C847.808 602.05 849.141 600.717 850.848 599.783C852.555 598.85 854.515 598.383 856.728 598.383C858.888 598.383 860.808 598.837 862.488 599.743C864.168 600.65 865.475 601.943 866.408 603.623C867.368 605.303 867.848 607.263 867.848 609.503ZM860.848 607.703C860.848 606.53 860.448 605.597 859.648 604.903C858.848 604.21 857.848 603.863 856.648 603.863C855.501 603.863 854.528 604.197 853.728 604.863C852.955 605.53 852.475 606.477 852.288 607.703H860.848ZM870.097 609.823C870.097 607.53 870.523 605.517 871.377 603.783C872.257 602.05 873.443 600.717 874.937 599.783C876.43 598.85 878.097 598.383 879.937 598.383C881.51 598.383 882.883 598.703 884.057 599.343C885.257 599.983 886.177 600.823 886.817 601.863V598.703H893.657V621.023H886.817V617.863C886.15 618.903 885.217 619.743 884.017 620.383C882.843 621.023 881.47 621.343 879.897 621.343C878.083 621.343 876.43 620.877 874.937 619.943C873.443 618.983 872.257 617.637 871.377 615.903C870.523 614.143 870.097 612.117 870.097 609.823ZM886.817 609.863C886.817 608.157 886.337 606.81 885.377 605.823C884.443 604.837 883.297 604.343 881.937 604.343C880.577 604.343 879.417 604.837 878.457 605.823C877.523 606.783 877.057 608.117 877.057 609.823C877.057 611.53 877.523 612.89 878.457 613.903C879.417 614.89 880.577 615.383 881.937 615.383C883.297 615.383 884.443 614.89 885.377 613.903C886.337 612.917 886.817 611.57 886.817 609.863ZM897.245 609.863C897.245 607.543 897.712 605.517 898.645 603.783C899.605 602.05 900.925 600.717 902.605 599.783C904.312 598.85 906.258 598.383 908.445 598.383C911.245 598.383 913.578 599.117 915.445 600.583C917.338 602.05 918.578 604.117 919.165 606.783H911.885C911.272 605.077 910.085 604.223 908.325 604.223C907.072 604.223 906.072 604.717 905.325 605.703C904.578 606.663 904.205 608.05 904.205 609.863C904.205 611.677 904.578 613.077 905.325 614.063C906.072 615.023 907.072 615.503 908.325 615.503C910.085 615.503 911.272 614.65 911.885 612.943H919.165C918.578 615.557 917.338 617.61 915.445 619.103C913.552 620.597 911.218 621.343 908.445 621.343C906.258 621.343 904.312 620.877 902.605 619.943C900.925 619.01 899.605 617.677 898.645 615.943C897.712 614.21 897.245 612.183 897.245 609.863ZM921.464 609.863C921.464 607.543 921.93 605.517 922.864 603.783C923.824 602.05 925.144 600.717 926.824 599.783C928.53 598.85 930.477 598.383 932.664 598.383C935.464 598.383 937.797 599.117 939.664 600.583C941.557 602.05 942.797 604.117 943.384 606.783H936.104C935.49 605.077 934.304 604.223 932.544 604.223C931.29 604.223 930.29 604.717 929.544 605.703C928.797 606.663 928.424 608.05 928.424 609.863C928.424 611.677 928.797 613.077 929.544 614.063C930.29 615.023 931.29 615.503 932.544 615.503C934.304 615.503 935.49 614.65 936.104 612.943H943.384C942.797 615.557 941.557 617.61 939.664 619.103C937.77 620.597 935.437 621.343 932.664 621.343C930.477 621.343 928.53 620.877 926.824 619.943C925.144 619.01 923.824 617.677 922.864 615.943C921.93 614.21 921.464 612.183 921.464 609.863ZM950.483 596.383C949.283 596.383 948.296 596.037 947.523 595.343C946.776 594.623 946.403 593.743 946.403 592.703C946.403 591.637 946.776 590.757 947.523 590.063C948.296 589.343 949.283 588.983 950.483 588.983C951.656 588.983 952.616 589.343 953.363 590.063C954.136 590.757 954.523 591.637 954.523 592.703C954.523 593.743 954.136 594.623 953.363 595.343C952.616 596.037 951.656 596.383 950.483 596.383ZM953.883 598.703V621.023H947.043V598.703H953.883ZM968.999 621.343C966.813 621.343 964.839 620.877 963.079 619.943C961.346 619.01 959.973 617.677 958.959 615.943C957.973 614.21 957.479 612.183 957.479 609.863C957.479 607.57 957.986 605.557 958.999 603.823C960.013 602.063 961.399 600.717 963.159 599.783C964.919 598.85 966.893 598.383 969.079 598.383C971.266 598.383 973.239 598.85 974.999 599.783C976.759 600.717 978.146 602.063 979.159 603.823C980.173 605.557 980.679 607.57 980.679 609.863C980.679 612.157 980.159 614.183 979.119 615.943C978.106 617.677 976.706 619.01 974.919 619.943C973.159 620.877 971.186 621.343 968.999 621.343ZM968.999 615.423C970.306 615.423 971.413 614.943 972.319 613.983C973.253 613.023 973.719 611.65 973.719 609.863C973.719 608.077 973.266 606.703 972.359 605.743C971.479 604.783 970.386 604.303 969.079 604.303C967.746 604.303 966.639 604.783 965.759 605.743C964.879 606.677 964.439 608.05 964.439 609.863C964.439 611.65 964.866 613.023 965.719 613.983C966.599 614.943 967.693 615.423 968.999 615.423ZM974.279 592.983L964.639 597.023V592.303L974.279 587.663V592.983ZM997.908 598.463C1000.52 598.463 1002.6 599.317 1004.15 601.023C1005.72 602.703 1006.51 605.023 1006.51 607.983V621.023H999.708V608.903C999.708 607.41 999.321 606.25 998.548 605.423C997.775 604.597 996.735 604.183 995.428 604.183C994.121 604.183 993.081 604.597 992.308 605.423C991.535 606.25 991.148 607.41 991.148 608.903V621.023H984.308V598.703H991.148V601.663C991.841 600.677 992.775 599.903 993.948 599.343C995.121 598.757 996.441 598.463 997.908 598.463Z" fill="#1E5C93"/>
<path d="M958.458 340.139C957.032 340.151 955.668 340.721 954.667 341.725C953.666 342.73 953.11 344.085 953.121 345.494C953.14 347.779 954.66 349.973 956.735 350.713C957.003 350.808 957.299 350.794 957.558 350.675C957.816 350.555 958.016 350.338 958.112 350.073C958.209 349.808 958.195 349.516 958.074 349.26C957.953 349.005 957.734 348.808 957.465 348.713C956.248 348.28 955.284 346.858 955.273 345.477C955.266 344.632 955.6 343.818 956.2 343.216C956.801 342.613 957.619 342.271 958.475 342.264C959.331 342.257 960.155 342.587 960.765 343.179C961.375 343.772 961.721 344.58 961.728 345.426L961.886 365.258C961.889 365.54 962.004 365.809 962.207 366.007C962.411 366.205 962.685 366.314 962.971 366.312C963.256 366.31 963.529 366.196 963.729 365.995C963.929 365.794 964.04 365.523 964.038 365.241L963.88 345.409C963.869 344 963.291 342.653 962.274 341.665C961.258 340.677 959.885 340.128 958.458 340.139ZM978.586 345.645C980.012 345.634 981.385 346.183 982.402 347.171C983.419 348.159 983.996 349.506 984.007 350.915C984.026 353.199 982.541 355.417 980.477 356.19C980.21 356.29 979.914 356.281 979.654 356.165C979.394 356.049 979.191 355.836 979.09 355.572C978.989 355.309 978.998 355.016 979.115 354.759C979.233 354.502 979.449 354.302 979.716 354.202C980.926 353.75 981.867 352.313 981.856 350.932C981.849 350.087 981.502 349.279 980.892 348.686C980.282 348.093 979.459 347.764 978.603 347.77C977.747 347.777 976.928 348.12 976.328 348.722C975.727 349.325 975.394 350.138 975.401 350.983L975.536 367.983C975.538 368.265 975.427 368.536 975.227 368.737C975.027 368.937 974.754 369.052 974.469 369.054C974.183 369.056 973.909 368.946 973.706 368.749C973.502 368.551 973.387 368.282 973.384 368L973.249 351.001C973.238 349.592 973.794 348.236 974.794 347.232C975.795 346.227 977.159 345.657 978.586 345.645ZM978.145 335.378C978.163 337.662 976.678 339.881 974.615 340.653C974.483 340.703 974.342 340.726 974.201 340.721C974.06 340.717 973.921 340.685 973.792 340.628C973.663 340.571 973.547 340.489 973.45 340.387C973.353 340.286 973.278 340.166 973.228 340.036C973.178 339.905 973.154 339.766 973.159 339.627C973.163 339.487 973.195 339.35 973.253 339.222C973.311 339.095 973.394 338.981 973.497 338.885C973.6 338.789 973.721 338.715 973.853 338.665C975.064 338.213 976.005 336.776 975.994 335.395C975.987 334.55 975.64 333.742 975.03 333.149C974.42 332.556 973.597 332.227 972.741 332.233C971.885 332.24 971.066 332.583 970.466 333.185C969.865 333.788 969.532 334.601 969.538 335.447L969.787 366.612C969.789 366.894 969.678 367.165 969.478 367.366C969.278 367.567 969.005 367.681 968.72 367.683C968.434 367.685 968.16 367.575 967.956 367.378C967.753 367.18 967.638 366.911 967.635 366.629L967.387 335.464C967.376 334.055 967.931 332.699 968.932 331.695C969.933 330.69 971.297 330.12 972.724 330.108C974.15 330.097 975.523 330.646 976.54 331.634C977.556 332.622 978.134 333.969 978.145 335.378Z" fill="#3E3E3E"/>
<path d="M873 379.023V385.023" stroke="black" stroke-width="4"/>
<path d="M855 401.023C855 392.187 862.163 385.023 871 385.023H874C882.837 385.023 890 392.187 890 401.023V436.023H855V401.023Z" fill="white"/>
<path d="M848 436.023H898C888.496 466.511 883.97 483.606 888.5 514.023H857C859.952 483.411 856.744 466.368 848 436.023Z" fill="#1A3567"/>
<path d="M888.273 454.614C891.538 454.777 894.744 455.483 897.708 456.692C900.671 457.9 903.335 459.588 905.546 461.657C907.757 463.727 909.472 466.139 910.594 468.754C911.715 471.37 912.222 474.139 912.083 476.903C911.945 479.666 911.165 482.371 909.788 484.861C908.411 487.352 906.463 489.58 904.056 491.419C901.65 493.258 898.831 494.671 895.762 495.577C892.692 496.484 889.432 496.866 886.167 496.703" stroke="#1A3567" stroke-width="12"/>
<rect x="846" y="514.023" width="54" height="12" fill="#1A3567"/>
<path d="M872.492 345.424C872.95 345.161 873.469 345.022 873.997 345.023C874.525 345.022 875.043 345.161 875.501 345.424C875.958 345.688 876.338 346.067 876.602 346.524L884.395 360.03C885.804 362.474 886.308 365.337 885.817 368.115C885.326 370.893 883.873 373.41 881.711 375.223C877.269 378.957 870.725 378.957 866.282 375.223C864.125 373.407 862.674 370.89 862.183 368.114C861.693 365.337 862.194 362.476 863.598 360.03L871.391 346.524C871.655 346.067 872.035 345.688 872.492 345.424Z" fill="#FF7B54"/>
<path d="M873.121 359.254C873.387 359.102 873.69 359.023 873.998 359.023C874.306 359.023 874.609 359.102 874.875 359.254C875.142 359.406 875.364 359.624 875.518 359.887L880.064 367.664C880.886 369.071 881.18 370.719 880.893 372.318C880.607 373.918 879.759 375.367 878.498 376.411C875.907 378.561 872.089 378.561 869.498 376.411C868.239 375.365 867.393 373.917 867.107 372.318C866.821 370.719 867.113 369.072 867.932 367.664L872.478 359.887C872.632 359.624 872.854 359.406 873.121 359.254Z" fill="#FFC93C"/>
<path d="M967 379.023V385.023" stroke="black" stroke-width="4"/>
<path d="M949 401.023C949 392.187 956.163 385.023 965 385.023H968C976.837 385.023 984 392.187 984 401.023V436.023H949V401.023Z" fill="white"/>
<path d="M942 436.023H992C982.496 466.511 977.97 483.606 982.5 514.023H951C953.952 483.411 950.744 466.368 942 436.023Z" fill="#1A3567"/>
<path d="M982.273 454.614C985.538 454.777 988.744 455.483 991.708 456.692C994.671 457.9 997.335 459.588 999.546 461.657C1001.76 463.727 1003.47 466.139 1004.59 468.754C1005.72 471.37 1006.22 474.139 1006.08 476.903C1005.95 479.666 1005.17 482.371 1003.79 484.861C1002.41 487.352 1000.46 489.58 998.056 491.419C995.65 493.258 992.831 494.671 989.762 495.577C986.692 496.484 983.432 496.866 980.167 496.703" stroke="#1A3567" stroke-width="12"/>
<rect x="940" y="514.023" width="54" height="12" fill="#1A3567"/>
</g>
<defs>
<linearGradient id="paint0_linear_549_331" x1="640" y1="0" x2="640" y2="720" gradientUnits="userSpaceOnUse">
<stop stop-color="#ECFAFF"/>
<stop offset="1" stop-color="#BFD8E7"/>
</linearGradient>
<clipPath id="clip0_549_331">
<rect width="1280" height="720" fill="white"/>
</clipPath>
</defs>
</svg>
