<svg width="1280" height="720" viewBox="0 0 1280 720" fill="none" xmlns="http://www.w3.org/2000/svg">
<g clip-path="url(#clip0_410_4496)">
<rect width="1280" height="720" fill="#ECFAFF"/>
<rect width="1280" height="720" fill="#ECFAFF"/>
<path d="M242.552 271C241.97 271 241.408 271.017 240.864 271.058C239.831 271.133 238.806 271.288 237.798 271.521C236.885 271.745 235.999 272.056 235.147 272.448C234.347 272.827 233.591 273.293 232.897 273.839C232.553 274.109 232.233 274.4 231.927 274.712C231.331 275.331 230.783 275.997 230.287 276.718C229.788 277.438 229.34 278.206 228.937 279.025C228.537 279.844 228.185 280.717 227.882 281.634C227.571 282.588 227.319 283.56 227.125 284.543C226.936 285.548 226.774 286.607 226.633 287.724C226.495 288.84 226.374 290.014 226.281 291.242C226.184 292.526 226.114 293.812 226.071 295.099C225.976 297.942 225.976 300.786 226.071 303.629C226.116 305.016 226.188 306.339 226.281 307.601C226.374 308.863 226.491 310.067 226.633 311.207C226.77 312.351 226.936 313.43 227.125 314.448C227.329 315.47 227.583 316.441 227.882 317.358C228.185 318.282 228.537 319.151 228.937 319.97C229.34 320.789 229.788 321.56 230.287 322.277C230.783 322.995 231.331 323.664 231.927 324.284C232.852 325.222 233.94 325.988 235.142 326.547C235.99 326.95 236.881 327.261 237.798 327.474C238.277 327.593 238.77 327.687 239.28 327.765C239.789 327.843 240.32 327.9 240.864 327.941C241.978 328.02 243.098 328.02 244.212 327.941C244.746 327.9 245.267 327.84 245.77 327.765C246.258 327.69 246.743 327.593 247.223 327.474C248.553 327.158 249.821 326.629 250.976 325.908C251.706 325.447 252.377 324.902 252.974 324.284C253.589 323.662 254.148 322.991 254.648 322.277C255.158 321.557 255.612 320.789 256.008 319.97C256.408 319.151 256.756 318.278 257.053 317.361C257.354 316.407 257.595 315.436 257.773 314.452C257.979 313.43 258.151 312.351 258.306 311.207C258.461 310.067 258.589 308.863 258.692 307.601C258.796 306.339 258.871 305.016 258.923 303.632C259.026 300.79 259.026 297.945 258.923 295.103C258.875 293.815 258.798 292.53 258.692 291.246C258.589 290.014 258.461 288.844 258.306 287.727C258.154 286.611 257.976 285.548 257.773 284.547C257.593 283.563 257.352 282.591 257.049 281.637C256.767 280.743 256.418 279.87 256.008 279.025C255.425 277.829 254.7 276.705 253.849 275.676C253.294 275.015 252.684 274.4 252.024 273.839C251.353 273.291 250.615 272.825 249.829 272.452C248.545 271.845 247.176 271.435 245.766 271.233C245.251 271.154 244.732 271.095 244.212 271.058C243.659 271.018 243.107 270.999 242.552 271Z" fill="#35C2FF"/>
<mask id="mask0_410_4496" style="mask-type:alpha" maskUnits="userSpaceOnUse" x="198" y="244" width="89" height="243">
<path d="M198 244.688L198.035 486.199L286.913 486.205V244.688H198ZM242.501 262.324C243.663 262.324 244.784 262.375 245.861 262.476C246.938 262.578 247.972 262.73 248.961 262.934C249.95 263.137 250.9 263.391 251.804 263.692C252.705 263.997 253.565 264.353 254.378 264.76C256.793 265.941 258.906 267.66 260.555 269.783C261.114 270.495 261.624 271.257 262.095 272.07C262.562 272.873 263.003 273.717 263.413 274.601C263.819 275.482 264.202 276.406 264.554 277.368C264.907 278.334 265.232 279.333 265.524 280.377C265.815 281.42 266.079 282.504 266.313 283.626C266.55 284.747 266.754 285.909 266.93 287.111C267.106 288.311 267.251 289.551 267.37 290.834C267.485 292.115 267.573 293.436 267.634 294.798C267.753 297.622 267.753 300.45 267.634 303.274C267.573 304.656 267.485 305.998 267.37 307.302C267.251 308.603 267.106 309.863 266.93 311.083C266.754 312.302 266.546 313.485 266.313 314.623C266.076 315.761 265.818 316.859 265.524 317.916C265.229 318.973 264.907 319.989 264.554 320.965C264.202 321.94 263.823 322.875 263.413 323.769C263.003 324.664 262.562 325.514 262.091 326.327C261.624 327.14 261.114 327.902 260.558 328.614C259.459 330.016 258.159 331.248 256.699 332.269C255.97 332.777 255.198 333.231 254.381 333.638C253.565 334.044 252.705 334.4 251.804 334.705C250.872 335.017 249.921 335.272 248.957 335.467C247.972 335.67 246.938 335.823 245.861 335.924C244.784 336.026 243.663 336.077 242.498 336.077C241.326 336.077 240.198 336.026 239.114 335.924C238.067 335.828 237.027 335.675 235.997 335.467C235.028 335.272 234.072 335.017 233.134 334.705C232.247 334.409 231.381 334.052 230.542 333.638C229.733 333.239 228.954 332.782 228.211 332.269C226.744 331.253 225.439 330.019 224.342 328.61C223.777 327.886 223.264 327.123 222.805 326.327C222.326 325.496 221.884 324.642 221.484 323.769C221.077 322.875 220.695 321.94 220.342 320.965C219.99 319.989 219.668 318.973 219.376 317.916C219.075 316.827 218.811 315.729 218.584 314.623C218.347 313.485 218.143 312.302 217.97 311.083C217.794 309.863 217.646 308.603 217.53 307.302C217.412 305.998 217.327 304.656 217.266 303.271C217.147 300.448 217.147 297.621 217.266 294.798C217.323 293.436 217.412 292.115 217.53 290.834C217.646 289.554 217.794 288.311 217.97 287.108C218.143 285.909 218.35 284.747 218.584 283.626C218.821 282.504 219.082 281.42 219.376 280.377C219.668 279.333 219.99 278.334 220.342 277.368C220.695 276.406 221.077 275.485 221.487 274.601C221.894 273.72 222.335 272.873 222.805 272.07C223.273 271.257 223.787 270.495 224.342 269.783C225.443 268.379 226.747 267.147 228.211 266.128C228.943 265.62 229.722 265.166 230.542 264.76C231.362 264.353 232.226 263.997 233.134 263.692C234.045 263.388 234.998 263.137 235.994 262.934C236.99 262.73 238.03 262.578 239.114 262.476C240.198 262.375 241.326 262.324 242.501 262.324ZM233.005 395.924H251.892V468.572H242.65V404.264H233.005V395.924Z" fill="#34C3FF"/>
</mask>
<g mask="url(#mask0_410_4496)">
<path d="M198 244.688L198.035 486.199L286.913 486.205V244.688H198ZM242.501 262.324C243.663 262.324 244.784 262.375 245.861 262.476C246.938 262.578 247.972 262.73 248.961 262.934C249.95 263.137 250.9 263.391 251.804 263.692C252.705 263.997 253.565 264.353 254.378 264.76C256.793 265.941 258.906 267.66 260.555 269.783C261.114 270.495 261.624 271.257 262.095 272.07C262.562 272.873 263.003 273.717 263.413 274.601C263.819 275.482 264.202 276.406 264.554 277.368C264.907 278.334 265.232 279.333 265.524 280.377C265.815 281.42 266.079 282.504 266.313 283.626C266.55 284.747 266.754 285.909 266.93 287.111C267.106 288.311 267.251 289.551 267.37 290.834C267.485 292.115 267.573 293.436 267.634 294.798C267.753 297.622 267.753 300.45 267.634 303.274C267.573 304.656 267.485 305.998 267.37 307.302C267.251 308.603 267.106 309.863 266.93 311.083C266.754 312.302 266.546 313.485 266.313 314.623C266.076 315.761 265.818 316.859 265.524 317.916C265.229 318.973 264.907 319.989 264.554 320.965C264.202 321.94 263.823 322.875 263.413 323.769C263.003 324.664 262.562 325.514 262.091 326.327C261.624 327.14 261.114 327.902 260.558 328.614C259.459 330.016 258.159 331.248 256.699 332.269C255.97 332.777 255.198 333.231 254.381 333.638C253.565 334.044 252.705 334.4 251.804 334.705C250.872 335.017 249.921 335.272 248.957 335.467C247.972 335.67 246.938 335.823 245.861 335.924C244.784 336.026 243.663 336.077 242.498 336.077C241.326 336.077 240.198 336.026 239.114 335.924C238.067 335.828 237.027 335.675 235.997 335.467C235.028 335.272 234.072 335.017 233.134 334.705C232.247 334.409 231.381 334.052 230.542 333.638C229.733 333.239 228.954 332.782 228.211 332.269C226.744 331.253 225.439 330.019 224.342 328.61C223.777 327.886 223.264 327.123 222.805 326.327C222.326 325.496 221.884 324.642 221.484 323.769C221.077 322.875 220.695 321.94 220.342 320.965C219.99 319.989 219.668 318.973 219.376 317.916C219.075 316.827 218.811 315.729 218.584 314.623C218.347 313.485 218.143 312.302 217.97 311.083C217.794 309.863 217.646 308.603 217.53 307.302C217.412 305.998 217.327 304.656 217.266 303.271C217.147 300.448 217.147 297.621 217.266 294.798C217.323 293.436 217.412 292.115 217.53 290.834C217.646 289.554 217.794 288.311 217.97 287.108C218.143 285.909 218.35 284.747 218.584 283.626C218.821 282.504 219.082 281.42 219.376 280.377C219.668 279.333 219.99 278.334 220.342 277.368C220.695 276.406 221.077 275.485 221.487 274.601C221.894 273.72 222.335 272.873 222.805 272.07C223.273 271.257 223.787 270.495 224.342 269.783C225.443 268.379 226.747 267.147 228.211 266.128C228.943 265.62 229.722 265.166 230.542 264.76C231.362 264.353 232.226 263.997 233.134 263.692C234.045 263.388 234.998 263.137 235.994 262.934C236.99 262.73 238.03 262.578 239.114 262.476C240.198 262.375 241.326 262.324 242.501 262.324ZM233.005 395.924H251.892V468.572H242.65V404.264H233.005V395.924Z" fill="#35C2FF"/>
<rect x="197.848" y="368.578" width="89.6325" height="117.419" fill="#2E91E9"/>
</g>
<path d="M91 131V590H394V131.003H91.0033L91 131ZM172.212 218.859H312.791V512.016H172.212V218.859Z" fill="url(#paint0_linear_410_4496)"/>
<path d="M522.485 299.06H532.565V305H514.79V273.41H522.485V299.06ZM561.03 279.89V305H553.335V301.58C552.555 302.69 551.49 303.59 550.14 304.28C548.82 304.94 547.35 305.27 545.73 305.27C543.81 305.27 542.115 304.85 540.645 304.01C539.175 303.14 538.035 301.895 537.225 300.275C536.415 298.655 536.01 296.75 536.01 294.56V279.89H543.66V293.525C543.66 295.205 544.095 296.51 544.965 297.44C545.835 298.37 547.005 298.835 548.475 298.835C549.975 298.835 551.16 298.37 552.03 297.44C552.9 296.51 553.335 295.205 553.335 293.525V279.89H561.03ZM573.758 298.655H584.648V305H565.163V298.88L575.603 286.235H565.253V279.89H584.423V286.01L573.758 298.655ZM592.482 305.36C591.132 305.36 590.022 304.97 589.152 304.19C588.312 303.38 587.892 302.39 587.892 301.22C587.892 300.02 588.312 299.015 589.152 298.205C590.022 297.395 591.132 296.99 592.482 296.99C593.802 296.99 594.882 297.395 595.722 298.205C596.592 299.015 597.027 300.02 597.027 301.22C597.027 302.39 596.592 303.38 595.722 304.19C594.882 304.97 593.802 305.36 592.482 305.36ZM592.482 287.045C591.132 287.045 590.022 286.655 589.152 285.875C588.312 285.065 587.892 284.075 587.892 282.905C587.892 281.705 588.312 280.7 589.152 279.89C590.022 279.08 591.132 278.675 592.482 278.675C593.802 278.675 594.882 279.08 595.722 279.89C596.592 280.7 597.027 281.705 597.027 282.905C597.027 284.075 596.592 285.065 595.722 285.875C594.882 286.655 593.802 287.045 592.482 287.045ZM640.861 273.41L629.656 305H620.026L608.821 273.41H617.011L624.841 297.26L632.716 273.41H640.861ZM667.747 292.04C667.747 292.76 667.702 293.51 667.612 294.29H650.197C650.317 295.85 650.812 297.05 651.682 297.89C652.582 298.7 653.677 299.105 654.967 299.105C656.887 299.105 658.222 298.295 658.972 296.675H667.162C666.742 298.325 665.977 299.81 664.867 301.13C663.787 302.45 662.422 303.485 660.772 304.235C659.122 304.985 657.277 305.36 655.237 305.36C652.777 305.36 650.587 304.835 648.667 303.785C646.747 302.735 645.247 301.235 644.167 299.285C643.087 297.335 642.547 295.055 642.547 292.445C642.547 289.835 643.072 287.555 644.122 285.605C645.202 283.655 646.702 282.155 648.622 281.105C650.542 280.055 652.747 279.53 655.237 279.53C657.667 279.53 659.827 280.04 661.717 281.06C663.607 282.08 665.077 283.535 666.127 285.425C667.207 287.315 667.747 289.52 667.747 292.04ZM659.872 290.015C659.872 288.695 659.422 287.645 658.522 286.865C657.622 286.085 656.497 285.695 655.147 285.695C653.857 285.695 652.762 286.07 651.862 286.82C650.992 287.57 650.452 288.635 650.242 290.015H659.872ZM679.502 284.075C680.402 282.695 681.527 281.615 682.877 280.835C684.227 280.025 685.727 279.62 687.377 279.62V287.765H685.262C683.342 287.765 681.902 288.185 680.942 289.025C679.982 289.835 679.502 291.275 679.502 293.345V305H671.807V279.89H679.502V284.075ZM689.525 292.4C689.525 289.82 690.005 287.555 690.965 285.605C691.955 283.655 693.29 282.155 694.97 281.105C696.65 280.055 698.525 279.53 700.595 279.53C702.245 279.53 703.745 279.875 705.095 280.565C706.475 281.255 707.555 282.185 708.335 283.355V271.7H716.03V305H708.335V301.4C707.615 302.6 706.58 303.56 705.23 304.28C703.91 305 702.365 305.36 700.595 305.36C698.525 305.36 696.65 304.835 694.97 303.785C693.29 302.705 691.955 301.19 690.965 299.24C690.005 297.26 689.525 294.98 689.525 292.4ZM708.335 292.445C708.335 290.525 707.795 289.01 706.715 287.9C705.665 286.79 704.375 286.235 702.845 286.235C701.315 286.235 700.01 286.79 698.93 287.9C697.88 288.98 697.355 290.48 697.355 292.4C697.355 294.32 697.88 295.85 698.93 296.99C700.01 298.1 701.315 298.655 702.845 298.655C704.375 298.655 705.665 298.1 706.715 296.99C707.795 295.88 708.335 294.365 708.335 292.445ZM720.067 292.4C720.067 289.82 720.547 287.555 721.507 285.605C722.497 283.655 723.832 282.155 725.512 281.105C727.192 280.055 729.067 279.53 731.137 279.53C732.907 279.53 734.452 279.89 735.772 280.61C737.122 281.33 738.157 282.275 738.877 283.445V279.89H746.572V305H738.877V301.445C738.127 302.615 737.077 303.56 735.727 304.28C734.407 305 732.862 305.36 731.092 305.36C729.052 305.36 727.192 304.835 725.512 303.785C723.832 302.705 722.497 301.19 721.507 299.24C720.547 297.26 720.067 294.98 720.067 292.4ZM738.877 292.445C738.877 290.525 738.337 289.01 737.257 287.9C736.207 286.79 734.917 286.235 733.387 286.235C731.857 286.235 730.552 286.79 729.472 287.9C728.422 288.98 727.897 290.48 727.897 292.4C727.897 294.32 728.422 295.85 729.472 296.99C730.552 298.1 731.857 298.655 733.387 298.655C734.917 298.655 736.207 298.1 737.257 296.99C738.337 295.88 738.877 294.365 738.877 292.445ZM750.609 292.4C750.609 289.82 751.089 287.555 752.049 285.605C753.039 283.655 754.374 282.155 756.054 281.105C757.734 280.055 759.609 279.53 761.679 279.53C763.329 279.53 764.829 279.875 766.179 280.565C767.559 281.255 768.639 282.185 769.419 283.355V271.7H777.114V305H769.419V301.4C768.699 302.6 767.664 303.56 766.314 304.28C764.994 305 763.449 305.36 761.679 305.36C759.609 305.36 757.734 304.835 756.054 303.785C754.374 302.705 753.039 301.19 752.049 299.24C751.089 297.26 750.609 294.98 750.609 292.4ZM769.419 292.445C769.419 290.525 768.879 289.01 767.799 287.9C766.749 286.79 765.459 286.235 763.929 286.235C762.399 286.235 761.094 286.79 760.014 287.9C758.964 288.98 758.439 290.48 758.439 292.4C758.439 294.32 758.964 295.85 760.014 296.99C761.094 298.1 762.399 298.655 763.929 298.655C765.459 298.655 766.749 298.1 767.799 296.99C768.879 295.88 769.419 294.365 769.419 292.445ZM806.351 292.04C806.351 292.76 806.306 293.51 806.216 294.29H788.801C788.921 295.85 789.416 297.05 790.286 297.89C791.186 298.7 792.281 299.105 793.571 299.105C795.491 299.105 796.826 298.295 797.576 296.675H805.766C805.346 298.325 804.581 299.81 803.471 301.13C802.391 302.45 801.026 303.485 799.376 304.235C797.726 304.985 795.881 305.36 793.841 305.36C791.381 305.36 789.191 304.835 787.271 303.785C785.351 302.735 783.851 301.235 782.771 299.285C781.691 297.335 781.151 295.055 781.151 292.445C781.151 289.835 781.676 287.555 782.726 285.605C783.806 283.655 785.306 282.155 787.226 281.105C789.146 280.055 791.351 279.53 793.841 279.53C796.271 279.53 798.431 280.04 800.321 281.06C802.211 282.08 803.681 283.535 804.731 285.425C805.811 287.315 806.351 289.52 806.351 292.04ZM798.476 290.015C798.476 288.695 798.026 287.645 797.126 286.865C796.226 286.085 795.101 285.695 793.751 285.695C792.461 285.695 791.366 286.07 790.466 286.82C789.596 287.57 789.056 288.635 788.846 290.015H798.476ZM818.105 284.075C819.005 282.695 820.13 281.615 821.48 280.835C822.83 280.025 824.33 279.62 825.98 279.62V287.765H823.865C821.945 287.765 820.505 288.185 819.545 289.025C818.585 289.835 818.105 291.275 818.105 293.345V305H810.41V279.89H818.105V284.075ZM841.088 305.36C838.628 305.36 836.408 304.835 834.428 303.785C832.478 302.735 830.933 301.235 829.793 299.285C828.683 297.335 828.128 295.055 828.128 292.445C828.128 289.865 828.698 287.6 829.838 285.65C830.978 283.67 832.538 282.155 834.518 281.105C836.498 280.055 838.718 279.53 841.178 279.53C843.638 279.53 845.858 280.055 847.838 281.105C849.818 282.155 851.378 283.67 852.518 285.65C853.658 287.6 854.228 289.865 854.228 292.445C854.228 295.025 853.643 297.305 852.473 299.285C851.333 301.235 849.758 302.735 847.748 303.785C845.768 304.835 843.548 305.36 841.088 305.36ZM841.088 298.7C842.558 298.7 843.803 298.16 844.823 297.08C845.873 296 846.398 294.455 846.398 292.445C846.398 290.435 845.888 288.89 844.868 287.81C843.878 286.73 842.648 286.19 841.178 286.19C839.678 286.19 838.433 286.73 837.443 287.81C836.453 288.86 835.958 290.405 835.958 292.445C835.958 294.455 836.438 296 837.398 297.08C838.388 298.16 839.618 298.7 841.088 298.7Z" fill="#1E5C93"/>
<path d="M534.23 351.61H521.135L518.885 358H513.53L524.735 326.68H530.675L541.88 358H536.48L534.23 351.61ZM532.79 347.425L527.705 332.89L522.575 347.425H532.79ZM551.882 324.7V358H546.752V324.7H551.882ZM575.437 336.85C576.307 335.71 577.492 334.75 578.992 333.97C580.492 333.19 582.187 332.8 584.077 332.8C586.237 332.8 588.202 333.34 589.972 334.42C591.772 335.47 593.182 336.955 594.202 338.875C595.222 340.795 595.732 343 595.732 345.49C595.732 347.98 595.222 350.215 594.202 352.195C593.182 354.145 591.772 355.675 589.972 356.785C588.202 357.865 586.237 358.405 584.077 358.405C582.187 358.405 580.507 358.03 579.037 357.28C577.567 356.5 576.367 355.54 575.437 354.4V369.79H570.307V333.205H575.437V336.85ZM590.512 345.49C590.512 343.78 590.152 342.31 589.432 341.08C588.742 339.82 587.812 338.875 586.642 338.245C585.502 337.585 584.272 337.255 582.952 337.255C581.662 337.255 580.432 337.585 579.262 338.245C578.122 338.905 577.192 339.865 576.472 341.125C575.782 342.385 575.437 343.87 575.437 345.58C575.437 347.29 575.782 348.79 576.472 350.08C577.192 351.34 578.122 352.3 579.262 352.96C580.432 353.62 581.662 353.95 582.952 353.95C584.272 353.95 585.502 353.62 586.642 352.96C587.812 352.27 588.742 351.28 589.432 349.99C590.152 348.7 590.512 347.2 590.512 345.49ZM605.935 336.805C606.685 335.545 607.675 334.57 608.905 333.88C610.165 333.16 611.65 332.8 613.36 332.8V338.11H612.055C610.045 338.11 608.515 338.62 607.465 339.64C606.445 340.66 605.935 342.43 605.935 344.95V358H600.805V333.205H605.935V336.805ZM640.8 344.995C640.8 345.925 640.74 346.765 640.62 347.515H621.675C621.825 349.495 622.56 351.085 623.88 352.285C625.2 353.485 626.82 354.085 628.74 354.085C631.5 354.085 633.45 352.93 634.59 350.62H640.125C639.375 352.9 638.01 354.775 636.03 356.245C634.08 357.685 631.65 358.405 628.74 358.405C626.37 358.405 624.24 357.88 622.35 356.83C620.49 355.75 619.02 354.25 617.94 352.33C616.89 350.38 616.365 348.13 616.365 345.58C616.365 343.03 616.875 340.795 617.895 338.875C618.945 336.925 620.4 335.425 622.26 334.375C624.15 333.325 626.31 332.8 628.74 332.8C631.08 332.8 633.165 333.31 634.995 334.33C636.825 335.35 638.25 336.79 639.27 338.65C640.29 340.48 640.8 342.595 640.8 344.995ZM635.445 343.375C635.415 341.485 634.74 339.97 633.42 338.83C632.1 337.69 630.465 337.12 628.515 337.12C626.745 337.12 625.23 337.69 623.97 338.83C622.71 339.94 621.96 341.455 621.72 343.375H635.445ZM654.849 358.405C652.899 358.405 651.144 358.06 649.584 357.37C648.054 356.65 646.839 355.69 645.939 354.49C645.039 353.26 644.559 351.895 644.499 350.395H649.809C649.899 351.445 650.394 352.33 651.294 353.05C652.224 353.74 653.379 354.085 654.759 354.085C656.199 354.085 657.309 353.815 658.089 353.275C658.899 352.705 659.304 351.985 659.304 351.115C659.304 350.185 658.854 349.495 657.954 349.045C657.084 348.595 655.689 348.1 653.769 347.56C651.909 347.05 650.394 346.555 649.224 346.075C648.054 345.595 647.034 344.86 646.164 343.87C645.324 342.88 644.904 341.575 644.904 339.955C644.904 338.635 645.294 337.435 646.074 336.355C646.854 335.245 647.964 334.375 649.404 333.745C650.874 333.115 652.554 332.8 654.444 332.8C657.264 332.8 659.529 333.52 661.239 334.96C662.979 336.37 663.909 338.305 664.029 340.765H658.899C658.809 339.655 658.359 338.77 657.549 338.11C656.739 337.45 655.644 337.12 654.264 337.12C652.914 337.12 651.879 337.375 651.159 337.885C650.439 338.395 650.079 339.07 650.079 339.91C650.079 340.57 650.319 341.125 650.799 341.575C651.279 342.025 651.864 342.385 652.554 342.655C653.244 342.895 654.264 343.21 655.614 343.6C657.414 344.08 658.884 344.575 660.024 345.085C661.194 345.565 662.199 346.285 663.039 347.245C663.879 348.205 664.314 349.48 664.344 351.07C664.344 352.48 663.954 353.74 663.174 354.85C662.394 355.96 661.284 356.83 659.844 357.46C658.434 358.09 656.769 358.405 654.849 358.405ZM672.497 329.92C671.567 329.92 670.787 329.605 670.157 328.975C669.527 328.345 669.212 327.565 669.212 326.635C669.212 325.705 669.527 324.925 670.157 324.295C670.787 323.665 671.567 323.35 672.497 323.35C673.397 323.35 674.162 323.665 674.792 324.295C675.422 324.925 675.737 325.705 675.737 326.635C675.737 327.565 675.422 328.345 674.792 328.975C674.162 329.605 673.397 329.92 672.497 329.92ZM675.017 333.205V358H669.887V333.205H675.017ZM692.507 358.405C690.167 358.405 688.052 357.88 686.162 356.83C684.272 355.75 682.787 354.25 681.707 352.33C680.627 350.38 680.087 348.13 680.087 345.58C680.087 343.06 680.642 340.825 681.752 338.875C682.862 336.925 684.377 335.425 686.297 334.375C688.217 333.325 690.362 332.8 692.732 332.8C695.102 332.8 697.247 333.325 699.167 334.375C701.087 335.425 702.602 336.925 703.712 338.875C704.822 340.825 705.377 343.06 705.377 345.58C705.377 348.1 704.807 350.335 703.667 352.285C702.527 354.235 700.967 355.75 698.987 356.83C697.037 357.88 694.877 358.405 692.507 358.405ZM692.507 353.95C693.827 353.95 695.057 353.635 696.197 353.005C697.367 352.375 698.312 351.43 699.032 350.17C699.752 348.91 700.112 347.38 700.112 345.58C700.112 343.78 699.767 342.265 699.077 341.035C698.387 339.775 697.472 338.83 696.332 338.2C695.192 337.57 693.962 337.255 692.642 337.255C691.322 337.255 690.092 337.57 688.952 338.2C687.842 338.83 686.957 339.775 686.297 341.035C685.637 342.265 685.307 343.78 685.307 345.58C685.307 348.25 685.982 350.32 687.332 351.79C688.712 353.23 690.437 353.95 692.507 353.95ZM722.958 332.8C724.908 332.8 726.648 333.205 728.178 334.015C729.738 334.825 730.953 336.025 731.823 337.615C732.693 339.205 733.128 341.125 733.128 343.375V358H728.043V344.14C728.043 341.92 727.488 340.225 726.378 339.055C725.268 337.855 723.753 337.255 721.833 337.255C719.913 337.255 718.383 337.855 717.243 339.055C716.133 340.225 715.578 341.92 715.578 344.14V358H710.448V333.205H715.578V336.04C716.418 335.02 717.483 334.225 718.773 333.655C720.093 333.085 721.488 332.8 722.958 332.8ZM737.962 345.49C737.962 343 738.472 340.795 739.492 338.875C740.542 336.955 741.952 335.47 743.722 334.42C745.522 333.34 747.502 332.8 749.662 332.8C751.612 332.8 753.307 333.19 754.747 333.97C756.217 334.72 757.387 335.665 758.257 336.805V333.205H763.432V358H758.257V354.31C757.387 355.48 756.202 356.455 754.702 357.235C753.202 358.015 751.492 358.405 749.572 358.405C747.442 358.405 745.492 357.865 743.722 356.785C741.952 355.675 740.542 354.145 739.492 352.195C738.472 350.215 737.962 347.98 737.962 345.49ZM758.257 345.58C758.257 343.87 757.897 342.385 757.177 341.125C756.487 339.865 755.572 338.905 754.432 338.245C753.292 337.585 752.062 337.255 750.742 337.255C749.422 337.255 748.192 337.585 747.052 338.245C745.912 338.875 744.982 339.82 744.262 341.08C743.572 342.31 743.227 343.78 743.227 345.49C743.227 347.2 743.572 348.7 744.262 349.99C744.982 351.28 745.912 352.27 747.052 352.96C748.222 353.62 749.452 353.95 750.742 353.95C752.062 353.95 753.292 353.62 754.432 352.96C755.572 352.3 756.487 351.34 757.177 350.08C757.897 348.79 758.257 347.29 758.257 345.58ZM775.3 336.805C776.05 335.545 777.04 334.57 778.27 333.88C779.53 333.16 781.015 332.8 782.725 332.8V338.11H781.42C779.41 338.11 777.88 338.62 776.83 339.64C775.81 340.66 775.3 342.43 775.3 344.95V358H770.17V333.205H775.3V336.805Z" fill="#1E5C93"/>
<path d="M968.355 326.41V332.575H955.485V339.235H965.115V345.22H955.485V358H947.79V326.41H968.355ZM970.869 345.4C970.869 342.82 971.349 340.555 972.309 338.605C973.299 336.655 974.634 335.155 976.314 334.105C977.994 333.055 979.869 332.53 981.939 332.53C983.709 332.53 985.254 332.89 986.574 333.61C987.924 334.33 988.959 335.275 989.679 336.445V332.89H997.374V358H989.679V354.445C988.929 355.615 987.879 356.56 986.529 357.28C985.209 358 983.664 358.36 981.894 358.36C979.854 358.36 977.994 357.835 976.314 356.785C974.634 355.705 973.299 354.19 972.309 352.24C971.349 350.26 970.869 347.98 970.869 345.4ZM989.679 345.445C989.679 343.525 989.139 342.01 988.059 340.9C987.009 339.79 985.719 339.235 984.189 339.235C982.659 339.235 981.354 339.79 980.274 340.9C979.224 341.98 978.699 343.48 978.699 345.4C978.699 347.32 979.224 348.85 980.274 349.99C981.354 351.1 982.659 351.655 984.189 351.655C985.719 351.655 987.009 351.1 988.059 349.99C989.139 348.88 989.679 347.365 989.679 345.445ZM1010.64 324.7V358H1002.94V324.7H1010.64ZM1026.43 358.36C1024.24 358.36 1022.29 357.985 1020.58 357.235C1018.87 356.485 1017.52 355.465 1016.53 354.175C1015.54 352.855 1014.98 351.385 1014.86 349.765H1022.47C1022.56 350.635 1022.96 351.34 1023.68 351.88C1024.4 352.42 1025.29 352.69 1026.34 352.69C1027.3 352.69 1028.03 352.51 1028.54 352.15C1029.08 351.76 1029.35 351.265 1029.35 350.665C1029.35 349.945 1028.98 349.42 1028.23 349.09C1027.48 348.73 1026.26 348.34 1024.58 347.92C1022.78 347.5 1021.28 347.065 1020.08 346.615C1018.88 346.135 1017.85 345.4 1016.98 344.41C1016.11 343.39 1015.67 342.025 1015.67 340.315C1015.67 338.875 1016.06 337.57 1016.84 336.4C1017.65 335.2 1018.82 334.255 1020.35 333.565C1021.91 332.875 1023.76 332.53 1025.89 332.53C1029.04 332.53 1031.51 333.31 1033.31 334.87C1035.14 336.43 1036.19 338.5 1036.46 341.08H1029.35C1029.23 340.21 1028.84 339.52 1028.18 339.01C1027.55 338.5 1026.71 338.245 1025.66 338.245C1024.76 338.245 1024.07 338.425 1023.59 338.785C1023.11 339.115 1022.87 339.58 1022.87 340.18C1022.87 340.9 1023.25 341.44 1024 341.8C1024.78 342.16 1025.98 342.52 1027.6 342.88C1029.46 343.36 1030.97 343.84 1032.14 344.32C1033.31 344.77 1034.33 345.52 1035.2 346.57C1036.1 347.59 1036.57 348.97 1036.6 350.71C1036.6 352.18 1036.18 353.5 1035.34 354.67C1034.53 355.81 1033.34 356.71 1031.78 357.37C1030.25 358.03 1028.47 358.36 1026.43 358.36ZM1052.74 358.36C1050.28 358.36 1048.06 357.835 1046.08 356.785C1044.13 355.735 1042.58 354.235 1041.44 352.285C1040.33 350.335 1039.78 348.055 1039.78 345.445C1039.78 342.865 1040.35 340.6 1041.49 338.65C1042.63 336.67 1044.19 335.155 1046.17 334.105C1048.15 333.055 1050.37 332.53 1052.83 332.53C1055.29 332.53 1057.51 333.055 1059.49 334.105C1061.47 335.155 1063.03 336.67 1064.17 338.65C1065.31 340.6 1065.88 342.865 1065.88 345.445C1065.88 348.025 1065.29 350.305 1064.12 352.285C1062.98 354.235 1061.41 355.735 1059.4 356.785C1057.42 357.835 1055.2 358.36 1052.74 358.36ZM1052.74 351.7C1054.21 351.7 1055.45 351.16 1056.47 350.08C1057.52 349 1058.05 347.455 1058.05 345.445C1058.05 343.435 1057.54 341.89 1056.52 340.81C1055.53 339.73 1054.3 339.19 1052.83 339.19C1051.33 339.19 1050.08 339.73 1049.09 340.81C1048.1 341.86 1047.61 343.405 1047.61 345.445C1047.61 347.455 1048.09 349 1049.05 350.08C1050.04 351.16 1051.27 351.7 1052.74 351.7Z" fill="#1E5C93"/>
<path d="M815 347.707L922.712 348.002L922.72 345.001L815.004 344.71L815 347.707ZM921.204 350.995L930.215 346.524L921.227 342L921.204 350.995Z" fill="#1A3567"/>
<path d="M415.62 291.649L480.712 291.002L480.72 288.001L415.623 288.652L415.62 291.649ZM479.204 293.995L488.215 289.524L479.227 285L479.204 293.995Z" fill="#1A3567"/>
<path d="M522.485 439.06H532.565V445H514.79V413.41H522.485V439.06ZM561.03 419.89V445H553.335V441.58C552.555 442.69 551.49 443.59 550.14 444.28C548.82 444.94 547.35 445.27 545.73 445.27C543.81 445.27 542.115 444.85 540.645 444.01C539.175 443.14 538.035 441.895 537.225 440.275C536.415 438.655 536.01 436.75 536.01 434.56V419.89H543.66V433.525C543.66 435.205 544.095 436.51 544.965 437.44C545.835 438.37 547.005 438.835 548.475 438.835C549.975 438.835 551.16 438.37 552.03 437.44C552.9 436.51 553.335 435.205 553.335 433.525V419.89H561.03ZM573.758 438.655H584.648V445H565.163V438.88L575.603 426.235H565.253V419.89H584.423V426.01L573.758 438.655ZM592.482 445.36C591.132 445.36 590.022 444.97 589.152 444.19C588.312 443.38 587.892 442.39 587.892 441.22C587.892 440.02 588.312 439.015 589.152 438.205C590.022 437.395 591.132 436.99 592.482 436.99C593.802 436.99 594.882 437.395 595.722 438.205C596.592 439.015 597.027 440.02 597.027 441.22C597.027 442.39 596.592 443.38 595.722 444.19C594.882 444.97 593.802 445.36 592.482 445.36ZM592.482 427.045C591.132 427.045 590.022 426.655 589.152 425.875C588.312 425.065 587.892 424.075 587.892 422.905C587.892 421.705 588.312 420.7 589.152 419.89C590.022 419.08 591.132 418.675 592.482 418.675C593.802 418.675 594.882 419.08 595.722 419.89C596.592 420.7 597.027 421.705 597.027 422.905C597.027 424.075 596.592 425.065 595.722 425.875C594.882 426.655 593.802 427.045 592.482 427.045ZM631.771 413.41V419.575H618.901V426.235H628.531V432.22H618.901V445H611.206V413.41H631.771ZM634.285 432.4C634.285 429.82 634.765 427.555 635.725 425.605C636.715 423.655 638.05 422.155 639.73 421.105C641.41 420.055 643.285 419.53 645.355 419.53C647.125 419.53 648.67 419.89 649.99 420.61C651.34 421.33 652.375 422.275 653.095 423.445V419.89H660.79V445H653.095V441.445C652.345 442.615 651.295 443.56 649.945 444.28C648.625 445 647.08 445.36 645.31 445.36C643.27 445.36 641.41 444.835 639.73 443.785C638.05 442.705 636.715 441.19 635.725 439.24C634.765 437.26 634.285 434.98 634.285 432.4ZM653.095 432.445C653.095 430.525 652.555 429.01 651.475 427.9C650.425 426.79 649.135 426.235 647.605 426.235C646.075 426.235 644.77 426.79 643.69 427.9C642.64 428.98 642.115 430.48 642.115 432.4C642.115 434.32 642.64 435.85 643.69 436.99C644.77 438.1 646.075 438.655 647.605 438.655C649.135 438.655 650.425 438.1 651.475 436.99C652.555 435.88 653.095 434.365 653.095 432.445ZM674.052 411.7V445H666.357V411.7H674.052ZM689.844 445.36C687.654 445.36 685.704 444.985 683.994 444.235C682.284 443.485 680.934 442.465 679.944 441.175C678.954 439.855 678.399 438.385 678.279 436.765H685.884C685.974 437.635 686.379 438.34 687.099 438.88C687.819 439.42 688.704 439.69 689.754 439.69C690.714 439.69 691.449 439.51 691.959 439.15C692.499 438.76 692.769 438.265 692.769 437.665C692.769 436.945 692.394 436.42 691.644 436.09C690.894 435.73 689.679 435.34 687.999 434.92C686.199 434.5 684.699 434.065 683.499 433.615C682.299 433.135 681.264 432.4 680.394 431.41C679.524 430.39 679.089 429.025 679.089 427.315C679.089 425.875 679.479 424.57 680.259 423.4C681.069 422.2 682.239 421.255 683.769 420.565C685.329 419.875 687.174 419.53 689.304 419.53C692.454 419.53 694.929 420.31 696.729 421.87C698.559 423.43 699.609 425.5 699.879 428.08H692.769C692.649 427.21 692.259 426.52 691.599 426.01C690.969 425.5 690.129 425.245 689.079 425.245C688.179 425.245 687.489 425.425 687.009 425.785C686.529 426.115 686.289 426.58 686.289 427.18C686.289 427.9 686.664 428.44 687.414 428.8C688.194 429.16 689.394 429.52 691.014 429.88C692.874 430.36 694.389 430.84 695.559 431.32C696.729 431.77 697.749 432.52 698.619 433.57C699.519 434.59 699.984 435.97 700.014 437.71C700.014 439.18 699.594 440.5 698.754 441.67C697.944 442.81 696.759 443.71 695.199 444.37C693.669 445.03 691.884 445.36 689.844 445.36ZM716.152 445.36C713.692 445.36 711.472 444.835 709.492 443.785C707.542 442.735 705.997 441.235 704.857 439.285C703.747 437.335 703.192 435.055 703.192 432.445C703.192 429.865 703.762 427.6 704.902 425.65C706.042 423.67 707.602 422.155 709.582 421.105C711.562 420.055 713.782 419.53 716.242 419.53C718.702 419.53 720.922 420.055 722.902 421.105C724.882 422.155 726.442 423.67 727.582 425.65C728.722 427.6 729.292 429.865 729.292 432.445C729.292 435.025 728.707 437.305 727.537 439.285C726.397 441.235 724.822 442.735 722.812 443.785C720.832 444.835 718.612 445.36 716.152 445.36ZM716.152 438.7C717.622 438.7 718.867 438.16 719.887 437.08C720.937 436 721.462 434.455 721.462 432.445C721.462 430.435 720.952 428.89 719.932 427.81C718.942 426.73 717.712 426.19 716.242 426.19C714.742 426.19 713.497 426.73 712.507 427.81C711.517 428.86 711.022 430.405 711.022 432.445C711.022 434.455 711.502 436 712.462 437.08C713.452 438.16 714.682 438.7 716.152 438.7Z" fill="#1E5C93"/>
<path d="M531.23 491.61H518.135L515.885 498H510.53L521.735 466.68H527.675L538.88 498H533.48L531.23 491.61ZM529.79 487.425L524.705 472.89L519.575 487.425H529.79ZM548.882 464.7V498H543.752V464.7H548.882ZM572.437 476.85C573.307 475.71 574.492 474.75 575.992 473.97C577.492 473.19 579.187 472.8 581.077 472.8C583.237 472.8 585.202 473.34 586.972 474.42C588.772 475.47 590.182 476.955 591.202 478.875C592.222 480.795 592.732 483 592.732 485.49C592.732 487.98 592.222 490.215 591.202 492.195C590.182 494.145 588.772 495.675 586.972 496.785C585.202 497.865 583.237 498.405 581.077 498.405C579.187 498.405 577.507 498.03 576.037 497.28C574.567 496.5 573.367 495.54 572.437 494.4V509.79H567.307V473.205H572.437V476.85ZM587.512 485.49C587.512 483.78 587.152 482.31 586.432 481.08C585.742 479.82 584.812 478.875 583.642 478.245C582.502 477.585 581.272 477.255 579.952 477.255C578.662 477.255 577.432 477.585 576.262 478.245C575.122 478.905 574.192 479.865 573.472 481.125C572.782 482.385 572.437 483.87 572.437 485.58C572.437 487.29 572.782 488.79 573.472 490.08C574.192 491.34 575.122 492.3 576.262 492.96C577.432 493.62 578.662 493.95 579.952 493.95C581.272 493.95 582.502 493.62 583.642 492.96C584.812 492.27 585.742 491.28 586.432 489.99C587.152 488.7 587.512 487.2 587.512 485.49ZM602.935 476.805C603.685 475.545 604.675 474.57 605.905 473.88C607.165 473.16 608.65 472.8 610.36 472.8V478.11H609.055C607.045 478.11 605.515 478.62 604.465 479.64C603.445 480.66 602.935 482.43 602.935 484.95V498H597.805V473.205H602.935V476.805ZM637.8 484.995C637.8 485.925 637.74 486.765 637.62 487.515H618.675C618.825 489.495 619.56 491.085 620.88 492.285C622.2 493.485 623.82 494.085 625.74 494.085C628.5 494.085 630.45 492.93 631.59 490.62H637.125C636.375 492.9 635.01 494.775 633.03 496.245C631.08 497.685 628.65 498.405 625.74 498.405C623.37 498.405 621.24 497.88 619.35 496.83C617.49 495.75 616.02 494.25 614.94 492.33C613.89 490.38 613.365 488.13 613.365 485.58C613.365 483.03 613.875 480.795 614.895 478.875C615.945 476.925 617.4 475.425 619.26 474.375C621.15 473.325 623.31 472.8 625.74 472.8C628.08 472.8 630.165 473.31 631.995 474.33C633.825 475.35 635.25 476.79 636.27 478.65C637.29 480.48 637.8 482.595 637.8 484.995ZM632.445 483.375C632.415 481.485 631.74 479.97 630.42 478.83C629.1 477.69 627.465 477.12 625.515 477.12C623.745 477.12 622.23 477.69 620.97 478.83C619.71 479.94 618.96 481.455 618.72 483.375H632.445ZM651.849 498.405C649.899 498.405 648.144 498.06 646.584 497.37C645.054 496.65 643.839 495.69 642.939 494.49C642.039 493.26 641.559 491.895 641.499 490.395H646.809C646.899 491.445 647.394 492.33 648.294 493.05C649.224 493.74 650.379 494.085 651.759 494.085C653.199 494.085 654.309 493.815 655.089 493.275C655.899 492.705 656.304 491.985 656.304 491.115C656.304 490.185 655.854 489.495 654.954 489.045C654.084 488.595 652.689 488.1 650.769 487.56C648.909 487.05 647.394 486.555 646.224 486.075C645.054 485.595 644.034 484.86 643.164 483.87C642.324 482.88 641.904 481.575 641.904 479.955C641.904 478.635 642.294 477.435 643.074 476.355C643.854 475.245 644.964 474.375 646.404 473.745C647.874 473.115 649.554 472.8 651.444 472.8C654.264 472.8 656.529 473.52 658.239 474.96C659.979 476.37 660.909 478.305 661.029 480.765H655.899C655.809 479.655 655.359 478.77 654.549 478.11C653.739 477.45 652.644 477.12 651.264 477.12C649.914 477.12 648.879 477.375 648.159 477.885C647.439 478.395 647.079 479.07 647.079 479.91C647.079 480.57 647.319 481.125 647.799 481.575C648.279 482.025 648.864 482.385 649.554 482.655C650.244 482.895 651.264 483.21 652.614 483.6C654.414 484.08 655.884 484.575 657.024 485.085C658.194 485.565 659.199 486.285 660.039 487.245C660.879 488.205 661.314 489.48 661.344 491.07C661.344 492.48 660.954 493.74 660.174 494.85C659.394 495.96 658.284 496.83 656.844 497.46C655.434 498.09 653.769 498.405 651.849 498.405ZM669.497 469.92C668.567 469.92 667.787 469.605 667.157 468.975C666.527 468.345 666.212 467.565 666.212 466.635C666.212 465.705 666.527 464.925 667.157 464.295C667.787 463.665 668.567 463.35 669.497 463.35C670.397 463.35 671.162 463.665 671.792 464.295C672.422 464.925 672.737 465.705 672.737 466.635C672.737 467.565 672.422 468.345 671.792 468.975C671.162 469.605 670.397 469.92 669.497 469.92ZM672.017 473.205V498H666.887V473.205H672.017ZM689.507 498.405C687.167 498.405 685.052 497.88 683.162 496.83C681.272 495.75 679.787 494.25 678.707 492.33C677.627 490.38 677.087 488.13 677.087 485.58C677.087 483.06 677.642 480.825 678.752 478.875C679.862 476.925 681.377 475.425 683.297 474.375C685.217 473.325 687.362 472.8 689.732 472.8C692.102 472.8 694.247 473.325 696.167 474.375C698.087 475.425 699.602 476.925 700.712 478.875C701.822 480.825 702.377 483.06 702.377 485.58C702.377 488.1 701.807 490.335 700.667 492.285C699.527 494.235 697.967 495.75 695.987 496.83C694.037 497.88 691.877 498.405 689.507 498.405ZM689.507 493.95C690.827 493.95 692.057 493.635 693.197 493.005C694.367 492.375 695.312 491.43 696.032 490.17C696.752 488.91 697.112 487.38 697.112 485.58C697.112 483.78 696.767 482.265 696.077 481.035C695.387 479.775 694.472 478.83 693.332 478.2C692.192 477.57 690.962 477.255 689.642 477.255C688.322 477.255 687.092 477.57 685.952 478.2C684.842 478.83 683.957 479.775 683.297 481.035C682.637 482.265 682.307 483.78 682.307 485.58C682.307 488.25 682.982 490.32 684.332 491.79C685.712 493.23 687.437 493.95 689.507 493.95ZM719.958 472.8C721.908 472.8 723.648 473.205 725.178 474.015C726.738 474.825 727.953 476.025 728.823 477.615C729.693 479.205 730.128 481.125 730.128 483.375V498H725.043V484.14C725.043 481.92 724.488 480.225 723.378 479.055C722.268 477.855 720.753 477.255 718.833 477.255C716.913 477.255 715.383 477.855 714.243 479.055C713.133 480.225 712.578 481.92 712.578 484.14V498H707.448V473.205H712.578V476.04C713.418 475.02 714.483 474.225 715.773 473.655C717.093 473.085 718.488 472.8 719.958 472.8ZM734.962 485.49C734.962 483 735.472 480.795 736.492 478.875C737.542 476.955 738.952 475.47 740.722 474.42C742.522 473.34 744.502 472.8 746.662 472.8C748.612 472.8 750.307 473.19 751.747 473.97C753.217 474.72 754.387 475.665 755.257 476.805V473.205H760.432V498H755.257V494.31C754.387 495.48 753.202 496.455 751.702 497.235C750.202 498.015 748.492 498.405 746.572 498.405C744.442 498.405 742.492 497.865 740.722 496.785C738.952 495.675 737.542 494.145 736.492 492.195C735.472 490.215 734.962 487.98 734.962 485.49ZM755.257 485.58C755.257 483.87 754.897 482.385 754.177 481.125C753.487 479.865 752.572 478.905 751.432 478.245C750.292 477.585 749.062 477.255 747.742 477.255C746.422 477.255 745.192 477.585 744.052 478.245C742.912 478.875 741.982 479.82 741.262 481.08C740.572 482.31 740.227 483.78 740.227 485.49C740.227 487.2 740.572 488.7 741.262 489.99C741.982 491.28 742.912 492.27 744.052 492.96C745.222 493.62 746.452 493.95 747.742 493.95C749.062 493.95 750.292 493.62 751.432 492.96C752.572 492.3 753.487 491.34 754.177 490.08C754.897 488.79 755.257 487.29 755.257 485.58ZM772.3 476.805C773.05 475.545 774.04 474.57 775.27 473.88C776.53 473.16 778.015 472.8 779.725 472.8V478.11H778.42C776.41 478.11 774.88 478.62 773.83 479.64C772.81 480.66 772.3 482.43 772.3 484.95V498H767.17V473.205H772.3V476.805Z" fill="#1E5C93"/>
<path d="M974.445 466.41L963.24 498H953.61L942.405 466.41H950.595L958.425 490.26L966.3 466.41H974.445ZM1001.33 485.04C1001.33 485.76 1001.29 486.51 1001.2 487.29H983.781C983.901 488.85 984.396 490.05 985.266 490.89C986.166 491.7 987.261 492.105 988.551 492.105C990.471 492.105 991.806 491.295 992.556 489.675H1000.75C1000.33 491.325 999.561 492.81 998.451 494.13C997.371 495.45 996.006 496.485 994.356 497.235C992.706 497.985 990.861 498.36 988.821 498.36C986.361 498.36 984.171 497.835 982.251 496.785C980.331 495.735 978.831 494.235 977.751 492.285C976.671 490.335 976.131 488.055 976.131 485.445C976.131 482.835 976.656 480.555 977.706 478.605C978.786 476.655 980.286 475.155 982.206 474.105C984.126 473.055 986.331 472.53 988.821 472.53C991.251 472.53 993.411 473.04 995.301 474.06C997.191 475.08 998.661 476.535 999.711 478.425C1000.79 480.315 1001.33 482.52 1001.33 485.04ZM993.456 483.015C993.456 481.695 993.006 480.645 992.106 479.865C991.206 479.085 990.081 478.695 988.731 478.695C987.441 478.695 986.346 479.07 985.446 479.82C984.576 480.57 984.036 481.635 983.826 483.015H993.456ZM1013.09 477.075C1013.99 475.695 1015.11 474.615 1016.46 473.835C1017.81 473.025 1019.31 472.62 1020.96 472.62V480.765H1018.85C1016.93 480.765 1015.49 481.185 1014.53 482.025C1013.57 482.835 1013.09 484.275 1013.09 486.345V498H1005.39V472.89H1013.09V477.075ZM1023.11 485.4C1023.11 482.82 1023.59 480.555 1024.55 478.605C1025.54 476.655 1026.87 475.155 1028.55 474.105C1030.23 473.055 1032.11 472.53 1034.18 472.53C1035.83 472.53 1037.33 472.875 1038.68 473.565C1040.06 474.255 1041.14 475.185 1041.92 476.355V464.7H1049.61V498H1041.92V494.4C1041.2 495.6 1040.16 496.56 1038.81 497.28C1037.49 498 1035.95 498.36 1034.18 498.36C1032.11 498.36 1030.23 497.835 1028.55 496.785C1026.87 495.705 1025.54 494.19 1024.55 492.24C1023.59 490.26 1023.11 487.98 1023.11 485.4ZM1041.92 485.445C1041.92 483.525 1041.38 482.01 1040.3 480.9C1039.25 479.79 1037.96 479.235 1036.43 479.235C1034.9 479.235 1033.59 479.79 1032.51 480.9C1031.46 481.98 1030.94 483.48 1030.94 485.4C1030.94 487.32 1031.46 488.85 1032.51 489.99C1033.59 491.1 1034.9 491.655 1036.43 491.655C1037.96 491.655 1039.25 491.1 1040.3 489.99C1041.38 488.88 1041.92 487.365 1041.92 485.445ZM1053.65 485.4C1053.65 482.82 1054.13 480.555 1055.09 478.605C1056.08 476.655 1057.42 475.155 1059.1 474.105C1060.78 473.055 1062.65 472.53 1064.72 472.53C1066.49 472.53 1068.04 472.89 1069.36 473.61C1070.71 474.33 1071.74 475.275 1072.46 476.445V472.89H1080.16V498H1072.46V494.445C1071.71 495.615 1070.66 496.56 1069.31 497.28C1067.99 498 1066.45 498.36 1064.68 498.36C1062.64 498.36 1060.78 497.835 1059.1 496.785C1057.42 495.705 1056.08 494.19 1055.09 492.24C1054.13 490.26 1053.65 487.98 1053.65 485.4ZM1072.46 485.445C1072.46 483.525 1071.92 482.01 1070.84 480.9C1069.79 479.79 1068.5 479.235 1066.97 479.235C1065.44 479.235 1064.14 479.79 1063.06 480.9C1062.01 481.98 1061.48 483.48 1061.48 485.4C1061.48 487.32 1062.01 488.85 1063.06 489.99C1064.14 491.1 1065.44 491.655 1066.97 491.655C1068.5 491.655 1069.79 491.1 1070.84 489.99C1071.92 488.88 1072.46 487.365 1072.46 485.445ZM1084.19 485.4C1084.19 482.82 1084.67 480.555 1085.63 478.605C1086.62 476.655 1087.96 475.155 1089.64 474.105C1091.32 473.055 1093.19 472.53 1095.26 472.53C1096.91 472.53 1098.41 472.875 1099.76 473.565C1101.14 474.255 1102.22 475.185 1103 476.355V464.7H1110.7V498H1103V494.4C1102.28 495.6 1101.25 496.56 1099.9 497.28C1098.58 498 1097.03 498.36 1095.26 498.36C1093.19 498.36 1091.32 497.835 1089.64 496.785C1087.96 495.705 1086.62 494.19 1085.63 492.24C1084.67 490.26 1084.19 487.98 1084.19 485.4ZM1103 485.445C1103 483.525 1102.46 482.01 1101.38 480.9C1100.33 479.79 1099.04 479.235 1097.51 479.235C1095.98 479.235 1094.68 479.79 1093.6 480.9C1092.55 481.98 1092.02 483.48 1092.02 485.4C1092.02 487.32 1092.55 488.85 1093.6 489.99C1094.68 491.1 1095.98 491.655 1097.51 491.655C1099.04 491.655 1100.33 491.1 1101.38 489.99C1102.46 488.88 1103 487.365 1103 485.445ZM1139.93 485.04C1139.93 485.76 1139.89 486.51 1139.8 487.29H1122.38C1122.5 488.85 1123 490.05 1123.87 490.89C1124.77 491.7 1125.86 492.105 1127.15 492.105C1129.07 492.105 1130.41 491.295 1131.16 489.675H1139.35C1138.93 491.325 1138.16 492.81 1137.05 494.13C1135.97 495.45 1134.61 496.485 1132.96 497.235C1131.31 497.985 1129.46 498.36 1127.42 498.36C1124.96 498.36 1122.77 497.835 1120.85 496.785C1118.93 495.735 1117.43 494.235 1116.35 492.285C1115.27 490.335 1114.73 488.055 1114.73 485.445C1114.73 482.835 1115.26 480.555 1116.31 478.605C1117.39 476.655 1118.89 475.155 1120.81 474.105C1122.73 473.055 1124.93 472.53 1127.42 472.53C1129.85 472.53 1132.01 473.04 1133.9 474.06C1135.79 475.08 1137.26 476.535 1138.31 478.425C1139.39 480.315 1139.93 482.52 1139.93 485.04ZM1132.06 483.015C1132.06 481.695 1131.61 480.645 1130.71 479.865C1129.81 479.085 1128.68 478.695 1127.33 478.695C1126.04 478.695 1124.95 479.07 1124.05 479.82C1123.18 480.57 1122.64 481.635 1122.43 483.015H1132.06ZM1151.69 477.075C1152.59 475.695 1153.71 474.615 1155.06 473.835C1156.41 473.025 1157.91 472.62 1159.56 472.62V480.765H1157.45C1155.53 480.765 1154.09 481.185 1153.13 482.025C1152.17 482.835 1151.69 484.275 1151.69 486.345V498H1143.99V472.89H1151.69V477.075ZM1174.67 498.36C1172.21 498.36 1169.99 497.835 1168.01 496.785C1166.06 495.735 1164.52 494.235 1163.38 492.285C1162.27 490.335 1161.71 488.055 1161.71 485.445C1161.71 482.865 1162.28 480.6 1163.42 478.65C1164.56 476.67 1166.12 475.155 1168.1 474.105C1170.08 473.055 1172.3 472.53 1174.76 472.53C1177.22 472.53 1179.44 473.055 1181.42 474.105C1183.4 475.155 1184.96 476.67 1186.1 478.65C1187.24 480.6 1187.81 482.865 1187.81 485.445C1187.81 488.025 1187.23 490.305 1186.06 492.285C1184.92 494.235 1183.34 495.735 1181.33 496.785C1179.35 497.835 1177.13 498.36 1174.67 498.36ZM1174.67 491.7C1176.14 491.7 1177.39 491.16 1178.41 490.08C1179.46 489 1179.98 487.455 1179.98 485.445C1179.98 483.435 1179.47 481.89 1178.45 480.81C1177.46 479.73 1176.23 479.19 1174.76 479.19C1173.26 479.19 1172.02 479.73 1171.03 480.81C1170.04 481.86 1169.54 483.405 1169.54 485.445C1169.54 487.455 1170.02 489 1170.98 490.08C1171.97 491.16 1173.2 491.7 1174.67 491.7Z" fill="#1E5C93"/>
<path d="M415.62 435.649L480.712 435.002L480.72 432.001L415.623 432.652L415.62 435.649ZM479.204 437.995L488.215 433.524L479.227 429L479.204 437.995Z" fill="#1A3567"/>
<path d="M812 487.707L919.712 488.002L919.72 485.001L812.004 484.71L812 487.707ZM918.204 490.995L927.215 486.524L918.227 482L918.204 490.995Z" fill="#1A3567"/>
</g>
<defs>
<linearGradient id="paint0_linear_410_4496" x1="242.5" y1="131" x2="242.5" y2="590" gradientUnits="userSpaceOnUse">
<stop stop-color="#9AB6CF"/>
<stop offset="1" stop-color="#AB9EB8"/>
</linearGradient>
<clipPath id="clip0_410_4496">
<rect width="1280" height="720" fill="white"/>
</clipPath>
</defs>
</svg>
