<svg width="1280" height="720" viewBox="0 0 1280 720" fill="none" xmlns="http://www.w3.org/2000/svg">
<g clip-path="url(#clip0_410_4475)">
<rect width="1280" height="720" fill="#ECFAFF"/>
<mask id="mask0_410_4475" style="mask-type:alpha" maskUnits="userSpaceOnUse" x="228" y="-52" width="824" height="824">
<path d="M1052 359.97C1052 587.489 867.586 772 639.973 772C412.399 772 228 587.596 228 359.97C228 132.413 412.399 -52 639.973 -52C867.586 -52 1052 132.413 1052 359.97Z" fill="#F7B28B"/>
</mask>
<g mask="url(#mask0_410_4475)">
<path d="M1052 359.97C1052 587.489 867.586 772 639.973 772C412.399 772 228 587.596 228 359.97C228 132.413 412.399 -52 639.973 -52C867.586 -52 1052 132.413 1052 359.97Z" fill="#6DB1ED"/>
<rect x="640" y="-71" width="453" height="862" fill="#FDC147"/>
</g>
<circle cx="1002.5" cy="527.5" r="101.5" fill="#FDC147"/>
<circle cx="282.5" cy="527.5" r="101.5" fill="#6DB1ED"/>
<path d="M462 299.649L527.093 299.002L527.1 296.001L462.004 296.652L462 299.649ZM525.585 301.995L534.595 297.524L525.608 293L525.585 301.995Z" fill="#1A3567"/>
<path d="M821.595 297.649L756.502 297.002L756.495 294.001L821.591 294.652L821.595 297.649ZM758.01 299.995L749 295.524L757.988 291L758.01 299.995Z" fill="#1A3567"/>
<path d="M731.339 557.971C731.336 568.579 735.473 578.754 742.843 586.26C750.213 593.766 760.211 597.989 770.641 598C781.073 597.974 791.07 593.749 798.445 586.247C805.821 578.746 809.976 568.579 810 557.971C809.968 547.371 805.809 537.215 798.433 529.724C791.058 522.234 781.065 518.018 770.641 518C760.223 518.018 750.237 522.236 742.871 529.728C735.504 537.22 731.358 547.376 731.339 557.971ZM470.003 557.971C470.01 568.585 474.159 578.762 481.538 586.267C488.917 593.772 498.923 597.992 509.359 598C519.783 597.967 529.77 593.737 537.136 586.236C544.502 578.735 548.646 568.572 548.664 557.971C548.645 547.375 544.499 537.219 537.131 529.727C529.764 522.234 519.777 518.018 509.359 518C498.935 518.018 488.942 522.234 481.567 529.724C474.191 537.215 470.032 547.371 470 557.971" fill="black"/>
<path d="M642 653C633.778 653 625.893 649.787 620.08 644.067C614.266 638.347 611 630.589 611 622.5C611 614.411 614.266 606.653 620.08 600.933C625.893 595.213 633.778 592 642 592" stroke="black" stroke-width="7" stroke-miterlimit="10"/>
<path d="M314.082 404.21C312.102 404.21 310.282 403.75 308.622 402.83C306.982 401.91 305.672 400.63 304.692 398.99C303.732 397.33 303.252 395.47 303.252 393.41C303.252 391.35 303.732 389.5 304.692 387.86C305.672 386.22 306.982 384.94 308.622 384.02C310.282 383.1 312.102 382.64 314.082 382.64C316.062 382.64 317.872 383.1 319.512 384.02C321.172 384.94 322.472 386.22 323.412 387.86C324.372 389.5 324.852 391.35 324.852 393.41C324.852 395.47 324.372 397.33 323.412 398.99C322.452 400.63 321.152 401.91 319.512 402.83C317.872 403.75 316.062 404.21 314.082 404.21ZM314.082 399.53C315.762 399.53 317.102 398.97 318.102 397.85C319.122 396.73 319.632 395.25 319.632 393.41C319.632 391.55 319.122 390.07 318.102 388.97C317.102 387.85 315.762 387.29 314.082 387.29C312.382 387.29 311.022 387.84 310.002 388.94C309.002 390.04 308.502 391.53 308.502 393.41C308.502 395.27 309.002 396.76 310.002 397.88C311.022 398.98 312.382 399.53 314.082 399.53ZM344.806 387.26L334.306 411.95H328.786L332.626 403.43L325.816 387.26H331.546L335.416 397.73L339.256 387.26H344.806ZM362.441 395.36C362.441 395.84 362.411 396.34 362.351 396.86H350.741C350.821 397.9 351.151 398.7 351.731 399.26C352.331 399.8 353.061 400.07 353.921 400.07C355.201 400.07 356.091 399.53 356.591 398.45H362.051C361.771 399.55 361.261 400.54 360.521 401.42C359.801 402.3 358.891 402.99 357.791 403.49C356.691 403.99 355.461 404.24 354.101 404.24C352.461 404.24 351.001 403.89 349.721 403.19C348.441 402.49 347.441 401.49 346.721 400.19C346.001 398.89 345.641 397.37 345.641 395.63C345.641 393.89 345.991 392.37 346.691 391.07C347.411 389.77 348.411 388.77 349.691 388.07C350.971 387.37 352.441 387.02 354.101 387.02C355.721 387.02 357.161 387.36 358.421 388.04C359.681 388.72 360.661 389.69 361.361 390.95C362.081 392.21 362.441 393.68 362.441 395.36ZM357.191 394.01C357.191 393.13 356.891 392.43 356.291 391.91C355.691 391.39 354.941 391.13 354.041 391.13C353.181 391.13 352.451 391.38 351.851 391.88C351.271 392.38 350.911 393.09 350.771 394.01H357.191ZM375.347 387.08C377.307 387.08 378.867 387.72 380.027 389C381.207 390.26 381.797 392 381.797 394.22V404H376.697V394.91C376.697 393.79 376.407 392.92 375.827 392.3C375.247 391.68 374.467 391.37 373.487 391.37C372.507 391.37 371.727 391.68 371.147 392.3C370.567 392.92 370.277 393.79 370.277 394.91V404H365.147V387.26H370.277V389.48C370.797 388.74 371.497 388.16 372.377 387.74C373.257 387.3 374.247 387.08 375.347 387.08ZM394.692 399.65V404H392.082C390.222 404 388.772 403.55 387.732 402.65C386.692 401.73 386.172 400.24 386.172 398.18V391.52H384.132V387.26H386.172V383.18H391.302V387.26H394.662V391.52H391.302V398.24C391.302 398.74 391.422 399.1 391.662 399.32C391.902 399.54 392.302 399.65 392.862 399.65H394.692ZM413.329 395.36C413.329 395.84 413.299 396.34 413.239 396.86H401.629C401.709 397.9 402.039 398.7 402.619 399.26C403.219 399.8 403.949 400.07 404.809 400.07C406.089 400.07 406.979 399.53 407.479 398.45H412.939C412.659 399.55 412.149 400.54 411.409 401.42C410.689 402.3 409.779 402.99 408.679 403.49C407.579 403.99 406.349 404.24 404.989 404.24C403.349 404.24 401.889 403.89 400.609 403.19C399.329 402.49 398.329 401.49 397.609 400.19C396.889 398.89 396.529 397.37 396.529 395.63C396.529 393.89 396.879 392.37 397.579 391.07C398.299 389.77 399.299 388.77 400.579 388.07C401.859 387.37 403.329 387.02 404.989 387.02C406.609 387.02 408.049 387.36 409.309 388.04C410.569 388.72 411.549 389.69 412.249 390.95C412.969 392.21 413.329 393.68 413.329 395.36ZM408.079 394.01C408.079 393.13 407.779 392.43 407.179 391.91C406.579 391.39 405.829 391.13 404.929 391.13C404.069 391.13 403.339 391.38 402.739 391.88C402.159 392.38 401.799 393.09 401.659 394.01H408.079ZM421.373 395.6C421.373 393.88 421.693 392.37 422.333 391.07C422.993 389.77 423.883 388.77 425.003 388.07C426.123 387.37 427.373 387.02 428.753 387.02C429.853 387.02 430.853 387.25 431.753 387.71C432.673 388.17 433.393 388.79 433.913 389.57V381.8H439.043V404H433.913V401.6C433.433 402.4 432.743 403.04 431.843 403.52C430.963 404 429.933 404.24 428.753 404.24C427.373 404.24 426.123 403.89 425.003 403.19C423.883 402.47 422.993 401.46 422.333 400.16C421.693 398.84 421.373 397.32 421.373 395.6ZM433.913 395.63C433.913 394.35 433.553 393.34 432.833 392.6C432.133 391.86 431.273 391.49 430.253 391.49C429.233 391.49 428.363 391.86 427.643 392.6C426.943 393.32 426.593 394.32 426.593 395.6C426.593 396.88 426.943 397.9 427.643 398.66C428.363 399.4 429.233 399.77 430.253 399.77C431.273 399.77 432.133 399.4 432.833 398.66C433.553 397.92 433.913 396.91 433.913 395.63ZM458.535 395.36C458.535 395.84 458.505 396.34 458.445 396.86H446.835C446.915 397.9 447.245 398.7 447.825 399.26C448.425 399.8 449.155 400.07 450.015 400.07C451.295 400.07 452.185 399.53 452.685 398.45H458.145C457.865 399.55 457.355 400.54 456.615 401.42C455.895 402.3 454.985 402.99 453.885 403.49C452.785 403.99 451.555 404.24 450.195 404.24C448.555 404.24 447.095 403.89 445.815 403.19C444.535 402.49 443.535 401.49 442.815 400.19C442.095 398.89 441.735 397.37 441.735 395.63C441.735 393.89 442.085 392.37 442.785 391.07C443.505 389.77 444.505 388.77 445.785 388.07C447.065 387.37 448.535 387.02 450.195 387.02C451.815 387.02 453.255 387.36 454.515 388.04C455.775 388.72 456.755 389.69 457.455 390.95C458.175 392.21 458.535 393.68 458.535 395.36ZM453.285 394.01C453.285 393.13 452.985 392.43 452.385 391.91C451.785 391.39 451.035 391.13 450.135 391.13C449.275 391.13 448.545 391.38 447.945 391.88C447.365 392.38 447.005 393.09 446.865 394.01H453.285ZM339.648 433.36C339.648 433.84 339.618 434.34 339.558 434.86H327.948C328.028 435.9 328.358 436.7 328.938 437.26C329.538 437.8 330.268 438.07 331.128 438.07C332.408 438.07 333.298 437.53 333.798 436.45H339.258C338.978 437.55 338.468 438.54 337.728 439.42C337.008 440.3 336.098 440.99 334.998 441.49C333.898 441.99 332.668 442.24 331.308 442.24C329.668 442.24 328.208 441.89 326.928 441.19C325.648 440.49 324.648 439.49 323.928 438.19C323.208 436.89 322.848 435.37 322.848 433.63C322.848 431.89 323.198 430.37 323.898 429.07C324.618 427.77 325.618 426.77 326.898 426.07C328.178 425.37 329.648 425.02 331.308 425.02C332.928 425.02 334.368 425.36 335.628 426.04C336.888 426.72 337.868 427.69 338.568 428.95C339.288 430.21 339.648 431.68 339.648 433.36ZM334.398 432.01C334.398 431.13 334.098 430.43 333.498 429.91C332.898 429.39 332.148 429.13 331.248 429.13C330.388 429.13 329.658 429.38 329.058 429.88C328.478 430.38 328.118 431.09 327.978 432.01H334.398ZM349.884 437.2L353.514 425.26H358.974L353.034 442H346.704L340.764 425.26H346.254L349.884 437.2ZM376.913 433.36C376.913 433.84 376.883 434.34 376.823 434.86H365.213C365.293 435.9 365.623 436.7 366.203 437.26C366.803 437.8 367.533 438.07 368.393 438.07C369.673 438.07 370.563 437.53 371.063 436.45H376.523C376.243 437.55 375.733 438.54 374.993 439.42C374.273 440.3 373.363 440.99 372.263 441.49C371.163 441.99 369.933 442.24 368.573 442.24C366.933 442.24 365.473 441.89 364.193 441.19C362.913 440.49 361.913 439.49 361.193 438.19C360.473 436.89 360.113 435.37 360.113 433.63C360.113 431.89 360.463 430.37 361.163 429.07C361.883 427.77 362.883 426.77 364.163 426.07C365.443 425.37 366.913 425.02 368.573 425.02C370.193 425.02 371.633 425.36 372.893 426.04C374.153 426.72 375.133 427.69 375.833 428.95C376.553 430.21 376.913 431.68 376.913 433.36ZM371.663 432.01C371.663 431.13 371.363 430.43 370.763 429.91C370.163 429.39 369.413 429.13 368.513 429.13C367.653 429.13 366.923 429.38 366.323 429.88C365.743 430.38 365.383 431.09 365.243 432.01H371.663ZM389.82 425.08C391.78 425.08 393.34 425.72 394.5 427C395.68 428.26 396.27 430 396.27 432.22V442H391.17V432.91C391.17 431.79 390.88 430.92 390.3 430.3C389.72 429.68 388.94 429.37 387.96 429.37C386.98 429.37 386.2 429.68 385.62 430.3C385.04 430.92 384.75 431.79 384.75 432.91V442H379.62V425.26H384.75V427.48C385.27 426.74 385.97 426.16 386.85 425.74C387.73 425.3 388.72 425.08 389.82 425.08ZM409.165 437.65V442H406.555C404.695 442 403.245 441.55 402.205 440.65C401.165 439.73 400.645 438.24 400.645 436.18V429.52H398.605V425.26H400.645V421.18H405.775V425.26H409.135V429.52H405.775V436.24C405.775 436.74 405.895 437.1 406.135 437.32C406.375 437.54 406.775 437.65 407.335 437.65H409.165ZM419.642 442.24C418.002 442.24 416.522 441.89 415.202 441.19C413.902 440.49 412.872 439.49 412.112 438.19C411.372 436.89 411.002 435.37 411.002 433.63C411.002 431.91 411.382 430.4 412.142 429.1C412.902 427.78 413.942 426.77 415.262 426.07C416.582 425.37 418.062 425.02 419.702 425.02C421.342 425.02 422.822 425.37 424.142 426.07C425.462 426.77 426.502 427.78 427.262 429.1C428.022 430.4 428.402 431.91 428.402 433.63C428.402 435.35 428.012 436.87 427.232 438.19C426.472 439.49 425.422 440.49 424.082 441.19C422.762 441.89 421.282 442.24 419.642 442.24ZM419.642 437.8C420.622 437.8 421.452 437.44 422.132 436.72C422.832 436 423.182 434.97 423.182 433.63C423.182 432.29 422.842 431.26 422.162 430.54C421.502 429.82 420.682 429.46 419.702 429.46C418.702 429.46 417.872 429.82 417.212 430.54C416.552 431.24 416.222 432.27 416.222 433.63C416.222 434.97 416.542 436 417.182 436.72C417.842 437.44 418.662 437.8 419.642 437.8ZM437.934 442.24C436.474 442.24 435.174 441.99 434.034 441.49C432.894 440.99 431.994 440.31 431.334 439.45C430.674 438.57 430.304 437.59 430.224 436.51H435.294C435.354 437.09 435.624 437.56 436.104 437.92C436.584 438.28 437.174 438.46 437.874 438.46C438.514 438.46 439.004 438.34 439.344 438.1C439.704 437.84 439.884 437.51 439.884 437.11C439.884 436.63 439.634 436.28 439.134 436.06C438.634 435.82 437.824 435.56 436.704 435.28C435.504 435 434.504 434.71 433.704 434.41C432.904 434.09 432.214 433.6 431.634 432.94C431.054 432.26 430.764 431.35 430.764 430.21C430.764 429.25 431.024 428.38 431.544 427.6C432.084 426.8 432.864 426.17 433.884 425.71C434.924 425.25 436.154 425.02 437.574 425.02C439.674 425.02 441.324 425.54 442.524 426.58C443.744 427.62 444.444 429 444.624 430.72H439.884C439.804 430.14 439.544 429.68 439.104 429.34C438.684 429 438.124 428.83 437.424 428.83C436.824 428.83 436.364 428.95 436.044 429.19C435.724 429.41 435.564 429.72 435.564 430.12C435.564 430.6 435.814 430.96 436.314 431.2C436.834 431.44 437.634 431.68 438.714 431.92C439.954 432.24 440.964 432.56 441.744 432.88C442.524 433.18 443.204 433.68 443.784 434.38C444.384 435.06 444.694 435.98 444.714 437.14C444.714 438.12 444.434 439 443.874 439.78C443.334 440.54 442.544 441.14 441.504 441.58C440.484 442.02 439.294 442.24 437.934 442.24Z" fill="#1E5C93"/>
<path d="M831.156 400.28H823.296L822.036 404H816.666L824.286 382.94H830.226L837.846 404H832.416L831.156 400.28ZM829.836 396.32L827.226 388.61L824.646 396.32H829.836ZM850.365 387.08C852.325 387.08 853.885 387.72 855.045 389C856.225 390.26 856.815 392 856.815 394.22V404H851.715V394.91C851.715 393.79 851.425 392.92 850.845 392.3C850.265 391.68 849.485 391.37 848.505 391.37C847.525 391.37 846.745 391.68 846.165 392.3C845.585 392.92 845.295 393.79 845.295 394.91V404H840.165V387.26H845.295V389.48C845.815 388.74 846.515 388.16 847.395 387.74C848.275 387.3 849.265 387.08 850.365 387.08ZM862.96 385.52C862.06 385.52 861.32 385.26 860.74 384.74C860.18 384.2 859.9 383.54 859.9 382.76C859.9 381.96 860.18 381.3 860.74 380.78C861.32 380.24 862.06 379.97 862.96 379.97C863.84 379.97 864.56 380.24 865.12 380.78C865.7 381.3 865.99 381.96 865.99 382.76C865.99 383.54 865.7 384.2 865.12 384.74C864.56 385.26 863.84 385.52 862.96 385.52ZM865.51 387.26V404H860.38V387.26H865.51ZM890.587 387.08C892.667 387.08 894.317 387.71 895.537 388.97C896.777 390.23 897.397 391.98 897.397 394.22V404H892.297V394.91C892.297 393.83 892.007 393 891.427 392.42C890.867 391.82 890.087 391.52 889.087 391.52C888.087 391.52 887.297 391.82 886.717 392.42C886.157 393 885.877 393.83 885.877 394.91V404H880.777V394.91C880.777 393.83 880.487 393 879.907 392.42C879.347 391.82 878.567 391.52 877.567 391.52C876.567 391.52 875.777 391.82 875.197 392.42C874.637 393 874.357 393.83 874.357 394.91V404H869.227V387.26H874.357V389.36C874.877 388.66 875.557 388.11 876.397 387.71C877.237 387.29 878.187 387.08 879.247 387.08C880.507 387.08 881.627 387.35 882.607 387.89C883.607 388.43 884.387 389.2 884.947 390.2C885.527 389.28 886.317 388.53 887.317 387.95C888.317 387.37 889.407 387.08 890.587 387.08ZM899.965 395.6C899.965 393.88 900.285 392.37 900.925 391.07C901.585 389.77 902.475 388.77 903.595 388.07C904.715 387.37 905.965 387.02 907.345 387.02C908.525 387.02 909.555 387.26 910.435 387.74C911.335 388.22 912.025 388.85 912.505 389.63V387.26H917.635V404H912.505V401.63C912.005 402.41 911.305 403.04 910.405 403.52C909.525 404 908.495 404.24 907.315 404.24C905.955 404.24 904.715 403.89 903.595 403.19C902.475 402.47 901.585 401.46 900.925 400.16C900.285 398.84 899.965 397.32 899.965 395.6ZM912.505 395.63C912.505 394.35 912.145 393.34 911.425 392.6C910.725 391.86 909.865 391.49 908.845 391.49C907.825 391.49 906.955 391.86 906.235 392.6C905.535 393.32 905.185 394.32 905.185 395.6C905.185 396.88 905.535 397.9 906.235 398.66C906.955 399.4 907.825 399.77 908.845 399.77C909.865 399.77 910.725 399.4 911.425 398.66C912.145 397.92 912.505 396.91 912.505 395.63ZM920.326 395.63C920.326 393.89 920.676 392.37 921.376 391.07C922.096 389.77 923.086 388.77 924.346 388.07C925.626 387.37 927.086 387.02 928.726 387.02C930.826 387.02 932.576 387.57 933.976 388.67C935.396 389.77 936.326 391.32 936.766 393.32H931.306C930.846 392.04 929.956 391.4 928.636 391.4C927.696 391.4 926.946 391.77 926.386 392.51C925.826 393.23 925.546 394.27 925.546 395.63C925.546 396.99 925.826 398.04 926.386 398.78C926.946 399.5 927.696 399.86 928.636 399.86C929.956 399.86 930.846 399.22 931.306 397.94H936.766C936.326 399.9 935.396 401.44 933.976 402.56C932.556 403.68 930.806 404.24 928.726 404.24C927.086 404.24 925.626 403.89 924.346 403.19C923.086 402.49 922.096 401.49 921.376 400.19C920.676 398.89 920.326 397.37 920.326 395.63ZM942.09 385.52C941.19 385.52 940.45 385.26 939.87 384.74C939.31 384.2 939.03 383.54 939.03 382.76C939.03 381.96 939.31 381.3 939.87 380.78C940.45 380.24 941.19 379.97 942.09 379.97C942.97 379.97 943.69 380.24 944.25 380.78C944.83 381.3 945.12 381.96 945.12 382.76C945.12 383.54 944.83 384.2 944.25 384.74C943.69 385.26 942.97 385.52 942.09 385.52ZM944.64 387.26V404H939.51V387.26H944.64ZM955.978 404.24C954.338 404.24 952.858 403.89 951.538 403.19C950.238 402.49 949.208 401.49 948.448 400.19C947.708 398.89 947.338 397.37 947.338 395.63C947.338 393.91 947.718 392.4 948.478 391.1C949.238 389.78 950.278 388.77 951.598 388.07C952.918 387.37 954.398 387.02 956.038 387.02C957.678 387.02 959.158 387.37 960.478 388.07C961.798 388.77 962.838 389.78 963.598 391.1C964.358 392.4 964.738 393.91 964.738 395.63C964.738 397.35 964.348 398.87 963.568 400.19C962.808 401.49 961.758 402.49 960.418 403.19C959.098 403.89 957.618 404.24 955.978 404.24ZM955.978 399.8C956.958 399.8 957.788 399.44 958.468 398.72C959.168 398 959.518 396.97 959.518 395.63C959.518 394.29 959.178 393.26 958.498 392.54C957.838 391.82 957.018 391.46 956.038 391.46C955.038 391.46 954.208 391.82 953.548 392.54C952.888 393.24 952.558 394.27 952.558 395.63C952.558 396.97 952.878 398 953.518 398.72C954.178 399.44 954.998 399.8 955.978 399.8ZM959.938 382.97L952.708 386V382.46L959.938 378.98V382.97ZM977.66 387.08C979.62 387.08 981.18 387.72 982.34 389C983.52 390.26 984.11 392 984.11 394.22V404H979.01V394.91C979.01 393.79 978.72 392.92 978.14 392.3C977.56 391.68 976.78 391.37 975.8 391.37C974.82 391.37 974.04 391.68 973.46 392.3C972.88 392.92 972.59 393.79 972.59 394.91V404H967.46V387.26H972.59V389.48C973.11 388.74 973.81 388.16 974.69 387.74C975.57 387.3 976.56 387.08 977.66 387.08Z" fill="#1E5C93"/>
<path d="M393.502 266.991C395.226 266.991 396.88 267.676 398.099 268.894C399.318 270.113 400.002 271.766 400.002 273.49C400.002 275.213 400.687 276.866 401.906 278.085C403.125 279.303 404.778 279.988 406.502 279.988C408.226 279.988 409.879 279.303 411.098 278.085C412.317 276.866 413.002 275.213 413.002 273.49C413.002 270.244 412.191 267.05 410.644 264.198C409.097 261.345 406.862 258.923 404.141 257.153C401.421 255.382 398.302 254.318 395.067 254.058C391.831 253.798 388.582 254.349 385.613 255.662C382.645 256.975 380.051 259.008 378.068 261.577C376.084 264.146 374.773 267.169 374.254 270.372C373.735 273.576 374.024 276.858 375.095 279.922C376.165 282.985 377.984 285.733 380.386 287.916C380.451 287.981 381.439 289.021 381.647 289.32C382.38 290.391 382.773 291.658 382.773 292.956C382.773 294.254 382.38 295.521 381.647 296.592C381.121 297.293 380.742 298.093 380.534 298.945C380.325 299.796 380.291 300.681 380.433 301.546C380.576 302.411 380.892 303.238 381.362 303.978C381.833 304.718 382.448 305.355 383.171 305.85C383.894 306.346 384.71 306.69 385.57 306.863C386.43 307.035 387.315 307.031 388.174 306.852C389.032 306.673 389.845 306.323 390.564 305.821C391.283 305.32 391.894 304.678 392.359 303.935C394.59 300.696 395.782 296.854 395.776 292.921C395.77 288.988 394.567 285.15 392.326 281.918C391.329 280.656 390.266 279.448 389.141 278.298C388.748 277.95 388.399 277.555 388.101 277.122C387.441 276.144 387.06 275.004 386.999 273.826C386.938 272.647 387.2 271.474 387.755 270.433C388.31 269.391 389.138 268.521 390.151 267.914C391.164 267.308 392.322 266.989 393.502 266.991ZM393.502 228C386.523 227.999 379.637 229.604 373.377 232.69C367.117 235.776 361.652 240.261 357.403 245.796C353.154 251.332 350.236 257.771 348.874 264.615C347.513 271.459 347.744 278.525 349.551 285.265C349.997 286.93 351.087 288.349 352.58 289.211C354.073 290.072 355.848 290.306 357.513 289.859C359.178 289.413 360.598 288.323 361.46 286.83C362.322 285.338 362.555 283.563 362.108 281.899C360.913 277.431 360.684 272.76 361.439 268.198C362.193 263.636 363.913 259.287 366.483 255.442C369.054 251.597 372.415 248.345 376.343 245.904C380.271 243.462 384.675 241.887 389.261 241.283C393.847 240.68 398.509 241.062 402.935 242.404C407.361 243.746 411.45 246.017 414.928 249.066C418.406 252.115 421.192 255.871 423.102 260.082C425.012 264.294 426 268.865 426.002 273.49C425.978 279.358 424.397 285.114 421.419 290.171L398.247 338.475C397.108 340.448 395.469 342.088 393.495 343.228C391.521 344.369 389.282 344.971 387.003 344.973C383.569 344.928 380.289 343.544 377.861 341.116C375.433 338.688 374.049 335.409 374.003 331.976C374.006 329.696 374.609 327.457 375.752 325.484C376.615 323.991 376.85 322.215 376.405 320.549C375.959 318.882 374.87 317.461 373.376 316.597C371.882 315.734 370.106 315.499 368.44 315.944C366.773 316.39 365.351 317.479 364.487 318.973C362.762 321.946 361.644 325.232 361.198 328.641C360.752 332.049 360.987 335.513 361.889 338.83C362.791 342.147 364.342 345.252 366.452 347.966C368.563 350.68 371.191 352.948 374.185 354.638C377.179 356.329 380.478 357.41 383.892 357.817C387.306 358.224 390.767 357.95 394.074 357.011C397.382 356.071 400.47 354.485 403.16 352.344C405.85 350.203 408.088 347.55 409.746 344.538L432.904 296.234C436.898 289.319 439 281.475 439 273.49C439 265.505 436.898 257.661 432.905 250.745C428.911 243.83 423.168 238.087 416.251 234.095C409.335 230.102 401.489 228 393.502 228Z" fill="#1E5C93"/>
<rect x="520" y="228" width="239" height="133" fill="#1E5C93"/>
<path d="M568.602 302.6L573.442 286.68H580.722L572.802 309H564.362L556.442 286.68H563.762L568.602 302.6ZM582.241 297.8C582.241 295.507 582.668 293.493 583.521 291.76C584.401 290.027 585.588 288.693 587.081 287.76C588.574 286.827 590.241 286.36 592.081 286.36C593.654 286.36 595.028 286.68 596.201 287.32C597.401 287.96 598.321 288.8 598.961 289.84V286.68H605.801V309H598.961V305.84C598.294 306.88 597.361 307.72 596.161 308.36C594.988 309 593.614 309.32 592.041 309.32C590.228 309.32 588.574 308.853 587.081 307.92C585.588 306.96 584.401 305.613 583.521 303.88C582.668 302.12 582.241 300.093 582.241 297.8ZM598.961 297.84C598.961 296.133 598.481 294.787 597.521 293.8C596.588 292.813 595.441 292.32 594.081 292.32C592.721 292.32 591.561 292.813 590.601 293.8C589.668 294.76 589.201 296.093 589.201 297.8C589.201 299.507 589.668 300.867 590.601 301.88C591.561 302.867 592.721 303.36 594.081 303.36C595.441 303.36 596.588 302.867 597.521 301.88C598.481 300.893 598.961 299.547 598.961 297.84ZM617.59 290.4C618.39 289.173 619.39 288.213 620.59 287.52C621.79 286.8 623.123 286.44 624.59 286.44V293.68H622.71C621.003 293.68 619.723 294.053 618.87 294.8C618.016 295.52 617.59 296.8 617.59 298.64V309H610.75V286.68H617.59V290.4ZM631.299 284.36C630.099 284.36 629.112 284.013 628.339 283.32C627.592 282.6 627.219 281.72 627.219 280.68C627.219 279.613 627.592 278.733 628.339 278.04C629.112 277.32 630.099 276.96 631.299 276.96C632.472 276.96 633.432 277.32 634.179 278.04C634.952 278.733 635.339 279.613 635.339 280.68C635.339 281.72 634.952 282.6 634.179 283.32C633.432 284.013 632.472 284.36 631.299 284.36ZM634.699 286.68V309H627.859V286.68H634.699ZM638.296 297.8C638.296 295.507 638.722 293.493 639.576 291.76C640.456 290.027 641.642 288.693 643.136 287.76C644.629 286.827 646.296 286.36 648.136 286.36C649.709 286.36 651.082 286.68 652.256 287.32C653.456 287.96 654.376 288.8 655.016 289.84V286.68H661.856V309H655.016V305.84C654.349 306.88 653.416 307.72 652.216 308.36C651.042 309 649.669 309.32 648.096 309.32C646.282 309.32 644.629 308.853 643.136 307.92C641.642 306.96 640.456 305.613 639.576 303.88C638.722 302.12 638.296 300.093 638.296 297.8ZM655.016 297.84C655.016 296.133 654.536 294.787 653.576 293.8C652.642 292.813 651.496 292.32 650.136 292.32C648.776 292.32 647.616 292.813 646.656 293.8C645.722 294.76 645.256 296.093 645.256 297.8C645.256 299.507 645.722 300.867 646.656 301.88C647.616 302.867 648.776 303.36 650.136 303.36C651.496 303.36 652.642 302.867 653.576 301.88C654.536 300.893 655.016 299.547 655.016 297.84ZM673.644 289.84C674.284 288.8 675.204 287.96 676.404 287.32C677.604 286.68 678.978 286.36 680.524 286.36C682.364 286.36 684.031 286.827 685.524 287.76C687.018 288.693 688.191 290.027 689.044 291.76C689.924 293.493 690.364 295.507 690.364 297.8C690.364 300.093 689.924 302.12 689.044 303.88C688.191 305.613 687.018 306.96 685.524 307.92C684.031 308.853 682.364 309.32 680.524 309.32C678.951 309.32 677.578 309.013 676.404 308.4C675.231 307.76 674.311 306.92 673.644 305.88V309H666.804V279.4H673.644V289.84ZM683.404 297.8C683.404 296.093 682.924 294.76 681.964 293.8C681.031 292.813 679.871 292.32 678.484 292.32C677.124 292.32 675.964 292.813 675.004 293.8C674.071 294.787 673.604 296.133 673.604 297.84C673.604 299.547 674.071 300.893 675.004 301.88C675.964 302.867 677.124 303.36 678.484 303.36C679.844 303.36 681.004 302.867 681.964 301.88C682.924 300.867 683.404 299.507 683.404 297.8ZM700.793 279.4V309H693.953V279.4H700.793ZM726.79 297.48C726.79 298.12 726.75 298.787 726.67 299.48H711.19C711.296 300.867 711.736 301.933 712.51 302.68C713.31 303.4 714.283 303.76 715.43 303.76C717.136 303.76 718.323 303.04 718.99 301.6H726.27C725.896 303.067 725.216 304.387 724.23 305.56C723.27 306.733 722.056 307.653 720.59 308.32C719.123 308.987 717.483 309.32 715.67 309.32C713.483 309.32 711.536 308.853 709.83 307.92C708.123 306.987 706.79 305.653 705.83 303.92C704.87 302.187 704.39 300.16 704.39 297.84C704.39 295.52 704.856 293.493 705.79 291.76C706.75 290.027 708.083 288.693 709.79 287.76C711.496 286.827 713.456 286.36 715.67 286.36C717.83 286.36 719.75 286.813 721.43 287.72C723.11 288.627 724.416 289.92 725.35 291.6C726.31 293.28 726.79 295.24 726.79 297.48ZM719.79 295.68C719.79 294.507 719.39 293.573 718.59 292.88C717.79 292.187 716.79 291.84 715.59 291.84C714.443 291.84 713.47 292.173 712.67 292.84C711.896 293.507 711.416 294.453 711.23 295.68H719.79Z" fill="white"/>
<path d="M901 244C889.529 244 878.315 247.402 868.777 253.775C859.239 260.148 851.805 269.206 847.415 279.804C843.025 290.402 841.877 302.064 844.114 313.315C846.352 324.566 851.876 334.901 859.988 343.012C868.099 351.124 878.434 356.648 889.685 358.886C900.936 361.123 912.598 359.975 923.196 355.585C933.794 351.195 942.852 343.761 949.225 334.223C955.598 324.685 959 313.471 959 302C959 294.383 957.5 286.841 954.585 279.804C951.67 272.767 947.398 266.374 942.012 260.988C936.626 255.602 930.233 251.33 923.196 248.415C916.159 245.5 908.617 244 901 244ZM889.4 328.1V275.9L924.2 302L889.4 328.1Z" fill="#1E5C93"/>
</g>
<defs>
<clipPath id="clip0_410_4475">
<rect width="1280" height="720" fill="white"/>
</clipPath>
</defs>
</svg>
