<svg width="1280" height="720" viewBox="0 0 1280 720" fill="none" xmlns="http://www.w3.org/2000/svg">
<rect width="1280" height="720" fill="#ECFAFF"/>
<rect x="462" y="63" width="350" height="533" fill="url(#paint0_linear_410_4479)"/>
<path d="M784 39C817.137 39 844 65.8629 844 99V620C844 653.137 817.137 680 784 680H495C461.863 680 435 653.137 435 620V99C435 65.8629 461.863 39 495 39H784ZM553 610C542.507 610 534 618.507 534 629C534 639.493 542.507 648 553 648H727C737.493 648 746 639.493 746 629C746 618.507 737.493 610 727 610H553ZM515 83C496.222 83 481 98.2223 481 117V547C481 565.778 496.222 581 515 581H765C783.778 581 799 565.778 799 547V117C799 98.2223 783.778 83 765 83H515Z" fill="#1A3567"/>
<path d="M618.766 145.256C615.77 145.28 612.905 146.478 610.803 148.587C608.701 150.697 607.534 153.544 607.557 156.503C607.596 161.3 610.788 165.909 615.147 167.462C615.711 167.663 616.332 167.634 616.875 167.382C617.417 167.13 617.836 166.676 618.04 166.119C618.243 165.562 618.214 164.948 617.959 164.412C617.704 163.877 617.244 163.463 616.68 163.262C614.123 162.353 612.1 159.368 612.076 156.467C612.062 154.691 612.763 152.983 614.024 151.718C615.285 150.452 617.004 149.733 618.801 149.719C620.599 149.704 622.329 150.396 623.61 151.641C624.891 152.886 625.619 154.583 625.633 156.359L625.966 198.011C625.97 198.603 626.213 199.169 626.64 199.584C627.067 199.999 627.644 200.229 628.243 200.224C628.842 200.22 629.415 199.98 629.835 199.558C630.256 199.136 630.489 198.567 630.485 197.975L630.152 156.323C630.129 153.364 628.916 150.535 626.78 148.46C624.645 146.385 621.762 145.232 618.766 145.256ZM661.038 156.82C664.034 156.796 666.917 157.949 669.052 160.024C671.188 162.1 672.401 164.928 672.424 167.887C672.462 172.684 669.344 177.343 665.011 178.966C664.45 179.176 663.828 179.157 663.282 178.914C662.735 178.67 662.309 178.223 662.097 177.669C661.884 177.115 661.904 176.501 662.15 175.961C662.397 175.422 662.85 175.001 663.411 174.791C665.953 173.841 667.928 170.824 667.905 167.923C667.891 166.148 667.163 164.451 665.882 163.205C664.601 161.96 662.871 161.269 661.073 161.283C659.276 161.297 657.557 162.016 656.296 163.282C655.035 164.547 654.334 166.256 654.348 168.031L654.633 203.733C654.638 204.325 654.404 204.894 653.984 205.316C653.564 205.738 652.991 205.978 652.391 205.983C651.792 205.987 651.216 205.757 650.789 205.342C650.361 204.927 650.119 204.361 650.114 203.769L649.829 168.067C649.806 165.108 650.973 162.261 653.075 160.152C655.177 158.042 658.042 156.844 661.038 156.82ZM660.113 135.256C660.151 140.054 657.032 144.713 652.699 146.335C652.421 146.439 652.126 146.488 651.829 146.479C651.532 146.47 651.24 146.403 650.97 146.283C650.699 146.162 650.455 145.99 650.252 145.777C650.049 145.563 649.89 145.312 649.785 145.038C649.68 144.764 649.631 144.472 649.64 144.179C649.649 143.886 649.717 143.598 649.839 143.331C649.961 143.063 650.135 142.822 650.351 142.622C650.567 142.421 650.821 142.264 651.099 142.16C653.641 141.21 655.617 138.193 655.594 135.292C655.579 133.517 654.852 131.82 653.571 130.575C652.289 129.329 650.56 128.638 648.762 128.652C646.964 128.667 645.246 129.386 643.984 130.651C642.723 131.917 642.023 133.625 642.037 135.4L642.559 200.854C642.564 201.446 642.33 202.015 641.91 202.437C641.489 202.859 640.916 203.099 640.317 203.103C639.718 203.108 639.141 202.878 638.714 202.463C638.287 202.048 638.045 201.482 638.04 200.89L637.518 135.436C637.494 132.477 638.662 129.63 640.764 127.521C642.866 125.412 645.73 124.213 648.726 124.189C651.722 124.166 654.605 125.318 656.741 127.394C658.876 129.469 660.089 132.297 660.113 135.256Z" fill="#3E3E3E"/>
<path d="M636.706 226.922V239.523" stroke="black" stroke-width="4"/>
<path d="M598.902 255.523C598.902 246.687 606.065 239.523 614.902 239.523H656.409C665.246 239.523 672.409 246.687 672.409 255.523V346.634H598.902V255.523Z" fill="white"/>
<path d="M584.2 346.633H689.211C669.25 410.662 659.744 446.565 669.259 510.449H603.102C609.303 446.156 602.564 410.362 584.2 346.633Z" fill="#1A3567"/>
<path d="M668.782 385.674C675.639 386.017 682.372 387.5 688.597 390.039C694.821 392.577 700.414 396.12 705.058 400.467C709.702 404.814 713.304 409.879 715.66 415.372C718.016 420.866 719.079 426.681 718.789 432.485C718.498 438.289 716.86 443.969 713.967 449.2C711.075 454.431 706.985 459.111 701.93 462.973C696.876 466.834 690.957 469.802 684.51 471.706C678.064 473.61 671.216 474.413 664.359 474.07" stroke="#1A3567" stroke-width="12"/>
<rect x="580" y="510.445" width="113.411" height="25.2024" fill="#1A3567"/>
<path d="M1018 512.457C1018 521.237 1010.93 528.356 1002.2 528.356C993.486 528.356 986.409 521.245 986.409 512.457C986.409 503.673 993.478 496.558 1002.2 496.558C1010.93 496.558 1018 503.673 1018 512.457Z" fill="#A184DC"/>
<path d="M957.191 435V515.315V435Z" fill="#A184DC"/>
<path d="M1015.21 435V515.315V435Z" fill="#A184DC"/>
<path d="M959.591 520.101C959.591 528.882 952.518 536 943.795 536C935.076 536 928 528.89 928 520.101C928 511.318 935.068 504.203 943.795 504.203C952.522 504.203 959.591 511.318 959.591 520.101Z" fill="#A184DC"/>
<path d="M957.191 435H1015.38V453.404H957.191L957.191 435Z" fill="#A184DC"/>
<path d="M957.191 435V515.315M957.191 435H1015.38V453.404H957.191L957.191 435ZM1015.21 435V515.315M1018 512.457C1018 521.237 1010.93 528.356 1002.2 528.356C993.486 528.356 986.409 521.245 986.409 512.457C986.409 503.673 993.478 496.558 1002.2 496.558C1010.93 496.558 1018 503.673 1018 512.457ZM959.591 520.101C959.591 528.882 952.518 536 943.795 536C935.076 536 928 528.89 928 520.101C928 511.318 935.068 504.203 943.795 504.203C952.522 504.203 959.591 511.318 959.591 520.101Z" stroke="#A184DC" stroke-width="5" stroke-miterlimit="10"/>
<path d="M345 230.953C345 238.43 338.95 244.491 331.486 244.491C324.027 244.491 317.972 238.436 317.972 230.953C317.972 223.474 324.02 217.416 331.486 217.416C338.955 217.416 345 223.474 345 230.953Z" fill="#A184DC"/>
<path d="M292.974 165V233.387V165Z" fill="#A184DC"/>
<path d="M342.616 165V233.387V165Z" fill="#A184DC"/>
<path d="M295.028 237.463C295.028 244.939 288.976 251 281.514 251C274.054 251 268 244.946 268 237.463C268 229.984 274.047 223.925 281.514 223.925C288.98 223.925 295.028 229.984 295.028 237.463Z" fill="#A184DC"/>
<path d="M292.974 165H342.755V180.671H292.975L292.974 165Z" fill="#A184DC"/>
<path d="M292.974 165V233.387M292.974 165H342.755V180.671H292.975L292.974 165ZM342.616 165V233.387M345 230.953C345 238.43 338.95 244.491 331.486 244.491C324.027 244.491 317.972 238.436 317.972 230.953C317.972 223.474 324.02 217.416 331.486 217.416C338.955 217.416 345 223.474 345 230.953ZM295.028 237.463C295.028 244.939 288.976 251 281.514 251C274.054 251 268 244.946 268 237.463C268 229.984 274.047 223.925 281.514 223.925C288.98 223.925 295.028 229.984 295.028 237.463Z" stroke="#A184DC" stroke-width="5" stroke-miterlimit="10"/>
<path d="M938 63V115.966V63Z" fill="#A184DC"/>
<path d="M938 116.519C938 122.308 933.3 127 927.501 127C921.7 127 917 122.308 917 116.519C917 110.73 921.7 106.038 927.501 106.038C933.3 106.038 938 110.73 938 116.519Z" fill="#A184DC"/>
<path d="M938 63V115.966M938 116.519C938 122.308 933.3 127 927.501 127C921.7 127 917 122.308 917 116.519C917 110.73 921.7 106.038 927.501 106.038C933.3 106.038 938 110.73 938 116.519Z" stroke="#A184DC" stroke-width="5"/>
<path d="M1068 265.543C1068 256.763 1075.07 249.644 1083.8 249.644C1092.51 249.644 1099.59 256.755 1099.59 265.543C1099.59 274.327 1092.52 281.442 1083.8 281.442C1075.07 281.442 1068 274.327 1068 265.543Z" fill="#A184DC"/>
<path d="M1128.81 343V262.685V343Z" fill="#A184DC"/>
<path d="M1070.79 343V262.685V343Z" fill="#A184DC"/>
<path d="M1126.41 257.899C1126.41 249.118 1133.48 242 1142.2 242C1150.92 242 1158 249.11 1158 257.899C1158 266.682 1150.93 273.797 1142.2 273.797C1133.48 273.797 1126.41 266.682 1126.41 257.899Z" fill="#A184DC"/>
<path d="M1128.81 343H1070.62V324.596H1128.81L1128.81 343Z" fill="#A184DC"/>
<path d="M1128.81 343V262.685M1128.81 343H1070.62V324.596H1128.81L1128.81 343ZM1070.79 343V262.685M1068 265.543C1068 256.763 1075.07 249.644 1083.8 249.644C1092.51 249.644 1099.59 256.755 1099.59 265.543C1099.59 274.327 1092.52 281.442 1083.8 281.442C1075.07 281.442 1068 274.327 1068 265.543ZM1126.41 257.899C1126.41 249.118 1133.48 242 1142.2 242C1150.92 242 1158 249.11 1158 257.899C1158 266.682 1150.93 273.797 1142.2 273.797C1133.48 273.797 1126.41 266.682 1126.41 257.899Z" stroke="#A184DC" stroke-width="5" stroke-miterlimit="10"/>
<path d="M291 536.953C291 544.43 284.95 550.491 277.486 550.491C270.027 550.491 263.972 544.436 263.972 536.953C263.972 529.474 270.02 523.416 277.486 523.416C284.955 523.416 291 529.474 291 536.953Z" fill="#A184DC"/>
<path d="M238.974 471V539.387V471Z" fill="#A184DC"/>
<path d="M288.616 471V539.387V471Z" fill="#A184DC"/>
<path d="M241.028 543.463C241.028 550.939 234.976 557 227.514 557C220.054 557 214 550.946 214 543.463C214 535.984 220.047 529.925 227.514 529.925C234.98 529.925 241.028 535.984 241.028 543.463Z" fill="#A184DC"/>
<path d="M238.974 471H288.755V486.671H238.975L238.974 471Z" fill="#A184DC"/>
<path d="M238.974 471V539.387M238.974 471H288.755V486.671H238.975L238.974 471ZM288.616 471V539.387M291 536.953C291 544.43 284.95 550.491 277.486 550.491C270.027 550.491 263.972 544.436 263.972 536.953C263.972 529.474 270.02 523.416 277.486 523.416C284.955 523.416 291 529.474 291 536.953ZM241.028 543.463C241.028 550.939 234.976 557 227.514 557C220.054 557 214 550.946 214 543.463C214 535.984 220.047 529.925 227.514 529.925C234.98 529.925 241.028 535.984 241.028 543.463Z" stroke="#A184DC" stroke-width="5" stroke-miterlimit="10"/>
<path d="M147 293V345.966V293Z" fill="#A184DC"/>
<path d="M147 346.519C147 352.308 142.3 357 136.501 357C130.7 357 126 352.308 126 346.519C126 340.73 130.7 336.038 136.501 336.038C142.3 336.038 147 340.73 147 346.519Z" fill="#A184DC"/>
<path d="M147 293V345.966M147 346.519C147 352.308 142.3 357 136.501 357C130.7 357 126 352.308 126 346.519C126 340.73 130.7 336.038 136.501 336.038C142.3 336.038 147 340.73 147 346.519Z" stroke="#A184DC" stroke-width="5"/>
<defs>
<linearGradient id="paint0_linear_410_4479" x1="637" y1="63" x2="637" y2="596" gradientUnits="userSpaceOnUse">
<stop stop-color="#7A6BC7"/>
<stop offset="1" stop-color="#BFB0E5"/>
</linearGradient>
</defs>
</svg>
