<svg width="1280" height="720" viewBox="0 0 1280 720" fill="none" xmlns="http://www.w3.org/2000/svg">
<g clip-path="url(#clip0_407_4223)">
<rect width="1280" height="720" fill="#ECFAFF"/>
<path d="M0.00390625 -0.0976562H1279.99V719.892H0.00390625V-0.0976562Z" fill="url(#paint0_linear_407_4223)"/>
<path d="M154.293 253.886C154.288 253.86 154.284 253.834 154.279 253.808C145.238 201.419 197.701 148.631 271.457 135.903C345.214 123.175 412.334 155.327 421.375 207.716C421.557 208.769 421.713 209.823 421.846 210.876" stroke="#424242" stroke-width="21"/>
<path d="M403.484 195.438L414.828 193.598C462.093 185.934 506.622 218.037 514.287 265.302C521.951 312.567 489.848 357.097 442.582 364.761L431.238 366.6L403.484 195.438Z" fill="url(#paint1_linear_407_4223)"/>
<path d="M165.436 233.516L154.574 235.227C107.004 242.724 74.5181 287.364 82.0147 334.934C89.5112 382.504 134.151 414.989 181.721 407.493L192.583 405.781L165.436 233.516Z" fill="url(#paint2_linear_407_4223)"/>
<rect x="164.857" y="233.047" width="243.256" height="174.566" transform="rotate(-9.21042 164.857 233.047)" fill="url(#paint3_linear_407_4223)"/>
<path d="M384.386 230L346.386 249" stroke="#434343" stroke-width="4"/>
<path d="M250.974 240.045C259.127 230.156 279.151 227.856 293.386 237.546" stroke="#434343" stroke-width="4"/>
<path d="M308.886 342.999C311.386 333.5 342.386 327.5 350.386 338.547" stroke="#434343" stroke-width="4"/>
<path d="M312.716 381.496L301.555 457.864" stroke="#C3B2B2" stroke-width="30"/>
<path d="M196.88 712.117L176.152 787.921" stroke="#B0B0AF" stroke-width="20"/>
<rect width="213.688" height="299.716" transform="matrix(-0.996725 0.080869 0.080869 0.996725 399.989 431)" fill="url(#paint4_linear_407_4223)"/>
<path d="M409.061 440.633L556.002 574.5L392.001 669.5" stroke="url(#paint5_linear_407_4223)" stroke-width="20"/>
<circle cx="27.7795" cy="27.7795" r="27.7795" transform="matrix(-0.989614 -0.143748 -0.143748 0.989614 587.97 553.988)" fill="url(#paint6_linear_407_4223)"/>
<circle cx="27.7795" cy="27.7795" r="27.7795" transform="matrix(-0.989614 -0.143748 -0.143748 0.989614 447.946 418.211)" fill="url(#paint7_linear_407_4223)"/>
<g filter="url(#filter0_d_407_4223)">
<path d="M237.553 475.097L389.683 599.926L337.327 424.596" stroke="url(#paint8_linear_407_4223)" stroke-width="20"/>
<circle cx="27.7795" cy="27.7795" r="27.7795" transform="matrix(0.0117715 0.999931 0.999931 -0.0117715 217.562 456.105)" fill="url(#paint9_linear_407_4223)"/>
<circle cx="27.7795" cy="27.7795" r="27.7795" transform="matrix(0.0117715 0.999931 0.999931 -0.0117715 368.995 581.594)" fill="url(#paint10_linear_407_4223)"/>
<path d="M353.625 351.071C374.571 350.824 391.757 368.083 392.011 389.62C392.264 411.157 364.938 440.159 343.991 440.405C323.045 440.652 305.858 423.393 305.605 401.857C299.754 358.685 311.997 354.835 322.939 376.611C332.766 363.706 342.941 351.197 353.625 351.071Z" fill="url(#paint11_linear_407_4223)"/>
</g>
<circle cx="27.7795" cy="27.7795" r="27.7795" transform="matrix(-0.989614 -0.143748 -0.143748 0.989614 245.968 694.988)" fill="url(#paint12_linear_407_4223)"/>
<path d="M408.948 730.562C429.074 736.374 450.233 724.31 456.209 703.618C462.184 682.925 443.561 647.697 423.435 641.885C403.309 636.073 382.15 648.137 376.175 668.829C359.046 708.887 369.823 715.856 386.165 697.777C392.204 712.832 398.684 727.598 408.948 730.562Z" fill="url(#paint13_linear_407_4223)"/>
<path d="M927.625 379.738L924.382 456.85" stroke="#C3B2B2" stroke-width="30"/>
<path d="M1077.09 265.886C1077.1 265.86 1077.1 265.834 1077.11 265.808C1086.15 213.419 1033.69 160.631 959.93 147.903C886.173 135.175 819.053 167.327 810.012 219.716C809.83 220.769 809.674 221.823 809.541 222.876" stroke="#424242" stroke-width="21"/>
<path d="M827.903 207.438L816.559 205.598C769.294 197.934 724.765 230.037 717.1 277.302C709.436 324.567 741.539 369.097 788.805 376.761L800.149 378.6L827.903 207.438Z" fill="url(#paint14_linear_407_4223)"/>
<path d="M1065.95 245.516L1076.81 247.227C1124.38 254.724 1156.87 299.364 1149.37 346.934C1141.88 394.504 1097.24 426.989 1049.67 419.493L1038.8 417.781L1065.95 245.516Z" fill="url(#paint15_linear_407_4223)"/>
<rect width="243.256" height="174.566" transform="matrix(-0.987107 -0.160061 -0.160061 0.987107 1066.53 245.047)" fill="url(#paint16_linear_407_4223)"/>
<path d="M922.443 337.039C918.012 345.806 886.443 345.192 880.93 332.716" stroke="#434343" stroke-width="4"/>
<path d="M1034.57 712.117L1055.3 787.921" stroke="#B0B0AF" stroke-width="20"/>
<rect x="831.466" y="431.004" width="213.688" height="299.716" transform="rotate(4.63852 831.466 431.004)" fill="url(#paint17_linear_407_4223)"/>
<path d="M827.641 447.142L770.345 637.482L622.998 518.822" stroke="url(#paint18_linear_407_4223)" stroke-width="20"/>
<circle cx="770.628" cy="630.633" r="27.7795" transform="rotate(-23.8122 770.628 630.633)" fill="url(#paint19_linear_407_4223)"/>
<circle cx="835.628" cy="437.629" r="27.7795" transform="rotate(-23.8122 835.628 437.629)" fill="url(#paint20_linear_407_4223)"/>
<g filter="url(#filter1_d_407_4223)">
<path d="M1035.55 443.094L1187.68 567.922L1135.33 392.592" stroke="url(#paint21_linear_407_4223)" stroke-width="20"/>
<circle cx="27.7795" cy="27.7795" r="27.7795" transform="matrix(0.0117715 0.999931 0.999931 -0.0117715 1015.56 424.098)" fill="url(#paint22_linear_407_4223)"/>
<circle cx="27.7795" cy="27.7795" r="27.7795" transform="matrix(0.0117715 0.999931 0.999931 -0.0117715 1167 549.59)" fill="url(#paint23_linear_407_4223)"/>
<path d="M1151.63 319.067C1172.57 318.821 1189.76 336.08 1190.01 357.616C1190.26 379.153 1162.94 408.155 1141.99 408.402C1121.05 408.648 1103.86 391.389 1103.61 369.853C1097.75 326.681 1110 322.831 1120.94 344.607C1130.77 331.702 1140.94 319.193 1151.63 319.067Z" fill="url(#paint24_linear_407_4223)"/>
</g>
<circle cx="1016.97" cy="718.49" r="27.7795" transform="rotate(-8.26478 1016.97 718.49)" fill="url(#paint25_linear_407_4223)"/>
<path d="M845.738 238.538C852.731 227.798 872.37 223.268 887.602 231.301" stroke="#434343" stroke-width="4"/>
<path d="M952.218 244.817C963.256 238.303 982.863 242.972 992.938 256.937" stroke="#434343" stroke-width="4"/>
<path d="M634.157 435.106C634.498 433.699 634.517 432.244 634.214 430.855C633.911 429.465 633.293 428.179 632.409 427.097C631.525 426.016 630.399 425.168 629.12 424.62C627.84 424.072 626.441 423.839 625.034 423.94C623.626 424.041 622.247 424.472 621.005 425.2C619.763 425.928 618.692 426.933 617.876 428.136C617.06 429.339 616.521 430.708 616.302 432.135C616.082 433.562 616.188 435.008 616.61 436.36" stroke="#424242" stroke-width="5" stroke-linecap="round"/>
<path d="M660.28 425.84C660.621 424.434 660.64 422.978 660.337 421.589C660.034 420.2 659.416 418.914 658.532 417.832C657.648 416.75 656.522 415.902 655.243 415.354C653.963 414.806 652.564 414.574 651.156 414.674C649.748 414.775 648.37 415.206 647.128 415.934C645.886 416.662 644.815 417.667 643.999 418.87C643.183 420.074 642.644 421.442 642.425 422.869C642.205 424.296 642.311 425.742 642.733 427.094" stroke="#424242" stroke-width="5" stroke-linecap="round"/>
<path d="M686.403 416.579C686.744 415.172 686.763 413.717 686.46 412.327C686.157 410.938 685.539 409.652 684.655 408.57C683.771 407.488 682.645 406.64 681.366 406.093C680.086 405.545 678.687 405.312 677.279 405.413C675.872 405.513 674.493 405.944 673.251 406.672C672.009 407.401 670.938 408.406 670.122 409.609C669.306 410.812 668.767 412.181 668.548 413.607C668.328 415.034 668.434 416.48 668.856 417.833" stroke="#424242" stroke-width="5" stroke-linecap="round"/>
<path d="M712.602 410.098C712.942 408.691 712.962 407.236 712.658 405.847C712.355 404.457 711.737 403.171 710.854 402.09C709.97 401.008 708.844 400.16 707.564 399.612C706.284 399.064 704.886 398.832 703.478 398.932C702.07 399.033 700.691 399.464 699.449 400.192C698.208 400.92 697.137 401.925 696.321 403.128C695.505 404.331 694.966 405.7 694.746 407.127C694.526 408.554 694.632 410 695.055 411.352" stroke="#424242" stroke-width="5" stroke-linecap="round"/>
<path d="M688.16 598.241L605 449.501L605 438.5L718.072 413.269L805.429 544.5L804 552.5L688.16 598.241Z" fill="#F0D8D8"/>
<path d="M689.61 590.317L605 438.5L720.072 402.269L805.5 544.5L689.61 590.317Z" fill="#F7F7F7"/>
<path d="M634.157 435.112C634.498 433.706 634.517 432.251 634.214 430.861C633.911 429.472 633.293 428.186 632.409 427.104C631.525 426.022 630.399 425.174 629.12 424.626C627.84 424.079 626.442 423.846 625.034 423.947" stroke="#424242" stroke-width="5" stroke-linecap="round"/>
<path d="M660.28 425.847C660.621 424.44 660.64 422.985 660.337 421.595C660.034 420.206 659.416 418.92 658.532 417.838C657.648 416.757 656.522 415.909 655.243 415.361C653.963 414.813 652.564 414.58 651.156 414.681C649.748 414.781 648.37 415.213 647.128 415.941C645.886 416.669 644.815 417.674 643.999 418.877" stroke="#424242" stroke-width="5" stroke-linecap="round"/>
<path d="M686.403 416.583C686.743 415.176 686.763 413.721 686.46 412.331C686.156 410.942 685.539 409.656 684.655 408.574C683.771 407.493 682.645 406.645 681.365 406.097C680.086 405.549 678.687 405.316 677.279 405.417C675.871 405.517 674.492 405.949 673.251 406.677" stroke="#424242" stroke-width="5" stroke-linecap="round"/>
<path d="M712.602 410.105C712.942 408.698 712.962 407.243 712.658 405.853C712.355 404.464 711.737 403.178 710.854 402.096C709.97 401.014 708.844 400.166 707.564 399.619C706.284 399.071 704.886 398.838 703.478 398.939C702.07 399.039 700.691 399.47 699.449 400.198C698.208 400.927 697.137 401.932 696.321 403.135" stroke="#424242" stroke-width="5" stroke-linecap="round"/>
<path d="M626 452L720 421" stroke="#D2DCE0" stroke-width="2" stroke-linecap="round"/>
<path d="M634 466L728 435" stroke="#D2DCE0" stroke-width="2" stroke-linecap="round"/>
<path d="M641 479L735 447" stroke="#D2DCE0" stroke-width="2" stroke-linecap="round"/>
<path d="M649 491L743 460" stroke="#D2DCE0" stroke-width="2" stroke-linecap="round"/>
<path d="M657 503L749 472" stroke="#D2DCE0" stroke-width="2" stroke-linecap="round"/>
<path d="M663 515L755 484" stroke="#D2DCE0" stroke-width="2" stroke-linecap="round"/>
<path d="M670 528L764 497" stroke="#D2DCE0" stroke-width="2" stroke-linecap="round"/>
<path d="M678 541L772 509" stroke="#D2DCE0" stroke-width="2" stroke-linecap="round"/>
<path d="M685 554L779 523" stroke="#D2DCE0" stroke-width="2" stroke-linecap="round"/>
<path d="M692 567L786 536" stroke="#D2DCE0" stroke-width="2" stroke-linecap="round"/>
<path d="M701.053 465.488L700.47 464.238L702.724 452.461L704.7 451.54L708.723 460.168L710.536 459.323L711.204 460.755L709.391 461.6L710.752 464.518L709.121 465.279L707.76 462.361L701.053 465.488ZM703.944 453.989L702.289 463.169L707.164 460.895L703.944 453.989ZM711.093 456.216C710.124 454.138 709.707 452.361 709.843 450.885C709.973 449.397 710.884 448.259 712.576 447.47C714.256 446.687 715.707 446.724 716.931 447.58C718.148 448.425 719.242 449.886 720.211 451.965C721.197 454.079 721.625 455.881 721.495 457.368C721.365 458.856 720.46 459.992 718.78 460.775C717.088 461.564 715.631 461.53 714.407 460.673C713.184 459.817 712.079 458.331 711.093 456.216ZM718.579 452.725C718.089 451.674 717.603 450.82 717.119 450.162C716.643 449.487 716.083 449.027 715.439 448.783C714.808 448.533 714.087 448.597 713.278 448.975C712.456 449.358 711.932 449.874 711.705 450.524C711.491 451.169 711.483 451.893 711.682 452.698C711.887 453.485 712.234 454.404 712.725 455.456C713.232 456.543 713.724 457.425 714.2 458.1C714.689 458.769 715.249 459.229 715.881 459.479C716.524 459.723 717.257 459.654 718.079 459.27C718.888 458.893 719.4 458.382 719.615 457.738C719.841 457.088 719.849 456.363 719.638 455.564C719.44 454.759 719.087 453.813 718.579 452.725Z" fill="black"/>
<path d="M690.317 505.821C689.985 504.636 690.102 503.572 690.667 502.629C691.231 501.685 692.153 500.981 693.431 500.516C694.283 500.206 695.073 500.096 695.801 500.186C696.536 500.258 697.157 500.501 697.662 500.913C698.179 501.321 698.558 501.856 698.8 502.521C699.083 503.297 699.101 504.05 698.855 504.778C698.622 505.501 698.178 506.074 697.523 506.497L697.557 506.591C698.445 506.495 699.234 506.655 699.924 507.07C700.614 507.486 701.133 508.17 701.48 509.122C701.739 509.836 701.811 510.541 701.695 511.236C701.575 511.918 701.248 512.541 700.715 513.104C700.182 513.667 699.458 514.115 698.544 514.447C697.216 514.931 696 514.983 694.897 514.604C693.79 514.212 692.954 513.396 692.388 512.154L694.042 511.552C694.404 512.272 694.934 512.775 695.633 513.059C696.333 513.344 697.121 513.326 697.998 513.007C698.875 512.688 699.457 512.221 699.744 511.605C700.039 510.973 700.054 510.294 699.79 509.567C699.448 508.627 698.888 508.065 698.111 507.879C697.334 507.694 696.313 507.831 695.048 508.292L694.615 508.449L694.096 507.021L694.547 506.857C695.695 506.425 696.497 505.92 696.954 505.342C697.406 504.752 697.49 504.068 697.208 503.292C696.966 502.628 696.553 502.175 695.968 501.934C695.397 501.688 694.71 501.711 693.908 502.003C693.131 502.285 692.577 502.714 692.247 503.288C691.917 503.862 691.831 504.504 691.99 505.212L690.317 505.821ZM700.294 500.083L699.726 498.523L703.259 497.237L708.205 510.825L706.476 511.454L702.098 499.426L700.294 500.083ZM710.436 508.459C711.562 506.602 712.428 505.102 713.034 503.959C713.635 502.804 714.081 501.67 714.371 500.557C714.669 499.426 714.661 498.429 714.346 497.565C714.05 496.75 713.617 496.184 713.047 495.866C712.485 495.532 711.766 495.524 710.889 495.843C710.037 496.153 709.471 496.664 709.191 497.376C708.919 498.071 708.926 498.87 709.212 499.774L707.558 500.376C707.098 498.954 707.129 497.715 707.653 496.659C708.176 495.603 709.071 494.845 710.337 494.384C711.627 493.914 712.778 493.9 713.79 494.34C714.814 494.776 715.554 495.621 716.01 496.874C716.389 497.914 716.445 499.043 716.179 500.26C715.92 501.461 715.533 502.581 715.018 503.62C714.497 504.647 713.803 505.878 712.936 507.315L719.401 504.962L719.921 506.39L710.881 509.68L710.436 508.459ZM725.856 490.523L725.091 504.679L723.362 505.308L724.264 491.294L717.009 493.935L716.476 492.469L725.384 489.227L725.856 490.523Z" fill="black"/>
<path d="M701.599 536.752L701.031 535.192L704.564 533.906L709.51 547.494L707.781 548.123L703.403 536.095L701.599 536.752ZM711.741 545.128C712.867 543.271 713.733 541.771 714.339 540.628C714.94 539.473 715.386 538.339 715.676 537.226C715.974 536.096 715.966 535.098 715.651 534.234C715.355 533.419 714.922 532.853 714.352 532.536C713.79 532.201 713.071 532.193 712.194 532.512C711.342 532.822 710.776 533.334 710.496 534.046C710.224 534.741 710.231 535.54 710.517 536.443L708.863 537.045C708.403 535.623 708.434 534.384 708.958 533.328C709.482 532.272 710.376 531.514 711.642 531.053C712.932 530.584 714.083 530.569 715.095 531.01C716.119 531.446 716.859 532.29 717.315 533.543C717.694 534.583 717.75 535.712 717.484 536.93C717.225 538.13 716.838 539.25 716.323 540.289C715.802 541.316 715.109 542.547 714.241 543.984L720.706 541.631L721.226 543.059L712.186 546.35L711.741 545.128ZM724.129 538.044C724.515 538.712 725.004 539.159 725.596 539.383C726.201 539.603 726.892 539.571 727.669 539.288C728.709 538.91 729.325 538.224 729.517 537.232C729.722 536.235 729.46 534.777 728.733 532.856C728.675 533.516 728.398 534.12 727.903 534.67C727.403 535.206 726.777 535.611 726.026 535.885C725.186 536.191 724.373 536.295 723.586 536.198C722.806 536.085 722.108 535.764 721.49 535.237C720.873 534.71 720.393 533.976 720.051 533.037C719.563 531.696 719.559 530.477 720.04 529.38C720.515 528.27 721.468 527.456 722.896 526.936C724.65 526.297 726.085 526.42 727.202 527.305C728.331 528.185 729.306 529.753 730.127 532.008C730.702 533.587 731.032 534.943 731.118 536.075C731.216 537.203 731.025 538.159 730.544 538.944C730.076 539.724 729.26 540.327 728.094 540.751C726.817 541.216 725.695 541.234 724.73 540.805C723.765 540.376 723.039 539.647 722.551 538.618L724.129 538.044ZM725.781 534.335C726.62 534.03 727.216 533.522 727.568 532.812C727.915 532.09 727.927 531.284 727.603 530.394C727.261 529.455 726.722 528.793 725.986 528.408C725.25 528.023 724.406 528.004 723.453 528.35C722.576 528.67 721.975 529.201 721.649 529.943C721.336 530.682 721.344 531.502 721.672 532.404C722.005 533.319 722.529 533.958 723.243 534.322C723.958 534.687 724.803 534.691 725.781 534.335ZM735.967 533.735C736.353 534.404 736.841 534.85 737.434 535.074C738.039 535.294 738.73 535.262 739.507 534.98C740.546 534.601 741.163 533.916 741.355 532.924C741.559 531.927 741.298 530.468 740.571 528.548C740.513 529.207 740.236 529.812 739.741 530.361C739.241 530.898 738.615 531.303 737.863 531.576C737.024 531.882 736.211 531.986 735.423 531.89C734.644 531.776 733.946 531.456 733.328 530.928C732.711 530.401 732.231 529.668 731.889 528.728C731.401 527.387 731.397 526.169 731.878 525.071C732.353 523.962 733.306 523.147 734.734 522.627C736.488 521.989 737.923 522.112 739.04 522.997C740.169 523.877 741.144 525.445 741.965 527.7C742.54 529.279 742.87 530.634 742.955 531.766C743.054 532.894 742.863 533.85 742.382 534.635C741.914 535.416 741.098 536.018 739.932 536.442C738.654 536.907 737.533 536.925 736.568 536.496C735.603 536.067 734.877 535.338 734.389 534.31L735.967 533.735ZM737.619 530.027C738.458 529.721 739.054 529.213 739.405 528.504C739.753 527.781 739.764 526.975 739.441 526.086C739.099 525.146 738.56 524.484 737.824 524.099C737.088 523.714 736.244 523.695 735.291 524.042C734.414 524.361 733.813 524.892 733.487 525.635C733.174 526.373 733.182 527.193 733.51 528.095C733.843 529.01 734.367 529.649 735.081 530.014C735.796 530.378 736.641 530.382 737.619 530.027Z" fill="black"/>
<path d="M616.94 450.02C637.52 446.113 651.949 463 655.44 481.02C658.931 499.039 649.943 524.13 629.363 528.037C608.783 531.943 589.269 520.502 585.778 502.482C585.778 502.482 580.664 487.053 588.395 474.493C596.125 461.933 606.443 452.012 616.94 450.02Z" fill="url(#paint26_linear_407_4223)"/>
<path d="M1079.5 297L1202.5 406.5" stroke="#FFC93C" stroke-width="15" stroke-linecap="round"/>
<path d="M1195 400L1199 403.5" stroke="#B1A7A7" stroke-width="15" stroke-linecap="round"/>
<path d="M1198.5 403L1202.5 406.5" stroke="#ECAAAB" stroke-width="15" stroke-linecap="round"/>
<path d="M1061.5 280L1073.5 301.5L1083.5 290.5L1061.5 280Z" fill="#FAF4EC"/>
<path d="M1060 279L1064 282.5" stroke="#292928" stroke-width="3" stroke-linecap="square"/>
<path d="M493.347 157.114C493.347 160.88 491.851 164.492 489.188 167.155C486.525 169.818 482.913 171.314 479.147 171.314C475.381 171.314 471.769 169.818 469.106 167.155C466.443 164.492 464.947 160.88 464.947 157.114C464.947 153.348 466.443 149.736 469.106 147.073C471.769 144.41 475.381 142.914 479.147 142.914C482.913 142.914 486.525 144.41 489.188 147.073C491.851 149.736 493.347 153.348 493.347 157.114Z" fill="#ECFAFF"/>
<path fill-rule="evenodd" clip-rule="evenodd" d="M478.941 75.8322C474.184 75.8322 470.102 77.2522 467.226 79.2828C464.457 81.2424 463.087 83.5215 462.689 85.4882C462.102 88.1171 460.507 90.411 458.248 91.8778C455.988 93.3445 453.244 93.8674 450.604 93.3341C447.963 92.8008 445.637 91.2539 444.124 89.0252C442.611 86.7965 442.032 84.0636 442.511 81.4128C444.123 73.4182 449.078 66.8933 455.355 62.4558C461.887 57.8408 470.165 55.2422 478.941 55.2422C497.096 55.2422 515.918 67.3832 515.918 86.8798C515.918 98.1688 509.208 107.299 500.518 112.624C498.189 114.05 495.388 114.492 492.733 113.852C490.078 113.213 487.786 111.546 486.361 109.216C484.935 106.887 484.493 104.087 485.132 101.432C485.772 98.7768 487.439 96.4844 489.769 95.059C493.816 92.5811 495.328 89.4216 495.328 86.8798C495.328 82.8044 490.251 75.8322 478.941 75.8322Z" fill="#ECFAFF"/>
<path fill-rule="evenodd" clip-rule="evenodd" d="M478.941 103.273C484.621 103.273 489.236 107.874 489.236 113.568V124.233C489.236 126.963 488.151 129.582 486.221 131.512C484.29 133.443 481.671 134.528 478.941 134.528C476.211 134.528 473.592 133.443 471.661 131.512C469.731 129.582 468.646 126.963 468.646 124.233V113.568C468.646 107.888 473.254 103.273 478.941 103.273Z" fill="#ECFAFF"/>
<path fill-rule="evenodd" clip-rule="evenodd" d="M503.997 98.5585C504.692 99.7191 505.152 101.005 505.35 102.344C505.548 103.682 505.48 105.047 505.151 106.359C504.821 107.671 504.236 108.905 503.429 109.991C502.622 111.077 501.608 111.993 500.447 112.688L484.23 122.393C481.888 123.796 479.084 124.211 476.436 123.547C473.787 122.882 471.511 121.193 470.109 118.85C468.706 116.508 468.291 113.704 468.955 111.056C469.62 108.407 471.309 106.131 473.651 104.728L489.875 95.0156C491.035 94.3213 492.321 93.8623 493.659 93.6649C494.996 93.4676 496.36 93.5357 497.671 93.8653C498.983 94.195 500.216 94.7798 501.302 95.5862C502.387 96.3927 503.303 97.398 503.997 98.5585Z" fill="#ECFAFF"/>
<path d="M367.92 299.6C367.919 303.474 369.451 307.19 372.183 309.931C374.916 312.673 378.625 314.215 382.492 314.22C386.36 314.21 390.069 312.667 392.805 309.927C395.54 307.188 397.08 303.474 397.09 299.6C397.078 295.728 395.536 292.018 392.801 289.282C390.066 286.546 386.358 285.007 382.492 285C378.629 285.007 374.926 286.548 372.194 289.284C369.463 292.021 367.927 295.73 367.92 299.6ZM271 299.6C271.003 303.477 272.541 307.194 275.278 309.935C278.015 312.676 281.727 314.217 285.598 314.22C289.463 314.207 293.164 312.662 295.895 309.922C298.626 307.182 300.167 303.471 300.173 299.6C300.167 295.73 298.627 292.021 295.895 289.284C293.164 286.548 289.461 285.007 285.598 285C281.732 285.007 278.024 286.546 275.289 289.282C272.554 292.018 271.012 295.728 271 299.6Z" fill="#3E3E3E"/>
</g>
<defs>
<filter id="filter0_d_407_4223" x="202.887" y="341.07" width="236.991" height="315.754" filterUnits="userSpaceOnUse" color-interpolation-filters="sRGB">
<feFlood flood-opacity="0" result="BackgroundImageFix"/>
<feColorMatrix in="SourceAlpha" type="matrix" values="0 0 0 0 0 0 0 0 0 0 0 0 0 0 0 0 0 0 127 0" result="hardAlpha"/>
<feOffset dy="5"/>
<feGaussianBlur stdDeviation="7.5"/>
<feComposite in2="hardAlpha" operator="out"/>
<feColorMatrix type="matrix" values="0 0 0 0 0 0 0 0 0 0 0 0 0 0 0 0 0 0 0.1 0"/>
<feBlend mode="normal" in2="BackgroundImageFix" result="effect1_dropShadow_407_4223"/>
<feBlend mode="normal" in="SourceGraphic" in2="effect1_dropShadow_407_4223" result="shape"/>
</filter>
<filter id="filter1_d_407_4223" x="1000.89" y="309.066" width="236.991" height="315.754" filterUnits="userSpaceOnUse" color-interpolation-filters="sRGB">
<feFlood flood-opacity="0" result="BackgroundImageFix"/>
<feColorMatrix in="SourceAlpha" type="matrix" values="0 0 0 0 0 0 0 0 0 0 0 0 0 0 0 0 0 0 127 0" result="hardAlpha"/>
<feOffset dy="5"/>
<feGaussianBlur stdDeviation="7.5"/>
<feComposite in2="hardAlpha" operator="out"/>
<feColorMatrix type="matrix" values="0 0 0 0 0 0 0 0 0 0 0 0 0 0 0 0 0 0 0.1 0"/>
<feBlend mode="normal" in2="BackgroundImageFix" result="effect1_dropShadow_407_4223"/>
<feBlend mode="normal" in="SourceGraphic" in2="effect1_dropShadow_407_4223" result="shape"/>
</filter>
<linearGradient id="paint0_linear_407_4223" x1="638.91" y1="745.019" x2="638.91" y2="-25.6886" gradientUnits="userSpaceOnUse">
<stop stop-color="#D6E9FD"/>
<stop offset="0.25" stop-color="#BDE7F9"/>
<stop offset="1" stop-color="#79B6D9"/>
</linearGradient>
<linearGradient id="paint1_linear_407_4223" x1="451.947" y1="187.579" x2="479.701" y2="358.742" gradientUnits="userSpaceOnUse">
<stop stop-color="#3E3E3E"/>
<stop offset="1" stop-color="#717171"/>
</linearGradient>
<linearGradient id="paint2_linear_407_4223" x1="116.938" y1="241.158" x2="144.086" y2="413.424" gradientUnits="userSpaceOnUse">
<stop stop-color="#3E3E3E"/>
<stop offset="1" stop-color="#717171"/>
</linearGradient>
<linearGradient id="paint3_linear_407_4223" x1="286.485" y1="233.047" x2="286.485" y2="407.613" gradientUnits="userSpaceOnUse">
<stop stop-color="#D9D9D9"/>
<stop offset="1" stop-color="#CAB6B6"/>
</linearGradient>
<linearGradient id="paint4_linear_407_4223" x1="106.844" y1="0" x2="106.844" y2="299.716" gradientUnits="userSpaceOnUse">
<stop stop-color="#D8D7D7"/>
<stop offset="1" stop-color="#CBB8B8"/>
</linearGradient>
<linearGradient id="paint5_linear_407_4223" x1="487.833" y1="452.08" x2="459.112" y2="649.803" gradientUnits="userSpaceOnUse">
<stop stop-color="#D7D6D6"/>
<stop offset="1" stop-color="#ADACAC"/>
</linearGradient>
<linearGradient id="paint6_linear_407_4223" x1="27.7795" y1="0" x2="27.7795" y2="55.5589" gradientUnits="userSpaceOnUse">
<stop stop-color="#CDCDCD"/>
<stop offset="1" stop-color="#CBB8B8"/>
</linearGradient>
<linearGradient id="paint7_linear_407_4223" x1="27.7795" y1="0" x2="27.7795" y2="55.5589" gradientUnits="userSpaceOnUse">
<stop stop-color="#CDCDCD"/>
<stop offset="1" stop-color="#CBB8B8"/>
</linearGradient>
<linearGradient id="paint8_linear_407_4223" x1="237.873" y1="502.338" x2="430.713" y2="500.067" gradientUnits="userSpaceOnUse">
<stop stop-color="#D7D6D6"/>
<stop offset="1" stop-color="#B1AEAC"/>
</linearGradient>
<linearGradient id="paint9_linear_407_4223" x1="27.7795" y1="0" x2="27.7795" y2="55.5589" gradientUnits="userSpaceOnUse">
<stop stop-color="#CDCDCD"/>
<stop offset="1" stop-color="#CBB8B8"/>
</linearGradient>
<linearGradient id="paint10_linear_407_4223" x1="27.7795" y1="0" x2="27.7795" y2="55.5589" gradientUnits="userSpaceOnUse">
<stop stop-color="#CDCDCD"/>
<stop offset="1" stop-color="#CBB8B8"/>
</linearGradient>
<linearGradient id="paint11_linear_407_4223" x1="300.798" y1="401.884" x2="376.652" y2="400.991" gradientUnits="userSpaceOnUse">
<stop stop-color="#C3C3C3"/>
<stop offset="1" stop-color="#B4A4A4"/>
</linearGradient>
<linearGradient id="paint12_linear_407_4223" x1="27.7795" y1="0" x2="27.7795" y2="55.5589" gradientUnits="userSpaceOnUse">
<stop stop-color="#CDCDCD"/>
<stop offset="1" stop-color="#CBB9B8"/>
</linearGradient>
<linearGradient id="paint13_linear_407_4223" x1="371.548" y1="667.524" x2="444.429" y2="688.57" gradientUnits="userSpaceOnUse">
<stop stop-color="#C3C3C3"/>
<stop offset="1" stop-color="#B4A4A4"/>
</linearGradient>
<linearGradient id="paint14_linear_407_4223" x1="779.44" y1="199.579" x2="751.686" y2="370.742" gradientUnits="userSpaceOnUse">
<stop stop-color="#3E3E3E"/>
<stop offset="1" stop-color="#717171"/>
</linearGradient>
<linearGradient id="paint15_linear_407_4223" x1="1114.45" y1="253.158" x2="1087.3" y2="425.424" gradientUnits="userSpaceOnUse">
<stop stop-color="#3E3E3E"/>
<stop offset="1" stop-color="#717171"/>
</linearGradient>
<linearGradient id="paint16_linear_407_4223" x1="121.628" y1="0" x2="121.628" y2="174.566" gradientUnits="userSpaceOnUse">
<stop stop-color="#D9D9D9"/>
<stop offset="1" stop-color="#CAB6B6"/>
</linearGradient>
<linearGradient id="paint17_linear_407_4223" x1="938.31" y1="431.004" x2="938.31" y2="730.72" gradientUnits="userSpaceOnUse">
<stop stop-color="#D8D7D7"/>
<stop offset="1" stop-color="#CBB8B8"/>
</linearGradient>
<linearGradient id="paint18_linear_407_4223" x1="765.941" y1="497.435" x2="892.16" y2="652.317" gradientUnits="userSpaceOnUse">
<stop stop-color="#D7D6D6"/>
<stop offset="1" stop-color="#ADACAC"/>
</linearGradient>
<linearGradient id="paint19_linear_407_4223" x1="770.628" y1="602.853" x2="770.628" y2="658.412" gradientUnits="userSpaceOnUse">
<stop stop-color="#CDCDCD"/>
<stop offset="1" stop-color="#CBB8B8"/>
</linearGradient>
<linearGradient id="paint20_linear_407_4223" x1="835.628" y1="409.849" x2="835.628" y2="465.408" gradientUnits="userSpaceOnUse">
<stop stop-color="#CDCDCD"/>
<stop offset="1" stop-color="#CBB8B8"/>
</linearGradient>
<linearGradient id="paint21_linear_407_4223" x1="1035.87" y1="470.334" x2="1228.71" y2="468.063" gradientUnits="userSpaceOnUse">
<stop stop-color="#D7D6D6"/>
<stop offset="1" stop-color="#B1AEAC"/>
</linearGradient>
<linearGradient id="paint22_linear_407_4223" x1="27.7795" y1="0" x2="27.7795" y2="55.5589" gradientUnits="userSpaceOnUse">
<stop stop-color="#CDCDCD"/>
<stop offset="1" stop-color="#CBB8B8"/>
</linearGradient>
<linearGradient id="paint23_linear_407_4223" x1="27.7795" y1="0" x2="27.7795" y2="55.5589" gradientUnits="userSpaceOnUse">
<stop stop-color="#CDCDCD"/>
<stop offset="1" stop-color="#CBB8B8"/>
</linearGradient>
<linearGradient id="paint24_linear_407_4223" x1="1098.8" y1="369.88" x2="1174.65" y2="368.987" gradientUnits="userSpaceOnUse">
<stop stop-color="#C3C3C3"/>
<stop offset="1" stop-color="#B4A4A4"/>
</linearGradient>
<linearGradient id="paint25_linear_407_4223" x1="1016.97" y1="690.71" x2="1016.97" y2="746.269" gradientUnits="userSpaceOnUse">
<stop stop-color="#CDCDCD"/>
<stop offset="1" stop-color="#CBB9B8"/>
</linearGradient>
<linearGradient id="paint26_linear_407_4223" x1="611.043" y1="506.867" x2="685.547" y2="492.591" gradientUnits="userSpaceOnUse">
<stop stop-color="#C3C3C3"/>
<stop offset="1" stop-color="#B4A4A4"/>
</linearGradient>
<clipPath id="clip0_407_4223">
<rect width="1280" height="720" fill="white"/>
</clipPath>
</defs>
</svg>
