<svg width="1280" height="720" viewBox="0 0 1280 720" fill="none" xmlns="http://www.w3.org/2000/svg">
<rect width="1280" height="720" fill="#ECFAFF"/>
<path d="M828 476V287.5L881 87H559L487.5 287.5L381 442.5V643.5L723 631L828 476Z" fill="#D0E9FC" stroke="#ABDAF1" stroke-width="2" stroke-linecap="round"/>
<path d="M1008.78 172.213L990.898 172.132L990.815 190.421L974.17 190.346L974.253 172.057L956.374 171.976L956.445 156.256L974.324 156.336L974.407 137.945L991.052 138.02L990.969 156.412L1008.85 156.492L1008.78 172.213ZM1017.74 141.634L1017.82 125.297L1046.28 125.426L1045.94 200.432L1027.65 200.349L1027.92 141.68L1017.74 141.634Z" fill="#1E5C93"/>
<path d="M438.91 536.271V544.748H452.58V552.628H438.91V561.821H454.371V570H428.701V528.092H454.371V536.271H438.91ZM481.296 536.33C485.196 536.33 488.301 537.604 490.609 540.151C492.957 542.658 494.131 546.121 494.131 550.538V570H483.983V551.912C483.983 549.683 483.405 547.952 482.251 546.718C481.097 545.484 479.545 544.867 477.595 544.867C475.645 544.867 474.093 545.484 472.938 546.718C471.784 547.952 471.207 549.683 471.207 551.912V570H460.999V536.689H471.207V541.106C472.242 539.634 473.635 538.479 475.386 537.644C477.137 536.768 479.107 536.33 481.296 536.33ZM532.626 552.807C532.626 553.762 532.566 554.757 532.447 555.792H509.344C509.503 557.861 510.16 559.453 511.314 560.568C512.508 561.642 513.961 562.18 515.672 562.18C518.219 562.18 519.99 561.105 520.985 558.956H531.85C531.293 561.145 530.278 563.115 528.805 564.866C527.373 566.617 525.562 567.99 523.373 568.985C521.184 569.98 518.736 570.478 516.03 570.478C512.767 570.478 509.861 569.781 507.314 568.388C504.767 566.995 502.777 565.005 501.344 562.418C499.912 559.831 499.195 556.807 499.195 553.344C499.195 549.882 499.892 546.857 501.285 544.27C502.717 541.683 504.707 539.693 507.255 538.3C509.802 536.907 512.727 536.211 516.03 536.211C519.254 536.211 522.119 536.888 524.627 538.241C527.134 539.594 529.084 541.524 530.477 544.031C531.91 546.539 532.626 549.464 532.626 552.807ZM522.179 550.121C522.179 548.369 521.582 546.976 520.388 545.942C519.194 544.907 517.702 544.39 515.911 544.39C514.199 544.39 512.747 544.887 511.553 545.882C510.399 546.877 509.682 548.29 509.404 550.121H522.179ZM548.22 542.24C549.414 540.41 550.906 538.977 552.697 537.942C554.488 536.868 556.478 536.33 558.667 536.33V547.136H555.861C553.314 547.136 551.404 547.693 550.13 548.807C548.857 549.882 548.22 551.792 548.22 554.538V570H538.012V536.689H548.22V542.24ZM576.202 536.211C578.551 536.211 580.6 536.689 582.351 537.644C584.142 538.599 585.515 539.853 586.47 541.405V536.689H596.679V569.94C596.679 573.005 596.062 575.771 594.828 578.238C593.634 580.746 591.784 582.736 589.276 584.208C586.809 585.681 583.724 586.417 580.023 586.417C575.088 586.417 571.088 585.243 568.024 582.895C564.959 580.586 563.208 577.442 562.77 573.462H572.859C573.178 574.736 573.934 575.731 575.128 576.447C576.322 577.204 577.794 577.582 579.546 577.582C581.655 577.582 583.326 576.965 584.56 575.731C585.834 574.537 586.47 572.607 586.47 569.94V565.224C585.476 566.776 584.102 568.05 582.351 569.045C580.6 570 578.551 570.478 576.202 570.478C573.456 570.478 570.969 569.781 568.74 568.388C566.511 566.955 564.74 564.946 563.427 562.359C562.154 559.732 561.517 556.707 561.517 553.285C561.517 549.862 562.154 546.857 563.427 544.27C564.74 541.683 566.511 539.693 568.74 538.3C570.969 536.907 573.456 536.211 576.202 536.211ZM586.47 553.344C586.47 550.797 585.754 548.787 584.321 547.315C582.928 545.842 581.217 545.106 579.187 545.106C577.158 545.106 575.426 545.842 573.994 547.315C572.601 548.748 571.904 550.737 571.904 553.285C571.904 555.832 572.601 557.861 573.994 559.374C575.426 560.846 577.158 561.583 579.187 561.583C581.217 561.583 582.928 560.846 584.321 559.374C585.754 557.901 586.47 555.891 586.47 553.344ZM615.049 536.689V570H604.84V536.689H615.049ZM616.899 528.39L602.512 534.42V527.376L616.899 520.451V528.39ZM621.215 553.285C621.215 549.862 621.852 546.857 623.125 544.27C624.438 541.683 626.209 539.693 628.438 538.3C630.667 536.907 633.154 536.211 635.9 536.211C638.249 536.211 640.298 536.689 642.049 537.644C643.84 538.599 645.213 539.853 646.168 541.405V536.689H656.377V570H646.168V565.284C645.174 566.836 643.781 568.09 641.99 569.045C640.238 570 638.189 570.478 635.841 570.478C633.134 570.478 630.667 569.781 628.438 568.388C626.209 566.955 624.438 564.946 623.125 562.359C621.852 559.732 621.215 556.707 621.215 553.285ZM646.168 553.344C646.168 550.797 645.452 548.787 644.019 547.315C642.626 545.842 640.915 545.106 638.885 545.106C636.856 545.106 635.124 545.842 633.692 547.315C632.299 548.748 631.602 550.737 631.602 553.285C631.602 555.832 632.299 557.861 633.692 559.374C635.124 560.846 636.856 561.583 638.885 561.583C640.915 561.583 642.626 560.846 644.019 559.374C645.452 557.901 646.168 555.891 646.168 553.344Z" fill="#1E5C93"/>
<path d="M376.562 644.993C375.746 644.664 374.219 643.375 373.172 642.128L371.263 639.864V448.915L426.323 363.989L482.373 276.92C482.917 275.745 497.347 231.086 514.435 177.681L546.788 78.7936C547.495 77.8106 549.177 76.4506 550.522 75.7626C552.831 74.5836 562.356 74.5156 719.323 74.5156L888.162 75.7626C891.412 77.3956 893.888 81.1596 893.888 84.4666C893.888 85.9026 881.922 130.592 867.299 183.781L840.706 280.491L840.347 376.17L839.988 471.852L783.484 557.163L725.06 643.899C723.163 645.316 721.938 645.328 550.597 645.464C455.697 645.54 377.382 645.328 376.565 644.995L376.562 644.993ZM708.971 545.372V462.91H388.399V627.837H708.97L708.971 545.372ZM774.909 532.673L819.643 464.989L819.462 391.164L819.281 317.339L774.479 386.553L729.68 455.767V528.353L729.929 600.648C730.065 600.485 750.308 569.894 774.913 532.67L774.909 532.673ZM481.217 379.947L480.574 318.367C480.056 318.923 402.723 438.367 400.981 441.315C400.561 442.022 408.721 442.207 440.832 442.207H481.216L481.217 379.947ZM762.092 367.69L810.356 292.723C810.356 292.474 740.956 292.269 656.136 292.269H501.921V442.206H713.831L762.092 367.69ZM822.069 270.961C822.273 270.628 833.041 231.571 845.993 184.164C853.954 154.963 861.951 125.773 869.985 96.5926C870.42 95.2316 868.318 95.2166 716.404 95.3946L562.381 95.5726L534.303 183.031L506.217 271.03C506.179 271.778 821.607 271.71 822.068 270.962L822.069 270.961Z" fill="#1E5C93"/>
<path d="M292.051 167.102L398.998 67.8203L436.605 108.33L405.617 137.098L329.657 207.612C320.188 216.95 314.075 229.746 313.544 244.091L309.477 353.514L352.2 355.1L279.207 423.501L211.5 349.874L254.22 351.456L258.287 242.043C259.314 213.611 271.416 186.706 292.009 167.075L292.051 167.102ZM994.859 498.281L886.781 596.333L849.639 555.39L957.717 457.342C967.67 447.805 973.586 434.814 974.249 421.045L979.571 311.681L936.871 309.603L1010.64 242.043L1077.5 316.444L1034.8 314.366L1029.48 423.726C1028.13 452.145 1015.72 478.909 994.901 498.302L994.859 498.281Z" fill="#1E5C93"/>
<g filter="url(#filter0_di_407_4226)">
<path d="M558.08 335.785L558.174 315.115L594.184 315.278L593.755 410.177L570.615 410.073L570.95 335.843L558.08 335.785ZM609.182 361.496C609.249 346.59 612.162 334.86 617.921 326.306C623.766 317.752 633.102 313.504 645.929 313.562C658.755 313.62 668.009 317.952 673.69 326.558C679.458 335.164 682.308 346.92 682.241 361.827C682.173 376.907 679.216 388.723 673.371 397.277C667.612 405.831 658.319 410.079 645.493 410.021C632.666 409.963 623.369 405.631 617.601 397.025C611.92 388.419 609.114 376.576 609.182 361.496ZM660.401 361.728C660.441 352.975 659.518 346.254 657.632 341.565C655.747 336.79 651.815 334.389 645.835 334.362C639.855 334.335 635.901 336.7 633.973 341.458C632.045 346.13 631.061 352.842 631.021 361.595C630.995 367.488 631.319 372.387 631.995 376.29C632.671 380.106 634.044 383.232 636.113 385.668C638.269 388.018 641.427 389.202 645.587 389.221C649.747 389.24 652.872 388.084 654.963 385.754C657.14 383.337 658.584 380.223 659.295 376.413C660.006 372.516 660.375 367.621 660.401 361.728Z" fill="url(#paint0_linear_407_4226)"/>
</g>
<defs>
<filter id="filter0_di_407_4226" x="553.745" y="313.164" width="132.714" height="105.414" filterUnits="userSpaceOnUse" color-interpolation-filters="sRGB">
<feFlood flood-opacity="0" result="BackgroundImageFix"/>
<feColorMatrix in="SourceAlpha" type="matrix" values="0 0 0 0 0 0 0 0 0 0 0 0 0 0 0 0 0 0 127 0" result="hardAlpha"/>
<feOffset dy="4"/>
<feGaussianBlur stdDeviation="2"/>
<feComposite in2="hardAlpha" operator="out"/>
<feColorMatrix type="matrix" values="0 0 0 0 0 0 0 0 0 0 0 0 0 0 0 0 0 0 0.25 0"/>
<feBlend mode="normal" in2="BackgroundImageFix" result="effect1_dropShadow_407_4226"/>
<feBlend mode="normal" in="SourceGraphic" in2="effect1_dropShadow_407_4226" result="shape"/>
<feColorMatrix in="SourceAlpha" type="matrix" values="0 0 0 0 0 0 0 0 0 0 0 0 0 0 0 0 0 0 127 0" result="hardAlpha"/>
<feOffset dy="4"/>
<feGaussianBlur stdDeviation="2"/>
<feComposite in2="hardAlpha" operator="arithmetic" k2="-1" k3="1"/>
<feColorMatrix type="matrix" values="0 0 0 0 0 0 0 0 0 0 0 0 0 0 0 0 0 0 0.25 0"/>
<feBlend mode="normal" in2="shape" result="effect2_innerShadow_407_4226"/>
</filter>
<linearGradient id="paint0_linear_407_4226" x1="621.881" y1="267.303" x2="620.999" y2="462.301" gradientUnits="userSpaceOnUse">
<stop stop-color="#1A3567"/>
<stop offset="1" stop-color="#2E91E9"/>
</linearGradient>
</defs>
</svg>
