<svg width="1280" height="720" viewBox="0 0 1280 720" fill="none" xmlns="http://www.w3.org/2000/svg">
<g clip-path="url(#clip0_407_364)">
<rect width="1280" height="720" fill="#ECFAFF"/>
<path d="M970 476V287.5L1023 87H701L629.5 287.5L523 442.5V643.5L865 631L970 476Z" fill="#D0E9FC" stroke="#ABDAF1" stroke-width="2" stroke-linecap="round"/>
<path d="M579.41 535.45V543.927H593.08V551.808H579.41V561.001H594.871V569.18H569.201V527.272H594.871V535.45H579.41ZM621.796 535.51C625.696 535.51 628.801 536.784 631.109 539.331C633.457 541.838 634.631 545.3 634.631 549.718V569.18H624.483V551.091C624.483 548.862 623.905 547.131 622.751 545.897C621.597 544.664 620.045 544.047 618.095 544.047C616.145 544.047 614.593 544.664 613.438 545.897C612.284 547.131 611.707 548.862 611.707 551.091V569.18H601.499V535.868H611.707V540.286C612.742 538.813 614.135 537.659 615.886 536.823C617.637 535.948 619.607 535.51 621.796 535.51ZM673.126 551.987C673.126 552.942 673.066 553.937 672.947 554.972H649.844C650.003 557.041 650.66 558.633 651.814 559.747C653.008 560.822 654.461 561.359 656.172 561.359C658.719 561.359 660.49 560.285 661.485 558.136H672.35C671.793 560.324 670.778 562.295 669.305 564.046C667.873 565.797 666.062 567.17 663.873 568.165C661.684 569.16 659.236 569.657 656.53 569.657C653.267 569.657 650.361 568.961 647.814 567.568C645.267 566.175 643.277 564.185 641.844 561.598C640.412 559.011 639.695 555.986 639.695 552.524C639.695 549.061 640.392 546.037 641.785 543.45C643.217 540.863 645.207 538.873 647.755 537.48C650.302 536.087 653.227 535.391 656.53 535.391C659.754 535.391 662.619 536.067 665.127 537.42C667.634 538.774 669.584 540.704 670.977 543.211C672.41 545.718 673.126 548.644 673.126 551.987ZM662.679 549.3C662.679 547.549 662.082 546.156 660.888 545.121C659.694 544.087 658.202 543.569 656.411 543.569C654.699 543.569 653.247 544.067 652.053 545.062C650.899 546.057 650.182 547.47 649.904 549.3H662.679ZM688.72 541.42C689.914 539.589 691.406 538.157 693.197 537.122C694.988 536.047 696.978 535.51 699.167 535.51V546.315H696.361C693.814 546.315 691.904 546.873 690.63 547.987C689.357 549.061 688.72 550.972 688.72 553.718V569.18H678.512V535.868H688.72V541.42ZM716.702 535.391C719.051 535.391 721.1 535.868 722.851 536.823C724.642 537.779 726.015 539.032 726.97 540.584V535.868H737.179V569.12C737.179 572.184 736.562 574.95 735.328 577.418C734.134 579.925 732.284 581.915 729.776 583.388C727.309 584.86 724.224 585.597 720.523 585.597C715.588 585.597 711.588 584.423 708.524 582.074C705.459 579.766 703.708 576.622 703.27 572.642H713.359C713.678 573.916 714.434 574.911 715.628 575.627C716.822 576.383 718.294 576.761 720.046 576.761C722.155 576.761 723.826 576.144 725.06 574.911C726.334 573.717 726.97 571.787 726.97 569.12V564.404C725.976 565.956 724.602 567.23 722.851 568.225C721.1 569.18 719.051 569.657 716.702 569.657C713.956 569.657 711.469 568.961 709.24 567.568C707.011 566.135 705.24 564.125 703.927 561.538C702.654 558.912 702.017 555.887 702.017 552.464C702.017 549.042 702.654 546.037 703.927 543.45C705.24 540.863 707.011 538.873 709.24 537.48C711.469 536.087 713.956 535.391 716.702 535.391ZM726.97 552.524C726.97 549.977 726.254 547.967 724.821 546.494C723.428 545.022 721.717 544.286 719.687 544.286C717.658 544.286 715.926 545.022 714.494 546.494C713.101 547.927 712.404 549.917 712.404 552.464C712.404 555.011 713.101 557.041 714.494 558.553C715.926 560.026 717.658 560.762 719.687 560.762C721.717 560.762 723.428 560.026 724.821 558.553C726.254 557.081 726.97 555.071 726.97 552.524ZM755.549 535.868V569.18H745.34V535.868H755.549ZM757.399 527.57L743.012 533.6V526.555L757.399 519.63V527.57ZM761.715 552.464C761.715 549.042 762.352 546.037 763.625 543.45C764.938 540.863 766.709 538.873 768.938 537.48C771.167 536.087 773.654 535.391 776.4 535.391C778.749 535.391 780.798 535.868 782.549 536.823C784.34 537.779 785.713 539.032 786.668 540.584V535.868H796.877V569.18H786.668V564.464C785.674 566.016 784.281 567.269 782.49 568.225C780.738 569.18 778.689 569.657 776.341 569.657C773.634 569.657 771.167 568.961 768.938 567.568C766.709 566.135 764.938 564.125 763.625 561.538C762.352 558.912 761.715 555.887 761.715 552.464ZM786.668 552.524C786.668 549.977 785.952 547.967 784.519 546.494C783.126 545.022 781.415 544.286 779.385 544.286C777.356 544.286 775.624 545.022 774.192 546.494C772.799 547.927 772.102 549.917 772.102 552.464C772.102 555.011 772.799 557.041 774.192 558.553C775.624 560.026 777.356 560.762 779.385 560.762C781.415 560.762 783.126 560.026 784.519 558.553C785.952 557.081 786.668 555.071 786.668 552.524Z" fill="#1E5C93"/>
<path d="M517.062 644.172C516.246 643.843 514.719 642.554 513.672 641.307L511.763 639.043V448.094L566.823 363.168L622.873 276.099C623.417 274.924 637.847 230.265 654.935 176.86L687.288 77.9733C687.995 76.9903 689.677 75.6303 691.022 74.9423C693.331 73.7633 702.856 73.6953 859.823 73.6953L1028.66 74.9423C1031.91 76.5753 1034.39 80.3393 1034.39 83.6463C1034.39 85.0823 1022.42 129.771 1007.8 182.96L981.206 279.67L980.847 375.349L980.488 471.031L923.984 556.342L865.56 643.078C863.663 644.495 862.438 644.507 691.097 644.643C596.197 644.719 517.882 644.507 517.065 644.174L517.062 644.172ZM849.471 544.551V462.089H528.899V627.016H849.47L849.471 544.551ZM915.409 531.852L960.143 464.168L959.962 390.343L959.781 316.518L914.979 385.732L870.18 454.946V527.532L870.429 599.827C870.565 599.664 890.808 569.073 915.413 531.849L915.409 531.852ZM621.717 379.126L621.074 317.546C620.556 318.102 543.223 437.546 541.481 440.494C541.061 441.201 549.221 441.386 581.332 441.386H621.716L621.717 379.126ZM902.592 366.869L950.856 291.902C950.856 291.653 881.456 291.448 796.636 291.448H642.421V441.385H854.331L902.592 366.869ZM962.569 270.14C962.773 269.807 973.541 230.75 986.493 183.343C994.454 154.143 1002.45 124.953 1010.48 95.7723C1010.92 94.4113 1008.82 94.3963 856.904 94.5743L702.881 94.7523L674.803 182.21L646.717 270.209C646.679 270.957 962.107 270.889 962.568 270.141L962.569 270.14Z" fill="#1E5C93"/>
<g filter="url(#filter0_di_407_364)">
<path d="M687.885 399.391C690.843 397.065 692.191 395.987 691.93 396.16C700.455 389.178 707.154 383.445 712.028 378.96C716.988 374.476 721.17 369.771 724.572 364.847C727.974 359.922 729.686 355.12 729.707 350.44C729.723 346.887 728.912 344.11 727.275 342.109C725.637 340.108 723.172 339.1 719.878 339.085C716.585 339.07 713.979 340.315 712.061 342.82C710.23 345.238 709.305 348.701 709.284 353.208L687.835 353.111C688.041 345.745 689.629 339.599 692.598 334.672C695.654 329.746 699.613 326.124 704.477 323.806C709.428 321.488 714.893 320.343 720.873 320.37C731.186 320.416 738.931 323.095 744.107 328.405C749.37 333.715 751.982 340.617 751.943 349.11C751.901 358.384 748.699 366.993 742.336 374.937C735.974 382.795 727.879 390.472 718.052 397.968L753.152 398.126L753.07 416.196L687.811 415.901L687.885 399.391ZM830.012 342.313L789.453 342.13L789.372 360.07C791.114 358.171 793.547 356.622 796.673 355.423C799.798 354.223 803.181 353.632 806.821 353.648C813.321 353.678 818.688 355.175 822.921 358.141C827.241 361.108 830.387 364.935 832.359 369.624C834.331 374.313 835.305 379.388 835.28 384.847C835.234 394.987 832.338 403.034 826.591 408.988C820.844 414.856 812.771 417.766 802.371 417.719C795.438 417.688 789.42 416.49 784.317 414.127C779.215 411.678 775.287 408.323 772.533 404.064C769.779 399.805 768.284 394.901 768.049 389.354L789.759 389.452C790.267 392.141 791.513 394.4 793.498 396.229C795.484 397.971 798.21 398.85 801.677 398.866C805.75 398.884 808.789 397.598 810.794 395.007C812.799 392.416 813.811 388.954 813.831 384.62C813.85 380.374 812.825 377.119 810.755 374.856C808.685 372.594 805.657 371.453 801.671 371.435C798.724 371.422 796.294 372.148 794.381 373.612C792.468 374.99 791.203 376.848 790.585 379.185L769.136 379.088L769.391 322.539L830.101 322.813L830.012 342.313Z" fill="url(#paint0_linear_407_364)"/>
</g>
<path d="M449.551 139.282L556.498 40L594.105 80.5101L563.117 109.277L487.157 179.792C477.688 189.13 471.575 201.926 471.044 216.271L466.977 325.693L509.7 327.279L436.707 395.681L369 322.053L411.72 323.636L415.787 214.223C416.814 185.79 428.916 158.886 449.509 139.254L449.551 139.282ZM1130.36 472.508L1022.28 570.56L985.139 529.617L1093.22 431.57C1103.17 422.032 1109.09 409.041 1109.75 395.272L1115.07 285.909L1072.37 283.831L1146.14 216.271L1213 290.671L1170.3 288.593L1164.98 397.953C1163.63 426.372 1151.22 453.136 1130.4 472.529L1130.36 472.508Z" fill="#1E5C93"/>
<path d="M444.459 564.19L326 566L325 533.265L443.223 530.808L442.273 505L486.5 545.903L445.412 590L444.459 564.19Z" fill="#1E5C93"/>
<mask id="mask0_407_364" style="mask-type:luminance" maskUnits="userSpaceOnUse" x="-192" y="284" width="780" height="443">
<path d="M-187 289H582.555V721.875H-187V289Z" fill="white" stroke="white" stroke-width="9"/>
</mask>
<g mask="url(#mask0_407_364)">
<path d="M99.5083 570.494C99.5083 608.281 143.221 638.91 197.128 638.91C251.038 638.91 294.751 608.281 294.751 570.494V546.227H99.5083V570.494Z" fill="#1E5C93" stroke="#1E5C93" stroke-width="9"/>
</g>
<path d="M294.751 546.23C294.751 584.012 251.038 614.647 197.128 614.647C143.221 614.647 99.5083 584.012 99.5083 546.23C99.5083 508.441 143.221 477.812 197.128 477.812C251.038 477.812 294.751 508.441 294.751 546.23Z" fill="#1E5C93" stroke="#1E5C93" stroke-width="9"/>
<path d="M112.115 541.767C112.115 574.675 150.178 601.345 197.128 601.345C244.084 601.345 282.133 574.663 282.133 541.767V513.445H112.115V541.767Z" fill="#2E91E9" stroke="#1E5C93" stroke-width="9"/>
<path d="M282.133 513.445C282.133 546.359 244.072 573.024 197.122 573.024C150.166 573.024 112.115 546.348 112.115 513.445C112.115 480.549 150.178 453.867 197.122 453.867C244.06 453.867 282.133 480.549 282.133 513.445Z" fill="#35C2FF" stroke="#1E5C93" stroke-width="9"/>
<path d="M226 475V409.5H232.5L242.5 386.5L232.5 364L209 342.5L159 336L131.5 359L124 382.5L131.5 419L144 423.5L159 436L177 445.5L195 449V475L211.5 481.5L226 475Z" fill="#ECFAFF"/>
<path fill-rule="evenodd" clip-rule="evenodd" d="M209.255 489.824C213.932 489.824 218.418 487.966 221.725 484.659C225.032 481.352 226.89 476.867 226.89 472.19V415.054C245.172 413.619 256.408 393.378 246.516 377.063C243.57 372.2 240.682 367.561 238.375 364.093C231.703 353.014 223.695 344.898 213.728 339.612C203.754 334.342 192.302 332.152 179.173 332.152C166.227 332.152 152.319 334.276 141.489 341.496C130.203 349.014 123.158 361.454 123.158 379.868L123.191 380.532V409.951C123.191 412.267 123.647 414.561 124.534 416.701C125.421 418.841 126.721 420.785 128.359 422.423C129.997 424.061 131.942 425.359 134.083 426.245C136.223 427.131 138.517 427.586 140.834 427.585H143.946C144.659 427.585 145.359 427.535 146.045 427.436C146.188 430.284 147.019 433.054 148.468 435.51C149.916 437.966 151.939 440.034 154.363 441.537C156.787 443.039 159.539 443.931 162.383 444.136C165.227 444.341 168.078 443.853 170.692 442.713C172.552 446.447 175.675 449.4 179.507 451.049C183.339 452.697 187.631 452.934 191.621 451.717V472.19C191.621 476.867 193.479 481.352 196.786 484.659C200.093 487.966 204.579 489.824 209.255 489.824ZM135.606 379.229L135.639 379.868V409.951C135.639 411.326 136.185 412.645 137.158 413.618C138.131 414.591 139.45 415.137 140.826 415.137H143.937C144.488 415.137 145.015 414.919 145.404 414.529C145.794 414.14 146.012 413.613 146.012 413.062V408.913C146.012 407.263 146.668 405.679 147.835 404.512C149.002 403.345 150.585 402.689 152.236 402.689C153.887 402.689 155.47 403.345 156.637 404.512C157.804 405.679 158.46 407.263 158.46 408.913V426.556C158.46 427.928 159.005 429.244 159.975 430.215C160.946 431.185 162.262 431.73 163.634 431.73C165.006 431.73 166.322 431.185 167.293 430.215C168.263 429.244 168.808 427.928 168.808 426.556L168.8 421.378L168.833 420.689V416.382C168.833 414.731 169.489 413.148 170.656 411.981C171.823 410.814 173.406 410.158 175.057 410.158C176.708 410.158 178.291 410.814 179.458 411.981C180.625 413.148 181.281 414.731 181.281 416.382V434.846C181.281 436.222 181.827 437.541 182.8 438.514C183.773 439.486 185.092 440.033 186.468 440.033C187.843 440.033 189.162 439.486 190.135 438.514C191.108 437.541 191.654 436.222 191.654 434.846V413.062C191.654 411.412 192.31 409.829 193.477 408.662C194.644 407.494 196.227 406.839 197.878 406.839C199.529 406.839 201.112 407.494 202.279 408.662C203.446 409.829 204.102 411.412 204.102 413.062V434.846C204.102 435.549 204.063 436.24 203.986 436.921C204.035 437.265 204.063 437.611 204.069 437.958V472.19C204.069 473.565 204.615 474.885 205.588 475.857C206.561 476.83 207.88 477.376 209.255 477.376C210.631 477.376 211.95 476.83 212.923 475.857C213.896 474.885 214.442 473.565 214.442 472.19V392.316C214.442 390.665 215.098 389.082 216.265 387.915C217.432 386.748 219.015 386.092 220.666 386.092C222.317 386.092 223.9 386.748 225.067 387.915C226.234 389.082 226.89 390.665 226.89 392.316V402.532C235.703 401.179 240.583 391.295 235.869 383.52C233.252 379.152 230.546 374.839 227.753 370.582C221.994 360.997 215.513 354.649 207.903 350.616C200.235 346.558 190.941 344.599 179.173 344.599C167.223 344.599 156.228 346.624 148.394 351.852C141.108 356.707 135.763 364.848 135.614 379.238" fill="#1E5C93"/>
<path fill-rule="evenodd" clip-rule="evenodd" d="M215.662 335.952C226.408 341.636 234.914 350.325 241.885 361.868C244.697 366.164 247.424 370.513 250.068 374.914C260.914 392.814 249.96 414.639 231.039 418.647V472.181C231.039 477.959 228.744 483.499 224.659 487.585C220.573 491.67 215.033 493.965 209.255 493.965C203.478 493.965 197.937 491.67 193.852 487.585C189.767 483.499 187.472 477.959 187.472 472.181V456.596L186.476 456.621C183.046 456.625 179.665 455.817 176.607 454.263C173.549 452.71 170.903 450.455 168.883 447.684C163.266 449.067 157.33 448.164 152.379 445.174C147.428 442.183 143.866 437.349 142.477 431.734H140.817C135.04 431.734 129.499 429.439 125.414 425.354C121.328 421.268 119.033 415.728 119.033 409.95V380.731C119.011 380.443 119 380.156 119 379.868C119 360.25 126.602 346.425 139.182 338.043C151.016 330.159 165.895 328.002 179.173 328.002C192.749 328.002 204.923 330.267 215.662 335.952ZM238.375 364.084C231.703 353.014 223.695 344.898 213.728 339.62C203.762 334.342 192.301 332.151 179.173 332.151C166.227 332.151 152.319 334.276 141.489 341.495C130.203 349.014 123.158 361.453 123.158 379.868L123.191 380.532V409.95C123.191 412.267 123.647 414.56 124.534 416.701C125.421 418.841 126.72 420.785 128.359 422.423C129.997 424.06 131.942 425.359 134.083 426.245C136.223 427.13 138.517 427.586 140.834 427.585H143.946C144.659 427.585 145.359 427.535 146.045 427.435C146.263 431.952 148.211 436.211 151.485 439.329C154.759 442.447 159.108 444.185 163.63 444.182C166.144 444.182 168.526 443.659 170.684 442.713C172.544 446.448 175.669 449.403 179.502 451.052C183.336 452.7 187.63 452.936 191.621 451.717V472.189C191.621 476.866 193.479 481.352 196.786 484.659C200.093 487.966 204.578 489.824 209.255 489.824C213.932 489.824 218.418 487.966 221.725 484.659C225.032 481.352 226.89 476.866 226.89 472.189V415.054C245.171 413.618 256.408 393.378 246.516 377.063C243.57 372.2 240.682 367.561 238.375 364.092" fill="#1E5C93"/>
<path d="M1144.78 159.213L1126.9 159.132L1126.82 177.421L1110.17 177.346L1110.25 159.057L1092.37 158.976L1092.45 143.256L1110.32 143.336L1110.41 124.945L1127.05 125.02L1126.97 143.412L1144.85 143.492L1144.78 159.213ZM1153.74 128.634L1153.82 112.297L1182.28 112.426L1181.94 187.432L1163.65 187.349L1163.92 128.68L1153.74 128.634Z" fill="#1E5C93"/>
</g>
<defs>
<filter id="filter0_di_407_364" x="683.545" y="320.223" width="156.024" height="105.645" filterUnits="userSpaceOnUse" color-interpolation-filters="sRGB">
<feFlood flood-opacity="0" result="BackgroundImageFix"/>
<feColorMatrix in="SourceAlpha" type="matrix" values="0 0 0 0 0 0 0 0 0 0 0 0 0 0 0 0 0 0 127 0" result="hardAlpha"/>
<feOffset dy="4"/>
<feGaussianBlur stdDeviation="2"/>
<feComposite in2="hardAlpha" operator="out"/>
<feColorMatrix type="matrix" values="0 0 0 0 0 0 0 0 0 0 0 0 0 0 0 0 0 0 0.25 0"/>
<feBlend mode="normal" in2="BackgroundImageFix" result="effect1_dropShadow_407_364"/>
<feBlend mode="normal" in="SourceGraphic" in2="effect1_dropShadow_407_364" result="shape"/>
<feColorMatrix in="SourceAlpha" type="matrix" values="0 0 0 0 0 0 0 0 0 0 0 0 0 0 0 0 0 0 127 0" result="hardAlpha"/>
<feOffset dy="4"/>
<feGaussianBlur stdDeviation="2"/>
<feComposite in2="hardAlpha" operator="arithmetic" k2="-1" k3="1"/>
<feColorMatrix type="matrix" values="0 0 0 0 0 0 0 0 0 0 0 0 0 0 0 0 0 0 0.25 0"/>
<feBlend mode="normal" in2="shape" result="effect2_innerShadow_407_364"/>
</filter>
<linearGradient id="paint0_linear_407_364" x1="762.881" y1="274.539" x2="761.999" y2="469.537" gradientUnits="userSpaceOnUse">
<stop stop-color="#1A3567"/>
<stop offset="1" stop-color="#2E91E9"/>
</linearGradient>
<clipPath id="clip0_407_364">
<rect width="1280" height="720" fill="white"/>
</clipPath>
</defs>
</svg>
