<svg width="1280" height="720" viewBox="0 0 1280 720" fill="none" xmlns="http://www.w3.org/2000/svg">
<g clip-path="url(#clip0_407_369)">
<rect width="1280" height="720" fill="url(#paint0_linear_407_369)"/>
<circle cx="668.5" cy="455.5" r="521.5" fill="url(#paint1_radial_407_369)" fill-opacity="0.7"/>
<path d="M668.94 358.469L664.046 435.493" stroke="#C3B2B2" stroke-width="30"/>
<path d="M536.677 213.122C536.678 213.096 536.679 213.07 536.68 213.043C538.322 159.905 600.3 118.703 675.111 121.016C749.922 123.329 809.236 168.28 807.594 221.419C807.561 222.487 807.503 223.551 807.422 224.609" stroke="#424242" stroke-width="21"/>
<path d="M792.527 205.805L804.01 206.276C851.852 208.241 889.043 248.617 887.079 296.459C885.114 344.302 844.738 381.493 796.896 379.528L785.413 379.057L792.527 205.805Z" fill="url(#paint2_linear_407_369)"/>
<path d="M551.677 195.398L540.693 194.898C492.586 192.709 451.812 229.932 449.623 278.039C447.433 326.146 484.656 366.92 532.763 369.109L543.748 369.609L551.677 195.398Z" fill="url(#paint3_linear_407_369)"/>
<rect x="551.204" y="194.824" width="243.256" height="174.566" transform="rotate(2.35131 551.204 194.824)" fill="url(#paint4_linear_407_369)"/>
<path d="M543.626 696.298C529.113 726.898 498.89 787.736 494.1 786.293" stroke="#B0B0AF" stroke-width="20"/>
<path d="M736.715 695.094L750.686 772.429" stroke="#B0B0AF" stroke-width="20"/>
<rect x="551.877" y="395.125" width="213.688" height="299.716" transform="rotate(2.74962 551.877 395.125)" fill="url(#paint5_linear_407_369)"/>
<path d="M552.76 421.543L429.8 525.139L569.511 592" stroke="url(#paint6_linear_407_369)" stroke-width="20"/>
<circle cx="429.953" cy="529.046" r="27.7795" transform="rotate(-72.0526 429.953 529.046)" fill="url(#paint7_linear_407_369)"/>
<circle cx="555.153" cy="413.851" r="27.7795" transform="rotate(-72.0526 555.153 413.851)" fill="url(#paint8_linear_407_369)"/>
<path d="M625.115 592.987C629.117 613.549 615.223 633.553 594.081 637.668C572.94 641.782 539.504 620.104 535.502 599.542C531.501 578.979 545.395 558.975 566.537 554.861C607.958 541.357 613.942 552.71 594.483 567.382C608.942 574.734 623.074 582.499 625.115 592.987Z" fill="url(#paint9_linear_407_369)"/>
<path d="M761.06 431.634L894.839 520.821L753 599.5" stroke="url(#paint10_linear_407_369)" stroke-width="20"/>
<circle cx="27.7795" cy="27.7795" r="27.7795" transform="matrix(-0.412649 -0.91089 -0.91089 0.412649 931.891 538.559)" fill="url(#paint11_linear_407_369)"/>
<circle cx="27.7795" cy="27.7795" r="27.7795" transform="matrix(-0.412649 -0.91089 -0.91089 0.412649 794.589 438.098)" fill="url(#paint12_linear_407_369)"/>
<path d="M686.035 608.741C684.359 629.621 700.404 647.946 721.873 649.669C743.342 651.392 774.143 626.109 775.818 605.228C777.494 584.347 761.449 566.023 739.98 564.3C697.308 555.515 692.632 567.467 713.61 579.87C700.065 588.793 686.89 598.09 686.035 608.741Z" fill="url(#paint13_linear_407_369)"/>
<circle cx="742.348" cy="700.129" r="27.7795" transform="rotate(-3.21197 742.348 700.129)" fill="url(#paint14_linear_407_369)"/>
<circle cx="545.346" cy="698.343" r="27.7795" transform="rotate(-3.21197 545.346 698.343)" fill="url(#paint15_linear_407_369)"/>
<path d="M668.965 471.901C669.072 471.906 669.172 471.954 669.243 472.031C669.313 472.109 669.349 472.21 669.344 472.312L667.281 513.282C667.276 513.384 667.23 513.481 667.152 513.551C667.074 513.621 666.97 513.658 666.863 513.653C666.756 513.647 666.656 513.6 666.586 513.523C666.515 513.445 666.479 513.344 666.484 513.242L668.547 472.272C668.553 472.17 668.598 472.073 668.676 472.003C668.754 471.933 668.858 471.896 668.965 471.901ZM647.144 476.16C647.251 476.165 647.351 476.212 647.422 476.29C647.492 476.367 647.528 476.469 647.523 476.571L645.999 506.853C645.993 506.955 645.947 507.052 645.87 507.122C645.791 507.192 645.687 507.229 645.58 507.224C645.473 507.218 645.374 507.171 645.303 507.094C645.232 507.016 645.196 506.915 645.201 506.813L646.725 476.531C646.731 476.428 646.777 476.331 646.855 476.262C646.934 476.192 647.037 476.154 647.144 476.16ZM673.995 479.297C674.102 479.303 674.201 479.35 674.272 479.427C674.342 479.505 674.378 479.607 674.373 479.709L673.028 506.428C673.022 506.531 672.977 506.628 672.899 506.698C672.821 506.768 672.717 506.805 672.61 506.799C672.503 506.794 672.403 506.747 672.332 506.669C672.262 506.592 672.226 506.491 672.231 506.388L673.576 479.669C673.581 479.567 673.627 479.469 673.705 479.399C673.783 479.329 673.888 479.292 673.995 479.297ZM652.173 483.556C652.28 483.561 652.38 483.609 652.451 483.686C652.522 483.764 652.557 483.865 652.552 483.968L651.745 499.999C651.74 500.102 651.694 500.199 651.616 500.269C651.538 500.339 651.433 500.376 651.326 500.37C651.22 500.365 651.12 500.317 651.049 500.24C650.979 500.163 650.943 500.062 650.948 499.959L651.755 483.928C651.761 483.825 651.806 483.728 651.884 483.658C651.962 483.588 652.066 483.55 652.173 483.556ZM662.949 484.098C663.056 484.104 663.156 484.151 663.226 484.229C663.297 484.306 663.334 484.408 663.329 484.511L662.521 500.542C662.516 500.644 662.469 500.741 662.391 500.811C662.313 500.881 662.21 500.918 662.103 500.913C661.996 500.908 661.896 500.86 661.825 500.783C661.754 500.705 661.718 500.604 661.724 500.502L662.531 484.47C662.536 484.368 662.582 484.27 662.66 484.2C662.738 484.13 662.842 484.093 662.949 484.098ZM641.308 484.795C641.415 484.801 641.514 484.848 641.585 484.925C641.656 485.003 641.691 485.104 641.686 485.206L641.058 497.675C641.053 497.777 641.007 497.875 640.929 497.945C640.851 498.015 640.747 498.052 640.641 498.047C640.534 498.041 640.433 497.994 640.363 497.917C640.292 497.839 640.256 497.737 640.261 497.635L640.889 485.166C640.894 485.064 640.94 484.967 641.018 484.897C641.096 484.827 641.201 484.79 641.308 484.795ZM679.024 486.694C679.131 486.7 679.23 486.747 679.301 486.825C679.371 486.902 679.408 487.003 679.403 487.105L678.775 499.574C678.77 499.676 678.723 499.774 678.645 499.844C678.567 499.914 678.463 499.951 678.357 499.946C678.25 499.941 678.149 499.893 678.079 499.816C678.008 499.738 677.972 499.636 677.977 499.534L678.605 487.065C678.61 486.963 678.656 486.866 678.734 486.796C678.812 486.726 678.917 486.689 679.024 486.694ZM657.293 489.171C657.399 489.176 657.499 489.224 657.57 489.301C657.64 489.379 657.676 489.481 657.671 489.583L657.402 494.927C657.397 495.029 657.351 495.126 657.273 495.196C657.195 495.266 657.091 495.303 656.984 495.298C656.877 495.293 656.777 495.245 656.706 495.168C656.636 495.09 656.6 494.989 656.605 494.887L656.874 489.543C656.879 489.44 656.925 489.343 657.003 489.273C657.081 489.203 657.186 489.166 657.293 489.171Z" fill="#B95684" stroke="#B95584"/>
<path d="M711.965 473.901C712.072 473.906 712.172 473.954 712.243 474.031C712.313 474.109 712.349 474.21 712.344 474.312L710.281 515.282C710.276 515.384 710.23 515.481 710.152 515.551C710.074 515.621 709.97 515.658 709.863 515.653C709.756 515.647 709.656 515.6 709.586 515.523C709.515 515.445 709.479 515.344 709.484 515.242L711.547 474.272C711.553 474.17 711.598 474.073 711.676 474.003C711.754 473.933 711.858 473.896 711.965 473.901ZM690.144 478.16C690.251 478.165 690.351 478.212 690.422 478.29C690.492 478.367 690.528 478.469 690.523 478.571L688.999 508.853C688.993 508.955 688.947 509.052 688.87 509.122C688.791 509.192 688.687 509.229 688.58 509.224C688.473 509.218 688.374 509.171 688.303 509.094C688.232 509.016 688.196 508.915 688.201 508.813L689.725 478.531C689.731 478.428 689.777 478.331 689.855 478.262C689.934 478.192 690.037 478.154 690.144 478.16ZM716.995 481.297C717.102 481.303 717.201 481.35 717.272 481.427C717.342 481.505 717.378 481.607 717.373 481.709L716.028 508.428C716.022 508.531 715.977 508.628 715.899 508.698C715.821 508.768 715.717 508.805 715.61 508.799C715.503 508.794 715.403 508.747 715.332 508.669C715.262 508.592 715.226 508.491 715.231 508.388L716.576 481.669C716.581 481.567 716.627 481.469 716.705 481.399C716.783 481.329 716.888 481.292 716.995 481.297ZM695.173 485.556C695.28 485.561 695.38 485.609 695.451 485.686C695.522 485.764 695.557 485.865 695.552 485.968L694.745 501.999C694.74 502.102 694.694 502.199 694.616 502.269C694.538 502.339 694.433 502.376 694.326 502.37C694.22 502.365 694.12 502.317 694.049 502.24C693.979 502.163 693.943 502.062 693.948 501.959L694.755 485.928C694.761 485.825 694.806 485.728 694.884 485.658C694.962 485.588 695.066 485.55 695.173 485.556ZM705.949 486.098C706.056 486.104 706.156 486.151 706.226 486.229C706.297 486.306 706.334 486.408 706.329 486.511L705.521 502.542C705.516 502.644 705.469 502.741 705.391 502.811C705.313 502.881 705.21 502.918 705.103 502.913C704.996 502.908 704.896 502.86 704.825 502.783C704.754 502.705 704.718 502.604 704.724 502.502L705.531 486.47C705.536 486.368 705.582 486.27 705.66 486.2C705.738 486.13 705.842 486.093 705.949 486.098ZM684.308 486.795C684.415 486.801 684.514 486.848 684.585 486.925C684.656 487.003 684.691 487.104 684.686 487.206L684.058 499.675C684.053 499.777 684.007 499.875 683.929 499.945C683.851 500.015 683.747 500.052 683.641 500.047C683.534 500.041 683.433 499.994 683.363 499.917C683.292 499.839 683.256 499.737 683.261 499.635L683.889 487.166C683.894 487.064 683.94 486.967 684.018 486.897C684.096 486.827 684.201 486.79 684.308 486.795ZM722.024 488.694C722.131 488.7 722.23 488.747 722.301 488.825C722.371 488.902 722.408 489.003 722.403 489.105L721.775 501.574C721.77 501.676 721.723 501.774 721.645 501.844C721.567 501.914 721.463 501.951 721.357 501.946C721.25 501.941 721.149 501.893 721.079 501.816C721.008 501.738 720.972 501.636 720.977 501.534L721.605 489.065C721.61 488.963 721.656 488.866 721.734 488.796C721.812 488.726 721.917 488.689 722.024 488.694ZM700.293 491.171C700.399 491.176 700.499 491.224 700.57 491.301C700.64 491.379 700.676 491.481 700.671 491.583L700.402 496.927C700.397 497.029 700.351 497.126 700.273 497.196C700.195 497.266 700.091 497.303 699.984 497.298C699.877 497.293 699.777 497.245 699.706 497.168C699.636 497.09 699.6 496.989 699.605 496.887L699.874 491.543C699.879 491.44 699.925 491.343 700.003 491.273C700.081 491.203 700.186 491.166 700.293 491.171Z" fill="#B95684" stroke="#B95584"/>
<path d="M626.965 469.901C627.072 469.906 627.172 469.954 627.243 470.031C627.313 470.109 627.349 470.21 627.344 470.312L625.281 511.282C625.276 511.384 625.23 511.481 625.152 511.551C625.074 511.621 624.97 511.658 624.863 511.653C624.756 511.647 624.656 511.6 624.586 511.523C624.515 511.445 624.479 511.344 624.484 511.242L626.547 470.272C626.553 470.17 626.598 470.073 626.676 470.003C626.754 469.933 626.858 469.896 626.965 469.901ZM605.144 474.16C605.251 474.165 605.351 474.212 605.422 474.29C605.492 474.367 605.528 474.469 605.523 474.571L603.999 504.853C603.993 504.955 603.947 505.052 603.87 505.122C603.791 505.192 603.687 505.229 603.58 505.224C603.473 505.218 603.374 505.171 603.303 505.094C603.232 505.016 603.196 504.915 603.201 504.813L604.725 474.531C604.731 474.428 604.777 474.331 604.855 474.262C604.934 474.192 605.037 474.154 605.144 474.16ZM631.995 477.297C632.102 477.303 632.201 477.35 632.272 477.427C632.342 477.505 632.378 477.607 632.373 477.709L631.028 504.428C631.022 504.531 630.977 504.628 630.899 504.698C630.821 504.768 630.717 504.805 630.61 504.799C630.503 504.794 630.403 504.747 630.332 504.669C630.262 504.592 630.226 504.491 630.231 504.388L631.576 477.669C631.581 477.567 631.627 477.469 631.705 477.399C631.783 477.329 631.888 477.292 631.995 477.297ZM610.173 481.556C610.28 481.561 610.38 481.609 610.451 481.686C610.522 481.764 610.557 481.865 610.552 481.968L609.745 497.999C609.74 498.102 609.694 498.199 609.616 498.269C609.538 498.339 609.433 498.376 609.326 498.37C609.22 498.365 609.12 498.317 609.049 498.24C608.979 498.163 608.943 498.062 608.948 497.959L609.755 481.928C609.761 481.825 609.806 481.728 609.884 481.658C609.962 481.588 610.066 481.55 610.173 481.556ZM620.949 482.098C621.056 482.104 621.156 482.151 621.226 482.229C621.297 482.306 621.334 482.408 621.329 482.511L620.521 498.542C620.516 498.644 620.469 498.741 620.391 498.811C620.313 498.881 620.21 498.918 620.103 498.913C619.996 498.908 619.896 498.86 619.825 498.783C619.754 498.705 619.718 498.604 619.724 498.502L620.531 482.47C620.536 482.368 620.582 482.27 620.66 482.2C620.738 482.13 620.842 482.093 620.949 482.098ZM599.308 482.795C599.415 482.801 599.514 482.848 599.585 482.925C599.656 483.003 599.691 483.104 599.686 483.206L599.058 495.675C599.053 495.777 599.007 495.875 598.929 495.945C598.851 496.015 598.747 496.052 598.641 496.047C598.534 496.041 598.433 495.994 598.363 495.917C598.292 495.839 598.256 495.737 598.261 495.635L598.889 483.166C598.894 483.064 598.94 482.967 599.018 482.897C599.096 482.827 599.201 482.79 599.308 482.795ZM637.024 484.694C637.131 484.7 637.23 484.747 637.301 484.825C637.371 484.902 637.408 485.003 637.403 485.105L636.775 497.574C636.77 497.676 636.723 497.774 636.645 497.844C636.567 497.914 636.463 497.951 636.357 497.946C636.25 497.941 636.149 497.893 636.079 497.816C636.008 497.738 635.972 497.636 635.977 497.534L636.605 485.065C636.61 484.963 636.656 484.866 636.734 484.796C636.812 484.726 636.917 484.689 637.024 484.694ZM615.293 487.171C615.399 487.176 615.499 487.224 615.57 487.301C615.64 487.379 615.676 487.481 615.671 487.583L615.402 492.927C615.397 493.029 615.351 493.126 615.273 493.196C615.195 493.266 615.091 493.303 614.984 493.298C614.877 493.293 614.777 493.245 614.706 493.168C614.636 493.09 614.6 492.989 614.605 492.887L614.874 487.543C614.879 487.44 614.925 487.343 615.003 487.273C615.081 487.203 615.186 487.166 615.293 487.171Z" fill="#B95684" stroke="#B95584"/>
<circle cx="651" cy="492" r="108" fill="url(#paint16_radial_407_369)"/>
<mask id="mask0_407_369" style="mask-type:alpha" maskUnits="userSpaceOnUse" x="615" y="453" width="89" height="86">
<path fill-rule="evenodd" clip-rule="evenodd" d="M624.175 460.068C634.995 450.321 651.283 452.329 659.51 464.424L660.803 466.325L662.386 464.657C672.454 454.045 688.852 454.686 697.961 466.048C706.585 476.805 705.272 493.006 695.029 502.234L654.968 538.322L654.968 538.322L654.952 538.301L621.242 496.254C612.618 485.497 613.931 469.296 624.175 460.068Z" fill="url(#paint17_linear_407_369)"/>
<path fill-rule="evenodd" clip-rule="evenodd" d="M624.175 460.068C634.995 450.321 651.283 452.329 659.51 464.424L660.803 466.325L662.386 464.657C672.454 454.045 688.852 454.686 697.961 466.048C706.585 476.805 705.272 493.006 695.029 502.234L654.968 538.322L654.968 538.322L654.952 538.301L621.242 496.254C612.618 485.497 613.931 469.296 624.175 460.068Z" fill="#ED5D5D" fill-opacity="0.2"/>
</mask>
<g mask="url(#mask0_407_369)">
<g filter="url(#filter0_di_407_369)">
<path fill-rule="evenodd" clip-rule="evenodd" d="M624.175 460.068C634.995 450.321 651.283 452.329 659.51 464.424L660.804 466.325L662.386 464.657C672.454 454.045 688.852 454.686 697.962 466.048C706.585 476.805 705.272 493.006 695.029 502.234L654.969 538.322L654.968 538.322L654.952 538.301L621.242 496.254C612.619 485.497 613.932 469.296 624.175 460.068Z" fill="url(#paint18_linear_407_369)"/>
<path fill-rule="evenodd" clip-rule="evenodd" d="M624.175 460.068C634.995 450.321 651.283 452.329 659.51 464.424L660.804 466.325L662.386 464.657C672.454 454.045 688.852 454.686 697.962 466.048C706.585 476.805 705.272 493.006 695.029 502.234L654.969 538.322L654.968 538.322L654.952 538.301L621.242 496.254C612.619 485.497 613.932 469.296 624.175 460.068Z" fill="#ED5D5D" fill-opacity="0.2"/>
</g>
<path d="M668.965 471.901C669.072 471.906 669.172 471.954 669.243 472.031C669.313 472.109 669.349 472.21 669.344 472.312L667.281 513.282C667.276 513.384 667.23 513.481 667.152 513.551C667.074 513.621 666.97 513.658 666.863 513.653C666.756 513.647 666.656 513.6 666.586 513.523C666.515 513.445 666.479 513.344 666.484 513.242L668.547 472.272C668.553 472.17 668.598 472.073 668.676 472.003C668.754 471.933 668.858 471.896 668.965 471.901ZM647.144 476.16C647.251 476.165 647.351 476.212 647.422 476.29C647.492 476.367 647.528 476.469 647.523 476.571L645.999 506.853C645.993 506.955 645.947 507.052 645.87 507.122C645.791 507.192 645.687 507.229 645.58 507.224C645.473 507.218 645.374 507.171 645.303 507.094C645.232 507.016 645.196 506.915 645.201 506.813L646.725 476.531C646.731 476.428 646.777 476.331 646.855 476.262C646.934 476.192 647.037 476.154 647.144 476.16ZM673.995 479.297C674.102 479.303 674.201 479.35 674.272 479.427C674.342 479.505 674.378 479.607 674.373 479.709L673.028 506.428C673.022 506.531 672.977 506.628 672.899 506.698C672.821 506.768 672.717 506.805 672.61 506.799C672.503 506.794 672.403 506.747 672.332 506.669C672.262 506.592 672.226 506.491 672.231 506.388L673.576 479.669C673.581 479.567 673.627 479.469 673.705 479.399C673.783 479.329 673.888 479.292 673.995 479.297ZM652.173 483.556C652.28 483.561 652.38 483.609 652.451 483.686C652.522 483.764 652.557 483.865 652.552 483.968L651.745 499.999C651.74 500.102 651.694 500.199 651.616 500.269C651.538 500.339 651.433 500.376 651.326 500.37C651.22 500.365 651.12 500.317 651.049 500.24C650.979 500.163 650.943 500.062 650.948 499.959L651.755 483.928C651.761 483.825 651.806 483.728 651.884 483.658C651.962 483.588 652.066 483.55 652.173 483.556ZM662.949 484.098C663.056 484.104 663.156 484.151 663.226 484.229C663.297 484.306 663.334 484.408 663.329 484.511L662.521 500.542C662.516 500.644 662.469 500.741 662.391 500.811C662.313 500.881 662.21 500.918 662.103 500.913C661.996 500.908 661.896 500.86 661.825 500.783C661.754 500.705 661.718 500.604 661.724 500.502L662.531 484.47C662.536 484.368 662.582 484.27 662.66 484.2C662.738 484.13 662.842 484.093 662.949 484.098ZM641.308 484.795C641.415 484.801 641.514 484.848 641.585 484.925C641.656 485.003 641.691 485.104 641.686 485.206L641.058 497.675C641.053 497.777 641.007 497.875 640.929 497.945C640.851 498.015 640.747 498.052 640.641 498.047C640.534 498.041 640.433 497.994 640.363 497.917C640.292 497.839 640.256 497.737 640.261 497.635L640.889 485.166C640.894 485.064 640.94 484.967 641.018 484.897C641.096 484.827 641.201 484.79 641.308 484.795ZM679.024 486.694C679.131 486.7 679.23 486.747 679.301 486.825C679.371 486.902 679.408 487.003 679.403 487.105L678.775 499.574C678.77 499.676 678.723 499.774 678.645 499.844C678.567 499.914 678.463 499.951 678.357 499.946C678.25 499.941 678.149 499.893 678.079 499.816C678.008 499.738 677.972 499.636 677.977 499.534L678.605 487.065C678.61 486.963 678.656 486.866 678.734 486.796C678.812 486.726 678.917 486.689 679.024 486.694ZM657.293 489.171C657.399 489.176 657.499 489.224 657.57 489.301C657.64 489.379 657.676 489.481 657.671 489.583L657.402 494.927C657.397 495.029 657.351 495.126 657.273 495.196C657.195 495.266 657.091 495.303 656.984 495.298C656.877 495.293 656.777 495.245 656.706 495.168C656.636 495.09 656.6 494.989 656.605 494.887L656.874 489.543C656.879 489.44 656.925 489.343 657.003 489.273C657.081 489.203 657.186 489.166 657.293 489.171Z" fill="#DE7BA0" stroke="#DE7BA0"/>
<path d="M711.965 473.901C712.072 473.906 712.172 473.954 712.243 474.031C712.313 474.109 712.349 474.21 712.344 474.312L710.281 515.282C710.276 515.384 710.23 515.481 710.152 515.551C710.074 515.621 709.97 515.658 709.863 515.653C709.756 515.647 709.656 515.6 709.586 515.523C709.515 515.445 709.479 515.344 709.484 515.242L711.547 474.272C711.553 474.17 711.598 474.073 711.676 474.003C711.754 473.933 711.858 473.896 711.965 473.901ZM690.144 478.16C690.251 478.165 690.351 478.212 690.422 478.29C690.492 478.367 690.528 478.469 690.523 478.571L688.999 508.853C688.993 508.955 688.947 509.052 688.87 509.122C688.791 509.192 688.687 509.229 688.58 509.224C688.473 509.218 688.374 509.171 688.303 509.094C688.232 509.016 688.196 508.915 688.201 508.813L689.725 478.531C689.731 478.428 689.777 478.331 689.855 478.262C689.934 478.192 690.037 478.154 690.144 478.16ZM716.995 481.297C717.102 481.303 717.201 481.35 717.272 481.427C717.342 481.505 717.378 481.607 717.373 481.709L716.028 508.428C716.022 508.531 715.977 508.628 715.899 508.698C715.821 508.768 715.717 508.805 715.61 508.799C715.503 508.794 715.403 508.747 715.332 508.669C715.262 508.592 715.226 508.491 715.231 508.388L716.576 481.669C716.581 481.567 716.627 481.469 716.705 481.399C716.783 481.329 716.888 481.292 716.995 481.297ZM695.173 485.556C695.28 485.561 695.38 485.609 695.451 485.686C695.522 485.764 695.557 485.865 695.552 485.968L694.745 501.999C694.74 502.102 694.694 502.199 694.616 502.269C694.538 502.339 694.433 502.376 694.326 502.37C694.22 502.365 694.12 502.317 694.049 502.24C693.979 502.163 693.943 502.062 693.948 501.959L694.755 485.928C694.761 485.825 694.806 485.728 694.884 485.658C694.962 485.588 695.066 485.55 695.173 485.556ZM705.949 486.098C706.056 486.104 706.156 486.151 706.226 486.229C706.297 486.306 706.334 486.408 706.329 486.511L705.521 502.542C705.516 502.644 705.469 502.741 705.391 502.811C705.313 502.881 705.21 502.918 705.103 502.913C704.996 502.908 704.896 502.86 704.825 502.783C704.754 502.705 704.718 502.604 704.724 502.502L705.531 486.47C705.536 486.368 705.582 486.27 705.66 486.2C705.738 486.13 705.842 486.093 705.949 486.098ZM684.308 486.795C684.415 486.801 684.514 486.848 684.585 486.925C684.656 487.003 684.691 487.104 684.686 487.206L684.058 499.675C684.053 499.777 684.007 499.875 683.929 499.945C683.851 500.015 683.747 500.052 683.641 500.047C683.534 500.041 683.433 499.994 683.363 499.917C683.292 499.839 683.256 499.737 683.261 499.635L683.889 487.166C683.894 487.064 683.94 486.967 684.018 486.897C684.096 486.827 684.201 486.79 684.308 486.795ZM722.024 488.694C722.131 488.7 722.23 488.747 722.301 488.825C722.371 488.902 722.408 489.003 722.403 489.105L721.775 501.574C721.77 501.676 721.723 501.774 721.645 501.844C721.567 501.914 721.463 501.951 721.357 501.946C721.25 501.941 721.149 501.893 721.079 501.816C721.008 501.738 720.972 501.636 720.977 501.534L721.605 489.065C721.61 488.963 721.656 488.866 721.734 488.796C721.812 488.726 721.917 488.689 722.024 488.694ZM700.293 491.171C700.399 491.176 700.499 491.224 700.57 491.301C700.64 491.379 700.676 491.481 700.671 491.583L700.402 496.927C700.397 497.029 700.351 497.126 700.273 497.196C700.195 497.266 700.091 497.303 699.984 497.298C699.877 497.293 699.777 497.245 699.706 497.168C699.636 497.09 699.6 496.989 699.605 496.887L699.874 491.543C699.879 491.44 699.925 491.343 700.003 491.273C700.081 491.203 700.186 491.166 700.293 491.171Z" fill="#DE7BA0" stroke="#DE7BA0"/>
<path d="M626.965 469.901C627.072 469.906 627.172 469.954 627.243 470.031C627.313 470.109 627.349 470.21 627.344 470.312L625.281 511.282C625.276 511.384 625.23 511.481 625.152 511.551C625.074 511.621 624.97 511.658 624.863 511.653C624.756 511.647 624.656 511.6 624.586 511.523C624.515 511.445 624.479 511.344 624.484 511.242L626.547 470.272C626.553 470.17 626.598 470.073 626.676 470.003C626.754 469.933 626.858 469.896 626.965 469.901ZM605.144 474.16C605.251 474.165 605.351 474.212 605.422 474.29C605.492 474.367 605.528 474.469 605.523 474.571L603.999 504.853C603.993 504.955 603.947 505.052 603.87 505.122C603.791 505.192 603.687 505.229 603.58 505.224C603.473 505.218 603.374 505.171 603.303 505.094C603.232 505.016 603.196 504.915 603.201 504.813L604.725 474.531C604.731 474.428 604.777 474.331 604.855 474.262C604.934 474.192 605.037 474.154 605.144 474.16ZM631.995 477.297C632.102 477.303 632.201 477.35 632.272 477.427C632.342 477.505 632.378 477.607 632.373 477.709L631.028 504.428C631.022 504.531 630.977 504.628 630.899 504.698C630.821 504.768 630.717 504.805 630.61 504.799C630.503 504.794 630.403 504.747 630.332 504.669C630.262 504.592 630.226 504.491 630.231 504.388L631.576 477.669C631.581 477.567 631.627 477.469 631.705 477.399C631.783 477.329 631.888 477.292 631.995 477.297ZM610.173 481.556C610.28 481.561 610.38 481.609 610.451 481.686C610.522 481.764 610.557 481.865 610.552 481.968L609.745 497.999C609.74 498.102 609.694 498.199 609.616 498.269C609.538 498.339 609.433 498.376 609.326 498.37C609.22 498.365 609.12 498.317 609.049 498.24C608.979 498.163 608.943 498.062 608.948 497.959L609.755 481.928C609.761 481.825 609.806 481.728 609.884 481.658C609.962 481.588 610.066 481.55 610.173 481.556ZM620.949 482.098C621.056 482.104 621.156 482.151 621.226 482.229C621.297 482.306 621.334 482.408 621.329 482.511L620.521 498.542C620.516 498.644 620.469 498.741 620.391 498.811C620.313 498.881 620.21 498.918 620.103 498.913C619.996 498.908 619.896 498.86 619.825 498.783C619.754 498.705 619.718 498.604 619.724 498.502L620.531 482.47C620.536 482.368 620.582 482.27 620.66 482.2C620.738 482.13 620.842 482.093 620.949 482.098ZM599.308 482.795C599.415 482.801 599.514 482.848 599.585 482.925C599.656 483.003 599.691 483.104 599.686 483.206L599.058 495.675C599.053 495.777 599.007 495.875 598.929 495.945C598.851 496.015 598.747 496.052 598.641 496.047C598.534 496.041 598.433 495.994 598.363 495.917C598.292 495.839 598.256 495.737 598.261 495.635L598.889 483.166C598.894 483.064 598.94 482.967 599.018 482.897C599.096 482.827 599.201 482.79 599.308 482.795ZM637.024 484.694C637.131 484.7 637.23 484.747 637.301 484.825C637.371 484.902 637.408 485.003 637.403 485.105L636.775 497.574C636.77 497.676 636.723 497.774 636.645 497.844C636.567 497.914 636.463 497.951 636.357 497.946C636.25 497.941 636.149 497.893 636.079 497.816C636.008 497.738 635.972 497.636 635.977 497.534L636.605 485.065C636.61 484.963 636.656 484.866 636.734 484.796C636.812 484.726 636.917 484.689 637.024 484.694ZM615.293 487.171C615.399 487.176 615.499 487.224 615.57 487.301C615.64 487.379 615.676 487.481 615.671 487.583L615.402 492.927C615.397 493.029 615.351 493.126 615.273 493.196C615.195 493.266 615.091 493.303 614.984 493.298C614.877 493.293 614.777 493.245 614.706 493.168C614.636 493.09 614.6 492.989 614.605 492.887L614.874 487.543C614.879 487.44 614.925 487.343 615.003 487.273C615.081 487.203 615.186 487.166 615.293 487.171Z" fill="#DE7BA0" stroke="#DE7BA0"/>
</g>
<g filter="url(#filter1_d_407_369)">
<path d="M277.277 401.462L304.961 377.181L234.684 337.651L277.563 379.684L245.85 406.227L352.595 449.75L277.277 401.462Z" fill="url(#paint19_linear_407_369)"/>
</g>
<g filter="url(#filter2_d_407_369)">
<path d="M374.516 316.694L336.802 334.299L327.855 243.604L351.85 307.086L393.737 286.341L390.233 416.587L374.516 316.694Z" fill="url(#paint20_linear_407_369)"/>
</g>
<g filter="url(#filter3_d_407_369)">
<path d="M216.117 511.134L229.137 550.665L138.02 548.821L203.895 532.504L188.251 488.457L317.168 507.344L216.117 511.134Z" fill="url(#paint21_linear_407_369)"/>
</g>
<g filter="url(#filter4_d_407_369)">
<path d="M1054.76 394.462L1027.07 370.181L1097.35 330.651L1054.47 372.684L1086.18 399.227L979.437 442.75L1054.76 394.462Z" fill="url(#paint22_linear_407_369)"/>
</g>
<g filter="url(#filter5_d_407_369)">
<path d="M957.516 309.694L995.23 327.299L1004.18 236.604L980.182 300.086L938.295 279.341L941.799 409.587L957.516 309.694Z" fill="url(#paint23_linear_407_369)"/>
</g>
<g filter="url(#filter6_d_407_369)">
<path d="M1115.92 504.134L1102.9 543.665L1194.01 541.821L1128.14 525.504L1143.78 481.457L1014.86 500.344L1115.92 504.134Z" fill="url(#paint24_linear_407_369)"/>
</g>
<path d="M636 320C636 320 642.799 330.513 650.753 330.318C657.467 330.154 668.224 324.968 668.224 324.968C668.224 324.968 680.111 333.266 687.635 332.993C694.615 332.741 702 324.968 702 324.968" stroke="#434343" stroke-width="4"/>
<path d="M599.294 232.34C605.206 220.969 624.309 214.544 640.252 221.052" stroke="#434343" stroke-width="4"/>
<path d="M705.879 228.2C716.228 220.641 736.198 223.374 747.587 236.289" stroke="#434343" stroke-width="4"/>
<path d="M572 319.5L584.5 306" stroke="#C3598C" stroke-width="6"/>
<path d="M584.5 322L597 308.5" stroke="#C3598C" stroke-width="6"/>
<path d="M598.5 324L611 310.5" stroke="#C3598C" stroke-width="6"/>
<path d="M721 326.5L733.5 313" stroke="#C3598C" stroke-width="6"/>
<path d="M733.5 329L746 315.5" stroke="#C3598C" stroke-width="6"/>
<path d="M747.5 331L760 317.5" stroke="#C3598C" stroke-width="6"/>
<path d="M637.391 295.628C637.924 285.869 630.421 277.499 620.662 276.966C610.902 276.433 602.533 283.937 602 293.696L608.058 294.027C608.135 292.494 608.514 290.992 609.174 289.607C609.835 288.222 610.763 286.981 611.906 285.957C613.048 284.932 614.382 284.146 615.831 283.64C617.279 283.135 618.814 282.92 620.346 283.011C623.58 283.187 626.401 284.648 628.397 286.874C630.463 289.178 631.529 292.209 631.36 295.299L637.391 295.628ZM742.428 301.363C742.961 291.604 735.458 283.234 725.698 282.701C715.939 282.168 707.569 289.672 707.036 299.431L713.095 299.762C713.171 298.229 713.551 296.727 714.211 295.342C714.871 293.957 715.799 292.716 716.942 291.692C718.084 290.667 719.419 289.881 720.867 289.375C722.316 288.87 723.85 288.655 725.382 288.746C728.617 288.922 731.438 290.383 733.434 292.609C735.499 294.913 736.565 297.944 736.397 301.034L742.428 301.363Z" fill="#444444"/>
</g>
<defs>
<filter id="filter0_di_407_369" x="611.544" y="453.883" width="96.1157" height="92.4414" filterUnits="userSpaceOnUse" color-interpolation-filters="sRGB">
<feFlood flood-opacity="0" result="BackgroundImageFix"/>
<feColorMatrix in="SourceAlpha" type="matrix" values="0 0 0 0 0 0 0 0 0 0 0 0 0 0 0 0 0 0 127 0" result="hardAlpha"/>
<feOffset dy="4"/>
<feGaussianBlur stdDeviation="2"/>
<feComposite in2="hardAlpha" operator="out"/>
<feColorMatrix type="matrix" values="0 0 0 0 0 0 0 0 0 0 0 0 0 0 0 0 0 0 0.25 0"/>
<feBlend mode="normal" in2="BackgroundImageFix" result="effect1_dropShadow_407_369"/>
<feBlend mode="normal" in="SourceGraphic" in2="effect1_dropShadow_407_369" result="shape"/>
<feColorMatrix in="SourceAlpha" type="matrix" values="0 0 0 0 0 0 0 0 0 0 0 0 0 0 0 0 0 0 127 0" result="hardAlpha"/>
<feOffset dy="3"/>
<feGaussianBlur stdDeviation="5.3"/>
<feComposite in2="hardAlpha" operator="arithmetic" k2="-1" k3="1"/>
<feColorMatrix type="matrix" values="0 0 0 0 0.982215 0 0 0 0 0.83983 0 0 0 0 0.899157 0 0 0 0.25 0"/>
<feBlend mode="normal" in2="shape" result="effect2_innerShadow_407_369"/>
</filter>
<filter id="filter1_d_407_369" x="212.284" y="315.252" width="162.711" height="156.898" filterUnits="userSpaceOnUse" color-interpolation-filters="sRGB">
<feFlood flood-opacity="0" result="BackgroundImageFix"/>
<feColorMatrix in="SourceAlpha" type="matrix" values="0 0 0 0 0 0 0 0 0 0 0 0 0 0 0 0 0 0 127 0" result="hardAlpha"/>
<feOffset/>
<feGaussianBlur stdDeviation="11.2"/>
<feComposite in2="hardAlpha" operator="out"/>
<feColorMatrix type="matrix" values="0 0 0 0 1 0 0 0 0 0.904041 0 0 0 0 0.760104 0 0 0 0.4 0"/>
<feBlend mode="normal" in2="BackgroundImageFix" result="effect1_dropShadow_407_369"/>
<feBlend mode="normal" in="SourceGraphic" in2="effect1_dropShadow_407_369" result="shape"/>
</filter>
<filter id="filter2_d_407_369" x="305.454" y="221.205" width="110.683" height="217.78" filterUnits="userSpaceOnUse" color-interpolation-filters="sRGB">
<feFlood flood-opacity="0" result="BackgroundImageFix"/>
<feColorMatrix in="SourceAlpha" type="matrix" values="0 0 0 0 0 0 0 0 0 0 0 0 0 0 0 0 0 0 127 0" result="hardAlpha"/>
<feOffset/>
<feGaussianBlur stdDeviation="11.2"/>
<feComposite in2="hardAlpha" operator="out"/>
<feColorMatrix type="matrix" values="0 0 0 0 1 0 0 0 0 0.904041 0 0 0 0 0.760104 0 0 0 0.4 0"/>
<feBlend mode="normal" in2="BackgroundImageFix" result="effect1_dropShadow_407_369"/>
<feBlend mode="normal" in="SourceGraphic" in2="effect1_dropShadow_407_369" result="shape"/>
</filter>
<filter id="filter3_d_407_369" x="115.621" y="466.057" width="223.948" height="107.007" filterUnits="userSpaceOnUse" color-interpolation-filters="sRGB">
<feFlood flood-opacity="0" result="BackgroundImageFix"/>
<feColorMatrix in="SourceAlpha" type="matrix" values="0 0 0 0 0 0 0 0 0 0 0 0 0 0 0 0 0 0 127 0" result="hardAlpha"/>
<feOffset/>
<feGaussianBlur stdDeviation="11.2"/>
<feComposite in2="hardAlpha" operator="out"/>
<feColorMatrix type="matrix" values="0 0 0 0 1 0 0 0 0 0.904041 0 0 0 0 0.760104 0 0 0 0.4 0"/>
<feBlend mode="normal" in2="BackgroundImageFix" result="effect1_dropShadow_407_369"/>
<feBlend mode="normal" in="SourceGraphic" in2="effect1_dropShadow_407_369" result="shape"/>
</filter>
<filter id="filter4_d_407_369" x="957.037" y="308.252" width="162.711" height="156.898" filterUnits="userSpaceOnUse" color-interpolation-filters="sRGB">
<feFlood flood-opacity="0" result="BackgroundImageFix"/>
<feColorMatrix in="SourceAlpha" type="matrix" values="0 0 0 0 0 0 0 0 0 0 0 0 0 0 0 0 0 0 127 0" result="hardAlpha"/>
<feOffset/>
<feGaussianBlur stdDeviation="11.2"/>
<feComposite in2="hardAlpha" operator="out"/>
<feColorMatrix type="matrix" values="0 0 0 0 1 0 0 0 0 0.904041 0 0 0 0 0.760104 0 0 0 0.4 0"/>
<feBlend mode="normal" in2="BackgroundImageFix" result="effect1_dropShadow_407_369"/>
<feBlend mode="normal" in="SourceGraphic" in2="effect1_dropShadow_407_369" result="shape"/>
</filter>
<filter id="filter5_d_407_369" x="915.895" y="214.205" width="110.683" height="217.78" filterUnits="userSpaceOnUse" color-interpolation-filters="sRGB">
<feFlood flood-opacity="0" result="BackgroundImageFix"/>
<feColorMatrix in="SourceAlpha" type="matrix" values="0 0 0 0 0 0 0 0 0 0 0 0 0 0 0 0 0 0 127 0" result="hardAlpha"/>
<feOffset/>
<feGaussianBlur stdDeviation="11.2"/>
<feComposite in2="hardAlpha" operator="out"/>
<feColorMatrix type="matrix" values="0 0 0 0 1 0 0 0 0 0.904041 0 0 0 0 0.760104 0 0 0 0.4 0"/>
<feBlend mode="normal" in2="BackgroundImageFix" result="effect1_dropShadow_407_369"/>
<feBlend mode="normal" in="SourceGraphic" in2="effect1_dropShadow_407_369" result="shape"/>
</filter>
<filter id="filter6_d_407_369" x="992.464" y="459.057" width="223.948" height="107.007" filterUnits="userSpaceOnUse" color-interpolation-filters="sRGB">
<feFlood flood-opacity="0" result="BackgroundImageFix"/>
<feColorMatrix in="SourceAlpha" type="matrix" values="0 0 0 0 0 0 0 0 0 0 0 0 0 0 0 0 0 0 127 0" result="hardAlpha"/>
<feOffset/>
<feGaussianBlur stdDeviation="11.2"/>
<feComposite in2="hardAlpha" operator="out"/>
<feColorMatrix type="matrix" values="0 0 0 0 1 0 0 0 0 0.904041 0 0 0 0 0.760104 0 0 0 0.4 0"/>
<feBlend mode="normal" in2="BackgroundImageFix" result="effect1_dropShadow_407_369"/>
<feBlend mode="normal" in="SourceGraphic" in2="effect1_dropShadow_407_369" result="shape"/>
</filter>
<linearGradient id="paint0_linear_407_369" x1="640" y1="0" x2="640" y2="720" gradientUnits="userSpaceOnUse">
<stop stop-color="#3397FF"/>
<stop offset="1" stop-color="#35BFFF"/>
</linearGradient>
<radialGradient id="paint1_radial_407_369" cx="0" cy="0" r="1" gradientUnits="userSpaceOnUse" gradientTransform="translate(668.5 455.5) rotate(90) scale(521.5)">
<stop stop-color="#FFADCE"/>
<stop offset="1" stop-color="#E4C8DE" stop-opacity="0"/>
</radialGradient>
<linearGradient id="paint2_linear_407_369" x1="841.581" y1="207.819" x2="834.467" y2="381.071" gradientUnits="userSpaceOnUse">
<stop stop-color="#3E3E3E"/>
<stop offset="1" stop-color="#717171"/>
</linearGradient>
<linearGradient id="paint3_linear_407_369" x1="502.632" y1="193.166" x2="494.703" y2="367.377" gradientUnits="userSpaceOnUse">
<stop stop-color="#3E3E3E"/>
<stop offset="1" stop-color="#717171"/>
</linearGradient>
<linearGradient id="paint4_linear_407_369" x1="672.832" y1="194.824" x2="672.832" y2="369.39" gradientUnits="userSpaceOnUse">
<stop stop-color="#D9D9D9"/>
<stop offset="1" stop-color="#CAB6B6"/>
</linearGradient>
<linearGradient id="paint5_linear_407_369" x1="658.721" y1="395.125" x2="658.721" y2="694.841" gradientUnits="userSpaceOnUse">
<stop stop-color="#D8D7D7"/>
<stop offset="1" stop-color="#CBB8B8"/>
</linearGradient>
<linearGradient id="paint6_linear_407_369" x1="512.122" y1="489.995" x2="683.923" y2="591.994" gradientUnits="userSpaceOnUse">
<stop stop-color="#D7D6D6"/>
<stop offset="1" stop-color="#ADACAC"/>
</linearGradient>
<linearGradient id="paint7_linear_407_369" x1="429.953" y1="501.267" x2="429.953" y2="556.826" gradientUnits="userSpaceOnUse">
<stop stop-color="#CDCDCD"/>
<stop offset="1" stop-color="#CBB8B8"/>
</linearGradient>
<linearGradient id="paint8_linear_407_369" x1="555.153" y1="386.072" x2="555.153" y2="441.631" gradientUnits="userSpaceOnUse">
<stop stop-color="#CDCDCD"/>
<stop offset="1" stop-color="#CBB8B8"/>
</linearGradient>
<linearGradient id="paint9_linear_407_369" x1="565.647" y1="550.136" x2="580.138" y2="624.598" gradientUnits="userSpaceOnUse">
<stop stop-color="#C3C3C3"/>
<stop offset="1" stop-color="#B4A4A4"/>
</linearGradient>
<linearGradient id="paint10_linear_407_369" x1="809.101" y1="495.109" x2="649.791" y2="615.689" gradientUnits="userSpaceOnUse">
<stop stop-color="#D7D6D6"/>
<stop offset="1" stop-color="#ADACAC"/>
</linearGradient>
<linearGradient id="paint11_linear_407_369" x1="27.7795" y1="0" x2="27.7795" y2="55.5589" gradientUnits="userSpaceOnUse">
<stop stop-color="#CDCDCD"/>
<stop offset="1" stop-color="#CBB8B8"/>
</linearGradient>
<linearGradient id="paint12_linear_407_369" x1="27.7795" y1="0" x2="27.7795" y2="55.5589" gradientUnits="userSpaceOnUse">
<stop stop-color="#CDCDCD"/>
<stop offset="1" stop-color="#CBB8B8"/>
</linearGradient>
<linearGradient id="paint13_linear_407_369" x1="740.335" y1="559.505" x2="734.266" y2="635.122" gradientUnits="userSpaceOnUse">
<stop stop-color="#C3C3C3"/>
<stop offset="1" stop-color="#B4A4A4"/>
</linearGradient>
<linearGradient id="paint14_linear_407_369" x1="742.348" y1="672.349" x2="742.348" y2="727.908" gradientUnits="userSpaceOnUse">
<stop stop-color="#CDCDCD"/>
<stop offset="1" stop-color="#CBB9B8"/>
</linearGradient>
<linearGradient id="paint15_linear_407_369" x1="545.346" y1="670.564" x2="545.346" y2="726.123" gradientUnits="userSpaceOnUse">
<stop stop-color="#CDCDCD"/>
<stop offset="1" stop-color="#CBB9B8"/>
</linearGradient>
<radialGradient id="paint16_radial_407_369" cx="0" cy="0" r="1" gradientUnits="userSpaceOnUse" gradientTransform="translate(651 492) rotate(90) scale(108)">
<stop stop-color="#DF88B2"/>
<stop offset="1" stop-color="#DF88B2" stop-opacity="0"/>
</radialGradient>
<linearGradient id="paint17_linear_407_369" x1="661.675" y1="455.563" x2="654.968" y2="538.322" gradientUnits="userSpaceOnUse">
<stop stop-color="#DA78A7"/>
<stop offset="1" stop-color="#A44C89"/>
</linearGradient>
<linearGradient id="paint18_linear_407_369" x1="661.676" y1="455.563" x2="654.969" y2="538.322" gradientUnits="userSpaceOnUse">
<stop stop-color="#DA78A7"/>
<stop offset="1" stop-color="#A44C89"/>
</linearGradient>
<linearGradient id="paint19_linear_407_369" x1="230.905" y1="340.966" x2="337.742" y2="462.777" gradientUnits="userSpaceOnUse">
<stop stop-color="#DA7198"/>
<stop offset="1" stop-color="#FDC0D7"/>
</linearGradient>
<linearGradient id="paint20_linear_407_369" x1="333.003" y1="241.201" x2="410.467" y2="407.142" gradientUnits="userSpaceOnUse">
<stop stop-color="#DA7198"/>
<stop offset="1" stop-color="#FDC0D7"/>
</linearGradient>
<linearGradient id="paint21_linear_407_369" x1="136.243" y1="543.424" x2="310.182" y2="486.134" gradientUnits="userSpaceOnUse">
<stop stop-color="#DA7198"/>
<stop offset="1" stop-color="#FDC0D7"/>
</linearGradient>
<linearGradient id="paint22_linear_407_369" x1="1101.13" y1="333.966" x2="994.29" y2="455.777" gradientUnits="userSpaceOnUse">
<stop stop-color="#DA7198"/>
<stop offset="1" stop-color="#FDC0D7"/>
</linearGradient>
<linearGradient id="paint23_linear_407_369" x1="999.029" y1="234.201" x2="921.565" y2="400.142" gradientUnits="userSpaceOnUse">
<stop stop-color="#DA7198"/>
<stop offset="1" stop-color="#FDC0D7"/>
</linearGradient>
<linearGradient id="paint24_linear_407_369" x1="1195.79" y1="536.424" x2="1021.85" y2="479.134" gradientUnits="userSpaceOnUse">
<stop stop-color="#DA7198"/>
<stop offset="1" stop-color="#FDC0D7"/>
</linearGradient>
<clipPath id="clip0_407_369">
<rect width="1280" height="720" fill="white"/>
</clipPath>
</defs>
</svg>
