<svg width="1280" height="720" viewBox="0 0 1280 720" fill="none" xmlns="http://www.w3.org/2000/svg">
<g clip-path="url(#clip0_410_4445)">
<rect width="1280" height="720" fill="url(#paint0_linear_410_4445)"/>
<path d="M141.61 84.1333C142.04 83.166 142.179 82.0946 142.011 81.0494C141.844 80.0042 141.375 79.0305 140.664 78.2467C139.952 77.4629 139.028 76.9029 138.004 76.6349C136.98 76.3669 135.9 76.4024 134.896 76.7372C126.97 79.3791 120.65 84.5808 114.853 90.3776C109.026 96.1616 104.401 103.042 101.244 110.621C98.0883 118.201 96.4634 126.33 96.4634 134.541C96.4634 142.751 98.0883 150.881 101.244 158.461C104.401 166.04 109.026 172.92 114.853 178.704C139.514 203.371 177.678 201.962 202.055 177.585C207.852 171.789 213.048 165.468 215.69 157.537C216.014 156.562 216.057 155.515 215.812 154.517C215.568 153.519 215.047 152.611 214.309 151.896C213.571 151.181 212.647 150.688 211.641 150.475C210.636 150.263 209.591 150.338 208.627 150.692C189.032 157.908 166.734 154.699 151.68 139.639C136.577 124.536 133.51 102.353 141.61 84.1333Z" fill="#ECFAFF"/>
<path d="M180.012 118.845C178.985 115.644 178.47 114.04 177.559 112.724C176.748 111.551 175.713 110.548 174.514 109.775C173.17 108.907 171.539 108.44 168.287 107.509L168.271 107.505L163 106L168.271 104.495C171.528 103.567 173.162 103.099 174.514 102.225C175.714 101.448 176.751 100.449 177.559 99.2756C178.477 97.934 178.998 96.3153 180.035 93.0835L182 87L183.965 93.0835L183.988 93.1554C185.015 96.3556 185.53 97.9601 186.441 99.2756C187.252 100.449 188.287 101.452 189.486 102.225C190.83 103.093 192.461 103.56 195.713 104.491L195.729 104.495L201 106L195.729 107.505C192.472 108.433 190.838 108.901 189.486 109.775C188.286 110.552 187.249 111.551 186.441 112.724C185.523 114.066 185.002 115.685 183.965 118.917L182 125L180.035 118.917L180.012 118.845Z" fill="#FFF7F7"/>
<path d="M1009.69 227.752L1282.38 200.951L1286.39 241.754L983.846 271.49L866.465 222.235L595.966 133.267L324.162 138.378L606.426 96.5677L839.778 175.622L688.714 39.2439L882.195 188.032L1009.69 227.752Z" fill="#322128"/>
<path fill-rule="evenodd" clip-rule="evenodd" d="M454.644 445.715C453.907 390.731 497.93 345.543 552.969 344.804C608.001 344.066 653.23 388.056 653.968 443.04C654.265 465.134 647.318 485.631 635.358 502.3L474.81 504.455C462.425 488.094 454.941 467.808 454.644 445.715Z" fill="#292631"/>
<path d="M548.215 114L477 220H624L548.215 114Z" fill="#292631"/>
<path d="M477.617 219.001C467.178 233.605 461 251.464 461 270.754C461 320.051 501.064 360 550.496 360C599.936 360 640 320.051 640 270.753C640 251.464 633.836 233.592 623.384 219L477.617 219.001Z" fill="#292631"/>
<path d="M552 383.001C541.086 383.174 539.5 408.001 539.5 408.001L545 410.001L552 417.501L556.5 412.501L565 408.001C565 408.001 563.003 382.826 552 383.001Z" fill="#B26B61"/>
<path d="M468.813 463.996L540.346 499.859C536.639 535.796 504.836 612.547 454.473 628.5C423.385 578.1 443.946 497.076 468.813 463.996Z" fill="#292631"/>
<path d="M569.701 444.078C569.701 439.958 573.044 436.618 577.168 436.618C578.148 436.618 579.119 436.81 580.024 437.185C580.93 437.56 581.753 438.109 582.446 438.802C583.139 439.495 583.689 440.317 584.064 441.223C584.44 442.128 584.633 443.098 584.633 444.078C584.633 448.188 581.292 451.535 577.168 451.535C573.044 451.535 569.701 448.188 569.701 444.078Z" fill="#FFC93C"/>
<path d="M519.102 444.074C519.102 442.096 519.941 440.198 521.434 438.799C522.927 437.4 524.951 436.613 527.062 436.613C529.174 436.613 531.198 437.4 532.691 438.799C534.184 440.198 535.022 442.096 535.022 444.074C535.022 448.184 531.458 451.531 527.058 451.531C522.669 451.531 519.102 448.184 519.102 444.074Z" fill="#FFC93C"/>
<path d="M566.195 408.233C558.56 408.233 552.366 414.405 552.366 422.043" stroke="#52566D" stroke-width="2.43916" stroke-miterlimit="10"/>
<path d="M538.535 408.238C546.161 408.238 552.366 414.41 552.366 422.048V427.004" stroke="#52566D" stroke-width="2.43916" stroke-miterlimit="10"/>
<path d="M564 433.004C564 431.427 563.702 429.866 563.125 428.409C562.547 426.953 561.702 425.629 560.635 424.515C559.568 423.401 558.301 422.517 556.907 421.914C555.513 421.312 554.019 421.003 552.51 421.004C551 421 549.505 421.308 548.109 421.91C546.713 422.511 545.444 423.394 544.375 424.509C543.306 425.623 542.459 426.948 541.88 428.405C541.301 429.863 541.001 431.426 541 433.004" fill="#52566D"/>
<path d="M564 433.004C564 431.427 563.702 429.866 563.125 428.409C562.547 426.953 561.702 425.629 560.635 424.515C559.568 423.401 558.301 422.517 556.907 421.914C555.513 421.312 554.019 421.003 552.51 421.004C551 421 549.505 421.308 548.109 421.91C546.713 422.511 545.444 423.394 544.375 424.509C543.306 425.623 542.459 426.948 541.88 428.405C541.301 429.863 541.001 431.426 541 433.004" stroke="#52566D" stroke-width="2.43916" stroke-miterlimit="10"/>
<path d="M462.962 600.86C452.744 555.164 459.279 527.642 478.061 491.092C491.78 501.952 498.843 503.266 514.519 508.534C506.992 550.929 489.108 582.03 462.962 600.86Z" fill="#B26B61"/>
<path d="M635.111 463.996L563.578 499.859C567.285 535.796 599.088 612.547 649.45 628.5C680.539 578.1 659.977 497.076 635.111 463.996Z" fill="#292631"/>
<path d="M640.962 600.86C651.18 555.164 644.645 527.642 625.863 491.092C612.144 501.952 605.081 503.266 589.405 508.534C596.931 550.929 614.816 582.03 640.962 600.86Z" fill="#B26B61"/>
<path d="M704.176 464.99C693.5 391 667 351.5 592.5 330L622.5 255C655.5 273.5 688 286 714 255C714 316 779.5 323.5 811 304C811 373 873.506 369.323 895 365.826C867.32 446.416 756.251 465.514 704.176 464.99Z" fill="#292631"/>
<path d="M959.19 525.033C949.654 525.139 945.834 514.773 952.854 507.856C954.398 506.334 958.067 502.229 961.068 498.684C975.861 481.225 986.441 460.661 991.948 438.662C997.456 416.663 997.736 393.849 992.765 372.073C988.017 350.844 978.005 331.205 962.692 313.157C958.506 308.222 955.034 303.53 954.677 302.345C953.3 297.651 956.049 292.717 961.192 290.693C966.723 288.514 968.543 289.469 976.848 298.688C1002.2 326.826 1015.98 363.297 1016.23 402.859C1016.49 444.9 998.015 490.215 968.974 518.828L962.709 525L959.19 525.033Z" fill="#31C0FD"/>
<path d="M935.097 496.586C933.003 497.028 930.836 496.749 928.949 495.797C927.062 494.846 925.567 493.276 924.708 491.344C922.535 486.707 923.532 483.835 929.644 476.933C939.91 465.767 947.711 452.581 952.52 438.265C963.855 404.842 956.921 366.152 935.14 341.275C932.621 338.381 929.68 334.924 928.61 333.534C923.408 326.734 928.352 317.561 937.141 317.699C939.728 317.758 940.779 318.253 943.75 320.931C950.705 327.112 959.957 340.286 965.714 352.176C987.322 396.807 978.842 452.313 944.841 488.876C938.43 495.747 938.093 496.013 935.097 496.586Z" fill="#31C0FD"/>
<path d="M302.087 532.026C311.623 532.121 315.432 521.751 308.404 514.842C306.858 513.322 303.185 509.221 300.18 505.679C285.367 488.237 274.764 467.685 269.232 445.693C263.699 423.7 263.394 400.886 268.34 379.104C273.064 357.87 283.054 338.22 298.347 320.155C302.528 315.214 305.994 310.519 306.349 309.333C307.722 304.637 304.967 299.707 299.822 297.688C294.288 295.516 292.47 296.473 284.175 305.701C258.851 333.868 245.114 370.354 244.909 409.917C244.701 451.958 263.223 497.252 292.296 525.833L298.568 531.998L302.087 532.026Z" fill="#31C0FD"/>
<path d="M326.147 503.555C328.242 503.994 330.408 503.713 332.294 502.759C334.18 501.805 335.673 500.234 336.53 498.301C338.698 493.662 337.698 490.791 331.577 483.896C321.299 472.741 313.484 459.564 308.658 445.254C297.286 411.843 304.177 373.145 325.929 348.244C328.445 345.347 331.382 341.887 332.45 340.496C337.645 333.69 332.691 324.523 323.901 324.671C321.315 324.732 320.264 325.229 317.296 327.91C310.348 334.099 301.111 347.283 295.367 359.18C273.81 403.835 282.352 459.332 316.395 495.856C322.813 502.719 323.15 502.985 326.147 503.555Z" fill="#31C0FD"/>
<path d="M111.761 606.841C110.508 602.938 109.88 600.981 108.768 599.376C107.778 597.944 106.515 596.722 105.052 595.779C103.411 594.72 101.421 594.151 97.452 593.015L97.4329 593.009L91 591.174L97.4329 589.339C101.408 588.206 103.402 587.637 105.052 586.57C106.516 585.623 107.781 584.404 108.768 582.973C109.888 581.336 110.524 579.362 111.789 575.42L114.188 568L116.586 575.42L116.614 575.508C117.867 579.411 118.495 581.368 119.607 582.973C120.597 584.404 121.86 585.627 123.323 586.57C124.964 587.628 126.954 588.198 130.923 589.334L130.942 589.339L137.375 591.174L130.942 593.009C126.967 594.142 124.973 594.712 123.323 595.779C121.859 596.726 120.594 597.945 119.607 599.376C118.487 601.012 117.851 602.987 116.586 606.929L114.188 614.349L111.789 606.929L111.761 606.841Z" fill="#FFF7F7"/>
<path d="M1140.41 447.443C1138.82 442.474 1138.02 439.983 1136.61 437.941C1135.35 436.118 1133.74 434.562 1131.88 433.361C1129.79 432.014 1127.26 431.289 1122.21 429.843L1122.18 429.836L1114 427.5L1122.18 425.164C1127.24 423.722 1129.78 422.997 1131.88 421.639C1133.74 420.433 1135.35 418.881 1136.61 417.059C1138.03 414.976 1138.84 412.463 1140.45 407.445L1143.5 398L1146.55 407.445L1146.59 407.557C1148.18 412.526 1148.98 415.017 1150.39 417.059C1151.65 418.882 1153.26 420.438 1155.12 421.639C1157.21 422.986 1159.74 423.711 1164.79 425.157L1164.82 425.164L1173 427.5L1164.82 429.836C1159.76 431.278 1157.22 432.003 1155.12 433.361C1153.26 434.567 1151.65 436.119 1150.39 437.941C1148.97 440.024 1148.16 442.537 1146.55 447.555L1143.5 457L1140.45 447.555L1140.41 447.443Z" fill="#FFF7F7"/>
<path d="M839.221 612.493C838.302 609.629 837.842 608.194 837.027 607.017C836.301 605.966 835.375 605.07 834.302 604.378C833.099 603.601 831.64 603.183 828.73 602.35L828.716 602.346L824 601L828.716 599.654C831.631 598.823 833.093 598.405 834.302 597.622C835.375 596.927 836.303 596.033 837.027 594.983C837.848 593.783 838.314 592.335 839.242 589.443L841 584L842.758 589.443L842.779 589.507C843.698 592.371 844.158 593.806 844.973 594.983C845.699 596.034 846.625 596.93 847.698 597.622C848.901 598.399 850.36 598.817 853.27 599.65L853.284 599.654L858 601L853.284 602.346C850.369 603.177 848.907 603.595 847.698 604.378C846.625 605.073 845.697 605.967 844.973 607.017C844.152 608.217 843.686 609.665 842.758 612.557L841 618L839.242 612.557L839.221 612.493Z" fill="#FFF7F7"/>
<path d="M89.2211 371.493C88.3023 368.629 87.8416 367.194 87.0269 366.017C86.3007 364.966 85.3747 364.07 84.302 363.378C83.0994 362.601 81.6401 362.183 78.7304 361.35L78.7163 361.346L74 360L78.7163 358.654C81.6306 357.823 83.0926 357.405 84.302 356.622C85.3754 355.927 86.3031 355.033 87.0269 353.983C87.8477 352.783 88.314 351.335 89.2417 348.443L91 343L92.7583 348.443L92.7789 348.507C93.6977 351.371 94.1584 352.806 94.9731 353.983C95.6993 355.034 96.6253 355.93 97.698 356.622C98.9006 357.399 100.36 357.817 103.27 358.65L103.284 358.654L108 360L103.284 361.346C100.369 362.177 98.9074 362.595 97.698 363.378C96.6246 364.073 95.6969 364.967 94.9731 366.017C94.1523 367.217 93.686 368.665 92.7583 371.557L91 377L89.2417 371.557L89.2211 371.493Z" fill="#FFF7F7"/>
<path d="M1085.22 608.493C1084.3 605.629 1083.84 604.194 1083.03 603.017C1082.3 601.966 1081.37 601.07 1080.3 600.378C1079.1 599.601 1077.64 599.183 1074.73 598.35L1074.72 598.346L1070 597L1074.72 595.654C1077.63 594.823 1079.09 594.405 1080.3 593.622C1081.38 592.927 1082.3 592.033 1083.03 590.983C1083.85 589.783 1084.31 588.335 1085.24 585.443L1087 580L1088.76 585.443L1088.78 585.507C1089.7 588.371 1090.16 589.806 1090.97 590.983C1091.7 592.034 1092.63 592.93 1093.7 593.622C1094.9 594.399 1096.36 594.817 1099.27 595.65L1099.28 595.654L1104 597L1099.28 598.346C1096.37 599.177 1094.91 599.595 1093.7 600.378C1092.62 601.073 1091.7 601.967 1090.97 603.017C1090.15 604.217 1089.69 605.665 1088.76 608.557L1087 614L1085.24 608.557L1085.22 608.493Z" fill="#FFF7F7"/>
<path d="M339.43 97.1405C338.62 94.614 338.213 93.3473 337.494 92.3087C336.854 91.3821 336.037 90.5909 335.09 89.9803C334.029 89.2953 332.741 88.9266 330.174 88.1914L330.161 88.1878L326 87L330.161 85.8122C332.733 85.0789 334.023 84.7101 335.09 84.0197C336.037 83.4065 336.856 82.6175 337.494 81.6913C338.219 80.6321 338.63 79.3542 339.449 76.8027L341 72L342.551 76.8027L342.57 76.8595C343.38 79.386 343.787 80.6527 344.506 81.6913C345.146 82.6179 345.963 83.4091 346.91 84.0197C347.971 84.7047 349.259 85.0734 351.826 85.8086L351.839 85.8122L356 87L351.839 88.1878C349.267 88.9211 347.977 89.2899 346.91 89.9803C345.963 90.5935 345.144 91.3825 344.506 92.3087C343.781 93.3679 343.37 94.6458 342.551 97.1973L341 102L339.449 97.1973L339.43 97.1405Z" fill="#FFF7F7"/>
<path d="M1037.71 120.717C1035.49 113.812 1034.38 110.349 1032.42 107.511C1030.67 104.978 1028.43 102.815 1025.85 101.146C1022.95 99.2737 1019.43 98.266 1012.41 96.2564L1012.37 96.2467L1001 93L1012.37 89.7533C1019.4 87.749 1022.93 86.741 1025.85 84.8539C1028.43 83.1778 1030.67 81.0212 1032.42 78.4894C1034.4 75.5943 1035.52 72.1015 1037.76 65.1275L1042 52L1046.24 65.1275L1046.29 65.2828C1048.51 72.1884 1049.62 75.6507 1051.58 78.4894C1053.33 81.0223 1055.57 83.185 1058.15 84.8539C1061.05 86.7263 1064.57 87.734 1071.59 89.7436L1071.63 89.7533L1083 93L1071.63 96.2467C1064.6 98.251 1061.07 99.259 1058.15 101.146C1055.57 102.822 1053.33 104.979 1051.58 107.511C1049.6 110.406 1048.48 113.899 1046.24 120.873L1042 134L1037.76 120.873L1037.71 120.717Z" fill="#FFF7F7"/>
<path d="M177.71 577.717C175.494 570.812 174.383 567.349 172.418 564.511C170.666 561.978 168.433 559.815 165.846 558.146C162.946 556.274 159.426 555.266 152.408 553.256L152.375 553.247L141 550L152.375 546.753C159.403 544.749 162.929 543.741 165.846 541.854C168.435 540.178 170.672 538.021 172.418 535.489C174.397 532.594 175.522 529.101 177.759 522.127L182 509L186.241 522.127L186.29 522.283C188.506 529.188 189.617 532.651 191.582 535.489C193.334 538.022 195.567 540.185 198.154 541.854C201.054 543.726 204.574 544.734 211.591 546.744L211.625 546.753L223 550L211.625 553.247C204.597 555.251 201.071 556.259 198.154 558.146C195.565 559.822 193.328 561.979 191.582 564.511C189.603 567.406 188.478 570.899 186.241 577.873L182 591L177.759 577.873L177.71 577.717Z" fill="#FFF7F7"/>
</g>
<defs>
<linearGradient id="paint0_linear_410_4445" x1="640" y1="0" x2="640" y2="720" gradientUnits="userSpaceOnUse">
<stop stop-color="#1C2A4A"/>
<stop offset="1" stop-color="#3D3A91"/>
</linearGradient>
<clipPath id="clip0_410_4445">
<rect width="1280" height="720" fill="white"/>
</clipPath>
</defs>
</svg>
