<svg width="1280" height="720" viewBox="0 0 1280 720" fill="none" xmlns="http://www.w3.org/2000/svg">
<g clip-path="url(#clip0_420_5053)">
<rect width="1280" height="720" fill="#ECFAFF"/>
<rect width="1280" height="720" fill="#ECFAFF"/>
<path d="M533.13 358.344H367.339" stroke="#50598C" stroke-width="5"/>
<g filter="url(#filter0_di_420_5053)">
<path fill-rule="evenodd" clip-rule="evenodd" d="M66 358.342L249.612 174.73L433.223 358.342L249.612 541.954L66 358.342Z" fill="url(#paint0_linear_420_5053)"/>
</g>
<path d="M210.825 308.76C211.518 308.76 212.105 309 212.585 309.48C213.065 309.96 213.305 310.547 213.305 311.24C213.305 311.933 213.065 312.52 212.585 313C212.105 313.48 211.518 313.72 210.825 313.72C210.158 313.72 209.585 313.48 209.105 313C208.652 312.52 208.425 311.933 208.425 311.24C208.425 310.547 208.652 309.96 209.105 309.48C209.585 309 210.158 308.76 210.825 308.76ZM208.305 337.24C205.665 337.24 203.532 336.493 201.905 335C200.278 333.507 199.465 331.507 199.465 329C199.465 326.2 200.332 324.133 202.065 322.8C203.798 321.44 206.145 320.76 209.105 320.76L209.225 316.96H212.385L212.545 323.28H211.385C208.745 323.28 206.678 323.68 205.185 324.48C203.692 325.28 202.945 326.787 202.945 329C202.945 330.6 203.425 331.867 204.385 332.8C205.345 333.733 206.638 334.2 208.265 334.2C209.918 334.2 211.212 333.747 212.145 332.84C213.105 331.96 213.585 330.747 213.585 329.2H217.025C217.025 330.8 216.665 332.2 215.945 333.4C215.225 334.627 214.198 335.573 212.865 336.24C211.558 336.907 210.038 337.24 208.305 337.24ZM225.087 306.08V315.4H235.247V318.4H225.087V328H236.447V331H221.447V303.08H236.447V306.08H225.087ZM249.715 331.36C248.035 331.36 246.528 331.08 245.195 330.52C243.862 329.933 242.808 329.133 242.035 328.12C241.262 327.08 240.835 325.893 240.755 324.56H244.515C244.622 325.653 245.128 326.547 246.035 327.24C246.968 327.933 248.182 328.28 249.675 328.28C251.062 328.28 252.155 327.973 252.955 327.36C253.755 326.747 254.155 325.973 254.155 325.04C254.155 324.08 253.728 323.373 252.875 322.92C252.022 322.44 250.702 321.973 248.915 321.52C247.288 321.093 245.955 320.667 244.915 320.24C243.902 319.787 243.022 319.133 242.275 318.28C241.555 317.4 241.195 316.253 241.195 314.84C241.195 313.72 241.528 312.693 242.195 311.76C242.862 310.827 243.808 310.093 245.035 309.56C246.262 309 247.662 308.72 249.235 308.72C251.662 308.72 253.622 309.333 255.115 310.56C256.608 311.787 257.408 313.467 257.515 315.6H253.875C253.795 314.453 253.328 313.533 252.475 312.84C251.648 312.147 250.528 311.8 249.115 311.8C247.808 311.8 246.768 312.08 245.995 312.64C245.222 313.2 244.835 313.933 244.835 314.84C244.835 315.56 245.062 316.16 245.515 316.64C245.995 317.093 246.582 317.467 247.275 317.76C247.995 318.027 248.982 318.333 250.235 318.68C251.808 319.107 253.088 319.533 254.075 319.96C255.062 320.36 255.902 320.973 256.595 321.8C257.315 322.627 257.688 323.707 257.715 325.04C257.715 326.24 257.382 327.32 256.715 328.28C256.048 329.24 255.102 330 253.875 330.56C252.675 331.093 251.288 331.36 249.715 331.36ZM267.293 312.08V325C267.293 326.067 267.52 326.827 267.973 327.28C268.427 327.707 269.213 327.92 270.333 327.92H273.013V331H269.733C267.707 331 266.187 330.533 265.173 329.6C264.16 328.667 263.653 327.133 263.653 325V312.08H260.813V309.08H263.653V303.56H267.293V309.08H273.013V312.08H267.293ZM276.064 319.96C276.064 317.72 276.517 315.76 277.424 314.08C278.33 312.373 279.57 311.053 281.144 310.12C282.744 309.187 284.517 308.72 286.464 308.72C288.384 308.72 290.05 309.133 291.464 309.96C292.877 310.787 293.93 311.827 294.624 313.08V309.08H298.304V331H294.624V326.92C293.904 328.2 292.824 329.267 291.384 330.12C289.97 330.947 288.317 331.36 286.424 331.36C284.477 331.36 282.717 330.88 281.144 329.92C279.57 328.96 278.33 327.613 277.424 325.88C276.517 324.147 276.064 322.173 276.064 319.96ZM294.624 320C294.624 318.347 294.29 316.907 293.624 315.68C292.957 314.453 292.05 313.52 290.904 312.88C289.784 312.213 288.544 311.88 287.184 311.88C285.824 311.88 284.584 312.2 283.464 312.84C282.344 313.48 281.45 314.413 280.784 315.64C280.117 316.867 279.784 318.307 279.784 319.96C279.784 321.64 280.117 323.107 280.784 324.36C281.45 325.587 282.344 326.533 283.464 327.2C284.584 327.84 285.824 328.16 287.184 328.16C288.544 328.16 289.784 327.84 290.904 327.2C292.05 326.533 292.957 325.587 293.624 324.36C294.29 323.107 294.624 321.653 294.624 320ZM291.784 302.88L283.264 307.44V304.72L291.784 299.72V302.88ZM183.214 391.36C181.161 391.36 179.294 390.893 177.614 389.96C175.961 389.027 174.654 387.707 173.694 386C172.761 384.267 172.294 382.267 172.294 380C172.294 377.76 172.774 375.787 173.734 374.08C174.721 372.347 176.054 371.027 177.734 370.12C179.414 369.187 181.294 368.72 183.374 368.72C185.454 368.72 187.334 369.187 189.014 370.12C190.694 371.027 192.014 372.333 192.974 374.04C193.961 375.747 194.454 377.733 194.454 380C194.454 382.267 193.948 384.267 192.934 386C191.948 387.707 190.601 389.027 188.894 389.96C187.188 390.893 185.294 391.36 183.214 391.36ZM183.214 388.16C184.521 388.16 185.748 387.853 186.894 387.24C188.041 386.627 188.961 385.707 189.654 384.48C190.374 383.253 190.734 381.76 190.734 380C190.734 378.24 190.388 376.747 189.694 375.52C189.001 374.293 188.094 373.387 186.974 372.8C185.854 372.187 184.641 371.88 183.334 371.88C182.001 371.88 180.774 372.187 179.654 372.8C178.561 373.387 177.681 374.293 177.014 375.52C176.348 376.747 176.014 378.24 176.014 380C176.014 381.787 176.334 383.293 176.974 384.52C177.641 385.747 178.521 386.667 179.614 387.28C180.708 387.867 181.908 388.16 183.214 388.16ZM207 391.36C205.32 391.36 203.813 391.08 202.48 390.52C201.147 389.933 200.093 389.133 199.32 388.12C198.547 387.08 198.12 385.893 198.04 384.56H201.8C201.907 385.653 202.413 386.547 203.32 387.24C204.253 387.933 205.467 388.28 206.96 388.28C208.347 388.28 209.44 387.973 210.24 387.36C211.04 386.747 211.44 385.973 211.44 385.04C211.44 384.08 211.013 383.373 210.16 382.92C209.307 382.44 207.987 381.973 206.2 381.52C204.573 381.093 203.24 380.667 202.2 380.24C201.187 379.787 200.307 379.133 199.56 378.28C198.84 377.4 198.48 376.253 198.48 374.84C198.48 373.72 198.813 372.693 199.48 371.76C200.147 370.827 201.093 370.093 202.32 369.56C203.547 369 204.947 368.72 206.52 368.72C208.947 368.72 210.907 369.333 212.4 370.56C213.893 371.787 214.693 373.467 214.8 375.6H211.16C211.08 374.453 210.613 373.533 209.76 372.84C208.933 372.147 207.813 371.8 206.4 371.8C205.093 371.8 204.053 372.08 203.28 372.64C202.507 373.2 202.12 373.933 202.12 374.84C202.12 375.56 202.347 376.16 202.8 376.64C203.28 377.093 203.867 377.467 204.56 377.76C205.28 378.027 206.267 378.333 207.52 378.68C209.093 379.107 210.373 379.533 211.36 379.96C212.347 380.36 213.187 380.973 213.88 381.8C214.6 382.627 214.973 383.707 215 385.04C215 386.24 214.667 387.32 214 388.28C213.333 389.24 212.387 390 211.16 390.56C209.96 391.093 208.573 391.36 207 391.36ZM218.779 380C218.779 377.733 219.232 375.76 220.139 374.08C221.045 372.373 222.299 371.053 223.899 370.12C225.525 369.187 227.379 368.72 229.459 368.72C232.152 368.72 234.365 369.373 236.099 370.68C237.859 371.987 239.019 373.8 239.579 376.12H235.659C235.285 374.787 234.552 373.733 233.459 372.96C232.392 372.187 231.059 371.8 229.459 371.8C227.379 371.8 225.699 372.52 224.419 373.96C223.139 375.373 222.499 377.387 222.499 380C222.499 382.64 223.139 384.68 224.419 386.12C225.699 387.56 227.379 388.28 229.459 388.28C231.059 388.28 232.392 387.907 233.459 387.16C234.525 386.413 235.259 385.347 235.659 383.96H239.579C238.992 386.2 237.819 388 236.059 389.36C234.299 390.693 232.099 391.36 229.459 391.36C227.379 391.36 225.525 390.893 223.899 389.96C222.299 389.027 221.045 387.707 220.139 386C219.232 384.293 218.779 382.293 218.779 380ZM263.875 369.08V391H260.235V387.76C259.542 388.88 258.569 389.76 257.315 390.4C256.089 391.013 254.729 391.32 253.235 391.32C251.529 391.32 249.995 390.973 248.635 390.28C247.275 389.56 246.195 388.493 245.395 387.08C244.622 385.667 244.235 383.947 244.235 381.92V369.08H247.835V381.44C247.835 383.6 248.382 385.267 249.475 386.44C250.569 387.587 252.062 388.16 253.955 388.16C255.902 388.16 257.435 387.56 258.555 386.36C259.675 385.16 260.235 383.413 260.235 381.12V369.08H263.875ZM273.661 372.64C274.301 371.387 275.208 370.413 276.381 369.72C277.581 369.027 279.035 368.68 280.741 368.68V372.44H279.781C275.701 372.44 273.661 374.653 273.661 379.08V391H270.021V369.08H273.661V372.64ZM294.503 391.36C292.45 391.36 290.583 390.893 288.903 389.96C287.25 389.027 285.943 387.707 284.983 386C284.05 384.267 283.583 382.267 283.583 380C283.583 377.76 284.063 375.787 285.023 374.08C286.01 372.347 287.343 371.027 289.023 370.12C290.703 369.187 292.583 368.72 294.663 368.72C296.743 368.72 298.623 369.187 300.303 370.12C301.983 371.027 303.303 372.333 304.263 374.04C305.25 375.747 305.743 377.733 305.743 380C305.743 382.267 305.237 384.267 304.223 386C303.237 387.707 301.89 389.027 300.183 389.96C298.477 390.893 296.583 391.36 294.503 391.36ZM294.503 388.16C295.81 388.16 297.037 387.853 298.183 387.24C299.33 386.627 300.25 385.707 300.943 384.48C301.663 383.253 302.023 381.76 302.023 380C302.023 378.24 301.677 376.747 300.983 375.52C300.29 374.293 299.383 373.387 298.263 372.8C297.143 372.187 295.93 371.88 294.623 371.88C293.29 371.88 292.063 372.187 290.943 372.8C289.85 373.387 288.97 374.293 288.303 375.52C287.637 376.747 287.303 378.24 287.303 380C287.303 381.787 287.623 383.293 288.263 384.52C288.93 385.747 289.81 386.667 290.903 387.28C291.997 387.867 293.197 388.16 294.503 388.16ZM317.649 362.76C320.289 362.76 322.423 363.507 324.049 365C325.676 366.493 326.489 368.493 326.489 371C326.489 373.8 325.623 375.88 323.889 377.24C322.156 378.573 319.809 379.24 316.849 379.24L316.729 383.04H313.569L313.409 376.72H314.569C317.209 376.72 319.276 376.32 320.769 375.52C322.263 374.72 323.009 373.213 323.009 371C323.009 369.4 322.529 368.133 321.569 367.2C320.609 366.267 319.316 365.8 317.689 365.8C316.036 365.8 314.729 366.253 313.769 367.16C312.836 368.04 312.369 369.253 312.369 370.8H308.929C308.929 369.2 309.289 367.8 310.009 366.6C310.729 365.373 311.743 364.427 313.049 363.76C314.383 363.093 315.916 362.76 317.649 362.76ZM315.129 391.24C314.436 391.24 313.849 391 313.369 390.52C312.889 390.04 312.649 389.453 312.649 388.76C312.649 388.067 312.889 387.48 313.369 387C313.849 386.52 314.436 386.28 315.129 386.28C315.796 386.28 316.356 386.52 316.809 387C317.289 387.48 317.529 388.067 317.529 388.76C317.529 389.453 317.289 390.04 316.809 390.52C316.356 391 315.796 391.24 315.129 391.24Z" fill="#ECFAFF"/>
<mask id="path-4-inside-1_420_5053" fill="white">
<path d="M529.349 203.895H814.487V541.956H529.349V203.895Z"/>
</mask>
<path d="M529.349 203.895V198.895H524.349V203.895H529.349ZM529.349 541.956H524.349V546.956H529.349V541.956ZM529.349 203.895V208.895H814.487V203.895V198.895H529.349V203.895ZM814.487 541.956V536.956H529.349V541.956V546.956H814.487V541.956ZM529.349 541.956H534.349V203.895H529.349H524.349V541.956H529.349Z" fill="#50598C" mask="url(#path-4-inside-1_420_5053)"/>
<path fill-rule="evenodd" clip-rule="evenodd" d="M817.255 207.615L808.128 215.775L805.847 213.735L813.833 206.595L805.847 199.454L808.128 197.414L817.255 205.575C817.558 205.845 817.727 206.212 817.727 206.595C817.727 206.977 817.558 207.344 817.255 207.615Z" fill="#50598C"/>
<path fill-rule="evenodd" clip-rule="evenodd" d="M817.255 540.275L808.128 548.435L805.847 546.396L813.833 539.255L805.847 532.114L808.128 530.074L817.255 538.235C817.558 538.505 817.727 538.872 817.727 539.255C817.727 539.637 817.558 540.004 817.255 540.275Z" fill="#50598C"/>
<path d="M851.209 637H1214.11V408.026H851.209V637Z" fill="url(#paint1_linear_420_5053)"/>
<path d="M690.279 199.032L681.639 187.691L650.857 208.753L672.458 227.654L690.279 199.032Z" fill="white"/>
<path fill-rule="evenodd" clip-rule="evenodd" d="M671.918 235.485C675.641 235.485 679.328 234.751 682.768 233.327C686.208 231.902 689.333 229.813 691.966 227.181C694.599 224.548 696.687 221.423 698.112 217.983C699.537 214.543 700.27 210.856 700.27 207.133C700.27 203.41 699.537 199.723 698.112 196.283C696.687 192.843 694.599 189.718 691.966 187.085C689.333 184.453 686.208 182.364 682.768 180.939C679.328 179.515 675.641 178.781 671.918 178.781C664.399 178.781 657.187 181.768 651.87 187.085C646.553 192.402 643.566 199.614 643.566 207.133C643.566 214.652 646.553 221.864 651.87 227.181C657.187 232.498 664.399 235.485 671.918 235.485ZM671.187 218.6L686.938 199.699L682.1 195.666L668.554 211.918L661.545 204.906L657.09 209.36L666.541 218.811L668.979 221.249L671.187 218.6Z" fill="url(#paint2_linear_420_5053)"/>
<path d="M693.519 523.595V552.757L651.937 557.077L655.177 520.895L693.519 523.595Z" fill="white"/>
<path fill-rule="evenodd" clip-rule="evenodd" d="M671.918 571.297C689.317 571.297 703.42 557.194 703.42 539.795C703.42 522.396 689.317 508.293 671.918 508.293C654.519 508.293 640.416 522.396 640.416 539.795C640.416 557.194 654.519 571.297 671.918 571.297ZM684.727 526.986C685.169 527.429 685.418 528.03 685.418 528.656C685.418 529.282 685.169 529.882 684.727 530.325L675.257 539.795L684.724 549.261C685.141 549.709 685.368 550.302 685.357 550.914C685.346 551.526 685.099 552.11 684.666 552.543C684.233 552.975 683.649 553.223 683.037 553.234C682.425 553.245 681.832 553.018 681.384 552.601L671.918 543.14L662.452 552.607C662.235 552.839 661.975 553.025 661.685 553.154C661.395 553.283 661.082 553.353 660.765 553.358C660.448 553.364 660.132 553.306 659.838 553.187C659.544 553.068 659.277 552.891 659.052 552.667C658.828 552.442 658.651 552.175 658.532 551.881C658.414 551.587 658.355 551.272 658.361 550.954C658.366 550.637 658.436 550.324 658.565 550.035C658.694 549.745 658.88 549.484 659.112 549.268L668.572 539.795L659.109 530.329C658.877 530.112 658.691 529.851 658.562 529.562C658.433 529.272 658.363 528.959 658.358 528.642C658.352 528.325 658.41 528.009 658.529 527.715C658.648 527.421 658.825 527.154 659.049 526.929C659.274 526.705 659.541 526.528 659.835 526.409C660.129 526.291 660.444 526.232 660.762 526.238C661.079 526.243 661.392 526.313 661.682 526.442C661.971 526.571 662.232 526.757 662.449 526.989L671.918 536.449L681.384 526.983C681.827 526.541 682.428 526.292 683.054 526.292C683.68 526.292 684.281 526.541 684.724 526.983" fill="url(#paint3_linear_420_5053)"/>
<path d="M851 102H1213.9V330.974H851V102Z" fill="url(#paint4_linear_420_5053)"/>
<path d="M661.91 150.418C658.846 150.418 656.1 149.92 653.672 148.925C651.244 147.93 649.294 146.458 647.822 144.508C646.389 142.558 645.633 140.21 645.553 137.463H656.418C656.577 139.016 657.115 140.21 658.03 141.045C658.945 141.841 660.139 142.239 661.612 142.239C663.124 142.239 664.318 141.901 665.194 141.224C666.069 140.508 666.507 139.533 666.507 138.299C666.507 137.264 666.149 136.409 665.432 135.732C664.756 135.056 663.9 134.498 662.865 134.061C661.87 133.623 660.438 133.125 658.567 132.568C655.861 131.732 653.652 130.897 651.941 130.061C650.229 129.225 648.757 127.991 647.523 126.36C646.289 124.728 645.672 122.599 645.672 119.972C645.672 116.072 647.085 113.027 649.911 110.838C652.737 108.609 656.418 107.495 660.955 107.495C665.572 107.495 669.293 108.609 672.119 110.838C674.944 113.027 676.457 116.092 676.656 120.032H665.612C665.532 118.678 665.034 117.624 664.119 116.868C663.204 116.072 662.03 115.674 660.597 115.674C659.363 115.674 658.368 116.012 657.612 116.689C656.856 117.325 656.478 118.261 656.478 119.494C656.478 120.847 657.115 121.902 658.388 122.658C659.662 123.414 661.652 124.23 664.358 125.106C667.064 126.021 669.253 126.897 670.925 127.733C672.636 128.568 674.109 129.782 675.342 131.374C676.576 132.966 677.193 135.016 677.193 137.523C677.193 139.911 676.576 142.08 675.342 144.03C674.148 145.98 672.397 147.532 670.089 148.687C667.781 149.841 665.054 150.418 661.91 150.418ZM694.46 116.689V150H684.251V116.689H694.46ZM696.31 108.39L681.923 114.42V107.376L696.31 100.451V108.39Z" fill="#1E5C93"/>
<path d="M992.404 199.092L977.539 241H964.763L949.899 199.092H960.764L971.151 230.732L981.598 199.092H992.404ZM1011.83 241.478C1008.57 241.478 1005.62 240.781 1003 239.388C1000.41 237.995 998.362 236.005 996.849 233.418C995.377 230.831 994.64 227.807 994.64 224.344C994.64 220.922 995.397 217.917 996.909 215.33C998.421 212.703 1000.49 210.693 1003.12 209.3C1005.74 207.907 1008.69 207.211 1011.95 207.211C1015.22 207.211 1018.16 207.907 1020.79 209.3C1023.41 210.693 1025.48 212.703 1027 215.33C1028.51 217.917 1029.27 220.922 1029.27 224.344C1029.27 227.767 1028.49 230.792 1026.94 233.418C1025.42 236.005 1023.34 237.995 1020.67 239.388C1018.04 240.781 1015.1 241.478 1011.83 241.478ZM1011.83 232.642C1013.78 232.642 1015.44 231.926 1016.79 230.493C1018.18 229.06 1018.88 227.011 1018.88 224.344C1018.88 221.678 1018.2 219.628 1016.85 218.195C1015.53 216.763 1013.9 216.046 1011.95 216.046C1009.96 216.046 1008.31 216.763 1007 218.195C1005.68 219.588 1005.03 221.638 1005.03 224.344C1005.03 227.011 1005.66 229.06 1006.94 230.493C1008.25 231.926 1009.88 232.642 1011.83 232.642ZM1044.89 196.823V241H1034.68V196.823H1044.89ZM1050.26 224.285C1050.26 220.862 1050.89 217.857 1052.17 215.27C1053.48 212.683 1055.25 210.693 1057.48 209.3C1059.71 207.907 1062.2 207.211 1064.94 207.211C1067.29 207.211 1069.34 207.689 1071.09 208.644C1072.88 209.599 1074.26 210.853 1075.21 212.405V207.689H1085.42V241H1075.21V236.284C1074.22 237.836 1072.82 239.09 1071.03 240.045C1069.28 241 1067.23 241.478 1064.88 241.478C1062.18 241.478 1059.71 240.781 1057.48 239.388C1055.25 237.955 1053.48 235.946 1052.17 233.359C1050.89 230.732 1050.26 227.707 1050.26 224.285ZM1075.21 224.344C1075.21 221.797 1074.49 219.787 1073.06 218.315C1071.67 216.842 1069.96 216.106 1067.93 216.106C1065.9 216.106 1064.17 216.842 1062.73 218.315C1061.34 219.748 1060.65 221.737 1060.65 224.285C1060.65 226.832 1061.34 228.861 1062.73 230.374C1064.17 231.846 1065.9 232.583 1067.93 232.583C1069.96 232.583 1071.67 231.846 1073.06 230.374C1074.49 228.901 1075.21 226.891 1075.21 224.344ZM1103.01 213.24C1104.21 211.41 1105.7 209.977 1107.49 208.942C1109.28 207.868 1111.27 207.33 1113.46 207.33V218.136H1110.65C1108.11 218.136 1106.2 218.693 1104.92 219.807C1103.65 220.882 1103.01 222.792 1103.01 225.538V241H1092.8V207.689H1103.01V213.24Z" fill="#1E5C93"/>
<path d="M944.773 502.092C949.191 502.092 953.051 502.968 956.355 504.719C959.658 506.47 962.205 508.937 963.996 512.121C965.827 515.265 966.742 518.907 966.742 523.046C966.742 527.145 965.827 530.787 963.996 533.971C962.205 537.155 959.638 539.622 956.295 541.373C952.992 543.124 949.151 544 944.773 544H929.073V502.092H944.773ZM944.117 535.165C947.977 535.165 950.982 534.11 953.131 532.001C955.28 529.891 956.355 526.906 956.355 523.046C956.355 519.186 955.28 516.181 953.131 514.032C950.982 511.882 947.977 510.808 944.117 510.808H939.281V535.165H944.117ZM987.61 544.478C984.347 544.478 981.402 543.781 978.775 542.388C976.188 540.995 974.138 539.005 972.626 536.418C971.154 533.831 970.417 530.807 970.417 527.344C970.417 523.922 971.173 520.917 972.686 518.33C974.198 515.703 976.268 513.693 978.894 512.3C981.521 510.907 984.466 510.211 987.73 510.211C990.993 510.211 993.938 510.907 996.565 512.3C999.192 513.693 1001.26 515.703 1002.77 518.33C1004.29 520.917 1005.04 523.922 1005.04 527.344C1005.04 530.767 1004.27 533.792 1002.71 536.418C1001.2 539.005 999.112 540.995 996.446 542.388C993.819 543.781 990.874 544.478 987.61 544.478ZM987.61 535.642C989.56 535.642 991.212 534.926 992.565 533.493C993.958 532.06 994.655 530.011 994.655 527.344C994.655 524.678 993.978 522.628 992.625 521.195C991.312 519.763 989.68 519.046 987.73 519.046C985.74 519.046 984.088 519.763 982.775 521.195C981.461 522.588 980.805 524.638 980.805 527.344C980.805 530.011 981.442 532.06 982.715 533.493C984.028 534.926 985.66 535.642 987.61 535.642ZM1020.67 516.24C1021.86 514.41 1023.35 512.977 1025.14 511.942C1026.93 510.868 1028.92 510.33 1031.11 510.33V521.136H1028.31C1025.76 521.136 1023.85 521.693 1022.58 522.807C1021.3 523.882 1020.67 525.792 1020.67 528.538V544H1010.46V510.689H1020.67V516.24ZM1078.5 510.33C1082.64 510.33 1085.92 511.584 1088.35 514.091C1090.82 516.599 1092.05 520.081 1092.05 524.538V544H1081.9V525.912C1081.9 523.762 1081.32 522.111 1080.17 520.957C1079.05 519.763 1077.5 519.166 1075.51 519.166C1073.52 519.166 1071.95 519.763 1070.8 520.957C1069.68 522.111 1069.13 523.762 1069.13 525.912V544H1058.98V525.912C1058.98 523.762 1058.4 522.111 1057.25 520.957C1056.13 519.763 1054.58 519.166 1052.59 519.166C1050.6 519.166 1049.03 519.763 1047.87 520.957C1046.76 522.111 1046.2 523.762 1046.2 525.912V544H1035.99V510.689H1046.2V514.867C1047.24 513.474 1048.59 512.38 1050.26 511.584C1051.93 510.748 1053.82 510.33 1055.93 510.33C1058.44 510.33 1060.67 510.868 1062.62 511.942C1064.61 513.017 1066.16 514.549 1067.27 516.539C1068.43 514.708 1070 513.216 1071.99 512.062C1073.98 510.907 1076.15 510.33 1078.5 510.33ZM1104.32 507.226C1102.53 507.226 1101.06 506.709 1099.91 505.674C1098.79 504.599 1098.23 503.286 1098.23 501.734C1098.23 500.142 1098.79 498.829 1099.91 497.794C1101.06 496.719 1102.53 496.182 1104.32 496.182C1106.07 496.182 1107.51 496.719 1108.62 497.794C1109.78 498.829 1110.35 500.142 1110.35 501.734C1110.35 503.286 1109.78 504.599 1108.62 505.674C1107.51 506.709 1106.07 507.226 1104.32 507.226ZM1109.4 510.689V544H1099.19V510.689H1109.4ZM1127 516.24C1128.2 514.41 1129.69 512.977 1131.48 511.942C1133.27 510.868 1135.26 510.33 1137.45 510.33V521.136H1134.64C1132.1 521.136 1130.19 521.693 1128.91 522.807C1127.64 523.882 1127 525.792 1127 528.538V544H1116.79V510.689H1127V516.24Z" fill="#1E5C93"/>
<path d="M670.241 478H660.033L642.959 452.151V478H632.751V436.092H642.959L660.033 462.061V436.092H670.241V478ZM692.804 478.478C689.541 478.478 686.596 477.781 683.969 476.388C681.382 474.995 679.332 473.005 677.82 470.418C676.347 467.831 675.611 464.807 675.611 461.344C675.611 457.922 676.367 454.917 677.88 452.33C679.392 449.703 681.462 447.693 684.088 446.3C686.715 444.907 689.66 444.211 692.924 444.211C696.187 444.211 699.132 444.907 701.759 446.3C704.386 447.693 706.455 449.703 707.967 452.33C709.48 454.917 710.236 457.922 710.236 461.344C710.236 464.767 709.46 467.792 707.908 470.418C706.395 473.005 704.306 474.995 701.64 476.388C699.013 477.781 696.068 478.478 692.804 478.478ZM692.804 469.642C694.754 469.642 696.406 468.926 697.759 467.493C699.152 466.06 699.849 464.011 699.849 461.344C699.849 458.678 699.172 456.628 697.819 455.195C696.505 453.763 694.874 453.046 692.924 453.046C690.934 453.046 689.282 453.763 687.969 455.195C686.655 456.588 685.999 458.638 685.999 461.344C685.999 464.011 686.635 466.06 687.909 467.493C689.222 468.926 690.854 469.642 692.804 469.642Z" fill="#1E5C93"/>
</g>
<defs>
<filter id="filter0_di_420_5053" x="62" y="174.73" width="375.223" height="376.223" filterUnits="userSpaceOnUse" color-interpolation-filters="sRGB">
<feFlood flood-opacity="0" result="BackgroundImageFix"/>
<feColorMatrix in="SourceAlpha" type="matrix" values="0 0 0 0 0 0 0 0 0 0 0 0 0 0 0 0 0 0 127 0" result="hardAlpha"/>
<feOffset dy="4"/>
<feGaussianBlur stdDeviation="2"/>
<feComposite in2="hardAlpha" operator="out"/>
<feColorMatrix type="matrix" values="0 0 0 0 0 0 0 0 0 0 0 0 0 0 0 0 0 0 0.25 0"/>
<feBlend mode="normal" in2="BackgroundImageFix" result="effect1_dropShadow_420_5053"/>
<feBlend mode="normal" in="SourceGraphic" in2="effect1_dropShadow_420_5053" result="shape"/>
<feColorMatrix in="SourceAlpha" type="matrix" values="0 0 0 0 0 0 0 0 0 0 0 0 0 0 0 0 0 0 127 0" result="hardAlpha"/>
<feOffset dy="9"/>
<feGaussianBlur stdDeviation="20.4"/>
<feComposite in2="hardAlpha" operator="arithmetic" k2="-1" k3="1"/>
<feColorMatrix type="matrix" values="0 0 0 0 0.557707 0 0 0 0 0.514631 0 0 0 0 0.822791 0 0 0 0.25 0"/>
<feBlend mode="normal" in2="shape" result="effect2_innerShadow_420_5053"/>
</filter>
<linearGradient id="paint0_linear_420_5053" x1="249.612" y1="174.73" x2="249.612" y2="541.954" gradientUnits="userSpaceOnUse">
<stop stop-color="#1C5D93"/>
<stop offset="1" stop-color="#745686"/>
</linearGradient>
<linearGradient id="paint1_linear_420_5053" x1="1032.66" y1="637" x2="1032.66" y2="408.026" gradientUnits="userSpaceOnUse">
<stop stop-color="#A9CEF6"/>
<stop offset="1" stop-color="#9A8EC5"/>
</linearGradient>
<linearGradient id="paint2_linear_420_5053" x1="671.918" y1="178.781" x2="671.918" y2="235.485" gradientUnits="userSpaceOnUse">
<stop stop-color="#1EAD28"/>
<stop offset="1" stop-color="#38813E"/>
</linearGradient>
<linearGradient id="paint3_linear_420_5053" x1="671.918" y1="508.293" x2="671.918" y2="571.297" gradientUnits="userSpaceOnUse">
<stop stop-color="#CE393C"/>
<stop offset="1" stop-color="#6F214F"/>
</linearGradient>
<linearGradient id="paint4_linear_420_5053" x1="1032.45" y1="102" x2="1032.45" y2="330.974" gradientUnits="userSpaceOnUse">
<stop stop-color="#A9CEF6"/>
<stop offset="1" stop-color="#E4EEF6"/>
</linearGradient>
<clipPath id="clip0_420_5053">
<rect width="1280" height="720" fill="white"/>
</clipPath>
</defs>
</svg>
