<svg width="1280" height="720" viewBox="0 0 1280 720" fill="none" xmlns="http://www.w3.org/2000/svg">
<g clip-path="url(#clip0_410_4449)">
<rect width="1280" height="720" fill="url(#paint0_linear_410_4449)"/>
<rect width="640" height="720" fill="url(#paint1_linear_410_4449)"/>
<path d="M312.113 425.659C299.477 451.546 286.747 524.507 336.921 609.259C387.094 694.01 329.98 748.5 295.152 765.151" stroke="#26A67E" stroke-width="26"/>
<path d="M343.741 355.778C345.609 335.976 387.859 295.828 453.72 302.195C433.204 340.94 388.28 370.68 343.741 355.778Z" fill="url(#paint2_linear_410_4449)"/>
<path d="M227.595 403.593C225.727 423.395 183.477 463.543 117.616 457.176C138.132 418.431 183.056 388.691 227.595 403.593Z" fill="url(#paint3_linear_410_4449)"/>
<path d="M309.577 437.766C329.377 439.634 369.523 481.888 363.156 547.753C324.413 527.235 294.676 482.308 309.577 437.766Z" fill="url(#paint4_linear_410_4449)"/>
<path d="M261.759 321.617C241.959 319.749 201.813 277.495 208.179 211.63C246.923 232.148 276.66 277.075 261.759 321.617Z" fill="url(#paint5_linear_410_4449)"/>
<path d="M307.002 320.616C293.598 305.923 292.276 247.652 341.26 203.166C356.154 244.402 347.973 297.656 307.002 320.616Z" fill="url(#paint6_linear_410_4449)"/>
<path d="M264.334 438.759C277.738 453.452 279.06 511.723 230.076 556.209C215.182 514.973 223.363 461.719 264.334 438.759Z" fill="url(#paint7_linear_410_4449)"/>
<path d="M244.002 423.674C248.571 438.093 230.902 478.744 182.898 493.835C185.765 460.616 208.394 426.459 244.002 423.674Z" fill="url(#paint8_linear_410_4449)"/>
<path d="M333.833 328.471C329.265 314.052 346.933 273.4 394.937 258.31C392.07 291.528 369.441 325.685 333.833 328.471Z" fill="url(#paint9_linear_410_4449)"/>
<path d="M237.553 332.262C223.135 336.831 182.487 319.162 167.397 271.155C200.613 274.021 234.768 296.652 237.553 332.262Z" fill="url(#paint10_linear_410_4449)"/>
<path d="M332.748 422.097C347.167 417.528 387.815 435.198 402.905 483.205C369.688 480.338 335.534 457.707 332.748 422.097Z" fill="url(#paint11_linear_410_4449)"/>
<path d="M350.716 376.604C357.89 363.288 399.375 347.685 443.619 371.655C417.772 392.715 377.497 400.237 350.716 376.604Z" fill="url(#paint12_linear_410_4449)"/>
<path d="M219.838 378.353C212.664 391.669 171.179 407.272 126.935 383.302C152.782 362.242 193.057 354.72 219.838 378.353Z" fill="url(#paint13_linear_410_4449)"/>
<path d="M287.542 442.888C301.007 449.778 317.488 490.924 294.466 535.672C272.862 510.277 264.486 470.168 287.542 442.888Z" fill="url(#paint14_linear_410_4449)"/>
<path d="M283.012 312.073C269.547 305.183 253.066 264.036 276.088 219.289C297.692 244.684 306.068 284.793 283.012 312.073Z" fill="url(#paint15_linear_410_4449)"/>
<path d="M343.46 404.271C358.874 391.702 417.124 393.615 458.82 444.997C416.824 457.58 364.11 446.456 343.46 404.271Z" fill="url(#paint16_linear_410_4449)"/>
<path d="M227.876 355.108C212.462 367.677 154.212 365.763 112.516 314.382C154.512 301.799 207.226 312.923 227.876 355.108Z" fill="url(#paint17_linear_410_4449)"/>
<path d="M340.199 342.357C337.862 321.592 372.68 271.22 441.778 263.606C429.009 307.862 389.205 348.105 340.199 342.357Z" fill="url(#paint18_linear_410_4449)"/>
<path d="M231.04 416.506C233.377 437.271 198.56 487.643 129.462 495.257C142.23 451.001 182.034 410.758 231.04 416.506Z" fill="url(#paint19_linear_410_4449)"/>
<path d="M322.693 434.013C343.456 431.676 393.825 466.496 401.439 535.599C357.185 522.829 316.945 483.022 322.693 434.013Z" fill="url(#paint20_linear_410_4449)"/>
<path d="M248.546 324.85C227.783 327.187 177.415 292.367 169.801 223.265C214.054 236.034 254.294 275.841 248.546 324.85Z" fill="url(#paint21_linear_410_4449)"/>
<path d="M294.859 314.097C277.916 301.869 264.028 242.23 304.838 185.949C329.019 225.152 332.056 281.675 294.859 314.097Z" fill="url(#paint22_linear_410_4449)"/>
<path d="M276.38 444.762C293.324 456.991 307.211 516.63 266.401 572.91C242.22 533.707 239.183 477.184 276.38 444.762Z" fill="url(#paint23_linear_410_4449)"/>
<path d="M252.228 433.627C260.027 447.473 250.597 493.076 204.476 518.917C200.282 484.14 216.209 444.148 252.228 433.627Z" fill="url(#paint24_linear_410_4449)"/>
<path d="M324.14 316.408C316.342 302.562 325.771 256.959 371.892 231.119C376.086 265.896 360.159 305.887 324.14 316.408Z" fill="url(#paint25_linear_410_4449)"/>
<path d="M225.944 341.005C212.099 348.804 166.499 339.374 140.66 293.249C175.435 289.055 215.424 304.984 225.944 341.005Z" fill="url(#paint26_linear_410_4449)"/>
<path d="M343.153 412.921C356.998 405.122 402.598 414.552 428.437 460.676C393.662 464.87 353.673 448.942 343.153 412.921Z" fill="url(#paint27_linear_410_4449)"/>
<path d="M351.85 362.274C356.364 347.038 395.671 322.071 446.324 337.208C424.272 364.423 384.472 380.818 351.85 362.274Z" fill="url(#paint28_linear_410_4449)"/>
<path d="M217.636 392.214C213.122 407.451 173.815 432.417 123.162 417.28C145.214 390.065 185.014 373.67 217.636 392.214Z" fill="url(#paint29_linear_410_4449)"/>
<path d="M301.135 444.023C316.463 448.213 342.258 486.983 328.202 537.949C300.526 516.479 283.29 477.034 301.135 444.023Z" fill="url(#paint30_linear_410_4449)"/>
<path d="M268.352 310.469C253.024 306.279 227.229 267.51 241.284 216.543C268.96 238.013 286.196 277.458 268.352 310.469Z" fill="url(#paint31_linear_410_4449)"/>
<path d="M350.336 392.284C363.484 376.045 423.798 365.487 477.723 409.36C437.242 431.33 380.641 431.226 350.336 392.284Z" fill="url(#paint32_linear_410_4449)"/>
<path d="M220.904 366.583C207.755 382.823 147.441 393.38 93.516 349.507C133.998 327.537 190.598 327.642 220.904 366.583Z" fill="url(#paint33_linear_410_4449)"/>
<ellipse cx="285.076" cy="379.43" rx="85.4555" ry="85.4612" fill="url(#paint34_radial_410_4449)"/>
<path d="M270.526 377.92C257.36 362.677 227.594 370.997 229.371 394.748" stroke="#4E2820" stroke-width="5"/>
<path d="M344.751 356.497C332.507 340.503 302.302 347.05 302.673 370.864" stroke="#4E2820" stroke-width="5"/>
<path d="M261.885 396.584L318.75 388.324L307.67 420.204C303.664 431.728 288.309 433.904 281.259 423.947L261.885 396.584Z" fill="#E35F61" stroke="#4E2820" stroke-width="5"/>
<path d="M358.868 638.59C347.528 615.003 354.592 559.353 473.57 525.446C454.723 603.045 435.505 635.412 358.868 638.59Z" fill="#26A67E"/>
<path d="M341.734 619.054C326.909 640.622 275.116 662.163 186.541 575.788C263.235 553.557 300.87 554.138 341.734 619.054Z" fill="#26A67E"/>
<path d="M279.028 56.2838L277.811 55.0984V46.0685C277.811 36.2771 277.811 35.9591 279.571 34.6485C281.124 33.4631 284.299 33.9739 285.377 35.6026C286.228 36.8939 286.307 38.0792 286.08 46.6562L285.852 55.1755L284.685 56.3223C283.627 57.3535 283.35 57.4595 281.876 57.4595C280.392 57.4595 280.126 57.3535 279.028 56.2838Z" fill="#FDC147"/>
<path d="M249.896 68.9267C248.495 68.5292 236.866 57.4446 236.239 55.9192C235.935 55.2516 235.844 54.5139 235.981 53.7985C236.118 53.083 236.476 52.4215 237.01 51.8966C237.543 51.3718 238.228 51.007 238.979 50.8477C239.731 50.6884 240.516 50.7417 241.236 51.001C242.862 51.528 253.874 61.8266 254.756 63.6386C255.009 64.1066 255.155 64.6199 255.184 65.1449C255.213 65.6699 255.125 66.1948 254.924 66.6852C254.724 67.1756 254.416 67.6206 254.02 67.9909C253.625 68.3612 253.151 68.6487 252.629 68.8343C251.483 69.2873 251.198 69.2965 249.896 68.9267Z" fill="#FDC147"/>
<path d="M310.673 69.4481C309.971 68.9567 309.447 68.2485 309.176 67.4294C308.223 64.9085 308.689 64.1995 316.088 57.0011C322.408 50.8563 322.534 50.7578 323.837 50.7578C326.978 50.7578 329.039 53.9286 327.629 56.6071C327.104 57.6115 315.612 69.2118 314.65 69.7042C314.008 69.9554 313.32 70.0626 312.633 70.0184C311.947 69.9742 311.278 69.7797 310.673 69.4481Z" fill="#FDC147"/>
<path d="M279.028 135.716L277.811 136.902V145.932C277.811 155.723 277.811 156.041 279.571 157.352C281.124 158.537 284.299 158.026 285.377 156.397C286.228 155.106 286.307 153.921 286.08 145.344L285.852 136.825L284.685 135.678C283.627 134.647 283.35 134.541 281.876 134.541C280.392 134.541 280.126 134.646 279.028 135.716Z" fill="#FDC147"/>
<path d="M249.896 123.073C248.495 123.471 236.866 134.555 236.239 136.081C235.935 136.748 235.844 137.486 235.981 138.202C236.118 138.917 236.476 139.579 237.01 140.103C237.543 140.628 238.228 140.993 238.979 141.152C239.731 141.312 240.516 141.258 241.236 140.999C242.862 140.472 253.874 130.173 254.756 128.361C255.009 127.893 255.155 127.38 255.184 126.855C255.213 126.33 255.125 125.805 254.924 125.315C254.724 124.824 254.416 124.379 254.02 124.009C253.625 123.639 253.151 123.351 252.629 123.166C251.483 122.713 251.198 122.703 249.896 123.073Z" fill="#FDC147"/>
<path d="M310.673 122.552C309.971 123.043 309.447 123.752 309.176 124.571C308.223 127.092 308.689 127.8 316.088 134.999C322.408 141.144 322.534 141.242 323.837 141.242C326.978 141.242 329.039 138.071 327.629 135.393C327.104 134.388 315.612 122.788 314.65 122.296C314.008 122.045 313.32 121.937 312.633 121.982C311.947 122.026 311.278 122.22 310.673 122.552Z" fill="#FDC147"/>
<path d="M226.881 99.2178L222.076 99.0374L221.038 97.9825C220.144 97.0627 220 96.72 220 95.4846C220 94.2492 220.144 93.9066 221.048 92.9869L222.086 91.9229L231.292 91.8417C240.009 91.7696 240.556 91.7966 241.478 92.3286C242.853 93.1222 243.487 94.1682 243.459 95.6109C243.471 96.2485 243.308 96.8783 242.985 97.4393C242.661 98.0002 242.189 98.4731 241.613 98.812C240.921 99.2449 240.124 99.326 236.251 99.353C233.752 99.353 229.524 99.299 226.891 99.2088L226.881 99.2178Z" fill="#FDC147"/>
<path d="M327.422 99.2178L322.617 99.0374L321.579 97.9825C320.685 97.0627 320.541 96.72 320.541 95.4846C320.541 94.2492 320.685 93.9066 321.588 92.9869L322.626 91.9229L331.833 91.8417C340.549 91.7696 341.096 91.7966 342.019 92.3286C343.393 93.1222 344.028 94.1682 343.999 95.6109C344.012 96.2485 343.848 96.8783 343.525 97.4393C343.202 98.0002 342.729 98.4731 342.154 98.812C341.462 99.2449 340.664 99.326 336.792 99.353C334.293 99.353 330.064 99.299 327.431 99.2088L327.422 99.2178Z" fill="#FDC147"/>
<path d="M289.579 126.097C293.863 125.068 297.884 123.177 301.391 120.542C304.898 117.907 307.814 114.585 309.956 110.786C314.724 102.39 315.131 91.3479 311.003 82.5316C309.534 79.275 307.457 76.3198 304.879 73.8204C302.115 70.9266 298.786 68.6134 295.092 67.0196C289.397 64.3825 283.015 63.5419 276.816 64.6125C251.699 68.9395 241.428 98.741 258.793 116.918C266.991 125.496 277.96 128.762 289.579 126.088V126.097Z" fill="#FDC147"/>
<path fill-rule="evenodd" clip-rule="evenodd" d="M1056.84 340.477C1057.31 375.42 1029.34 404.137 994.36 404.606C959.387 405.075 930.644 377.12 930.175 342.178C929.987 328.137 934.401 315.111 942.002 304.518L1044.03 303.149C1051.9 313.546 1056.66 326.437 1056.84 340.477Z" fill="#292631"/>
<path d="M997.381 551.281L1042.64 483.918H949.22L997.381 551.281Z" fill="#292631"/>
<path d="M1042.25 484.554C1048.88 475.273 1052.81 463.924 1052.81 451.665C1052.81 420.337 1027.35 394.949 995.931 394.949C964.513 394.949 939.052 420.337 939.052 451.665C939.052 463.924 942.969 475.281 949.611 484.554L1042.25 484.554Z" fill="#292631"/>
<path d="M1047.84 328.858L1002.38 306.067C1004.74 283.229 1024.95 234.454 1056.95 224.316C1076.71 256.345 1063.64 307.835 1047.84 328.858Z" fill="#292631"/>
<path d="M983.727 341.512C983.727 344.13 981.602 346.253 978.982 346.253C978.359 346.253 977.742 346.131 977.166 345.893C976.591 345.655 976.068 345.306 975.627 344.865C975.187 344.425 974.837 343.902 974.599 343.327C974.361 342.752 974.238 342.135 974.238 341.512C974.238 338.9 976.361 336.773 978.982 336.773C981.602 336.773 983.727 338.9 983.727 341.512Z" fill="#FFC93C"/>
<path d="M1015.25 341.512C1015.25 342.77 1014.75 343.976 1013.86 344.865C1012.97 345.754 1011.76 346.254 1010.51 346.254C1009.25 346.254 1008.04 345.754 1007.15 344.865C1006.26 343.976 1005.77 342.77 1005.77 341.512C1005.77 338.9 1007.89 336.773 1010.51 336.773C1013.12 336.773 1015.25 338.9 1015.25 341.512Z" fill="#FFC93C"/>
<path d="M985.955 364.3C990.807 364.3 994.744 360.377 994.744 355.523" stroke="#52566D" stroke-width="2.43916" stroke-miterlimit="10"/>
<path d="M1003.53 364.297C998.687 364.297 994.743 360.374 994.743 355.521V352.371" stroke="#52566D" stroke-width="2.43916" stroke-miterlimit="10"/>
<path d="M987.35 348.555C987.35 349.557 987.539 350.549 987.906 351.475C988.273 352.4 988.81 353.241 989.488 353.949C990.166 354.658 990.972 355.219 991.857 355.602C992.743 355.985 993.693 356.182 994.652 356.181C995.611 356.183 996.561 355.987 997.449 355.605C998.336 355.223 999.142 354.662 999.821 353.953C1000.5 353.245 1001.04 352.404 1001.41 351.477C1001.78 350.551 1001.97 349.558 1001.97 348.555" fill="#52566D"/>
<path d="M987.35 348.555C987.35 349.557 987.539 350.549 987.906 351.475C988.273 352.4 988.81 353.241 989.488 353.949C990.166 354.658 990.972 355.219 991.857 355.602C992.743 355.985 993.693 356.182 994.652 356.181C995.611 356.183 996.561 355.987 997.449 355.605C998.336 355.223 999.142 354.662 999.821 353.953C1000.5 353.245 1001.04 352.404 1001.41 351.477C1001.78 350.551 1001.97 349.558 1001.97 348.555" stroke="#52566D" stroke-width="2.43916" stroke-miterlimit="10"/>
<path d="M1051.56 241.884C1058.05 270.924 1053.9 288.415 1041.96 311.642C1033.25 304.74 1028.76 303.905 1018.8 300.557C1023.58 273.616 1034.94 253.851 1051.56 241.884Z" fill="#B26B61"/>
<path d="M942.159 328.858L987.619 306.067C985.262 283.229 965.052 234.454 933.046 224.316C913.29 256.345 926.357 307.835 942.159 328.858Z" fill="#292631"/>
<path d="M938.441 241.884C931.947 270.924 936.1 288.415 948.036 311.642C956.755 304.74 961.243 303.905 971.205 300.557C966.422 273.616 955.056 253.851 938.441 241.884Z" fill="#B26B61"/>
<path d="M898.268 328.229C905.053 375.25 921.894 400.352 969.238 414.015L950.173 461.677C929.202 449.921 908.548 441.977 892.025 461.677C892.025 422.912 850.4 418.146 830.382 430.538C830.382 386.688 790.659 389.025 777 391.248C794.591 340.033 865.175 327.896 898.268 328.229Z" fill="#292631"/>
<path d="M1091.73 330.768C1084.95 377.789 1068.11 402.891 1020.76 416.554L1039.83 464.216C1060.8 452.46 1081.45 444.516 1097.97 464.216C1097.97 425.451 1139.6 420.685 1159.62 433.077C1159.62 389.228 1199.34 391.564 1213 393.787C1195.41 342.572 1124.82 330.435 1091.73 330.768Z" fill="#292631"/>
<path d="M960.867 51.561C961.18 50.8603 961.281 50.0841 961.159 49.3269C961.037 48.5698 960.696 47.8643 960.178 47.2965C959.66 46.7287 958.987 46.323 958.242 46.1288C957.496 45.9347 956.71 45.9604 955.979 46.203C950.209 48.1169 945.608 51.8853 941.388 56.0847C937.145 60.275 933.778 65.2593 931.481 70.7504C929.183 76.2415 928 82.1308 928 88.0789C928 94.027 929.183 99.9163 931.481 105.407C933.778 110.898 937.145 115.883 941.388 120.073C959.341 137.942 987.125 136.922 1004.87 119.262C1009.09 115.063 1012.87 110.484 1014.8 104.738C1015.03 104.032 1015.06 103.274 1014.89 102.551C1014.71 101.828 1014.33 101.169 1013.79 100.651C1013.25 100.133 1012.58 99.7768 1011.85 99.6226C1011.12 99.4683 1010.36 99.5228 1009.66 99.7796C995.39 105.007 979.157 102.682 968.198 91.7722C957.203 80.8307 954.97 64.7604 960.867 51.561Z" fill="#ECFAFF"/>
<path d="M728.221 646.493C727.302 643.629 726.842 642.194 726.027 641.017C725.301 639.966 724.375 639.07 723.302 638.378C722.099 637.601 720.64 637.183 717.73 636.35L717.716 636.346L713 635L717.716 633.654C720.631 632.823 722.093 632.405 723.302 631.622C724.375 630.927 725.303 630.033 726.027 628.983C726.848 627.783 727.314 626.335 728.242 623.443L730 618L731.758 623.443L731.779 623.507C732.698 626.371 733.158 627.806 733.973 628.983C734.699 630.034 735.625 630.93 736.698 631.622C737.901 632.399 739.36 632.817 742.27 633.65L742.284 633.654L747 635L742.284 636.346C739.369 637.177 737.907 637.595 736.698 638.378C735.625 639.073 734.697 639.967 733.973 641.017C733.152 642.217 732.686 643.665 731.758 646.557L730 652L728.242 646.557L728.221 646.493Z" fill="#FFF7F7"/>
<path d="M814.221 285.493C813.302 282.629 812.842 281.194 812.027 280.017C811.301 278.966 810.375 278.07 809.302 277.378C808.099 276.601 806.64 276.183 803.73 275.35L803.716 275.346L799 274L803.716 272.654C806.631 271.823 808.093 271.405 809.302 270.622C810.375 269.927 811.303 269.033 812.027 267.983C812.848 266.783 813.314 265.335 814.242 262.443L816 257L817.758 262.443L817.779 262.507C818.698 265.371 819.158 266.806 819.973 267.983C820.699 269.034 821.625 269.93 822.698 270.622C823.901 271.399 825.36 271.817 828.27 272.65L828.284 272.654L833 274L828.284 275.346C825.369 276.177 823.907 276.595 822.698 277.378C821.625 278.073 820.697 278.967 819.973 280.017C819.152 281.217 818.686 282.665 817.758 285.557L816 291L814.242 285.557L814.221 285.493Z" fill="#FFF7F7"/>
<path d="M1132.22 646.493C1131.3 643.629 1130.84 642.194 1130.03 641.017C1129.3 639.966 1128.37 639.07 1127.3 638.378C1126.1 637.601 1124.64 637.183 1121.73 636.35L1121.72 636.346L1117 635L1121.72 633.654C1124.63 632.823 1126.09 632.405 1127.3 631.622C1128.38 630.927 1129.3 630.033 1130.03 628.983C1130.85 627.783 1131.31 626.335 1132.24 623.443L1134 618L1135.76 623.443L1135.78 623.507C1136.7 626.371 1137.16 627.806 1137.97 628.983C1138.7 630.034 1139.63 630.93 1140.7 631.622C1141.9 632.399 1143.36 632.817 1146.27 633.65L1146.28 633.654L1151 635L1146.28 636.346C1143.37 637.177 1141.91 637.595 1140.7 638.378C1139.62 639.073 1138.7 639.967 1137.97 641.017C1137.15 642.217 1136.69 643.665 1135.76 646.557L1134 652L1132.24 646.557L1132.22 646.493Z" fill="#FFF7F7"/>
<path d="M1201.22 169.493C1200.3 166.629 1199.84 165.194 1199.03 164.017C1198.3 162.966 1197.37 162.07 1196.3 161.378C1195.1 160.601 1193.64 160.183 1190.73 159.35L1190.72 159.346L1186 158L1190.72 156.654C1193.63 155.823 1195.09 155.405 1196.3 154.622C1197.38 153.927 1198.3 153.033 1199.03 151.983C1199.85 150.783 1200.31 149.335 1201.24 146.443L1203 141L1204.76 146.443L1204.78 146.507C1205.7 149.371 1206.16 150.806 1206.97 151.983C1207.7 153.034 1208.63 153.93 1209.7 154.622C1210.9 155.399 1212.36 155.817 1215.27 156.65L1215.28 156.654L1220 158L1215.28 159.346C1212.37 160.177 1210.91 160.595 1209.7 161.378C1208.62 162.073 1207.7 162.967 1206.97 164.017C1206.15 165.217 1205.69 166.665 1204.76 169.557L1203 175L1201.24 169.557L1201.22 169.493Z" fill="#FFF7F7"/>
<path d="M694.221 110.493C693.302 107.629 692.842 106.194 692.027 105.017C691.301 103.966 690.375 103.07 689.302 102.378C688.099 101.601 686.64 101.183 683.73 100.35L683.716 100.346L679 99L683.716 97.6538C686.631 96.8228 688.093 96.4048 689.302 95.6224C690.375 94.9274 691.303 94.0332 692.027 92.9834C692.848 91.783 693.314 90.3348 694.242 87.4431L696 82L697.758 87.4431L697.779 87.5075C698.698 90.3708 699.158 91.8064 699.973 92.9834C700.699 94.0336 701.625 94.9304 702.698 95.6224C703.901 96.3987 705.36 96.8166 708.27 97.6498L708.284 97.6538L713 99L708.284 100.346C705.369 101.177 703.907 101.595 702.698 102.378C701.625 103.073 700.697 103.967 699.973 105.017C699.152 106.217 698.686 107.665 697.758 110.557L696 116L694.242 110.557L694.221 110.493Z" fill="#FFF7F7"/>
<path d="M1165.43 126.14C1164.62 123.614 1164.21 122.347 1163.49 121.309C1162.85 120.382 1162.04 119.591 1161.09 118.98C1160.03 118.295 1158.74 117.927 1156.17 117.191L1156.16 117.188L1152 116L1156.16 114.812C1158.73 114.079 1160.02 113.71 1161.09 113.02C1162.04 112.407 1162.86 111.617 1163.49 110.691C1164.22 109.632 1164.63 108.354 1165.45 105.803L1167 101L1168.55 105.803L1168.57 105.86C1169.38 108.386 1169.79 109.653 1170.51 110.691C1171.15 111.618 1171.96 112.409 1172.91 113.02C1173.97 113.705 1175.26 114.073 1177.83 114.809L1177.84 114.812L1182 116L1177.84 117.188C1175.27 117.921 1173.98 118.29 1172.91 118.98C1171.96 119.593 1171.14 120.383 1170.51 121.309C1169.78 122.368 1169.37 123.646 1168.55 126.197L1167 131L1165.45 126.197L1165.43 126.14Z" fill="#FFF7F7"/>
<path d="M831.43 551.14C830.62 548.614 830.213 547.347 829.494 546.309C828.854 545.382 828.037 544.591 827.09 543.98C826.029 543.295 824.741 542.927 822.174 542.191L822.161 542.188L818 541L822.161 539.812C824.733 539.079 826.023 538.71 827.09 538.02C828.037 537.407 828.856 536.617 829.494 535.691C830.219 534.632 830.63 533.354 831.449 530.803L833 526L834.551 530.803L834.57 530.86C835.38 533.386 835.787 534.653 836.506 535.691C837.146 536.618 837.963 537.409 838.91 538.02C839.971 538.705 841.259 539.073 843.826 539.809L843.839 539.812L848 541L843.839 542.188C841.267 542.921 839.977 543.29 838.91 543.98C837.963 544.593 837.144 545.383 836.506 546.309C835.781 547.368 835.37 548.646 834.551 551.197L833 556L831.449 551.197L831.43 551.14Z" fill="#FFF7F7"/>
<path d="M1195.43 593.14C1194.62 590.614 1194.21 589.347 1193.49 588.309C1192.85 587.382 1192.04 586.591 1191.09 585.98C1190.03 585.295 1188.74 584.927 1186.17 584.191L1186.16 584.188L1182 583L1186.16 581.812C1188.73 581.079 1190.02 580.71 1191.09 580.02C1192.04 579.407 1192.86 578.617 1193.49 577.691C1194.22 576.632 1194.63 575.354 1195.45 572.803L1197 568L1198.55 572.803L1198.57 572.86C1199.38 575.386 1199.79 576.653 1200.51 577.691C1201.15 578.618 1201.96 579.409 1202.91 580.02C1203.97 580.705 1205.26 581.073 1207.83 581.809L1207.84 581.812L1212 583L1207.84 584.188C1205.27 584.921 1203.98 585.29 1202.91 585.98C1201.96 586.593 1201.14 587.383 1200.51 588.309C1199.78 589.368 1199.37 590.646 1198.55 593.197L1197 598L1195.45 593.197L1195.43 593.14Z" fill="#FFF7F7"/>
<path d="M534 323.192L541.288 316L580.981 355.196C581.621 355.824 582.129 356.571 582.475 357.394C582.822 358.217 583 359.099 583 359.99C583 360.881 582.822 361.763 582.475 362.586C582.129 363.408 581.621 364.155 580.981 364.783L541.288 404L534.007 396.808L571.262 360L534 323.192Z" fill="#1E5C93"/>
<path d="M745 323.192L737.712 316L698.019 355.196C697.379 355.824 696.871 356.571 696.525 357.394C696.178 358.217 696 359.099 696 359.99C696 360.881 696.178 361.763 696.525 362.586C696.871 363.408 697.379 364.155 698.019 364.783L737.712 404L744.993 396.808L707.738 360L745 323.192Z" fill="#ECFAFF"/>
</g>
<defs>
<linearGradient id="paint0_linear_410_4449" x1="640" y1="0" x2="640" y2="720" gradientUnits="userSpaceOnUse">
<stop stop-color="#1D2B4C"/>
<stop offset="1" stop-color="#3C398F"/>
</linearGradient>
<linearGradient id="paint1_linear_410_4449" x1="320" y1="0" x2="320" y2="720" gradientUnits="userSpaceOnUse">
<stop stop-color="#A2E2FF"/>
<stop offset="1" stop-color="#65AFFF"/>
</linearGradient>
<linearGradient id="paint2_linear_410_4449" x1="440.847" y1="304.043" x2="352.686" y2="352.611" gradientUnits="userSpaceOnUse">
<stop stop-color="#F7A76B"/>
<stop offset="1" stop-color="#E7744E"/>
</linearGradient>
<linearGradient id="paint3_linear_410_4449" x1="130.489" y1="455.328" x2="218.65" y2="406.76" gradientUnits="userSpaceOnUse">
<stop stop-color="#F7A76B"/>
<stop offset="1" stop-color="#E7744E"/>
</linearGradient>
<linearGradient id="paint4_linear_410_4449" x1="361.308" y1="534.879" x2="312.734" y2="446.718" gradientUnits="userSpaceOnUse">
<stop stop-color="#F7A76B"/>
<stop offset="1" stop-color="#E7744E"/>
</linearGradient>
<linearGradient id="paint5_linear_410_4449" x1="210.028" y1="224.504" x2="258.602" y2="312.665" gradientUnits="userSpaceOnUse">
<stop stop-color="#F7A76B"/>
<stop offset="1" stop-color="#E7744E"/>
</linearGradient>
<linearGradient id="paint6_linear_410_4449" x1="333.975" y1="213.941" x2="310.673" y2="311.865" gradientUnits="userSpaceOnUse">
<stop stop-color="#F7A76B"/>
<stop offset="1" stop-color="#E7744E"/>
</linearGradient>
<linearGradient id="paint7_linear_410_4449" x1="237.361" y1="545.434" x2="260.663" y2="447.51" gradientUnits="userSpaceOnUse">
<stop stop-color="#F7A76B"/>
<stop offset="1" stop-color="#E7744E"/>
</linearGradient>
<linearGradient id="paint8_linear_410_4449" x1="191.364" y1="488.719" x2="238.679" y2="428.547" gradientUnits="userSpaceOnUse">
<stop stop-color="#F7A76B"/>
<stop offset="1" stop-color="#E7744E"/>
</linearGradient>
<linearGradient id="paint9_linear_410_4449" x1="386.472" y1="263.425" x2="339.156" y2="323.598" gradientUnits="userSpaceOnUse">
<stop stop-color="#F7A76B"/>
<stop offset="1" stop-color="#E7744E"/>
</linearGradient>
<linearGradient id="paint10_linear_410_4449" x1="172.512" y1="279.62" x2="232.687" y2="326.931" gradientUnits="userSpaceOnUse">
<stop stop-color="#F7A76B"/>
<stop offset="1" stop-color="#E7744E"/>
</linearGradient>
<linearGradient id="paint11_linear_410_4449" x1="397.79" y1="474.739" x2="337.615" y2="427.429" gradientUnits="userSpaceOnUse">
<stop stop-color="#F7A76B"/>
<stop offset="1" stop-color="#E7744E"/>
</linearGradient>
<linearGradient id="paint12_linear_410_4449" x1="434.055" y1="369.136" x2="357.92" y2="377.04" gradientUnits="userSpaceOnUse">
<stop stop-color="#F7A76B"/>
<stop offset="1" stop-color="#E7744E"/>
</linearGradient>
<linearGradient id="paint13_linear_410_4449" x1="136.499" y1="385.821" x2="212.634" y2="377.917" gradientUnits="userSpaceOnUse">
<stop stop-color="#F7A76B"/>
<stop offset="1" stop-color="#E7744E"/>
</linearGradient>
<linearGradient id="paint14_linear_410_4449" x1="296.781" y1="526.055" x2="287.258" y2="450.101" gradientUnits="userSpaceOnUse">
<stop stop-color="#F7A76B"/>
<stop offset="1" stop-color="#E7744E"/>
</linearGradient>
<linearGradient id="paint15_linear_410_4449" x1="273.774" y1="228.906" x2="283.296" y2="304.86" gradientUnits="userSpaceOnUse">
<stop stop-color="#F7A76B"/>
<stop offset="1" stop-color="#E7744E"/>
</linearGradient>
<linearGradient id="paint16_linear_410_4449" x1="448.467" y1="437.125" x2="351.992" y2="408.429" gradientUnits="userSpaceOnUse">
<stop stop-color="#F7A76B"/>
<stop offset="1" stop-color="#E7744E"/>
</linearGradient>
<linearGradient id="paint17_linear_410_4449" x1="122.869" y1="322.254" x2="219.344" y2="350.95" gradientUnits="userSpaceOnUse">
<stop stop-color="#F7A76B"/>
<stop offset="1" stop-color="#E7744E"/>
</linearGradient>
<linearGradient id="paint18_linear_410_4449" x1="428.937" y1="268.275" x2="348.717" y2="337.176" gradientUnits="userSpaceOnUse">
<stop stop-color="#FFC93C"/>
<stop offset="1" stop-color="#F49C79"/>
</linearGradient>
<linearGradient id="paint19_linear_410_4449" x1="142.303" y1="490.588" x2="222.523" y2="421.687" gradientUnits="userSpaceOnUse">
<stop stop-color="#FFC93C"/>
<stop offset="1" stop-color="#F49C79"/>
</linearGradient>
<linearGradient id="paint20_linear_410_4449" x1="396.77" y1="522.757" x2="327.863" y2="442.54" gradientUnits="userSpaceOnUse">
<stop stop-color="#FFC93C"/>
<stop offset="1" stop-color="#F49C79"/>
</linearGradient>
<linearGradient id="paint21_linear_410_4449" x1="174.47" y1="236.107" x2="243.376" y2="316.323" gradientUnits="userSpaceOnUse">
<stop stop-color="#FFC93C"/>
<stop offset="1" stop-color="#F49C79"/>
</linearGradient>
<linearGradient id="paint22_linear_410_4449" x1="299.663" y1="198.596" x2="296.756" y2="304.308" gradientUnits="userSpaceOnUse">
<stop stop-color="#FFC93C"/>
<stop offset="1" stop-color="#F49C79"/>
</linearGradient>
<linearGradient id="paint23_linear_410_4449" x1="271.576" y1="560.264" x2="274.484" y2="454.552" gradientUnits="userSpaceOnUse">
<stop stop-color="#FFC93C"/>
<stop offset="1" stop-color="#F49C79"/>
</linearGradient>
<linearGradient id="paint24_linear_410_4449" x1="212.081" y1="511.836" x2="247.801" y2="439.783" gradientUnits="userSpaceOnUse">
<stop stop-color="#FFC93C"/>
<stop offset="1" stop-color="#F49C79"/>
</linearGradient>
<linearGradient id="paint25_linear_410_4449" x1="364.287" y1="238.199" x2="328.567" y2="310.253" gradientUnits="userSpaceOnUse">
<stop stop-color="#FFC93C"/>
<stop offset="1" stop-color="#F49C79"/>
</linearGradient>
<linearGradient id="paint26_linear_410_4449" x1="147.74" y1="300.855" x2="219.793" y2="336.57" gradientUnits="userSpaceOnUse">
<stop stop-color="#FFC93C"/>
<stop offset="1" stop-color="#F49C79"/>
</linearGradient>
<linearGradient id="paint27_linear_410_4449" x1="421.357" y1="453.07" x2="349.304" y2="417.356" gradientUnits="userSpaceOnUse">
<stop stop-color="#FFC93C"/>
<stop offset="1" stop-color="#F49C79"/>
</linearGradient>
<linearGradient id="paint28_linear_410_4449" x1="435.947" y1="336.674" x2="359.351" y2="361.17" gradientUnits="userSpaceOnUse">
<stop stop-color="#FFC93C"/>
<stop offset="1" stop-color="#F49C79"/>
</linearGradient>
<linearGradient id="paint29_linear_410_4449" x1="133.539" y1="417.814" x2="210.135" y2="393.318" gradientUnits="userSpaceOnUse">
<stop stop-color="#FFC93C"/>
<stop offset="1" stop-color="#F49C79"/>
</linearGradient>
<linearGradient id="paint30_linear_410_4449" x1="328.515" y1="527.562" x2="302.391" y2="451.502" gradientUnits="userSpaceOnUse">
<stop stop-color="#FFC93C"/>
<stop offset="1" stop-color="#F49C79"/>
</linearGradient>
<linearGradient id="paint31_linear_410_4449" x1="240.971" y1="226.93" x2="267.095" y2="302.99" gradientUnits="userSpaceOnUse">
<stop stop-color="#FFC93C"/>
<stop offset="1" stop-color="#F49C79"/>
</linearGradient>
<linearGradient id="paint32_linear_410_4449" x1="465.384" y1="403.491" x2="360.004" y2="394.723" gradientUnits="userSpaceOnUse">
<stop stop-color="#FFC93C"/>
<stop offset="1" stop-color="#F49C79"/>
</linearGradient>
<linearGradient id="paint33_linear_410_4449" x1="105.855" y1="355.376" x2="211.236" y2="364.144" gradientUnits="userSpaceOnUse">
<stop stop-color="#FFC93C"/>
<stop offset="1" stop-color="#F49C79"/>
</linearGradient>
<radialGradient id="paint34_radial_410_4449" cx="0" cy="0" r="1" gradientTransform="matrix(-42.5689 170.605 -188.642 -47.0757 307.314 358.462)" gradientUnits="userSpaceOnUse">
<stop stop-color="#AC6042"/>
<stop offset="1" stop-color="#62342A"/>
</radialGradient>
<clipPath id="clip0_410_4449">
<rect width="1280" height="720" fill="white"/>
</clipPath>
</defs>
</svg>
