<svg width="1280" height="720" viewBox="0 0 1280 720" fill="none" xmlns="http://www.w3.org/2000/svg">
<rect width="1280" height="720" fill="#ECFAFF"/>
<path d="M533.13 358.344H367.339" stroke="#50598C" stroke-width="5"/>
<g filter="url(#filter0_di_548_112)">
<path fill-rule="evenodd" clip-rule="evenodd" d="M66 358.342L249.612 174.73L433.223 358.342L249.612 541.954L66 358.342Z" fill="url(#paint0_linear_548_112)"/>
</g>
<mask id="path-3-inside-1_548_112" fill="white">
<path d="M529.349 203.891H814.487V541.952H529.349V203.891Z"/>
</mask>
<path d="M529.349 203.891V198.891H524.349V203.891H529.349ZM529.349 541.952H524.349V546.952H529.349V541.952ZM529.349 203.891V208.891H814.487V203.891V198.891H529.349V203.891ZM814.487 541.952V536.952H529.349V541.952V546.952H814.487V541.952ZM529.349 541.952H534.349V203.891H529.349H524.349V541.952H529.349Z" fill="#50598C" mask="url(#path-3-inside-1_548_112)"/>
<path fill-rule="evenodd" clip-rule="evenodd" d="M817.255 207.615L808.128 215.775L805.847 213.735L813.833 206.595L805.847 199.454L808.128 197.414L817.255 205.575C817.558 205.845 817.727 206.212 817.727 206.595C817.727 206.977 817.558 207.344 817.255 207.615Z" fill="#50598C"/>
<path fill-rule="evenodd" clip-rule="evenodd" d="M817.255 540.271L808.128 548.431L805.847 546.392L813.833 539.251L805.847 532.11L808.128 530.07L817.255 538.231C817.558 538.502 817.727 538.868 817.727 539.251C817.727 539.633 817.558 540 817.255 540.271Z" fill="#50598C"/>
<path d="M690.279 199.032L681.639 187.691L650.857 208.753L672.458 227.654L690.279 199.032Z" fill="white"/>
<path fill-rule="evenodd" clip-rule="evenodd" d="M671.918 235.485C675.641 235.485 679.328 234.751 682.768 233.327C686.208 231.902 689.333 229.813 691.966 227.181C694.599 224.548 696.687 221.423 698.112 217.983C699.537 214.543 700.27 210.856 700.27 207.133C700.27 203.41 699.537 199.723 698.112 196.283C696.687 192.843 694.599 189.718 691.966 187.085C689.333 184.453 686.208 182.364 682.768 180.939C679.328 179.515 675.641 178.781 671.918 178.781C664.399 178.781 657.187 181.768 651.87 187.085C646.553 192.402 643.566 199.614 643.566 207.133C643.566 214.652 646.553 221.864 651.87 227.181C657.187 232.498 664.399 235.485 671.918 235.485ZM671.187 218.6L686.938 199.699L682.1 195.666L668.554 211.918L661.545 204.906L657.09 209.36L666.541 218.811L668.979 221.249L671.187 218.6Z" fill="url(#paint1_linear_548_112)"/>
<path d="M693.519 523.591V552.753L651.937 557.073L655.177 520.891L693.519 523.591Z" fill="white"/>
<path fill-rule="evenodd" clip-rule="evenodd" d="M671.918 571.293C689.317 571.293 703.42 557.19 703.42 539.791C703.42 522.393 689.317 508.289 671.918 508.289C654.519 508.289 640.416 522.393 640.416 539.791C640.416 557.19 654.519 571.293 671.918 571.293ZM684.727 526.982C685.169 527.425 685.418 528.026 685.418 528.652C685.418 529.278 685.169 529.879 684.727 530.322L675.257 539.791L684.724 549.257C685.141 549.705 685.368 550.298 685.357 550.91C685.346 551.522 685.099 552.106 684.666 552.539C684.233 552.972 683.649 553.22 683.037 553.23C682.425 553.241 681.832 553.014 681.384 552.597L671.918 543.137L662.452 552.603C662.235 552.835 661.975 553.021 661.685 553.15C661.395 553.279 661.082 553.349 660.765 553.355C660.448 553.36 660.132 553.302 659.838 553.183C659.544 553.064 659.277 552.887 659.052 552.663C658.828 552.439 658.651 552.171 658.532 551.877C658.414 551.583 658.355 551.268 658.361 550.951C658.366 550.633 658.436 550.32 658.565 550.031C658.694 549.741 658.88 549.48 659.112 549.264L668.572 539.791L659.109 530.325C658.877 530.108 658.691 529.848 658.562 529.558C658.433 529.268 658.363 528.955 658.358 528.638C658.352 528.321 658.41 528.005 658.529 527.711C658.648 527.417 658.825 527.15 659.049 526.926C659.274 526.701 659.541 526.524 659.835 526.405C660.129 526.287 660.444 526.228 660.762 526.234C661.079 526.239 661.392 526.309 661.682 526.438C661.971 526.567 662.232 526.753 662.449 526.985L671.918 536.446L681.384 526.979C681.827 526.537 682.428 526.288 683.054 526.288C683.68 526.288 684.281 526.537 684.724 526.979" fill="url(#paint2_linear_548_112)"/>
<path d="M661.91 150.418C658.846 150.418 656.1 149.92 653.672 148.925C651.244 147.93 649.294 146.458 647.822 144.508C646.389 142.558 645.633 140.21 645.553 137.463H656.418C656.577 139.016 657.115 140.21 658.03 141.045C658.945 141.841 660.139 142.239 661.612 142.239C663.124 142.239 664.318 141.901 665.194 141.224C666.069 140.508 666.507 139.533 666.507 138.299C666.507 137.264 666.149 136.409 665.432 135.732C664.756 135.056 663.9 134.498 662.865 134.061C661.87 133.623 660.438 133.125 658.567 132.568C655.861 131.732 653.652 130.897 651.941 130.061C650.229 129.225 648.757 127.991 647.523 126.36C646.289 124.728 645.672 122.599 645.672 119.972C645.672 116.072 647.085 113.027 649.911 110.838C652.737 108.609 656.418 107.495 660.955 107.495C665.572 107.495 669.293 108.609 672.119 110.838C674.944 113.027 676.457 116.092 676.656 120.032H665.612C665.532 118.678 665.034 117.624 664.119 116.868C663.204 116.072 662.03 115.674 660.597 115.674C659.363 115.674 658.368 116.012 657.612 116.689C656.856 117.325 656.478 118.261 656.478 119.494C656.478 120.847 657.115 121.902 658.388 122.658C659.662 123.414 661.652 124.23 664.358 125.106C667.064 126.021 669.253 126.897 670.925 127.733C672.636 128.568 674.109 129.782 675.342 131.374C676.576 132.966 677.193 135.016 677.193 137.523C677.193 139.911 676.576 142.08 675.342 144.03C674.148 145.98 672.397 147.532 670.089 148.687C667.781 149.841 665.054 150.418 661.91 150.418ZM694.46 116.689V150H684.251V116.689H694.46ZM696.31 108.39L681.923 114.42V107.376L696.31 100.451V108.39Z" fill="#1E5C93"/>
<path d="M623.079 478.418C620.014 478.418 617.268 477.92 614.84 476.925C612.413 475.93 610.463 474.458 608.99 472.508C607.557 470.558 606.801 468.21 606.722 465.463H617.587C617.746 467.016 618.283 468.21 619.198 469.045C620.114 469.841 621.308 470.239 622.78 470.239C624.293 470.239 625.487 469.901 626.362 469.224C627.238 468.508 627.676 467.533 627.676 466.299C627.676 465.264 627.317 464.409 626.601 463.732C625.924 463.056 625.069 462.498 624.034 462.061C623.039 461.623 621.606 461.125 619.736 460.568C617.029 459.732 614.821 458.897 613.109 458.061C611.398 457.225 609.925 455.991 608.692 454.36C607.458 452.728 606.841 450.599 606.841 447.972C606.841 444.072 608.254 441.027 611.08 438.838C613.905 436.609 617.587 435.495 622.124 435.495C626.74 435.495 630.461 436.609 633.287 438.838C636.113 441.027 637.625 444.092 637.824 448.032H626.78C626.7 446.678 626.203 445.624 625.288 444.868C624.372 444.072 623.198 443.674 621.765 443.674C620.532 443.674 619.537 444.012 618.781 444.689C618.024 445.325 617.646 446.261 617.646 447.494C617.646 448.847 618.283 449.902 619.557 450.658C620.83 451.414 622.82 452.23 625.526 453.106C628.233 454.021 630.422 454.897 632.093 455.733C633.805 456.568 635.277 457.782 636.511 459.374C637.745 460.966 638.361 463.016 638.361 465.523C638.361 467.911 637.745 470.08 636.511 472.03C635.317 473.98 633.566 475.532 631.257 476.687C628.949 477.841 626.223 478.418 623.079 478.418ZM649.778 441.226C647.987 441.226 646.514 440.709 645.36 439.674C644.246 438.599 643.689 437.286 643.689 435.734C643.689 434.142 644.246 432.829 645.36 431.794C646.514 430.719 647.987 430.182 649.778 430.182C651.529 430.182 652.962 430.719 654.076 431.794C655.23 432.829 655.807 434.142 655.807 435.734C655.807 437.286 655.23 438.599 654.076 439.674C652.962 440.709 651.529 441.226 649.778 441.226ZM654.852 444.689V478H644.644V444.689H654.852ZM682.547 444.33C686.448 444.33 689.552 445.604 691.86 448.151C694.208 450.658 695.382 454.121 695.382 458.538V478H685.234V459.912C685.234 457.683 684.657 455.952 683.503 454.718C682.348 453.484 680.796 452.867 678.846 452.867C676.896 452.867 675.344 453.484 674.19 454.718C673.035 455.952 672.458 457.683 672.458 459.912V478H662.25V444.689H672.458V449.106C673.493 447.634 674.886 446.479 676.637 445.644C678.388 444.768 680.358 444.33 682.547 444.33ZM717.64 478.478C714.376 478.478 711.431 477.781 708.804 476.388C706.217 474.995 704.168 473.005 702.655 470.418C701.183 467.831 700.446 464.807 700.446 461.344C700.446 457.922 701.203 454.917 702.715 452.33C704.227 449.703 706.297 447.693 708.924 446.3C711.55 444.907 714.495 444.211 717.759 444.211C721.022 444.211 723.967 444.907 726.594 446.3C729.221 447.693 731.29 449.703 732.803 452.33C734.315 454.917 735.071 457.922 735.071 461.344C735.071 464.767 734.295 467.792 732.743 470.418C731.231 473.005 729.141 474.995 726.475 476.388C723.848 477.781 720.903 478.478 717.64 478.478ZM717.64 469.642C719.59 469.642 721.241 468.926 722.594 467.493C723.987 466.06 724.684 464.011 724.684 461.344C724.684 458.678 724.007 456.628 722.654 455.195C721.341 453.763 719.709 453.046 717.759 453.046C715.769 453.046 714.117 453.763 712.804 455.195C711.491 456.588 710.834 458.638 710.834 461.344C710.834 464.011 711.471 466.06 712.744 467.493C714.058 468.926 715.689 469.642 717.64 469.642Z" fill="#1E5C93"/>
<path d="M294.5 350.718C294.659 346.46 296.052 343.176 298.679 340.868C301.306 338.56 304.868 337.406 309.365 337.406C312.35 337.406 314.897 337.923 317.006 338.958C319.155 339.993 320.767 341.405 321.842 343.196C322.956 344.987 323.513 346.997 323.513 349.226C323.513 351.853 322.857 354.002 321.543 355.673C320.23 357.305 318.698 358.419 316.947 359.016V359.255C319.215 360.011 321.006 361.265 322.319 363.016C323.633 364.767 324.289 367.016 324.289 369.762C324.289 372.229 323.712 374.418 322.558 376.329C321.444 378.199 319.792 379.672 317.603 380.746C315.454 381.821 312.887 382.358 309.902 382.358C305.126 382.358 301.306 381.184 298.44 378.836C295.615 376.488 294.122 372.946 293.963 368.21H303.873C303.913 369.961 304.41 371.354 305.365 372.389C306.32 373.384 307.713 373.881 309.544 373.881C311.096 373.881 312.29 373.443 313.126 372.568C314.001 371.652 314.439 370.458 314.439 368.986C314.439 367.075 313.822 365.702 312.589 364.867C311.395 363.991 309.464 363.553 306.798 363.553H304.888V355.255H306.798C308.828 355.255 310.459 354.917 311.693 354.24C312.967 353.524 313.604 352.27 313.604 350.479C313.604 349.047 313.206 347.932 312.41 347.136C311.614 346.34 310.519 345.942 309.126 345.942C307.614 345.942 306.48 346.4 305.723 347.315C305.007 348.231 304.589 349.365 304.47 350.718H294.5ZM330.287 359.613C330.287 352.768 331.601 347.375 334.227 343.435C336.894 339.495 341.172 337.525 347.062 337.525C352.953 337.525 357.211 339.495 359.838 343.435C362.504 347.375 363.838 352.768 363.838 359.613C363.838 366.538 362.504 371.971 359.838 375.911C357.211 379.851 352.953 381.821 347.062 381.821C341.172 381.821 336.894 379.851 334.227 375.911C331.601 371.971 330.287 366.538 330.287 359.613ZM353.808 359.613C353.808 355.594 353.37 352.509 352.495 350.36C351.619 348.171 349.808 347.077 347.062 347.077C344.316 347.077 342.505 348.171 341.63 350.36C340.754 352.509 340.317 355.594 340.317 359.613C340.317 362.32 340.476 364.568 340.794 366.359C341.112 368.11 341.749 369.543 342.704 370.657C343.699 371.732 345.152 372.269 347.062 372.269C348.973 372.269 350.405 371.732 351.361 370.657C352.356 369.543 353.012 368.11 353.331 366.359C353.649 364.568 353.808 362.32 353.808 359.613Z" fill="white"/>
<path fill-rule="evenodd" clip-rule="evenodd" d="M1082.36 169.964C1082.74 197.854 1060.41 220.774 1032.49 221.149C1004.57 221.523 981.633 199.21 981.259 171.321C981.108 160.114 984.632 149.717 990.699 141.262L1072.13 140.169C1078.42 148.468 1082.21 158.758 1082.36 169.964Z" fill="#292631"/>
<path d="M1034.9 338.227L1071.02 284.46H996.46L1034.9 338.227Z" fill="#292631"/>
<path d="M1070.71 284.965C1076.01 277.557 1079.14 268.498 1079.14 258.714C1079.14 233.709 1058.82 213.445 1033.74 213.445C1008.67 213.445 988.344 233.709 988.344 258.714C988.344 268.498 991.471 277.564 996.772 284.965L1070.71 284.965Z" fill="#292631"/>
<path d="M1075.18 160.693L1038.89 142.502C1040.77 124.273 1056.9 85.3428 1082.45 77.2513C1098.22 102.815 1087.79 143.913 1075.18 160.693Z" fill="#292631"/>
<path d="M1032.63 203C1038.19 202.909 1039 189.956 1039 189.956L1036.2 188.913L1032.63 185L1030.33 187.609L1026 189.956C1026 189.956 1027.02 203.091 1032.63 203Z" fill="#B26B61"/>
<path d="M1024 170.794C1024 172.884 1022.31 174.578 1020.21 174.578C1019.72 174.578 1019.23 174.481 1018.77 174.291C1018.31 174.101 1017.89 173.822 1017.54 173.47C1017.19 173.119 1016.91 172.702 1016.72 172.243C1016.53 171.783 1016.43 171.291 1016.43 170.794C1016.43 168.709 1018.12 167.012 1020.21 167.012C1022.31 167.012 1024 168.709 1024 170.794Z" fill="#FFC93C"/>
<path d="M1049.16 170.794C1049.16 171.798 1048.76 172.76 1048.05 173.47C1047.34 174.18 1046.38 174.579 1045.38 174.579C1044.37 174.579 1043.41 174.18 1042.7 173.47C1041.99 172.76 1041.59 171.798 1041.59 170.794C1041.59 168.709 1043.29 167.012 1045.38 167.012C1047.47 167.012 1049.16 168.709 1049.16 170.794Z" fill="#FFC93C"/>
<path d="M1025.78 188.974C1029.65 188.974 1032.8 185.843 1032.8 181.969" stroke="#52566D" stroke-width="2.43916" stroke-miterlimit="10"/>
<path d="M1039.81 188.976C1035.94 188.976 1032.79 185.845 1032.79 181.971V179.457" stroke="#52566D" stroke-width="2.43916" stroke-miterlimit="10"/>
<path d="M1026.89 176.41C1026.89 177.21 1027.04 178.002 1027.34 178.741C1027.63 179.479 1028.06 180.151 1028.6 180.716C1029.14 181.281 1029.78 181.73 1030.49 182.035C1031.2 182.341 1031.96 182.498 1032.72 182.497C1033.49 182.499 1034.25 182.343 1034.95 182.038C1035.66 181.732 1036.31 181.284 1036.85 180.719C1037.39 180.154 1037.82 179.482 1038.11 178.743C1038.41 178.003 1038.56 177.211 1038.56 176.41" fill="#52566D"/>
<path d="M1026.89 176.41C1026.89 177.21 1027.04 178.002 1027.34 178.741C1027.63 179.479 1028.06 180.151 1028.6 180.716C1029.14 181.281 1029.78 181.73 1030.49 182.035C1031.2 182.341 1031.96 182.498 1032.72 182.497C1033.49 182.499 1034.25 182.343 1034.95 182.038C1035.66 181.732 1036.31 181.284 1036.85 180.719C1037.39 180.154 1037.82 179.482 1038.11 178.743C1038.41 178.003 1038.56 177.211 1038.56 176.41" stroke="#52566D" stroke-width="2.43916" stroke-miterlimit="10"/>
<path d="M1078.14 91.2758C1083.33 114.454 1080.01 128.415 1070.48 146.954C1063.53 141.445 1059.94 140.779 1051.99 138.107C1055.81 116.603 1064.88 100.827 1078.14 91.2758Z" fill="#B26B61"/>
<path d="M990.824 160.693L1027.11 142.502C1025.23 124.273 1009.1 85.3428 983.551 77.2513C967.781 102.815 978.211 143.913 990.824 160.693Z" fill="#292631"/>
<path d="M987.856 91.2758C982.674 114.454 985.988 128.415 995.515 146.954C1002.47 141.445 1006.06 140.779 1014.01 138.107C1010.19 116.603 1001.12 100.827 987.856 91.2758Z" fill="#B26B61"/>
<path d="M955.792 160.193C961.207 197.723 974.649 217.758 1012.44 228.664L997.221 266.706C980.482 257.323 963.997 250.982 950.809 266.706C950.809 235.765 917.585 231.961 901.608 241.852C901.608 206.853 869.902 208.718 859 210.492C873.04 169.614 929.378 159.927 955.792 160.193Z" fill="#292631"/>
<path d="M1110.21 162.22C1104.79 199.75 1091.35 219.786 1053.56 230.691L1068.78 268.734C1085.52 259.35 1102 253.009 1115.19 268.734C1115.19 237.792 1148.41 233.988 1164.39 243.879C1164.39 208.88 1196.1 210.745 1207 212.519C1192.96 171.641 1136.62 161.954 1110.21 162.22Z" fill="#292631"/>
<path fill-rule="evenodd" clip-rule="evenodd" d="M980.684 569.709C980.284 539.921 1004.13 515.44 1033.95 515.04C1063.77 514.64 1088.27 538.472 1088.67 568.26C1088.83 580.229 1085.07 591.334 1078.59 600.365L991.608 601.532C984.899 592.668 980.844 581.678 980.684 569.709Z" fill="#292631"/>
<path d="M1031.38 390L992.795 447.426H1072.43L1031.38 390Z" fill="#292631"/>
<path d="M993.129 446.887C987.474 454.798 984.127 464.474 984.127 474.924C984.127 501.631 1005.83 523.273 1032.61 523.273C1059.4 523.273 1081.1 501.631 1081.1 474.924C1081.1 464.474 1077.76 454.791 1072.1 446.886L993.129 446.887Z" fill="#292631"/>
<path d="M988.36 579.615L1027.11 599.045C1025.1 618.514 1007.87 660.094 980.591 668.736C963.749 641.432 974.888 597.537 988.36 579.615Z" fill="#292631"/>
<path d="M1043.02 568.827C1043.02 566.595 1044.83 564.786 1047.06 564.786C1047.59 564.786 1048.12 564.89 1048.61 565.093C1049.1 565.296 1049.55 565.594 1049.92 565.969C1050.3 566.344 1050.59 566.79 1050.8 567.28C1051 567.771 1051.11 568.296 1051.11 568.827C1051.11 571.054 1049.3 572.867 1047.06 572.867C1044.83 572.867 1043.02 571.054 1043.02 568.827Z" fill="#FFC93C"/>
<path d="M1016.14 568.827C1016.14 567.755 1016.57 566.727 1017.33 565.969C1018.09 565.211 1019.11 564.785 1020.19 564.785C1021.26 564.785 1022.29 565.211 1023.04 565.969C1023.8 566.727 1024.23 567.755 1024.23 568.827C1024.23 571.054 1022.42 572.867 1020.18 572.867C1017.96 572.867 1016.14 571.054 1016.14 568.827Z" fill="#FFC93C"/>
<path d="M1041.12 549.409C1036.98 549.409 1033.62 552.753 1033.62 556.891" stroke="#52566D" stroke-width="2.43916" stroke-miterlimit="10"/>
<path d="M1026.13 549.412C1030.26 549.412 1033.62 552.755 1033.62 556.893V559.578" stroke="#52566D" stroke-width="2.43916" stroke-miterlimit="10"/>
<path d="M1039.93 562.828C1039.93 561.974 1039.77 561.128 1039.45 560.339C1039.14 559.55 1038.68 558.833 1038.1 558.229C1037.53 557.625 1036.84 557.147 1036.08 556.82C1035.33 556.494 1034.52 556.326 1033.7 556.327C1032.88 556.325 1032.07 556.492 1031.32 556.818C1030.56 557.144 1029.87 557.622 1029.3 558.226C1028.72 558.83 1028.26 559.547 1027.94 560.337C1027.63 561.126 1027.47 561.973 1027.47 562.828" fill="#52566D"/>
<path d="M1039.93 562.828C1039.93 561.974 1039.77 561.128 1039.45 560.339C1039.14 559.55 1038.68 558.833 1038.1 558.229C1037.53 557.625 1036.84 557.147 1036.08 556.82C1035.33 556.494 1034.52 556.326 1033.7 556.327C1032.88 556.325 1032.07 556.492 1031.32 556.818C1030.56 557.144 1029.87 557.622 1029.3 558.226C1028.72 558.83 1028.26 559.547 1027.94 560.337C1027.63 561.126 1027.47 561.973 1027.47 562.828" stroke="#52566D" stroke-width="2.43916" stroke-miterlimit="10"/>
<path d="M985.189 653.763C979.654 629.007 983.194 614.096 993.369 594.296C1000.8 600.179 1004.63 600.891 1013.12 603.745C1009.04 626.712 999.354 643.561 985.189 653.763Z" fill="#B26B61"/>
<path d="M1078.45 579.615L1039.7 599.045C1041.71 618.514 1058.94 660.094 1086.22 668.736C1103.06 641.432 1091.92 597.537 1078.45 579.615Z" fill="#292631"/>
<path d="M1081.62 653.763C1087.16 629.007 1083.62 614.096 1073.44 594.296C1066.01 600.179 1062.18 600.891 1053.69 603.745C1057.77 626.712 1067.46 643.561 1081.62 653.763Z" fill="#B26B61"/>
<path d="M171.271 327.713L170.358 326.824V320.051C170.358 312.708 170.358 312.469 171.678 311.486C172.843 310.597 175.224 310.98 176.033 312.202C176.671 313.17 176.731 314.059 176.56 320.492L176.389 326.882L175.514 327.742C174.72 328.515 174.512 328.595 173.407 328.595C172.294 328.595 172.094 328.515 171.271 327.713Z" fill="#FDC147"/>
<path d="M149.422 337.197C148.371 336.899 139.65 328.585 139.18 327.441C138.951 326.941 138.883 326.387 138.986 325.851C139.089 325.314 139.357 324.818 139.757 324.424C140.157 324.031 140.671 323.757 141.234 323.638C141.798 323.518 142.387 323.558 142.927 323.753C144.147 324.148 152.405 331.872 153.067 333.231C153.257 333.582 153.366 333.967 153.388 334.361C153.41 334.754 153.344 335.148 153.193 335.516C153.043 335.884 152.812 336.217 152.515 336.495C152.219 336.773 151.863 336.988 151.472 337.128C150.612 337.467 150.399 337.474 149.422 337.197Z" fill="#FDC147"/>
<path d="M195.005 337.588C194.479 337.219 194.085 336.688 193.882 336.074C193.167 334.183 193.517 333.652 199.066 328.253C203.806 323.644 203.901 323.57 204.878 323.57C207.233 323.57 208.779 325.948 207.722 327.957C207.328 328.711 198.709 337.411 197.987 337.78C197.506 337.969 196.99 338.049 196.475 338.016C195.96 337.983 195.458 337.837 195.005 337.588Z" fill="#FDC147"/>
<path d="M171.271 387.287L170.358 388.176V394.949C170.358 402.292 170.358 402.531 171.678 403.514C172.843 404.403 175.224 404.02 176.033 402.798C176.671 401.83 176.731 400.941 176.56 394.508L176.389 388.118L175.514 387.258C174.72 386.485 174.512 386.405 173.407 386.405C172.294 386.405 172.094 386.485 171.271 387.287Z" fill="#FDC147"/>
<path d="M149.422 377.803C148.371 378.101 139.65 386.415 139.18 387.559C138.951 388.059 138.883 388.613 138.986 389.149C139.089 389.686 139.357 390.182 139.757 390.576C140.157 390.969 140.671 391.243 141.234 391.362C141.798 391.482 142.387 391.442 142.927 391.247C144.147 390.852 152.405 383.128 153.067 381.769C153.257 381.418 153.366 381.033 153.388 380.639C153.41 380.246 153.344 379.852 153.193 379.484C153.043 379.116 152.812 378.783 152.515 378.505C152.219 378.227 151.863 378.012 151.472 377.872C150.612 377.533 150.399 377.526 149.422 377.803Z" fill="#FDC147"/>
<path d="M195.005 377.412C194.479 377.781 194.085 378.312 193.882 378.926C193.167 380.817 193.517 381.348 199.066 386.747C203.806 391.356 203.901 391.43 204.878 391.43C207.233 391.43 208.779 389.052 207.722 387.043C207.328 386.289 198.709 377.589 197.987 377.22C197.506 377.031 196.99 376.951 196.475 376.984C195.96 377.017 195.458 377.163 195.005 377.412Z" fill="#FDC147"/>
<path d="M132.161 359.913L128.557 359.778L127.779 358.987C127.108 358.297 127 358.04 127 357.113C127 356.187 127.108 355.93 127.786 355.24L128.564 354.442L135.469 354.381C142.006 354.327 142.417 354.347 143.109 354.746C144.139 355.342 144.616 356.126 144.594 357.208C144.603 357.686 144.481 358.159 144.238 358.579C143.996 359 143.642 359.355 143.21 359.609C142.691 359.934 142.093 359.994 139.188 360.015C137.314 360.015 134.143 359.974 132.168 359.907L132.161 359.913Z" fill="#FDC147"/>
<path d="M207.567 359.913L203.963 359.778L203.184 358.987C202.514 358.297 202.406 358.04 202.406 357.113C202.406 356.187 202.514 355.93 203.191 355.24L203.97 354.442L210.875 354.381C217.412 354.327 217.822 354.347 218.514 354.746C219.545 355.342 220.021 356.126 219.999 357.208C220.009 357.686 219.886 358.159 219.644 358.579C219.401 359 219.047 359.355 218.615 359.609C218.096 359.934 217.498 359.994 214.594 360.015C212.72 360.015 209.548 359.974 207.574 359.907L207.567 359.913Z" fill="#FDC147"/>
<path d="M179.184 380.078C182.397 379.306 185.413 377.887 188.043 375.911C190.673 373.935 192.861 371.444 194.467 368.594C198.043 362.297 198.348 354.016 195.252 347.404C194.15 344.961 192.593 342.745 190.659 340.87C188.586 338.7 186.089 336.965 183.319 335.77C179.047 333.792 174.261 333.161 169.612 333.964C150.775 337.21 143.071 359.561 156.095 373.193C162.243 379.627 170.47 382.077 179.184 380.071V380.078Z" fill="#FDC147"/>
<path d="M262 340.678L258.282 337L238.03 357.044C237.704 357.365 237.445 357.747 237.268 358.167C237.091 358.588 237 359.039 237 359.495C237 359.95 237.091 360.402 237.268 360.822C237.445 361.243 237.704 361.625 238.03 361.946L258.282 382L261.996 378.322L242.989 359.5L262 340.678Z" fill="#ECFAFF"/>
<path d="M1130 491L1167 530" stroke="#1E5C93" stroke-width="9" stroke-linecap="round"/>
<path d="M1167 491L1130 530" stroke="#1E5C93" stroke-width="9" stroke-linecap="round"/>
<path d="M1127.08 69.3222C1123.83 70.1424 1123.46 74.0093 1126.47 75.7302C1127.13 76.1089 1128.74 77.175 1130.08 78.1108C1136.68 82.7176 1142.12 88.7582 1145.97 95.742C1149.81 102.726 1151.96 110.456 1152.22 118.305C1152.51 125.948 1150.87 133.523 1147.29 141.033C1146.31 143.086 1145.55 144.993 1145.54 145.428C1145.49 147.147 1146.87 148.577 1148.8 148.804C1150.87 149.048 1151.4 148.56 1153.4 144.681C1159.49 132.839 1160.9 119.204 1157.44 105.733C1153.75 91.4185 1143.4 77.6725 1130.96 70.5531L1128.28 69.0174L1127.08 69.3222Z" fill="#31C0FD"/>
<path d="M1121.44 81.153C1120.69 81.1911 1119.98 81.4803 1119.42 81.9732C1118.87 82.4662 1118.5 83.134 1118.38 83.8677C1118.06 85.6392 1118.65 86.5259 1121.35 88.3235C1125.84 91.1978 1129.68 94.9797 1132.6 99.4145C1139.45 109.759 1140.57 123.534 1135.4 133.946C1134.8 135.156 1134.11 136.595 1133.87 137.163C1132.72 139.942 1135.22 142.616 1138.2 141.78C1139.07 141.528 1139.38 141.265 1140.15 140.088C1141.96 137.363 1143.92 132.054 1144.81 127.495C1148.15 110.383 1140.29 92.2758 1125.44 82.8992C1122.65 81.1393 1122.51 81.0789 1121.44 81.153Z" fill="#31C0FD"/>
<path d="M927.851 148.239C931.106 149.044 933.249 145.804 931.404 142.871C930.998 142.226 930.074 140.526 929.333 139.07C925.678 131.903 923.715 124.012 923.604 116.04C923.492 108.067 925.236 100.237 928.693 93.1852C932.029 86.3029 937.039 80.3892 943.735 75.4473C945.565 74.0956 947.132 72.7701 947.349 72.393C948.199 70.8977 947.656 68.9877 946.059 67.8802C944.342 66.6886 943.642 66.8687 940.057 69.3541C929.111 76.9395 921.455 88.31 918.18 101.829C914.703 116.196 917.371 133.193 925.003 145.327L926.649 147.944L927.851 148.239Z" fill="#31C0FD"/>
<path d="M938.389 140.449C939.07 140.769 939.834 140.848 940.557 140.675C941.279 140.501 941.917 140.085 942.367 139.493C943.484 138.081 943.375 137.018 941.84 134.163C939.227 129.514 937.62 124.372 937.128 119.085C935.944 106.733 941.436 94.0515 950.896 87.2941C951.992 86.5066 953.277 85.5608 953.755 85.1714C956.084 83.2636 955.131 79.7259 952.112 79.0645C951.222 78.8759 950.822 78.9608 949.59 79.6376C946.711 81.1922 942.483 84.9547 939.554 88.5597C928.561 102.092 926.988 121.771 935.676 137.025C937.316 139.893 937.41 140.011 938.389 140.449Z" fill="#31C0FD"/>
<defs>
<filter id="filter0_di_548_112" x="62" y="174.73" width="375.223" height="376.223" filterUnits="userSpaceOnUse" color-interpolation-filters="sRGB">
<feFlood flood-opacity="0" result="BackgroundImageFix"/>
<feColorMatrix in="SourceAlpha" type="matrix" values="0 0 0 0 0 0 0 0 0 0 0 0 0 0 0 0 0 0 127 0" result="hardAlpha"/>
<feOffset dy="4"/>
<feGaussianBlur stdDeviation="2"/>
<feComposite in2="hardAlpha" operator="out"/>
<feColorMatrix type="matrix" values="0 0 0 0 0 0 0 0 0 0 0 0 0 0 0 0 0 0 0.25 0"/>
<feBlend mode="normal" in2="BackgroundImageFix" result="effect1_dropShadow_548_112"/>
<feBlend mode="normal" in="SourceGraphic" in2="effect1_dropShadow_548_112" result="shape"/>
<feColorMatrix in="SourceAlpha" type="matrix" values="0 0 0 0 0 0 0 0 0 0 0 0 0 0 0 0 0 0 127 0" result="hardAlpha"/>
<feOffset dy="9"/>
<feGaussianBlur stdDeviation="20.4"/>
<feComposite in2="hardAlpha" operator="arithmetic" k2="-1" k3="1"/>
<feColorMatrix type="matrix" values="0 0 0 0 0.557707 0 0 0 0 0.514631 0 0 0 0 0.822791 0 0 0 0.25 0"/>
<feBlend mode="normal" in2="shape" result="effect2_innerShadow_548_112"/>
</filter>
<linearGradient id="paint0_linear_548_112" x1="249.612" y1="174.73" x2="249.612" y2="541.954" gradientUnits="userSpaceOnUse">
<stop stop-color="#1C5D93"/>
<stop offset="1" stop-color="#745686"/>
</linearGradient>
<linearGradient id="paint1_linear_548_112" x1="671.918" y1="178.781" x2="671.918" y2="235.485" gradientUnits="userSpaceOnUse">
<stop stop-color="#1EAD28"/>
<stop offset="1" stop-color="#38813E"/>
</linearGradient>
<linearGradient id="paint2_linear_548_112" x1="671.918" y1="508.289" x2="671.918" y2="571.293" gradientUnits="userSpaceOnUse">
<stop stop-color="#CE393C"/>
<stop offset="1" stop-color="#6F214F"/>
</linearGradient>
</defs>
</svg>
