<svg width="1280" height="720" viewBox="0 0 1280 720" fill="none" xmlns="http://www.w3.org/2000/svg">
<rect width="1280" height="720" fill="url(#paint0_linear_549_206)"/>
<path fill-rule="evenodd" clip-rule="evenodd" d="M716.564 260.553C727.407 314.463 692.452 366.981 638.489 377.835C584.533 388.688 531.98 353.772 521.136 299.863C516.779 278.201 519.836 256.775 528.524 238.19L685.935 206.527C701.118 220.33 712.207 238.892 716.564 260.553Z" fill="#292631"/>
<path d="M685.634 603.824L736.127 486.529L591.637 513.58L685.634 603.824Z" fill="#292631"/>
<path d="M735.705 487.623C743.277 471.348 746.063 452.657 742.514 433.696C733.442 385.241 686.711 353.347 638.123 362.444C589.527 371.541 557.499 418.181 566.571 466.636C570.12 485.597 579.468 502.029 592.426 514.448L735.705 487.623Z" fill="#292631"/>
<path d="M632.412 340.112C643.108 337.933 640.098 313.239 640.098 313.239L634.324 312.285L626.064 306.201L622.561 311.944L615.034 317.931C615.034 317.931 621.63 342.308 632.412 340.112Z" fill="#B26B61"/>
<path d="M699.274 245.197L622.362 223.11C619.393 187.104 636.53 105.812 683.096 80.864C722.929 124.681 717.628 208.106 699.274 245.197Z" fill="#292631"/>
<path d="M603.774 283.34C604.532 287.389 601.861 291.287 597.807 292.046C596.844 292.227 595.854 292.216 594.895 292.015C593.936 291.813 593.026 291.425 592.217 290.871C591.408 290.318 590.717 289.611 590.181 288.79C589.646 287.969 589.277 287.051 589.097 286.087C588.341 282.048 591.009 278.143 595.062 277.384C599.116 276.625 603.017 279.3 603.774 283.34Z" fill="#FFC93C"/>
<path d="M652.527 274.209C652.891 276.154 652.467 278.164 651.349 279.796C650.231 281.429 648.511 282.551 646.566 282.915C644.621 283.279 642.612 282.856 640.979 281.738C639.346 280.62 638.224 278.9 637.86 276.955C637.103 272.915 639.771 269.01 643.825 268.251C647.868 267.494 651.77 270.169 652.527 274.209Z" fill="#FFC93C"/>
<path d="M613.817 317.926C621.321 316.521 626.274 309.314 624.868 301.807" stroke="#52566D" stroke-width="2.43916" stroke-miterlimit="10"/>
<path d="M641.004 312.837C633.508 314.241 626.272 309.316 624.867 301.809L623.955 296.938" stroke="#52566D" stroke-width="2.43916" stroke-miterlimit="10"/>
<path d="M611.415 293.18C611.705 294.729 612.286 296.209 613.121 297.535C613.957 298.86 615.031 300.005 616.285 300.904C617.539 301.803 618.947 302.439 620.428 302.774C621.909 303.11 623.435 303.139 624.918 302.86C626.402 302.586 627.815 302.008 629.077 301.16C630.338 300.312 631.423 299.211 632.268 297.918C633.114 296.626 633.704 295.169 634.004 293.629C634.305 292.09 634.312 290.499 634.022 288.947" fill="#52566D"/>
<path d="M611.415 293.18C611.705 294.729 612.286 296.209 613.121 297.535C613.957 298.86 615.031 300.005 616.285 300.904C617.539 301.803 618.947 302.439 620.428 302.774C621.909 303.11 623.435 303.139 624.918 302.86C626.402 302.586 627.815 302.008 629.077 301.16C630.338 300.312 631.423 299.211 632.268 297.918C633.114 296.626 633.704 295.169 634.004 293.629C634.305 292.09 634.312 290.499 634.022 288.947" stroke="#52566D" stroke-width="2.43916" stroke-miterlimit="10"/>
<path d="M679.839 109.595C698.291 152.63 696.933 180.885 685.197 220.267C669.714 212.117 662.53 212.125 646.153 209.832C645.749 166.776 657.605 132.915 679.839 109.595Z" fill="#B26B61"/>
<path d="M535.816 275.8L599.528 227.385C589.271 192.744 543.887 123.156 491.449 116.744C470.166 172.003 505.286 247.86 535.816 275.8Z" fill="#292631"/>
<path d="M504.879 142.347C503.245 189.143 514.733 214.993 539.92 247.462C551.406 234.263 558.106 231.672 572.545 223.609C557.346 183.323 534.043 156.045 504.879 142.347Z" fill="#B26B61"/>
<path d="M467.747 287.535C491.856 358.297 525.173 392.246 602.357 399.669L586.671 478.909C550.83 466.797 516.585 460.492 496.733 495.747C485.508 435.788 419.746 440.47 392.373 465.433C379.675 397.612 318.913 412.729 298.43 420.121C310.807 335.814 416.465 296.602 467.747 287.535Z" fill="#292631"/>
<path d="M794.653 241.721C785.507 315.916 759.827 355.954 685.787 378.987L717.328 453.352C749.939 434.175 782.174 421.007 808.809 451.464C807.55 390.477 872.881 381.627 904.777 400.472C903.353 331.487 965.922 333.874 987.483 336.927C958.146 256.925 846.706 240.122 794.653 241.721Z" fill="#292631"/>
<path d="M428.761 552.841C427.508 548.938 426.88 546.981 425.768 545.376C424.778 543.944 423.515 542.722 422.052 541.779C420.411 540.72 418.421 540.151 414.452 539.015L414.433 539.009L408 537.174L414.433 535.339C418.408 534.206 420.402 533.637 422.052 532.57C423.516 531.623 424.781 530.404 425.768 528.973C426.888 527.336 427.524 525.362 428.789 521.42L431.188 514L433.586 521.42L433.614 521.508C434.867 525.411 435.495 527.368 436.607 528.973C437.597 530.404 438.86 531.627 440.323 532.57C441.964 533.628 443.954 534.198 447.923 535.334L447.942 535.339L454.375 537.174L447.942 539.009C443.967 540.142 441.973 540.712 440.323 541.779C438.859 542.726 437.594 543.945 436.607 545.376C435.487 547.012 434.851 548.987 433.586 552.929L431.188 560.349L428.789 552.929L428.761 552.841Z" fill="#FFF7F7"/>
<path d="M926.413 543.443C924.819 538.474 924.019 535.983 922.605 533.941C921.345 532.118 919.739 530.562 917.877 529.361C915.79 528.014 913.258 527.289 908.209 525.843L908.184 525.836L900 523.5L908.184 521.164C913.241 519.722 915.778 518.997 917.877 517.639C919.74 516.433 921.35 514.881 922.605 513.059C924.03 510.976 924.839 508.463 926.449 503.445L929.5 494L932.551 503.445L932.587 503.557C934.181 508.526 934.981 511.017 936.395 513.059C937.655 514.882 939.261 516.438 941.123 517.639C943.21 518.986 945.742 519.711 950.791 521.157L950.816 521.164L959 523.5L950.816 525.836C945.759 527.278 943.222 528.003 941.123 529.361C939.26 530.567 937.65 532.119 936.395 533.941C934.97 536.024 934.161 538.537 932.551 543.555L929.5 553L926.449 543.555L926.413 543.443Z" fill="#FFF7F7"/>
<path d="M839.221 612.493C838.302 609.629 837.842 608.194 837.027 607.017C836.301 605.966 835.375 605.07 834.302 604.378C833.099 603.601 831.64 603.183 828.73 602.35L828.716 602.346L824 601L828.716 599.654C831.631 598.823 833.093 598.405 834.302 597.622C835.375 596.927 836.303 596.033 837.027 594.983C837.848 593.783 838.314 592.335 839.242 589.443L841 584L842.758 589.443L842.779 589.507C843.698 592.371 844.158 593.806 844.973 594.983C845.699 596.034 846.625 596.93 847.698 597.622C848.901 598.399 850.36 598.817 853.27 599.65L853.284 599.654L858 601L853.284 602.346C850.369 603.177 848.907 603.595 847.698 604.378C846.625 605.073 845.697 605.967 844.973 607.017C844.152 608.217 843.686 609.665 842.758 612.557L841 618L839.242 612.557L839.221 612.493Z" fill="#FFF7F7"/>
<path d="M412.221 187.493C411.302 184.629 410.842 183.194 410.027 182.017C409.301 180.966 408.375 180.07 407.302 179.378C406.099 178.601 404.64 178.183 401.73 177.35L401.716 177.346L397 176L401.716 174.654C404.631 173.823 406.093 173.405 407.302 172.622C408.375 171.927 409.303 171.033 410.027 169.983C410.848 168.783 411.314 167.335 412.242 164.443L414 159L415.758 164.443L415.779 164.507C416.698 167.371 417.158 168.806 417.973 169.983C418.699 171.034 419.625 171.93 420.698 172.622C421.901 173.399 423.36 173.817 426.27 174.65L426.284 174.654L431 176L426.284 177.346C423.369 178.177 421.907 178.595 420.698 179.378C419.625 180.073 418.697 180.967 417.973 182.017C417.152 183.217 416.686 184.665 415.758 187.557L414 193L412.242 187.557L412.221 187.493Z" fill="#FFF7F7"/>
<path d="M1085.22 608.493C1084.3 605.629 1083.84 604.194 1083.03 603.017C1082.3 601.966 1081.37 601.07 1080.3 600.378C1079.1 599.601 1077.64 599.183 1074.73 598.35L1074.72 598.346L1070 597L1074.72 595.654C1077.63 594.823 1079.09 594.405 1080.3 593.622C1081.38 592.927 1082.3 592.033 1083.03 590.983C1083.85 589.783 1084.31 588.335 1085.24 585.443L1087 580L1088.76 585.443L1088.78 585.507C1089.7 588.371 1090.16 589.806 1090.97 590.983C1091.7 592.034 1092.63 592.93 1093.7 593.622C1094.9 594.399 1096.36 594.817 1099.27 595.65L1099.28 595.654L1104 597L1099.28 598.346C1096.37 599.177 1094.91 599.595 1093.7 600.378C1092.62 601.073 1091.7 601.967 1090.97 603.017C1090.15 604.217 1089.69 605.665 1088.76 608.557L1087 614L1085.24 608.557L1085.22 608.493Z" fill="#FFF7F7"/>
<path d="M339.43 97.1405C338.62 94.614 338.213 93.3473 337.494 92.3087C336.854 91.3821 336.037 90.5909 335.09 89.9803C334.029 89.2953 332.741 88.9266 330.174 88.1914L330.161 88.1878L326 87L330.161 85.8122C332.733 85.0789 334.023 84.7101 335.09 84.0197C336.037 83.4065 336.856 82.6175 337.494 81.6913C338.219 80.6321 338.63 79.3542 339.449 76.8027L341 72L342.551 76.8027L342.57 76.8595C343.38 79.386 343.787 80.6527 344.506 81.6913C345.146 82.6179 345.963 83.4091 346.91 84.0197C347.971 84.7047 349.259 85.0734 351.826 85.8086L351.839 85.8122L356 87L351.839 88.1878C349.267 88.9211 347.977 89.2899 346.91 89.9803C345.963 90.5935 345.144 91.3825 344.506 92.3087C343.781 93.3679 343.37 94.6458 342.551 97.1973L341 102L339.449 97.1973L339.43 97.1405Z" fill="#FFF7F7"/>
<path d="M936.71 99.7173C934.494 92.8116 933.383 89.3493 931.418 86.5106C929.666 83.9777 927.433 81.815 924.846 80.1461C921.946 78.2737 918.426 77.266 911.408 75.2564L911.375 75.2467L900 72L911.375 68.7533C918.403 66.749 921.929 65.741 924.846 63.8539C927.435 62.1778 929.672 60.0212 931.418 57.4894C933.397 54.5943 934.522 51.1015 936.759 44.1275L941 31L945.241 44.1275L945.29 44.2828C947.506 51.1884 948.617 54.6507 950.582 57.4894C952.334 60.0223 954.567 62.185 957.154 63.8539C960.054 65.7263 963.574 66.734 970.591 68.7436L970.625 68.7533L982 72L970.625 75.2467C963.597 77.251 960.071 78.259 957.154 80.1461C954.565 81.8222 952.328 83.9788 950.582 86.5106C948.603 89.4057 947.478 92.8985 945.241 99.8725L941 113L936.759 99.8725L936.71 99.7173Z" fill="#FFF7F7"/>
<path d="M362.71 628.717C360.494 621.812 359.383 618.349 357.418 615.511C355.666 612.978 353.433 610.815 350.846 609.146C347.946 607.274 344.426 606.266 337.408 604.256L337.375 604.247L326 601L337.375 597.753C344.403 595.749 347.929 594.741 350.846 592.854C353.435 591.178 355.672 589.021 357.418 586.489C359.397 583.594 360.522 580.101 362.759 573.127L367 560L371.241 573.127L371.29 573.283C373.506 580.188 374.617 583.651 376.582 586.489C378.334 589.022 380.567 591.185 383.154 592.854C386.054 594.726 389.574 595.734 396.591 597.744L396.625 597.753L408 601L396.625 604.247C389.597 606.251 386.071 607.259 383.154 609.146C380.565 610.822 378.328 612.979 376.582 615.511C374.603 618.406 373.478 621.899 371.241 628.873L367 642L362.759 628.873L362.71 628.717Z" fill="#FFF7F7"/>
<path d="M176.254 634.888C26.582 485.264 26.582 242.654 176.254 93" stroke="#31C0FD" stroke-width="24.1825" stroke-miterlimit="10"/>
<path d="M1113.29 40.7578C1262.96 190.393 1262.96 433.002 1113.29 582.647" stroke="#31C0FD" stroke-width="24.1825" stroke-miterlimit="10"/>
<path d="M241.896 569.273C128.472 455.874 128.472 272.035 241.896 158.656" stroke="#31C0FD" stroke-width="24.1825" stroke-miterlimit="10"/>
<path d="M1047.66 106.398C1161.08 219.796 1161.08 403.635 1047.66 517.034" stroke="#31C0FD" stroke-width="24.1825" stroke-miterlimit="10"/>
<path d="M307.535 503.639C230.374 426.495 230.374 301.427 307.535 224.273" stroke="#31C0FD" stroke-width="24.1825" stroke-miterlimit="10"/>
<path d="M982 172.031C1059.17 249.185 1059.17 374.253 982 451.397" stroke="#31C0FD" stroke-width="24.1825" stroke-miterlimit="10"/>
<defs>
<linearGradient id="paint0_linear_549_206" x1="640" y1="0" x2="640" y2="720" gradientUnits="userSpaceOnUse">
<stop stop-color="#1C2A4A"/>
<stop offset="1" stop-color="#3D3A91"/>
</linearGradient>
</defs>
</svg>
