<svg width="1280" height="720" viewBox="0 0 1280 720" fill="none" xmlns="http://www.w3.org/2000/svg">
<rect width="1280" height="720" fill="#ECFAFF"/>
<mask id="mask0_219_66" style="mask-type:alpha" maskUnits="userSpaceOnUse" x="294" y="404" width="864" height="157">
<rect x="294" y="404" width="864" height="157" fill="#D9D9D9"/>
</mask>
<g mask="url(#mask0_219_66)">
<rect x="294" y="404" width="288" height="157" fill="#FFC93C" fill-opacity="0.2"/>
<rect x="441" y="404" width="144" height="157" fill="#FFC93C" fill-opacity="0.2"/>
<rect x="582" y="404" width="288" height="157" fill="#FFC93C" fill-opacity="0.5"/>
<rect x="726" y="404" width="144" height="157" fill="#FFC93C" fill-opacity="0.5"/>
<rect x="870" y="404" width="288" height="157" fill="#FFC93C"/>
<rect x="1014" y="404" width="144" height="157" fill="#FF7B54" fill-opacity="0.2"/>
</g>
<path d="M151.5 506.5H192L195.5 491L206.5 474L211.5 458L206.5 437.5L192 424.5L174 418.5L151.5 424.5L138 437.5L131 458L138 480L151.5 496V506.5Z" fill="#FFC93C"/>
<path d="M194 509H147.5L153 539.5L162.5 546.5H180L188 539.5L194 509Z" fill="#1E5C93" stroke="black"/>
<path fill-rule="evenodd" clip-rule="evenodd" d="M148.492 453.381C150.37 454.227 152.591 453.39 153.444 451.512C153.457 451.479 154.907 448.347 157.866 445.388C160.879 442.375 164.04 440.767 164.086 440.743C165.934 439.823 166.688 437.577 165.772 435.729C165.463 435.102 164.984 434.575 164.39 434.206C163.796 433.838 163.111 433.643 162.412 433.644C161.852 433.644 161.285 433.768 160.754 434.034C160.58 434.121 156.498 436.159 152.57 440.088C148.588 444.07 146.686 448.268 146.607 448.446C145.766 450.331 146.607 452.532 148.492 453.381Z" fill="#ECFAFF"/>
<path fill-rule="evenodd" clip-rule="evenodd" d="M148.534 504.023C147.498 496.891 143.64 491.028 139.584 484.874C134.383 476.984 129 468.829 129 457.441C129 434.435 148.58 415 171.752 415C183.438 415 194.432 419.956 202.703 428.952C209.897 436.776 214.19 446.721 214.19 455.552C214.19 471.141 208.463 478.675 203.412 485.321C199.363 490.65 195.803 495.341 195.012 504.023L196.193 504.023C196.75 504.023 197.3 504.148 197.803 504.387C198.306 504.626 198.75 504.975 199.102 505.407C199.815 506.281 200.092 507.429 199.86 508.535L193.276 540.012C192.911 541.748 191.382 542.992 189.608 542.992L188.137 542.992C186.463 545.48 182.977 549.138 176.569 550.463C172.383 551.126 170.107 551.23 166.271 550.463C159.89 549.127 156.393 545.462 154.7 542.996L153.2 542.996C152.34 542.996 151.506 542.699 150.838 542.157C150.17 541.614 149.709 540.858 149.533 540.016L142.948 508.539C142.834 507.994 142.842 507.431 142.973 506.889C143.105 506.348 143.355 505.843 143.707 505.411C144.419 504.537 145.489 504.027 146.616 504.027L148.534 504.027L148.534 504.023ZM168.537 483.32L171.371 463.471L174.827 483.32L168.537 483.32ZM171.748 422.496C193.081 422.496 206.693 442.076 206.693 455.556C206.693 469.036 202.202 474.531 197.444 480.792C192.957 486.697 188.328 492.785 187.487 504.031L175.498 504.031L175.498 490.82L179.286 490.82C179.832 490.82 180.372 490.701 180.867 490.47C181.363 490.24 181.802 489.904 182.153 489.486C182.506 489.068 182.762 488.578 182.905 488.05C183.047 487.523 183.072 486.97 182.978 486.432L178.08 458.291C177.765 456.468 176.182 455.187 174.392 455.187C174.181 455.187 173.961 455.204 173.746 455.241C173.258 455.326 172.791 455.506 172.374 455.772C171.956 456.038 171.596 456.384 171.313 456.791C171.02 456.369 170.642 456.012 170.204 455.742C169.767 455.473 169.278 455.296 168.769 455.225C166.734 454.934 164.824 456.356 164.53 458.403L160.51 486.544C160.357 487.621 160.676 488.707 161.389 489.527C161.74 489.933 162.175 490.258 162.663 490.481C163.152 490.704 163.682 490.82 164.219 490.82L168.006 490.82L168.006 504.031L156.105 504.031C155.082 494.765 150.391 487.654 145.841 480.755C141.034 473.47 136.492 466.587 136.492 457.45C136.492 438.835 152.968 422.505 171.752 422.505L171.748 422.496ZM186.563 535.504L185.945 535.504C184.383 535.504 183.003 536.424 182.456 537.886C182.361 538.114 180.053 543.485 171.446 543.485C162.839 543.485 160.435 538.085 160.353 537.886C160.078 537.184 159.598 536.582 158.976 536.156C158.353 535.731 157.617 535.504 156.863 535.504L156.246 535.504L151.228 511.519L191.581 511.519L186.563 535.504Z" fill="#1E5C93"/>
<path d="M168.078 193.591C168.139 193.634 168.207 193.69 168.272 193.762C168.39 193.888 168.457 194.01 168.486 194.089C168.492 194.104 168.494 194.116 168.496 194.124L168.469 194.318V279.941C168.435 279.972 168.402 280.003 168.368 280.031C168.075 280.276 167.845 280.407 167.697 280.466C167.679 280.473 167.663 280.476 167.649 280.48C167.637 280.472 167.622 280.464 167.605 280.451C157.58 272.267 148.2 264.115 138.105 255.8L137.134 255L135.875 255.002L125.578 255.017C125.537 254.792 125.5 254.454 125.5 253.97V218.992C125.59 218.973 125.703 218.955 125.843 218.948L125.844 218.949C127.534 218.875 129.168 218.902 130.834 218.954C132.462 219.005 134.203 219.081 135.905 219.081H137.166L138.138 218.276C148.259 209.894 157.843 201.395 168.078 193.591Z" fill="#1E5C93" stroke="#1A3567" stroke-width="7"/>
<path d="M207.261 291.309C201.937 286.712 207.853 280.446 210.778 276.602C225.528 255.794 227.91 228.933 213.939 201.965C210.503 193.949 206.142 189.843 205.129 187.079C204.368 180.969 211.345 180.805 214.668 184.29C232.902 205.711 238.194 239.705 227.553 266.942C224.004 275.612 219.401 283.955 213.274 290.581C211.686 292.257 209.141 292.38 207.252 291.309H207.261ZM193.613 272.447C188.078 270.247 190.209 262.992 193.751 259.818C198.887 252.411 201.349 243.448 200.721 234.429C200.81 225.047 196.15 216.704 191.093 209.711C186.587 202.595 197.276 196.976 200.331 204.452C208.174 214.812 211.897 227.756 210.77 240.744C210.178 252.11 205.731 262.925 198.176 271.375C197.539 271.88 196.801 272.237 196.012 272.422C195.224 272.607 194.405 272.616 193.613 272.447Z" fill="#FFB941"/>
<mask id="mask1_219_66" style="mask-type:alpha" maskUnits="userSpaceOnUse" x="291" y="158" width="864" height="157">
<rect x="291" y="158" width="864" height="157" fill="#D9D9D9"/>
</mask>
<g mask="url(#mask1_219_66)">
<rect x="301" y="305" width="18" height="20" fill="#FFF4D8"/>
<rect x="337" y="302" width="18" height="23" fill="#FFF4D8"/>
<rect x="373" y="305" width="18" height="20" fill="#FFF4D8"/>
<rect x="409" y="299" width="18" height="26" fill="#FFF4D8"/>
<rect x="445" y="286" width="18" height="39" fill="#FFEBB9"/>
<rect x="481" y="272" width="18" height="53" fill="#FFEBB9"/>
<rect x="517" y="282" width="18" height="45" fill="#FFEBB9"/>
<rect x="553" y="274" width="18" height="53" fill="#FFEBB9"/>
<rect x="589" y="245" width="18" height="82" fill="#FFE49D"/>
<rect x="625" y="237" width="18" height="89" fill="#FFE49D"/>
<rect x="661" y="247" width="18" height="79" fill="#FFE49D"/>
<rect x="697" y="237" width="18" height="89" fill="#FFE49D"/>
<rect x="733" y="223" width="18" height="100" fill="#FFD76D"/>
<rect x="769" y="214" width="18" height="109" fill="#FFD76D"/>
<rect x="805" y="214" width="18" height="109" fill="#FFD76D"/>
<rect x="841" y="206" width="18" height="116" fill="#FFD76D"/>
<rect x="877" y="181" width="18" height="141" fill="#FFC93C"/>
<rect x="913" y="192" width="18" height="130" fill="#FFC93C"/>
<rect x="949" y="177" width="18" height="148" fill="#FFC93C"/>
<rect x="985" y="185" width="18" height="140" fill="#FFC93C"/>
<rect x="1021" y="166" width="18" height="159" fill="#FFB941"/>
<rect x="1057" y="173" width="18" height="151" fill="#FFB941"/>
<rect x="1093" y="169" width="18" height="155" fill="#FFB941"/>
<rect x="1129" y="129" width="18" height="195" fill="#FFB941"/>
</g>
</svg>
