<svg width="1280" height="720" viewBox="0 0 1280 720" fill="none" xmlns="http://www.w3.org/2000/svg">
<g clip-path="url(#clip0_410_4539)">
<rect width="1280" height="720" fill="#ECFAFF"/>
<path d="M0 -0.25H1280V719.749H0V-0.25Z" fill="url(#paint0_linear_410_4539)"/>
<path d="M-211.091 994.245C-194.565 1031.2 -140.637 1040.02 -102.583 1050.17C-97.0176 1051.65 -58.4344 1098.2 -49.3804 1103.73C-35.9128 1086.41 -60.7552 1087.75 -54.9491 1025.08C-77.3393 1022.69 -8.58998 911.981 -48.9601 888.328C-47.1413 844.202 159.18 481.747 206.863 465.059C255.088 451.15 305.255 429.667 355.832 438.583C421.291 423.732 253.786 412.01 312.655 379.252C338.963 362.591 393.122 356.86 403.771 334.149C378.03 324.964 292.431 358.195 308.015 313.937C328.771 288.833 400.61 264.914 388.285 238.92C359.647 244.186 299.461 303.798 291.426 285.674C304.016 272.132 354.91 216.844 304.905 241.342C282.59 248.035 234.793 309.498 228.981 277.466C243.414 265.028 286.687 220.492 239.755 241.846C180.223 280.366 168.311 355.228 122.523 405.417C81.2776 460.669 -165.438 825.141 -195.274 888.042C-204.287 918.18 -230.087 968.531 -211.091 994.245Z" fill="#B26B61"/>
<path d="M80.9722 423.825L829.38 611.24L1201.37 328.874L1197.71 286.032L474.419 185.147L77.3689 381.57L80.9722 423.825Z" fill="#D99773"/>
<path d="M76.7819 381.616L825.09 567.857L1197.71 286.028L472.508 107.275L76.7819 381.616Z" fill="#EEB98D"/>
<path d="M139.612 369.734L820.267 539.023L1135.83 299.211L475.642 136.564L139.612 369.734Z" fill="#D99773"/>
<mask id="mask0_410_4539" style="mask-type:alpha" maskUnits="userSpaceOnUse" x="493" y="141" width="359" height="314">
<path d="M627.842 142.186C696.188 136.358 756.303 166.459 774.338 211.983C782.824 212.238 791.24 213.723 799.266 216.411C809.003 219.671 818.025 224.655 825.783 231.146C833.545 237.641 839.904 245.532 844.41 254.418C848.919 263.311 851.462 272.982 851.838 282.867C852.213 292.752 850.409 302.564 846.585 311.724C842.763 320.878 837.018 329.156 829.767 336.132C822.519 343.105 813.897 348.653 804.431 352.529C795.367 356.241 785.654 358.367 775.792 358.831C756.906 410.892 710.995 449.583 654.467 454.404C576.587 461.045 507.679 400.917 499.123 319.579L499.099 319.697L493.538 254.486L493.643 254.561C491.689 198.638 550.731 148.762 627.842 142.186ZM784.445 291.381L784.438 291.366C784.458 291.592 784.481 291.817 784.501 292.042C785.537 304.193 785.17 316.123 783.544 327.659C786.766 326.966 789.907 325.998 792.917 324.766C799.037 322.26 804.453 318.735 808.893 314.463C813.331 310.194 816.695 305.275 818.883 300.034C821.069 294.798 822.06 289.297 821.853 283.828C821.645 278.359 820.239 272.935 817.662 267.853C815.082 262.765 811.353 258.074 806.603 254.099C801.849 250.122 796.179 246.954 789.884 244.846C786.777 243.805 783.56 243.038 780.282 242.554L784.445 291.381Z" fill="#ECFAFF"/>
</mask>
<g mask="url(#mask0_410_4539)">
<path d="M627.842 142.186C696.188 136.358 756.303 166.459 774.338 211.983C782.824 212.238 791.24 213.723 799.266 216.411C809.003 219.671 818.025 224.655 825.783 231.146C833.545 237.641 839.904 245.532 844.41 254.418C848.919 263.311 851.462 272.982 851.838 282.867C852.213 292.752 850.409 302.564 846.585 311.724C842.763 320.878 837.018 329.156 829.767 336.132C822.519 343.105 813.897 348.653 804.431 352.529C795.367 356.241 785.654 358.367 775.792 358.831C756.906 410.892 710.995 449.583 654.467 454.404C576.587 461.045 507.679 400.917 499.123 319.579L499.099 319.697L493.538 254.486L493.643 254.561C491.689 198.638 550.731 148.762 627.842 142.186ZM784.445 291.381L784.438 291.366C784.458 291.592 784.481 291.817 784.501 292.042C785.537 304.193 785.17 316.123 783.544 327.659C786.766 326.966 789.907 325.998 792.917 324.766C799.037 322.26 804.453 318.735 808.893 314.463C813.331 310.194 816.695 305.275 818.883 300.034C821.069 294.798 822.06 289.297 821.853 283.828C821.645 278.359 820.239 272.935 817.662 267.853C815.082 262.765 811.353 258.074 806.603 254.099C801.849 250.122 796.179 246.954 789.884 244.846C786.777 243.805 783.56 243.038 780.282 242.554L784.445 291.381Z" fill="url(#paint1_linear_410_4539)"/>
<ellipse cx="637.4" cy="232.264" rx="129.024" ry="82.6347" transform="rotate(-4.87415 637.4 232.264)" fill="#CDCDCD"/>
<ellipse cx="639.657" cy="236.72" rx="122.168" ry="78.0071" transform="rotate(-4.87415 639.657 236.72)" fill="url(#paint2_linear_410_4539)"/>
</g>
<path d="M391.13 1006.21C352.661 993.6 338.312 940.873 324.279 904.074C322.226 898.692 271.931 865.134 265.5 856.7C281.333 841.512 282.572 866.36 344.306 854.1C348.995 876.123 451.997 796.286 479.701 833.992C523.401 827.617 862.56 584.895 874.224 535.741C883.069 486.336 880.224 474.359 932.32 422.359C1045.56 344.5 938.54 446.391 965.32 430.5C992.099 414.609 1087.25 362.19 1112.32 362.998C1108.83 390.105 1053.32 410 1045.56 422.359C1061.5 422.359 1148.82 368 1148.82 384.838C1131.14 407.973 1075.09 436.819 1067.32 438.998C1085.1 433.917 1137.88 405 1132.5 417C1122.18 440 1051.5 474.5 1051.5 474.5C1081 456 1127 438.998 1067.32 490.998C982.82 586.5 932.32 598.5 932.32 598.5C881.633 645.241 554.601 943.306 495.125 979.491C466.082 991.574 418.671 1022.45 391.13 1006.21Z" fill="#B26B61"/>
</g>
<defs>
<linearGradient id="paint0_linear_410_4539" x1="642.112" y1="633.997" x2="642.112" y2="65.4361" gradientUnits="userSpaceOnUse">
<stop stop-color="#F6A227"/>
<stop offset="1" stop-color="#FFC93C"/>
</linearGradient>
<linearGradient id="paint1_linear_410_4539" x1="675.791" y1="304.63" x2="688.317" y2="451.517" gradientUnits="userSpaceOnUse">
<stop stop-color="#ECFAFF"/>
<stop offset="1" stop-color="#CDCDCD"/>
</linearGradient>
<linearGradient id="paint2_linear_410_4539" x1="639.657" y1="158.713" x2="639.657" y2="314.727" gradientUnits="userSpaceOnUse">
<stop stop-color="#664343"/>
<stop offset="1" stop-color="#5B2121"/>
</linearGradient>
<clipPath id="clip0_410_4539">
<rect width="1280" height="720" fill="white"/>
</clipPath>
</defs>
</svg>
