<svg width="1280" height="720" viewBox="0 0 1280 720" fill="none" xmlns="http://www.w3.org/2000/svg">
<rect width="1280" height="720" fill="url(#paint0_linear_410_4541)"/>
<path d="M864.761 147C875.131 147 885.398 150.097 893.431 156.656C939.476 194.257 934.675 224.966 929.356 284L908.39 573H371.266L350.299 284C344.98 224.966 340.18 194.257 386.225 156.656C394.257 150.097 404.524 147 414.895 147H864.761Z" fill="#62342A"/>
<mask id="mask0_410_4541" style="mask-type:alpha" maskUnits="userSpaceOnUse" x="373" y="147" width="534" height="136">
<path d="M904.901 283H375.696C368.562 217.471 374.32 181.05 408.385 155.006C415.84 149.307 425.232 147 434.615 147H847.586C861.443 147 875.156 152.217 883.44 163.324C906.397 194.104 909.224 226.897 904.901 283Z" fill="#985343"/>
</mask>
<g mask="url(#mask0_410_4541)">
<path d="M904.901 283H375.696C368.562 217.471 374.32 181.05 408.385 155.006C415.84 149.307 425.232 147 434.615 147H847.586C861.443 147 875.156 152.217 883.44 163.324C906.397 194.104 909.224 226.897 904.901 283Z" fill="#985343"/>
<path d="M352.033 162H925.994" stroke="#62342A" stroke-width="2"/>
<path d="M352.033 197H925.994" stroke="#62342A" stroke-width="2"/>
<path d="M352.033 232H925.994" stroke="#62342A" stroke-width="2"/>
<path d="M352.033 267H925.994" stroke="#62342A" stroke-width="2"/>
</g>
<mask id="mask1_410_4541" style="mask-type:alpha" maskUnits="userSpaceOnUse" x="381" y="324" width="519" height="226">
<path d="M396.201 550L381 324H899.399L880.529 550H396.201Z" fill="#985343"/>
</mask>
<g mask="url(#mask1_410_4541)">
<path d="M396.201 550L381 324H899.399L880.529 550H396.201Z" fill="#985343"/>
<path d="M346.405 345H920.366" stroke="#62342A" stroke-width="2"/>
<path d="M346.405 380H920.366" stroke="#62342A" stroke-width="2"/>
<path d="M346.405 415H920.366" stroke="#62342A" stroke-width="2"/>
<path d="M346.405 450H920.366" stroke="#62342A" stroke-width="2"/>
<path d="M357.937 485H931.897" stroke="#62342A" stroke-width="2"/>
<path d="M357.937 520H931.897" stroke="#62342A" stroke-width="2"/>
</g>
<circle cx="739" cy="300" r="59" fill="#A7A7A7"/>
<mask id="mask2_410_4541" style="mask-type:alpha" maskUnits="userSpaceOnUse" x="680" y="241" width="119" height="119">
<path fill-rule="evenodd" clip-rule="evenodd" d="M739.5 251.128C712.231 251.128 690.128 273.231 690.128 300.5C690.128 327.769 712.231 349.872 739.5 349.872C766.769 349.872 788.872 327.769 788.872 300.5C788.872 273.231 766.769 251.128 739.5 251.128ZM680 300.5C680 267.638 706.638 241 739.5 241C772.362 241 799 267.638 799 300.5C799 333.362 772.362 360 739.5 360C706.638 360 680 333.362 680 300.5ZM739.5 269.542C735.49 269.539 731.587 270.833 728.373 273.231C725.159 275.629 722.807 279.002 721.667 282.846C720.528 286.691 720.663 290.801 722.051 294.563C723.44 298.324 726.008 301.536 729.372 303.718L724.448 323.725C723.714 326.698 725.309 329.893 728.549 330.516C735.667 331.883 743.333 331.883 750.451 330.516C753.691 329.893 755.286 326.698 754.552 323.725L749.628 303.716C752.989 301.532 755.554 298.32 756.941 294.56C758.328 290.799 758.461 286.691 757.323 282.848C756.184 279.005 753.833 275.633 750.621 273.235C747.409 270.837 743.508 269.542 739.5 269.542Z" fill="#CDCDCD"/>
</mask>
<g mask="url(#mask2_410_4541)">
<path fill-rule="evenodd" clip-rule="evenodd" d="M739.5 251.128C712.231 251.128 690.128 273.231 690.128 300.5C690.128 327.769 712.231 349.872 739.5 349.872C766.769 349.872 788.872 327.769 788.872 300.5C788.872 273.231 766.769 251.128 739.5 251.128ZM680 300.5C680 267.638 706.638 241 739.5 241C772.362 241 799 267.638 799 300.5C799 333.362 772.362 360 739.5 360C706.638 360 680 333.362 680 300.5ZM739.5 269.542C735.49 269.539 731.587 270.833 728.373 273.231C725.159 275.629 722.807 279.002 721.667 282.846C720.528 286.691 720.663 290.801 722.051 294.563C723.44 298.324 726.008 301.536 729.372 303.718L724.448 323.725C723.714 326.698 725.309 329.893 728.549 330.516C735.667 331.883 743.333 331.883 750.451 330.516C753.691 329.893 755.286 326.698 754.552 323.725L749.628 303.716C752.989 301.532 755.554 298.32 756.941 294.56C758.328 290.799 758.461 286.691 757.323 282.848C756.184 279.005 753.833 275.633 750.621 273.235C747.409 270.837 743.508 269.542 739.5 269.542Z" fill="#CDCDCD"/>
<circle cx="739" cy="303" r="46" fill="#434343"/>
</g>
<circle cx="543" cy="300" r="59" fill="#E9A770"/>
<mask id="mask3_410_4541" style="mask-type:alpha" maskUnits="userSpaceOnUse" x="484" y="241" width="119" height="119">
<path fill-rule="evenodd" clip-rule="evenodd" d="M543.5 251.128C516.231 251.128 494.128 273.231 494.128 300.5C494.128 327.769 516.231 349.872 543.5 349.872C570.769 349.872 592.872 327.769 592.872 300.5C592.872 273.231 570.769 251.128 543.5 251.128ZM484 300.5C484 267.638 510.638 241 543.5 241C576.362 241 603 267.638 603 300.5C603 333.362 576.362 360 543.5 360C510.638 360 484 333.362 484 300.5ZM543.5 269.542C539.49 269.539 535.587 270.833 532.373 273.231C529.159 275.629 526.807 279.002 525.667 282.846C524.528 286.691 524.663 290.801 526.051 294.563C527.44 298.324 530.008 301.536 533.372 303.718L528.448 323.725C527.714 326.698 529.309 329.893 532.549 330.516C539.667 331.883 547.333 331.883 554.451 330.516C557.691 329.893 559.286 326.698 558.552 323.725L553.628 303.716C556.989 301.532 559.554 298.32 560.941 294.56C562.328 290.799 562.461 286.691 561.323 282.848C560.184 279.005 557.833 275.633 554.621 273.235C551.409 270.837 547.508 269.542 543.5 269.542Z" fill="#CDCDCD"/>
</mask>
<g mask="url(#mask3_410_4541)">
<path fill-rule="evenodd" clip-rule="evenodd" d="M543.5 251.128C516.231 251.128 494.128 273.231 494.128 300.5C494.128 327.769 516.231 349.872 543.5 349.872C570.769 349.872 592.872 327.769 592.872 300.5C592.872 273.231 570.769 251.128 543.5 251.128ZM484 300.5C484 267.638 510.638 241 543.5 241C576.362 241 603 267.638 603 300.5C603 333.362 576.362 360 543.5 360C510.638 360 484 333.362 484 300.5ZM543.5 269.542C539.49 269.539 535.587 270.833 532.373 273.231C529.159 275.629 526.807 279.002 525.667 282.846C524.528 286.691 524.663 290.801 526.051 294.563C527.44 298.324 530.008 301.536 533.372 303.718L528.448 323.725C527.714 326.698 529.309 329.893 532.549 330.516C539.667 331.883 547.333 331.883 554.451 330.516C557.691 329.893 559.286 326.698 558.552 323.725L553.628 303.716C556.989 301.532 559.554 298.32 560.941 294.56C562.328 290.799 562.461 286.691 561.323 282.848C560.184 279.005 557.833 275.633 554.621 273.235C551.409 270.837 547.508 269.542 543.5 269.542Z" fill="#FFC93C"/>
<circle cx="543" cy="303" r="46" fill="#62342A"/>
</g>
<path d="M953.576 560.774C957.68 568.043 965.376 572.938 974.204 572.938C987.336 572.938 997.984 562.108 997.984 548.747C997.996 544.501 996.899 540.327 994.8 536.642C992.702 532.957 989.677 529.891 986.028 527.75C990.593 525.1 994.381 521.287 997.01 516.696C999.639 512.105 1001.02 506.898 1001 501.601C1001 484.977 987.756 471.507 971.42 471.507C955.084 471.507 941.84 484.977 941.84 501.601C941.84 503.021 941.936 504.418 942.128 505.793L937.944 501.537L937.792 492.415L928.828 492.258L926.26 489.646L926.952 488.947C927.926 487.942 928.47 486.595 928.47 485.192C928.47 483.789 927.926 482.442 926.952 481.437L926.492 480.966C926.009 480.477 925.433 480.088 924.8 479.823C924.166 479.558 923.486 479.421 922.8 479.421C922.113 479.421 921.434 479.558 920.8 479.823C920.166 480.088 919.591 480.477 919.108 480.966L918.416 481.674L808.62 369.971L806.468 372.166L803.56 369.204C805.024 366.069 804.876 362.722 802.88 360.689C800.108 357.868 794.828 358.663 791.092 362.461C787.356 366.258 786.572 371.631 789.344 374.452C791.344 376.489 794.632 376.634 797.716 375.147L800.628 378.105L798.472 380.295L813.648 395.73L807.34 402.144L790.836 385.346L783.864 392.443L788.168 396.823L781.916 403.184L777.612 398.804L774.124 402.357L773.816 402.662L761 415.706L772.892 427.798L785.704 414.762L794.008 423.213L781.5 435.935L790.32 444.904L802.828 432.182L811.132 440.629L798.008 453.978L809.9 466.074L823.024 452.724L826.816 448.871L822.512 444.482L828.764 438.125L833.068 442.505L840.04 435.409L823.536 418.619L829.836 412.206L908.268 491.997L907.572 492.696C906.598 493.702 906.053 495.049 906.053 496.452C906.053 497.854 906.598 499.202 907.572 500.207L908.032 500.677C908.515 501.167 909.09 501.555 909.724 501.821C910.358 502.086 911.037 502.222 911.724 502.222C912.41 502.222 913.09 502.086 913.724 501.821C914.357 501.555 914.933 501.167 915.416 500.677L916.112 499.97L918.676 502.582L918.828 511.704L927.792 511.853L931.98 516.116C930.614 515.915 929.236 515.816 927.856 515.819C911.52 515.819 898.276 529.297 898.276 545.909C898.276 562.522 911.524 576 927.86 576C938.884 576 948.484 569.872 953.576 560.774ZM908.144 545.946C908.143 543.31 908.66 540.7 909.664 538.264C910.668 535.829 912.14 533.616 913.995 531.753C915.85 529.889 918.053 528.411 920.478 527.403C922.902 526.395 925.5 525.876 928.124 525.877C932.236 525.878 936.245 527.164 939.596 529.558L944.56 524.535L946.6 526.609C945.14 529.739 945.284 533.09 947.28 535.124C950.052 537.941 955.336 537.157 959.068 533.352C962.808 529.554 963.584 524.185 960.812 521.36C958.82 519.327 955.524 519.178 952.444 520.669L950.404 518.596L955.388 513.573C952.806 510.131 951.404 505.943 951.392 501.634C951.392 497.667 952.562 493.789 954.755 490.49C956.948 487.191 960.064 484.618 963.711 483.098C967.359 481.577 971.372 481.177 975.246 481.947C979.119 482.717 982.679 484.623 985.475 487.425C988.27 490.226 990.177 493.797 990.954 497.687C991.73 501.576 991.342 505.609 989.838 509.277C988.334 512.945 985.782 516.083 982.504 518.294C979.226 520.506 975.369 521.692 971.42 521.702V534.119C972.258 533.967 973.108 533.882 973.96 533.866C977.02 533.865 980.006 534.813 982.51 536.582C985.013 538.351 986.911 540.853 987.945 543.747C988.979 546.641 989.097 549.785 988.285 552.749C987.472 555.713 985.768 558.352 983.405 560.306C981.042 562.26 978.136 563.433 975.085 563.665C972.033 563.897 968.985 563.175 966.356 561.6C963.728 560.025 961.649 557.672 960.402 554.865C959.155 552.057 958.803 548.93 959.392 545.913H948.096L948.1 545.946C948.1 548.581 947.584 551.191 946.58 553.626C945.577 556.061 944.105 558.274 942.25 560.137C940.395 562.001 938.193 563.479 935.769 564.487C933.345 565.496 930.747 566.015 928.124 566.014C925.5 566.017 922.901 565.499 920.476 564.492C918.051 563.484 915.847 562.006 913.991 560.142C912.136 558.278 910.664 556.065 909.661 553.629C908.657 551.193 908.142 548.582 908.144 545.946Z" fill="url(#paint1_linear_410_4541)"/>
<path d="M329.424 561.774C325.32 569.043 317.624 573.938 308.796 573.938C295.664 573.938 285.016 563.108 285.016 549.747C285.004 545.501 286.101 541.327 288.2 537.642C290.298 533.957 293.323 530.891 296.972 528.75C292.407 526.1 288.619 522.287 285.99 517.696C283.361 513.105 281.985 507.898 282 502.601C282 485.977 295.244 472.507 311.58 472.507C327.916 472.507 341.16 485.977 341.16 502.601C341.16 504.021 341.064 505.418 340.872 506.793L345.056 502.537L345.208 493.415L354.172 493.258L356.74 490.646L356.048 489.947C355.074 488.942 354.53 487.595 354.53 486.192C354.53 484.789 355.074 483.442 356.048 482.437L356.508 481.966C356.991 481.477 357.567 481.088 358.2 480.823C358.834 480.558 359.514 480.421 360.2 480.421C360.887 480.421 361.566 480.558 362.2 480.823C362.834 481.088 363.409 481.477 363.892 481.966L364.584 482.674L474.38 370.971L476.532 373.166L479.44 370.204C477.976 367.069 478.124 363.722 480.12 361.689C482.892 358.868 488.172 359.663 491.908 363.461C495.644 367.258 496.428 372.631 493.656 375.452C491.656 377.489 488.368 377.634 485.284 376.147L482.372 379.105L484.528 381.295L469.352 396.73L475.66 403.144L492.164 386.346L499.136 393.443L494.832 397.823L501.084 404.184L505.388 399.804L508.876 403.357L509.184 403.662L522 416.706L510.108 428.798L497.296 415.762L488.992 424.213L501.5 436.935L492.68 445.904L480.172 433.182L471.868 441.629L484.992 454.978L473.1 467.074L459.976 453.724L456.184 449.871L460.488 445.482L454.236 439.125L449.932 443.505L442.96 436.409L459.464 419.619L453.164 413.206L374.732 492.997L375.428 493.696C376.402 494.702 376.947 496.049 376.947 497.452C376.947 498.854 376.402 500.202 375.428 501.207L374.968 501.677C374.485 502.167 373.91 502.555 373.276 502.821C372.642 503.086 371.963 503.222 371.276 503.222C370.59 503.222 369.91 503.086 369.276 502.821C368.643 502.555 368.067 502.167 367.584 501.677L366.888 500.97L364.324 503.582L364.172 512.704L355.208 512.853L351.02 517.116C352.386 516.915 353.764 516.816 355.144 516.819C371.48 516.819 384.724 530.297 384.724 546.909C384.724 563.522 371.476 577 355.14 577C344.116 577 334.516 570.872 329.424 561.774ZM374.856 546.946C374.857 544.31 374.34 541.7 373.336 539.264C372.332 536.829 370.86 534.616 369.005 532.753C367.15 530.889 364.947 529.411 362.522 528.403C360.098 527.395 357.5 526.876 354.876 526.877C350.764 526.878 346.755 528.164 343.404 530.558L338.44 525.535L336.4 527.609C337.86 530.739 337.716 534.09 335.72 536.124C332.948 538.941 327.664 538.157 323.932 534.352C320.192 530.554 319.416 525.185 322.188 522.36C324.18 520.327 327.476 520.178 330.556 521.669L332.596 519.596L327.612 514.573C330.194 511.131 331.596 506.943 331.608 502.634C331.608 498.667 330.438 494.789 328.245 491.49C326.052 488.191 322.936 485.618 319.289 484.098C315.641 482.577 311.628 482.177 307.754 482.947C303.881 483.717 300.321 485.623 297.525 488.425C294.73 491.226 292.823 494.797 292.046 498.687C291.27 502.576 291.658 506.609 293.162 510.277C294.666 513.945 297.218 517.083 300.496 519.294C303.774 521.506 307.631 522.692 311.58 522.702V535.119C310.742 534.967 309.892 534.882 309.04 534.866C305.98 534.865 302.994 535.813 300.49 537.582C297.987 539.351 296.089 541.853 295.055 544.747C294.021 547.641 293.903 550.785 294.715 553.749C295.528 556.713 297.232 559.352 299.595 561.306C301.958 563.26 304.864 564.433 307.915 564.665C310.967 564.897 314.015 564.175 316.644 562.6C319.272 561.025 321.351 558.672 322.598 555.865C323.845 553.057 324.197 549.93 323.608 546.913H334.904L334.9 546.946C334.9 549.581 335.416 552.191 336.42 554.626C337.423 557.061 338.895 559.274 340.75 561.137C342.605 563.001 344.807 564.479 347.231 565.487C349.655 566.496 352.253 567.015 354.876 567.014C357.5 567.017 360.099 566.499 362.524 565.492C364.949 564.484 367.153 563.006 369.009 561.142C370.864 559.278 372.336 557.065 373.339 554.629C374.343 552.193 374.858 549.582 374.856 546.946Z" fill="url(#paint2_linear_410_4541)"/>
<path d="M662.84 653.88L648.26 682.08V696H638V682.08L623.42 653.88H635.06L643.22 671.52L651.32 653.88H662.84Z" fill="#1A3567"/>
<path d="M744.649 674.595L744.002 609.502L741.001 609.495V671.5H666V674.591L744.649 674.595ZM746.995 611.01L742.524 602L738 610.988L746.995 611.01Z" fill="#1A3567"/>
<path d="M536.347 674.595L536.993 609.502L539.994 609.495V671.5H614.995V674.591L536.347 674.595ZM534 611.01L538.471 602L542.995 610.988L534 611.01Z" fill="#1A3567"/>
<path d="M623.208 66.125H657.792C660.543 66.125 663.182 67.2181 665.128 69.1638C667.074 71.1095 668.167 73.7484 668.167 76.5V100.708C668.167 103.46 667.074 106.099 665.128 108.045C663.182 109.99 660.543 111.083 657.792 111.083H623.208C620.457 111.083 617.818 109.99 615.872 108.045C613.927 106.099 612.833 103.46 612.833 100.708V76.5C612.833 73.7484 613.927 71.1095 615.872 69.1638C617.818 67.2181 620.457 66.125 623.208 66.125Z" fill="#1A3567"/>
<path opacity="0.5" d="M630.125 59.2061C630.126 57.1568 630.734 55.1537 631.871 53.449C633.008 51.7443 634.625 50.4143 636.517 49.6267C638.409 48.839 640.491 48.6289 642.502 49.0227C644.513 49.4166 646.363 50.3968 647.818 51.8399C649.125 53.1644 650.066 54.8071 650.536 56.6089L650.543 56.6331C650.799 57.4927 651.379 58.2192 652.16 58.6594C652.942 59.0996 653.864 59.2189 654.731 58.9923C655.599 58.7658 656.345 58.2109 656.811 57.4449C657.278 56.6789 657.429 55.7616 657.232 54.8867C656.448 51.8929 654.89 49.158 652.715 46.9567C650.293 44.5447 647.212 42.904 643.858 42.2418C640.505 41.5796 637.031 41.9256 633.875 43.2361C630.718 44.5466 628.02 46.7628 626.122 49.6051C624.224 52.4473 623.21 55.7883 623.208 59.2061V66.1228H630.125V59.2061Z" fill="#1A3567"/>
<defs>
<linearGradient id="paint0_linear_410_4541" x1="640" y1="0" x2="640" y2="720" gradientUnits="userSpaceOnUse">
<stop stop-color="#9EDDEE"/>
<stop offset="1" stop-color="#ECFAFF"/>
</linearGradient>
<linearGradient id="paint1_linear_410_4541" x1="881" y1="359" x2="881" y2="576" gradientUnits="userSpaceOnUse">
<stop stop-color="#A7A7A7"/>
<stop offset="1" stop-color="#434343"/>
</linearGradient>
<linearGradient id="paint2_linear_410_4541" x1="402" y1="360" x2="402" y2="577" gradientUnits="userSpaceOnUse">
<stop stop-color="#FFC93C"/>
<stop offset="1" stop-color="#E9A770"/>
</linearGradient>
</defs>
</svg>
