<svg width="1280" height="720" viewBox="0 0 1280 720" fill="none" xmlns="http://www.w3.org/2000/svg">
<rect width="1280" height="720" transform="matrix(1 0 0 -1 0 720)" fill="url(#paint0_linear_410_4543)"/>
<rect x="77.5" y="196.5" width="384" height="422" fill="#ECFAFF" stroke="#1A3567" stroke-width="3"/>
<path d="M125.82 412.21C123.84 412.21 122.02 411.75 120.36 410.83C118.72 409.91 117.41 408.63 116.43 406.99C115.47 405.33 114.99 403.47 114.99 401.41C114.99 399.35 115.47 397.5 116.43 395.86C117.41 394.22 118.72 392.94 120.36 392.02C122.02 391.1 123.84 390.64 125.82 390.64C127.8 390.64 129.61 391.1 131.25 392.02C132.91 392.94 134.21 394.22 135.15 395.86C136.11 397.5 136.59 399.35 136.59 401.41C136.59 403.47 136.11 405.33 135.15 406.99C134.19 408.63 132.89 409.91 131.25 410.83C129.61 411.75 127.8 412.21 125.82 412.21ZM125.82 407.53C127.5 407.53 128.84 406.97 129.84 405.85C130.86 404.73 131.37 403.25 131.37 401.41C131.37 399.55 130.86 398.07 129.84 396.97C128.84 395.85 127.5 395.29 125.82 395.29C124.12 395.29 122.76 395.84 121.74 396.94C120.74 398.04 120.24 399.53 120.24 401.41C120.24 403.27 120.74 404.76 121.74 405.88C122.76 406.98 124.12 407.53 125.82 407.53ZM158.284 412H153.154L144.574 399.01V412H139.444V390.94H144.574L153.154 403.99V390.94H158.284V412Z" fill="#1A3567"/>
<path d="M255.634 554.202C253.654 554.202 251.834 553.742 250.174 552.822C248.534 551.902 247.224 550.622 246.244 548.982C245.284 547.322 244.804 545.462 244.804 543.402C244.804 541.342 245.284 539.492 246.244 537.852C247.224 536.212 248.534 534.932 250.174 534.012C251.834 533.092 253.654 532.632 255.634 532.632C257.614 532.632 259.424 533.092 261.064 534.012C262.724 534.932 264.024 536.212 264.964 537.852C265.924 539.492 266.404 541.342 266.404 543.402C266.404 545.462 265.924 547.322 264.964 548.982C264.004 550.622 262.704 551.902 261.064 552.822C259.424 553.742 257.614 554.202 255.634 554.202ZM255.634 549.522C257.314 549.522 258.654 548.962 259.654 547.842C260.674 546.722 261.184 545.242 261.184 543.402C261.184 541.542 260.674 540.062 259.654 538.962C258.654 537.842 257.314 537.282 255.634 537.282C253.934 537.282 252.574 537.832 251.554 538.932C250.554 540.032 250.054 541.522 250.054 543.402C250.054 545.262 250.554 546.752 251.554 547.872C252.574 548.972 253.934 549.522 255.634 549.522ZM288.098 553.992H282.968L274.388 541.002V553.992H269.258V532.932H274.388L282.968 545.982V532.932H288.098V553.992Z" fill="#1A3567"/>
<rect x="337" y="197" width="126" height="135" fill="#31C0FD"/>
<path d="M203.79 194.984V619.984" stroke="#1A3567" stroke-width="3"/>
<path d="M336.79 194.984V619.984" stroke="#1A3567" stroke-width="3"/>
<path d="M463 331.695L76.0001 331.695" stroke="#1A3567" stroke-width="3"/>
<path d="M463 473.711L76.0001 473.711" stroke="#1A3567" stroke-width="3"/>
<path d="M150.94 116.56H135.22L132.7 124H121.96L137.2 81.88H149.08L164.32 124H153.46L150.94 116.56ZM148.3 108.64L143.08 93.22L137.92 108.64H148.3Z" fill="#1A3567"/>
<path d="M120.157 273.515C118.177 273.515 116.357 273.055 114.697 272.135C113.057 271.215 111.747 269.935 110.767 268.295C109.807 266.635 109.327 264.775 109.327 262.715C109.327 260.655 109.807 258.805 110.767 257.165C111.747 255.525 113.057 254.245 114.697 253.325C116.357 252.405 118.177 251.945 120.157 251.945C122.137 251.945 123.947 252.405 125.587 253.325C127.247 254.245 128.547 255.525 129.487 257.165C130.447 258.805 130.927 260.655 130.927 262.715C130.927 264.775 130.447 266.635 129.487 268.295C128.527 269.935 127.227 271.215 125.587 272.135C123.947 273.055 122.137 273.515 120.157 273.515ZM120.157 268.835C121.837 268.835 123.177 268.275 124.177 267.155C125.197 266.035 125.707 264.555 125.707 262.715C125.707 260.855 125.197 259.375 124.177 258.275C123.177 257.155 121.837 256.595 120.157 256.595C118.457 256.595 117.097 257.145 116.077 258.245C115.077 259.345 114.577 260.835 114.577 262.715C114.577 264.575 115.077 266.065 116.077 267.185C117.097 268.285 118.457 268.835 120.157 268.835ZM147.491 252.245V256.355H138.911V260.795H145.331V264.785H138.911V273.305H133.781V252.245H147.491ZM163.897 252.245V256.355H155.317V260.795H161.737V264.785H155.317V273.305H150.187V252.245H163.897Z" fill="#1A3567"/>
<path d="M250.581 273.515C248.601 273.515 246.781 273.055 245.121 272.135C243.481 271.215 242.171 269.935 241.191 268.295C240.231 266.635 239.751 264.775 239.751 262.715C239.751 260.655 240.231 258.805 241.191 257.165C242.171 255.525 243.481 254.245 245.121 253.325C246.781 252.405 248.601 251.945 250.581 251.945C252.561 251.945 254.371 252.405 256.011 253.325C257.671 254.245 258.971 255.525 259.911 257.165C260.871 258.805 261.351 260.655 261.351 262.715C261.351 264.775 260.871 266.635 259.911 268.295C258.951 269.935 257.651 271.215 256.011 272.135C254.371 273.055 252.561 273.515 250.581 273.515ZM250.581 268.835C252.261 268.835 253.601 268.275 254.601 267.155C255.621 266.035 256.131 264.555 256.131 262.715C256.131 260.855 255.621 259.375 254.601 258.275C253.601 257.155 252.261 256.595 250.581 256.595C248.881 256.595 247.521 257.145 246.501 258.245C245.501 259.345 245.001 260.835 245.001 262.715C245.001 264.575 245.501 266.065 246.501 267.185C247.521 268.285 248.881 268.835 250.581 268.835ZM277.915 252.245V256.355H269.335V260.795H275.755V264.785H269.335V273.305H264.205V252.245H277.915ZM294.321 252.245V256.355H285.741V260.795H292.161V264.785H285.741V273.305H280.611V252.245H294.321Z" fill="#1A3567"/>
<path d="M250.82 412.21C248.84 412.21 247.02 411.75 245.36 410.83C243.72 409.91 242.41 408.63 241.43 406.99C240.47 405.33 239.99 403.47 239.99 401.41C239.99 399.35 240.47 397.5 241.43 395.86C242.41 394.22 243.72 392.94 245.36 392.02C247.02 391.1 248.84 390.64 250.82 390.64C252.8 390.64 254.61 391.1 256.25 392.02C257.91 392.94 259.21 394.22 260.15 395.86C261.11 397.5 261.59 399.35 261.59 401.41C261.59 403.47 261.11 405.33 260.15 406.99C259.19 408.63 257.89 409.91 256.25 410.83C254.61 411.75 252.8 412.21 250.82 412.21ZM250.82 407.53C252.5 407.53 253.84 406.97 254.84 405.85C255.86 404.73 256.37 403.25 256.37 401.41C256.37 399.55 255.86 398.07 254.84 396.97C253.84 395.85 252.5 395.29 250.82 395.29C249.12 395.29 247.76 395.84 246.74 396.94C245.74 398.04 245.24 399.53 245.24 401.41C245.24 403.27 245.74 404.76 246.74 405.88C247.76 406.98 249.12 407.53 250.82 407.53ZM278.154 390.94V395.05H269.574V399.49H275.994V403.48H269.574V412H264.444V390.94H278.154ZM294.56 390.94V395.05H285.98V399.49H292.4V403.48H285.98V412H280.85V390.94H294.56Z" fill="#1A3567"/>
<path d="M119.82 554.202C117.84 554.202 116.02 553.742 114.36 552.822C112.72 551.902 111.41 550.622 110.43 548.982C109.47 547.322 108.99 545.462 108.99 543.402C108.99 541.342 109.47 539.492 110.43 537.852C111.41 536.212 112.72 534.932 114.36 534.012C116.02 533.092 117.84 532.632 119.82 532.632C121.8 532.632 123.61 533.092 125.25 534.012C126.91 534.932 128.21 536.212 129.15 537.852C130.11 539.492 130.59 541.342 130.59 543.402C130.59 545.462 130.11 547.322 129.15 548.982C128.19 550.622 126.89 551.902 125.25 552.822C123.61 553.742 121.8 554.202 119.82 554.202ZM119.82 549.522C121.5 549.522 122.84 548.962 123.84 547.842C124.86 546.722 125.37 545.242 125.37 543.402C125.37 541.542 124.86 540.062 123.84 538.962C122.84 537.842 121.5 537.282 119.82 537.282C118.12 537.282 116.76 537.832 115.74 538.932C114.74 540.032 114.24 541.522 114.24 543.402C114.24 545.262 114.74 546.752 115.74 547.872C116.76 548.972 118.12 549.522 119.82 549.522ZM147.154 532.932V537.042H138.574V541.482H144.994V545.472H138.574V553.992H133.444V532.932H147.154ZM163.56 532.932V537.042H154.98V541.482H161.4V545.472H154.98V553.992H149.85V532.932H163.56Z" fill="#1A3567"/>
<path d="M378.82 412.21C376.84 412.21 375.02 411.75 373.36 410.83C371.72 409.91 370.41 408.63 369.43 406.99C368.47 405.33 367.99 403.47 367.99 401.41C367.99 399.35 368.47 397.5 369.43 395.86C370.41 394.22 371.72 392.94 373.36 392.02C375.02 391.1 376.84 390.64 378.82 390.64C380.8 390.64 382.61 391.1 384.25 392.02C385.91 392.94 387.21 394.22 388.15 395.86C389.11 397.5 389.59 399.35 389.59 401.41C389.59 403.47 389.11 405.33 388.15 406.99C387.19 408.63 385.89 409.91 384.25 410.83C382.61 411.75 380.8 412.21 378.82 412.21ZM378.82 407.53C380.5 407.53 381.84 406.97 382.84 405.85C383.86 404.73 384.37 403.25 384.37 401.41C384.37 399.55 383.86 398.07 382.84 396.97C381.84 395.85 380.5 395.29 378.82 395.29C377.12 395.29 375.76 395.84 374.74 396.94C373.74 398.04 373.24 399.53 373.24 401.41C373.24 403.27 373.74 404.76 374.74 405.88C375.76 406.98 377.12 407.53 378.82 407.53ZM406.154 390.94V395.05H397.574V399.49H403.994V403.48H397.574V412H392.444V390.94H406.154ZM422.56 390.94V395.05H413.98V399.49H420.4V403.48H413.98V412H408.85V390.94H422.56Z" fill="#1A3567"/>
<path d="M378.514 554.202C376.534 554.202 374.714 553.742 373.054 552.822C371.414 551.902 370.104 550.622 369.124 548.982C368.164 547.322 367.684 545.462 367.684 543.402C367.684 541.342 368.164 539.492 369.124 537.852C370.104 536.212 371.414 534.932 373.054 534.012C374.714 533.092 376.534 532.632 378.514 532.632C380.494 532.632 382.304 533.092 383.944 534.012C385.604 534.932 386.904 536.212 387.844 537.852C388.804 539.492 389.284 541.342 389.284 543.402C389.284 545.462 388.804 547.322 387.844 548.982C386.884 550.622 385.584 551.902 383.944 552.822C382.304 553.742 380.494 554.202 378.514 554.202ZM378.514 549.522C380.194 549.522 381.534 548.962 382.534 547.842C383.554 546.722 384.064 545.242 384.064 543.402C384.064 541.542 383.554 540.062 382.534 538.962C381.534 537.842 380.194 537.282 378.514 537.282C376.814 537.282 375.454 537.832 374.434 538.932C373.434 540.032 372.934 541.522 372.934 543.402C372.934 545.262 373.434 546.752 374.434 547.872C375.454 548.972 376.814 549.522 378.514 549.522ZM405.848 532.932V537.042H397.268V541.482H403.688V545.472H397.268V553.992H392.138V532.932H405.848ZM422.254 532.932V537.042H413.674V541.482H420.094V545.472H413.674V553.992H408.544V532.932H422.254Z" fill="#1A3567"/>
<path d="M388.82 273.21C386.84 273.21 385.02 272.75 383.36 271.83C381.72 270.91 380.41 269.63 379.43 267.99C378.47 266.33 377.99 264.47 377.99 262.41C377.99 260.35 378.47 258.5 379.43 256.86C380.41 255.22 381.72 253.94 383.36 253.02C385.02 252.1 386.84 251.64 388.82 251.64C390.8 251.64 392.61 252.1 394.25 253.02C395.91 253.94 397.21 255.22 398.15 256.86C399.11 258.5 399.59 260.35 399.59 262.41C399.59 264.47 399.11 266.33 398.15 267.99C397.19 269.63 395.89 270.91 394.25 271.83C392.61 272.75 390.8 273.21 388.82 273.21ZM388.82 268.53C390.5 268.53 391.84 267.97 392.84 266.85C393.86 265.73 394.37 264.25 394.37 262.41C394.37 260.55 393.86 259.07 392.84 257.97C391.84 256.85 390.5 256.29 388.82 256.29C387.12 256.29 385.76 256.84 384.74 257.94C383.74 259.04 383.24 260.53 383.24 262.41C383.24 264.27 383.74 265.76 384.74 266.88C385.76 267.98 387.12 268.53 388.82 268.53ZM421.284 273H416.154L407.574 260.01V273H402.444V251.94H407.574L416.154 264.99V251.94H421.284V273Z" fill="#ECFAFF"/>
<path d="M219.66 142.96V157H216.24V142.96H219.66ZM228.938 145.72C230.245 145.72 231.285 146.147 232.058 147C232.845 147.84 233.238 149 233.238 150.48V157H229.838V150.94C229.838 150.193 229.645 149.613 229.258 149.2C228.872 148.787 228.352 148.58 227.698 148.58C227.045 148.58 226.525 148.787 226.138 149.2C225.752 149.613 225.558 150.193 225.558 150.94V157H222.138V145.84H225.558V147.32C225.905 146.827 226.372 146.44 226.958 146.16C227.545 145.867 228.205 145.72 228.938 145.72ZM241.835 154.1V157H240.095C238.855 157 237.888 156.7 237.195 156.1C236.502 155.487 236.155 154.493 236.155 153.12V148.68H234.795V145.84H236.155V143.12H239.575V145.84H241.815V148.68H239.575V153.16C239.575 153.493 239.655 153.733 239.815 153.88C239.975 154.027 240.242 154.1 240.615 154.1H241.835ZM254.26 151.24C254.26 151.56 254.24 151.893 254.2 152.24H246.46C246.513 152.933 246.733 153.467 247.12 153.84C247.52 154.2 248.007 154.38 248.58 154.38C249.433 154.38 250.027 154.02 250.36 153.3H254C253.813 154.033 253.473 154.693 252.98 155.28C252.5 155.867 251.893 156.327 251.16 156.66C250.427 156.993 249.607 157.16 248.7 157.16C247.607 157.16 246.633 156.927 245.78 156.46C244.927 155.993 244.26 155.327 243.78 154.46C243.3 153.593 243.06 152.58 243.06 151.42C243.06 150.26 243.293 149.247 243.76 148.38C244.24 147.513 244.907 146.847 245.76 146.38C246.613 145.913 247.593 145.68 248.7 145.68C249.78 145.68 250.74 145.907 251.58 146.36C252.42 146.813 253.073 147.46 253.54 148.3C254.02 149.14 254.26 150.12 254.26 151.24ZM250.76 150.34C250.76 149.753 250.56 149.287 250.16 148.94C249.76 148.593 249.26 148.42 248.66 148.42C248.087 148.42 247.6 148.587 247.2 148.92C246.813 149.253 246.573 149.727 246.48 150.34H250.76ZM259.484 147.7C259.884 147.087 260.384 146.607 260.984 146.26C261.584 145.9 262.251 145.72 262.984 145.72V149.34H262.044C261.191 149.34 260.551 149.527 260.124 149.9C259.698 150.26 259.484 150.9 259.484 151.82V157H256.064V145.84H259.484V147.7ZM268.039 147.7C268.439 147.087 268.939 146.607 269.539 146.26C270.139 145.9 270.806 145.72 271.539 145.72V149.34H270.599C269.746 149.34 269.106 149.527 268.679 149.9C268.252 150.26 268.039 150.9 268.039 151.82V157H264.619V145.84H268.039V147.7ZM284.194 145.84V157H280.774V155.48C280.427 155.973 279.954 156.373 279.354 156.68C278.767 156.973 278.114 157.12 277.394 157.12C276.54 157.12 275.787 156.933 275.134 156.56C274.48 156.173 273.974 155.62 273.614 154.9C273.254 154.18 273.074 153.333 273.074 152.36V145.84H276.474V151.9C276.474 152.647 276.667 153.227 277.054 153.64C277.44 154.053 277.96 154.26 278.614 154.26C279.28 154.26 279.807 154.053 280.194 153.64C280.58 153.227 280.774 152.647 280.774 151.9V145.84H284.194ZM290.07 147.42C290.403 146.9 290.863 146.48 291.45 146.16C292.037 145.84 292.723 145.68 293.51 145.68C294.43 145.68 295.263 145.913 296.01 146.38C296.757 146.847 297.343 147.513 297.77 148.38C298.21 149.247 298.43 150.253 298.43 151.4C298.43 152.547 298.21 153.56 297.77 154.44C297.343 155.307 296.757 155.98 296.01 156.46C295.263 156.927 294.43 157.16 293.51 157.16C292.737 157.16 292.05 157 291.45 156.68C290.863 156.36 290.403 155.947 290.07 155.44V162.32H286.65V145.84H290.07V147.42ZM294.95 151.4C294.95 150.547 294.71 149.88 294.23 149.4C293.763 148.907 293.183 148.66 292.49 148.66C291.81 148.66 291.23 148.907 290.75 149.4C290.283 149.893 290.05 150.567 290.05 151.42C290.05 152.273 290.283 152.947 290.75 153.44C291.23 153.933 291.81 154.18 292.49 154.18C293.17 154.18 293.75 153.933 294.23 153.44C294.71 152.933 294.95 152.253 294.95 151.4ZM306.444 154.1V157H304.704C303.464 157 302.498 156.7 301.804 156.1C301.111 155.487 300.764 154.493 300.764 153.12V148.68H299.404V145.84H300.764V143.12H304.184V145.84H306.424V148.68H304.184V153.16C304.184 153.493 304.264 153.733 304.424 153.88C304.584 154.027 304.851 154.1 305.224 154.1H306.444ZM313.429 157.16C312.336 157.16 311.349 156.927 310.469 156.46C309.603 155.993 308.916 155.327 308.409 154.46C307.916 153.593 307.669 152.58 307.669 151.42C307.669 150.273 307.923 149.267 308.429 148.4C308.936 147.52 309.629 146.847 310.509 146.38C311.389 145.913 312.376 145.68 313.469 145.68C314.563 145.68 315.549 145.913 316.429 146.38C317.309 146.847 318.003 147.52 318.509 148.4C319.016 149.267 319.269 150.273 319.269 151.42C319.269 152.567 319.009 153.58 318.489 154.46C317.983 155.327 317.283 155.993 316.389 156.46C315.509 156.927 314.523 157.16 313.429 157.16ZM313.429 154.2C314.083 154.2 314.636 153.96 315.089 153.48C315.556 153 315.789 152.313 315.789 151.42C315.789 150.527 315.563 149.84 315.109 149.36C314.669 148.88 314.123 148.64 313.469 148.64C312.803 148.64 312.249 148.88 311.809 149.36C311.369 149.827 311.149 150.513 311.149 151.42C311.149 152.313 311.363 153 311.789 153.48C312.229 153.96 312.776 154.2 313.429 154.2ZM324.504 147.7C324.904 147.087 325.404 146.607 326.004 146.26C326.604 145.9 327.27 145.72 328.004 145.72V149.34H327.064C326.21 149.34 325.57 149.527 325.144 149.9C324.717 150.26 324.504 150.9 324.504 151.82V157H321.084V145.84H324.504V147.7Z" fill="#1A3567"/>
<path d="M85.66 142.952V156.992H82.24V142.952H85.66ZM94.9384 145.712C96.2451 145.712 97.2851 146.139 98.0584 146.992C98.8451 147.832 99.2384 148.992 99.2384 150.472V156.992H95.8384V150.932C95.8384 150.186 95.6451 149.606 95.2584 149.192C94.8718 148.779 94.3518 148.572 93.6984 148.572C93.0451 148.572 92.5251 148.779 92.1384 149.192C91.7518 149.606 91.5584 150.186 91.5584 150.932V156.992H88.1384V145.832H91.5584V147.312C91.9051 146.819 92.3718 146.432 92.9584 146.152C93.5451 145.859 94.2051 145.712 94.9384 145.712ZM107.835 154.092V156.992H106.095C104.855 156.992 103.888 156.692 103.195 156.092C102.502 155.479 102.155 154.486 102.155 153.112V148.672H100.795V145.832H102.155V143.112H105.575V145.832H107.815V148.672H105.575V153.152C105.575 153.486 105.655 153.726 105.815 153.872C105.975 154.019 106.242 154.092 106.615 154.092H107.835ZM120.26 151.232C120.26 151.552 120.24 151.886 120.2 152.232H112.46C112.513 152.926 112.733 153.459 113.12 153.832C113.52 154.192 114.007 154.372 114.58 154.372C115.433 154.372 116.027 154.012 116.36 153.292H120C119.813 154.026 119.473 154.686 118.98 155.272C118.5 155.859 117.893 156.319 117.16 156.652C116.427 156.986 115.607 157.152 114.7 157.152C113.607 157.152 112.633 156.919 111.78 156.452C110.927 155.986 110.26 155.319 109.78 154.452C109.3 153.586 109.06 152.572 109.06 151.412C109.06 150.252 109.293 149.239 109.76 148.372C110.24 147.506 110.907 146.839 111.76 146.372C112.613 145.906 113.593 145.672 114.7 145.672C115.78 145.672 116.74 145.899 117.58 146.352C118.42 146.806 119.073 147.452 119.54 148.292C120.02 149.132 120.26 150.112 120.26 151.232ZM116.76 150.332C116.76 149.746 116.56 149.279 116.16 148.932C115.76 148.586 115.26 148.412 114.66 148.412C114.087 148.412 113.6 148.579 113.2 148.912C112.813 149.246 112.573 149.719 112.48 150.332H116.76ZM125.484 147.692C125.884 147.079 126.384 146.599 126.984 146.252C127.584 145.892 128.251 145.712 128.984 145.712V149.332H128.044C127.191 149.332 126.551 149.519 126.124 149.892C125.698 150.252 125.484 150.892 125.484 151.812V156.992H122.064V145.832H125.484V147.692ZM134.039 147.692C134.439 147.079 134.939 146.599 135.539 146.252C136.139 145.892 136.806 145.712 137.539 145.712V149.332H136.599C135.746 149.332 135.106 149.519 134.679 149.892C134.252 150.252 134.039 150.892 134.039 151.812V156.992H130.619V145.832H134.039V147.692ZM150.194 145.832V156.992H146.774V155.472C146.427 155.966 145.954 156.366 145.354 156.672C144.767 156.966 144.114 157.112 143.394 157.112C142.54 157.112 141.787 156.926 141.134 156.552C140.48 156.166 139.974 155.612 139.614 154.892C139.254 154.172 139.074 153.326 139.074 152.352V145.832H142.474V151.892C142.474 152.639 142.667 153.219 143.054 153.632C143.44 154.046 143.96 154.252 144.614 154.252C145.28 154.252 145.807 154.046 146.194 153.632C146.58 153.219 146.774 152.639 146.774 151.892V145.832H150.194ZM156.07 147.412C156.403 146.892 156.863 146.472 157.45 146.152C158.037 145.832 158.723 145.672 159.51 145.672C160.43 145.672 161.263 145.906 162.01 146.372C162.757 146.839 163.343 147.506 163.77 148.372C164.21 149.239 164.43 150.246 164.43 151.392C164.43 152.539 164.21 153.552 163.77 154.432C163.343 155.299 162.757 155.972 162.01 156.452C161.263 156.919 160.43 157.152 159.51 157.152C158.737 157.152 158.05 156.992 157.45 156.672C156.863 156.352 156.403 155.939 156.07 155.432V162.312H152.65V145.832H156.07V147.412ZM160.95 151.392C160.95 150.539 160.71 149.872 160.23 149.392C159.763 148.899 159.183 148.652 158.49 148.652C157.81 148.652 157.23 148.899 156.75 149.392C156.283 149.886 156.05 150.559 156.05 151.412C156.05 152.266 156.283 152.939 156.75 153.432C157.23 153.926 157.81 154.172 158.49 154.172C159.17 154.172 159.75 153.926 160.23 153.432C160.71 152.926 160.95 152.246 160.95 151.392ZM172.444 154.092V156.992H170.704C169.464 156.992 168.498 156.692 167.804 156.092C167.111 155.479 166.764 154.486 166.764 153.112V148.672H165.404V145.832H166.764V143.112H170.184V145.832H172.424V148.672H170.184V153.152C170.184 153.486 170.264 153.726 170.424 153.872C170.584 154.019 170.851 154.092 171.224 154.092H172.444ZM179.429 157.152C178.336 157.152 177.349 156.919 176.469 156.452C175.603 155.986 174.916 155.319 174.409 154.452C173.916 153.586 173.669 152.572 173.669 151.412C173.669 150.266 173.923 149.259 174.429 148.392C174.936 147.512 175.629 146.839 176.509 146.372C177.389 145.906 178.376 145.672 179.469 145.672C180.563 145.672 181.549 145.906 182.429 146.372C183.309 146.839 184.003 147.512 184.509 148.392C185.016 149.259 185.269 150.266 185.269 151.412C185.269 152.559 185.009 153.572 184.489 154.452C183.983 155.319 183.283 155.986 182.389 156.452C181.509 156.919 180.523 157.152 179.429 157.152ZM179.429 154.192C180.083 154.192 180.636 153.952 181.089 153.472C181.556 152.992 181.789 152.306 181.789 151.412C181.789 150.519 181.563 149.832 181.109 149.352C180.669 148.872 180.123 148.632 179.469 148.632C178.803 148.632 178.249 148.872 177.809 149.352C177.369 149.819 177.149 150.506 177.149 151.412C177.149 152.306 177.363 152.992 177.789 153.472C178.229 153.952 178.776 154.192 179.429 154.192ZM190.504 147.692C190.904 147.079 191.404 146.599 192.004 146.252C192.604 145.892 193.27 145.712 194.004 145.712V149.332H193.064C192.21 149.332 191.57 149.519 191.144 149.892C190.717 150.252 190.504 150.892 190.504 151.812V156.992H187.084V145.832H190.504V147.692Z" fill="#1A3567"/>
<path d="M277.945 102.4C280.385 102.92 282.345 104.14 283.825 106.06C285.305 107.94 286.045 110.1 286.045 112.54C286.045 116.06 284.805 118.86 282.325 120.94C279.885 122.98 276.465 124 272.065 124H252.445V81.88H271.405C275.685 81.88 279.025 82.86 281.425 84.82C283.865 86.78 285.085 89.44 285.085 92.8C285.085 95.28 284.425 97.34 283.105 98.98C281.825 100.62 280.105 101.76 277.945 102.4ZM262.705 98.92H269.425C271.105 98.92 272.385 98.56 273.265 97.84C274.185 97.08 274.645 95.98 274.645 94.54C274.645 93.1 274.185 92 273.265 91.24C272.385 90.48 271.105 90.1 269.425 90.1H262.705V98.92ZM270.265 115.72C271.985 115.72 273.305 115.34 274.225 114.58C275.185 113.78 275.665 112.64 275.665 111.16C275.665 109.68 275.165 108.52 274.165 107.68C273.205 106.84 271.865 106.42 270.145 106.42H262.705V115.72H270.265Z" fill="#1A3567"/>
<path d="M728.94 192.56H713.22L710.7 200H699.96L715.2 157.88H727.08L742.32 200H731.46L728.94 192.56ZM726.3 184.64L721.08 169.22L715.92 184.64H726.3Z" fill="#1A3567"/>
<path d="M917.945 178.4C920.385 178.92 922.345 180.14 923.825 182.06C925.305 183.94 926.045 186.1 926.045 188.54C926.045 192.06 924.805 194.86 922.325 196.94C919.885 198.98 916.465 200 912.065 200H892.445V157.88H911.405C915.685 157.88 919.025 158.86 921.425 160.82C923.865 162.78 925.085 165.44 925.085 168.8C925.085 171.28 924.425 173.34 923.105 174.98C921.825 176.62 920.105 177.76 917.945 178.4ZM902.705 174.92H909.425C911.105 174.92 912.385 174.56 913.265 173.84C914.185 173.08 914.645 171.98 914.645 170.54C914.645 169.1 914.185 168 913.265 167.24C912.385 166.48 911.105 166.1 909.425 166.1H902.705V174.92ZM910.265 191.72C911.985 191.72 913.305 191.34 914.225 190.58C915.185 189.78 915.665 188.64 915.665 187.16C915.665 185.68 915.165 184.52 914.165 183.68C913.205 182.84 911.865 182.42 910.145 182.42H902.705V191.72H910.265Z" fill="#1A3567"/>
<path d="M380.618 95.2333C380.618 79.9318 393.571 67.5274 409.549 67.5274C425.527 67.5274 438.48 79.9318 438.48 95.2333C421.499 126.854 430.304 131.07 409.549 131.07C386.907 131.07 388.794 115.712 380.618 95.2333Z" fill="#FFC93C"/>
<path fill-rule="evenodd" clip-rule="evenodd" d="M391.341 128.764H389.906C389.063 128.764 388.264 129.129 387.731 129.756C387.468 130.065 387.28 130.427 387.182 130.815C387.084 131.202 387.078 131.606 387.163 131.996L392.088 154.541C392.22 155.144 392.565 155.686 393.064 156.074C393.564 156.463 394.188 156.675 394.831 156.675H395.953C397.329 158.596 400.301 161.531 405.905 162.234V162.242C405.905 162.242 406.931 162.157 408.477 162.157C410.024 162.157 411.508 162.163 411.508 162.163C416.814 161.362 419.641 158.551 420.961 156.672H422.061C423.388 156.672 424.531 155.782 424.804 154.538L429.729 131.993C429.902 131.201 429.695 130.379 429.162 129.753C428.898 129.443 428.567 129.194 428.19 129.022C427.814 128.851 427.403 128.762 426.986 128.761H426.103C426.695 122.543 429.357 119.184 432.385 115.367C436.163 110.606 440.446 105.21 440.446 94.0447C440.446 87.72 437.235 80.5968 431.855 74.9932C425.669 68.5497 417.446 65 408.706 65C391.375 65 376.731 78.9199 376.731 95.3981C376.731 103.554 380.757 109.395 384.647 115.046C387.681 119.454 390.566 123.653 391.341 128.761V128.764ZM419.783 151.309H419.321C418.153 151.309 417.121 151.968 416.712 153.016C416.641 153.179 414.914 157.025 408.477 157.025C402.04 157.025 400.242 153.158 400.18 153.016C399.975 152.513 399.616 152.081 399.151 151.777C398.685 151.472 398.135 151.309 397.571 151.309H397.109L393.356 134.13H423.536L419.783 151.309ZM408.703 70.3691C424.658 70.3691 434.839 84.3928 434.839 94.0477C434.839 103.703 431.48 107.638 427.922 112.123C424.565 116.352 421.104 120.712 420.474 128.767H411.508V119.305H414.341C414.75 119.305 415.153 119.22 415.524 119.055C415.894 118.889 416.222 118.649 416.486 118.35C416.749 118.05 416.941 117.699 417.047 117.321C417.154 116.944 417.173 116.548 417.102 116.162L413.439 96.0066C413.204 94.7007 412.02 93.7836 410.681 93.7836C410.523 93.7836 410.358 93.7954 410.197 93.8221C409.832 93.8826 409.484 94.0119 409.171 94.2024C408.859 94.393 408.589 94.641 408.378 94.9322C408.158 94.6298 407.876 94.3741 407.549 94.1811C407.221 93.9881 406.856 93.8618 406.475 93.8103C404.953 93.6025 403.525 94.6205 403.304 96.0867L400.298 116.242C400.184 117.014 400.422 117.792 400.955 118.379C401.218 118.67 401.543 118.903 401.909 119.062C402.274 119.222 402.671 119.305 403.072 119.305H405.905V128.767H397.004C396.238 122.131 392.73 117.038 389.327 112.096C385.732 106.878 382.335 101.948 382.335 95.4041C382.335 82.0719 394.658 70.375 408.706 70.375L408.703 70.3691ZM406.301 113.933L408.421 99.7166L411.006 113.933H406.301Z" fill="#1A3567"/>
<path d="M421.724 154.792L409.931 162L397.517 154.792L391 134H427L421.724 154.792Z" fill="#1A3567"/>
<path d="M1128.89 242.233C1128.89 226.932 1141.84 214.527 1157.82 214.527C1173.8 214.527 1186.75 226.932 1186.75 242.233C1169.77 273.854 1178.57 278.07 1157.82 278.07C1135.18 278.07 1137.06 262.712 1128.89 242.233Z" fill="#FFC93C"/>
<path fill-rule="evenodd" clip-rule="evenodd" d="M1139.61 275.764H1138.18C1137.33 275.764 1136.53 276.129 1136 276.756C1135.74 277.065 1135.55 277.427 1135.45 277.815C1135.35 278.202 1135.35 278.606 1135.43 278.996L1140.36 301.541C1140.49 302.144 1140.83 302.686 1141.33 303.074C1141.83 303.463 1142.46 303.675 1143.1 303.675H1144.22C1145.6 305.596 1148.57 308.531 1154.17 309.234V309.242C1154.17 309.242 1155.2 309.157 1156.75 309.157C1158.29 309.157 1159.78 309.163 1159.78 309.163C1165.08 308.362 1167.91 305.551 1169.23 303.672H1170.33C1171.66 303.672 1172.8 302.782 1173.07 301.538L1178 278.993C1178.17 278.201 1177.96 277.379 1177.43 276.753C1177.17 276.443 1176.84 276.194 1176.46 276.022C1176.08 275.851 1175.67 275.762 1175.25 275.761H1174.37C1174.96 269.543 1177.63 266.184 1180.65 262.367C1184.43 257.606 1188.71 252.21 1188.71 241.045C1188.71 234.72 1185.5 227.597 1180.12 221.993C1173.94 215.55 1165.72 212 1156.98 212C1139.64 212 1125 225.92 1125 242.398C1125 250.554 1129.03 256.395 1132.92 262.046C1135.95 266.454 1138.84 270.653 1139.61 275.761V275.764ZM1168.05 298.309H1167.59C1166.42 298.309 1165.39 298.968 1164.98 300.016C1164.91 300.179 1163.18 304.025 1156.75 304.025C1150.31 304.025 1148.51 300.158 1148.45 300.016C1148.24 299.513 1147.89 299.081 1147.42 298.777C1146.95 298.472 1146.4 298.309 1145.84 298.309H1145.38L1141.62 281.13H1171.81L1168.05 298.309ZM1156.97 217.369C1172.93 217.369 1183.11 231.393 1183.11 241.048C1183.11 250.703 1179.75 254.638 1176.19 259.123C1172.83 263.352 1169.37 267.712 1168.74 275.767H1159.78V266.305H1162.61C1163.02 266.305 1163.42 266.22 1163.79 266.055C1164.16 265.889 1164.49 265.649 1164.75 265.35C1165.02 265.05 1165.21 264.699 1165.32 264.321C1165.42 263.944 1165.44 263.548 1165.37 263.162L1161.71 243.007C1161.47 241.701 1160.29 240.784 1158.95 240.784C1158.79 240.784 1158.63 240.795 1158.47 240.822C1158.1 240.883 1157.75 241.012 1157.44 241.202C1157.13 241.393 1156.86 241.641 1156.65 241.932C1156.43 241.63 1156.14 241.374 1155.82 241.181C1155.49 240.988 1155.12 240.862 1154.74 240.81C1153.22 240.603 1151.79 241.621 1151.57 243.087L1148.57 263.242C1148.45 264.014 1148.69 264.792 1149.22 265.379C1149.49 265.67 1149.81 265.903 1150.18 266.062C1150.54 266.222 1150.94 266.305 1151.34 266.305H1154.17V275.767H1145.27C1144.51 269.131 1141 264.038 1137.6 259.096C1134 253.878 1130.6 248.948 1130.6 242.404C1130.6 229.072 1142.93 217.375 1156.98 217.375L1156.97 217.369ZM1154.57 260.933L1156.69 246.717L1159.27 260.933H1154.57Z" fill="#1A3567"/>
<path d="M1169.99 301.792L1158.2 309L1145.79 301.792L1139.27 281H1175.27L1169.99 301.792Z" fill="#1A3567"/>
<path fill-rule="evenodd" clip-rule="evenodd" d="M1137.61 420.764H1136.18C1135.33 420.764 1134.53 421.129 1134 421.756C1133.74 422.065 1133.55 422.427 1133.45 422.815C1133.35 423.202 1133.35 423.606 1133.43 423.996L1138.36 446.541C1138.49 447.144 1138.83 447.686 1139.33 448.074C1139.83 448.463 1140.46 448.675 1141.1 448.675H1142.22C1143.6 450.596 1146.57 453.531 1152.17 454.234V454.242C1152.17 454.242 1153.2 454.157 1154.75 454.157C1156.29 454.157 1157.78 454.163 1157.78 454.163C1163.08 453.362 1165.91 450.551 1167.23 448.672H1168.33C1169.66 448.672 1170.8 447.782 1171.07 446.538L1176 423.993C1176.17 423.201 1175.96 422.379 1175.43 421.753C1175.17 421.443 1174.84 421.194 1174.46 421.022C1174.08 420.851 1173.67 420.762 1173.25 420.761H1172.37C1172.96 414.543 1175.63 411.184 1178.65 407.367C1182.43 402.606 1186.71 397.21 1186.71 386.045C1186.71 379.72 1183.5 372.597 1178.12 366.993C1171.94 360.55 1163.72 357 1154.98 357C1137.64 357 1123 370.92 1123 387.398C1123 395.554 1127.03 401.395 1130.92 407.046C1133.95 411.454 1136.84 415.653 1137.61 420.761V420.764ZM1166.05 443.309H1165.59C1164.42 443.309 1163.39 443.968 1162.98 445.016C1162.91 445.179 1161.18 449.025 1154.75 449.025C1148.31 449.025 1146.51 445.158 1146.45 445.016C1146.24 444.513 1145.89 444.081 1145.42 443.777C1144.95 443.472 1144.4 443.309 1143.84 443.309H1143.38L1139.62 426.13H1169.81L1166.05 443.309ZM1154.97 362.369C1170.93 362.369 1181.11 376.393 1181.11 386.048C1181.11 395.703 1177.75 399.638 1174.19 404.123C1170.83 408.352 1167.37 412.712 1166.74 420.767H1157.78V411.305H1160.61C1161.02 411.305 1161.42 411.22 1161.79 411.055C1162.16 410.889 1162.49 410.649 1162.75 410.35C1163.02 410.05 1163.21 409.699 1163.32 409.321C1163.42 408.944 1163.44 408.548 1163.37 408.162L1159.71 388.007C1159.47 386.701 1158.29 385.784 1156.95 385.784C1156.79 385.784 1156.63 385.795 1156.47 385.822C1156.1 385.883 1155.75 386.012 1155.44 386.202C1155.13 386.393 1154.86 386.641 1154.65 386.932C1154.43 386.63 1154.14 386.374 1153.82 386.181C1153.49 385.988 1153.12 385.862 1152.74 385.81C1151.22 385.603 1149.79 386.621 1149.57 388.087L1146.57 408.242C1146.45 409.014 1146.69 409.792 1147.22 410.379C1147.49 410.67 1147.81 410.903 1148.18 411.062C1148.54 411.222 1148.94 411.305 1149.34 411.305H1152.17V420.767H1143.27C1142.51 414.131 1139 409.038 1135.6 404.096C1132 398.878 1128.6 393.948 1128.6 387.404C1128.6 374.072 1140.93 362.375 1154.98 362.375L1154.97 362.369ZM1152.57 405.933L1154.69 391.717L1157.27 405.933H1152.57Z" fill="#1A3567"/>
<path d="M1167.99 446.792L1156.2 454L1143.79 446.792L1137.27 426H1173.27L1167.99 446.792Z" fill="#1A3567"/>
<path fill-rule="evenodd" clip-rule="evenodd" d="M1137.61 565.764H1136.18C1135.33 565.764 1134.53 566.129 1134 566.756C1133.74 567.065 1133.55 567.427 1133.45 567.815C1133.35 568.202 1133.35 568.606 1133.43 568.996L1138.36 591.541C1138.49 592.144 1138.83 592.686 1139.33 593.074C1139.83 593.463 1140.46 593.675 1141.1 593.675H1142.22C1143.6 595.596 1146.57 598.531 1152.17 599.234V599.242C1152.17 599.242 1153.2 599.157 1154.75 599.157C1156.29 599.157 1157.78 599.163 1157.78 599.163C1163.08 598.362 1165.91 595.551 1167.23 593.672H1168.33C1169.66 593.672 1170.8 592.782 1171.07 591.538L1176 568.993C1176.17 568.201 1175.96 567.379 1175.43 566.753C1175.17 566.443 1174.84 566.194 1174.46 566.022C1174.08 565.851 1173.67 565.762 1173.25 565.761H1172.37C1172.96 559.543 1175.63 556.184 1178.65 552.367C1182.43 547.606 1186.71 542.21 1186.71 531.045C1186.71 524.72 1183.5 517.597 1178.12 511.993C1171.94 505.55 1163.72 502 1154.98 502C1137.64 502 1123 515.92 1123 532.398C1123 540.554 1127.03 546.395 1130.92 552.046C1133.95 556.454 1136.84 560.653 1137.61 565.761V565.764ZM1166.05 588.309H1165.59C1164.42 588.309 1163.39 588.968 1162.98 590.016C1162.91 590.179 1161.18 594.025 1154.75 594.025C1148.31 594.025 1146.51 590.158 1146.45 590.016C1146.24 589.513 1145.89 589.081 1145.42 588.777C1144.95 588.472 1144.4 588.309 1143.84 588.309H1143.38L1139.62 571.13H1169.81L1166.05 588.309ZM1154.97 507.369C1170.93 507.369 1181.11 521.393 1181.11 531.048C1181.11 540.703 1177.75 544.638 1174.19 549.123C1170.83 553.352 1167.37 557.712 1166.74 565.767H1157.78V556.305H1160.61C1161.02 556.305 1161.42 556.22 1161.79 556.055C1162.16 555.889 1162.49 555.649 1162.75 555.35C1163.02 555.05 1163.21 554.699 1163.32 554.321C1163.42 553.944 1163.44 553.548 1163.37 553.162L1159.71 533.007C1159.47 531.701 1158.29 530.784 1156.95 530.784C1156.79 530.784 1156.63 530.795 1156.47 530.822C1156.1 530.883 1155.75 531.012 1155.44 531.202C1155.13 531.393 1154.86 531.641 1154.65 531.932C1154.43 531.63 1154.14 531.374 1153.82 531.181C1153.49 530.988 1153.12 530.862 1152.74 530.81C1151.22 530.603 1149.79 531.621 1149.57 533.087L1146.57 553.242C1146.45 554.014 1146.69 554.792 1147.22 555.379C1147.49 555.67 1147.81 555.903 1148.18 556.062C1148.54 556.222 1148.94 556.305 1149.34 556.305H1152.17V565.767H1143.27C1142.51 559.131 1139 554.038 1135.6 549.096C1132 543.878 1128.6 538.948 1128.6 532.404C1128.6 519.072 1140.93 507.375 1154.98 507.375L1154.97 507.369ZM1152.57 550.933L1154.69 536.717L1157.27 550.933H1152.57Z" fill="#1A3567"/>
<path d="M1167.99 591.792L1156.2 599L1143.79 591.792L1137.27 571H1173.27L1167.99 591.792Z" fill="#1A3567"/>
<path d="M581 261C581 265.418 584.582 269 589 269C593.418 269 597 265.418 597 261C597 256.582 593.418 253 589 253C584.582 253 581 256.582 581 261ZM1042 261C1042 265.418 1045.58 269 1050 269C1054.42 269 1058 265.418 1058 261C1058 256.582 1054.42 253 1050 253C1045.58 253 1042 256.582 1042 261ZM589 261V262.5H1050V261V259.5H589V261Z" fill="#1A3567"/>
<path d="M581 406C581 410.418 584.582 414 589 414C593.418 414 597 410.418 597 406C597 401.582 593.418 398 589 398C584.582 398 581 401.582 581 406ZM1042 406C1042 410.418 1045.58 414 1050 414C1054.42 414 1058 410.418 1058 406C1058 401.582 1054.42 398 1050 398C1045.58 398 1042 401.582 1042 406ZM589 406V407.5H1050V406V404.5H589V406Z" fill="#1A3567"/>
<path d="M581 552C581 556.418 584.582 560 589 560C593.418 560 597 556.418 597 552C597 547.582 593.418 544 589 544C584.582 544 581 547.582 581 552ZM1042 552C1042 556.418 1045.58 560 1050 560C1054.42 560 1058 556.418 1058 552C1058 547.582 1054.42 544 1050 544C1045.58 544 1042 547.582 1042 552ZM589 552V553.5H1050V552V550.5H589V552Z" fill="#1A3567"/>
<rect x="690.5" y="243.5" width="62" height="35" rx="9.5" fill="#ECFAFF" stroke="#1A3567" stroke-width="3"/>
<path d="M722 244V276" stroke="#1A3567" stroke-width="3" stroke-linecap="square"/>
<rect x="872.5" y="243.5" width="62" height="35" rx="9.5" fill="#ECFAFF" stroke="#1A3567" stroke-width="3"/>
<path d="M904 244V276" stroke="#1A3567" stroke-width="3" stroke-linecap="square"/>
<rect x="690.5" y="384.5" width="62" height="35" rx="9.5" fill="#ECFAFF" stroke="#1A3567" stroke-width="3"/>
<path d="M692 393C692 389.134 695.134 386 699 386H722V418H699C695.134 418 692 414.866 692 411V393Z" fill="#1A3567"/>
<path d="M722 385V417" stroke="#1A3567" stroke-width="3" stroke-linecap="square"/>
<rect x="872.5" y="536.5" width="62" height="35" rx="9.5" fill="#ECFAFF" stroke="#1A3567" stroke-width="3"/>
<path d="M874 545C874 541.134 877.134 538 881 538H904V570H881C877.134 570 874 566.866 874 563V545Z" fill="#1A3567"/>
<path d="M904 537V569" stroke="#1A3567" stroke-width="3" stroke-linecap="square"/>
<rect x="872.5" y="384.5" width="62" height="35" rx="9.5" fill="#ECFAFF" stroke="#1A3567" stroke-width="3"/>
<path d="M904 385V417" stroke="#1A3567" stroke-width="3" stroke-linecap="square"/>
<rect x="690.5" y="533.5" width="62" height="35" rx="9.5" fill="#ECFAFF" stroke="#1A3567" stroke-width="3"/>
<path d="M722 534V566" stroke="#1A3567" stroke-width="3" stroke-linecap="square"/>
<defs>
<linearGradient id="paint0_linear_410_4543" x1="640" y1="0" x2="640" y2="720" gradientUnits="userSpaceOnUse">
<stop stop-color="#A3DFEF"/>
<stop offset="1" stop-color="#ECFAFF"/>
</linearGradient>
</defs>
</svg>
