<svg width="1280" height="720" viewBox="0 0 1280 720" fill="none" xmlns="http://www.w3.org/2000/svg">
<rect width="1280" height="720" fill="url(#paint0_linear_422_5279)"/>
<path d="M613.652 337.688H616.963V344.365H613.652V337.688Z" fill="#1EAD28"/>
<path d="M613.652 619.625H616.963V626.303H613.652V619.625Z" fill="#1EAD28"/>
<path d="M625.169 76.0451H605.596L615.382 39.6328L625.169 76.0451Z" fill="#FF7B54"/>
<path d="M722.713 686.361C710.8 686.477 699.066 683.474 688.672 677.648L250.719 411.345C237.062 403.425 228.156 391.546 225.781 377.686C224.692 371.108 225.086 364.369 226.936 357.963C228.785 351.557 232.041 345.646 236.468 340.661L449.435 90.5929C468.833 68.0204 506.635 62.2781 533.749 77.7217L971.305 344.026C984.962 351.946 993.869 363.826 996.244 377.686C997.332 384.264 996.938 391.002 995.089 397.408C993.24 403.814 989.983 409.725 985.556 414.71L772.986 664.779C760.912 678.837 741.913 686.361 722.713 686.361Z" fill="#D99773"/>
<path d="M721.534 666.306C709.62 666.423 697.886 663.419 687.492 657.594L249.54 391.291C235.882 383.371 226.976 371.492 224.601 357.631C223.512 351.053 223.906 344.315 225.756 337.909C227.605 331.503 230.862 325.591 235.288 320.606L448.255 70.5382C467.653 47.9657 505.455 42.2234 532.57 57.667L970.125 323.971C983.782 331.891 992.689 343.771 995.064 357.631C996.152 364.209 995.758 370.947 993.909 377.353C992.06 383.759 988.803 389.67 984.376 394.655L771.806 644.724C759.732 658.782 740.733 666.306 721.534 666.306Z" fill="#EEB98D"/>
<path d="M720.67 629.328C710.449 629.429 700.381 626.853 691.464 621.856L288.389 381.506C276.671 374.714 269.029 364.525 266.992 352.638C266.058 346.996 266.396 341.217 267.983 335.723C269.569 330.229 272.363 325.158 276.161 320.883L458.881 106.41C475.524 87.0504 507.957 82.1255 531.221 95.3709L933.955 335.722C945.672 342.514 953.314 352.704 955.352 364.591C956.286 370.233 955.947 376.011 954.361 381.505C952.774 386.999 949.98 392.069 946.182 396.344L763.803 610.819C753.443 622.876 737.143 629.328 720.67 629.328Z" fill="#EE4840"/>
<path d="M364.055 385.25L658.346 563.867L857.64 325.076L558.06 154.625L364.055 385.25Z" fill="#88C54D"/>
<path d="M497.682 438.191C496.46 437.392 495.509 436.471 494.829 435.428C494.149 434.386 493.768 433.324 493.686 432.243C493.616 431.145 493.843 430.123 494.367 429.175L498.61 431.951C498.343 432.469 498.311 433.01 498.516 433.575C498.72 434.139 499.115 434.612 499.701 434.996C500.237 435.346 500.712 435.514 501.128 435.499C501.572 435.479 501.903 435.301 502.122 434.966C502.385 434.565 502.367 434.135 502.07 433.677C501.783 433.203 501.247 432.542 500.463 431.694C499.612 430.803 498.934 430.012 498.429 429.323C497.935 428.618 497.626 427.83 497.502 426.96C497.389 426.073 497.645 425.153 498.269 424.199C498.795 423.396 499.488 422.81 500.351 422.442C501.241 422.068 502.238 421.968 503.344 422.142C504.466 422.326 505.621 422.808 506.809 423.585C508.566 424.735 509.662 426.073 510.097 427.601C510.548 429.139 510.378 430.677 509.587 432.215L505.621 429.619C505.872 429.09 505.906 428.563 505.724 428.038C505.559 427.523 505.183 427.074 504.597 426.691C504.095 426.362 503.645 426.211 503.246 426.237C502.857 426.246 502.554 426.417 502.335 426.752C502.072 427.154 502.084 427.592 502.371 428.066C502.675 428.552 503.213 429.191 503.985 429.983C504.847 430.93 505.517 431.751 505.995 432.445C506.483 433.123 506.778 433.914 506.88 434.818C507.01 435.715 506.766 436.655 506.147 437.636C505.611 438.456 504.895 439.039 503.999 439.385C503.131 439.726 502.141 439.795 501.03 439.594C499.936 439.404 498.82 438.936 497.682 438.191ZM524.048 444.832C523.785 445.234 523.486 445.636 523.151 446.038L513.436 439.681C512.934 440.595 512.772 441.445 512.95 442.231C513.157 443.012 513.62 443.637 514.339 444.108C515.41 444.809 516.451 444.844 517.461 444.215L522.029 447.204C521.193 447.971 520.224 448.52 519.123 448.852C518.039 449.194 516.899 449.273 515.705 449.089C514.511 448.905 513.345 448.441 512.207 447.696C510.834 446.798 509.804 445.706 509.117 444.419C508.429 443.133 508.14 441.748 508.249 440.266C508.358 438.784 508.889 437.315 509.842 435.859C510.795 434.403 511.92 433.323 513.217 432.618C514.532 431.925 515.916 431.636 517.37 431.751C518.825 431.866 520.246 432.378 521.635 433.287C522.991 434.174 524.01 435.247 524.692 436.506C525.374 437.765 525.663 439.113 525.559 440.55C525.471 441.999 524.967 443.426 524.048 444.832ZM520.394 440.828C520.876 440.091 521.008 439.341 520.79 438.578C520.573 437.814 520.088 437.186 519.335 436.693C518.615 436.222 517.867 436.032 517.092 436.122C516.333 436.222 515.643 436.619 515.022 437.312L520.394 440.828ZM536.201 442.818C537.188 443.464 537.919 444.228 538.392 445.112C538.882 446.006 539.115 446.911 539.089 447.827L540.387 445.844L544.68 448.653L535.53 462.635C534.687 463.924 533.666 464.917 532.469 465.615C531.277 466.341 529.951 466.669 528.491 466.598C527.049 466.538 525.549 465.999 523.993 464.981C521.917 463.623 520.559 462.028 519.916 460.198C519.263 458.384 519.391 456.58 520.302 454.786L524.545 457.562C524.328 458.185 524.372 458.812 524.677 459.441C524.971 460.088 525.487 460.652 526.223 461.134C527.11 461.714 527.983 461.915 528.841 461.736C529.705 461.584 530.504 460.948 531.237 459.826L532.535 457.843C531.69 458.222 530.762 458.38 529.752 458.316C528.753 458.236 527.759 457.873 526.772 457.227C525.617 456.471 524.763 455.494 524.209 454.295C523.666 453.079 523.474 451.747 523.634 450.298C523.821 448.843 524.386 447.395 525.327 445.956C526.269 444.517 527.364 443.429 528.611 442.691C529.875 441.965 531.167 441.615 532.488 441.643C533.808 441.67 535.046 442.062 536.201 442.818ZM535.804 452.848C536.505 451.776 536.757 450.734 536.559 449.721C536.379 448.718 535.862 447.938 535.008 447.379C534.155 446.821 533.224 446.654 532.217 446.879C531.237 447.098 530.396 447.743 529.695 448.814C528.994 449.885 528.729 450.931 528.898 451.95C529.096 452.963 529.621 453.749 530.475 454.308C531.328 454.866 532.25 455.028 533.241 454.792C534.249 454.567 535.103 453.919 535.804 452.848ZM561.617 459.736L552.451 473.743L548.158 470.934L549.407 469.027C548.567 469.361 547.644 469.474 546.639 469.367C545.662 469.253 544.721 468.9 543.817 468.309C542.746 467.608 541.954 466.755 541.441 465.75C540.938 464.728 540.757 463.617 540.896 462.418C541.036 461.219 541.505 460.008 542.305 458.786L547.66 450.603L551.927 453.395L546.95 461.001C546.337 461.939 546.103 462.825 546.249 463.662C546.395 464.498 546.878 465.185 547.698 465.721C548.535 466.269 549.365 466.442 550.19 466.241C551.015 466.04 551.734 465.47 552.347 464.533L557.324 456.927L561.617 459.736ZM567.465 466.897C568.471 466.456 569.493 466.264 570.531 466.321C571.58 466.362 572.564 466.684 573.485 467.286L570.512 471.83L569.332 471.058C568.261 470.357 567.304 470.066 566.462 470.184C565.631 470.285 564.837 470.913 564.082 472.068L559.827 478.57L555.534 475.761L564.7 461.753L568.993 464.562L567.465 466.897ZM572.517 487.16C571.145 486.262 570.098 485.159 569.376 483.851C568.672 482.553 568.358 481.152 568.433 479.648C568.526 478.155 569.049 476.681 570.001 475.225C570.943 473.786 572.088 472.73 573.436 472.058C574.795 471.37 576.218 471.094 577.706 471.231C579.193 471.368 580.623 471.886 581.996 472.784C583.368 473.682 584.415 474.785 585.136 476.094C585.857 477.402 586.175 478.817 586.088 480.337C586.012 481.841 585.503 483.313 584.561 484.752C583.62 486.191 582.461 487.25 581.086 487.927C579.738 488.599 578.312 488.861 576.807 488.713C575.319 488.576 573.889 488.058 572.517 487.16ZM574.948 483.445C575.768 483.982 576.66 484.135 577.623 483.905C578.603 483.685 579.46 483.015 580.193 481.894C580.927 480.773 581.207 479.725 581.032 478.75C580.874 477.786 580.385 477.036 579.565 476.499C578.728 475.952 577.836 475.798 576.89 476.039C575.954 476.264 575.114 476.945 574.369 478.083C573.636 479.204 573.34 480.241 573.481 481.194C573.639 482.158 574.128 482.908 574.948 483.445Z" fill="#ECFAFF"/>
<path d="M644.522 237.379C643.3 236.579 642.349 235.658 641.669 234.616C640.989 233.573 640.608 232.512 640.527 231.431C640.456 230.333 640.683 229.31 641.208 228.363L645.45 231.139C645.183 231.657 645.151 232.198 645.356 232.762C645.561 233.326 645.956 233.8 646.541 234.183C647.077 234.533 647.553 234.701 647.969 234.687C648.412 234.666 648.743 234.489 648.962 234.154C649.225 233.752 649.208 233.323 648.91 232.865C648.623 232.39 648.087 231.729 647.304 230.881C646.453 229.99 645.775 229.2 645.27 228.511C644.775 227.805 644.466 227.017 644.342 226.147C644.229 225.261 644.485 224.341 645.109 223.387C645.635 222.583 646.329 221.998 647.191 221.63C648.081 221.256 649.079 221.156 650.184 221.329C651.306 221.514 652.461 221.995 653.649 222.773C655.407 223.922 656.503 225.261 656.937 226.788C657.389 228.327 657.219 229.865 656.428 231.402L652.461 228.807C652.712 228.278 652.746 227.751 652.564 227.225C652.399 226.711 652.023 226.262 651.438 225.879C650.936 225.55 650.485 225.399 650.086 225.424C649.698 225.433 649.394 225.605 649.175 225.94C648.912 226.341 648.924 226.779 649.211 227.254C649.515 227.739 650.053 228.378 650.825 229.17C651.688 230.117 652.358 230.938 652.835 231.633C653.323 232.311 653.619 233.102 653.721 234.005C653.85 234.903 653.606 235.842 652.988 236.824C652.451 237.644 651.735 238.227 650.839 238.573C649.971 238.913 648.982 238.983 647.871 238.781C646.776 238.591 645.66 238.124 644.522 237.379ZM670.888 244.02C670.625 244.421 670.326 244.823 669.991 245.225L660.276 238.868C659.774 239.782 659.612 240.633 659.791 241.419C659.997 242.199 660.46 242.825 661.18 243.296C662.251 243.996 663.291 244.032 664.301 243.402L668.87 246.392C668.033 247.159 667.064 247.708 665.963 248.039C664.879 248.381 663.74 248.46 662.545 248.276C661.351 248.092 660.185 247.628 659.047 246.884C657.675 245.986 656.645 244.893 655.957 243.607C655.269 242.32 654.98 240.936 655.089 239.454C655.199 237.972 655.73 236.503 656.682 235.047C657.635 233.591 658.76 232.51 660.058 231.806C661.372 231.112 662.756 230.823 664.211 230.938C665.665 231.053 667.087 231.565 668.476 232.474C669.831 233.361 670.85 234.434 671.532 235.693C672.214 236.952 672.503 238.3 672.399 239.738C672.311 241.187 671.808 242.614 670.888 244.02ZM667.234 240.015C667.716 239.279 667.848 238.529 667.631 237.765C667.413 237.002 666.928 236.373 666.175 235.881C665.456 235.41 664.708 235.219 663.932 235.309C663.173 235.41 662.483 235.807 661.862 236.5L667.234 240.015ZM683.041 242.005C684.028 242.651 684.759 243.416 685.232 244.299C685.723 245.194 685.955 246.099 685.93 247.014L687.227 245.031L691.52 247.84L682.37 261.823C681.527 263.111 680.507 264.105 679.309 264.803C678.117 265.529 676.791 265.856 675.332 265.785C673.889 265.726 672.389 265.187 670.833 264.168C668.758 262.81 667.399 261.216 666.756 259.385C666.103 257.571 666.232 255.768 667.143 253.974L671.385 256.75C671.169 257.373 671.213 257.999 671.518 258.629C671.812 259.275 672.327 259.84 673.063 260.321C673.95 260.902 674.823 261.102 675.681 260.923C676.545 260.771 677.344 260.135 678.078 259.014L679.375 257.031C678.53 257.41 677.602 257.567 676.592 257.504C675.593 257.424 674.6 257.06 673.612 256.414C672.457 255.659 671.603 254.681 671.049 253.482C670.506 252.267 670.315 250.934 670.474 249.485C670.661 248.03 671.226 246.583 672.168 245.144C673.109 243.704 674.204 242.616 675.451 241.879C676.715 241.152 678.008 240.803 679.328 240.83C680.649 240.858 681.886 241.249 683.041 242.005ZM682.644 252.035C683.345 250.964 683.597 249.922 683.4 248.908C683.219 247.906 682.702 247.125 681.849 246.567C680.995 246.008 680.064 245.842 679.057 246.066C678.077 246.286 677.236 246.931 676.536 248.002C675.835 249.073 675.569 250.118 675.739 251.137C675.936 252.151 676.461 252.937 677.315 253.495C678.168 254.054 679.091 254.215 680.082 253.979C681.089 253.754 681.943 253.106 682.644 252.035ZM708.457 258.923L699.291 272.931L694.999 270.122L696.247 268.214C695.407 268.549 694.484 268.662 693.479 268.554C692.502 268.44 691.562 268.088 690.658 267.496C689.587 266.796 688.794 265.943 688.281 264.937C687.779 263.915 687.597 262.805 687.737 261.605C687.876 260.406 688.346 259.196 689.145 257.974L694.5 249.79L698.768 252.583L693.79 260.189C693.177 261.126 692.943 262.013 693.089 262.849C693.235 263.686 693.718 264.372 694.538 264.909C695.375 265.456 696.206 265.629 697.03 265.428C697.855 265.227 698.574 264.658 699.188 263.721L704.165 256.114L708.457 258.923ZM714.306 266.084C715.312 265.643 716.333 265.451 717.371 265.509C718.42 265.55 719.405 265.872 720.325 266.474L717.352 271.018L716.172 270.245C715.101 269.545 714.144 269.253 713.302 269.371C712.471 269.473 711.678 270.101 710.922 271.256L706.667 277.757L702.375 274.948L711.541 260.941L715.833 263.75L714.306 266.084ZM719.357 286.348C717.985 285.45 716.938 284.347 716.217 283.038C715.512 281.741 715.198 280.34 715.274 278.836C715.366 277.343 715.889 275.868 716.842 274.412C717.784 272.973 718.928 271.918 720.276 271.246C721.635 270.558 723.058 270.282 724.546 270.419C726.034 270.556 727.464 271.073 728.836 271.971C730.208 272.869 731.255 273.973 731.976 275.281C732.698 276.59 733.015 278.004 732.928 279.525C732.852 281.029 732.343 282.5 731.402 283.94C730.46 285.379 729.301 286.437 727.926 287.115C726.578 287.786 725.152 288.048 723.647 287.9C722.16 287.763 720.729 287.246 719.357 286.348ZM721.788 282.633C722.608 283.169 723.5 283.322 724.463 283.092C725.443 282.873 726.3 282.203 727.034 281.081C727.767 279.96 728.047 278.912 727.872 277.937C727.714 276.973 727.225 276.223 726.405 275.687C725.568 275.139 724.677 274.986 723.73 275.227C722.795 275.451 721.954 276.133 721.21 277.271C720.476 278.392 720.18 279.429 720.321 280.382C720.479 281.346 720.968 282.096 721.788 282.633Z" fill="#ECFAFF"/>
<path d="M388.087 295.87C387.815 294.984 387.78 294.05 387.982 293.069C388.185 292.087 388.667 291.146 389.43 290.245C390.321 289.192 391.396 288.464 392.654 288.062C393.912 287.659 395.244 287.634 396.65 287.986C398.068 288.322 399.434 289.046 400.746 290.158C402.059 291.269 403.006 292.503 403.587 293.86C404.165 295.188 404.367 296.513 404.193 297.833C404.004 299.14 403.463 300.32 402.571 301.373C401.822 302.258 400.973 302.889 400.025 303.266C399.09 303.627 398.171 303.753 397.268 303.644L405.144 310.313L401.828 314.228L382.963 298.253L386.278 294.338L388.087 295.87ZM397.373 294.141C396.396 293.314 395.401 292.943 394.386 293.027C393.369 293.083 392.524 293.508 391.852 294.301C391.193 295.08 390.913 295.983 391.013 297.011C391.125 298.023 391.67 298.943 392.647 299.77C393.623 300.597 394.62 300.983 395.637 300.927C396.667 300.855 397.512 300.43 398.171 299.652C398.83 298.874 399.11 297.971 399.011 296.943C398.896 295.902 398.35 294.968 397.373 294.141ZM412.5 275.906C412.866 276.216 413.228 276.562 413.586 276.944L406.084 285.804C406.929 286.415 407.753 286.68 408.555 286.6C409.355 286.491 410.033 286.108 410.588 285.452C411.416 284.475 411.579 283.447 411.078 282.367L414.606 278.2C415.264 279.125 415.69 280.154 415.884 281.287C416.09 282.405 416.029 283.546 415.699 284.708C415.37 285.871 414.766 286.971 413.887 288.009C412.827 289.261 411.617 290.149 410.255 290.673C408.894 291.198 407.485 291.315 406.027 291.024C404.57 290.733 403.177 290.026 401.849 288.901C400.522 287.777 399.588 286.528 399.048 285.153C398.521 283.764 398.404 282.355 398.697 280.925C398.99 279.496 399.673 278.148 400.746 276.881C401.792 275.645 402.982 274.766 404.316 274.244C405.649 273.721 407.022 273.6 408.436 273.88C409.863 274.145 411.218 274.82 412.5 275.906ZM408.077 279.04C407.405 278.471 406.677 278.248 405.893 278.37C405.108 278.492 404.425 278.896 403.843 279.583C403.288 280.239 403.007 280.958 403.001 281.739C403.007 282.505 403.317 283.238 403.928 283.94L408.077 279.04ZM407.215 261.163L424.157 275.509L420.842 279.424L403.9 265.078L407.215 261.163ZM414.124 258.761C413.542 259.448 412.866 259.844 412.094 259.951C411.32 260.029 410.635 259.817 410.04 259.312C409.43 258.795 409.107 258.155 409.072 257.392C409.035 256.6 409.307 255.861 409.888 255.174C410.457 254.503 411.128 254.128 411.902 254.049C412.674 253.943 413.365 254.148 413.975 254.665C414.571 255.169 414.887 255.817 414.924 256.608C414.959 257.372 414.692 258.089 414.124 258.761ZM417.1 257.939L429.875 268.757L426.56 272.672L413.784 261.854L417.1 257.939ZM423.429 250.093C424.191 249.193 425.04 248.562 425.975 248.2C426.923 247.824 427.849 247.704 428.755 247.842L426.946 246.31L430.261 242.395L443.014 253.194C444.189 254.189 445.049 255.324 445.595 256.598C446.169 257.87 446.331 259.226 446.082 260.666C445.845 262.09 445.126 263.512 443.924 264.932C442.321 266.824 440.572 267.977 438.676 268.39C436.796 268.816 435.022 268.466 433.353 267.342L436.629 263.472C437.221 263.764 437.848 263.797 438.511 263.572C439.188 263.359 439.812 262.917 440.38 262.246C441.065 261.437 441.372 260.595 441.299 259.722C441.255 258.845 440.721 257.974 439.699 257.109L437.89 255.577C438.162 256.463 438.205 257.403 438.018 258.397C437.815 259.379 437.333 260.32 436.57 261.221C435.678 262.274 434.604 263.002 433.346 263.404C432.072 263.794 430.726 263.82 429.308 263.484C427.887 263.119 426.52 262.381 425.208 261.27C423.895 260.158 422.949 258.938 422.371 257.61C421.805 256.266 421.617 254.941 421.807 253.634C421.996 252.326 422.537 251.146 423.429 250.093ZM433.334 251.719C432.357 250.892 431.354 250.514 430.324 250.585C429.307 250.641 428.468 251.059 427.809 251.837C427.15 252.615 426.87 253.518 426.97 254.546C427.067 255.546 427.604 256.459 428.581 257.286C429.558 258.113 430.562 258.505 431.595 258.462C432.625 258.391 433.469 257.966 434.128 257.188C434.787 256.409 435.061 255.514 434.948 254.501C434.849 253.474 434.311 252.546 433.334 251.719ZM438.104 237.451C437.79 236.399 437.725 235.361 437.909 234.338C438.079 233.302 438.519 232.365 439.23 231.525L443.374 235.034L442.463 236.11C441.636 237.087 441.229 238.001 441.243 238.851C441.241 239.688 441.767 240.553 442.82 241.445L448.75 246.466L445.435 250.381L432.66 239.563L435.975 235.648L438.104 237.451ZM458.834 234.928C457.775 236.179 456.551 237.082 455.164 237.637C453.79 238.177 452.361 238.317 450.878 238.057C449.407 237.782 448.008 237.082 446.68 235.957C445.368 234.846 444.461 233.58 443.96 232.16C443.444 230.727 443.345 229.281 443.664 227.821C443.982 226.361 444.672 225.006 445.732 223.754C446.791 222.502 448.015 221.599 449.402 221.044C450.789 220.489 452.232 220.348 453.731 220.621C455.214 220.881 456.612 221.567 457.924 222.678C459.237 223.79 460.145 225.07 460.648 226.518C461.149 227.938 461.234 229.386 460.902 230.861C460.583 232.32 459.894 233.676 458.834 234.928ZM455.446 232.058C456.079 231.31 456.341 230.444 456.231 229.46C456.134 228.461 455.574 227.528 454.551 226.662C453.529 225.796 452.523 225.39 451.534 225.444C450.558 225.482 449.753 225.875 449.12 226.623C448.474 227.386 448.212 228.252 448.335 229.221C448.443 230.177 449.016 231.095 450.054 231.974C451.076 232.84 452.069 233.261 453.032 233.238C454.008 233.199 454.813 232.806 455.446 232.058ZM470.655 220.968C469.711 222.082 468.68 222.913 467.562 223.46C466.444 224.007 465.343 224.254 464.26 224.202C463.162 224.137 462.175 223.786 461.299 223.149L464.576 219.28C465.057 219.609 465.59 219.707 466.175 219.573C466.76 219.439 467.279 219.105 467.731 218.571C468.145 218.083 468.37 217.631 468.406 217.217C468.44 216.774 468.305 216.423 468 216.165C467.633 215.855 467.205 215.819 466.714 216.059C466.207 216.285 465.486 216.735 464.548 217.409C463.559 218.144 462.692 218.72 461.946 219.137C461.184 219.54 460.365 219.75 459.486 219.766C458.592 219.77 457.71 219.403 456.84 218.666C456.108 218.046 455.612 217.285 455.353 216.384C455.091 215.455 455.114 214.453 455.422 213.377C455.743 212.286 456.363 211.199 457.28 210.115C458.637 208.513 460.101 207.589 461.67 207.346C463.252 207.087 464.757 207.444 466.186 208.418L463.123 212.036C462.629 211.722 462.11 211.623 461.566 211.739C461.035 211.84 460.543 212.157 460.091 212.692C459.703 213.15 459.498 213.578 459.474 213.977C459.435 214.364 459.568 214.686 459.874 214.945C460.24 215.255 460.676 215.297 461.182 215.07C461.702 214.829 462.402 214.373 463.283 213.704C464.328 212.964 465.225 212.4 465.973 212.012C466.706 211.611 467.527 211.415 468.437 211.424C469.343 211.406 470.246 211.764 471.144 212.498C471.892 213.132 472.382 213.914 472.616 214.845C472.847 215.749 472.794 216.739 472.458 217.817C472.135 218.88 471.533 219.93 470.655 220.968ZM481.988 207.584C480.928 208.835 479.705 209.738 478.318 210.293C476.943 210.833 475.515 210.973 474.031 210.713C472.561 210.438 471.162 209.738 469.834 208.613C468.521 207.502 467.615 206.236 467.114 204.816C466.597 203.383 466.499 201.937 466.818 200.477C467.136 199.017 467.826 197.662 468.885 196.41C469.945 195.158 471.169 194.255 472.556 193.7C473.943 193.145 475.386 193.004 476.884 193.277C478.368 193.537 479.766 194.223 481.078 195.334C482.391 196.446 483.299 197.726 483.802 199.174C484.303 200.594 484.388 202.042 484.056 203.517C483.737 204.976 483.048 206.332 481.988 207.584ZM478.6 204.714C479.233 203.966 479.495 203.1 479.385 202.116C479.287 201.117 478.728 200.184 477.705 199.318C476.682 198.452 475.677 198.046 474.688 198.1C473.712 198.138 472.907 198.531 472.274 199.279C471.628 200.042 471.366 200.908 471.489 201.877C471.597 202.833 472.169 203.751 473.207 204.63C474.23 205.496 475.223 205.917 476.186 205.894C477.162 205.855 477.966 205.462 478.6 204.714Z" fill="#ECFAFF"/>
<path d="M839.826 409.771C840.098 410.657 840.133 411.59 839.931 412.572C839.728 413.554 839.246 414.495 838.483 415.395C837.592 416.449 836.517 417.176 835.259 417.579C834.001 417.981 832.669 418.007 831.263 417.655C829.845 417.318 828.479 416.595 827.166 415.483C825.854 414.372 824.907 413.137 824.326 411.781C823.748 410.452 823.545 409.128 823.72 407.808C823.909 406.501 824.45 405.321 825.342 404.268C826.091 403.382 826.94 402.751 827.888 402.375C828.823 402.013 829.742 401.887 830.645 401.997L822.769 395.328L826.084 391.413L844.95 407.387L841.635 411.302L839.826 409.771ZM830.54 411.499C831.516 412.327 832.512 412.698 833.527 412.614C834.544 412.558 835.389 412.133 836.061 411.339C836.72 410.561 837 409.658 836.9 408.63C836.788 407.618 836.243 406.698 835.266 405.871C834.289 405.044 833.293 404.658 832.275 404.714C831.245 404.785 830.401 405.21 829.742 405.989C829.083 406.767 828.803 407.67 828.902 408.698C829.017 409.738 829.563 410.672 830.54 411.499ZM815.413 429.735C815.047 429.425 814.685 429.079 814.327 428.697L821.829 419.836C820.984 419.225 820.16 418.96 819.358 419.041C818.558 419.15 817.88 419.533 817.324 420.189C816.497 421.166 816.334 422.194 816.835 423.273L813.307 427.44C812.648 426.516 812.222 425.487 812.029 424.353C811.823 423.235 811.884 422.095 812.214 420.932C812.543 419.77 813.147 418.669 814.026 417.632C815.085 416.38 816.296 415.492 817.657 414.967C819.019 414.443 820.428 414.326 821.886 414.617C823.343 414.907 824.736 415.615 826.063 416.739C827.391 417.864 828.325 419.113 828.865 420.487C829.392 421.877 829.509 423.286 829.216 424.715C828.923 426.144 828.24 427.493 827.167 428.759C826.12 429.996 824.93 430.875 823.597 431.397C822.264 431.919 820.89 432.04 819.477 431.76C818.05 431.496 816.695 430.82 815.413 429.735ZM819.836 426.6C820.508 427.169 821.236 427.393 822.02 427.271C822.805 427.149 823.488 426.744 824.069 426.058C824.625 425.401 824.906 424.683 824.912 423.902C824.906 423.136 824.596 422.402 823.985 421.701L819.836 426.6ZM820.698 444.478L803.756 430.132L807.071 426.217L824.013 440.563L820.698 444.478ZM813.789 446.88C814.371 446.193 815.047 445.796 815.819 445.69C816.593 445.611 817.278 445.824 817.873 446.328C818.483 446.845 818.806 447.485 818.841 448.249C818.878 449.04 818.606 449.78 818.025 450.466C817.456 451.138 816.785 451.513 816.011 451.591C815.239 451.698 814.548 451.493 813.937 450.976C813.342 450.472 813.026 449.824 812.989 449.032C812.954 448.269 813.22 447.551 813.789 446.88ZM810.813 447.702L798.038 436.884L801.353 432.969L814.128 443.787L810.813 447.702ZM804.484 455.547C803.722 456.448 802.873 457.079 801.938 457.44C800.99 457.817 800.063 457.936 799.158 457.799L800.967 459.33L797.652 463.245L784.899 452.447C783.724 451.452 782.863 450.317 782.318 449.043C781.744 447.771 781.582 446.415 781.831 444.975C782.068 443.55 782.787 442.128 783.989 440.709C785.592 438.816 787.341 437.664 789.236 437.251C791.117 436.825 792.891 437.175 794.56 438.299L791.284 442.168C790.692 441.877 790.065 441.844 789.402 442.069C788.724 442.281 788.101 442.723 787.532 443.395C786.848 444.204 786.541 445.045 786.614 445.919C786.658 446.795 787.192 447.666 788.214 448.532L790.023 450.064C789.751 449.178 789.708 448.238 789.895 447.243C790.098 446.261 790.58 445.32 791.343 444.42C792.234 443.367 793.309 442.639 794.567 442.236C795.84 441.847 797.186 441.82 798.605 442.157C800.026 442.521 801.393 443.259 802.705 444.371C804.018 445.482 804.964 446.702 805.542 448.031C806.108 449.375 806.296 450.7 806.106 452.007C805.917 453.314 805.376 454.494 804.484 455.547ZM794.579 453.921C795.556 454.749 796.559 455.127 797.589 455.055C798.606 454.999 799.444 454.582 800.104 453.804C800.763 453.025 801.043 452.122 800.943 451.095C800.846 450.095 800.309 449.182 799.332 448.355C798.355 447.527 797.351 447.135 796.318 447.178C795.288 447.25 794.444 447.675 793.785 448.453C793.125 449.231 792.852 450.127 792.964 451.139C793.064 452.167 793.602 453.094 794.579 453.921ZM789.809 468.19C790.123 469.242 790.188 470.28 790.003 471.303C789.834 472.338 789.394 473.276 788.683 474.116L784.539 470.607L785.45 469.531C786.277 468.554 786.684 467.64 786.67 466.79C786.672 465.952 786.146 465.088 785.093 464.196L779.163 459.175L782.478 455.26L795.253 466.078L791.938 469.993L789.809 468.19ZM769.078 470.713C770.138 469.462 771.362 468.558 772.749 468.003C774.123 467.463 775.552 467.324 777.035 467.584C778.506 467.859 779.905 468.559 781.233 469.683C782.545 470.795 783.452 472.061 783.953 473.481C784.469 474.914 784.568 476.36 784.249 477.82C783.93 479.279 783.241 480.635 782.181 481.887C781.121 483.138 779.898 484.042 778.511 484.597C777.124 485.152 775.681 485.293 774.182 485.02C772.699 484.76 771.301 484.074 769.988 482.962C768.676 481.851 767.768 480.571 767.265 479.123C766.764 477.703 766.679 476.255 767.011 474.78C767.329 473.32 768.019 471.965 769.078 470.713ZM772.467 473.582C771.834 474.33 771.572 475.196 771.682 476.18C771.779 477.18 772.339 478.113 773.362 478.979C774.384 479.844 775.39 480.251 776.379 480.197C777.355 480.159 778.16 479.765 778.793 479.017C779.439 478.254 779.701 477.388 779.578 476.419C779.47 475.463 778.897 474.546 777.859 473.667C776.837 472.801 775.844 472.38 774.881 472.403C773.905 472.441 773.1 472.834 772.467 473.582ZM757.258 484.672C758.202 483.558 759.233 482.728 760.351 482.181C761.469 481.634 762.57 481.386 763.652 481.439C764.751 481.504 765.738 481.854 766.613 482.491L763.337 486.36C762.856 486.031 762.323 485.934 761.738 486.068C761.153 486.201 760.634 486.535 760.182 487.069C759.768 487.558 759.543 488.009 759.507 488.424C759.472 488.867 759.608 489.217 759.913 489.476C760.279 489.786 760.708 489.821 761.199 489.582C761.705 489.355 762.427 488.905 763.365 488.231C764.354 487.497 765.221 486.921 765.967 486.504C766.728 486.1 767.548 485.89 768.427 485.874C769.321 485.871 770.202 486.238 771.072 486.975C771.805 487.595 772.301 488.356 772.56 489.256C772.822 490.185 772.798 491.188 772.49 492.264C772.169 493.354 771.55 494.442 770.632 495.525C769.275 497.128 767.812 498.051 766.243 498.295C764.661 498.554 763.156 498.196 761.727 497.222L764.79 493.605C765.284 493.919 765.803 494.018 766.347 493.901C766.878 493.801 767.369 493.483 767.822 492.949C768.209 492.491 768.415 492.062 768.439 491.663C768.478 491.277 768.345 490.954 768.039 490.696C767.673 490.386 767.237 490.344 766.73 490.57C766.211 490.812 765.511 491.267 764.63 491.937C763.584 492.676 762.688 493.24 761.939 493.629C761.206 494.03 760.385 494.226 759.476 494.216C758.57 494.235 757.667 493.877 756.769 493.142C756.021 492.509 755.531 491.727 755.297 490.795C755.066 489.892 755.119 488.901 755.455 487.823C755.778 486.761 756.379 485.71 757.258 484.672ZM745.925 498.057C746.984 496.806 748.208 495.902 749.595 495.347C750.969 494.807 752.398 494.668 753.881 494.928C755.352 495.203 756.751 495.903 758.079 497.027C759.391 498.139 760.298 499.405 760.799 500.825C761.315 502.258 761.414 503.704 761.095 505.164C760.777 506.623 760.087 507.979 759.027 509.231C757.968 510.482 756.744 511.386 755.357 511.941C753.97 512.496 752.527 512.637 751.028 512.364C749.545 512.104 748.147 511.418 746.835 510.306C745.522 509.195 744.614 507.915 744.111 506.467C743.61 505.047 743.525 503.599 743.857 502.124C744.176 500.664 744.865 499.309 745.925 498.057ZM749.313 500.926C748.68 501.674 748.418 502.54 748.528 503.524C748.625 504.524 749.185 505.457 750.208 506.323C751.23 507.188 752.236 507.595 753.225 507.541C754.201 507.503 755.006 507.109 755.639 506.361C756.285 505.598 756.547 504.732 756.424 503.763C756.316 502.807 755.743 501.89 754.705 501.011C753.683 500.145 752.69 499.724 751.727 499.747C750.751 499.785 749.946 500.178 749.313 500.926Z" fill="#ECFAFF"/>
<ellipse cx="87.429" cy="77.5598" rx="87.429" ry="77.5598" transform="matrix(0.990203 0.139636 0.139636 -0.990203 512.962 391.602)" fill="#ECFAFF"/>
<path d="M599.462 431.496C547.963 427.498 515.508 379.996 523.566 322.856L695.533 347.106C687.475 404.246 653.963 435.727 599.462 431.496Z" fill="#ECFAFF"/>
<path d="M687.26 347.997C691.385 349.632 695.181 351.99 698.431 354.939C701.682 357.888 704.323 361.368 706.204 365.182C708.085 368.996 709.17 373.068 709.396 377.167C709.621 381.266 708.984 385.31 707.52 389.069C706.056 392.828 703.794 396.229 700.863 399.077C697.931 401.924 694.389 404.163 690.437 405.666C686.485 407.168 682.202 407.905 677.831 407.834C673.46 407.762 669.087 406.884 664.962 405.25" stroke="#ECFAFF" stroke-width="15"/>
<ellipse cx="72.5" cy="64.3161" rx="72.5" ry="64.3161" transform="matrix(0.990203 0.139636 0.139636 -0.990203 529.962 380.375)" fill="url(#paint1_linear_422_5279)"/>
<path d="M587.223 67.3979H597.713V70.3218H583.168V67.3979L593.541 51.8391H583.246V48.9531H597.635V51.8391L587.223 67.3979Z" fill="#FF7B54"/>
<path d="M242.801 92.3715L247.761 102.532L254.114 106.487L252.915 108.413L246.767 104.586L235.243 104.513L236.57 102.383L245.514 102.456L241.523 94.4243L242.801 92.3715Z" fill="#7C2869"/>
<path d="M811.561 151.057L801.636 153.779L800.641 164.178L798.622 162.5L799.534 154.12L791.374 156.476L789.47 154.893L799.498 152.136L800.487 141.853L802.497 143.523L801.599 151.796L809.648 149.467L811.561 151.057Z" fill="#1EAD28"/>
<path d="M235.188 125.773L236.823 122.895L1046.92 583.096L1045.29 585.975L235.188 125.773Z" fill="#7C2869"/>
<path d="M210.385 109.859L246.797 119.358L237.154 136.053L210.385 109.859Z" fill="#7C2869"/>
<path d="M444.641 543.344L778.263 141.493L780.832 143.625L447.209 545.476L444.641 543.344Z" fill="#1EAD28"/>
<path d="M798.593 120.078L767.938 141.666L782.761 154.044L798.593 120.078Z" fill="#1EAD28"/>
<path d="M613.652 74.3594H616.963V337.712H613.652V74.3594Z" fill="#FF7B54"/>
<path d="M603.345 123.493C588.724 123.493 573.381 115.74 573.381 106.176C573.381 96.6122 591.002 88.8594 612.74 88.8594C634.476 88.8594 652.097 96.6122 652.097 106.176C652.097 115.74 635.9 123.493 621.066 123.493" stroke="#FF7B54" stroke-width="2.99996" stroke-miterlimit="1"/>
<path d="M281.467 155.998C275.115 166.276 263 173.695 256.276 169.541C249.552 165.386 251.757 149.63 261.2 134.348C270.643 119.065 283.749 110.044 290.473 114.199C297.196 118.354 295.608 133.11 289.164 143.539" stroke="#7C2869" stroke-width="2.99996" stroke-miterlimit="1"/>
<path d="M809.151 233.266L802.663 227.745L797.064 234.325L794.474 232.122L800.073 225.542L793.615 220.046L795.611 217.701L802.069 223.196L807.694 216.585L810.283 218.789L804.658 225.399L811.147 230.92L809.151 233.266Z" fill="#1EAD28"/>
<path d="M568.299 111.12L559.781 111.292L559.956 119.93L556.556 119.998L556.382 111.36L547.904 111.531L547.842 108.452L556.32 108.281L556.145 99.6027L559.544 99.5341L559.719 108.212L568.237 108.04L568.299 111.12Z" fill="#FF7B54"/>
<path d="M311.662 93.8008L306.768 100.775L313.84 105.738L311.887 108.521L304.815 103.558L299.944 110.499L297.422 108.73L302.294 101.789L295.189 96.8026L297.142 94.0195L304.247 99.0055L309.141 92.0316L311.662 93.8008Z" fill="#7C2869"/>
<path d="M709.273 148.442L707.321 150.825L694.973 140.714L696.925 138.331L709.273 148.442Z" fill="#1EAD28"/>
<path d="M675.936 108.304L675.967 111.383L660.008 111.543L659.977 108.463L675.936 108.304Z" fill="#FF7B54"/>
<path d="M252.308 176.515L254.801 178.324L245.425 191.24L242.933 189.43L252.308 176.515Z" fill="#7C2869"/>
<path d="M731.46 190.802C717.667 179.541 709.164 160.407 716.533 151.382C723.897 142.362 746.493 148.619 767 165.362C787.507 182.105 798.16 202.994 790.793 212.017C783.427 221.039 762.173 215.874 748.18 204.449" stroke="#1EAD28" stroke-width="2.99996" stroke-miterlimit="1"/>
<defs>
<linearGradient id="paint0_linear_422_5279" x1="640" y1="0" x2="640" y2="720" gradientUnits="userSpaceOnUse">
<stop stop-color="#ECFAFF"/>
<stop offset="1" stop-color="#FFE8AB"/>
</linearGradient>
<linearGradient id="paint1_linear_422_5279" x1="72.5" y1="128.632" x2="72.5" y2="0" gradientUnits="userSpaceOnUse">
<stop stop-color="#653F3F"/>
<stop offset="1" stop-color="#5D2727"/>
</linearGradient>
</defs>
</svg>
