<svg xmlns="http://www.w3.org/2000/svg" width="1280" height="720" xmlns:v="https://vecta.io/nano"><style><![CDATA[.B{clip-path:none}.C{fill:none}.D{fill:#1ead28}.E{stroke-miterlimit:10}.F{fill:#ff7b54}.G{stroke-width:0}]]></style><defs><clipPath ><path d="M0 0h708.12v398.41H0z" class="C G"/></clipPath><clipPath ><path d="M-15.64-14.17h737.95v426.75H-15.64z" class="C G"/></clipPath><clipPath ><path d="M348.92 212.07c9.4 2 22.98 1.14 38.17-7.37l4.87 11.03c-5.98 8.16-28.93 17.46-46.29 13h0c-1.46 7.54-3.83 16.5-7.66 25.59l.2.35-30.39-4.09 2.19-6.5a1.26 1.26 0 0 0 .03-.1h0c2.11-6.05 4.35-11.98 6.69-17.83 0 0-9.88 2.67-29.46 20.13l-7.42-9.02s19.84-30.25 53.18-33.49l15.89 8.28z" class="C G"/></clipPath><linearGradient id="D" gradientTransform="matrix(0,-806.80334,806.12884,0,-1260786.8,1066227.1)" x1="1320.58" y1="1564.8" x2="1321.65" y2="1564.8" gradientUnits="userSpaceOnUse" spreadMethod="pad"><stop offset="0" stop-color="#1f5e96"/><stop offset="1" stop-color="#3291ff"/></linearGradient><clipPath id="E"><path d="M0 0h532v299H0z"/></clipPath></defs><path d="M0 0h1279.999v720H0z" fill="url(#D)" class="B"/><g class="D"><path d="M262.906 99.163l16.597-16.613 37.623 37.645-16.609 16.613zM45.922 120.599l37.613-37.645 16.597 16.613-37.613 37.652zm108.995-72.166h53.195V71.93h-53.195z" class="B"/><path d="M138.169 20.478h86.691v27.955h-86.691z" class="B"/></g><path d="M318.083 203.517c0 75.494-61.137 136.682-136.57 136.682-75.421 0-136.558-61.188-136.558-136.682 0-75.487 61.156-136.675 136.558-136.675 75.414 0 136.57 61.188 136.57 136.675" fill="#a184dc" class="B"/><path d="M289.052 202.688c0 59.437-48.149 107.617-107.539 107.617-59.378 0-107.527-48.18-107.527-107.617s48.149-107.62 107.527-107.62c59.39 0 107.539 48.18 107.539 107.62" fill="#fff" class="B"/><path d="M181.513 95.069v21.853m0 171.514v21.86m107.539-107.608h-21.861m-171.354 0H73.986m183.571-76.108l-15.442 15.464M120.942 263.323l-15.451 15.455m-.001-152.198l15.451 15.464m121.175 121.279l15.442 15.455" class="B C E" stroke="#ff7b54" stroke-width="9.026" stroke-linecap="round"/><path d="M189.927 214.353c-5.649 5.729-14.869 5.784-20.574.113-5.714-5.654-5.772-14.882-.103-20.591 5.647-5.719 52.49-32.414 52.49-32.414s-26.146 47.173-31.795 52.892" class="B D"/><path d="M0 610.943h1280M0 507.256h1279.999M0 403.571h1279.999" class="B C E" stroke="#ffc93c" stroke-width="25.223"/><g class="F"><path d="M968.356 422.279l3.231 4.411a10.43 10.43 0 0 1-2.254 14.571l-15.49 11.363-15.536-21.222 15.5-11.361c4.641-3.398 11.157-2.398 14.566 2.237m-271.145 98.289l4.078 3.631a10.42 10.42 0 0 0 14.71-.848l12.771-14.364-19.633-17.497-12.771 14.354a10.44 10.44 0 0 0 .845 14.723" class="B"/><path d="M864.992 430.859c30.318 5.567 59.388-14.516 64.962-44.859 5.563-30.336-14.503-59.449-44.822-65.017-30.321-5.56-59.409 14.523-64.962 44.859-5.555 30.344 14.511 59.457 44.822 65.017" class="B"/></g><path d="M853.515 478.521c39.521 10.167 91.777-11.034 105.405-29.631l-11.099-25.142c-34.579 19.377-65.489 21.342-86.91 16.798l-36.174-18.879c-75.903 7.385-121.071 76.325-121.071 76.325l16.907 20.572c44.579-39.79 67.058-45.875 67.058-45.875-5.32 13.328-10.433 26.835-15.225 40.616 0 0-.036.152-.075.217-8.373 24.042-15.827 48.876-21.871 74.911l-53.919 13.302-1.119 36.402s56.88-3.265 69.635-10.234c9.294-5.079 17.143-13.283 24.727-21.588 5.065-4.871 9.756-9.998 14.126-15.293 11.982 12.763 21.693 22.048 21.926 21.906-2.687 32.292 5.847 48.999 10.846 76.558l33.186-2.136.95-87.479-34.757-63.03c8.722-20.733 14.116-41.127 17.453-58.32" fill="#a184dc" class="B"/><path d="M842.454 445.343l-4.692-2.793c-4.942-2.943-6.568-9.358-3.609-14.287l9.831-16.509 22.576 13.471-9.831 16.507c-2.942 4.948-9.352 6.576-14.275 3.612" class="B F"/><g stroke="#000" stroke-width="2.275" class="C E"><path d="M919.541 409.61c2.603 1.531 5.957.686 7.509-1.919a5.51 5.51 0 0 0-1.908-7.515m28.364 31.501c2.218 1.317 5.084.573 6.4-1.647a4.67 4.67 0 0 0-1.636-6.405" class="B"/><path d="M960.291 429.522c-2.801 2.456-3.072 6.726-.601 9.519 2.454 2.803 6.72 3.077 9.511.602m-55.141-23.902l-11.08-5.755" class="B"/></g><path d="M929.699 363.152c-3.532-15.729-13.815-29.828-29.341-37.654-27.52-13.865-61.082-2.784-74.935 24.757-2.423 4.806-4.03 9.81-4.981 14.833z" class="B"/><path d="M866.618 360.395c0-13.752-5.235-26.226-13.75-35.687-16.476 7.166-29.221 22.142-32.698 41.17-3.017 16.471 1.569 32.547 11.183 44.739 20.535-7.441 35.246-27.073 35.246-50.203m57.273 22.171a7.04 7.04 0 0 1-7.038 7.046c-3.893 0-7.03-3.142-7.03-7.046 0-3.894 3.157-7.046 7.03-7.046 3.881 0 7.038 3.152 7.038 7.046" class="B"/><g class="F"><path d="M507.99 307.635c2.238 3.056 1.569 7.337-1.485 9.557l-6.908 5.059-8.084-11.043 6.908-5.069c3.056-2.239 7.331-1.572 9.549 1.476M367.257 358.55c2.81 2.512 7.141 2.259 9.651-.563l5.705-6.386-10.216-9.107-5.705 6.408a6.86 6.86 0 0 0 .565 9.668" class="B"/><path d="M454.682 308.415c17.34 3.179 33.966-8.305 37.161-25.65 3.166-17.355-8.308-33.984-25.629-37.185-17.34-3.179-33.958 8.308-37.154 25.662-3.176 17.364 8.298 33.994 25.622 37.192" class="B"/></g><g stroke="#000" stroke-width="1.191" class="C E"><path d="M485.883 296.262c1.477.884 3.412.395 4.295-1.1a3.13 3.13 0 0 0-1.1-4.298m10.339 20.516c1.157.686 2.651.301 3.337-.857a2.44 2.44 0 0 0-.847-3.34" class="B"/><path d="M502.952 310.26a3.51 3.51 0 0 0-.301 4.946 3.5 3.5 0 0 0 4.944.301m-24.849-15.746l-6.335-3.282" class="B"/></g><path d="M491.691 269.689c-2.019-8.992-7.904-17.063-16.775-21.521-15.743-7.93-34.945-1.592-42.858 14.157-1.391 2.745-2.312 5.596-2.856 8.483l62.489-1.1z" class="B"/><path d="M455.62 268.1c0-7.855-2.998-14.985-7.848-20.403-9.417 4.101-16.71 12.661-18.692 23.546-1.74 9.435.902 18.624 6.4 25.576 11.749-4.262 20.16-15.474 20.16-28.718m32.717 12.697a4.03 4.03 0 0 1-4.023 4.026 4.03 4.03 0 0 1-4.023-4.026 4.03 4.03 0 0 1 4.023-4.024 4.03 4.03 0 0 1 4.023 4.024" class="B"/><path d="M393.853 392.884l-28.044 6.913-.573 18.927s29.577-1.693 36.194-5.324c4.822-2.644 8.919-6.904 12.848-11.221 2.639-2.521 5.094-5.194 7.348-7.939 6.222 6.641 12.518 16.122 12.473 15.98 3.354 8.654 14.284 28.86 18.909 34.842l15.949-6.668-12.528-39.554-17.838-32.34-35.967-4.843c-3.299 10.092-6.28 20.459-8.77 31.247" fill="#1e5c93" class="B"/><path d="M447.426 335.742c20.555 5.286 47.716-5.748 54.802-15.409l-5.77-13.056c-17.971 10.075-34.05 11.091-45.187 8.722l-18.798-9.803c-39.463 3.848-62.941 39.677-62.941 39.677l8.787 10.694c23.168-20.685 34.861-23.864 34.861-23.864-2.774 6.923-5.433 13.959-7.923 21.118 0 0-.019.065-.029.104l-2.603 7.694 35.967 4.845-.236-.414c4.531-10.79 7.341-21.39 9.071-30.327" class="B D"/><path d="M440.479 317.766c-3.241-1.929-4.314-6.114-2.358-9.37l4.379-7.364 11.749 7.007-4.379 7.364a6.81 6.81 0 0 1-9.371 2.362" class="B F"/><path d="M365.255 418.621c1.061-4.59.808-18.84.808-18.84l-10.697-1.158-3.289 30.647s10.94-1.026 13.178-10.648zm104.963 18.982c-4.615.92-17.482 7.034-17.482 7.034l3.373 10.227 29.25-9.661s-5.452-9.538-15.141-7.6z" class="B"/><g class="F"><path d="M716.062 370.273c3.393 4.635 2.406 11.173-2.235 14.569l-10.536 7.732-12.304-16.808 10.536-7.732c4.634-3.395 11.166-2.408 14.559 2.239m-214.569 77.601c4.297 3.829 10.875 3.453 14.701-.845l8.683-9.755-15.555-13.875-8.683 9.774a10.44 10.44 0 0 0 .854 14.72" class="B"/><path d="M633.872 371.73c26.437 4.864 51.787-12.661 56.625-39.111 4.851-26.459-12.651-51.838-39.088-56.673-26.437-4.864-51.785 12.661-56.626 39.111-4.851 26.459 12.651 51.838 39.088 56.673" class="B"/><path d="M613.159 385.708c-4.944-2.945-6.571-9.35-3.609-14.28l6.691-11.241 17.903 10.677-6.701 11.231c-2.94 4.956-9.343 6.574-14.284 3.612" class="B"/></g><g stroke="#000" stroke-width="1.805" class="C E"><path d="M681.439 353.19c2.274 1.336 5.197.592 6.532-1.683s.592-5.201-1.684-6.538m16.729 31.013c1.769 1.043 4.042.46 5.096-1.308a3.71 3.71 0 0 0-1.307-5.091" class="B"/><path d="M708.394 374.28c-2.218 1.946-2.416 5.324-.462 7.552 1.947 2.22 5.32 2.418 7.519.472m-38.797-23.754l-9.67-5.04" class="B"/></g><path d="M690.281 312.677c-3.092-13.726-12.057-26.009-25.59-32.838-23.995-12.096-53.252-2.437-65.34 21.588-2.112 4.185-3.522 8.541-4.35 12.934l95.264-1.702z" class="B"/><path d="M635.302 310.279c0-11.975-4.569-22.869-11.984-31.126-14.369 6.254-25.477 19.31-28.514 35.884-2.632 14.364 1.352 28.398 9.764 38.998 17.915-6.49 30.734-23.608 30.734-43.776m49.905 19.378c0 3.395-2.745 6.14-6.138 6.14s-6.128-2.745-6.128-6.14a6.13 6.13 0 0 1 6.128-6.143c3.392 0 6.138 2.745 6.138 6.143" class="B"/><path d="M542.078 500.229l-42.736 10.545-.883 28.87s45.074-2.605 55.187-8.11c7.36-4.017 13.582-10.535 19.597-17.109 4.023-3.867 7.735-7.93 11.202-12.115 9.492 10.131 17.201 17.485 17.379 17.374-2.134 25.593 4.634 38.846 8.609 60.68l26.288-1.676.76-69.351-27.2-49.328-54.831-7.383c-5.036 15.387-9.566 31.21-13.392 47.643" fill="#34c3ff" class="B"/><path d="M623.769 413.109c31.324 8.05 72.734-8.758 83.544-23.478l-8.789-19.924c-27.404 15.37-51.898 16.924-68.872 13.312l-28.675-14.947c-60.17 5.849-95.966 60.482-95.966 60.482l13.411 16.29c35.327-31.538 53.158-36.354 53.158-36.354-4.22 10.562-8.262 21.268-12.069 32.198l-.058.159-3.955 11.739 54.84 7.385-.359-.631c6.91-16.432 11.186-32.593 13.818-46.212" fill="#7c2869" class="B"/><path d="M616.749 282.623l72.905 28.521c1.119 4.166 1.692 8.522 1.653 12.982l-84.595-33.084a48.57 48.57 0 0 1 10.038-8.399" class="B D"/><path d="M622.227 264.938c0-7.224 5.856-13.073 13.074-13.073s13.065 5.849 13.065 13.073a13.07 13.07 0 0 1-13.065 13.076c-7.218 0-13.074-5.851-13.074-13.076m14.494 313.694c-6.532-.799-26.288 1.674-26.288 1.674v15.069h43.072s-3.053-15.069-16.784-16.743zm-136.965-41.558c1.213-6.48 0-26.365 0-26.365l-15.009-.958-2.745 43.034s15.216-2.09 17.754-15.691z" class="B"/><path d="M769.569 521.545c-6.025 18.597-14.523 47.041-19.128 66.878l-53.919 13.292-1.119 36.402s56.881-3.263 69.635-10.234c9.294-5.079 17.143-13.273 24.727-21.588 5.067-4.871 9.756-9.998 14.126-15.293 11.984 12.772 21.693 22.048 21.926 21.906-2.688 32.294 5.847 48.999 10.846 76.558l33.186-2.134.95-87.481-34.748-63.03-66.502-15.296z" class="B D"/><path d="M809.99 444.592a5.65 5.65 0 0 1-5.647 5.654 5.65 5.65 0 0 1-5.649-5.654c0-3.123 2.529-5.654 5.649-5.654a5.65 5.65 0 0 1 5.647 5.654zm19.597 33.929a5.65 5.65 0 0 1-5.649 5.652 5.653 5.653 0 1 1 0-11.306 5.65 5.65 0 0 1 5.649 5.654zm-27.339 28.735c0 3.123-2.529 5.654-5.649 5.654a5.66 5.66 0 0 1-5.649-5.654c0-3.123 2.538-5.652 5.649-5.652a5.65 5.65 0 0 1 5.649 5.652zm36.22 3.537a5.65 5.65 0 0 1-5.647 5.654 5.65 5.65 0 0 1-5.649-5.654c0-3.123 2.529-5.654 5.649-5.654a5.65 5.65 0 0 1 5.647 5.654zm43.289-52.533a5.65 5.65 0 0 1-5.647 5.652 5.65 5.65 0 0 1-5.649-5.652c0-3.123 2.529-5.654 5.649-5.654a5.65 5.65 0 0 1 5.647 5.654zm51.703-8.014a5.65 5.65 0 0 1-5.649 5.652 5.65 5.65 0 0 1-5.649-5.652c0-3.123 2.529-5.654 5.649-5.654s5.649 2.531 5.649 5.654zm-168.47 15.377c0 3.123-2.536 5.654-5.647 5.654a5.65 5.65 0 0 1-5.649-5.654c0-3.114 2.529-5.652 5.649-5.652a5.66 5.66 0 0 1 5.647 5.652zm-26.766 25.887a5.65 5.65 0 0 1-5.647 5.654 5.65 5.65 0 1 1 0-11.306 5.65 5.65 0 0 1 5.647 5.652z" class="B" fill="#fff"/><path d="M817.499 410.361c3.967-2.418 6.402-6.405 7.021-10.668.123-.958.181-1.917.123-2.878a16.13 16.13 0 0 0-.431-2.887c-.358-1.43-.941-2.832-1.749-4.159-4.314-7.053-13.515-9.293-20.574-4.975-10.789 9.406-14.792 18.925-17.867 28.453 9.87 1.628 20.16 2.427 33.46-2.887M696.345 636.189c2.238-8.455 2.565-34.897 2.565-34.897l-19.763-2.719-7.812 56.656s20.321-1.291 25.011-19.04zm175.14 50.71c-8.676-1.081-34.878 2.172-34.878 2.172l-.039 19.97 57.153.113s-4.004-19.979-22.217-22.255z" class="B"/><path clip-path="url(#E)" d="M255.018 186.926l-22.318-4.34-.153.422-.024.066-.558 1.654 22.241 4.328.343-.853.468-1.276zm2.027-6.154l-22.129-4.303-.773 2.132 22.244 4.329.658-2.158zm-19.728-10.501l-.862 2.221 21.675 4.216.181-.719.332-1.464-21.216-4.129zm-24.049 3.345l-.658.77-.785.982 6.26 7.082.051-.045 1.671-1.393zm4.735-5.041l-1.587 1.591 7.025 7.948 1.675-1.264.124-.089zm4.79-4.192l-1.013.816-.72.612 7.582 8.574.27-.183 1.638-1.045zm5.733-4.056l-.75.466-1.149.769 8.166 9.236 1.384-.645.772-.301zm5.812-3.166l-1.339.64-.743.392 8.314 9.405.8-.71 18.224 3.545.425-2.204-19.196-3.734zm23.323-.205l-7.001-3.647-1.78-.346-1.414.175-1.775.312 1.258 1.425.015-.013-.002.013zm31.673 8.876l.886-.571.988-.75-4.006-9.371-1.089.522-.954.407zm-5.788 2.998l.902-.372 1.144-.547-4.416-10.331-1.118.364-1.043.29zm-6.594 2.211l.38-.089 1.793-.525-4.776-11.171-1.757.239-.557.05zm-6.964 1.21l2.183-.245.142-.025-5.25-12.278-1.079-.05-1.441-.134zm-29.038-17.64l-.062.018-2.069.682-.181.069 4.711 5.327.032-.028-.009.045 16.096 3.132 3.583 8.381 1.249.111 1.264.06-4.202-9.83.119-.612-.415-.081-.002-.005-.007.003-16.52-3.216z" transform="matrix(2.406014 0 0 2.408027 .00085 0)" fill="#34c3ff"/></svg>