<?xml version="1.0" encoding="UTF-8" standalone="no"?>
<!DOCTYPE svg PUBLIC "-//W3C//DTD SVG 1.1//EN"
 "http://www.w3.org/Graphics/SVG/1.1/DTD/svg11.dtd">
<!-- Generated by graphviz version 14.1.2 (0)
 -->
<!-- Title: PDG_Protobject Pages: 1 -->
<svg width="841pt" height="731pt"
 viewBox="0.00 0.00 841.00 731.00" xmlns="http://www.w3.org/2000/svg" xmlns:xlink="http://www.w3.org/1999/xlink">
<g id="graph0" class="graph" transform="scale(1 1) rotate(0) translate(21.6 709.6)">
<title>PDG_Protobject</title>
<polygon fill="#fbf6eb" stroke="none" points="-21.6,21.6 -21.6,-709.6 819.51,-709.6 819.51,21.6 -21.6,21.6"/>
<g id="clust1" class="cluster">
<title>cluster_loop</title>
<path fill="#fbf6eb" stroke="#8b2418" stroke-width="1.8" stroke-dasharray="5,2" d="M161.52,-8C161.52,-8 442.52,-8 442.52,-8 448.52,-8 454.52,-14 454.52,-20 454.52,-20 454.52,-668 454.52,-668 454.52,-674 448.52,-680 442.52,-680 442.52,-680 161.52,-680 161.52,-680 155.52,-680 149.52,-674 149.52,-668 149.52,-668 149.52,-20 149.52,-20 149.52,-14 155.52,-8 161.52,-8"/>
<text xml:space="preserve" text-anchor="start" x="183.39" y="-666.55" font-family="Arial" font-weight="bold" font-size="11.00">loop</text>
<text xml:space="preserve" text-anchor="start" x="157.52" y="-657.45" font-family="Arial" font-size="9.00" fill="#8b2418">alcance de control</text>
</g>
<!-- n1 -->
<g id="node1" class="node">
<title>n1</title>
<path fill="#34495e" stroke="#1a1612" stroke-width="1.5" d="M119.04,-634C119.04,-634 12,-634 12,-634 6,-634 0,-628 0,-622 0,-622 0,-610 0,-610 0,-604 6,-598 12,-598 12,-598 119.04,-598 119.04,-598 125.04,-598 131.04,-604 131.04,-610 131.04,-610 131.04,-622 131.04,-622 131.04,-628 125.04,-634 119.04,-634"/>
<text xml:space="preserve" text-anchor="middle" x="65.52" y="-612.3" font-family="Arial" font-size="11.00" fill="#fbf6eb">1 &#160;&#160;ProgramStartEvent</text>
</g>
<!-- n2 -->
<g id="node2" class="node">
<title>n2</title>
<path fill="#8b2418" stroke="#1a1612" stroke-width="1.5" d="M119.29,-557C119.29,-557 49.75,-557 49.75,-557 43.75,-557 37.75,-551 37.75,-545 37.75,-545 37.75,-533 37.75,-533 37.75,-527 43.75,-521 49.75,-521 49.75,-521 119.29,-521 119.29,-521 125.29,-521 131.29,-527 131.29,-533 131.29,-533 131.29,-545 131.29,-545 131.29,-551 125.29,-557 119.29,-557"/>
<text xml:space="preserve" text-anchor="middle" x="84.52" y="-535.3" font-family="Arial" font-size="11.00" fill="#fbf6eb">2 &#160;&#160;SetVariable</text>
</g>
<!-- n1&#45;&gt;n2 -->
<g id="edge1" class="edge">
<title>n1&#45;&gt;n2</title>
<path fill="none" stroke="#8b2418" stroke-width="2" d="M69.93,-597.6C72,-589.43 74.53,-579.44 76.9,-570.09"/>
<polygon fill="#8b2418" stroke="#8b2418" stroke-width="2" points="80.26,-571.05 79.33,-560.49 73.48,-569.33 80.26,-571.05"/>
</g>
<!-- n3 -->
<g id="node3" class="node">
<title>n3</title>
<path fill="#8b2418" stroke="#1a1612" stroke-width="1.5" d="M119.29,-315C119.29,-315 49.75,-315 49.75,-315 43.75,-315 37.75,-309 37.75,-303 37.75,-303 37.75,-291 37.75,-291 37.75,-285 43.75,-279 49.75,-279 49.75,-279 119.29,-279 119.29,-279 125.29,-279 131.29,-285 131.29,-291 131.29,-291 131.29,-303 131.29,-303 131.29,-309 125.29,-315 119.29,-315"/>
<text xml:space="preserve" text-anchor="middle" x="84.52" y="-293.3" font-family="Arial" font-size="11.00" fill="#fbf6eb">3 &#160;&#160;SetVariable</text>
</g>
<!-- n2&#45;&gt;n3 -->
<g id="edge2" class="edge">
<title>n2&#45;&gt;n3</title>
<path fill="none" stroke="#8b2418" stroke-width="2" d="M84.52,-520.35C84.52,-479.78 84.52,-379.47 84.52,-328.62"/>
<polygon fill="#8b2418" stroke="#8b2418" stroke-width="2" points="88.02,-328.7 84.52,-318.7 81.02,-328.7 88.02,-328.7"/>
</g>
<!-- n12 -->
<g id="node12" class="node">
<title>n12</title>
<path fill="#4a3f33" stroke="#1a1612" stroke-width="1.5" d="M227.41,-469C227.41,-469 179.62,-469 179.62,-469 173.62,-469 167.62,-463 167.62,-457 167.62,-457 167.62,-445 167.62,-445 167.62,-439 173.62,-433 179.62,-433 179.62,-433 227.41,-433 227.41,-433 233.41,-433 239.41,-439 239.41,-445 239.41,-445 239.41,-457 239.41,-457 239.41,-463 233.41,-469 227.41,-469"/>
<text xml:space="preserve" text-anchor="middle" x="203.52" y="-447.3" font-family="Arial" font-size="11.00" fill="#fbf6eb">12 &#160;&#160;Delay</text>
</g>
<!-- n2&#45;&gt;n12 -->
<g id="edge3" class="edge">
<title>n2&#45;&gt;n12</title>
<path fill="none" stroke="#4a3f33" stroke-width="1.3" d="M103.97,-520.46C115.08,-510.76 129.46,-498.74 143.02,-489 149.33,-484.46 156.22,-479.91 163,-475.63"/>
<polygon fill="#4a3f33" stroke="#4a3f33" stroke-width="1.3" points="164.45,-478.85 171.12,-470.62 160.77,-472.89 164.45,-478.85"/>
<text xml:space="preserve" text-anchor="middle" x="172.27" y="-491.5" font-family="Arial" font-size="10.00" fill="#8b2418"> latidogrande </text>
</g>
<!-- n15 -->
<g id="node15" class="node">
<title>n15</title>
<path fill="#4a3f33" stroke="#1a1612" stroke-width="1.5" d="M323.41,-227C323.41,-227 275.62,-227 275.62,-227 269.62,-227 263.62,-221 263.62,-215 263.62,-215 263.62,-203 263.62,-203 263.62,-197 269.62,-191 275.62,-191 275.62,-191 323.41,-191 323.41,-191 329.41,-191 335.41,-197 335.41,-203 335.41,-203 335.41,-215 335.41,-215 335.41,-221 329.41,-227 323.41,-227"/>
<text xml:space="preserve" text-anchor="middle" x="299.52" y="-205.3" font-family="Arial" font-size="11.00" fill="#fbf6eb">15 &#160;&#160;Delay</text>
</g>
<!-- n3&#45;&gt;n15 -->
<g id="edge4" class="edge">
<title>n3&#45;&gt;n15</title>
<path fill="none" stroke="#4a3f33" stroke-width="1.3" d="M127.5,-278.25C150.34,-268.87 178.92,-257.21 204.52,-247 220,-240.83 236.94,-234.19 252.18,-228.26"/>
<polygon fill="#4a3f33" stroke="#4a3f33" stroke-width="1.3" points="253.03,-231.69 261.09,-224.81 250.5,-225.16 253.03,-231.69"/>
<text xml:space="preserve" text-anchor="middle" x="237.52" y="-249.5" font-family="Arial" font-size="10.00" fill="#8b2418"> latidopequeño </text>
</g>
<!-- n17 -->
<g id="node17" class="node">
<title>n17</title>
<path fill="#4a3f33" stroke="#1a1612" stroke-width="1.5" d="M413.41,-62C413.41,-62 365.62,-62 365.62,-62 359.62,-62 353.62,-56 353.62,-50 353.62,-50 353.62,-38 353.62,-38 353.62,-32 359.62,-26 365.62,-26 365.62,-26 413.41,-26 413.41,-26 419.41,-26 425.41,-32 425.41,-38 425.41,-38 425.41,-50 425.41,-50 425.41,-56 419.41,-62 413.41,-62"/>
<text xml:space="preserve" text-anchor="middle" x="389.52" y="-40.3" font-family="Arial" font-size="11.00" fill="#fbf6eb">17 &#160;&#160;Delay</text>
</g>
<!-- n3&#45;&gt;n17 -->
<g id="edge5" class="edge">
<title>n3&#45;&gt;n17</title>
<path fill="none" stroke="#4a3f33" stroke-width="1.3" d="M97.26,-278.44C124.57,-241.78 192.26,-156.13 265.52,-103 288.86,-86.08 317.91,-72.17 342.03,-62.22"/>
<polygon fill="#4a3f33" stroke="#4a3f33" stroke-width="1.3" points="343.27,-65.49 351.25,-58.53 340.67,-59 343.27,-65.49"/>
<text xml:space="preserve" text-anchor="middle" x="233.06" y="-161.5" font-family="Arial" font-size="10.00" fill="#8b2418"> latidopequeño </text>
</g>
<!-- n4 -->
<g id="node4" class="node">
<title>n4</title>
<path fill="#fbf6eb" stroke="#1a1612" stroke-width="1.5" d="M606.91,-634C606.91,-634 484.12,-634 484.12,-634 478.12,-634 472.12,-628 472.12,-622 472.12,-622 472.12,-610 472.12,-610 472.12,-604 478.12,-598 484.12,-598 484.12,-598 606.91,-598 606.91,-598 612.91,-598 618.91,-604 618.91,-610 618.91,-610 618.91,-622 618.91,-622 618.91,-628 612.91,-634 606.91,-634"/>
<text xml:space="preserve" text-anchor="middle" x="545.52" y="-612.3" font-family="Arial" font-size="11.00" fill="#1a1612">4 &#160;&#160;OnTiltGestureEvent #1</text>
</g>
<!-- n5 -->
<g id="node5" class="node">
<title>n5</title>
<path fill="#8b2418" stroke="#1a1612" stroke-width="1.5" d="M554.29,-557C554.29,-557 484.75,-557 484.75,-557 478.75,-557 472.75,-551 472.75,-545 472.75,-545 472.75,-533 472.75,-533 472.75,-527 478.75,-521 484.75,-521 484.75,-521 554.29,-521 554.29,-521 560.29,-521 566.29,-527 566.29,-533 566.29,-533 566.29,-545 566.29,-545 566.29,-551 560.29,-557 554.29,-557"/>
<text xml:space="preserve" text-anchor="middle" x="519.52" y="-535.3" font-family="Arial" font-size="11.00" fill="#fbf6eb">5 &#160;&#160;SetVariable</text>
</g>
<!-- n4&#45;&gt;n5 -->
<g id="edge6" class="edge">
<title>n4&#45;&gt;n5</title>
<path fill="none" stroke="#8b2418" stroke-width="2" d="M539.49,-597.6C536.62,-589.33 533.11,-579.21 529.84,-569.77"/>
<polygon fill="#8b2418" stroke="#8b2418" stroke-width="2" points="533.18,-568.72 526.6,-560.42 526.57,-571.02 533.18,-568.72"/>
</g>
<!-- n6 -->
<g id="node6" class="node">
<title>n6</title>
<path fill="#8b2418" stroke="#1a1612" stroke-width="1.5" d="M554.29,-315C554.29,-315 484.75,-315 484.75,-315 478.75,-315 472.75,-309 472.75,-303 472.75,-303 472.75,-291 472.75,-291 472.75,-285 478.75,-279 484.75,-279 484.75,-279 554.29,-279 554.29,-279 560.29,-279 566.29,-285 566.29,-291 566.29,-291 566.29,-303 566.29,-303 566.29,-309 560.29,-315 554.29,-315"/>
<text xml:space="preserve" text-anchor="middle" x="519.52" y="-293.3" font-family="Arial" font-size="11.00" fill="#fbf6eb">6 &#160;&#160;SetVariable</text>
</g>
<!-- n5&#45;&gt;n6 -->
<g id="edge7" class="edge">
<title>n5&#45;&gt;n6</title>
<path fill="none" stroke="#8b2418" stroke-width="2" d="M519.52,-520.35C519.52,-479.78 519.52,-379.47 519.52,-328.62"/>
<polygon fill="#8b2418" stroke="#8b2418" stroke-width="2" points="523.02,-328.7 519.52,-318.7 516.02,-328.7 523.02,-328.7"/>
</g>
<!-- n5&#45;&gt;n12 -->
<g id="edge8" class="edge">
<title>n5&#45;&gt;n12</title>
<path fill="none" stroke="#4a3f33" stroke-width="1.3" d="M472.28,-523.77C468.98,-522.82 465.7,-521.89 462.52,-521 374.48,-496.38 351.72,-493.02 263.52,-469 259.59,-467.93 255.51,-466.81 251.43,-465.67"/>
<polygon fill="#4a3f33" stroke="#4a3f33" stroke-width="1.3" points="252.44,-462.32 241.87,-462.99 250.55,-469.06 252.44,-462.32"/>
<text xml:space="preserve" text-anchor="middle" x="415.97" y="-491.5" font-family="Arial" font-size="10.00" fill="#8b2418"> latidogrande </text>
</g>
<!-- n6&#45;&gt;n15 -->
<g id="edge9" class="edge">
<title>n6&#45;&gt;n15</title>
<path fill="none" stroke="#4a3f33" stroke-width="1.3" d="M472.25,-281.89C468.96,-280.91 465.69,-279.94 462.52,-279 432.31,-270.05 423.76,-270.72 394.52,-259 376.29,-251.7 356.9,-242.06 340.42,-233.26"/>
<polygon fill="#4a3f33" stroke="#4a3f33" stroke-width="1.3" points="342.24,-230.27 331.79,-228.58 338.91,-236.42 342.24,-230.27"/>
<text xml:space="preserve" text-anchor="middle" x="427.52" y="-249.5" font-family="Arial" font-size="10.00" fill="#8b2418"> latidopequeño </text>
</g>
<!-- n6&#45;&gt;n17 -->
<g id="edge10" class="edge">
<title>n6&#45;&gt;n17</title>
<path fill="none" stroke="#4a3f33" stroke-width="1.3" d="M510.38,-278.35C488.14,-235.41 431.07,-125.23 404.08,-73.11"/>
<polygon fill="#4a3f33" stroke="#4a3f33" stroke-width="1.3" points="407.26,-71.65 399.56,-64.38 401.05,-74.87 407.26,-71.65"/>
<text xml:space="preserve" text-anchor="middle" x="487.52" y="-161.5" font-family="Arial" font-size="10.00" fill="#8b2418"> latidopequeño </text>
</g>
<!-- n7 -->
<g id="node7" class="node">
<title>n7</title>
<path fill="#fbf6eb" stroke="#1a1612" stroke-width="1.5" d="M785.91,-634C785.91,-634 663.12,-634 663.12,-634 657.12,-634 651.12,-628 651.12,-622 651.12,-622 651.12,-610 651.12,-610 651.12,-604 657.12,-598 663.12,-598 663.12,-598 785.91,-598 785.91,-598 791.91,-598 797.91,-604 797.91,-610 797.91,-610 797.91,-622 797.91,-622 797.91,-628 791.91,-634 785.91,-634"/>
<text xml:space="preserve" text-anchor="middle" x="724.52" y="-612.3" font-family="Arial" font-size="11.00" fill="#1a1612">7 &#160;&#160;OnTiltGestureEvent #1</text>
</g>
<!-- n8 -->
<g id="node8" class="node">
<title>n8</title>
<path fill="#8b2418" stroke="#1a1612" stroke-width="1.5" d="M689.29,-557C689.29,-557 619.75,-557 619.75,-557 613.75,-557 607.75,-551 607.75,-545 607.75,-545 607.75,-533 607.75,-533 607.75,-527 613.75,-521 619.75,-521 619.75,-521 689.29,-521 689.29,-521 695.29,-521 701.29,-527 701.29,-533 701.29,-533 701.29,-545 701.29,-545 701.29,-551 695.29,-557 689.29,-557"/>
<text xml:space="preserve" text-anchor="middle" x="654.52" y="-535.3" font-family="Arial" font-size="11.00" fill="#fbf6eb">8 &#160;&#160;SetVariable</text>
</g>
<!-- n7&#45;&gt;n8 -->
<g id="edge11" class="edge">
<title>n7&#45;&gt;n8</title>
<path fill="none" stroke="#8b2418" stroke-width="2" d="M708.28,-597.6C699.78,-588.49 689.17,-577.12 679.63,-566.9"/>
<polygon fill="#8b2418" stroke="#8b2418" stroke-width="2" points="682.36,-564.7 672.98,-559.77 677.24,-569.47 682.36,-564.7"/>
</g>
<!-- n9 -->
<g id="node9" class="node">
<title>n9</title>
<path fill="#8b2418" stroke="#1a1612" stroke-width="1.5" d="M680.29,-315C680.29,-315 610.75,-315 610.75,-315 604.75,-315 598.75,-309 598.75,-303 598.75,-303 598.75,-291 598.75,-291 598.75,-285 604.75,-279 610.75,-279 610.75,-279 680.29,-279 680.29,-279 686.29,-279 692.29,-285 692.29,-291 692.29,-291 692.29,-303 692.29,-303 692.29,-309 686.29,-315 680.29,-315"/>
<text xml:space="preserve" text-anchor="middle" x="645.52" y="-293.3" font-family="Arial" font-size="11.00" fill="#fbf6eb">9 &#160;&#160;SetVariable</text>
</g>
<!-- n8&#45;&gt;n9 -->
<g id="edge12" class="edge">
<title>n8&#45;&gt;n9</title>
<path fill="none" stroke="#8b2418" stroke-width="2" d="M653.86,-520.35C652.34,-479.78 648.58,-379.47 646.67,-328.62"/>
<polygon fill="#8b2418" stroke="#8b2418" stroke-width="2" points="650.17,-328.56 646.3,-318.7 643.17,-328.82 650.17,-328.56"/>
</g>
<!-- n8&#45;&gt;n12 -->
<g id="edge13" class="edge">
<title>n8&#45;&gt;n12</title>
<path fill="none" stroke="#4a3f33" stroke-width="1.3" d="M607.38,-524.61C566.89,-513.56 506.78,-498.25 453.52,-489 369.86,-474.47 346.9,-485.08 263.52,-469 259.57,-468.24 255.51,-467.34 251.45,-466.36"/>
<polygon fill="#4a3f33" stroke="#4a3f33" stroke-width="1.3" points="252.55,-463.03 241.99,-463.93 250.8,-469.81 252.55,-463.03"/>
<text xml:space="preserve" text-anchor="middle" x="538.46" y="-491.5" font-family="Arial" font-size="10.00" fill="#8b2418"> latidogrande </text>
</g>
<!-- n9&#45;&gt;n15 -->
<g id="edge14" class="edge">
<title>n9&#45;&gt;n15</title>
<path fill="none" stroke="#4a3f33" stroke-width="1.3" d="M598.11,-281.64C562.63,-271.2 512.8,-257.17 468.52,-247 420.52,-235.97 407.49,-238.17 359.52,-227 355.55,-226.08 351.45,-225.06 347.35,-223.99"/>
<polygon fill="#4a3f33" stroke="#4a3f33" stroke-width="1.3" points="348.33,-220.63 337.77,-221.41 346.51,-227.39 348.33,-220.63"/>
<text xml:space="preserve" text-anchor="middle" x="545.55" y="-249.5" font-family="Arial" font-size="10.00" fill="#8b2418"> latidopequeño </text>
</g>
<!-- n9&#45;&gt;n17 -->
<g id="edge15" class="edge">
<title>n9&#45;&gt;n17</title>
<path fill="none" stroke="#4a3f33" stroke-width="1.3" d="M632.03,-278.27C611.16,-251.28 569.17,-198.85 528.52,-159 494.58,-125.73 451.83,-91.7 422.77,-69.59"/>
<polygon fill="#4a3f33" stroke="#4a3f33" stroke-width="1.3" points="425.13,-66.99 415.04,-63.75 420.91,-72.57 425.13,-66.99"/>
<text xml:space="preserve" text-anchor="middle" x="573.41" y="-161.5" font-family="Arial" font-size="10.00" fill="#8b2418"> latidopequeño </text>
</g>
<!-- n10 -->
<g id="node10" class="node">
<title>n10</title>
<path fill="#5a6b3b" stroke="#1a1612" stroke-width="1.5" d="M271.16,-634C271.16,-634 179.88,-634 179.88,-634 173.88,-634 167.88,-628 167.88,-622 167.88,-622 167.88,-610 167.88,-610 167.88,-604 173.88,-598 179.88,-598 179.88,-598 271.16,-598 271.16,-598 277.16,-598 283.16,-604 283.16,-610 283.16,-610 283.16,-622 283.16,-622 283.16,-628 277.16,-634 271.16,-634"/>
<text xml:space="preserve" text-anchor="middle" x="225.52" y="-612.3" font-family="Arial" font-size="11.00" fill="#fbf6eb">10 &#160;&#160;DrawImage #1</text>
</g>
<!-- n11 -->
<g id="node11" class="node">
<title>n11</title>
<path fill="#fbf6eb" stroke="#1a1612" stroke-width="1.5" d="M263.66,-557C263.66,-557 181.38,-557 181.38,-557 175.38,-557 169.38,-551 169.38,-545 169.38,-545 169.38,-533 169.38,-533 169.38,-527 175.38,-521 181.38,-521 181.38,-521 263.66,-521 263.66,-521 269.66,-521 275.66,-527 275.66,-533 275.66,-533 275.66,-545 275.66,-545 275.66,-551 269.66,-557 263.66,-557"/>
<text xml:space="preserve" text-anchor="middle" x="222.52" y="-535.3" font-family="Arial" font-size="11.00" fill="#1a1612">11 &#160;&#160;PlayDrum #1</text>
</g>
<!-- n10&#45;&gt;n11 -->
<g id="edge16" class="edge">
<title>n10&#45;&gt;n11</title>
<path fill="none" stroke="#8b2418" stroke-width="2" d="M224.82,-597.6C224.5,-589.52 224.11,-579.67 223.74,-570.42"/>
<polygon fill="#8b2418" stroke="#8b2418" stroke-width="2" points="227.24,-570.44 223.34,-560.59 220.25,-570.72 227.24,-570.44"/>
</g>
<!-- n14 -->
<g id="node14" class="node">
<title>n14</title>
<path fill="#5a6b3b" stroke="#1a1612" stroke-width="1.5" d="M307.16,-315C307.16,-315 215.88,-315 215.88,-315 209.88,-315 203.88,-309 203.88,-303 203.88,-303 203.88,-291 203.88,-291 203.88,-285 209.88,-279 215.88,-279 215.88,-279 307.16,-279 307.16,-279 313.16,-279 319.16,-285 319.16,-291 319.16,-291 319.16,-303 319.16,-303 319.16,-309 313.16,-315 307.16,-315"/>
<text xml:space="preserve" text-anchor="middle" x="261.52" y="-293.3" font-family="Arial" font-size="11.00" fill="#fbf6eb">14 &#160;&#160;DrawImage #1</text>
</g>
<!-- n10&#45;&gt;n14 -->
<g id="edge17" class="edge">
<title>n10&#45;&gt;n14</title>
<path fill="none" stroke="#5a6b3b" stroke-width="1.3" stroke-dasharray="5,2" d="M253.7,-597.49C267.44,-587.41 282.84,-573.46 291.52,-557 325.97,-491.66 307.07,-465.74 311.52,-392 312.48,-376.03 317.09,-371 311.52,-356 307.14,-344.22 299.19,-333.24 290.89,-324.06"/>
<polygon fill="#5a6b3b" stroke="#5a6b3b" stroke-width="1.3" points="293.44,-321.67 283.96,-316.94 288.42,-326.55 293.44,-321.67"/>
<text xml:space="preserve" text-anchor="middle" x="331.03" y="-447.5" font-family="Arial" font-size="10.00" fill="#5a6b3b"> display </text>
</g>
<!-- n11&#45;&gt;n12 -->
<g id="edge18" class="edge">
<title>n11&#45;&gt;n12</title>
<path fill="none" stroke="#8b2418" stroke-width="2" d="M216.8,-520.43C214.94,-514.32 212.99,-507.4 211.52,-501 210.12,-494.9 208.87,-488.31 207.8,-482.01"/>
<polygon fill="#8b2418" stroke="#8b2418" stroke-width="2" points="211.29,-481.66 206.27,-472.33 204.37,-482.75 211.29,-481.66"/>
</g>
<!-- n13 -->
<g id="node13" class="node">
<title>n13</title>
<path fill="#fbf6eb" stroke="#1a1612" stroke-width="1.5" d="M283.04,-392C283.04,-392 200,-392 200,-392 194,-392 188,-386 188,-380 188,-380 188,-368 188,-368 188,-362 194,-356 200,-356 200,-356 283.04,-356 283.04,-356 289.04,-356 295.04,-362 295.04,-368 295.04,-368 295.04,-380 295.04,-380 295.04,-386 289.04,-392 283.04,-392"/>
<text xml:space="preserve" text-anchor="middle" x="241.52" y="-370.3" font-family="Arial" font-size="11.00" fill="#1a1612">13 &#160;&#160;PlayDrum #1</text>
</g>
<!-- n11&#45;&gt;n13 -->
<g id="edge19" class="edge">
<title>n11&#45;&gt;n13</title>
<path fill="none" stroke="#5a6b3b" stroke-width="1.3" stroke-dasharray="5,2" d="M233.68,-520.36C241.51,-506.88 251.32,-487.52 255.52,-469 260.43,-447.35 256.31,-422.5 251.3,-403.79"/>
<polygon fill="#5a6b3b" stroke="#5a6b3b" stroke-width="1.3" points="254.71,-402.96 248.52,-394.36 247.99,-404.94 254.71,-402.96"/>
<text xml:space="preserve" text-anchor="middle" x="273.85" y="-447.5" font-family="Arial" font-size="10.00" fill="#5a6b3b"> sound </text>
</g>
<!-- n12&#45;&gt;n13 -->
<g id="edge20" class="edge">
<title>n12&#45;&gt;n13</title>
<path fill="none" stroke="#8b2418" stroke-width="2" d="M212.33,-432.6C216.62,-424.15 221.89,-413.75 226.76,-404.13"/>
<polygon fill="#8b2418" stroke="#8b2418" stroke-width="2" points="229.86,-405.76 231.25,-395.26 223.61,-402.6 229.86,-405.76"/>
</g>
<!-- n13&#45;&gt;n14 -->
<g id="edge21" class="edge">
<title>n13&#45;&gt;n14</title>
<path fill="none" stroke="#8b2418" stroke-width="2" d="M246.16,-355.6C248.34,-347.43 251,-337.44 253.5,-328.09"/>
<polygon fill="#8b2418" stroke="#8b2418" stroke-width="2" points="256.86,-329.05 256.06,-318.49 250.1,-327.25 256.86,-329.05"/>
</g>
<!-- n14&#45;&gt;n15 -->
<g id="edge22" class="edge">
<title>n14&#45;&gt;n15</title>
<path fill="none" stroke="#8b2418" stroke-width="2" d="M269.21,-278.6C274.17,-267.36 280.76,-252.47 286.52,-239.43"/>
<polygon fill="#8b2418" stroke="#8b2418" stroke-width="2" points="289.65,-241 290.49,-230.44 283.24,-238.17 289.65,-241"/>
</g>
<!-- n16 -->
<g id="node16" class="node">
<title>n16</title>
<path fill="#5a6b3b" stroke="#1a1612" stroke-width="1.5" d="M385.16,-139C385.16,-139 293.88,-139 293.88,-139 287.88,-139 281.88,-133 281.88,-127 281.88,-127 281.88,-115 281.88,-115 281.88,-109 287.88,-103 293.88,-103 293.88,-103 385.16,-103 385.16,-103 391.16,-103 397.16,-109 397.16,-115 397.16,-115 397.16,-127 397.16,-127 397.16,-133 391.16,-139 385.16,-139"/>
<text xml:space="preserve" text-anchor="middle" x="339.52" y="-117.3" font-family="Arial" font-size="11.00" fill="#fbf6eb">16 &#160;&#160;DrawImage #1</text>
</g>
<!-- n14&#45;&gt;n16 -->
<g id="edge23" class="edge">
<title>n14&#45;&gt;n16</title>
<path fill="none" stroke="#5a6b3b" stroke-width="1.3" stroke-dasharray="5,2" d="M298.16,-278.45C317.87,-266.85 340.37,-249.6 351.52,-227 363.23,-203.26 357.93,-172.93 351.07,-150.97"/>
<polygon fill="#5a6b3b" stroke="#5a6b3b" stroke-width="1.3" points="354.41,-149.91 347.84,-141.59 347.79,-152.19 354.41,-149.91"/>
<text xml:space="preserve" text-anchor="middle" x="376.8" y="-205.5" font-family="Arial" font-size="10.00" fill="#5a6b3b"> display </text>
</g>
<!-- n15&#45;&gt;n16 -->
<g id="edge24" class="edge">
<title>n15&#45;&gt;n16</title>
<path fill="none" stroke="#8b2418" stroke-width="2" d="M307.61,-190.6C312.84,-179.36 319.77,-164.47 325.83,-151.43"/>
<polygon fill="#8b2418" stroke="#8b2418" stroke-width="2" points="328.98,-152.96 330.02,-142.42 322.63,-150.01 328.98,-152.96"/>
</g>
<!-- n16&#45;&gt;n17 -->
<g id="edge25" class="edge">
<title>n16&#45;&gt;n17</title>
<path fill="none" stroke="#8b2418" stroke-width="2" d="M351.12,-102.6C356.94,-93.86 364.15,-83.06 370.74,-73.17"/>
<polygon fill="#8b2418" stroke="#8b2418" stroke-width="2" points="373.5,-75.34 376.13,-65.08 367.67,-71.46 373.5,-75.34"/>
</g>
</g>
</svg>
