<?xml version="1.0" encoding="UTF-8" standalone="no"?>
<!DOCTYPE svg PUBLIC "-//W3C//DTD SVG 1.1//EN"
 "http://www.w3.org/Graphics/SVG/1.1/DTD/svg11.dtd">
<!-- Generated by graphviz version 14.1.2 (0)
 -->
<!-- Title: PDG_MakeCode Pages: 1 -->
<svg width="1148pt" height="788pt"
 viewBox="0.00 0.00 1148.00 788.00" xmlns="http://www.w3.org/2000/svg" xmlns:xlink="http://www.w3.org/1999/xlink">
<g id="graph0" class="graph" transform="scale(1 1) rotate(0) translate(21.6 766.6)">
<title>PDG_MakeCode</title>
<polygon fill="#fbf6eb" stroke="none" points="-21.6,21.6 -21.6,-766.6 1126.6,-766.6 1126.6,21.6 -21.6,21.6"/>
<g id="clust1" class="cluster">
<title>cluster_loop</title>
<path fill="#fbf6eb" stroke="#8b2418" stroke-width="1.8" stroke-dasharray="5,2" d="M261,-8C261,-8 542,-8 542,-8 548,-8 554,-14 554,-20 554,-20 554,-668 554,-668 554,-674 548,-680 542,-680 542,-680 261,-680 261,-680 255,-680 249,-674 249,-668 249,-668 249,-20 249,-20 249,-14 255,-8 261,-8"/>
<text xml:space="preserve" text-anchor="start" x="282.88" y="-666.55" font-family="Arial" font-weight="bold" font-size="11.00">loop</text>
<text xml:space="preserve" text-anchor="start" x="257" y="-657.45" font-family="Arial" font-size="9.00" fill="#8b2418">alcance de control</text>
</g>
<!-- n1 -->
<g id="node1" class="node">
<title>n1</title>
<path fill="#34495e" stroke="#1a1612" stroke-width="1.5" d="M881.52,-745C881.52,-745 774.48,-745 774.48,-745 768.48,-745 762.48,-739 762.48,-733 762.48,-733 762.48,-721 762.48,-721 762.48,-715 768.48,-709 774.48,-709 774.48,-709 881.52,-709 881.52,-709 887.52,-709 893.52,-715 893.52,-721 893.52,-721 893.52,-733 893.52,-733 893.52,-739 887.52,-745 881.52,-745"/>
<text xml:space="preserve" text-anchor="middle" x="828" y="-723.3" font-family="Arial" font-size="11.00" fill="#fbf6eb">1 &#160;&#160;ProgramStartEvent</text>
</g>
<!-- n2 -->
<g id="node2" class="node">
<title>n2</title>
<path fill="#8b2418" stroke="#1a1612" stroke-width="1.5" d="M865.77,-634C865.77,-634 796.23,-634 796.23,-634 790.23,-634 784.23,-628 784.23,-622 784.23,-622 784.23,-610 784.23,-610 784.23,-604 790.23,-598 796.23,-598 796.23,-598 865.77,-598 865.77,-598 871.77,-598 877.77,-604 877.77,-610 877.77,-610 877.77,-622 877.77,-622 877.77,-628 871.77,-634 865.77,-634"/>
<text xml:space="preserve" text-anchor="middle" x="831" y="-612.3" font-family="Arial" font-size="11.00" fill="#fbf6eb">2 &#160;&#160;SetVariable</text>
</g>
<!-- n1&#45;&gt;n2 -->
<g id="edge1" class="edge">
<title>n1&#45;&gt;n2</title>
<path fill="none" stroke="#8b2418" stroke-width="2" d="M828.48,-708.49C828.93,-692.04 829.62,-667.08 830.16,-647.39"/>
<polygon fill="#8b2418" stroke="#8b2418" stroke-width="2" points="833.66,-647.59 830.44,-637.5 826.66,-647.4 833.66,-647.59"/>
</g>
<!-- n3 -->
<g id="node3" class="node">
<title>n3</title>
<path fill="#8b2418" stroke="#1a1612" stroke-width="1.5" d="M653.77,-557C653.77,-557 584.23,-557 584.23,-557 578.23,-557 572.23,-551 572.23,-545 572.23,-545 572.23,-533 572.23,-533 572.23,-527 578.23,-521 584.23,-521 584.23,-521 653.77,-521 653.77,-521 659.77,-521 665.77,-527 665.77,-533 665.77,-533 665.77,-545 665.77,-545 665.77,-551 659.77,-557 653.77,-557"/>
<text xml:space="preserve" text-anchor="middle" x="619" y="-535.3" font-family="Arial" font-size="11.00" fill="#fbf6eb">3 &#160;&#160;SetVariable</text>
</g>
<!-- n2&#45;&gt;n3 -->
<g id="edge2" class="edge">
<title>n2&#45;&gt;n3</title>
<path fill="none" stroke="#8b2418" stroke-width="2" d="M783.69,-598.26C752.49,-587.23 711.4,-572.69 678.07,-560.9"/>
<polygon fill="#8b2418" stroke="#8b2418" stroke-width="2" points="679.62,-557.73 669.02,-557.7 677.28,-564.33 679.62,-557.73"/>
</g>
<!-- n15 -->
<g id="node15" class="node">
<title>n15</title>
<path fill="#4a3f33" stroke="#1a1612" stroke-width="1.5" d="M422.89,-216C422.89,-216 375.11,-216 375.11,-216 369.11,-216 363.11,-210 363.11,-204 363.11,-204 363.11,-192 363.11,-192 363.11,-186 369.11,-180 375.11,-180 375.11,-180 422.89,-180 422.89,-180 428.89,-180 434.89,-186 434.89,-192 434.89,-192 434.89,-204 434.89,-204 434.89,-210 428.89,-216 422.89,-216"/>
<text xml:space="preserve" text-anchor="middle" x="399" y="-194.3" font-family="Arial" font-size="11.00" fill="#fbf6eb">15 &#160;&#160;Delay</text>
</g>
<!-- n2&#45;&gt;n15 -->
<g id="edge3" class="edge">
<title>n2&#45;&gt;n15</title>
<path fill="none" stroke="#4a3f33" stroke-width="1.3" d="M830.1,-597.37C828.35,-577.41 823.19,-544.59 808,-521 714.19,-375.25 531.37,-267.15 445.57,-222.1"/>
<polygon fill="#4a3f33" stroke="#4a3f33" stroke-width="1.3" points="447.34,-219.08 436.85,-217.57 444.12,-225.29 447.34,-219.08"/>
<text xml:space="preserve" text-anchor="middle" x="750.38" y="-403.5" font-family="Arial" font-size="10.00" fill="#8b2418"> latidopequeño </text>
</g>
<!-- n17 -->
<g id="node17" class="node">
<title>n17</title>
<path fill="#4a3f33" stroke="#1a1612" stroke-width="1.5" d="M516.89,-62C516.89,-62 469.11,-62 469.11,-62 463.11,-62 457.11,-56 457.11,-50 457.11,-50 457.11,-38 457.11,-38 457.11,-32 463.11,-26 469.11,-26 469.11,-26 516.89,-26 516.89,-26 522.89,-26 528.89,-32 528.89,-38 528.89,-38 528.89,-50 528.89,-50 528.89,-56 522.89,-62 516.89,-62"/>
<text xml:space="preserve" text-anchor="middle" x="493" y="-40.3" font-family="Arial" font-size="11.00" fill="#fbf6eb">17 &#160;&#160;Delay</text>
</g>
<!-- n2&#45;&gt;n17 -->
<g id="edge4" class="edge">
<title>n2&#45;&gt;n17</title>
<path fill="none" stroke="#4a3f33" stroke-width="1.3" d="M844.09,-597.49C872.23,-558.03 936,-458.24 936,-364 936,-364 936,-364 936,-120 936,-80.35 656.51,-56.37 541.52,-48.18"/>
<polygon fill="#4a3f33" stroke="#4a3f33" stroke-width="1.3" points="541.81,-44.69 531.59,-47.49 541.32,-51.68 541.81,-44.69"/>
<text xml:space="preserve" text-anchor="middle" x="969" y="-315.5" font-family="Arial" font-size="10.00" fill="#8b2418"> latidopequeño </text>
</g>
<!-- n12 -->
<g id="node12" class="node">
<title>n12</title>
<path fill="#4a3f33" stroke="#1a1612" stroke-width="1.5" d="M326.89,-469C326.89,-469 279.11,-469 279.11,-469 273.11,-469 267.11,-463 267.11,-457 267.11,-457 267.11,-445 267.11,-445 267.11,-439 273.11,-433 279.11,-433 279.11,-433 326.89,-433 326.89,-433 332.89,-433 338.89,-439 338.89,-445 338.89,-445 338.89,-457 338.89,-457 338.89,-463 332.89,-469 326.89,-469"/>
<text xml:space="preserve" text-anchor="middle" x="303" y="-447.3" font-family="Arial" font-size="11.00" fill="#fbf6eb">12 &#160;&#160;Delay</text>
</g>
<!-- n3&#45;&gt;n12 -->
<g id="edge5" class="edge">
<title>n3&#45;&gt;n12</title>
<path fill="none" stroke="#4a3f33" stroke-width="1.3" d="M571.76,-523.77C568.46,-522.82 565.18,-521.89 562,-521 473.96,-496.38 451.2,-493.02 363,-469 359.07,-467.93 354.99,-466.81 350.91,-465.67"/>
<polygon fill="#4a3f33" stroke="#4a3f33" stroke-width="1.3" points="351.92,-462.32 341.35,-462.99 350.03,-469.06 351.92,-462.32"/>
<text xml:space="preserve" text-anchor="middle" x="515.45" y="-491.5" font-family="Arial" font-size="10.00" fill="#8b2418"> latidogrande </text>
</g>
<!-- n4 -->
<g id="node4" class="node">
<title>n4</title>
<path fill="#fbf6eb" stroke="#1a1612" stroke-width="1.5" d="M1060.39,-745C1060.39,-745 937.61,-745 937.61,-745 931.61,-745 925.61,-739 925.61,-733 925.61,-733 925.61,-721 925.61,-721 925.61,-715 931.61,-709 937.61,-709 937.61,-709 1060.39,-709 1060.39,-709 1066.39,-709 1072.39,-715 1072.39,-721 1072.39,-721 1072.39,-733 1072.39,-733 1072.39,-739 1066.39,-745 1060.39,-745"/>
<text xml:space="preserve" text-anchor="middle" x="999" y="-723.3" font-family="Arial" font-size="11.00" fill="#1a1612">4 &#160;&#160;OnTiltGestureEvent #1</text>
</g>
<!-- n5 -->
<g id="node5" class="node">
<title>n5</title>
<path fill="#8b2418" stroke="#1a1612" stroke-width="1.5" d="M1031.77,-634C1031.77,-634 962.23,-634 962.23,-634 956.23,-634 950.23,-628 950.23,-622 950.23,-622 950.23,-610 950.23,-610 950.23,-604 956.23,-598 962.23,-598 962.23,-598 1031.77,-598 1031.77,-598 1037.77,-598 1043.77,-604 1043.77,-610 1043.77,-610 1043.77,-622 1043.77,-622 1043.77,-628 1037.77,-634 1031.77,-634"/>
<text xml:space="preserve" text-anchor="middle" x="997" y="-612.3" font-family="Arial" font-size="11.00" fill="#fbf6eb">5 &#160;&#160;SetVariable</text>
</g>
<!-- n4&#45;&gt;n5 -->
<g id="edge6" class="edge">
<title>n4&#45;&gt;n5</title>
<path fill="none" stroke="#8b2418" stroke-width="2" d="M998.68,-708.49C998.38,-692.04 997.92,-667.08 997.56,-647.39"/>
<polygon fill="#8b2418" stroke="#8b2418" stroke-width="2" points="1001.06,-647.43 997.38,-637.5 994.06,-647.56 1001.06,-647.43"/>
</g>
<!-- n6 -->
<g id="node6" class="node">
<title>n6</title>
<path fill="#8b2418" stroke="#1a1612" stroke-width="1.5" d="M779.77,-557C779.77,-557 710.23,-557 710.23,-557 704.23,-557 698.23,-551 698.23,-545 698.23,-545 698.23,-533 698.23,-533 698.23,-527 704.23,-521 710.23,-521 710.23,-521 779.77,-521 779.77,-521 785.77,-521 791.77,-527 791.77,-533 791.77,-533 791.77,-545 791.77,-545 791.77,-551 785.77,-557 779.77,-557"/>
<text xml:space="preserve" text-anchor="middle" x="745" y="-535.3" font-family="Arial" font-size="11.00" fill="#fbf6eb">6 &#160;&#160;SetVariable</text>
</g>
<!-- n5&#45;&gt;n6 -->
<g id="edge7" class="edge">
<title>n5&#45;&gt;n6</title>
<path fill="none" stroke="#8b2418" stroke-width="2" d="M949.6,-600.89C908.51,-588.66 848.84,-570.91 804.54,-557.72"/>
<polygon fill="#8b2418" stroke="#8b2418" stroke-width="2" points="805.67,-554.41 795.09,-554.91 803.67,-561.11 805.67,-554.41"/>
</g>
<!-- n5&#45;&gt;n15 -->
<g id="edge8" class="edge">
<title>n5&#45;&gt;n15</title>
<path fill="none" stroke="#4a3f33" stroke-width="1.3" d="M986.74,-597.37C974.87,-577.7 954.09,-545.43 932,-521 796.48,-371.19 744.2,-344.24 562,-257 514.8,-234.4 497.75,-235 446.55,-217.17"/>
<polygon fill="#4a3f33" stroke="#4a3f33" stroke-width="1.3" points="447.9,-213.93 437.31,-213.87 445.55,-220.53 447.9,-213.93"/>
<text xml:space="preserve" text-anchor="middle" x="856.76" y="-403.5" font-family="Arial" font-size="10.00" fill="#8b2418"> latidopequeño </text>
</g>
<!-- n5&#45;&gt;n17 -->
<g id="edge9" class="edge">
<title>n5&#45;&gt;n17</title>
<path fill="none" stroke="#4a3f33" stroke-width="1.3" d="M1013.6,-597.43C1025.34,-583.12 1039,-561.79 1039,-540 1039,-540 1039,-540 1039,-120 1039,-69.95 674.32,-51.62 541.04,-46.58"/>
<polygon fill="#4a3f33" stroke="#4a3f33" stroke-width="1.3" points="541.34,-43.09 531.21,-46.22 541.08,-50.09 541.34,-43.09"/>
<text xml:space="preserve" text-anchor="middle" x="1072" y="-315.5" font-family="Arial" font-size="10.00" fill="#8b2418"> latidopequeño </text>
</g>
<!-- n6&#45;&gt;n12 -->
<g id="edge10" class="edge">
<title>n6&#45;&gt;n12</title>
<path fill="none" stroke="#4a3f33" stroke-width="1.3" d="M697.56,-525.09C692.31,-523.69 687.04,-522.31 682,-521 624.81,-506.19 611.18,-499.23 553,-489 469.37,-474.3 446.38,-485.08 363,-469 359.05,-468.24 354.99,-467.34 350.93,-466.36"/>
<polygon fill="#4a3f33" stroke="#4a3f33" stroke-width="1.3" points="352.03,-463.03 341.47,-463.93 350.28,-469.81 352.03,-463.03"/>
<text xml:space="preserve" text-anchor="middle" x="638.51" y="-491.5" font-family="Arial" font-size="10.00" fill="#8b2418"> latidogrande </text>
</g>
<!-- n7 -->
<g id="node7" class="node">
<title>n7</title>
<path fill="#fbf6eb" stroke="#1a1612" stroke-width="1.5" d="M137.77,-745C137.77,-745 38.23,-745 38.23,-745 32.23,-745 26.23,-739 26.23,-733 26.23,-733 26.23,-721 26.23,-721 26.23,-715 32.23,-709 38.23,-709 38.23,-709 137.77,-709 137.77,-709 143.77,-709 149.77,-715 149.77,-721 149.77,-721 149.77,-733 149.77,-733 149.77,-739 143.77,-745 137.77,-745"/>
<text xml:space="preserve" text-anchor="middle" x="88" y="-723.3" font-family="Arial" font-size="11.00" fill="#1a1612">7 &#160;&#160;OnTouchEvent #1</text>
</g>
<!-- n8 -->
<g id="node8" class="node">
<title>n8</title>
<path fill="#8b2418" stroke="#1a1612" stroke-width="1.5" d="M122.77,-634C122.77,-634 53.23,-634 53.23,-634 47.23,-634 41.23,-628 41.23,-622 41.23,-622 41.23,-610 41.23,-610 41.23,-604 47.23,-598 53.23,-598 53.23,-598 122.77,-598 122.77,-598 128.77,-598 134.77,-604 134.77,-610 134.77,-610 134.77,-622 134.77,-622 134.77,-628 128.77,-634 122.77,-634"/>
<text xml:space="preserve" text-anchor="middle" x="88" y="-612.3" font-family="Arial" font-size="11.00" fill="#fbf6eb">8 &#160;&#160;SetVariable</text>
</g>
<!-- n7&#45;&gt;n8 -->
<g id="edge11" class="edge">
<title>n7&#45;&gt;n8</title>
<path fill="none" stroke="#8b2418" stroke-width="2" d="M88,-708.49C88,-692.04 88,-667.08 88,-647.39"/>
<polygon fill="#8b2418" stroke="#8b2418" stroke-width="2" points="91.5,-647.5 88,-637.5 84.5,-647.5 91.5,-647.5"/>
</g>
<!-- n9 -->
<g id="node9" class="node">
<title>n9</title>
<path fill="#8b2418" stroke="#1a1612" stroke-width="1.5" d="M218.77,-557C218.77,-557 149.23,-557 149.23,-557 143.23,-557 137.23,-551 137.23,-545 137.23,-545 137.23,-533 137.23,-533 137.23,-527 143.23,-521 149.23,-521 149.23,-521 218.77,-521 218.77,-521 224.77,-521 230.77,-527 230.77,-533 230.77,-533 230.77,-545 230.77,-545 230.77,-551 224.77,-557 218.77,-557"/>
<text xml:space="preserve" text-anchor="middle" x="184" y="-535.3" font-family="Arial" font-size="11.00" fill="#fbf6eb">9 &#160;&#160;SetVariable</text>
</g>
<!-- n8&#45;&gt;n9 -->
<g id="edge12" class="edge">
<title>n8&#45;&gt;n9</title>
<path fill="none" stroke="#8b2418" stroke-width="2" d="M110.27,-597.6C122.54,-588.02 137.99,-575.94 151.58,-565.33"/>
<polygon fill="#8b2418" stroke="#8b2418" stroke-width="2" points="153.41,-568.34 159.14,-559.42 149.1,-562.82 153.41,-568.34"/>
</g>
<!-- n8&#45;&gt;n15 -->
<g id="edge13" class="edge">
<title>n8&#45;&gt;n15</title>
<path fill="none" stroke="#4a3f33" stroke-width="1.3" d="M88,-597.42C88,-582.22 88,-559.66 88,-540 88,-540 88,-540 88,-274 88,-220.62 263.32,-205.12 350.69,-200.71"/>
<polygon fill="#4a3f33" stroke="#4a3f33" stroke-width="1.3" points="350.62,-204.21 360.44,-200.25 350.29,-197.22 350.62,-204.21"/>
<text xml:space="preserve" text-anchor="middle" x="121" y="-403.5" font-family="Arial" font-size="10.00" fill="#8b2418"> latidopequeño </text>
</g>
<!-- n8&#45;&gt;n17 -->
<g id="edge14" class="edge">
<title>n8&#45;&gt;n17</title>
<path fill="none" stroke="#4a3f33" stroke-width="1.3" d="M45.03,-597.34C22.69,-585.03 0,-566.1 0,-540 0,-540 0,-540 0,-120 0,-75.28 321.15,-53.89 445.05,-47.3"/>
<polygon fill="#4a3f33" stroke="#4a3f33" stroke-width="1.3" points="444.98,-50.81 454.78,-46.8 444.62,-43.82 444.98,-50.81"/>
<text xml:space="preserve" text-anchor="middle" x="33" y="-315.5" font-family="Arial" font-size="10.00" fill="#8b2418"> latidopequeño </text>
</g>
<!-- n9&#45;&gt;n12 -->
<g id="edge15" class="edge">
<title>n9&#45;&gt;n12</title>
<path fill="none" stroke="#4a3f33" stroke-width="1.3" d="M204.94,-520.45C216.65,-510.86 231.63,-498.95 245.5,-489 251.51,-484.69 258.01,-480.28 264.39,-476.08"/>
<polygon fill="#4a3f33" stroke="#4a3f33" stroke-width="1.3" points="266.11,-479.14 272.6,-470.77 262.3,-473.26 266.11,-479.14"/>
<text xml:space="preserve" text-anchor="middle" x="274.75" y="-491.5" font-family="Arial" font-size="10.00" fill="#8b2418"> latidogrande </text>
</g>
<!-- n10 -->
<g id="node10" class="node">
<title>n10</title>
<path fill="#5a6b3b" stroke="#1a1612" stroke-width="1.5" d="M370.64,-634C370.64,-634 279.36,-634 279.36,-634 273.36,-634 267.36,-628 267.36,-622 267.36,-622 267.36,-610 267.36,-610 267.36,-604 273.36,-598 279.36,-598 279.36,-598 370.64,-598 370.64,-598 376.64,-598 382.64,-604 382.64,-610 382.64,-610 382.64,-622 382.64,-622 382.64,-628 376.64,-634 370.64,-634"/>
<text xml:space="preserve" text-anchor="middle" x="325" y="-612.3" font-family="Arial" font-size="11.00" fill="#fbf6eb">10 &#160;&#160;DrawImage #1</text>
</g>
<!-- n11 -->
<g id="node11" class="node">
<title>n11</title>
<path fill="#fbf6eb" stroke="#1a1612" stroke-width="1.5" d="M367.77,-557C367.77,-557 280.23,-557 280.23,-557 274.23,-557 268.23,-551 268.23,-545 268.23,-545 268.23,-533 268.23,-533 268.23,-527 274.23,-521 280.23,-521 280.23,-521 367.77,-521 367.77,-521 373.77,-521 379.77,-527 379.77,-533 379.77,-533 379.77,-545 379.77,-545 379.77,-551 373.77,-557 367.77,-557"/>
<text xml:space="preserve" text-anchor="middle" x="324" y="-535.3" font-family="Arial" font-size="11.00" fill="#1a1612">11 &#160;&#160;EmitSound #1</text>
</g>
<!-- n10&#45;&gt;n11 -->
<g id="edge16" class="edge">
<title>n10&#45;&gt;n11</title>
<path fill="none" stroke="#8b2418" stroke-width="2" d="M324.77,-597.6C324.66,-589.52 324.53,-579.67 324.41,-570.42"/>
<polygon fill="#8b2418" stroke="#8b2418" stroke-width="2" points="327.91,-570.54 324.27,-560.59 320.91,-570.63 327.91,-570.54"/>
</g>
<!-- n14 -->
<g id="node14" class="node">
<title>n14</title>
<path fill="#5a6b3b" stroke="#1a1612" stroke-width="1.5" d="M426.64,-293C426.64,-293 335.36,-293 335.36,-293 329.36,-293 323.36,-287 323.36,-281 323.36,-281 323.36,-269 323.36,-269 323.36,-263 329.36,-257 335.36,-257 335.36,-257 426.64,-257 426.64,-257 432.64,-257 438.64,-263 438.64,-269 438.64,-269 438.64,-281 438.64,-281 438.64,-287 432.64,-293 426.64,-293"/>
<text xml:space="preserve" text-anchor="middle" x="381" y="-271.3" font-family="Arial" font-size="11.00" fill="#fbf6eb">14 &#160;&#160;DrawImage #1</text>
</g>
<!-- n10&#45;&gt;n14 -->
<g id="edge17" class="edge">
<title>n10&#45;&gt;n14</title>
<path fill="none" stroke="#5a6b3b" stroke-width="1.3" stroke-dasharray="5,2" d="M355.72,-597.28C370.24,-587.31 386.43,-573.53 396,-557 435.71,-488.38 418.53,-460.01 425,-381 426.3,-365.05 429.48,-360.36 425,-345 420.62,-329.98 411.86,-315.11 403.3,-303.04"/>
<polygon fill="#5a6b3b" stroke="#5a6b3b" stroke-width="1.3" points="406.23,-301.11 397.44,-295.2 400.62,-305.3 406.23,-301.11"/>
<text xml:space="preserve" text-anchor="middle" x="441.83" y="-447.5" font-family="Arial" font-size="10.00" fill="#5a6b3b"> display </text>
</g>
<!-- n11&#45;&gt;n12 -->
<g id="edge18" class="edge">
<title>n11&#45;&gt;n12</title>
<path fill="none" stroke="#8b2418" stroke-width="2" d="M319.75,-520.6C317.06,-509.6 313.52,-495.08 310.38,-482.24"/>
<polygon fill="#8b2418" stroke="#8b2418" stroke-width="2" points="313.81,-481.5 308.03,-472.61 307.01,-483.16 313.81,-481.5"/>
</g>
<!-- n13 -->
<g id="node13" class="node">
<title>n13</title>
<path fill="#fbf6eb" stroke="#1a1612" stroke-width="1.5" d="M397.14,-381C397.14,-381 308.86,-381 308.86,-381 302.86,-381 296.86,-375 296.86,-369 296.86,-369 296.86,-357 296.86,-357 296.86,-351 302.86,-345 308.86,-345 308.86,-345 397.14,-345 397.14,-345 403.14,-345 409.14,-351 409.14,-357 409.14,-357 409.14,-369 409.14,-369 409.14,-375 403.14,-381 397.14,-381"/>
<text xml:space="preserve" text-anchor="middle" x="353" y="-359.3" font-family="Arial" font-size="11.00" fill="#1a1612">13 &#160;&#160;EmitSound #1</text>
</g>
<!-- n11&#45;&gt;n13 -->
<g id="edge19" class="edge">
<title>n11&#45;&gt;n13</title>
<path fill="none" stroke="#5a6b3b" stroke-width="1.3" stroke-dasharray="5,2" d="M334.49,-520.27C341.85,-506.74 351.06,-487.36 355,-469 360.37,-443.93 359.24,-414.72 357.13,-393.49"/>
<polygon fill="#5a6b3b" stroke="#5a6b3b" stroke-width="1.3" points="360.62,-393.19 356,-383.65 353.66,-393.99 360.62,-393.19"/>
<text xml:space="preserve" text-anchor="middle" x="374.92" y="-447.5" font-family="Arial" font-size="10.00" fill="#5a6b3b"> sound </text>
</g>
<!-- n12&#45;&gt;n13 -->
<g id="edge20" class="edge">
<title>n12&#45;&gt;n13</title>
<path fill="none" stroke="#8b2418" stroke-width="2" d="M313.12,-432.6C319.78,-421.13 328.67,-405.85 336.36,-392.62"/>
<polygon fill="#8b2418" stroke="#8b2418" stroke-width="2" points="339.2,-394.69 341.2,-384.29 333.15,-391.18 339.2,-394.69"/>
</g>
<!-- n13&#45;&gt;n14 -->
<g id="edge21" class="edge">
<title>n13&#45;&gt;n14</title>
<path fill="none" stroke="#8b2418" stroke-width="2" d="M358.67,-344.6C362.29,-333.48 367.07,-318.77 371.29,-305.83"/>
<polygon fill="#8b2418" stroke="#8b2418" stroke-width="2" points="374.54,-307.14 374.31,-296.55 367.88,-304.98 374.54,-307.14"/>
</g>
<!-- n14&#45;&gt;n15 -->
<g id="edge22" class="edge">
<title>n14&#45;&gt;n15</title>
<path fill="none" stroke="#8b2418" stroke-width="2" d="M385.17,-256.6C387.14,-248.43 389.53,-238.44 391.78,-229.09"/>
<polygon fill="#8b2418" stroke="#8b2418" stroke-width="2" points="395.15,-230.04 394.08,-219.5 388.34,-228.41 395.15,-230.04"/>
</g>
<!-- n16 -->
<g id="node16" class="node">
<title>n16</title>
<path fill="#5a6b3b" stroke="#1a1612" stroke-width="1.5" d="M482.64,-139C482.64,-139 391.36,-139 391.36,-139 385.36,-139 379.36,-133 379.36,-127 379.36,-127 379.36,-115 379.36,-115 379.36,-109 385.36,-103 391.36,-103 391.36,-103 482.64,-103 482.64,-103 488.64,-103 494.64,-109 494.64,-115 494.64,-115 494.64,-127 494.64,-127 494.64,-133 488.64,-139 482.64,-139"/>
<text xml:space="preserve" text-anchor="middle" x="437" y="-117.3" font-family="Arial" font-size="11.00" fill="#fbf6eb">16 &#160;&#160;DrawImage #1</text>
</g>
<!-- n14&#45;&gt;n16 -->
<g id="edge23" class="edge">
<title>n14&#45;&gt;n16</title>
<path fill="none" stroke="#5a6b3b" stroke-width="1.3" stroke-dasharray="5,2" d="M413.19,-256.3C427.59,-246.49 443.08,-232.85 451,-216 460.65,-195.47 455.9,-169.89 449.43,-150.59"/>
<polygon fill="#5a6b3b" stroke="#5a6b3b" stroke-width="1.3" points="452.75,-149.49 445.98,-141.34 446.19,-151.93 452.75,-149.49"/>
<text xml:space="preserve" text-anchor="middle" x="474.86" y="-194.5" font-family="Arial" font-size="10.00" fill="#5a6b3b"> display </text>
</g>
<!-- n15&#45;&gt;n16 -->
<g id="edge24" class="edge">
<title>n15&#45;&gt;n16</title>
<path fill="none" stroke="#8b2418" stroke-width="2" d="M407.81,-179.6C412.1,-171.15 417.37,-160.75 422.24,-151.13"/>
<polygon fill="#8b2418" stroke="#8b2418" stroke-width="2" points="425.34,-152.76 426.73,-142.26 419.09,-149.6 425.34,-152.76"/>
</g>
<!-- n16&#45;&gt;n17 -->
<g id="edge25" class="edge">
<title>n16&#45;&gt;n17</title>
<path fill="none" stroke="#8b2418" stroke-width="2" d="M449.99,-102.6C456.58,-93.77 464.76,-82.82 472.2,-72.85"/>
<polygon fill="#8b2418" stroke="#8b2418" stroke-width="2" points="474.9,-75.09 478.08,-64.99 469.29,-70.9 474.9,-75.09"/>
</g>
</g>
</svg>
