<svg width="1280" height="720" viewBox="0 0 1280 720" fill="none" xmlns="http://www.w3.org/2000/svg">
<rect width="1280" height="720" transform="matrix(1 0 0 -1 0 720)" fill="url(#paint0_linear_410_4543)"/>
<rect x="77.5" y="196.5" width="384" height="422" fill="#ECFAFF" stroke="#1A3567" stroke-width="3"/>
<rect x="336" y="197" width="124" height="109" fill="#31C0FD"/>
<path d="M125.82 369.21C123.84 369.21 122.02 368.75 120.36 367.83C118.72 366.91 117.41 365.63 116.43 363.99C115.47 362.33 114.99 360.47 114.99 358.41C114.99 356.35 115.47 354.5 116.43 352.86C117.41 351.22 118.72 349.94 120.36 349.02C122.02 348.1 123.84 347.64 125.82 347.64C127.8 347.64 129.61 348.1 131.25 349.02C132.91 349.94 134.21 351.22 135.15 352.86C136.11 354.5 136.59 356.35 136.59 358.41C136.59 360.47 136.11 362.33 135.15 363.99C134.19 365.63 132.89 366.91 131.25 367.83C129.61 368.75 127.8 369.21 125.82 369.21ZM125.82 364.53C127.5 364.53 128.84 363.97 129.84 362.85C130.86 361.73 131.37 360.25 131.37 358.41C131.37 356.55 130.86 355.07 129.84 353.97C128.84 352.85 127.5 352.29 125.82 352.29C124.12 352.29 122.76 352.84 121.74 353.94C120.74 355.04 120.24 356.53 120.24 358.41C120.24 360.27 120.74 361.76 121.74 362.88C122.76 363.98 124.12 364.53 125.82 364.53ZM158.284 369H153.154L144.574 356.01V369H139.444V347.94H144.574L153.154 360.99V347.94H158.284V369Z" fill="#1A3567"/>
<path d="M255.82 471.21C253.84 471.21 252.02 470.75 250.36 469.83C248.72 468.91 247.41 467.63 246.43 465.99C245.47 464.33 244.99 462.47 244.99 460.41C244.99 458.35 245.47 456.5 246.43 454.86C247.41 453.22 248.72 451.94 250.36 451.02C252.02 450.1 253.84 449.64 255.82 449.64C257.8 449.64 259.61 450.1 261.25 451.02C262.91 451.94 264.21 453.22 265.15 454.86C266.11 456.5 266.59 458.35 266.59 460.41C266.59 462.47 266.11 464.33 265.15 465.99C264.19 467.63 262.89 468.91 261.25 469.83C259.61 470.75 257.8 471.21 255.82 471.21ZM255.82 466.53C257.5 466.53 258.84 465.97 259.84 464.85C260.86 463.73 261.37 462.25 261.37 460.41C261.37 458.55 260.86 457.07 259.84 455.97C258.84 454.85 257.5 454.29 255.82 454.29C254.12 454.29 252.76 454.84 251.74 455.94C250.74 457.04 250.24 458.53 250.24 460.41C250.24 462.27 250.74 463.76 251.74 464.88C252.76 465.98 254.12 466.53 255.82 466.53ZM288.284 471H283.154L274.574 458.01V471H269.444V449.94H274.574L283.154 462.99V449.94H288.284V471Z" fill="#1A3567"/>
<path d="M255.82 257.21C253.84 257.21 252.02 256.75 250.36 255.83C248.72 254.91 247.41 253.63 246.43 251.99C245.47 250.33 244.99 248.47 244.99 246.41C244.99 244.35 245.47 242.5 246.43 240.86C247.41 239.22 248.72 237.94 250.36 237.02C252.02 236.1 253.84 235.64 255.82 235.64C257.8 235.64 259.61 236.1 261.25 237.02C262.91 237.94 264.21 239.22 265.15 240.86C266.11 242.5 266.59 244.35 266.59 246.41C266.59 248.47 266.11 250.33 265.15 251.99C264.19 253.63 262.89 254.91 261.25 255.83C259.61 256.75 257.8 257.21 255.82 257.21ZM255.82 252.53C257.5 252.53 258.84 251.97 259.84 250.85C260.86 249.73 261.37 248.25 261.37 246.41C261.37 244.55 260.86 243.07 259.84 241.97C258.84 240.85 257.5 240.29 255.82 240.29C254.12 240.29 252.76 240.84 251.74 241.94C250.74 243.04 250.24 244.53 250.24 246.41C250.24 248.27 250.74 249.76 251.74 250.88C252.76 251.98 254.12 252.53 255.82 252.53ZM288.284 257H283.154L274.574 244.01V257H269.444V235.94H274.574L283.154 248.99V235.94H288.284V257Z" fill="#1A3567"/>
<path d="M125.82 257.21C123.84 257.21 122.02 256.75 120.36 255.83C118.72 254.91 117.41 253.63 116.43 251.99C115.47 250.33 114.99 248.47 114.99 246.41C114.99 244.35 115.47 242.5 116.43 240.86C117.41 239.22 118.72 237.94 120.36 237.02C122.02 236.1 123.84 235.64 125.82 235.64C127.8 235.64 129.61 236.1 131.25 237.02C132.91 237.94 134.21 239.22 135.15 240.86C136.11 242.5 136.59 244.35 136.59 246.41C136.59 248.47 136.11 250.33 135.15 251.99C134.19 253.63 132.89 254.91 131.25 255.83C129.61 256.75 127.8 257.21 125.82 257.21ZM125.82 252.53C127.5 252.53 128.84 251.97 129.84 250.85C130.86 249.73 131.37 248.25 131.37 246.41C131.37 244.55 130.86 243.07 129.84 241.97C128.84 240.85 127.5 240.29 125.82 240.29C124.12 240.29 122.76 240.84 121.74 241.94C120.74 243.04 120.24 244.53 120.24 246.41C120.24 248.27 120.74 249.76 121.74 250.88C122.76 251.98 124.12 252.53 125.82 252.53ZM158.284 257H153.154L144.574 244.01V257H139.444V235.94H144.574L153.154 248.99V235.94H158.284V257Z" fill="#1A3567"/>
<path d="M203.79 194.984V619.984" stroke="#1A3567" stroke-width="3"/>
<path d="M336.79 194.984V619.984" stroke="#1A3567" stroke-width="3"/>
<path d="M463 306L76.0001 306" stroke="#1A3567" stroke-width="3"/>
<path d="M463 408L76.0001 408" stroke="#1A3567" stroke-width="3"/>
<path d="M463 510H77" stroke="#1A3567" stroke-width="3"/>
<path d="M150.94 116.56H135.22L132.7 124H121.96L137.2 81.88H149.08L164.32 124H153.46L150.94 116.56ZM148.3 108.64L143.08 93.22L137.92 108.64H148.3Z" fill="#1A3567"/>
<path d="M119.82 576.21C117.84 576.21 116.02 575.75 114.36 574.83C112.72 573.91 111.41 572.63 110.43 570.99C109.47 569.33 108.99 567.47 108.99 565.41C108.99 563.35 109.47 561.5 110.43 559.86C111.41 558.22 112.72 556.94 114.36 556.02C116.02 555.1 117.84 554.64 119.82 554.64C121.8 554.64 123.61 555.1 125.25 556.02C126.91 556.94 128.21 558.22 129.15 559.86C130.11 561.5 130.59 563.35 130.59 565.41C130.59 567.47 130.11 569.33 129.15 570.99C128.19 572.63 126.89 573.91 125.25 574.83C123.61 575.75 121.8 576.21 119.82 576.21ZM119.82 571.53C121.5 571.53 122.84 570.97 123.84 569.85C124.86 568.73 125.37 567.25 125.37 565.41C125.37 563.55 124.86 562.07 123.84 560.97C122.84 559.85 121.5 559.29 119.82 559.29C118.12 559.29 116.76 559.84 115.74 560.94C114.74 562.04 114.24 563.53 114.24 565.41C114.24 567.27 114.74 568.76 115.74 569.88C116.76 570.98 118.12 571.53 119.82 571.53ZM147.154 554.94V559.05H138.574V563.49H144.994V567.48H138.574V576H133.444V554.94H147.154ZM163.56 554.94V559.05H154.98V563.49H161.4V567.48H154.98V576H149.85V554.94H163.56Z" fill="#1A3567"/>
<path d="M378.82 576.21C376.84 576.21 375.02 575.75 373.36 574.83C371.72 573.91 370.41 572.63 369.43 570.99C368.47 569.33 367.99 567.47 367.99 565.41C367.99 563.35 368.47 561.5 369.43 559.86C370.41 558.22 371.72 556.94 373.36 556.02C375.02 555.1 376.84 554.64 378.82 554.64C380.8 554.64 382.61 555.1 384.25 556.02C385.91 556.94 387.21 558.22 388.15 559.86C389.11 561.5 389.59 563.35 389.59 565.41C389.59 567.47 389.11 569.33 388.15 570.99C387.19 572.63 385.89 573.91 384.25 574.83C382.61 575.75 380.8 576.21 378.82 576.21ZM378.82 571.53C380.5 571.53 381.84 570.97 382.84 569.85C383.86 568.73 384.37 567.25 384.37 565.41C384.37 563.55 383.86 562.07 382.84 560.97C381.84 559.85 380.5 559.29 378.82 559.29C377.12 559.29 375.76 559.84 374.74 560.94C373.74 562.04 373.24 563.53 373.24 565.41C373.24 567.27 373.74 568.76 374.74 569.88C375.76 570.98 377.12 571.53 378.82 571.53ZM406.154 554.94V559.05H397.574V563.49H403.994V567.48H397.574V576H392.444V554.94H406.154ZM422.56 554.94V559.05H413.98V563.49H420.4V567.48H413.98V576H408.85V554.94H422.56Z" fill="#1A3567"/>
<path d="M250.82 576.21C248.84 576.21 247.02 575.75 245.36 574.83C243.72 573.91 242.41 572.63 241.43 570.99C240.47 569.33 239.99 567.47 239.99 565.41C239.99 563.35 240.47 561.5 241.43 559.86C242.41 558.22 243.72 556.94 245.36 556.02C247.02 555.1 248.84 554.64 250.82 554.64C252.8 554.64 254.61 555.1 256.25 556.02C257.91 556.94 259.21 558.22 260.15 559.86C261.11 561.5 261.59 563.35 261.59 565.41C261.59 567.47 261.11 569.33 260.15 570.99C259.19 572.63 257.89 573.91 256.25 574.83C254.61 575.75 252.8 576.21 250.82 576.21ZM250.82 571.53C252.5 571.53 253.84 570.97 254.84 569.85C255.86 568.73 256.37 567.25 256.37 565.41C256.37 563.55 255.86 562.07 254.84 560.97C253.84 559.85 252.5 559.29 250.82 559.29C249.12 559.29 247.76 559.84 246.74 560.94C245.74 562.04 245.24 563.53 245.24 565.41C245.24 567.27 245.74 568.76 246.74 569.88C247.76 570.98 249.12 571.53 250.82 571.53ZM278.154 554.94V559.05H269.574V563.49H275.994V567.48H269.574V576H264.444V554.94H278.154ZM294.56 554.94V559.05H285.98V563.49H292.4V567.48H285.98V576H280.85V554.94H294.56Z" fill="#1A3567"/>
<path d="M250.82 369.21C248.84 369.21 247.02 368.75 245.36 367.83C243.72 366.91 242.41 365.63 241.43 363.99C240.47 362.33 239.99 360.47 239.99 358.41C239.99 356.35 240.47 354.5 241.43 352.86C242.41 351.22 243.72 349.94 245.36 349.02C247.02 348.1 248.84 347.64 250.82 347.64C252.8 347.64 254.61 348.1 256.25 349.02C257.91 349.94 259.21 351.22 260.15 352.86C261.11 354.5 261.59 356.35 261.59 358.41C261.59 360.47 261.11 362.33 260.15 363.99C259.19 365.63 257.89 366.91 256.25 367.83C254.61 368.75 252.8 369.21 250.82 369.21ZM250.82 364.53C252.5 364.53 253.84 363.97 254.84 362.85C255.86 361.73 256.37 360.25 256.37 358.41C256.37 356.55 255.86 355.07 254.84 353.97C253.84 352.85 252.5 352.29 250.82 352.29C249.12 352.29 247.76 352.84 246.74 353.94C245.74 355.04 245.24 356.53 245.24 358.41C245.24 360.27 245.74 361.76 246.74 362.88C247.76 363.98 249.12 364.53 250.82 364.53ZM278.154 347.94V352.05H269.574V356.49H275.994V360.48H269.574V369H264.444V347.94H278.154ZM294.56 347.94V352.05H285.98V356.49H292.4V360.48H285.98V369H280.85V347.94H294.56Z" fill="#1A3567"/>
<path d="M119.82 471.21C117.84 471.21 116.02 470.75 114.36 469.83C112.72 468.91 111.41 467.63 110.43 465.99C109.47 464.33 108.99 462.47 108.99 460.41C108.99 458.35 109.47 456.5 110.43 454.86C111.41 453.22 112.72 451.94 114.36 451.02C116.02 450.1 117.84 449.64 119.82 449.64C121.8 449.64 123.61 450.1 125.25 451.02C126.91 451.94 128.21 453.22 129.15 454.86C130.11 456.5 130.59 458.35 130.59 460.41C130.59 462.47 130.11 464.33 129.15 465.99C128.19 467.63 126.89 468.91 125.25 469.83C123.61 470.75 121.8 471.21 119.82 471.21ZM119.82 466.53C121.5 466.53 122.84 465.97 123.84 464.85C124.86 463.73 125.37 462.25 125.37 460.41C125.37 458.55 124.86 457.07 123.84 455.97C122.84 454.85 121.5 454.29 119.82 454.29C118.12 454.29 116.76 454.84 115.74 455.94C114.74 457.04 114.24 458.53 114.24 460.41C114.24 462.27 114.74 463.76 115.74 464.88C116.76 465.98 118.12 466.53 119.82 466.53ZM147.154 449.94V454.05H138.574V458.49H144.994V462.48H138.574V471H133.444V449.94H147.154ZM163.56 449.94V454.05H154.98V458.49H161.4V462.48H154.98V471H149.85V449.94H163.56Z" fill="#1A3567"/>
<path d="M378.82 369.21C376.84 369.21 375.02 368.75 373.36 367.83C371.72 366.91 370.41 365.63 369.43 363.99C368.47 362.33 367.99 360.47 367.99 358.41C367.99 356.35 368.47 354.5 369.43 352.86C370.41 351.22 371.72 349.94 373.36 349.02C375.02 348.1 376.84 347.64 378.82 347.64C380.8 347.64 382.61 348.1 384.25 349.02C385.91 349.94 387.21 351.22 388.15 352.86C389.11 354.5 389.59 356.35 389.59 358.41C389.59 360.47 389.11 362.33 388.15 363.99C387.19 365.63 385.89 366.91 384.25 367.83C382.61 368.75 380.8 369.21 378.82 369.21ZM378.82 364.53C380.5 364.53 381.84 363.97 382.84 362.85C383.86 361.73 384.37 360.25 384.37 358.41C384.37 356.55 383.86 355.07 382.84 353.97C381.84 352.85 380.5 352.29 378.82 352.29C377.12 352.29 375.76 352.84 374.74 353.94C373.74 355.04 373.24 356.53 373.24 358.41C373.24 360.27 373.74 361.76 374.74 362.88C375.76 363.98 377.12 364.53 378.82 364.53ZM406.154 347.94V352.05H397.574V356.49H403.994V360.48H397.574V369H392.444V347.94H406.154ZM422.56 347.94V352.05H413.98V356.49H420.4V360.48H413.98V369H408.85V347.94H422.56Z" fill="#1A3567"/>
<path d="M378.82 471.21C376.84 471.21 375.02 470.75 373.36 469.83C371.72 468.91 370.41 467.63 369.43 465.99C368.47 464.33 367.99 462.47 367.99 460.41C367.99 458.35 368.47 456.5 369.43 454.86C370.41 453.22 371.72 451.94 373.36 451.02C375.02 450.1 376.84 449.64 378.82 449.64C380.8 449.64 382.61 450.1 384.25 451.02C385.91 451.94 387.21 453.22 388.15 454.86C389.11 456.5 389.59 458.35 389.59 460.41C389.59 462.47 389.11 464.33 388.15 465.99C387.19 467.63 385.89 468.91 384.25 469.83C382.61 470.75 380.8 471.21 378.82 471.21ZM378.82 466.53C380.5 466.53 381.84 465.97 382.84 464.85C383.86 463.73 384.37 462.25 384.37 460.41C384.37 458.55 383.86 457.07 382.84 455.97C381.84 454.85 380.5 454.29 378.82 454.29C377.12 454.29 375.76 454.84 374.74 455.94C373.74 457.04 373.24 458.53 373.24 460.41C373.24 462.27 373.74 463.76 374.74 464.88C375.76 465.98 377.12 466.53 378.82 466.53ZM406.154 449.94V454.05H397.574V458.49H403.994V462.48H397.574V471H392.444V449.94H406.154ZM422.56 449.94V454.05H413.98V458.49H420.4V462.48H413.98V471H408.85V449.94H422.56Z" fill="#1A3567"/>
<path d="M385.82 263.21C383.84 263.21 382.02 262.75 380.36 261.83C378.72 260.91 377.41 259.63 376.43 257.99C375.47 256.33 374.99 254.47 374.99 252.41C374.99 250.35 375.47 248.5 376.43 246.86C377.41 245.22 378.72 243.94 380.36 243.02C382.02 242.1 383.84 241.64 385.82 241.64C387.8 241.64 389.61 242.1 391.25 243.02C392.91 243.94 394.21 245.22 395.15 246.86C396.11 248.5 396.59 250.35 396.59 252.41C396.59 254.47 396.11 256.33 395.15 257.99C394.19 259.63 392.89 260.91 391.25 261.83C389.61 262.75 387.8 263.21 385.82 263.21ZM385.82 258.53C387.5 258.53 388.84 257.97 389.84 256.85C390.86 255.73 391.37 254.25 391.37 252.41C391.37 250.55 390.86 249.07 389.84 247.97C388.84 246.85 387.5 246.29 385.82 246.29C384.12 246.29 382.76 246.84 381.74 247.94C380.74 249.04 380.24 250.53 380.24 252.41C380.24 254.27 380.74 255.76 381.74 256.88C382.76 257.98 384.12 258.53 385.82 258.53ZM418.284 263H413.154L404.574 250.01V263H399.444V241.94H404.574L413.154 254.99V241.94H418.284V263Z" fill="#ECFAFF"/>
<path d="M219.66 142.96V157H216.24V142.96H219.66ZM228.938 145.72C230.245 145.72 231.285 146.147 232.058 147C232.845 147.84 233.238 149 233.238 150.48V157H229.838V150.94C229.838 150.193 229.645 149.613 229.258 149.2C228.872 148.787 228.352 148.58 227.698 148.58C227.045 148.58 226.525 148.787 226.138 149.2C225.752 149.613 225.558 150.193 225.558 150.94V157H222.138V145.84H225.558V147.32C225.905 146.827 226.372 146.44 226.958 146.16C227.545 145.867 228.205 145.72 228.938 145.72ZM241.835 154.1V157H240.095C238.855 157 237.888 156.7 237.195 156.1C236.502 155.487 236.155 154.493 236.155 153.12V148.68H234.795V145.84H236.155V143.12H239.575V145.84H241.815V148.68H239.575V153.16C239.575 153.493 239.655 153.733 239.815 153.88C239.975 154.027 240.242 154.1 240.615 154.1H241.835ZM254.26 151.24C254.26 151.56 254.24 151.893 254.2 152.24H246.46C246.513 152.933 246.733 153.467 247.12 153.84C247.52 154.2 248.007 154.38 248.58 154.38C249.433 154.38 250.027 154.02 250.36 153.3H254C253.813 154.033 253.473 154.693 252.98 155.28C252.5 155.867 251.893 156.327 251.16 156.66C250.427 156.993 249.607 157.16 248.7 157.16C247.607 157.16 246.633 156.927 245.78 156.46C244.927 155.993 244.26 155.327 243.78 154.46C243.3 153.593 243.06 152.58 243.06 151.42C243.06 150.26 243.293 149.247 243.76 148.38C244.24 147.513 244.907 146.847 245.76 146.38C246.613 145.913 247.593 145.68 248.7 145.68C249.78 145.68 250.74 145.907 251.58 146.36C252.42 146.813 253.073 147.46 253.54 148.3C254.02 149.14 254.26 150.12 254.26 151.24ZM250.76 150.34C250.76 149.753 250.56 149.287 250.16 148.94C249.76 148.593 249.26 148.42 248.66 148.42C248.087 148.42 247.6 148.587 247.2 148.92C246.813 149.253 246.573 149.727 246.48 150.34H250.76ZM259.484 147.7C259.884 147.087 260.384 146.607 260.984 146.26C261.584 145.9 262.251 145.72 262.984 145.72V149.34H262.044C261.191 149.34 260.551 149.527 260.124 149.9C259.698 150.26 259.484 150.9 259.484 151.82V157H256.064V145.84H259.484V147.7ZM268.039 147.7C268.439 147.087 268.939 146.607 269.539 146.26C270.139 145.9 270.806 145.72 271.539 145.72V149.34H270.599C269.746 149.34 269.106 149.527 268.679 149.9C268.252 150.26 268.039 150.9 268.039 151.82V157H264.619V145.84H268.039V147.7ZM284.194 145.84V157H280.774V155.48C280.427 155.973 279.954 156.373 279.354 156.68C278.767 156.973 278.114 157.12 277.394 157.12C276.54 157.12 275.787 156.933 275.134 156.56C274.48 156.173 273.974 155.62 273.614 154.9C273.254 154.18 273.074 153.333 273.074 152.36V145.84H276.474V151.9C276.474 152.647 276.667 153.227 277.054 153.64C277.44 154.053 277.96 154.26 278.614 154.26C279.28 154.26 279.807 154.053 280.194 153.64C280.58 153.227 280.774 152.647 280.774 151.9V145.84H284.194ZM290.07 147.42C290.403 146.9 290.863 146.48 291.45 146.16C292.037 145.84 292.723 145.68 293.51 145.68C294.43 145.68 295.263 145.913 296.01 146.38C296.757 146.847 297.343 147.513 297.77 148.38C298.21 149.247 298.43 150.253 298.43 151.4C298.43 152.547 298.21 153.56 297.77 154.44C297.343 155.307 296.757 155.98 296.01 156.46C295.263 156.927 294.43 157.16 293.51 157.16C292.737 157.16 292.05 157 291.45 156.68C290.863 156.36 290.403 155.947 290.07 155.44V162.32H286.65V145.84H290.07V147.42ZM294.95 151.4C294.95 150.547 294.71 149.88 294.23 149.4C293.763 148.907 293.183 148.66 292.49 148.66C291.81 148.66 291.23 148.907 290.75 149.4C290.283 149.893 290.05 150.567 290.05 151.42C290.05 152.273 290.283 152.947 290.75 153.44C291.23 153.933 291.81 154.18 292.49 154.18C293.17 154.18 293.75 153.933 294.23 153.44C294.71 152.933 294.95 152.253 294.95 151.4ZM306.444 154.1V157H304.704C303.464 157 302.498 156.7 301.804 156.1C301.111 155.487 300.764 154.493 300.764 153.12V148.68H299.404V145.84H300.764V143.12H304.184V145.84H306.424V148.68H304.184V153.16C304.184 153.493 304.264 153.733 304.424 153.88C304.584 154.027 304.851 154.1 305.224 154.1H306.444ZM313.429 157.16C312.336 157.16 311.349 156.927 310.469 156.46C309.603 155.993 308.916 155.327 308.409 154.46C307.916 153.593 307.669 152.58 307.669 151.42C307.669 150.273 307.923 149.267 308.429 148.4C308.936 147.52 309.629 146.847 310.509 146.38C311.389 145.913 312.376 145.68 313.469 145.68C314.563 145.68 315.549 145.913 316.429 146.38C317.309 146.847 318.003 147.52 318.509 148.4C319.016 149.267 319.269 150.273 319.269 151.42C319.269 152.567 319.009 153.58 318.489 154.46C317.983 155.327 317.283 155.993 316.389 156.46C315.509 156.927 314.523 157.16 313.429 157.16ZM313.429 154.2C314.083 154.2 314.636 153.96 315.089 153.48C315.556 153 315.789 152.313 315.789 151.42C315.789 150.527 315.563 149.84 315.109 149.36C314.669 148.88 314.123 148.64 313.469 148.64C312.803 148.64 312.249 148.88 311.809 149.36C311.369 149.827 311.149 150.513 311.149 151.42C311.149 152.313 311.363 153 311.789 153.48C312.229 153.96 312.776 154.2 313.429 154.2ZM324.504 147.7C324.904 147.087 325.404 146.607 326.004 146.26C326.604 145.9 327.27 145.72 328.004 145.72V149.34H327.064C326.21 149.34 325.57 149.527 325.144 149.9C324.717 150.26 324.504 150.9 324.504 151.82V157H321.084V145.84H324.504V147.7Z" fill="#1A3567"/>
<path d="M85.66 142.952V156.992H82.24V142.952H85.66ZM94.9384 145.712C96.2451 145.712 97.2851 146.139 98.0584 146.992C98.8451 147.832 99.2384 148.992 99.2384 150.472V156.992H95.8384V150.932C95.8384 150.186 95.6451 149.606 95.2584 149.192C94.8718 148.779 94.3518 148.572 93.6984 148.572C93.0451 148.572 92.5251 148.779 92.1384 149.192C91.7518 149.606 91.5584 150.186 91.5584 150.932V156.992H88.1384V145.832H91.5584V147.312C91.9051 146.819 92.3718 146.432 92.9584 146.152C93.5451 145.859 94.2051 145.712 94.9384 145.712ZM107.835 154.092V156.992H106.095C104.855 156.992 103.888 156.692 103.195 156.092C102.502 155.479 102.155 154.486 102.155 153.112V148.672H100.795V145.832H102.155V143.112H105.575V145.832H107.815V148.672H105.575V153.152C105.575 153.486 105.655 153.726 105.815 153.872C105.975 154.019 106.242 154.092 106.615 154.092H107.835ZM120.26 151.232C120.26 151.552 120.24 151.886 120.2 152.232H112.46C112.513 152.926 112.733 153.459 113.12 153.832C113.52 154.192 114.007 154.372 114.58 154.372C115.433 154.372 116.027 154.012 116.36 153.292H120C119.813 154.026 119.473 154.686 118.98 155.272C118.5 155.859 117.893 156.319 117.16 156.652C116.427 156.986 115.607 157.152 114.7 157.152C113.607 157.152 112.633 156.919 111.78 156.452C110.927 155.986 110.26 155.319 109.78 154.452C109.3 153.586 109.06 152.572 109.06 151.412C109.06 150.252 109.293 149.239 109.76 148.372C110.24 147.506 110.907 146.839 111.76 146.372C112.613 145.906 113.593 145.672 114.7 145.672C115.78 145.672 116.74 145.899 117.58 146.352C118.42 146.806 119.073 147.452 119.54 148.292C120.02 149.132 120.26 150.112 120.26 151.232ZM116.76 150.332C116.76 149.746 116.56 149.279 116.16 148.932C115.76 148.586 115.26 148.412 114.66 148.412C114.087 148.412 113.6 148.579 113.2 148.912C112.813 149.246 112.573 149.719 112.48 150.332H116.76ZM125.484 147.692C125.884 147.079 126.384 146.599 126.984 146.252C127.584 145.892 128.251 145.712 128.984 145.712V149.332H128.044C127.191 149.332 126.551 149.519 126.124 149.892C125.698 150.252 125.484 150.892 125.484 151.812V156.992H122.064V145.832H125.484V147.692ZM134.039 147.692C134.439 147.079 134.939 146.599 135.539 146.252C136.139 145.892 136.806 145.712 137.539 145.712V149.332H136.599C135.746 149.332 135.106 149.519 134.679 149.892C134.252 150.252 134.039 150.892 134.039 151.812V156.992H130.619V145.832H134.039V147.692ZM150.194 145.832V156.992H146.774V155.472C146.427 155.966 145.954 156.366 145.354 156.672C144.767 156.966 144.114 157.112 143.394 157.112C142.54 157.112 141.787 156.926 141.134 156.552C140.48 156.166 139.974 155.612 139.614 154.892C139.254 154.172 139.074 153.326 139.074 152.352V145.832H142.474V151.892C142.474 152.639 142.667 153.219 143.054 153.632C143.44 154.046 143.96 154.252 144.614 154.252C145.28 154.252 145.807 154.046 146.194 153.632C146.58 153.219 146.774 152.639 146.774 151.892V145.832H150.194ZM156.07 147.412C156.403 146.892 156.863 146.472 157.45 146.152C158.037 145.832 158.723 145.672 159.51 145.672C160.43 145.672 161.263 145.906 162.01 146.372C162.757 146.839 163.343 147.506 163.77 148.372C164.21 149.239 164.43 150.246 164.43 151.392C164.43 152.539 164.21 153.552 163.77 154.432C163.343 155.299 162.757 155.972 162.01 156.452C161.263 156.919 160.43 157.152 159.51 157.152C158.737 157.152 158.05 156.992 157.45 156.672C156.863 156.352 156.403 155.939 156.07 155.432V162.312H152.65V145.832H156.07V147.412ZM160.95 151.392C160.95 150.539 160.71 149.872 160.23 149.392C159.763 148.899 159.183 148.652 158.49 148.652C157.81 148.652 157.23 148.899 156.75 149.392C156.283 149.886 156.05 150.559 156.05 151.412C156.05 152.266 156.283 152.939 156.75 153.432C157.23 153.926 157.81 154.172 158.49 154.172C159.17 154.172 159.75 153.926 160.23 153.432C160.71 152.926 160.95 152.246 160.95 151.392ZM172.444 154.092V156.992H170.704C169.464 156.992 168.498 156.692 167.804 156.092C167.111 155.479 166.764 154.486 166.764 153.112V148.672H165.404V145.832H166.764V143.112H170.184V145.832H172.424V148.672H170.184V153.152C170.184 153.486 170.264 153.726 170.424 153.872C170.584 154.019 170.851 154.092 171.224 154.092H172.444ZM179.429 157.152C178.336 157.152 177.349 156.919 176.469 156.452C175.603 155.986 174.916 155.319 174.409 154.452C173.916 153.586 173.669 152.572 173.669 151.412C173.669 150.266 173.923 149.259 174.429 148.392C174.936 147.512 175.629 146.839 176.509 146.372C177.389 145.906 178.376 145.672 179.469 145.672C180.563 145.672 181.549 145.906 182.429 146.372C183.309 146.839 184.003 147.512 184.509 148.392C185.016 149.259 185.269 150.266 185.269 151.412C185.269 152.559 185.009 153.572 184.489 154.452C183.983 155.319 183.283 155.986 182.389 156.452C181.509 156.919 180.523 157.152 179.429 157.152ZM179.429 154.192C180.083 154.192 180.636 153.952 181.089 153.472C181.556 152.992 181.789 152.306 181.789 151.412C181.789 150.519 181.563 149.832 181.109 149.352C180.669 148.872 180.123 148.632 179.469 148.632C178.803 148.632 178.249 148.872 177.809 149.352C177.369 149.819 177.149 150.506 177.149 151.412C177.149 152.306 177.363 152.992 177.789 153.472C178.229 153.952 178.776 154.192 179.429 154.192ZM190.504 147.692C190.904 147.079 191.404 146.599 192.004 146.252C192.604 145.892 193.27 145.712 194.004 145.712V149.332H193.064C192.21 149.332 191.57 149.519 191.144 149.892C190.717 150.252 190.504 150.892 190.504 151.812V156.992H187.084V145.832H190.504V147.692Z" fill="#1A3567"/>
<path d="M277.945 102.4C280.385 102.92 282.345 104.14 283.825 106.06C285.305 107.94 286.045 110.1 286.045 112.54C286.045 116.06 284.805 118.86 282.325 120.94C279.885 122.98 276.465 124 272.065 124H252.445V81.88H271.405C275.685 81.88 279.025 82.86 281.425 84.82C283.865 86.78 285.085 89.44 285.085 92.8C285.085 95.28 284.425 97.34 283.105 98.98C281.825 100.62 280.105 101.76 277.945 102.4ZM262.705 98.92H269.425C271.105 98.92 272.385 98.56 273.265 97.84C274.185 97.08 274.645 95.98 274.645 94.54C274.645 93.1 274.185 92 273.265 91.24C272.385 90.48 271.105 90.1 269.425 90.1H262.705V98.92ZM270.265 115.72C271.985 115.72 273.305 115.34 274.225 114.58C275.185 113.78 275.665 112.64 275.665 111.16C275.665 109.68 275.165 108.52 274.165 107.68C273.205 106.84 271.865 106.42 270.145 106.42H262.705V115.72H270.265Z" fill="#1A3567"/>
<path d="M728.94 192.56H713.22L710.7 200H699.96L715.2 157.88H727.08L742.32 200H731.46L728.94 192.56ZM726.3 184.64L721.08 169.22L715.92 184.64H726.3Z" fill="#1A3567"/>
<path d="M917.945 178.4C920.385 178.92 922.345 180.14 923.825 182.06C925.305 183.94 926.045 186.1 926.045 188.54C926.045 192.06 924.805 194.86 922.325 196.94C919.885 198.98 916.465 200 912.065 200H892.445V157.88H911.405C915.685 157.88 919.025 158.86 921.425 160.82C923.865 162.78 925.085 165.44 925.085 168.8C925.085 171.28 924.425 173.34 923.105 174.98C921.825 176.62 920.105 177.76 917.945 178.4ZM902.705 174.92H909.425C911.105 174.92 912.385 174.56 913.265 173.84C914.185 173.08 914.645 171.98 914.645 170.54C914.645 169.1 914.185 168 913.265 167.24C912.385 166.48 911.105 166.1 909.425 166.1H902.705V174.92ZM910.265 191.72C911.985 191.72 913.305 191.34 914.225 190.58C915.185 189.78 915.665 188.64 915.665 187.16C915.665 185.68 915.165 184.52 914.165 183.68C913.205 182.84 911.865 182.42 910.145 182.42H902.705V191.72H910.265Z" fill="#1A3567"/>
<path d="M380.618 95.2333C380.618 79.9318 393.571 67.5274 409.549 67.5274C425.527 67.5274 438.48 79.9318 438.48 95.2333C421.499 126.854 430.304 131.07 409.549 131.07C386.907 131.07 388.794 115.712 380.618 95.2333Z" fill="#FFC93C"/>
<path fill-rule="evenodd" clip-rule="evenodd" d="M391.341 128.764H389.906C389.063 128.764 388.263 129.129 387.73 129.756C387.467 130.065 387.28 130.427 387.182 130.815C387.084 131.202 387.077 131.606 387.163 131.996L392.088 154.541C392.22 155.144 392.565 155.686 393.064 156.074C393.563 156.463 394.187 156.675 394.831 156.675H395.953C397.329 158.596 400.301 161.531 405.904 162.234V162.242C405.904 162.242 406.93 162.157 408.477 162.157C410.023 162.157 411.508 162.163 411.508 162.163C416.814 161.362 419.64 158.551 420.961 156.672H422.061C423.387 156.672 424.531 155.782 424.804 154.538L429.729 131.993C429.902 131.201 429.694 130.379 429.161 129.753C428.898 129.443 428.566 129.194 428.19 129.022C427.814 128.851 427.402 128.762 426.986 128.761H426.102C426.694 122.543 429.357 119.184 432.385 115.367C436.163 110.606 440.446 105.21 440.446 94.0447C440.446 87.72 437.235 80.5968 431.855 74.9932C425.669 68.5497 417.446 65 408.706 65C391.375 65 376.731 78.9199 376.731 95.3981C376.731 103.554 380.757 109.395 384.647 115.046C387.681 119.454 390.566 123.653 391.341 128.761V128.764ZM419.783 151.309H419.321C418.153 151.309 417.121 151.968 416.712 153.016C416.64 153.179 414.914 157.025 408.477 157.025C402.04 157.025 400.242 153.158 400.18 153.016C399.975 152.513 399.616 152.081 399.15 151.777C398.685 151.472 398.134 151.309 397.571 151.309H397.109L393.356 134.13H423.536L419.783 151.309ZM408.703 70.3691C424.658 70.3691 434.839 84.3928 434.839 94.0477C434.839 103.703 431.48 107.638 427.922 112.123C424.565 116.352 421.103 120.712 420.474 128.767H411.508V119.305H414.341C414.749 119.305 415.153 119.22 415.523 119.055C415.894 118.889 416.222 118.649 416.485 118.35C416.749 118.05 416.941 117.699 417.047 117.321C417.154 116.944 417.172 116.548 417.102 116.162L413.439 96.0066C413.203 94.7007 412.019 93.7836 410.68 93.7836C410.522 93.7836 410.358 93.7954 410.197 93.8221C409.832 93.8826 409.483 94.0119 409.171 94.2024C408.859 94.393 408.589 94.641 408.378 94.9322C408.158 94.6298 407.876 94.3741 407.548 94.1811C407.221 93.9881 406.855 93.8618 406.475 93.8103C404.953 93.6025 403.524 94.6205 403.304 96.0867L400.298 116.242C400.183 117.014 400.422 117.792 400.955 118.379C401.218 118.67 401.543 118.903 401.908 119.062C402.274 119.222 402.67 119.305 403.072 119.305H405.904V128.767H397.003C396.238 122.131 392.73 117.038 389.327 112.096C385.731 106.878 382.335 101.948 382.335 95.4041C382.335 82.0719 394.657 70.375 408.706 70.375L408.703 70.3691ZM406.301 113.933L408.421 99.7166L411.006 113.933H406.301Z" fill="#1A3567"/>
<path d="M421.724 154.792L409.931 162L397.517 154.792L391 134H427L421.724 154.792Z" fill="#1A3567"/>
<path d="M1120.05 237.632C1120.05 225.673 1130.21 215.978 1142.75 215.978C1155.29 215.978 1165.46 225.673 1165.46 237.632C1152.13 262.345 1159.04 265.641 1142.75 265.641C1124.99 265.641 1126.47 253.637 1120.05 237.632Z" fill="#FFC93C"/>
<path fill-rule="evenodd" clip-rule="evenodd" d="M1128.47 263.835H1127.34C1126.68 263.835 1126.05 264.121 1125.63 264.61C1125.43 264.852 1125.28 265.135 1125.2 265.438C1125.12 265.741 1125.12 266.056 1125.19 266.361L1129.05 283.981C1129.15 284.453 1129.43 284.876 1129.82 285.179C1130.21 285.483 1130.7 285.649 1131.2 285.649H1132.08C1133.16 287.15 1135.5 289.444 1139.89 289.994V290C1139.89 290 1140.7 289.934 1141.91 289.934C1143.13 289.934 1144.29 289.938 1144.29 289.938C1148.45 289.312 1150.67 287.115 1151.71 285.647H1152.57C1153.61 285.647 1154.51 284.951 1154.72 283.979L1158.59 266.359C1158.73 265.74 1158.56 265.097 1158.14 264.608C1157.94 264.366 1157.68 264.171 1157.38 264.037C1157.09 263.903 1156.76 263.833 1156.44 263.833H1155.74C1156.21 258.973 1158.3 256.347 1160.67 253.364C1163.64 249.644 1167 245.427 1167 236.7C1167 231.757 1164.48 226.19 1160.26 221.81C1155.4 216.774 1148.95 214 1142.09 214C1128.49 214 1117 224.879 1117 237.758C1117 244.132 1120.16 248.697 1123.21 253.114C1125.59 256.558 1127.86 259.841 1128.47 263.833V263.835ZM1150.78 281.455H1150.42C1149.51 281.455 1148.7 281.97 1148.37 282.789C1148.32 282.917 1146.96 285.923 1141.91 285.923C1136.86 285.923 1135.45 282.9 1135.4 282.789C1135.24 282.396 1134.96 282.059 1134.59 281.821C1134.23 281.583 1133.8 281.455 1133.35 281.455H1132.99L1130.05 268.029H1153.73L1150.78 281.455ZM1142.09 218.196C1154.61 218.196 1162.6 229.157 1162.6 236.702C1162.6 244.248 1159.96 247.324 1157.17 250.829C1154.54 254.134 1151.82 257.542 1151.33 263.838H1144.29V256.443H1146.51C1146.83 256.442 1147.15 256.376 1147.44 256.247C1147.73 256.118 1147.99 255.929 1148.2 255.696C1148.4 255.462 1148.55 255.187 1148.64 254.892C1148.72 254.597 1148.74 254.287 1148.68 253.986L1145.81 238.233C1145.62 237.213 1144.69 236.496 1143.64 236.496C1143.52 236.496 1143.39 236.505 1143.26 236.526C1142.98 236.573 1142.7 236.674 1142.46 236.823C1142.21 236.972 1142 237.166 1141.83 237.394C1141.66 237.157 1141.44 236.957 1141.18 236.807C1140.93 236.656 1140.64 236.557 1140.34 236.517C1139.15 236.354 1138.03 237.15 1137.85 238.296L1135.49 254.049C1135.4 254.652 1135.59 255.259 1136.01 255.719C1136.22 255.946 1136.47 256.128 1136.76 256.253C1137.04 256.378 1137.36 256.442 1137.67 256.443H1139.89V263.838H1132.91C1132.31 258.651 1129.55 254.67 1126.88 250.808C1124.06 246.73 1121.4 242.877 1121.4 237.762C1121.4 227.343 1131.07 218.201 1142.09 218.201L1142.09 218.196ZM1140.21 252.244L1141.87 241.133L1143.9 252.244H1140.21Z" fill="#1A3567"/>
<path d="M1152.31 284.179L1143.05 289.812L1133.31 284.179L1128.2 267.929H1156.45L1152.31 284.179Z" fill="#1A3567"/>
<path fill-rule="evenodd" clip-rule="evenodd" d="M1128.47 583.835H1127.34C1126.68 583.835 1126.05 584.121 1125.63 584.61C1125.43 584.852 1125.28 585.135 1125.2 585.438C1125.12 585.741 1125.12 586.056 1125.19 586.361L1129.05 603.981C1129.15 604.453 1129.43 604.876 1129.82 605.179C1130.21 605.483 1130.7 605.649 1131.2 605.649H1132.08C1133.16 607.15 1135.5 609.444 1139.89 609.994V610C1139.89 610 1140.7 609.934 1141.91 609.934C1143.13 609.934 1144.29 609.938 1144.29 609.938C1148.45 609.312 1150.67 607.115 1151.71 605.647H1152.57C1153.61 605.647 1154.51 604.951 1154.73 603.979L1158.59 586.359C1158.73 585.74 1158.56 585.097 1158.14 584.608C1157.94 584.366 1157.68 584.171 1157.38 584.037C1157.09 583.903 1156.76 583.833 1156.44 583.833H1155.74C1156.21 578.973 1158.3 576.347 1160.67 573.364C1163.64 569.644 1167 565.427 1167 556.7C1167 551.757 1164.48 546.19 1160.26 541.81C1155.4 536.774 1148.95 534 1142.09 534C1128.49 534 1117 544.879 1117 557.758C1117 564.132 1120.16 568.697 1123.21 573.114C1125.59 576.558 1127.86 579.841 1128.47 583.833V583.835ZM1150.78 601.455H1150.42C1149.51 601.455 1148.7 601.97 1148.37 602.789C1148.32 602.917 1146.96 605.923 1141.91 605.923C1136.86 605.923 1135.45 602.9 1135.4 602.789C1135.24 602.396 1134.96 602.059 1134.59 601.821C1134.23 601.583 1133.8 601.455 1133.35 601.455H1132.99L1130.05 588.029H1153.73L1150.78 601.455ZM1142.09 538.196C1154.61 538.196 1162.6 549.157 1162.6 556.702C1162.6 564.248 1159.96 567.324 1157.17 570.829C1154.54 574.134 1151.82 577.542 1151.33 583.838H1144.29V576.443H1146.51C1146.83 576.442 1147.15 576.376 1147.44 576.247C1147.73 576.118 1147.99 575.929 1148.2 575.696C1148.4 575.462 1148.55 575.187 1148.64 574.892C1148.72 574.597 1148.74 574.287 1148.68 573.986L1145.81 558.233C1145.62 557.213 1144.69 556.496 1143.64 556.496C1143.52 556.496 1143.39 556.505 1143.26 556.526C1142.98 556.573 1142.7 556.674 1142.46 556.823C1142.21 556.972 1142 557.166 1141.83 557.394C1141.66 557.157 1141.44 556.957 1141.18 556.807C1140.93 556.656 1140.64 556.557 1140.34 556.517C1139.15 556.354 1138.03 557.15 1137.85 558.296L1135.49 574.049C1135.4 574.652 1135.59 575.259 1136.01 575.719C1136.22 575.946 1136.47 576.128 1136.76 576.253C1137.04 576.378 1137.36 576.442 1137.67 576.443H1139.89V583.838H1132.91C1132.31 578.651 1129.55 574.67 1126.88 570.808C1124.06 566.73 1121.4 562.877 1121.4 557.762C1121.4 547.343 1131.07 538.201 1142.09 538.201L1142.09 538.196ZM1140.21 572.244L1141.87 561.133L1143.9 572.244H1140.21Z" fill="#1A3567"/>
<path d="M1152.31 604.179L1143.05 609.812L1133.31 604.179L1128.2 587.929H1156.45L1152.31 604.179Z" fill="#1A3567"/>
<path fill-rule="evenodd" clip-rule="evenodd" d="M1128.47 370.835H1127.34C1126.68 370.835 1126.05 371.121 1125.63 371.61C1125.43 371.852 1125.28 372.135 1125.2 372.438C1125.12 372.741 1125.12 373.056 1125.19 373.361L1129.05 390.981C1129.15 391.453 1129.43 391.876 1129.82 392.179C1130.21 392.483 1130.7 392.649 1131.2 392.649H1132.08C1133.16 394.15 1135.5 396.444 1139.89 396.994V397C1139.89 397 1140.7 396.934 1141.91 396.934C1143.13 396.934 1144.29 396.938 1144.29 396.938C1148.45 396.312 1150.67 394.115 1151.71 392.647H1152.57C1153.61 392.647 1154.51 391.951 1154.73 390.979L1158.59 373.359C1158.73 372.74 1158.56 372.097 1158.14 371.608C1157.94 371.366 1157.68 371.171 1157.38 371.037C1157.09 370.903 1156.76 370.833 1156.44 370.833H1155.74C1156.21 365.973 1158.3 363.347 1160.67 360.364C1163.64 356.644 1167 352.427 1167 343.7C1167 338.757 1164.48 333.19 1160.26 328.81C1155.4 323.774 1148.95 321 1142.09 321C1128.49 321 1117 331.879 1117 344.758C1117 351.132 1120.16 355.697 1123.21 360.114C1125.59 363.558 1127.86 366.841 1128.47 370.833V370.835ZM1150.78 388.455H1150.42C1149.51 388.455 1148.7 388.97 1148.37 389.789C1148.32 389.917 1146.96 392.923 1141.91 392.923C1136.86 392.923 1135.45 389.9 1135.4 389.789C1135.24 389.396 1134.96 389.059 1134.59 388.821C1134.23 388.583 1133.8 388.455 1133.35 388.455H1132.99L1130.05 375.029H1153.73L1150.78 388.455ZM1142.09 325.196C1154.61 325.196 1162.6 336.157 1162.6 343.702C1162.6 351.248 1159.96 354.324 1157.17 357.829C1154.54 361.134 1151.82 364.542 1151.33 370.838H1144.29V363.443H1146.51C1146.83 363.442 1147.15 363.376 1147.44 363.247C1147.73 363.118 1147.99 362.929 1148.2 362.696C1148.4 362.462 1148.55 362.187 1148.64 361.892C1148.72 361.597 1148.74 361.287 1148.68 360.986L1145.81 345.233C1145.62 344.213 1144.69 343.496 1143.64 343.496C1143.52 343.496 1143.39 343.505 1143.26 343.526C1142.98 343.573 1142.7 343.674 1142.46 343.823C1142.21 343.972 1142 344.166 1141.83 344.394C1141.66 344.157 1141.44 343.957 1141.18 343.807C1140.93 343.656 1140.64 343.557 1140.34 343.517C1139.15 343.354 1138.03 344.15 1137.85 345.296L1135.49 361.049C1135.4 361.652 1135.59 362.259 1136.01 362.719C1136.22 362.946 1136.47 363.128 1136.76 363.253C1137.04 363.378 1137.36 363.442 1137.67 363.443H1139.89V370.838H1132.91C1132.31 365.651 1129.55 361.67 1126.88 357.808C1124.06 353.73 1121.4 349.877 1121.4 344.762C1121.4 334.343 1131.07 325.201 1142.09 325.201L1142.09 325.196ZM1140.21 359.244L1141.87 348.133L1143.9 359.244H1140.21Z" fill="#1A3567"/>
<path d="M1152.31 391.179L1143.05 396.812L1133.31 391.179L1128.2 374.929H1156.45L1152.31 391.179Z" fill="#1A3567"/>
<path fill-rule="evenodd" clip-rule="evenodd" d="M1128.47 476.835H1127.34C1126.68 476.835 1126.05 477.121 1125.63 477.61C1125.43 477.852 1125.28 478.135 1125.2 478.438C1125.12 478.741 1125.12 479.056 1125.19 479.361L1129.05 496.981C1129.15 497.453 1129.43 497.876 1129.82 498.179C1130.21 498.483 1130.7 498.649 1131.2 498.649H1132.08C1133.16 500.15 1135.5 502.444 1139.89 502.994V503C1139.89 503 1140.7 502.934 1141.91 502.934C1143.13 502.934 1144.29 502.938 1144.29 502.938C1148.45 502.312 1150.67 500.115 1151.71 498.647H1152.57C1153.61 498.647 1154.51 497.951 1154.73 496.979L1158.59 479.359C1158.73 478.74 1158.56 478.097 1158.14 477.608C1157.94 477.366 1157.68 477.171 1157.38 477.037C1157.09 476.903 1156.76 476.833 1156.44 476.833H1155.74C1156.21 471.973 1158.3 469.347 1160.67 466.364C1163.64 462.644 1167 458.427 1167 449.7C1167 444.757 1164.48 439.19 1160.26 434.81C1155.4 429.774 1148.95 427 1142.09 427C1128.49 427 1117 437.879 1117 450.758C1117 457.132 1120.16 461.697 1123.21 466.114C1125.59 469.558 1127.86 472.841 1128.47 476.833V476.835ZM1150.78 494.455H1150.42C1149.51 494.455 1148.7 494.97 1148.37 495.789C1148.32 495.917 1146.96 498.923 1141.91 498.923C1136.86 498.923 1135.45 495.9 1135.4 495.789C1135.24 495.396 1134.96 495.059 1134.59 494.821C1134.23 494.583 1133.8 494.455 1133.35 494.455H1132.99L1130.05 481.029H1153.73L1150.78 494.455ZM1142.09 431.196C1154.61 431.196 1162.6 442.157 1162.6 449.702C1162.6 457.248 1159.96 460.324 1157.17 463.829C1154.54 467.134 1151.82 470.542 1151.33 476.838H1144.29V469.443H1146.51C1146.83 469.442 1147.15 469.376 1147.44 469.247C1147.73 469.118 1147.99 468.929 1148.2 468.696C1148.4 468.462 1148.55 468.187 1148.64 467.892C1148.72 467.597 1148.74 467.287 1148.68 466.986L1145.81 451.233C1145.62 450.213 1144.69 449.496 1143.64 449.496C1143.52 449.496 1143.39 449.505 1143.26 449.526C1142.98 449.573 1142.7 449.674 1142.46 449.823C1142.21 449.972 1142 450.166 1141.83 450.394C1141.66 450.157 1141.44 449.957 1141.18 449.807C1140.93 449.656 1140.64 449.557 1140.34 449.517C1139.15 449.354 1138.03 450.15 1137.85 451.296L1135.49 467.049C1135.4 467.652 1135.59 468.259 1136.01 468.719C1136.22 468.946 1136.47 469.128 1136.76 469.253C1137.04 469.378 1137.36 469.442 1137.67 469.443H1139.89V476.838H1132.91C1132.31 471.651 1129.55 467.67 1126.88 463.808C1124.06 459.73 1121.4 455.877 1121.4 450.762C1121.4 440.343 1131.07 431.201 1142.09 431.201L1142.09 431.196ZM1140.21 465.244L1141.87 454.133L1143.9 465.244H1140.21Z" fill="#1A3567"/>
<path d="M1152.31 497.179L1143.05 502.812L1133.31 497.179L1128.2 480.929H1156.45L1152.31 497.179Z" fill="#1A3567"/>
<path d="M570 252C570 256.418 573.582 260 578 260C582.418 260 586 256.418 586 252C586 247.582 582.418 244 578 244C573.582 244 570 247.582 570 252ZM1031 252C1031 256.418 1034.58 260 1039 260C1043.42 260 1047 256.418 1047 252C1047 247.582 1043.42 244 1039 244C1034.58 244 1031 247.582 1031 252ZM578 252V253.5H1039V252V250.5H578V252Z" fill="#1A3567"/>
<path d="M570 360C570 364.418 573.582 368 578 368C582.418 368 586 364.418 586 360C586 355.582 582.418 352 578 352C573.582 352 570 355.582 570 360ZM1031 360C1031 364.418 1034.58 368 1039 368C1043.42 368 1047 364.418 1047 360C1047 355.582 1043.42 352 1039 352C1034.58 352 1031 355.582 1031 360ZM578 360V361.5H1039V360V358.5H578V360Z" fill="#1A3567"/>
<path d="M570 466C570 470.418 573.582 474 578 474C582.418 474 586 470.418 586 466C586 461.582 582.418 458 578 458C573.582 458 570 461.582 570 466ZM1031 466C1031 470.418 1034.58 474 1039 474C1043.42 474 1047 470.418 1047 466C1047 461.582 1043.42 458 1039 458C1034.58 458 1031 461.582 1031 466ZM578 466V467.5H1039V466V464.5H578V466Z" fill="#1A3567"/>
<path d="M570 568C570 572.418 573.582 576 578 576C582.418 576 586 572.418 586 568C586 563.582 582.418 560 578 560C573.582 560 570 563.582 570 568ZM1031 568C1031 572.418 1034.58 576 1039 576C1043.42 576 1047 572.418 1047 568C1047 563.582 1043.42 560 1039 560C1034.58 560 1031 563.582 1031 568ZM578 568V569.5H1039V568V566.5H578V568Z" fill="#1A3567"/>
<rect x="690.5" y="550.5" width="62" height="35" rx="9.5" fill="#ECFAFF" stroke="#1A3567" stroke-width="3"/>
<path d="M722 551V583" stroke="#1A3567" stroke-width="3" stroke-linecap="square"/>
<rect x="877.5" y="550.5" width="62" height="35" rx="9.5" fill="#ECFAFF" stroke="#1A3567" stroke-width="3"/>
<path d="M909 551V583" stroke="#1A3567" stroke-width="3" stroke-linecap="square"/>
<rect x="690.5" y="342.5" width="62" height="35" rx="9.5" fill="#ECFAFF" stroke="#1A3567" stroke-width="3"/>
<path d="M692 351C692 347.134 695.134 344 699 344H722V376H699C695.134 376 692 372.866 692 369V351Z" fill="#1A3567"/>
<path d="M722 343V375" stroke="#1A3567" stroke-width="3" stroke-linecap="square"/>
<rect x="877.5" y="448.5" width="62" height="35" rx="9.5" fill="#ECFAFF" stroke="#1A3567" stroke-width="3"/>
<path d="M879 457C879 453.134 882.134 450 886 450H909V482H886C882.134 482 879 478.866 879 475V457Z" fill="#1A3567"/>
<path d="M909 449V481" stroke="#1A3567" stroke-width="3" stroke-linecap="square"/>
<rect x="690.5" y="232.5" width="62" height="35" rx="9.5" fill="#ECFAFF" stroke="#1A3567" stroke-width="3"/>
<path d="M692 241C692 237.134 695.134 234 699 234H722V266H699C695.134 266 692 262.866 692 259V241Z" fill="#1A3567"/>
<path d="M722 233V265" stroke="#1A3567" stroke-width="3" stroke-linecap="square"/>
<rect x="877.5" y="232.5" width="62" height="35" rx="9.5" fill="#ECFAFF" stroke="#1A3567" stroke-width="3"/>
<path d="M879 241C879 237.134 882.134 234 886 234H909V266H886C882.134 266 879 262.866 879 259V241Z" fill="#1A3567"/>
<path d="M909 233V265" stroke="#1A3567" stroke-width="3" stroke-linecap="square"/>
<rect x="877.5" y="346.5" width="62" height="35" rx="9.5" fill="#ECFAFF" stroke="#1A3567" stroke-width="3"/>
<path d="M909 347V379" stroke="#1A3567" stroke-width="3" stroke-linecap="square"/>
<rect x="690.5" y="448.5" width="62" height="35" rx="9.5" fill="#ECFAFF" stroke="#1A3567" stroke-width="3"/>
<path d="M722 449V481" stroke="#1A3567" stroke-width="3" stroke-linecap="square"/>
<defs>
<linearGradient id="paint0_linear_410_4543" x1="640" y1="0" x2="640" y2="720" gradientUnits="userSpaceOnUse">
<stop stop-color="#A3DFEF"/>
<stop offset="1" stop-color="#ECFAFF"/>
</linearGradient>
</defs>
</svg>
