<svg width="1280" height="720" viewBox="0 0 1280 720" fill="none" xmlns="http://www.w3.org/2000/svg">
<rect width="1280" height="720" fill="url(#paint0_linear_410_4526)"/>
<rect x="64" y="99" width="354" height="328" rx="20" fill="#ECFAFF"/>
<path d="M130 354.5V162H241V354.5H130Z" fill="url(#paint1_linear_410_4526)" stroke="url(#paint2_linear_410_4526)"/>
<path d="M138 345.5V170.5H234V345.5H138Z" fill="url(#paint3_linear_410_4526)" stroke="white"/>
<circle cx="5" cy="5" r="5" transform="matrix(-1 0 0 1 155 253.5)" fill="white"/>
<rect x="293.5" y="167.5" width="78" height="94" fill="#ECFAFF" stroke="#1A3567" stroke-width="5"/>
<path d="M333 168V262.5" stroke="#1A3567" stroke-width="3"/>
<path d="M291 199H371" stroke="#1A3567" stroke-width="3"/>
<path d="M291 232H371" stroke="#1A3567" stroke-width="3"/>
<rect x="463" y="99" width="354" height="328" rx="20" fill="#ECFAFF"/>
<path d="M496 354.5V162H607V354.5H496Z" fill="url(#paint4_linear_410_4526)" stroke="url(#paint5_linear_410_4526)"/>
<path d="M504 345.5V170.5H600V345.5H504Z" fill="url(#paint6_linear_410_4526)" stroke="white"/>
<circle cx="5" cy="5" r="5" transform="matrix(-1 0 0 1 521 253.5)" fill="white"/>
<rect x="659.5" y="167.5" width="78" height="94" fill="#2E91E9" stroke="#1A3567" stroke-width="5"/>
<path d="M737 166.007L789 153V276L737 262.052V166.007Z" fill="#ECFAFF" stroke="#1A3567" stroke-width="3"/>
<path d="M761 159V269" stroke="#1A3567" stroke-width="3"/>
<path d="M737 198.994L789.809 190.78" stroke="#1A3567" stroke-width="3"/>
<path d="M789.605 233.869L736.895 230.127" stroke="#1A3567" stroke-width="3"/>
<rect x="862" y="99" width="354" height="328" rx="20" fill="#ECFAFF"/>
<rect x="901" y="168" width="106" height="186" stroke="url(#paint7_linear_410_4526)" stroke-width="6"/>
<path d="M1002 349V176.5L913 153V368.5L1002 349Z" fill="url(#paint8_linear_410_4526)" stroke="white"/>
<circle cx="5" cy="5" r="5" transform="matrix(-1 0 0 1 929 256)" fill="white"/>
<rect x="1062.5" y="167.5" width="78" height="94" fill="#2E91E9" stroke="#1A3567" stroke-width="5"/>
<path d="M1140 166.007L1192 153V276L1140 262.052V166.007Z" fill="#ECFAFF" stroke="#1A3567" stroke-width="3"/>
<path d="M1164 159V269" stroke="#1A3567" stroke-width="3"/>
<path d="M1140 198.994L1192.81 190.78" stroke="#1A3567" stroke-width="3"/>
<path d="M1192.6 233.869L1139.9 230.127" stroke="#1A3567" stroke-width="3"/>
<ellipse cx="639.993" cy="559.758" rx="45.6359" ry="25.8591" fill="#302E2E"/>
<ellipse cx="639.891" cy="555.14" rx="45.6359" ry="25.8591" fill="url(#paint9_linear_410_4526)"/>
<mask id="mask0_410_4526" style="mask-type:alpha" maskUnits="userSpaceOnUse" x="601" y="481" width="78" height="92">
<circle cx="639.731" cy="519.394" r="38.2015" transform="rotate(-0.284188 639.731 519.394)" fill="#D9D9D9"/>
<path d="M678.459 559.132L677.927 518.068L601.808 518.445L602.631 555.755C616.85 578.151 657.159 577.917 678.459 559.132Z" fill="#D9D9D9"/>
</mask>
<g mask="url(#mask0_410_4526)">
<rect x="586.955" y="483.797" width="132" height="156" transform="rotate(-9.40369 586.955 483.797)" fill="url(#paint10_radial_410_4526)"/>
<ellipse cx="676.559" cy="493.093" rx="66" ry="65" transform="rotate(-9.40369 676.559 493.093)" fill="url(#paint11_radial_410_4526)"/>
<ellipse cx="632.905" cy="578.366" rx="66" ry="65" transform="rotate(-9.40369 632.905 578.366)" fill="url(#paint12_radial_410_4526)"/>
<path d="M639.046 524.524C629.442 524.242 629.171 533.505 628.835 544.931L628.454 572.644L647.661 573.207L648.043 545.495C648.378 534.069 648.65 524.806 639.046 524.524Z" fill="#FB6B54" fill-opacity="0.4"/>
</g>
<ellipse cx="233.994" cy="559.765" rx="45.6359" ry="25.8591" fill="#302E2E"/>
<ellipse cx="233.891" cy="555.148" rx="45.6359" ry="25.8591" fill="url(#paint13_linear_410_4526)"/>
<mask id="mask1_410_4526" style="mask-type:alpha" maskUnits="userSpaceOnUse" x="195" y="481" width="78" height="92">
<circle cx="233.732" cy="519.402" r="38.2015" transform="rotate(-0.284188 233.732 519.402)" fill="#D9D9D9"/>
<path d="M272.459 559.14L271.927 518.076L195.808 518.453L196.631 555.763C210.85 578.159 251.159 577.925 272.459 559.14Z" fill="#D9D9D9"/>
</mask>
<g mask="url(#mask1_410_4526)">
<rect x="180.955" y="483.805" width="132" height="156" transform="rotate(-9.40369 180.955 483.805)" fill="url(#paint14_radial_410_4526)"/>
<ellipse cx="270.559" cy="493.101" rx="66" ry="65" transform="rotate(-9.40369 270.559 493.101)" fill="url(#paint15_radial_410_4526)"/>
<ellipse cx="226.906" cy="578.374" rx="66" ry="65" transform="rotate(-9.40369 226.906 578.374)" fill="url(#paint16_radial_410_4526)"/>
<path d="M233.046 524.532C223.442 524.25 223.171 533.513 222.835 544.939L222.454 572.651L241.661 573.215L242.043 545.503C242.378 534.076 242.65 524.813 233.046 524.532Z" fill="#CBB8B8" fill-opacity="0.5"/>
</g>
<path d="M717.907 476.425C714.554 476.388 713.211 480.033 715.679 482.465C716.222 483 717.512 484.443 718.567 485.69C723.768 491.828 727.488 499.058 729.424 506.793C731.361 514.527 731.459 522.549 729.711 530.205C728.042 537.669 724.522 544.574 719.138 550.92C717.666 552.655 716.445 554.304 716.32 554.721C715.836 556.372 716.802 558.106 718.61 558.818C720.555 559.584 721.195 559.248 724.115 556.007C733.03 546.114 737.874 533.291 737.962 519.381C738.052 504.6 731.557 488.667 721.347 478.607L719.144 476.437L717.907 476.425Z" fill="#B92221"/>
<path d="M709.435 486.425C708.699 486.27 707.937 486.368 707.274 486.702C706.61 487.037 706.085 487.589 705.783 488.268C705.019 489.898 705.369 490.908 707.518 493.335C711.128 497.261 713.87 501.897 715.561 506.93C719.546 518.682 717.108 532.285 709.45 541.032C708.565 542.049 707.531 543.265 707.155 543.753C705.325 546.144 707.064 549.369 710.154 549.321C711.064 549.3 711.433 549.126 712.478 548.184C714.923 546.011 718.176 541.379 720.2 537.199C727.797 521.507 724.816 501.991 712.861 489.136C710.607 486.72 710.489 486.627 709.435 486.425Z" fill="#B92221"/>
<path d="M559.628 476.425C562.981 476.392 564.32 480.038 561.849 482.467C561.306 483.001 560.014 484.443 558.958 485.689C553.749 491.821 550.021 499.047 548.076 506.78C546.131 514.512 546.024 522.533 547.763 530.192C549.424 537.657 552.936 544.566 558.313 550.918C559.783 552.655 561.002 554.306 561.127 554.723C561.609 556.374 560.641 558.107 558.832 558.817C556.886 559.581 556.247 559.244 553.33 556C544.427 546.096 539.597 533.268 539.525 519.358C539.451 504.577 545.964 488.651 556.186 478.603L558.391 476.435L559.628 476.425Z" fill="#B92221"/>
<path d="M568.088 486.435C568.824 486.28 569.586 486.379 570.249 486.715C570.912 487.05 571.437 487.602 571.738 488.282C572.5 489.913 572.149 490.922 569.997 493.347C566.383 497.269 563.635 501.902 561.939 506.933C557.94 518.68 560.363 532.286 568.011 541.041C568.896 542.06 569.928 543.276 570.304 543.766C572.13 546.159 570.388 549.382 567.298 549.33C566.389 549.308 566.019 549.133 564.976 548.191C562.533 546.015 559.285 541.379 557.266 537.196C549.686 521.496 552.69 501.984 564.659 489.142C566.916 486.729 567.034 486.635 568.088 486.435Z" fill="#B92221"/>
<ellipse cx="1038.99" cy="559.758" rx="45.6359" ry="25.8591" fill="#302E2E"/>
<ellipse cx="1038.89" cy="555.14" rx="45.6359" ry="25.8591" fill="url(#paint17_linear_410_4526)"/>
<mask id="mask2_410_4526" style="mask-type:alpha" maskUnits="userSpaceOnUse" x="1000" y="481" width="78" height="92">
<circle cx="1038.73" cy="519.394" r="38.2015" transform="rotate(-0.284188 1038.73 519.394)" fill="#D9D9D9"/>
<path d="M1077.46 559.132L1076.93 518.068L1000.81 518.445L1001.63 555.755C1015.85 578.151 1056.16 577.917 1077.46 559.132Z" fill="#D9D9D9"/>
</mask>
<g mask="url(#mask2_410_4526)">
<rect x="985.955" y="483.797" width="132" height="156" transform="rotate(-9.40369 985.955 483.797)" fill="url(#paint18_radial_410_4526)"/>
<ellipse cx="1075.56" cy="493.093" rx="66" ry="65" transform="rotate(-9.40369 1075.56 493.093)" fill="url(#paint19_radial_410_4526)"/>
<ellipse cx="1031.91" cy="578.366" rx="66" ry="65" transform="rotate(-9.40369 1031.91 578.366)" fill="url(#paint20_radial_410_4526)"/>
<path d="M1038.05 524.524C1028.44 524.242 1028.17 533.505 1027.84 544.931L1027.45 572.644L1046.66 573.207L1047.04 545.495C1047.38 534.069 1047.65 524.806 1038.05 524.524Z" fill="#FB6B54" fill-opacity="0.4"/>
</g>
<path d="M1114.91 476.417C1111.55 476.38 1110.21 480.025 1112.68 482.457C1113.22 482.992 1114.51 484.435 1115.57 485.682C1120.77 491.82 1124.49 499.05 1126.42 506.785C1128.36 514.52 1128.46 522.541 1126.71 530.197C1125.04 537.661 1121.52 544.566 1116.14 550.912C1114.67 552.647 1113.45 554.297 1113.32 554.714C1112.84 556.364 1113.8 558.098 1115.61 558.81C1117.56 559.576 1118.19 559.241 1121.11 555.999C1130.03 546.106 1134.87 533.283 1134.96 519.373C1135.05 504.592 1128.56 488.659 1118.35 478.599L1116.14 476.429L1114.91 476.417Z" fill="#B92221"/>
<path d="M1106.44 486.417C1105.7 486.262 1104.94 486.36 1104.27 486.695C1103.61 487.029 1103.08 487.581 1102.78 488.26C1102.02 489.891 1102.37 490.9 1104.52 493.327C1108.13 497.253 1110.87 501.889 1112.56 506.923C1116.55 518.674 1114.11 532.277 1106.45 541.024C1105.56 542.041 1104.53 543.257 1104.15 543.745C1102.33 546.136 1104.06 549.361 1107.15 549.313C1108.06 549.292 1108.43 549.118 1109.48 548.177C1111.92 546.003 1115.18 541.372 1117.2 537.191C1124.8 521.499 1121.82 501.983 1109.86 489.128C1107.61 486.712 1107.49 486.619 1106.44 486.417Z" fill="#B92221"/>
<path d="M956.628 476.417C959.981 476.384 961.32 480.03 958.849 482.459C958.306 482.994 957.014 484.435 955.958 485.681C950.749 491.813 947.021 499.039 945.076 506.772C943.131 514.504 943.024 522.525 944.763 530.184C946.424 537.65 949.936 544.559 955.313 550.91C956.783 552.647 958.002 554.298 958.127 554.715C958.609 556.366 957.641 558.099 955.832 558.809C953.886 559.573 953.247 559.237 950.33 555.992C941.427 546.089 936.597 533.26 936.525 519.35C936.451 504.569 942.964 488.644 953.186 478.595L955.391 476.427L956.628 476.417Z" fill="#B92221"/>
<path d="M965.088 486.427C965.824 486.273 966.586 486.371 967.249 486.707C967.912 487.042 968.437 487.595 968.738 488.274C969.5 489.905 969.149 490.915 966.997 493.339C963.383 497.261 960.635 501.894 958.939 506.925C954.94 518.672 957.363 532.278 965.011 541.033C965.896 542.052 966.928 543.269 967.304 543.758C969.13 546.151 967.388 549.374 964.298 549.322C963.389 549.3 963.019 549.126 961.976 548.183C959.533 546.007 956.285 541.372 954.266 537.189C946.686 521.488 949.69 501.976 961.659 489.134C963.916 486.721 964.034 486.627 965.088 486.427Z" fill="#B92221"/>
<path d="M510.903 628.28H503.043L501.783 632H496.413L504.033 610.94H509.973L517.593 632H512.163L510.903 628.28ZM509.583 624.32L506.973 616.61L504.393 624.32H509.583ZM525.042 609.8V632H519.912V609.8H525.042ZM527.739 623.6C527.739 621.88 528.059 620.37 528.699 619.07C529.359 617.77 530.249 616.77 531.369 616.07C532.489 615.37 533.739 615.02 535.119 615.02C536.299 615.02 537.329 615.26 538.209 615.74C539.109 616.22 539.799 616.85 540.279 617.63V615.26H545.409V632H540.279V629.63C539.779 630.41 539.079 631.04 538.179 631.52C537.299 632 536.269 632.24 535.089 632.24C533.729 632.24 532.489 631.89 531.369 631.19C530.249 630.47 529.359 629.46 528.699 628.16C528.059 626.84 527.739 625.32 527.739 623.6ZM540.279 623.63C540.279 622.35 539.919 621.34 539.199 620.6C538.499 619.86 537.639 619.49 536.619 619.49C535.599 619.49 534.729 619.86 534.009 620.6C533.309 621.32 532.959 622.32 532.959 623.6C532.959 624.88 533.309 625.9 534.009 626.66C534.729 627.4 535.599 627.77 536.619 627.77C537.639 627.77 538.499 627.4 539.199 626.66C539.919 625.92 540.279 624.91 540.279 623.63ZM554.251 618.05C554.851 617.13 555.601 616.41 556.501 615.89C557.401 615.35 558.401 615.08 559.501 615.08V620.51H558.091C556.811 620.51 555.851 620.79 555.211 621.35C554.571 621.89 554.251 622.85 554.251 624.23V632H549.121V615.26H554.251V618.05ZM583.313 615.08C585.393 615.08 587.043 615.71 588.263 616.97C589.503 618.23 590.123 619.98 590.123 622.22V632H585.023V622.91C585.023 621.83 584.733 621 584.153 620.42C583.593 619.82 582.813 619.52 581.813 619.52C580.813 619.52 580.023 619.82 579.443 620.42C578.883 621 578.603 621.83 578.603 622.91V632H573.503V622.91C573.503 621.83 573.213 621 572.633 620.42C572.073 619.82 571.293 619.52 570.293 619.52C569.293 619.52 568.503 619.82 567.923 620.42C567.363 621 567.083 621.83 567.083 622.91V632H561.953V615.26H567.083V617.36C567.603 616.66 568.283 616.11 569.123 615.71C569.963 615.29 570.913 615.08 571.973 615.08C573.233 615.08 574.353 615.35 575.333 615.89C576.333 616.43 577.113 617.2 577.673 618.2C578.253 617.28 579.043 616.53 580.043 615.95C581.043 615.37 582.133 615.08 583.313 615.08ZM592.691 623.6C592.691 621.88 593.011 620.37 593.651 619.07C594.311 617.77 595.201 616.77 596.321 616.07C597.441 615.37 598.691 615.02 600.071 615.02C601.251 615.02 602.281 615.26 603.161 615.74C604.061 616.22 604.751 616.85 605.231 617.63V615.26H610.361V632H605.231V629.63C604.731 630.41 604.031 631.04 603.131 631.52C602.251 632 601.221 632.24 600.041 632.24C598.681 632.24 597.441 631.89 596.321 631.19C595.201 630.47 594.311 629.46 593.651 628.16C593.011 626.84 592.691 625.32 592.691 623.6ZM605.231 623.63C605.231 622.35 604.871 621.34 604.151 620.6C603.451 619.86 602.591 619.49 601.571 619.49C600.551 619.49 599.681 619.86 598.961 620.6C598.261 621.32 597.911 622.32 597.911 623.6C597.911 624.88 598.261 625.9 598.961 626.66C599.681 627.4 600.551 627.77 601.571 627.77C602.591 627.77 603.451 627.4 604.151 626.66C604.871 625.92 605.231 624.91 605.231 623.63ZM636.209 623.36C636.209 623.84 636.179 624.34 636.119 624.86H624.509C624.589 625.9 624.919 626.7 625.499 627.26C626.099 627.8 626.829 628.07 627.689 628.07C628.969 628.07 629.859 627.53 630.359 626.45H635.819C635.539 627.55 635.029 628.54 634.289 629.42C633.569 630.3 632.659 630.99 631.559 631.49C630.459 631.99 629.229 632.24 627.869 632.24C626.229 632.24 624.769 631.89 623.489 631.19C622.209 630.49 621.209 629.49 620.489 628.19C619.769 626.89 619.409 625.37 619.409 623.63C619.409 621.89 619.759 620.37 620.459 619.07C621.179 617.77 622.179 616.77 623.459 616.07C624.739 615.37 626.209 615.02 627.869 615.02C629.489 615.02 630.929 615.36 632.189 616.04C633.449 616.72 634.429 617.69 635.129 618.95C635.849 620.21 636.209 621.68 636.209 623.36ZM630.959 622.01C630.959 621.13 630.659 620.43 630.059 619.91C629.459 619.39 628.709 619.13 627.809 619.13C626.949 619.13 626.219 619.38 625.619 619.88C625.039 620.38 624.679 621.09 624.539 622.01H630.959ZM649.116 615.08C651.076 615.08 652.636 615.72 653.796 617C654.976 618.26 655.566 620 655.566 622.22V632H650.466V622.91C650.466 621.79 650.176 620.92 649.596 620.3C649.016 619.68 648.236 619.37 647.256 619.37C646.276 619.37 645.496 619.68 644.916 620.3C644.336 620.92 644.046 621.79 644.046 622.91V632H638.916V615.26H644.046V617.48C644.566 616.74 645.266 616.16 646.146 615.74C647.026 615.3 648.016 615.08 649.116 615.08ZM658.111 623.63C658.111 621.89 658.461 620.37 659.161 619.07C659.881 617.77 660.871 616.77 662.131 616.07C663.411 615.37 664.871 615.02 666.511 615.02C668.611 615.02 670.361 615.57 671.761 616.67C673.181 617.77 674.111 619.32 674.551 621.32H669.091C668.631 620.04 667.741 619.4 666.421 619.4C665.481 619.4 664.731 619.77 664.171 620.51C663.611 621.23 663.331 622.27 663.331 623.63C663.331 624.99 663.611 626.04 664.171 626.78C664.731 627.5 665.481 627.86 666.421 627.86C667.741 627.86 668.631 627.22 669.091 625.94H674.551C674.111 627.9 673.181 629.44 671.761 630.56C670.341 631.68 668.591 632.24 666.511 632.24C664.871 632.24 663.411 631.89 662.131 631.19C660.871 630.49 659.881 629.49 659.161 628.19C658.461 626.89 658.111 625.37 658.111 623.63ZM693.075 623.36C693.075 623.84 693.045 624.34 692.985 624.86H681.375C681.455 625.9 681.785 626.7 682.365 627.26C682.965 627.8 683.695 628.07 684.555 628.07C685.835 628.07 686.725 627.53 687.225 626.45H692.685C692.405 627.55 691.895 628.54 691.155 629.42C690.435 630.3 689.525 630.99 688.425 631.49C687.325 631.99 686.095 632.24 684.735 632.24C683.095 632.24 681.635 631.89 680.355 631.19C679.075 630.49 678.075 629.49 677.355 628.19C676.635 626.89 676.275 625.37 676.275 623.63C676.275 621.89 676.625 620.37 677.325 619.07C678.045 617.77 679.045 616.77 680.325 616.07C681.605 615.37 683.075 615.02 684.735 615.02C686.355 615.02 687.795 615.36 689.055 616.04C690.315 616.72 691.295 617.69 691.995 618.95C692.715 620.21 693.075 621.68 693.075 623.36ZM687.825 622.01C687.825 621.13 687.525 620.43 686.925 619.91C686.325 619.39 685.575 619.13 684.675 619.13C683.815 619.13 683.085 619.38 682.485 619.88C681.905 620.38 681.545 621.09 681.405 622.01H687.825ZM705.981 615.08C707.941 615.08 709.501 615.72 710.661 617C711.841 618.26 712.431 620 712.431 622.22V632H707.331V622.91C707.331 621.79 707.041 620.92 706.461 620.3C705.881 619.68 705.101 619.37 704.121 619.37C703.141 619.37 702.361 619.68 701.781 620.3C701.201 620.92 700.911 621.79 700.911 622.91V632H695.781V615.26H700.911V617.48C701.431 616.74 702.131 616.16 703.011 615.74C703.891 615.3 704.881 615.08 705.981 615.08ZM714.976 623.6C714.976 621.88 715.296 620.37 715.936 619.07C716.596 617.77 717.486 616.77 718.606 616.07C719.726 615.37 720.976 615.02 722.356 615.02C723.456 615.02 724.456 615.25 725.356 615.71C726.276 616.17 726.996 616.79 727.516 617.57V609.8H732.646V632H727.516V629.6C727.036 630.4 726.346 631.04 725.446 631.52C724.566 632 723.536 632.24 722.356 632.24C720.976 632.24 719.726 631.89 718.606 631.19C717.486 630.47 716.596 629.46 715.936 628.16C715.296 626.84 714.976 625.32 714.976 623.6ZM727.516 623.63C727.516 622.35 727.156 621.34 726.436 620.6C725.736 619.86 724.876 619.49 723.856 619.49C722.836 619.49 721.966 619.86 721.246 620.6C720.546 621.32 720.196 622.32 720.196 623.6C720.196 624.88 720.546 625.9 721.246 626.66C721.966 627.4 722.836 627.77 723.856 627.77C724.876 627.77 725.736 627.4 726.436 626.66C727.156 625.92 727.516 624.91 727.516 623.63ZM738.937 613.52C738.037 613.52 737.297 613.26 736.717 612.74C736.157 612.2 735.877 611.54 735.877 610.76C735.877 609.96 736.157 609.3 736.717 608.78C737.297 608.24 738.037 607.97 738.937 607.97C739.817 607.97 740.537 608.24 741.097 608.78C741.677 609.3 741.967 609.96 741.967 610.76C741.967 611.54 741.677 612.2 741.097 612.74C740.537 613.26 739.817 613.52 738.937 613.52ZM741.487 615.26V632H736.357V615.26H741.487ZM744.185 623.6C744.185 621.88 744.505 620.37 745.145 619.07C745.805 617.77 746.695 616.77 747.815 616.07C748.935 615.37 750.185 615.02 751.565 615.02C752.665 615.02 753.665 615.25 754.565 615.71C755.485 616.17 756.205 616.79 756.725 617.57V609.8H761.855V632H756.725V629.6C756.245 630.4 755.555 631.04 754.655 631.52C753.775 632 752.745 632.24 751.565 632.24C750.185 632.24 748.935 631.89 747.815 631.19C746.695 630.47 745.805 629.46 745.145 628.16C744.505 626.84 744.185 625.32 744.185 623.6ZM756.725 623.63C756.725 622.35 756.365 621.34 755.645 620.6C754.945 619.86 754.085 619.49 753.065 619.49C752.045 619.49 751.175 619.86 750.455 620.6C749.755 621.32 749.405 622.32 749.405 623.6C749.405 624.88 749.755 625.9 750.455 626.66C751.175 627.4 752.045 627.77 753.065 627.77C754.085 627.77 754.945 627.4 755.645 626.66C756.365 625.92 756.725 624.91 756.725 623.63ZM764.546 623.6C764.546 621.88 764.866 620.37 765.506 619.07C766.166 617.77 767.056 616.77 768.176 616.07C769.296 615.37 770.546 615.02 771.926 615.02C773.106 615.02 774.136 615.26 775.016 615.74C775.916 616.22 776.606 616.85 777.086 617.63V615.26H782.216V632H777.086V629.63C776.586 630.41 775.886 631.04 774.986 631.52C774.106 632 773.076 632.24 771.896 632.24C770.536 632.24 769.296 631.89 768.176 631.19C767.056 630.47 766.166 629.46 765.506 628.16C764.866 626.84 764.546 625.32 764.546 623.6ZM777.086 623.63C777.086 622.35 776.726 621.34 776.006 620.6C775.306 619.86 774.446 619.49 773.426 619.49C772.406 619.49 771.536 619.86 770.816 620.6C770.116 621.32 769.766 622.32 769.766 623.6C769.766 624.88 770.116 625.9 770.816 626.66C771.536 627.4 772.406 627.77 773.426 627.77C774.446 627.77 775.306 627.4 776.006 626.66C776.726 625.92 777.086 624.91 777.086 623.63Z" fill="#1A3567"/>
<path d="M123.387 628.28H115.527L114.267 632H108.897L116.517 610.94H122.457L130.077 632H124.647L123.387 628.28ZM122.067 624.32L119.457 616.61L116.877 624.32H122.067ZM137.526 609.8V632H132.396V609.8H137.526ZM140.224 623.6C140.224 621.88 140.544 620.37 141.184 619.07C141.844 617.77 142.734 616.77 143.854 616.07C144.974 615.37 146.224 615.02 147.604 615.02C148.784 615.02 149.814 615.26 150.694 615.74C151.594 616.22 152.284 616.85 152.764 617.63V615.26H157.894V632H152.764V629.63C152.264 630.41 151.564 631.04 150.664 631.52C149.784 632 148.754 632.24 147.574 632.24C146.214 632.24 144.974 631.89 143.854 631.19C142.734 630.47 141.844 629.46 141.184 628.16C140.544 626.84 140.224 625.32 140.224 623.6ZM152.764 623.63C152.764 622.35 152.404 621.34 151.684 620.6C150.984 619.86 150.124 619.49 149.104 619.49C148.084 619.49 147.214 619.86 146.494 620.6C145.794 621.32 145.444 622.32 145.444 623.6C145.444 624.88 145.794 625.9 146.494 626.66C147.214 627.4 148.084 627.77 149.104 627.77C150.124 627.77 150.984 627.4 151.684 626.66C152.404 625.92 152.764 624.91 152.764 623.63ZM166.735 618.05C167.335 617.13 168.085 616.41 168.985 615.89C169.885 615.35 170.885 615.08 171.985 615.08V620.51H170.575C169.295 620.51 168.335 620.79 167.695 621.35C167.055 621.89 166.735 622.85 166.735 624.23V632H161.605V615.26H166.735V618.05ZM195.797 615.08C197.877 615.08 199.527 615.71 200.747 616.97C201.987 618.23 202.607 619.98 202.607 622.22V632H197.507V622.91C197.507 621.83 197.217 621 196.637 620.42C196.077 619.82 195.297 619.52 194.297 619.52C193.297 619.52 192.507 619.82 191.927 620.42C191.367 621 191.087 621.83 191.087 622.91V632H185.987V622.91C185.987 621.83 185.697 621 185.117 620.42C184.557 619.82 183.777 619.52 182.777 619.52C181.777 619.52 180.987 619.82 180.407 620.42C179.847 621 179.567 621.83 179.567 622.91V632H174.437V615.26H179.567V617.36C180.087 616.66 180.767 616.11 181.607 615.71C182.447 615.29 183.397 615.08 184.457 615.08C185.717 615.08 186.837 615.35 187.817 615.89C188.817 616.43 189.597 617.2 190.157 618.2C190.737 617.28 191.527 616.53 192.527 615.95C193.527 615.37 194.617 615.08 195.797 615.08ZM205.175 623.6C205.175 621.88 205.495 620.37 206.135 619.07C206.795 617.77 207.685 616.77 208.805 616.07C209.925 615.37 211.175 615.02 212.555 615.02C213.735 615.02 214.765 615.26 215.645 615.74C216.545 616.22 217.235 616.85 217.715 617.63V615.26H222.845V632H217.715V629.63C217.215 630.41 216.515 631.04 215.615 631.52C214.735 632 213.705 632.24 212.525 632.24C211.165 632.24 209.925 631.89 208.805 631.19C207.685 630.47 206.795 629.46 206.135 628.16C205.495 626.84 205.175 625.32 205.175 623.6ZM217.715 623.63C217.715 622.35 217.355 621.34 216.635 620.6C215.935 619.86 215.075 619.49 214.055 619.49C213.035 619.49 212.165 619.86 211.445 620.6C210.745 621.32 210.395 622.32 210.395 623.6C210.395 624.88 210.745 625.9 211.445 626.66C212.165 627.4 213.035 627.77 214.055 627.77C215.075 627.77 215.935 627.4 216.635 626.66C217.355 625.92 217.715 624.91 217.715 623.63ZM231.894 623.6C231.894 621.88 232.214 620.37 232.854 619.07C233.514 617.77 234.404 616.77 235.524 616.07C236.644 615.37 237.894 615.02 239.274 615.02C240.454 615.02 241.484 615.26 242.364 615.74C243.264 616.22 243.954 616.85 244.434 617.63V615.26H249.564V632H244.434V629.63C243.934 630.41 243.234 631.04 242.334 631.52C241.454 632 240.424 632.24 239.244 632.24C237.884 632.24 236.644 631.89 235.524 631.19C234.404 630.47 233.514 629.46 232.854 628.16C232.214 626.84 231.894 625.32 231.894 623.6ZM244.434 623.63C244.434 622.35 244.074 621.34 243.354 620.6C242.654 619.86 241.794 619.49 240.774 619.49C239.754 619.49 238.884 619.86 238.164 620.6C237.464 621.32 237.114 622.32 237.114 623.6C237.114 624.88 237.464 625.9 238.164 626.66C238.884 627.4 239.754 627.77 240.774 627.77C241.794 627.77 242.654 627.4 243.354 626.66C244.074 625.92 244.434 624.91 244.434 623.63ZM258.405 617.63C258.905 616.85 259.595 616.22 260.475 615.74C261.355 615.26 262.385 615.02 263.565 615.02C264.945 615.02 266.195 615.37 267.315 616.07C268.435 616.77 269.315 617.77 269.955 619.07C270.615 620.37 270.945 621.88 270.945 623.6C270.945 625.32 270.615 626.84 269.955 628.16C269.315 629.46 268.435 630.47 267.315 631.19C266.195 631.89 264.945 632.24 263.565 632.24C262.405 632.24 261.375 632 260.475 631.52C259.595 631.04 258.905 630.42 258.405 629.66V639.98H253.275V615.26H258.405V617.63ZM265.725 623.6C265.725 622.32 265.365 621.32 264.645 620.6C263.945 619.86 263.075 619.49 262.035 619.49C261.015 619.49 260.145 619.86 259.425 620.6C258.725 621.34 258.375 622.35 258.375 623.63C258.375 624.91 258.725 625.92 259.425 626.66C260.145 627.4 261.015 627.77 262.035 627.77C263.055 627.77 263.925 627.4 264.645 626.66C265.365 625.9 265.725 624.88 265.725 623.6ZM272.616 623.6C272.616 621.88 272.936 620.37 273.576 619.07C274.236 617.77 275.126 616.77 276.246 616.07C277.366 615.37 278.616 615.02 279.996 615.02C281.176 615.02 282.206 615.26 283.086 615.74C283.986 616.22 284.676 616.85 285.156 617.63V615.26H290.286V632H285.156V629.63C284.656 630.41 283.956 631.04 283.056 631.52C282.176 632 281.146 632.24 279.966 632.24C278.606 632.24 277.366 631.89 276.246 631.19C275.126 630.47 274.236 629.46 273.576 628.16C272.936 626.84 272.616 625.32 272.616 623.6ZM285.156 623.63C285.156 622.35 284.796 621.34 284.076 620.6C283.376 619.86 282.516 619.49 281.496 619.49C280.476 619.49 279.606 619.86 278.886 620.6C278.186 621.32 277.836 622.32 277.836 623.6C277.836 624.88 278.186 625.9 278.886 626.66C279.606 627.4 280.476 627.77 281.496 627.77C282.516 627.77 283.376 627.4 284.076 626.66C284.796 625.92 285.156 624.91 285.156 623.63ZM300.358 615.02C301.538 615.02 302.568 615.26 303.448 615.74C304.348 616.22 305.038 616.85 305.518 617.63V615.26H310.648V631.97C310.648 633.51 310.338 634.9 309.718 636.14C309.118 637.4 308.188 638.4 306.928 639.14C305.688 639.88 304.138 640.25 302.278 640.25C299.798 640.25 297.788 639.66 296.248 638.48C294.708 637.32 293.828 635.74 293.608 633.74H298.678C298.838 634.38 299.218 634.88 299.818 635.24C300.418 635.62 301.158 635.81 302.038 635.81C303.098 635.81 303.938 635.5 304.558 634.88C305.198 634.28 305.518 633.31 305.518 631.97V629.6C305.018 630.38 304.328 631.02 303.448 631.52C302.568 632 301.538 632.24 300.358 632.24C298.978 632.24 297.728 631.89 296.608 631.19C295.488 630.47 294.598 629.46 293.938 628.16C293.298 626.84 292.978 625.32 292.978 623.6C292.978 621.88 293.298 620.37 293.938 619.07C294.598 617.77 295.488 616.77 296.608 616.07C297.728 615.37 298.978 615.02 300.358 615.02ZM305.518 623.63C305.518 622.35 305.158 621.34 304.438 620.6C303.738 619.86 302.878 619.49 301.858 619.49C300.838 619.49 299.968 619.86 299.248 620.6C298.548 621.32 298.198 622.32 298.198 623.6C298.198 624.88 298.548 625.9 299.248 626.66C299.968 627.4 300.838 627.77 301.858 627.77C302.878 627.77 303.738 627.4 304.438 626.66C305.158 625.92 305.518 624.91 305.518 623.63ZM313.339 623.6C313.339 621.88 313.659 620.37 314.299 619.07C314.959 617.77 315.849 616.77 316.969 616.07C318.089 615.37 319.339 615.02 320.719 615.02C321.899 615.02 322.929 615.26 323.809 615.74C324.709 616.22 325.399 616.85 325.879 617.63V615.26H331.009V632H325.879V629.63C325.379 630.41 324.679 631.04 323.779 631.52C322.899 632 321.869 632.24 320.689 632.24C319.329 632.24 318.089 631.89 316.969 631.19C315.849 630.47 314.959 629.46 314.299 628.16C313.659 626.84 313.339 625.32 313.339 623.6ZM325.879 623.63C325.879 622.35 325.519 621.34 324.799 620.6C324.099 619.86 323.239 619.49 322.219 619.49C321.199 619.49 320.329 619.86 319.609 620.6C318.909 621.32 318.559 622.32 318.559 623.6C318.559 624.88 318.909 625.9 319.609 626.66C320.329 627.4 321.199 627.77 322.219 627.77C323.239 627.77 324.099 627.4 324.799 626.66C325.519 625.92 325.879 624.91 325.879 623.63ZM333.7 623.6C333.7 621.88 334.02 620.37 334.66 619.07C335.32 617.77 336.21 616.77 337.33 616.07C338.45 615.37 339.7 615.02 341.08 615.02C342.18 615.02 343.18 615.25 344.08 615.71C345 616.17 345.72 616.79 346.24 617.57V609.8H351.37V632H346.24V629.6C345.76 630.4 345.07 631.04 344.17 631.52C343.29 632 342.26 632.24 341.08 632.24C339.7 632.24 338.45 631.89 337.33 631.19C336.21 630.47 335.32 629.46 334.66 628.16C334.02 626.84 333.7 625.32 333.7 623.6ZM346.24 623.63C346.24 622.35 345.88 621.34 345.16 620.6C344.46 619.86 343.6 619.49 342.58 619.49C341.56 619.49 340.69 619.86 339.97 620.6C339.27 621.32 338.92 622.32 338.92 623.6C338.92 624.88 339.27 625.9 339.97 626.66C340.69 627.4 341.56 627.77 342.58 627.77C343.6 627.77 344.46 627.4 345.16 626.66C345.88 625.92 346.24 624.91 346.24 623.63ZM354.062 623.6C354.062 621.88 354.382 620.37 355.022 619.07C355.682 617.77 356.572 616.77 357.692 616.07C358.812 615.37 360.062 615.02 361.442 615.02C362.622 615.02 363.652 615.26 364.532 615.74C365.432 616.22 366.122 616.85 366.602 617.63V615.26H371.732V632H366.602V629.63C366.102 630.41 365.402 631.04 364.502 631.52C363.622 632 362.592 632.24 361.412 632.24C360.052 632.24 358.812 631.89 357.692 631.19C356.572 630.47 355.682 629.46 355.022 628.16C354.382 626.84 354.062 625.32 354.062 623.6ZM366.602 623.63C366.602 622.35 366.242 621.34 365.522 620.6C364.822 619.86 363.962 619.49 362.942 619.49C361.922 619.49 361.052 619.86 360.332 620.6C359.632 621.32 359.282 622.32 359.282 623.6C359.282 624.88 359.632 625.9 360.332 626.66C361.052 627.4 361.922 627.77 362.942 627.77C363.962 627.77 364.822 627.4 365.522 626.66C366.242 625.92 366.602 624.91 366.602 623.63Z" fill="#1A3567"/>
<path d="M909.903 628.28H902.043L900.783 632H895.413L903.033 610.94H908.973L916.593 632H911.163L909.903 628.28ZM908.583 624.32L905.973 616.61L903.393 624.32H908.583ZM924.042 609.8V632H918.912V609.8H924.042ZM926.739 623.6C926.739 621.88 927.059 620.37 927.699 619.07C928.359 617.77 929.249 616.77 930.369 616.07C931.489 615.37 932.739 615.02 934.119 615.02C935.299 615.02 936.329 615.26 937.209 615.74C938.109 616.22 938.799 616.85 939.279 617.63V615.26H944.409V632H939.279V629.63C938.779 630.41 938.079 631.04 937.179 631.52C936.299 632 935.269 632.24 934.089 632.24C932.729 632.24 931.489 631.89 930.369 631.19C929.249 630.47 928.359 629.46 927.699 628.16C927.059 626.84 926.739 625.32 926.739 623.6ZM939.279 623.63C939.279 622.35 938.919 621.34 938.199 620.6C937.499 619.86 936.639 619.49 935.619 619.49C934.599 619.49 933.729 619.86 933.009 620.6C932.309 621.32 931.959 622.32 931.959 623.6C931.959 624.88 932.309 625.9 933.009 626.66C933.729 627.4 934.599 627.77 935.619 627.77C936.639 627.77 937.499 627.4 938.199 626.66C938.919 625.92 939.279 624.91 939.279 623.63ZM953.251 618.05C953.851 617.13 954.601 616.41 955.501 615.89C956.401 615.35 957.401 615.08 958.501 615.08V620.51H957.091C955.811 620.51 954.851 620.79 954.211 621.35C953.571 621.89 953.251 622.85 953.251 624.23V632H948.121V615.26H953.251V618.05ZM982.313 615.08C984.393 615.08 986.043 615.71 987.263 616.97C988.503 618.23 989.123 619.98 989.123 622.22V632H984.023V622.91C984.023 621.83 983.733 621 983.153 620.42C982.593 619.82 981.813 619.52 980.813 619.52C979.813 619.52 979.023 619.82 978.443 620.42C977.883 621 977.603 621.83 977.603 622.91V632H972.503V622.91C972.503 621.83 972.213 621 971.633 620.42C971.073 619.82 970.293 619.52 969.293 619.52C968.293 619.52 967.503 619.82 966.923 620.42C966.363 621 966.083 621.83 966.083 622.91V632H960.953V615.26H966.083V617.36C966.603 616.66 967.283 616.11 968.123 615.71C968.963 615.29 969.913 615.08 970.973 615.08C972.233 615.08 973.353 615.35 974.333 615.89C975.333 616.43 976.113 617.2 976.673 618.2C977.253 617.28 978.043 616.53 979.043 615.95C980.043 615.37 981.133 615.08 982.313 615.08ZM991.691 623.6C991.691 621.88 992.011 620.37 992.651 619.07C993.311 617.77 994.201 616.77 995.321 616.07C996.441 615.37 997.691 615.02 999.071 615.02C1000.25 615.02 1001.28 615.26 1002.16 615.74C1003.06 616.22 1003.75 616.85 1004.23 617.63V615.26H1009.36V632H1004.23V629.63C1003.73 630.41 1003.03 631.04 1002.13 631.52C1001.25 632 1000.22 632.24 999.041 632.24C997.681 632.24 996.441 631.89 995.321 631.19C994.201 630.47 993.311 629.46 992.651 628.16C992.011 626.84 991.691 625.32 991.691 623.6ZM1004.23 623.63C1004.23 622.35 1003.87 621.34 1003.15 620.6C1002.45 619.86 1001.59 619.49 1000.57 619.49C999.551 619.49 998.681 619.86 997.961 620.6C997.261 621.32 996.911 622.32 996.911 623.6C996.911 624.88 997.261 625.9 997.961 626.66C998.681 627.4 999.551 627.77 1000.57 627.77C1001.59 627.77 1002.45 627.4 1003.15 626.66C1003.87 625.92 1004.23 624.91 1004.23 623.63ZM1035.21 623.36C1035.21 623.84 1035.18 624.34 1035.12 624.86H1023.51C1023.59 625.9 1023.92 626.7 1024.5 627.26C1025.1 627.8 1025.83 628.07 1026.69 628.07C1027.97 628.07 1028.86 627.53 1029.36 626.45H1034.82C1034.54 627.55 1034.03 628.54 1033.29 629.42C1032.57 630.3 1031.66 630.99 1030.56 631.49C1029.46 631.99 1028.23 632.24 1026.87 632.24C1025.23 632.24 1023.77 631.89 1022.49 631.19C1021.21 630.49 1020.21 629.49 1019.49 628.19C1018.77 626.89 1018.41 625.37 1018.41 623.63C1018.41 621.89 1018.76 620.37 1019.46 619.07C1020.18 617.77 1021.18 616.77 1022.46 616.07C1023.74 615.37 1025.21 615.02 1026.87 615.02C1028.49 615.02 1029.93 615.36 1031.19 616.04C1032.45 616.72 1033.43 617.69 1034.13 618.95C1034.85 620.21 1035.21 621.68 1035.21 623.36ZM1029.96 622.01C1029.96 621.13 1029.66 620.43 1029.06 619.91C1028.46 619.39 1027.71 619.13 1026.81 619.13C1025.95 619.13 1025.22 619.38 1024.62 619.88C1024.04 620.38 1023.68 621.09 1023.54 622.01H1029.96ZM1048.12 615.08C1050.08 615.08 1051.64 615.72 1052.8 617C1053.98 618.26 1054.57 620 1054.57 622.22V632H1049.47V622.91C1049.47 621.79 1049.18 620.92 1048.6 620.3C1048.02 619.68 1047.24 619.37 1046.26 619.37C1045.28 619.37 1044.5 619.68 1043.92 620.3C1043.34 620.92 1043.05 621.79 1043.05 622.91V632H1037.92V615.26H1043.05V617.48C1043.57 616.74 1044.27 616.16 1045.15 615.74C1046.03 615.3 1047.02 615.08 1048.12 615.08ZM1057.11 623.63C1057.11 621.89 1057.46 620.37 1058.16 619.07C1058.88 617.77 1059.87 616.77 1061.13 616.07C1062.41 615.37 1063.87 615.02 1065.51 615.02C1067.61 615.02 1069.36 615.57 1070.76 616.67C1072.18 617.77 1073.11 619.32 1073.55 621.32H1068.09C1067.63 620.04 1066.74 619.4 1065.42 619.4C1064.48 619.4 1063.73 619.77 1063.17 620.51C1062.61 621.23 1062.33 622.27 1062.33 623.63C1062.33 624.99 1062.61 626.04 1063.17 626.78C1063.73 627.5 1064.48 627.86 1065.42 627.86C1066.74 627.86 1067.63 627.22 1068.09 625.94H1073.55C1073.11 627.9 1072.18 629.44 1070.76 630.56C1069.34 631.68 1067.59 632.24 1065.51 632.24C1063.87 632.24 1062.41 631.89 1061.13 631.19C1059.87 630.49 1058.88 629.49 1058.16 628.19C1057.46 626.89 1057.11 625.37 1057.11 623.63ZM1092.07 623.36C1092.07 623.84 1092.04 624.34 1091.98 624.86H1080.37C1080.45 625.9 1080.78 626.7 1081.36 627.26C1081.96 627.8 1082.69 628.07 1083.55 628.07C1084.83 628.07 1085.72 627.53 1086.22 626.45H1091.68C1091.4 627.55 1090.89 628.54 1090.15 629.42C1089.43 630.3 1088.52 630.99 1087.42 631.49C1086.32 631.99 1085.09 632.24 1083.73 632.24C1082.09 632.24 1080.63 631.89 1079.35 631.19C1078.07 630.49 1077.07 629.49 1076.35 628.19C1075.63 626.89 1075.27 625.37 1075.27 623.63C1075.27 621.89 1075.62 620.37 1076.32 619.07C1077.04 617.77 1078.04 616.77 1079.32 616.07C1080.6 615.37 1082.07 615.02 1083.73 615.02C1085.35 615.02 1086.79 615.36 1088.05 616.04C1089.31 616.72 1090.29 617.69 1090.99 618.95C1091.71 620.21 1092.07 621.68 1092.07 623.36ZM1086.82 622.01C1086.82 621.13 1086.52 620.43 1085.92 619.91C1085.32 619.39 1084.57 619.13 1083.67 619.13C1082.81 619.13 1082.08 619.38 1081.48 619.88C1080.9 620.38 1080.54 621.09 1080.4 622.01H1086.82ZM1104.98 615.08C1106.94 615.08 1108.5 615.72 1109.66 617C1110.84 618.26 1111.43 620 1111.43 622.22V632H1106.33V622.91C1106.33 621.79 1106.04 620.92 1105.46 620.3C1104.88 619.68 1104.1 619.37 1103.12 619.37C1102.14 619.37 1101.36 619.68 1100.78 620.3C1100.2 620.92 1099.91 621.79 1099.91 622.91V632H1094.78V615.26H1099.91V617.48C1100.43 616.74 1101.13 616.16 1102.01 615.74C1102.89 615.3 1103.88 615.08 1104.98 615.08ZM1113.98 623.6C1113.98 621.88 1114.3 620.37 1114.94 619.07C1115.6 617.77 1116.49 616.77 1117.61 616.07C1118.73 615.37 1119.98 615.02 1121.36 615.02C1122.46 615.02 1123.46 615.25 1124.36 615.71C1125.28 616.17 1126 616.79 1126.52 617.57V609.8H1131.65V632H1126.52V629.6C1126.04 630.4 1125.35 631.04 1124.45 631.52C1123.57 632 1122.54 632.24 1121.36 632.24C1119.98 632.24 1118.73 631.89 1117.61 631.19C1116.49 630.47 1115.6 629.46 1114.94 628.16C1114.3 626.84 1113.98 625.32 1113.98 623.6ZM1126.52 623.63C1126.52 622.35 1126.16 621.34 1125.44 620.6C1124.74 619.86 1123.88 619.49 1122.86 619.49C1121.84 619.49 1120.97 619.86 1120.25 620.6C1119.55 621.32 1119.2 622.32 1119.2 623.6C1119.2 624.88 1119.55 625.9 1120.25 626.66C1120.97 627.4 1121.84 627.77 1122.86 627.77C1123.88 627.77 1124.74 627.4 1125.44 626.66C1126.16 625.92 1126.52 624.91 1126.52 623.63ZM1137.94 613.52C1137.04 613.52 1136.3 613.26 1135.72 612.74C1135.16 612.2 1134.88 611.54 1134.88 610.76C1134.88 609.96 1135.16 609.3 1135.72 608.78C1136.3 608.24 1137.04 607.97 1137.94 607.97C1138.82 607.97 1139.54 608.24 1140.1 608.78C1140.68 609.3 1140.97 609.96 1140.97 610.76C1140.97 611.54 1140.68 612.2 1140.1 612.74C1139.54 613.26 1138.82 613.52 1137.94 613.52ZM1140.49 615.26V632H1135.36V615.26H1140.49ZM1143.18 623.6C1143.18 621.88 1143.5 620.37 1144.14 619.07C1144.8 617.77 1145.69 616.77 1146.81 616.07C1147.93 615.37 1149.18 615.02 1150.56 615.02C1151.66 615.02 1152.66 615.25 1153.56 615.71C1154.48 616.17 1155.2 616.79 1155.72 617.57V609.8H1160.85V632H1155.72V629.6C1155.24 630.4 1154.55 631.04 1153.65 631.52C1152.77 632 1151.74 632.24 1150.56 632.24C1149.18 632.24 1147.93 631.89 1146.81 631.19C1145.69 630.47 1144.8 629.46 1144.14 628.16C1143.5 626.84 1143.18 625.32 1143.18 623.6ZM1155.72 623.63C1155.72 622.35 1155.36 621.34 1154.64 620.6C1153.94 619.86 1153.08 619.49 1152.06 619.49C1151.04 619.49 1150.17 619.86 1149.45 620.6C1148.75 621.32 1148.4 622.32 1148.4 623.6C1148.4 624.88 1148.75 625.9 1149.45 626.66C1150.17 627.4 1151.04 627.77 1152.06 627.77C1153.08 627.77 1153.94 627.4 1154.64 626.66C1155.36 625.92 1155.72 624.91 1155.72 623.63ZM1163.55 623.6C1163.55 621.88 1163.87 620.37 1164.51 619.07C1165.17 617.77 1166.06 616.77 1167.18 616.07C1168.3 615.37 1169.55 615.02 1170.93 615.02C1172.11 615.02 1173.14 615.26 1174.02 615.74C1174.92 616.22 1175.61 616.85 1176.09 617.63V615.26H1181.22V632H1176.09V629.63C1175.59 630.41 1174.89 631.04 1173.99 631.52C1173.11 632 1172.08 632.24 1170.9 632.24C1169.54 632.24 1168.3 631.89 1167.18 631.19C1166.06 630.47 1165.17 629.46 1164.51 628.16C1163.87 626.84 1163.55 625.32 1163.55 623.6ZM1176.09 623.63C1176.09 622.35 1175.73 621.34 1175.01 620.6C1174.31 619.86 1173.45 619.49 1172.43 619.49C1171.41 619.49 1170.54 619.86 1169.82 620.6C1169.12 621.32 1168.77 622.32 1168.77 623.6C1168.77 624.88 1169.12 625.9 1169.82 626.66C1170.54 627.4 1171.41 627.77 1172.43 627.77C1173.45 627.77 1174.31 627.4 1175.01 626.66C1175.73 625.92 1176.09 624.91 1176.09 623.63Z" fill="#1A3567"/>
<defs>
<linearGradient id="paint0_linear_410_4526" x1="640" y1="0" x2="640" y2="720" gradientUnits="userSpaceOnUse">
<stop stop-color="#ECFAFF"/>
<stop offset="1" stop-color="#A9E1F0"/>
</linearGradient>
<linearGradient id="paint1_linear_410_4526" x1="185.5" y1="162" x2="185.5" y2="354.5" gradientUnits="userSpaceOnUse">
<stop stop-color="#62342A"/>
<stop offset="1" stop-color="#985343"/>
</linearGradient>
<linearGradient id="paint2_linear_410_4526" x1="185.5" y1="162" x2="185.5" y2="354.5" gradientUnits="userSpaceOnUse">
<stop stop-color="#62342A"/>
<stop offset="1" stop-color="#985343"/>
</linearGradient>
<linearGradient id="paint3_linear_410_4526" x1="186" y1="170.5" x2="186" y2="345.5" gradientUnits="userSpaceOnUse">
<stop stop-color="#62342A"/>
<stop offset="1" stop-color="#985343"/>
</linearGradient>
<linearGradient id="paint4_linear_410_4526" x1="551.5" y1="162" x2="551.5" y2="354.5" gradientUnits="userSpaceOnUse">
<stop stop-color="#62342A"/>
<stop offset="1" stop-color="#985343"/>
</linearGradient>
<linearGradient id="paint5_linear_410_4526" x1="551.5" y1="162" x2="551.5" y2="354.5" gradientUnits="userSpaceOnUse">
<stop stop-color="#62342A"/>
<stop offset="1" stop-color="#985343"/>
</linearGradient>
<linearGradient id="paint6_linear_410_4526" x1="552" y1="170.5" x2="552" y2="345.5" gradientUnits="userSpaceOnUse">
<stop stop-color="#62342A"/>
<stop offset="1" stop-color="#985343"/>
</linearGradient>
<linearGradient id="paint7_linear_410_4526" x1="954" y1="165" x2="954" y2="357" gradientUnits="userSpaceOnUse">
<stop stop-color="#62342A"/>
<stop offset="1" stop-color="#985343"/>
</linearGradient>
<linearGradient id="paint8_linear_410_4526" x1="957.5" y1="153" x2="957.5" y2="368.5" gradientUnits="userSpaceOnUse">
<stop stop-color="#62342A"/>
<stop offset="1" stop-color="#985343"/>
</linearGradient>
<linearGradient id="paint9_linear_410_4526" x1="639.891" y1="529.281" x2="639.891" y2="580.999" gradientUnits="userSpaceOnUse">
<stop stop-color="#302E2E"/>
<stop offset="1" stop-color="#434343"/>
</linearGradient>
<radialGradient id="paint10_radial_410_4526" cx="0" cy="0" r="1" gradientUnits="userSpaceOnUse" gradientTransform="translate(668.455 530.797) rotate(98.0933) scale(110.097 166.137)">
<stop stop-color="#E82417"/>
<stop offset="1" stop-color="#A91C1E"/>
</radialGradient>
<radialGradient id="paint11_radial_410_4526" cx="0" cy="0" r="1" gradientUnits="userSpaceOnUse" gradientTransform="translate(676.559 493.093) rotate(90) scale(65 66)">
<stop stop-color="#FF846B"/>
<stop offset="1" stop-color="#FE431E" stop-opacity="0"/>
</radialGradient>
<radialGradient id="paint12_radial_410_4526" cx="0" cy="0" r="1" gradientUnits="userSpaceOnUse" gradientTransform="translate(632.905 578.366) rotate(90) scale(65 66)">
<stop stop-color="#AB2325"/>
<stop offset="1" stop-color="#AB2325" stop-opacity="0"/>
</radialGradient>
<linearGradient id="paint13_linear_410_4526" x1="233.891" y1="529.289" x2="233.891" y2="581.007" gradientUnits="userSpaceOnUse">
<stop stop-color="#302E2E"/>
<stop offset="1" stop-color="#434343"/>
</linearGradient>
<radialGradient id="paint14_radial_410_4526" cx="0" cy="0" r="1" gradientUnits="userSpaceOnUse" gradientTransform="translate(262.455 530.805) rotate(98.0933) scale(110.097 166.137)">
<stop stop-color="#838383"/>
<stop offset="1" stop-color="#4C4C4C"/>
</radialGradient>
<radialGradient id="paint15_radial_410_4526" cx="0" cy="0" r="1" gradientUnits="userSpaceOnUse" gradientTransform="translate(270.559 493.101) rotate(90) scale(65 66)">
<stop stop-color="#CDCDCD"/>
<stop offset="1" stop-color="#CDCDCD" stop-opacity="0"/>
</radialGradient>
<radialGradient id="paint16_radial_410_4526" cx="0" cy="0" r="1" gradientUnits="userSpaceOnUse" gradientTransform="translate(226.905 578.374) rotate(90) scale(65 66)">
<stop stop-color="#434343"/>
<stop offset="1" stop-color="#AB2325" stop-opacity="0"/>
</radialGradient>
<linearGradient id="paint17_linear_410_4526" x1="1038.89" y1="529.281" x2="1038.89" y2="580.999" gradientUnits="userSpaceOnUse">
<stop stop-color="#302E2E"/>
<stop offset="1" stop-color="#434343"/>
</linearGradient>
<radialGradient id="paint18_radial_410_4526" cx="0" cy="0" r="1" gradientUnits="userSpaceOnUse" gradientTransform="translate(1067.46 530.797) rotate(98.0933) scale(110.097 166.137)">
<stop stop-color="#E82417"/>
<stop offset="1" stop-color="#A91C1E"/>
</radialGradient>
<radialGradient id="paint19_radial_410_4526" cx="0" cy="0" r="1" gradientUnits="userSpaceOnUse" gradientTransform="translate(1075.56 493.093) rotate(90) scale(65 66)">
<stop stop-color="#FF846B"/>
<stop offset="1" stop-color="#FE431E" stop-opacity="0"/>
</radialGradient>
<radialGradient id="paint20_radial_410_4526" cx="0" cy="0" r="1" gradientUnits="userSpaceOnUse" gradientTransform="translate(1031.91 578.366) rotate(90) scale(65 66)">
<stop stop-color="#AB2325"/>
<stop offset="1" stop-color="#AB2325" stop-opacity="0"/>
</radialGradient>
</defs>
</svg>
