<svg width="1280" height="720" viewBox="0 0 1280 720" fill="none" xmlns="http://www.w3.org/2000/svg">
<g clip-path="url(#clip0_184_397)">
<rect width="1280" height="720" fill="#FFEEC1"/>
<path d="M0.117188 0.208984H1280.1V720.199H0.117188V0.208984Z" fill="url(#paint0_linear_184_397)"/>
<path d="M1285.5 -65.5L643.5 359.5L1285.5 957.5V-65.5Z" fill="url(#paint1_radial_184_397)"/>
<path d="M584 316L539.409 277.399C507.039 249.377 459.255 248.531 425.912 275.39C395.888 299.576 353.665 301.554 321.511 280.281L300.798 266.577C266.851 244.118 222.362 245.808 190.217 270.778L188.728 271.935C155.352 297.86 108.648 297.86 75.272 271.935C42.5781 246.538 -3.01133 245.966 -36.3325 270.533L-98 316" stroke="#D3BDFF" stroke-width="13"/>
<path d="M584 360L539.409 321.399C507.039 293.377 459.255 292.531 425.912 319.39C395.888 343.576 353.665 345.554 321.511 324.281L300.798 310.577C266.851 288.118 222.362 289.808 190.217 314.778L188.728 315.935C155.352 341.86 108.648 341.86 75.272 315.935C42.5781 290.538 -3.01133 289.966 -36.3325 314.533L-98 360" stroke="#D3BDFF" stroke-width="13"/>
<path d="M584 408L539.409 369.399C507.039 341.377 459.255 340.531 425.912 367.39C395.888 391.576 353.665 393.554 321.511 372.281L300.798 358.577C266.851 336.118 222.362 337.808 190.217 362.778L188.728 363.935C155.352 389.86 108.648 389.86 75.272 363.935C42.5781 338.538 -3.01133 337.966 -36.3325 362.533L-98 408" stroke="#D3BDFF" stroke-width="13"/>
<path d="M584 457L539.409 418.399C507.039 390.377 459.255 389.531 425.912 416.39C395.888 440.576 353.665 442.554 321.511 421.281L300.798 407.577C266.851 385.118 222.362 386.808 190.217 411.778L188.728 412.935C155.352 438.86 108.648 438.86 75.272 412.935C42.5781 387.538 -3.01133 386.966 -36.3325 411.533L-98 457" stroke="#D3BDFF" stroke-width="13"/>
<path d="M584 505L539.409 466.399C507.039 438.377 459.255 437.531 425.912 464.39C395.888 488.576 353.665 490.554 321.511 469.281L300.798 455.577C266.851 433.118 222.362 434.808 190.217 459.778L188.728 460.935C155.352 486.86 108.648 486.86 75.272 460.935C42.5781 435.538 -3.01133 434.966 -36.3325 459.533L-98 505" stroke="#D3BDFF" stroke-width="13"/>
<mask id="mask0_184_397" style="mask-type:alpha" maskUnits="userSpaceOnUse" x="443" y="155" width="373" height="375">
<path d="M605.969 155.537L682.868 263.75L815.507 258.237L736.353 364.812L782.584 489.255L656.766 446.909L552.699 529.332L554.092 396.586L443.545 323.083L570.224 283.387L605.969 155.537Z" fill="#FFC93C"/>
</mask>
<g mask="url(#mask0_184_397)">
<path d="M605.969 155.537L682.868 263.75L815.507 258.237L736.353 364.812L782.584 489.255L656.766 446.909L552.699 529.332L554.092 396.586L443.545 323.083L570.224 283.387L605.969 155.537Z" fill="url(#paint2_radial_184_397)"/>
<path d="M639.944 360.215L603.825 139.973L522.75 233.225L639.944 360.215Z" fill="#FF7B54" fill-opacity="0.4"/>
<path d="M639.752 359.113L420.414 318.801L526.09 236.059L639.752 359.113Z" fill="#FFEEC1"/>
<path d="M639.199 359.209L833.531 246.781L704.304 213.529L639.199 359.209Z" fill="#FFEEC1"/>
<path d="M639.752 359.111L532 570.002L664.162 492.602L639.752 359.111Z" fill="#FFEEC1"/>
<path d="M639.983 359.099L850.767 371.275L797.45 502.947L639.983 359.099Z" fill="#FF7B54" fill-opacity="0.4"/>
<path d="M639.742 359.515L543.329 547.352L444.485 445.322L639.742 359.515Z" fill="#FF7B54" fill-opacity="0.4"/>
</g>
<path d="M950.506 200C950.506 238.383 919.384 269.506 881 269.506C919.384 269.506 950.506 300.613 950.506 339C950.506 300.613 981.613 269.504 1020 269.504C981.613 269.504 950.506 238.383 950.506 200Z" fill="#FFEEC1"/>
<path d="M866.587 341C866.587 366.757 845.732 387.639 820 387.639C845.732 387.639 866.587 408.511 866.587 434.265C866.587 408.511 887.452 387.639 913.183 387.639C887.452 387.639 866.587 366.757 866.587 341Z" fill="#FFEEC1"/>
<path d="M988.003 493C988.003 513.435 971.436 529.996 951 529.996C971.436 529.996 988.003 546.565 988.003 567C988.003 546.565 1004.56 529.996 1025 529.996C1004.56 529.996 988.003 513.435 988.003 493Z" fill="#FFEEC1"/>
<path d="M1172.01 244C1172.01 276.033 1146.03 301.994 1114 301.994C1146.03 301.994 1172.01 327.967 1172.01 360C1172.01 327.967 1197.97 301.994 1230 301.994C1197.97 301.994 1172.01 276.033 1172.01 244Z" fill="#FFEEC1"/>
<path d="M987.501 371C987.501 381.219 979.22 389.5 969 389.5C979.22 389.5 987.501 397.785 987.501 408C987.501 397.785 995.785 389.5 1006 389.5C995.785 389.5 987.501 381.219 987.501 371Z" fill="#FFEEC1"/>
<path d="M1171.5 567C1171.5 577.219 1163.22 585.5 1153 585.5C1163.22 585.5 1171.5 593.785 1171.5 604C1171.5 593.785 1179.79 585.5 1190 585.5C1179.79 585.5 1171.5 577.219 1171.5 567Z" fill="#FFEEC1"/>
<path d="M1075.5 144C1075.5 154.219 1067.22 162.5 1057 162.5C1067.22 162.5 1075.5 170.785 1075.5 181C1075.5 170.785 1083.79 162.5 1094 162.5C1083.79 162.5 1075.5 154.219 1075.5 144Z" fill="#FFEEC1"/>
<path d="M1091 403C1091 420.124 1077.13 433.999 1060 433.999C1077.13 433.999 1091 447.883 1091 465C1091 447.883 1104.88 433.999 1122 433.999C1104.88 433.999 1091 420.124 1091 403Z" fill="#FFEEC1"/>
<path d="M319 397.261C319 407.606 310.671 415.993 300.397 415.993C290.128 415.993 281.793 407.615 281.793 397.261C281.793 386.912 290.119 378.529 300.397 378.529C310.679 378.529 319 386.912 319 397.261Z" fill="#7C2869"/>
<path d="M247.38 306V400.629V306Z" fill="#7C2869"/>
<path d="M315.719 306V400.629V306Z" fill="#7C2869"/>
<path d="M250.207 406.268C250.207 416.613 241.876 425 231.603 425C221.334 425 213 416.622 213 406.268C213 395.919 221.324 387.536 231.604 387.536C241.881 387.536 250.207 395.919 250.207 406.268Z" fill="#7C2869"/>
<path d="M247.38 306H315.909V327.684H247.381L247.38 306Z" fill="#7C2869"/>
<path d="M247.38 306V400.629M247.38 306H315.909V327.684H247.381L247.38 306ZM315.719 306V400.629M319 397.261C319 407.606 310.671 415.993 300.397 415.993C290.128 415.993 281.793 407.615 281.793 397.261C281.793 386.912 290.119 378.529 300.397 378.529C310.679 378.529 319 386.912 319 397.261ZM250.207 406.268C250.207 416.613 241.876 425 231.603 425C221.334 425 213 416.622 213 406.268C213 395.919 221.324 387.536 231.604 387.536C241.881 387.536 250.207 395.919 250.207 406.268Z" stroke="#7C2869" stroke-width="5" stroke-miterlimit="10"/>
<path d="M121 225V330.933V225Z" fill="#7C2869"/>
<path d="M121 332.038C121 343.616 111.6 353 100.002 353C88.4 353 79 343.616 79 332.038C79 320.46 88.4 311.075 100.002 311.075C111.6 311.075 121 320.46 121 332.038Z" fill="#7C2869"/>
<path d="M121 225V330.933M121 332.038C121 343.616 111.6 353 100.002 353C88.4 353 79 343.616 79 332.038C79 320.46 88.4 311.075 100.002 311.075C111.6 311.075 121 320.46 121 332.038Z" stroke="#7C2869" stroke-width="5"/>
</g>
<defs>
<linearGradient id="paint0_linear_184_397" x1="636.645" y1="137.682" x2="636.645" y2="531.311" gradientUnits="userSpaceOnUse">
<stop stop-color="#A184DC"/>
<stop offset="0.25" stop-color="#A184DC"/>
<stop offset="1" stop-color="#7568C5"/>
</linearGradient>
<radialGradient id="paint1_radial_184_397" cx="0" cy="0" r="1" gradientUnits="userSpaceOnUse" gradientTransform="translate(676.5 379) rotate(-2.32586) scale(714.589 492)">
<stop stop-color="#FFC93C"/>
<stop offset="1" stop-color="#FFC93C" stop-opacity="0"/>
</radialGradient>
<radialGradient id="paint2_radial_184_397" cx="0" cy="0" r="1" gradientUnits="userSpaceOnUse" gradientTransform="translate(640.061 351.089) rotate(80.1107) scale(198.501)">
<stop stop-color="#FBC640"/>
<stop offset="1" stop-color="#FFD76E"/>
</radialGradient>
<clipPath id="clip0_184_397">
<rect width="1280" height="720" fill="white"/>
</clipPath>
</defs>
</svg>
