<svg width="1280" height="720" viewBox="0 0 1280 720" fill="none" xmlns="http://www.w3.org/2000/svg">
<rect width="1280" height="720" fill="#ECFAFF"/>
<path d="M131.793 219V175.364H140.869V191.77H141.146C141.544 190.889 142.119 189.994 142.872 189.085C143.639 188.162 144.634 187.395 145.855 186.784C147.091 186.159 148.625 185.847 150.457 185.847C152.844 185.847 155.045 186.472 157.062 187.722C159.08 188.957 160.692 190.825 161.899 193.325C163.107 195.811 163.71 198.929 163.71 202.679C163.71 206.33 163.121 209.412 161.942 211.926C160.777 214.426 159.186 216.322 157.169 217.615C155.166 218.893 152.922 219.533 150.436 219.533C148.675 219.533 147.176 219.241 145.94 218.659C144.719 218.077 143.717 217.345 142.936 216.464C142.155 215.57 141.558 214.668 141.146 213.759H140.741V219H131.793ZM140.678 202.636C140.678 204.582 140.947 206.28 141.487 207.729C142.027 209.178 142.808 210.307 143.831 211.116C144.854 211.912 146.097 212.31 147.56 212.31C149.037 212.31 150.287 211.905 151.31 211.095C152.332 210.271 153.107 209.135 153.632 207.686C154.172 206.223 154.442 204.54 154.442 202.636C154.442 200.747 154.179 199.085 153.653 197.651C153.128 196.216 152.354 195.094 151.331 194.284C150.308 193.474 149.051 193.07 147.56 193.07C146.082 193.07 144.832 193.46 143.81 194.241C142.801 195.023 142.027 196.131 141.487 197.565C140.947 199 140.678 200.69 140.678 202.636ZM178.843 175.364V219H169.767V175.364H178.843ZM195.447 219.618C193.359 219.618 191.498 219.256 189.864 218.531C188.231 217.793 186.938 216.706 185.987 215.271C185.049 213.822 184.58 212.018 184.58 209.859C184.58 208.041 184.914 206.514 185.582 205.278C186.249 204.043 187.158 203.048 188.309 202.295C189.46 201.543 190.766 200.974 192.229 200.591C193.707 200.207 195.255 199.938 196.874 199.781C198.778 199.582 200.312 199.398 201.477 199.227C202.641 199.043 203.487 198.773 204.012 198.418C204.538 198.062 204.8 197.537 204.8 196.841V196.713C204.8 195.364 204.374 194.32 203.522 193.581C202.684 192.842 201.491 192.473 199.942 192.473C198.309 192.473 197.009 192.835 196.043 193.56C195.077 194.27 194.438 195.165 194.126 196.244L185.731 195.562C186.157 193.574 186.995 191.855 188.245 190.406C189.495 188.943 191.107 187.821 193.082 187.04C195.07 186.244 197.371 185.847 199.985 185.847C201.803 185.847 203.543 186.06 205.205 186.486C206.881 186.912 208.366 187.572 209.658 188.467C210.965 189.362 211.995 190.513 212.748 191.919C213.501 193.311 213.877 194.98 213.877 196.926V219H205.269V214.462H205.013C204.488 215.484 203.785 216.386 202.904 217.168C202.023 217.935 200.965 218.538 199.729 218.979C198.494 219.405 197.066 219.618 195.447 219.618ZM198.046 213.354C199.381 213.354 200.56 213.091 201.583 212.565C202.606 212.026 203.408 211.301 203.991 210.392C204.573 209.483 204.864 208.453 204.864 207.303V203.83C204.58 204.014 204.19 204.185 203.692 204.341C203.21 204.483 202.663 204.618 202.052 204.746C201.441 204.859 200.83 204.966 200.219 205.065C199.609 205.151 199.055 205.229 198.558 205.3C197.492 205.456 196.562 205.705 195.766 206.045C194.971 206.386 194.353 206.848 193.913 207.43C193.472 207.999 193.252 208.709 193.252 209.561C193.252 210.797 193.7 211.741 194.594 212.395C195.504 213.034 196.654 213.354 198.046 213.354Z" fill="#1D5B92"/>
<path d="M250.793 267V223.364H259.869V239.77H260.146C260.544 238.889 261.119 237.994 261.872 237.085C262.639 236.162 263.634 235.395 264.855 234.784C266.091 234.159 267.625 233.847 269.457 233.847C271.844 233.847 274.045 234.472 276.062 235.722C278.08 236.957 279.692 238.825 280.899 241.325C282.107 243.811 282.71 246.929 282.71 250.679C282.71 254.33 282.121 257.412 280.942 259.926C279.777 262.426 278.186 264.322 276.169 265.615C274.166 266.893 271.922 267.533 269.436 267.533C267.675 267.533 266.176 267.241 264.94 266.659C263.719 266.077 262.717 265.345 261.936 264.464C261.155 263.57 260.558 262.668 260.146 261.759H259.741V267H250.793ZM259.678 250.636C259.678 252.582 259.947 254.28 260.487 255.729C261.027 257.178 261.808 258.307 262.831 259.116C263.854 259.912 265.097 260.31 266.56 260.31C268.037 260.31 269.287 259.905 270.31 259.095C271.332 258.271 272.107 257.135 272.632 255.686C273.172 254.223 273.442 252.54 273.442 250.636C273.442 248.747 273.179 247.085 272.653 245.651C272.128 244.216 271.354 243.094 270.331 242.284C269.308 241.474 268.051 241.07 266.56 241.07C265.082 241.07 263.832 241.46 262.81 242.241C261.801 243.023 261.027 244.131 260.487 245.565C259.947 247 259.678 248.69 259.678 250.636ZM297.843 223.364V267H288.767V223.364H297.843ZM314.447 267.618C312.359 267.618 310.498 267.256 308.864 266.531C307.231 265.793 305.938 264.706 304.987 263.271C304.049 261.822 303.58 260.018 303.58 257.859C303.58 256.041 303.914 254.514 304.582 253.278C305.249 252.043 306.158 251.048 307.309 250.295C308.46 249.543 309.766 248.974 311.229 248.591C312.707 248.207 314.255 247.938 315.874 247.781C317.778 247.582 319.312 247.398 320.477 247.227C321.641 247.043 322.487 246.773 323.012 246.418C323.538 246.062 323.8 245.537 323.8 244.841V244.713C323.8 243.364 323.374 242.32 322.522 241.581C321.684 240.842 320.491 240.473 318.942 240.473C317.309 240.473 316.009 240.835 315.043 241.56C314.077 242.27 313.438 243.165 313.126 244.244L304.731 243.562C305.157 241.574 305.995 239.855 307.245 238.406C308.495 236.943 310.107 235.821 312.082 235.04C314.07 234.244 316.371 233.847 318.985 233.847C320.803 233.847 322.543 234.06 324.205 234.486C325.881 234.912 327.366 235.572 328.658 236.467C329.965 237.362 330.995 238.513 331.748 239.919C332.501 241.311 332.877 242.98 332.877 244.926V267H324.269V262.462H324.013C323.488 263.484 322.785 264.386 321.904 265.168C321.023 265.935 319.965 266.538 318.729 266.979C317.494 267.405 316.066 267.618 314.447 267.618ZM317.046 261.354C318.381 261.354 319.56 261.091 320.583 260.565C321.606 260.026 322.408 259.301 322.991 258.392C323.573 257.483 323.864 256.453 323.864 255.303V251.83C323.58 252.014 323.19 252.185 322.692 252.341C322.21 252.483 321.663 252.618 321.052 252.746C320.441 252.859 319.83 252.966 319.219 253.065C318.609 253.151 318.055 253.229 317.558 253.3C316.492 253.456 315.562 253.705 314.766 254.045C313.971 254.386 313.353 254.848 312.913 255.43C312.472 255.999 312.252 256.709 312.252 257.561C312.252 258.797 312.7 259.741 313.594 260.395C314.504 261.034 315.654 261.354 317.046 261.354Z" fill="#1D5B92"/>
<path d="M228.9 518.894C198.15 518.714 195.919 518.669 195.785 518.042C195.804 517.048 195.952 516.06 196.229 515.106C197.725 509.278 202.662 504.033 209.785 500.716C214.989 498.317 215.212 498.25 221.755 497.129L224.435 496.636L224.658 471.756L224.882 446.876L223.988 446.54C222.946 446.213 221.888 445.944 220.817 445.733C215.982 444.588 211.275 442.951 206.77 440.847C199.825 437.664 190.266 429.281 185.644 422.332C181.004 415.16 177.707 407.2 175.909 398.842C174.257 390.907 173.452 377.66 174.413 374.455C174.724 373.517 175.26 372.67 175.975 371.989C178.386 369.972 182.764 371.227 183.411 374.119C183.635 374.724 183.704 378.422 183.793 382.322C184.016 394.426 185.801 402.204 190.491 411.596C193.639 417.872 200.048 425.246 205.386 428.765C210.857 432.351 214.541 433.965 220.861 435.512C224.144 436.319 233.969 436.408 237.386 435.691C244.108 434.257 250.696 431.231 255.877 427.241C262.933 421.772 268.717 413.501 271.687 404.535C273.161 400.052 273.341 399.402 273.855 396.399C274.093 395.039 274.368 393.686 274.681 392.342C274.904 391.58 275.127 387.231 275.261 382.659C275.485 373.917 275.707 372.841 277.404 371.653C279.57 370.129 283.68 371.429 284.595 373.939C285.198 375.665 285.131 385.46 284.372 390.593C283.344 398.416 282.764 401.173 280.866 406.889C277.063 418.826 269.551 429.227 259.429 436.565C254.629 439.837 249.387 442.404 243.863 444.186C241.759 444.961 239.591 445.553 237.386 445.957C236.35 446.106 235.344 446.409 234.396 446.854V471.644C234.396 493.094 234.395 496.21 234.886 496.479C235.199 496.636 237.118 497.084 239.128 497.443C241.138 497.824 243.147 498.339 243.571 498.608C243.996 498.877 244.913 499.214 245.583 499.348C247.28 499.707 251.143 501.612 253.756 503.405C256.815 505.49 260.097 509.166 261.459 512.079C262.755 514.792 263.381 518.714 262.577 518.961C262.287 519.028 247.235 519.006 229.102 518.916L228.9 518.894Z" fill="#1E5C93"/>
<path d="M224.463 422.62C218.832 421.63 217.54 421.248 213.725 419.515C204.664 415.398 198.736 407.817 195.579 396.456C194.807 393.599 194.807 325.908 195.579 323.028C198.713 311.51 206.23 303.006 216.835 299.025C221.785 297.157 222.694 297 228.779 297C235.66 297 239.09 297.72 244.358 300.329C252.76 304.469 259.073 311.983 262.002 321.409C262.865 324.176 262.864 324.423 263 357.403C263 377.537 262.978 391.845 262.728 393.757C261.978 399.327 259.916 404.644 256.71 409.279C251.192 416.703 243.767 421.045 234.093 422.507C230.917 423.115 227.656 423.139 224.463 422.62Z" fill="#ECADBA"/>
<path d="M467.538 318.001C467.538 314.604 464.028 311.85 459.699 311.85C455.369 311.85 451.859 314.604 451.859 318.001V400.035C451.859 403.432 455.369 406.186 459.699 406.186C464.028 406.186 467.538 403.432 467.538 400.035V318.001Z" fill="#7669C6"/>
<path d="M415.678 337.187C415.678 333.827 412.169 331.104 407.839 331.104C403.51 331.104 400 333.827 400 337.187V381.814C400 385.174 403.51 387.898 407.839 387.898C412.169 387.898 415.678 385.174 415.678 381.814V337.187Z" fill="#7669C6"/>
<path d="M519.397 325.716C519.397 322.311 515.89 319.551 511.559 319.551C507.229 319.551 503.719 322.311 503.719 325.716V392.321C503.719 395.725 507.229 398.485 511.559 398.485C515.89 398.485 519.397 395.725 519.397 392.321V325.716Z" fill="#7669C6"/>
<path d="M571.256 314.129C571.256 310.744 567.746 308 563.417 308C559.088 308 555.578 310.744 555.578 314.129V404.871C555.578 408.256 559.088 411 563.417 411C567.746 411 571.256 408.256 571.256 404.871V314.129Z" fill="#7669C6"/>
<path d="M777.487 318.001C777.487 314.604 773.978 311.85 769.648 311.85C765.319 311.85 761.809 314.604 761.809 318.001V400.035C761.809 403.432 765.319 406.186 769.648 406.186C773.978 406.186 777.487 403.432 777.487 400.035V318.001Z" fill="#B489B5"/>
<path d="M725.628 337.187C725.628 333.827 722.118 331.104 717.789 331.104C713.46 331.104 709.95 333.827 709.95 337.187V381.814C709.95 385.174 713.46 387.898 717.789 387.898C722.118 387.898 725.628 385.174 725.628 381.814V337.187Z" fill="#8E75BE"/>
<path d="M673.769 324.712C673.769 321.33 670.529 318.588 666.533 318.588C662.536 318.588 659.296 321.33 659.296 324.712V393.323C659.296 396.706 662.536 399.448 666.533 399.448C670.529 399.448 673.769 396.706 673.769 393.323V324.712Z" fill="#7669C6"/>
<path d="M623.116 323.784C623.116 320.384 619.606 317.627 615.276 317.627C610.947 317.627 607.437 320.384 607.437 323.784V395.217C607.437 398.618 610.947 401.375 615.276 401.375C619.606 401.375 623.116 398.618 623.116 395.217V323.784Z" fill="#7669C6"/>
<path d="M880 324.712C880 321.33 876.76 318.588 872.764 318.588C868.767 318.588 865.528 321.33 865.528 324.712V393.323C865.528 396.706 868.767 399.448 872.764 399.448C876.76 399.448 880 396.706 880 393.323V324.712Z" fill="#EDB0BB"/>
<path d="M829.347 323.784C829.347 320.384 825.837 317.627 821.508 317.627C817.178 317.627 813.668 320.384 813.668 323.784V395.217C813.668 398.618 817.178 401.375 821.508 401.375C825.837 401.375 829.347 398.618 829.347 395.217V323.784Z" fill="#D197B9"/>
<path d="M982.625 292H1085.12V300.542H1110.75V317.625H1085.12V334.708H1110.75V351.792H1085.12V368.875H1110.75V385.958H1085.12V403.042H1110.75V420.125H1085.12V428.667H982.625V420.125H957V403.042H982.625V385.958H957V368.875H982.625V351.792H957V334.708H982.625V317.625H957V300.542H982.625V292ZM1025.33 385.958V411.583H1033.88V385.958H1025.33ZM1042.42 385.958V411.583H1050.96V385.958H1042.42ZM1059.5 385.958V411.583H1068.04V385.958H1059.5Z" fill="#1E5C93"/>
</svg>
