<svg width="1280" height="720" viewBox="0 0 1280 720" fill="none" xmlns="http://www.w3.org/2000/svg">
<rect width="1280" height="720" fill="#ECFAFF"/>
<path d="M308.905 177C308.028 177.041 307.18 177.33 306.461 177.833C289.139 191.064 272.798 205.638 256.028 219.607C250.63 219.607 245.151 219.123 239.109 219.392C235.564 219.553 233 221.514 233 224.671V283.545C233 289.616 235.51 291.134 238.907 291.12L255.987 291.093C272.395 304.687 288.468 318.71 304.93 332.223C308.891 335.366 313.121 332.424 315.753 329.08V184.603C316.29 180.788 312.53 176.839 308.905 177Z" fill="#1E5C93"/>
<mask id="mask0_225_2" style="mask-type:alpha" maskUnits="userSpaceOnUse" x="987" y="83" width="185" height="359">
<path opacity="0.33" d="M1066.5 83.5L993 206.5L987 310L1061.5 441.5L1166.5 387.5L1171.5 156L1066.5 83.5Z" fill="#D9D9D9"/>
</mask>
<g mask="url(#mask0_225_2)">
<ellipse cx="953.5" cy="275" rx="201.5" ry="180" fill="url(#paint0_radial_225_2)"/>
</g>
<path d="M263.026 480.994C257.557 480.994 252.692 480.107 248.43 478.331C244.193 476.532 240.866 474.081 238.452 470.98C236.037 467.879 234.83 464.363 234.83 460.433C234.83 457.403 235.516 454.621 236.889 452.088C238.286 449.531 240.18 447.412 242.571 445.732C244.962 444.027 247.637 442.938 250.597 442.464V441.967C246.714 441.186 243.565 439.304 241.151 436.321C238.736 433.314 237.528 429.822 237.528 425.845C237.528 422.081 238.629 418.731 240.831 415.795C243.033 412.836 246.051 410.516 249.886 408.835C253.745 407.131 258.125 406.278 263.026 406.278C267.926 406.278 272.294 407.131 276.129 408.835C279.988 410.54 283.018 412.872 285.22 415.831C287.422 418.767 288.535 422.105 288.558 425.845C288.535 429.846 287.304 433.338 284.865 436.321C282.427 439.304 279.302 441.186 275.49 441.967V442.464C278.402 442.938 281.042 444.027 283.409 445.732C285.8 447.412 287.694 449.531 289.091 452.088C290.511 454.621 291.233 457.403 291.257 460.433C291.233 464.363 290.014 467.879 287.599 470.98C285.185 474.081 281.847 476.532 277.585 478.331C273.348 480.107 268.494 480.994 263.026 480.994ZM263.026 469.702C265.464 469.702 267.595 469.264 269.418 468.388C271.241 467.488 272.661 466.257 273.679 464.695C274.721 463.108 275.241 461.286 275.241 459.226C275.241 457.119 274.709 455.26 273.643 453.651C272.578 452.017 271.134 450.739 269.311 449.815C267.488 448.868 265.393 448.395 263.026 448.395C260.682 448.395 258.587 448.868 256.74 449.815C254.893 450.739 253.438 452.017 252.372 453.651C251.33 455.26 250.81 457.119 250.81 459.226C250.81 461.286 251.319 463.108 252.337 464.695C253.355 466.257 254.787 467.488 256.634 468.388C258.48 469.264 260.611 469.702 263.026 469.702ZM263.026 437.209C265.062 437.209 266.873 436.795 268.459 435.966C270.045 435.137 271.288 433.989 272.188 432.521C273.087 431.054 273.537 429.361 273.537 427.443C273.537 425.549 273.087 423.892 272.188 422.472C271.288 421.027 270.057 419.903 268.494 419.098C266.932 418.269 265.109 417.855 263.026 417.855C260.966 417.855 259.143 418.269 257.557 419.098C255.971 419.903 254.728 421.027 253.828 422.472C252.952 423.892 252.514 425.549 252.514 427.443C252.514 429.361 252.964 431.054 253.864 432.521C254.763 433.989 256.006 435.137 257.592 435.966C259.179 436.795 260.99 437.209 263.026 437.209ZM328.571 480.994C323.552 480.994 319.077 480.071 315.147 478.224C311.241 476.378 308.14 473.833 305.843 470.589C303.547 467.346 302.351 463.629 302.257 459.439H317.172C317.337 462.256 318.521 464.541 320.723 466.293C322.924 468.045 325.54 468.92 328.571 468.92C330.985 468.92 333.116 468.388 334.963 467.322C336.833 466.233 338.289 464.73 339.331 462.812C340.396 460.871 340.929 458.646 340.929 456.136C340.929 453.58 340.384 451.33 339.295 449.389C338.23 447.448 336.75 445.933 334.856 444.844C332.962 443.755 330.796 443.198 328.358 443.175C326.227 443.175 324.155 443.613 322.143 444.489C320.154 445.365 318.604 446.56 317.491 448.075L303.819 445.625L307.264 407.273H351.724V419.844H319.941L318.059 438.061H318.485C319.764 436.262 321.693 434.77 324.274 433.587C326.854 432.403 329.743 431.811 332.939 431.811C337.318 431.811 341.225 432.841 344.657 434.901C348.09 436.96 350.801 439.789 352.789 443.388C354.778 446.963 355.761 451.082 355.737 455.746C355.761 460.646 354.624 465.002 352.328 468.814C350.055 472.602 346.871 475.585 342.775 477.763C338.703 479.917 333.968 480.994 328.571 480.994Z" fill="#1A3567"/>
<path d="M253.174 527H250.444L242.434 510.35L239.464 527H236.734L240.454 506.06H243.184L251.224 522.68L254.164 506.06H256.894L253.174 527ZM262.598 507.89C262.158 507.89 261.788 507.75 261.488 507.47C261.208 507.17 261.068 506.8 261.068 506.36C261.068 505.76 261.288 505.25 261.728 504.83C262.168 504.39 262.678 504.17 263.258 504.17C263.718 504.17 264.088 504.31 264.368 504.59C264.648 504.87 264.788 505.24 264.788 505.7C264.788 506.3 264.568 506.82 264.128 507.26C263.688 507.68 263.178 507.89 262.598 507.89ZM263.468 510.56L260.558 527H257.828L260.738 510.56H263.468ZM271.781 524.42L279.341 510.56H282.281L272.921 527H269.711L266.171 510.56H269.111L271.781 524.42ZM292.077 510.29C293.457 510.29 294.647 510.56 295.647 511.1C296.667 511.62 297.437 512.36 297.957 513.32C298.497 514.26 298.767 515.34 298.767 516.56C298.767 516.98 298.717 517.49 298.617 518.09C298.537 518.61 298.407 519.15 298.227 519.71H285.087C285.047 520.11 285.027 520.4 285.027 520.58C285.027 521.96 285.437 523.04 286.257 523.82C287.097 524.58 288.187 524.96 289.527 524.96C290.707 524.96 291.737 524.69 292.617 524.15C293.517 523.59 294.197 522.85 294.657 521.93H297.597C296.877 523.51 295.767 524.8 294.267 525.8C292.787 526.78 291.067 527.27 289.107 527.27C287.047 527.27 285.387 526.68 284.127 525.5C282.887 524.3 282.267 522.67 282.267 520.61C282.267 520.03 282.327 519.41 282.447 518.75C282.747 517.05 283.357 515.56 284.277 514.28C285.197 513 286.327 512.02 287.667 511.34C289.027 510.64 290.497 510.29 292.077 510.29ZM295.857 517.73C295.917 517.33 295.947 516.96 295.947 516.62C295.947 515.34 295.537 514.35 294.717 513.65C293.917 512.95 292.867 512.6 291.567 512.6C290.167 512.6 288.897 513.06 287.757 513.98C286.617 514.88 285.847 516.13 285.447 517.73H295.857ZM307.291 504.8L303.361 527H300.631L304.561 504.8H307.291ZM317.369 518.72C317.669 517.04 318.269 515.57 319.169 514.31C320.089 513.03 321.209 512.04 322.529 511.34C323.849 510.64 325.249 510.29 326.729 510.29C327.989 510.29 329.119 510.59 330.119 511.19C331.119 511.77 331.829 512.54 332.249 513.5L333.779 504.8H336.539L332.609 527H329.849L330.419 523.91C329.719 524.89 328.779 525.7 327.599 526.34C326.419 526.96 325.119 527.27 323.699 527.27C322.419 527.27 321.289 527 320.309 526.46C319.329 525.9 318.559 525.11 317.999 524.09C317.459 523.07 317.189 521.89 317.189 520.55C317.189 519.95 317.249 519.34 317.369 518.72ZM331.319 518.75C331.399 518.33 331.439 517.88 331.439 517.4C331.439 515.94 330.999 514.79 330.119 513.95C329.259 513.09 328.159 512.66 326.819 512.66C325.799 512.66 324.819 512.9 323.879 513.38C322.959 513.86 322.169 514.56 321.509 515.48C320.849 516.4 320.409 517.48 320.189 518.72C320.109 519.14 320.069 519.6 320.069 520.1C320.069 521.58 320.499 522.75 321.359 523.61C322.219 524.45 323.319 524.87 324.659 524.87C325.679 524.87 326.649 524.63 327.569 524.15C328.509 523.65 329.309 522.94 329.969 522.02C330.649 521.08 331.099 519.99 331.319 518.75ZM347.272 510.29C348.652 510.29 349.842 510.56 350.842 511.1C351.862 511.62 352.632 512.36 353.152 513.32C353.692 514.26 353.962 515.34 353.962 516.56C353.962 516.98 353.912 517.49 353.812 518.09C353.732 518.61 353.602 519.15 353.422 519.71H340.282C340.242 520.11 340.222 520.4 340.222 520.58C340.222 521.96 340.632 523.04 341.452 523.82C342.292 524.58 343.382 524.96 344.722 524.96C345.902 524.96 346.932 524.69 347.812 524.15C348.712 523.59 349.392 522.85 349.852 521.93H352.792C352.072 523.51 350.962 524.8 349.462 525.8C347.982 526.78 346.262 527.27 344.302 527.27C342.242 527.27 340.582 526.68 339.322 525.5C338.082 524.3 337.462 522.67 337.462 520.61C337.462 520.03 337.522 519.41 337.642 518.75C337.942 517.05 338.552 515.56 339.472 514.28C340.392 513 341.522 512.02 342.862 511.34C344.222 510.64 345.692 510.29 347.272 510.29ZM351.052 517.73C351.112 517.33 351.142 516.96 351.142 516.62C351.142 515.34 350.732 514.35 349.912 513.65C349.112 512.95 348.062 512.6 346.762 512.6C345.362 512.6 344.092 513.06 342.952 513.98C341.812 514.88 341.042 516.13 340.642 517.73H351.052ZM262.767 547.68C263.427 546.6 264.257 545.76 265.257 545.16C266.257 544.56 267.397 544.26 268.677 544.26L268.167 547.08H267.447C266.027 547.08 264.837 547.46 263.877 548.22C262.937 548.98 262.307 550.26 261.987 552.06L260.397 561H257.667L260.577 544.56H263.307L262.767 547.68ZM286.348 544.56L283.438 561H280.708L281.128 558.6C280.468 559.44 279.628 560.09 278.608 560.55C277.588 561.01 276.528 561.24 275.428 561.24C273.708 561.24 272.328 560.78 271.288 559.86C270.268 558.92 269.758 557.58 269.758 555.84C269.758 555.4 269.808 554.85 269.908 554.19L271.618 544.56H274.318L272.698 553.83C272.618 554.25 272.578 554.69 272.578 555.15C272.578 556.37 272.908 557.3 273.568 557.94C274.248 558.56 275.188 558.87 276.388 558.87C277.828 558.87 279.048 558.42 280.048 557.52C281.068 556.62 281.718 555.31 281.998 553.59V553.68L283.618 544.56H286.348ZM292.818 541.89C292.378 541.89 292.008 541.75 291.708 541.47C291.428 541.17 291.288 540.8 291.288 540.36C291.288 539.76 291.508 539.25 291.948 538.83C292.388 538.39 292.898 538.17 293.478 538.17C293.938 538.17 294.308 538.31 294.588 538.59C294.868 538.87 295.008 539.24 295.008 539.7C295.008 540.3 294.788 540.82 294.348 541.26C293.908 541.68 293.398 541.89 292.818 541.89ZM293.688 544.56L290.778 561H288.048L290.958 544.56H293.688ZM295.85 552.72C296.15 551.04 296.75 549.57 297.65 548.31C298.57 547.03 299.69 546.04 301.01 545.34C302.33 544.64 303.73 544.29 305.21 544.29C306.47 544.29 307.6 544.59 308.6 545.19C309.6 545.77 310.31 546.54 310.73 547.5L312.26 538.8H315.02L311.09 561H308.33L308.9 557.91C308.2 558.89 307.26 559.7 306.08 560.34C304.9 560.96 303.6 561.27 302.18 561.27C300.9 561.27 299.77 561 298.79 560.46C297.81 559.9 297.04 559.11 296.48 558.09C295.94 557.07 295.67 555.89 295.67 554.55C295.67 553.95 295.73 553.34 295.85 552.72ZM309.8 552.75C309.88 552.33 309.92 551.88 309.92 551.4C309.92 549.94 309.48 548.79 308.6 547.95C307.74 547.09 306.64 546.66 305.3 546.66C304.28 546.66 303.3 546.9 302.36 547.38C301.44 547.86 300.65 548.56 299.99 549.48C299.33 550.4 298.89 551.48 298.67 552.72C298.59 553.14 298.55 553.6 298.55 554.1C298.55 555.58 298.98 556.75 299.84 557.61C300.7 558.45 301.8 558.87 303.14 558.87C304.16 558.87 305.13 558.63 306.05 558.15C306.99 557.65 307.79 556.94 308.45 556.02C309.13 555.08 309.58 553.99 309.8 552.75ZM322.934 561.27C321.554 561.27 320.334 560.99 319.274 560.43C318.234 559.85 317.424 559.05 316.844 558.03C316.264 556.99 315.974 555.79 315.974 554.43C315.974 552.57 316.404 550.87 317.264 549.33C318.124 547.77 319.304 546.54 320.804 545.64C322.324 544.74 324.014 544.29 325.874 544.29C327.254 544.29 328.474 544.58 329.534 545.16C330.614 545.72 331.444 546.52 332.024 547.56C332.624 548.58 332.924 549.78 332.924 551.16C332.924 553.02 332.484 554.72 331.604 556.26C330.724 557.8 329.524 559.02 328.004 559.92C326.484 560.82 324.794 561.27 322.934 561.27ZM323.264 558.96C324.564 558.96 325.734 558.61 326.774 557.91C327.814 557.19 328.624 556.25 329.204 555.09C329.804 553.91 330.104 552.65 330.104 551.31C330.104 549.79 329.664 548.63 328.784 547.83C327.904 547.01 326.804 546.6 325.484 546.6C324.184 546.6 323.024 546.96 322.004 547.68C320.984 548.38 320.194 549.32 319.634 550.5C319.074 551.68 318.794 552.95 318.794 554.31C318.794 555.79 319.214 556.94 320.054 557.76C320.894 558.56 321.964 558.96 323.264 558.96Z" fill="black"/>
<path d="M765.543 201.001C765.543 197.604 769.053 194.85 773.382 194.85C777.711 194.85 781.221 197.604 781.221 201.001V283.035C781.221 286.432 777.711 289.186 773.382 289.186C769.053 289.186 765.543 286.432 765.543 283.035V201.001Z" fill="#7669C6"/>
<path d="M822.222 220.187C822.222 216.827 825.731 214.104 830.061 214.104C834.39 214.104 837.9 216.827 837.9 220.187V264.814C837.9 268.174 834.39 270.898 830.061 270.898C825.731 270.898 822.222 268.174 822.222 264.814V220.187Z" fill="#7669C6"/>
<path d="M708.865 208.716C708.865 205.311 712.372 202.551 716.702 202.551C721.032 202.551 724.543 205.311 724.543 208.716V275.321C724.543 278.725 721.032 281.485 716.702 281.485C712.372 281.485 708.865 278.725 708.865 275.321V208.716Z" fill="#7669C6"/>
<path d="M652.186 197.129C652.186 193.744 655.696 191 660.025 191C664.355 191 667.865 193.744 667.865 197.129V287.871C667.865 291.256 664.355 294 660.025 294C655.696 294 652.186 291.256 652.186 287.871V197.129Z" fill="#7669C6"/>
<path d="M426.678 201.001C426.678 197.604 430.188 194.85 434.517 194.85C438.847 194.85 442.357 197.604 442.357 201.001V283.035C442.357 286.432 438.847 289.186 434.517 289.186C430.188 289.186 426.678 286.432 426.678 283.035V201.001Z" fill="#B489B5"/>
<path d="M483.357 220.187C483.357 216.827 486.867 214.104 491.196 214.104C495.525 214.104 499.035 216.827 499.035 220.187V264.814C499.035 268.174 495.525 270.898 491.196 270.898C486.867 270.898 483.357 268.174 483.357 264.814V220.187Z" fill="#8E75BE"/>
<path d="M540.035 207.712C540.035 204.33 543.275 201.588 547.271 201.588C551.268 201.588 554.508 204.33 554.508 207.712V276.323C554.508 279.706 551.268 282.448 547.271 282.448C543.275 282.448 540.035 279.706 540.035 276.323V207.712Z" fill="#7669C6"/>
<path d="M595.508 206.784C595.508 203.384 599.018 200.627 603.347 200.627C607.676 200.627 611.186 203.384 611.186 206.784V278.217C611.186 281.618 607.676 284.375 603.347 284.375C599.018 284.375 595.508 281.618 595.508 278.217V206.784Z" fill="#7669C6"/>
<path d="M370 206.784C370 203.384 373.51 200.627 377.839 200.627C382.168 200.627 385.678 203.384 385.678 206.784V278.217C385.678 281.618 382.168 284.375 377.839 284.375C373.51 284.375 370 281.618 370 278.217V206.784Z" fill="#D197B9"/>
<path d="M919.078 281.937L807 392.232" stroke="#66A3D9" stroke-width="20"/>
<path d="M884.363 540.962L816.734 399.001" stroke="#66A3D9" stroke-width="20"/>
<circle cx="997.634" cy="260.171" r="34.5" transform="rotate(-35.2841 997.634 260.171)" fill="#FFC993"/>
<path d="M912.102 255.379C913.615 221.71 942.135 195.642 975.803 197.155L997.931 198.149L992.453 320.074L970.326 319.08C936.657 317.567 910.59 289.047 912.102 255.379Z" fill="#1E5C93"/>
<rect x="875.272" y="278.65" width="65" height="61" rx="12" transform="rotate(-84.1353 875.272 278.65)" fill="#1E5C93"/>
<circle cx="813" cy="395.996" r="25" fill="#D197B9"/>
<circle cx="813" cy="395.996" r="13" fill="#EDB0BB"/>
<path d="M847 539.004C847 532.376 852.373 527.004 859 527.004H955C961.627 527.004 967 532.376 967 539.004V555.004H847V539.004Z" fill="#1E5C93"/>
<defs>
<radialGradient id="paint0_radial_225_2" cx="0" cy="0" r="1" gradientUnits="userSpaceOnUse" gradientTransform="translate(953.5 275) rotate(90) scale(180 201.5)">
<stop offset="0.509615" stop-color="#FEA17F"/>
<stop offset="1" stop-color="#FFC93C" stop-opacity="0"/>
</radialGradient>
</defs>
</svg>
