<svg width="1280" height="720" viewBox="0 0 1280 720" fill="none" xmlns="http://www.w3.org/2000/svg">
<rect width="1280" height="720" fill="#ECFAFF"/>
<path d="M133.793 134V90.3636H163.196V97.9702H143.018V108.368H161.683V115.974H143.018V126.393H163.281V134H133.793ZM179.437 115.08V134H170.36V101.273H179.011V107.047H179.395C180.119 105.143 181.333 103.638 183.038 102.53C184.743 101.408 186.809 100.847 189.238 100.847C191.511 100.847 193.493 101.344 195.183 102.338C196.873 103.332 198.187 104.753 199.125 106.599C200.062 108.432 200.531 110.619 200.531 113.162V134H191.454V114.781C191.468 112.778 190.957 111.216 189.92 110.094C188.883 108.957 187.456 108.389 185.637 108.389C184.416 108.389 183.336 108.652 182.399 109.178C181.475 109.703 180.751 110.47 180.225 111.479C179.714 112.473 179.451 113.673 179.437 115.08ZM225.092 101.273V108.091H205.384V101.273H225.092ZM209.858 93.4318H218.935V123.943C218.935 124.781 219.063 125.435 219.318 125.903C219.574 126.358 219.929 126.678 220.384 126.862C220.852 127.047 221.392 127.139 222.003 127.139C222.429 127.139 222.855 127.104 223.281 127.033C223.707 126.947 224.034 126.884 224.261 126.841L225.689 133.595C225.234 133.737 224.595 133.901 223.771 134.085C222.947 134.284 221.946 134.405 220.767 134.447C218.58 134.533 216.662 134.241 215.014 133.574C213.381 132.906 212.109 131.869 211.2 130.463C210.291 129.057 209.844 127.281 209.858 125.136V93.4318ZM231.005 134V101.273H239.805V106.983H240.146C240.742 104.952 241.744 103.418 243.15 102.381C244.556 101.33 246.175 100.804 248.008 100.804C248.462 100.804 248.952 100.832 249.478 100.889C250.004 100.946 250.465 101.024 250.863 101.124V109.178C250.437 109.05 249.847 108.936 249.094 108.837C248.342 108.737 247.653 108.688 247.028 108.688C245.692 108.688 244.499 108.979 243.448 109.561C242.411 110.129 241.587 110.925 240.977 111.947C240.38 112.97 240.082 114.149 240.082 115.484V134H231.005ZM263.951 134.618C261.863 134.618 260.002 134.256 258.368 133.531C256.735 132.793 255.442 131.706 254.49 130.271C253.553 128.822 253.084 127.018 253.084 124.859C253.084 123.041 253.418 121.514 254.086 120.278C254.753 119.043 255.662 118.048 256.813 117.295C257.963 116.543 259.27 115.974 260.733 115.591C262.211 115.207 263.759 114.938 265.378 114.781C267.282 114.582 268.816 114.398 269.98 114.227C271.145 114.043 271.99 113.773 272.516 113.418C273.042 113.062 273.304 112.537 273.304 111.841V111.713C273.304 110.364 272.878 109.32 272.026 108.581C271.188 107.842 269.995 107.473 268.446 107.473C266.813 107.473 265.513 107.835 264.547 108.56C263.581 109.27 262.942 110.165 262.63 111.244L254.235 110.562C254.661 108.574 255.499 106.855 256.749 105.406C257.999 103.943 259.611 102.821 261.586 102.04C263.574 101.244 265.875 100.847 268.489 100.847C270.307 100.847 272.047 101.06 273.709 101.486C275.385 101.912 276.87 102.572 278.162 103.467C279.469 104.362 280.499 105.513 281.252 106.919C282.005 108.311 282.381 109.98 282.381 111.926V134H273.773V129.462H273.517C272.992 130.484 272.289 131.386 271.408 132.168C270.527 132.935 269.469 133.538 268.233 133.979C266.998 134.405 265.57 134.618 263.951 134.618ZM266.55 128.354C267.885 128.354 269.064 128.091 270.087 127.565C271.11 127.026 271.912 126.301 272.495 125.392C273.077 124.483 273.368 123.453 273.368 122.303V118.83C273.084 119.014 272.694 119.185 272.196 119.341C271.713 119.483 271.167 119.618 270.556 119.746C269.945 119.859 269.334 119.966 268.723 120.065C268.113 120.151 267.559 120.229 267.061 120.3C265.996 120.456 265.066 120.705 264.27 121.045C263.475 121.386 262.857 121.848 262.417 122.43C261.976 122.999 261.756 123.709 261.756 124.561C261.756 125.797 262.203 126.741 263.098 127.395C264.007 128.034 265.158 128.354 266.55 128.354ZM301.483 134.533C298.997 134.533 296.745 133.893 294.728 132.615C292.725 131.322 291.135 129.426 289.956 126.926C288.791 124.412 288.208 121.33 288.208 117.679C288.208 113.929 288.812 110.811 290.02 108.325C291.227 105.825 292.832 103.957 294.835 102.722C296.852 101.472 299.061 100.847 301.461 100.847C303.294 100.847 304.821 101.159 306.042 101.784C307.278 102.395 308.272 103.162 309.025 104.085C309.792 104.994 310.375 105.889 310.772 106.77H311.049V90.3636H320.105V134H311.156V128.759H310.772C310.346 129.668 309.743 130.57 308.961 131.464C308.194 132.345 307.193 133.077 305.957 133.659C304.735 134.241 303.244 134.533 301.483 134.533ZM304.359 127.31C305.822 127.31 307.058 126.912 308.066 126.116C309.089 125.307 309.87 124.178 310.41 122.729C310.964 121.28 311.241 119.582 311.241 117.636C311.241 115.69 310.971 114 310.431 112.565C309.892 111.131 309.11 110.023 308.088 109.241C307.065 108.46 305.822 108.07 304.359 108.07C302.868 108.07 301.61 108.474 300.588 109.284C299.565 110.094 298.791 111.216 298.265 112.651C297.74 114.085 297.477 115.747 297.477 117.636C297.477 119.54 297.74 121.223 298.265 122.686C298.805 124.135 299.579 125.271 300.588 126.095C301.61 126.905 302.868 127.31 304.359 127.31ZM336.9 134.618C334.812 134.618 332.951 134.256 331.317 133.531C329.684 132.793 328.391 131.706 327.44 130.271C326.502 128.822 326.033 127.018 326.033 124.859C326.033 123.041 326.367 121.514 327.035 120.278C327.702 119.043 328.612 118.048 329.762 117.295C330.913 116.543 332.219 115.974 333.683 115.591C335.16 115.207 336.708 114.938 338.327 114.781C340.231 114.582 341.765 114.398 342.93 114.227C344.094 114.043 344.94 113.773 345.465 113.418C345.991 113.062 346.254 112.537 346.254 111.841V111.713C346.254 110.364 345.827 109.32 344.975 108.581C344.137 107.842 342.944 107.473 341.396 107.473C339.762 107.473 338.462 107.835 337.496 108.56C336.531 109.27 335.891 110.165 335.579 111.244L327.184 110.562C327.61 108.574 328.448 106.855 329.698 105.406C330.948 103.943 332.56 102.821 334.535 102.04C336.523 101.244 338.825 100.847 341.438 100.847C343.256 100.847 344.996 101.06 346.658 101.486C348.335 101.912 349.819 102.572 351.112 103.467C352.418 104.362 353.448 105.513 354.201 106.919C354.954 108.311 355.33 109.98 355.33 111.926V134H346.722V129.462H346.467C345.941 130.484 345.238 131.386 344.357 132.168C343.477 132.935 342.418 133.538 341.183 133.979C339.947 134.405 338.519 134.618 336.9 134.618ZM339.499 128.354C340.835 128.354 342.013 128.091 343.036 127.565C344.059 127.026 344.862 126.301 345.444 125.392C346.026 124.483 346.317 123.453 346.317 122.303V118.83C346.033 119.014 345.643 119.185 345.146 119.341C344.663 119.483 344.116 119.618 343.505 119.746C342.894 119.859 342.283 119.966 341.673 120.065C341.062 120.151 340.508 120.229 340.011 120.3C338.945 120.456 338.015 120.705 337.219 121.045C336.424 121.386 335.806 121.848 335.366 122.43C334.925 122.999 334.705 123.709 334.705 124.561C334.705 125.797 335.153 126.741 336.048 127.395C336.957 128.034 338.107 128.354 339.499 128.354ZM389.602 110.605L381.293 111.116C381.151 110.406 380.845 109.767 380.376 109.199C379.908 108.616 379.29 108.155 378.523 107.814C377.77 107.459 376.868 107.281 375.817 107.281C374.411 107.281 373.224 107.58 372.259 108.176C371.293 108.759 370.81 109.54 370.81 110.52C370.81 111.301 371.122 111.962 371.747 112.501C372.372 113.041 373.445 113.474 374.964 113.801L380.888 114.994C384.07 115.648 386.442 116.699 388.004 118.148C389.567 119.597 390.348 121.5 390.348 123.858C390.348 126.003 389.716 127.885 388.452 129.504C387.202 131.124 385.483 132.388 383.295 133.297C381.122 134.192 378.615 134.639 375.774 134.639C371.442 134.639 367.99 133.737 365.419 131.933C362.862 130.115 361.364 127.643 360.923 124.518L369.851 124.05C370.121 125.371 370.774 126.379 371.811 127.075C372.848 127.757 374.176 128.098 375.795 128.098C377.386 128.098 378.665 127.793 379.631 127.182C380.611 126.557 381.108 125.754 381.122 124.774C381.108 123.95 380.76 123.276 380.078 122.75C379.396 122.21 378.345 121.798 376.925 121.514L371.257 120.385C368.061 119.746 365.682 118.638 364.119 117.061C362.571 115.484 361.797 113.474 361.797 111.031C361.797 108.929 362.365 107.118 363.501 105.598C364.652 104.078 366.264 102.906 368.338 102.082C370.426 101.259 372.869 100.847 375.668 100.847C379.801 100.847 383.054 101.72 385.426 103.467C387.813 105.214 389.205 107.594 389.602 110.605Z" fill="#1D5B92"/>
<path d="M976.007 102.913C975.837 101.195 975.105 99.8594 973.813 98.9077C972.52 97.956 970.766 97.4801 968.55 97.4801C967.044 97.4801 965.773 97.6932 964.736 98.1193C963.699 98.5312 962.904 99.1065 962.35 99.8452C961.81 100.584 961.54 101.422 961.54 102.359C961.512 103.141 961.675 103.822 962.03 104.405C962.4 104.987 962.904 105.491 963.543 105.918C964.182 106.33 964.921 106.692 965.759 107.004C966.597 107.303 967.492 107.558 968.444 107.771L972.364 108.709C974.267 109.135 976.015 109.703 977.605 110.413C979.196 111.124 980.574 111.997 981.739 113.034C982.904 114.071 983.806 115.293 984.445 116.699C985.098 118.105 985.432 119.717 985.446 121.536C985.432 124.206 984.75 126.521 983.401 128.482C982.066 130.428 980.134 131.94 977.605 133.02C975.091 134.085 972.059 134.618 968.507 134.618C964.985 134.618 961.917 134.078 959.303 132.999C956.703 131.919 954.672 130.321 953.209 128.205C951.76 126.074 951 123.439 950.929 120.3H959.857C959.956 121.763 960.375 122.984 961.114 123.964C961.867 124.93 962.868 125.662 964.118 126.159C965.382 126.642 966.81 126.884 968.401 126.884C969.963 126.884 971.32 126.656 972.471 126.202C973.635 125.747 974.537 125.115 975.176 124.305C975.816 123.496 976.135 122.565 976.135 121.514C976.135 120.534 975.844 119.71 975.262 119.043C974.694 118.375 973.855 117.807 972.748 117.338C971.654 116.869 970.311 116.443 968.721 116.06L963.969 114.866C960.29 113.972 957.385 112.572 955.255 110.669C953.124 108.766 952.066 106.202 952.08 102.977C952.066 100.335 952.769 98.027 954.189 96.0526C955.624 94.0781 957.591 92.5369 960.091 91.429C962.591 90.321 965.432 89.767 968.614 89.767C971.853 89.767 974.679 90.321 977.094 91.429C979.523 92.5369 981.412 94.0781 982.762 96.0526C984.111 98.027 984.807 100.314 984.85 102.913H976.007ZM1000.81 134.618C998.726 134.618 996.865 134.256 995.232 133.531C993.598 132.793 992.305 131.706 991.354 130.271C990.416 128.822 989.947 127.018 989.947 124.859C989.947 123.041 990.281 121.514 990.949 120.278C991.616 119.043 992.526 118.048 993.676 117.295C994.827 116.543 996.134 115.974 997.597 115.591C999.074 115.207 1000.62 114.938 1002.24 114.781C1004.14 114.582 1005.68 114.398 1006.84 114.227C1008.01 114.043 1008.85 113.773 1009.38 113.418C1009.9 113.062 1010.17 112.537 1010.17 111.841V111.713C1010.17 110.364 1009.74 109.32 1008.89 108.581C1008.05 107.842 1006.86 107.473 1005.31 107.473C1003.68 107.473 1002.38 107.835 1001.41 108.56C1000.44 109.27 999.805 110.165 999.493 111.244L991.098 110.562C991.524 108.574 992.362 106.855 993.612 105.406C994.862 103.943 996.474 102.821 998.449 102.04C1000.44 101.244 1002.74 100.847 1005.35 100.847C1007.17 100.847 1008.91 101.06 1010.57 101.486C1012.25 101.912 1013.73 102.572 1015.03 103.467C1016.33 104.362 1017.36 105.513 1018.12 106.919C1018.87 108.311 1019.24 109.98 1019.24 111.926V134H1010.64V129.462H1010.38C1009.86 130.484 1009.15 131.386 1008.27 132.168C1007.39 132.935 1006.33 133.538 1005.1 133.979C1003.86 134.405 1002.43 134.618 1000.81 134.618ZM1003.41 128.354C1004.75 128.354 1005.93 128.091 1006.95 127.565C1007.97 127.026 1008.78 126.301 1009.36 125.392C1009.94 124.483 1010.23 123.453 1010.23 122.303V118.83C1009.95 119.014 1009.56 119.185 1009.06 119.341C1008.58 119.483 1008.03 119.618 1007.42 119.746C1006.81 119.859 1006.2 119.966 1005.59 120.065C1004.98 120.151 1004.42 120.229 1003.92 120.3C1002.86 120.456 1001.93 120.705 1001.13 121.045C1000.34 121.386 999.72 121.848 999.28 122.43C998.839 122.999 998.619 123.709 998.619 124.561C998.619 125.797 999.067 126.741 999.962 127.395C1000.87 128.034 1002.02 128.354 1003.41 128.354ZM1035.36 90.3636V134H1026.29V90.3636H1035.36ZM1042.63 134V101.273H1051.71V134H1042.63ZM1047.19 97.054C1045.84 97.054 1044.69 96.6065 1043.72 95.7116C1042.77 94.8026 1042.29 93.7159 1042.29 92.4517C1042.29 91.2017 1042.77 90.1293 1043.72 89.2344C1044.69 88.3253 1045.84 87.8707 1047.19 87.8707C1048.54 87.8707 1049.69 88.3253 1050.65 89.2344C1051.61 90.1293 1052.09 91.2017 1052.09 92.4517C1052.09 93.7159 1051.61 94.8026 1050.65 95.7116C1049.69 96.6065 1048.54 97.054 1047.19 97.054ZM1071.04 134.533C1068.56 134.533 1066.3 133.893 1064.29 132.615C1062.28 131.322 1060.69 129.426 1059.51 126.926C1058.35 124.412 1057.77 121.33 1057.77 117.679C1057.77 113.929 1058.37 110.811 1059.58 108.325C1060.79 105.825 1062.39 103.957 1064.39 102.722C1066.41 101.472 1068.62 100.847 1071.02 100.847C1072.85 100.847 1074.38 101.159 1075.6 101.784C1076.84 102.395 1077.83 103.162 1078.58 104.085C1079.35 104.994 1079.93 105.889 1080.33 106.77H1080.61V90.3636H1089.66V134H1080.71V128.759H1080.33C1079.9 129.668 1079.3 130.57 1078.52 131.464C1077.75 132.345 1076.75 133.077 1075.52 133.659C1074.29 134.241 1072.8 134.533 1071.04 134.533ZM1073.92 127.31C1075.38 127.31 1076.62 126.912 1077.62 126.116C1078.65 125.307 1079.43 124.178 1079.97 122.729C1080.52 121.28 1080.8 119.582 1080.8 117.636C1080.8 115.69 1080.53 114 1079.99 112.565C1079.45 111.131 1078.67 110.023 1077.65 109.241C1076.62 108.46 1075.38 108.07 1073.92 108.07C1072.43 108.07 1071.17 108.474 1070.15 109.284C1069.12 110.094 1068.35 111.216 1067.82 112.651C1067.3 114.085 1067.04 115.747 1067.04 117.636C1067.04 119.54 1067.3 121.223 1067.82 122.686C1068.36 124.135 1069.14 125.271 1070.15 126.095C1071.17 126.905 1072.43 127.31 1073.92 127.31ZM1106.46 134.618C1104.37 134.618 1102.51 134.256 1100.88 133.531C1099.24 132.793 1097.95 131.706 1097 130.271C1096.06 128.822 1095.59 127.018 1095.59 124.859C1095.59 123.041 1095.93 121.514 1096.59 120.278C1097.26 119.043 1098.17 118.048 1099.32 117.295C1100.47 116.543 1101.78 115.974 1103.24 115.591C1104.72 115.207 1106.27 114.938 1107.89 114.781C1109.79 114.582 1111.32 114.398 1112.49 114.227C1113.65 114.043 1114.5 113.773 1115.02 113.418C1115.55 113.062 1115.81 112.537 1115.81 111.841V111.713C1115.81 110.364 1115.39 109.32 1114.53 108.581C1113.7 107.842 1112.5 107.473 1110.95 107.473C1109.32 107.473 1108.02 107.835 1107.06 108.56C1106.09 109.27 1105.45 110.165 1105.14 111.244L1096.74 110.562C1097.17 108.574 1098.01 106.855 1099.26 105.406C1100.51 103.943 1102.12 102.821 1104.09 102.04C1106.08 101.244 1108.38 100.847 1111 100.847C1112.81 100.847 1114.56 101.06 1116.22 101.486C1117.89 101.912 1119.38 102.572 1120.67 103.467C1121.98 104.362 1123.01 105.513 1123.76 106.919C1124.51 108.311 1124.89 109.98 1124.89 111.926V134H1116.28V129.462H1116.03C1115.5 130.484 1114.8 131.386 1113.92 132.168C1113.04 132.935 1111.98 133.538 1110.74 133.979C1109.51 134.405 1108.08 134.618 1106.46 134.618ZM1109.06 128.354C1110.39 128.354 1111.57 128.091 1112.59 127.565C1113.62 127.026 1114.42 126.301 1115 125.392C1115.58 124.483 1115.88 123.453 1115.88 122.303V118.83C1115.59 119.014 1115.2 119.185 1114.7 119.341C1114.22 119.483 1113.67 119.618 1113.06 119.746C1112.45 119.859 1111.84 119.966 1111.23 120.065C1110.62 120.151 1110.07 120.229 1109.57 120.3C1108.5 120.456 1107.57 120.705 1106.78 121.045C1105.98 121.386 1105.36 121.848 1104.92 122.43C1104.48 122.999 1104.26 123.709 1104.26 124.561C1104.26 125.797 1104.71 126.741 1105.61 127.395C1106.52 128.034 1107.67 128.354 1109.06 128.354ZM1159.16 110.605L1150.85 111.116C1150.71 110.406 1150.4 109.767 1149.94 109.199C1149.47 108.616 1148.85 108.155 1148.08 107.814C1147.33 107.459 1146.43 107.281 1145.38 107.281C1143.97 107.281 1142.78 107.58 1141.82 108.176C1140.85 108.759 1140.37 109.54 1140.37 110.52C1140.37 111.301 1140.68 111.962 1141.31 112.501C1141.93 113.041 1143 113.474 1144.52 113.801L1150.45 114.994C1153.63 115.648 1156 116.699 1157.56 118.148C1159.13 119.597 1159.91 121.5 1159.91 123.858C1159.91 126.003 1159.27 127.885 1158.01 129.504C1156.76 131.124 1155.04 132.388 1152.85 133.297C1150.68 134.192 1148.17 134.639 1145.33 134.639C1141 134.639 1137.55 133.737 1134.98 131.933C1132.42 130.115 1130.92 127.643 1130.48 124.518L1139.41 124.05C1139.68 125.371 1140.33 126.379 1141.37 127.075C1142.41 127.757 1143.73 128.098 1145.35 128.098C1146.94 128.098 1148.22 127.793 1149.19 127.182C1150.17 126.557 1150.67 125.754 1150.68 124.774C1150.67 123.95 1150.32 123.276 1149.64 122.75C1148.95 122.21 1147.9 121.798 1146.48 121.514L1140.82 120.385C1137.62 119.746 1135.24 118.638 1133.68 117.061C1132.13 115.484 1131.36 113.474 1131.36 111.031C1131.36 108.929 1131.92 107.118 1133.06 105.598C1134.21 104.078 1135.82 102.906 1137.9 102.082C1139.98 101.259 1142.43 100.847 1145.23 100.847C1149.36 100.847 1152.61 101.72 1154.98 103.467C1157.37 105.214 1158.76 107.594 1159.16 110.605Z" fill="#1D5B92"/>
<path d="M253.181 292.943C236.836 292.847 235.65 292.824 235.579 292.489C235.59 291.958 235.668 291.431 235.815 290.921C236.611 287.811 239.235 285.011 243.021 283.24C245.787 281.96 245.906 281.924 249.383 281.326L250.808 281.062L250.927 267.782L251.045 254.501L250.57 254.322C250.016 254.148 249.454 254.004 248.885 253.891C246.315 253.28 243.813 252.406 241.418 251.283C237.727 249.584 232.646 245.109 230.189 241.4C227.723 237.572 225.97 233.323 225.015 228.862C224.136 224.626 223.709 217.555 224.219 215.844C224.385 215.343 224.67 214.891 225.05 214.528C226.332 213.451 228.658 214.121 229.002 215.665C229.121 215.988 229.158 217.962 229.205 220.044C229.324 226.505 230.273 230.656 232.765 235.669C234.439 239.019 237.846 242.956 240.682 244.834C243.591 246.748 245.549 247.61 248.908 248.435C250.653 248.866 255.876 248.914 257.692 248.531C261.265 247.765 264.766 246.15 267.52 244.02C271.271 241.101 274.345 236.686 275.924 231.9C276.707 229.508 276.803 229.161 277.076 227.557C277.203 226.832 277.349 226.109 277.515 225.392C277.634 224.985 277.752 222.664 277.824 220.223C277.942 215.557 278.06 214.983 278.962 214.349C280.114 213.535 282.298 214.229 282.785 215.569C283.105 216.49 283.07 221.719 282.666 224.459C282.12 228.634 281.812 230.106 280.803 233.157C278.781 239.529 274.788 245.081 269.408 248.998C266.857 250.744 264.071 252.114 261.134 253.066C260.016 253.479 258.864 253.795 257.692 254.011C257.141 254.091 256.606 254.252 256.102 254.489V267.722C256.102 279.172 256.102 280.835 256.363 280.979C256.529 281.062 257.549 281.302 258.618 281.493C259.686 281.697 260.754 281.972 260.979 282.115C261.205 282.259 261.693 282.438 262.049 282.51C262.951 282.702 265.004 283.719 266.393 284.676C268.019 285.788 269.763 287.751 270.487 289.306C271.176 290.754 271.509 292.848 271.082 292.979C270.927 293.015 262.927 293.003 253.288 292.955L253.181 292.943Z" fill="#1E5C93" stroke="#1E5C93" stroke-width="4"/>
<path d="M251.598 238.804C248.617 238.278 247.933 238.075 245.913 237.153C241.116 234.964 237.978 230.932 236.307 224.891C235.898 223.371 235.898 187.373 236.307 185.842C237.966 179.716 241.945 175.194 247.56 173.077C250.18 172.084 250.661 172 253.883 172C257.526 172 259.342 172.383 262.131 173.771C266.579 175.972 269.921 179.968 271.472 184.98C271.929 186.452 271.928 186.584 272 204.122C272 214.829 271.988 222.438 271.856 223.455C271.459 226.417 270.367 229.245 268.67 231.71C265.749 235.658 261.818 237.967 256.697 238.745C255.015 239.068 253.288 239.08 251.598 238.804Z" fill="#4D89BE"/>
<path d="M293.773 591.291C294.989 590.136 296.603 589.492 298.28 589.492C299.957 589.492 301.571 590.136 302.787 591.291C305.277 593.691 305.277 597.584 302.787 599.984L296.781 605.771M293.773 591.291L299.784 585.499C302.275 583.099 302.275 579.206 299.784 576.806C298.568 575.651 296.955 575.006 295.277 575.006C293.6 575.006 291.987 575.651 290.771 576.806L286.264 581.152L271.235 595.638M293.773 591.291L277.245 607.222M296.781 605.771C297.997 604.616 299.611 603.972 301.288 603.972C302.965 603.972 304.579 604.616 305.795 605.771C306.386 606.329 306.858 607.003 307.18 607.75C307.502 608.497 307.668 609.301 307.668 610.115C307.668 610.928 307.502 611.733 307.18 612.48C306.858 613.227 306.386 613.901 305.795 614.459L287.261 632.326C280.733 638.619 277.464 641.766 273.869 643.312C271.784 644.208 268.339 644.598 265.736 644.763C263.48 644.907 261.309 645.75 259.709 647.296L256.211 650.667M296.781 605.771L283.256 618.806M286.259 581.152C286.85 580.594 287.322 579.921 287.644 579.174C287.966 578.427 288.132 577.622 288.132 576.808C288.132 575.995 287.966 575.19 287.644 574.443C287.322 573.696 286.85 573.023 286.259 572.464C285.043 571.309 283.429 570.665 281.752 570.665C280.075 570.665 278.461 571.309 277.245 572.464L251.816 596.976L251.832 587.574C251.837 583.451 248.12 580.246 243.869 580.71C240.616 581.062 238.013 583.494 237.544 586.619L234.541 610.363C233.971 614.902 231.021 619.915 227.661 623.152M201 600C204.509 596.544 207.592 591.206 208.195 586.358L211.325 561.014C211.574 559.379 212.358 557.873 213.555 556.732C214.752 555.591 216.294 554.88 217.939 554.71C222.387 554.219 226.264 557.632 226.259 562.032L226.237 572.08L252.819 545.92C254.078 544.689 255.769 544 257.531 544C259.292 544 260.983 544.689 262.243 545.92C262.859 546.524 263.35 547.244 263.684 548.04C264.019 548.835 264.191 549.689 264.191 550.552C264.191 551.415 264.019 552.269 263.684 553.065C263.35 553.86 262.859 554.581 262.243 555.184L266.957 550.55C268.217 549.319 269.908 548.629 271.669 548.629C273.431 548.629 275.122 549.319 276.381 550.55C277.683 551.83 278.333 553.51 278.333 555.19M262.248 555.19L248.995 568.214" stroke="#1E5C93" stroke-width="7" stroke-linecap="round" stroke-linejoin="round"/>
<path d="M1006 196V255.758V196Z" fill="#1E5C93"/>
<path d="M1006 196V255.758" stroke="#1E5C93" stroke-width="7" stroke-miterlimit="10"/>
<path d="M1007.75 255.508C1007.75 261.854 1002.43 267 995.875 267C989.32 267 984 261.859 984 255.508C984 249.158 989.314 244.016 995.875 244.016C1002.44 244.016 1007.75 249.158 1007.75 255.508Z" fill="#1E5C93" stroke="#1E5C93" stroke-width="5" stroke-miterlimit="10"/>
<path d="M1049 194V253.758V194Z" fill="#1E5C93"/>
<path d="M1049 194V253.758" stroke="#1E5C93" stroke-width="7" stroke-miterlimit="10"/>
<path d="M1050.65 255.508C1050.65 261.854 1045.51 267 1039.16 267C1032.82 267 1027.67 261.859 1027.67 255.508C1027.67 249.158 1032.81 244.016 1039.16 244.016C1045.51 244.016 1050.65 249.158 1050.65 255.508Z" fill="#1E5C93" stroke="#1E5C93" stroke-width="5" stroke-miterlimit="10"/>
<path d="M1091 173V232.758V173Z" fill="#2376B4"/>
<path d="M1091 173V232.758" stroke="#2376B4" stroke-width="7" stroke-miterlimit="10"/>
<path d="M1093.56 232.525C1093.56 238.871 1088.41 244.017 1082.06 244.017C1075.72 244.017 1070.57 238.877 1070.57 232.525C1070.57 226.175 1075.72 221.033 1082.06 221.033C1088.42 221.033 1093.56 226.175 1093.56 232.525Z" fill="#2376B4" stroke="#2376B4" stroke-width="5" stroke-miterlimit="10"/>
<path d="M1005 195H1050V209H1005L1005 195Z" fill="#1E5C93" stroke="#1E5C93" stroke-width="5" stroke-miterlimit="10"/>
<path d="M273.397 457.559H233.052L237.824 484.022L246.066 490.095H261.25L268.191 484.022L273.397 457.559Z" fill="#1E5C93" stroke="black"/>
<path fill-rule="evenodd" clip-rule="evenodd" d="M233.913 409.302C235.541 410.035 237.468 409.309 238.209 407.68C238.22 407.652 239.478 404.934 242.045 402.366C244.659 399.753 247.403 398.358 247.442 398.336C249.046 397.538 249.7 395.589 248.905 393.985C248.637 393.442 248.221 392.984 247.706 392.665C247.19 392.345 246.596 392.176 245.99 392.177C245.504 392.177 245.012 392.285 244.551 392.515C244.4 392.59 240.859 394.359 237.451 397.768C233.995 401.223 232.345 404.865 232.277 405.02C231.547 406.656 232.277 408.565 233.913 409.302Z" fill="#4D89BE"/>
<path fill-rule="evenodd" clip-rule="evenodd" d="M233.949 453.24C233.05 447.053 229.703 441.965 226.183 436.626C221.67 429.78 217 422.704 217 412.824C217 392.862 233.988 376 254.094 376C264.233 376 273.772 380.3 280.948 388.106C287.19 394.894 290.915 403.523 290.915 411.185C290.915 424.711 285.946 431.247 281.563 437.014C278.05 441.638 274.962 445.708 274.275 453.24L275.3 453.24C275.783 453.241 276.26 453.349 276.697 453.556C277.133 453.764 277.518 454.066 277.824 454.441C278.442 455.2 278.683 456.196 278.482 457.156L272.769 484.466C272.452 485.973 271.125 487.052 269.587 487.052L268.31 487.052C266.857 489.21 263.833 492.384 258.273 493.534C254.641 494.11 252.667 494.199 249.338 493.534C243.802 492.375 240.767 489.195 239.299 487.055L237.997 487.055C237.251 487.055 236.527 486.798 235.948 486.327C235.368 485.856 234.968 485.201 234.815 484.47L229.102 457.159C229.003 456.686 229.01 456.197 229.124 455.728C229.238 455.258 229.455 454.82 229.76 454.445C230.379 453.686 231.306 453.244 232.284 453.244L233.949 453.244L233.949 453.24ZM251.304 435.278L253.763 418.056L256.762 435.278L251.304 435.278ZM254.09 382.504C272.6 382.504 284.41 399.492 284.41 411.188C284.41 422.884 280.513 427.652 276.385 433.084C272.492 438.208 268.476 443.489 267.746 453.247L257.344 453.247L257.344 441.785L260.63 441.785C261.104 441.785 261.573 441.682 262.002 441.482C262.432 441.282 262.813 440.99 263.118 440.628C263.424 440.265 263.647 439.84 263.77 439.382C263.894 438.924 263.916 438.445 263.834 437.978L259.584 413.561C259.311 411.979 257.937 410.868 256.384 410.868C256.201 410.868 256.01 410.883 255.823 410.915C255.4 410.988 254.996 411.145 254.633 411.376C254.271 411.607 253.958 411.907 253.713 412.26C253.458 411.893 253.131 411.584 252.751 411.35C252.371 411.116 251.947 410.963 251.505 410.901C249.74 410.649 248.082 411.882 247.827 413.658L244.34 438.075C244.207 439.01 244.483 439.952 245.102 440.664C245.407 441.015 245.784 441.298 246.208 441.491C246.631 441.685 247.092 441.785 247.557 441.785L250.844 441.785L250.844 453.247L240.518 453.247C239.63 445.208 235.56 439.038 231.612 433.052C227.441 426.731 223.501 420.759 223.501 412.831C223.501 396.681 237.796 382.511 254.094 382.511L254.09 382.504ZM266.944 480.555L266.408 480.555C265.053 480.555 263.855 481.353 263.381 482.622C263.298 482.82 261.296 487.479 253.828 487.479C246.36 487.479 244.275 482.795 244.203 482.622C243.965 482.013 243.548 481.49 243.008 481.121C242.468 480.752 241.83 480.555 241.176 480.555L240.64 480.555L236.286 459.744L271.298 459.744L266.944 480.555Z" fill="#1E5C93"/>
<path d="M255 362V343" stroke="#4D89BE" stroke-width="8.47214" stroke-linecap="round" stroke-linejoin="round"/>
<path d="M294 385L307 377" stroke="#4D89BE" stroke-width="8.47214" stroke-linecap="round" stroke-linejoin="round"/>
<path d="M214 385L201 377" stroke="#4D89BE" stroke-width="8.47214" stroke-linecap="round" stroke-linejoin="round"/>
<path d="M277 368L285 355" stroke="#4D89BE" stroke-width="8.47214" stroke-linecap="round" stroke-linejoin="round"/>
<path d="M231 368L223 355" stroke="#4D89BE" stroke-width="8.47214" stroke-linecap="round" stroke-linejoin="round"/>
<path d="M1024.14 388V373.455H1029.88C1030.98 373.455 1031.91 373.651 1032.69 374.044C1033.47 374.432 1034.07 374.984 1034.47 375.699C1034.88 376.409 1035.09 377.245 1035.09 378.206C1035.09 379.172 1034.88 380.003 1034.47 380.699C1034.05 381.39 1033.45 381.92 1032.65 382.29C1031.87 382.659 1030.92 382.844 1029.8 382.844H1025.96V380.372H1029.3C1029.89 380.372 1030.38 380.292 1030.77 380.131C1031.15 379.97 1031.44 379.728 1031.63 379.406C1031.83 379.084 1031.92 378.684 1031.92 378.206C1031.92 377.723 1031.83 377.316 1031.63 376.984C1031.44 376.653 1031.15 376.402 1030.76 376.232C1030.37 376.056 1029.88 375.969 1029.29 375.969H1027.21V388H1024.14ZM1031.99 381.381L1035.61 388H1032.21L1028.68 381.381H1031.99Z" fill="#1A3567"/>
<path d="M995.694 440.156C995.595 439.811 995.455 439.505 995.275 439.24C995.095 438.97 994.875 438.743 994.615 438.558C994.359 438.369 994.065 438.224 993.734 438.125C993.407 438.026 993.045 437.976 992.647 437.976C991.904 437.976 991.251 438.161 990.687 438.53C990.128 438.899 989.693 439.437 989.38 440.142C989.068 440.843 988.912 441.7 988.912 442.713C988.912 443.726 989.065 444.588 989.373 445.298C989.681 446.009 990.117 446.551 990.68 446.925C991.243 447.294 991.909 447.479 992.676 447.479C993.372 447.479 993.966 447.356 994.458 447.109C994.956 446.858 995.334 446.506 995.595 446.051C995.86 445.597 995.993 445.059 995.993 444.439L996.618 444.531H992.868V442.216H998.954V444.048C998.954 445.327 998.684 446.425 998.145 447.344C997.605 448.258 996.861 448.963 995.914 449.46C994.967 449.953 993.883 450.199 992.662 450.199C991.298 450.199 990.1 449.898 989.068 449.297C988.036 448.691 987.231 447.831 986.653 446.719C986.08 445.601 985.794 444.276 985.794 442.741C985.794 441.562 985.964 440.511 986.305 439.588C986.651 438.66 987.134 437.874 987.754 437.23C988.374 436.586 989.096 436.096 989.92 435.76C990.744 435.424 991.636 435.256 992.598 435.256C993.422 435.256 994.189 435.376 994.899 435.618C995.609 435.855 996.239 436.191 996.788 436.626C997.342 437.062 997.794 437.58 998.145 438.182C998.495 438.778 998.72 439.437 998.819 440.156H995.694Z" fill="#1A3567"/>
<path d="M1060.04 450V435.455H1065.87C1066.94 435.455 1067.83 435.613 1068.54 435.93C1069.26 436.248 1069.8 436.688 1070.16 437.251C1070.52 437.81 1070.69 438.454 1070.69 439.183C1070.69 439.751 1070.58 440.251 1070.35 440.682C1070.13 441.108 1069.81 441.458 1069.42 441.733C1069.02 442.003 1068.57 442.195 1068.07 442.308V442.45C1068.62 442.474 1069.14 442.63 1069.62 442.919C1070.11 443.208 1070.51 443.613 1070.81 444.134C1071.11 444.65 1071.26 445.265 1071.26 445.98C1071.26 446.752 1071.07 447.441 1070.69 448.047C1070.31 448.648 1069.75 449.124 1069 449.474C1068.26 449.825 1067.35 450 1066.26 450H1060.04ZM1063.12 447.486H1065.62C1066.48 447.486 1067.11 447.322 1067.5 446.996C1067.89 446.664 1068.09 446.224 1068.09 445.675C1068.09 445.272 1067.99 444.917 1067.8 444.609C1067.6 444.302 1067.33 444.06 1066.97 443.885C1066.61 443.71 1066.19 443.622 1065.69 443.622H1063.12V447.486ZM1063.12 441.541H1065.4C1065.82 441.541 1066.19 441.468 1066.52 441.321C1066.85 441.17 1067.11 440.956 1067.3 440.682C1067.49 440.407 1067.59 440.078 1067.59 439.695C1067.59 439.169 1067.4 438.745 1067.03 438.423C1066.66 438.101 1066.14 437.94 1065.45 437.94H1063.12V441.541Z" fill="#1A3567"/>
<circle cx="1056" cy="439" r="40" stroke="#1A3567" stroke-width="5"/>
<circle cx="1002" cy="439" r="40" stroke="#1A3567" stroke-width="5"/>
<circle cx="1029" cy="395" r="40" stroke="#1A3567" stroke-width="5"/>
<path d="M1007.83 622.546L979.61 602.257M992.619 590.674L1014.91 607.197M992.173 588.438L1016.49 564.757M1012.78 547.588L973.193 585.167M1038.35 572.739L1028.39 562.555M971 591.671C971 594.544 972.141 597.3 974.173 599.331C976.205 601.363 978.96 602.504 981.833 602.504C984.707 602.504 987.462 601.363 989.494 599.331C991.525 597.3 992.667 594.544 992.667 591.671C992.667 588.798 991.525 586.042 989.494 584.011C987.462 581.979 984.707 580.838 981.833 580.838C978.96 580.838 976.205 581.979 974.173 584.011C972.141 586.042 971 588.798 971 591.671ZM1009.99 554.833C1009.99 557.707 1011.13 560.462 1013.16 562.494C1015.2 564.525 1017.95 565.667 1020.82 565.667C1023.7 565.667 1026.45 564.525 1028.48 562.494C1030.52 560.462 1031.66 557.707 1031.66 554.833C1031.66 551.96 1030.52 549.205 1028.48 547.173C1026.45 545.141 1023.7 544 1020.82 544C1017.95 544 1015.2 545.141 1013.16 547.173C1011.13 549.205 1009.99 551.96 1009.99 554.833ZM1036 578.671C1036 580.97 1036.91 583.174 1038.53 584.799C1040.16 586.425 1042.36 587.338 1044.66 587.338C1046.96 587.338 1049.17 586.425 1050.79 584.799C1052.42 583.174 1053.33 580.97 1053.33 578.671C1053.33 576.372 1052.42 574.168 1050.79 572.543C1049.17 570.917 1046.96 570.004 1044.66 570.004C1042.36 570.004 1040.16 570.917 1038.53 572.543C1036.91 574.168 1036 576.372 1036 578.671Z" stroke="#1E5C93" stroke-width="7" stroke-linecap="round" stroke-linejoin="round"/>
<path d="M1053.11 576.716C1054.99 576.366 1056.92 576.434 1058.77 576.915C1060.62 577.396 1062.34 578.278 1063.81 579.499C1065.27 580.72 1066.46 582.249 1067.27 583.979C1068.08 585.708 1068.5 587.594 1068.5 589.504M1055.5 602.504C1053.59 602.505 1051.7 602.085 1049.97 601.274C1048.24 600.462 1046.71 599.28 1045.49 597.811C1044.27 596.342 1043.39 594.622 1042.91 592.774C1042.43 590.925 1042.36 588.994 1042.71 587.116M972.079 641.504H1067.41M1007.83 641.504V618.75C1007.83 615.302 1009.2 611.995 1011.64 609.557C1014.07 607.119 1017.38 605.75 1020.83 605.75C1024.28 605.75 1027.58 607.119 1030.02 609.557C1032.46 611.995 1033.83 615.302 1033.83 618.75V641.5" stroke="#1E5C93" stroke-width="7" stroke-linecap="round" stroke-linejoin="round"/>
<path d="M391 228.268L646.004 227.134L901.009 226" stroke="#ECADBA" stroke-width="5"/>
<path d="M391 420.535L901.009 418.267" stroke="#ECADBA" stroke-width="5"/>
<path d="M391 612.803L901.009 610.535" stroke="#ECADBA" stroke-width="5"/>
<path d="M878 588.5L901 611L878 635" stroke="#ECADBA" stroke-width="5"/>
<path d="M878 395L901 417.5L878 441.5" stroke="#ECADBA" stroke-width="5"/>
<path d="M878 203L901 225.5L878 249.5" stroke="#ECADBA" stroke-width="5"/>
</svg>
