<svg xmlns="http://www.w3.org/2000/svg" width="1280" height="720" xmlns:v="https://vecta.io/nano"><style><![CDATA[.B{clip-path:none}]]></style><defs><clipPath ><path d="M0 0h708.12v398.41H0z" fill="none" stroke-width="0"/></clipPath><linearGradient x1="638.924" y1="742.563" x2="638.924" y2="-25.591" gradientUnits="userSpaceOnUse" spreadMethod="pad" id="B"><stop offset="0" stop-color="#3291ff"/><stop offset="1" stop-color="#35c2ff"/></linearGradient></defs><path d="M.004 0h1277.811v719.54H.004z"/><path d="M0 0h1280v720H0z" fill="url(#B)" class="B"/><path d="M1280 677.722v-21.746c-13.617 1.615-22.515 8.704-27.81 13.69-6.007 5.657-7.157 8.137-17.058 8.137-9.892 0-10.824-2.396-16.75-8.071s-16.564-14.11-33.589-14.11-27.485 8.786-32.879 14.481-5.418 7.7-15.31 7.7-11.193-2.49-16.85-8.005-15.73-14.176-31.605-14.176-27.038 7.546-34.632 13.292-11.458 8.889-17.308 8.889c-5.844 0-11.657-3.592-19.579-9.129s-17.943-13.052-31.825-13.052c-16.915 0-27.541 8.386-33.549 14.044s-7.161 8.137-17.054 8.137-10.831-2.4-16.757-8.075-16.562-14.106-33.583-14.106-27.49 8.785-32.885 14.481-5.412 7.7-15.306 7.7-11.191-2.495-16.85-8.011-15.734-14.171-31.613-14.171-27.038 7.546-34.632 13.292-11.454 8.889-17.297 8.889-11.659-3.592-19.584-9.129-17.948-13.052-31.831-13.052v21.674c5.655 0 11.438 3.58 19.385 9.133s18.068 13.046 32.029 13.046 23.348-7.947 30.41-13.29 11.966-8.889 21.519-8.889c9.56 0 10.73 2.434 16.45 8.009s15.932 14.171 32.013 14.171 25.967-9.086 31.078-14.481 5.751-7.698 17.114-7.698c11.355 0 12.901 2.659 18.556 8.075s15.701 14.104 31.784 14.104 26.173-8.611 31.943-14.044 7.462-8.135 18.66-8.135c5.652 0 11.428 3.579 19.374 9.133s18.068 13.046 32.029 13.046 23.355-7.947 30.416-13.29 11.964-8.889 21.524-8.889c9.553 0 10.72 2.433 16.44 8.009s15.932 14.171 32.015 14.171 25.968-9.082 31.081-14.477 5.753-7.702 17.109-7.702c11.363 0 12.907 2.66 18.56 8.075s15.697 14.104 31.778 14.104 26.18-8.61 31.95-14.044c4.557-4.292 6.755-6.812 12.918-7.71zm0-65.47v-21.746c-13.617 1.615-22.515 8.706-27.81 13.692-6.007 5.657-7.157 8.137-17.058 8.137-9.892 0-10.824-2.402-16.75-8.077s-16.564-14.104-33.589-14.104-27.485 8.786-32.879 14.481-5.418 7.7-15.31 7.7-11.193-2.496-16.85-8.011-15.73-14.171-31.605-14.171-27.038 7.546-34.632 13.292-11.458 8.889-17.308 8.889c-5.844 0-11.657-3.598-19.579-9.135s-17.943-13.046-31.825-13.046c-16.915 0-27.541 8.386-33.549 14.044s-7.161 8.137-17.054 8.137-10.831-2.402-16.757-8.077-16.562-14.104-33.583-14.104-27.49 8.785-32.885 14.481-5.412 7.7-15.306 7.7-11.191-2.495-16.85-8.011-15.734-14.171-31.613-14.171-27.038 7.546-34.632 13.292-11.454 8.889-17.297 8.889-11.659-3.598-19.584-9.135-17.948-13.046-31.831-13.046c-16.913 0-27.533 8.387-33.541 14.044s-7.159 8.137-17.054 8.137-10.827-2.402-16.754-8.077-16.562-14.104-33.584-14.104-27.492 8.785-32.887 14.481-5.411 7.7-15.304 7.7-11.19-2.495-16.85-8.011-15.736-14.171-31.615-14.171-27.031 7.546-34.625 13.292-11.461 8.889-17.304 8.889-11.658-3.598-19.583-9.135-17.947-13.046-31.83-13.046v21.672c5.657 0 11.438 3.582 19.385 9.135s18.066 13.046 32.027 13.046 23.35-7.949 30.412-13.292 11.965-8.889 21.517-8.889c9.56 0 10.732 2.436 16.452 8.01s15.932 14.171 32.013 14.171 25.967-9.086 31.078-14.481 5.753-7.7 17.114-7.7 12.899 2.661 18.554 8.077 15.703 14.104 31.784 14.104 26.176-8.611 31.946-14.044 7.455-8.137 18.648-8.137c5.655 0 11.438 3.582 19.385 9.135s18.068 13.046 32.029 13.046 23.348-7.949 30.41-13.292 11.966-8.889 21.519-8.889c9.56 0 10.73 2.436 16.45 8.01s15.932 14.171 32.013 14.171 25.967-9.086 31.078-14.481 5.751-7.7 17.114-7.7c11.355 0 12.901 2.661 18.556 8.077s15.701 14.104 31.784 14.104 26.173-8.611 31.943-14.044 7.462-8.137 18.66-8.137c5.652 0 11.428 3.575 19.374 9.129s18.068 13.052 32.029 13.052 23.355-7.949 30.416-13.292 11.964-8.889 21.524-8.889c9.553 0 10.72 2.429 16.44 8.005s15.932 14.176 32.015 14.176 25.968-9.086 31.081-14.481 5.753-7.7 17.109-7.7c11.363 0 12.907 2.662 18.56 8.077s15.697 14.104 31.778 14.104 26.18-8.61 31.95-14.044c4.557-4.292 6.754-6.814 12.918-7.712zm0-64.639v-21.701c-13.621 1.613-22.514 8.715-27.81 13.702-6.007 5.657-7.157 8.135-17.058 8.135-9.892 0-10.824-2.4-16.75-8.075s-16.564-14.104-33.589-14.104-27.485 8.786-32.879 14.481-5.418 7.698-15.31 7.698-11.193-2.49-16.85-8.005-15.73-14.175-31.605-14.175-27.038 7.544-34.632 13.29-11.458 8.889-17.308 8.889c-5.844 0-11.657-3.592-19.579-9.129s-17.943-13.05-31.825-13.05c-16.915 0-27.541 8.386-33.549 14.044s-7.161 8.135-17.054 8.135-10.831-2.4-16.757-8.075-16.562-14.104-33.583-14.104-27.49 8.786-32.885 14.481-5.412 7.698-15.306 7.698-11.191-2.493-16.85-8.009-15.734-14.171-31.613-14.171-27.038 7.544-34.632 13.29-11.454 8.889-17.297 8.889-11.659-3.592-19.584-9.129-17.948-13.05-31.831-13.05c-16.913 0-27.533 8.387-33.541 14.044s-7.159 8.135-17.054 8.135-10.827-2.4-16.754-8.075-16.562-14.104-33.584-14.104-27.492 8.786-32.887 14.481-5.411 7.698-15.304 7.698-11.19-2.493-16.85-8.009-15.736-14.171-31.615-14.171-27.031 7.544-34.625 13.29-11.461 8.889-17.304 8.889-11.658-3.592-19.583-9.129-17.947-13.05-31.83-13.05v21.672c5.657 0 11.438 3.582 19.385 9.135s18.066 13.046 32.027 13.046 23.35-7.949 30.412-13.292 11.965-8.889 21.517-8.889c9.56 0 10.732 2.436 16.452 8.011s15.932 14.171 32.013 14.171 25.967-9.086 31.078-14.481 5.753-7.7 17.114-7.7 12.899 2.66 18.554 8.075 15.703 14.106 31.784 14.106 26.176-8.611 31.946-14.044 7.455-8.137 18.648-8.137c5.655 0 11.438 3.582 19.385 9.135s18.068 13.046 32.029 13.046 23.348-7.949 30.41-13.292 11.966-8.889 21.519-8.889c9.56 0 10.73 2.436 16.45 8.011s15.932 14.171 32.013 14.171 25.967-9.086 31.078-14.481 5.751-7.7 17.114-7.7c11.355 0 12.901 2.659 18.556 8.075s15.701 14.106 31.784 14.106 26.173-8.611 31.943-14.044 7.462-8.137 18.66-8.137c5.652 0 11.428 3.581 19.374 9.135s18.068 13.046 32.029 13.046 23.355-7.949 30.416-13.292 11.964-8.889 21.524-8.889c9.553 0 10.72 2.435 16.44 8.011s15.932 14.171 32.015 14.171 25.968-9.086 31.081-14.481 5.753-7.7 17.109-7.7c11.363 0 12.907 2.66 18.56 8.075s15.697 14.106 31.778 14.106 26.18-8.61 31.95-14.044c4.585-4.318 6.665-6.884 12.918-7.766z" fill="#1e5c93"/><path d="M.001 459.088v260.453h785.006C541.742 463.528 54.743 458.795.001 459.088z" fill="#bc9353" class="B"/><g fill="#ff7b54"><path d="M301.409 622.964h194.943v32.874H301.409zm40.621-393.778h110.864v16.432H342.03z" class="B"/><path d="M316.401 622.964l40.798-377.345h82.022l40.705 377.345z" class="B"/></g><path d="M354.295 177.243h85.734v51.941h-85.734z" fill="#ffc93c" class="B"/><path d="M342.03 177.243h110.847l-54.71-42.083z" fill="#ff7b54" class="B"/><path d="M479.926 622.964H316.401l8.233-75.468h147.087zm-16.279-150.943H332.735l8.159-75.477h114.623zm-16.27-150.925H349.05l8.149-75.477h82.022z" class="B" fill="#fff"/><path d="M166.306 406.044l-64.726 59.119v90.563h129.436v-90.563z" fill="#1e5c93" class="B"/><path d="M944.682 34.078L452.877 198.821 944.682 402.94z" fill="#ffc93c" class="B"/></svg>