<svg xmlns="http://www.w3.org/2000/svg" width="1280" height="720" xmlns:v="https://vecta.io/nano"><defs><clipPath ><path d="M0 0h708.12v398.41H0z" fill="none" stroke-width="0"/></clipPath><linearGradient id="B" gradientTransform="matrix(0,763.16996,762.53251,0,-752924.55,-1004797.2)" x1="1317.442" y1="988.242" x2="1316.696" y2="988.242" gradientUnits="userSpaceOnUse" spreadMethod="pad"><stop offset="0" stop-color="#f6a227"/><stop offset="1" stop-color="#ffc93c"/></linearGradient></defs><path d="M0 0h1280v720H0z" clip-path="none" fill="url(#B)"/><ellipse cx="552.58" cy="373.403" rx="288.5" ry="286.378" fill="#34c3ff"/><path d="M504.114 258.58c-13.936-27.653-41.934-43.254-70.793-39.447-24.03 3.169-41.054 18.117-50.73 15.609-10.874-3.002-14.391-14.777-6.948-23.255 5.92-6.741 29.528-16.705 47.578-20.082 36.064-5.109 66.14 5.437 88.34 28.403 12.667 13.298 20.906 27.211 20.906 35.299-3.405 18.81-21.645 16.481-28.353 3.473zm93.063 26.137c-8.699-5.855-8.615-17.42.171-23.938 32.707-18.012 113.617-27.122 158.059-6.194 6.852 3.245 4.618 14.173-1.934 19.926-4.425 3.885-8.349 4.094-21.903 1.167-23.45-5.065-55.409-5.501-80.448-1.099-17.449 3.048-45.124 15.968-53.945 10.138z" fill="#ff7b54"/><path d="M591.305 357.34c33.839 24.327 63.293-3.385 41.522-32.099 52.107-12.756 84.564 29.731 85.185 65.886.136 31.915-21.746 58.415-51.731 65.802-63.35 5.278-100.556-46.604-74.976-99.589z" fill="#1e5c93"/><path d="M621.328 595.985c-55.483-27.251-98.677-35.879-158.472-32.894-16.783 2.841-23.222-15.078-14.72-23.868 4.287-4.155 9.498-5.137 32.061-6.043 34.576-1.389 73.093 4.622 108.99 17.007 16.659 5.747 35.912 14.335 47.279 21.088 9.077 4.84 13.271 12.766 10.386 19.762-2.462 5.938-7.463 9.701-12.869 9.682-2.439-.01-6.899-1.678-12.652-4.735z" fill="#7c2869"/><path d="M450.215 445.367l-7.84-1.598c-3.163-.615-10.107-3.211-15.433-5.769-17.572-8.44-30.352-24.428-35.425-44.318-2.267-8.891-2.221-23.656.105-32.408 1.565-5.897 5.633-16.727 6.284-16.727.124 0 2.184 1.864 4.579 4.142 31.773 29.936 61.64-1.895 38.082-37.245.708-.438 6.958-.984 13.891-1.215 14.451-.481 24.275 1.574 35.451 7.416 8.385 4.383 23.077 19.076 27.461 27.461 17.876 34.196 4.469 76.775-29.242 92.863-5.325 2.542-11.962 5.16-14.75 5.82-5.67 1.342-19.947 2.314-23.158 1.577z" fill="#1e5c93"/><path d="M766.339 214.068c-.861-8.87 7.628-17.612 10.853-26.222 14.749-27.535 28.163-55.83 44.057-82.726 25.153-36.037 73.716-53.276 115.934-40.938 13.636 3.912 26.502 10.768 37.879 19.179 32.748 25.299 48.145 70.489 37.534 110.502-9.086 36.938-39.07 67.865-76.05 77.291-27.935 8.145-58.603 2.938-83.587-11.494l-86.62-45.592z" fill="#a184dc"/><path d="M914.364 120.177q17.836 0 28.642 9.776 10.975 9.604 10.975 26.583 0 16.807-10.804 25.725-10.805 8.747-28.641 8.747l-.686 13.206h-21.096l-.856-29.156h7.717q14.921 0 22.981-3.945 8.061-3.945 8.061-14.406 0-7.546-4.459-12.005-4.288-4.459-11.834-4.459-7.889 0-12.348 4.288-4.288 4.288-4.288 11.834H875.09q-.172-10.462 4.459-18.694 4.631-8.232 13.549-12.863 9.09-4.631 21.266-4.631zm-11.148 125.026q-6.516 0-10.804-3.945-4.117-4.116-4.117-10.119 0-6.003 4.117-9.947 4.288-4.116 10.804-4.116 6.346 0 10.462 4.116 4.116 3.945 4.116 9.947 0 6.003-4.116 10.119-4.116 3.945-10.462 3.945z" fill="#fff"/></svg>