<svg xmlns="http://www.w3.org/2000/svg" width="1280" height="720" xmlns:v="https://vecta.io/nano"><defs><clipPath ><path d="M0 0h708.12v398.41H0z" fill="none" stroke-width="0"/></clipPath><linearGradient id="B" gradientTransform="matrix(0,391.70768,391.3805,0,-613730.76,173985.12)" x1="-444.171" y1="1569.753" x2="-442.334" y2="1569.751" gradientUnits="userSpaceOnUse" spreadMethod="pad"><stop offset="0" stop-color="#ff7b54"/><stop offset="1" stop-color="#d64e4e"/></linearGradient></defs><path d="M0 0h1279.999v720H0z" fill="url(#B)"/><path d="M665.534 600.88c19.191-2.411 33.283-5.521 49.578-10.939 53.964-17.945 99.811-54.521 129.392-103.226 4.209-6.93 14.819-27.63 16.215-31.637l.711-2.039h-30.336-30.337l-3.428 5.613c-26.945 44.121-71.607 75.332-121.806 85.12-44.595 8.695-92.715.373-131.511-22.744-40.514-24.141-68.747-59.694-81.242-102.306-2.329-7.944-4.944-21.919-5.731-30.629l-.449-4.971h17.266c17.77 0 18.806-.142 18.806-2.583 0-.574-14.111-21.804-31.357-47.179-29.169-42.915-31.485-46.136-33.181-46.136s-3.372 2.346-24.471 34.318c-39.895 60.456-38.822 58.757-38.027 60.243.68 1.271 1.303 1.322 18.167 1.487l17.463.171.5 3.849c4.348 33.38 11.488 57.286 25.209 84.404 18.265 36.094 46.804 68.027 80.942 90.564 9.731 6.425 15.598 9.796 26.77 15.384 21.528 10.768 46.417 18.495 72.164 22.403 11.326 1.719 47.553 2.235 58.693.835z" fill="#ffc93c"/><path d="M853.268 432.993c.985-.791 60.661-91.024 61.297-92.683.18-.471-.185-1.423-.811-2.115-1.079-1.192-2.063-1.259-18.36-1.259h-17.219v-2.544c0-1.399-.451-5.801-1.002-9.782-9.591-69.239-49.94-131.696-109.328-169.234-25.721-16.257-55.844-28.064-84.992-33.313-33.027-5.948-68.427-4.792-100.595 3.285-61.443 15.426-113.757 54.088-147.028 108.657-3.647 5.981-15.388 29.047-16.559 32.532-.355 1.059 1.353 1.123 29.998 1.123h30.376l2.684-4.518c7.874-13.254 16.561-24.255 28.868-36.557 29.339-29.329 66.763-47.376 108.431-52.289 10.557-1.245 31.921-1.226 42.652.038 77.23 9.094 141.694 64.766 157.829 136.303 1.575 6.987 3.501 20.233 3.501 24.087v2.212h-17.191c-17.868 0-18.73.125-18.73 2.722 0 1.496 61.923 92.649 63.521 93.504 1.481.793 1.459.795 2.658-.169z" fill="#34c3ff"/></svg>