<svg xmlns="http://www.w3.org/2000/svg" width="1280" height="720" xmlns:v="https://vecta.io/nano"><style><![CDATA[#C{animation:flashing 2s linear infinite}@keyframes flashing{0%{opacity:0}50%{opacity:1}100%{opacity:0}}.B{clip-path:none}]]></style><defs><clipPath ><path d="M0 0h708.12v398.41H0z" fill="none" stroke-width="0"/></clipPath><linearGradient id="B" gradientTransform="matrix(0,-806.80324,806.13026,0,-1251388.8,1068510.8)" x1="1320.58" y1="1564.8" x2="1321.65" y2="1564.8" gradientUnits="userSpaceOnUse" spreadMethod="pad"><stop offset="0" stop-color="#1f5e96"/><stop offset="1" stop-color="#3291ff"/></linearGradient></defs><g transform="translate(-9400.103 -2283.908)"><path d="M9400.103 2283.908h1280v720h-1280z" fill="url(#B)" class="B"/><path d="M9400.103 2743.456v260.453h785.006c-243.265-256.013-730.264-260.746-785.006-260.453z" fill="#1dae27" class="B"/></g><g fill="#ff7b54"><path d="M131.363 638.006h194.943v32.874H131.363zm40.621-393.778h110.864v16.432H171.984z" class="B"/><path d="M146.355 638.006l40.798-377.345h82.022l40.705 377.345z" class="B"/></g><path d="M184.249 192.285h85.734v51.941h-85.734z" fill="#ffc93c" class="B"/><path d="M171.984 192.285h110.847l-54.71-42.083z" fill="#ff7b54" class="B"/><path d="M309.88 638.006H146.355l8.233-75.468h147.087zm-16.279-150.943H162.689l8.159-75.477h114.623zm-16.27-150.925h-98.327l8.149-75.477h82.022z" class="B" fill="#fff"/><path d="M1148.637 49.12L282.831 213.863l865.805 204.119z" id="C" fill="#ffc93c" class="B"/></svg>