<svg xmlns="http://www.w3.org/2000/svg" width="1280" height="720" xmlns:v="https://vecta.io/nano"><style><![CDATA[.B{clip-path:none}.C{fill:none}.D{fill:#ffc93c}]]></style><defs><clipPath ><path d="M0 0h708.12v398.41H0z" stroke-width="0" class="C"/></clipPath><linearGradient x1="-433.24" y1="2701.93" x2="-432.17" y2="2701.93" gradientUnits="userSpaceOnUse" gradientTransform="matrix(0,-796.49097,795.82485,0,-2149631,-344294.56)" spreadMethod="pad" id="B"><stop offset="0" stop-color="#7c2869"/><stop offset="1" stop-color="#c3598c"/></linearGradient></defs><path d="M.001 0H1280v720H.001z" fill="url(#B)" class="B"/><path d="M0 134.255v16.265c73.82-40.649 198.71-90.544 368.684-90.544 142.659 0 278.172 53.027 408.552 108.051s255.517 112.13 378.263 118.34c47.716 2.42 88.849 2.346 124.501.751v-14.469c-35.309 1.604-76.177 1.705-123.771-.709-118.756-6.008-242.769-62.103-373.382-117.226S514.907 45.527 368.684 45.527C201.597 45.527 76.51 93.397 0 134.255zm0 94.375v16.265c73.82-40.654 198.71-90.555 368.684-90.555 142.659 0 278.172 53.027 408.552 108.051s255.517 112.13 378.263 118.34c47.716 2.42 88.849 2.347 124.501.751v-14.469c-35.309 1.603-76.177 1.701-123.771-.713-118.756-6.008-242.769-62.1-373.382-117.222s-267.94-109.187-414.163-109.187C201.597 139.892 76.51 187.767 0 228.63zm0 90.259v16.268c73.82-40.654 198.71-90.555 368.684-90.555 142.659 0 278.172 53.026 408.552 108.051s255.517 112.138 378.263 118.354c47.716 2.418 88.849 2.341 124.501.744v-14.469c-35.309 1.605-76.177 1.706-123.771-.705-118.757-6.014-242.769-62.113-373.382-117.236s-267.94-109.187-414.163-109.187C201.597 230.154 76.51 278.028 0 318.889zm0 91.433v16.268c73.82-40.65 198.71-90.548 368.684-90.548 142.659 0 278.172 53.026 408.552 108.051s255.517 112.136 378.263 118.351c47.716 2.418 88.849 2.341 124.501.744v-14.469c-35.309 1.604-76.177 1.706-123.771-.705-118.757-6.013-242.769-62.11-373.382-117.233s-267.94-109.187-414.163-109.187c-167.087 0-292.174 47.87-368.684 88.728zm0 93.377v16.268c73.82-40.65 198.71-90.548 368.684-90.548 142.659 0 278.172 53.024 408.552 108.047s255.517 112.129 378.263 118.344c47.716 2.42 88.849 2.347 124.501.751v-14.469c-35.309 1.604-76.177 1.705-123.771-.709-118.757-6.013-242.769-62.108-373.382-117.229s-267.94-109.183-414.163-109.183c-167.087 0-292.174 47.87-368.684 88.728z" fill="#34c3ff"/><g stroke="#ffc93c" stroke-width="11.734" stroke-miterlimit="10"><path d="M149.465 50.86v199.63" class="B C"/><path d="M149.465 252.571c0 21.822-17.679 39.516-39.483 39.516-21.796 0-39.483-17.685-39.483-39.516s17.687-39.516 39.483-39.516c21.803 0 39.483 17.682 39.483 39.516z" class="B D"/><path d="M294.916 50.86v199.63" class="B C"/><path d="M294.916 252.571c0 21.822-17.687 39.516-39.483 39.516-21.803 0-39.483-17.685-39.483-39.516s17.66-39.516 39.483-39.516c21.813 0 39.483 17.682 39.483 39.516zM149.465 50.86h145.451v45.743H149.465z" class="B D"/><path d="M774.747 281.089v199.623" class="B C"/><path d="M774.747 482.78c0 21.824-17.679 39.516-39.483 39.516-21.796 0-39.483-17.673-39.483-39.516 0-21.831 17.667-39.516 39.483-39.516 21.822 0 39.483 17.685 39.483 39.516z" class="B D"/><path d="M920.188 281.089v199.623" class="B C"/><path d="M920.188 482.78c0 21.824-17.679 39.516-39.473 39.516-21.806 0-39.483-17.673-39.483-39.516 0-21.831 17.66-39.516 39.483-39.516 21.813 0 39.473 17.685 39.473 39.516zM774.747 281.089h145.441v45.743H774.747z" class="B D"/><path d="M461.486 129.781v199.404" class="B C"/><path d="M461.486 331.263c0 21.795-17.651 39.46-39.427 39.46s-39.427-17.665-39.427-39.46 17.651-39.468 39.427-39.468 39.427 17.675 39.427 39.468z" class="B D"/><path d="M598.037 166.915v199.397" class="B C"/><path d="M598.037 368.39c0 21.795-17.66 39.46-39.427 39.46-21.777 0-39.437-17.665-39.437-39.46s17.66-39.458 39.437-39.458c21.767 0 39.427 17.665 39.427 39.458z" class="B D"/><path d="M1153.393 146.146v199.397" class="B C"/><path d="M1153.393 347.62c0 21.795-17.66 39.46-39.437 39.46s-39.425-17.665-39.425-39.46 17.65-39.458 39.425-39.458 39.437 17.665 39.437 39.458z" class="B D"/></g></svg>