<svg xmlns="http://www.w3.org/2000/svg" width="1280" height="720" xmlns:v="https://vecta.io/nano"><defs><clipPath ><path d="M0 0h708.12v398.41H0z" stroke-width="0" fill="none"/></clipPath><linearGradient id="B" gradientTransform="matrix(0,-292.41269,-292.1693,0,341188.92,-109450.79)" x1="-388.15" y1="1186.15" x2="-385.51" y2="1186.15" gradientUnits="userSpaceOnUse" spreadMethod="pad"><stop offset="0" stop-color="#3291ff"/><stop offset="1" stop-color="#35c2ff"/></linearGradient></defs><g transform="translate(6002.687 -3302.341)"><path d="M-6002.687 3302.341h1280v720h-1280z" clip-path="none" fill="url(#B)"/><g transform="matrix(.64428 0 0 .64428 -1761.6979 1288.3292)" stroke-miterlimit="10" stroke-width="11.734" fill="#7c2869" stroke="#7c2869"><path d="M-4940.739 3385.852v199.623m0 2.068c0 21.824-17.679 39.516-39.483 39.516-21.796 0-39.483-17.673-39.483-39.516 0-21.831 17.667-39.516 39.483-39.516 21.823 0 39.483 17.684 39.483 39.516zm145.441-201.691v199.623m0 2.068c0 21.824-17.679 39.516-39.473 39.516-21.806 0-39.483-17.673-39.483-39.516 0-21.831 17.66-39.516 39.483-39.516 21.813 0 39.473 17.684 39.473 39.516z" clip-path="none"/><path d="M-4940.739 3385.852h145.441v45.743h-145.441z" clip-path="none"/></g><path d="M-5836.093 3440.908v199.397m0 2.078c0 21.795-17.66 39.46-39.437 39.46s-39.425-17.665-39.425-39.46 17.65-39.458 39.425-39.458 39.437 17.665 39.437 39.458z" clip-path="none" fill="#f3ca59" stroke="#f3ca59" stroke-width="11.734" stroke-miterlimit="10" transform="translate(42 174)"/><path d="M-5072.814 3652.555c-5.041-71.793-36.31-138.585-88.599-188.86-54.439-52.344-125.916-81.169-201.266-81.169s-146.827 28.827-201.266 81.169c-52.288 50.275-83.557 117.067-88.599 188.862-1.465 10.789 103.2-24.728 109.661-40.947 25.986-75.921 98.319-128.878 180.204-128.878s154.219 52.957 180.204 128.88c9.105 21.34 109.756 52.684 109.661 40.943z" fill="#1e5c93"/><path d="M-5659.282 3652.432c-1.606.892-2.971 2.252-4.367 3.363-40.26 32.06-62.43 74.985-62.43 120.868s22.17 88.805 62.428 120.864c35.483 28.258 80.736 44.528 124.231 44.629 8.503 0 16.499-3.306 22.516-9.314a31.65 31.65 0 0 0 9.366-22.571v-267.22c0-8.53-3.324-16.546-9.368-22.577-6.019-6.001-14.028-9.307-22.593-9.307-3.344.007 33.528-2.313-10.122.319s-75.547 22.007-109.661 40.947zm593.19 0c1.606.892 2.971 2.252 4.367 3.363 40.26 32.06 62.43 74.985 62.43 120.868s-22.17 88.805-62.428 120.864c-35.483 28.258-80.736 44.528-124.231 44.629-8.503 0-16.499-3.306-22.516-9.314a31.65 31.65 0 0 1-9.366-22.571v-267.22c0-8.53 3.324-16.546 9.368-22.577 6.019-6.001 14.028-9.307 22.593-9.307 3.344.007-33.529-2.313 10.122.319s75.547 22.007 109.661 40.947z" fill="#ff7b54"/></g></svg>