<svg xmlns="http://www.w3.org/2000/svg" width="1280" height="720" xmlns:v="https://vecta.io/nano"><defs><clipPath ><path d="M0 0h708.12v398.41H0z" stroke-width="0" fill="none"/></clipPath><linearGradient id="B" gradientTransform="matrix(0,391.70768,391.3805,0,-611557.86,176469.61)" x1="-444.171" y1="1569.753" x2="-442.334" y2="1569.751" gradientUnits="userSpaceOnUse" spreadMethod="pad"><stop offset="0" stop-color="#ff7b54"/><stop offset="1" stop-color="#d64e4e"/></linearGradient></defs><g transform="translate(-1426.976 -2484.487)"><path d="M2172.901 2484.487h1280v720h-1280z" transform="translate(-745.926)" fill="url(#B)"/><g transform="matrix(.850917 0 0 .850917 291.38234 -571.01779)"><path d="M2050.478 4276.64c-2.11-.814-8.595-3.768-35.112-16-6.204-2.862-11.503-5.203-11.775-5.203s-7.429-3.273-15.904-7.273l-96.587-44.511-180.983-84.633c0-1.351 54.453-51.191 64.703-59.216 2.191-1.716 9.796-8.405 16.899-14.866l23.54-21.409 25.921-23.042 26.524-23.804c6.176-5.733 19.56-17.76 29.741-26.726l19.252-17.11c.407-.444 13.069-11.81 28.137-25.258l79.97-71.417 66.642-59.424 58.593-52.247c2.998-2.697 3.424-2.607 21.575 4.569l51.277 20.2 113.172 44.611 64.776 25.494 54.779 21.635 22.763 9.074-44.816 45.469-380.089 382.065c-.42-.064-1.77-.505-2.998-.979z" fill="#34c3ff"/><path d="M1842.892 4237.821c-10.58-3.397-18.447-12.718-18.447-21.855 0-27.45 46.2-39.978 65.639-17.798 10.775 12.294 7.074 26.362-9.47 35.991-9.066 5.277-27.207 7.038-37.722 3.661z" fill="#7c2869"/><path d="M2192.047 3703.27c-12.013.199-25.676 4.258-33.698 10.633-2.694 2.141-15.09 13.008-27.55 24.15l-96.477 85.718-163.051 144.806-23.705 21.001c-3.451 2.953-12.369 10.814-19.819 17.467l-22.93 20.367-16.932 15.072-19.062 16.914-12.191 10.839c-.373.399-8.297 7.405-17.61 15.567-49.513 43.397-56.598 50.872-63.211 66.698h0c-5.588 15.141 2.412 32.865 18.385 40.413l39.283 18.702 42.67 20.311 28.446 13.549 27.092 12.861 26.415 12.525 81.532 38.754c16.003 7.555 24.668 10.848 34.285 13.03 9.815 2.227 26.099 2.55 36.05.714 4.013-.74 12.173-3.756 18.134-6.702 10.402-5.141 13.065-7.6 66.391-61.303l175.419-176.597 228.129-233.788c3.736-13.42-1.542-19.701-4.834-25.618-.514-.694-1.221-1.423-2.376-2.439-2.12-1.865-6.799-4.534-10.4-5.932l-14.673-5.686-18.964-7.347-20.996-8.122-20.319-7.889-31.156-12.075-92.789-35.957-78.294-29.491c-3.368-.848-7.189-1.209-11.194-1.143zm-43.342 35.46c1.307.053 2.99.604 5.863 1.685 5.985 2.251 51.925 20.332 110.034 43.307l44.701 17.615 54.861 21.679 61.623 24.364c27.554 10.842 29.812 11.988 29.812 15.133 0 1.054-88.844 90.949-197.431 199.768l-199.463 198.917c-1.339.701-12.428-3.709-32.51-12.93l-38.606-17.692-37.929-17.443-14.901-6.807-49.443-22.663-153.471-71.304c-2.54-2.54 1.202-6.766 22.311-25.2l33.55-29.801 19.71-17.61c4.332-3.725 12.249-10.735 17.591-15.578l25.19-22.52 90.578-80.482 48.088-42.752 88.128-78.405 68.095-59.978c1.379-.91 2.312-1.357 3.619-1.304zm148.666 20.181c1.627-.016 4.122.963 8.924 2.926 4.261 1.743 15.572 6.147 25.134 9.786 18.872 7.183 21.516 9.384 17.898 14.906-2.652 4.048-4.782 4.054-14.287.034-4.098-1.733-14.939-6.055-24.092-9.604-18.218-7.064-20.94-9.422-17.29-14.993 1.327-2.025 2.085-3.039 3.712-3.056zm-265.759 91.829l-98.885 88.091zm-171.276 337.778c6.247-.085 12.65 1.166 18.546 4.061 20.494 10.063 18.743 31.759-3.352 41.529-20.831 9.211-47.013.111-49.218-17.104-2.043-15.956 15.283-28.231 34.023-28.486z" fill="#1e5c93"/><g transform="matrix(2.239499 -2.239499 2.239499 2.239499 251.4677 3481.4216)"><path d="M242.686 516.238c5.762-7.941 15.884-22.882 27.584-22.962s22.155 14.721 28.093 22.583 17.47 22.168 11.708 30.109-27.426 7.601-39.126 7.681-33.354.714-39.292-7.148 5.272-22.323 11.033-30.264z" fill="#58ab3f"/><path d="M300.651 526.341c4.433-5.799 12.221-16.71 21.223-16.768s17.046 10.75 21.615 16.491 13.441 16.188 9.008 21.987-21.102 5.551-30.104 5.609-25.662.521-30.231-5.22 4.056-16.301 8.489-22.1z" fill="#bc9353"/><circle cx="307.568" cy="496.159" r="8.8" fill="#f3ca59"/></g></g></g></svg>