<svg xmlns="http://www.w3.org/2000/svg" width="1280" height="720" xmlns:v="https://vecta.io/nano"><defs><clipPath ><path d="M0 0h708.12v398.41H0z" stroke-width="0" fill="none"/></clipPath><linearGradient id="B" gradientTransform="matrix(0,763.16823,762.53316,0,-752925.17,-1004795)" x1="1316.692" y1="988.446" x2="1317.393" y2="988.446" gradientUnits="userSpaceOnUse" spreadMethod="pad"><stop offset="0" stop-color="#f6a227"/><stop offset="1" stop-color="#ffc93c"/></linearGradient></defs><path d="M0 0h1280v720H0z" fill="url(#B)" clip-path="none"/><path d="M616.762 124.668c-2.555.116-5.086.907-7.43 2.518-52.772 40.33-102.61 84.753-153.755 127.325-16.453-.046-33.16-1.504-51.562-.668-10.802.49-18.629 6.454-18.629 16.072v179.435c.093 18.475 7.649 23.097 18.008 23.08l52.058-.093 149.201 125.311c12.067 9.59 24.976.615 32.994-9.552V147.771c1.664-11.602-9.815-23.623-20.885-23.109z" fill="#1e5c93"/><path d="M764.593 631.766c-26.869-23.003 3.027-54.359 17.779-73.591 74.48-104.125 86.554-238.559 15.974-373.497-17.368-40.092-39.354-60.679-44.485-74.524-3.839-30.558 31.405-31.363 48.162-13.965 92.103 107.217 118.82 277.336 65.084 413.621-17.899 43.422-41.181 85.157-72.13 118.29-8.007 8.434-20.891 9.058-30.385 3.666zm-68.913-94.37c-27.941-11.021-17.162-47.326.724-63.234 25.028-35.836 38.768-81.304 35.204-127.036.452-46.962-23.091-88.695-48.631-123.709-22.763-35.592 31.227-63.729 46.63-26.295 38.272 49.479 58.881 115.921 52.754 181.586-2.911 57.856-26.836 113.174-63.628 153.324-6.647 5.037-15.163 7.237-23.053 5.363z" fill="#7c2869"/></svg>