<svg xmlns="http://www.w3.org/2000/svg" width="1280" height="720" xmlns:v="https://vecta.io/nano"><defs><clipPath ><path d="M0 0h708.12v398.41H0z" stroke-width="0" fill="none"/></clipPath><linearGradient id="B" x1="2810.64" y1="2343.557" x2="2810.64" y2="1588.216" gradientUnits="userSpaceOnUse" spreadMethod="pad"><stop offset="0" stop-color="#1ead28"/><stop offset="1" stop-color="#248029"/></linearGradient></defs><g transform="translate(12746.214 -1610.032)"><path d="M2172.291 1610.032h1280v720h-1280z" transform="translate(-14918.505)" fill="url(#B)"/><g transform="translate(-14193.138)"><path d="M1712.923 1760.483h748.003v389.896h-748.003z" fill="#34c3ff" stroke-width="25.943" stroke="#1e5c93" clip-path="none" stroke-miterlimit="10"/><path d="M1846.59 1932.922c28.175-38.833 77.675-111.891 134.885-112.282s108.337 71.985 137.372 110.432 85.426 108.398 57.251 147.231-134.113 37.168-191.324 37.559-163.101 3.493-192.137-34.954 25.776-109.154 53.952-147.987z" fill="#58ab3f"/><path d="M2130.031 1982.328c21.678-28.358 59.763-81.708 103.781-81.994s83.354 52.567 105.695 80.643 65.727 79.158 44.049 107.515-103.187 27.142-147.205 27.428-125.491 2.551-147.831-25.526 19.832-79.709 41.51-108.067z" fill="#bc9353"/><circle cx="2163.856" cy="1834.738" r="43.034" fill="#f3ca59" clip-path="none"/><g stroke-width="2.25" stroke-miterlimit="10" transform="matrix(2.88261 0 0 2.88261 1321.4384 1597.3908)" stroke="#1e5c93" fill="#1e5c93"><path d="M231.414 191.836h68.27v25.25h-68.27z" clip-path="none"/><path d="M203.355 217.086H327.75v3.742H203.355z" clip-path="none"/></g></g><path d="M-12746.214 2236.78h1280v92.191h-1280z" clip-path="none" fill="#7c2869"/></g></svg>