<svg xmlns="http://www.w3.org/2000/svg" width="1280" height="720" xmlns:v="https://vecta.io/nano"><style><![CDATA[.C{clip-path:none}.D{fill-rule:evenodd}.E{fill:#ff7b54}.F{fill:#ffc93c}.G{stroke-miterlimit:10}]]></style><defs><clipPath ><path d="M0 0h708.12v398.41H0z" stroke-width="0" fill="none"/></clipPath><linearGradient id="B" gradientTransform="matrix(0,391.70768,391.38078,0,-613731.19,173985.12)" x1="-444.171" y1="1569.753" x2="-442.334" y2="1569.751" gradientUnits="userSpaceOnUse" spreadMethod="pad"><stop offset="0" stop-color="#ff7b54"/><stop offset="1" stop-color="#d64e4e"/></linearGradient></defs><path d="M0 0h1280v720H0z" fill="url(#B)"/><path d="M767.765 420.005a10.1 10.1 0 1 1-10.1 10.09 10.09 10.09 0 0 1 10.1-10.09zm76.29 86.17a8.77 8.77 0 1 1-8.76 8.77 8.77 8.77 0 0 1 8.76-8.77zm-69.73 0a8.77 8.77 0 1 1-8.76 8.77 8.77 8.77 0 0 1 8.76-8.77zm-5.51 18.83a11.12 11.12 0 0 0-5.58 2.23 17.86 17.86 0 0 0-4.85 6.28 21 21 0 0 0-2 8.35l-.15 1h7.52l.12-1.33a10.69 10.69 0 0 1 .81-3.88 6.33 6.33 0 0 1 1-1.69l.14 6.9h16.92l.08-4.59v.3l.05-2.61a6.33 6.33 0 0 1 1 1.69 10.69 10.69 0 0 1 .81 3.88l.12 1.33h.58a4.44 4.44 0 0 1 0-.63l.14-1a34.63 34.63 0 0 1 .7-5 24.78 24.78 0 0 1 1.92-5.23l.28-.57a11.63 11.63 0 0 0-8.67-5.43c-3-.24-8 0-10.94 0zm40.38-21.52a9.41 9.41 0 1 1-9.41 9.4 9.4 9.4 0 0 1 9.41-9.4zm-5.92 20.17a12 12 0 0 0-6 2.4 19.27 19.27 0 0 0-5.19 6.77 22.62 22.62 0 0 0-2.15 9l-.16 1.09h8.08l.13-1.43a11.6 11.6 0 0 1 .87-4.16 6.87 6.87 0 0 1 1.09-1.82l.15 7.41h18.13l.09-4.92v.32l.06-2.81a7.44 7.44 0 0 1 1.09 1.82 11.82 11.82 0 0 1 .87 4.16l.13 1.43h8.07l-.15-1.12a22.46 22.46 0 0 0-2.15-9c-2.63-5.56-6-8.5-11.21-9.11-3.19-.26-8.54 0-11.74-.06zm35.27 1.35a11.11 11.11 0 0 0-5.59 2.23 16.27 16.27 0 0 0-3 3.24l.25.52a24.3 24.3 0 0 1 1.86 5.31 33.32 33.32 0 0 1 .69 5l.11.72a4.74 4.74 0 0 1 .08.86h.58l.12-1.33a10.92 10.92 0 0 1 .82-3.88 6.31 6.31 0 0 1 1-1.69l.14 6.9h16.88l.08-4.59v.3l.06-2.61a6.58 6.58 0 0 1 1 1.69 10.69 10.69 0 0 1 .81 3.88l.12 1.33h7.53l-.15-1a20.81 20.81 0 0 0-2-8.35c-2.45-5.18-5.62-7.92-10.44-8.49-3-.24-8 0-10.93 0zm-40.81-67.86l11.31-11.87a1.751 1.751 0 0 1 2.54 2.41l-10.66 11.18a4.77 4.77 0 0 1-3.71 7.81v13.9h55.63v-44.9h-55.63v21.33l.52.1zm24.56 35.18v-8.12h-36.54a1.82 1.82 0 1 1 0-3.63h7.83v-14.52l-9.06-1.74a4.75 4.75 0 0 1-3-1.9l-3.89-5.31v.14l-.31 17.7 3.89 22.28 1 7.4a2.16 2.16 0 0 1 0 .35 12.65 12.65 0 0 0-10.51-2.46l-3.95-22.61-4.37 25.25c-1 5.46-9.87 5.5-9.94-1.12l4.94-28.9-.4-17.56h0l-.07-3a7.68 7.68 0 0 0-1.16 2 12.43 12.43 0 0 0-.94 4.43l-.86 11.25v.18h0 0v.08.06h0v.16h0v.33h0v.09h0v.05h0 0 0v.1h0 0 0 0 0 0 0 0 0 0 0 0 0 0 0c-1.68 2.32-5.85 3-7.41 0h0 0v-.09h0 0 0v-.07-.06-.07h0 0v-.09-.09h0v-.07-.1.34h0 0v-.11-.07h0v-.09-.08-.15h0 0v-.14-.08a72.15 72.15 0 0 1 .8-10.9c-.48-9.38 4.29-18.87 14.49-19.63 3-.22 6.06.08 9 .08a16.1 16.1 0 0 1 5.8 1 4.74 4.74 0 0 1 2.75 1.82l7.7 10.63 5.49 1.06v-20.67h-7.82a1.82 1.82 0 1 1 0-3.63h36.25v-5.28a1.82 1.82 0 1 1 3.63 0v5.24h38.54a1.82 1.82 0 1 1 0 3.63h-7.73v44.9h7.94a1.82 1.82 0 1 1 0 3.63h-38.5v8.31c.1.06.16.13.26.19l11.33 10.8a1.61 1.61 0 0 1 .33.42 13.39 13.39 0 0 0-2.42 1.83l-.27.24-.09.1-9.14-8.61v7.84a1.82 1.82 0 0 1-3.63 0v-8.19l-4.87 4.68a13.69 13.69 0 0 0-3.33-1.77l8.24-7.67z" fill="#fff" stroke-width="0" stroke="#ff7b54" class="D G"/><g transform="matrix(3.779527 0 0 3.779527 -28046.487 -7452.5003)"><g transform="matrix(.264583 0 0 .264583 3075.8065 111.67843)"><path d="M17314.373 7173.321c-8.987 25.118-33.16 43.723-62.367 46.447-.234 2.118-.346 4.258-.346 6.424 0 37.809 32.933 68.487 73.51 68.487s73.503-30.678 73.503-68.487c0-2.484-.139-4.916-.416-7.322-4.569.824-9.302 1.291-14.137 1.291-32.464 0-60.027-19.631-69.747-46.814z" class="C E"/><path d="M17529.206 7586.257h0v-.028z" fill="#bc9353" class="C"/><path d="M17381.881 7497.862h56.966c7.792 0 14.057 6.281 14.057 14.086v115.632c0 7.802-6.265 14.086-14.057 14.086h-56.966c-7.797 0-14.06-6.284-14.06-14.086v-115.632c0-7.805 6.263-14.086 14.06-14.086zm-322.551 0h56.966a14.04 14.04 0 0 1 14.061 14.086v115.632c0 7.802-6.267 14.086-14.061 14.086h-56.966c-7.792 0-14.071-6.284-14.071-14.086v-115.632a14.05 14.05 0 0 1 14.071-14.086z" class="C" fill="#1e5c93"/><path d="M17482.85 7563.791h-467.548l22.289-192.073 12.654-26.045 23.376-229.312h350.912l22.933 229.312 13.098 26.045z" fill="#1ead28" class="C"/><path d="M17411.747 7343.267h-325.345l9.719-199.356h305.906z" fill="#34c3ff" class="C"/><path d="M17176.7 7453.377h144.747m-144.747 23.33h144.747m-144.747 23.321h144.747" class="C" stroke-linejoin="round" stroke-linecap="round" stroke-width="12.155" stroke="#7c2869" fill="none"/><path d="M17447.78 7476.707c0 27.666-22.416 50.098-50.056 50.098s-50.054-22.432-50.054-50.098c0-27.676 22.417-50.096 50.054-50.096s50.056 22.42 50.056 50.096zm-297.299 0c0 27.666-22.414 50.098-50.056 50.098-27.654 0-50.056-22.432-50.056-50.098 0-27.676 22.402-50.096 50.056-50.096 27.642 0 50.056 22.42 50.056 50.096z" class="C F"/></g><g transform="matrix(.264583 0 0 .264583 4259.9627 111.67843)" class="E"><path d="M12517.823 7304.088c5.215 7.099 3.655 17.062-3.44 22.254l-16.1 11.764-18.868-25.691 16.125-11.808c7.099-5.231 17.066-3.678 22.236 3.443m-327.998 118.531c6.571 5.848 16.668 5.259 22.515-1.29l13.282-14.892-23.797-21.183-13.297 14.915c-5.849 6.571-5.254 16.647 1.297 22.495" class="C"/><path d="M12393.623 7305.887c40.421 7.401 79.157-19.339 86.604-59.709 7.406-40.41-19.341-79.132-59.722-86.578-40.444-7.401-79.173 19.339-86.621 59.748-7.402 40.41 19.344 79.154 59.739 86.584" class="C"/></g><g stroke-width="2.776" stroke="#000" fill="none" class="G"><path d="M12466.337 7277.544c3.461 2.058 7.952.942 10.011-2.562 2.065-3.437.943-7.95-2.565-10.009m24.103 47.811c2.696 1.598 6.2.723 7.799-1.968 1.575-2.697.701-6.179-1.996-7.777" transform="matrix(.264583 0 0 .264583 4259.9627 111.67843)" class="C"/><path d="M12506.099 7310.177c-3.37 3.005-3.699 8.169-.724 11.522 2.98 3.376 8.129 3.701 11.526.723m-57.877-36.664l-14.767-7.71" transform="matrix(.264583 0 0 .264583 4259.9627 111.67843)" class="C"/></g><path d="M12479.853 7215.693c-4.704-20.942-18.424-39.731-39.123-50.138-36.673-18.441-81.434-3.7-99.902 32.986-3.243 6.398-5.39 13.031-6.635 19.759l145.66-2.562z" transform="matrix(.264583 0 0 .264583 4259.9627 111.67843)" class="C"/><path d="M12395.773 7212.037c0-18.29-6.989-34.915-18.312-47.531-21.951 9.549-38.956 29.482-43.577 54.842-4.033 21.946 2.102 43.37 14.94 59.552 27.386-9.919 46.972-36.047 46.972-66.864m76.306 29.567a9.39 9.39 0 0 1-9.379 9.375c-5.17 0-9.374-4.205-9.374-9.375s4.204-9.375 9.374-9.375a9.39 9.39 0 0 1 9.379 9.375" transform="matrix(.264583 0 0 .264583 4259.9627 111.67843)" class="C"/><path d="M12251.817 7502.526l-41.594 111.052 43.773 8.55s22.525-42.964 31.654-63.152c6.854-20.812 17.418-37.077 30.905-53.294 14.525 15.481 29.202 37.562 29.072 37.231 7.82 20.129 33.321 67.2 44.075 81.106l37.179-15.509-29.18-92.095-41.602-75.325-83.838-11.259c-7.693 23.505-14.64 47.592-20.444 72.695" transform="matrix(.264583 0 0 .264583 4259.9627 111.67843)" fill="#1e5c93" class="C"/><path d="M12376.717 7369.471c47.909 12.33 111.202-13.362 127.739-35.857l-13.47-30.401c-41.889 23.46-79.376 25.803-105.316 20.303l-43.833-22.843c-91.989 8.96-146.715 92.41-146.715 92.41l20.48 24.878c54.004-48.142 81.278-55.543 81.278-55.543-6.483 16.098-12.657 32.504-18.468 49.145 0 0-.05.179-.09.264l-6.069 17.92 83.84 11.253-.55-.958c10.56-25.103 17.11-49.785 21.166-70.593" transform="matrix(.264583 0 0 .264583 4259.9627 111.67843)" class="C F"/><path d="M12360.478 7327.637c-7.576-4.491-10.055-14.259-5.517-21.817l10.229-17.169 27.385 16.317-10.23 17.169c-4.491 7.558-14.263 10.031-21.822 5.501" transform="matrix(.264583 0 0 .264583 4259.9627 111.67843)" class="C E"/><path d="M12211.782 7609.413l-5.392 20.126 61.906 18.015s.16-21.074-14.3-25.426zm177.379 13.558l9.415 18.593 58.142-27.968s-13.976-15.773-27.642-9.375l-39.915 18.75z" transform="matrix(.264583 0 0 .264583 4259.9627 111.67843)" class="C"/><g class="D"><path d="M7580.653 2017.875c.929-.236 1.863-.303 2.77-.23l-1.532 2.828c-3.478 6.416 2.701 8.046 6.571 3.26l1.505-1.835c.335.608.604 1.272.782 1.975 1.625 6.384-4.407 11.678-10.243 10.046l-11.055 19.929c-2.181 4.145-7.886 1.162-5.782-2.151 4.306-6.64 8.984-13.069 13.679-19.449-4.983-4.23-3.334-12.676 3.324-14.37z" fill="#7c2869"/><path d="M7483.091 2052.968c-1.161-.283-2.369-.049-3.623.708l-9.138 5.548-.663-1.065-3.486 2.119 3.568 5.88 3.491-2.138-.58-.964 2.641-1.604 14.681 25.326 4.913-2.997-15.362-24.898 2.32-1.408c1.065-.637 2.26-.793 3.585-.47.884.216 1.701.595 2.449 1.119-1.249-2.966-2.844-4.68-4.794-5.156z" fill="#34c3ff"/></g></g><path d="M1279.999 613.616v106.385h-1280V613.616z" class="D F"/></svg>