<svg xmlns="http://www.w3.org/2000/svg" xmlns:xlink="http://www.w3.org/1999/xlink" width="1280" height="720" xmlns:v="https://vecta.io/nano"><style><![CDATA[.C{stroke-width:0}.D{fill-rule:evenodd}.E{stroke:#ff7b54}.F{stroke-miterlimit:10}]]></style><defs><clipPath ><path d="M0 0h708.12v398.41H0z" fill="none" class="C"/></clipPath><linearGradient id="B" gradientTransform="matrix(0,763.16996,762.53195,0,-752924,-1004797.2)" x1="1317.442" y1="988.242" x2="1316.696" y2="988.242" gradientUnits="userSpaceOnUse" spreadMethod="pad"><stop offset="0" stop-color="#f6a227"/><stop offset="1" stop-color="#ffc93c"/></linearGradient><path id="C" d="M588.421 494.267a53.96 53.96 0 0 1 38.236 92.087 53.96 53.96 0 0 1-92.131-38.13c0-29.776 24.12-53.923 53.895-53.957z"/></defs><path d="M0 0h1280v720H0z" clip-path="none" fill="url(#B)"/><path d="M770.257 601.505a73.83 73.83 0 0 0-36.913 14.766 118.54 118.54 0 0 0-31.932 41.652 139.17 139.17 0 0 0-13.229 55.372l-.984 6.706h49.713l.8-8.798c.193-8.788 2.007-17.465 5.352-25.594a42.26 42.26 0 0 1 6.705-11.197l.925 45.59h111.543l.553-30.27v1.969l.369-17.288a45.76 45.76 0 0 1 6.706 11.197 72.71 72.71 0 0 1 5.353 25.594l.8 8.798h49.65l-.924-6.891a138.18 138.18 0 0 0-13.227-55.373c-16.18-34.208-36.915-52.296-68.97-56.049-19.625-1.6-52.542 0-72.23-.369zm36.423-124.096a57.9 57.9 0 0 1 53.495 35.753c8.958 21.641 3.991 46.546-12.579 63.099a57.9 57.9 0 0 1-98.809-41.019c0-31.964 25.929-57.867 57.894-57.833z" fill="#34c3ff" class="C D E F"/><g fill="#ff7b54" class="C D E F"><path d="M554.52 610.119c-12.486 1.336-24.364 6.083-34.331 13.72a109.88 109.88 0 0 0-29.841 38.638c-7.596 16.094-11.785 33.584-12.304 51.373l-.923 6.153h46.265l.74-8.183a65.77 65.77 0 0 1 4.983-23.872 38.95 38.95 0 0 1 6.153-10.398l.861 42.452h104.1l.493-28.24v1.846l.306-16.058a38.95 38.95 0 0 1 6.153 10.398 65.77 65.77 0 0 1 4.985 23.872l.737 8.183h3.567c-.088-1.29-.088-2.586 0-3.876l.862-6.152c.684-10.345 2.124-20.627 4.306-30.762a152.47 152.47 0 0 1 11.812-32.178l1.724-3.507c-11.665-18.778-31.356-31.11-53.342-33.408-18.458-1.477-49.22 0-67.309 0z"/><use xlink:href="#C"/></g><g fill="#1e5c93" class="C D E F"><path d="M990.548 609.996c-12.508 1.322-24.409 6.069-34.392 13.72-7.03 5.775-13.241 12.481-18.459 19.934l1.538 3.199a149.51 149.51 0 0 1 11.444 32.67c2.191 10.132 3.61 20.416 4.245 30.762l.676 4.43c.325 1.745.49 3.516.493 5.291h3.57l.737-8.183a67.18 67.18 0 0 1 5.046-23.872c1.495-3.766 3.571-7.274 6.151-10.398l.861 42.452h103.855l.492-28.24v1.846l.368-16.058a40.49 40.49 0 0 1 6.153 10.398 65.77 65.77 0 0 1 4.983 23.872l.74 8.183h46.328l-.923-6.152c-.487-17.794-4.678-35.291-12.307-51.373-15.073-31.87-34.576-48.728-64.231-52.235-18.459-1.477-49.22 0-67.247 0z"/><use xlink:href="#C" x="436.025" y="-0.123"/></g><rect width="639.979" height="373.17" x="528.427" y="62.822" ry="33.146" fill="#fff"/><path d="M653.214 233.124c23.345-32.176 64.358-92.71 111.762-93.034s89.766 59.645 113.824 91.502 70.783 89.816 47.437 121.992-111.123 30.797-158.527 31.121-135.141 2.894-159.199-28.962 21.357-90.443 44.703-122.619z" fill="#58ab3f"/><path d="M888.066 274.061c17.962-23.496 49.519-67.701 85.991-67.938s69.066 43.556 87.577 66.819 54.46 65.589 36.498 89.085-85.498 22.49-121.971 22.726-103.979 2.114-122.489-21.15 16.432-66.045 34.394-89.542z" fill="#bc9353"/><circle cx="916.093" cy="151.77" fill="#f3ca59" clip-path="none" r="35.657"/><path d="M254.574 61.113c29.84 0 56.74 17.981 68.152 45.552s5.084 59.301-16.027 80.391a73.76 73.76 0 0 1-80.406 15.943c-27.56-11.439-45.512-38.357-45.483-68.197 0-40.727 33.039-73.73 73.764-73.689zM473.447 332.35l82.595-86.688a12.79 12.79 0 0 1 18.55 17.601l-77.849 81.648c18.86 22.804 19.238 58.567-53.605 52.51l-.07-70.913 3.799.73zm-30.309 65.071l-66.165-12.708c-8.823-1.618-16.676-6.591-21.911-13.876l-28.409-38.779v1.022l-2.263 129.265 28.408 162.713c1.735 17.289 2.807 34.676 6.28 51.631 9.067 40.712-59.087 56.378-66.381 24.409l-38.198-202.529-31.914 184.403c-7.304 39.874-72.082 40.167-72.593-8.18l36.076-211.059-2.92-128.243h0l-.51-21.909a56.1 56.1 0 0 0-8.474 14.606 90.76 90.76 0 0 0-6.864 32.353l-6.279 82.16v1.314h0 0v.585.438h0v1.168h0v2.41h0v.658h0v.365h0 0 0v.73h0 0 0 0 0 0 0 0 0 0 0 0 0 0 0c-12.271 16.943-42.724 21.909-54.118 0h0 0v-.657h0 0 0v-.511-.439-.511h0 0v-.657-.657h0v-.512-.73 2.483h0 0v-.803-.512h0v-.657-.584-1.095h0 0v-1.023-.584a526.57 526.57 0 0 1 5.842-79.604c-3.503-68.503 31.332-137.809 105.824-143.359 21.908-1.607 44.257.584 65.726.584a117.58 117.58 0 0 1 42.358 7.303 34.62 34.62 0 0 1 20.085 13.291l56.233 77.632 40.093 7.742z" fill="#a184dc" class="C D E F"/></svg>