<?xml version="1.0" encoding="UTF-8" standalone="no"?>
<!DOCTYPE svg PUBLIC "-//W3C//DTD SVG 1.1//EN"
 "http://www.w3.org/Graphics/SVG/1.1/DTD/svg11.dtd">
<!-- Generated by graphviz version 14.1.2 (0)
 -->
<!-- Title: PDG_Protobject Pages: 1 -->
<svg width="791pt" height="451pt"
 viewBox="0.00 0.00 791.00 451.00" xmlns="http://www.w3.org/2000/svg" xmlns:xlink="http://www.w3.org/1999/xlink">
<g id="graph0" class="graph" transform="scale(1 1) rotate(0) translate(21.6 429.6)">
<title>PDG_Protobject</title>
<polygon fill="#fbf6eb" stroke="none" points="-21.6,21.6 -21.6,-429.6 769.37,-429.6 769.37,21.6 -21.6,21.6"/>
<g id="clust1" class="cluster">
<title>cluster_loop</title>
<path fill="#fbf6eb" stroke="#8b2418" stroke-width="1.8" stroke-dasharray="5,2" d="M183.77,-8C183.77,-8 727.77,-8 727.77,-8 733.77,-8 739.77,-14 739.77,-20 739.77,-20 739.77,-388 739.77,-388 739.77,-394 733.77,-400 727.77,-400 727.77,-400 183.77,-400 183.77,-400 177.77,-400 171.77,-394 171.77,-388 171.77,-388 171.77,-20 171.77,-20 171.77,-14 177.77,-8 183.77,-8"/>
<text xml:space="preserve" text-anchor="start" x="205.64" y="-386.55" font-family="Arial" font-weight="bold" font-size="11.00">loop</text>
<text xml:space="preserve" text-anchor="start" x="179.77" y="-377.45" font-family="Arial" font-size="9.00" fill="#8b2418">alcance de control</text>
</g>
<!-- n1 -->
<g id="node1" class="node">
<title>n1</title>
<path fill="#34495e" stroke="#1a1612" stroke-width="1.5" d="M130.29,-326C130.29,-326 23.25,-326 23.25,-326 17.25,-326 11.25,-320 11.25,-314 11.25,-314 11.25,-302 11.25,-302 11.25,-296 17.25,-290 23.25,-290 23.25,-290 130.29,-290 130.29,-290 136.29,-290 142.29,-296 142.29,-302 142.29,-302 142.29,-314 142.29,-314 142.29,-320 136.29,-326 130.29,-326"/>
<text xml:space="preserve" text-anchor="middle" x="76.77" y="-304.3" font-family="Arial" font-size="11.00" fill="#fbf6eb">1 &#160;&#160;ProgramStartEvent</text>
</g>
<!-- n2 -->
<g id="node2" class="node">
<title>n2</title>
<path fill="#fbf6eb" stroke="#1a1612" stroke-width="1.5" d="M141.54,-238C141.54,-238 12,-238 12,-238 6,-238 0,-232 0,-226 0,-226 0,-214 0,-214 0,-208 6,-202 12,-202 12,-202 141.54,-202 141.54,-202 147.54,-202 153.54,-208 153.54,-214 153.54,-214 153.54,-226 153.54,-226 153.54,-232 147.54,-238 141.54,-238"/>
<text xml:space="preserve" text-anchor="middle" x="76.77" y="-216.3" font-family="Arial" font-size="11.00" fill="#1a1612">2 &#160;&#160;SetBackgroundColor #1</text>
</g>
<!-- n1&#45;&gt;n2 -->
<g id="edge1" class="edge">
<title>n1&#45;&gt;n2</title>
<path fill="none" stroke="#8b2418" stroke-width="2" d="M76.77,-289.6C76.77,-278.71 76.77,-264.39 76.77,-251.64"/>
<polygon fill="#8b2418" stroke="#8b2418" stroke-width="2" points="80.27,-251.7 76.77,-241.7 73.27,-251.7 80.27,-251.7"/>
</g>
<!-- n7 -->
<g id="node7" class="node">
<title>n7</title>
<path fill="#5a6b3b" stroke="#1a1612" stroke-width="1.5" d="M424.41,-62C424.41,-62 339.12,-62 339.12,-62 333.12,-62 327.12,-56 327.12,-50 327.12,-50 327.12,-38 327.12,-38 327.12,-32 333.12,-26 339.12,-26 339.12,-26 424.41,-26 424.41,-26 430.41,-26 436.41,-32 436.41,-38 436.41,-38 436.41,-50 436.41,-50 436.41,-56 430.41,-62 424.41,-62"/>
<text xml:space="preserve" text-anchor="middle" x="381.77" y="-40.3" font-family="Arial" font-size="11.00" fill="#fbf6eb">7 &#160;&#160;DrawImage #1</text>
</g>
<!-- n2&#45;&gt;n7 -->
<g id="edge2" class="edge">
<title>n2&#45;&gt;n7</title>
<path fill="none" stroke="#5a6b3b" stroke-width="1.3" stroke-dasharray="5,2" d="M104.68,-201.4C147.55,-174.59 232.45,-122.39 306.77,-82 315.48,-77.27 324.88,-72.43 333.98,-67.87"/>
<polygon fill="#5a6b3b" stroke="#5a6b3b" stroke-width="1.3" points="335.3,-71.13 342.71,-63.55 332.19,-64.85 335.3,-71.13"/>
<text xml:space="preserve" text-anchor="middle" x="264.65" y="-128.5" font-family="Arial" font-size="10.00" fill="#5a6b3b"> display </text>
</g>
<!-- n3 -->
<g id="node3" class="node">
<title>n3</title>
<path fill="#fbf6eb" stroke="#1a1612" stroke-width="1.5" d="M510.79,-326C510.79,-326 406.75,-326 406.75,-326 400.75,-326 394.75,-320 394.75,-314 394.75,-314 394.75,-302 394.75,-302 394.75,-296 400.75,-290 406.75,-290 406.75,-290 510.79,-290 510.79,-290 516.79,-290 522.79,-296 522.79,-302 522.79,-302 522.79,-314 522.79,-314 522.79,-320 516.79,-326 510.79,-326"/>
<text xml:space="preserve" text-anchor="middle" x="458.77" y="-304.3" font-family="Arial" font-size="11.00" fill="#1a1612">3 &#160;&#160;ReadLightLevel #1</text>
</g>
<!-- n4 -->
<g id="node4" class="node">
<title>n4</title>
<path fill="#fbf6eb" stroke="#1a1612" stroke-width="1.5" d="M495.04,-238C495.04,-238 422.5,-238 422.5,-238 416.5,-238 410.5,-232 410.5,-226 410.5,-226 410.5,-214 410.5,-214 410.5,-208 416.5,-202 422.5,-202 422.5,-202 495.04,-202 495.04,-202 501.04,-202 507.04,-208 507.04,-214 507.04,-214 507.04,-226 507.04,-226 507.04,-232 501.04,-238 495.04,-238"/>
<text xml:space="preserve" text-anchor="middle" x="458.77" y="-216.3" font-family="Arial" font-size="11.00" fill="#1a1612">4 &#160;&#160;Comparison</text>
</g>
<!-- n3&#45;&gt;n4 -->
<g id="edge3" class="edge">
<title>n3&#45;&gt;n4</title>
<path fill="none" stroke="#4a3f33" stroke-width="1.3" d="M458.77,-289.6C458.77,-278.36 458.77,-263.47 458.77,-250.43"/>
<polygon fill="#4a3f33" stroke="#4a3f33" stroke-width="1.3" points="462.27,-250.64 458.77,-240.64 455.27,-250.64 462.27,-250.64"/>
<text xml:space="preserve" text-anchor="middle" x="476.02" y="-260.5" font-family="Arial" font-size="10.00" fill="#8b2418"> light_1 </text>
</g>
<!-- n5 -->
<g id="node5" class="node">
<title>n5</title>
<path fill="#b8843a" stroke="#1a1612" stroke-width="1.5" d="M510.04,-150C510.04,-150 407.5,-150 407.5,-150 401.5,-150 395.5,-144 395.5,-138 395.5,-138 395.5,-126 395.5,-126 395.5,-120 401.5,-114 407.5,-114 407.5,-114 510.04,-114 510.04,-114 516.04,-114 522.04,-120 522.04,-126 522.04,-126 522.04,-138 522.04,-138 522.04,-144 516.04,-150 510.04,-150"/>
<text xml:space="preserve" text-anchor="middle" x="458.77" y="-128.3" font-family="Arial" font-size="11.00" fill="#fbf6eb">5 &#160;&#160;ConditionalBranch</text>
</g>
<!-- n4&#45;&gt;n5 -->
<g id="edge4" class="edge">
<title>n4&#45;&gt;n5</title>
<path fill="none" stroke="#4a3f33" stroke-width="1.3" d="M458.77,-201.6C458.77,-190.36 458.77,-175.47 458.77,-162.43"/>
<polygon fill="#4a3f33" stroke="#4a3f33" stroke-width="1.3" points="462.27,-162.64 458.77,-152.64 455.27,-162.64 462.27,-162.64"/>
<text xml:space="preserve" text-anchor="middle" x="481.27" y="-172.5" font-family="Arial" font-size="10.00" fill="#8b2418"> condition </text>
</g>
<!-- n6 -->
<g id="node6" class="node">
<title>n6</title>
<path fill="#fbf6eb" stroke="#1a1612" stroke-width="1.5" d="M283.54,-62C283.54,-62 202,-62 202,-62 196,-62 190,-56 190,-50 190,-50 190,-38 190,-38 190,-32 196,-26 202,-26 202,-26 283.54,-26 283.54,-26 289.54,-26 295.54,-32 295.54,-38 295.54,-38 295.54,-50 295.54,-50 295.54,-56 289.54,-62 283.54,-62"/>
<text xml:space="preserve" text-anchor="middle" x="242.77" y="-40.3" font-family="Arial" font-size="11.00" fill="#1a1612">6 &#160;&#160;PlaySound #1</text>
</g>
<!-- n5&#45;&gt;n6 -->
<g id="edge5" class="edge">
<title>n5&#45;&gt;n6</title>
<path fill="none" stroke="#8b2418" stroke-width="2" d="M394.81,-113.39C376.64,-107.79 356.98,-101.18 339.27,-94 321.33,-86.73 302.21,-77.38 285.76,-68.8"/>
<polygon fill="#8b2418" stroke="#8b2418" stroke-width="2" points="287.45,-65.73 276.98,-64.14 284.17,-71.92 287.45,-65.73"/>
<text xml:space="preserve" text-anchor="middle" x="350.52" y="-84.5" font-family="Arial" font-size="10.00" fill="#8b2418"> true </text>
</g>
<!-- n5&#45;&gt;n7 -->
<g id="edge6" class="edge">
<title>n5&#45;&gt;n7</title>
<path fill="none" stroke="#8b2418" stroke-width="2" d="M394.95,-113.65C386.38,-108.66 378.69,-102.25 373.27,-94 369.57,-88.37 368.92,-81.62 369.79,-74.96"/>
<polygon fill="#8b2418" stroke="#8b2418" stroke-width="2" points="373.13,-76.06 372.22,-65.5 366.34,-74.32 373.13,-76.06"/>
<text xml:space="preserve" text-anchor="middle" x="384.52" y="-84.5" font-family="Arial" font-size="10.00" fill="#8b2418"> true </text>
</g>
<!-- n8 -->
<g id="node8" class="node">
<title>n8</title>
<path fill="#fbf6eb" stroke="#1a1612" stroke-width="1.5" d="M563.29,-62C563.29,-62 480.25,-62 480.25,-62 474.25,-62 468.25,-56 468.25,-50 468.25,-50 468.25,-38 468.25,-38 468.25,-32 474.25,-26 480.25,-26 480.25,-26 563.29,-26 563.29,-26 569.29,-26 575.29,-32 575.29,-38 575.29,-38 575.29,-50 575.29,-50 575.29,-56 569.29,-62 563.29,-62"/>
<text xml:space="preserve" text-anchor="middle" x="521.77" y="-40.3" font-family="Arial" font-size="11.00" fill="#1a1612">8 &#160;&#160;StopSound #1</text>
</g>
<!-- n5&#45;&gt;n8 -->
<g id="edge7" class="edge">
<title>n5&#45;&gt;n8</title>
<path fill="none" stroke="#8b2418" stroke-width="2" d="M486.66,-113.41C493.67,-107.9 500.66,-101.32 505.77,-94 509.77,-88.28 512.81,-81.49 515.12,-74.83"/>
<polygon fill="#8b2418" stroke="#8b2418" stroke-width="2" points="518.44,-75.94 517.85,-65.37 511.71,-74 518.44,-75.94"/>
<text xml:space="preserve" text-anchor="middle" x="525.4" y="-84.5" font-family="Arial" font-size="10.00" fill="#8b2418"> false </text>
</g>
<!-- n9 -->
<g id="node9" class="node">
<title>n9</title>
<path fill="#fbf6eb" stroke="#1a1612" stroke-width="1.5" d="M710.04,-62C710.04,-62 619.5,-62 619.5,-62 613.5,-62 607.5,-56 607.5,-50 607.5,-50 607.5,-38 607.5,-38 607.5,-32 613.5,-26 619.5,-26 619.5,-26 710.04,-26 710.04,-26 716.04,-26 722.04,-32 722.04,-38 722.04,-38 722.04,-50 722.04,-50 722.04,-56 716.04,-62 710.04,-62"/>
<text xml:space="preserve" text-anchor="middle" x="664.77" y="-40.3" font-family="Arial" font-size="11.00" fill="#1a1612">9 &#160;&#160;ClearDisplay #1</text>
</g>
<!-- n5&#45;&gt;n9 -->
<g id="edge8" class="edge">
<title>n5&#45;&gt;n9</title>
<path fill="none" stroke="#8b2418" stroke-width="2" d="M500.95,-113.39C532.65,-100.16 576.31,-81.93 610.59,-67.62"/>
<polygon fill="#8b2418" stroke="#8b2418" stroke-width="2" points="611.62,-70.98 619.5,-63.9 608.92,-64.52 611.62,-70.98"/>
<text xml:space="preserve" text-anchor="middle" x="587.6" y="-84.5" font-family="Arial" font-size="10.00" fill="#8b2418"> false </text>
</g>
<!-- n6&#45;&gt;n8 -->
<g id="edge9" class="edge">
<title>n6&#45;&gt;n8</title>
<path fill="none" stroke="#5a6b3b" stroke-width="1.3" stroke-dasharray="5,2" d="M278.78,-62.65C317.62,-80.37 381.24,-102.45 435.89,-89 452.73,-84.86 469.92,-76.76 484.45,-68.57"/>
<polygon fill="#5a6b3b" stroke="#5a6b3b" stroke-width="1.3" points="485.99,-71.73 492.83,-63.64 482.43,-65.69 485.99,-71.73"/>
<text xml:space="preserve" text-anchor="middle" x="419.77" y="-84.5" font-family="Arial" font-size="10.00" fill="#5a6b3b"> sound </text>
</g>
<!-- n7&#45;&gt;n9 -->
<g id="edge10" class="edge">
<title>n7&#45;&gt;n9</title>
<path fill="none" stroke="#5a6b3b" stroke-width="1.3" stroke-dasharray="5,2" d="M409.28,-62.64C425.67,-72.6 447.32,-83.85 468.39,-89 519.07,-101.38 577.34,-84.06 617.17,-67.45"/>
<polygon fill="#5a6b3b" stroke="#5a6b3b" stroke-width="1.3" points="618.55,-70.66 626.34,-63.48 615.77,-64.24 618.55,-70.66"/>
<text xml:space="preserve" text-anchor="middle" x="486.77" y="-84.5" font-family="Arial" font-size="10.00" fill="#5a6b3b"> display </text>
</g>
</g>
</svg>
