<?xml version="1.0" encoding="UTF-8" standalone="no"?>
<!DOCTYPE svg PUBLIC "-//W3C//DTD SVG 1.1//EN"
 "http://www.w3.org/Graphics/SVG/1.1/DTD/svg11.dtd">
<!-- Generated by graphviz version 14.1.2 (0)
 -->
<!-- Title: PDG_MakeCode Pages: 1 -->
<svg width="764pt" height="451pt"
 viewBox="0.00 0.00 764.00 451.00" xmlns="http://www.w3.org/2000/svg" xmlns:xlink="http://www.w3.org/1999/xlink">
<g id="graph0" class="graph" transform="scale(1 1) rotate(0) translate(21.6 429.6)">
<title>PDG_MakeCode</title>
<polygon fill="#fbf6eb" stroke="none" points="-21.6,21.6 -21.6,-429.6 742.12,-429.6 742.12,21.6 -21.6,21.6"/>
<g id="clust1" class="cluster">
<title>cluster_loop</title>
<path fill="#fbf6eb" stroke="#8b2418" stroke-width="1.8" stroke-dasharray="5,2" d="M161.52,-8C161.52,-8 700.52,-8 700.52,-8 706.52,-8 712.52,-14 712.52,-20 712.52,-20 712.52,-388 712.52,-388 712.52,-394 706.52,-400 700.52,-400 700.52,-400 161.52,-400 161.52,-400 155.52,-400 149.52,-394 149.52,-388 149.52,-388 149.52,-20 149.52,-20 149.52,-14 155.52,-8 161.52,-8"/>
<text xml:space="preserve" text-anchor="start" x="183.39" y="-386.55" font-family="Arial" font-weight="bold" font-size="11.00">loop</text>
<text xml:space="preserve" text-anchor="start" x="157.52" y="-377.45" font-family="Arial" font-size="9.00" fill="#8b2418">alcance de control</text>
</g>
<!-- n1 -->
<g id="node1" class="node">
<title>n1</title>
<path fill="#34495e" stroke="#1a1612" stroke-width="1.5" d="M119.04,-326C119.04,-326 12,-326 12,-326 6,-326 0,-320 0,-314 0,-314 0,-302 0,-302 0,-296 6,-290 12,-290 12,-290 119.04,-290 119.04,-290 125.04,-290 131.04,-296 131.04,-302 131.04,-302 131.04,-314 131.04,-314 131.04,-320 125.04,-326 119.04,-326"/>
<text xml:space="preserve" text-anchor="middle" x="65.52" y="-304.3" font-family="Arial" font-size="11.00" fill="#fbf6eb">1 &#160;&#160;ProgramStartEvent</text>
</g>
<!-- n2 -->
<g id="node2" class="node">
<title>n2</title>
<path fill="#5a6b3b" stroke="#1a1612" stroke-width="1.5" d="M108.16,-238C108.16,-238 22.88,-238 22.88,-238 16.88,-238 10.88,-232 10.88,-226 10.88,-226 10.88,-214 10.88,-214 10.88,-208 16.88,-202 22.88,-202 22.88,-202 108.16,-202 108.16,-202 114.16,-202 120.16,-208 120.16,-214 120.16,-214 120.16,-226 120.16,-226 120.16,-232 114.16,-238 108.16,-238"/>
<text xml:space="preserve" text-anchor="middle" x="65.52" y="-216.3" font-family="Arial" font-size="11.00" fill="#fbf6eb">2 &#160;&#160;DrawImage #1</text>
</g>
<!-- n1&#45;&gt;n2 -->
<g id="edge1" class="edge">
<title>n1&#45;&gt;n2</title>
<path fill="none" stroke="#8b2418" stroke-width="2" d="M65.52,-289.6C65.52,-278.71 65.52,-264.39 65.52,-251.64"/>
<polygon fill="#8b2418" stroke="#8b2418" stroke-width="2" points="69.02,-251.7 65.52,-241.7 62.02,-251.7 69.02,-251.7"/>
</g>
<!-- n7 -->
<g id="node7" class="node">
<title>n7</title>
<path fill="#5a6b3b" stroke="#1a1612" stroke-width="1.5" d="M402.16,-62C402.16,-62 316.88,-62 316.88,-62 310.88,-62 304.88,-56 304.88,-50 304.88,-50 304.88,-38 304.88,-38 304.88,-32 310.88,-26 316.88,-26 316.88,-26 402.16,-26 402.16,-26 408.16,-26 414.16,-32 414.16,-38 414.16,-38 414.16,-50 414.16,-50 414.16,-56 408.16,-62 402.16,-62"/>
<text xml:space="preserve" text-anchor="middle" x="359.52" y="-40.3" font-family="Arial" font-size="11.00" fill="#fbf6eb">7 &#160;&#160;DrawImage #1</text>
</g>
<!-- n2&#45;&gt;n7 -->
<g id="edge2" class="edge">
<title>n2&#45;&gt;n7</title>
<path fill="none" stroke="#5a6b3b" stroke-width="1.3" stroke-dasharray="5,2" d="M91.63,-201.46C132.17,-174.51 213.04,-121.86 284.52,-82 292.99,-77.27 302.16,-72.5 311.07,-68.01"/>
<polygon fill="#5a6b3b" stroke="#5a6b3b" stroke-width="1.3" points="312.58,-71.17 319.99,-63.59 309.47,-64.89 312.58,-71.17"/>
<text xml:space="preserve" text-anchor="middle" x="245.02" y="-128.5" font-family="Arial" font-size="10.00" fill="#5a6b3b"> display </text>
</g>
<!-- n3 -->
<g id="node3" class="node">
<title>n3</title>
<path fill="#fbf6eb" stroke="#1a1612" stroke-width="1.5" d="M488.54,-326C488.54,-326 384.5,-326 384.5,-326 378.5,-326 372.5,-320 372.5,-314 372.5,-314 372.5,-302 372.5,-302 372.5,-296 378.5,-290 384.5,-290 384.5,-290 488.54,-290 488.54,-290 494.54,-290 500.54,-296 500.54,-302 500.54,-302 500.54,-314 500.54,-314 500.54,-320 494.54,-326 488.54,-326"/>
<text xml:space="preserve" text-anchor="middle" x="436.52" y="-304.3" font-family="Arial" font-size="11.00" fill="#1a1612">3 &#160;&#160;ReadLightLevel #1</text>
</g>
<!-- n4 -->
<g id="node4" class="node">
<title>n4</title>
<path fill="#fbf6eb" stroke="#1a1612" stroke-width="1.5" d="M480.66,-238C480.66,-238 392.38,-238 392.38,-238 386.38,-238 380.38,-232 380.38,-226 380.38,-226 380.38,-214 380.38,-214 380.38,-208 386.38,-202 392.38,-202 392.38,-202 480.66,-202 480.66,-202 486.66,-202 492.66,-208 492.66,-214 492.66,-214 492.66,-226 492.66,-226 492.66,-232 486.66,-238 480.66,-238"/>
<text xml:space="preserve" text-anchor="middle" x="436.52" y="-216.3" font-family="Arial" font-size="11.00" fill="#1a1612">4 &#160;&#160;Comparison [&gt;]</text>
</g>
<!-- n3&#45;&gt;n4 -->
<g id="edge3" class="edge">
<title>n3&#45;&gt;n4</title>
<path fill="none" stroke="#4a3f33" stroke-width="1.3" d="M436.52,-289.6C436.52,-278.36 436.52,-263.47 436.52,-250.43"/>
<polygon fill="#4a3f33" stroke="#4a3f33" stroke-width="1.3" points="440.02,-250.64 436.52,-240.64 433.02,-250.64 440.02,-250.64"/>
<text xml:space="preserve" text-anchor="middle" x="453.77" y="-260.5" font-family="Arial" font-size="10.00" fill="#8b2418"> light_1 </text>
</g>
<!-- n5 -->
<g id="node5" class="node">
<title>n5</title>
<path fill="#b8843a" stroke="#1a1612" stroke-width="1.5" d="M487.79,-150C487.79,-150 385.25,-150 385.25,-150 379.25,-150 373.25,-144 373.25,-138 373.25,-138 373.25,-126 373.25,-126 373.25,-120 379.25,-114 385.25,-114 385.25,-114 487.79,-114 487.79,-114 493.79,-114 499.79,-120 499.79,-126 499.79,-126 499.79,-138 499.79,-138 499.79,-144 493.79,-150 487.79,-150"/>
<text xml:space="preserve" text-anchor="middle" x="436.52" y="-128.3" font-family="Arial" font-size="11.00" fill="#fbf6eb">5 &#160;&#160;ConditionalBranch</text>
</g>
<!-- n4&#45;&gt;n5 -->
<g id="edge4" class="edge">
<title>n4&#45;&gt;n5</title>
<path fill="none" stroke="#4a3f33" stroke-width="1.3" d="M436.52,-201.6C436.52,-190.36 436.52,-175.47 436.52,-162.43"/>
<polygon fill="#4a3f33" stroke="#4a3f33" stroke-width="1.3" points="440.02,-162.64 436.52,-152.64 433.02,-162.64 440.02,-162.64"/>
<text xml:space="preserve" text-anchor="middle" x="459.02" y="-172.5" font-family="Arial" font-size="10.00" fill="#8b2418"> condition </text>
</g>
<!-- n6 -->
<g id="node6" class="node">
<title>n6</title>
<path fill="#fbf6eb" stroke="#1a1612" stroke-width="1.5" d="M261.29,-62C261.29,-62 179.75,-62 179.75,-62 173.75,-62 167.75,-56 167.75,-50 167.75,-50 167.75,-38 167.75,-38 167.75,-32 173.75,-26 179.75,-26 179.75,-26 261.29,-26 261.29,-26 267.29,-26 273.29,-32 273.29,-38 273.29,-38 273.29,-50 273.29,-50 273.29,-56 267.29,-62 261.29,-62"/>
<text xml:space="preserve" text-anchor="middle" x="220.52" y="-40.3" font-family="Arial" font-size="11.00" fill="#1a1612">6 &#160;&#160;PlaySound #1</text>
</g>
<!-- n5&#45;&gt;n6 -->
<g id="edge5" class="edge">
<title>n5&#45;&gt;n6</title>
<path fill="none" stroke="#8b2418" stroke-width="2" d="M372.56,-113.39C354.39,-107.79 334.73,-101.18 317.02,-94 299.08,-86.73 279.96,-77.38 263.51,-68.8"/>
<polygon fill="#8b2418" stroke="#8b2418" stroke-width="2" points="265.2,-65.73 254.73,-64.14 261.92,-71.92 265.2,-65.73"/>
<text xml:space="preserve" text-anchor="middle" x="328.27" y="-84.5" font-family="Arial" font-size="10.00" fill="#8b2418"> true </text>
</g>
<!-- n5&#45;&gt;n7 -->
<g id="edge6" class="edge">
<title>n5&#45;&gt;n7</title>
<path fill="none" stroke="#8b2418" stroke-width="2" d="M372.7,-113.65C364.13,-108.66 356.44,-102.25 351.02,-94 347.32,-88.37 346.67,-81.62 347.54,-74.96"/>
<polygon fill="#8b2418" stroke="#8b2418" stroke-width="2" points="350.88,-76.06 349.97,-65.5 344.09,-74.32 350.88,-76.06"/>
<text xml:space="preserve" text-anchor="middle" x="362.27" y="-84.5" font-family="Arial" font-size="10.00" fill="#8b2418"> true </text>
</g>
<!-- n8 -->
<g id="node8" class="node">
<title>n8</title>
<path fill="#fbf6eb" stroke="#1a1612" stroke-width="1.5" d="M541.04,-62C541.04,-62 458,-62 458,-62 452,-62 446,-56 446,-50 446,-50 446,-38 446,-38 446,-32 452,-26 458,-26 458,-26 541.04,-26 541.04,-26 547.04,-26 553.04,-32 553.04,-38 553.04,-38 553.04,-50 553.04,-50 553.04,-56 547.04,-62 541.04,-62"/>
<text xml:space="preserve" text-anchor="middle" x="499.52" y="-40.3" font-family="Arial" font-size="11.00" fill="#1a1612">8 &#160;&#160;StopSound #1</text>
</g>
<!-- n5&#45;&gt;n8 -->
<g id="edge7" class="edge">
<title>n5&#45;&gt;n8</title>
<path fill="none" stroke="#8b2418" stroke-width="2" d="M464.41,-113.41C471.42,-107.9 478.41,-101.32 483.52,-94 487.52,-88.28 490.56,-81.49 492.87,-74.83"/>
<polygon fill="#8b2418" stroke="#8b2418" stroke-width="2" points="496.19,-75.94 495.6,-65.37 489.46,-74 496.19,-75.94"/>
<text xml:space="preserve" text-anchor="middle" x="503.15" y="-84.5" font-family="Arial" font-size="10.00" fill="#8b2418"> false </text>
</g>
<!-- n9 -->
<g id="node9" class="node">
<title>n9</title>
<path fill="#5a6b3b" stroke="#1a1612" stroke-width="1.5" d="M682.16,-62C682.16,-62 596.88,-62 596.88,-62 590.88,-62 584.88,-56 584.88,-50 584.88,-50 584.88,-38 584.88,-38 584.88,-32 590.88,-26 596.88,-26 596.88,-26 682.16,-26 682.16,-26 688.16,-26 694.16,-32 694.16,-38 694.16,-38 694.16,-50 694.16,-50 694.16,-56 688.16,-62 682.16,-62"/>
<text xml:space="preserve" text-anchor="middle" x="639.52" y="-40.3" font-family="Arial" font-size="11.00" fill="#fbf6eb">9 &#160;&#160;DrawImage #1</text>
</g>
<!-- n5&#45;&gt;n9 -->
<g id="edge8" class="edge">
<title>n5&#45;&gt;n9</title>
<path fill="none" stroke="#8b2418" stroke-width="2" d="M478.61,-113.35C493.16,-107.24 509.56,-100.33 524.52,-94 544.71,-85.45 566.88,-76.02 586.31,-67.73"/>
<polygon fill="#8b2418" stroke="#8b2418" stroke-width="2" points="587.41,-71.07 595.24,-63.93 584.67,-64.63 587.41,-71.07"/>
<text xml:space="preserve" text-anchor="middle" x="563.24" y="-84.5" font-family="Arial" font-size="10.00" fill="#8b2418"> false </text>
</g>
<!-- n6&#45;&gt;n8 -->
<g id="edge9" class="edge">
<title>n6&#45;&gt;n8</title>
<path fill="none" stroke="#5a6b3b" stroke-width="1.3" stroke-dasharray="5,2" d="M256.53,-62.65C295.37,-80.37 358.99,-102.45 413.64,-89 430.48,-84.86 447.67,-76.76 462.2,-68.57"/>
<polygon fill="#5a6b3b" stroke="#5a6b3b" stroke-width="1.3" points="463.74,-71.73 470.58,-63.64 460.18,-65.69 463.74,-71.73"/>
<text xml:space="preserve" text-anchor="middle" x="397.52" y="-84.5" font-family="Arial" font-size="10.00" fill="#5a6b3b"> sound </text>
</g>
<!-- n7&#45;&gt;n9 -->
<g id="edge10" class="edge">
<title>n7&#45;&gt;n9</title>
<path fill="none" stroke="#5a6b3b" stroke-width="1.3" stroke-dasharray="5,2" d="M387.03,-62.64C403.42,-72.6 425.07,-83.85 446.14,-89 496.08,-101.2 553.46,-83.91 592.66,-67.36"/>
<polygon fill="#5a6b3b" stroke="#5a6b3b" stroke-width="1.3" points="593.91,-70.63 601.67,-63.41 591.1,-64.22 593.91,-70.63"/>
<text xml:space="preserve" text-anchor="middle" x="464.52" y="-84.5" font-family="Arial" font-size="10.00" fill="#5a6b3b"> display </text>
</g>
</g>
</svg>
