<?xml version="1.0" encoding="UTF-8" standalone="no"?>
<!DOCTYPE svg PUBLIC "-//W3C//DTD SVG 1.1//EN"
 "http://www.w3.org/Graphics/SVG/1.1/DTD/svg11.dtd">
<!-- Generated by graphviz version 15.0.0 (20260523.1842)
 -->
<!-- Title: PDG_MakeCode Pages: 1 -->
<svg width="355pt" height="920pt"
 viewBox="0.00 0.00 355.00 920.00" xmlns="http://www.w3.org/2000/svg" xmlns:xlink="http://www.w3.org/1999/xlink">
<g id="graph0" class="graph" transform="scale(1 1) rotate(0) translate(21.6 898.6)">
<title>PDG_MakeCode</title>
<polygon fill="#fbf6eb" stroke="none" points="-21.6,21.6 -21.6,-898.6 333.6,-898.6 333.6,21.6 -21.6,21.6"/>
<g id="clust1" class="cluster">
<title>cluster_loop</title>
<path fill="#fbf6eb" stroke="#8b2418" stroke-width="1.8" stroke-dasharray="5,2" d="M20,-8C20,-8 292,-8 292,-8 298,-8 304,-14 304,-20 304,-20 304,-712 304,-712 304,-718 298,-724 292,-724 292,-724 20,-724 20,-724 14,-724 8,-718 8,-712 8,-712 8,-20 8,-20 8,-14 14,-8 20,-8"/>
<text xml:space="preserve" text-anchor="start" x="41.88" y="-710.55" font-family="Arial" font-weight="bold" font-size="11.00">loop</text>
<text xml:space="preserve" text-anchor="start" x="16" y="-701.45" font-family="Arial" font-size="9.00" fill="#8b2418">alcance de control</text>
</g>
<!-- n0 -->
<g id="node1" class="node">
<title>n0</title>
<path fill="#34495e" stroke="#1a1612" stroke-width="1.5" d="M119.52,-877C119.52,-877 12.48,-877 12.48,-877 6.48,-877 0.48,-871 0.48,-865 0.48,-865 0.48,-853 0.48,-853 0.48,-847 6.48,-841 12.48,-841 12.48,-841 119.52,-841 119.52,-841 125.52,-841 131.52,-847 131.52,-853 131.52,-853 131.52,-865 131.52,-865 131.52,-871 125.52,-877 119.52,-877"/>
<text xml:space="preserve" text-anchor="middle" x="66" y="-855.3" font-family="Arial" font-size="11.00" fill="#fbf6eb">0 &#160;&#160;ProgramStartEvent</text>
</g>
<!-- n1 -->
<g id="node2" class="node">
<title>n1</title>
<path fill="#8b2418" stroke="#1a1612" stroke-width="1.5" d="M108.77,-800C108.77,-800 39.23,-800 39.23,-800 33.23,-800 27.23,-794 27.23,-788 27.23,-788 27.23,-776 27.23,-776 27.23,-770 33.23,-764 39.23,-764 39.23,-764 108.77,-764 108.77,-764 114.77,-764 120.77,-770 120.77,-776 120.77,-776 120.77,-788 120.77,-788 120.77,-794 114.77,-800 108.77,-800"/>
<text xml:space="preserve" text-anchor="middle" x="74" y="-778.3" font-family="Arial" font-size="11.00" fill="#fbf6eb">1 &#160;&#160;SetVariable</text>
</g>
<!-- n0&#45;&gt;n1 -->
<g id="edge1" class="edge">
<title>n0&#45;&gt;n1</title>
<path fill="none" stroke="#8b2418" stroke-width="2" d="M67.86,-840.6C68.72,-832.52 69.77,-822.67 70.76,-813.42"/>
<polygon fill="#8b2418" stroke="#8b2418" stroke-width="2" points="74.23,-813.89 71.81,-803.57 67.26,-813.14 74.23,-813.89"/>
</g>
<!-- n4 -->
<g id="node5" class="node">
<title>n4</title>
<path fill="#b8843a" stroke="#1a1612" stroke-width="1.5" d="M204.27,-678C204.27,-678 101.73,-678 101.73,-678 95.73,-678 89.73,-672 89.73,-666 89.73,-666 89.73,-654 89.73,-654 89.73,-648 95.73,-642 101.73,-642 101.73,-642 204.27,-642 204.27,-642 210.27,-642 216.27,-648 216.27,-654 216.27,-654 216.27,-666 216.27,-666 216.27,-672 210.27,-678 204.27,-678"/>
<text xml:space="preserve" text-anchor="middle" x="153" y="-656.3" font-family="Arial" font-size="11.00" fill="#fbf6eb">2 &#160;&#160;ConditionalBranch</text>
</g>
<!-- n1&#45;&gt;n4 -->
<g id="edge2" class="edge">
<title>n1&#45;&gt;n4</title>
<path fill="none" stroke="#4a3f33" stroke-width="1.3" d="M85.66,-763.29C98.68,-743.51 119.93,-711.23 135.08,-688.23"/>
<polygon fill="#4a3f33" stroke="#4a3f33" stroke-width="1.3" points="137.89,-690.31 140.47,-680.03 132.05,-686.46 137.89,-690.31"/>
<text xml:space="preserve" text-anchor="middle" x="119.1" y="-734.5" font-family="Arial" font-size="10.00" fill="#8b2418"> flama </text>
</g>
<!-- n2 -->
<g id="node3" class="node">
<title>n2</title>
<path fill="#34495e" stroke="#1a1612" stroke-width="1.5" d="M282.52,-877C282.52,-877 175.48,-877 175.48,-877 169.48,-877 163.48,-871 163.48,-865 163.48,-865 163.48,-853 163.48,-853 163.48,-847 169.48,-841 175.48,-841 175.48,-841 282.52,-841 282.52,-841 288.52,-841 294.52,-847 294.52,-853 294.52,-853 294.52,-865 294.52,-865 294.52,-871 288.52,-877 282.52,-877"/>
<text xml:space="preserve" text-anchor="middle" x="229" y="-855.3" font-family="Arial" font-size="11.00" fill="#fbf6eb">0 &#160;&#160;SuddenNoiseEvent</text>
</g>
<!-- n3 -->
<g id="node4" class="node">
<title>n3</title>
<path fill="#8b2418" stroke="#1a1612" stroke-width="1.5" d="M264.27,-800C264.27,-800 179.73,-800 179.73,-800 173.73,-800 167.73,-794 167.73,-788 167.73,-788 167.73,-776 167.73,-776 167.73,-770 173.73,-764 179.73,-764 179.73,-764 264.27,-764 264.27,-764 270.27,-764 276.27,-770 276.27,-776 276.27,-776 276.27,-788 276.27,-788 276.27,-794 270.27,-800 264.27,-800"/>
<text xml:space="preserve" text-anchor="middle" x="222" y="-778.3" font-family="Arial" font-size="11.00" fill="#fbf6eb">1 &#160;&#160;ToggleVariable</text>
</g>
<!-- n2&#45;&gt;n3 -->
<g id="edge3" class="edge">
<title>n2&#45;&gt;n3</title>
<path fill="none" stroke="#8b2418" stroke-width="2" d="M227.38,-840.6C226.62,-832.52 225.7,-822.67 224.84,-813.42"/>
<polygon fill="#8b2418" stroke="#8b2418" stroke-width="2" points="228.33,-813.21 223.92,-803.57 221.36,-813.86 228.33,-813.21"/>
</g>
<!-- n3&#45;&gt;n4 -->
<g id="edge4" class="edge">
<title>n3&#45;&gt;n4</title>
<path fill="none" stroke="#4a3f33" stroke-width="1.3" d="M211.82,-763.29C200.49,-743.59 182.05,-711.52 168.83,-688.54"/>
<polygon fill="#4a3f33" stroke="#4a3f33" stroke-width="1.3" points="172,-687.02 163.98,-680.09 165.93,-690.51 172,-687.02"/>
<text xml:space="preserve" text-anchor="middle" x="214.68" y="-734.5" font-family="Arial" font-size="10.00" fill="#8b2418"> flama </text>
</g>
<!-- n5 -->
<g id="node6" class="node">
<title>n5</title>
<path fill="#5a6b3b" stroke="#1a1612" stroke-width="1.5" d="M108.14,-590C108.14,-590 37.86,-590 37.86,-590 31.86,-590 25.86,-584 25.86,-578 25.86,-578 25.86,-566 25.86,-566 25.86,-560 31.86,-554 37.86,-554 37.86,-554 108.14,-554 108.14,-554 114.14,-554 120.14,-560 120.14,-566 120.14,-566 120.14,-578 120.14,-578 120.14,-584 114.14,-590 108.14,-590"/>
<text xml:space="preserve" text-anchor="middle" x="73" y="-568.3" font-family="Arial" font-size="11.00" fill="#fbf6eb">3 &#160;&#160;DrawImage</text>
</g>
<!-- n4&#45;&gt;n5 -->
<g id="edge5" class="edge">
<title>n4&#45;&gt;n5</title>
<path fill="none" stroke="#8b2418" stroke-width="2" d="M124.9,-641.42C117.12,-635.79 109.02,-629.14 102.5,-622 96.94,-615.91 91.89,-608.62 87.59,-601.55"/>
<polygon fill="#8b2418" stroke="#8b2418" stroke-width="2" points="90.78,-600.08 82.81,-593.1 84.69,-603.52 90.78,-600.08"/>
<text xml:space="preserve" text-anchor="middle" x="113.75" y="-612.5" font-family="Arial" font-size="10.00" fill="#8b2418"> true </text>
</g>
<!-- n13 -->
<g id="node13" class="node">
<title>n13</title>
<path fill="#5a6b3b" stroke="#1a1612" stroke-width="1.5" d="M274.14,-590C274.14,-590 197.86,-590 197.86,-590 191.86,-590 185.86,-584 185.86,-578 185.86,-578 185.86,-566 185.86,-566 185.86,-560 191.86,-554 197.86,-554 197.86,-554 274.14,-554 274.14,-554 280.14,-554 286.14,-560 286.14,-566 286.14,-566 286.14,-578 286.14,-578 286.14,-584 280.14,-590 274.14,-590"/>
<text xml:space="preserve" text-anchor="middle" x="236" y="-568.3" font-family="Arial" font-size="11.00" fill="#fbf6eb">10 &#160;&#160;DrawImage</text>
</g>
<!-- n4&#45;&gt;n13 -->
<g id="edge6" class="edge">
<title>n4&#45;&gt;n13</title>
<path fill="none" stroke="#8b2418" stroke-width="2" d="M155.42,-641.59C157.58,-631.46 161.59,-618.97 169,-610 172.82,-605.38 177.38,-601.24 182.29,-597.55"/>
<polygon fill="#8b2418" stroke="#8b2418" stroke-width="2" points="183.83,-600.73 190.23,-592.28 179.96,-594.89 183.83,-600.73"/>
<text xml:space="preserve" text-anchor="middle" x="182.5" y="-612.5" font-family="Arial" font-size="10.00" fill="#8b2418"> false </text>
</g>
<!-- n6 -->
<g id="node7" class="node">
<title>n6</title>
<path fill="#5a6b3b" stroke="#1a1612" stroke-width="1.5" d="M127.52,-502C127.52,-502 38.48,-502 38.48,-502 32.48,-502 26.48,-496 26.48,-490 26.48,-490 26.48,-478 26.48,-478 26.48,-472 32.48,-466 38.48,-466 38.48,-466 127.52,-466 127.52,-466 133.52,-466 139.52,-472 139.52,-478 139.52,-478 139.52,-490 139.52,-490 139.52,-496 133.52,-502 127.52,-502"/>
<text xml:space="preserve" text-anchor="middle" x="83" y="-480.3" font-family="Arial" font-size="11.00" fill="#fbf6eb">3 &#160;&#160;RandomInteger</text>
</g>
<!-- n5&#45;&gt;n6 -->
<g id="edge7" class="edge">
<title>n5&#45;&gt;n6</title>
<path fill="none" stroke="#8b2418" stroke-width="2" d="M75.02,-553.6C76.3,-542.6 77.99,-528.08 79.48,-515.24"/>
<polygon fill="#8b2418" stroke="#8b2418" stroke-width="2" points="82.92,-516.02 80.6,-505.68 75.96,-515.21 82.92,-516.02"/>
<text xml:space="preserve" text-anchor="middle" x="89.47" y="-524.5" font-family="Arial" font-size="10.00" fill="#8b2418"> seq </text>
</g>
<!-- n7 -->
<g id="node8" class="node">
<title>n7</title>
<path fill="#5a6b3b" stroke="#1a1612" stroke-width="1.5" d="M131.77,-414C131.77,-414 74.23,-414 74.23,-414 68.23,-414 62.23,-408 62.23,-402 62.23,-402 62.23,-390 62.23,-390 62.23,-384 68.23,-378 74.23,-378 74.23,-378 131.77,-378 131.77,-378 137.77,-378 143.77,-384 143.77,-390 143.77,-390 143.77,-402 143.77,-402 143.77,-408 137.77,-414 131.77,-414"/>
<text xml:space="preserve" text-anchor="middle" x="103" y="-392.3" font-family="Arial" font-size="11.00" fill="#fbf6eb">4 &#160;&#160;PlotPoint</text>
</g>
<!-- n5&#45;&gt;n7 -->
<g id="edge8" class="edge">
<title>n5&#45;&gt;n7</title>
<path fill="none" stroke="#5a6b3b" stroke-width="1.3" stroke-dasharray="5,2" d="M106.01,-553.34C124.41,-541.5 145.65,-524.05 156,-502 168.69,-474.95 149.55,-444.51 130.83,-423.4"/>
<polygon fill="#5a6b3b" stroke="#5a6b3b" stroke-width="1.3" points="133.39,-421.01 123.99,-416.12 128.28,-425.8 133.39,-421.01"/>
<text xml:space="preserve" text-anchor="middle" x="178.47" y="-480.5" font-family="Arial" font-size="10.00" fill="#5a6b3b"> display </text>
</g>
<!-- n6&#45;&gt;n7 -->
<g id="edge9" class="edge">
<title>n6&#45;&gt;n7</title>
<path fill="none" stroke="#8b2418" stroke-width="2" d="M72.04,-465.52C67.53,-456.06 64.19,-444.24 68.25,-434 69.54,-430.73 71.28,-427.59 73.28,-424.6"/>
<polygon fill="#8b2418" stroke="#8b2418" stroke-width="2" points="75.93,-426.89 79.52,-416.92 70.5,-422.47 75.93,-426.89"/>
<text xml:space="preserve" text-anchor="middle" x="79.12" y="-436.5" font-family="Arial" font-size="10.00" fill="#8b2418"> seq </text>
</g>
<!-- n6&#45;&gt;n7 -->
<g id="edge10" class="edge">
<title>n6&#45;&gt;n7</title>
<path fill="none" stroke="#4a3f33" stroke-width="1.3" d="M88.65,-465.41C90.5,-459.31 92.47,-452.39 94,-446 95.54,-439.56 96.97,-432.6 98.21,-425.99"/>
<polygon fill="#4a3f33" stroke="#4a3f33" stroke-width="1.3" points="101.63,-426.73 99.94,-416.27 94.74,-425.5 101.63,-426.73"/>
<text xml:space="preserve" text-anchor="middle" x="101.99" y="-436.5" font-family="Arial" font-size="10.00" fill="#8b2418"> x </text>
</g>
<!-- n8 -->
<g id="node9" class="node">
<title>n8</title>
<path fill="#4a3f33" stroke="#1a1612" stroke-width="1.5" d="M124.89,-326C124.89,-326 83.1,-326 83.1,-326 77.11,-326 71.11,-320 71.11,-314 71.11,-314 71.11,-302 71.11,-302 71.11,-296 77.11,-290 83.11,-290 83.11,-290 124.89,-290 124.89,-290 130.89,-290 136.89,-296 136.89,-302 136.89,-302 136.89,-314 136.89,-314 136.89,-320 130.89,-326 124.89,-326"/>
<text xml:space="preserve" text-anchor="middle" x="104" y="-304.3" font-family="Arial" font-size="11.00" fill="#fbf6eb">5 &#160;&#160;Delay</text>
</g>
<!-- n7&#45;&gt;n8 -->
<g id="edge11" class="edge">
<title>n7&#45;&gt;n8</title>
<path fill="none" stroke="#8b2418" stroke-width="2" d="M101.1,-377.31C100.33,-368 99.73,-356.38 100.25,-346 100.36,-343.83 100.51,-341.59 100.68,-339.33"/>
<polygon fill="#8b2418" stroke="#8b2418" stroke-width="2" points="104.13,-339.96 101.57,-329.68 97.16,-339.31 104.13,-339.96"/>
<text xml:space="preserve" text-anchor="middle" x="111.12" y="-348.5" font-family="Arial" font-size="10.00" fill="#8b2418"> seq </text>
</g>
<!-- n7&#45;&gt;n8 -->
<g id="edge12" class="edge">
<title>n7&#45;&gt;n8</title>
<path fill="none" stroke="#5a6b3b" stroke-width="1.3" stroke-dasharray="5,2" d="M116.63,-377.52C120.43,-371.64 124.05,-364.84 126,-358 127.97,-351.11 126.77,-343.93 124.13,-337.27"/>
<polygon fill="#5a6b3b" stroke="#5a6b3b" stroke-width="1.3" points="127.25,-335.69 119.54,-328.43 121.04,-338.92 127.25,-335.69"/>
<text xml:space="preserve" text-anchor="middle" x="145.35" y="-348.5" font-family="Arial" font-size="10.00" fill="#5a6b3b"> display </text>
</g>
<!-- n9 -->
<g id="node10" class="node">
<title>n9</title>
<path fill="#5a6b3b" stroke="#1a1612" stroke-width="1.5" d="M141.14,-238C141.14,-238 70.86,-238 70.86,-238 64.86,-238 58.86,-232 58.86,-226 58.86,-226 58.86,-214 58.86,-214 58.86,-208 64.86,-202 70.86,-202 70.86,-202 141.14,-202 141.14,-202 147.14,-202 153.14,-208 153.14,-214 153.14,-214 153.14,-226 153.14,-226 153.14,-232 147.14,-238 141.14,-238"/>
<text xml:space="preserve" text-anchor="middle" x="106" y="-216.3" font-family="Arial" font-size="11.00" fill="#fbf6eb">6 &#160;&#160;DrawImage</text>
</g>
<!-- n8&#45;&gt;n9 -->
<g id="edge13" class="edge">
<title>n8&#45;&gt;n9</title>
<path fill="none" stroke="#8b2418" stroke-width="2" d="M104.4,-289.6C104.66,-278.71 104.99,-264.39 105.29,-251.64"/>
<polygon fill="#8b2418" stroke="#8b2418" stroke-width="2" points="108.79,-251.78 105.52,-241.7 101.79,-251.61 108.79,-251.78"/>
<text xml:space="preserve" text-anchor="middle" x="115.99" y="-260.5" font-family="Arial" font-size="10.00" fill="#8b2418"> seq </text>
</g>
<!-- n8&#45;&gt;n9 -->
<g id="edge14" class="edge">
<title>n8&#45;&gt;n9</title>
<path fill="none" stroke="#5a6b3b" stroke-width="1.3" stroke-dasharray="5,2" d="M122.95,-289.45C127.83,-283.77 132.42,-277.09 135,-270 137.72,-262.51 135.85,-254.88 132.02,-247.94"/>
<polygon fill="#5a6b3b" stroke="#5a6b3b" stroke-width="1.3" points="135.03,-246.14 126.42,-239.97 129.3,-250.16 135.03,-246.14"/>
<text xml:space="preserve" text-anchor="middle" x="148.66" y="-260.5" font-family="Arial" font-size="10.00" fill="#5a6b3b"> time </text>
</g>
<!-- n10 -->
<g id="node11" class="node">
<title>n10</title>
<path fill="#5a6b3b" stroke="#1a1612" stroke-width="1.5" d="M149.77,-150C149.77,-150 92.23,-150 92.23,-150 86.23,-150 80.23,-144 80.23,-138 80.23,-138 80.23,-126 80.23,-126 80.23,-120 86.23,-114 92.23,-114 92.23,-114 149.77,-114 149.77,-114 155.77,-114 161.77,-120 161.77,-126 161.77,-126 161.77,-138 161.77,-138 161.77,-144 155.77,-150 149.77,-150"/>
<text xml:space="preserve" text-anchor="middle" x="121" y="-128.3" font-family="Arial" font-size="11.00" fill="#fbf6eb">7 &#160;&#160;PlotPoint</text>
</g>
<!-- n9&#45;&gt;n10 -->
<g id="edge15" class="edge">
<title>n9&#45;&gt;n10</title>
<path fill="none" stroke="#8b2418" stroke-width="2" d="M109.04,-201.6C110.95,-190.6 113.49,-176.08 115.73,-163.24"/>
<polygon fill="#8b2418" stroke="#8b2418" stroke-width="2" points="119.13,-164.11 117.4,-153.65 112.23,-162.9 119.13,-164.11"/>
<text xml:space="preserve" text-anchor="middle" x="125.27" y="-172.5" font-family="Arial" font-size="10.00" fill="#8b2418"> seq </text>
</g>
<!-- n11 -->
<g id="node12" class="node">
<title>n11</title>
<path fill="#4a3f33" stroke="#1a1612" stroke-width="1.5" d="M171.89,-62C171.89,-62 130.1,-62 130.1,-62 124.11,-62 118.11,-56 118.11,-50 118.11,-50 118.11,-38 118.11,-38 118.11,-32 124.11,-26 130.11,-26 130.11,-26 171.89,-26 171.89,-26 177.89,-26 183.89,-32 183.89,-38 183.89,-38 183.89,-50 183.89,-50 183.89,-56 177.89,-62 171.89,-62"/>
<text xml:space="preserve" text-anchor="middle" x="151" y="-40.3" font-family="Arial" font-size="11.00" fill="#fbf6eb">8 &#160;&#160;Delay</text>
</g>
<!-- n10&#45;&gt;n11 -->
<g id="edge16" class="edge">
<title>n10&#45;&gt;n11</title>
<path fill="none" stroke="#8b2418" stroke-width="2" d="M121.37,-113.32C122.04,-103.8 123.62,-91.99 127.25,-82 128.28,-79.16 129.57,-76.3 131,-73.52"/>
<polygon fill="#8b2418" stroke="#8b2418" stroke-width="2" points="133.84,-75.59 135.91,-65.2 127.81,-72.03 133.84,-75.59"/>
<text xml:space="preserve" text-anchor="middle" x="138.12" y="-84.5" font-family="Arial" font-size="10.00" fill="#8b2418"> seq </text>
</g>
<!-- n10&#45;&gt;n11 -->
<g id="edge17" class="edge">
<title>n10&#45;&gt;n11</title>
<path fill="none" stroke="#5a6b3b" stroke-width="1.3" stroke-dasharray="5,2" d="M140.55,-113.54C145.59,-107.86 150.33,-101.16 153,-94 155.31,-87.8 156.03,-80.84 155.92,-74.16"/>
<polygon fill="#5a6b3b" stroke="#5a6b3b" stroke-width="1.3" points="159.41,-73.93 155.09,-64.26 152.44,-74.52 159.41,-73.93"/>
<text xml:space="preserve" text-anchor="middle" x="173.97" y="-84.5" font-family="Arial" font-size="10.00" fill="#5a6b3b"> display </text>
</g>
<!-- n11&#45;&gt;n4 -->
<g id="edge18" class="edge">
<title>n11&#45;&gt;n4</title>
<path fill="none" stroke="#8b2418" stroke-width="2" d="M184.59,-62.01C208.35,-76.69 236,-100.35 236,-131 236,-309 236,-309 236,-309 236,-395.88 236.89,-421.19 205,-502 194.77,-527.91 181.75,-528.74 170,-554 159.08,-577.47 157.85,-584.4 154,-610 153.09,-616.03 152.61,-622.53 152.4,-628.76"/>
<polygon fill="#8b2418" stroke="#8b2418" stroke-width="2" points="148.9,-628.61 152.3,-638.65 155.9,-628.68 148.9,-628.61"/>
<text xml:space="preserve" text-anchor="middle" x="261.06" y="-348.5" font-family="Arial" font-size="10.00" fill="#8b2418"> loop_back </text>
</g>
<!-- n13&#45;&gt;n4 -->
<g id="edge19" class="edge">
<title>n13&#45;&gt;n4</title>
<path fill="none" stroke="#8b2418" stroke-width="2" d="M224.73,-590.68C218.11,-600.42 209.25,-612.44 200,-622 196.26,-625.86 192.12,-629.68 187.88,-633.3"/>
<polygon fill="#8b2418" stroke="#8b2418" stroke-width="2" points="185.87,-630.42 180.32,-639.45 190.29,-635.85 185.87,-630.42"/>
<text xml:space="preserve" text-anchor="middle" x="235.03" y="-612.5" font-family="Arial" font-size="10.00" fill="#8b2418"> loop_back </text>
</g>
</g>
</svg>
