<svg xmlns="http://www.w3.org/2000/svg" width="1280" height="720" xmlns:v="https://vecta.io/nano"><style><![CDATA[.B{clip-path:none}.C{fill:none}.D{stroke-miterlimit:10}.E{stroke:#000}.F{fill:#ff7b54}.G{fill:#1e5c93}.H{fill:#bc9353}.I{stroke-width:1.374}.J{fill:#ffc93c}.K{fill:#7c2869}.L{stroke-width:3}.M{stroke-width:2.386}]]></style><defs><clipPath ><path d="M0 0h708.12v398.41H0z" stroke-width="0" class="C"/></clipPath><clipPath ><path d="M329.04 154.55c-9.4 2-22.98 1.14-38.17-7.37L286 158.21c5.98 8.16 28.93 17.46 46.29 13h0c1.46 7.54 3.83 16.5 7.66 25.59l-.2.35 30.39-4.09-2.19-6.5c-.01-.03-.02-.06-.03-.1h0c-2.11-6.05-4.35-11.98-6.69-17.83 0 0 9.88 2.67 29.46 20.13l7.42-9.02s-19.84-30.25-53.18-33.49l-15.89 8.28z" stroke-width="0" class="C"/></clipPath><linearGradient x1="441.08" y1="990.38" x2="442.15" y2="990.38" gradientUnits="userSpaceOnUse" gradientTransform="matrix(0,-807.3188,807.5115,0,-799096.77,356876.06)" spreadMethod="pad" id="C"><stop offset="0" stop-color="#1ead28"/><stop offset="1" stop-color="#248029"/></linearGradient></defs><path d="M0 0v720h1280V0z" fill="url(#C)" class="B"/><path d="M964.667 163.787l-1.056 2.145-68.217 141.902" stroke="#fff" stroke-width="3.615" stroke-linecap="round" class="B C D"/><path d="M1021.173 125.486c-4.736 14.156-11.513 36.596-55.339 44.153l3.314 15.559s41.397-5.581 58.258-27.52l-.81-32.409-5.413.217z" class="B G"/><path d="M993.89 111.651a8.62 8.62 0 0 0 4.454-5.891c.104-.547.178-1.101.178-1.667 0-.554-.039-1.12-.152-1.675-.159-.839-.431-1.665-.846-2.458-2.222-4.234-7.467-5.862-11.694-3.631-6.58 5.034-9.236 10.371-11.354 15.756 5.64 1.299 11.552 2.125 19.414-.434" class="B"/><path d="M950.271 181.01c.868 4.246 5.028 6.976 9.274 6.108l9.64-1.976-3.164-15.38-9.64 1.976c-4.244.867-6.994 5.026-6.11 9.272m147.867 43.731c4.104-1.412 6.269-5.894 4.856-9.978l-3.21-9.308-14.846 5.137 3.22 9.311c1.412 4.094 5.895 6.267 10 4.855" class="B H"/><path d="M960.09 177.866c.67 1.282.81 2.834.294 4.303-.998 2.831-4.107 4.311-6.948 3.32" class="B C D E I"/><path d="M1021.173 125.486c9.086-2.504 11.438-3.229 23.058.894 11.173 3.954 45.378 47.42 56.091 79.525l-15.109 5.422c-19.79-35.201-29.216-44.322-29.216-44.322l-.574 29.327-42.375-.094c-1.6-38.307 8.125-70.762 8.125-70.762" class="B G"/><path d="M985.5 247.762l27.548-51.504h.489c.764 17.913 3.89 37.086 11.429 54.827-7.577 8.858-13.538 14.901-13.538 14.901l-24.477 40.924-17.512-9.723 16.061-49.444z" class="B F"/><g class="H"><path d="M1034.108 137.676c5.15 0 9.332-4.181 9.332-9.327v-27.71h-18.652v27.71a9.33 9.33 0 0 0 9.32 9.327" class="B"/><path d="M1074.056 77.567c0 23.146-18.756 41.905-41.915 41.905s-41.915-18.758-41.915-41.905c0-23.153 18.756-41.912 41.915-41.912s41.915 18.758 41.915 41.912" class="B"/></g><path d="M1054.397 196.352h1.046c-.039 2.279-.453 4.735-1.196 7.313-4.247 14.966-18.037 34.291-29.281 47.42-7.539-17.761-10.665-36.934-11.429-54.827z" class="B F"/><path d="M1017.35 84.449c0 4.103 3.333 7.426 7.438 7.426 4.095 0 7.428-3.323 7.428-7.426s-3.333-7.426-7.428-7.426c-4.105 0-7.438 3.323-7.438 7.426m-21.38-.744c0 4.103 3.324 7.436 7.428 7.436s7.428-3.332 7.428-7.436a7.43 7.43 0 0 0-7.428-7.426 7.43 7.43 0 0 0-7.428 7.426" class="B"/><path d="M1020.787 96.921c0 4.084-3.304 7.407-7.409 7.407a7.39 7.39 0 0 1-7.409-7.407m8.981-3.022a3.11 3.11 0 0 1-3.107-3.106 3.11 3.11 0 0 1 3.107-3.106" class="B C D E I"/><path d="M1032.122 35.655c-22.067 0-40.143 17.065-41.792 38.712h51.423v-8.009h.66c1.873 13.573 12.465 24.867 26.709 27.004a36.44 36.44 0 0 0 1.759.217c2.044-4.932 3.174-10.354 3.174-16.028 0-23.156-18.756-41.914-41.915-41.914" class="B"/><path d="M1082.181 88.909a8.63 8.63 0 0 0-7.382-.282c-.508.217-.988.489-1.458.79a7.86 7.86 0 0 0-1.309 1.084c-.593.602-1.121 1.308-1.535 2.099-2.203 4.243-.554 9.467 3.69 11.67 7.881 2.532 13.793 1.667 19.414.33-2.147-5.364-4.849-10.701-11.438-15.708" class="B"/><path d="M1021.71 83.96h-21.766" class="B C D E I"/><path d="M1054.406 249.155l25.222 46.772-16.126 11.906s-24.875-25.226-38.177-55.873l-.359-.875c11.243-13.13 26.21-39.767 30.476-54.753z" class="B F"/><path d="M1063.182 307.418c7.334-4.952 16.447-11.474 16.447-11.474l6.327 6.646-22.614 17.657s-4.659-9.788-.159-12.829zm-93.743-10.211c3.193 1.431 17.512 9.723 17.512 9.723l-4.849 9.289-24.487-12.848s5.763-8.838 11.824-6.164z" class="B"/><path d="M962.406 172.548l-3.962-.036 3.54-7.352 3.275 1.571z" fill="#fff" class="B"/><path d="M963.527 172.256l-2.841-.046c-1.535-.094-2.873 1.063-2.967 2.598-.084 1.535 1.072 2.87 2.608 2.964l2.731.113" class="B C D E I"/><g class="G"><path d="M800.927 330.027h85.138c27.64-15.089 46.386-44.399 46.386-78.084 0-49.105-39.825-88.92-88.932-88.92-49.116 0-88.939 39.816-88.939 88.92 0 33.686 18.744 62.996 46.386 78.084" class="B"/><path d="M755.014 330.027h44.164c10.742-7.135 17.821-19.351 17.821-33.216 0-22.026-17.859-39.881-39.888-39.881-22.041 0-39.9 17.855-39.9 39.881 0 13.865 7.088 26.081 17.821 33.216m136.926 0h71.748c17.447-11.624 28.96-31.447 28.96-53.979 0-35.806-29.035-64.825-64.838-64.825-35.815 0-64.84 29.018-64.84 64.825 0 22.532 11.496 42.372 28.951 53.979M208.23 612.689h98.705c32.028-17.496 53.756-51.466 53.756-90.527 0-56.926-46.169-103.074-103.108-103.074s-103.108 46.148-103.108 103.074c0 39.061 21.727 73.051 53.756 90.527" class="B"/><path d="M101.131 612.689h99.315c24.15-16.084 40.078-43.541 40.078-74.723 0-49.558-40.191-89.73-89.749-89.73-49.569 0-89.751 40.172-89.751 89.73 0 31.182 15.921 58.639 40.078 74.723m208.956 0h78.754c19.158-12.744 31.785-34.515 31.785-59.258 0-39.288-31.869-71.15-71.167-71.15-39.305 0-71.174 31.862-71.174 71.15 0 24.744 12.644 46.514 31.785 59.258M1179.787 0h-8.918l-76.562 52.645 1.91 12.414L1179.791.095zm40.513 0h-8.042l-6.154 55.864 11.591-4.867z" class="B"/><path d="M1280 15.308V0h-12.72l-124.065 99.553v35.656zM1151.448 0h-73.787v55.864h71.072z" class="B"/><path d="M1059.803 427.709h89.146V55.865h-71.07zM19.572 49.359l52.787 41.04 1.205-7.841-53.775-36.982zm136.944 11.276l-66.334 8.291 4.678 6.402 64.17-11.879zM128.954 0H124.7l-5.419 49.136 7.326-3.071zM0 77.941V97.29l42.655 37.4v-22.523z" class="B"/><path d="M174.705 9.96L74.525 92.403V76.731l94.034-70.856z" class="B"/><path d="M84.071 0H35.083l4.109 84.581h44.879z" class="B"/><path d="M95.351 319.401H39.041V84.582h44.889z" class="B"/></g><g class="F"><path d="M480.728 118.624c2.241 3.051 1.571 7.332-1.477 9.564l-6.92 5.055-8.108-11.041 6.929-5.075a6.81 6.81 0 0 1 9.556 1.479m-140.954 50.939a6.87 6.87 0 0 0 9.677-.554l5.707-6.4-10.226-9.103-5.714 6.409a6.86 6.86 0 0 0 .557 9.667" class="B"/><path d="M427.355 119.398c17.37 3.181 34.017-8.311 37.217-25.659 3.181-17.366-8.312-34.006-25.666-37.206-17.38-3.181-34.024 8.311-37.225 25.676-3.181 17.366 8.313 34.016 25.673 37.209" class="B"/></g><g stroke-width="1.193" class="C D E"><path d="M458.603 107.217a3.14 3.14 0 0 0 3.201-5.402m10.356 20.546c1.159.687 2.666.311 3.353-.846a2.45 2.45 0 0 0-.858-3.342" class="B"/><path d="M475.691 121.241c-1.449 1.292-1.591 3.511-.311 4.952 1.28 1.451 3.492 1.59 4.953.311m-24.873-15.757l-6.346-3.313" class="B"/></g><path d="M464.411 80.637c-2.022-9-7.917-17.074-16.813-21.546-15.76-7.925-34.995-1.59-42.932 14.175-1.393 2.749-2.316 5.6-2.851 8.491l62.596-1.101z" class="B"/><path d="M428.278 79.066c0-7.86-3.003-15.004-7.869-20.426-9.433 4.103-16.741 12.67-18.727 23.568-1.733 9.431.904 18.638 6.421 25.592 11.769-4.263 20.185-15.491 20.185-28.734m32.792 12.706c0 2.222-1.808 4.029-4.03 4.029s-4.03-1.807-4.03-4.029 1.808-4.029 4.03-4.029 4.03 1.807 4.03 4.029" class="B"/><path d="M366.415 203.901l-28.083 6.928-.583 18.937s29.628-1.704 36.265-5.335c4.82-2.636 8.925-6.901 12.868-11.221 2.637-2.53 5.095-5.205 7.353-7.952 6.242 6.653 12.55 16.142 12.494 16 3.36 8.65 14.319 28.879 18.941 34.854l15.977-6.665-12.54-39.577-17.878-32.37-36.029-4.838c-3.304 10.101-6.29 20.472-8.785 31.259" class="B G"/><path d="M420.089 146.722c20.59 5.299 47.788-5.742 54.896-15.409l-5.789-13.065c-18.001 10.082-34.111 11.089-45.258 8.725l-18.838-9.817c-39.531 3.85-63.049 39.712-63.049 39.712l8.802 10.691c23.207-20.689 34.928-23.869 34.928-23.869a480.95 480.95 0 0 0-7.937 21.12s-.017.077-.036.113l-2.608 7.701 36.029 4.836-.236-.412c4.538-10.788 7.353-21.395 9.096-30.336" class="B J"/><path d="M413.111 128.744c-3.256-1.93-4.321-6.128-2.372-9.376l4.396-7.378 11.769 7.012-4.396 7.378c-1.931 3.248-6.129 4.311-9.378 2.364" class="B F"/><path d="M338.332 210.828h-8.954l-.593 27.7s8.766-2.277 8.963-8.764zm87.105 44.833l4.047 7.99 24.986-12.019s-6.006-6.778-11.88-4.029l-17.153 8.058z" class="B"/><g class="F"><path d="M508.208 266.559c-3.398 4.641-2.41 11.183 2.241 14.58l10.554 7.737 12.333-16.821-10.564-7.737a10.45 10.45 0 0 0-14.584 2.241m214.947 77.653c-4.302 3.829-10.901 3.453-14.733-.848l-8.701-9.761 15.582-13.874 8.701 9.771a10.44 10.44 0 0 1-.848 14.73" class="B"/><path d="M590.522 268.01c-26.475 4.855-51.876-12.669-56.716-39.148-4.866-26.476 12.663-51.871 39.148-56.709 26.483-4.865 51.883 12.669 56.723 39.146 4.866 26.469-12.673 51.863-39.155 56.712" class="B"/><path d="M611.3 282.014c4.95-2.947 6.57-9.366 3.615-14.298l-6.712-11.238-17.927 10.674 6.703 11.248c2.948 4.952 9.359 6.571 14.321 3.614" class="B"/></g><g stroke-width="1.807" class="C D E"><path d="M542.893 249.466c-2.278 1.337-5.206.593-6.544-1.684s-.593-5.205 1.685-6.542m-16.758 31.032c-1.769 1.046-4.049.47-5.093-1.308a3.7 3.7 0 0 1 1.299-5.091" class="B"/><path d="M515.872 270.55c2.222 1.959 2.42 5.337.47 7.559a5.34 5.34 0 0 1-7.541.47m38.883-23.766l9.669-5.026" class="B"/></g><path d="M534.023 208.927c3.087-13.732 12.07-26.026 25.627-32.85 24.046-12.113 53.344-2.446 65.45 21.592 2.119 4.188 3.531 8.547 4.36 12.942l-95.427-1.704z" class="B"/><path d="M589.119 206.508c0-11.983 4.565-22.881 12.003-31.136 14.386 6.25 25.523 19.315 28.555 35.91 2.644 14.363-1.357 28.406-9.783 39.013-17.943-6.484-30.775-23.616-30.775-43.806m-50.001 19.409c0 3.397 2.748 6.147 6.146 6.147s6.148-2.749 6.148-6.147-2.75-6.147-6.148-6.147-6.146 2.749-6.146 6.147" class="B"/><path d="M682.493 396.582l42.809 10.561.885 28.876s-45.154-2.607-55.274-8.113c-7.38-4.01-13.612-10.542-19.628-17.113-4.039-3.867-7.758-7.935-11.234-12.132-9.508 10.137-17.218 17.498-17.406 17.385 2.135 25.611-4.642 38.874-8.624 60.719l-26.333-1.675-.764-69.398 27.247-49.348 54.934-7.4c5.037 15.4 9.576 31.23 13.408 47.676" fill="#34c3ff" class="B"/><path d="M600.671 309.423c-31.39 8.067-72.871-8.764-83.697-23.493l8.802-19.934c27.463 15.378 51.989 16.942 69 13.327l28.724-14.966c60.263 5.855 96.124 60.521 96.124 60.521l-13.424 16.303c-35.4-31.56-53.259-36.38-53.259-36.38 4.237 10.571 8.286 21.281 12.099 32.218 0 0 .036.113.046.161l3.965 11.747-54.934 7.397.357-.641c-6.919-16.443-11.202-32.613-13.839-46.242" class="B K"/><path d="M607.694 178.837l-73.02 28.539c-1.121 4.178-1.704 8.527-1.668 12.988l84.743-33.103a48.49 48.49 0 0 0-10.055-8.405" class="B J"/><path d="M602.204 161.15c0-7.229-5.854-13.084-13.085-13.084s-13.087 5.855-13.087 13.084 5.857 13.084 13.087 13.084 13.085-5.855 13.085-13.084m-14.536 313.902c6.543-.79 26.343 1.687 26.343 1.687v15.067h-43.149s3.051-15.067 16.806-16.754zm137.689-41.565c-1.535-6.419-1.299-26.363-1.299-26.363l14.96-1.704 4.866 42.873s-15.307-1.347-18.546-14.824z" class="B"/><path d="M1084.27 509.766c-6.544-2.072-10.178-9.065-8.096-15.616l4.717-14.872 23.713 7.52-4.717 14.872a12.45 12.45 0 0 1-15.618 8.096" class="B F"/><g class="J"><path d="M1214.078 383.63c11.186 60.757 50.464 120.789-53.286 204.917-14.81 12-52.845 57.849-52.845 57.849l-22.858-21.922 32.064-58.902s13.446-50.329 12.993-52.55l-4.066-21.978c.959-15.559 8.067-45.519 9.819-45.697-8.445 6.778-16.618 21.178-31.276 41.529l-23.716-7.617s27.247-95.506 91.106-100.561c25.646-2.024 33.045.923 42.083 4.913" class="B"/><path d="M1120.659 491.063c-6.112 19.322 8.896 38.637 21.906 50.384 21.711 19.568 49.709 25.715 51.905 31.587l29.732 77.53h28.922l-9.397-95.602-35.106-74.366-74.189-35.088-13.791 45.575zM1280 480.885v-31.767c-45.194-19.915-65.921-65.489-65.921-65.489h-10.122l4.914 56.146c9.29 28.113 66.598 40.194 71.129 41.11z" class="B"/></g><g class="F"><path d="M1212.328 372.421c29.259-1.807 51.526-26.997 49.719-56.259-1.808-29.255-26.984-51.524-56.262-49.717-29.271 1.807-51.536 26.985-49.728 56.259 1.808 29.262 27.001 51.524 56.272 49.717" class="B"/><path d="M1190.664 389.305l-2.258-.687a13.19 13.19 0 0 1-8.785-16.433l5.575-18.334 27.471 8.33-5.563 18.344c-2.119 6.956-9.472 10.889-16.44 8.78" class="B"/></g><path d="M1257.839 340.323c2.748.839 5.657-.733 6.486-3.482.839-2.749-.735-5.658-3.483-6.484m-21.221 7.916c0 7.058 5.724 12.809 12.812 12.809" class="B C D E" stroke-width="1.97"/><path d="M1256.595 295.134c-6.874-13.722-19.602-24.368-35.718-28.028-28.603-6.515-57.053 11.397-63.558 39.992-1.14 4.981-1.48 9.949-1.215 14.816l100.472-26.797z" class="B"/><path d="M1197.696 307.023c-3.143-12.669-10.826-23.004-20.853-29.78-13.576 10.39-21.908 27.124-20.787 45.461.969 15.889 8.889 29.676 20.571 38.712 17.257-11.568 26.352-33.057 21.07-54.374m57.956 7.369a6.69 6.69 0 0 1-4.885 8.096c-3.577.884-7.211-1.299-8.096-4.877a6.69 6.69 0 0 1 4.885-8.094c3.577-.884 7.211 1.299 8.096 4.875m-31.452 336.153v17.544h43.146s-3.777-17.544-14.225-17.544H1224.2zm-115.868-4.356l-23.224-21.734-12.241 12.245 34.383 33.838s9.122-16.951 1.082-24.349z" class="B"/><path d="M812.715 495.76h162.798V644.22H812.715z" class="B G"/><path d="M957.362 474.582c5.064 33.688-18.153 65.078-51.828 70.14-33.696 5.055-65.093-18.146-70.149-51.813-5.064-33.688 18.144-65.078 51.818-70.142 33.696-5.055 65.093 18.146 70.159 51.815" fill="#f6c" class="B"/><g class="F"><path d="M740.469 720h47.87c26.097-35.418 38.207-45.613 38.207-45.613L824.212 720h92.096c4.408-72.135-7.753-130.427-7.753-130.427l-.018.021c.434-5.949-24.347-8.763-50.218-1.61-21.105 5.845-82.512 70.87-117.851 132.015z" class="B"/><path d="M938.698 720h63.044c-71.771-37.245-93.183-130.315-93.201-130.392l-11.697-1.299-16.145 75.753c13.98 21.126 36.539 40.51 57.999 55.938z" class="B"/></g><path d="M882.363 437.14c-9.978 27.869-36.839 48.521-69.282 51.524-.234 2.342-.366 4.716-.366 7.096 0 41.951 36.547 75.959 81.634 75.959 45.077 0 81.634-34.009 81.634-75.959 0-2.74-.169-5.441-.47-8.113-5.083.923-10.347 1.431-15.714 1.431-36.058 0-66.626-21.763-77.435-51.938" class="B H"/><path d="M894.349 419.812c-42.515 0-77.426 30.23-81.268 68.851 32.443-3.002 59.304-23.655 69.282-51.524 10.809 30.175 41.377 51.938 77.435 51.938 5.367 0 10.631-.489 15.714-1.431-4.36-38.129-39.032-67.834-81.164-67.834" class="B G"/><path d="M890.536 614.874l-8.284-.576c-8.889-.639-15.62-8.347-14.979-17.262l4.538-64.275 40.5 2.851-4.538 64.278c-.629 8.894-8.349 15.614-17.257 14.985" class="B H"/><path d="M871.857 502.02a7.92 7.92 0 0 1-7.917 7.915c-4.37 0-7.917-3.549-7.917-7.915 0-4.378 3.548-7.915 7.917-7.915a7.91 7.91 0 0 1 7.917 7.915m52.554 0c0 4.366-3.55 7.915-7.917 7.915a7.92 7.92 0 0 1-7.92-7.915 7.91 7.91 0 0 1 7.92-7.915c4.367 0 7.917 3.537 7.917 7.915" class="B"/><g class="C D L"><path d="M934.569 498.405c0 9.976-8.098 18.072-18.076 18.072s-18.076-8.096-18.076-18.072 8.096-18.072 18.076-18.072 18.076 8.094 18.076 18.072m-52.553 0c0 9.976-8.096 18.072-18.076 18.072a18.09 18.09 0 0 1-18.076-18.072c0-9.978 8.105-18.072 18.076-18.072 9.98 0 18.076 8.094 18.076 18.072" class="B" stroke="#7c2869"/><path d="M878.165 527.122c0 8.074 6.563 14.636 14.649 14.636 8.079 0 14.642-6.561 14.642-14.636m-17.72-6.004a6.18 6.18 0 0 0 6.168-6.166 6.17 6.17 0 0 0-6.168-6.156" class="B E"/><path d="M898.434 498.331c0-4.537-3.671-8.209-8.209-8.209s-8.209 3.672-8.209 8.209" stroke="#7c2869" class="B"/></g><path d="M1035.126 0h-25.282l82.945 68.26V43.446z" class="B G"/><path d="M28.111 616.134c3.483 6.655 11.711 9.205 18.358 5.694l15.102-7.935-12.673-24.067-15.102 7.935c-6.645 3.482-9.197 11.71-5.686 18.363m245.129 43.373c7.098-2.465 10.865-10.192 8.407-17.298l-5.572-16.106-25.702 8.894 5.563 16.106c2.458 7.096 10.197 10.862 17.305 8.405" class="B H"/><g class="C D E M"><path d="M42.261 604.086c.217 2.655-1.769 5.007-4.425 5.224-2.663.217-4.989-1.769-5.206-4.434" class="B"/><path d="M37.178 609.433a6.96 6.96 0 0 1 9.113 3.764c1.487 3.559-.198 7.624-3.757 9.103" class="B"/></g><g fill="#a184dc"><path d="M139.946 487.608s-24.75 81.041-91.453 102.096l13.003 24.286s67.183-27.703 96.377-65.69l-8.568-61.049-9.359.376z" class="B"/><path d="M139.946 487.608c0-4.735 19.828-5.581 39.965 1.545 19.358 6.862 78.575 82.113 97.121 137.74l-26.152 9.392c-34.279-60.972-50.577-76.747-50.577-76.747l-.998 50.798-73.386-.142c-2.805-66.357 14.046-122.567 14.046-122.567" class="B"/></g><path d="M91.396 458.573c4.114-2.166 6.806-5.988 7.691-10.214a13.25 13.25 0 0 0 .311-2.87 16.11 16.11 0 0 0-.253-2.908 15.17 15.17 0 0 0-1.48-4.265c-3.849-7.323-12.926-10.137-20.269-6.287-11.381 8.706-15.994 17.959-19.667 27.286 9.764 2.26 19.997 3.699 33.648-.761" class="B"/><g class="K"><path d="M153.456 720h53.875l-9.815-18.202v-.021l1.772-91.478c-7.373 25.941-33.302 72.07-52.781 94.831l.632 1.497A245.88 245.88 0 0 0 153.456 720z" class="B"/><path d="M71.506 720h61.833c3.79-4.135 8.155-8.98 13.197-14.87-13.068-30.76-18.489-63.958-19.788-94.972h-.83l-47.721 89.201h.018z" class="B"/></g><g class="H"><path d="M157.911 508.701c8.934 0 16.165-7.229 16.165-16.151v-47.984h-32.322v47.984c0 8.923 7.23 16.151 16.158 16.151" class="B"/><path d="M230.215 399.546c0 40.088-32.501 72.598-72.615 72.598-40.107 0-72.605-32.491-72.605-72.598 0-40.095 32.498-72.588 72.606-72.588 40.114 0 72.615 32.493 72.615 72.588" class="B"/></g><path d="M197.498 610.318h1.808c-.056 3.944-.781 8.207-2.061 12.689-7.373 25.912-31.238 59.381-50.717 82.132-13.077-30.751-18.481-63.947-19.78-94.963z" class="B K"/><path d="M143.506 411.095a6.93 6.93 0 0 0 6.919 6.928 6.95 6.95 0 0 0 6.929-6.928 6.94 6.94 0 0 0-6.929-6.918 6.93 6.93 0 0 0-6.919 6.918m-46.01 0c0 3.831 3.116 6.928 6.929 6.928a6.94 6.94 0 0 0 6.919-6.928c0-3.812-3.107-6.918-6.919-6.918a6.94 6.94 0 0 0-6.929 6.918" class="B"/><path d="M137.97 433.072a12.81 12.81 0 0 1-12.812 12.812c-7.071 0-12.815-5.742-12.815-12.812m15.506-5.241c-2.984 0-5.384-2.419-5.384-5.385s2.417-5.383 5.384-5.383" class="B C D E M"/><path d="M157.617 326.957c-38.222 0-69.535 29.546-72.369 67.046h89.043v-13.845h1.121c3.249 23.51 21.597 43.061 46.272 46.77 1.007.14 2.024.272 3.022.357a72.34 72.34 0 0 0 5.51-27.739c0-40.076-32.501-72.588-72.615-72.588" class="B"/><path d="M244.279 419.21a14.95 14.95 0 0 0-12.783-.492c-.885.388-1.733.839-2.523 1.376-.8.545-1.555 1.157-2.241 1.863-1.034 1.046-1.938 2.279-2.663 3.653-3.813 7.352-.952 16.404 6.401 20.216 13.67 4.378 23.875 2.901 33.638.586-3.719-9.311-8.37-18.525-19.809-27.185" class="B"/></svg>