<svg xmlns="http://www.w3.org/2000/svg" width="1280" height="720" xmlns:v="https://vecta.io/nano"><defs><clipPath ><path d="M0 0h708.12v398.41H0z" fill="none" stroke-width="0"/></clipPath><clipPath ><path d="M329.04 154.55c-9.4 2-22.98 1.14-38.17-7.37L286 158.21c5.98 8.16 28.93 17.46 46.29 13h0c1.46 7.54 3.83 16.5 7.66 25.59l-.2.35 30.39-4.09-2.19-6.5c-.01-.03-.02-.06-.03-.1h0c-2.11-6.05-4.35-11.98-6.69-17.83 0 0 9.88 2.67 29.46 20.13l7.42-9.02s-19.84-30.25-53.18-33.49l-15.89 8.28z" fill="none" stroke-width="0"/></clipPath><linearGradient id="C" gradientTransform="matrix(0,763.16996,762.53251,0,-752924.55,-1004797.2)" x1="1317.442" y1="988.242" x2="1316.696" y2="988.242" gradientUnits="userSpaceOnUse" spreadMethod="pad"><stop offset="0" stop-color="#f6a227"/><stop offset="1" stop-color="#ffc93c"/></linearGradient><clipPath id="D"><path d="M0 0h532v299H0z"/></clipPath><clipPath id="E"><path d="M0 0h532v299H0z"/></clipPath><clipPath id="F"><path d="M0 0h532v299H0z"/></clipPath><clipPath id="G"><path d="M0 0h532v299H0z"/></clipPath></defs><path d="M0 0h1280v720H0z" clip-path="none" fill="url(#C)"/><g transform="matrix(2.642971 0 0 2.645181 270.0328 -109.9852)"><path d="M198.066 194.438c0 26.101 30.219 47.257 67.485 47.257s67.488-21.156 67.488-47.257v-16.762H198.066z" clip-path="url(#D)" fill="#33c2ff"/><path d="M333.039 177.676c0 26.097-30.219 47.258-67.488 47.258s-67.485-21.161-67.485-47.258 30.219-47.258 67.485-47.258 67.488 21.156 67.488 47.258" clip-path="url(#E)" fill="#1f5c94"/><path d="M206.781 174.594c0 22.73 26.313 41.152 58.77 41.152s58.765-18.43 58.765-41.152v-19.563H206.781z" clip-path="url(#F)" fill="#ffc93d"/><path d="M324.316 155.031c0 22.735-26.312 41.153-58.769 41.153s-58.766-18.426-58.766-41.153 26.313-41.152 58.766-41.152 58.769 18.43 58.769 41.152" clip-path="url(#G)" fill="#ff7a54"/></g><path d="M1035.963 309.904h-53.537v54.291h-21.364v-54.291h-53.285V290.55h53.285v-54.542h21.364v54.542h53.537z" fill="#fff"/><rect width="555.321" height="342.374" x="129.755" y="188.813" ry="52.593" fill="#002752"/><path d="M192.644 453.797c.091-.663 4.371-5.244 9.512-10.18l9.347-8.973h36.094 36.094l7.512 9.052c4.131 4.979 7.129 9.56 6.661 10.18-1.151 1.525-105.429 1.447-105.221-.079zm303.387.196c-.48-.556 3.781-5.137 9.469-10.18l10.341-9.17h35.713 35.713l7.834 9.169c4.309 5.043 7.317 9.624 6.686 10.18-1.501 1.32-104.618 1.32-105.758 0zm-303.067-44.32l5.936-42.652 5.643-4.214 5.643-4.214 4.969 5.6 4.969 5.6-4.086 29.89-4.087 29.89-12.462 11.377-12.462 11.377zm101.433 31.155l-8.464-9.893 4.243-31.034 4.243-31.034 6.047-4.922c3.326-2.707 6.451-4.923 6.945-4.923s2.414 1.846 4.267 4.103l3.37 4.103-6.094 41.747-6.094 41.747zm202.385-31.031c5.941-43.453 5.718-42.641 13.265-48.27 3.249-2.423 3.549-2.348 8.083 2.038l4.709 4.554-4.304 31.484-4.304 31.484-11.561 10.102-11.561 10.102zm-51.806 30.261l-7.799-9.128 4.255-31.124 4.255-31.124 5.913-4.813c6.062-4.934 6.714-4.931 11.765.052 2.932 2.893 2.927 2.963-2.694 44.082-3.097 22.651-6.14 41.184-6.763 41.184s-4.642-4.108-8.932-9.128zm77.6-78.56c-2.196-2.638-3.902-5.46-3.791-6.272s2.278-3.235 4.815-5.384l4.613-3.908h35.641 35.641l3.35 4.079c1.842 2.243 3.252 4.793 3.133 5.666s-2.808 3.619-5.975 6.101l-5.757 4.513h-33.839-33.839zm-316.724-13.987l-3.959-4.24 6.071-41.578 6.071-41.578 9.13 10.338 9.13 10.338-4.115 30.096-4.115 30.096-6.251 5.385c-3.438 2.962-6.645 5.385-7.126 5.385s-2.657-1.908-4.835-4.24zm96.211-.555l-3.993-4.796 4.271-31.239 4.271-31.239 10.365-9.047c5.701-4.976 10.838-9.047 11.417-9.047s-1.481 18.528-4.577 41.174l-5.629 41.174-4.613 3.908c-2.537 2.149-5.267 3.908-6.066 3.908s-3.249-2.158-5.445-4.796zm151.243 0l-3.993-4.796 4.271-31.239 4.271-31.239 10.365-9.047c5.701-4.976 10.838-9.047 11.417-9.047s-1.481 18.528-4.577 41.174l-5.629 41.174-4.613 3.908c-2.537 2.149-5.267 3.908-6.066 3.908s-3.249-2.158-5.445-4.796zm152.697 0l-3.992-4.796 4.271-31.239 4.271-31.239 10.365-9.047c5.701-4.976 10.838-9.047 11.417-9.047s-1.485 18.556-4.586 41.235l-5.638 41.235-5.169 3.847c-2.843 2.116-5.569 3.846-6.058 3.846s-2.685-2.158-4.881-4.796zm-379.878-80.217l-8.803-9.392 54.825-.061 54.825-.061-11.025 9.437-11.025 9.437-34.997.016-34.997.016zm303.313-.061l-8.076-9.453h54.451 54.451l-10.661 9.453-10.661 9.453h-35.713-35.713z" fill="#ff7a54"/></svg>