<svg xmlns="http://www.w3.org/2000/svg" width="1280" height="720" xmlns:v="https://vecta.io/nano"><style><![CDATA[.B{clip-path:none}.C{fill:#ffc93c}.D{fill:#7c2869}.E{fill:#34c3ff}.F{fill:#ff7a54}.G{fill:#2e2e2e}.H{fill:#d98d58}.I{fill:#a184dc}]]></style><defs><clipPath ><path d="M0 0h708.12v398.41H0z" fill="none" stroke-width="0"/></clipPath><clipPath ><path d="M329.04 154.55c-9.4 2-22.98 1.14-38.17-7.37L286 158.21c5.98 8.16 28.93 17.46 46.29 13h0c1.46 7.54 3.83 16.5 7.66 25.59l-.2.35 30.39-4.09-2.19-6.5c-.01-.03-.02-.06-.03-.1h0c-2.11-6.05-4.35-11.98-6.69-17.83 0 0 9.88 2.67 29.46 20.13l7.42-9.02s-19.84-30.25-53.18-33.49l-15.89 8.28z" fill="none" stroke-width="0"/></clipPath><linearGradient id="C" x1="638.349" y1="733.525" x2="638.349" y2="-21.817" gradientUnits="userSpaceOnUse" spreadMethod="pad"><stop offset="0" stop-color="#1ead28"/><stop offset="1" stop-color="#248029"/></linearGradient></defs><path d="M0 0h1280v720H0z" fill="url(#C)"/><path d="M0 590.269h1280V720H0z" fill="#bc9353" class="B"/><path d="M1157.419 476.423H352.575v58.086h804.844z" class="B"/><path d="M1075.503 592.269c26.751 0 48.437-21.66 48.437-48.377s-21.686-48.375-48.437-48.375-48.437 21.658-48.437 48.375 21.686 48.377 48.437 48.377z" class="B D"/><path d="M1075.503 513.919c-14.41-.312-27.939 11.332-29.733 25.648-1.946 12.841 5.364 26.55 17.385 31.678 11.279 5.109 25.655 2.537 34.093-6.65 8.492-8.861 10.875-23.112 5.144-34.069-4.97-9.941-15.7-16.811-26.889-16.606zm4.113 3.284a27.06 27.06 0 0 1 16.397 9.126l-10.402 6.415c-2.026-2.434-7.392-2.418-6.008-6.923l.012-8.618zm-8.226 0v12.212c-3.143.431-5.968 4.976-9.071 1.44-2.027-1.703-6.421-3.047-6.945-4.979a27.06 27.06 0 0 1 16.015-8.674zm-20.827 37.157c-2.829-6.642-2.798-14.433.052-21.063l10.398 6.413c-1.792 3.233 1.806 8.598-3.104 10.118l-7.346 4.532zm20.827 16.221c-6.37-.958-12.349-4.302-16.499-9.228l10.384-6.409c1.442 2.471 6.406 1.937 6.111 5.491v10.145zm-2.703-26.689c-.326-5.224 6.641-8.856 10.752-5.607 4.195 2.737 3.607 10.089-1.178 11.882-4.198 1.897-9.9-1.487-9.574-6.275zm10.929 26.689v-12.212c3.188-.399 6.011-5.103 9.169-1.537 2.023 1.704 6.422 3.042 6.935 4.979a27.08 27.08 0 0 1-16.105 8.77zm10.4-22.644c1.764-3.24-1.896-8.589 3.022-10.115 2.435-1 5.684-4.524 7.596-3.9 2.599 6.49 2.523 14.002-.208 20.438l-10.41-6.423z" class="B C"/><path d="M412.817 592.269c26.751 0 48.437-21.66 48.437-48.377s-21.686-48.375-48.437-48.375-48.437 21.658-48.437 48.375 21.686 48.377 48.437 48.377z" class="B D"/><path d="M412.817 513.919c-14.836-.353-28.678 12.061-29.887 26.867-1.487 13.284 6.962 27.064 19.717 31.335 12.171 4.47 27.064.091 34.496-10.643 7.689-10.409 7.603-25.909-.642-35.991-5.581-7.189-14.551-11.696-23.684-11.569zm4.113 3.284a27.06 27.06 0 0 1 16.397 9.126c-3.791 1.258-6.187 5.448-10.344 5.731-2.381-.795-5.751-1.618-6.077-4.673-.387-3.2.401-6.417.023-9.622l.001-.562zm-8.226 0v12.212c-2.823 1.026-5.886 3.887-8.935 1.906-1.864-2.155-5.131-2.59-6.699-5.041.288-2.965 4.278-4.072 6.401-5.867 2.849-1.618 5.992-2.723 9.233-3.212zm-20.827 37.157c-2.829-6.642-2.798-14.433.052-21.063 2.822 2.768 7.565 3.082 9.682 6.613.444 2.456.465 5.114-.01 7.582-1.038 3.091-4.814 3.181-6.997 5.185l-2.728 1.683zm20.827 16.221c-6.37-.958-12.349-4.301-16.499-9.228 3.795-1.255 6.191-5.478 10.36-5.721 2.519.898 6.28 1.845 6.266 5.238-.245 3.222-.1 6.482-.128 9.711zm-2.703-26.689c-.437-5.756 7.966-9.213 11.697-4.799 4.089 3.688 1.119 11.684-4.45 11.605-3.768.22-7.425-2.928-7.247-6.806zm10.929 26.689v-12.212c2.804-.951 5.604-3.782 8.703-2.213 1.857 1.865 4.441 2.694 6.425 4.413 2.12 3.056-3.291 4.493-5.023 6.285-3.075 1.899-6.529 3.188-10.105 3.728zm10.4-22.644c1.438-3.029-.938-6.91 1.596-9.518 2.33-1.016 4.474-2.383 6.543-3.895 4.022-2.441 3.56 4.082 4.218 6.432.488 4.536-.165 9.2-1.948 13.404l-10.41-6.423z" class="B C"/><path d="M216.647 237.379c-15.082 0-27.38 12.27-27.383 27.348v248.981.018c0 6.698 4.81 12.467 11.402 13.684l75.07 13.881h83.397v-.02c0-24.129 19.282-53.109 53.178-53.109 36.074 0 53.176 31.615 53.176 53.129h319.904v7.914h167.293v-7.914h69.133v-.02h0c0-28.711 23.345-53.109 53.178-53.109 35.087 0 53.171 30.321 53.171 53.129h54.189c7.385 0 13.523-5.954 13.561-13.471 0-.034.01-.066.01-.1v-260.34h7.627v74.588c0 12.259 18.908 12.442 18.908 0v-77.305c0-6.616-6.182-9.602-9.48-9.602h-18.896c-4.286-11.293-14.763-17.682-25.543-17.682z" fill="#1e5c93" class="B"/><g transform="translate(3684.199 -4142.658)"><path d="M-3205.991 4408.778h-256.732a8.86 8.86 0 0 0-8.863 8.85v115.988a8.86 8.86 0 0 0 8.863 8.852h256.732a8.86 8.86 0 0 0 8.862-8.852v-115.988a8.86 8.86 0 0 0-8.862-8.85z" class="B E"/><path d="M-3205.991 4542.468h-256.731c-6.101 0-11.079-4.962-11.079-11.065v-115.988c0-6.098 4.974-11.065 11.079-11.065h256.731c6.111 0 11.081 4.973 11.081 11.065v115.988c0 6.095-4.972 11.065-11.081 11.065zm-256.731-133.691c-3.667 0-6.647 2.984-6.647 6.638v115.988c0 3.659 2.984 6.638 6.647 6.638h256.731c3.664 0 6.648-2.979 6.648-6.638v-115.988c0-3.655-2.981-6.638-6.648-6.638z" class="B C"/></g><g transform="translate(3634.199 -4142.658)"><path d="M-2861.253 4408.778h-256.73a8.86 8.86 0 0 0-8.864 8.85v115.988a8.86 8.86 0 0 0 8.864 8.852h256.73a8.86 8.86 0 0 0 8.864-8.852v-115.988a8.86 8.86 0 0 0-8.864-8.85z" class="B E"/><path d="M-2861.252 4542.468h-256.732c-6.097 0-11.079-4.957-11.079-11.065v-115.988c0-6.103 4.978-11.065 11.079-11.065h256.732c6.106 0 11.079 4.971 11.079 11.065v115.988c0 6.098-4.977 11.065-11.079 11.065zm-256.732-133.691c-3.669 0-6.648 2.987-6.648 6.638v115.988c0 3.655 2.983 6.638 6.648 6.638h256.732c3.663 0 6.646-2.981 6.646-6.638v-115.988c0-3.653-2.979-6.638-6.646-6.638z" class="B C"/></g><g transform="translate(3644.199 -4142.658)"><path d="M-2714.482 4406.566h-118.765c-4.884 0-8.862 3.973-8.862 8.85v258.531h136.492v-258.531c0-4.87-3.973-8.85-8.864-8.85z" class="B E"/><g class="C"><path d="M-2770.323 4406.566h-7.311v267.381h7.311z" class="B"/><path d="M-2703.401 4673.947h-140.924v-258.621c0-2.911 1.168-5.701 3.246-7.76a11.13 11.13 0 0 1 7.832-3.214h118.765c2.939 0 5.758 1.156 7.834 3.214s3.246 4.849 3.246 7.76zm-136.492-4.39h132.059v-254.231c0-1.747-.701-3.42-1.947-4.655a6.68 6.68 0 0 0-4.702-1.929h-118.765c-1.763 0-3.452.693-4.7 1.929s-1.947 2.909-1.947 4.655z" class="B"/></g></g><g transform="translate(3654.199 -4142.658)"><path d="M-2591.778 4406.566h-94.48a8.86 8.86 0 0 0-8.862 8.85v115.988a8.86 8.86 0 0 0 8.862 8.852h94.48a8.86 8.86 0 0 0 8.864-8.852v-115.988a8.86 8.86 0 0 0-8.864-8.85z" class="B E"/><path d="M-2591.994 4542.468h-94.48a11.09 11.09 0 0 1-7.834-3.24 11.06 11.06 0 0 1-3.244-7.824v-115.988c0-2.935 1.168-5.748 3.244-7.824a11.09 11.09 0 0 1 7.834-3.24h94.48c2.939 0 5.758 1.166 7.834 3.24a11.06 11.06 0 0 1 3.246 7.824v115.988c0 2.935-1.168 5.75-3.246 7.824s-4.895 3.24-7.834 3.24zm-94.48-133.691c-1.763 0-3.454.699-4.7 1.945a6.63 6.63 0 0 0-1.947 4.694v115.988c0 1.761.699 3.45 1.947 4.694s2.937 1.945 4.7 1.945h94.48c1.763 0 3.454-.699 4.702-1.945s1.947-2.933 1.947-4.694v-115.988c0-1.761-.701-3.448-1.947-4.694s-2.939-1.945-4.702-1.945z" class="B C"/></g><g transform="translate(3664.199 -4142.658)"><path d="M-2564.001 4406.567h64.373c2.352 0 4.606.932 6.267 2.592s2.597 3.911 2.597 6.259v124.84h-22.983c-15.678 0-30.714-6.221-41.8-17.294s-17.316-26.09-17.316-41.748v-65.798a8.84 8.84 0 0 1 .675-3.386c.445-1.074 1.098-2.05 1.921-2.873s1.801-1.474 2.877-1.919a8.86 8.86 0 0 1 3.39-.673z" class="B E"/><path d="M-2493.309 4542.469h-20.428c-33.816 0-61.328-27.476-61.328-61.25v-65.802c0-6.093 4.969-11.065 11.078-11.065h64.373c6.11 0 11.079 4.971 11.079 11.065v122.299c0 2.629-2.152 4.762-4.774 4.754zm-70.691-133.691c-3.666 0-6.646 2.985-6.646 6.638v65.802c.042 31.332 25.583 56.799 56.91 56.824h20.442c.178 0 .328-.143.328-.328v-122.299c0-3.66-2.984-6.638-6.646-6.638z" class="B C"/></g><g transform="translate(3026.452 -4235.61)"><path d="M-2564.926 4587.925c-10.625-.531-11.623 12.147-16.171 18.755-6.647 5.724-1.384 11.864 5.752 12.502 7.341 1.095 14.914 6.399 22.11 2.012 9.37-4.354 1.812-14.661 3.88-22.225-.662-7.02-9.208-11.236-15.571-11.044z" class="B"/><path d="M-2564.321 4595.688l-1.582.051c-8.876.509-7.062 6.322-7.062 14.961 0 1.275.307 2.354.824 3.271.025 7.3-1.902 12.091-3.293 13.205-1.312.152-6.909.853-10.357 2.293-1.306.539-2.289 1.187-2.635 1.947-2.885 6.333-5.767 22.321-7.793 33.723-1.106 6.355-1.992 11.286-2.436 12.334-1.232 2.873-4.969 18.495-8.203 26.525-.371.827-1.387 2.819-2.437 3.484-1.32.831-3.177 2.87-2.832 4.469s.691 4.098 2.361 4.098 5.585-7.359 6.055-8.748.887-1.67.887-1.67 13.768-22.83 15.023-28.77c.407-1.929 1.406-5.796 2.576-10.135l.541-1.992c2.06 5.586 3.117 8.174 3.059 10.588-.08 3.438-2.416 6.528-7.291 17.447-2.693 6.035 46.366 20.577 39.146-2.482-1.914-6.112-2.722-10.9-2.926-14.898 9.887-2.192 21.299-11.305 21.299-11.305s2.989-1.422 5.129-3.168c.01.013.018.025.027.037l.02-.074c.521-.429.991-.875 1.35-1.326 1.835-2.306.633-6.765 0-7.082-.334-.169-1.272 0-2.305.31-.232.03-.48.097-.74.215-.062.028-.119.06-.176.092-.627.228-1.238.484-1.717.736-1.509.797-3.502 6.685-3.662 7.082-3.821 2.542-17.363 4.932-17.363 4.932.948-3.063 1.674-5.892 2.215-8.504 3.655-17.743-1.235-25.422-2.658-27.193-.114-.154-.237-.302-.371-.441l-.121.357c-.178.509-.537 1.538-.98 2.949l-1.316 4.186c-2.538-5.306-5.256-9.143-5.256-9.143l-1.199-.117c-.589-.31-.74-2.764-.74-5.354 0-1.268.055-2.47.104-3.564 1.265.107 2.107.096 2.107.096 3.616-.279 5.168-14.805 4.463-17.695-.661-2.71-2.226-5.772-9.732-5.725z" class="B H"/><path d="M-2617.561 4711.375c.365-1.166.615-2.364.745-3.58 7.648 3.342 16.01 1.913 16.01 1.913.719 2.943.09 7.038.09 7.038-8.603 2.31-18.138-2.745-18.138-2.745a20.94 20.94 0 0 0 1.294-2.625z" class="B F"/><path d="M-2587.126 4690.242c-2.631 4.426-3.779 11.663-4.049 19.918-.687 20.801 4.205 47.901 4.936 51.824a1.42 1.42 0 0 1-.168.885c-5.225 10.25-5.978 22.023-5 32.49 1.485 15.814 8.018 26.037 8.018 26.037l2.189 1.594s2.073-11.14 3.545-24.395l.443-3.658.608 2.633c2.136 8.443 5.072 16.668 8.766 24.557l4.588-.318s-2.253-10.685-2.125-25.121c.094-10.092 1.329-22.02 5.318-33.41 13.738-39.137 11.521-67.619 11.521-67.619l-12.742 1.488.299-5.613z" class="B I"/><path d="M-2578.113 4627.539s-6.424.702-9.57 2.986l.035.039a2.67 2.67 0 0 0-.83.887c-3.354 6.381-6.705 22.479-9.062 33.965 5.712 3.142 10.705 2.212 12.25 1.793-1.256 8.252-3.522 16.891-5.117 23.684l-.865 3.834c0 .011 0 .02-.01.031a67.75 67.75 0 0 0-.609 3.226c0 .01 0 .018-.01.025a32.92 32.92 0 0 0-.195 1.402c-.051.438-.087.846-.106 1.223-.066.7-.019 1.406.164 2.086.555 1.771 2.468 2.546 7.09 2.068 2.827-.293 4.086-5.02 4.648-9.057 1.693 5.772 4.072 9.003 7.139 9.693 4.48.992 27.081 3.735 28.563-6.994 1.625-11.799-3.244-32.699-3.514-43.963a55.79 55.79 0 0 0 .818-10.441c-.186-8.028-2.543-12.523-4.359-14.334-.513-.393-1.029-.643-3.104-.996-1.054-.178-2.512-.385-4.582-.654-.273-.036-.549-.06-.824-.066.381.681 5.501 8.41 5.102 10.414-.417 2.084-18.574.207-19.822-.939s-3.236-9.922-3.236-9.922z" class="B D"/><path d="M-2591.407 4795.357c1.485 15.814 8.018 26.038 8.018 26.038l2.214 2.032s2.034-11.578 3.502-24.834c-1.533.088-8.349.335-13.734-3.236zm14.802 2.214a137.43 137.43 0 0 0 8.765 24.555l4.588-.319s-2.252-10.683-2.124-25.122c-1.551.771-4.764 1.567-11.228.886z" class="B" fill="#d9935c"/><path d="M-2579.871 4815.36c-.116 0-.651.164-2.982 2.133-1.206 1.014-3.262-1.434-3.262-1.434a2.93 2.93 0 0 0-.674.908c.01.02 0 .02 0 .026a3.1 3.1 0 0 0-.266 1.908c.185 1.115-.407 3.181-.881 4.584l-.547 1.461a.24.24 0 0 0 .01.051c0 .018.01.036.016.062.01.018.018.037.029.059.105.198.484.549 1.891.779l.439.062h2.928c.49-.076.917-.186 1.346-.293l1.363-.274a4.2 4.2 0 0 1 .773-.033c.077 0 .148.011.219.019l.201.031.186.041c.118.03.223.066.318.104s.181.077.256.117.138.082.193.119c.109.074.182.137.221.168l.025.029h0 12.434c.019-.027.038-.056.053-.088a.62.62 0 0 0 .037-.102c.021-.073.034-.152.039-.238v-.057l.66-.109c1.529-.2 2.215.443 2.369.566l.029.029h12.438a.58.58 0 0 0 .051-.088h0a.62.62 0 0 0 .037-.102c.021-.072.034-.153.039-.238.01-.086 0-.176-.01-.271l-.039-.299-.068-.31h0l-.09-.316-.207-.609h0 0c-.098-.255-.254-.483-.455-.666a1.76 1.76 0 0 0-.709-.393c-1.328-.385-3.917-.723-6.297-2.877-1.33-1.21-6.469-4.426-6.469-4.426h-.016l.016-.02h-.029c-.11 0-.646.164-2.982 2.133-1.204 1.014-3.26-1.434-3.26-1.434a2.93 2.93 0 0 0-.674.908c.01.02 0 .02 0 .026a3.1 3.1 0 0 0-.266 1.908c.092.556-.01 1.35-.191 2.18-.582-.336-1.172-.748-1.75-1.271-1.33-1.21-6.469-4.426-6.469-4.426h-.016l.014-.02z" class="B"/></g><g transform="translate(3648.654 -3966.962)"><path d="M-3577.66 4533.744c-12.648 1.838-5.927 18.911 2.5 22.212 6.928 3.731 10.829-2.998 3.446-6.365-4.647-4.318 4.395-15.269-5.946-15.846zm58.043 9.707c-9.736-.456-8.866 17.253 1.426 13.01h18.752c-7.126-3.561-14.864-7.26-19.779-12.924z" class="B G"/><path d="M-3549.429 4402.155c-1.593 22.583-3.954 46.453-17.472 65.461-9.82 19.334-10.655 41.4-15.17 62.236 1.891 13.492 19.151 6.023 18.412-4.659 9.063-15.673 18.016-31.452 25.488-47.961.978 22.732 4.125 45.419 10.112 67.389 12.242 9.767 18.084-11.539 15.052-20.544l8.557-112.933c-15.476.439-30.331-4.702-44.979-8.99z" class="B C"/><path d="M-3525.251 4282.725c-15.607-2.523-12.759 16.402-10.084 25.415-3.393 5.504-10.344 14.611 1.229 14.573 4.983 2.641 23.165 4.455 11.909-3.985-2.923-9.873 9.77-13.525 6.331-24.402.126-5.454-2.925-12.205-9.385-11.601zm39.246 113.596c-15.441 7.36 15.726 20.143 3.635 3.452-.971-1.387-2.2-2.57-3.635-3.452zm-85.592 4.232c-9.596 2.24-2.913 21.975 2.84 9.749.999-3.643 2.943-9.167-2.84-9.749z" class="B H"/><path d="M-3536.153 4302.187c-3.256-14.5 23.09-11.968 18.407-23.648-7.668-4.111-24.405.081-24.411 10.556.477 4.882 3.189 9.212 6.004 13.092z" class="B"/><path d="M-3538.992 4315.194c-8.341 7.504-9.026 19.848-16.178 28.329-8.858 14.124-17.66 29.112-19.063 46.061-4.768 7.623 4.498 21.591 10.699 10.525 4.285-8.553 4.521-26.411 13.416-28.722.845 10.77-1.868 21.697-.459 32.479 6.141 11.04 22.924 9.666 34.202 10.147 10.007 2.018 16.041-4.252 13.252-14.112.122-13.4 13.984 11.92 17.59-3.298-.107-10.051-12.675-15.039-16.378-24.283-3.974-9.017-1.571-19.465-4.058-28.948-1.778-10.946-8.834-22.738-20.883-23.944-4.18-.932-8.541-1.765-12.141-4.234z" class="B D"/></g><g transform="translate(3869.423 -4214.08)"><path d="M-3266.074 4632.215c-.912 0-.948 2.65-.186 4.954l-.614-.17-5.663 2.214s3.167 4.708 7.13 5.666 6.354-3.151 5.948-4.599c-.027-.093-.08-.188-.157-.284.62-.405 1.168-.919 1.607-1.457 1.418-1.74-1.032-4.54-1.032-4.54s-5.637-1.782-7.032-1.782zm-13.045-109.092c-1.721-.025-3.817.227-6.382.853-10.26 2.505-6.897 8.883-5.04 18.993a8.14 8.14 0 0 0 .955 2.639c-.19 3.81-.419 6.727-.659 8.901a34.83 34.83 0 0 1-.878 5.22h15.862a21.5 21.5 0 0 1-.882-4.395h0a26.89 26.89 0 0 1-.095-1.266l-.027-.632h0c-.012-.211-.012-.421-.012-.632h0v-.634a28.06 28.06 0 0 1 .098-1.901c2.162-.133 3.69-.436 3.69-.436 4.169-1.106 2.883-18.418 1.428-21.644-1.091-2.419-2.898-4.982-8.062-5.056z" class="B F"/><path d="M-3289.966 4513.09c-4.556.517-10.382.145-13.584 3.898-2.498 4.873-1.049 10.821 1.269 15.502 1.327 2.796 3.565 5.017 5.585 7.254 2.225 4.309 5.254 8.157 8.631 11.62-1.762-3.32-5.042-21.596-1.872-24.223 4.83-3.89 12.458 5.525 17.21 1.546 2.073-3.229 2.168 6.819 2.578 1.222.848-4.561-2.363-7.854-5.423-10.61-3.178-4.596-9.051-6.277-14.394-6.21z" class="B G"/><path d="M-3305.053 4693.012c.8 4.036 1.447 15.09.843 19.568-1.557 11.573-7.971 27.326-4.736 55.019 1.882 16.077 2.146 25.564 3.431 32.322 1.011 5.322 13.514 2.561 12.757 1.171 0 0-3.229-2.243-5.081-9.831-1.661-6.812 1.61-24.363 5.311-41.03l.507 7.5a86.31 86.31 0 0 0 1.235 9.526l3.201 14.978c1.657 8.48.791 13.426 2.142 17.976 1.492 4.976 18.57 4.07 13.414 1.03-1.838-1.076-4.509-3.371-5.836-6.327-4.793-10.734 4.591-75.282 6.606-93.171l.021-7.027c.258-2.231.444-4.005.516-5.22z" class="B F"/><path d="M-3311.659 4789.994c1.062 4.301.206 10.481 1.406 13.706 2.564-2.342-.527-6.893 1.402-9.272 2.705 2.62 1.055 9.438 5.979 9.428 3.962-.373 9.758.828 12.572-.598-1.406-3.958-6.483-1.837-9.539-2.31-5.24-1.065-4.79-7.347-6.187-11.33-1.159-2.561-.247-9.828-4.157-5.731-2.383 1.381-3.378 3.804-1.476 6.107zm20.449.82c.844 4.057.17 9.895 1.253 12.897 2.615-1.753-.62-7.565 1.561-8.461 2.025 2.922.981 8.657 5.782 8.794 4.099-.364 8.245-.1 12.365-.18-.552-4.387-6.115-2.802-9.124-2.851-5.308-.505-5.292-6.694-6.494-10.592-1.134-2.05-.515-8.156-2.604-7.608-3.567 1.62-5.772 4.429-2.741 8.002z" class="B G"/><path d="M-3282.168 4556.357l-8.455.928-.082.036c-.448.063-10.344 1.555-15.176 11.565-3.942 8.171 1.104 33.059 3.981 44.058v.368l-.012 3.988v.432c.033 4.333.154 8.094.289 11.086 0 .076 0 .169.012.243l.221 4.115.043.773c.001.012 0 .033 0 .043l.112 1.58c.029.012.058.012.086.016-5.645 9.656-12.462 29.086-8.246 63.794l46.452-2.655-1.878-61.719c2.546 1.646 5.495 1.345 6.602-1.125.705-1.573-.519-7.579-1.994-13.452.422-1.527.482-2.614.482-2.614 5.984-39.579-3.525-51.448-7.553-55.473-1.894-1.891-5.286-3.31-8.362-4.301-.026-.019-.054-.043-.079-.062-.012.012-.022.016-.031.025-3.422-1.094-6.418-1.648-6.418-1.648z" fill="#1ead28" class="B"/></g><g transform="translate(3361.526 -4205.801)"><path d="M-3059.494 4794.315c-.209 4.211 5.068 2.64 7.878 2.891h17.555c-1.482-4.269-7.12-2.846-10.357-4.784-4.513-1.221-4.873-9.514-10.188-7.407-4.358 1.352-5.832 5.025-4.889 9.3z" class="B"/><path d="M-3081.164 4797.205h25.463c-2.449-4.235-8.22-2.775-11.832-5.349-4.189-.977-3.667-7.589-8.028-7.236-3.682.83-7.337 3.716-6.444 7.912.199 1.548.253 3.222.841 4.673z" class="B"/><path d="M-3074.919 4659.69c.581 13.253 3.618 26.529 1.014 39.752-.949 9.607-4.869 18.515-6.876 27.854-3.16 20.636-2.287 41.641-1.863 62.439 7.219 3.423 15.726.562 14.756-8.52 1.105-2.973 3.141-16.579 3.862-7.919 2.566 5.917-.321 18.941 9.131 17.237 8.319 1.041 7.253-8.34 7.944-13.838 3.42-37.89 7.971-75.663 12.164-113.473-13.379-1.161-26.788-2.818-40.133-3.533z" class="B C"/><path d="M-3070.217 4683.865h8.207v-2.55c0-2.032.811-3.983 2.25-5.421s3.392-2.246 5.428-2.248h6.794c2.036 0 3.989.809 5.428 2.246s2.25 3.39 2.252 5.422v2.55h8.211c1.186 0 2.324.477 3.164 1.316a4.49 4.49 0 0 1 1.316 3.16v20.877c0 1.186-.477 2.322-1.316 3.16a4.51 4.51 0 0 1-3.164 1.314h-38.554c-1.188 0-2.326-.477-3.164-1.314s-1.314-1.975-1.316-3.16v-20.877c0-1.184.473-2.316 1.31-3.154a4.49 4.49 0 0 1 3.153-1.322zm27.316-2.55c0-1.226-.491-2.404-1.36-3.272a4.64 4.64 0 0 0-3.276-1.356h-6.794c-1.228 0-2.408.489-3.276 1.356a4.64 4.64 0 0 0-1.36 3.272v2.55h16.066z" class="B F"/><path d="M-3048.583 4668.512s4.73 9.11 2.35 12.65-10.809-1.008-11.488-3.037 0-11.807 0-11.807z" fill="#da935b" class="B"/><path d="M-3049.287 4537.957c-1.539.025-3.367.261-5.545.771-9.734 2.28-6.906 8.275-5.168 17.703-1.046-.42-2.228-.693-2.973-.574v.025c-.693.112-1.011.555-.492 1.52a4.84 4.84 0 0 1 .225.443c1.154 2.492 1.154 5.828.711 9.094-.609 3.939-1.648 7.798-3.102 11.508l13.596 3.832c4.179-5.776 3.855-14.195 3.447-17.814h.025.209l-.043-.168c3.27.09 5.953-.42 5.953-.42 4.043-1.048 2.926-17.819 1.557-20.949-1.068-2.444-2.898-5.054-8.396-4.967z" class="B H"/><path d="M-3062.71 4561.323c-1.744-7.102-10.336-12.179-7.213-20.41 3.494-5.574 9.405-11.69 16.202-12.431 6.627.933 14.839 3.027 16.636 10.534 1.183 9.831-8.962 3.215-13.994 3.309-6.687 3.236-5.196 13.323-10.799 18.124z" class="B"/><path d="M-3065.609 4577.783l.127.02c-.014 0-.127.018-.127.018-3.987 1.907-5.407 8.271-5.793 16.582-.055 1.152-.09 2.342-.109 3.563v.01l-.014 3.748v.014l.162 7.889.242 8.168h0l.092 4.074h0l.035 4.018h0c0 1.095-.027 2.174-.074 3.236a79.48 79.48 0 0 1-.203 3.143c-.523 6.188-1.683 11.756-2.59 16.584h0c-1.563 8.353-2.371 14.473 2.193 17.707 2.883 2.04 7.428 2.776 12.434 2.705l.4 1.389s5.469.444 7.615.164c1.412-.156 2.765-.654 3.943-1.451l-.066-1.518a68.11 68.11 0 0 0 5.658-1.43 41.17 41.17 0 0 0 6.934-2.656c7.746-4.037 6.647-9.402 6.461-29.496-.174-18.857-10.775-42.567-14.268-49.75-.824-2.953-2.461-8.073-4.371-9.742z" class="B I"/></g><g transform="translate(3655.137 -4394.418)"><path d="M-2924.949 4758.162c-.619 4.315-4.287 6.458-8.405 6.598-4.077.784-9.472-1.658-9.409-6.31-3.016 1.028-7.037 3.344-10.845 4.08-4.023 1.364-8.419 3.591-9.237 8.207-3.588 12.88-3.102 26.437-5.681 39.502-.732 2.576-.67 4.398 2.413 3.676 3.846-.344 5.201 2.105 4.266 5.537-.293 8.292-.999 16.562-1.756 24.819 2.242 2.739 6.502 3.475 9.834 4.384 10.504 1.841 21.314.631 31.72-1.288 4.103-.803 8.153-2.051 12.033-3.52.776-3.674-.42-19.701-.602-23.497l12.079 1.041c3.201-9.198 1.738-19.181.207-28.566-1.803-8.912-3.88-17.975-8.22-26.035-2.939-3.803-8.287-4.367-12.615-5.707-1.517-1.542-3.593-2.716-5.783-2.922zm13.217 40.49c.301 2.997 4.516 8.725.541 9.877l-.541-9.877z" class="B I"/><path d="M-2931.348 4984.735s.687-4.987 2.136-7.878 10.635-1.048 10.635-1.048 1.839 1.575 2.216 8.926zm-31.265.002c2.164-1.33.886-10.885.886-10.885s-10.076-8.05-11.46-1.885-9.571 8.932-14.233 9.683c-3.218.523-3.426 2.032-3.735 3.099z" class="B G"/><path d="M-2962.775 4843.688c-.429 1.6-.571 2.789-.887 4.891-.5 3.325-1.034 7.289-1.371 12.137a143.99 143.99 0 0 0-.264 5.074c-.958 28.011-3.585 75.285-10.738 108.121-.124.685.012 1.39.377 1.98s.937 1.029 1.606 1.225c3.292 1.05 9.597 4.253 13.586 2.744 2.583-.974 17.027-42.691 17.961-60.941.14-1.825.387-3.641.74-5.435.257-1.418.648-3.208 1.01-4.914l9.764 70.701s8.178 1.97 14.539.395c0 0 5.451-71.702 4.998-89.021s1.707-42.322 1.744-46.919c-3.185-1.831-52.033-3.886-53.064-.037z" class="B D"/><path d="M-2953.257 4793.574l21.005-12.111a3.65 3.65 0 0 1 1.338-.451c.471-.062.948-.03 1.407.094a3.6 3.6 0 0 1 1.264.625c.377.289.693.649.928 1.06l17.974 31.097c.479.831.607 1.817.357 2.741a3.61 3.61 0 0 1-1.687 2.19l-21.005 12.109a3.62 3.62 0 0 1-1.336.453 3.59 3.59 0 0 1-1.407-.094 3.63 3.63 0 0 1-1.266-.625 3.64 3.64 0 0 1-.928-1.062l-17.974-31.097c-.477-.829-.605-1.815-.357-2.739a3.61 3.61 0 0 1 1.687-2.19z" class="B F"/><path d="M-2948.28 4722.218c6.996-.791 14.008-5.461 21.074-2.391 7.514 2.783 12.084 13.403 6.577 19.99-.782 2.463-4.628 9.081-5.822 3.514-2.979-3.281-6.254-6.121-8.171-10.101-3.636-3.238-9.513.732-12.49-3.789-1.703-2.026-1.61-4.774-1.169-7.223z" class="B G"/><path d="M-2937.624 4724.707c-4.51.111-8.167 4.291-8.221 8.764-.784 5.354-1.051 10.957.242 16.23 3.51 3.017 2.69 7.027 3.104 11.037 1.597 5.213 8.267 5.096 12.557 3.926 6.236-1.35 5.135-8.174 3.762-12.734-.193-4.642 2.227-8.996 2.668-13.645 1.679-4.468.667-11.007-4.785-12.121-2.696-.959-5.565-1.331-8.414-1.424-.307-.03-.611-.041-.912-.033zm-30.318 81.959a63.29 63.29 0 0 0-.932 7.174c-1.112 12.62-.934 34.05-3.961 35.877 0 0-6.213 2.266-6.391 6.859-.094 2.4.014 5.211 2.877 4.869 2.148-.24 1.213-2.624 2.986-3.818 1.461-.974 4.191-4.011 5.215-6.197.984-.884 9.007-12.987 13.709-37.162zm24.795.439c-2.187.552-4.706 1.13-6.187 2.986-.972 2.435-.115 4.703 2.734 4.783 2.911 1.03 6.034 1.039 8.955 1.959 12.716 3.458 25.921 5.741 39.137 5.074l-6.461-8.303c-1.991-1.491-2.916-6.149-5.838-5.266-8.359 1.67-16.942 2.118-25.398 2.664-2.47-.971-4.006-3.992-6.941-3.899z" class="B H"/></g></svg>