<svg xmlns="http://www.w3.org/2000/svg" xmlns:xlink="http://www.w3.org/1999/xlink" width="1280" height="720" xmlns:v="https://vecta.io/nano"><style><![CDATA[.B{clip-path:none}.C{fill:#d98d58}.D{fill:#34c3ff}.E{fill:#ffc93c}.F{fill:#2e2e2e}.G{fill:#a184dc}]]></style><defs><clipPath ><path d="M0 0h708.12v398.41H0z" fill="none" stroke-width="0"/></clipPath><clipPath ><path d="M329.04 154.55c-9.4 2-22.98 1.14-38.17-7.37L286 158.21c5.98 8.16 28.93 17.46 46.29 13h0c1.46 7.54 3.83 16.5 7.66 25.59l-.2.35 30.39-4.09-2.19-6.5c-.01-.03-.02-.06-.03-.1h0c-2.11-6.05-4.35-11.98-6.69-17.83 0 0 9.88 2.67 29.46 20.13l7.42-9.02s-19.84-30.25-53.18-33.49l-15.89 8.28z" fill="none" stroke-width="0"/></clipPath><linearGradient id="C" gradientTransform="matrix(0,391.70768,391.38082,0,-613731.27,173985.12)" x1="-444.171" y1="1569.753" x2="-442.334" y2="1569.751" gradientUnits="userSpaceOnUse" spreadMethod="pad"><stop offset="0" stop-color="#ff7b54"/><stop offset="1" stop-color="#d64e4e"/></linearGradient><path id="D" d="M10968.463 2828.529c.03 3.108.325 6.386-1.024 9.289-1.33 1.857-3.289-1.679-3.698-.887-.821 2.467-2.845 5.144-5.704 5.018-2.228-.734-1.412-3.643-1.117-5.368.727-3.52 2.099-6.863 3.388-10.204 1.451-1.311 3.312.86 4.956.976l3.199 1.175z"/></defs><path d="M0 0h1280v720H0z" fill="url(#C)" class="B"/><g transform="translate(-10400.545 -2341.384)"><path d="M11182.047 2744.165c-10.625-.531-11.623 12.147-16.171 18.755-6.647 5.724-1.384 11.865 5.752 12.502 7.341 1.095 14.914 6.399 22.11 2.012 9.37-4.354 1.812-14.661 3.88-22.225-.662-7.021-9.208-11.236-15.571-11.044z" class="B"/><path d="M11134.28 2719.784c-4.292-12.502 11.654-14.697 11.566-1.729 5.845 18.702 7.991 38.373 13.6 57.082.143 6.437 4.756 3.967 8.89 2.454 8.37-3.304-3.774-20.736 7.764-26.017 13.444-8.442 24.541 12.159 12.167 20.946-7.898 5.851-.833 16.132 6.404 7.386 18.91-14.569 34.316-33.08 52.077-48.872 15.044-5.628-.646 15.871-3.942 21.193-18.22 28.852-37.685 56.885-56.494 85.349 10.586 15.035 18.606 32.7 20.455 51.139 1.716 15.689-11.945 26.084-20.71 36.927-5.773 10.651.833 23.207 1.827 34.46 4.197 20.607 8.948 41.097 13.86 61.545l-13.915 2.534-31.735-91.327 19.376 67.826-12.9 3.854c-19-30.336-37.889-61.667-47.201-96.516-3.644-11.984-1.669-24.939 5.683-35.121 8.762-15.123 18.782-29.486 28.704-43.842-2.572-12.461-6.672-24.667-7.591-37.488-3.125-23.872-4.715-47.921-7.885-71.782z" class="B C"/><path d="M11158.436 2772.202c-19.331 3.388-23.097 35.675-7.285 44.95 15.176.723 31.243 9.147 45.615 4.351 19.398-12.238 1.064-26.133-6.134-38.622-6.525-18.41-23.183.116-32.196-10.679zm-8.781 57.102c-19.809 18.559-42.311 42.558-36.829 72.135 4.277 19.547 7.02 48.957 23.157 59.362 18.121-2.08 39.026-.974 55.127-6.961-2.966-18.91 21.417-28.708 20.11-47.757 4.006-24.868-3.4-53.57-24.907-68.51-12.597 1.559-26.608.254-36.658-8.27z" class="B D"/><path d="M11162.571 3004.523c.206.424-8.856 11.193-7.79 12.123s11.082.843 14.709-.664l12.01-5.027-6.03-10.277zm25.262 19.654s-15.618 10.268-15.348 12.601 7.267 3.654 13.007 1.37 20.366-7.64 20.366-7.64l-4.111-8.865z" class="B"/></g><g transform="translate(-10662.103 -2336.177)"><path d="M10822.083 2778.946c3.329-.856 12.476 1.306 15.278 5.626s5.259 11.423 2.538 15.605-8.323 4.402-11.044 2.962-10.101-23.336-6.772-24.193z" class="B C"/><path d="M10859.125 2731.184c-.298 15.289.27 30.657-.707 45.895-4.698 12.061-16.633 19.213-26.955 26.079-8.671.871-16.675 4.181-24.139 8.641-17.222 8.374-27.478 27.041-29.284 45.586.346 12.518 17.307 7.744 20.709 9.185-1.195 13.069-2.321 26.27-1.151 39.377 6.377 5.229 6.715 18.307 10.541 26.674 2.005 5.938 5.709 13.64-3.112 9.331l-14.572-3.579c-2.277 6.037-.627 10.152 6.306 11.415 8.711 4.954 22.302 5.544 20.291 18.768 2.186 13.797 3.977 27.654 5.657 41.521 7.331.691 8.969-4.911 9.64-11.372 2.607-11.037 4.909-22.184 5.981-33.487 10.6 2.132 24.806 5.28 32.703-4.375 7.887-13.633 4.249-30.253 1.806-44.929-1.011-8.574-5.969-17.413-4.817-25.095l-2.204-79.968c13.61-10.478 23.445-28.601 17.647-45.901-3.72-12.359-10.838-24.178-20.25-32.825l-4.09-.94z" class="B E"/><path d="M10822.875 3016.621l16.8-.738c.261-.01.512-.105.714-.271a1.2 1.2 0 0 0 .406-.646c.061-.254.04-.521-.07-.761-.104-.239-.283-.438-.511-.566-3.174-1.787-7.752-4.178-10.46-4.786-4.488-1.003-7.046 1.224-7.046 1.224zm-36.91-79.35l-7.168 15.76a2.04 2.04 0 0 0 .283 2.122c.239.293.554.514.912.637s.741.146 1.11.064c2.717-.669 6.193-2.664 7.776-8.335.787-2.996 1.315-6.055 1.579-9.142z" class="B F"/><path d="M10822.092 2778.946c-4.52 4.097-11 3.397-16.624 3.249-3.786-.094-8.405.271-10.735 3.677-1.734 3.308-1.562 7.644 1.15 10.39 4.085 4.688 10.953 6.807 13.468 12.839 1.238 3.804-.09 7.827-.635 11.645-1.154 6.645-3.196 13.87-.353 20.365 1.995 4.197 6.649 7.024 11.319 6.477 6.437-.297 11.308-5.537 13.827-11.075 4.421-9.711 5.316-21.355.933-31.249-3.259-7.731-8.005-14.817-10.416-22.901-.575-1.177-1.21-2.325-1.934-3.418z" class="B"/><path d="M10824.302 2793.327c1.154 1.681 4.345.498 4.757-.787.224-.706.371-1.845-.172-2.232-2.692-1.938-5.956 1.012-4.585 3.019zm34.836-62.138s-1.632-9.212 1.734-9.559 5.083 4.623 4.85 7.05a5.17 5.17 0 0 1-.584 1.992 5.11 5.11 0 0 1-1.329 1.594z" class="B C"/></g><g transform="translate(-10263.372 -2304.48)"><path d="M11374.679 2717.276s15.215-.734 20.529 6.232 13.936 30.622 16.506 41.071 6.562 20.204 5.297 30.64-2.196 18.684-40.32 18.684-41.62-23.182-35.937-35.757 21.636-21.266 21.821-29.335-1.467-13.018.18-19.804 4.778-10.818 11.924-11.731z" class="B"/><path d="M11380.36 2753.396l-1.283 5.868s-2.016 6.312 7.774 8.258c8.082 1.603 12.426-8.016 12.426-8.016s-5.899-3.729-6.448-6.11-.369-14.669-.369-14.669-7.884 1.098-13.383-2.385l-10.102-6.588s-4.537 13.387-.32 19.619 11.705 4.023 11.705 4.023zm-81.164-37.779c-5.241.311.543 21.844.543 21.844l10.675-9.988s-4.513-10.68-10.675-11.818c-.193-.036-.374-.047-.543-.037zm121.744 113.822s-2.535 8.704.654 13.303 13.01-7.383 13.01-7.383zm-65.699 13.258l-15.559 50.426-7.312 19.109 14.884 46.451s-9.046 1.028-11.8 4.104 13.119 2.755 18.789 2.592 4.862-5.828 3.404-13.119-8.912-50.871-8.912-50.871l18.144-47.922s31.105 79.353 36.938 85.994a367.4 367.4 0 0 0 11.34 12.297s-6.804 8.75-6.483 12.475 10.695-2.43 14.582-5.992 6.479-7.615 6.149-9.881-43.223-95.121-43.223-95.121z" class="B C"/><path d="M11310.416 2727.482l-10.677 9.988s25.491 38.918 37.543 45.809 25.14 5.859 25.14 5.859l-14.121 40.299h0s-8.391 8.7-20.281 32.858 16.967 89.314 16.967 89.314l12.662.658s-1.168-44.725.281-59.131 8.951-32.541 8.951-32.541 1.545.166 7.799 35.443 40.479 55.74 40.479 55.74l14.285-10.102s-20.514-41.412-20.514-54.83 4.6-15.29 4.6-26.244-10.809-25.65-10.809-25.65l-.172-.018.172.01-1.723-49.941s16.189 5.524 21.012 17.91-3.443 25.475-3.443 25.475l20.666 8.957s20.323-38.569 4.133-57.859-44.088-19.979-44.088-19.979-6.448 6.544-11.582 5.631-8.617-5.865-8.617-5.865-5.873.18-15.588.18-13.815-1.315-27.936-10.613-25.139-21.356-25.139-21.356z" class="B E"/></g><g transform="translate(-10738.617 -2388.627)"><path d="M10906.946 2453.276c-21.643-3.595-29.571 21.265-34.032 37.567-4.847 17.536-18.76 47.593 5.175 56.645 19.922 3.251 46.029 7.316 60.514-10.484 14.423-19.008-8.649-34.716-18.016-49.049-5.202-11.24 5.312-32.159-13.641-34.679z" class="B"/><path d="M10982.43 2451.616c-.169-.01-.35 0-.543.037-6.162 1.138-10.678 11.82-10.678 11.82l10.678 9.988s5.784-21.534.543-21.846zm-70.213 14.973c-1.362-.083-3.444 1.562-4.713 2.639-4.23 3.103-9.109 5.684-14.502 5.684-5.103-1.662-3.738 3.019-3.808 6.57-.02 4.005.487 8.81-3.201 11.508-3.843.993-3.805 4.679-.756 6.731 3.324 4.67 10.395 5.074 14.779 1.717 4.361-2.723 2.036-8.113 1.248-12.039 3.642 1.053 7.864.112 10.566-2.592 4.243-4.838 3.105-11.95 1.733-17.703.03-1.791-.528-2.464-1.346-2.514zm-51.531 98.85l-13.664 5.922s9.822 11.981 13.01 7.383.654-13.305.654-13.305zm65.699 13.258l-30.943 10.541-43.223 95.121c-.33 2.266 2.262 6.321 6.149 9.883s14.262 9.714 14.582 5.99-6.483-12.473-6.483-12.473 5.507-5.658 11.34-12.299 36.939-85.992 36.939-85.992l18.143 47.922-8.91 50.869c-1.458 7.291-2.268 12.957 3.402 13.119s21.544.484 18.791-2.59-11.802-4.104-11.802-4.104l14.884-46.451-7.312-19.109z" class="B C"/><path d="M10971.209 2463.481c-15.089 14.262-31.604 31.562-53.953 31.577-15.487 6.57-32.114.525-48.028 2.537-21.275 2.976-41.915 22.908-36.849 45.644 2.949 10.235 3.341 30.814 18.724 27.889 14.957-4.075 6.285-20.988 7.934-31.549.05-12.14 25.928-23.508 21.525-4.692.188 17.413-1.515 35.098-9.043 51.063-5.384 10.736.152 23.243-.212 34.743 1.903 14.686-4.627 28.257-12.212 40.323-10.749 10.838-.382 32.613 14.482 21.77 21.431-15.658 35.518-41.638 35.889-68.324-.498-7.574 9.285-18.617 10.384-4.989 6.699 25.769 4.359 52.498 4.127 78.792 14.802 1.404 21.21-15.432 22.483-27.52 4.785-18.104 13.674-36.429 8.566-55.566-3.559-20.99-21.701-34.893-27.501-55.001-3.24-11.124-12.713-27.742 5.407-26.273 17.384-5.532 28.739-20.869 38.684-35.112 7.324-6.498 12.747-21.64-.407-25.314z" class="B D"/></g><g transform="translate(-10648.446 -2389.955)"><path d="M11286.797 2471.951c-3.584.012-6.816 1.31-8.397 2.814-2.81 2.675-2.45 6.203-2.383 8.811l-.04 7.281c.224 3.978 3.326 5.552 8.069 5.912s9.844-1.685 11.148-3.73h0c1.753-2.742 5.957-13.576 0-18.273-2.606-2.055-5.606-2.824-8.394-2.814zm-18.489 24.861c-7.238.135-31.942 16.7-42.371 39.086-5.979 12.811 18.588 35.783 18.588 35.783s.563 9.214 2.721 9.484c2.158.247 2.698-14.701 2.676-18.139s-12.971-18.611-12.971-18.611l16.992-12.9s21.58-34.838 14.365-34.703zm50.215 6.385c-5.372-.135-8.72 10.722-8.068 17.959s8.36 14.88 9.978 18.139c.01.023.03.049.04.072.09.256.998 3.14-2.803 5.502-3.978 2.473-24.457-3.867-24.457-3.867-2.697-.584-8.811-1.056-10.43.742-1.663 1.798-2.023 5.62 7.576 8.902 3.708 1.258 35.516 10.541 43.225 8.563 19.556-5.012 11.442-25.061 4.631-34.973v.01c-4.786-8.436-15.362-20.938-19.684-21.047zm-64.353 94.916s-6.967 12.091-8.203 25.824c-1.214 13.733 11.283 59.023 11.283 59.023s-13.037 5.686-11.059 6.811 20.297-3.124 20.297-4.945 10.879-62.731 10.879-62.731 11.464 60.057 14.094 62.731c2.652 2.675 22.163 5.934 21.556 4.293s-9.373-4.922-9.373-4.922l-1.461-53.291c-.764-8.609-2.9-19.465-2.9-19.465z" fill="#bc9353" class="B"/><path d="M11292.094 2466.615c-6.799-4.167-17.63 8.579-7.841 11.365 6.285-.215 12.02 3.733 9.05 10.443 1.05 10.719 2.131 6.8 8.103 11.28 12.826 5.475 16.802 6.697 18.838 19.169 1.01 8.251 10.525 4.265 15.966 4.845 7.407 1.186 15.748 5.335 22.731.329 7.773-4.986 9.59-18.063 1.15-23.291-6.785-2.606-16.071-.16-19.904-8.333-3.655-8.278-11.453-10.791-19.654-9.278-4.913-2.144-6.172-9.078-13.005-8.254-4.867-2.091-7.562-8.371-13.665-8.25l-.877-.045z" class="B"/><path d="M11283.117 2492.615c-2.838-.055-5.646.076-8.381.4-8.542 1.012-8.474 8.092-13.217 16.453-3.394 5.956-10.878 8.923-11.597 18.678-.315 4.091 3.894 18.07 3.844 22.564-.01 1.521-.112 2.967-.256 4.342l-.04-.024s-7.259 20.677-10.541 40.793-1.641 34.75-1.641 34.75 25.263 5.303 39.447 5.078c14.183-.247 28.391-4.832 28.391-4.832s4.54-21.24 4.697-32.096c.127-8.713-2.869-28.048-4.1-35.607l.663-13.617c1.416-11.778 6.226-18.789 6.226-18.789s14.497-19.419 1.91-27.533c-10.227-6.593-23.11-10.322-35.406-10.561z" class="B G"/></g><g transform="translate(-9541.013 -2704.186)"><path d="M10605.065 2559.951c-2.788-.01-5.79.759-8.397 2.814-5.957 4.697-1.753 15.531 0 18.273h0c1.304 2.045 6.406 4.09 11.149 3.731s7.845-1.932 8.07-5.91c.13-2.181-.121-4.675-.05-7.283s.427-6.137-2.383-8.811c-1.58-1.505-4.81-2.802-8.394-2.814zm18.488 24.861c-7.216-.135 14.363 34.703 14.363 34.703l16.995 12.9s-12.949 15.172-12.969 18.611.517 18.386 2.674 18.139c2.158-.27 2.718-9.484 2.718-9.484s24.569-22.972 18.59-35.783c-10.43-22.387-35.133-38.952-42.371-39.086zm-50.215 6.385c-4.32.109-14.897 12.611-19.683 21.047v-.01c-6.81 9.912-14.925 29.961 4.631 34.973 7.71 1.978 39.515-7.305 43.224-8.562 9.598-3.282 9.24-7.104 7.577-8.902-1.619-1.798-7.733-1.326-10.43-.742 0 0-20.478 6.34-24.457 3.867-3.828-2.379-2.879-5.291-2.801-5.51l.03-.064c1.619-3.259 9.33-10.902 9.981-18.139s-2.697-18.094-8.069-17.959zm64.354 94.916l-45.113 13.328s-2.136 10.856-2.901 19.465c-.786 8.608-1.461 53.291-1.461 53.291s-8.766 3.281-9.373 4.922 18.905-1.618 21.557-4.293c2.63-2.674 14.094-62.731 14.094-62.731l10.878 62.731c0 1.821 18.319 6.069 20.297 4.945s-11.058-6.811-11.058-6.811 12.497-45.291 11.283-59.023c-1.236-13.733-8.203-25.824-8.203-25.824z" transform="translate(27.691 210.227)" class="B C"/><path d="M10627.459 2764.842c-13.071 2.619-21.482 15.379-34.826 17.237-4.207-.699-7.055 1.322-9.618 4.484-6.285 6.265-13.367 12.692-22.459 14.164-5.622 4.269-5.978 12.85-2.011 18.344 3.27 5.272 10.443 7.819 16.133 4.997 6.953-2.522 14.797-.4 21.617-3.398 3.85-1.764 3.425-6.689 2.011-9.935-1.624-3.214 5.256-1.368 8.727-3.285 4.608-3.027 11.18-4.178 13.471-9.821.923-2.069.104-5.428 2.823-2.703 3.326 2.328.62-6.508 2.173-9.731 2.508-3.902 4.858-9.243 10.086-9.806 3.273-.878 5.484-5.984 1.85-8.039-2.844-2.003-6.535-2.845-9.977-2.508z" class="B"/><path d="M10608.746 2580.615c-12.296.238-25.181 3.968-35.408 10.561-12.588 8.114 1.91 27.531 1.91 27.531s4.811 7.013 6.227 18.791c.163 1.303.429 7.546.662 13.617-1.23 7.559-4.226 26.895-4.1 35.607.157 10.856 4.698 32.096 4.698 32.096s14.206 4.585 28.39 4.832c14.183.225 39.448-5.078 39.448-5.078s1.641-14.633-1.641-34.75-10.543-40.793-10.543-40.793-.03.02-.04.021a45.52 45.52 0 0 1-.256-4.34c-.05-4.495 4.159-18.474 3.844-22.564-.719-9.755-8.204-12.721-11.598-18.678-4.743-8.361-4.676-15.442-13.217-16.453-2.735-.325-5.541-.455-8.379-.4z" transform="translate(27.691 210.227)" class="B G"/></g><g transform="translate(-10547.322 -2502.487)"><path d="M10966.21 3119.784c-1.936 2.966 7.864 16.177 13.445 18.935s7.476 1.399 5.895-2.296-6.242-10.212-6.242-10.212l-9.204-8.26zm66.581 45.553c.462 7.702 1.255 6.696 9.775 5.228s18.974-1.803 20.764-4.069-19.713-6.327-19.713-6.327z" class="B F"/><g transform="translate(-.656 206.665)"><path d="M11057.288 2698.384c-13.221 16.207-20.594 41.215-43.518 46.169-13.565 1.177-30.288-1.573-39.808 10.714-7.58 10.89.287 25.248-9.88 35.639-4.446 9.606-9.001 24.001.311 32.134 15.292 4.57 11.68-19.411 19.852-26.782 18.111-10.456 16.545 17.769 15.365 29.01 2.075 16.116-1.116 32.64-5.245 48.294-2.606 14.02-14.79 22.298-22.217 32.843-4.816 18.707 17.177 13.873 25.814 5.823 16.985-8.356 34.161-22.898 33.715-43.546.34-6.945 3.199-33.495 3.891-14.401 2.066 34.96-3.045 69.843-2.039 104.807 17.473-2.64 19.526-23.193 25.709-36.289 14.93-29.847 21.448-66.617 6.585-97.798-6.943-20.504-5.621-43.237-15.528-62.831-4.214-19.358 18.088-32.89 13.9-52.737-.269-4.493-2.357-9.412-6.907-11.048z" class="B G"/><path d="M11007.849 2728.447c4.659-6.317 12.914-5.482 17.27-2.055s5.496 15.315 1.009 18.565c-5.013 3.633-11.378 4.645-16.461 1.981s-6.249-12.459-1.818-18.491z" class="B C"/><path d="M11012.781 2713.341c-3.053 1.039-4.096 4.388-5.664 6.874-.878 1.581-2.548 2.979-4.47 2.609-1.491-.58-2.989-1.005-3.542.952-1.102 2.532.778 5.02.723 7.561.143 2.307-3.269 1.58-3.433 3.156-.407 3.876 3.69 7.115 7.38 6.26 2.29-.414 3.502-2.878 3.237-5.043-.486-1.55.567-2.907 1.449-4.098 2.285-2.917 6.215-3.63 9.715-3.595 4.537-.084 9.222.955 13.641-.473 1.319-.602 1.765-2.328 2.254-3.611.786-2.368-.503-5.088-2.813-6.006-3.043-1.37-6.809-.605-9.265 1.593-2.424-1.833-3.262-5.287-6.168-6.546-1.01-.371-2.122-.12-3.044.367z" class="B"/></g><g class="C"><use xlink:href="#D" transform="matrix(1.932516 0 0 1.932516 -10222.277 -2441.2921)" class="B"/><use xlink:href="#D" transform="matrix(-1.866667 -.500172 .500172 -1.866667 30109.45 13682.169)" class="B"/></g></g><g transform="translate(-10743.325 -2576.345)"><path d="M11647.979 2709.892c1.94 2.966-7.86 16.177-13.44 18.935s-7.48 1.399-5.9-2.296 6.24-10.212 6.24-10.212l9.21-8.26zm-70.11 44.139c-.47 7.702-1.26 6.696-9.78 5.228s-18.97-1.803-20.76-4.069 19.71-6.327 19.71-6.327z" class="B F" transform="translate(13.628 145.201)"/><path d="M11553.85 2490.383c-15.521 13.361-2.105 38.402 7.564 51.144 2.398 16.472-11.913 30.754-9.286 48.15-7.946 32.892-23.768 67.622-9.442 101.191 9.43 19.757 13.266 49.928 31.807 60.832 8.76-16.127-.36-39.957 1.453-59.285-.818-16.296-1.879-52.191 1.173-55.916 1.862 22.777 1.841 52.497 27.499 61.888 8.96 9.079 44.483 25.796 33.955.044-17.037-16.228-27.35-37.261-26.791-61.246-.243-17.483-4.843-42.687 5.732-54.685 18.797 3.41 9.736 36.476 29.071 34.767 11.762-13.674-1.165-36.308-7.447-50.38-1.397-9.974 9.107-19.66-6.664-25.007-19.115-6.209-42.755-1.288-57.024-19.143-10.869-8.533-10.452-24.496-21.6-32.353z" transform="translate(13.628 145.201)" class="B D"/><path d="M11554.139 2490.507s-.18-10.511-2.86-9.565-2.04 2.425-2.04 2.425-2.17-6.142-6.509-5.475 3.819 16.037 3.819 16.037zm49.15 29.94c-4.66-6.317-12.92-5.482-17.27-2.055-4.36 3.427-5.5 15.314-1.01 18.565 5.01 3.633 11.38 4.645 16.46 1.981s6.25-12.459 1.82-18.491z" transform="translate(13.628 145.201)" class="B C"/><path d="M11598.36 2505.342c-6.474 2.458-13.204 7.401-19.383 4.619-6.747 7.673 7.484 15.856 13.255 9.218 10.222-2.878 13.629 19.79 21.582 10.668 4.03-12.307-10-15.152-13.39-24.375a4.71 4.71 0 0 0-2.064-.129z" transform="translate(13.628 145.201)" class="B"/><path d="M11604.489 2529.546s2.64 1.468 3.44-.133-.59-2.987-1.81-3.062a1.73 1.73 0 0 0-.98.221 1.69 1.69 0 0 0-.69.731zm38.18 90.983s-.59 10.491 2.16 9.736c2.76-.754 2.22-2.269 2.22-2.269s1.71 6.293 6.09 5.932-2.64-16.273-2.64-16.273z" transform="translate(13.628 145.201)" class="B C"/></g><g transform="translate(-10683.268 -2537.583)"><g transform="translate(-10.716 157.893)"><path d="M11097.466 2463.07c-2.446-.055-4.985.783-7.035 2.969-1.433 1.53-2.371 3.489-2.83 5.506-.194-.146-.434-.25-.734-.281-1.411-.145-1.843 2.711-.83 3.469.43.322.873.24 1.24.039.07 2.708 1.029 5.159 2.846 6.406 3.852 2.644 9.408 1.882 13.498-.018 2.314-1.075 3.341-4.749 3.22-8.316.282-.164.554-.51.633-1.223.128-1.159-.619-1.709-1.062-1.932-.375-1.506-.986-2.814-1.823-3.65-1.695-1.696-4.35-2.906-7.123-2.969zm78.245 51.85c-3.795.073-7.538 3.957-7.538 3.957l4.301 7.512c.126.347 9.768-6.146 7.793-8.943-1.343-1.907-2.954-2.556-4.556-2.525zm-49.625 38.689l-3.967 5.406s9.717 8.38 12.015 5.693c6.308-7.399-8.048-11.1-8.048-11.1zm-50.02 27.299l.494 12.408s-.289 3.979-4.32 12.393-38.192 27.682-38.192 27.682l7.37 8.412s19.057-5.543 38.945-19.889c19.882-14.348 16.23-31.143 16.23-31.143l8.6-1.023 1.846 16.6c.409 3.677-5.126 9.828-9.02 24.994s-10.863 48.998-9.428 50.422 10.248-3.494 10.248-3.494 23.238-44.164 27.952-65.172 2.757-31.367 2.757-31.367z" class="B C"/><path d="M11030.351 2634.619c-2.051 2.459 5.329 15.373 10.043 18.447s6.56 2.051 5.534-1.435-4.51-9.839-4.51-9.839l-7.369-8.404zm58.212 47.143c-.411 6.968.408 6.149 8.197 5.74s17.219.409 19.063-1.435-17.013-7.794-17.013-7.794z" class="B"/><path d="M11101.586 2480.869c-6.487 2.069-14.121 3.925-17.509 10.517-10.48 14.145-13.198 32.148-14.904 49.199.203 6.495 4.572 12.367 3.252 18.998-.549 10.598-.11 21.33 1.583 31.786 3.566 3.902 9.951 2.605 14.741 3.597 11.772.34 23.597-.983 35.123-3.276 7.767-.966 7.575-8.547 6.358-14.331l-1.17-22.874c6.083-3.436-1.877-14.479 5.352-15.843 9.323 1.229 18.23-2.506 26.876-5.433 3.893-2.29 11.392-3.229 10.948-8.855-1.862-8.102-10.756-4.98-16.497-4.475-9.632.61-20.88.996-28.462-6.005-8.988-7.918-12.687-19.727-19.376-29.307-1.663-1.825-3.84-3.3-6.315-3.698z" class="B E"/></g><path d="M11096.383 2605.508c-7.623-1.641-7.849 9.62-14.244 9.979-5.793.749-11.385 7.578-8.12 13.159 5.983 7.093 9.295-4.029 14.215-6.091 3.396-2.294 7.827 7.916 6.797.457-.232-4.798 7.911-1.015 8.268-6.745 2.164-4.863-1.514-10.837-6.916-10.758z" class="B"/></g></svg>