<svg xmlns="http://www.w3.org/2000/svg" width="1280" height="720" xmlns:v="https://vecta.io/nano"><style><![CDATA[.B{fill:#ffc93c}.C{clip-path:none}.D{fill:#7c2869}.E{fill:#31456f}.F{fill:#a184dc}.G{stroke-miterlimit:10}]]></style><defs><clipPath ><path d="M0 0h708.12v398.41H0z" fill="none" stroke-width="0"/></clipPath><clipPath ><path d="M329.04 154.55c-9.4 2-22.98 1.14-38.17-7.37L286 158.21c5.98 8.16 28.93 17.46 46.29 13h0c1.46 7.54 3.83 16.5 7.66 25.59l-.2.35 30.39-4.09-2.19-6.5c-.01-.03-.02-.06-.03-.1h0c-2.11-6.05-4.35-11.98-6.69-17.83 0 0 9.88 2.67 29.46 20.13l7.42-9.02s-19.84-30.25-53.18-33.49l-15.89 8.28z" fill="none" stroke-width="0"/></clipPath><linearGradient id="C" gradientTransform="matrix(0,-292.17546,-292.16907,0,347191.34,-112661.66)" x1="-388.15" y1="1186.15" x2="-385.51" y2="1186.15" gradientUnits="userSpaceOnUse" spreadMethod="pad"><stop offset="0" stop-color="#3291ff"/><stop offset="1" stop-color="#35c2ff"/></linearGradient><linearGradient id="D" x1="638.348" y1="721.996" x2="638.348" y2="577.922" gradientUnits="userSpaceOnUse" spreadMethod="pad"><stop offset="0" stop-color="#1ead28"/><stop offset="1" stop-color="#248029"/></linearGradient></defs><path d="M0 0h1280v719.416H0z" fill="url(#C)" class="C"/><path d="M336.608 136.748h606.785v445.919H336.608z" fill="#ff7a54"/><path d="M361.626 540.53h561.811v41.553H361.626z" class="B"/><path d="M0 582.084h1279.998v137.332H0z" fill="url(#D)"/><g class="B"><path d="M361.626 182.819h561.811v9.402H361.626z"/><path d="M371.027 187.52v395.148h-9.402V187.52zm552.41 0v395.148h-9.402V187.52z"/></g><path d="M528.969 222.741c-5.625-4.777-17.625-13.021-34.625-14.27a96.88 96.88 0 0 0-2.937-.125c.031-2.904.156-4.465.25-5.214 11.344-3.091 10.75-11.491 10.625-12.521-.125-5.433-4.375-9.836-9.75-10.054a9.98 9.98 0 0 0-7.281 2.779c-2.062 1.936-3.219 4.528-3.25 7.338 0 .593.469 1.093 1.063 1.093.563 0 1.094-.468 1.094-1.062.031-2.217.969-4.278 2.563-5.808 1.594-1.499 3.625-2.28 5.719-2.186 4.156.156 7.594 3.747 7.656 7.994v.156c.062.312 1.094 7.744-9.687 10.367-.406.094-.687.406-.812.781-.031.156-.344 1.53-.375 6.339-17.375.219-30.187 8.15-35.156 11.803a1.29 1.29 0 0 0-.281 1.78 1.29 1.29 0 0 0 1.781.281c5.219-3.841 19.406-12.583 38.563-11.178 16.281 1.218 27.781 9.086 33.156 13.676a1.21 1.21 0 0 0 .813.312c.344 0 .719-.156.969-.437.5-.593.438-1.405-.094-1.842zm177.062-.526c-5.625-4.777-17.625-13.021-34.625-14.27a96.88 96.88 0 0 0-2.937-.125c.031-2.904.156-4.465.25-5.214 11.344-3.091 10.75-11.491 10.625-12.521-.125-5.433-4.375-9.836-9.75-10.054-2.687-.094-5.281.874-7.281 2.779-2.062 1.936-3.219 4.528-3.25 7.338 0 .593.469 1.093 1.063 1.093.563 0 1.094-.468 1.094-1.062.031-2.217.969-4.278 2.563-5.808 1.594-1.499 3.625-2.279 5.719-2.186 4.156.156 7.594 3.747 7.656 7.994v.156c.062.312 1.094 7.744-9.687 10.367-.406.094-.687.406-.812.781-.031.156-.344 1.53-.375 6.339-17.375.219-30.187 8.15-35.156 11.803a1.29 1.29 0 0 0-.281 1.78 1.29 1.29 0 0 0 1.781.281c5.219-3.841 19.406-12.584 38.563-11.178 16.281 1.218 27.781 9.086 33.156 13.676a1.21 1.21 0 0 0 .813.312c.344 0 .719-.156.969-.437.5-.593.438-1.374-.094-1.842zm153.156-.13c-5.625-4.777-17.625-13.021-34.625-14.27-1-.062-1.969-.094-2.937-.125.031-2.904.156-4.465.25-5.215 11.344-3.091 10.75-11.491 10.625-12.521-.125-5.433-4.375-9.836-9.75-10.054a9.98 9.98 0 0 0-7.281 2.779c-2.062 1.936-3.219 4.528-3.25 7.338 0 .593.469 1.093 1.063 1.093.563 0 1.094-.468 1.094-1.062.031-2.217.969-4.278 2.563-5.808 1.594-1.499 3.625-2.279 5.719-2.186 4.156.156 7.594 3.747 7.656 7.994v.156c.062.312 1.094 7.744-9.687 10.367-.406.094-.687.406-.812.781-.031.156-.344 1.53-.375 6.339-17.375.219-30.187 8.15-35.156 11.803a1.29 1.29 0 0 0-.281 1.78 1.29 1.29 0 0 0 1.781.281c5.219-3.841 19.406-12.584 38.563-11.178 16.281 1.218 27.781 9.086 33.156 13.676a1.21 1.21 0 0 0 .813.312 1.28 1.28 0 0 0 .969-.437c.531-.593.469-1.405-.094-1.842z" fill="#fff"/><path d="M843.562 255.215l6.368 11.842s8.063 8.056 22.469 0l-6.431-32.7a20.95 20.95 0 0 0-12.219-18.454l-13.125-5.995s-10.25 8.743-19.062 9.305h-.219-.219c-8.812-.593-19.062-9.305-19.062-9.305l-13.125 5.995a20.91 20.91 0 0 0-12.219 18.454l-3.53 32.286c14.406 8.056 22.469 0 22.469 0l3.468-11.428c8.906 14.394-3.375 38.094-3.375 38.094-20.344 31.318-14.844 129.332-14.844 129.332 14.938 5.339 28.469 7.494 40.25 7.869v.031h.219.219v-.031c1.287-.041 2.594-.103 3.922-.189 10.831-.7 23.022-2.951 36.328-7.679 0 0 5.5-98.014-14.844-129.332-.062 0-12.344-23.7-3.437-38.094z" class="E"/><path d="M652.219 210.069c2.094 7.713 9.188 12.958 16.938 12.708 7.188-.25 13.563-5.183 15.688-12.271l11.969 3.06c7.125 1.811 13 6.869 15.875 13.645l44.242 94.266-16.937 6.776-37.773-70.785 2.531 83.339-32.625 1.483-32.625 1.483-.355-7.244-3.458-78.655-30.494 70.638-19.5-3.809 37.588-96.68a22.62 22.62 0 0 1 17.125-15.612z" class="B"/><path d="M474.75 209.72s12.719 19.484 34.312 1.28l17.844 8.774c5.344 2.623 9.656 6.963 12.25 12.303 8.438 17.455 23.25 63.32 22.281 100.321l-13.125 4.652s-20.594-31.221-32.875-82.866c0 0-6.781 28.352 5.938 60.107 0 0 19.906 82.496 19.906 132.018 0 0-53.375 22.856-102.969-1.28 0 0 1.688-83.432 14.531-118.092 2.156-5.839 4.906-11.397 7.969-16.83 5.125-9.086 15.031-32.036 2.906-57.235 0 0-7.867 44.167-34.149 85.634l-14.844-2.966S419.219 280.913 442 233.92c4.531-9.336 12.531-16.58 22.25-20.265z" fill="#34c3ff"/><path d="M365.188 67.555l-31.531 76.032c3.406 9.711 16.094 16.736 30.656 17.142 15.688.437 30.031-6.901 33.5-17.423l24.313-75.97zm111.75-.437l-17.375 75.876c.406.718 10 17.298 29.188 17.704 12.75.281 24.687-6.682 30.812-17.985L530.219 66.9z" class="D"/><path d="M422.157 67.336l-24.312 75.97c5.375 11.865 17.031 19.64 29.906 19.984 13.594.375 26.219-7.65 31.812-20.265l17.375-75.876zm108.062-.406l-10.656 75.813c6.188 11.709 18.531 18.766 31.469 17.985 18.406-1.124 27.125-17.486 27.531-18.267l4.063-75.751z" class="F"/><path d="M582.594 66.712l-4.062 75.751c7.156 11.959 20.375 18.641 33.5 16.986 16.187-2.03 24.219-15.675 25.094-17.236l-2.5-75.688zm211.562-.781l22.5 75.501c1.031 1.499 11.469 16.268 30.531 16.768 20.563.562 32.063-15.987 32.813-17.08l-29.562-75.439z" class="D"/><path d="M850.437 65.712L880 141.151c.813 1.124 13.937 18.547 35.844 17.08 18.781-1.28 29.156-15.456 30.5-17.361l-36.906-75.345zm-215.812.812l2.5 75.688c5.406 11.366 16.969 18.61 29.563 18.516 12.531-.094 23.938-7.431 29.219-18.766l-9.062-75.626z" class="F"/><path d="M686.875 66.337l9.062 75.626c.594.906 11.188 16.674 30.5 16.237 18.563-.406 28.375-15.331 29.125-16.518l-15.719-75.564z" class="D"/><path d="M739.844 66.118l15.719 75.564c6.562 11.428 18.875 18.298 31.906 17.767 19.125-.78 28.688-17.111 29.219-18.048l-22.5-75.501z" class="F"/><path d="M154.545 263.53c.25-7.869 8.906-14.27 16.531-12.209 3.656.999 6.781 3.528 10.531 4.278 4.219.843 8.75-.905 11.719-3.997 2.969-3.122 4.469-7.463 4.594-11.74.062-2.154-.312-4.559-1.969-5.964-3.406-2.904-8.406.531-12.844 1.093-.312.031-.656.062-.969-.062-.5-.187-.75-.718-.969-1.187-2.875-5.558-9.656-8.805-15.812-7.556s-11.125 6.869-11.625 13.114c-2.937-3.685-11.75-2.061-15.781.344-4.062 2.435-6.062 7.681-7.031 12.303-.906 4.278 1.75 16.393 9.969 18.735.469.156 3.438-12.303 13.656-7.151z"/><path d="M164.541 243.097a19.937 24.606 14.193 0 0-22.537 19.441 19.937 24.606 14.193 0 0 3.15 21.282l-4.922 11.467s2.938 12.896 21.094 4.09v-7.767a19.937 24.606 14.193 0 0 19.344-19.338 19.937 24.606 14.193 0 0-13.316-28.727 19.937 24.606 14.193 0 0-2.812-.449zm118.697 90.122c-2.002.062-3.977.859-5.506 2.317l-4.125 3.966c1.563-4.278-2.437-1.717-5.312.5-1.594 1.249-3 2.716-4.187 4.34l-6.906 9.524c-1.187 9.086 4.406 12.303 4.375 12.303 2.938-.593 11.719-4.684 11.719-4.684 12.031-5.87 17.594-19.921 17.594-19.921.906-3.466-.875-5.714-3.125-7.119a8.03 8.03 0 0 0-4.525-1.224zM126.17 400.732c-.031 0-4.5 6.245-12.906 8.212l8.781 14.051s5.281 6.432 18.188-5.87c0 0 1.188-4.684-14.062-16.393zM69.764 557.574l-2.531 9.804 9.688 1.749 6.375-9.836c-.437.094-.812.125-1.187.156-3.187 0-6.406-.062-10.906-1.249-.562-.219-1.031-.406-1.437-.625zm98.594 2.5s-8.187 4.144-14.062 1.218l-2.062 8.261h11.438z" fill="#bc9353"/><path d="M169.26 263.948c0 1.689 1.37 3.055 3.051 3.055s3.056-1.374 3.056-3.055a3.06 3.06 0 0 0-3.056-3.051c-1.681 0-3.051 1.37-3.051 3.051m-20.289 0a3.06 3.06 0 0 0 3.056 3.055 3.06 3.06 0 0 0 3.051-3.055c0-1.681-1.37-3.051-3.051-3.051a3.06 3.06 0 0 0-3.056 3.051" class="C"/><path d="M166.819 273.64a5.65 5.65 0 0 1-5.65 5.649c-3.118 0-5.651-2.532-5.651-5.649m6.838-2.311c-1.316 0-2.374-1.067-2.374-2.375a2.38 2.38 0 0 1 2.374-2.374" class="C G" fill="none" stroke="#000" stroke-width="1.052"/><path d="M140.232 295.287c-14.641.593-25.188 5.263-25.211 5.273 0-.01 0-.019-.01-.027 0 0-71.92 29.069-15.842 93.871-1.667 18.611-8.183 75.871-31.064 162.14 0 0 5.281 4.684 18.188 2.342 0 0 38.125-46.275 48.656-124.774 0 0 27.812 82.152 18.406 126.678 0 0 8.5 5.277 17-.281 0 0 30.25-81.278-8.437-165.647 0-26.947 10.562-49.21 10.562-49.21 36.344 58.015 89.125 20.515 89.125 20.515-4.719-2.342-4.719-11.147-4.719-11.147-6.844 2.748-13.031 4.028-18.5 4.434-13.594.937-26.625-5.808-33.812-17.361-27.875-44.776-43.25-42.715-43.25-42.715-18.187 8.774-21.094-4.09-21.094-4.09zm-24.613 37.946c0 0-.012.148-.012.148l-10.877 36.974c-3.409-11.26-2.254-24.37 10.877-37.036 0 0 .012-.085.012-.086zm45.539 62.289c-.727.621-2.009 1.586-4.111 2.769 1.964-1.104 3.348-2.132 4.111-2.769zM67.232 566.857l-4.125 10.554 28.438 5.246-14.656-14.051zm85 2.697l-3.219 12.021 34.312.874-19.656-12.896z" class="E"/><path d="M113.513 411.255a.84.84 0 0 0-.844.843v4.59a.84.84 0 0 0 .844.843h27.678l5.813 18.879.025-.01 19.953 72.43c1.563 5.62 6.594 9.367 12.281 9.367a13.09 13.09 0 0 0 1.531-.094l26.232-3.091c-29.338 6.982-43.946 16.938-51.17 25.511-7.156 8.462-6.844 15.331-6.812 15.612.062 1.062.875 1.873 1.875 1.873l124.121-1.421a12.312 12.303 0 0 0-5.715 10.382 12.312 12.303 0 0 0 12.313 12.303 12.312 12.303 0 0 0 12.313-12.303 12.312 12.303 0 0 0-5.947-10.53l15.76-.179c1.063-.031 1.875-.937 1.875-2.03s-.844-1.967-1.875-1.967h-.031l-150.656 1.749c1.656-7.931 14.625-37.813 116.344-43.059 1.031-.062 1.843-.999 1.781-2.092-.015-.544-.24-1.009-.58-1.347l12.424-1.464a12.84 12.84 0 0 0 11.219-11.647l3.562-43.714c.281-3.528-.875-6.932-3.25-9.586s-5.656-4.154-9.219-4.215l-135.353-2.738-5.307-17.236a.82.82 0 0 0 .035-.228v-4.59a.84.84 0 0 0-.844-.843zm37.531 26.416l16.562.332 3.941 17.392-15.508.408zm20.201.404l16.514.33-.311.061 3.174 16.426-15.475.408zm19.801.396l15.916.318 2.576 15.603-15.338.406zm19.508.39l24.777.496-.685 14.373-21.545.568zm28.309.566l18.551.371-1.26 13.364-17.967.474zm22.092.443l17.865.357-1.156 12.369-17.953.472zm18.018.359l6.322.127a9.22 9.22 0 0 1 6.688 3.06c1.719 1.936 2.563 4.403 2.344 6.963l-.145 1.782-12.961.341 1.119-11.959zm14.92 15.47l-.775 9.526-13.193 1.128.965-10.312zm-16.561.437l-.984 10.523-18.065 1.546 1.094-11.596zm-21.512.566l-1.113 11.807-17.299 1.481.609-12.818zm-21.342.564l-.621 13.027-17.863 1.528-2.312-14.006zm-24.359.642l2.346 14.215-14.672 1.255-2.912-15.068zm-18.816.496l2.953 15.277-14.658 1.255-3.654-16.127zm-18.959.5l3.701 16.334-13.998 1.198.144 1.682-5.184-18.811zm120.482 9.887l-1.084 13.325-13.426 1.419 1.273-13.612zm-16.812 1.438l-1.279 13.684-18.111 1.914 1.324-14.053zm-21.643 1.85l-1.332 14.129-16.486 1.741.686-14.404zm-20.682 1.77l-.69 14.476-14.037 1.483-2.393-14.496zm-20.648 1.766l2.404 14.566-14.117 1.491-2.863-14.81zm-18.113 1.55l2.877 14.88-13.996 1.479-3.424-15.117zm-18.096 1.548l3.441 15.187-13.344 1.409-4.24-15.386zm114.617 6.983l-.685 8.431c-.344 4.372-3.75 7.931-8.125 8.431l-6.17.728 1.512-16.165zm-17.051 1.803l-1.516 16.207-18.147 2.139 1.549-16.432zm-21.697 2.293l-1.553 16.477-15.555 1.835.789-16.586zm-19.871 2.1l-.793 16.629-9.797 1.155-2.703-16.379zm-16.81 1.778l2.711 16.42-13.535 1.596L202 495.15zm-17.543 1.854l3.203 16.576-13.307 1.569-3.779-16.678zm-17.418 1.84l3.787 16.721-4.457.525c-4.562.531-8.781-2.311-10-6.745l-2.51-9.108zm-5.514 60.398a12.312 12.303 0 0 0-12.312 12.303 12.312 12.303 0 0 0 12.312 12.303 12.312 12.303 0 0 0 12.313-12.303 12.312 12.303 0 0 0-12.312-12.303z" class="B"/><path d="M267.326 347.369l14.656-16.081c1.031-1.124 2.781-1.187 3.875-.156l5.969 5.62c1.094 1.03 1.156 2.748.125 3.841l-15.437 16.362c-1.094 1.155-2.969 1.124-4.031-.062l-5.219-5.901c-.875-1.03-.844-2.592.062-3.622z" class="E"/><path d="M1140.575 303.974c-1.094-3.685-1.469-7.556-1.031-11.366.219-1.905.594-3.841.125-5.683-.875-3.403-4.344-5.308-7.375-7.057-3-1.717-14.5-9.118-16.031-12.24-5-10.21-18.75-30.194-39.625-22.201-3.562 1.374-7.656 1.03-11.062 2.779-3.875 1.967-6.031 5.214-8.687 8.524-2.562 3.185-4.562 7.307-3.937 11.522.281 1.873 1 3.685 1 5.558.031 5.808-6.594 10.648-5.062 16.237 1 3.653 5.406 6.276 4.844 10.054-.344 2.436-2.625 4.028-3.906 6.12-1.719 2.873-1.312 6.869 1 9.305 1 1.062 2.344 1.905 2.75 3.31.969 3.247-3.812 5.714-3.781 9.118.031 2.935 3.688 5.027 3.406 7.962-.281 3.06-2.906 4.746.406 7.119 1.844 1.311 4.688 2.311 6.938 2.592 6.25.781 9.688-5.402 15.5-6.214 3.625-.5 7.063 1.467 10.281 3.154s7.031 3.247 10.437 1.873c3.563-1.436 5.656-5.714 9.438-6.432 3.219-.593 6.219 1.655 9.406 2.342 2.625.562 5.469-.031 7.688-1.561 1.469-.999 2.594-2.404 3.813-3.685 1.625-1.717 4.438-3.247 5.656-5.246.938-1.53.781-3.497 1.656-5.09 2.063-3.778 6.625-5.745 7.938-10.054 1.063-3.497-.719-7.182-1.781-10.741z"/><path d="M1078.887 256.076a17.937 21.077 0 0 0-17.937 21.077 17.937 21.077 0 0 0 14.064 20.524c.951 11.578-8.439 16.008-8.439 16.008 26.156 13.864 32.594-5.558 32.594-5.558-7.633-2.223-10.179-9.3-10.988-12.986a17.937 21.077 0 0 0 8.644-17.989 17.937 21.077 0 0 0-17.937-21.077zm-102.73 61.07c-3.915 0-17.911 1.191 8.713 19.873l12.75 8.146 3.537-6.756-8.486-7.152s-.993-11.061-15.6-14.086c0 0-.355-.024-.914-.024zm187.355 70.386l-7.281 2.279.938 11.053s-7.125 8.524 1.063 20.983c0 0 14.938 17.049 8.531-19.547zm-31 82.277l-6.719 2.186c-4.187 1.624-8.25 2.935-12.125 3.934l-.094.031 43.156 74.408s7.125 1.905 9.5-4.278c-.062.031-12.375-54.019-33.719-76.282zm-57.406 5.683l3.781 89.552s1.438 7.119 10.437 1.436c0 0 9.938-48.679 9-88.459-9.469.281-17.312-.999-23.062-2.498z" fill="#ff7b54"/><path d="M1083.909 274.404c0 1.592 1.293 2.881 2.886 2.881a2.88 2.88 0 0 0 2.882-2.881c0-1.592-1.293-2.881-2.882-2.881s-2.886 1.289-2.886 2.881m-15.22-.531c0 1.537 1.245 2.786 2.783 2.786s2.783-1.248 2.783-2.786a2.78 2.78 0 0 0-2.783-2.782c-1.538 0-2.783 1.248-2.783 2.782" class="C"/><path d="M1083.93 283.34c0 2.926-2.367 5.307-5.308 5.307s-5.308-2.367-5.308-5.307m6.434-2.165a2.23 2.23 0 0 1-2.226-2.225 2.23 2.23 0 0 1 2.226-2.225" class="C G" fill="none" stroke="#000" stroke-width=".984"/><path d="M1099.199 308.096c-10.562 18.954-32.625 5.558-32.625 5.589-49.812 41.466-71.625 18.953-71.625 18.953l-5.687 7.806c46.937 38.375 77.062.937 77.062.937l7.594 35.315s-17.312 35.315-14.937 95.953c0 0 37 19.89 86.781-10.648.031 0-9.392-65.218-35.795-89.074l-2.236-38.291c31.312-4.746 47.312 56.267 47.312 56.267l9.25-2.841c-5.687-82.464-65.094-79.966-65.094-79.966zm66.969 238.025c-2.375 6.151-9.5 4.278-9.5 4.278l-9.969 21.795 27.969-17.049zm-87.25 18.953l-24.187 17.548 35.562-.937-.937-15.175c-9.031 5.652-10.437-1.436-10.437-1.436z" class="D"/><path d="M1165.834 406.837c-3.266.121-5.921 1.291-7.072 2.178-11.219 8.68-8.781 37.688-8.719 38.937l3.531-.219c-.5-7.931.031-29.726 8.313-35.69 2.718-1.935 20.084-5.149 22.373 36.252h-43.904l-9.687 69.444 58.875.031v.031l14.219-4.34-8.656-60.826-.625-4.34h-6.516c-1.52-35.271-13.809-41.767-22.131-41.459z" class="B"/><path d="M1155.299 413.327l-1.693.121c-15.836 1.822-16.917 30.003-17.252 32.583l-6.623-.265-8.5 53.176 45.633 2.213-.01.035 20.906-5.683-9.687-47.805-38.931-1.559c.209-2.265 2.082-28.333 15.275-30.165 15.469-2.123 13.438 26.728 12.531 31.193l3.438.125c.636-9.407 1.828-34.376-15.088-33.969z" fill="#34c3ff"/><g class="B"><circle cx="366.449" cy="187.288" r="16.794"/><circle cx="918.514" cy="187.697" r="16.794"/></g></svg>