<?xml version="1.0" encoding="UTF-8" standalone="no"?>
<!DOCTYPE svg PUBLIC "-//W3C//DTD SVG 1.1//EN"
 "http://www.w3.org/Graphics/SVG/1.1/DTD/svg11.dtd">
<!-- Generated by graphviz version 14.1.2 (0)
 -->
<!-- Title: PDG_Protobject Pages: 1 -->
<svg width="197pt" height="423pt"
 viewBox="0.00 0.00 197.00 423.00" xmlns="http://www.w3.org/2000/svg" xmlns:xlink="http://www.w3.org/1999/xlink">
<g id="graph0" class="graph" transform="scale(1 1) rotate(0) translate(21.6 401.6)">
<title>PDG_Protobject</title>
<polygon fill="#fbf6eb" stroke="none" points="-21.6,21.6 -21.6,-401.6 175.6,-401.6 175.6,21.6 -21.6,21.6"/>
<g id="clust1" class="cluster">
<title>cluster_loop</title>
<path fill="#fbf6eb" stroke="#8b2418" stroke-width="1.8" stroke-dasharray="5,2" d="M20,-8C20,-8 134,-8 134,-8 140,-8 146,-14 146,-20 146,-20 146,-360 146,-360 146,-366 140,-372 134,-372 134,-372 20,-372 20,-372 14,-372 8,-366 8,-360 8,-360 8,-20 8,-20 8,-14 14,-8 20,-8"/>
<text xml:space="preserve" text-anchor="start" x="41.88" y="-358.55" font-family="Arial" font-weight="bold" font-size="11.00">loop</text>
<text xml:space="preserve" text-anchor="start" x="16" y="-349.45" font-family="Arial" font-size="9.00" fill="#8b2418">alcance de control</text>
</g>
<!-- n1 -->
<g id="node1" class="node">
<title>n1</title>
<path fill="#fbf6eb" stroke="#1a1612" stroke-width="1.5" d="M111.39,-326C111.39,-326 42.61,-326 42.61,-326 36.61,-326 30.61,-320 30.61,-314 30.61,-314 30.61,-302 30.61,-302 30.61,-296 36.61,-290 42.61,-290 42.61,-290 111.39,-290 111.39,-290 117.39,-290 123.39,-296 123.39,-302 123.39,-302 123.39,-314 123.39,-314 123.39,-320 117.39,-326 111.39,-326"/>
<text xml:space="preserve" text-anchor="middle" x="77" y="-304.3" font-family="Arial" font-size="11.00" fill="#1a1612">1 &#160;&#160;ReadTilt #1</text>
</g>
<!-- n2 -->
<g id="node2" class="node">
<title>n2</title>
<path fill="#fbf6eb" stroke="#1a1612" stroke-width="1.5" d="M115.52,-238C115.52,-238 38.48,-238 38.48,-238 32.48,-238 26.48,-232 26.48,-226 26.48,-226 26.48,-214 26.48,-214 26.48,-208 32.48,-202 38.48,-202 38.48,-202 115.52,-202 115.52,-202 121.52,-202 127.52,-208 127.52,-214 127.52,-214 127.52,-226 127.52,-226 127.52,-232 121.52,-238 115.52,-238"/>
<text xml:space="preserve" text-anchor="middle" x="77" y="-216.3" font-family="Arial" font-size="11.00" fill="#1a1612">2 &#160;&#160;Arithmetic [+]</text>
</g>
<!-- n1&#45;&gt;n2 -->
<g id="edge1" class="edge">
<title>n1&#45;&gt;n2</title>
<path fill="none" stroke="#4a3f33" stroke-width="1.3" d="M77,-289.6C77,-278.36 77,-263.47 77,-250.43"/>
<polygon fill="#4a3f33" stroke="#4a3f33" stroke-width="1.3" points="80.5,-250.64 77,-240.64 73.5,-250.64 80.5,-250.64"/>
<text xml:space="preserve" text-anchor="middle" x="90.5" y="-260.5" font-family="Arial" font-size="10.00" fill="#8b2418"> tilt_1 </text>
</g>
<!-- n3 -->
<g id="node3" class="node">
<title>n3</title>
<path fill="#fbf6eb" stroke="#1a1612" stroke-width="1.5" d="M112.64,-150C112.64,-150 39.36,-150 39.36,-150 33.36,-150 27.36,-144 27.36,-138 27.36,-138 27.36,-126 27.36,-126 27.36,-120 33.36,-114 39.36,-114 39.36,-114 112.64,-114 112.64,-114 118.64,-114 124.64,-120 124.64,-126 124.64,-126 124.64,-138 124.64,-138 124.64,-144 118.64,-150 112.64,-150"/>
<text xml:space="preserve" text-anchor="middle" x="76" y="-128.3" font-family="Arial" font-size="11.00" fill="#1a1612">3 &#160;&#160;PlayTone #1</text>
</g>
<!-- n2&#45;&gt;n3 -->
<g id="edge2" class="edge">
<title>n2&#45;&gt;n3</title>
<path fill="none" stroke="#4a3f33" stroke-width="1.3" d="M76.8,-201.6C76.67,-190.36 76.49,-175.47 76.34,-162.43"/>
<polygon fill="#4a3f33" stroke="#4a3f33" stroke-width="1.3" points="79.84,-162.6 76.23,-152.64 72.84,-162.68 79.84,-162.6"/>
<text xml:space="preserve" text-anchor="middle" x="90.06" y="-172.5" font-family="Arial" font-size="10.00" fill="#8b2418"> pitch </text>
</g>
<!-- n4 -->
<g id="node4" class="node">
<title>n4</title>
<path fill="#4a3f33" stroke="#1a1612" stroke-width="1.5" d="M79.89,-62C79.89,-62 38.11,-62 38.11,-62 32.11,-62 26.11,-56 26.11,-50 26.11,-50 26.11,-38 26.11,-38 26.11,-32 32.11,-26 38.11,-26 38.11,-26 79.89,-26 79.89,-26 85.89,-26 91.89,-32 91.89,-38 91.89,-38 91.89,-50 91.89,-50 91.89,-56 85.89,-62 79.89,-62"/>
<text xml:space="preserve" text-anchor="middle" x="59" y="-40.3" font-family="Arial" font-size="11.00" fill="#fbf6eb">4 &#160;&#160;Delay</text>
</g>
<!-- n3&#45;&gt;n4 -->
<g id="edge3" class="edge">
<title>n3&#45;&gt;n4</title>
<path fill="none" stroke="#8b2418" stroke-width="2" d="M68.84,-113.57C66.62,-107.48 64.39,-100.53 63,-94 61.73,-88.02 60.85,-81.54 60.25,-75.32"/>
<polygon fill="#8b2418" stroke="#8b2418" stroke-width="2" points="63.75,-75.14 59.55,-65.41 56.77,-75.63 63.75,-75.14"/>
</g>
<!-- n3&#45;&gt;n4 -->
<g id="edge4" class="edge">
<title>n3&#45;&gt;n4</title>
<path fill="none" stroke="#5a6b3b" stroke-width="1.3" stroke-dasharray="5,2" d="M72.56,-113.6C70.32,-102.25 67.33,-87.16 64.74,-74.02"/>
<polygon fill="#5a6b3b" stroke="#5a6b3b" stroke-width="1.3" points="68.25,-73.73 62.88,-64.6 61.38,-75.09 68.25,-73.73"/>
<text xml:space="preserve" text-anchor="middle" x="84.64" y="-84.5" font-family="Arial" font-size="10.00" fill="#5a6b3b"> sound </text>
</g>
</g>
</svg>
