<svg width="1280" height="720" viewBox="0 0 1280 720" fill="none" xmlns="http://www.w3.org/2000/svg">
<g clip-path="url(#clip0_410_4774)">
<rect width="1280" height="720" fill="#ECFAFF"/>
<path d="M0 -0.25H1280V719.749H0V-0.25Z" fill="url(#paint0_radial_410_4774)"/>
<path d="M46.857 -159.678L648.036 359.996L444.699 -152.167L46.857 -159.678Z" fill="#FF7B54" fill-opacity="0.5"/>
<path d="M1093 -284L638 367.5L1356.5 -20.2906L1093 -284Z" fill="#FF7B54" fill-opacity="0.5"/>
<path d="M1246.84 865.546L639.569 353.003L848.936 862.731L1246.84 865.546Z" fill="#FF7B54" fill-opacity="0.5"/>
<path d="M307.344 1057.05L649.857 340.001L4.32064 839.908L307.344 1057.05Z" fill="#FF7B54" fill-opacity="0.5"/>
<path d="M-134.895 520.73L641.827 352.862L-148.573 148.187L-134.895 520.73Z" fill="#FF7B54" fill-opacity="0.5"/>
<path d="M1418.72 519.73L642 351.862L1432.4 147.187L1418.72 519.73Z" fill="#FF7B54" fill-opacity="0.5"/>
<path d="M481.449 401.22L604.392 494.151C604.392 494.151 723.485 488.963 763.762 436.433C801.543 387.157 805.104 336.848 783.441 278.655C762.991 223.72 730.996 192.086 674.945 174.929C608.86 154.702 548.511 179.868 502.613 231.538C455.411 284.676 481.449 401.22 481.449 401.22Z" fill="#D99773"/>
<path d="M461.246 223.858C432.233 294.016 481.635 399.734 481.635 399.734L535.539 209.946C533.987 204.881 538.932 189.206 571.126 167.02C603.319 144.834 595.817 121.224 588.042 112.192C580.267 103.161 548.859 118.006 532.043 124.861C488.512 142.609 478.489 182.162 461.246 223.858Z" fill="#D99773"/>
<path d="M86.6052 930.713C70.6616 995.201 21.369 1104.03 64.0538 1156.34C102.676 1232.61 217.325 1245.71 298.626 1263.25C310.516 1265.81 396.639 1360.08 416.299 1370.81C442.943 1332.9 390.679 1338.26 396.546 1205.47C349.075 1202.72 467.961 1064.03 380.4 1018.25C379.781 930.237 521.09 553.199 630 479.499L482.373 346.6C480.802 348.583 479.209 350.551 477.592 352.504C396.218 473.246 143.135 794.997 86.6052 930.713Z" fill="#D99773"/>
<path d="M717.903 101.184C678.768 96.3076 623.315 133.728 584.275 174.711L780.126 406.231C799.653 374.907 838.582 306.802 838.08 284.972C837.578 263.142 825.503 253.842 819.528 251.921C825.686 245.635 835.398 228.102 824.974 208.26C814.549 188.417 795.943 185.156 787.943 186.005C791.189 185.57 794.885 170.747 786.137 156.051C773.497 134.819 753.758 135.553 743.341 139.628C751.525 134.603 739.734 103.904 717.903 101.184Z" fill="#D99773"/>
<path fill-rule="evenodd" clip-rule="evenodd" d="M654.279 134.566C651.353 134.201 648.402 135.013 646.076 136.824C643.749 138.634 642.237 141.295 641.872 144.221C641.507 147.147 642.319 150.098 644.13 152.424C645.941 154.751 648.601 156.263 651.527 156.628L668.78 158.78L665.984 181.197C673.404 181.468 680.787 182.389 688.046 183.949L690.842 161.532L708.095 163.684C711.021 164.049 713.971 163.237 716.298 161.426C718.625 159.615 720.137 156.954 720.502 154.029C720.867 151.103 720.055 148.152 718.244 145.825C716.433 143.498 713.773 141.986 710.847 141.621L654.279 134.566ZM753.974 221.418C759.031 226.856 763.601 232.727 767.632 238.963L785.46 225.094L792.637 234.316C794.463 236.595 797.113 238.063 800.014 238.404C802.915 238.744 805.833 237.93 808.138 236.136C810.443 234.342 811.949 231.714 812.331 228.818C812.714 225.923 811.941 222.993 810.181 220.663L796.345 202.884L796.006 202.442L782.17 184.668C781.282 183.492 780.169 182.505 778.896 181.763C777.623 181.021 776.215 180.54 774.755 180.347C773.294 180.154 771.809 180.253 770.387 180.639C768.965 181.025 767.634 181.69 766.472 182.595C765.309 183.5 764.337 184.627 763.614 185.91C762.891 187.194 762.43 188.608 762.258 190.072C762.086 191.535 762.207 193.018 762.613 194.434C763.02 195.85 763.704 197.172 764.625 198.321L771.802 207.544L753.974 221.418ZM575.328 214.972C580.766 209.917 586.637 205.349 592.873 201.319L579 183.486L588.221 176.314C589.374 175.417 590.338 174.303 591.06 173.033C591.781 171.764 592.246 170.365 592.427 168.917C592.607 167.468 592.501 165.998 592.114 164.59C591.727 163.182 591.066 161.865 590.17 160.713C589.273 159.56 588.159 158.596 586.889 157.874C585.62 157.153 584.221 156.688 582.773 156.507C581.324 156.326 579.854 156.432 578.446 156.82C577.038 157.207 575.721 157.868 574.568 158.764L556.653 172.706L556.571 172.77L556.489 172.833L538.574 186.775C536.295 188.602 534.827 191.252 534.486 194.153C534.146 197.054 534.96 199.972 536.754 202.277C538.548 204.581 541.176 206.088 544.072 206.47C546.967 206.853 549.897 206.08 552.227 204.32L561.454 197.144L575.328 214.972Z" fill="#4F4F4F"/>
<path d="M627.885 185.598C660.208 176.7 694.742 181.007 723.89 197.571C753.038 214.135 774.412 241.6 783.31 273.923C792.208 306.246 787.901 340.78 771.337 369.928C754.773 399.076 727.308 420.45 694.985 429.348C662.662 438.246 628.128 433.939 598.98 417.375C569.832 400.811 548.458 373.346 539.56 341.023C530.662 308.7 534.969 274.165 551.533 245.018C568.097 215.87 595.562 194.496 627.885 185.598Z" fill="#F2F2F2" stroke="#BDBDBD" stroke-width="1.16675" stroke-linecap="round" stroke-linejoin="round"/>
<path d="M587.801 251.348L578.739 244.441C577.829 245.635 577.164 246.996 576.781 248.448C576.398 249.899 576.306 251.412 576.509 252.899C576.713 254.386 577.208 255.819 577.966 257.114C578.725 258.41 579.731 259.542 580.929 260.448L587.801 251.348ZM587.818 251.33L594.694 242.236C592.289 240.417 589.261 239.625 586.274 240.033C583.286 240.441 580.582 242.016 578.753 244.413L587.818 251.33ZM596.912 258.206L605.971 265.127C606.883 263.934 607.549 262.572 607.933 261.12C608.317 259.668 608.41 258.154 608.207 256.666C608.004 255.178 607.509 253.745 606.751 252.448C605.993 251.152 604.986 250.018 603.788 249.112L596.912 258.206ZM596.894 258.229L590.009 267.317C592.413 269.139 595.441 269.933 598.429 269.527C601.418 269.121 604.123 267.547 605.954 265.15L596.894 258.229ZM569.67 295.041L558.374 293.504C558.17 294.998 558.264 296.517 558.652 297.975C559.039 299.432 559.712 300.798 560.631 301.993C561.549 303.189 562.696 304.19 564.005 304.939C565.314 305.688 566.758 306.17 568.254 306.358L569.67 295.041ZM569.674 295.017L571.085 283.699C568.107 283.327 565.102 284.145 562.722 285.976C560.343 287.806 558.782 290.5 558.377 293.475L569.674 295.017ZM580.991 296.428L592.285 297.985C592.492 296.489 592.399 294.967 592.012 293.507C591.625 292.047 590.952 290.678 590.032 289.481C589.113 288.283 587.964 287.28 586.653 286.53C585.343 285.779 583.896 285.297 582.398 285.11L580.991 296.428ZM580.987 296.457L579.571 307.769C582.548 308.142 585.552 307.326 587.931 305.499C590.311 303.672 591.874 300.981 592.282 298.009L580.987 296.457ZM575.586 342.245L565.017 346.521C565.584 347.922 566.424 349.196 567.488 350.269C568.552 351.343 569.819 352.194 571.215 352.773C572.61 353.353 574.107 353.649 575.619 353.645C577.13 353.641 578.625 353.337 580.018 352.75L575.586 342.245ZM575.575 342.219L571.138 331.718C568.381 332.884 566.194 335.087 565.047 337.852C563.901 340.616 563.888 343.721 565.011 346.495L575.575 342.219ZM586.08 337.783L596.656 333.532C596.092 332.127 595.254 330.849 594.19 329.771C593.127 328.694 591.859 327.839 590.462 327.257C589.064 326.675 587.565 326.377 586.051 326.38C584.537 326.383 583.039 326.688 581.644 327.277L586.08 337.783ZM586.092 337.809L590.524 348.314C593.279 347.152 595.467 344.954 596.617 342.195C597.767 339.435 597.787 336.333 596.673 333.559L586.092 337.809ZM604.452 380.513L597.432 389.496C598.623 390.428 599.988 391.113 601.447 391.512C602.906 391.911 604.429 392.016 605.929 391.82C607.429 391.624 608.874 391.132 610.182 390.373C611.49 389.613 612.633 388.6 613.546 387.394L604.452 380.513ZM604.434 380.501L595.34 373.62C593.533 376.007 592.738 379.009 593.126 381.977C593.515 384.945 595.054 387.642 597.414 389.484L604.434 380.501ZM611.31 371.402L618.348 362.431C617.157 361.496 615.791 360.808 614.331 360.406C612.87 360.005 611.345 359.899 609.843 360.094C608.341 360.289 606.893 360.781 605.583 361.542C604.274 362.303 603.129 363.317 602.216 364.525L611.31 371.402ZM611.332 371.424L620.421 378.305C622.228 375.921 623.025 372.923 622.642 369.957C622.258 366.991 620.724 364.294 618.371 362.448L611.332 371.424ZM648.962 399.277L647.42 410.573C648.914 410.777 650.434 410.681 651.891 410.294C653.349 409.906 654.715 409.233 655.91 408.313C657.106 407.394 658.107 406.247 658.856 404.938C659.605 403.629 660.087 402.184 660.275 400.688L648.962 399.277ZM648.938 399.274L637.62 397.862C637.249 400.841 638.067 403.846 639.897 406.225C641.727 408.604 644.421 410.166 647.396 410.57L648.938 399.274ZM650.349 387.957L651.906 376.662C650.41 376.455 648.887 376.548 647.427 376.934C645.967 377.321 644.599 377.993 643.401 378.913C642.203 379.833 641.2 380.982 640.45 382.293C639.7 383.604 639.217 385.051 639.031 386.55L650.349 387.957ZM650.374 387.96L661.691 389.371C662.062 386.395 661.246 383.393 659.419 381.014C657.592 378.636 654.901 377.073 651.93 376.665L650.374 387.96ZM697.121 392.968L701.522 403.484C702.905 402.904 704.161 402.058 705.216 400.993C706.272 399.927 707.107 398.664 707.674 397.276C708.24 395.887 708.527 394.4 708.518 392.9C708.509 391.401 708.205 389.918 707.621 388.536L697.121 392.968ZM697.095 392.98L686.595 397.417C687.769 400.195 689.997 402.395 692.79 403.534C695.583 404.674 698.713 404.66 701.496 403.495L697.095 392.98ZM692.658 382.479L688.259 371.953C686.874 372.532 685.617 373.379 684.56 374.444C683.503 375.51 682.666 376.774 682.099 378.163C681.531 379.553 681.243 381.04 681.252 382.541C681.26 384.042 681.565 385.527 682.149 386.91L692.658 382.479ZM692.685 382.462L703.19 378.031C702.018 375.25 699.792 373.047 696.999 371.905C694.206 370.763 691.075 370.775 688.29 371.938L692.685 382.462ZM735.518 363.075L744.635 369.924C746.447 367.513 747.23 364.481 746.812 361.494C746.393 358.507 744.808 355.807 742.403 353.986L735.518 363.075ZM735.506 363.093L728.629 372.187C729.826 373.091 731.189 373.751 732.64 374.127C734.092 374.504 735.603 374.591 737.088 374.383C738.573 374.175 740.003 373.676 741.295 372.914C742.587 372.153 743.716 371.145 744.618 369.947L735.506 363.093ZM726.411 356.217L717.287 349.376C715.476 351.79 714.696 354.823 715.117 357.811C715.538 360.798 717.126 363.497 719.534 365.316L726.411 356.217ZM726.429 356.194L733.309 347.105C732.112 346.199 730.747 345.537 729.294 345.159C727.841 344.782 726.327 344.695 724.84 344.904C723.353 345.113 721.921 345.613 720.628 346.377C719.335 347.141 718.206 348.152 717.305 349.354L726.429 356.194ZM753.449 317.939L764.782 319.219C765.119 316.238 764.267 313.243 762.41 310.886C760.553 308.528 757.842 306.998 754.864 306.627L753.449 317.939ZM753.445 317.963L752.039 329.276C753.536 329.463 755.055 329.351 756.508 328.946C757.961 328.542 759.319 327.853 760.504 326.92C761.689 325.987 762.677 324.828 763.411 323.51C764.145 322.193 764.61 320.742 764.779 319.244L753.445 317.963ZM742.133 316.552L730.802 315.286C730.468 318.268 731.322 321.261 733.18 323.616C735.038 325.972 737.749 327.5 740.726 327.87L742.133 316.552ZM742.137 316.523L743.548 305.21C742.05 305.023 740.53 305.136 739.075 305.541C737.621 305.946 736.262 306.636 735.077 307.571C733.891 308.505 732.904 309.666 732.17 310.986C731.437 312.305 730.973 313.757 730.806 315.257L742.137 316.523ZM746.183 270.187L756.62 265.589C755.413 262.85 753.178 260.695 750.396 259.589C747.614 258.484 744.509 258.517 741.751 259.682L746.183 270.187ZM746.195 270.208L750.632 280.709C752.024 280.12 753.286 279.261 754.343 278.18C755.401 277.1 756.232 275.819 756.79 274.414C757.348 273.009 757.621 271.507 757.593 269.996C757.565 268.484 757.237 266.993 756.627 265.61L746.195 270.208ZM735.693 274.65L725.265 279.258C726.474 281.993 728.71 284.143 731.49 285.245C734.269 286.347 737.371 286.313 740.126 285.15L735.693 274.65ZM735.678 274.618L731.246 264.118C729.851 264.707 728.587 265.567 727.528 266.649C726.469 267.732 725.637 269.014 725.079 270.421C724.521 271.829 724.249 273.333 724.279 274.847C724.309 276.36 724.64 277.853 725.253 279.237L735.678 274.618ZM716.167 232.814L722.904 223.609C720.489 221.841 717.477 221.094 714.516 221.528C711.555 221.962 708.884 223.543 707.078 225.929L716.167 232.814ZM716.19 232.827L725.279 239.703C726.19 238.497 726.853 237.123 727.228 235.659C727.604 234.195 727.685 232.671 727.466 231.176C727.248 229.681 726.734 228.244 725.956 226.949C725.177 225.654 724.149 224.526 722.931 223.632L716.19 232.827ZM709.309 241.921L702.586 251.128C705 252.892 708.012 253.637 710.97 253.202C713.929 252.767 716.598 251.187 718.402 248.802L709.309 241.921ZM709.286 241.903L700.197 235.023C699.283 236.23 698.618 237.607 698.242 239.074C697.865 240.54 697.785 242.067 698.005 243.565C698.225 245.063 698.742 246.503 699.524 247.799C700.307 249.095 701.34 250.223 702.563 251.115L709.286 241.903ZM671.856 215.493L673.141 204.165C670.158 203.827 667.162 204.679 664.804 206.535C662.445 208.392 660.914 211.104 660.543 214.082L671.856 215.493ZM671.885 215.497L683.197 216.908C683.383 215.412 683.271 213.894 682.866 212.441C682.462 210.989 681.774 209.631 680.841 208.446C679.909 207.262 678.75 206.274 677.434 205.54C676.117 204.805 674.668 204.339 673.17 204.169L671.885 215.497ZM670.444 226.811L659.131 225.4C658.944 226.898 659.057 228.418 659.462 229.872C659.867 231.326 660.557 232.685 661.492 233.871C662.426 235.056 663.587 236.044 664.907 236.777C666.226 237.51 667.678 237.974 669.178 238.142L670.444 226.811ZM670.473 226.815L669.208 238.145C672.189 238.48 675.182 237.625 677.537 235.768C679.893 233.91 681.421 231.198 681.791 228.221L670.473 226.815ZM625.076 222.344L635.578 217.902C634.994 216.519 634.143 215.266 633.073 214.213C632.003 213.16 630.736 212.329 629.345 211.767C627.953 211.205 626.464 210.923 624.963 210.938C623.462 210.953 621.979 211.264 620.599 211.853L625.076 222.344ZM629.513 232.845L633.997 243.327C636.77 242.142 638.96 239.907 640.088 237.111C641.217 234.315 641.192 231.186 640.019 228.408L629.513 232.845ZM625.056 222.351L620.578 211.865C617.804 213.048 615.611 215.282 614.481 218.078C613.351 220.874 613.374 224.004 614.546 226.782L625.056 222.351ZM629.487 232.856L618.978 237.287C619.561 238.671 620.412 239.927 621.482 240.981C622.552 242.035 623.82 242.868 625.213 243.43C626.606 243.993 628.096 244.275 629.598 244.26C631.1 244.245 632.584 243.933 633.966 243.342L629.487 232.856ZM596.87 258.265L596.882 258.247L578.753 244.413L578.735 244.436L596.87 258.265ZM580.941 260.425L590.031 267.3L603.788 249.112L594.694 242.236L580.941 260.425ZM587.853 251.281L587.83 251.312L605.954 265.15L605.971 265.127L587.853 251.281ZM603.775 249.14L594.686 242.259L580.92 260.437L590.009 267.317L603.775 249.14ZM580.968 296.573L580.97 296.554L558.377 293.475L558.374 293.504L580.968 296.573ZM568.267 306.33L579.58 307.741L582.398 285.11L571.085 283.699L568.267 306.33ZM569.697 294.867L569.692 294.906L592.282 298.009L592.286 297.98L569.697 294.867ZM582.399 285.14L571.086 283.729L568.254 306.358L579.571 307.769L582.399 285.14ZM586.151 337.969C586.152 337.959 586.15 337.951 586.144 337.943L565.011 346.495L565.009 346.505L565.017 346.521L586.151 337.969ZM580.011 352.725L590.517 348.283L581.644 327.277L571.138 331.718L580.011 352.725ZM575.5 342.032L575.515 342.064L596.668 333.554L596.661 333.533L575.5 342.032ZM581.66 327.304L571.155 331.74L580.018 352.75L590.524 348.314L581.66 327.304ZM611.472 371.53L611.454 371.513L597.414 389.484L597.432 389.496L611.472 371.53ZM613.528 387.377L620.405 378.278L602.216 364.525L595.34 373.62L613.528 387.377ZM604.272 380.373L604.281 380.379L604.299 380.396L618.371 362.448L618.348 362.431L604.272 380.373ZM602.244 364.539L595.363 373.633L613.546 387.394L620.421 378.305L602.244 364.539ZM650.499 387.98L650.475 387.977L647.396 410.57L647.42 410.573L650.499 387.98ZM660.251 400.68L661.662 389.363L639.031 386.55L637.62 397.862L660.251 400.68ZM648.788 399.25L648.817 399.254L651.93 376.665L651.906 376.662C651.899 376.661 651.899 376.661 651.906 376.662L648.788 399.25ZM639.066 386.549L637.655 397.862L660.275 400.688L661.691 389.371L639.066 386.549ZM692.721 382.452L692.705 382.46L701.496 403.495L701.527 403.484L692.721 382.452ZM707.601 388.543L703.164 378.038L682.163 386.912L686.595 397.417L707.601 388.543ZM697.049 392.998L697.058 393L697.064 392.995L697.074 392.992L697.075 392.987L688.3 371.944L688.29 371.938L688.289 371.947L688.279 371.946L688.274 371.95L697.049 392.998ZM682.185 386.895L686.616 397.4L707.621 388.536L703.19 378.031L682.185 386.895ZM726.41 356.226L726.393 356.244L744.628 369.943L744.635 369.924L726.41 356.226ZM742.387 353.999L733.292 347.123L719.54 365.312L728.629 372.187L742.387 353.999ZM735.539 363.058L735.546 363.044L735.557 363.035L717.31 349.354L717.298 349.368L717.297 349.378L735.539 363.058ZM719.553 365.284L728.642 372.164L742.403 353.986L733.319 347.102L719.553 365.284ZM742.125 316.654L742.122 316.679L764.779 319.244C764.778 319.25 764.778 319.25 764.779 319.244L764.782 319.219L742.125 316.654ZM754.861 306.651L743.544 305.239L740.726 327.87L752.044 329.282L754.861 306.651ZM753.468 317.823L753.472 317.789L730.806 315.257L730.806 315.292L753.468 317.823ZM740.725 327.84L752.042 329.252L754.864 306.627L743.548 305.21L740.725 327.84ZM735.755 274.786L735.767 274.807L756.627 265.61L756.62 265.589L735.755 274.786ZM741.763 259.708L731.262 264.145L740.126 285.15L750.636 280.714L741.763 259.708ZM746.123 270.036L746.111 270.01L746.112 270.006L725.253 279.237L725.265 279.258L746.123 270.036ZM740.114 285.124L750.624 280.693L741.751 259.682L731.251 264.114L740.114 285.124ZM709.435 242.011L709.449 242.022L722.935 223.633L722.908 223.614L709.435 242.011ZM707.095 225.951L700.219 235.045L718.402 248.802L725.279 239.703L707.095 225.951ZM716.036 232.714L716.009 232.696L702.568 251.111L702.59 251.134L716.036 232.714ZM718.38 248.784L725.26 239.695L707.078 225.929L700.197 235.023L718.38 248.784ZM670.58 226.828L670.604 226.831L673.17 204.169L673.145 204.166L670.58 226.828ZM681.761 228.223L683.177 216.911L660.543 214.082L659.137 225.396L681.761 228.223ZM671.748 215.485L671.714 215.481L669.178 238.142L669.212 238.146L671.748 215.485ZM660.576 214.092L659.165 225.404L681.795 228.227L683.207 216.909L660.576 214.092ZM614.576 226.781L619.018 237.282L640.019 228.408L635.587 217.908L614.576 226.781ZM629.534 232.837L629.559 232.831L620.599 211.853L620.578 211.865L629.534 232.837ZM639.996 228.43L635.566 217.92L614.546 226.782L618.987 237.288L639.996 228.43ZM625.04 222.359L625.004 222.374L633.976 243.339C633.986 243.34 633.989 243.335 633.997 243.327L625.04 222.359Z" fill="#4F4F4F"/>
<path d="M713.551 270.755C715.671 268.6 716.848 265.69 716.823 262.667C716.798 259.643 715.573 256.753 713.417 254.633C711.262 252.513 708.352 251.336 705.329 251.361C702.305 251.386 699.416 252.611 697.296 254.767L713.551 270.755ZM665.314 287.278C663.194 289.433 662.017 292.343 662.042 295.366C662.067 298.39 663.292 301.279 665.448 303.399C667.604 305.52 670.513 306.697 673.537 306.672C676.56 306.646 679.45 305.421 681.57 303.266L665.314 287.278ZM727.714 371.152C730.137 372.962 733.179 373.734 736.172 373.3C739.165 372.867 741.863 371.262 743.672 368.839C745.481 366.416 746.254 363.373 745.82 360.381C745.386 357.388 743.781 354.69 741.358 352.881L727.714 371.152ZM681.985 308.547C680.785 307.652 679.42 307.001 677.968 306.633C676.517 306.265 675.007 306.186 673.525 306.401C672.043 306.616 670.618 307.122 669.332 307.888C668.045 308.653 666.922 309.665 666.026 310.865C665.131 312.066 664.48 313.43 664.112 314.882C663.744 316.333 663.665 317.843 663.88 319.325C664.096 320.807 664.601 322.232 665.367 323.518C666.133 324.805 667.144 325.928 668.345 326.824L681.985 308.547ZM655.794 306.758C656.184 303.63 659.031 301.415 662.153 301.804L664.975 279.179C657.474 278.243 649.908 280.326 643.942 284.969C637.976 289.611 634.099 296.434 633.164 303.935L655.794 306.758ZM660.733 313.116C659.234 312.927 657.871 312.152 656.943 310.96C656.015 309.767 655.598 308.256 655.784 306.756L633.154 303.934C632.218 311.435 634.301 319.001 638.943 324.967C643.586 330.933 650.409 334.81 657.91 335.746L660.733 313.116ZM667.096 308.167C666.707 311.29 663.86 313.506 660.733 313.116L657.91 335.746C661.625 336.21 665.394 335.937 669.004 334.944C672.613 333.951 675.991 332.257 678.946 329.958C681.9 327.659 684.373 324.801 686.223 321.546C688.073 318.292 689.263 314.705 689.726 310.99L667.096 308.167ZM662.144 301.803C665.271 302.193 667.486 305.045 667.096 308.167L689.726 310.99C690.191 307.275 689.918 303.505 688.925 299.895C687.932 296.286 686.237 292.907 683.937 289.952C681.638 286.998 678.779 284.525 675.524 282.675C672.269 280.826 668.681 279.636 664.966 279.173L662.144 301.803ZM697.296 254.767L665.314 287.278L681.57 303.266L713.551 270.755L697.296 254.767ZM741.358 352.881L681.985 308.547L668.34 326.823L727.714 371.152L741.358 352.881Z" fill="#EB5757"/>
<circle cx="802.5" cy="284.5" r="35.5" fill="#D99773"/>
<path d="M830 226.5C830 246.106 789.106 283 769.5 283C749.894 283 734 267.106 734 247.5C734 227.894 774.894 191 794.5 191C814.106 191 830 206.894 830 226.5Z" fill="#D99773"/>
<path d="M794 180.5C794 200.106 764.106 234 744.5 234C724.894 234 709 218.106 709 198.5C709 178.894 738.894 145 758.5 145C778.106 145 794 160.894 794 180.5Z" fill="#D99773"/>
<circle cx="712.5" cy="136.5" r="35.5" fill="#D99773"/>
</g>
<defs>
<radialGradient id="paint0_radial_410_4774" cx="0" cy="0" r="1" gradientUnits="userSpaceOnUse" gradientTransform="translate(642.112 349.716) rotate(-90) scale(284.28 284.043)">
<stop stop-color="#FFC592"/>
<stop offset="1" stop-color="#FFC977"/>
</radialGradient>
<clipPath id="clip0_410_4774">
<rect width="1280" height="720" fill="white"/>
</clipPath>
</defs>
</svg>
