<svg width="1280" height="720" viewBox="0 0 1280 720" fill="none" xmlns="http://www.w3.org/2000/svg">
<rect width="1280" height="720" fill="#ECFAFF"/>
<rect x="141" y="145.383" width="287" height="100" fill="#1E5C93"/>
<rect x="513" y="276.383" width="287" height="100" fill="#FF7B54"/>
<rect x="852" y="431.383" width="287" height="100" fill="#1EAD28"/>
<path d="M183.747 185.983V192.983H193.147V197.423H183.747V204.823H194.347V209.383H178.147V181.423H194.347V185.983H183.747ZM207.916 209.743C206.102 209.743 204.476 209.423 203.036 208.783C201.596 208.116 200.449 207.223 199.596 206.103C198.769 204.983 198.316 203.743 198.236 202.383H203.876C203.982 203.236 204.396 203.943 205.116 204.503C205.862 205.063 206.782 205.343 207.876 205.343C208.942 205.343 209.769 205.129 210.356 204.703C210.969 204.276 211.276 203.729 211.276 203.063C211.276 202.343 210.902 201.809 210.156 201.463C209.436 201.089 208.276 200.689 206.676 200.263C205.022 199.863 203.662 199.449 202.596 199.023C201.556 198.596 200.649 197.943 199.876 197.063C199.129 196.183 198.756 194.996 198.756 193.503C198.756 192.276 199.102 191.156 199.796 190.143C200.516 189.129 201.529 188.329 202.836 187.743C204.169 187.156 205.729 186.863 207.516 186.863C210.156 186.863 212.262 187.529 213.836 188.863C215.409 190.169 216.276 191.943 216.436 194.183H211.076C210.996 193.303 210.622 192.609 209.956 192.103C209.316 191.569 208.449 191.303 207.356 191.303C206.342 191.303 205.556 191.489 204.996 191.863C204.462 192.236 204.196 192.756 204.196 193.423C204.196 194.169 204.569 194.743 205.316 195.143C206.062 195.516 207.222 195.903 208.796 196.303C210.396 196.703 211.716 197.116 212.756 197.543C213.796 197.969 214.689 198.636 215.436 199.543C216.209 200.423 216.609 201.596 216.636 203.063C216.636 204.343 216.276 205.489 215.556 206.503C214.862 207.516 213.849 208.316 212.516 208.903C211.209 209.463 209.676 209.743 207.916 209.743ZM226.833 190.423C227.553 189.409 228.539 188.569 229.793 187.903C231.073 187.209 232.526 186.863 234.153 186.863C236.046 186.863 237.753 187.329 239.273 188.263C240.819 189.196 242.033 190.529 242.913 192.263C243.819 193.969 244.273 195.956 244.273 198.223C244.273 200.489 243.819 202.503 242.913 204.263C242.033 205.996 240.819 207.343 239.273 208.303C237.753 209.263 236.046 209.743 234.153 209.743C232.526 209.743 231.086 209.409 229.833 208.743C228.606 208.076 227.606 207.236 226.833 206.223V219.943H221.233V187.223H226.833V190.423ZM238.553 198.223C238.553 196.889 238.273 195.743 237.713 194.783C237.179 193.796 236.459 193.049 235.553 192.543C234.673 192.036 233.713 191.783 232.673 191.783C231.659 191.783 230.699 192.049 229.793 192.583C228.913 193.089 228.193 193.836 227.633 194.823C227.099 195.809 226.833 196.969 226.833 198.303C226.833 199.636 227.099 200.796 227.633 201.783C228.193 202.769 228.913 203.529 229.793 204.063C230.699 204.569 231.659 204.823 232.673 204.823C233.713 204.823 234.673 204.556 235.553 204.023C236.459 203.489 237.179 202.729 237.713 201.743C238.273 200.756 238.553 199.583 238.553 198.223ZM268.942 197.823C268.942 198.623 268.889 199.343 268.782 199.983H252.582C252.715 201.583 253.275 202.836 254.262 203.743C255.249 204.649 256.462 205.103 257.902 205.103C259.982 205.103 261.462 204.209 262.342 202.423H268.382C267.742 204.556 266.515 206.316 264.702 207.703C262.889 209.063 260.662 209.743 258.022 209.743C255.889 209.743 253.969 209.276 252.262 208.343C250.582 207.383 249.262 206.036 248.302 204.303C247.369 202.569 246.902 200.569 246.902 198.303C246.902 196.009 247.369 193.996 248.302 192.263C249.235 190.529 250.542 189.196 252.222 188.263C253.902 187.329 255.835 186.863 258.022 186.863C260.129 186.863 262.009 187.316 263.662 188.223C265.342 189.129 266.635 190.423 267.542 192.103C268.475 193.756 268.942 195.663 268.942 197.823ZM263.142 196.223C263.115 194.783 262.595 193.636 261.582 192.783C260.569 191.903 259.329 191.463 257.862 191.463C256.475 191.463 255.302 191.889 254.342 192.743C253.409 193.569 252.835 194.729 252.622 196.223H263.142ZM278.63 190.663C279.35 189.489 280.283 188.569 281.43 187.903C282.603 187.236 283.936 186.903 285.43 186.903V192.783H283.95C282.19 192.783 280.856 193.196 279.95 194.023C279.07 194.849 278.63 196.289 278.63 198.343V209.383H273.03V187.223H278.63V190.663ZM287.761 198.223C287.761 195.983 288.201 193.996 289.081 192.263C289.988 190.529 291.201 189.196 292.721 188.263C294.268 187.329 295.988 186.863 297.881 186.863C299.535 186.863 300.975 187.196 302.201 187.863C303.455 188.529 304.455 189.369 305.201 190.383V187.223H310.841V209.383H305.201V206.143C304.481 207.183 303.481 208.049 302.201 208.743C300.948 209.409 299.495 209.743 297.841 209.743C295.975 209.743 294.268 209.263 292.721 208.303C291.201 207.343 289.988 205.996 289.081 204.263C288.201 202.503 287.761 200.489 287.761 198.223ZM305.201 198.303C305.201 196.943 304.935 195.783 304.401 194.823C303.868 193.836 303.148 193.089 302.241 192.583C301.335 192.049 300.361 191.783 299.321 191.783C298.281 191.783 297.321 192.036 296.441 192.543C295.561 193.049 294.841 193.796 294.281 194.783C293.748 195.743 293.481 196.889 293.481 198.223C293.481 199.556 293.748 200.729 294.281 201.743C294.841 202.729 295.561 203.489 296.441 204.023C297.348 204.556 298.308 204.823 299.321 204.823C300.361 204.823 301.335 204.569 302.241 204.063C303.148 203.529 303.868 202.783 304.401 201.823C304.935 200.836 305.201 199.663 305.201 198.303ZM328.591 186.903C331.231 186.903 333.364 187.743 334.991 189.423C336.617 191.076 337.431 193.396 337.431 196.383V209.383H331.831V197.143C331.831 195.383 331.391 194.036 330.511 193.103C329.631 192.143 328.431 191.663 326.911 191.663C325.364 191.663 324.137 192.143 323.231 193.103C322.351 194.036 321.911 195.383 321.911 197.143V209.383H316.311V187.223H321.911V189.983C322.657 189.023 323.604 188.276 324.751 187.743C325.924 187.183 327.204 186.903 328.591 186.903ZM341.316 198.223C341.316 195.983 341.756 193.996 342.636 192.263C343.543 190.529 344.769 189.196 346.316 188.263C347.863 187.329 349.583 186.863 351.476 186.863C352.916 186.863 354.289 187.183 355.596 187.823C356.903 188.436 357.943 189.263 358.716 190.303V179.783H364.396V209.383H358.716V206.103C358.023 207.196 357.049 208.076 355.796 208.743C354.543 209.409 353.089 209.743 351.436 209.743C349.569 209.743 347.863 209.263 346.316 208.303C344.769 207.343 343.543 205.996 342.636 204.263C341.756 202.503 341.316 200.489 341.316 198.223ZM358.756 198.303C358.756 196.943 358.489 195.783 357.956 194.823C357.423 193.836 356.703 193.089 355.796 192.583C354.889 192.049 353.916 191.783 352.876 191.783C351.836 191.783 350.876 192.036 349.996 192.543C349.116 193.049 348.396 193.796 347.836 194.783C347.303 195.743 347.036 196.889 347.036 198.223C347.036 199.556 347.303 200.729 347.836 201.743C348.396 202.729 349.116 203.489 349.996 204.023C350.903 204.556 351.863 204.823 352.876 204.823C353.916 204.823 354.889 204.569 355.796 204.063C356.703 203.529 357.423 202.783 357.956 201.823C358.489 200.836 358.756 199.663 358.756 198.303ZM379.705 209.743C377.572 209.743 375.652 209.276 373.945 208.343C372.239 207.383 370.892 206.036 369.905 204.303C368.945 202.569 368.465 200.569 368.465 198.303C368.465 196.036 368.959 194.036 369.945 192.303C370.959 190.569 372.332 189.236 374.065 188.303C375.799 187.343 377.732 186.863 379.865 186.863C381.999 186.863 383.932 187.343 385.665 188.303C387.399 189.236 388.759 190.569 389.745 192.303C390.759 194.036 391.265 196.036 391.265 198.303C391.265 200.569 390.745 202.569 389.705 204.303C388.692 206.036 387.305 207.383 385.545 208.343C383.812 209.276 381.865 209.743 379.705 209.743ZM379.705 204.863C380.719 204.863 381.665 204.623 382.545 204.143C383.452 203.636 384.172 202.889 384.705 201.903C385.239 200.916 385.505 199.716 385.505 198.303C385.505 196.196 384.945 194.583 383.825 193.463C382.732 192.316 381.385 191.743 379.785 191.743C378.185 191.743 376.839 192.316 375.745 193.463C374.679 194.583 374.145 196.196 374.145 198.303C374.145 200.409 374.665 202.036 375.705 203.183C376.772 204.303 378.105 204.863 379.705 204.863Z" fill="#ECFAFF"/>
<path d="M556.732 325.383C556.732 322.636 557.345 320.183 558.572 318.023C559.825 315.836 561.519 314.143 563.652 312.943C565.812 311.716 568.225 311.103 570.892 311.103C574.012 311.103 576.745 311.903 579.092 313.503C581.439 315.103 583.079 317.316 584.012 320.143H577.572C576.932 318.809 576.025 317.809 574.852 317.143C573.705 316.476 572.372 316.143 570.852 316.143C569.225 316.143 567.772 316.529 566.492 317.303C565.239 318.049 564.252 319.116 563.532 320.503C562.839 321.889 562.492 323.516 562.492 325.383C562.492 327.223 562.839 328.849 563.532 330.263C564.252 331.649 565.239 332.729 566.492 333.503C567.772 334.249 569.225 334.623 570.852 334.623C572.372 334.623 573.705 334.289 574.852 333.623C576.025 332.929 576.932 331.916 577.572 330.583H584.012C583.079 333.436 581.439 335.663 579.092 337.263C576.772 338.836 574.039 339.623 570.892 339.623C568.225 339.623 565.812 339.023 563.652 337.823C561.519 336.596 559.825 334.903 558.572 332.743C557.345 330.583 556.732 328.129 556.732 325.383ZM598.635 339.743C596.502 339.743 594.582 339.276 592.875 338.343C591.168 337.383 589.822 336.036 588.835 334.303C587.875 332.569 587.395 330.569 587.395 328.303C587.395 326.036 587.888 324.036 588.875 322.303C589.888 320.569 591.262 319.236 592.995 318.303C594.728 317.343 596.662 316.863 598.795 316.863C600.928 316.863 602.862 317.343 604.595 318.303C606.328 319.236 607.688 320.569 608.675 322.303C609.688 324.036 610.195 326.036 610.195 328.303C610.195 330.569 609.675 332.569 608.635 334.303C607.622 336.036 606.235 337.383 604.475 338.343C602.742 339.276 600.795 339.743 598.635 339.743ZM598.635 334.863C599.648 334.863 600.595 334.623 601.475 334.143C602.382 333.636 603.102 332.889 603.635 331.903C604.168 330.916 604.435 329.716 604.435 328.303C604.435 326.196 603.875 324.583 602.755 323.463C601.662 322.316 600.315 321.743 598.715 321.743C597.115 321.743 595.768 322.316 594.675 323.463C593.608 324.583 593.075 326.196 593.075 328.303C593.075 330.409 593.595 332.036 594.635 333.183C595.702 334.303 597.035 334.863 598.635 334.863ZM626.583 316.903C629.223 316.903 631.356 317.743 632.983 319.423C634.61 321.076 635.423 323.396 635.423 326.383V339.383H629.823V327.143C629.823 325.383 629.383 324.036 628.503 323.103C627.623 322.143 626.423 321.663 624.903 321.663C623.356 321.663 622.13 322.143 621.223 323.103C620.343 324.036 619.903 325.383 619.903 327.143V339.383H614.303V317.223H619.903V319.983C620.65 319.023 621.596 318.276 622.743 317.743C623.916 317.183 625.196 316.903 626.583 316.903ZM647.268 321.823V332.543C647.268 333.289 647.442 333.836 647.788 334.183C648.162 334.503 648.775 334.663 649.628 334.663H652.228V339.383H648.708C643.988 339.383 641.628 337.089 641.628 332.503V321.823H638.988V317.223H641.628V311.743H647.268V317.223H652.228V321.823H647.268ZM654.816 328.223C654.816 325.983 655.256 323.996 656.136 322.263C657.043 320.529 658.256 319.196 659.776 318.263C661.323 317.329 663.043 316.863 664.936 316.863C666.589 316.863 668.029 317.196 669.256 317.863C670.509 318.529 671.509 319.369 672.256 320.383V317.223H677.896V339.383H672.256V336.143C671.536 337.183 670.536 338.049 669.256 338.743C668.003 339.409 666.549 339.743 664.896 339.743C663.029 339.743 661.323 339.263 659.776 338.303C658.256 337.343 657.043 335.996 656.136 334.263C655.256 332.503 654.816 330.489 654.816 328.223ZM672.256 328.303C672.256 326.943 671.989 325.783 671.456 324.823C670.923 323.836 670.203 323.089 669.296 322.583C668.389 322.049 667.416 321.783 666.376 321.783C665.336 321.783 664.376 322.036 663.496 322.543C662.616 323.049 661.896 323.796 661.336 324.783C660.803 325.743 660.536 326.889 660.536 328.223C660.536 329.556 660.803 330.729 661.336 331.743C661.896 332.729 662.616 333.489 663.496 334.023C664.403 334.556 665.363 334.823 666.376 334.823C667.416 334.823 668.389 334.569 669.296 334.063C670.203 333.529 670.923 332.783 671.456 331.823C671.989 330.836 672.256 329.663 672.256 328.303ZM695.645 316.903C698.285 316.903 700.419 317.743 702.045 319.423C703.672 321.076 704.485 323.396 704.485 326.383V339.383H698.885V327.143C698.885 325.383 698.445 324.036 697.565 323.103C696.685 322.143 695.485 321.663 693.965 321.663C692.419 321.663 691.192 322.143 690.285 323.103C689.405 324.036 688.965 325.383 688.965 327.143V339.383H683.365V317.223H688.965V319.983C689.712 319.023 690.659 318.276 691.805 317.743C692.979 317.183 694.259 316.903 695.645 316.903ZM708.371 328.223C708.371 325.983 708.811 323.996 709.691 322.263C710.597 320.529 711.824 319.196 713.371 318.263C714.917 317.329 716.637 316.863 718.531 316.863C719.971 316.863 721.344 317.183 722.651 317.823C723.957 318.436 724.997 319.263 725.771 320.303V309.783H731.451V339.383H725.771V336.103C725.077 337.196 724.104 338.076 722.851 338.743C721.597 339.409 720.144 339.743 718.491 339.743C716.624 339.743 714.917 339.263 713.371 338.303C711.824 337.343 710.597 335.996 709.691 334.263C708.811 332.503 708.371 330.489 708.371 328.223ZM725.811 328.303C725.811 326.943 725.544 325.783 725.011 324.823C724.477 323.836 723.757 323.089 722.851 322.583C721.944 322.049 720.971 321.783 719.931 321.783C718.891 321.783 717.931 322.036 717.051 322.543C716.171 323.049 715.451 323.796 714.891 324.783C714.357 325.743 714.091 326.889 714.091 328.223C714.091 329.556 714.357 330.729 714.891 331.743C715.451 332.729 716.171 333.489 717.051 334.023C717.957 334.556 718.917 334.823 719.931 334.823C720.971 334.823 721.944 334.569 722.851 334.063C723.757 333.529 724.477 332.783 725.011 331.823C725.544 330.836 725.811 329.663 725.811 328.303ZM746.76 339.743C744.627 339.743 742.707 339.276 741 338.343C739.293 337.383 737.947 336.036 736.96 334.303C736 332.569 735.52 330.569 735.52 328.303C735.52 326.036 736.013 324.036 737 322.303C738.013 320.569 739.387 319.236 741.12 318.303C742.853 317.343 744.787 316.863 746.92 316.863C749.053 316.863 750.987 317.343 752.72 318.303C754.453 319.236 755.813 320.569 756.8 322.303C757.813 324.036 758.32 326.036 758.32 328.303C758.32 330.569 757.8 332.569 756.76 334.303C755.747 336.036 754.36 337.383 752.6 338.343C750.867 339.276 748.92 339.743 746.76 339.743ZM746.76 334.863C747.773 334.863 748.72 334.623 749.6 334.143C750.507 333.636 751.227 332.889 751.76 331.903C752.293 330.916 752.56 329.716 752.56 328.303C752.56 326.196 752 324.583 750.88 323.463C749.787 322.316 748.44 321.743 746.84 321.743C745.24 321.743 743.893 322.316 742.8 323.463C741.733 324.583 741.2 326.196 741.2 328.303C741.2 330.409 741.72 332.036 742.76 333.183C743.827 334.303 745.16 334.863 746.76 334.863Z" fill="#ECFAFF"/>
<path d="M905.178 467.463V471.983H897.738V495.383H892.138V471.983H884.698V467.463H905.178ZM929.864 483.823C929.864 484.623 929.811 485.343 929.704 485.983H913.504C913.637 487.583 914.197 488.836 915.184 489.743C916.171 490.649 917.384 491.103 918.824 491.103C920.904 491.103 922.384 490.209 923.264 488.423H929.304C928.664 490.556 927.437 492.316 925.624 493.703C923.811 495.063 921.584 495.743 918.944 495.743C916.811 495.743 914.891 495.276 913.184 494.343C911.504 493.383 910.184 492.036 909.224 490.303C908.291 488.569 907.824 486.569 907.824 484.303C907.824 482.009 908.291 479.996 909.224 478.263C910.157 476.529 911.464 475.196 913.144 474.263C914.824 473.329 916.757 472.863 918.944 472.863C921.051 472.863 922.931 473.316 924.584 474.223C926.264 475.129 927.557 476.423 928.464 478.103C929.397 479.756 929.864 481.663 929.864 483.823ZM924.064 482.223C924.037 480.783 923.517 479.636 922.504 478.783C921.491 477.903 920.251 477.463 918.784 477.463C917.397 477.463 916.224 477.889 915.264 478.743C914.331 479.569 913.757 480.729 913.544 482.223H924.064ZM939.551 476.663C940.271 475.489 941.205 474.569 942.351 473.903C943.525 473.236 944.858 472.903 946.351 472.903V478.783H944.871C943.111 478.783 941.778 479.196 940.871 480.023C939.991 480.849 939.551 482.289 939.551 484.343V495.383H933.951V473.223H939.551V476.663ZM977.643 472.903C980.363 472.903 982.55 473.743 984.203 475.423C985.883 477.076 986.723 479.396 986.723 482.383V495.383H981.123V483.143C981.123 481.409 980.683 480.089 979.803 479.183C978.923 478.249 977.723 477.783 976.203 477.783C974.683 477.783 973.47 478.249 972.563 479.183C971.683 480.089 971.243 481.409 971.243 483.143V495.383H965.643V483.143C965.643 481.409 965.203 480.089 964.323 479.183C963.443 478.249 962.243 477.783 960.723 477.783C959.177 477.783 957.95 478.249 957.043 479.183C956.163 480.089 955.723 481.409 955.723 483.143V495.383H950.123V473.223H955.723V475.903C956.443 474.969 957.363 474.236 958.483 473.703C959.63 473.169 960.883 472.903 962.243 472.903C963.977 472.903 965.523 473.276 966.883 474.023C968.243 474.743 969.297 475.783 970.043 477.143C970.763 475.863 971.803 474.836 973.163 474.063C974.55 473.289 976.043 472.903 977.643 472.903ZM994.877 470.583C993.891 470.583 993.064 470.276 992.397 469.663C991.757 469.023 991.437 468.236 991.437 467.303C991.437 466.369 991.757 465.596 992.397 464.983C993.064 464.343 993.891 464.023 994.877 464.023C995.864 464.023 996.677 464.343 997.317 464.983C997.984 465.596 998.317 466.369 998.317 467.303C998.317 468.236 997.984 469.023 997.317 469.663C996.677 470.276 995.864 470.583 994.877 470.583ZM997.637 473.223V495.383H992.037V473.223H997.637ZM1015.45 472.903C1018.09 472.903 1020.22 473.743 1021.85 475.423C1023.48 477.076 1024.29 479.396 1024.29 482.383V495.383H1018.69V483.143C1018.69 481.383 1018.25 480.036 1017.37 479.103C1016.49 478.143 1015.29 477.663 1013.77 477.663C1012.22 477.663 1011 478.143 1010.09 479.103C1009.21 480.036 1008.77 481.383 1008.77 483.143V495.383H1003.17V473.223H1008.77V475.983C1009.52 475.023 1010.46 474.276 1011.61 473.743C1012.78 473.183 1014.06 472.903 1015.45 472.903ZM1028.18 484.223C1028.18 481.983 1028.62 479.996 1029.5 478.263C1030.4 476.529 1031.62 475.196 1033.14 474.263C1034.68 473.329 1036.4 472.863 1038.3 472.863C1039.95 472.863 1041.39 473.196 1042.62 473.863C1043.87 474.529 1044.87 475.369 1045.62 476.383V473.223H1051.26V495.383H1045.62V492.143C1044.9 493.183 1043.9 494.049 1042.62 494.743C1041.36 495.409 1039.91 495.743 1038.26 495.743C1036.39 495.743 1034.68 495.263 1033.14 494.303C1031.62 493.343 1030.4 491.996 1029.5 490.263C1028.62 488.503 1028.18 486.489 1028.18 484.223ZM1045.62 484.303C1045.62 482.943 1045.35 481.783 1044.82 480.823C1044.28 479.836 1043.56 479.089 1042.66 478.583C1041.75 478.049 1040.78 477.783 1039.74 477.783C1038.7 477.783 1037.74 478.036 1036.86 478.543C1035.98 479.049 1035.26 479.796 1034.7 480.783C1034.16 481.743 1033.9 482.889 1033.9 484.223C1033.9 485.556 1034.16 486.729 1034.7 487.743C1035.26 488.729 1035.98 489.489 1036.86 490.023C1037.76 490.556 1038.72 490.823 1039.74 490.823C1040.78 490.823 1041.75 490.569 1042.66 490.063C1043.56 489.529 1044.28 488.783 1044.82 487.823C1045.35 486.836 1045.62 485.663 1045.62 484.303ZM1055.28 484.223C1055.28 481.983 1055.72 479.996 1056.6 478.263C1057.51 476.529 1058.74 475.196 1060.28 474.263C1061.83 473.329 1063.55 472.863 1065.44 472.863C1066.88 472.863 1068.26 473.183 1069.56 473.823C1070.87 474.436 1071.91 475.263 1072.68 476.303V465.783H1078.36V495.383H1072.68V492.103C1071.99 493.196 1071.02 494.076 1069.76 494.743C1068.51 495.409 1067.06 495.743 1065.4 495.743C1063.54 495.743 1061.83 495.263 1060.28 494.303C1058.74 493.343 1057.51 491.996 1056.6 490.263C1055.72 488.503 1055.28 486.489 1055.28 484.223ZM1072.72 484.303C1072.72 482.943 1072.46 481.783 1071.92 480.823C1071.39 479.836 1070.67 479.089 1069.76 478.583C1068.86 478.049 1067.88 477.783 1066.84 477.783C1065.8 477.783 1064.84 478.036 1063.96 478.543C1063.08 479.049 1062.36 479.796 1061.8 480.783C1061.27 481.743 1061 482.889 1061 484.223C1061 485.556 1061.27 486.729 1061.8 487.743C1062.36 488.729 1063.08 489.489 1063.96 490.023C1064.87 490.556 1065.83 490.823 1066.84 490.823C1067.88 490.823 1068.86 490.569 1069.76 490.063C1070.67 489.529 1071.39 488.783 1071.92 487.823C1072.46 486.836 1072.72 485.663 1072.72 484.303ZM1093.67 495.743C1091.54 495.743 1089.62 495.276 1087.91 494.343C1086.21 493.383 1084.86 492.036 1083.87 490.303C1082.91 488.569 1082.43 486.569 1082.43 484.303C1082.43 482.036 1082.93 480.036 1083.91 478.303C1084.93 476.569 1086.3 475.236 1088.03 474.303C1089.77 473.343 1091.7 472.863 1093.83 472.863C1095.97 472.863 1097.9 473.343 1099.63 474.303C1101.37 475.236 1102.73 476.569 1103.71 478.303C1104.73 480.036 1105.23 482.036 1105.23 484.303C1105.23 486.569 1104.71 488.569 1103.67 490.303C1102.66 492.036 1101.27 493.383 1099.51 494.343C1097.78 495.276 1095.83 495.743 1093.67 495.743ZM1093.67 490.863C1094.69 490.863 1095.63 490.623 1096.51 490.143C1097.42 489.636 1098.14 488.889 1098.67 487.903C1099.21 486.916 1099.47 485.716 1099.47 484.303C1099.47 482.196 1098.91 480.583 1097.79 479.463C1096.7 478.316 1095.35 477.743 1093.75 477.743C1092.15 477.743 1090.81 478.316 1089.71 479.463C1088.65 480.583 1088.11 482.196 1088.11 484.303C1088.11 486.409 1088.63 488.036 1089.67 489.183C1090.74 490.303 1092.07 490.863 1093.67 490.863Z" fill="#ECFAFF"/>
<path d="M581.141 258.475L561.001 227.913L597.034 225.466L581.141 258.475Z" fill="#1E5C93"/>
<path d="M372.501 120.884C396.388 79.5097 468.735 63.2639 523.501 94.883C578.267 126.502 579.001 175.963 579.001 228.878" stroke="#1E5C93" stroke-width="4"/>
<path d="M954.64 405.155L934.5 374.593L970.532 372.145L954.64 405.155Z" fill="#1E5C93"/>
<path d="M746 267.58C769.887 226.205 841.734 208.275 896.5 239.894C951.266 271.513 952.5 322.658 952.5 375.573" stroke="#1E5C93" stroke-width="4"/>
<path d="M963 547.883V610.883H657.5" stroke="#1E5C93" stroke-width="4"/>
<path d="M660.456 630.089L629 611.377L660.354 593.454L660.456 630.089Z" fill="#1E5C93"/>
<path d="M522 611.391H266.15V305.891" stroke="#1E5C93" stroke-width="4"/>
<path d="M246.944 308.845L265.656 277.388L283.579 308.742L246.944 308.845Z" fill="#1E5C93"/>
<path d="M559.682 654.143H549.962V659.273C550.382 658.753 550.982 658.333 551.762 658.013C552.542 657.673 553.372 657.503 554.252 657.503C555.852 657.503 557.162 657.853 558.182 658.553C559.202 659.253 559.942 660.153 560.402 661.253C560.862 662.333 561.092 663.493 561.092 664.733C561.092 667.033 560.432 668.883 559.112 670.283C557.812 671.683 555.952 672.383 553.532 672.383C551.252 672.383 549.432 671.813 548.072 670.673C546.712 669.533 545.942 668.043 545.762 666.203H549.842C550.022 667.003 550.422 667.643 551.042 668.123C551.682 668.603 552.492 668.843 553.472 668.843C554.652 668.843 555.542 668.473 556.142 667.733C556.742 666.993 557.042 666.013 557.042 664.793C557.042 663.553 556.732 662.613 556.112 661.973C555.512 661.313 554.622 660.983 553.442 660.983C552.602 660.983 551.902 661.193 551.342 661.613C550.782 662.033 550.382 662.593 550.142 663.293H546.122V650.453H559.682V654.143ZM571.128 672.653C569.768 672.653 568.548 672.413 567.468 671.933C566.388 671.433 565.528 670.763 564.888 669.923C564.268 669.083 563.928 668.153 563.868 667.133H568.098C568.178 667.773 568.488 668.303 569.028 668.723C569.588 669.143 570.278 669.353 571.098 669.353C571.898 669.353 572.518 669.193 572.958 668.873C573.418 668.553 573.648 668.143 573.648 667.643C573.648 667.103 573.368 666.703 572.808 666.443C572.268 666.163 571.398 665.863 570.198 665.543C568.958 665.243 567.938 664.933 567.138 664.613C566.358 664.293 565.678 663.803 565.098 663.143C564.538 662.483 564.258 661.593 564.258 660.473C564.258 659.553 564.518 658.713 565.038 657.953C565.578 657.193 566.338 656.593 567.318 656.153C568.318 655.713 569.488 655.493 570.828 655.493C572.808 655.493 574.388 655.993 575.568 656.993C576.748 657.973 577.398 659.303 577.518 660.983H573.498C573.438 660.323 573.158 659.803 572.658 659.423C572.178 659.023 571.528 658.823 570.708 658.823C569.948 658.823 569.358 658.963 568.938 659.243C568.538 659.523 568.338 659.913 568.338 660.413C568.338 660.973 568.618 661.403 569.178 661.703C569.738 661.983 570.608 662.273 571.788 662.573C572.988 662.873 573.978 663.183 574.758 663.503C575.538 663.823 576.208 664.323 576.768 665.003C577.348 665.663 577.648 666.543 577.668 667.643C577.668 668.603 577.398 669.463 576.858 670.223C576.338 670.983 575.578 671.583 574.578 672.023C573.598 672.443 572.448 672.653 571.128 672.653ZM596.566 663.713C596.566 664.313 596.526 664.853 596.446 665.333H584.296C584.396 666.533 584.816 667.473 585.556 668.153C586.296 668.833 587.206 669.173 588.286 669.173C589.846 669.173 590.956 668.503 591.616 667.163H596.146C595.666 668.763 594.746 670.083 593.386 671.123C592.026 672.143 590.356 672.653 588.376 672.653C586.776 672.653 585.336 672.303 584.056 671.603C582.796 670.883 581.806 669.873 581.086 668.573C580.386 667.273 580.036 665.773 580.036 664.073C580.036 662.353 580.386 660.843 581.086 659.543C581.786 658.243 582.766 657.243 584.026 656.543C585.286 655.843 586.736 655.493 588.376 655.493C589.956 655.493 591.366 655.833 592.606 656.513C593.866 657.193 594.836 658.163 595.516 659.423C596.216 660.663 596.566 662.093 596.566 663.713ZM592.216 662.513C592.196 661.433 591.806 660.573 591.046 659.933C590.286 659.273 589.356 658.943 588.256 658.943C587.216 658.943 586.336 659.263 585.616 659.903C584.916 660.523 584.486 661.393 584.326 662.513H592.216ZM598.552 664.073C598.552 662.353 598.902 660.853 599.602 659.573C600.302 658.273 601.272 657.273 602.512 656.573C603.752 655.853 605.172 655.493 606.772 655.493C608.832 655.493 610.532 656.013 611.872 657.053C613.232 658.073 614.142 659.513 614.602 661.373H610.072C609.832 660.653 609.422 660.093 608.842 659.693C608.282 659.273 607.582 659.063 606.742 659.063C605.542 659.063 604.592 659.503 603.892 660.383C603.192 661.243 602.842 662.473 602.842 664.073C602.842 665.653 603.192 666.883 603.892 667.763C604.592 668.623 605.542 669.053 606.742 669.053C608.442 669.053 609.552 668.293 610.072 666.773H614.602C614.142 668.573 613.232 670.003 611.872 671.063C610.512 672.123 608.812 672.653 606.772 672.653C605.172 672.653 603.752 672.303 602.512 671.603C601.272 670.883 600.302 669.883 599.602 668.603C598.902 667.303 598.552 665.793 598.552 664.073Z" fill="#1E5C93"/>
<path d="M553.444 614.983C553.441 610.078 554.838 605.273 557.474 601.127C560.109 596.981 563.875 593.664 568.333 591.562V579.204C563.875 577.102 560.109 573.785 557.474 569.639C554.838 565.492 553.441 560.687 553.444 555.783H546V548.383H613V555.783H605.556C605.559 560.687 604.162 565.492 601.526 569.639C598.891 573.785 595.125 577.102 590.667 579.204V591.562C595.125 593.664 598.891 596.981 601.526 601.127C604.162 605.273 605.559 610.078 605.556 614.983H613V622.383H546V614.983H553.444ZM560.889 555.783C560.888 560.048 562.37 564.182 565.083 567.486C567.796 570.789 571.574 573.06 575.778 573.913V585.383H583.222V573.913C587.426 573.06 591.204 570.789 593.917 567.486C596.63 564.182 598.112 560.048 598.111 555.783H560.889Z" fill="#1E5C93"/>
</svg>
