<svg width="1280" height="720" viewBox="0 0 1280 720" fill="none" xmlns="http://www.w3.org/2000/svg">
<rect width="1280" height="720" fill="#ECFAFF"/>
<path d="M845.998 89.2255L888.482 101.648L853.469 128.728L845.998 89.2255Z" fill="#E35F61"/>
<path d="M812.608 424.192C813.828 424.452 814.808 425.062 815.548 426.022C816.288 426.962 816.658 428.042 816.658 429.262C816.658 431.022 816.038 432.422 814.798 433.462C813.578 434.482 811.868 434.992 809.668 434.992H799.858V413.932H809.338C811.478 413.932 813.148 414.422 814.348 415.402C815.568 416.382 816.178 417.712 816.178 419.392C816.178 420.632 815.848 421.662 815.188 422.482C814.548 423.302 813.688 423.872 812.608 424.192ZM804.988 422.452H808.348C809.188 422.452 809.828 422.272 810.268 421.912C810.728 421.532 810.958 420.982 810.958 420.262C810.958 419.542 810.728 418.992 810.268 418.612C809.828 418.232 809.188 418.042 808.348 418.042H804.988V422.452ZM808.768 430.852C809.628 430.852 810.288 430.662 810.748 430.282C811.228 429.882 811.468 429.312 811.468 428.572C811.468 427.832 811.218 427.252 810.718 426.832C810.238 426.412 809.568 426.202 808.708 426.202H804.988V430.852H808.768ZM836.163 418.252V434.992H831.033V432.712C830.513 433.452 829.803 434.052 828.903 434.512C828.023 434.952 827.043 435.172 825.963 435.172C824.683 435.172 823.553 434.892 822.573 434.332C821.593 433.752 820.833 432.922 820.293 431.842C819.753 430.762 819.483 429.492 819.483 428.032V418.252H824.583V427.342C824.583 428.462 824.873 429.332 825.453 429.952C826.033 430.572 826.813 430.882 827.793 430.882C828.793 430.882 829.583 430.572 830.163 429.952C830.743 429.332 831.033 428.462 831.033 427.342V418.252H836.163ZM838.828 426.622C838.828 424.882 839.178 423.362 839.878 422.062C840.598 420.762 841.588 419.762 842.848 419.062C844.128 418.362 845.588 418.012 847.228 418.012C849.328 418.012 851.078 418.562 852.478 419.662C853.898 420.762 854.828 422.312 855.268 424.312H849.808C849.348 423.032 848.458 422.392 847.138 422.392C846.198 422.392 845.448 422.762 844.888 423.502C844.328 424.222 844.048 425.262 844.048 426.622C844.048 427.982 844.328 429.032 844.888 429.772C845.448 430.492 846.198 430.852 847.138 430.852C848.458 430.852 849.348 430.212 849.808 428.932H855.268C854.828 430.892 853.898 432.432 852.478 433.552C851.058 434.672 849.308 435.232 847.228 435.232C845.588 435.232 844.128 434.882 842.848 434.182C841.588 433.482 840.598 432.482 839.878 431.182C839.178 429.882 838.828 428.362 838.828 426.622ZM863.142 412.792V434.992H858.012V412.792H863.142ZM882.64 426.352C882.64 426.832 882.61 427.332 882.55 427.852H870.94C871.02 428.892 871.35 429.692 871.93 430.252C872.53 430.792 873.26 431.062 874.12 431.062C875.4 431.062 876.29 430.522 876.79 429.442H882.25C881.97 430.542 881.46 431.532 880.72 432.412C880 433.292 879.09 433.982 877.99 434.482C876.89 434.982 875.66 435.232 874.3 435.232C872.66 435.232 871.2 434.882 869.92 434.182C868.64 433.482 867.64 432.482 866.92 431.182C866.2 429.882 865.84 428.362 865.84 426.622C865.84 424.882 866.19 423.362 866.89 422.062C867.61 420.762 868.61 419.762 869.89 419.062C871.17 418.362 872.64 418.012 874.3 418.012C875.92 418.012 877.36 418.352 878.62 419.032C879.88 419.712 880.86 420.682 881.56 421.942C882.28 423.202 882.64 424.672 882.64 426.352ZM877.39 425.002C877.39 424.122 877.09 423.422 876.49 422.902C875.89 422.382 875.14 422.122 874.24 422.122C873.38 422.122 872.65 422.372 872.05 422.872C871.47 423.372 871.11 424.082 870.97 425.002H877.39ZM907.754 420.712C907.754 421.932 907.474 423.052 906.914 424.072C906.354 425.072 905.494 425.882 904.334 426.502C903.174 427.122 901.734 427.432 900.014 427.432H896.834V434.992H891.704V413.932H900.014C901.694 413.932 903.114 414.222 904.274 414.802C905.434 415.382 906.304 416.182 906.884 417.202C907.464 418.222 907.754 419.392 907.754 420.712ZM899.624 423.352C900.604 423.352 901.334 423.122 901.814 422.662C902.294 422.202 902.534 421.552 902.534 420.712C902.534 419.872 902.294 419.222 901.814 418.762C901.334 418.302 900.604 418.072 899.624 418.072H896.834V423.352H899.624ZM915.554 421.042C916.154 420.122 916.904 419.402 917.804 418.882C918.704 418.342 919.704 418.072 920.804 418.072V423.502H919.394C918.114 423.502 917.154 423.782 916.514 424.342C915.874 424.882 915.554 425.842 915.554 427.222V434.992H910.424V418.252H915.554V421.042ZM925.836 416.512C924.936 416.512 924.196 416.252 923.616 415.732C923.056 415.192 922.776 414.532 922.776 413.752C922.776 412.952 923.056 412.292 923.616 411.772C924.196 411.232 924.936 410.962 925.836 410.962C926.716 410.962 927.436 411.232 927.996 411.772C928.576 412.292 928.866 412.952 928.866 413.752C928.866 414.532 928.576 415.192 927.996 415.732C927.436 416.252 926.716 416.512 925.836 416.512ZM928.386 418.252V434.992H923.256V418.252H928.386ZM942.304 418.072C944.264 418.072 945.824 418.712 946.984 419.992C948.164 421.252 948.754 422.992 948.754 425.212V434.992H943.654V425.902C943.654 424.782 943.364 423.912 942.784 423.292C942.204 422.672 941.424 422.362 940.444 422.362C939.464 422.362 938.684 422.672 938.104 423.292C937.524 423.912 937.234 424.782 937.234 425.902V434.992H932.104V418.252H937.234V420.472C937.754 419.732 938.454 419.152 939.334 418.732C940.214 418.292 941.204 418.072 942.304 418.072ZM951.299 426.622C951.299 424.882 951.649 423.362 952.349 422.062C953.069 420.762 954.059 419.762 955.319 419.062C956.599 418.362 958.059 418.012 959.699 418.012C961.799 418.012 963.549 418.562 964.949 419.662C966.369 420.762 967.299 422.312 967.739 424.312H962.279C961.819 423.032 960.929 422.392 959.609 422.392C958.669 422.392 957.919 422.762 957.359 423.502C956.799 424.222 956.519 425.262 956.519 426.622C956.519 427.982 956.799 429.032 957.359 429.772C957.919 430.492 958.669 430.852 959.609 430.852C960.929 430.852 961.819 430.212 962.279 428.932H967.739C967.299 430.892 966.369 432.432 964.949 433.552C963.529 434.672 961.779 435.232 959.699 435.232C958.059 435.232 956.599 434.882 955.319 434.182C954.059 433.482 953.069 432.482 952.349 431.182C951.649 429.882 951.299 428.362 951.299 426.622ZM973.063 416.512C972.163 416.512 971.423 416.252 970.843 415.732C970.283 415.192 970.003 414.532 970.003 413.752C970.003 412.952 970.283 412.292 970.843 411.772C971.423 411.232 972.163 410.962 973.063 410.962C973.943 410.962 974.663 411.232 975.223 411.772C975.803 412.292 976.093 412.952 976.093 413.752C976.093 414.532 975.803 415.192 975.223 415.732C974.663 416.252 973.943 416.512 973.063 416.512ZM975.613 418.252V434.992H970.483V418.252H975.613ZM984.461 420.622C984.961 419.842 985.651 419.212 986.531 418.732C987.411 418.252 988.441 418.012 989.621 418.012C991.001 418.012 992.251 418.362 993.371 419.062C994.491 419.762 995.371 420.762 996.011 422.062C996.671 423.362 997.001 424.872 997.001 426.592C997.001 428.312 996.671 429.832 996.011 431.152C995.371 432.452 994.491 433.462 993.371 434.182C992.251 434.882 991.001 435.232 989.621 435.232C988.461 435.232 987.431 434.992 986.531 434.512C985.651 434.032 984.961 433.412 984.461 432.652V442.972H979.331V418.252H984.461V420.622ZM991.781 426.592C991.781 425.312 991.421 424.312 990.701 423.592C990.001 422.852 989.131 422.482 988.091 422.482C987.071 422.482 986.201 422.852 985.481 423.592C984.781 424.332 984.431 425.342 984.431 426.622C984.431 427.902 984.781 428.912 985.481 429.652C986.201 430.392 987.071 430.762 988.091 430.762C989.111 430.762 989.981 430.392 990.701 429.652C991.421 428.892 991.781 427.872 991.781 426.592ZM998.672 426.592C998.672 424.872 998.992 423.362 999.632 422.062C1000.29 420.762 1001.18 419.762 1002.3 419.062C1003.42 418.362 1004.67 418.012 1006.05 418.012C1007.23 418.012 1008.26 418.252 1009.14 418.732C1010.04 419.212 1010.73 419.842 1011.21 420.622V418.252H1016.34V434.992H1011.21V432.622C1010.71 433.402 1010.01 434.032 1009.11 434.512C1008.23 434.992 1007.2 435.232 1006.02 435.232C1004.66 435.232 1003.42 434.882 1002.3 434.182C1001.18 433.462 1000.29 432.452 999.632 431.152C998.992 429.832 998.672 428.312 998.672 426.592ZM1011.21 426.622C1011.21 425.342 1010.85 424.332 1010.13 423.592C1009.43 422.852 1008.57 422.482 1007.55 422.482C1006.53 422.482 1005.66 422.852 1004.94 423.592C1004.24 424.312 1003.89 425.312 1003.89 426.592C1003.89 427.872 1004.24 428.892 1004.94 429.652C1005.66 430.392 1006.53 430.762 1007.55 430.762C1008.57 430.762 1009.43 430.392 1010.13 429.652C1010.85 428.912 1011.21 427.902 1011.21 426.622ZM1025.18 412.792V434.992H1020.05V412.792H1025.18Z" fill="#1A3567"/>
<path d="M860.518 453.232V473.992H857.788V458.512L850.888 473.992H848.968L842.038 458.482V473.992H839.308V453.232H842.248L849.928 470.392L857.608 453.232H860.518ZM872.318 474.262C870.778 474.262 869.378 473.912 868.118 473.212C866.878 472.512 865.898 471.522 865.178 470.242C864.478 468.942 864.128 467.442 864.128 465.742C864.128 464.062 864.488 462.582 865.208 461.302C865.948 460.002 866.948 459.012 868.208 458.332C869.468 457.632 870.878 457.282 872.438 457.282C873.998 457.282 875.408 457.632 876.668 458.332C877.928 459.012 878.918 459.992 879.638 461.272C880.378 462.552 880.748 464.042 880.748 465.742C880.748 467.442 880.368 468.942 879.608 470.242C878.868 471.522 877.858 472.512 876.578 473.212C875.298 473.912 873.878 474.262 872.318 474.262ZM872.318 471.862C873.298 471.862 874.218 471.632 875.078 471.172C875.938 470.712 876.628 470.022 877.148 469.102C877.688 468.182 877.958 467.062 877.958 465.742C877.958 464.422 877.698 463.302 877.178 462.382C876.658 461.462 875.978 460.782 875.138 460.342C874.298 459.882 873.388 459.652 872.408 459.652C871.408 459.652 870.488 459.882 869.648 460.342C868.828 460.782 868.168 461.462 867.668 462.382C867.168 463.302 866.918 464.422 866.918 465.742C866.918 467.082 867.158 468.212 867.638 469.132C868.138 470.052 868.798 470.742 869.618 471.202C870.438 471.642 871.338 471.862 872.318 471.862ZM892.347 457.252C894.347 457.252 895.967 457.862 897.207 459.082C898.447 460.282 899.067 462.022 899.067 464.302V473.992H896.367V464.692C896.367 463.052 895.957 461.802 895.137 460.942C894.317 460.062 893.197 459.622 891.777 459.622C890.337 459.622 889.187 460.072 888.327 460.972C887.487 461.872 887.067 463.182 887.067 464.902V473.992H884.337V457.552H887.067V459.892C887.607 459.052 888.337 458.402 889.257 457.942C890.197 457.482 891.227 457.252 892.347 457.252ZM904.937 454.882C904.417 454.882 903.977 454.702 903.617 454.342C903.257 453.982 903.077 453.542 903.077 453.022C903.077 452.502 903.257 452.062 903.617 451.702C903.977 451.342 904.417 451.162 904.937 451.162C905.437 451.162 905.857 451.342 906.197 451.702C906.557 452.062 906.737 452.502 906.737 453.022C906.737 453.542 906.557 453.982 906.197 454.342C905.857 454.702 905.437 454.882 904.937 454.882ZM906.257 457.552V473.992H903.527V457.552H906.257ZM914.24 459.802V469.492C914.24 470.292 914.41 470.862 914.75 471.202C915.09 471.522 915.68 471.682 916.52 471.682H918.53V473.992H916.07C914.55 473.992 913.41 473.642 912.65 472.942C911.89 472.242 911.51 471.092 911.51 469.492V459.802H909.38V457.552H911.51V453.412H914.24V457.552H918.53V459.802H914.24ZM929.007 474.262C927.467 474.262 926.067 473.912 924.807 473.212C923.567 472.512 922.587 471.522 921.867 470.242C921.167 468.942 920.817 467.442 920.817 465.742C920.817 464.062 921.177 462.582 921.897 461.302C922.637 460.002 923.637 459.012 924.897 458.332C926.157 457.632 927.567 457.282 929.127 457.282C930.687 457.282 932.097 457.632 933.357 458.332C934.617 459.012 935.607 459.992 936.327 461.272C937.067 462.552 937.437 464.042 937.437 465.742C937.437 467.442 937.057 468.942 936.297 470.242C935.557 471.522 934.547 472.512 933.267 473.212C931.987 473.912 930.567 474.262 929.007 474.262ZM929.007 471.862C929.987 471.862 930.907 471.632 931.767 471.172C932.627 470.712 933.317 470.022 933.837 469.102C934.377 468.182 934.647 467.062 934.647 465.742C934.647 464.422 934.387 463.302 933.867 462.382C933.347 461.462 932.667 460.782 931.827 460.342C930.987 459.882 930.077 459.652 929.097 459.652C928.097 459.652 927.177 459.882 926.337 460.342C925.517 460.782 924.857 461.462 924.357 462.382C923.857 463.302 923.607 464.422 923.607 465.742C923.607 467.082 923.847 468.212 924.327 469.132C924.827 470.052 925.487 470.742 926.307 471.202C927.127 471.642 928.027 471.862 929.007 471.862ZM943.757 460.222C944.237 459.282 944.917 458.552 945.797 458.032C946.697 457.512 947.787 457.252 949.067 457.252V460.072H948.347C945.287 460.072 943.757 461.732 943.757 465.052V473.992H941.027V457.552H943.757V460.222ZM967.218 465.142C967.218 465.662 967.188 466.212 967.128 466.792H953.988C954.088 468.412 954.638 469.682 955.638 470.602C956.658 471.502 957.888 471.952 959.328 471.952C960.508 471.952 961.488 471.682 962.268 471.142C963.068 470.582 963.628 469.842 963.948 468.922H966.888C966.448 470.502 965.568 471.792 964.248 472.792C962.928 473.772 961.288 474.262 959.328 474.262C957.768 474.262 956.368 473.912 955.128 473.212C953.908 472.512 952.948 471.522 952.248 470.242C951.548 468.942 951.198 467.442 951.198 465.742C951.198 464.042 951.538 462.552 952.218 461.272C952.898 459.992 953.848 459.012 955.068 458.332C956.308 457.632 957.728 457.282 959.328 457.282C960.888 457.282 962.268 457.622 963.468 458.302C964.668 458.982 965.588 459.922 966.228 461.122C966.888 462.302 967.218 463.642 967.218 465.142ZM964.398 464.572C964.398 463.532 964.168 462.642 963.708 461.902C963.248 461.142 962.618 460.572 961.818 460.192C961.038 459.792 960.168 459.592 959.208 459.592C957.828 459.592 956.648 460.032 955.668 460.912C954.708 461.792 954.158 463.012 954.018 464.572H964.398ZM977.992 474.262C976.452 474.262 975.052 473.912 973.792 473.212C972.552 472.512 971.572 471.522 970.852 470.242C970.152 468.942 969.802 467.442 969.802 465.742C969.802 464.062 970.162 462.582 970.882 461.302C971.622 460.002 972.622 459.012 973.882 458.332C975.142 457.632 976.552 457.282 978.112 457.282C979.672 457.282 981.082 457.632 982.342 458.332C983.602 459.012 984.592 459.992 985.312 461.272C986.052 462.552 986.422 464.042 986.422 465.742C986.422 467.442 986.042 468.942 985.282 470.242C984.542 471.522 983.532 472.512 982.252 473.212C980.972 473.912 979.552 474.262 977.992 474.262ZM977.992 471.862C978.972 471.862 979.892 471.632 980.752 471.172C981.612 470.712 982.302 470.022 982.822 469.102C983.362 468.182 983.632 467.062 983.632 465.742C983.632 464.422 983.372 463.302 982.852 462.382C982.332 461.462 981.652 460.782 980.812 460.342C979.972 459.882 979.062 459.652 978.082 459.652C977.082 459.652 976.162 459.882 975.322 460.342C974.502 460.782 973.842 461.462 973.342 462.382C972.842 463.302 972.592 464.422 972.592 465.742C972.592 467.082 972.832 468.212 973.312 469.132C973.812 470.052 974.472 470.742 975.292 471.202C976.112 471.642 977.012 471.862 977.992 471.862Z" fill="#1A3567"/>
<path d="M912.998 100.992C1046.1 100.992 1154 208.668 1154 341.492C1154 441.019 1093.42 526.426 1007.04 562.992M871.498 104.545C758.173 124.173 671.998 222.79 671.998 341.492C671.998 474.317 779.898 581.992 912.998 581.992C938.176 581.992 958.498 578.992 977.998 574.492" stroke="#E35F61" stroke-width="14"/>
<path d="M1035.86 573.77L991.911 568.491L1022 536.03L1035.86 573.77Z" fill="#E35F61"/>
<path fill-rule="evenodd" clip-rule="evenodd" d="M912.498 386.992C888.714 386.992 863.244 376.258 838.833 355.95C820.761 340.916 809.631 326.046 809.166 325.421C808.394 324.382 807.987 323.153 807.998 321.897C808.01 320.641 808.44 319.418 809.232 318.391C809.696 317.789 820.842 303.432 838.923 288.919C863.317 269.34 888.755 258.992 912.498 258.992C936.241 258.992 961.679 269.34 986.074 288.919C1004.15 303.432 1015.3 317.789 1015.76 318.391C1016.56 319.418 1016.99 320.641 1017 321.897C1017.01 323.153 1016.6 324.382 1015.83 325.421C1015.37 326.046 1004.24 340.916 986.163 355.95C961.752 376.258 936.282 386.992 912.498 386.992ZM823.205 322.014C833.455 334.34 870.186 374.629 912.498 374.629C954.81 374.629 991.533 334.348 1001.79 322.014C991.451 310.03 954.777 271.348 912.498 271.348C870.219 271.348 833.545 310.037 823.205 322.014ZM912.498 356.701C892.136 356.701 875.564 341.578 875.564 322.988C875.564 304.399 892.128 289.276 912.498 289.276C932.868 289.276 949.424 304.399 949.424 322.988C949.424 341.578 932.86 356.701 912.498 356.701ZM912.498 301.632C899.6 301.632 889.105 311.213 889.105 322.988C889.105 334.764 899.6 344.345 912.498 344.345C925.396 344.345 935.891 334.764 935.891 322.988C935.891 311.213 925.396 301.632 912.498 301.632Z" fill="#E35F61"/>
<path d="M912.998 328.992C916.864 328.992 919.998 326.306 919.998 322.992C919.998 319.678 916.864 316.992 912.998 316.992C909.132 316.992 905.998 319.678 905.998 322.992C905.998 326.306 909.132 328.992 912.998 328.992Z" fill="#E35F61"/>
<path d="M560.628 604.94L553.158 626H546.738L539.268 604.94H544.728L549.948 620.84L555.198 604.94H560.628ZM561.752 617.6C561.752 615.88 562.072 614.37 562.712 613.07C563.372 611.77 564.262 610.77 565.382 610.07C566.502 609.37 567.752 609.02 569.132 609.02C570.312 609.02 571.342 609.26 572.222 609.74C573.122 610.22 573.812 610.85 574.292 611.63V609.26H579.422V626H574.292V623.63C573.792 624.41 573.092 625.04 572.192 625.52C571.312 626 570.282 626.24 569.102 626.24C567.742 626.24 566.502 625.89 565.382 625.19C564.262 624.47 563.372 623.46 562.712 622.16C562.072 620.84 561.752 619.32 561.752 617.6ZM574.292 617.63C574.292 616.35 573.932 615.34 573.212 614.6C572.512 613.86 571.652 613.49 570.632 613.49C569.612 613.49 568.742 613.86 568.022 614.6C567.322 615.32 566.972 616.32 566.972 617.6C566.972 618.88 567.322 619.9 568.022 620.66C568.742 621.4 569.612 621.77 570.632 621.77C571.652 621.77 572.512 621.4 573.212 620.66C573.932 619.92 574.292 618.91 574.292 617.63ZM588.263 612.05C588.863 611.13 589.613 610.41 590.513 609.89C591.413 609.35 592.413 609.08 593.513 609.08V614.51H592.103C590.823 614.51 589.863 614.79 589.223 615.35C588.583 615.89 588.263 616.85 588.263 618.23V626H583.133V609.26H588.263V612.05ZM598.545 607.52C597.645 607.52 596.905 607.26 596.325 606.74C595.765 606.2 595.485 605.54 595.485 604.76C595.485 603.96 595.765 603.3 596.325 602.78C596.905 602.24 597.645 601.97 598.545 601.97C599.425 601.97 600.145 602.24 600.705 602.78C601.285 603.3 601.575 603.96 601.575 604.76C601.575 605.54 601.285 606.2 600.705 606.74C600.145 607.26 599.425 607.52 598.545 607.52ZM601.095 609.26V626H595.965V609.26H601.095ZM603.793 617.6C603.793 615.88 604.113 614.37 604.753 613.07C605.413 611.77 606.303 610.77 607.423 610.07C608.543 609.37 609.793 609.02 611.173 609.02C612.353 609.02 613.383 609.26 614.263 609.74C615.163 610.22 615.853 610.85 616.333 611.63V609.26H621.463V626H616.333V623.63C615.833 624.41 615.133 625.04 614.233 625.52C613.353 626 612.323 626.24 611.143 626.24C609.783 626.24 608.543 625.89 607.423 625.19C606.303 624.47 605.413 623.46 604.753 622.16C604.113 620.84 603.793 619.32 603.793 617.6ZM616.333 617.63C616.333 616.35 615.973 615.34 615.253 614.6C614.553 613.86 613.693 613.49 612.673 613.49C611.653 613.49 610.783 613.86 610.063 614.6C609.363 615.32 609.013 616.32 609.013 617.6C609.013 618.88 609.363 619.9 610.063 620.66C610.783 621.4 611.653 621.77 612.673 621.77C613.693 621.77 614.553 621.4 615.253 620.66C615.973 619.92 616.333 618.91 616.333 617.63ZM630.304 611.63C630.784 610.85 631.474 610.22 632.374 609.74C633.274 609.26 634.304 609.02 635.464 609.02C636.844 609.02 638.094 609.37 639.214 610.07C640.334 610.77 641.214 611.77 641.854 613.07C642.514 614.37 642.844 615.88 642.844 617.6C642.844 619.32 642.514 620.84 641.854 622.16C641.214 623.46 640.334 624.47 639.214 625.19C638.094 625.89 636.844 626.24 635.464 626.24C634.284 626.24 633.254 626.01 632.374 625.55C631.494 625.07 630.804 624.44 630.304 623.66V626H625.174V603.8H630.304V611.63ZM637.624 617.6C637.624 616.32 637.264 615.32 636.544 614.6C635.844 613.86 634.974 613.49 633.934 613.49C632.914 613.49 632.044 613.86 631.324 614.6C630.624 615.34 630.274 616.35 630.274 617.63C630.274 618.91 630.624 619.92 631.324 620.66C632.044 621.4 632.914 621.77 633.934 621.77C634.954 621.77 635.824 621.4 636.544 620.66C637.264 619.9 637.624 618.88 637.624 617.6ZM650.666 603.8V626H645.536V603.8H650.666ZM670.163 617.36C670.163 617.84 670.133 618.34 670.073 618.86H658.463C658.543 619.9 658.873 620.7 659.453 621.26C660.053 621.8 660.783 622.07 661.643 622.07C662.923 622.07 663.813 621.53 664.313 620.45H669.773C669.493 621.55 668.983 622.54 668.243 623.42C667.523 624.3 666.613 624.99 665.513 625.49C664.413 625.99 663.183 626.24 661.823 626.24C660.183 626.24 658.723 625.89 657.443 625.19C656.163 624.49 655.163 623.49 654.443 622.19C653.723 620.89 653.363 619.37 653.363 617.63C653.363 615.89 653.713 614.37 654.413 613.07C655.133 611.77 656.133 610.77 657.413 610.07C658.693 609.37 660.163 609.02 661.823 609.02C663.443 609.02 664.883 609.36 666.143 610.04C667.403 610.72 668.383 611.69 669.083 612.95C669.803 614.21 670.163 615.68 670.163 617.36ZM664.913 616.01C664.913 615.13 664.613 614.43 664.013 613.91C663.413 613.39 662.663 613.13 661.763 613.13C660.903 613.13 660.173 613.38 659.573 613.88C658.993 614.38 658.633 615.09 658.493 616.01H664.913Z" fill="#1A3567"/>
<path d="M166.99 335.05V339.31H173.86V343.27H166.99V347.89H174.76V352H161.86V330.94H174.76V335.05H166.99ZM185.62 347.2L189.25 335.26H194.71L188.77 352H182.44L176.5 335.26H181.99L185.62 347.2ZM212.65 343.36C212.65 343.84 212.62 344.34 212.56 344.86H200.95C201.03 345.9 201.36 346.7 201.94 347.26C202.54 347.8 203.27 348.07 204.13 348.07C205.41 348.07 206.3 347.53 206.8 346.45H212.26C211.98 347.55 211.47 348.54 210.73 349.42C210.01 350.3 209.1 350.99 208 351.49C206.9 351.99 205.67 352.24 204.31 352.24C202.67 352.24 201.21 351.89 199.93 351.19C198.65 350.49 197.65 349.49 196.93 348.19C196.21 346.89 195.85 345.37 195.85 343.63C195.85 341.89 196.2 340.37 196.9 339.07C197.62 337.77 198.62 336.77 199.9 336.07C201.18 335.37 202.65 335.02 204.31 335.02C205.93 335.02 207.37 335.36 208.63 336.04C209.89 336.72 210.87 337.69 211.57 338.95C212.29 340.21 212.65 341.68 212.65 343.36ZM207.4 342.01C207.4 341.13 207.1 340.43 206.5 339.91C205.9 339.39 205.15 339.13 204.25 339.13C203.39 339.13 202.66 339.38 202.06 339.88C201.48 340.38 201.12 341.09 200.98 342.01H207.4ZM225.556 335.08C227.516 335.08 229.076 335.72 230.236 337C231.416 338.26 232.006 340 232.006 342.22V352H226.906V342.91C226.906 341.79 226.616 340.92 226.036 340.3C225.456 339.68 224.676 339.37 223.696 339.37C222.716 339.37 221.936 339.68 221.356 340.3C220.776 340.92 220.486 341.79 220.486 342.91V352H215.356V335.26H220.486V337.48C221.006 336.74 221.706 336.16 222.586 335.74C223.466 335.3 224.456 335.08 225.556 335.08ZM244.901 347.65V352H242.291C240.431 352 238.981 351.55 237.941 350.65C236.901 349.73 236.381 348.24 236.381 346.18V339.52H234.341V335.26H236.381V331.18H241.511V335.26H244.871V339.52H241.511V346.24C241.511 346.74 241.631 347.1 241.871 347.32C242.111 347.54 242.511 347.65 243.071 347.65H244.901ZM255.378 352.24C253.738 352.24 252.258 351.89 250.938 351.19C249.638 350.49 248.608 349.49 247.848 348.19C247.108 346.89 246.738 345.37 246.738 343.63C246.738 341.91 247.118 340.4 247.878 339.1C248.638 337.78 249.678 336.77 250.998 336.07C252.318 335.37 253.798 335.02 255.438 335.02C257.078 335.02 258.558 335.37 259.878 336.07C261.198 336.77 262.238 337.78 262.998 339.1C263.758 340.4 264.138 341.91 264.138 343.63C264.138 345.35 263.748 346.87 262.968 348.19C262.208 349.49 261.158 350.49 259.818 351.19C258.498 351.89 257.018 352.24 255.378 352.24ZM255.378 347.8C256.358 347.8 257.188 347.44 257.868 346.72C258.568 346 258.918 344.97 258.918 343.63C258.918 342.29 258.578 341.26 257.898 340.54C257.238 339.82 256.418 339.46 255.438 339.46C254.438 339.46 253.608 339.82 252.948 340.54C252.288 341.24 251.958 342.27 251.958 343.63C251.958 344.97 252.278 346 252.918 346.72C253.578 347.44 254.398 347.8 255.378 347.8Z" fill="#1A3567"/>
<path d="M185.136 394.062L180.156 385.512H176.856V394.062H174.126V373.152H180.876C182.456 373.152 183.786 373.422 184.866 373.962C185.966 374.502 186.786 375.232 187.326 376.152C187.866 377.072 188.136 378.122 188.136 379.302C188.136 380.742 187.716 382.012 186.876 383.112C186.056 384.212 184.816 384.942 183.156 385.302L188.406 394.062H185.136ZM176.856 383.322H180.876C182.356 383.322 183.466 382.962 184.206 382.242C184.946 381.502 185.316 380.522 185.316 379.302C185.316 378.062 184.946 377.102 184.206 376.423C183.486 375.742 182.376 375.402 180.876 375.402H176.856V383.322ZM191.358 385.782C191.358 384.102 191.698 382.632 192.378 381.372C193.058 380.092 193.988 379.102 195.168 378.402C196.368 377.702 197.698 377.352 199.158 377.352C200.598 377.352 201.848 377.662 202.908 378.282C203.968 378.902 204.758 379.682 205.278 380.622V377.622H208.038V394.062H205.278V391.002C204.738 391.962 203.928 392.762 202.848 393.402C201.788 394.022 200.548 394.333 199.128 394.333C197.668 394.333 196.348 393.973 195.168 393.252C193.988 392.532 193.058 391.522 192.378 390.222C191.698 388.922 191.358 387.442 191.358 385.782ZM205.278 385.812C205.278 384.572 205.028 383.492 204.528 382.572C204.028 381.652 203.348 380.952 202.488 380.472C201.648 379.972 200.718 379.722 199.698 379.722C198.678 379.722 197.748 379.962 196.908 380.442C196.068 380.922 195.398 381.622 194.898 382.542C194.398 383.462 194.148 384.542 194.148 385.782C194.148 387.042 194.398 388.142 194.898 389.082C195.398 390.002 196.068 390.712 196.908 391.212C197.748 391.692 198.678 391.932 199.698 391.932C200.718 391.932 201.648 391.692 202.488 391.212C203.348 390.712 204.028 390.002 204.528 389.082C205.028 388.142 205.278 387.052 205.278 385.812ZM226.812 377.622L216.912 401.803H214.092L217.332 393.882L210.702 377.622H213.732L218.892 390.942L223.992 377.622H226.812ZM236.726 394.333C235.186 394.333 233.786 393.983 232.526 393.282C231.286 392.582 230.306 391.592 229.586 390.312C228.886 389.012 228.536 387.512 228.536 385.812C228.536 384.132 228.896 382.652 229.616 381.372C230.356 380.072 231.356 379.082 232.616 378.402C233.876 377.702 235.286 377.352 236.846 377.352C238.406 377.352 239.816 377.702 241.076 378.402C242.336 379.082 243.326 380.062 244.046 381.342C244.786 382.622 245.156 384.112 245.156 385.812C245.156 387.512 244.776 389.012 244.016 390.312C243.276 391.592 242.266 392.582 240.986 393.282C239.706 393.983 238.286 394.333 236.726 394.333ZM236.726 391.932C237.706 391.932 238.626 391.702 239.486 391.242C240.346 390.782 241.036 390.092 241.556 389.172C242.096 388.252 242.366 387.132 242.366 385.812C242.366 384.492 242.106 383.372 241.586 382.452C241.066 381.532 240.386 380.852 239.546 380.412C238.706 379.952 237.796 379.722 236.816 379.722C235.816 379.722 234.896 379.952 234.056 380.412C233.236 380.852 232.576 381.532 232.076 382.452C231.576 383.372 231.326 384.492 231.326 385.812C231.326 387.152 231.566 388.282 232.046 389.202C232.546 390.122 233.206 390.812 234.026 391.272C234.846 391.712 235.746 391.932 236.726 391.932Z" fill="#1A3567"/>
<path d="M431.952 533.525L470.567 555.16L430.373 573.697L431.952 533.525Z" fill="#1A3567"/>
<path d="M224.654 465.051L234.933 455.415C284.411 508.751 353.617 543.173 431.712 546.457L431.109 560.789C349.24 557.346 276.59 521.121 224.654 465.051Z" fill="#1A3567"/>
<path d="M606.998 574.5L517.498 527.5V441.5L477.998 401L508.498 414L499.498 389L591.498 339.5L607.498 383.5L633.998 337L726.498 383.5L715.498 409H726.498L701.498 437.5V527.5L606.998 574.5Z" fill="#D0E9FC"/>
<path fill-rule="evenodd" clip-rule="evenodd" d="M740.011 396.005C739.284 395.005 738.222 394.295 737.018 394.004C735.813 393.712 734.544 393.858 733.438 394.416L725.62 398.352L730.883 388.503C731.212 387.891 731.416 387.218 731.479 386.526C731.543 385.834 731.467 385.136 731.255 384.474C731.043 383.812 730.7 383.199 730.246 382.672C729.792 382.144 729.237 381.713 728.613 381.404L636.33 335.557C635.115 334.955 633.712 334.849 632.419 335.261C631.127 335.674 630.047 336.573 629.408 337.768L609.045 375.84L596.304 338.535C596.067 337.827 595.679 337.178 595.166 336.633C594.653 336.088 594.028 335.661 593.334 335.38C592.64 335.099 591.893 334.971 591.145 335.006C590.397 335.04 589.664 335.236 588.999 335.579L496.406 382.738C495.29 383.307 494.417 384.258 493.945 385.416C493.474 386.575 493.437 387.864 493.841 389.048L499.633 406.018L478.533 395.701C477.405 395.139 476.112 395.004 474.892 395.321C473.673 395.638 472.61 396.385 471.901 397.424C471.192 398.463 470.884 399.724 471.036 400.971C471.187 402.219 471.787 403.37 472.724 404.21L510.174 438.313V529.614C510.174 531.596 511.305 533.403 513.09 534.28L605.53 579.467L605.645 579.516C605.897 579.628 606.158 579.719 606.425 579.789C606.516 579.822 606.609 579.851 606.703 579.876C607.446 580.041 608.216 580.041 608.958 579.876L609.248 579.778C609.518 579.706 609.781 579.61 610.033 579.489L610.17 579.44L702.605 532.941C703.466 532.507 704.19 531.845 704.696 531.026C705.202 530.207 705.47 529.264 705.471 528.302V436.854L739.482 402.718C740.355 401.843 740.886 400.686 740.982 399.455C741.078 398.224 740.732 397 740.005 396L740.011 396.005ZM607.642 474.011L572.185 441.716C571.819 441.384 571.407 441.105 570.962 440.888L543.574 427.495L602.604 397.437V459.181C602.604 460.56 603.153 461.883 604.13 462.858C605.108 463.833 606.434 464.381 607.817 464.381C609.2 464.381 610.526 463.833 611.504 462.858C612.481 461.883 613.031 460.56 613.031 459.181V397.176L670.843 425.9L640.998 440.915C640.496 441.166 640.039 441.497 639.644 441.896L607.648 474.006L607.642 474.011ZM636.221 347.116L719.157 388.329L709.451 406.48L682.466 420.058L615.105 386.592L636.221 347.116ZM512.855 412.48L505.158 389.951L588.383 347.573L601.593 386.282L531.88 421.779L515.917 413.977L512.855 412.485V412.48ZM509.912 422.623L529.631 432.265L565.705 449.904L577.398 460.548L518.347 431.677L506.653 421.028L509.912 422.623ZM520.596 444.356L602.609 484.454V566.461L520.596 526.369V444.356ZM613.036 566.352V484.41L695.049 443.148V525.095L613.036 566.352ZM697.162 430.441L634.196 462.116L646.452 449.811L684.83 430.511L692.871 426.461L709.412 418.142L697.162 430.441Z" fill="#1A3567"/>
<path d="M202.583 236H173L214.417 165V218.5H244L202.583 295V236Z" fill="#E35F61"/>
</svg>
