<svg width="1280" height="720" viewBox="0 0 1280 720" fill="none" xmlns="http://www.w3.org/2000/svg">
<rect width="1280" height="720" fill="#ECFAFF"/>
<rect x="28" y="367" width="599" height="316" rx="29" fill="#95CEEC"/>
<rect x="647" y="31" width="599" height="316" rx="29" fill="#95CEEC"/>
<rect x="647" y="367" width="599" height="316" rx="29" fill="#95CEEC"/>
<path d="M955.5 589V571L967.5 567L973 554.5V543H923L925.5 559L936.5 573.5L942 589H955.5Z" fill="#ECFAFF" stroke="#1E5C93" stroke-width="4"/>
<path d="M978.111 618.1C978.116 612.201 976.447 606.422 973.3 601.436C970.153 596.449 965.656 592.46 960.333 589.931V575.068C965.656 572.54 970.153 568.551 973.3 563.564C976.447 558.578 978.116 552.799 978.111 546.9H987V538H907V546.9H915.889C915.884 552.799 917.553 558.578 920.7 563.564C923.847 568.551 928.344 572.54 933.667 575.068V589.931C928.344 592.46 923.847 596.449 920.7 601.436C917.553 606.422 915.884 612.201 915.889 618.1H907V627H987V618.1H978.111ZM969.222 546.9C969.223 552.029 967.454 557.001 964.215 560.975C960.975 564.948 956.464 567.679 951.444 568.705V582.5H942.556V568.705C937.536 567.679 933.025 564.948 929.785 560.975C926.546 557.001 924.777 552.029 924.778 546.9H969.222Z" fill="#1E5C93"/>
<rect x="28" y="31" width="599" height="316" rx="29" fill="#95CEEC"/>
<path d="M319.5 245V263L307.5 267L302 279.5V291H352L349.5 275L338.5 260.5L333 245H319.5Z" fill="#ECFAFF" stroke="#1E5C93" stroke-width="4"/>
<path d="M296.889 215.9C296.884 221.799 298.553 227.578 301.7 232.564C304.847 237.551 309.344 241.54 314.667 244.069V258.932C309.344 261.46 304.847 265.449 301.7 270.436C298.553 275.422 296.884 281.201 296.889 287.1H288V296H368V287.1H359.111C359.116 281.201 357.447 275.422 354.3 270.436C351.153 265.449 346.656 261.46 341.333 258.932V244.069C346.656 241.54 351.153 237.551 354.3 232.564C357.447 227.578 359.116 221.799 359.111 215.9H368V207H288V215.9H296.889ZM305.778 287.1C305.777 281.971 307.546 276.999 310.785 273.025C314.025 269.052 318.536 266.321 323.556 265.295V251.5H332.444V265.295C337.464 266.321 341.975 269.052 345.215 273.025C348.454 276.999 350.223 281.971 350.222 287.1H305.778Z" fill="#1E5C93"/>
<rect x="296" y="63" width="64" height="100" fill="url(#paint0_linear_410_4757)"/>
<path d="M319.083 138L303 122.015L310.329 114.731L319.083 123.457L344.671 98L352 105.284L319.083 138Z" fill="white"/>
<path d="M914.225 165.54L947.61 198.015L957.929 188.606L974.318 183.75L1003.15 157.346L1005.58 147.027L999.811 141.564L1003.15 133.066L999.811 130.031L996.169 123.658L999.811 116.07L993.438 112.428H984.94L978.567 105.448L971.586 88.7553V83.2923L965.213 81.4713L957.929 83.2923L954.287 78.1328H944.271L914.225 107.572V96.9497L909.369 88.7553L902.692 85.4168L898.139 96.9497L895.711 126.086L886 139.44L914.225 165.54Z" fill="#E6C6B0"/>
<path d="M990.609 129.023C991.972 127.728 993.78 127.006 995.661 127.006C997.541 127.006 999.349 127.728 1000.71 129.023C1003.5 131.713 1003.5 136.078 1000.71 138.768L993.981 145.255M990.609 129.023L997.347 122.53C1000.14 119.839 1000.14 115.475 997.347 112.784C995.983 111.489 994.175 110.767 992.295 110.767C990.414 110.767 988.606 111.489 987.242 112.784L982.19 117.657L965.342 133.896M990.609 129.023L972.08 146.882M993.981 145.255C995.344 143.961 997.152 143.239 999.033 143.239C1000.91 143.239 1002.72 143.961 1004.08 145.255C1004.75 145.881 1005.28 146.636 1005.64 147.474C1006 148.311 1006.18 149.213 1006.18 150.125C1006.18 151.037 1006 151.94 1005.64 152.777C1005.28 153.614 1004.75 154.369 1004.08 154.995L983.308 175.024C975.99 182.079 972.325 185.607 968.295 187.341C965.958 188.345 962.095 188.782 959.178 188.967C956.649 189.128 954.215 190.073 952.421 191.807L948.499 195.586M993.981 145.255L978.818 159.868M982.184 117.657C982.847 117.031 983.376 116.276 983.737 115.439C984.098 114.601 984.284 113.699 984.284 112.787C984.284 111.875 984.098 110.973 983.737 110.136C983.376 109.298 982.847 108.543 982.184 107.917C980.821 106.622 979.012 105.901 977.132 105.901C975.252 105.901 973.443 106.622 972.08 107.917L943.573 135.396L943.591 124.856C943.597 120.234 939.429 116.641 934.664 117.161C931.017 117.555 928.099 120.282 927.573 123.785L924.207 150.403C923.567 155.491 920.261 161.111 916.494 164.741M886.606 138.786C890.54 134.912 893.996 128.927 894.671 123.492L898.181 95.0807C898.46 93.2481 899.339 91.5599 900.681 90.2809C902.023 89.0019 903.751 88.2045 905.595 88.0137C910.581 87.4636 914.928 91.2901 914.922 96.2227L914.898 107.487L944.697 78.1605C946.109 76.7805 948.005 76.0078 949.979 76.0078C951.953 76.0078 953.849 76.7805 955.261 78.1605C955.953 78.837 956.502 79.6448 956.877 80.5365C957.252 81.4282 957.446 82.3858 957.446 83.3532C957.446 84.3205 957.252 85.2782 956.877 86.1699C956.502 87.0615 955.953 87.8693 955.261 88.5458L960.547 83.3502C961.959 81.9701 963.855 81.1975 965.829 81.1975C967.803 81.1975 969.699 81.9701 971.111 83.3502C972.57 84.7851 973.3 86.6685 973.3 88.5518M955.267 88.5518L940.41 103.152" stroke="#1E5C93" stroke-width="6" stroke-linecap="round" stroke-linejoin="round"/>
<path d="M824.252 76.2626C822.181 78.8465 817.899 86.4806 815.285 92.2562C805.991 112.778 802.965 135.39 806.487 157.99C808.041 167.959 810.496 176.214 815.408 187.977C816.268 190.035 817.963 192.634 818.95 193.403C820.623 194.71 823.471 193.714 824.581 191.435C825.179 190.206 825.101 189.409 824.205 187.633C823.775 186.774 822.834 184.675 822.114 182.967C813.558 162.644 811.187 142.298 814.877 120.88C816.401 112.04 818.97 103.811 822.975 94.9438C824.485 91.6027 825.453 89.7497 827.725 85.8472C830.553 80.9919 831.431 79.1989 831.41 78.3246C831.361 76.216 829.294 74.5245 826.962 74.689C825.786 74.7717 825.151 75.1395 824.252 76.2626ZM837.594 93.3467C835.531 95.726 832.315 101.601 829.943 107.326C823.962 121.754 822.167 138.265 824.903 153.682C826.168 160.813 828.863 169.105 831.803 174.918C833.23 177.723 834.747 178.708 836.967 178.251C838.104 178.017 838.815 177.477 839.451 176.367C840.316 174.857 840.167 173.881 838.5 170.134C833.971 159.956 831.942 150.994 831.922 141.069C831.899 130.219 832.699 124.288 835.218 116.632C836.903 111.515 838.4 108.332 844.3 97.3311L845.377 95.3251L844.896 94.2299C844.484 93.2922 844.247 93.0309 843.236 92.3952C841.894 91.5523 840.321 91.3892 839.174 91.9743C838.79 92.1722 838.078 92.7892 837.594 93.3467ZM848.371 112.348C847.048 114.386 844.61 119.463 843.614 122.253C842.082 126.548 840.823 133.22 840.829 137.028C840.841 143.775 842.248 150.774 844.829 156.902C846.333 160.476 847.161 161.378 849.204 161.665C851.814 162.033 854.02 159.7 853.489 157.134C853.377 156.599 852.805 154.987 852.217 153.555C847.538 142.143 848.203 128.909 853.955 118.961C856.185 115.1 856.492 113.794 855.592 111.981C855.115 111.002 854.427 110.459 853.266 110.111C851.359 109.539 849.704 110.294 848.371 112.348Z" fill="#ECFAFF"/>
<path d="M1069.02 199.855C1071.09 197.271 1075.37 189.637 1077.98 183.861C1087.28 163.339 1090.3 140.727 1086.78 118.127C1085.23 108.158 1082.77 99.9031 1077.86 88.1398C1077 86.0821 1075.31 83.4836 1074.32 82.7139C1072.64 81.4069 1069.8 82.4033 1068.69 84.6822C1068.09 85.9112 1068.17 86.7078 1069.06 88.4838C1069.49 89.3429 1070.43 91.4422 1071.15 93.1503C1079.71 113.474 1082.08 133.819 1078.39 155.237C1076.87 164.077 1074.3 172.306 1070.29 181.173C1068.78 184.514 1067.82 186.368 1065.54 190.27C1062.71 195.125 1061.84 196.918 1061.86 197.793C1061.91 199.901 1063.97 201.593 1066.31 201.428C1067.48 201.346 1068.12 200.978 1069.02 199.855ZM1055.67 182.77C1057.74 180.391 1060.95 174.517 1063.33 168.791C1069.31 154.363 1071.1 137.852 1068.36 122.435C1067.1 115.304 1064.4 107.013 1061.46 101.199C1060.04 98.394 1058.52 97.4096 1056.3 97.8663C1055.16 98.1005 1054.45 98.64 1053.82 99.7504C1052.95 101.26 1053.1 102.236 1054.77 105.983C1059.3 116.161 1061.33 125.123 1061.35 135.049C1061.37 145.898 1060.57 151.829 1058.05 159.485C1056.36 164.602 1054.87 167.785 1048.97 178.786L1047.89 180.792L1048.37 181.887C1048.78 182.825 1049.02 183.086 1050.03 183.722C1051.37 184.565 1052.95 184.728 1054.09 184.143C1054.48 183.945 1055.19 183.328 1055.67 182.77ZM1044.9 163.769C1046.22 161.731 1048.66 156.654 1049.65 153.865C1051.19 149.569 1052.44 142.897 1052.44 139.089C1052.43 132.342 1051.02 125.343 1048.44 119.215C1046.94 115.641 1046.11 114.739 1044.06 114.452C1041.45 114.084 1039.25 116.417 1039.78 118.983C1039.89 119.518 1040.46 121.13 1041.05 122.563C1045.73 133.974 1045.06 147.208 1039.31 157.156C1037.08 161.017 1036.78 162.323 1037.68 164.136C1038.15 165.115 1038.84 165.658 1040 166.006C1041.91 166.579 1043.56 165.823 1044.9 163.769Z" fill="#ECFAFF"/>
<path d="M825.253 521.263C823.181 523.847 818.9 531.481 816.286 537.256C806.991 557.778 803.966 580.39 807.488 602.99C809.042 612.959 811.497 621.214 816.408 632.977C817.269 635.035 818.963 637.634 819.95 638.403C821.623 639.71 824.472 638.714 825.582 636.435C826.179 635.206 826.101 634.409 825.206 632.633C824.775 631.774 823.835 629.675 823.115 627.967C814.559 607.644 812.187 587.298 815.878 565.88C817.401 557.04 819.971 548.811 823.976 539.944C825.485 536.603 826.453 534.75 828.726 530.847C831.554 525.992 832.431 524.199 832.411 523.325C832.362 521.216 830.294 519.525 827.963 519.689C826.786 519.772 826.152 520.139 825.253 521.263ZM838.595 538.347C836.531 540.726 833.316 546.601 830.943 552.326C824.963 566.754 823.167 583.265 825.903 598.682C827.169 605.813 829.863 614.105 832.803 619.918C834.23 622.723 835.748 623.708 837.967 623.251C839.105 623.017 839.816 622.477 840.451 621.367C841.317 619.857 841.167 618.881 839.5 615.134C834.971 604.956 832.943 595.994 832.922 586.069C832.9 575.219 833.7 569.288 836.218 561.632C837.903 556.515 839.401 553.332 845.301 542.331L846.377 540.325L845.897 539.23C845.485 538.292 845.248 538.031 844.237 537.395C842.894 536.552 841.322 536.389 840.175 536.974C839.79 537.172 839.079 537.789 838.595 538.347ZM849.371 557.348C848.048 559.386 845.611 564.463 844.615 567.253C843.082 571.548 841.824 578.22 841.83 582.028C841.842 588.775 843.249 595.774 845.829 601.902C847.333 605.476 848.162 606.378 850.204 606.665C852.815 607.033 855.021 604.7 854.489 602.134C854.378 601.599 853.805 599.987 853.218 598.555C848.539 587.143 849.204 573.909 854.955 563.961C857.186 560.1 857.493 558.794 856.592 556.981C856.115 556.002 855.427 555.459 854.267 555.111C852.359 554.539 850.704 555.294 849.371 557.348Z" fill="#E35F61"/>
<path d="M1070.02 644.855C1072.09 642.271 1076.37 634.637 1078.98 628.861C1088.28 608.339 1091.3 585.727 1087.78 563.127C1086.23 553.158 1083.77 544.903 1078.86 533.14C1078 531.082 1076.31 528.484 1075.32 527.714C1073.65 526.407 1070.8 527.403 1069.69 529.682C1069.09 530.911 1069.17 531.708 1070.06 533.484C1070.49 534.343 1071.43 536.442 1072.15 538.15C1080.71 558.474 1083.08 578.819 1079.39 600.237C1077.87 609.077 1075.3 617.306 1071.29 626.173C1069.78 629.514 1068.82 631.368 1066.54 635.27C1063.72 640.125 1062.84 641.918 1062.86 642.793C1062.91 644.901 1064.98 646.593 1067.31 646.428C1068.48 646.346 1069.12 645.978 1070.02 644.855ZM1056.67 627.77C1058.74 625.391 1061.95 619.517 1064.33 613.791C1070.31 599.363 1072.1 582.852 1069.37 567.435C1068.1 560.304 1065.41 552.013 1062.47 546.199C1061.04 543.394 1059.52 542.41 1057.3 542.866C1056.16 543.101 1055.45 543.64 1054.82 544.75C1053.95 546.26 1054.1 547.236 1055.77 550.983C1060.3 561.161 1062.33 570.123 1062.35 580.049C1062.37 590.898 1061.57 596.829 1059.05 604.485C1057.37 609.602 1055.87 612.785 1049.97 623.786L1048.89 625.792L1049.37 626.887C1049.78 627.825 1050.02 628.086 1051.03 628.722C1052.38 629.565 1053.95 629.728 1055.09 629.143C1055.48 628.945 1056.19 628.328 1056.67 627.77ZM1045.9 608.769C1047.22 606.731 1049.66 601.654 1050.65 598.865C1052.19 594.569 1053.45 587.897 1053.44 584.089C1053.43 577.342 1052.02 570.343 1049.44 564.215C1047.94 560.641 1047.11 559.739 1045.07 559.452C1042.46 559.084 1040.25 561.417 1040.78 563.983C1040.89 564.518 1041.46 566.13 1042.05 567.563C1046.73 578.974 1046.07 592.208 1040.31 602.156C1038.08 606.017 1037.78 607.323 1038.68 609.136C1039.15 610.115 1039.84 610.658 1041 611.006C1042.91 611.579 1044.57 610.823 1045.9 608.769Z" fill="#E35F61"/>
<path d="M938.5 254V272L926.5 276L921 288.5V300H971L968.5 284L957.5 269.5L952 254H938.5Z" fill="#ECFAFF" stroke="#1E5C93" stroke-width="4"/>
<path d="M946.999 248.008V288.008" stroke="#1E5C93" stroke-width="4" stroke-linecap="round" stroke-dasharray="7 7"/>
<path d="M915.888 224.9C915.884 230.799 917.552 236.578 920.699 241.564C923.847 246.551 928.343 250.54 933.666 253.069V267.932C928.343 270.46 923.847 274.449 920.699 279.436C917.552 284.422 915.884 290.201 915.888 296.1H907V305H987V296.1H978.111C978.115 290.201 976.447 284.422 973.3 279.436C970.152 274.449 965.656 270.46 960.333 267.932V253.069C965.656 250.54 970.152 246.551 973.3 241.564C976.447 236.578 978.115 230.799 978.111 224.9H987V216H907V224.9H915.888ZM924.777 296.1C924.776 290.971 926.545 285.999 929.785 282.025C933.024 278.052 937.536 275.321 942.555 274.295V260.5H951.444V274.295C956.463 275.321 960.975 278.052 964.214 282.025C967.454 285.999 969.223 290.971 969.222 296.1H924.777Z" fill="#1E5C93"/>
<path d="M299.704 514.71L328.338 542.563L337.188 534.494L351.244 530.329L375.974 507.682L378.056 498.832L373.11 494.146L375.974 486.858L373.11 484.255L369.987 478.788L373.11 472.28L367.644 469.157H360.355L354.889 463.17L348.902 448.853V444.167L343.435 442.606L337.188 444.167L334.064 439.742H325.474L299.704 464.992V455.881L295.539 448.853L289.812 445.99L285.908 455.881L283.825 480.871L275.495 492.324L299.704 514.71Z" fill="#E6C6B0"/>
<path d="M365.217 483.384C366.386 482.274 367.937 481.654 369.55 481.654C371.163 481.654 372.714 482.274 373.883 483.384C376.278 485.692 376.278 489.435 373.883 491.743L368.109 497.307M365.217 483.384L370.996 477.815C373.391 475.508 373.391 471.764 370.996 469.457C369.827 468.346 368.276 467.727 366.663 467.727C365.05 467.727 363.499 468.346 362.33 469.457L357.997 473.636L343.546 487.564M365.217 483.384L349.325 498.702M368.109 497.307C369.278 496.196 370.83 495.577 372.442 495.577C374.055 495.577 375.606 496.196 376.775 497.307C377.344 497.844 377.797 498.491 378.107 499.209C378.417 499.927 378.577 500.701 378.577 501.484C378.577 502.266 378.417 503.04 378.107 503.758C377.797 504.476 377.344 505.123 376.775 505.66L358.956 522.839C352.679 528.89 349.535 531.916 346.079 533.403C344.074 534.264 340.761 534.639 338.259 534.798C336.09 534.936 334.003 535.746 332.464 537.233L329.1 540.474M368.109 497.307L355.104 509.84M357.992 473.636C358.56 473.099 359.013 472.452 359.323 471.733C359.633 471.015 359.793 470.241 359.793 469.459C359.793 468.677 359.633 467.903 359.323 467.185C359.013 466.467 358.56 465.819 357.992 465.282C356.822 464.172 355.271 463.553 353.658 463.553C352.046 463.553 350.495 464.172 349.325 465.282L324.875 488.851L324.89 479.81C324.895 475.846 321.321 472.764 317.234 473.21C314.106 473.549 311.604 475.887 311.152 478.892L308.265 501.722C307.717 506.086 304.881 510.906 301.65 514.019M276.015 491.758C279.39 488.435 282.354 483.302 282.933 478.641L285.943 454.273C286.182 452.701 286.936 451.253 288.087 450.156C289.238 449.059 290.72 448.375 292.302 448.211C296.579 447.74 300.307 451.021 300.302 455.252L300.281 464.913L325.839 439.76C327.05 438.577 328.676 437.914 330.37 437.914C332.063 437.914 333.689 438.577 334.9 439.76C335.493 440.341 335.964 441.033 336.286 441.798C336.608 442.563 336.774 443.384 336.774 444.214C336.774 445.044 336.608 445.865 336.286 446.63C335.964 447.395 335.493 448.088 334.9 448.668L339.433 444.212C340.644 443.028 342.27 442.365 343.964 442.365C345.657 442.365 347.283 443.028 348.494 444.212C349.746 445.442 350.371 447.058 350.371 448.673M334.905 448.673L322.162 461.195" stroke="#1E5C93" stroke-width="5" stroke-linecap="round" stroke-linejoin="round"/>
<path d="M222.536 438.139C220.759 440.355 217.087 446.903 214.845 451.857C206.873 469.458 204.278 488.852 207.299 508.236C208.632 516.786 210.737 523.866 214.95 533.955C215.688 535.72 217.141 537.949 217.988 538.609C219.423 539.73 221.866 538.875 222.818 536.921C223.33 535.867 223.263 535.184 222.495 533.66C222.126 532.924 221.32 531.123 220.702 529.658C213.364 512.227 211.33 494.777 214.495 476.407C215.801 468.825 218.005 461.767 221.44 454.162C222.735 451.296 223.565 449.707 225.514 446.36C227.94 442.196 228.692 440.658 228.675 439.908C228.633 438.099 226.86 436.649 224.86 436.79C223.851 436.86 223.307 437.176 222.536 438.139ZM233.979 452.792C232.209 454.833 229.451 459.871 227.416 464.782C222.287 477.157 220.747 491.318 223.094 504.541C224.179 510.657 226.49 517.769 229.012 522.755C230.235 525.161 231.537 526.005 233.441 525.613C234.416 525.412 235.026 524.95 235.571 523.997C236.313 522.703 236.186 521.865 234.756 518.652C230.871 509.922 229.131 502.235 229.114 493.722C229.094 484.417 229.781 479.33 231.941 472.764C233.386 468.375 234.67 465.645 239.731 456.209L240.654 454.489L240.242 453.55C239.888 452.745 239.685 452.521 238.818 451.976C237.667 451.253 236.318 451.113 235.334 451.615C235.004 451.785 234.394 452.314 233.979 452.792ZM243.222 469.089C242.087 470.837 239.996 475.192 239.142 477.584C237.828 481.269 236.749 486.991 236.754 490.257C236.764 496.044 237.971 502.047 240.184 507.303C241.474 510.368 242.184 511.142 243.936 511.387C246.175 511.703 248.067 509.702 247.611 507.502C247.516 507.043 247.025 505.66 246.521 504.431C242.508 494.644 243.078 483.293 248.011 474.761C249.924 471.449 250.187 470.33 249.415 468.775C249.006 467.935 248.416 467.469 247.421 467.171C245.784 466.68 244.365 467.328 243.222 469.089Z" fill="#ECFAFF"/>
<path d="M378.534 399.534C376.318 397.757 369.771 394.085 364.817 391.843C347.216 383.871 327.822 381.276 308.438 384.297C299.887 385.63 292.807 387.736 282.718 391.948C280.953 392.686 278.725 394.139 278.064 394.986C276.944 396.421 277.798 398.864 279.753 399.816C280.807 400.328 281.49 400.261 283.013 399.493C283.75 399.124 285.551 398.318 287.016 397.7C304.447 390.362 321.897 388.328 340.267 391.493C347.849 392.8 354.906 395.003 362.512 398.438C365.377 399.733 366.967 400.563 370.314 402.512C374.478 404.938 376.016 405.691 376.766 405.673C378.574 405.631 380.025 403.858 379.884 401.858C379.813 400.849 379.498 400.305 378.534 399.534ZM363.882 410.977C361.841 409.207 356.802 406.449 351.891 404.414C339.517 399.285 325.356 397.745 312.133 400.092C306.017 401.177 298.905 403.488 293.919 406.01C291.513 407.233 290.669 408.535 291.06 410.439C291.261 411.414 291.724 412.024 292.676 412.569C293.971 413.311 294.808 413.184 298.022 411.754C306.752 407.869 314.438 406.129 322.951 406.112C332.257 406.092 337.343 406.779 343.91 408.939C348.299 410.384 351.029 411.668 360.464 416.729L362.185 417.652L363.124 417.24C363.928 416.886 364.152 416.683 364.698 415.816C365.421 414.665 365.56 413.316 365.059 412.332C364.889 412.002 364.36 411.392 363.882 410.977ZM347.584 420.22C345.837 419.085 341.482 416.994 339.089 416.14C335.405 414.826 329.682 413.747 326.417 413.752C320.63 413.762 314.627 414.969 309.371 417.182C306.305 418.472 305.532 419.183 305.286 420.934C304.97 423.173 306.971 425.065 309.172 424.609C309.631 424.514 311.013 424.023 312.242 423.519C322.029 419.506 333.38 420.076 341.913 425.009C345.224 426.922 346.344 427.186 347.899 426.413C348.739 426.004 349.205 425.414 349.503 424.419C349.994 422.783 349.346 421.363 347.584 420.22Z" fill="#ECFAFF"/>
<path d="M432.465 544.142C434.241 541.926 437.913 535.378 440.156 530.425C448.127 512.823 450.722 493.429 447.701 474.045C446.368 465.495 444.263 458.415 440.05 448.326C439.312 446.561 437.859 444.332 437.012 443.672C435.577 442.551 433.134 443.406 432.182 445.36C431.67 446.414 431.737 447.098 432.505 448.621C432.874 449.358 433.681 451.158 434.298 452.623C441.637 470.054 443.671 487.505 440.505 505.874C439.199 513.456 436.995 520.514 433.56 528.119C432.265 530.985 431.435 532.574 429.486 535.921C427.06 540.086 426.308 541.624 426.325 542.373C426.367 544.182 428.141 545.633 430.14 545.492C431.149 545.421 431.694 545.105 432.465 544.142ZM421.021 529.489C422.791 527.449 425.549 522.41 427.584 517.499C432.713 505.124 434.253 490.964 431.907 477.74C430.821 471.624 428.51 464.513 425.988 459.527C424.765 457.121 423.463 456.276 421.56 456.668C420.584 456.869 419.974 457.332 419.429 458.284C418.687 459.579 418.815 460.416 420.245 463.63C424.129 472.359 425.869 480.046 425.886 488.559C425.906 497.865 425.22 502.951 423.06 509.517C421.614 513.906 420.33 516.637 415.27 526.072L414.347 527.792L414.759 528.732C415.112 529.536 415.315 529.76 416.182 530.305C417.334 531.028 418.682 531.168 419.666 530.666C419.996 530.497 420.606 529.967 421.021 529.489ZM411.779 513.192C412.913 511.444 415.004 507.089 415.858 504.697C417.173 501.013 418.252 495.29 418.247 492.024C418.236 486.237 417.03 480.235 414.816 474.979C413.526 471.913 412.816 471.14 411.064 470.894C408.825 470.578 406.933 472.579 407.389 474.779C407.485 475.238 407.975 476.621 408.479 477.85C412.492 487.637 411.922 498.988 406.989 507.52C405.076 510.832 404.813 511.951 405.585 513.507C405.994 514.346 406.584 514.812 407.58 515.11C409.216 515.602 410.635 514.954 411.779 513.192Z" fill="#ECFAFF"/>
<path d="M336.5 603V585L348.5 581L354 568.5V557H304L306.5 573L317.5 587.5L323 603H336.5Z" fill="#ECFAFF" stroke="#1E5C93" stroke-width="4"/>
<path d="M315.5 583H336L347 575.5H308.5L315.5 583Z" fill="#1E5C93"/>
<path d="M359.111 632.1C359.116 626.201 357.447 620.422 354.3 615.436C351.153 610.449 346.656 606.46 341.333 603.931V589.068C346.656 586.54 351.153 582.551 354.3 577.564C357.447 572.578 359.116 566.799 359.111 560.9H368V552H288V560.9H296.889C296.884 566.799 298.553 572.578 301.7 577.564C304.847 582.551 309.344 586.54 314.667 589.068V603.931C309.344 606.46 304.847 610.449 301.7 615.436C298.553 620.422 296.884 626.201 296.889 632.1H288V641H368V632.1H359.111ZM350.222 560.9C350.223 566.029 348.454 571.001 345.215 574.975C341.975 578.948 337.464 581.679 332.444 582.705V596.5H323.556V582.705C318.536 581.679 314.025 578.948 310.785 574.975C307.546 571.001 305.777 566.029 305.778 560.9H350.222Z" fill="#1E5C93"/>
<path d="M834.331 454.029C834.284 452.322 834.912 450.669 836.08 449.429C837.248 448.19 838.86 447.464 840.567 447.409C842.273 447.353 843.936 447.974 845.194 449.135C846.452 450.297 847.204 451.905 847.285 453.611L846.763 439.836C846.731 438.984 846.867 438.135 847.163 437.338C847.46 436.54 847.911 435.81 848.49 435.188C849.07 434.566 849.767 434.065 850.542 433.714C851.317 433.363 852.154 433.168 853.006 433.14C853.858 433.113 854.708 433.253 855.507 433.554C856.307 433.854 857.04 434.309 857.665 434.892C858.29 435.475 858.795 436.174 859.15 436.951C859.506 437.727 859.706 438.565 859.738 439.417L859.388 430.387C859.359 428.69 859.996 427.052 861.164 425.825C862.331 424.599 863.935 423.881 865.632 423.826C867.329 423.771 868.984 424.382 870.241 425.53C871.499 426.678 872.259 428.27 872.359 429.965L872.705 438.998C872.677 437.301 873.314 435.663 874.482 434.437C875.649 433.21 877.253 432.492 878.95 432.437C880.647 432.382 882.302 432.994 883.559 434.142C884.817 435.289 885.577 436.881 885.677 438.576L887.038 474.724C887.043 474.732 887.046 474.731 887.048 474.72L892.695 464.071C893.305 462.934 894.307 462.059 895.516 461.606C896.724 461.152 898.058 461.152 899.272 461.605C900.486 462.058 901.497 462.933 902.119 464.07C902.742 465.206 902.934 466.527 902.659 467.789L898.17 487.915C896.777 494.147 893.357 499.733 888.442 503.798C883.527 507.864 877.396 510.181 871.004 510.387L865.422 510.57C857.751 510.817 850.279 508.007 844.65 502.759C839.021 497.51 835.696 490.253 835.406 482.583L834.331 454.029Z" fill="#E6C6B0"/>
<path d="M847.282 453.614L847.894 469.768L847.282 453.614ZM847.282 453.614L846.763 439.836C846.731 438.984 846.867 438.135 847.163 437.338C847.46 436.54 847.911 435.81 848.49 435.188C849.07 434.566 849.767 434.065 850.542 433.714C851.317 433.363 852.154 433.168 853.006 433.14C853.858 433.113 854.708 433.253 855.507 433.554C856.307 433.854 857.04 434.309 857.665 434.892C858.29 435.475 858.795 436.174 859.15 436.951C859.506 437.727 859.706 438.565 859.738 439.417M847.282 453.614C847.259 452.758 847.065 451.914 846.714 451.131C846.362 450.348 845.859 449.642 845.234 449.053C844.609 448.464 843.874 448.004 843.071 447.7C842.269 447.396 841.415 447.253 840.558 447.281C839.702 447.309 838.861 447.506 838.083 447.861C837.305 448.216 836.607 448.722 836.027 449.35C835.448 449.978 834.999 450.715 834.708 451.518C834.416 452.322 834.287 453.176 834.328 454.032L835.403 482.58C835.546 486.378 836.436 490.115 838.022 493.578C839.608 497.04 841.859 500.16 844.647 502.759C847.434 505.358 850.704 507.386 854.268 508.726C857.833 510.066 861.623 510.693 865.422 510.57L871.004 510.387C877.397 510.181 883.53 507.864 888.445 503.798C893.36 499.732 896.781 494.145 898.173 487.911L902.656 467.792C902.93 466.53 902.739 465.209 902.116 464.073C901.494 462.937 900.482 462.061 899.269 461.608C898.055 461.156 896.721 461.156 895.512 461.609C894.304 462.062 893.302 462.938 892.692 464.074L887.057 474.703C887.045 474.717 887.037 474.718 887.034 474.707L885.673 438.58C885.659 437.716 885.472 436.864 885.123 436.071C884.775 435.279 884.273 434.564 883.645 433.967C883.018 433.37 882.278 432.903 881.47 432.595C880.661 432.286 879.8 432.142 878.937 432.17C878.073 432.198 877.225 432.398 876.442 432.758C875.659 433.118 874.957 433.632 874.376 434.268C873.795 434.904 873.348 435.651 873.061 436.464C872.773 437.277 872.652 438.139 872.702 439.002M872.702 439.002L873.833 468.934L872.702 439.002Z" fill="#E6C6B0"/>
<path d="M846.763 439.836L847.285 453.611C847.204 451.905 846.452 450.297 845.194 449.135C843.936 447.974 842.273 447.353 840.567 447.409C838.86 447.464 837.248 448.19 836.08 449.429C834.912 450.669 834.284 452.322 834.331 454.029L835.406 482.583C835.696 490.253 839.021 497.51 844.65 502.759C850.279 508.007 857.751 510.817 865.422 510.57M846.763 439.836C846.731 438.984 846.867 438.135 847.163 437.338C847.46 436.54 847.911 435.81 848.49 435.188C849.07 434.566 849.767 434.065 850.542 433.714C851.317 433.363 852.154 433.168 853.006 433.14C853.858 433.113 854.708 433.253 855.507 433.554C856.307 433.854 857.04 434.309 857.665 434.892C858.29 435.475 858.795 436.174 859.15 436.951C859.506 437.727 859.706 438.565 859.738 439.417L859.388 430.387M846.763 439.836L847.282 453.614M859.388 430.387C859.359 428.69 859.996 427.052 861.164 425.825C862.331 424.599 863.935 423.881 865.632 423.826C867.329 423.771 868.984 424.382 870.241 425.53C871.499 426.678 872.259 428.27 872.359 429.965M859.388 430.387L860.862 469.356M872.359 429.965L872.705 438.998C872.677 437.301 873.314 435.663 874.482 434.437C875.649 433.21 877.253 432.492 878.95 432.437C880.647 432.382 882.302 432.994 883.559 434.142C884.817 435.289 885.577 436.881 885.677 438.576L887.038 474.724C887.043 474.732 887.046 474.731 887.048 474.72L892.695 464.071C893.305 462.934 894.307 462.059 895.516 461.606C896.724 461.152 898.058 461.152 899.272 461.605C900.486 462.058 901.497 462.933 902.119 464.07C902.742 465.206 902.934 466.527 902.659 467.789L898.17 487.915C896.777 494.147 893.357 499.733 888.442 503.798C883.527 507.864 877.396 510.181 871.004 510.387M872.359 429.965L872.702 439.002M871.004 510.387L865.422 510.57M871.004 510.387C877.397 510.181 883.53 507.864 888.445 503.798C893.36 499.732 896.781 494.145 898.173 487.911L902.656 467.792C902.93 466.53 902.739 465.209 902.116 464.073C901.494 462.937 900.482 462.061 899.269 461.608C898.055 461.156 896.721 461.156 895.512 461.609C894.304 462.062 893.302 462.938 892.692 464.074L887.057 474.703C887.045 474.717 887.037 474.718 887.034 474.707L885.673 438.58C885.659 437.716 885.472 436.864 885.123 436.071C884.775 435.279 884.273 434.564 883.645 433.967C883.018 433.37 882.278 432.903 881.47 432.595C880.661 432.286 879.8 432.142 878.937 432.17C878.073 432.198 877.225 432.398 876.442 432.758C875.659 433.118 874.957 433.632 874.376 434.268C873.795 434.904 873.348 435.651 873.061 436.464C872.773 437.277 872.652 438.139 872.702 439.002M865.422 510.57C861.623 510.693 857.833 510.066 854.268 508.726C850.704 507.386 847.434 505.358 844.647 502.759C841.859 500.16 839.608 497.04 838.022 493.578C836.436 490.115 835.546 486.378 835.403 482.58L834.328 454.032C834.287 453.176 834.416 452.322 834.708 451.518C834.999 450.715 835.448 449.978 836.027 449.35C836.607 448.722 837.305 448.216 838.083 447.861C838.861 447.506 839.702 447.309 840.558 447.281C841.415 447.253 842.269 447.396 843.071 447.7C843.874 448.004 844.609 448.464 845.234 449.053C845.859 449.642 846.362 450.348 846.714 451.131C847.065 451.914 847.259 452.758 847.282 453.614M847.282 453.614L847.894 469.768M872.702 439.002L873.833 468.934" stroke="#1E5C93" stroke-width="5" stroke-linecap="square"/>
<path d="M1060.11 454.029C1060.15 452.322 1059.52 450.669 1058.36 449.429C1057.19 448.19 1055.58 447.464 1053.87 447.409C1052.16 447.353 1050.5 447.974 1049.24 449.135C1047.98 450.297 1047.23 451.905 1047.15 453.611L1047.67 439.836C1047.71 438.984 1047.57 438.135 1047.27 437.338C1046.98 436.54 1046.53 435.81 1045.95 435.188C1045.37 434.566 1044.67 434.065 1043.89 433.714C1043.12 433.363 1042.28 433.168 1041.43 433.14C1040.58 433.113 1039.73 433.253 1038.93 433.554C1038.13 433.854 1037.4 434.309 1036.77 434.892C1036.15 435.475 1035.64 436.174 1035.29 436.951C1034.93 437.727 1034.73 438.565 1034.7 439.417L1035.05 430.387C1035.08 428.69 1034.44 427.052 1033.27 425.825C1032.11 424.599 1030.5 423.881 1028.8 423.826C1027.11 423.771 1025.45 424.382 1024.2 425.53C1022.94 426.678 1022.18 428.27 1022.08 429.965L1021.73 438.998C1021.76 437.301 1021.12 435.663 1019.95 434.437C1018.79 433.21 1017.18 432.492 1015.49 432.437C1013.79 432.382 1012.13 432.994 1010.88 434.142C1009.62 435.289 1008.86 436.881 1008.76 438.576L1007.4 474.724C1007.39 474.732 1007.39 474.731 1007.39 474.72L1001.74 464.071C1001.13 462.934 1000.13 462.059 998.921 461.606C997.712 461.152 996.378 461.152 995.165 461.605C993.951 462.058 992.94 462.933 992.317 464.07C991.695 465.206 991.503 466.527 991.777 467.789L996.267 487.915C997.659 494.147 1001.08 499.733 1005.99 503.798C1010.91 507.864 1017.04 510.181 1023.43 510.387L1029.01 510.57C1036.69 510.817 1044.16 508.007 1049.79 502.759C1055.42 497.51 1058.74 490.253 1059.03 482.583L1060.11 454.029Z" fill="#E6C6B0"/>
<path d="M1047.15 453.614L1046.54 469.768L1047.15 453.614ZM1047.15 453.614L1047.67 439.836C1047.71 438.984 1047.57 438.135 1047.27 437.338C1046.98 436.54 1046.53 435.81 1045.95 435.188C1045.37 434.566 1044.67 434.065 1043.89 433.714C1043.12 433.363 1042.28 433.168 1041.43 433.14C1040.58 433.113 1039.73 433.253 1038.93 433.554C1038.13 433.854 1037.4 434.309 1036.77 434.892C1036.15 435.475 1035.64 436.174 1035.29 436.951C1034.93 437.727 1034.73 438.565 1034.7 439.417M1047.15 453.614C1047.18 452.758 1047.37 451.914 1047.72 451.131C1048.07 450.348 1048.58 449.642 1049.2 449.053C1049.83 448.464 1050.56 448.004 1051.37 447.7C1052.17 447.396 1053.02 447.253 1053.88 447.281C1054.73 447.309 1055.58 447.506 1056.35 447.861C1057.13 448.216 1057.83 448.722 1058.41 449.35C1058.99 449.978 1059.44 450.715 1059.73 451.518C1060.02 452.322 1060.15 453.176 1060.11 454.032L1059.03 482.58C1058.89 486.378 1058 490.115 1056.41 493.578C1054.83 497.04 1052.58 500.16 1049.79 502.759C1047 505.358 1043.73 507.386 1040.17 508.726C1036.6 510.066 1032.81 510.693 1029.01 510.57L1023.43 510.387C1017.04 510.181 1010.91 507.864 1005.99 503.798C1001.08 499.732 997.656 494.145 996.264 487.911L991.781 467.792C991.506 466.53 991.698 465.209 992.32 464.073C992.943 462.937 993.954 462.061 995.168 461.608C996.381 461.156 997.715 461.156 998.924 461.609C1000.13 462.062 1001.13 462.938 1001.74 464.074L1007.38 474.703C1007.39 474.717 1007.4 474.718 1007.4 474.707L1008.76 438.58C1008.78 437.716 1008.96 436.864 1009.31 436.071C1009.66 435.279 1010.16 434.564 1010.79 433.967C1011.42 433.37 1012.16 432.903 1012.97 432.595C1013.78 432.286 1014.64 432.142 1015.5 432.17C1016.36 432.198 1017.21 432.398 1017.99 432.758C1018.78 433.118 1019.48 433.632 1020.06 434.268C1020.64 434.904 1021.09 435.651 1021.38 436.464C1021.66 437.277 1021.78 438.139 1021.73 439.002M1021.73 439.002L1020.6 468.934L1021.73 439.002Z" fill="#E6C6B0"/>
<path d="M1047.67 439.836L1047.15 453.611C1047.23 451.905 1047.98 450.297 1049.24 449.135C1050.5 447.974 1052.16 447.353 1053.87 447.409C1055.58 447.464 1057.19 448.19 1058.36 449.429C1059.52 450.669 1060.15 452.322 1060.11 454.029L1059.03 482.583C1058.74 490.253 1055.42 497.51 1049.79 502.759C1044.16 508.007 1036.69 510.817 1029.01 510.57M1047.67 439.836C1047.71 438.984 1047.57 438.135 1047.27 437.338C1046.98 436.54 1046.53 435.81 1045.95 435.188C1045.37 434.566 1044.67 434.065 1043.89 433.714C1043.12 433.363 1042.28 433.168 1041.43 433.14C1040.58 433.113 1039.73 433.253 1038.93 433.554C1038.13 433.854 1037.4 434.309 1036.77 434.892C1036.15 435.475 1035.64 436.174 1035.29 436.951C1034.93 437.727 1034.73 438.565 1034.7 439.417L1035.05 430.387M1047.67 439.836L1047.15 453.614M1035.05 430.387C1035.08 428.69 1034.44 427.052 1033.27 425.825C1032.11 424.599 1030.5 423.881 1028.8 423.826C1027.11 423.771 1025.45 424.382 1024.2 425.53C1022.94 426.678 1022.18 428.27 1022.08 429.965M1035.05 430.387L1033.57 469.356M1022.08 429.965L1021.73 438.998C1021.76 437.301 1021.12 435.663 1019.95 434.437C1018.79 433.21 1017.18 432.492 1015.49 432.437C1013.79 432.382 1012.13 432.994 1010.88 434.142C1009.62 435.289 1008.86 436.881 1008.76 438.576L1007.4 474.724C1007.39 474.732 1007.39 474.731 1007.39 474.72L1001.74 464.071C1001.13 462.934 1000.13 462.059 998.921 461.606C997.712 461.152 996.378 461.152 995.165 461.605C993.951 462.058 992.94 462.933 992.317 464.07C991.695 465.206 991.503 466.527 991.777 467.789L996.267 487.915C997.659 494.147 1001.08 499.733 1005.99 503.798C1010.91 507.864 1017.04 510.181 1023.43 510.387M1022.08 429.965L1021.73 439.002M1023.43 510.387L1029.01 510.57M1023.43 510.387C1017.04 510.181 1010.91 507.864 1005.99 503.798C1001.08 499.732 997.656 494.145 996.264 487.911L991.781 467.792C991.506 466.53 991.698 465.209 992.32 464.073C992.943 462.937 993.954 462.061 995.168 461.608C996.381 461.156 997.715 461.156 998.924 461.609C1000.13 462.062 1001.13 462.938 1001.74 464.074L1007.38 474.703C1007.39 474.717 1007.4 474.718 1007.4 474.707L1008.76 438.58C1008.78 437.716 1008.96 436.864 1009.31 436.071C1009.66 435.279 1010.16 434.564 1010.79 433.967C1011.42 433.37 1012.16 432.903 1012.97 432.595C1013.78 432.286 1014.64 432.142 1015.5 432.17C1016.36 432.198 1017.21 432.398 1017.99 432.758C1018.78 433.118 1019.48 433.632 1020.06 434.268C1020.64 434.904 1021.09 435.651 1021.38 436.464C1021.66 437.277 1021.78 438.139 1021.73 439.002M1029.01 510.57C1032.81 510.693 1036.6 510.066 1040.17 508.726C1043.73 507.386 1047 505.358 1049.79 502.759C1052.58 500.16 1054.83 497.04 1056.41 493.578C1058 490.115 1058.89 486.378 1059.03 482.58L1060.11 454.032C1060.15 453.176 1060.02 452.322 1059.73 451.518C1059.44 450.715 1058.99 449.978 1058.41 449.35C1057.83 448.722 1057.13 448.216 1056.35 447.861C1055.58 447.506 1054.73 447.309 1053.88 447.281C1053.02 447.253 1052.17 447.396 1051.37 447.7C1050.56 448.004 1049.83 448.464 1049.2 449.053C1048.58 449.642 1048.07 450.348 1047.72 451.131C1047.37 451.914 1047.18 452.758 1047.15 453.614M1047.15 453.614L1046.54 469.768M1021.73 439.002L1020.6 468.934" stroke="#1E5C93" stroke-width="5" stroke-linecap="square"/>
<path fill-rule="evenodd" clip-rule="evenodd" d="M351.504 57C359.51 57 366 63.4842 366 71.4828V161.517C366 169.516 359.51 176 351.504 176H304.496C296.49 176 290 169.516 290 161.517V71.4828C290 63.4842 296.49 57 304.496 57H351.504ZM311.927 163.005C309.977 163.005 308.396 164.584 308.396 166.532C308.396 168.48 309.977 170.059 311.927 170.059H344.259C346.209 170.059 347.79 168.48 347.79 166.532C347.79 164.584 346.209 163.005 344.259 163.005H311.927ZM306.762 65.1685C302.225 65.1685 298.548 68.8428 298.548 73.3754V149.414C298.548 153.947 302.225 157.621 306.762 157.621H349.424C353.96 157.621 357.638 153.947 357.638 149.414V73.3754C357.638 68.8428 353.96 65.1685 349.424 65.1685H306.762Z" fill="#1E5C93"/>
<defs>
<linearGradient id="paint0_linear_410_4757" x1="328" y1="63" x2="328" y2="163" gradientUnits="userSpaceOnUse">
<stop stop-color="#98CA79"/>
<stop offset="1" stop-color="#1EAD28"/>
</linearGradient>
</defs>
</svg>
