<svg width="1280" height="720" viewBox="0 0 1280 720" fill="none" xmlns="http://www.w3.org/2000/svg">
<g clip-path="url(#clip0_410_4761)">
<rect width="1280" height="720" fill="#ECFAFF"/>
<path d="M-0.0117188 -0.09375H1279.97V719.896H-0.0117188V-0.09375Z" fill="url(#paint0_linear_410_4761)"/>
<path d="M731.723 73.4488C756.123 -60.1512 702.642 -74.0512 672.975 -89.5512C391.475 -89.5512 -302.177 -101.653 -143.777 -72.0526C14.623 -42.4526 -86.9436 26.9488 -112.777 73.4488C-242.777 206.449 37.5732 332.713 218.223 351.945C481.223 379.945 445.89 559.279 440.723 627.445H771.975C863.175 550.645 904.723 425.945 812.223 314.945C745.223 246.945 707.323 207.049 731.723 73.4488Z" fill="url(#paint1_linear_410_4761)"/>
<path d="M955.71 376.027L955.838 376.316L1040.05 375.188L1040.05 375.188C1061.58 377.64 1094.64 388.612 1099.18 432.728C1106.51 491.995 1121.07 552.01 1127.17 611.873H838.208V608.868C838.436 600.221 838.776 584.165 838.864 582.925C805.948 556.218 757.125 486.619 757.125 486.619C757.125 486.619 772.113 468.843 775.845 464.159C776.397 463.435 858.064 518.97 862.247 518.49C887.047 476.071 908.247 392.267 955.71 376.027Z" fill="#E35F61"/>
<path d="M839.161 584.755L838.438 608.874H750.512C754.08 596.775 760.164 584.435 771.243 577.619C780.311 572.639 791.263 574.187 800.695 577.211C806.455 579.115 811.843 582.343 815.963 586.835C823.735 586.611 831.423 585.363 839.162 584.755H839.161Z" fill="#D99773"/>
<path d="M1031.7 381.378C1031.4 385.264 1027.09 426 993.275 426C957.792 426 963.732 382.476 963.732 382.476L963.629 382.197L960 352.145C979.017 347.328 1018.82 336.411 1038 333L1031.66 381.374L1031.7 381.378Z" fill="#D99773"/>
<mask id="mask0_410_4761" style="mask-type:alpha" maskUnits="userSpaceOnUse" x="689" y="360" width="77" height="142">
<path d="M752.5 360L692 485.5L689.5 502L703 494L766 366L752.5 360Z" fill="#FFC93C"/>
</mask>
<g mask="url(#mask0_410_4761)">
<path d="M752.5 360L692 485.5L689.5 502L703 494L766 366L752.5 360Z" fill="#FFC93C"/>
<rect x="754.342" y="352.312" width="21" height="21" transform="rotate(25.4675 754.342 352.312)" fill="#E35F61"/>
<rect x="754.342" y="352.312" width="21" height="21" transform="rotate(25.4675 754.342 352.312)" fill="#E35F61"/>
<rect x="746.635" y="368.492" width="21" height="3.07624" transform="rotate(25.4675 746.635 368.492)" fill="#E35F61"/>
<rect x="746.635" y="368.492" width="21" height="3.07624" transform="rotate(25.4675 746.635 368.492)" fill="black"/>
<path d="M687.5 482L706.5 494L700.5 502.5L683 505.5L687.5 482Z" fill="#DCB6A1"/>
</g>
<path d="M728.078 433.888C716.882 433.648 708.43 442.477 701.922 450.551C698.654 454.351 689.65 464.411 698.55 466.335C705.342 465.255 709.038 458.4 715.126 455.935C720.854 455.999 713.918 464.06 715.418 467.431C715.418 474.62 720.438 480.28 723.118 486.62C726.466 491.916 733.338 491.984 738.686 493.9C745.546 495.524 753.074 497.168 759.901 494.688C767.997 490.188 770.733 480.588 776.229 473.66C779.417 470.152 784.109 463.5 777.961 460.248C768.705 455.548 761.049 448.172 752.03 443.009C744.834 438.361 736.922 433.737 728.078 433.889V433.888Z" fill="#C8EFEF"/>
<path d="M1125.75 241.914C1125.75 318.347 1063.9 380.332 987.564 380.332C911.237 380.332 849.391 318.383 849.391 241.914C849.391 165.468 911.237 103.516 987.564 103.516C1063.9 103.516 1125.75 165.468 1125.75 241.914Z" fill="#D99773"/>
<path d="M951.56 255.19C951.558 258.69 952.945 262.048 955.414 264.525C957.883 267.002 961.233 268.395 964.728 268.399C968.222 268.39 971.572 266.996 974.043 264.52C976.514 262.045 977.906 258.69 977.914 255.19C977.904 251.692 976.51 248.341 974.039 245.869C971.568 243.397 968.22 242.006 964.728 242C961.237 242.006 957.891 243.398 955.423 245.87C952.955 248.342 951.566 251.694 951.56 255.19ZM864.001 255.19C864.003 258.692 865.393 262.05 867.866 264.527C870.338 267.003 873.69 268.396 877.187 268.399C880.679 268.388 884.025 266.992 886.493 264.517C888.961 262.041 890.35 258.688 890.356 255.19C890.35 251.693 888.96 248.342 886.492 245.87C884.023 243.397 880.677 242.006 877.187 242C873.694 242.006 870.347 243.397 867.875 245.869C865.404 248.341 864.011 251.692 864 255.19" fill="black"/>
<path d="M917.001 327.19C917.003 330.692 918.393 334.05 920.866 336.527C923.338 339.003 926.69 340.396 930.187 340.399C933.679 340.388 937.025 338.992 939.493 336.517C941.961 334.041 943.35 330.688 943.356 327.19C943.35 323.693 941.96 320.342 939.492 317.87C937.023 315.397 933.677 314.006 930.187 314C926.694 314.006 923.347 315.397 920.875 317.869C918.404 320.341 917.011 323.692 917 327.19" fill="black"/>
<path d="M930.948 295.844C928.23 295.844 925.623 294.763 923.7 292.837C921.778 290.912 920.698 288.301 920.698 285.578C920.698 282.856 921.778 280.245 923.7 278.319C925.623 276.394 928.23 275.312 930.948 275.312" stroke="black" stroke-width="4.54448" stroke-miterlimit="10"/>
<path d="M987.595 103.516C914.856 103.516 855.265 159.849 849.871 231.348H1019.33V204.949H1021.46C1027.64 249.775 1062.56 287.051 1109.52 294.122C1111.43 294.388 1113.37 294.641 1115.27 294.802C1122.2 278.035 1125.77 260.062 1125.75 241.914C1125.75 165.505 1063.9 103.516 987.563 103.516" fill="black"/>
<path d="M431.338 607.813C426.612 607.807 421.931 608.733 417.564 610.54C413.197 612.348 409.231 615 405.892 618.344C402.553 621.689 399.907 625.66 398.107 630.03C396.307 634.4 395.388 639.082 395.403 643.808V703.679C395.403 709.783 397.042 715.435 399.694 720.459H1280.45V613.4C1274.74 609.762 1268.11 607.824 1261.33 607.812L431.338 607.813Z" fill="#FF7B54"/>
<path d="M728.078 433.888C716.882 433.648 708.43 442.477 701.922 450.551C698.654 454.351 689.65 464.411 698.55 466.335C705.342 465.255 709.038 458.4 715.126 455.935C720.854 455.999 713.918 464.06 715.418 467.431C715.418 474.62 720.438 480.28 723.118 486.62C726.466 491.916 733.338 491.984 738.686 493.9C745.546 495.524 753.074 497.168 759.901 494.688C767.997 490.188 770.733 480.588 776.229 473.66C779.417 470.152 784.109 463.5 777.961 460.248C768.705 455.548 761.049 448.172 752.03 443.009C744.834 438.361 736.922 433.737 728.078 433.889V433.888Z" fill="#D99773"/>
<circle cx="1094" cy="133" r="50" fill="black"/>
<circle cx="888" cy="133" r="50" fill="black"/>
<rect x="492" y="574" width="277" height="35" fill="white"/>
<path d="M691.5 499L689 503" stroke="black" stroke-width="2" stroke-linecap="round"/>
<path d="M191.488 33H166.513C159.05 33 153 39.0389 153 46.4883V128.512C153 135.961 159.05 142 166.513 142H191.488C198.951 142 205 135.961 205 128.512V46.4883C205 39.0389 198.951 33 191.488 33Z" fill="#97D3FB"/>
<path d="M191.652 85.0184H166.366C161.337 85.0184 157.26 89.0879 157.26 94.1079V128.972C157.26 133.992 161.337 138.062 166.366 138.062H191.652C196.68 138.062 200.757 133.992 200.757 128.972V94.1079C200.757 89.0879 196.68 85.0184 191.652 85.0184Z" fill="#993C78"/>
<path d="M181.212 96.0133V121.714H178.094V99.276H177.944L171.658 103.442V100.28L178.094 96.0133H181.212Z" fill="white"/>
<path d="M170.742 60.8411C170.742 57.8503 171.047 55.4461 171.658 53.6286C172.28 51.7996 173.196 50.3905 174.406 49.4012C175.628 48.4119 177.16 47.9173 179.004 47.9173C180.364 47.9173 181.557 48.1933 182.582 48.7455C183.608 49.2861 184.455 50.0741 185.123 51.1094C185.792 52.1332 186.316 53.387 186.696 54.871C187.077 56.3434 187.267 58.3334 187.267 60.8411C187.267 63.809 186.961 66.2074 186.351 68.0364C185.74 69.8539 184.824 71.2631 183.602 72.2639C182.392 73.2532 180.86 73.7478 179.004 73.7478C176.561 73.7478 174.643 72.8735 173.248 71.125C171.577 69.02 170.742 65.592 170.742 60.8411ZM173.94 60.8411C173.94 64.9938 174.424 67.7603 175.392 69.1407C176.371 70.5096 177.575 71.1941 179.004 71.1941C180.433 71.1941 181.632 70.5039 182.6 69.1235C183.579 67.7431 184.069 64.9823 184.069 60.8411C184.069 56.677 183.579 53.9104 182.6 52.5416C181.632 51.1727 180.422 50.4882 178.97 50.4882C177.541 50.4882 176.4 51.0922 175.547 52.3C174.475 53.8414 173.94 56.6885 173.94 60.8411Z" fill="#1E5C93"/>
<path d="M110.811 296.805C99.0024 295.122 87.022 290.125 79.4347 280.186C75.8564 275.779 73.6035 270.153 73.8752 264.329C73.8685 262.725 73.4643 255.999 74.8426 260.585C78.5137 271.121 88.016 278.039 97.7237 281.922C107.133 285.798 117.463 286.083 127.429 285.282C137.184 283.923 146.825 280.298 154.399 273.619C158.905 269.511 162.768 264.243 164.014 258.047C165.187 260.181 164.24 263.984 164.233 266.741C163.478 276.78 156.063 284.751 148.118 289.655C136.985 296.527 123.5 298.256 110.811 296.805Z" fill="#31C0FD"/>
<path d="M113.894 286.236C102.159 285.202 90.1989 281.16 81.6706 272.718C74.1762 265.694 70.6568 254.138 74.6923 244.423C75.7194 241.773 78.6814 238.44 80.1127 236.008C80.232 242.409 78.3634 249.817 79.2116 256.179C81.5574 266.085 90.331 272.977 99.3562 276.661C105.897 279.484 113.073 280.173 120.117 279.941C130.511 280.215 140.67 276.831 148.822 270.379C154.965 265.542 159.061 258.008 158.875 250.089C159.087 246.06 157.656 241.985 158.193 237.989C161.307 242.336 164.521 247.597 164.329 253.031C164.859 263.143 158.013 272.049 150.028 277.456C145.92 280.007 141.627 282.452 136.928 283.639C129.56 286.004 121.594 286.541 113.894 286.236Z" fill="#1E5B93"/>
<path d="M110.9 280.36C100.265 278.888 89.3441 274.462 82.6845 265.715C80.6369 262.667 78.6752 259.354 78.2777 255.683C78.1252 252.104 77.9131 248.586 78.2113 245.014C79.2848 247.174 80.4648 249.997 82.1611 252.171C86.7996 258.532 93.9758 262.488 101.258 265.079C107.262 267.001 113.61 267.756 119.885 267.809C126.273 267.451 132.687 266.603 138.638 264.151C147.61 260.772 156.099 254.265 159.187 244.875C159.452 249.089 159.65 253.41 158.928 257.598C156.616 265.602 150.214 271.924 142.813 275.443C133.602 280.346 122.887 281.38 112.622 280.565C112.038 280.508 111.456 280.442 110.874 280.366L110.9 280.36Z" fill="#FDC73C"/>
<path d="M114.975 271.407C103.054 270.546 90.5429 266.099 82.9556 256.299C79.6556 252.031 77.7667 246.644 78.2438 241.191C78.436 233.378 83.9292 226.758 89.946 222.418C102.801 213.472 119.725 212.107 134.502 216.202C144.058 219.151 153.553 225.062 157.649 234.677C158.954 237.877 159.703 241.535 159.206 244.994C157.918 252.132 153.856 258.47 147.908 262.621C138.452 269.459 126.438 271.997 114.975 271.407Z" fill="#FD7853"/>
<path d="M358.231 224.219C357.882 224.235 357.544 224.35 357.258 224.55C350.359 229.818 343.851 235.62 337.171 241.182C335.022 241.182 332.84 240.99 330.433 241.097C329.021 241.161 328 241.942 328 243.198V266.638C328 269.055 329 269.66 330.353 269.654L337.155 269.643C343.69 275.055 350.092 280.639 356.648 286.019C358.226 287.27 359.91 286.099 360.959 284.767V227.246C361.173 225.727 359.675 224.155 358.231 224.219Z" fill="#1E5C93"/>
<path d="M377.55 290.468C374.037 287.463 377.941 283.366 379.871 280.853C389.604 267.248 391.177 249.686 381.957 232.054C379.689 226.813 376.812 224.128 376.144 222.321C375.641 218.326 380.245 218.219 382.438 220.497C394.471 234.503 397.963 256.729 390.941 274.537C388.599 280.206 385.561 285.661 381.518 289.992C380.47 291.089 378.791 291.169 377.544 290.468H377.55ZM368.544 278.136C364.892 276.698 366.298 271.954 368.635 269.879C372.024 265.036 373.649 259.176 373.235 253.279C373.293 247.145 370.218 241.691 366.881 237.118C363.907 232.465 370.961 228.791 372.977 233.679C378.153 240.453 380.61 248.916 379.866 257.408C379.475 264.839 376.54 271.911 371.555 277.436C371.135 277.765 370.647 277.999 370.127 278.12C369.607 278.241 369.067 278.247 368.544 278.136Z" fill="#58AB3F"/>
<path d="M580.292 122.781C580.033 122.071 580.033 121.292 580.292 120.582C580.575 120.038 581.163 119.494 581.762 119.232C582.208 119.031 582.562 119.015 586.159 119.004L590.062 118.993L578.382 107.738L566.703 96.4827L566.529 95.9058C566.337 95.3376 566.356 94.7193 566.583 94.1642C566.801 93.5655 567.595 92.8036 568.232 92.5968C568.856 92.4052 569.524 92.4052 570.148 92.5968L570.605 92.7437L582.317 103.966L594.029 115.189V111.433C594.029 107.983 594.084 107.645 594.269 107.21C594.578 106.602 595.071 106.109 595.678 105.8C596.427 105.535 597.243 105.535 597.992 105.8C598.558 106.072 599.129 106.638 599.407 107.215C599.619 107.651 599.629 108.064 599.624 114.933C599.624 120.691 599.57 122.275 599.461 122.623C599.123 123.343 598.529 123.911 597.796 124.218C597.431 124.348 595.847 124.381 589.795 124.381C582.649 124.381 582.219 124.37 581.762 124.163C581.135 123.866 580.615 123.384 580.271 122.781H580.292Z" fill="#7C2969"/>
<path d="M528.677 106.676C529.421 106.433 530.223 106.441 530.962 106.698C531.57 107.006 532.064 107.5 532.372 108.107C532.579 108.543 532.595 108.88 532.606 112.331V116.086L544.318 104.864L556.031 93.6413L556.635 93.4672C557.227 93.28 557.864 93.2933 558.447 93.5052C559.068 93.712 559.862 94.4849 560.079 95.089C560.279 95.686 560.279 96.3315 560.079 96.9285L559.922 97.3748L548.242 108.63L536.563 119.885L540.471 119.896C544.063 119.907 544.416 119.923 544.868 120.119C545.467 120.386 546.055 120.93 546.338 121.48C546.61 122.013 546.61 123.167 546.338 123.7C546.055 124.244 545.467 124.789 544.868 125.055C544.406 125.262 543.975 125.273 536.835 125.273C530.842 125.273 529.194 125.24 528.834 125.11C528.097 124.803 527.501 124.233 527.163 123.51C527.033 123.161 527 121.643 527 115.825C527 108.956 527 108.548 527.223 108.097C527.546 107.485 528.05 106.987 528.666 106.671L528.677 106.676Z" fill="#FD7853"/>
<path d="M576.214 63.1414C575.861 63.825 575.285 64.3681 574.581 64.6816C573.917 64.8755 573.208 64.8622 572.551 64.6435C572.083 64.4802 571.822 64.2516 569.275 61.8134L566.499 59.1684V75.0604V90.9525L566.2 91.4858C565.913 92.0281 565.448 92.4548 564.883 92.6941C564.135 92.968 563.313 92.9623 562.57 92.6778C561.991 92.3951 561.515 91.9383 561.209 91.3716L560.992 90.9525V75.0604V59.1684L558.216 61.8134C555.674 64.2462 555.407 64.4802 554.945 64.6435C554.286 64.8626 553.575 64.874 552.909 64.6761C552.195 64.3628 551.617 63.8051 551.277 63.1032C551.081 62.4635 551.1 61.7772 551.331 61.1494C551.505 60.6923 551.799 60.3929 556.855 55.5437C561.095 51.4672 562.281 50.3732 562.624 50.21C563.387 49.9281 564.226 49.9301 564.987 50.2154C565.335 50.3787 566.477 51.4237 570.761 55.5382C575.817 60.3929 576.111 60.6923 576.285 61.1494C576.503 61.7372 576.519 62.5862 576.339 63.1414H576.214Z" fill="#58AB3F"/>
<path d="M541.673 433.583C538.81 436.188 516.638 434.883 504.109 434.828C491.407 434.772 466.961 435.888 466.023 433.234C465.189 430.843 487.263 415.825 498.45 407.88C512.328 398.023 537.29 379.799 541.397 380.259C545.259 380.694 543.665 397.729 543.72 406.513C543.781 415.561 544.86 430.671 541.673 433.583Z" fill="#7C2969"/>
<path d="M515.803 362.276L504.343 369.939C502.461 371.198 501.955 373.745 503.214 375.627L510.877 387.087C512.136 388.97 514.683 389.475 516.566 388.216L528.026 380.553C529.908 379.294 530.414 376.747 529.155 374.864L521.492 363.404C520.233 361.522 517.686 361.016 515.803 362.276Z" fill="#F3CA59"/>
<path d="M470.989 392.229C471.666 392.125 472.359 392.243 472.963 392.566C473.448 392.917 473.808 393.413 473.993 393.982C474.115 394.386 474.078 394.687 473.613 397.678L473.104 400.933L484.812 392.823L496.521 384.713L497.072 384.652C497.61 384.572 498.159 384.671 498.635 384.934C499.144 385.204 499.726 385.976 499.824 386.534C499.915 387.078 499.827 387.638 499.574 388.128L499.377 388.496L487.694 396.636L476.01 404.777L479.394 405.328C482.508 405.837 482.814 405.899 483.176 406.138C483.654 406.444 484.095 406.996 484.261 407.511C484.402 408.17 484.292 408.858 483.954 409.442C483.582 409.912 483.072 410.253 482.495 410.416C482.066 410.527 481.692 410.478 475.494 409.491C470.302 408.663 468.875 408.406 468.58 408.246C467.983 407.877 467.546 407.297 467.354 406.622C467.293 406.303 467.477 404.979 468.274 399.94C469.224 393.982 469.291 393.626 469.543 393.271C469.906 392.783 470.411 392.419 470.989 392.229Z" fill="#97D3FB"/>
<path d="M586.909 261.637L606.909 281.092L613.091 275.455L622.909 272.546L640.182 256.728L641.636 250.546L638.182 247.273L640.182 242.183L638.182 240.364L636 236.546L638.182 232.001L634.364 229.819H629.273L625.455 225.637L621.273 215.637V212.364L617.455 211.273L613.091 212.364L610.909 209.273H604.909L586.909 226.91V220.546L584 215.637L580 213.637L577.273 220.546L575.818 238.001L570 246.001L586.909 261.637Z" fill="#E6C6B0"/>
<path d="M632.669 239.76C633.485 238.984 634.569 238.552 635.695 238.552C636.822 238.552 637.905 238.984 638.722 239.76C640.394 241.372 640.394 243.986 638.722 245.598L634.689 249.484M632.669 239.76L636.705 235.87C638.378 234.258 638.378 231.644 636.705 230.032C635.888 229.256 634.805 228.824 633.679 228.824C632.552 228.824 631.469 229.256 630.652 230.032L627.625 232.951L617.532 242.679M632.669 239.76L621.569 250.459M634.689 249.484C635.505 248.709 636.589 248.276 637.715 248.276C638.842 248.276 639.925 248.709 640.742 249.484C641.139 249.859 641.456 250.312 641.672 250.813C641.888 251.315 642 251.856 642 252.402C642 252.948 641.888 253.489 641.672 253.99C641.456 254.492 641.139 254.944 640.742 255.319L628.295 267.318C623.911 271.545 621.715 273.658 619.301 274.697C617.901 275.298 615.587 275.56 613.839 275.671C612.324 275.768 610.866 276.334 609.792 277.372L607.442 279.636M634.689 249.484L625.605 258.238M627.622 232.951C628.019 232.576 628.336 232.124 628.552 231.622C628.768 231.12 628.88 230.58 628.88 230.034C628.88 229.487 628.768 228.947 628.552 228.445C628.336 227.943 628.019 227.491 627.622 227.116C626.805 226.34 625.722 225.908 624.595 225.908C623.469 225.908 622.385 226.34 621.569 227.116L604.491 243.578L604.501 237.263C604.505 234.495 602.008 232.342 599.154 232.654C596.969 232.89 595.221 234.523 594.906 236.622L592.889 252.568C592.506 255.617 590.525 258.983 588.269 261.158M570.363 245.609C572.72 243.288 574.79 239.703 575.195 236.447L577.298 219.426C577.465 218.328 577.991 217.317 578.795 216.551C579.599 215.784 580.634 215.307 581.739 215.192C584.726 214.863 587.33 217.155 587.327 220.11L587.312 226.858L605.164 209.29C606.01 208.463 607.146 208 608.328 208C609.511 208 610.647 208.463 611.493 209.29C611.907 209.695 612.236 210.179 612.461 210.713C612.686 211.247 612.802 211.821 612.802 212.4C612.802 212.98 612.686 213.554 612.461 214.088C612.236 214.622 611.907 215.106 611.493 215.511L614.659 212.399C615.505 211.572 616.641 211.109 617.824 211.109C619.007 211.109 620.142 211.572 620.988 212.399C621.862 213.258 622.299 214.387 622.299 215.515M611.497 215.515L602.596 224.262" stroke="#1E5C93" stroke-width="3" stroke-linecap="round" stroke-linejoin="round"/>
<ellipse cx="395.013" cy="80.5447" rx="22.4008" ry="12.6932" fill="#302E2E"/>
<ellipse cx="394.962" cy="78.2791" rx="22.4008" ry="12.6932" fill="url(#paint2_linear_410_4761)"/>
<mask id="mask1_410_4761" style="mask-type:alpha" maskUnits="userSpaceOnUse" x="376" y="41" width="38" height="47">
<circle cx="394.884" cy="60.7364" r="18.7516" transform="rotate(-0.284188 394.884 60.7364)" fill="#D9D9D9"/>
<path d="M413.894 80.2451L413.633 60.0881L376.269 60.2734L376.673 78.5874C383.653 89.5805 403.438 89.4658 413.894 80.2451Z" fill="#D9D9D9"/>
</mask>
<g mask="url(#mask1_410_4761)">
<rect x="368.952" y="43.2734" width="132" height="156" transform="rotate(-9.40369 368.952 43.2734)" fill="url(#paint3_radial_410_4761)"/>
<ellipse cx="458.555" cy="52.5694" rx="66" ry="65" transform="rotate(-9.40369 458.555 52.5694)" fill="url(#paint4_radial_410_4761)"/>
<ellipse cx="414.903" cy="137.851" rx="66" ry="65" transform="rotate(-9.40369 414.903 137.851)" fill="url(#paint5_radial_410_4761)"/>
<path d="M394.548 63.2555C389.833 63.1172 389.7 67.664 389.536 73.2727L389.348 86.8754L398.776 87.152L398.964 73.5493C399.128 67.9406 399.262 63.3938 394.548 63.2555Z" fill="#FB6B54" fill-opacity="0.4"/>
</g>
<path d="M615.001 478.095C616.024 478.095 617.005 478.5 617.729 479.222C618.452 479.944 618.859 480.923 618.859 481.944C618.859 482.965 619.265 483.944 619.988 484.666C620.712 485.387 621.693 485.793 622.716 485.793C623.738 485.793 624.72 485.387 625.443 484.666C626.166 483.944 626.573 482.965 626.573 481.944C626.572 480.022 626.092 478.13 625.173 476.44C624.255 474.75 622.929 473.316 621.315 472.267C619.701 471.218 617.85 470.588 615.93 470.434C614.01 470.28 612.081 470.607 610.32 471.384C608.559 472.162 607.019 473.366 605.842 474.888C604.665 476.409 603.887 478.2 603.579 480.097C603.271 481.995 603.443 483.939 604.078 485.754C604.713 487.568 605.793 489.196 607.218 490.489C607.257 490.527 607.843 491.143 607.966 491.32C608.402 491.954 608.635 492.705 608.635 493.474C608.635 494.243 608.402 494.993 607.966 495.627C607.654 496.043 607.429 496.517 607.306 497.021C607.182 497.526 607.162 498.05 607.246 498.562C607.331 499.074 607.518 499.564 607.797 500.002C608.077 500.44 608.442 500.818 608.871 501.111C609.3 501.405 609.784 501.609 610.294 501.711C610.804 501.813 611.33 501.811 611.839 501.705C612.349 501.599 612.831 501.391 613.258 501.094C613.685 500.797 614.047 500.417 614.323 499.977C615.647 498.058 616.354 495.783 616.351 493.453C616.347 491.124 615.633 488.851 614.303 486.936C613.712 486.189 613.081 485.473 612.413 484.792C612.18 484.586 611.973 484.352 611.796 484.095C611.405 483.516 611.179 482.841 611.143 482.143C611.106 481.445 611.261 480.75 611.591 480.133C611.92 479.516 612.412 479.001 613.013 478.642C613.614 478.282 614.301 478.093 615.001 478.095ZM615.001 455C610.86 455 606.774 455.95 603.059 457.778C599.344 459.606 596.101 462.262 593.58 465.541C591.058 468.82 589.327 472.634 588.519 476.688C587.711 480.741 587.848 484.926 588.92 488.918C589.185 489.905 589.832 490.745 590.718 491.256C591.604 491.766 592.657 491.904 593.645 491.64C594.633 491.375 595.476 490.73 595.987 489.846C596.499 488.961 596.637 487.911 596.372 486.925C595.662 484.279 595.527 481.512 595.975 478.81C596.422 476.107 597.443 473.531 598.968 471.254C600.493 468.977 602.488 467.051 604.819 465.605C607.15 464.158 609.763 463.225 612.485 462.868C615.206 462.51 617.972 462.737 620.599 463.532C623.225 464.327 625.651 465.672 627.715 467.478C629.779 469.283 631.433 471.508 632.566 474.003C633.699 476.497 634.286 479.205 634.287 481.944C634.273 485.42 633.334 488.829 631.567 491.824L617.817 520.435C617.141 521.604 616.168 522.575 614.997 523.251C613.826 523.926 612.497 524.283 611.144 524.284C609.107 524.257 607.16 523.437 605.72 522C604.279 520.562 603.457 518.619 603.43 516.586C603.432 515.235 603.79 513.909 604.468 512.741C604.98 511.856 605.12 510.804 604.855 509.817C604.591 508.83 603.945 507.988 603.058 507.477C602.172 506.965 601.118 506.826 600.129 507.09C599.14 507.354 598.296 507.999 597.784 508.884C596.76 510.645 596.096 512.591 595.832 514.61C595.567 516.629 595.706 518.68 596.242 520.645C596.777 522.61 597.697 524.449 598.95 526.057C600.202 527.664 601.762 529.007 603.538 530.009C605.315 531.011 607.273 531.65 609.299 531.892C611.325 532.133 613.378 531.97 615.341 531.414C617.304 530.858 619.136 529.918 620.732 528.65C622.329 527.382 623.657 525.81 624.64 524.026L638.383 495.416C640.752 491.32 642 486.674 642 481.944C642 477.214 640.753 472.568 638.383 468.472C636.013 464.376 632.605 460.975 628.501 458.61C624.397 456.245 619.741 455 615.001 455Z" fill="#1E5C93"/>
<path d="M415.761 333.841C414.508 329.938 413.88 327.981 412.768 326.376C411.778 324.944 410.515 323.722 409.052 322.779C407.411 321.72 405.421 321.151 401.452 320.015L401.433 320.009L395 318.174L401.433 316.339C405.408 315.206 407.402 314.637 409.052 313.57C410.516 312.623 411.781 311.404 412.768 309.973C413.888 308.336 414.524 306.362 415.789 302.42L418.188 295L420.586 302.42L420.614 302.508C421.867 306.411 422.495 308.368 423.607 309.973C424.597 311.404 425.86 312.627 427.323 313.57C428.964 314.628 430.954 315.198 434.923 316.334L434.942 316.339L441.375 318.174L434.942 320.009C430.967 321.142 428.973 321.712 427.323 322.779C425.859 323.726 424.594 324.945 423.607 326.376C422.487 328.012 421.851 329.987 420.586 333.929L418.188 341.349L415.789 333.929L415.761 333.841Z" fill="#FFF7F7"/>
<path d="M64.7611 129.841C63.5079 125.938 62.8796 123.981 61.7683 122.376C60.7777 120.944 59.5148 119.722 58.0516 118.779C56.4113 117.72 54.4209 117.151 50.452 116.015L50.4329 116.009L44 114.174L50.4329 112.339C54.4079 111.206 56.402 110.637 58.0516 109.57C59.5157 108.623 60.7811 107.404 61.7683 105.973C62.8879 104.336 63.5239 102.362 64.7892 98.42L67.1875 91L69.5858 98.42L69.6139 98.5077C70.8671 102.411 71.4954 104.368 72.6067 105.973C73.5973 107.404 74.8602 108.627 76.3234 109.57C77.9637 110.628 79.9541 111.198 83.923 112.334L83.9421 112.339L90.375 114.174L83.9421 116.009C79.9671 117.142 77.973 117.712 76.3234 118.779C74.8592 119.726 73.5939 120.945 72.6067 122.376C71.4871 124.012 70.8511 125.987 69.5858 129.929L67.1875 137.349L64.7892 129.929L64.7611 129.841Z" fill="#FFF7F7"/>
<path d="M668.413 183.443C666.819 178.474 666.019 175.983 664.605 173.941C663.345 172.118 661.739 170.562 659.877 169.361C657.79 168.014 655.258 167.289 650.209 165.843L650.184 165.836L642 163.5L650.184 161.164C655.241 159.722 657.778 158.997 659.877 157.639C661.74 156.433 663.35 154.881 664.605 153.059C666.03 150.976 666.839 148.463 668.449 143.445L671.5 134L674.551 143.445L674.587 143.557C676.181 148.526 676.981 151.017 678.395 153.059C679.655 154.882 681.261 156.438 683.123 157.639C685.21 158.986 687.742 159.711 692.791 161.157L692.816 161.164L701 163.5L692.816 165.836C687.759 167.278 685.222 168.003 683.123 169.361C681.26 170.567 679.65 172.119 678.395 173.941C676.97 176.024 676.161 178.537 674.551 183.555L671.5 193L668.449 183.555L668.413 183.443Z" fill="#FFF7F7"/>
<path d="M621.221 392.493C620.302 389.629 619.842 388.194 619.027 387.017C618.301 385.966 617.375 385.07 616.302 384.378C615.099 383.601 613.64 383.183 610.73 382.35L610.716 382.346L606 381L610.716 379.654C613.631 378.823 615.093 378.405 616.302 377.622C617.375 376.927 618.303 376.033 619.027 374.983C619.848 373.783 620.314 372.335 621.242 369.443L623 364L624.758 369.443L624.779 369.507C625.698 372.371 626.158 373.806 626.973 374.983C627.699 376.034 628.625 376.93 629.698 377.622C630.901 378.399 632.36 378.817 635.27 379.65L635.284 379.654L640 381L635.284 382.346C632.369 383.177 630.907 383.595 629.698 384.378C628.625 385.073 627.697 385.967 626.973 387.017C626.152 388.217 625.686 389.665 624.758 392.557L623 398L621.242 392.557L621.221 392.493Z" fill="#FFF7F7"/>
<path d="M220.221 273.493C219.302 270.629 218.842 269.194 218.027 268.017C217.301 266.966 216.375 266.07 215.302 265.378C214.099 264.601 212.64 264.183 209.73 263.35L209.716 263.346L205 262L209.716 260.654C212.631 259.823 214.093 259.405 215.302 258.622C216.375 257.927 217.303 257.033 218.027 255.983C218.848 254.783 219.314 253.335 220.242 250.443L222 245L223.758 250.443L223.779 250.507C224.698 253.371 225.158 254.806 225.973 255.983C226.699 257.034 227.625 257.93 228.698 258.622C229.901 259.399 231.36 259.817 234.27 260.65L234.284 260.654L239 262L234.284 263.346C231.369 264.177 229.907 264.595 228.698 265.378C227.625 266.073 226.697 266.967 225.973 268.017C225.152 269.217 224.686 270.665 223.758 273.557L222 279L220.242 273.557L220.221 273.493Z" fill="#FFF7F7"/>
<path d="M497.221 529.493C496.302 526.629 495.842 525.194 495.027 524.017C494.301 522.966 493.375 522.07 492.302 521.378C491.099 520.601 489.64 520.183 486.73 519.35L486.716 519.346L482 518L486.716 516.654C489.631 515.823 491.093 515.405 492.302 514.622C493.375 513.927 494.303 513.033 495.027 511.983C495.848 510.783 496.314 509.335 497.242 506.443L499 501L500.758 506.443L500.779 506.507C501.698 509.371 502.158 510.806 502.973 511.983C503.699 513.034 504.625 513.93 505.698 514.622C506.901 515.399 508.36 515.817 511.27 516.65L511.284 516.654L516 518L511.284 519.346C508.369 520.177 506.907 520.595 505.698 521.378C504.625 522.073 503.697 522.967 502.973 524.017C502.152 525.217 501.686 526.665 500.758 529.557L499 535L497.242 529.557L497.221 529.493Z" fill="#FFF7F7"/>
<path d="M298.43 73.1405C297.62 70.614 297.213 69.3473 296.494 68.3087C295.854 67.3821 295.037 66.5909 294.09 65.9803C293.029 65.2953 291.741 64.9266 289.174 64.1914L289.161 64.1878L285 63L289.161 61.8122C291.733 61.0789 293.023 60.7101 294.09 60.0197C295.037 59.4065 295.856 58.6175 296.494 57.6913C297.219 56.6321 297.63 55.3542 298.449 52.8027L300 48L301.551 52.8027L301.57 52.8595C302.38 55.386 302.787 56.6527 303.506 57.6913C304.146 58.6179 304.963 59.4091 305.91 60.0197C306.971 60.7047 308.259 61.0734 310.826 61.8086L310.839 61.8122L315 63L310.839 64.1878C308.267 64.9211 306.977 65.2899 305.91 65.9803C304.963 66.5935 304.144 67.3825 303.506 68.3087C302.781 69.3679 302.37 70.6458 301.551 73.1973L300 78L298.449 73.1973L298.43 73.1405Z" fill="#FFF7F7"/>
<path d="M627.849 62.4363C627.254 60.5836 626.956 59.6547 626.429 58.8931C625.959 58.2135 625.36 57.6333 624.666 57.1855C623.888 56.6832 622.944 56.4128 621.061 55.8737L621.052 55.8711L618 55L621.052 54.1289C622.937 53.5912 623.883 53.3208 624.666 52.8145C625.361 52.3648 625.961 51.7862 626.429 51.1069C626.96 50.3302 627.262 49.3931 627.862 47.522L629 44L630.138 47.522L630.151 47.5637C630.746 49.4164 631.044 50.3453 631.571 51.1069C632.041 51.7865 632.64 52.3667 633.334 52.8145C634.112 53.3168 635.056 53.5872 636.939 54.1263L636.948 54.1289L640 55L636.948 55.8711C635.063 56.4088 634.117 56.6792 633.334 57.1855C632.639 57.6352 632.039 58.2138 631.571 58.8931C631.04 59.6698 630.738 60.6069 630.138 62.478L629 66L627.862 62.478L627.849 62.4363Z" fill="#FFF7F7"/>
<path d="M825.849 442.436C825.254 440.584 824.956 439.655 824.429 438.893C823.959 438.214 823.36 437.633 822.666 437.186C821.888 436.683 820.944 436.413 819.061 435.874L819.052 435.871L816 435L819.052 434.129C820.937 433.591 821.883 433.321 822.666 432.814C823.361 432.365 823.961 431.786 824.429 431.107C824.96 430.33 825.262 429.393 825.862 427.522L827 424L828.138 427.522L828.151 427.564C828.746 429.416 829.044 430.345 829.571 431.107C830.041 431.786 830.64 432.367 831.334 432.814C832.112 433.317 833.056 433.587 834.939 434.126L834.948 434.129L838 435L834.948 435.871C833.063 436.409 832.117 436.679 831.334 437.186C830.639 437.635 830.039 438.214 829.571 438.893C829.04 439.67 828.738 440.607 828.138 442.478L827 446L825.862 442.478L825.849 442.436Z" fill="#FFF7F7"/>
<path d="M477.71 229.717C475.494 222.812 474.383 219.349 472.418 216.511C470.666 213.978 468.433 211.815 465.846 210.146C462.946 208.274 459.426 207.266 452.408 205.256L452.375 205.247L441 202L452.375 198.753C459.403 196.749 462.929 195.741 465.846 193.854C468.435 192.178 470.672 190.021 472.418 187.489C474.397 184.594 475.522 181.101 477.759 174.127L482 161L486.241 174.127L486.29 174.283C488.506 181.188 489.617 184.651 491.582 187.489C493.334 190.022 495.567 192.185 498.154 193.854C501.054 195.726 504.574 196.734 511.591 198.744L511.625 198.753L523 202L511.625 205.247C504.597 207.251 501.071 208.259 498.154 210.146C495.565 211.822 493.328 213.979 491.582 216.511C489.603 219.406 488.478 222.899 486.241 229.873L482 243L477.759 229.873L477.71 229.717Z" fill="#FFF7F7"/>
</g>
<defs>
<linearGradient id="paint0_linear_410_4761" x1="643.753" y1="778.54" x2="643.753" y2="-84.7267" gradientUnits="userSpaceOnUse">
<stop stop-color="#9DDAEA"/>
<stop offset="1" stop-color="#ECFAFF"/>
</linearGradient>
<linearGradient id="paint1_linear_410_4761" x1="348.646" y1="-92" x2="348.646" y2="627.445" gradientUnits="userSpaceOnUse">
<stop stop-color="#9C91ED"/>
<stop offset="1" stop-color="#98D0E7"/>
</linearGradient>
<linearGradient id="paint2_linear_410_4761" x1="394.962" y1="65.5859" x2="394.962" y2="90.9723" gradientUnits="userSpaceOnUse">
<stop stop-color="#302E2E"/>
<stop offset="1" stop-color="#434343"/>
</linearGradient>
<radialGradient id="paint3_radial_410_4761" cx="0" cy="0" r="1" gradientUnits="userSpaceOnUse" gradientTransform="translate(450.452 90.2734) rotate(98.0933) scale(110.097 166.137)">
<stop stop-color="#E82417"/>
<stop offset="1" stop-color="#A91C1E"/>
</radialGradient>
<radialGradient id="paint4_radial_410_4761" cx="0" cy="0" r="1" gradientUnits="userSpaceOnUse" gradientTransform="translate(458.555 52.5694) rotate(90) scale(65 66)">
<stop stop-color="#FF846B"/>
<stop offset="1" stop-color="#FE431E" stop-opacity="0"/>
</radialGradient>
<radialGradient id="paint5_radial_410_4761" cx="0" cy="0" r="1" gradientUnits="userSpaceOnUse" gradientTransform="translate(414.903 137.851) rotate(90) scale(65 66)">
<stop stop-color="#AB2325"/>
<stop offset="1" stop-color="#AB2325" stop-opacity="0"/>
</radialGradient>
<clipPath id="clip0_410_4761">
<rect width="1280" height="720" fill="white"/>
</clipPath>
</defs>
</svg>
