<svg width="1280" height="720" viewBox="0 0 1280 720" fill="none" xmlns="http://www.w3.org/2000/svg">
<g clip-path="url(#clip0_122_2)">
<rect width="1280" height="720" fill="#ECFAFF"/>
<path d="M0 -2H1280V717.999H0V-2Z" fill="#ECFAFF"/>
<path d="M502.245 447.516C554.848 447.516 597.492 404.139 597.492 350.631C597.492 297.123 554.848 253.746 502.245 253.746C449.642 253.746 407 297.123 407 350.631C407 404.139 449.642 447.516 502.245 447.516Z" fill="#ECFAFF" stroke="#1E5C93" stroke-width="4.98021"/>
<path d="M543.696 412.715H460.764C460.172 412.715 459.599 412.508 459.144 412.128C458.69 411.749 458.383 411.222 458.278 410.64C455.801 397.011 466.662 377.91 492.433 350.621C466.662 323.336 455.801 304.235 458.278 290.606C458.384 290.024 458.691 289.497 459.145 289.118C459.599 288.739 460.172 288.531 460.764 288.531H543.696C544.288 288.53 544.861 288.738 545.316 289.117C545.77 289.497 546.076 290.024 546.182 290.606C548.659 304.235 537.798 323.339 512.026 350.624C537.798 377.91 548.659 397.014 546.182 410.643C546.076 411.225 545.769 411.752 545.315 412.131C544.861 412.51 544.288 412.718 543.696 412.718V412.715ZM463.009 407.663H541.453C542.099 395.596 530.702 377.465 506.718 352.367C506.269 351.897 506.018 351.273 506.018 350.623C506.018 349.973 506.269 349.348 506.718 348.879C530.699 323.778 542.096 305.648 541.451 293.583H463.009C462.363 305.648 473.76 323.781 497.745 348.879C498.193 349.348 498.444 349.973 498.444 350.623C498.444 351.273 498.193 351.897 497.745 352.367C473.764 377.468 462.367 395.598 463.009 407.663Z" fill="#1E5C93" stroke="#1E5C93" stroke-width="1.82202" stroke-miterlimit="10"/>
<path d="M551.093 412.715H453.364C452.695 412.715 452.052 412.449 451.579 411.976C451.106 411.502 450.84 410.86 450.84 410.191C450.84 409.521 451.106 408.879 451.579 408.406C452.052 407.932 452.695 407.666 453.364 407.666H551.092C551.762 407.666 552.404 407.932 552.877 408.406C553.351 408.879 553.617 409.521 553.617 410.191C553.617 410.86 553.351 411.502 552.877 411.976C552.404 412.449 551.763 412.715 551.093 412.715ZM551.093 293.584H453.364C452.695 293.584 452.052 293.318 451.579 292.845C451.106 292.371 450.84 291.729 450.84 291.059C450.84 290.39 451.106 289.748 451.579 289.274C452.052 288.801 452.695 288.535 453.364 288.535H551.092C551.762 288.535 552.404 288.801 552.877 289.274C553.351 289.748 553.617 290.39 553.617 291.059C553.617 291.729 553.351 292.371 552.877 292.845C552.404 293.318 551.763 293.584 551.093 293.584ZM461.224 403.095C460.773 403.095 460.331 402.975 459.943 402.748C459.554 402.52 459.234 402.192 459.014 401.799C458.853 401.51 458.75 401.191 458.711 400.862C458.673 400.532 458.7 400.199 458.79 399.88C458.881 399.561 459.033 399.263 459.239 399.003C459.445 398.743 459.699 398.526 459.989 398.364C460.067 398.322 467.8 394.016 476.796 389.74C489.098 383.892 497.853 380.871 502.826 380.753L503.455 380.745C518.575 380.745 541.959 393 542.958 393.528C543.251 393.683 543.511 393.894 543.723 394.149C543.935 394.405 544.094 394.699 544.192 395.016C544.289 395.333 544.324 395.666 544.293 395.996C544.262 396.327 544.166 396.648 544.011 396.941C543.698 397.533 543.163 397.977 542.523 398.175C541.883 398.373 541.191 398.308 540.598 397.997C540.36 397.871 516.723 385.452 502.941 385.803C494.331 386.004 470.791 398.122 462.449 402.775C462.074 402.986 461.651 403.097 461.22 403.096L461.224 403.095ZM504.192 330.018C492.848 330.018 471.654 324.133 470.757 323.882C470.438 323.793 470.139 323.642 469.878 323.437C469.617 323.232 469.399 322.978 469.236 322.689C469.073 322.401 468.969 322.082 468.929 321.753C468.889 321.424 468.914 321.09 469.003 320.771C469.093 320.451 469.244 320.152 469.448 319.891C469.653 319.63 469.907 319.412 470.196 319.249C470.485 319.086 470.803 318.982 471.132 318.942C471.462 318.902 471.795 318.928 472.115 319.017C472.327 319.076 493.538 324.965 504.189 324.965C514.841 324.965 529.246 323.7 529.385 323.689C530.051 323.631 530.713 323.84 531.227 324.268C531.74 324.696 532.064 325.31 532.127 325.976C532.187 326.643 531.98 327.306 531.551 327.821C531.122 328.335 530.507 328.658 529.84 328.718C529.698 328.732 515.304 330.017 504.192 330.017V330.018ZM502.229 363.209C501.716 363.209 501.215 363.053 500.793 362.762C500.371 362.471 500.048 362.058 499.866 361.579C499.849 361.534 497.989 356.742 494.024 352.309C493.577 351.81 493.347 351.154 493.383 350.486C493.42 349.817 493.721 349.19 494.219 348.743C494.718 348.297 495.374 348.066 496.043 348.103C496.711 348.139 497.338 348.44 497.785 348.938C502.407 354.099 504.505 359.559 504.591 359.788C504.736 360.171 504.786 360.583 504.736 360.989C504.687 361.395 504.54 361.782 504.307 362.119C504.075 362.455 503.764 362.731 503.402 362.921C503.04 363.111 502.638 363.21 502.229 363.21V363.209Z" fill="#1E5C93" stroke="#1E5C93" stroke-width="1.82202" stroke-miterlimit="10"/>
<path d="M502.23 363.21C501.925 363.209 501.622 363.153 501.336 363.045C500.71 362.807 500.204 362.331 499.929 361.72C499.653 361.11 499.631 360.415 499.868 359.788C499.954 359.56 502.052 354.099 506.674 348.938C506.895 348.691 507.163 348.49 507.462 348.347C507.761 348.203 508.085 348.12 508.416 348.102C508.748 348.084 509.079 348.131 509.392 348.241C509.705 348.351 509.993 348.522 510.24 348.743C510.487 348.964 510.688 349.232 510.831 349.531C510.975 349.83 511.058 350.154 511.076 350.485C511.094 350.817 511.047 351.148 510.937 351.461C510.827 351.774 510.657 352.062 510.435 352.309C506.436 356.775 504.61 361.531 504.593 361.578C504.411 362.058 504.088 362.471 503.666 362.762C503.244 363.054 502.743 363.209 502.23 363.209V363.21ZM502.887 373.654C502.555 373.654 502.227 373.589 501.921 373.462C501.615 373.335 501.336 373.149 501.102 372.915C500.867 372.68 500.681 372.402 500.555 372.096C500.428 371.789 500.362 371.461 500.362 371.13V370.97C500.362 370.301 500.628 369.658 501.102 369.185C501.575 368.711 502.217 368.446 502.887 368.446C503.557 368.446 504.199 368.711 504.672 369.185C505.146 369.658 505.412 370.301 505.412 370.97V371.13C505.412 371.461 505.346 371.789 505.219 372.096C505.092 372.402 504.907 372.68 504.672 372.915C504.438 373.149 504.159 373.335 503.853 373.462C503.547 373.589 503.218 373.654 502.887 373.654Z" fill="#1E5C93" stroke="#1E5C93" stroke-width="1.82202" stroke-miterlimit="10"/>
<path d="M1068.25 444.77C1120.85 444.77 1163.49 401.393 1163.49 347.885C1163.49 294.377 1120.85 251 1068.25 251C1015.64 251 973 294.377 973 347.885C973 401.393 1015.64 444.77 1068.25 444.77Z" fill="#ECFAFF" stroke="#1E5C93" stroke-width="4.98021"/>
<path d="M1109.7 409.969H1026.76C1026.17 409.969 1025.6 409.762 1025.14 409.382C1024.69 409.003 1024.38 408.476 1024.28 407.894C1021.8 394.265 1032.66 375.164 1058.43 347.875C1032.66 320.59 1021.8 301.489 1024.28 287.86C1024.38 287.278 1024.69 286.751 1025.14 286.372C1025.6 285.993 1026.17 285.785 1026.76 285.785H1109.7C1110.29 285.784 1110.86 285.992 1111.31 286.371C1111.77 286.751 1112.08 287.278 1112.18 287.86C1114.66 301.489 1103.8 320.593 1078.03 347.878C1103.8 375.164 1114.66 394.268 1112.18 407.897C1112.08 408.479 1111.77 409.006 1111.31 409.385C1110.86 409.764 1110.29 409.972 1109.7 409.972V409.969ZM1029.01 404.917H1107.45C1108.1 392.85 1096.7 374.719 1072.72 349.621C1072.27 349.151 1072.02 348.527 1072.02 347.877C1072.02 347.227 1072.27 346.602 1072.72 346.133C1096.7 321.032 1108.09 302.902 1107.45 290.837H1029.01C1028.36 302.902 1039.76 321.035 1063.74 346.133C1064.19 346.602 1064.44 347.227 1064.44 347.877C1064.44 348.527 1064.19 349.151 1063.74 349.621C1039.76 374.722 1028.37 392.852 1029.01 404.917Z" fill="#1E5C93" stroke="#1E5C93" stroke-width="1.82202" stroke-miterlimit="10"/>
<path d="M1117.09 409.969H1019.36C1018.69 409.969 1018.05 409.703 1017.58 409.23C1017.1 408.756 1016.84 408.114 1016.84 407.444C1016.84 406.775 1017.1 406.133 1017.58 405.659C1018.05 405.186 1018.69 404.92 1019.36 404.92H1117.09C1117.76 404.92 1118.4 405.186 1118.88 405.659C1119.35 406.133 1119.62 406.775 1119.62 407.444C1119.62 408.114 1119.35 408.756 1118.88 409.23C1118.4 409.703 1117.76 409.969 1117.09 409.969ZM1117.09 290.838H1019.36C1018.69 290.838 1018.05 290.572 1017.58 290.098C1017.1 289.625 1016.84 288.983 1016.84 288.313C1016.84 287.644 1017.1 287.002 1017.58 286.528C1018.05 286.055 1018.69 285.789 1019.36 285.789H1117.09C1117.76 285.789 1118.4 286.055 1118.88 286.528C1119.35 287.002 1119.62 287.644 1119.62 288.313C1119.62 288.983 1119.35 289.625 1118.88 290.098C1118.4 290.572 1117.76 290.838 1117.09 290.838ZM1027.22 400.349C1026.77 400.349 1026.33 400.229 1025.94 400.001C1025.55 399.774 1025.23 399.446 1025.01 399.053C1024.85 398.764 1024.75 398.445 1024.71 398.116C1024.67 397.786 1024.7 397.453 1024.79 397.134C1024.88 396.815 1025.03 396.517 1025.24 396.257C1025.44 395.996 1025.7 395.779 1025.99 395.618C1026.07 395.576 1033.8 391.27 1042.79 386.994C1055.1 381.146 1063.85 378.125 1068.83 378.007L1069.45 377.999C1084.57 377.999 1107.96 390.254 1108.96 390.782C1109.25 390.936 1109.51 391.148 1109.72 391.403C1109.93 391.658 1110.09 391.953 1110.19 392.27C1110.29 392.587 1110.32 392.92 1110.29 393.25C1110.26 393.58 1110.16 393.901 1110.01 394.195C1109.7 394.787 1109.16 395.23 1108.52 395.428C1107.88 395.626 1107.19 395.562 1106.6 395.25C1106.36 395.125 1082.72 382.705 1068.94 383.057C1060.33 383.258 1036.79 395.376 1028.45 400.029C1028.07 400.24 1027.65 400.35 1027.22 400.35L1027.22 400.349ZM1070.19 327.272C1058.85 327.272 1037.65 321.387 1036.76 321.136C1036.44 321.047 1036.14 320.895 1035.88 320.691C1035.62 320.486 1035.4 320.232 1035.24 319.943C1035.07 319.654 1034.97 319.336 1034.93 319.007C1034.89 318.678 1034.91 318.344 1035 318.024C1035.09 317.705 1035.24 317.406 1035.45 317.145C1035.65 316.884 1035.91 316.666 1036.2 316.503C1036.48 316.34 1036.8 316.236 1037.13 316.196C1037.46 316.156 1037.79 316.182 1038.11 316.271C1038.33 316.329 1059.54 322.219 1070.19 322.219C1080.84 322.219 1095.25 320.954 1095.38 320.943C1096.05 320.885 1096.71 321.093 1097.23 321.522C1097.74 321.95 1098.06 322.564 1098.13 323.23C1098.19 323.897 1097.98 324.56 1097.55 325.074C1097.12 325.588 1096.51 325.911 1095.84 325.972C1095.7 325.986 1081.3 327.271 1070.19 327.271V327.272ZM1068.23 360.463C1067.71 360.463 1067.21 360.307 1066.79 360.016C1066.37 359.724 1066.05 359.312 1065.87 358.832C1065.85 358.788 1063.99 353.995 1060.02 349.563C1059.58 349.064 1059.35 348.408 1059.38 347.74C1059.42 347.071 1059.72 346.444 1060.22 345.997C1060.72 345.55 1061.37 345.32 1062.04 345.357C1062.71 345.393 1063.34 345.694 1063.78 346.192C1068.41 351.353 1070.5 356.813 1070.59 357.042C1070.73 357.425 1070.78 357.837 1070.74 358.243C1070.69 358.648 1070.54 359.036 1070.31 359.373C1070.07 359.709 1069.76 359.984 1069.4 360.174C1069.04 360.364 1068.64 360.464 1068.23 360.464V360.463Z" fill="#1E5C93" stroke="#1E5C93" stroke-width="1.82202" stroke-miterlimit="10"/>
<path d="M1068.23 360.463C1067.92 360.462 1067.62 360.407 1067.33 360.298C1066.71 360.06 1066.2 359.584 1065.92 358.973C1065.65 358.363 1065.63 357.668 1065.86 357.041C1065.95 356.813 1068.05 351.352 1072.67 346.191C1072.89 345.944 1073.16 345.743 1073.46 345.6C1073.76 345.456 1074.08 345.373 1074.41 345.355C1074.74 345.337 1075.07 345.384 1075.39 345.494C1075.7 345.604 1075.99 345.775 1076.24 345.996C1076.48 346.217 1076.68 346.485 1076.83 346.784C1076.97 347.083 1077.05 347.407 1077.07 347.739C1077.09 348.07 1077.04 348.401 1076.93 348.714C1076.82 349.027 1076.65 349.315 1076.43 349.562C1072.43 354.028 1070.6 358.784 1070.59 358.832C1070.41 359.311 1070.08 359.724 1069.66 360.015C1069.24 360.307 1068.74 360.462 1068.23 360.462V360.463ZM1068.88 370.907C1068.55 370.907 1068.22 370.842 1067.92 370.715C1067.61 370.588 1067.33 370.402 1067.1 370.168C1066.86 369.933 1066.68 369.655 1066.55 369.349C1066.42 369.043 1066.36 368.714 1066.36 368.383V368.223C1066.36 367.554 1066.62 366.912 1067.1 366.438C1067.57 365.965 1068.21 365.699 1068.88 365.699C1069.55 365.699 1070.19 365.965 1070.67 366.438C1071.14 366.912 1071.41 367.554 1071.41 368.223V368.383C1071.41 368.714 1071.34 369.043 1071.21 369.349C1071.09 369.655 1070.9 369.933 1070.67 370.168C1070.43 370.402 1070.15 370.588 1069.85 370.715C1069.54 370.842 1069.21 370.907 1068.88 370.907Z" fill="#1E5C93" stroke="#1E5C93" stroke-width="1.82202" stroke-miterlimit="10"/>
<path d="M321 350.269C321 406.213 275.33 451.563 218.995 451.563C162.661 451.563 117 406.213 117 350.269C117 294.357 162.661 249 218.995 249C275.33 249 321 294.351 321 350.269Z" fill="#434343"/>
<circle cx="200.324" cy="312.211" r="7.1831" fill="#FF0000"/>
<circle cx="200.324" cy="330.887" r="7.1831" fill="#FF0000"/>
<circle cx="200.324" cy="349.563" r="7.1831" fill="#FF0000"/>
<circle cx="200.324" cy="368.239" r="7.1831" fill="#FF0000"/>
<circle cx="181.648" cy="330.887" r="7.1831" fill="#FF0000"/>
<circle cx="181.648" cy="349.563" r="7.1831" fill="#FF0000"/>
<circle cx="237.676" cy="312.211" r="7.1831" fill="#FF0000"/>
<circle cx="237.676" cy="330.887" r="7.1831" fill="#FF0000"/>
<circle cx="237.676" cy="349.563" r="7.1831" fill="#FF0000"/>
<circle cx="237.676" cy="368.239" r="7.1831" fill="#FF0000"/>
<circle cx="219" cy="330.887" r="7.1831" fill="#FF0000"/>
<circle cx="219" cy="349.563" r="7.1831" fill="#FF0000"/>
<circle cx="219" cy="368.239" r="7.1831" fill="#FF0000"/>
<circle cx="219" cy="386.915" r="7.1831" fill="#FF0000"/>
<circle cx="256.352" cy="330.887" r="7.1831" fill="#FF0000"/>
<circle cx="256.352" cy="349.563" r="7.1831" fill="#FF0000"/>
<path d="M887 345.997C887 402.326 841.336 448 785.002 448C728.661 448 683 402.326 683 345.997C683 289.661 728.661 244 785.002 244C841.336 244 887 289.661 887 345.997Z" fill="#434343"/>
<circle cx="766.324" cy="312.958" r="7.1831" fill="#FF0000"/>
<circle cx="766.324" cy="368.986" r="7.1831" fill="#FF0000"/>
<circle cx="747.648" cy="331.634" r="7.1831" fill="#FF0000"/>
<circle cx="747.648" cy="350.31" r="7.1831" fill="#FF0000"/>
<circle cx="803.676" cy="312.958" r="7.1831" fill="#FF0000"/>
<circle cx="803.676" cy="368.986" r="7.1831" fill="#FF0000"/>
<circle cx="785" cy="331.634" r="7.1831" fill="#FF0000"/>
<circle cx="785" cy="387.662" r="7.1831" fill="#FF0000"/>
<circle cx="822.352" cy="331.634" r="7.1831" fill="#FF0000"/>
<circle cx="822.352" cy="350.31" r="7.1831" fill="#FF0000"/>
<path d="M1156 529L1110.25 549.785L1110.25 508.215L1156 529Z" fill="#434343"/>
<rect x="117" y="521" width="996" height="15" fill="#434343"/>
<path d="M165.55 178.92C168.51 178.92 171.096 179.507 173.31 180.68C175.523 181.853 177.23 183.507 178.43 185.64C179.656 187.747 180.269 190.187 180.269 192.96C180.269 195.707 179.656 198.147 178.43 200.28C177.23 202.413 175.51 204.067 173.27 205.24C171.056 206.413 168.483 207 165.55 207H155.03V178.92H165.55ZM165.11 201.08C167.696 201.08 169.71 200.373 171.15 198.96C172.59 197.547 173.31 195.547 173.31 192.96C173.31 190.373 172.59 188.36 171.15 186.92C169.71 185.48 167.696 184.76 165.11 184.76H161.87V201.08H165.11ZM187.532 182.36C186.332 182.36 185.345 182.013 184.572 181.32C183.825 180.6 183.452 179.72 183.452 178.68C183.452 177.613 183.825 176.733 184.572 176.04C185.345 175.32 186.332 174.96 187.532 174.96C188.705 174.96 189.665 175.32 190.412 176.04C191.185 176.733 191.572 177.613 191.572 178.68C191.572 179.72 191.185 180.6 190.412 181.32C189.665 182.013 188.705 182.36 187.532 182.36ZM190.932 184.68V207H184.092V184.68H190.932ZM202.729 187.84C203.369 186.8 204.289 185.96 205.489 185.32C206.689 184.68 208.062 184.36 209.609 184.36C211.449 184.36 213.115 184.827 214.609 185.76C216.102 186.693 217.275 188.027 218.129 189.76C219.009 191.493 219.449 193.507 219.449 195.8C219.449 198.093 219.009 200.12 218.129 201.88C217.275 203.613 216.102 204.96 214.609 205.92C213.115 206.853 211.449 207.32 209.609 207.32C208.035 207.32 206.662 207.013 205.489 206.4C204.315 205.76 203.395 204.92 202.729 203.88V207H195.889V177.4H202.729V187.84ZM212.489 195.8C212.489 194.093 212.009 192.76 211.049 191.8C210.115 190.813 208.955 190.32 207.569 190.32C206.209 190.32 205.049 190.813 204.089 191.8C203.155 192.787 202.689 194.133 202.689 195.84C202.689 197.547 203.155 198.893 204.089 199.88C205.049 200.867 206.209 201.36 207.569 201.36C208.929 201.36 210.089 200.867 211.049 199.88C212.009 198.867 212.489 197.507 212.489 195.8ZM245.077 184.68V207H238.237V203.96C237.544 204.947 236.597 205.747 235.397 206.36C234.224 206.947 232.917 207.24 231.477 207.24C229.77 207.24 228.264 206.867 226.957 206.12C225.65 205.347 224.637 204.24 223.917 202.8C223.197 201.36 222.837 199.667 222.837 197.72V184.68H229.637V196.8C229.637 198.293 230.024 199.453 230.797 200.28C231.57 201.107 232.61 201.52 233.917 201.52C235.25 201.52 236.304 201.107 237.077 200.28C237.85 199.453 238.237 198.293 238.237 196.8V184.68H245.077ZM253.39 182.36C252.19 182.36 251.203 182.013 250.43 181.32C249.683 180.6 249.31 179.72 249.31 178.68C249.31 177.613 249.683 176.733 250.43 176.04C251.203 175.32 252.19 174.96 253.39 174.96C254.563 174.96 255.523 175.32 256.27 176.04C257.043 176.733 257.43 177.613 257.43 178.68C257.43 179.72 257.043 180.6 256.27 181.32C255.523 182.013 254.563 182.36 253.39 182.36ZM256.83 209.88C256.83 212.627 256.137 214.6 254.75 215.8C253.363 217.027 251.43 217.64 248.95 217.64H246.27V211.84H247.91C248.657 211.84 249.19 211.693 249.51 211.4C249.83 211.107 249.99 210.627 249.99 209.96V184.68H256.83V209.88ZM260.388 195.8C260.388 193.507 260.815 191.493 261.668 189.76C262.548 188.027 263.734 186.693 265.228 185.76C266.721 184.827 268.388 184.36 270.228 184.36C271.801 184.36 273.174 184.68 274.348 185.32C275.548 185.96 276.468 186.8 277.108 187.84V184.68H283.948V207H277.108V203.84C276.441 204.88 275.508 205.72 274.308 206.36C273.134 207 271.761 207.32 270.188 207.32C268.374 207.32 266.721 206.853 265.228 205.92C263.734 204.96 262.548 203.613 261.668 201.88C260.815 200.12 260.388 198.093 260.388 195.8ZM277.108 195.84C277.108 194.133 276.628 192.787 275.668 191.8C274.734 190.813 273.588 190.32 272.228 190.32C270.868 190.32 269.708 190.813 268.748 191.8C267.814 192.76 267.348 194.093 267.348 195.8C267.348 197.507 267.814 198.867 268.748 199.88C269.708 200.867 270.868 201.36 272.228 201.36C273.588 201.36 274.734 200.867 275.668 199.88C276.628 198.893 277.108 197.547 277.108 195.84Z" fill="#434343"/>
<path d="M731.55 178.92C734.51 178.92 737.096 179.507 739.31 180.68C741.523 181.853 743.23 183.507 744.43 185.64C745.656 187.747 746.269 190.187 746.269 192.96C746.269 195.707 745.656 198.147 744.43 200.28C743.23 202.413 741.51 204.067 739.27 205.24C737.056 206.413 734.483 207 731.55 207H721.03V178.92H731.55ZM731.11 201.08C733.696 201.08 735.71 200.373 737.15 198.96C738.59 197.547 739.31 195.547 739.31 192.96C739.31 190.373 738.59 188.36 737.15 186.92C735.71 185.48 733.696 184.76 731.11 184.76H727.87V201.08H731.11ZM753.532 182.36C752.332 182.36 751.345 182.013 750.572 181.32C749.825 180.6 749.452 179.72 749.452 178.68C749.452 177.613 749.825 176.733 750.572 176.04C751.345 175.32 752.332 174.96 753.532 174.96C754.705 174.96 755.665 175.32 756.412 176.04C757.185 176.733 757.572 177.613 757.572 178.68C757.572 179.72 757.185 180.6 756.412 181.32C755.665 182.013 754.705 182.36 753.532 182.36ZM756.932 184.68V207H750.092V184.68H756.932ZM768.729 187.84C769.369 186.8 770.289 185.96 771.489 185.32C772.689 184.68 774.062 184.36 775.609 184.36C777.449 184.36 779.115 184.827 780.609 185.76C782.102 186.693 783.275 188.027 784.129 189.76C785.009 191.493 785.449 193.507 785.449 195.8C785.449 198.093 785.009 200.12 784.129 201.88C783.275 203.613 782.102 204.96 780.609 205.92C779.115 206.853 777.449 207.32 775.609 207.32C774.035 207.32 772.662 207.013 771.489 206.4C770.315 205.76 769.395 204.92 768.729 203.88V207H761.889V177.4H768.729V187.84ZM778.489 195.8C778.489 194.093 778.009 192.76 777.049 191.8C776.115 190.813 774.955 190.32 773.569 190.32C772.209 190.32 771.049 190.813 770.089 191.8C769.155 192.787 768.689 194.133 768.689 195.84C768.689 197.547 769.155 198.893 770.089 199.88C771.049 200.867 772.209 201.36 773.569 201.36C774.929 201.36 776.089 200.867 777.049 199.88C778.009 198.867 778.489 197.507 778.489 195.8ZM811.077 184.68V207H804.237V203.96C803.544 204.947 802.597 205.747 801.397 206.36C800.224 206.947 798.917 207.24 797.477 207.24C795.77 207.24 794.264 206.867 792.957 206.12C791.65 205.347 790.637 204.24 789.917 202.8C789.197 201.36 788.837 199.667 788.837 197.72V184.68H795.637V196.8C795.637 198.293 796.024 199.453 796.797 200.28C797.57 201.107 798.61 201.52 799.917 201.52C801.25 201.52 802.304 201.107 803.077 200.28C803.85 199.453 804.237 198.293 804.237 196.8V184.68H811.077ZM819.39 182.36C818.19 182.36 817.203 182.013 816.43 181.32C815.683 180.6 815.31 179.72 815.31 178.68C815.31 177.613 815.683 176.733 816.43 176.04C817.203 175.32 818.19 174.96 819.39 174.96C820.563 174.96 821.523 175.32 822.27 176.04C823.043 176.733 823.43 177.613 823.43 178.68C823.43 179.72 823.043 180.6 822.27 181.32C821.523 182.013 820.563 182.36 819.39 182.36ZM822.83 209.88C822.83 212.627 822.137 214.6 820.75 215.8C819.363 217.027 817.43 217.64 814.95 217.64H812.27V211.84H813.91C814.657 211.84 815.19 211.693 815.51 211.4C815.83 211.107 815.99 210.627 815.99 209.96V184.68H822.83V209.88ZM826.388 195.8C826.388 193.507 826.815 191.493 827.668 189.76C828.548 188.027 829.734 186.693 831.228 185.76C832.721 184.827 834.388 184.36 836.228 184.36C837.801 184.36 839.174 184.68 840.348 185.32C841.548 185.96 842.468 186.8 843.108 187.84V184.68H849.948V207H843.108V203.84C842.441 204.88 841.508 205.72 840.308 206.36C839.134 207 837.761 207.32 836.188 207.32C834.374 207.32 832.721 206.853 831.228 205.92C829.734 204.96 828.548 203.613 827.668 201.88C826.815 200.12 826.388 198.093 826.388 195.8ZM843.108 195.84C843.108 194.133 842.628 192.787 841.668 191.8C840.734 190.813 839.588 190.32 838.228 190.32C836.868 190.32 835.708 190.813 834.748 191.8C833.814 192.76 833.348 194.093 833.348 195.8C833.348 197.507 833.814 198.867 834.748 199.88C835.708 200.867 836.868 201.36 838.228 201.36C839.588 201.36 840.734 200.867 841.668 199.88C842.628 198.893 843.108 197.547 843.108 195.84Z" fill="#434343"/>
<path d="M441.803 184.4V190.08H450.963V195.36H441.803V201.52H452.163V207H434.963V178.92H452.163V184.4H441.803ZM465.684 207.32C463.737 207.32 462.004 206.987 460.484 206.32C458.964 205.653 457.764 204.747 456.884 203.6C456.004 202.427 455.51 201.12 455.404 199.68H462.164C462.244 200.453 462.604 201.08 463.244 201.56C463.884 202.04 464.67 202.28 465.604 202.28C466.457 202.28 467.11 202.12 467.564 201.8C468.044 201.453 468.284 201.013 468.284 200.48C468.284 199.84 467.95 199.373 467.284 199.08C466.617 198.76 465.537 198.413 464.044 198.04C462.444 197.667 461.11 197.28 460.044 196.88C458.977 196.453 458.057 195.8 457.284 194.92C456.51 194.013 456.124 192.8 456.124 191.28C456.124 190 456.47 188.84 457.164 187.8C457.884 186.733 458.924 185.893 460.284 185.28C461.67 184.667 463.31 184.36 465.204 184.36C468.004 184.36 470.204 185.053 471.804 186.44C473.43 187.827 474.364 189.667 474.604 191.96H468.284C468.177 191.187 467.83 190.573 467.244 190.12C466.684 189.667 465.937 189.44 465.004 189.44C464.204 189.44 463.59 189.6 463.164 189.92C462.737 190.213 462.524 190.627 462.524 191.16C462.524 191.8 462.857 192.28 463.524 192.6C464.217 192.92 465.284 193.24 466.724 193.56C468.377 193.987 469.724 194.413 470.764 194.84C471.804 195.24 472.71 195.907 473.484 196.84C474.284 197.747 474.697 198.973 474.724 200.52C474.724 201.827 474.35 203 473.604 204.04C472.884 205.053 471.83 205.853 470.444 206.44C469.084 207.027 467.497 207.32 465.684 207.32ZM485.748 187.84C486.415 186.8 487.335 185.96 488.508 185.32C489.682 184.68 491.055 184.36 492.628 184.36C494.468 184.36 496.135 184.827 497.628 185.76C499.122 186.693 500.295 188.027 501.148 189.76C502.028 191.493 502.468 193.507 502.468 195.8C502.468 198.093 502.028 200.12 501.148 201.88C500.295 203.613 499.122 204.96 497.628 205.92C496.135 206.853 494.468 207.32 492.628 207.32C491.082 207.32 489.708 207 488.508 206.36C487.335 205.72 486.415 204.893 485.748 203.88V217.64H478.908V184.68H485.748V187.84ZM495.508 195.8C495.508 194.093 495.028 192.76 494.068 191.8C493.135 190.813 491.975 190.32 490.588 190.32C489.228 190.32 488.068 190.813 487.108 191.8C486.175 192.787 485.708 194.133 485.708 195.84C485.708 197.547 486.175 198.893 487.108 199.88C488.068 200.867 489.228 201.36 490.588 201.36C491.948 201.36 493.108 200.867 494.068 199.88C495.028 198.867 495.508 197.507 495.508 195.8ZM527.097 195.48C527.097 196.12 527.057 196.787 526.977 197.48H511.497C511.603 198.867 512.043 199.933 512.817 200.68C513.617 201.4 514.59 201.76 515.737 201.76C517.443 201.76 518.63 201.04 519.297 199.6H526.577C526.203 201.067 525.523 202.387 524.537 203.56C523.577 204.733 522.363 205.653 520.897 206.32C519.43 206.987 517.79 207.32 515.977 207.32C513.79 207.32 511.843 206.853 510.137 205.92C508.43 204.987 507.097 203.653 506.137 201.92C505.177 200.187 504.697 198.16 504.697 195.84C504.697 193.52 505.163 191.493 506.097 189.76C507.057 188.027 508.39 186.693 510.097 185.76C511.803 184.827 513.763 184.36 515.977 184.36C518.137 184.36 520.057 184.813 521.737 185.72C523.417 186.627 524.723 187.92 525.657 189.6C526.617 191.28 527.097 193.24 527.097 195.48ZM520.097 193.68C520.097 192.507 519.697 191.573 518.897 190.88C518.097 190.187 517.097 189.84 515.897 189.84C514.75 189.84 513.777 190.173 512.977 190.84C512.203 191.507 511.723 192.453 511.537 193.68H520.097ZM537.545 188.4C538.345 187.173 539.345 186.213 540.545 185.52C541.745 184.8 543.078 184.44 544.545 184.44V191.68H542.665C540.958 191.68 539.678 192.053 538.825 192.8C537.972 193.52 537.545 194.8 537.545 196.64V207H530.705V184.68H537.545V188.4ZM546.454 195.8C546.454 193.507 546.881 191.493 547.734 189.76C548.614 188.027 549.801 186.693 551.294 185.76C552.788 184.827 554.454 184.36 556.294 184.36C557.868 184.36 559.241 184.68 560.414 185.32C561.614 185.96 562.534 186.8 563.174 187.84V184.68H570.014V207H563.174V203.84C562.507 204.88 561.574 205.72 560.374 206.36C559.201 207 557.828 207.32 556.254 207.32C554.441 207.32 552.788 206.853 551.294 205.92C549.801 204.96 548.614 203.613 547.734 201.88C546.881 200.12 546.454 198.093 546.454 195.8ZM563.174 195.84C563.174 194.133 562.694 192.787 561.734 191.8C560.801 190.813 559.654 190.32 558.294 190.32C556.934 190.32 555.774 190.813 554.814 191.8C553.881 192.76 553.414 194.093 553.414 195.8C553.414 197.507 553.881 198.867 554.814 199.88C555.774 200.867 556.934 201.36 558.294 201.36C559.654 201.36 560.801 200.867 561.734 199.88C562.694 198.893 563.174 197.547 563.174 195.84Z" fill="#434343"/>
<path d="M1007.8 184.4V190.08H1016.96V195.36H1007.8V201.52H1018.16V207H1000.96V178.92H1018.16V184.4H1007.8ZM1031.68 207.32C1029.74 207.32 1028 206.987 1026.48 206.32C1024.96 205.653 1023.76 204.747 1022.88 203.6C1022 202.427 1021.51 201.12 1021.4 199.68H1028.16C1028.24 200.453 1028.6 201.08 1029.24 201.56C1029.88 202.04 1030.67 202.28 1031.6 202.28C1032.46 202.28 1033.11 202.12 1033.56 201.8C1034.04 201.453 1034.28 201.013 1034.28 200.48C1034.28 199.84 1033.95 199.373 1033.28 199.08C1032.62 198.76 1031.54 198.413 1030.04 198.04C1028.44 197.667 1027.11 197.28 1026.04 196.88C1024.98 196.453 1024.06 195.8 1023.28 194.92C1022.51 194.013 1022.12 192.8 1022.12 191.28C1022.12 190 1022.47 188.84 1023.16 187.8C1023.88 186.733 1024.92 185.893 1026.28 185.28C1027.67 184.667 1029.31 184.36 1031.2 184.36C1034 184.36 1036.2 185.053 1037.8 186.44C1039.43 187.827 1040.36 189.667 1040.6 191.96H1034.28C1034.18 191.187 1033.83 190.573 1033.24 190.12C1032.68 189.667 1031.94 189.44 1031 189.44C1030.2 189.44 1029.59 189.6 1029.16 189.92C1028.74 190.213 1028.52 190.627 1028.52 191.16C1028.52 191.8 1028.86 192.28 1029.52 192.6C1030.22 192.92 1031.28 193.24 1032.72 193.56C1034.38 193.987 1035.72 194.413 1036.76 194.84C1037.8 195.24 1038.71 195.907 1039.48 196.84C1040.28 197.747 1040.7 198.973 1040.72 200.52C1040.72 201.827 1040.35 203 1039.6 204.04C1038.88 205.053 1037.83 205.853 1036.44 206.44C1035.08 207.027 1033.5 207.32 1031.68 207.32ZM1051.75 187.84C1052.41 186.8 1053.33 185.96 1054.51 185.32C1055.68 184.68 1057.05 184.36 1058.63 184.36C1060.47 184.36 1062.13 184.827 1063.63 185.76C1065.12 186.693 1066.29 188.027 1067.15 189.76C1068.03 191.493 1068.47 193.507 1068.47 195.8C1068.47 198.093 1068.03 200.12 1067.15 201.88C1066.29 203.613 1065.12 204.96 1063.63 205.92C1062.13 206.853 1060.47 207.32 1058.63 207.32C1057.08 207.32 1055.71 207 1054.51 206.36C1053.33 205.72 1052.41 204.893 1051.75 203.88V217.64H1044.91V184.68H1051.75V187.84ZM1061.51 195.8C1061.51 194.093 1061.03 192.76 1060.07 191.8C1059.13 190.813 1057.97 190.32 1056.59 190.32C1055.23 190.32 1054.07 190.813 1053.11 191.8C1052.17 192.787 1051.71 194.133 1051.71 195.84C1051.71 197.547 1052.17 198.893 1053.11 199.88C1054.07 200.867 1055.23 201.36 1056.59 201.36C1057.95 201.36 1059.11 200.867 1060.07 199.88C1061.03 198.867 1061.51 197.507 1061.51 195.8ZM1093.1 195.48C1093.1 196.12 1093.06 196.787 1092.98 197.48H1077.5C1077.6 198.867 1078.04 199.933 1078.82 200.68C1079.62 201.4 1080.59 201.76 1081.74 201.76C1083.44 201.76 1084.63 201.04 1085.3 199.6H1092.58C1092.2 201.067 1091.52 202.387 1090.54 203.56C1089.58 204.733 1088.36 205.653 1086.9 206.32C1085.43 206.987 1083.79 207.32 1081.98 207.32C1079.79 207.32 1077.84 206.853 1076.14 205.92C1074.43 204.987 1073.1 203.653 1072.14 201.92C1071.18 200.187 1070.7 198.16 1070.7 195.84C1070.7 193.52 1071.16 191.493 1072.1 189.76C1073.06 188.027 1074.39 186.693 1076.1 185.76C1077.8 184.827 1079.76 184.36 1081.98 184.36C1084.14 184.36 1086.06 184.813 1087.74 185.72C1089.42 186.627 1090.72 187.92 1091.66 189.6C1092.62 191.28 1093.1 193.24 1093.1 195.48ZM1086.1 193.68C1086.1 192.507 1085.7 191.573 1084.9 190.88C1084.1 190.187 1083.1 189.84 1081.9 189.84C1080.75 189.84 1079.78 190.173 1078.98 190.84C1078.2 191.507 1077.72 192.453 1077.54 193.68H1086.1ZM1103.54 188.4C1104.34 187.173 1105.34 186.213 1106.54 185.52C1107.74 184.8 1109.08 184.44 1110.54 184.44V191.68H1108.66C1106.96 191.68 1105.68 192.053 1104.82 192.8C1103.97 193.52 1103.54 194.8 1103.54 196.64V207H1096.7V184.68H1103.54V188.4ZM1112.45 195.8C1112.45 193.507 1112.88 191.493 1113.73 189.76C1114.61 188.027 1115.8 186.693 1117.29 185.76C1118.79 184.827 1120.45 184.36 1122.29 184.36C1123.87 184.36 1125.24 184.68 1126.41 185.32C1127.61 185.96 1128.53 186.8 1129.17 187.84V184.68H1136.01V207H1129.17V203.84C1128.51 204.88 1127.57 205.72 1126.37 206.36C1125.2 207 1123.83 207.32 1122.25 207.32C1120.44 207.32 1118.79 206.853 1117.29 205.92C1115.8 204.96 1114.61 203.613 1113.73 201.88C1112.88 200.12 1112.45 198.093 1112.45 195.8ZM1129.17 195.84C1129.17 194.133 1128.69 192.787 1127.73 191.8C1126.8 190.813 1125.65 190.32 1124.29 190.32C1122.93 190.32 1121.77 190.813 1120.81 191.8C1119.88 192.76 1119.41 194.093 1119.41 195.8C1119.41 197.507 1119.88 198.867 1120.81 199.88C1121.77 200.867 1122.93 201.36 1124.29 201.36C1125.65 201.36 1126.8 200.867 1127.73 199.88C1128.69 198.893 1129.17 197.547 1129.17 195.84Z" fill="#434343"/>
</g>
<defs>
<clipPath id="clip0_122_2">
<rect width="1280" height="720" fill="white"/>
</clipPath>
</defs>
</svg>
