<svg width="1280" height="720" viewBox="0 0 1280 720" fill="none" xmlns="http://www.w3.org/2000/svg">
<g clip-path="url(#clip0_70_97)">
<rect width="1280" height="720" fill="#ECFAFF"/>
<path d="M0 -2H1280V717.999H0V-2Z" fill="#ECFAFF"/>
<path d="M938.271 354C938.271 191.628 806.642 60 644.271 60C481.899 60 350.271 191.628 350.271 354C350.271 516.372 481.899 648 644.271 648C806.642 648 938.271 516.372 938.271 354Z" stroke="#434343" stroke-width="14"/>
<path d="M300.572 249.523L289.699 197.581L254.676 237.445L300.572 249.523Z" fill="#434343"/>
<path d="M305.136 511.877L319.618 503.376C276.776 427.961 262.201 336.374 285.89 245.326L269.503 241.062C244.668 336.511 260.07 432.687 305.136 511.877Z" fill="#434343"/>
<path d="M545.271 103.491C545.271 142.433 513.48 174 474.267 174C435.054 174 403.271 142.433 403.271 103.491C403.271 64.5724 435.054 33 474.267 33C513.48 33 545.271 64.5678 545.271 103.491Z" fill="#434343"/>
<path d="M945.271 543.998C945.271 583.207 913.485 615 874.272 615C835.054 615 803.271 583.207 803.271 543.998C803.271 504.784 835.054 473 874.272 473C913.485 473 945.271 504.784 945.271 543.998Z" fill="#434343"/>
<path d="M879.971 243.476C916.587 243.476 946.27 213.282 946.27 176.036C946.27 138.791 916.587 108.597 879.971 108.597C843.356 108.597 813.673 138.791 813.673 176.036C813.673 213.282 843.356 243.476 879.971 243.476Z" fill="#ECFAFF" stroke="#1E5C93" stroke-width="4.98021"/>
<path d="M908.825 219.252H851.097C850.685 219.252 850.286 219.107 849.97 218.843C849.654 218.579 849.44 218.212 849.367 217.807C847.643 208.32 855.202 195.024 873.142 176.029C855.203 157.037 847.643 143.741 849.367 134.254C849.441 133.849 849.654 133.482 849.97 133.218C850.286 132.954 850.685 132.81 851.097 132.81H908.825C909.237 132.809 909.636 132.954 909.952 133.218C910.268 133.482 910.482 133.849 910.555 134.254C912.279 143.741 904.719 157.039 886.78 176.032C904.719 195.024 912.279 208.323 910.555 217.809C910.481 218.215 910.268 218.581 909.952 218.845C909.635 219.109 909.237 219.254 908.825 219.254V219.252ZM852.66 215.735H907.264C907.713 207.335 899.78 194.715 883.085 177.245C882.772 176.918 882.598 176.483 882.598 176.031C882.598 175.578 882.772 175.143 883.085 174.816C899.777 157.344 907.711 144.724 907.262 136.326H852.66C852.211 144.724 860.144 157.346 876.839 174.816C877.151 175.143 877.326 175.578 877.326 176.031C877.326 176.483 877.151 176.918 876.839 177.245C860.146 194.717 852.213 207.337 852.66 215.735Z" fill="#1E5C93" stroke="#1E5C93" stroke-width="1.82202" stroke-miterlimit="10"/>
<path d="M913.973 219.252H845.946C845.48 219.252 845.033 219.066 844.704 218.737C844.374 218.407 844.189 217.96 844.189 217.494C844.189 217.028 844.374 216.581 844.704 216.252C845.033 215.922 845.48 215.737 845.946 215.737H913.973C914.439 215.737 914.886 215.922 915.215 216.252C915.545 216.581 915.73 217.028 915.73 217.494C915.73 217.96 915.545 218.407 915.215 218.737C914.886 219.066 914.44 219.252 913.973 219.252ZM913.973 136.327H845.946C845.48 136.327 845.033 136.142 844.704 135.812C844.374 135.483 844.189 135.036 844.189 134.57C844.189 134.104 844.374 133.657 844.704 133.327C845.033 132.998 845.48 132.812 845.946 132.812H913.973C914.439 132.812 914.886 132.998 915.215 133.327C915.545 133.657 915.73 134.104 915.73 134.57C915.73 135.036 915.545 135.483 915.215 135.812C914.886 136.142 914.44 136.327 913.973 136.327ZM851.417 212.555C851.104 212.555 850.796 212.472 850.526 212.313C850.255 212.155 850.032 211.927 849.879 211.653C849.767 211.452 849.695 211.23 849.668 211.001C849.642 210.771 849.66 210.539 849.723 210.317C849.786 210.095 849.893 209.888 850.036 209.707C850.179 209.526 850.356 209.375 850.558 209.262C850.612 209.233 855.995 206.236 862.257 203.259C870.82 199.189 876.914 197.085 880.376 197.004L880.814 196.998C891.338 196.998 907.615 205.528 908.311 205.896C908.515 206.003 908.696 206.15 908.843 206.328C908.991 206.506 909.101 206.711 909.17 206.932C909.238 207.152 909.261 207.384 909.24 207.614C909.218 207.844 909.152 208.067 909.044 208.271C908.826 208.684 908.453 208.992 908.008 209.13C907.562 209.268 907.081 209.223 906.668 209.006C906.503 208.919 890.049 200.274 880.456 200.519C874.463 200.659 858.077 209.094 852.271 212.332C852.009 212.479 851.715 212.556 851.415 212.556L851.417 212.555ZM881.327 161.688C873.43 161.688 858.677 157.592 858.054 157.417C857.831 157.355 857.623 157.249 857.442 157.107C857.26 156.965 857.108 156.788 856.995 156.587C856.881 156.386 856.809 156.164 856.781 155.935C856.753 155.706 856.771 155.473 856.833 155.251C856.895 155.029 857 154.821 857.142 154.639C857.285 154.457 857.462 154.305 857.663 154.192C857.864 154.079 858.085 154.006 858.315 153.978C858.544 153.951 858.776 153.968 858.999 154.03C859.146 154.071 873.911 158.171 881.325 158.171C888.739 158.171 898.766 157.29 898.863 157.282C899.327 157.242 899.788 157.387 900.145 157.685C900.503 157.984 900.728 158.411 900.772 158.874C900.813 159.339 900.669 159.8 900.371 160.158C900.072 160.516 899.644 160.741 899.18 160.783C899.081 160.793 889.061 161.687 881.327 161.687V161.688ZM879.96 184.792C879.603 184.791 879.255 184.683 878.961 184.48C878.667 184.277 878.442 183.99 878.315 183.657C878.304 183.626 877.009 180.29 874.249 177.204C873.938 176.857 873.778 176.401 873.803 175.935C873.829 175.47 874.038 175.033 874.385 174.722C874.732 174.411 875.189 174.251 875.654 174.276C876.119 174.302 876.556 174.511 876.867 174.858C880.084 178.45 881.544 182.251 881.605 182.41C881.705 182.677 881.74 182.963 881.706 183.246C881.671 183.528 881.569 183.798 881.407 184.033C881.245 184.267 881.029 184.458 880.777 184.591C880.525 184.723 880.245 184.792 879.96 184.792V184.792Z" fill="#1E5C93" stroke="#1E5C93" stroke-width="1.82202" stroke-miterlimit="10"/>
<path d="M879.961 184.792C879.749 184.792 879.538 184.753 879.339 184.677C878.903 184.512 878.551 184.18 878.359 183.755C878.167 183.33 878.152 182.847 878.317 182.41C878.377 182.251 879.837 178.45 883.054 174.858C883.208 174.686 883.395 174.546 883.603 174.446C883.811 174.346 884.037 174.288 884.267 174.276C884.498 174.263 884.728 174.296 884.946 174.373C885.164 174.449 885.365 174.568 885.536 174.722C885.708 174.876 885.848 175.062 885.948 175.271C886.048 175.479 886.106 175.704 886.119 175.935C886.131 176.165 886.098 176.396 886.022 176.614C885.945 176.832 885.826 177.032 885.672 177.204C882.889 180.313 881.617 183.623 881.606 183.656C881.479 183.99 881.254 184.278 880.961 184.481C880.667 184.683 880.318 184.792 879.961 184.792V184.792ZM880.418 192.062C880.187 192.062 879.959 192.017 879.746 191.928C879.533 191.84 879.339 191.711 879.176 191.547C879.012 191.384 878.883 191.191 878.795 190.977C878.706 190.764 878.661 190.536 878.661 190.305V190.194C878.661 189.728 878.846 189.281 879.176 188.951C879.505 188.622 879.952 188.437 880.418 188.437C880.884 188.437 881.331 188.622 881.661 188.951C881.99 189.281 882.175 189.728 882.175 190.194V190.305C882.175 190.536 882.13 190.764 882.042 190.977C881.953 191.191 881.824 191.384 881.661 191.547C881.498 191.711 881.304 191.84 881.091 191.928C880.877 192.017 880.649 192.062 880.418 192.062Z" fill="#1E5C93" stroke="#1E5C93" stroke-width="1.82202" stroke-miterlimit="10"/>
<path d="M474.398 657.266C511.014 657.266 540.697 627.072 540.697 589.827C540.697 552.581 511.014 522.387 474.398 522.387C437.782 522.387 408.1 552.581 408.1 589.827C408.1 627.072 437.782 657.266 474.398 657.266Z" fill="#ECFAFF" stroke="#1E5C93" stroke-width="4.98021"/>
<path d="M503.251 633.042H445.523C445.111 633.042 444.712 632.898 444.396 632.634C444.08 632.37 443.866 632.003 443.793 631.598C442.069 622.111 449.629 608.815 467.568 589.82C449.629 570.827 442.069 557.531 443.793 548.045C443.867 547.639 444.08 547.273 444.396 547.009C444.713 546.745 445.111 546.6 445.523 546.6H503.251C503.663 546.6 504.062 546.744 504.378 547.008C504.694 547.272 504.908 547.639 504.981 548.045C506.705 557.531 499.145 570.83 481.206 589.822C499.145 608.815 506.705 622.113 504.981 631.6C504.907 632.005 504.694 632.372 504.378 632.636C504.061 632.9 503.663 633.044 503.251 633.044V633.042ZM447.086 629.525H501.69C502.139 621.126 494.206 608.505 477.511 591.035C477.198 590.708 477.024 590.273 477.024 589.821C477.024 589.369 477.198 588.934 477.511 588.607C494.203 571.135 502.137 558.515 501.688 550.117H447.086C446.637 558.515 454.57 571.137 471.265 588.607C471.577 588.934 471.752 589.369 471.752 589.821C471.752 590.273 471.577 590.708 471.265 591.035C454.572 608.507 446.639 621.127 447.086 629.525Z" fill="#1E5C93" stroke="#1E5C93" stroke-width="1.82202" stroke-miterlimit="10"/>
<path d="M508.399 633.042H440.373C439.906 633.042 439.459 632.857 439.13 632.527C438.8 632.198 438.615 631.751 438.615 631.285C438.615 630.819 438.8 630.372 439.13 630.042C439.459 629.713 439.906 629.528 440.373 629.528H508.399C508.865 629.528 509.312 629.713 509.642 630.042C509.971 630.372 510.156 630.819 510.156 631.285C510.156 631.751 509.971 632.198 509.642 632.527C509.312 632.857 508.866 633.042 508.399 633.042ZM508.399 550.117H440.373C439.906 550.117 439.459 549.932 439.13 549.603C438.8 549.273 438.615 548.826 438.615 548.36C438.615 547.894 438.8 547.447 439.13 547.118C439.459 546.788 439.906 546.603 440.373 546.603H508.399C508.865 546.603 509.312 546.788 509.642 547.118C509.971 547.447 510.156 547.894 510.156 548.36C510.156 548.826 509.971 549.273 509.642 549.603C509.312 549.932 508.866 550.117 508.399 550.117ZM445.843 626.346C445.53 626.346 445.222 626.262 444.952 626.104C444.681 625.945 444.458 625.717 444.305 625.444C444.193 625.242 444.121 625.021 444.094 624.791C444.068 624.562 444.086 624.33 444.149 624.108C444.212 623.886 444.319 623.678 444.462 623.497C444.605 623.316 444.782 623.165 444.984 623.053C445.038 623.023 450.421 620.026 456.683 617.05C465.246 612.979 471.34 610.876 474.802 610.794L475.24 610.789C485.764 610.789 502.041 619.319 502.737 619.686C502.941 619.794 503.122 619.941 503.269 620.119C503.417 620.297 503.528 620.502 503.596 620.722C503.664 620.943 503.688 621.175 503.666 621.405C503.644 621.634 503.578 621.858 503.47 622.062C503.252 622.474 502.879 622.783 502.434 622.921C501.988 623.058 501.507 623.014 501.094 622.797C500.929 622.71 484.475 614.065 474.882 614.309C468.889 614.449 452.503 622.884 446.697 626.123C446.435 626.27 446.141 626.347 445.841 626.347L445.843 626.346ZM475.753 575.478C467.856 575.478 453.103 571.382 452.48 571.207C452.257 571.145 452.049 571.04 451.868 570.897C451.686 570.755 451.534 570.578 451.421 570.377C451.307 570.176 451.235 569.955 451.207 569.725C451.179 569.496 451.197 569.264 451.259 569.041C451.321 568.819 451.426 568.611 451.568 568.429C451.711 568.248 451.888 568.096 452.089 567.983C452.29 567.869 452.511 567.797 452.741 567.769C452.97 567.741 453.202 567.759 453.425 567.821C453.572 567.862 468.337 571.961 475.751 571.961C483.165 571.961 493.192 571.081 493.289 571.073C493.753 571.033 494.214 571.178 494.571 571.476C494.929 571.774 495.154 572.201 495.198 572.665C495.239 573.129 495.095 573.591 494.797 573.949C494.498 574.307 494.07 574.531 493.606 574.574C493.507 574.584 483.487 575.478 475.753 575.478V575.478ZM474.386 598.582C474.029 598.582 473.681 598.473 473.387 598.271C473.093 598.068 472.868 597.781 472.741 597.447C472.73 597.416 471.435 594.08 468.675 590.995C468.364 590.648 468.204 590.191 468.229 589.726C468.255 589.26 468.464 588.824 468.811 588.513C469.158 588.202 469.615 588.041 470.08 588.067C470.545 588.092 470.982 588.302 471.293 588.649C474.51 592.241 475.97 596.041 476.031 596.201C476.131 596.467 476.166 596.754 476.132 597.036C476.097 597.319 475.995 597.589 475.833 597.823C475.671 598.057 475.455 598.249 475.203 598.381C474.951 598.513 474.671 598.583 474.386 598.583V598.582Z" fill="#1E5C93" stroke="#1E5C93" stroke-width="1.82202" stroke-miterlimit="10"/>
<path d="M474.385 598.582C474.172 598.582 473.961 598.543 473.762 598.467C473.326 598.302 472.974 597.97 472.782 597.545C472.591 597.12 472.575 596.636 472.74 596.2C472.8 596.041 474.26 592.24 477.477 588.648C477.632 588.476 477.818 588.336 478.026 588.236C478.234 588.136 478.46 588.078 478.69 588.066C478.921 588.053 479.152 588.086 479.37 588.163C479.587 588.239 479.788 588.358 479.96 588.512C480.132 588.666 480.272 588.852 480.371 589.06C480.471 589.269 480.529 589.494 480.542 589.725C480.554 589.955 480.522 590.186 480.445 590.404C480.369 590.622 480.25 590.822 480.096 590.994C477.312 594.103 476.041 597.413 476.029 597.446C475.903 597.78 475.678 598.068 475.384 598.27C475.09 598.473 474.742 598.582 474.385 598.581V598.582ZM474.842 605.852C474.611 605.852 474.382 605.807 474.169 605.718C473.956 605.63 473.762 605.501 473.599 605.337C473.436 605.174 473.306 604.981 473.218 604.767C473.13 604.554 473.084 604.326 473.084 604.095V603.984C473.084 603.518 473.269 603.071 473.599 602.741C473.929 602.412 474.375 602.226 474.842 602.226C475.308 602.226 475.755 602.412 476.084 602.741C476.414 603.071 476.599 603.518 476.599 603.984V604.095C476.599 604.326 476.553 604.554 476.465 604.767C476.377 604.981 476.247 605.174 476.084 605.337C475.921 605.501 475.727 605.63 475.514 605.718C475.301 605.807 475.072 605.852 474.842 605.852Z" fill="#1E5C93" stroke="#1E5C93" stroke-width="1.82202" stroke-miterlimit="10"/>
<path d="M593.475 333.758L587.635 323.158H585.995V333.758H579.155V305.678H590.635C592.848 305.678 594.728 306.065 596.275 306.838C597.848 307.612 599.021 308.678 599.795 310.038C600.568 311.372 600.955 312.865 600.955 314.518C600.955 316.385 600.421 318.052 599.355 319.518C598.315 320.985 596.768 322.025 594.715 322.638L601.195 333.758H593.475ZM585.995 318.318H590.235C591.488 318.318 592.422 318.012 593.035 317.398C593.675 316.785 593.995 315.918 593.995 314.798C593.995 313.732 593.675 312.892 593.035 312.278C592.422 311.665 591.488 311.358 590.235 311.358H585.995V318.318ZM626.288 322.238C626.288 322.878 626.248 323.545 626.168 324.238H610.688C610.795 325.625 611.235 326.692 612.008 327.438C612.808 328.158 613.782 328.518 614.928 328.518C616.635 328.518 617.822 327.798 618.488 326.358H625.768C625.395 327.825 624.715 329.145 623.728 330.318C622.768 331.492 621.555 332.412 620.088 333.078C618.622 333.745 616.982 334.078 615.168 334.078C612.982 334.078 611.035 333.612 609.329 332.678C607.622 331.745 606.289 330.412 605.329 328.678C604.369 326.945 603.889 324.918 603.889 322.598C603.889 320.278 604.355 318.252 605.289 316.518C606.249 314.785 607.582 313.452 609.289 312.518C610.995 311.585 612.955 311.118 615.168 311.118C617.328 311.118 619.248 311.572 620.928 312.478C622.608 313.385 623.915 314.678 624.848 316.358C625.808 318.038 626.288 319.998 626.288 322.238ZM619.288 320.438C619.288 319.265 618.888 318.332 618.088 317.638C617.288 316.945 616.288 316.598 615.088 316.598C613.942 316.598 612.968 316.932 612.168 317.598C611.395 318.265 610.915 319.212 610.728 320.438H619.288ZM636.737 314.598C637.403 313.558 638.323 312.718 639.497 312.078C640.67 311.438 642.043 311.118 643.617 311.118C645.457 311.118 647.123 311.585 648.617 312.518C650.11 313.452 651.283 314.785 652.137 316.518C653.017 318.252 653.457 320.265 653.457 322.558C653.457 324.852 653.017 326.878 652.137 328.638C651.283 330.372 650.11 331.718 648.617 332.678C647.123 333.612 645.457 334.078 643.617 334.078C642.07 334.078 640.697 333.758 639.497 333.118C638.323 332.478 637.403 331.652 636.737 330.638V344.398H629.897V311.438H636.737V314.598ZM646.497 322.558C646.497 320.852 646.017 319.518 645.057 318.558C644.123 317.572 642.963 317.078 641.577 317.078C640.217 317.078 639.057 317.572 638.097 318.558C637.163 319.545 636.697 320.892 636.697 322.598C636.697 324.305 637.163 325.652 638.097 326.638C639.057 327.625 640.217 328.118 641.577 328.118C642.937 328.118 644.097 327.625 645.057 326.638C646.017 325.625 646.497 324.265 646.497 322.558ZM678.085 322.238C678.085 322.878 678.045 323.545 677.965 324.238H662.485C662.592 325.625 663.032 326.692 663.805 327.438C664.605 328.158 665.578 328.518 666.725 328.518C668.432 328.518 669.618 327.798 670.285 326.358H677.565C677.192 327.825 676.512 329.145 675.525 330.318C674.565 331.492 673.352 332.412 671.885 333.078C670.418 333.745 668.778 334.078 666.965 334.078C664.778 334.078 662.832 333.612 661.125 332.678C659.418 331.745 658.085 330.412 657.125 328.678C656.165 326.945 655.685 324.918 655.685 322.598C655.685 320.278 656.152 318.252 657.085 316.518C658.045 314.785 659.378 313.452 661.085 312.518C662.792 311.585 664.752 311.118 666.965 311.118C669.125 311.118 671.045 311.572 672.725 312.478C674.405 313.385 675.712 314.678 676.645 316.358C677.605 318.038 678.085 319.998 678.085 322.238ZM671.085 320.438C671.085 319.265 670.685 318.332 669.885 317.638C669.085 316.945 668.085 316.598 666.885 316.598C665.738 316.598 664.765 316.932 663.965 317.598C663.192 318.265 662.712 319.212 662.525 320.438H671.085ZM694.133 327.958V333.758H690.653C688.173 333.758 686.24 333.158 684.853 331.958C683.467 330.732 682.773 328.745 682.773 325.998V317.118H680.053V311.438H682.773V305.998H689.613V311.438H694.093V317.118H689.613V326.078C689.613 326.745 689.773 327.225 690.093 327.518C690.413 327.812 690.947 327.958 691.693 327.958H694.133ZM701.383 309.118C700.183 309.118 699.197 308.772 698.423 308.078C697.677 307.358 697.303 306.478 697.303 305.438C697.303 304.372 697.677 303.492 698.423 302.798C699.197 302.078 700.183 301.718 701.383 301.718C702.557 301.718 703.517 302.078 704.263 302.798C705.037 303.492 705.423 304.372 705.423 305.438C705.423 306.478 705.037 307.358 704.263 308.078C703.517 308.772 702.557 309.118 701.383 309.118ZM704.783 311.438V333.758H697.943V311.438H704.783ZM716.58 315.158C717.38 313.932 718.38 312.972 719.58 312.278C720.78 311.558 722.113 311.198 723.58 311.198V318.438H721.7C719.993 318.438 718.713 318.812 717.86 319.558C717.007 320.278 716.58 321.558 716.58 323.398V333.758H709.74V311.438H716.58V315.158Z" fill="#434343"/>
<path d="M519.888 365.84C520.554 364.8 521.474 363.96 522.648 363.32C523.821 362.68 525.194 362.36 526.768 362.36C528.608 362.36 530.274 362.827 531.768 363.76C533.261 364.693 534.434 366.027 535.288 367.76C536.168 369.493 536.608 371.507 536.608 373.8C536.608 376.093 536.168 378.12 535.288 379.88C534.434 381.613 533.261 382.96 531.768 383.92C530.274 384.853 528.608 385.32 526.768 385.32C525.221 385.32 523.848 385 522.648 384.36C521.474 383.72 520.554 382.893 519.888 381.88V395.64H513.048V362.68H519.888V365.84ZM529.648 373.8C529.648 372.093 529.168 370.76 528.208 369.8C527.274 368.813 526.114 368.32 524.728 368.32C523.368 368.32 522.208 368.813 521.248 369.8C520.314 370.787 519.848 372.133 519.848 373.84C519.848 375.547 520.314 376.893 521.248 377.88C522.208 378.867 523.368 379.36 524.728 379.36C526.088 379.36 527.248 378.867 528.208 377.88C529.168 376.867 529.648 375.507 529.648 373.8ZM538.836 373.8C538.836 371.507 539.263 369.493 540.116 367.76C540.996 366.027 542.183 364.693 543.676 363.76C545.169 362.827 546.836 362.36 548.676 362.36C550.249 362.36 551.623 362.68 552.796 363.32C553.996 363.96 554.916 364.8 555.556 365.84V362.68H562.396V385H555.556V381.84C554.889 382.88 553.956 383.72 552.756 384.36C551.583 385 550.209 385.32 548.636 385.32C546.823 385.32 545.169 384.853 543.676 383.92C542.183 382.96 540.996 381.613 540.116 379.88C539.263 378.12 538.836 376.093 538.836 373.8ZM555.556 373.84C555.556 372.133 555.076 370.787 554.116 369.8C553.183 368.813 552.036 368.32 550.676 368.32C549.316 368.32 548.156 368.813 547.196 369.8C546.263 370.76 545.796 372.093 545.796 373.8C545.796 375.507 546.263 376.867 547.196 377.88C548.156 378.867 549.316 379.36 550.676 379.36C552.036 379.36 553.183 378.867 554.116 377.88C555.076 376.893 555.556 375.547 555.556 373.84ZM574.184 366.4C574.984 365.173 575.984 364.213 577.184 363.52C578.384 362.8 579.718 362.44 581.184 362.44V369.68H579.304C577.598 369.68 576.318 370.053 575.464 370.8C574.611 371.52 574.184 372.8 574.184 374.64V385H567.344V362.68H574.184V366.4ZM583.094 373.8C583.094 371.507 583.52 369.493 584.374 367.76C585.254 366.027 586.44 364.693 587.934 363.76C589.427 362.827 591.094 362.36 592.934 362.36C594.507 362.36 595.88 362.68 597.054 363.32C598.254 363.96 599.174 364.8 599.814 365.84V362.68H606.654V385H599.814V381.84C599.147 382.88 598.214 383.72 597.014 384.36C595.84 385 594.467 385.32 592.894 385.32C591.08 385.32 589.427 384.853 587.934 383.92C586.44 382.96 585.254 381.613 584.374 379.88C583.52 378.12 583.094 376.093 583.094 373.8ZM599.814 373.84C599.814 372.133 599.334 370.787 598.374 369.8C597.44 368.813 596.294 368.32 594.934 368.32C593.574 368.32 592.414 368.813 591.454 369.8C590.52 370.76 590.054 372.093 590.054 373.8C590.054 375.507 590.52 376.867 591.454 377.88C592.414 378.867 593.574 379.36 594.934 379.36C596.294 379.36 597.44 378.867 598.374 377.88C599.334 376.893 599.814 375.547 599.814 373.84ZM629.158 385.32C627.212 385.32 625.478 384.987 623.958 384.32C622.438 383.653 621.238 382.747 620.358 381.6C619.479 380.427 618.985 379.12 618.879 377.68H625.638C625.718 378.453 626.078 379.08 626.718 379.56C627.358 380.04 628.145 380.28 629.078 380.28C629.932 380.28 630.585 380.12 631.038 379.8C631.518 379.453 631.758 379.013 631.758 378.48C631.758 377.84 631.425 377.373 630.758 377.08C630.092 376.76 629.012 376.413 627.518 376.04C625.918 375.667 624.585 375.28 623.518 374.88C622.452 374.453 621.532 373.8 620.758 372.92C619.985 372.013 619.599 370.8 619.599 369.28C619.599 368 619.945 366.84 620.638 365.8C621.358 364.733 622.398 363.893 623.758 363.28C625.145 362.667 626.785 362.36 628.678 362.36C631.478 362.36 633.678 363.053 635.278 364.44C636.905 365.827 637.838 367.667 638.078 369.96H631.758C631.652 369.187 631.305 368.573 630.718 368.12C630.158 367.667 629.412 367.44 628.478 367.44C627.678 367.44 627.065 367.6 626.638 367.92C626.212 368.213 625.998 368.627 625.998 369.16C625.998 369.8 626.332 370.28 626.998 370.6C627.692 370.92 628.758 371.24 630.198 371.56C631.852 371.987 633.198 372.413 634.238 372.84C635.278 373.24 636.185 373.907 636.958 374.84C637.758 375.747 638.172 376.973 638.198 378.52C638.198 379.827 637.825 381 637.078 382.04C636.358 383.053 635.305 383.853 633.918 384.44C632.558 385.027 630.972 385.32 629.158 385.32ZM645.823 360.36C644.623 360.36 643.636 360.013 642.863 359.32C642.116 358.6 641.743 357.72 641.743 356.68C641.743 355.613 642.116 354.733 642.863 354.04C643.636 353.32 644.623 352.96 645.823 352.96C646.996 352.96 647.956 353.32 648.703 354.04C649.476 354.733 649.863 355.613 649.863 356.68C649.863 357.72 649.476 358.6 648.703 359.32C647.956 360.013 646.996 360.36 645.823 360.36ZM649.223 362.68V385H642.383V362.68H649.223ZM675.22 373.48C675.22 374.12 675.18 374.787 675.1 375.48H659.62C659.727 376.867 660.167 377.933 660.94 378.68C661.74 379.4 662.713 379.76 663.86 379.76C665.567 379.76 666.753 379.04 667.42 377.6H674.7C674.326 379.067 673.646 380.387 672.66 381.56C671.7 382.733 670.486 383.653 669.02 384.32C667.553 384.987 665.913 385.32 664.1 385.32C661.913 385.32 659.967 384.853 658.26 383.92C656.553 382.987 655.22 381.653 654.26 379.92C653.3 378.187 652.82 376.16 652.82 373.84C652.82 371.52 653.287 369.493 654.22 367.76C655.18 366.027 656.513 364.693 658.22 363.76C659.927 362.827 661.887 362.36 664.1 362.36C666.26 362.36 668.18 362.813 669.86 363.72C671.54 364.627 672.846 365.92 673.78 367.6C674.74 369.28 675.22 371.24 675.22 373.48ZM668.22 371.68C668.22 370.507 667.82 369.573 667.02 368.88C666.22 368.187 665.22 367.84 664.02 367.84C662.873 367.84 661.9 368.173 661.1 368.84C660.327 369.507 659.847 370.453 659.66 371.68H668.22ZM707.308 362.44C710.081 362.44 712.281 363.28 713.908 364.96C715.561 366.64 716.388 368.973 716.388 371.96V385H709.588V372.88C709.588 371.44 709.201 370.333 708.428 369.56C707.681 368.76 706.641 368.36 705.308 368.36C703.975 368.36 702.921 368.76 702.148 369.56C701.401 370.333 701.028 371.44 701.028 372.88V385H694.228V372.88C694.228 371.44 693.841 370.333 693.068 369.56C692.321 368.76 691.281 368.36 689.948 368.36C688.615 368.36 687.561 368.76 686.788 369.56C686.042 370.333 685.668 371.44 685.668 372.88V385H678.828V362.68H685.668V365.48C686.362 364.547 687.268 363.813 688.388 363.28C689.508 362.72 690.775 362.44 692.188 362.44C693.868 362.44 695.361 362.8 696.668 363.52C698.001 364.24 699.041 365.267 699.788 366.6C700.561 365.373 701.615 364.373 702.948 363.6C704.281 362.827 705.735 362.44 707.308 362.44ZM728.012 365.84C728.678 364.8 729.598 363.96 730.772 363.32C731.945 362.68 733.318 362.36 734.892 362.36C736.732 362.36 738.398 362.827 739.892 363.76C741.385 364.693 742.558 366.027 743.412 367.76C744.292 369.493 744.732 371.507 744.732 373.8C744.732 376.093 744.292 378.12 743.412 379.88C742.558 381.613 741.385 382.96 739.892 383.92C738.398 384.853 736.732 385.32 734.892 385.32C733.345 385.32 731.972 385 730.772 384.36C729.598 383.72 728.678 382.893 728.012 381.88V395.64H721.172V362.68H728.012V365.84ZM737.772 373.8C737.772 372.093 737.292 370.76 736.332 369.8C735.398 368.813 734.238 368.32 732.852 368.32C731.492 368.32 730.332 368.813 729.372 369.8C728.438 370.787 727.972 372.133 727.972 373.84C727.972 375.547 728.438 376.893 729.372 377.88C730.332 378.867 731.492 379.36 732.852 379.36C734.212 379.36 735.372 378.867 736.332 377.88C737.292 376.867 737.772 375.507 737.772 373.8ZM755.16 366.4C755.96 365.173 756.96 364.213 758.16 363.52C759.36 362.8 760.693 362.44 762.16 362.44V369.68H760.28C758.573 369.68 757.293 370.053 756.44 370.8C755.587 371.52 755.16 372.8 755.16 374.64V385H748.32V362.68H755.16V366.4ZM786.469 373.48C786.469 374.12 786.429 374.787 786.349 375.48H770.869C770.976 376.867 771.416 377.933 772.189 378.68C772.989 379.4 773.963 379.76 775.109 379.76C776.816 379.76 778.003 379.04 778.669 377.6H785.949C785.576 379.067 784.896 380.387 783.909 381.56C782.949 382.733 781.736 383.653 780.269 384.32C778.803 384.987 777.163 385.32 775.349 385.32C773.163 385.32 771.216 384.853 769.509 383.92C767.803 382.987 766.469 381.653 765.509 379.92C764.549 378.187 764.069 376.16 764.069 373.84C764.069 371.52 764.536 369.493 765.469 367.76C766.429 366.027 767.763 364.693 769.469 363.76C771.176 362.827 773.136 362.36 775.349 362.36C777.509 362.36 779.429 362.813 781.109 363.72C782.789 364.627 784.096 365.92 785.029 367.6C785.989 369.28 786.469 371.24 786.469 373.48ZM779.469 371.68C779.469 370.507 779.069 369.573 778.269 368.88C777.469 368.187 776.469 367.84 775.269 367.84C774.123 367.84 773.149 368.173 772.349 368.84C771.576 369.507 771.096 370.453 770.909 371.68H779.469Z" fill="#434343"/>
<circle cx="460" cy="76" r="5" fill="#FF0000"/>
<circle cx="460" cy="89" r="5" fill="#FF0000"/>
<circle cx="460" cy="102" r="5" fill="#FF0000"/>
<circle cx="460" cy="115" r="5" fill="#FF0000"/>
<circle cx="447" cy="89" r="5" fill="#FF0000"/>
<circle cx="447" cy="102" r="5" fill="#FF0000"/>
<circle cx="486" cy="76" r="5" fill="#FF0000"/>
<circle cx="486" cy="89" r="5" fill="#FF0000"/>
<circle cx="486" cy="102" r="5" fill="#FF0000"/>
<circle cx="486" cy="115" r="5" fill="#FF0000"/>
<circle cx="473" cy="89" r="5" fill="#FF0000"/>
<circle cx="473" cy="102" r="5" fill="#FF0000"/>
<circle cx="473" cy="115" r="5" fill="#FF0000"/>
<circle cx="473" cy="128" r="5" fill="#FF0000"/>
<circle cx="499" cy="89" r="5" fill="#FF0000"/>
<circle cx="499" cy="102" r="5" fill="#FF0000"/>
<circle cx="862" cy="521" r="5" fill="#FF0000"/>
<circle cx="862" cy="560" r="5" fill="#FF0000"/>
<circle cx="849" cy="534" r="5" fill="#FF0000"/>
<circle cx="849" cy="547" r="5" fill="#FF0000"/>
<circle cx="888" cy="521" r="5" fill="#FF0000"/>
<circle cx="888" cy="560" r="5" fill="#FF0000"/>
<circle cx="875" cy="534" r="5" fill="#FF0000"/>
<circle cx="875" cy="573" r="5" fill="#FF0000"/>
<circle cx="901" cy="534" r="5" fill="#FF0000"/>
<circle cx="901" cy="547" r="5" fill="#FF0000"/>
</g>
<defs>
<clipPath id="clip0_70_97">
<rect width="1280" height="720" fill="white"/>
</clipPath>
</defs>
</svg>
