<svg width="1280" height="720" viewBox="0 0 1280 720" fill="none" xmlns="http://www.w3.org/2000/svg">
<g clip-path="url(#clip0_107_26)">
<rect width="1280" height="720" fill="#ECFAFF"/>
<path d="M-1 0H1279V719.999H-1V0Z" fill="#ECFAFF"/>
<path d="M371.045 385L365.205 374.4H363.565V385H356.725V356.92H368.205C370.418 356.92 372.298 357.307 373.845 358.08C375.418 358.853 376.591 359.92 377.365 361.28C378.138 362.613 378.525 364.107 378.525 365.76C378.525 367.627 377.991 369.293 376.925 370.76C375.885 372.227 374.338 373.267 372.285 373.88L378.765 385H371.045ZM363.565 369.56H367.805C369.058 369.56 369.991 369.253 370.605 368.64C371.245 368.027 371.565 367.16 371.565 366.04C371.565 364.973 371.245 364.133 370.605 363.52C369.991 362.907 369.058 362.6 367.805 362.6H363.565V369.56ZM403.858 373.48C403.858 374.12 403.818 374.787 403.738 375.48H388.258C388.365 376.867 388.805 377.933 389.578 378.68C390.378 379.4 391.352 379.76 392.498 379.76C394.205 379.76 395.392 379.04 396.058 377.6H403.338C402.965 379.067 402.285 380.387 401.298 381.56C400.338 382.733 399.125 383.653 397.658 384.32C396.192 384.987 394.552 385.32 392.738 385.32C390.552 385.32 388.605 384.853 386.898 383.92C385.192 382.987 383.858 381.653 382.898 379.92C381.938 378.187 381.458 376.16 381.458 373.84C381.458 371.52 381.925 369.493 382.858 367.76C383.818 366.027 385.152 364.693 386.858 363.76C388.565 362.827 390.525 362.36 392.738 362.36C394.898 362.36 396.818 362.813 398.498 363.72C400.178 364.627 401.485 365.92 402.418 367.6C403.378 369.28 403.858 371.24 403.858 373.48ZM396.858 371.68C396.858 370.507 396.458 369.573 395.658 368.88C394.858 368.187 393.858 367.84 392.658 367.84C391.512 367.84 390.538 368.173 389.738 368.84C388.965 369.507 388.485 370.453 388.298 371.68H396.858ZM414.307 365.84C414.973 364.8 415.893 363.96 417.067 363.32C418.24 362.68 419.613 362.36 421.187 362.36C423.027 362.36 424.693 362.827 426.187 363.76C427.68 364.693 428.853 366.027 429.707 367.76C430.587 369.493 431.027 371.507 431.027 373.8C431.027 376.093 430.587 378.12 429.707 379.88C428.853 381.613 427.68 382.96 426.187 383.92C424.693 384.853 423.027 385.32 421.187 385.32C419.64 385.32 418.267 385 417.067 384.36C415.893 383.72 414.973 382.893 414.307 381.88V395.64H407.467V362.68H414.307V365.84ZM424.067 373.8C424.067 372.093 423.587 370.76 422.627 369.8C421.693 368.813 420.533 368.32 419.147 368.32C417.787 368.32 416.627 368.813 415.667 369.8C414.733 370.787 414.267 372.133 414.267 373.84C414.267 375.547 414.733 376.893 415.667 377.88C416.627 378.867 417.787 379.36 419.147 379.36C420.507 379.36 421.667 378.867 422.627 377.88C423.587 376.867 424.067 375.507 424.067 373.8ZM455.655 373.48C455.655 374.12 455.615 374.787 455.535 375.48H440.055C440.162 376.867 440.602 377.933 441.375 378.68C442.175 379.4 443.148 379.76 444.295 379.76C446.002 379.76 447.188 379.04 447.855 377.6H455.135C454.762 379.067 454.082 380.387 453.095 381.56C452.135 382.733 450.922 383.653 449.455 384.32C447.988 384.987 446.348 385.32 444.535 385.32C442.348 385.32 440.402 384.853 438.695 383.92C436.988 382.987 435.655 381.653 434.695 379.92C433.735 378.187 433.255 376.16 433.255 373.84C433.255 371.52 433.722 369.493 434.655 367.76C435.615 366.027 436.948 364.693 438.655 363.76C440.362 362.827 442.322 362.36 444.535 362.36C446.695 362.36 448.615 362.813 450.295 363.72C451.975 364.627 453.282 365.92 454.215 367.6C455.175 369.28 455.655 371.24 455.655 373.48ZM448.655 371.68C448.655 370.507 448.255 369.573 447.455 368.88C446.655 368.187 445.655 367.84 444.455 367.84C443.308 367.84 442.335 368.173 441.535 368.84C440.762 369.507 440.282 370.453 440.095 371.68H448.655ZM471.703 379.2V385H468.223C465.743 385 463.81 384.4 462.423 383.2C461.037 381.973 460.343 379.987 460.343 377.24V368.36H457.623V362.68H460.343V357.24H467.183V362.68H471.663V368.36H467.183V377.32C467.183 377.987 467.343 378.467 467.663 378.76C467.983 379.053 468.517 379.2 469.263 379.2H471.703ZM478.953 360.36C477.753 360.36 476.767 360.013 475.993 359.32C475.247 358.6 474.873 357.72 474.873 356.68C474.873 355.613 475.247 354.733 475.993 354.04C476.767 353.32 477.753 352.96 478.953 352.96C480.127 352.96 481.087 353.32 481.833 354.04C482.607 354.733 482.993 355.613 482.993 356.68C482.993 357.72 482.607 358.6 481.833 359.32C481.087 360.013 480.127 360.36 478.953 360.36ZM482.353 362.68V385H475.513V362.68H482.353ZM494.15 366.4C494.95 365.173 495.95 364.213 497.15 363.52C498.35 362.8 499.683 362.44 501.15 362.44V369.68H499.27C497.563 369.68 496.283 370.053 495.43 370.8C494.577 371.52 494.15 372.8 494.15 374.64V385H487.31V362.68H494.15V366.4Z" fill="#434343"/>
<path d="M298.888 409.84C299.554 408.8 300.474 407.96 301.648 407.32C302.821 406.68 304.194 406.36 305.768 406.36C307.608 406.36 309.274 406.827 310.768 407.76C312.261 408.693 313.434 410.027 314.288 411.76C315.168 413.493 315.608 415.507 315.608 417.8C315.608 420.093 315.168 422.12 314.288 423.88C313.434 425.613 312.261 426.96 310.768 427.92C309.274 428.853 307.608 429.32 305.768 429.32C304.221 429.32 302.848 429 301.648 428.36C300.474 427.72 299.554 426.893 298.888 425.88V439.64H292.048V406.68H298.888V409.84ZM308.648 417.8C308.648 416.093 308.168 414.76 307.208 413.8C306.274 412.813 305.114 412.32 303.728 412.32C302.368 412.32 301.208 412.813 300.248 413.8C299.314 414.787 298.848 416.133 298.848 417.84C298.848 419.547 299.314 420.893 300.248 421.88C301.208 422.867 302.368 423.36 303.728 423.36C305.088 423.36 306.248 422.867 307.208 421.88C308.168 420.867 308.648 419.507 308.648 417.8ZM317.836 417.8C317.836 415.507 318.263 413.493 319.116 411.76C319.996 410.027 321.183 408.693 322.676 407.76C324.169 406.827 325.836 406.36 327.676 406.36C329.249 406.36 330.623 406.68 331.796 407.32C332.996 407.96 333.916 408.8 334.556 409.84V406.68H341.396V429H334.556V425.84C333.889 426.88 332.956 427.72 331.756 428.36C330.583 429 329.209 429.32 327.636 429.32C325.823 429.32 324.169 428.853 322.676 427.92C321.183 426.96 319.996 425.613 319.116 423.88C318.263 422.12 317.836 420.093 317.836 417.8ZM334.556 417.84C334.556 416.133 334.076 414.787 333.116 413.8C332.183 412.813 331.036 412.32 329.676 412.32C328.316 412.32 327.156 412.813 326.196 413.8C325.263 414.76 324.796 416.093 324.796 417.8C324.796 419.507 325.263 420.867 326.196 421.88C327.156 422.867 328.316 423.36 329.676 423.36C331.036 423.36 332.183 422.867 333.116 421.88C334.076 420.893 334.556 419.547 334.556 417.84ZM353.184 410.4C353.984 409.173 354.984 408.213 356.184 407.52C357.384 406.8 358.718 406.44 360.184 406.44V413.68H358.304C356.598 413.68 355.318 414.053 354.464 414.8C353.611 415.52 353.184 416.8 353.184 418.64V429H346.344V406.68H353.184V410.4ZM362.094 417.8C362.094 415.507 362.52 413.493 363.374 411.76C364.254 410.027 365.44 408.693 366.934 407.76C368.427 406.827 370.094 406.36 371.934 406.36C373.507 406.36 374.88 406.68 376.054 407.32C377.254 407.96 378.174 408.8 378.814 409.84V406.68H385.654V429H378.814V425.84C378.147 426.88 377.214 427.72 376.014 428.36C374.84 429 373.467 429.32 371.894 429.32C370.08 429.32 368.427 428.853 366.934 427.92C365.44 426.96 364.254 425.613 363.374 423.88C362.52 422.12 362.094 420.093 362.094 417.8ZM378.814 417.84C378.814 416.133 378.334 414.787 377.374 413.8C376.44 412.813 375.294 412.32 373.934 412.32C372.574 412.32 371.414 412.813 370.454 413.8C369.52 414.76 369.054 416.093 369.054 417.8C369.054 419.507 369.52 420.867 370.454 421.88C371.414 422.867 372.574 423.36 373.934 423.36C375.294 423.36 376.44 422.867 377.374 421.88C378.334 420.893 378.814 419.547 378.814 417.84ZM408.158 429.32C406.212 429.32 404.478 428.987 402.958 428.32C401.438 427.653 400.238 426.747 399.358 425.6C398.479 424.427 397.985 423.12 397.879 421.68H404.638C404.718 422.453 405.078 423.08 405.718 423.56C406.358 424.04 407.145 424.28 408.078 424.28C408.932 424.28 409.585 424.12 410.038 423.8C410.518 423.453 410.758 423.013 410.758 422.48C410.758 421.84 410.425 421.373 409.758 421.08C409.092 420.76 408.012 420.413 406.518 420.04C404.918 419.667 403.585 419.28 402.518 418.88C401.452 418.453 400.532 417.8 399.758 416.92C398.985 416.013 398.599 414.8 398.599 413.28C398.599 412 398.945 410.84 399.638 409.8C400.358 408.733 401.398 407.893 402.758 407.28C404.145 406.667 405.785 406.36 407.678 406.36C410.478 406.36 412.678 407.053 414.278 408.44C415.905 409.827 416.838 411.667 417.078 413.96H410.758C410.652 413.187 410.305 412.573 409.718 412.12C409.158 411.667 408.412 411.44 407.478 411.44C406.678 411.44 406.065 411.6 405.638 411.92C405.212 412.213 404.998 412.627 404.998 413.16C404.998 413.8 405.332 414.28 405.998 414.6C406.692 414.92 407.758 415.24 409.198 415.56C410.852 415.987 412.198 416.413 413.238 416.84C414.278 417.24 415.185 417.907 415.958 418.84C416.758 419.747 417.172 420.973 417.198 422.52C417.198 423.827 416.825 425 416.078 426.04C415.358 427.053 414.305 427.853 412.918 428.44C411.558 429.027 409.972 429.32 408.158 429.32ZM424.823 404.36C423.623 404.36 422.636 404.013 421.863 403.32C421.116 402.6 420.743 401.72 420.743 400.68C420.743 399.613 421.116 398.733 421.863 398.04C422.636 397.32 423.623 396.96 424.823 396.96C425.996 396.96 426.956 397.32 427.703 398.04C428.476 398.733 428.863 399.613 428.863 400.68C428.863 401.72 428.476 402.6 427.703 403.32C426.956 404.013 425.996 404.36 424.823 404.36ZM428.223 406.68V429H421.383V406.68H428.223ZM454.22 417.48C454.22 418.12 454.18 418.787 454.1 419.48H438.62C438.727 420.867 439.167 421.933 439.94 422.68C440.74 423.4 441.713 423.76 442.86 423.76C444.567 423.76 445.753 423.04 446.42 421.6H453.7C453.326 423.067 452.646 424.387 451.66 425.56C450.7 426.733 449.486 427.653 448.02 428.32C446.553 428.987 444.913 429.32 443.1 429.32C440.913 429.32 438.967 428.853 437.26 427.92C435.553 426.987 434.22 425.653 433.26 423.92C432.3 422.187 431.82 420.16 431.82 417.84C431.82 415.52 432.287 413.493 433.22 411.76C434.18 410.027 435.513 408.693 437.22 407.76C438.927 406.827 440.887 406.36 443.1 406.36C445.26 406.36 447.18 406.813 448.86 407.72C450.54 408.627 451.846 409.92 452.78 411.6C453.74 413.28 454.22 415.24 454.22 417.48ZM447.22 415.68C447.22 414.507 446.82 413.573 446.02 412.88C445.22 412.187 444.22 411.84 443.02 411.84C441.873 411.84 440.9 412.173 440.1 412.84C439.327 413.507 438.847 414.453 438.66 415.68H447.22ZM486.308 406.44C489.081 406.44 491.281 407.28 492.908 408.96C494.561 410.64 495.388 412.973 495.388 415.96V429H488.588V416.88C488.588 415.44 488.201 414.333 487.428 413.56C486.681 412.76 485.641 412.36 484.308 412.36C482.975 412.36 481.921 412.76 481.148 413.56C480.401 414.333 480.028 415.44 480.028 416.88V429H473.228V416.88C473.228 415.44 472.841 414.333 472.068 413.56C471.321 412.76 470.281 412.36 468.948 412.36C467.615 412.36 466.561 412.76 465.788 413.56C465.042 414.333 464.668 415.44 464.668 416.88V429H457.828V406.68H464.668V409.48C465.362 408.547 466.268 407.813 467.388 407.28C468.508 406.72 469.775 406.44 471.188 406.44C472.868 406.44 474.361 406.8 475.668 407.52C477.001 408.24 478.041 409.267 478.788 410.6C479.561 409.373 480.615 408.373 481.948 407.6C483.281 406.827 484.735 406.44 486.308 406.44ZM507.012 409.84C507.678 408.8 508.598 407.96 509.772 407.32C510.945 406.68 512.318 406.36 513.892 406.36C515.732 406.36 517.398 406.827 518.892 407.76C520.385 408.693 521.558 410.027 522.412 411.76C523.292 413.493 523.732 415.507 523.732 417.8C523.732 420.093 523.292 422.12 522.412 423.88C521.558 425.613 520.385 426.96 518.892 427.92C517.398 428.853 515.732 429.32 513.892 429.32C512.345 429.32 510.972 429 509.772 428.36C508.598 427.72 507.678 426.893 507.012 425.88V439.64H500.172V406.68H507.012V409.84ZM516.772 417.8C516.772 416.093 516.292 414.76 515.332 413.8C514.398 412.813 513.238 412.32 511.852 412.32C510.492 412.32 509.332 412.813 508.372 413.8C507.438 414.787 506.972 416.133 506.972 417.84C506.972 419.547 507.438 420.893 508.372 421.88C509.332 422.867 510.492 423.36 511.852 423.36C513.212 423.36 514.372 422.867 515.332 421.88C516.292 420.867 516.772 419.507 516.772 417.8ZM534.16 410.4C534.96 409.173 535.96 408.213 537.16 407.52C538.36 406.8 539.693 406.44 541.16 406.44V413.68H539.28C537.573 413.68 536.293 414.053 535.44 414.8C534.587 415.52 534.16 416.8 534.16 418.64V429H527.32V406.68H534.16V410.4ZM565.469 417.48C565.469 418.12 565.429 418.787 565.349 419.48H549.869C549.976 420.867 550.416 421.933 551.189 422.68C551.989 423.4 552.963 423.76 554.109 423.76C555.816 423.76 557.003 423.04 557.669 421.6H564.949C564.576 423.067 563.896 424.387 562.909 425.56C561.949 426.733 560.736 427.653 559.269 428.32C557.803 428.987 556.163 429.32 554.349 429.32C552.163 429.32 550.216 428.853 548.509 427.92C546.803 426.987 545.469 425.653 544.509 423.92C543.549 422.187 543.069 420.16 543.069 417.84C543.069 415.52 543.536 413.493 544.469 411.76C545.429 410.027 546.763 408.693 548.469 407.76C550.176 406.827 552.136 406.36 554.349 406.36C556.509 406.36 558.429 406.813 560.109 407.72C561.789 408.627 563.096 409.92 564.029 411.6C564.989 413.28 565.469 415.24 565.469 417.48ZM558.469 415.68C558.469 414.507 558.069 413.573 557.269 412.88C556.469 412.187 555.469 411.84 554.269 411.84C553.123 411.84 552.149 412.173 551.349 412.84C550.576 413.507 550.096 414.453 549.909 415.68H558.469Z" fill="#434343"/>
<path d="M775.813 373.607C775.813 225.309 655.594 105.091 507.297 105.091C359 105.091 238.781 225.309 238.781 373.607C238.781 521.904 359 642.123 507.297 642.123C655.594 642.123 775.813 521.904 775.813 373.607Z" stroke="#434343" stroke-width="15.1152"/>
<path d="M464 618.491C464 657.433 432.21 689 392.997 689C353.783 689 322 657.433 322 618.491C322 579.572 353.783 548 392.997 548C432.21 548 464 579.568 464 618.491Z" fill="#434343"/>
<path d="M186.201 318.149L173.66 271.314L143.721 309.449L186.201 318.149Z" fill="#434343"/>
<path d="M203.62 557.234L216.398 548.748C173.509 482.121 155.588 399.313 172.598 315.059L157.434 311.998C139.602 400.323 158.512 487.272 203.62 557.234Z" fill="#434343"/>
<path d="M321.937 222.284C344.546 222.284 362.875 203.64 362.875 180.642C362.875 157.644 344.546 139 321.937 139C299.328 139 281 157.644 281 180.642C281 203.64 299.328 222.284 321.937 222.284Z" fill="#ECFAFF" stroke="#1E5C93" stroke-width="3.71856"/>
<path d="M339.752 207.326H304.107C303.852 207.326 303.606 207.237 303.411 207.074C303.215 206.911 303.084 206.685 303.038 206.434C301.974 200.577 306.642 192.366 317.719 180.638C306.642 168.91 301.974 160.7 303.038 154.843C303.084 154.592 303.216 154.366 303.411 154.203C303.606 154.04 303.852 153.951 304.107 153.951H339.752C340.006 153.95 340.253 154.04 340.448 154.203C340.643 154.366 340.775 154.592 340.82 154.843C341.885 160.7 337.217 168.912 326.14 180.639C337.217 192.366 341.885 200.578 340.82 206.436C340.775 206.686 340.643 206.912 340.448 207.075C340.252 207.238 340.006 207.328 339.752 207.328V207.326ZM305.072 205.155H338.788C339.065 199.968 334.167 192.175 323.858 181.388C323.665 181.186 323.558 180.918 323.558 180.638C323.558 180.359 323.665 180.091 323.858 179.889C334.165 169.1 339.064 161.308 338.787 156.122H305.072C304.794 161.308 309.693 169.101 320.001 179.889C320.194 180.091 320.302 180.359 320.302 180.638C320.302 180.918 320.194 181.186 320.001 181.388C309.694 192.177 304.796 199.969 305.072 205.155Z" fill="#1E5C93" stroke="#1E5C93" stroke-width="1.36044" stroke-miterlimit="10"/>
<path d="M342.932 207.325H300.927C300.639 207.325 300.363 207.211 300.16 207.008C299.956 206.804 299.842 206.528 299.842 206.24C299.842 205.953 299.956 205.677 300.16 205.473C300.363 205.27 300.639 205.155 300.927 205.155H342.931C343.219 205.155 343.495 205.27 343.699 205.473C343.902 205.677 344.017 205.953 344.017 206.24C344.017 206.528 343.902 206.804 343.699 207.008C343.495 207.211 343.22 207.325 342.932 207.325ZM342.932 156.122H300.927C300.639 156.122 300.363 156.007 300.16 155.804C299.956 155.6 299.842 155.324 299.842 155.037C299.842 154.749 299.956 154.473 300.16 154.269C300.363 154.066 300.639 153.952 300.927 153.952H342.931C343.219 153.952 343.495 154.066 343.699 154.269C343.902 154.473 344.017 154.749 344.017 155.037C344.017 155.324 343.902 155.6 343.699 155.804C343.495 156.007 343.22 156.122 342.932 156.122ZM304.305 203.191C304.112 203.191 303.921 203.139 303.755 203.041C303.588 202.943 303.45 202.803 303.355 202.634C303.286 202.509 303.242 202.372 303.225 202.231C303.209 202.089 303.22 201.946 303.259 201.809C303.298 201.672 303.364 201.543 303.452 201.432C303.54 201.32 303.65 201.227 303.774 201.157C303.808 201.139 307.132 199.288 310.998 197.451C316.286 194.937 320.049 193.638 322.186 193.588L322.457 193.585C328.955 193.585 339.006 198.852 339.435 199.079C339.561 199.145 339.673 199.236 339.764 199.346C339.855 199.455 339.924 199.582 339.966 199.718C340.008 199.854 340.022 199.998 340.009 200.14C339.996 200.281 339.954 200.419 339.888 200.545C339.753 200.8 339.523 200.991 339.248 201.076C338.973 201.161 338.676 201.133 338.421 200.999C338.319 200.945 328.159 195.607 322.235 195.758C318.535 195.845 308.417 201.053 304.832 203.053C304.671 203.144 304.489 203.191 304.304 203.191L304.305 203.191ZM322.773 171.781C317.898 171.781 308.788 169.252 308.403 169.144C308.265 169.106 308.137 169.041 308.025 168.953C307.913 168.865 307.819 168.756 307.749 168.632C307.679 168.507 307.634 168.371 307.617 168.229C307.6 168.088 307.611 167.944 307.649 167.807C307.687 167.669 307.752 167.541 307.84 167.429C307.928 167.317 308.037 167.223 308.161 167.153C308.286 167.083 308.422 167.038 308.564 167.021C308.705 167.004 308.849 167.015 308.986 167.053C309.077 167.078 318.194 169.61 322.772 169.61C327.35 169.61 333.542 169.066 333.602 169.061C333.888 169.036 334.172 169.126 334.393 169.31C334.614 169.494 334.753 169.758 334.78 170.044C334.806 170.331 334.717 170.616 334.532 170.837C334.348 171.058 334.084 171.197 333.797 171.223C333.736 171.229 327.549 171.781 322.773 171.781V171.781ZM321.929 186.047C321.709 186.047 321.494 185.98 321.313 185.855C321.131 185.73 320.992 185.552 320.914 185.346C320.907 185.327 320.107 183.267 318.403 181.362C318.211 181.148 318.112 180.866 318.128 180.579C318.143 180.291 318.273 180.022 318.487 179.83C318.701 179.638 318.983 179.539 319.271 179.554C319.558 179.57 319.827 179.699 320.02 179.914C322.006 182.132 322.908 184.478 322.945 184.577C323.007 184.741 323.029 184.918 323.007 185.093C322.986 185.267 322.923 185.434 322.823 185.579C322.723 185.723 322.59 185.842 322.434 185.923C322.278 186.005 322.105 186.048 321.929 186.048V186.047Z" fill="#1E5C93" stroke="#1E5C93" stroke-width="1.36044" stroke-miterlimit="10"/>
<path d="M321.931 186.048C321.799 186.048 321.669 186.024 321.546 185.977C321.277 185.875 321.06 185.67 320.941 185.408C320.823 185.145 320.814 184.847 320.915 184.577C320.952 184.479 321.854 182.132 323.84 179.914C323.936 179.808 324.051 179.721 324.179 179.66C324.308 179.598 324.447 179.562 324.589 179.554C324.732 179.547 324.874 179.567 325.009 179.614C325.143 179.661 325.267 179.735 325.373 179.83C325.479 179.925 325.566 180.04 325.627 180.169C325.689 180.297 325.725 180.436 325.733 180.579C325.74 180.721 325.72 180.864 325.673 180.998C325.626 181.133 325.552 181.256 325.457 181.363C323.738 183.282 322.953 185.326 322.946 185.347C322.868 185.553 322.729 185.73 322.548 185.855C322.366 185.981 322.151 186.048 321.931 186.048V186.048ZM322.213 190.537C322.07 190.537 321.929 190.509 321.798 190.454C321.666 190.4 321.546 190.32 321.446 190.219C321.345 190.118 321.265 189.999 321.21 189.867C321.156 189.735 321.128 189.594 321.128 189.452V189.383C321.128 189.096 321.242 188.82 321.446 188.616C321.649 188.413 321.925 188.298 322.213 188.298C322.501 188.298 322.777 188.413 322.98 188.616C323.184 188.82 323.298 189.096 323.298 189.383V189.452C323.298 189.594 323.27 189.735 323.215 189.867C323.161 189.999 323.081 190.118 322.98 190.219C322.879 190.32 322.76 190.4 322.628 190.454C322.496 190.509 322.355 190.537 322.213 190.537Z" fill="#1E5C93" stroke="#1E5C93" stroke-width="1.36044" stroke-miterlimit="10"/>
<path d="M744.501 96H744.497C648.677 96 571 173.454 571 268.998V269.002C571 364.546 648.677 442 744.497 442H744.501C840.321 442 918 364.546 918 269.002V268.998C918 173.454 840.321 96 744.501 96Z" fill="#ECFAFF" fill-opacity="0.5"/>
<path fill-rule="evenodd" clip-rule="evenodd" d="M1003 191.816C1003 175.902 1015.76 163 1031.5 163C1047.24 163 1060 175.902 1060 191.817C1060 207.733 1047.24 220.634 1031.5 220.634C1015.76 220.634 1003 207.731 1003 191.816Z" fill="#1C5D93"/>
<path d="M1018.58 198.654V195.935L1032.41 176.78H1036.71V195.541H1040.65V198.654H1036.71V205H1033.16V198.654H1018.58ZM1033.32 180.524L1022.72 195.541H1033.32V180.524Z" fill="#ECFAFF"/>
<path d="M1019.8 144L1013.96 133.4H1012.32V144H1005.48V115.92H1016.96C1019.17 115.92 1021.05 116.307 1022.6 117.08C1024.17 117.854 1025.35 118.92 1026.12 120.28C1026.89 121.614 1027.28 123.107 1027.28 124.76C1027.28 126.627 1026.75 128.294 1025.68 129.76C1024.64 131.227 1023.09 132.267 1021.04 132.88L1027.52 144H1019.8ZM1012.32 128.56H1016.56C1017.81 128.56 1018.75 128.254 1019.36 127.64C1020 127.027 1020.32 126.16 1020.32 125.04C1020.32 123.974 1020 123.134 1019.36 122.52C1018.75 121.907 1017.81 121.6 1016.56 121.6H1012.32V128.56ZM1052.61 132.48C1052.61 133.12 1052.57 133.787 1052.49 134.48H1037.01C1037.12 135.867 1037.56 136.933 1038.33 137.68C1039.13 138.4 1040.11 138.76 1041.25 138.76C1042.96 138.76 1044.15 138.04 1044.81 136.6H1052.09C1051.72 138.067 1051.04 139.387 1050.05 140.56C1049.09 141.733 1047.88 142.653 1046.41 143.32C1044.95 143.987 1043.31 144.32 1041.49 144.32C1039.31 144.32 1037.36 143.853 1035.65 142.92C1033.95 141.987 1032.61 140.653 1031.65 138.92C1030.69 137.187 1030.21 135.16 1030.21 132.84C1030.21 130.52 1030.68 128.494 1031.61 126.76C1032.57 125.027 1033.91 123.694 1035.61 122.76C1037.32 121.827 1039.28 121.36 1041.49 121.36C1043.65 121.36 1045.57 121.814 1047.25 122.72C1048.93 123.627 1050.24 124.92 1051.17 126.6C1052.13 128.28 1052.61 130.24 1052.61 132.48ZM1045.61 130.68C1045.61 129.507 1045.21 128.574 1044.41 127.88C1043.61 127.187 1042.61 126.84 1041.41 126.84C1040.27 126.84 1039.29 127.174 1038.49 127.84C1037.72 128.507 1037.24 129.454 1037.05 130.68H1045.61ZM1063.06 124.84C1063.73 123.8 1064.65 122.96 1065.82 122.32C1067 121.68 1068.37 121.36 1069.94 121.36C1071.78 121.36 1073.45 121.827 1074.94 122.76C1076.44 123.694 1077.61 125.027 1078.46 126.76C1079.34 128.494 1079.78 130.507 1079.78 132.8C1079.78 135.094 1079.34 137.12 1078.46 138.88C1077.61 140.613 1076.44 141.96 1074.94 142.92C1073.45 143.853 1071.78 144.32 1069.94 144.32C1068.4 144.32 1067.02 144 1065.82 143.36C1064.65 142.72 1063.73 141.893 1063.06 140.88V154.64H1056.22V121.68H1063.06V124.84ZM1072.82 132.8C1072.82 131.094 1072.34 129.76 1071.38 128.8C1070.45 127.814 1069.29 127.32 1067.9 127.32C1066.54 127.32 1065.38 127.814 1064.42 128.8C1063.49 129.787 1063.02 131.134 1063.02 132.84C1063.02 134.547 1063.49 135.893 1064.42 136.88C1065.38 137.867 1066.54 138.36 1067.9 138.36C1069.26 138.36 1070.42 137.867 1071.38 136.88C1072.34 135.867 1072.82 134.507 1072.82 132.8ZM1104.41 132.48C1104.41 133.12 1104.37 133.787 1104.29 134.48H1088.81C1088.92 135.867 1089.36 136.933 1090.13 137.68C1090.93 138.4 1091.9 138.76 1093.05 138.76C1094.76 138.76 1095.94 138.04 1096.61 136.6H1103.89C1103.52 138.067 1102.84 139.387 1101.85 140.56C1100.89 141.733 1099.68 142.653 1098.21 143.32C1096.74 143.987 1095.1 144.32 1093.29 144.32C1091.1 144.32 1089.16 143.853 1087.45 142.92C1085.74 141.987 1084.41 140.653 1083.45 138.92C1082.49 137.187 1082.01 135.16 1082.01 132.84C1082.01 130.52 1082.48 128.494 1083.41 126.76C1084.37 125.027 1085.7 123.694 1087.41 122.76C1089.12 121.827 1091.08 121.36 1093.29 121.36C1095.45 121.36 1097.37 121.814 1099.05 122.72C1100.73 123.627 1102.04 124.92 1102.97 126.6C1103.93 128.28 1104.41 130.24 1104.41 132.48ZM1097.41 130.68C1097.41 129.507 1097.01 128.574 1096.21 127.88C1095.41 127.187 1094.41 126.84 1093.21 126.84C1092.06 126.84 1091.09 127.174 1090.29 127.84C1089.52 128.507 1089.04 129.454 1088.85 130.68H1097.41ZM1120.46 138.2V144H1116.98C1114.5 144 1112.57 143.4 1111.18 142.2C1109.79 140.973 1109.1 138.987 1109.1 136.24V127.36H1106.38V121.68H1109.1V116.24H1115.94V121.68H1120.42V127.36H1115.94V136.32C1115.94 136.987 1116.1 137.467 1116.42 137.76C1116.74 138.053 1117.27 138.2 1118.02 138.2H1120.46ZM1127.71 119.36C1126.51 119.36 1125.52 119.014 1124.75 118.32C1124 117.6 1123.63 116.72 1123.63 115.68C1123.63 114.614 1124 113.734 1124.75 113.04C1125.52 112.32 1126.51 111.96 1127.71 111.96C1128.88 111.96 1129.84 112.32 1130.59 113.04C1131.36 113.734 1131.75 114.614 1131.75 115.68C1131.75 116.72 1131.36 117.6 1130.59 118.32C1129.84 119.014 1128.88 119.36 1127.71 119.36ZM1131.11 121.68V144H1124.27V121.68H1131.11ZM1142.91 125.4C1143.71 124.174 1144.71 123.214 1145.91 122.52C1147.11 121.8 1148.44 121.44 1149.91 121.44V128.68H1148.03C1146.32 128.68 1145.04 129.054 1144.19 129.8C1143.33 130.52 1142.91 131.8 1142.91 133.64V144H1136.07V121.68H1142.91V125.4Z" fill="#434343"/>
<path d="M1089.52 197.6L1094.36 181.68H1101.64L1093.72 204H1085.28L1077.36 181.68H1084.68L1089.52 197.6ZM1125.56 192.48C1125.56 193.12 1125.52 193.787 1125.44 194.48H1109.96C1110.07 195.867 1110.51 196.933 1111.28 197.68C1112.08 198.4 1113.05 198.76 1114.2 198.76C1115.91 198.76 1117.09 198.04 1117.76 196.6H1125.04C1124.67 198.067 1123.99 199.387 1123 200.56C1122.04 201.733 1120.83 202.653 1119.36 203.32C1117.89 203.987 1116.25 204.32 1114.44 204.32C1112.25 204.32 1110.31 203.853 1108.6 202.92C1106.89 201.987 1105.56 200.653 1104.6 198.92C1103.64 197.187 1103.16 195.16 1103.16 192.84C1103.16 190.52 1103.63 188.493 1104.56 186.76C1105.52 185.027 1106.85 183.693 1108.56 182.76C1110.27 181.827 1112.23 181.36 1114.44 181.36C1116.6 181.36 1118.52 181.813 1120.2 182.72C1121.88 183.627 1123.19 184.92 1124.12 186.6C1125.08 188.28 1125.56 190.24 1125.56 192.48ZM1118.56 190.68C1118.56 189.507 1118.16 188.573 1117.36 187.88C1116.56 187.187 1115.56 186.84 1114.36 186.84C1113.21 186.84 1112.24 187.173 1111.44 187.84C1110.67 188.507 1110.19 189.453 1110 190.68H1118.56ZM1127.81 192.84C1127.81 190.52 1128.27 188.493 1129.21 186.76C1130.17 185.027 1131.49 183.693 1133.17 182.76C1134.87 181.827 1136.82 181.36 1139.01 181.36C1141.81 181.36 1144.14 182.093 1146.01 183.56C1147.9 185.027 1149.14 187.093 1149.73 189.76H1142.45C1141.83 188.053 1140.65 187.2 1138.89 187.2C1137.63 187.2 1136.63 187.693 1135.89 188.68C1135.14 189.64 1134.77 191.027 1134.77 192.84C1134.77 194.653 1135.14 196.053 1135.89 197.04C1136.63 198 1137.63 198.48 1138.89 198.48C1140.65 198.48 1141.83 197.627 1142.45 195.92H1149.73C1149.14 198.533 1147.9 200.587 1146.01 202.08C1144.11 203.573 1141.78 204.32 1139.01 204.32C1136.82 204.32 1134.87 203.853 1133.17 202.92C1131.49 201.987 1130.17 200.653 1129.21 198.92C1128.27 197.187 1127.81 195.16 1127.81 192.84ZM1174.43 192.48C1174.43 193.12 1174.39 193.787 1174.31 194.48H1158.83C1158.93 195.867 1159.37 196.933 1160.15 197.68C1160.95 198.4 1161.92 198.76 1163.07 198.76C1164.77 198.76 1165.96 198.04 1166.63 196.6H1173.91C1173.53 198.067 1172.85 199.387 1171.87 200.56C1170.91 201.733 1169.69 202.653 1168.23 203.32C1166.76 203.987 1165.12 204.32 1163.31 204.32C1161.12 204.32 1159.17 203.853 1157.47 202.92C1155.76 201.987 1154.43 200.653 1153.47 198.92C1152.51 197.187 1152.03 195.16 1152.03 192.84C1152.03 190.52 1152.49 188.493 1153.43 186.76C1154.39 185.027 1155.72 183.693 1157.43 182.76C1159.13 181.827 1161.09 181.36 1163.31 181.36C1165.47 181.36 1167.39 181.813 1169.07 182.72C1170.75 183.627 1172.05 184.92 1172.99 186.6C1173.95 188.28 1174.43 190.24 1174.43 192.48ZM1167.43 190.68C1167.43 189.507 1167.03 188.573 1166.23 187.88C1165.43 187.187 1164.43 186.84 1163.23 186.84C1162.08 186.84 1161.11 187.173 1160.31 187.84C1159.53 188.507 1159.05 189.453 1158.87 190.68H1167.43ZM1187.11 204.32C1185.17 204.32 1183.43 203.987 1181.91 203.32C1180.39 202.653 1179.19 201.747 1178.31 200.6C1177.43 199.427 1176.94 198.12 1176.83 196.68H1183.59C1183.67 197.453 1184.03 198.08 1184.67 198.56C1185.31 199.04 1186.1 199.28 1187.03 199.28C1187.89 199.28 1188.54 199.12 1188.99 198.8C1189.47 198.453 1189.71 198.013 1189.71 197.48C1189.71 196.84 1189.38 196.373 1188.71 196.08C1188.05 195.76 1186.97 195.413 1185.47 195.04C1183.87 194.667 1182.54 194.28 1181.47 193.88C1180.41 193.453 1179.49 192.8 1178.71 191.92C1177.94 191.013 1177.55 189.8 1177.55 188.28C1177.55 187 1177.9 185.84 1178.59 184.8C1179.31 183.733 1180.35 182.893 1181.71 182.28C1183.1 181.667 1184.74 181.36 1186.63 181.36C1189.43 181.36 1191.63 182.053 1193.23 183.44C1194.86 184.827 1195.79 186.667 1196.03 188.96H1189.71C1189.61 188.187 1189.26 187.573 1188.67 187.12C1188.11 186.667 1187.37 186.44 1186.43 186.44C1185.63 186.44 1185.02 186.6 1184.59 186.92C1184.17 187.213 1183.95 187.627 1183.95 188.16C1183.95 188.8 1184.29 189.28 1184.95 189.6C1185.65 189.92 1186.71 190.24 1188.15 190.56C1189.81 190.987 1191.15 191.413 1192.19 191.84C1193.23 192.24 1194.14 192.907 1194.91 193.84C1195.71 194.747 1196.13 195.973 1196.15 197.52C1196.15 198.827 1195.78 200 1195.03 201.04C1194.31 202.053 1193.26 202.853 1191.87 203.44C1190.51 204.027 1188.93 204.32 1187.11 204.32Z" fill="#434343"/>
<path fill-rule="evenodd" clip-rule="evenodd" d="M609.304 214.74L621.19 190.627C626.159 180.545 638.458 176.889 647.617 181.925L662.574 192.447L666.418 185.482L670.866 202.866L653.759 208.415L657.603 201.449L642.654 190.93C638.422 187.953 632.262 190.368 629.578 195.237L617.686 219.345L609.304 214.74Z" fill="#434343"/>
<path d="M739.898 99.7206H739.893C646.657 99.7206 571.074 175.304 571.074 268.54V268.545C571.074 361.781 646.657 437.364 739.893 437.364H739.898C833.134 437.364 908.717 361.781 908.717 268.545V268.54C908.717 175.304 833.134 99.7206 739.898 99.7206Z" stroke="#434343" stroke-width="15.1152"/>
<path d="M796.922 97.4594C796.922 128.646 771.642 153.924 740.463 153.924C709.274 153.924 683.998 128.652 683.998 97.4594C683.998 66.2831 709.279 41 740.463 41C771.642 41 796.922 66.2831 796.922 97.4594Z" fill="#434343"/>
<path d="M796.922 436.225C796.922 467.417 771.642 492.696 740.463 492.696C709.274 492.696 683.998 467.419 683.998 436.232C683.998 405.055 709.279 379.772 740.463 379.772C771.642 379.772 796.922 405.054 796.922 436.225Z" fill="#434343"/>
<path d="M564.228 324.76C589.759 324.76 610.457 303.707 610.457 277.736C610.457 251.766 589.759 230.712 564.228 230.712C538.697 230.712 518 251.766 518 277.736C518 303.707 538.697 324.76 564.228 324.76Z" fill="#ECFAFF" stroke="#1E5C93" stroke-width="3.71856"/>
<path d="M584.345 307.869H544.093C543.806 307.869 543.528 307.769 543.307 307.584C543.087 307.4 542.938 307.145 542.887 306.862C541.684 300.247 546.956 290.976 559.464 277.731C546.956 264.488 541.684 255.217 542.887 248.602C542.938 248.32 543.087 248.064 543.307 247.88C543.528 247.696 543.806 247.595 544.093 247.595H584.345C584.632 247.595 584.91 247.696 585.131 247.88C585.351 248.064 585.5 248.32 585.551 248.602C586.754 255.217 581.482 264.49 568.974 277.733C581.482 290.976 586.754 300.249 585.551 306.863C585.5 307.146 585.351 307.402 585.131 307.586C584.91 307.77 584.632 307.871 584.345 307.871V307.869ZM545.183 305.417H583.256C583.57 299.56 578.038 290.76 566.397 278.579C566.179 278.351 566.058 278.048 566.058 277.732C566.058 277.417 566.179 277.114 566.397 276.886C578.037 264.703 583.568 255.903 583.255 250.047H545.183C544.869 255.903 550.401 264.704 562.042 276.886C562.26 277.114 562.381 277.417 562.381 277.732C562.381 278.048 562.26 278.351 562.042 278.579C550.403 290.762 544.871 299.561 545.183 305.417Z" fill="#1E5C93" stroke="#1E5C93" stroke-width="1.36044" stroke-miterlimit="10"/>
<path d="M587.936 307.868H540.502C540.177 307.868 539.866 307.739 539.636 307.509C539.406 307.28 539.277 306.968 539.277 306.643C539.277 306.318 539.406 306.006 539.636 305.776C539.866 305.547 540.177 305.418 540.502 305.418H587.936C588.261 305.418 588.572 305.547 588.802 305.776C589.032 306.006 589.161 306.318 589.161 306.643C589.161 306.968 589.032 307.28 588.802 307.509C588.572 307.739 588.261 307.868 587.936 307.868ZM587.936 250.047H540.502C540.177 250.047 539.866 249.918 539.636 249.688C539.406 249.458 539.277 249.146 539.277 248.822C539.277 248.497 539.406 248.185 539.636 247.955C539.866 247.725 540.177 247.596 540.502 247.596H587.936C588.261 247.596 588.572 247.725 588.802 247.955C589.032 248.185 589.161 248.497 589.161 248.822C589.161 249.146 589.032 249.458 588.802 249.688C588.572 249.918 588.261 250.047 587.936 250.047ZM544.317 303.199C544.099 303.199 543.884 303.141 543.695 303.03C543.507 302.92 543.351 302.761 543.245 302.57C543.166 302.43 543.116 302.275 543.098 302.115C543.079 301.955 543.092 301.793 543.136 301.638C543.18 301.484 543.254 301.339 543.354 301.213C543.454 301.086 543.577 300.981 543.718 300.903C543.756 300.882 547.509 298.792 551.875 296.717C557.846 293.879 562.095 292.412 564.509 292.355L564.815 292.351C572.153 292.351 583.502 298.299 583.988 298.555C584.13 298.631 584.256 298.733 584.359 298.857C584.462 298.981 584.539 299.124 584.586 299.278C584.634 299.432 584.65 299.593 584.635 299.754C584.62 299.914 584.574 300.07 584.499 300.212C584.347 300.499 584.087 300.715 583.776 300.811C583.466 300.907 583.13 300.876 582.842 300.724C582.727 300.664 571.254 294.636 564.565 294.806C560.386 294.904 548.961 300.785 544.912 303.044C544.73 303.146 544.524 303.2 544.316 303.2L544.317 303.199ZM565.172 267.73C559.666 267.73 549.379 264.874 548.944 264.752C548.789 264.709 548.644 264.636 548.518 264.536C548.391 264.437 548.285 264.314 548.206 264.173C548.127 264.033 548.076 263.879 548.057 263.719C548.038 263.559 548.05 263.397 548.093 263.242C548.136 263.087 548.21 262.942 548.309 262.815C548.408 262.689 548.532 262.583 548.672 262.504C548.812 262.425 548.967 262.374 549.126 262.355C549.286 262.335 549.448 262.348 549.603 262.391C549.706 262.419 560.001 265.278 565.171 265.278C570.341 265.278 577.332 264.664 577.4 264.659C577.723 264.631 578.045 264.732 578.294 264.94C578.543 265.147 578.7 265.445 578.731 265.769C578.76 266.092 578.659 266.414 578.451 266.664C578.243 266.913 577.944 267.07 577.621 267.1C577.552 267.106 570.565 267.73 565.172 267.73V267.73ZM564.219 283.84C563.97 283.84 563.727 283.764 563.523 283.623C563.318 283.482 563.161 283.281 563.072 283.049C563.064 283.027 562.162 280.701 560.237 278.55C560.02 278.307 559.908 277.989 559.926 277.665C559.944 277.34 560.09 277.036 560.332 276.819C560.574 276.602 560.892 276.49 561.217 276.508C561.541 276.526 561.845 276.672 562.063 276.914C564.306 279.419 565.324 282.068 565.366 282.18C565.436 282.365 565.46 282.565 565.436 282.762C565.412 282.959 565.341 283.148 565.228 283.311C565.115 283.474 564.965 283.608 564.789 283.7C564.613 283.792 564.418 283.84 564.219 283.84V283.84Z" fill="#1E5C93" stroke="#1E5C93" stroke-width="1.36044" stroke-miterlimit="10"/>
<path d="M564.221 283.841C564.072 283.84 563.925 283.813 563.787 283.761C563.483 283.645 563.237 283.414 563.103 283.118C562.97 282.821 562.959 282.484 563.074 282.18C563.116 282.069 564.134 279.419 566.377 276.914C566.485 276.794 566.615 276.696 566.76 276.627C566.905 276.557 567.062 276.517 567.223 276.508C567.384 276.499 567.545 276.522 567.696 276.575C567.848 276.629 567.988 276.712 568.108 276.819C568.228 276.926 568.325 277.056 568.395 277.202C568.465 277.347 568.505 277.504 568.514 277.665C568.523 277.826 568.5 277.986 568.446 278.138C568.393 278.29 568.31 278.43 568.203 278.55C566.262 280.717 565.375 283.026 565.367 283.049C565.279 283.282 565.122 283.482 564.917 283.623C564.713 283.765 564.469 283.84 564.221 283.84V283.841ZM564.539 288.91C564.378 288.91 564.219 288.878 564.07 288.817C563.922 288.755 563.787 288.665 563.673 288.551C563.559 288.437 563.469 288.302 563.407 288.154C563.346 288.005 563.314 287.846 563.314 287.685V287.607C563.314 287.282 563.443 286.971 563.673 286.741C563.903 286.511 564.214 286.382 564.539 286.382C564.864 286.382 565.176 286.511 565.406 286.741C565.635 286.971 565.765 287.282 565.765 287.607V287.685C565.765 287.846 565.733 288.005 565.671 288.154C565.61 288.302 565.519 288.437 565.406 288.551C565.292 288.665 565.157 288.755 565.008 288.817C564.859 288.878 564.7 288.91 564.539 288.91Z" fill="#1E5C93" stroke="#1E5C93" stroke-width="1.36044" stroke-miterlimit="10"/>
<path d="M908.646 320.244C934.178 320.244 954.875 299.19 954.875 273.219C954.875 247.249 934.178 226.196 908.646 226.196C883.115 226.196 862.418 247.249 862.418 273.219C862.418 299.19 883.115 320.244 908.646 320.244Z" fill="#ECFAFF" stroke="#1E5C93" stroke-width="3.71856"/>
<path d="M928.763 303.352H888.511C888.224 303.352 887.946 303.252 887.726 303.068C887.505 302.883 887.356 302.628 887.305 302.345C886.103 295.73 891.374 286.459 903.883 273.215C891.374 259.972 886.103 250.7 887.305 244.086C887.356 243.803 887.505 243.547 887.726 243.363C887.946 243.179 888.224 243.078 888.511 243.078H928.763C929.051 243.078 929.329 243.179 929.549 243.363C929.77 243.547 929.919 243.803 929.97 244.086C931.172 250.7 925.901 259.973 913.392 273.216C925.901 286.459 931.172 295.732 929.97 302.347C929.919 302.629 929.77 302.885 929.549 303.069C929.329 303.253 929.051 303.354 928.763 303.354V303.352ZM889.601 300.9H927.675C927.988 295.043 922.457 286.243 910.816 274.062C910.598 273.834 910.476 273.531 910.476 273.215C910.476 272.9 910.598 272.597 910.816 272.369C922.455 260.186 927.987 251.386 927.674 245.531H889.601C889.288 251.386 894.82 260.187 906.46 272.369C906.678 272.597 906.8 272.9 906.8 273.215C906.8 273.531 906.678 273.834 906.46 274.062C894.821 286.245 889.289 295.044 889.601 300.9Z" fill="#1E5C93" stroke="#1E5C93" stroke-width="1.36044" stroke-miterlimit="10"/>
<path d="M932.354 303.351H884.921C884.596 303.351 884.284 303.222 884.054 302.992C883.825 302.763 883.696 302.451 883.696 302.126C883.696 301.801 883.825 301.489 884.054 301.259C884.284 301.03 884.596 300.901 884.921 300.901H932.354C932.679 300.901 932.991 301.03 933.22 301.259C933.45 301.489 933.579 301.801 933.579 302.126C933.579 302.451 933.45 302.763 933.22 302.992C932.991 303.222 932.679 303.351 932.354 303.351ZM932.354 245.53H884.921C884.596 245.53 884.284 245.401 884.054 245.171C883.825 244.941 883.696 244.63 883.696 244.305C883.696 243.98 883.825 243.668 884.054 243.438C884.284 243.208 884.596 243.079 884.921 243.079H932.354C932.679 243.079 932.991 243.208 933.22 243.438C933.45 243.668 933.579 243.98 933.579 244.305C933.579 244.63 933.45 244.941 933.22 245.171C932.991 245.401 932.679 245.53 932.354 245.53ZM888.736 298.682C888.517 298.682 888.302 298.624 888.114 298.513C887.925 298.403 887.77 298.244 887.663 298.053C887.585 297.913 887.535 297.758 887.516 297.598C887.497 297.438 887.51 297.276 887.554 297.121C887.598 296.967 887.672 296.822 887.772 296.696C887.872 296.57 887.996 296.464 888.136 296.386C888.174 296.365 891.928 294.275 896.294 292.2C902.264 289.362 906.514 287.895 908.928 287.838L909.233 287.834C916.571 287.834 927.921 293.782 928.406 294.038C928.548 294.114 928.675 294.216 928.777 294.34C928.88 294.464 928.957 294.607 929.005 294.761C929.052 294.915 929.069 295.076 929.054 295.237C929.039 295.397 928.992 295.553 928.917 295.695C928.765 295.982 928.505 296.198 928.195 296.294C927.884 296.39 927.548 296.359 927.261 296.207C927.145 296.147 915.672 290.119 908.983 290.289C904.804 290.387 893.379 296.268 889.33 298.527C889.148 298.629 888.943 298.683 888.734 298.683L888.736 298.682ZM909.591 263.213C904.085 263.213 893.798 260.357 893.363 260.235C893.208 260.192 893.063 260.119 892.936 260.019C892.809 259.92 892.703 259.797 892.624 259.656C892.545 259.516 892.495 259.362 892.475 259.202C892.456 259.042 892.468 258.88 892.512 258.725C892.555 258.57 892.628 258.425 892.728 258.298C892.827 258.172 892.95 258.066 893.09 257.987C893.231 257.908 893.385 257.857 893.545 257.838C893.705 257.818 893.867 257.831 894.022 257.874C894.125 257.902 904.42 260.761 909.589 260.761C914.759 260.761 921.751 260.147 921.818 260.142C922.142 260.114 922.463 260.215 922.712 260.423C922.962 260.631 923.119 260.928 923.149 261.252C923.178 261.575 923.078 261.897 922.87 262.147C922.661 262.396 922.363 262.553 922.039 262.583C921.97 262.589 914.984 263.213 909.591 263.213V263.213ZM908.638 279.323C908.389 279.323 908.146 279.247 907.941 279.106C907.736 278.965 907.579 278.764 907.491 278.532C907.483 278.51 906.58 276.184 904.655 274.033C904.439 273.791 904.327 273.472 904.345 273.148C904.362 272.823 904.508 272.519 904.75 272.302C904.992 272.085 905.311 271.973 905.635 271.991C905.96 272.009 906.264 272.155 906.481 272.397C908.724 274.902 909.742 277.551 909.784 277.663C909.855 277.848 909.879 278.048 909.855 278.245C909.831 278.442 909.759 278.631 909.647 278.794C909.534 278.957 909.383 279.091 909.207 279.183C909.032 279.275 908.836 279.323 908.638 279.323V279.323Z" fill="#1E5C93" stroke="#1E5C93" stroke-width="1.36044" stroke-miterlimit="10"/>
<path d="M908.639 279.324C908.491 279.324 908.344 279.296 908.205 279.244C907.901 279.128 907.655 278.897 907.522 278.601C907.388 278.305 907.378 277.967 907.492 277.663C907.534 277.552 908.552 274.902 910.796 272.397C910.903 272.277 911.033 272.18 911.178 272.11C911.323 272.04 911.481 272 911.641 271.991C911.802 271.982 911.963 272.005 912.115 272.059C912.267 272.112 912.407 272.195 912.527 272.302C912.646 272.41 912.744 272.54 912.814 272.685C912.883 272.83 912.924 272.987 912.932 273.148C912.941 273.309 912.918 273.47 912.865 273.621C912.811 273.773 912.729 273.913 912.621 274.033C910.68 276.2 909.794 278.509 909.786 278.532C909.698 278.765 909.541 278.965 909.336 279.107C909.131 279.248 908.888 279.324 908.639 279.323V279.324ZM908.958 284.393C908.797 284.393 908.637 284.361 908.489 284.3C908.34 284.238 908.205 284.148 908.091 284.034C907.977 283.92 907.887 283.785 907.826 283.637C907.764 283.488 907.732 283.329 907.732 283.168V283.09C907.732 282.765 907.861 282.454 908.091 282.224C908.321 281.994 908.633 281.865 908.958 281.865C909.283 281.865 909.594 281.994 909.824 282.224C910.054 282.454 910.183 282.765 910.183 283.09V283.168C910.183 283.329 910.151 283.488 910.09 283.637C910.028 283.785 909.938 283.92 909.824 284.034C909.71 284.148 909.575 284.238 909.427 284.3C909.278 284.361 909.119 284.393 908.958 284.393Z" fill="#1E5C93" stroke="#1E5C93" stroke-width="1.36044" stroke-miterlimit="10"/>
<path fill-rule="evenodd" clip-rule="evenodd" d="M605.014 97.6315L628.488 100.678C641.058 102.307 653.111 103.609 658.659 93.4538L666.254 82.9385L674.123 87.2995L667.7 68.1735L648.224 72.9344L656.088 77.2981L648.491 87.8147C645.138 92.4495 641.121 90.7609 634.153 90.4521L610.681 87.3984L605.014 97.6315Z" fill="#434343"/>
<circle cx="380" cy="593" r="5" fill="#FF0000"/>
<circle cx="380" cy="606" r="5" fill="#FF0000"/>
<circle cx="380" cy="619" r="5" fill="#FF0000"/>
<circle cx="380" cy="632" r="5" fill="#FF0000"/>
<circle cx="367" cy="606" r="5" fill="#FF0000"/>
<circle cx="367" cy="619" r="5" fill="#FF0000"/>
<circle cx="406" cy="593" r="5" fill="#FF0000"/>
<circle cx="406" cy="606" r="5" fill="#FF0000"/>
<circle cx="406" cy="619" r="5" fill="#FF0000"/>
<circle cx="406" cy="632" r="5" fill="#FF0000"/>
<circle cx="393" cy="606" r="5" fill="#FF0000"/>
<circle cx="393" cy="619" r="5" fill="#FF0000"/>
<circle cx="393" cy="632" r="5" fill="#FF0000"/>
<circle cx="393" cy="645" r="5" fill="#FF0000"/>
<circle cx="419" cy="606" r="5" fill="#FF0000"/>
<circle cx="419" cy="619" r="5" fill="#FF0000"/>
<circle cx="727" cy="74" r="5" fill="#FF0000"/>
<circle cx="727" cy="87" r="5" fill="#FF0000"/>
<circle cx="727" cy="100" r="5" fill="#FF0000"/>
<circle cx="727" cy="113" r="5" fill="#FF0000"/>
<circle cx="714" cy="87" r="5" fill="#FF0000"/>
<circle cx="714" cy="100" r="5" fill="#FF0000"/>
<circle cx="753" cy="74" r="5" fill="#FF0000"/>
<circle cx="753" cy="87" r="5" fill="#FF0000"/>
<circle cx="753" cy="100" r="5" fill="#FF0000"/>
<circle cx="753" cy="113" r="5" fill="#FF0000"/>
<circle cx="740" cy="87" r="5" fill="#FF0000"/>
<circle cx="740" cy="100" r="5" fill="#FF0000"/>
<circle cx="740" cy="113" r="5" fill="#FF0000"/>
<circle cx="740" cy="126" r="5" fill="#FF0000"/>
<circle cx="766" cy="87" r="5" fill="#FF0000"/>
<circle cx="766" cy="100" r="5" fill="#FF0000"/>
<circle cx="732" cy="411" r="5" fill="#FF0000"/>
<circle cx="732" cy="450" r="5" fill="#FF0000"/>
<circle cx="719" cy="424" r="5" fill="#FF0000"/>
<circle cx="719" cy="437" r="5" fill="#FF0000"/>
<circle cx="758" cy="411" r="5" fill="#FF0000"/>
<circle cx="758" cy="450" r="5" fill="#FF0000"/>
<circle cx="745" cy="424" r="5" fill="#FF0000"/>
<circle cx="745" cy="463" r="5" fill="#FF0000"/>
<circle cx="771" cy="424" r="5" fill="#FF0000"/>
<circle cx="771" cy="437" r="5" fill="#FF0000"/>
</g>
<defs>
<clipPath id="clip0_107_26">
<rect width="1280" height="720" fill="white"/>
</clipPath>
</defs>
</svg>
