<svg width="1280" height="720" viewBox="0 0 1280 720" fill="none" xmlns="http://www.w3.org/2000/svg">
<g clip-path="url(#clip0_107_287)">
<rect width="1280" height="720" fill="#ECFAFF"/>
<path d="M0 0H1279.98V719.99H0V0Z" fill="url(#paint0_linear_107_287)"/>
<g filter="url(#filter0_d_107_287)">
<path d="M328.472 456.803C332.808 453.676 337.851 451.472 343.293 450.425C364.551 446.336 384.829 460.071 388.918 481.328C393.007 502.586 379.272 522.864 358.014 526.953L356.994 527.149C358.46 531.1 359.65 535.456 360.468 539.708C367.24 574.911 349.948 607.865 321.717 613.296C304.541 616.6 287.344 608.797 274.85 594.271C267.904 596.665 260.689 598.582 253.037 600.054C245.384 601.526 237.973 602.423 230.634 602.776C224.421 620.902 211.347 634.527 194.17 637.831C165.94 643.262 137.656 619.075 130.884 583.872C130.066 579.621 129.555 575.134 129.451 570.921L128.43 571.117C107.172 575.207 86.8947 561.472 82.8054 540.214C81.5575 533.844 81.9278 527.263 83.8826 521.074C85.8374 514.884 89.314 509.284 93.9941 504.786C98.6742 500.288 104.408 497.037 110.67 495.33C116.933 493.622 123.523 493.514 129.839 495.014C136.006 483.07 145.359 472.1 157.145 462.778C145.037 451.175 135.879 435.654 132.444 417.798L132.248 416.777C113.096 416.229 95.9776 402.416 92.1827 382.688C87.8317 360.07 102.803 337.967 125.421 333.616C137.155 331.359 148.988 334.197 157.635 340.646C169.148 329.787 183.516 322.432 199.056 319.443C214.597 316.453 230.668 317.953 245.388 323.765C251.025 314.569 260.961 307.543 272.695 305.286C295.313 300.935 317.416 315.906 321.767 338.524C325.595 358.421 314.823 377.6 297.038 385.077L297.235 386.098C300.67 403.954 298.061 421.562 290.984 437.032C305.558 441.283 318.313 448 328.472 456.803Z" fill="#D09059"/>
</g>
<g filter="url(#filter1_d_107_287)">
<path d="M714.472 231.803C718.808 228.676 723.851 226.472 729.293 225.425C750.551 221.336 770.829 235.071 774.918 256.328C779.007 277.586 765.272 297.864 744.014 301.953L742.994 302.149C744.459 306.1 745.65 310.456 746.468 314.708C753.24 349.911 735.948 382.865 707.717 388.296C690.541 391.6 673.344 383.797 660.85 369.271C653.904 371.665 646.689 373.582 639.037 375.054C631.384 376.526 623.973 377.423 616.634 377.776C610.421 395.902 597.347 409.527 580.17 412.831C551.94 418.262 523.656 394.075 516.884 358.872C516.066 354.621 515.555 350.134 515.451 345.921L514.43 346.117C493.172 350.207 472.895 336.472 468.805 315.214C467.557 308.844 467.928 302.263 469.883 296.074C471.837 289.884 475.314 284.284 479.994 279.786C484.674 275.288 490.408 272.037 496.67 270.33C502.933 268.622 509.523 268.514 515.839 270.014C522.006 258.07 531.359 247.1 543.145 237.778C531.037 226.175 521.879 210.654 518.444 192.798L518.248 191.777C499.096 191.229 481.978 177.416 478.183 157.688C473.832 135.07 488.803 112.967 511.421 108.616C523.155 106.359 534.988 109.197 543.635 115.646C555.148 104.787 569.516 97.4324 585.056 94.4428C600.597 91.4533 616.668 92.9527 631.388 98.7654C637.025 89.5685 646.961 82.543 658.695 80.2857C681.313 75.9347 703.416 90.9057 707.767 113.524C711.595 133.421 700.823 152.6 683.038 160.077L683.235 161.098C686.67 178.954 684.061 196.562 676.984 212.032C691.558 216.283 704.313 223 714.472 231.803Z" fill="#D09059"/>
</g>
<g filter="url(#filter2_d_107_287)">
<path d="M1151.47 447.803C1155.81 444.676 1160.85 442.472 1166.29 441.425C1187.55 437.336 1207.83 451.071 1211.92 472.328C1216.01 493.586 1202.27 513.864 1181.01 517.953L1179.99 518.149C1181.46 522.1 1182.65 526.456 1183.47 530.708C1190.24 565.911 1172.95 598.865 1144.72 604.296C1127.54 607.6 1110.34 599.797 1097.85 585.271C1090.9 587.665 1083.69 589.582 1076.04 591.054C1068.38 592.526 1060.97 593.423 1053.63 593.776C1047.42 611.902 1034.35 625.527 1017.17 628.831C988.94 634.262 960.656 610.075 953.884 574.872C953.066 570.621 952.555 566.134 952.451 561.921L951.43 562.117C930.172 566.207 909.895 552.472 905.805 531.214C904.557 524.844 904.928 518.263 906.883 512.074C908.837 505.884 912.314 500.284 916.994 495.786C921.674 491.288 927.408 488.037 933.67 486.33C939.933 484.622 946.523 484.514 952.839 486.014C959.006 474.07 968.359 463.1 980.145 453.778C968.037 442.175 958.879 426.654 955.444 408.798L955.248 407.777C936.096 407.229 918.978 393.416 915.183 373.688C910.832 351.07 925.803 328.967 948.421 324.616C960.155 322.359 971.988 325.197 980.635 331.646C992.148 320.787 1006.52 313.432 1022.06 310.443C1037.6 307.453 1053.67 308.953 1068.39 314.765C1074.03 305.569 1083.96 298.543 1095.7 296.286C1118.31 291.935 1140.42 306.906 1144.77 329.524C1148.59 349.421 1137.82 368.6 1120.04 376.077L1120.23 377.098C1123.67 394.954 1121.06 412.562 1113.98 428.032C1128.56 432.283 1141.31 439 1151.47 447.803Z" fill="#D09059"/>
</g>
<circle cx="215.419" cy="479.884" r="6.58803" transform="rotate(-8.29623 215.419 479.884)" fill="#FF0000"/>
<circle cx="217.891" cy="496.834" r="6.58803" transform="rotate(-8.29623 217.891 496.834)" fill="#FF0000"/>
<circle cx="220.362" cy="513.783" r="6.58803" transform="rotate(-8.29623 220.362 513.783)" fill="#FF0000"/>
<circle cx="222.834" cy="530.733" r="6.58803" transform="rotate(-8.29623 222.834 530.733)" fill="#FF0000"/>
<circle cx="200.941" cy="499.306" r="6.58803" transform="rotate(-8.29623 200.941 499.306)" fill="#FF0000"/>
<circle cx="203.412" cy="516.255" r="6.58803" transform="rotate(-8.29623 203.412 516.255)" fill="#FF0000"/>
<circle cx="249.318" cy="474.941" r="6.58803" transform="rotate(-8.29623 249.318 474.941)" fill="#FF0000"/>
<circle cx="251.79" cy="491.891" r="6.58803" transform="rotate(-8.29623 251.79 491.891)" fill="#FF0000"/>
<circle cx="254.261" cy="508.84" r="6.58803" transform="rotate(-8.29623 254.261 508.84)" fill="#FF0000"/>
<circle cx="256.733" cy="525.79" r="6.58803" transform="rotate(-8.29623 256.733 525.79)" fill="#FF0000"/>
<circle cx="234.84" cy="494.362" r="6.58803" transform="rotate(-8.29623 234.84 494.362)" fill="#FF0000"/>
<circle cx="237.312" cy="511.312" r="6.58803" transform="rotate(-8.29623 237.312 511.312)" fill="#FF0000"/>
<circle cx="239.783" cy="528.262" r="6.58803" transform="rotate(-8.29623 239.783 528.262)" fill="#FF0000"/>
<circle cx="242.255" cy="545.211" r="6.58803" transform="rotate(-8.29623 242.255 545.211)" fill="#FF0000"/>
<circle cx="268.739" cy="489.419" r="6.58803" transform="rotate(-8.29623 268.739 489.419)" fill="#FF0000"/>
<circle cx="271.211" cy="506.369" r="6.58803" transform="rotate(-8.29623 271.211 506.369)" fill="#FF0000"/>
<circle cx="606.261" cy="275.68" r="6.6129" transform="rotate(-9.06678 606.261 275.68)" fill="#FD281D"/>
<circle cx="611.68" cy="309.637" r="6.6129" transform="rotate(-9.06678 611.68 309.637)" fill="#FD281D"/>
<circle cx="586.572" cy="261.41" r="6.6129" transform="rotate(-9.06678 586.572 261.41)" fill="#FD281D"/>
<circle cx="589.282" cy="278.389" r="6.6129" transform="rotate(-9.06678 589.282 278.389)" fill="#FF0000"/>
<circle cx="597.41" cy="329.325" r="6.6129" transform="rotate(-9.06678 597.41 329.325)" fill="#FF0000"/>
<circle cx="640.218" cy="270.261" r="6.6129" transform="rotate(-9.06678 640.218 270.261)" fill="#FD281D"/>
<circle cx="645.637" cy="304.218" r="6.6129" transform="rotate(-9.06678 645.637 304.218)" fill="#FD281D"/>
<circle cx="628.658" cy="306.928" r="6.6129" transform="rotate(-9.06678 628.658 306.928)" fill="#FD281D"/>
<circle cx="654.487" cy="250.572" r="6.6129" transform="rotate(-9.06678 654.487 250.572)" fill="#FD281D"/>
<circle cx="657.197" cy="267.551" r="6.6129" transform="rotate(-9.06678 657.197 267.551)" fill="#FF0000"/>
<circle cx="665.325" cy="318.487" r="6.6129" transform="rotate(-9.06678 665.325 318.487)" fill="#FF0000"/>
<circle cx="1038.12" cy="483.294" r="6.6129" transform="rotate(-8.65659 1038.12 483.294)" fill="#FD281D"/>
<circle cx="1043.29" cy="517.29" r="6.6129" transform="rotate(-8.65659 1043.29 517.29)" fill="#FD281D"/>
<circle cx="1045.88" cy="534.287" r="6.6129" transform="rotate(-8.65659 1045.88 534.287)" fill="#FD281D"/>
<circle cx="1021.12" cy="485.882" r="6.6129" transform="rotate(-8.65659 1021.12 485.882)" fill="#FD281D"/>
<circle cx="1026.3" cy="519.877" r="6.6129" transform="rotate(-8.65659 1026.3 519.877)" fill="#FD281D"/>
<circle cx="1072.11" cy="478.118" r="6.6129" transform="rotate(-8.65659 1072.11 478.118)" fill="#FD281D"/>
<circle cx="1077.29" cy="512.114" r="6.6129" transform="rotate(-8.65659 1077.29 512.114)" fill="#FD281D"/>
<circle cx="1079.88" cy="529.112" r="6.6129" transform="rotate(-8.65659 1079.88 529.112)" fill="#FD281D"/>
<circle cx="1060.29" cy="514.702" r="6.6129" transform="rotate(-8.65659 1060.29 514.702)" fill="#FD281D"/>
<circle cx="1062.88" cy="531.699" r="6.6129" transform="rotate(-8.65659 1062.88 531.699)" fill="#FD281D"/>
<circle cx="1089.11" cy="475.531" r="6.6129" transform="rotate(-8.65659 1089.11 475.531)" fill="#FD281D"/>
<circle cx="1094.29" cy="509.526" r="6.6129" transform="rotate(-8.65659 1094.29 509.526)" fill="#FD281D"/>
</g>
<defs>
<filter id="filter0_d_107_287" x="73.7817" y="304.533" width="324.156" height="351.36" filterUnits="userSpaceOnUse" color-interpolation-filters="sRGB">
<feFlood flood-opacity="0" result="BackgroundImageFix"/>
<feColorMatrix in="SourceAlpha" type="matrix" values="0 0 0 0 0 0 0 0 0 0 0 0 0 0 0 0 0 0 127 0" result="hardAlpha"/>
<feOffset dy="9"/>
<feGaussianBlur stdDeviation="4.15"/>
<feComposite in2="hardAlpha" operator="out"/>
<feColorMatrix type="matrix" values="0 0 0 0 0 0 0 0 0 0 0 0 0 0 0 0 0 0 0.25 0"/>
<feBlend mode="normal" in2="BackgroundImageFix" result="effect1_dropShadow_107_287"/>
<feBlend mode="normal" in="SourceGraphic" in2="effect1_dropShadow_107_287" result="shape"/>
</filter>
<filter id="filter1_d_107_287" x="459.782" y="79.5332" width="324.156" height="351.36" filterUnits="userSpaceOnUse" color-interpolation-filters="sRGB">
<feFlood flood-opacity="0" result="BackgroundImageFix"/>
<feColorMatrix in="SourceAlpha" type="matrix" values="0 0 0 0 0 0 0 0 0 0 0 0 0 0 0 0 0 0 127 0" result="hardAlpha"/>
<feOffset dy="9"/>
<feGaussianBlur stdDeviation="4.15"/>
<feComposite in2="hardAlpha" operator="out"/>
<feColorMatrix type="matrix" values="0 0 0 0 0 0 0 0 0 0 0 0 0 0 0 0 0 0 0.25 0"/>
<feBlend mode="normal" in2="BackgroundImageFix" result="effect1_dropShadow_107_287"/>
<feBlend mode="normal" in="SourceGraphic" in2="effect1_dropShadow_107_287" result="shape"/>
</filter>
<filter id="filter2_d_107_287" x="896.782" y="295.533" width="324.156" height="351.36" filterUnits="userSpaceOnUse" color-interpolation-filters="sRGB">
<feFlood flood-opacity="0" result="BackgroundImageFix"/>
<feColorMatrix in="SourceAlpha" type="matrix" values="0 0 0 0 0 0 0 0 0 0 0 0 0 0 0 0 0 0 127 0" result="hardAlpha"/>
<feOffset dy="9"/>
<feGaussianBlur stdDeviation="4.15"/>
<feComposite in2="hardAlpha" operator="out"/>
<feColorMatrix type="matrix" values="0 0 0 0 0 0 0 0 0 0 0 0 0 0 0 0 0 0 0.25 0"/>
<feBlend mode="normal" in2="BackgroundImageFix" result="effect1_dropShadow_107_287"/>
<feBlend mode="normal" in="SourceGraphic" in2="effect1_dropShadow_107_287" result="shape"/>
</filter>
<linearGradient id="paint0_linear_107_287" x1="634.997" y1="746.847" x2="634.997" y2="-25.1056" gradientUnits="userSpaceOnUse">
<stop stop-color="#3291FF"/>
<stop offset="1" stop-color="#35C2FF"/>
</linearGradient>
<clipPath id="clip0_107_287">
<rect width="1280" height="720" fill="white"/>
</clipPath>
</defs>
</svg>
