<svg xmlns="http://www.w3.org/2000/svg" width="1280" height="720" xmlns:v="https://vecta.io/nano"><style><![CDATA[.C{clip-path:none}.D{fill:none}.E{stroke-width:9.026}.F{stroke-miterlimit:10}.G{fill:#ffc93c}.H{stroke:#ffc93c}.I{fill:#7c2869}.J{stroke:#7c2869}.K{stroke:#ff7b54}.L{fill:#ff7b54}]]></style><defs><clipPath ><path d="M0 0h708.12v398.41H0z" stroke-width="0" class="D"/></clipPath><clipPath ><path d="M-14.17-14.17h736.48v426.75H-14.17z" stroke-width="0" class="D"/></clipPath><linearGradient id="C" x1="638.924" y1="745.128" x2="638.924" y2="-25.591" gradientUnits="userSpaceOnUse" spreadMethod="pad"><stop offset="0" stop-color="#c0b4e5"/><stop offset=".25" stop-color="#ba9be5"/><stop offset="1" stop-color="#7568c5"/></linearGradient></defs><path d="M.001 0H1280v720H.001z" fill="url(#C)" class="C"/><path d="M0 139.491v16.261c72.366-41.447 200.919-95.779 378.203-95.779 142.669 0 278.187 53.03 408.566 108.054s255.507 112.13 378.249 118.34c43.52 2.207 81.545 2.331 114.981 1.136v-14.452c-33.109 1.2-70.9 1.084-114.252-1.115-118.751-6.008-242.76-62.1-373.371-117.222S524.436 45.525 378.203 45.525C203.865 45.525 75.398 97.606 0 139.491zm0 94.375v16.261c72.366-41.451 200.92-95.786 378.203-95.786 142.669 0 278.187 53.027 408.566 108.051s255.507 112.13 378.249 118.34c43.52 2.207 81.545 2.328 114.981 1.132v-14.448c-33.109 1.2-70.9 1.084-114.252-1.115-118.751-6.008-242.76-62.1-373.371-117.222s-267.94-109.186-414.173-109.186c-174.338 0-302.805 52.084-378.203 93.973zm0 90.258v16.261c72.366-41.449 200.916-95.783 378.189-95.783 142.663 0 278.178 53.026 408.559 108.051s255.517 112.135 378.263 118.351c43.525 2.206 81.551 2.326 114.988 1.129v-14.448c-33.11 1.202-70.903 1.089-114.259-1.108-118.756-6.014-242.772-62.113-373.385-117.236s-267.94-109.187-414.167-109.187c-174.329 0-302.792 52.083-378.189 93.969zm0 91.434v16.265c72.366-41.447 200.916-95.779 378.189-95.779 142.663 0 278.178 53.026 408.559 108.051s255.517 112.136 378.263 118.351c43.525 2.206 81.551 2.326 114.988 1.129v-14.452c-33.11 1.201-70.903 1.089-114.259-1.108-118.756-6.013-242.772-62.11-373.385-117.233s-267.94-109.187-414.167-109.187c-174.328 0-302.792 52.079-378.189 93.962zm0 93.377v16.261c72.366-41.446 200.916-95.776 378.189-95.776 142.663 0 278.178 53.024 408.559 108.047s255.514 112.128 378.26 118.344c43.525 2.207 81.553 2.329 114.992 1.132v-14.448c-33.11 1.201-70.903 1.088-114.259-1.111-118.757-6.013-242.772-62.108-373.385-117.229s-267.94-109.183-414.167-109.183c-174.328 0-302.792 52.079-378.189 93.962z" fill="#1e5c93"/><path d="M158.995 50.86v199.63" class="C D E F H"/><path d="M158.995 252.571c0 21.822-17.679 39.516-39.483 39.516-21.796 0-39.483-17.685-39.483-39.516s17.687-39.516 39.483-39.516c21.803 0 39.483 17.682 39.483 39.516" class="C G"/><path d="M158.995 252.571c0 21.822-17.679 39.516-39.483 39.516-21.796 0-39.483-17.685-39.483-39.516s17.687-39.516 39.483-39.516c21.803 0 39.483 17.682 39.483 39.516zM304.436 50.86v199.63" class="C D E F H"/><path d="M304.436 252.571c0 21.822-17.677 39.516-39.483 39.516-21.794 0-39.483-17.685-39.483-39.516s17.67-39.516 39.483-39.516c21.822 0 39.483 17.682 39.483 39.516" class="C G"/><g class="E F H"><path d="M304.436 252.571c0 21.822-17.677 39.516-39.483 39.516-21.794 0-39.483-17.685-39.483-39.516s17.67-39.516 39.483-39.516c21.822 0 39.483 17.682 39.483 39.516z" class="C D"/><path d="M158.995 50.86h145.441v45.743H158.995z" class="C G"/></g><path d="M784.258 281.089v199.623" class="C D E F J"/><path d="M784.258 482.78c0 21.824-17.679 39.516-39.483 39.516-21.796 0-39.483-17.673-39.483-39.516 0-21.831 17.667-39.516 39.483-39.516s39.483 17.685 39.483 39.516" class="C I"/><path d="M784.258 482.78c0 21.824-17.679 39.516-39.483 39.516-21.796 0-39.483-17.673-39.483-39.516 0-21.831 17.667-39.516 39.483-39.516s39.483 17.685 39.483 39.516zm145.441-201.691v199.623" class="C D E F J"/><path d="M929.699 482.78c0 21.824-17.677 39.516-39.483 39.516-21.794 0-39.483-17.673-39.483-39.516 0-21.831 17.67-39.516 39.483-39.516 21.822 0 39.483 17.685 39.483 39.516" class="C I"/><g class="E F"><g class="J"><path d="M929.699 482.78c0 21.824-17.677 39.516-39.483 39.516-21.794 0-39.483-17.673-39.483-39.516 0-21.831 17.67-39.516 39.483-39.516 21.822 0 39.483 17.685 39.483 39.516z" class="C D"/><path d="M784.258 281.089h145.441v45.743H784.258z" class="C I"/></g><path d="M431.57 233.316V432.72" class="C D K"/></g><path d="M431.57 434.801c0 21.793-17.651 39.458-39.427 39.458-21.784 0-39.435-17.665-39.435-39.458s17.65-39.46 39.435-39.46c21.777 0 39.427 17.665 39.427 39.46" class="C L"/><path d="M431.57 434.801c0 21.793-17.66 39.458-39.427 39.458-21.774 0-39.435-17.665-39.435-39.458s17.66-39.46 39.435-39.46c21.767 0 39.427 17.665 39.427 39.46zM638.639 67.218v199.406" class="C D E F K"/><path d="M638.639 268.702c0 21.795-17.65 39.46-39.427 39.46-21.787 0-39.437-17.665-39.437-39.46 0-21.805 17.65-39.46 39.437-39.46 21.777 0 39.427 17.656 39.427 39.46" class="C L"/><g class="D E F"><path d="M638.639 268.702c0 21.795-17.66 39.46-39.427 39.46-21.777 0-39.437-17.665-39.437-39.46s17.66-39.46 39.437-39.46c21.767 0 39.427 17.665 39.427 39.46z" class="C K"/><path d="M1162.914 146.146v199.397" class="C H"/></g><path d="M1162.914 347.62c0 21.805-17.641 39.46-39.427 39.46-21.777 0-39.425-17.656-39.425-39.46 0-21.793 17.648-39.458 39.425-39.458 21.786 0 39.427 17.665 39.427 39.458" class="C G"/><path d="M1162.914 347.62c0 21.795-17.65 39.46-39.427 39.46s-39.425-17.665-39.425-39.46 17.648-39.458 39.425-39.458 39.427 17.665 39.427 39.458z" class="C D E F H"/><path d="M119.513 334.273c0 25.756-20.855 46.639-46.587 46.639 25.732 0 46.588 20.873 46.588 46.627 0-25.754 20.865-46.627 46.597-46.627-25.732 0-46.597-20.882-46.597-46.639" class="C G"/><path d="M547.181 353.802c0 25.754-20.855 46.627-46.588 46.627 25.732 0 46.588 20.882 46.588 46.636 0-25.754 20.865-46.636 46.597-46.636-25.732 0-46.597-20.873-46.597-46.627" class="C L"/><path d="M983.336 104.044c0 25.754-20.865 46.636-46.597 46.636 25.732 0 46.597 20.873 46.597 46.629 0-25.756 20.855-46.629 46.59-46.629-25.735 0-46.59-20.882-46.59-46.636M638.92 522.296c0 25.756-20.855 46.639-46.588 46.639 25.732 0 46.588 20.873 46.588 46.627 0-25.754 20.865-46.627 46.597-46.627-25.732 0-46.597-20.882-46.597-46.639m379.077-11.785c0 25.754-20.862 46.627-46.597 46.627 25.735 0 46.597 20.882 46.597 46.636 0-25.754 20.855-46.636 46.59-46.636-25.735 0-46.59-20.873-46.59-46.627" class="C I"/><path d="M1209.511 409.533c0 25.756-20.865 46.629-46.597 46.629 25.732 0 46.597 20.88 46.597 46.636 0-25.756 20.855-46.636 46.588-46.636-25.732 0-46.588-20.873-46.588-46.629M382.502 27.09c0 20.43-16.541 36.985-36.956 36.985 20.415 0 36.956 16.565 36.956 36.987 0-20.422 16.549-36.987 36.954-36.987-20.405 0-36.954-16.555-36.954-36.985" class="C G"/></svg>