<svg xmlns="http://www.w3.org/2000/svg" xmlns:xlink="http://www.w3.org/1999/xlink" width="1280" height="720" xmlns:v="https://vecta.io/nano"><style><![CDATA[.C{clip-path:none}.D{fill:#ffc93c}.E{stroke:#ffc93c}.F{stroke-width:1.308}.G{stroke-miterlimit:10}.H{stroke-width:14.017}.I{stroke-linecap:round}.J{stroke-linejoin:round}]]></style><defs><clipPath ><path d="M0 0h708.12v398.41H0z" stroke-width="0" fill="none"/></clipPath><clipPath ><path d="M-14.17-14.17h736.48v426.75H-14.17z" stroke-width="0" fill="none"/></clipPath><linearGradient id="C" gradientTransform="matrix(0,763.16996,762.53247,0,-752924.48,-1004797.2)" x1="1317.442" y1="988.242" x2="1316.696" y2="988.242" gradientUnits="userSpaceOnUse" spreadMethod="pad"><stop offset="0" stop-color="#f6a227"/><stop offset="1" stop-color="#ffc93c"/></linearGradient><path id="D" d="M2273.561 424.435v28.894"/><path id="E" d="M2272.906 424.436v28.895h1.309v-28.895z"/><path id="F" d="M2273.561 453.63c0 3.158-2.558 5.718-5.713 5.718s-5.713-2.56-5.713-5.718 2.557-5.718 5.713-5.718 5.713 2.56 5.713 5.718z"/></defs><path d="M0 0h1280v720H0z" fill="url(#C)" class="C"/><circle cx="640.001" cy="127.535" r="87.874" fill="#34c3ff"/><g transform="matrix(3.516298 0 0 3.516298 -7334.4285 -1427.4382)" class="D"><g transform="matrix(2.77718 0 0 1 -4041.6881 0)" class="C"><use xlink:href="#D"/><use xlink:href="#E"/></g><use xlink:href="#F" class="C E F G"/></g><g transform="matrix(4.635045 0 0 4.635045 4384.1841 373.83139)"><circle cx="-716.253" cy="17.997" r="23.023" fill="#ff7b54"/><g transform="matrix(.921278 0 0 .921278 -2805.5713 -389.40982)" class="D"><g transform="matrix(2.77718 0 0 1 -4041.6881 0)" class="C"><use xlink:href="#D"/><use xlink:href="#E"/></g><use xlink:href="#F" class="C E F G"/></g><circle cx="-899.345" cy="18.79" r="23.023" fill="#bc9353"/><g transform="matrix(.921278 0 0 .921278 -2988.663 -388.61607)" class="D"><g transform="matrix(2.77718 0 0 1 -4041.6881 0)" class="C"><use xlink:href="#D"/><use xlink:href="#E"/></g><use xlink:href="#F" class="C E F G"/></g></g><g transform="matrix(4.199426 0 0 4.199426 4029.5137 405.08007)"><circle cx="-740.33" cy="-45.239" r="23.023" fill="#a184dc"/><g transform="matrix(.921278 0 0 .921278 -2829.6484 -452.64524)" class="D"><g transform="matrix(2.77718 0 0 1 -4041.6881 0)" class="C"><use xlink:href="#D"/><use xlink:href="#E"/></g><use xlink:href="#F" class="C E F G"/></g><circle cx="-873.945" cy="-39.418" r="23.023" fill="#1ead28"/><g transform="matrix(.921278 0 0 .921278 -2963.263 -446.8244)" class="D"><g transform="matrix(2.77718 0 0 1 -4041.6881 0)" class="C"><use xlink:href="#D"/><use xlink:href="#E"/></g><use xlink:href="#F" class="C E F G"/></g></g><g transform="matrix(1.009851 0 0 1.009851 811.36025 -1001.1577)"><g stroke="#7c2869" fill="#7c2869"><path d="M-169.688 1306.656v-56.739" class="C H I J"/><path d="M-332.829 1263.973l40.121-40.121m-242.188 36.996l-40.121-40.121" class="C H I J" transform="translate(264.174 86.095)"/><path d="M-292.542 1365.654h56.739m-342.505-4.419h-56.739" class="C H I J" transform="translate(265.737 86.095)"/><path d="M-169.296 1348.332c57.916 0 94.965 53.337 94.965 90.413 0 68.774-47.475 65.685-47.475 128.269h-94.585c0-49.459-48.654-73.402-48.654-123.627s43.245-95.056 95.749-95.056" stroke-width="2.875"/></g><g fill="#1e5c93"><path d="M-205.395 1645.488s7.478 19.605 35.801 19.605 35.588-19.605 35.588-19.605z"/><path d="M225.016 56.961h-42.34l5.625-28.379h31.09z" transform="matrix(-2.873976 0 0 -2.876377 416.160199 1729.33555)" class="C"/></g></g></svg>