<svg xmlns="http://www.w3.org/2000/svg" width="1280" height="720" xmlns:v="https://vecta.io/nano"><style><![CDATA[.B{clip-path:none}.C{fill:#ffc93c}.D{fill:#a184dc}.E{fill:#bc9353}.F{fill:#1e5c93}.G{fill:#34c3ff}.H{stroke-miterlimit:10}.I{fill:#1ead28}]]></style><defs><clipPath ><path d="M0 0h708.12v398.41H0z" stroke-width="0" fill="none"/></clipPath><linearGradient x1="1313.87" y1="-1344.05" x2="1314.91" y2="-1344.05" gradientUnits="userSpaceOnUse" gradientTransform="matrix(0,761.1636,-761.34315,0,-1022639.6,-1000105.5)" spreadMethod="pad" id="B"><stop offset="0" stop-color="#ff7b54"/><stop offset="1" stop-color="#d64e4e"/></linearGradient></defs><path d="M1280 720V0H0v720z" fill="url(#B)" class="B"/><path d="M450.64 162.842h625.391V566.04H450.64z" fill="#fff" class="B"/><path d="M0 695.074V720h1280v-24.926z" class="B D"/><path d="M410.918 433.88c-1.769 9.272-10.713 15.361-19.987 13.592l-21.041-4.01 6.402-33.565 21.04 4.019c9.265 1.771 15.365 10.713 13.586 19.963M71.475 496.538c-8.624-3.848-12.475-13.949-8.624-22.57l8.747-19.558 31.199 13.959-8.746 19.549c-3.849 8.621-13.953 12.472-22.576 8.621" class="B E"/><path d="M138.009 184.943h179.085v58.61H138.009z" class="B F"/><path d="M147.339 177.442c-5.066 33.686 18.15 65.075 51.827 70.14 33.684 5.065 65.083-18.146 70.147-51.815 5.066-33.686-18.151-65.078-51.827-70.13-33.684-5.065-65.084 18.146-70.147 51.806" fill="#f6c" class="B"/><path d="M251.454 337.63c.434-5.94 1.516-26.544-25.326-26.544l-40.794-11.857C144.08 332.266 91.322 406.04 71.089 454.879l31.963 14.101c48.353-73.388 70.186-91.732 70.186-91.732l-3.249 63.74 90.956 6.231c9.385-82.932-9.491-109.609-9.491-109.609" class="B C"/><g class="G"><path d="M172.25 441.147l-2.261-.159-28.837 254.067h33.168s18.915-64.239 52.495-128.743l.923-1.824c19.093-37.387 28.828-78.537 33.207-117.269z" class="B"/><path d="M259.212 441.147l2.259-.159 28.827 254.067h-33.166s-18.905-64.239-52.497-128.743l-.923-1.824c-19.084-37.387-28.825-78.537-33.205-117.269z" class="B"/></g><path d="M266.009 318.136s24.383 75.159 110.753 91.527l-6.872 33.799s-107.101-14.985-131.86-84.383l-2.297-62.29 30.257 21.346z" class="B C"/><path d="M174.32 695.074h-45.433m173.416 0h-45.445" class="B H" fill="none" stroke="#000" stroke-width="2.277"/><path d="M269.86 337.63c0 28.163-22.831 50.986-50.998 50.986-28.16 0-50.991-22.823-50.991-50.986 0-28.151 22.831-50.977 50.991-50.977 28.167 0 50.998 22.826 50.998 50.977" class="B C"/><path d="M240.466 120.448c10.969 30.647 40.503 53.369 76.204 56.673.253 2.578.405 5.185.405 7.821 0 46.158-40.201 83.564-89.807 83.564-49.595 0-89.796-37.406-89.796-83.564 0-3.012.178-5.978.499-8.923 5.591 1.007 11.373 1.552 17.285 1.552 39.654 0 73.292-23.944 85.193-57.143" class="B E"/><path d="M227.288 101.379c46.761 0 85.154 33.254 89.382 75.742-35.701-3.304-65.235-26.026-76.204-56.673-11.879 33.199-45.518 57.143-85.191 57.143a97.56 97.56 0 0 1-17.285-1.552c4.791-41.953 42.929-74.641 89.278-74.641" class="B F"/><path d="M222.062 312.028c-11.185-.8-19.611-10.503-18.82-21.686l4.256-60.145 40.5 2.853-4.244 60.145c-.791 11.19-10.499 19.604-21.692 18.814" class="B E"/><path d="M252.018 191.812a8.71 8.71 0 0 0 8.71 8.708c4.811 0 8.718-3.896 8.718-8.708a8.72 8.72 0 0 0-8.718-8.715c-4.811 0-8.71 3.906-8.71 8.715m-57.795 0c0 4.812 3.907 8.708 8.717 8.708a8.71 8.71 0 0 0 8.708-8.708c0-4.812-3.897-8.715-8.708-8.715s-8.717 3.906-8.717 8.715" class="B"/><g fill="none" stroke="#000" stroke-width="3" class="H"><path d="M245.072 219.428c0 8.886-7.213 16.096-16.1 16.096a16.11 16.11 0 0 1-16.109-16.096m19.508-6.597a6.78 6.78 0 0 1-6.778-6.776c0-3.747 3.03-6.778 6.778-6.778m157.111 225.314c.723 3.294 3.963 5.373 7.231 4.65 3.294-.725 5.355-3.964 4.649-7.229" class="B"/><path d="M397.559 429.147a8.76 8.76 0 0 0-9.556 7.858c-.47 4.809 3.032 9.094 7.861 9.564" class="B"/></g><path d="M611.675 455.763l-11.212-8.865-6.903-12.614-2.964-2.701 1.318-4.441-.537-3.417 7.156-9.706-1.066-7.115 1.678-2.193 9.66-6.899 2.521.593 3.436 2.785 9.407-.236 10.458 8.313 8.03 1.788 4.088 5.515.178 3.634 3.577 1.496 15.073 4.479 4.577 3.096 3.991 1.554 1.017 5.111-7.25 8.424-.744 9.959-3.849 8.819-4.934 1.186-6.797 5.224.584 4.048-10.094 14.985-3.615-.829.904 5.26-4.915 4.171-4.029-.47.236 4.479-1.967 1.448-2.918-.742.385 10.089-2.608 2.798 3.567 2.417.434 1.525-4.266 7.624 2.601 6.561 6.165 3.397-3.926 1.694-5.546-1.985-4.321-3.887-4.179-7.277-1.374-6.344.904-13.337-2.75-3.887.424-2.824-1.545-4.132 2.711-7.679-.81-10.882.69-4.667.02-9.554z" class="B C"/><path d="M585.662 379.619l.943-.508-.06-.564 4.208-1.535 7.522 2.908 6.421 3.022-2.654.959-3.258-.292.67-1.063-2.591-2.316-6.214-1.431-4.415 1.082zm20.947 4.282l1.273 2.241 1.241 2.306 1.357-1.516 4.651-.451-2.882-2.438z" class="B I"/><path d="M610.629 504.981l.453 3.54.95-.453-.121-2.219z" class="B C"/><path d="M598.513 405.55l-1.93-1.92-2.08-.557-3.671 1.59-4.21-3.65 1.48-8.284-2.28-1.147-7.549-.405 1.138-4.8 3.012-5.515-.535-.81-6.025 1.043-2.977 5.046-5.338.573-4.367-4.932 2.326-15.069 6.909-3.132 5.488 1.345 2.572-2.766 9.828 2.419 1.251 5.836 2.478 2.624 1.28-3.434-1.176-9.742 10.58-8.605.791-4.065 4.444-7.407 5.772-1.771 2.145-5.318 7.324-2.928-.02 4.397 11.73-5.93-7.975-2.279.547-8.443 16.107-4.894-7.833-10.645-1.533-11.455-6.112 4.641-2.456-5.036.347-2.747-4.471-6.007-6.327-.178-1.713 7.915-3.259 3.983 1.904 2.436.432 4.858-6.599 3.436-1.063 9.072-2.572.34-2.87-4.602 1.195-7.05-13.774-7.52-.178-3.737-.622-4.178 13.473-12.339 8.153-7.303 4.821.017 5.497-9.571 3.596-1.308 7.664 7.067-4.162 7.287-5.62 1.713-.885 3.773 5.281.292 9.65 8.009 9.423-13.515-5.516-9.243 1.884-3.952-8.247-13.612-.217-3.887-14.95-2.27-5.801 9.667-3.755 7.209-2.251-4.79 8.577-15.163-11.956-2.128-5.112 3.935 2.4 12.67-2.542 8.226-7.542-.489 2.1-10.506-2.278-4.716 6.073-10.409-9.038 3.397-5.319-4.79-.754-5.581-6.618-3.07-8.841 9.395 2.75 4.197 3.003 4.347.123 8.012-14.914-8.641-15.109 2.371-21.966-22.486-23.084 10.053 1.61 11.491-6.975-1.251-5.312 4.479 7.664 4.087-1.94 3.313-14.224 8.038 7.56 12.178-5.497 8.067.742 1.516 14.208-8.405 12.851-2.147 12.021 10.73 2.439 14.457 5.103 13.065-.169 14.004-4.088 14.768 3.372 14.816 5.187 3.708 3.793 9.788.02 4.848 5.244 5.949-.366-3.964-3.032-6.973 1.788-1.667 10.807 18.072-.234 3.183 15.184 7.718 3.013-.867 11.92 4.809 5.78 7.099 7.683 4.735 1.731-2.694 3.511 1.94zm51.753-187.372l-1.535 12.395 11.419 3.728 4.218 27.898-5.064 7.409 3.512 19.698 5.422 2.908 8.85-15.407 25.89-12.33 6.129-16.802 2.871-3.708.903-15.614 10.282-15.937-8.115-5.732-5.17-7.737-10.007-3.378-12.221 5.422-16.739 2.043-5.516 5.477-6.959 8.838zm-68.595-6.976l2.56 7.954 4.379 5.949 11.711-2.646-3.051-6.465-6.129-1.807 1.629-5.499zm34.193 8.679l1.807 11.747 13.69 2.73.574-4.472-10.176-2.851.06-4.067zm10 3.935l7.483 1.966 15.921-13.007 22.709-12.556-3.184-5.807-13.519-3.54-17.191 3.65 1.195 10.467-3.275.029-2.063-8.886-7.409 7.983-1.26 9.92 2.475.858.81 4.855zm-14.914-15.937l1.065 3.993 2.767 1.901 2.588-8.501-3.634-2.475zm-4.341 68.128l5.837.612-2.54-6.503z" class="B I"/><path d="M726.147 354.798l-9.631 13.489-9.547 12.009 1.14 15.804 12.078 14.992 11.383 2.675 12.098-4.894 10.986 6.935-1.629 7.682 8.389 17.421-4.029 11.024 5.931 19.662 7.842 14.804 10.742-1.957 12.993-15.127 4.5-4.347-.81-6.496 10.318-8.489-.236-8.424-1.591-9.865 9.961-14.691 9.094-7.465 2.326-10.082-11.711 2.108-9.058-10.354-10.787-21.272.327-7.802-10.139-.019-14.085-3.106-3.528 5.036-15.252-7.06-.378-6.947-18.961 3.475zm89.806 97.541l.771 6.841-2.617 5.376 5.951 3.012 7.061-20.076-1.205-4.622-4.671 6.034z" class="B" fill="#ff7b54"/><path d="M748.761 222.621l3.748 9.421 3.632 5.149 3.126-9.686 4.538 4.735 1.639-3.022-2.384-4.566 4.794-5.412-9.132-3.34-3.003 5.026zm-47.976 55.353l5.394 7.52 10.159-6.465-3.476-3.313z" class="B I"/><path d="M776.656 268.309l2.063-5.46-8.917-2.222-12.596 7.031-7.975 19.428-5.064 4.356 3.256 10.082 5.498-4.029 3.719 9.13 5.01-.687 1.967-8.407-1.554-9.344 6.948-10.59 3.88 2.296-4.133 10.137 1.769 4.556 9.763-1.318 4.876-6.872zm-45.916 32.727l7.976 15.812-2.297 2.711-7.72 1.554.781-6.995-3.871-12.226zm-7.247 7.462l3.218 2.824-1.355 6.617-5.639-1.289zm-1.376 27.908l-.376 12.754 5.225 3.766 8.002-2.805 7.25-13.518 10.411-2.024 9.434 8.744 1.055 5.13 3.126-5.6-9.293-9.629 2.222-3.219 11.609 10.448-.404 3.031 5.789 7.576 1.846-2.371-2.675-6.287 5.724.489 3.747 8.262 14.461-.036 12.776-2.043 2.006-4.479 7.681-.133-1.572-5.658-12.219 1.084-18.51 1.231-5.799-2.944 5.329-9.997 13.273-2.908-.02-4.301-14.613-6.429-7.898-17.12-5.442-.754-1.516 13.084-17.823 1.373-3.576-8.152-1.77.942.432 8.197-6.476 2.222-7.315 10.306-7.013.576 5.562 5.985-.846 6.561z" class="B F"/><path d="M796.899 369.942l3.162-.414 16.663 25.903 25.278-12.667 1.988-4.019-8.568-5.366-9.472 1.357-3.887-10.551 2.024-.528 12.106 6.25 20.535 4.14 10.995 9.217 11.043 22.354 3.456-13.751 11.306-11.633 6.968-1.393 15.393 15.614-.161 11.351 3.984 5.441 2.287-2.212-2.815-13.404 9.074 6.467 6.903-5.149-6.618-14.532 19.977-8.188 4.555-15.484-6.919-15.455 5.659-6.409 9.358 13.12 4.895-3.397-7.664-9.817 14.415-23.146-4.001-18.975-10.197-5.891 2.899-12.527 17.079-6.017 3.2-10.231 8.277-5.185.489 14.127-2.099 11.409 10.45 16.893.612-17.44-4.914-15.173 17.698-16.848-6.006-10.467-.716-6.843 9.416-2.041-5.367-10.609-34.28-1.316-14.619 7.472-23.989-4.518-21.088 13.272-13.256-8.388-19.686 9.356-3.832-16.33-16.719-3.793-7.411 11.294-12.145 17.055-5.459 7.624-7.288-5.619-1.572 12.115-7.719 5.742-19.047 8.715-9.226-.039-13.584-7.614-2.063 5.46 8.51 18.089-4.876 6.872-.583 4.152 7.898 17.12 14.613 6.429.02 4.301-2.767 7.154 8.474 7.465 12.219-1.084 1.572 5.658-7.681.133-2.006 4.479-12.776 2.043-2.044 11.021zM819.785 227.9l2.333 3.53-9.132 12.913-.884 6.976 3.991 5.082-5.187.161-3.473-4.226 3.823-17.874zm19.826-30.76l-.431 5.93 18.056 9.8 4.086-4.472z" class="B D"/><path d="M1021.906 527.619l2.673 5.458 25.203-23.568-6.505-10.532-2.861 13.479zm-43.071-36.399l3.087 9.385 18.228.742 11.795-27.727-10.59-17.78-4.933-12.906-7.175 10.759-7.503-1.92 2.297-8.489-9.368-.528-33.027 20.821-.752 27.953 27.151-6.193z" class="B G"/><path d="M978.777 319.775l.509 16.2-2.91 7.171-9.31 8.388 1.649 4.46 15.976-10.843.338-19.973zm-43.231 99.647l2.307 7.617 9.236 1.617 5.733-17.778-3.634-3.238-9.829 10.898z" class="B D"/><path d="M976.263 421.702l3.239 7.342 15.958 9.467 15.639 1.224-5.62-7.229-17.917-8.489z" class="B G"/><path d="M911.879 413.447l9.31 13.026 7.286 5.752.472-6.778-7.382-7.284-7.315-6.795z" class="B D"/><path d="M399.574 426.547l325.001-190.336" fill="none" stroke="#ff7b54" stroke-width="3" class="B H"/></svg>