<svg xmlns="http://www.w3.org/2000/svg" width="1280" height="720" xmlns:v="https://vecta.io/nano"><defs><linearGradient id="A" gradientTransform="matrix(0,-292.41269,-292.16951,0,347191.87,-112753.13)" x1="-388.15" y1="1186.15" x2="-385.51" y2="1186.15" gradientUnits="userSpaceOnUse" spreadMethod="pad"><stop offset="0" stop-color="#3291ff"/><stop offset="1" stop-color="#35c2ff"/></linearGradient></defs><path d="M0 0h1280.001v720H0z" clip-path="none" fill="url(#A)"/><g transform="translate(-30126.809 -861.478)"><path d="M30594.839 1581.478h331.592c-5.341-41.731-11.774-83.299-22.194-123.977-6.386-24.927 10.444-4.812 20.955-6.496 3.48-33.33 24.178-64.112 53.34-80.471-42.28-29.455-89.06-53.099-139.062-66.127-13.631-5.069-16.727-7.454-30.848-1.607-16.679 6.671-42.53 19.136-67.766 9.461-23.53-5.969-39.769 4-59.318-7.73-30.365 6.822-66.41 16.782-93.031 32.859-18.587 16.071-32.462 25.503-53.762 45.807 7.314 26.268 53.321 79.975 61.649 76.758.677 40.511.102 81.04-1.555 121.524z" fill="#1e5c93"/><path d="M30551.215 1143.732c.883 2.6 3.955 25.193 7.631 56.261 3.004 25.393 20.513 28.662 31.856 28.662 31.21 51.051 56.56 56.589 64.32 61.76 8.669 5.777 17.877 10.724 22.515 12.095 1.695.501 3.368 1.382 4.002 2.02-2.601-2.201 10.514 14.13 15.461 19.237 11.143 11.508 24.824 19.518 38.424 22.498 17.911 3.924 36.133-1.138 47.567-13.215 5.916-6.248 9.278-12.375 10.781-19.647l34.139-24.373c31.753-18.852 84.414-153.98 93.75-183.17l-167.281-176.977zm137.152 162.881c.09.03.09.012.181.043.06.018.148.038.203.057-.06-.021-.179-.043-.24-.064-.07-.025-.07-.01-.144-.035zm445.894 36.117c-3.939-.817-9.005.095-13.518 3.083-17.398 13.892-32.777 29.644-49.066 44.784-38.213 28.918-88.709-17.05-93.145-20.062-26.626-18.074-78.129 73.3-53.34 80.469 71.326 44.547 155.068 67.506 224.958 11.31 1.355 0 26.922-13.12 31.753-16.294 9.251-6.078 18.693-16.524 15.37-22.951-5.615-10.858-31.485 4.645-35.567 4.645-.09 0 4.114-3.981 9.343-8.847 12.688-11.808 14.39-13.976 14.39-18.34 0-4.693-3.368-8.197-8.425-8.767-8.023-.904-24.663 13.149-29.485 13.149-.281 0 4.631-5.22 10.916-11.599 12.482-12.668 14.428-15.454 13.742-19.681-4.89-17.139-28.652-1.674-36.855 3.084-12.182 7.167-12.453 7.234-8.737 2.179 7.411-10.082 14.413-24.109 14.413-28.875 0-3.924-2.811-6.471-6.749-7.288zm-756.441 11.515c-8.454 1.405-12.771 7.08-9.606 12.625 2.615 4.583 16.981 18.48 24.133 23.346 10.088 6.866-22.994-8.511-39.378-4.072-8.343 2.795-10.746 11.801-4.428 16.597 3.22 2.445 13.878 8.487 22.791 12.923 3.785 1.883 6.881 3.618 6.881 3.854 0 2.356-24.474-6.544-31.578-4.281-3.995 1.273-6.955 5.114-6.955 9.026 0 4.706 3.702 7.765 17.694 14.627l12.582 6.171-11.516-.439c-13.99-.533-17.3-.082-20.362 2.778-6.789 6.341 1.295 16.089 17.478 21.076 47.409 9.886 93.659 21.074 142.939 18.738 33.727-3.15 97.898-27.26 97.898-27.26l-61.648-76.759c-46.662 7.696-63.945 11.074-108.565-9.746-31.704-15.864-42.549-20.172-48.359-19.207z" fill="#bc9353"/><path d="M30701.516 1218.261c0 24.422 19.798 44.232 44.221 44.232s44.179-19.81 44.179-44.232m-53.547-18.062c10.259 0 18.572-8.303 18.572-18.572 0-10.258-8.313-18.572-18.572-18.572" clip-path="none" fill="none" stroke="#000" stroke-width="8.141" stroke-miterlimit="10"/><path d="M30555.169 1168.925c-1.079-10.818-11.483-29.048 2.405-31.917 62.179-20.532 136.044-28.242 201.06-35.311 31.904-2.168 64.915-4.269 95.511 7.001 15.844 5.407 48.491 1.3 63.62 8.485 16.021 10.363-7.185 49.256-5.042 63.896 1.98 10.387-10.424 26.376-23.56 20.023-35.635-10.554-72.686-15.73-109.517-20.232-28.676-2.564-57.656 1.769-84.684 11.539-22.761 7.274-46.847 10.821-70.661 7.59-17.444-2.944-33.369 5.833-50.148 7.267-6.712.683-30.237-5.927-18.984-38.342z" fill="#ffc93c"/><path d="M30551.215 1143.732c-26.994-14.768-17.311-55.156-36.174-58.056 5.799-4.861 15.194-91.406 63.292-112.222 27.977-25.762 72.912 8.474 86.055-34.124 42.3-36.729 104.812-45.901 158.376-33.888 41.125 9.171 64.572 46.608 80.745 82.264 1.561 32.266 50.444 20.695 60.928 36.668-31.132 17.404-7.463 60.015-42.776 81.486-5.408 28.184-45.17 20.763-35.7-6.426-1.648-22.144-38.87-53.123-15.1-14.29 12.033 26.206-35.356-10.81-49.128-1.465-31.678 9.08-50.594-46.149-68.515-6.478-15.44 15.625-72.437 35.291-74.014 23.771 14.266-10.495 50.432-46.708 10.446-25.666-24.99 7.076-62.697 50.212-45.951 11.592-22.118 16.483-29.231 48.523-61.267 48.347-10.153-2.56-26.656 18.271-31.217 8.486z" fill="#7c2869"/></g></svg>