<svg xmlns="http://www.w3.org/2000/svg" width="1280" height="720" xmlns:v="https://vecta.io/nano"><defs><linearGradient id="A" gradientTransform="matrix(0,763.16996,762.53251,0,-752924.54,-1004797.2)" x1="1317.442" y1="988.242" x2="1316.696" y2="988.242" gradientUnits="userSpaceOnUse" spreadMethod="pad"><stop offset="0" stop-color="#f6a227"/><stop offset="1" stop-color="#ffc93c"/></linearGradient></defs><path d="M0 0h1280.001v720H0z" clip-path="none" fill="url(#A)"/><path d="M843.221 665.838a43.18 43.18 0 0 1-10.363-1.295c-12.233-3.022-36.988-17.847-58.865-30.8-12.377-7.34-24.035-14.392-32.239-18.422L507.446 481.903l-270-153.998c-.576-.288-17.127-8.348-18.567-21.301-.499-7.907-.547-15.835-.143-23.748 0-2.735.143-5.469.143-8.491h2.159c0 2.974 9.132 4.145 9.036 6.831 3.367 9.104 2.791 3.347 3.367 9.104 8.815 9.412 7.813 8.049 17.61 15.765l264.428 151.972 233.924 136.713c8.203 4.174 27.231 11.277 39.609 18.761 21.732 12.953 33.895 17.086 45.841 19.965 21.732 5.325 22.761 1.367 30.389-7.269 27.201-30.368 44.473-58.927 69.516-88.143 27.346-32.095 44.503-64.611 60.91-82.17 10.651-11.946 37.676-37.894 37.676-38.326h2.159c.144 1.871 4.174 46.919-7.196 59.584-16.408 17.559-40.011 45.192-67.357 77.143l-80.453 92.831c-10.794 12.234-23.891 18.71-37.276 18.71z" fill="#a184dc" stroke="#527a8a" stroke-width="0" stroke-miterlimit="10"/><path d="M836.6 642.666a49.65 49.65 0 0 1-24.755-6.333l-574.399-332.32c-9.931-5.757-16.408-14.392-18.135-24.467a32.53 32.53 0 0 1 7.772-26.914L381.945 70.857c14.105-16.407 41.594-20.581 61.311-9.355h0l574.112 332.32c9.931 5.757 16.408 14.392 18.135 24.467a32.53 32.53 0 0 1-7.772 26.914L873.157 626.979c-8.78 10.218-22.596 15.688-36.557 15.688z" fill="#1e5c93"/><g stroke="#527a8a" stroke-width="0" stroke-miterlimit="10"><path d="M775.576 585.96L309.12 321.141l.431-.576 171.701-205.523.432.288 466.025 264.532-.432.576z" fill="#34c3ff"/><g fill="#1e5c93"><path d="M341.071 215.932l30.943-36.988a3.166 3.166 0 0 1 2.879-1.295l3.166 1.727c.72.432.432 1.583-.432 2.735l-30.655 36.988a3.166 3.166 0 0 1-2.879 1.295l-3.166-1.727c-.864-.432-.72-1.727.144-2.734z"/><path d="M344.381 221.833h-.72l-3.31-1.871a2.447 2.447 0 0 1-1.295-1.727 3.742 3.742 0 0 1 1.151-3.166l30.944-36.845a4.462 4.462 0 0 1 4.174-1.871h.288l3.31 1.871a2.303 2.303 0 0 1 1.151 1.583 4.318 4.318 0 0 1-1.151 3.166l-30.8 36.988a4.462 4.462 0 0 1-3.742 1.871zm-2.591-4.318l2.591 1.439a1.727 1.727 0 0 0 1.295-.72l30.8-37.132.432-.72-2.447-1.439a1.727 1.727 0 0 0-1.295.72l-31.088 37.132zm-.287-.144zm-13.529 14.249a3.742 3.742 0 0 1 4.605-.72 2.447 2.447 0 0 1 1.583 3.022h0l-.431.72a3.742 3.742 0 0 1-4.606.72 2.447 2.447 0 0 1-1.583-3.022h0z"/><path d="M330.996 236.801a4.606 4.606 0 0 1-2.303-.72 3.31 3.31 0 0 1-2.015-4.174v-.288l.576-.864a4.749 4.749 0 0 1 5.901-.863 3.166 3.166 0 0 1 1.727 1.583 3.31 3.31 0 0 1 .144 2.591v.288l-.432.72a4.893 4.893 0 0 1-3.598 1.727zm-2.59-4.174a1.439 1.439 0 0 0 .863 1.871h.144a2.878 2.878 0 0 0 3.742-.432l.288-.432a1.439 1.439 0 0 0-.864-1.871h-.144a2.878 2.878 0 0 0-3.598.432zm580.732 301.089a36.701 36.701 0 0 1-17.991-4.606 26.05 26.05 0 0 1-13.385-17.559 20.869 20.869 0 0 1 4.75-17.415h0c9.211-11.082 28.353-13.673 42.313-5.757a26.05 26.05 0 0 1 13.385 17.559 20.869 20.869 0 0 1-4.749 17.415c-5.613 6.764-14.824 10.362-24.323 10.362zm-25.763-38.859a19.718 19.718 0 0 0-4.461 16.407 24.899 24.899 0 0 0 12.809 16.695c13.673 7.628 31.951 5.181 40.874-5.469a19.718 19.718 0 0 0 4.462-16.407 24.899 24.899 0 0 0-12.809-16.695c-13.673-7.628-31.951-5.181-40.875 5.469z"/></g></g><g transform="matrix(.415301 -.591723 .591723 .415301 -11440.256 12592.802)"><path d="M23452.782 4065.438c-2.409-10.334-5.46-50.861-6.552-87.037l-.695-23.037 6.5-5.003 6.5-5.003-.671 16.541-1.865 51.541c-1.481 43.409-2.265 56.084-3.217 52zm-106.747-36.382c0-.55.45-1.278 1-1.618s1-.168 1 .382-.45 1.278-1 1.618-1 .168-1-.382zm14-18.496c0-.208.788-.995 1.75-1.75 1.586-1.244 1.622-1.209.378.378-1.307 1.666-2.128 2.195-2.128 1.372zm11-14c0-.208.788-.995 1.75-1.75 1.586-1.244 1.622-1.209.378.378-1.307 1.666-2.128 2.195-2.128 1.372zm11-14c0-.208.788-.995 1.75-1.75 1.586-1.244 1.622-1.209.378.378-1.307 1.666-2.128 2.195-2.128 1.372zm11-14c0-.208.788-.995 1.75-1.75 1.586-1.244 1.622-1.209.378.378-1.307 1.666-2.128 2.195-2.128 1.372zm83.419-42.47l5.081-6.348 22.5.651c44.534 1.288 91.832 4.539 91.095 5.276-.205.205-7.98 1.235-17.279 2.29-20.472 2.321-47.828 2.858-81.397 3.786l-25.08.693zm-81.919 3.757c-20.855-.968-66.305-3.812-76.5-4.786l-7.5-.717 8.5-.728c26.278-2.251 112-4.736 112-3.246 0 .414-1.687 2.942-3.75 5.618l-3.75 4.865-6-.108c-3.3-.059-13.65-.463-23-.898zm52.865-45.505c1.004-30.434 5.178-99.281 6.075-100.177.72-.721 3.232 51.804 4.127 86.311l.675 26.038-5.783 4.366-5.783 4.366zm107.188-59.319c-.322-.521-.159-1.211.362-1.533s1.21-.159 1.532.362.16 1.211-.361 1.533a1.12 1.12 0 0 1-1.533-.362z" fill="#fff"/><path d="M23348.035 4027.427c0-.381 38.497-49.678 82.209-105.274 4.447-5.656 8.426-10.156 8.84-10 1.731.652 25.797 28.334 25.154 28.932-.791.736-62.52 46.901-94.953 71.012-11.687 8.689-21.25 15.587-21.25 15.329z" fill="#ff7b54"/><path d="M23439.084 3912.153l55.68-42.801 59.271-44.313c1.925-1.429 3.004-1.924 2.396-1.1-1.167 1.585-69.099 88.31-82.828 105.743-4.437 5.634-9.074 11.401-9.365 11.404-.533 0-18.847-20.981-25.154-28.932z" fill="#1dae27"/></g></svg>