<svg xmlns="http://www.w3.org/2000/svg" xmlns:xlink="http://www.w3.org/1999/xlink" width="1280" height="720" xmlns:v="https://vecta.io/nano"><style><![CDATA[.B{clip-path:none}.C{fill:none}.D{stroke-linejoin:round}.E{stroke:#ffc93c}.F{stroke-width:8.972}.G{fill:#34c3ff}.H{stroke-linecap:round}]]></style><defs><clipPath ><path d="M0 0h708.12v398.41H0z" stroke-width="0" class="C"/></clipPath><clipPath ><path d="M-14.17-14.17h736.48v426.75H-14.17z" stroke-width="0" class="C"/></clipPath><linearGradient id="C" gradientTransform="matrix(0,-821.95585,821.2692,0,-2215201.7,1088272)" x1="1323.02" y1="2698.04" x2="1324.1" y2="2698.04" gradientUnits="userSpaceOnUse" spreadMethod="pad"><stop offset="0" stop-color="#7c2869"/><stop offset="1" stop-color="#c3598c"/></linearGradient><path id="D" d="M197.481 568.65s-3.619 8.111-11.38 15.88c-7.764 7.762-15.771 11.74-15.771 11.74"/></defs><path d="M0 0h1280v720H0z" fill="url(#C)" class="B"/><path d="M0 0h1280v720H0z" fill="url(#C)" class="B"/><path d="M633.477 594.736v47.497M534.944 533.92l-34.548 22.201m238.241-22.201l34.558 22.201m-195.516 21.974l-21.835 33.255m140.086-33.255l21.832 33.255" class="B C D E H" stroke-width="11.735"/><path d="M1117.25 0l1.051 1.617c15.2 24.121 30.708 53.436 32.592 67.188 4.114 30.034-3.337 54.165-13.332 78.244s-22.727 47.852-27.32 76.014c-11.531 70.707 9.176 141.727 9.176 141.727l13.877-4s-19.634-68.959-8.799-135.402c4.109-25.194 16.064-47.886 26.406-72.801s18.88-52.307 14.301-85.74c-2.564-18.715-16.65-43.774-30.961-66.846h-16.99zM860.07 0c.08 6.45.58 13.135 1.285 19.654 2.315 21.415 6.914 41.055 6.914 41.055l14.064-3.283s-4.425-19.006-6.621-39.322C875.051 11.99 874.614 5.768 874.53 0h-14.46zM585.207 0c-3.091 4.886-5.977 9.859-8.352 14.902-5.764 12.245-9.177 24.977-6.187 37.113 10.044 40.785 35.959 65.391 56.074 117.412 9.537 24.71 9.692 57.232 7.107 83.363s-7.652 45.654-7.652 45.654l13.979 3.631s5.349-20.584 8.047-47.863 2.999-61.475-8.008-89.99l-.002-.002v-.002c-21.032-54.392-46.583-79.36-55.521-115.656-1.757-7.134.228-16.88 5.232-27.51 3.254-6.913 7.734-14.078 12.67-21.053h-17.387zM110.443 0c12.469 20.949 25.839 50.063 36.207 80.102 13.741 39.81 22.16 81.737 18.457 107.793v.002.002c-3.047 21.491-10.45 39.039-19.668 51.5-.925-1.536-1.824-3.106-2.799-4.574-6.527-9.83-14.138-18.037-22.994-22.652s-20.311-4.632-28.576 2.684c-13.508 11.956-18.299 24.623-16.158 35.326s10.102 17.867 18.037 21.357c16.082 7.077 33.675 3.507 48.266-7.314 4.544 12.617 6.556 25.574 4.52 34.416-7.783 33.721-10.948 51.695-12.187 61.559-.62 4.932-.769 7.819-.711 9.861.029 1.021.102 1.834.287 2.695a8.55 8.55 0 0 0 .412 1.379c.198.503.932 1.693.932 1.693l11.633-8.559s.709 1.156.871 1.566.233.702.273.889c.08.374.039.341.027-.072-.023-.826.041-3.161.605-7.652 1.129-8.983 4.209-26.654 11.932-60.115v-.002c3.455-14.996-.119-32.49-7.092-48.424 13.162-15.087 22.917-36.929 26.689-63.531v-.002c4.397-30.941-4.967-73.577-19.104-114.535C150.754 47.726 139.005 21.208 127.121 0h-16.678zm-4.133 222.916c1.898-.073 3.961.657 6.662 2.064 5.402 2.815 12.003 9.347 17.637 17.832 1.617 2.435 3.119 5.056 4.547 7.756-11.908 10.224-24.457 13.002-36.391 7.75h-.002c-4.34-1.909-8.726-6.153-9.689-10.969s.386-11.782 11.568-21.68c2.039-1.804 3.771-2.681 5.668-2.754zM384.395 0c3.339 32.346-4.258 56.91-4.258 56.91l13.783 4.314S402.194 34.958 398.898 0h-14.504z" fill="#1e5c93"/><use xlink:href="#D" class="B C D E F"/><path d="M140.225 625.602c-51.729 0-84.831-47.629-84.831-80.768 0-61.447 42.425-58.69 42.425-114.605h84.492c0 44.176 43.45 65.584 43.45 110.447s-38.619 84.908-85.517 84.908" class="B G"/><path d="M416.768 292.547s8.017-3.969 15.769-11.74c7.764-7.771 11.392-15.88 11.392-15.88" class="B C D E F"/><path d="M386.692 321.879c-51.739 0-84.831-47.629-84.831-80.768 0-61.447 42.406-58.683 42.406-114.605h84.482c0 44.183 43.46 65.584 43.46 110.447 0 44.872-38.619 84.908-85.517 84.908" class="B G"/><path d="M909.652 292.547s8.017-3.969 15.771-11.74c7.762-7.771 11.39-15.88 11.39-15.88" class="B C D E F"/><path d="M879.577 321.879c-51.739 0-84.831-47.629-84.831-80.768 0-61.447 42.425-58.683 42.425-114.605h84.485c0 44.183 43.448 65.584 43.448 110.447 0 44.872-38.609 84.908-85.517 84.908" class="B G"/><path d="M633.131 554.324c-51.739 0-84.831-47.627-84.831-80.768 0-61.447 42.425-58.68 42.425-114.596h84.492c0 44.176 43.448 65.577 43.448 110.447 0 44.862-38.617 84.908-85.517 84.908" fill="#ffc93c" class="B"/><path d="M633.131 554.324c-51.739 0-84.831-47.627-84.831-80.768 0-61.447 42.425-58.68 42.425-114.596h84.492c0 44.176 43.448 65.577 43.448 110.447 0 44.862-38.617 84.908-85.517 84.908zm522.988 41.946s8.007-3.978 15.769-11.74c7.755-7.769 11.383-15.88 11.383-15.88" class="B C D E F"/><path d="M1126.015 625.602c-51.739 0-84.831-47.629-84.831-80.768 0-61.447 42.425-58.69 42.425-114.605h84.482c0 44.176 43.46 65.584 43.46 110.447s-38.619 84.908-85.517 84.908" class="B G"/><g fill="#1e5c93"><path d="M172.276 371.548s-6.694-17.517-31.974-17.517-31.795 17.517-31.795 17.517z" class="B"/><path d="M194.745 444.48H86.044l14.436-72.951h79.829zM418.919 70.665s-6.701-17.524-31.974-17.524c-25.282 0-31.795 17.524-31.795 17.524z" class="B"/><path d="M441.362 143.596H332.68l14.436-72.932h79.81zm470.443-72.931s-6.701-17.524-31.983-17.524c-25.273 0-31.795 17.524-31.795 17.524z" class="B"/><path d="M934.268 143.596H825.564L840 70.665h79.832zm223.976 226.757s-6.694-17.517-31.976-17.517-31.793 17.517-31.793 17.517z" class="B"/><path d="M1180.713 443.285h-108.692l14.436-72.932h79.82zm-515.356-149.11s-6.691-17.527-31.974-17.527-31.795 17.527-31.795 17.527z" class="B"/><path d="M687.829 367.107H579.125l14.436-72.932h79.832z" class="B"/></g><g stroke="#1e5c93" stroke-width="5.416" class="C D H"><use xlink:href="#D" class="B"/><path d="M443.929 264.928s-3.628 8.108-11.392 15.88c-7.752 7.771-15.769 11.74-15.769 11.74m520.045-27.62s-3.628 8.108-11.39 15.88c-7.755 7.771-15.771 11.74-15.771 11.74m273.619 276.102s-3.628 8.111-11.383 15.88c-7.762 7.762-15.769 11.74-15.769 11.74" class="B"/></g></svg>