<svg width="1280" height="720" viewBox="0 0 320 180" xmlns:xlink="http://www.w3.org/1999/xlink" xmlns="http://www.w3.org/2000/svg"><defs><linearGradient xlink:href="#a" id="b" gradientUnits="userSpaceOnUse" gradientTransform="matrix(0 190.79207 190.63329 0 -188231.29 -251198.75)" x1="1317.441" y1="988.242" x2="1316.696" y2="988.242" spreadMethod="pad"/><linearGradient x1="1317.441" y1="988.242" x2="1316.696" y2="988.242" gradientUnits="userSpaceOnUse" gradientTransform="matrix(0 422.56999 422.56999 0 -420470.1 -556190.17)" spreadMethod="pad" id="a"><stop style="stop-opacity:1;stop-color:#f6a227" offset="0"/><stop style="stop-opacity:1;stop-color:#ffc93c" offset="1"/></linearGradient></defs><path style="fill:url(#b);stroke:none;stroke-width:.601753" d="M0 0h320v180H0z"/><path class="st10" d="M259.743 96.91c-.095.973-1.428 11.172-11.902 11.172-10.99 0-9.15-10.897-9.15-10.897l-.032-.07-1.124-7.524c5.89-1.206 18.218-3.939 24.158-4.793l-1.964 12.111z" style="fill:#bc9353;fill-opacity:1;stroke-width:.860709"/><path style="fill:#1e5c93;fill-opacity:1;stroke-width:.860709" class="st8" d="M259.9 93.682c-.104.99-1.437 11.362-11.904 11.362-10.99 0-9.15-11.08-9.15-11.08l-.032-.072c-11.866 4.06-17.166 25.011-23.366 35.616-1.046.12-21.463-13.764-21.601-13.583-.933 1.171-4.68 5.615-4.68 5.615s12.206 17.4 20.435 24.077c-.022.31-.107 4.324-.164 6.486v.751h72.243c-1.525-14.966-5.165-29.97-6.998-44.787-1.135-11.029-9.4-13.772-14.783-14.385z"/><path class="st20" d="m209.676 146.073-.181 6.03h-21.982c.892-3.025 2.413-6.11 5.183-7.814 2.267-1.245 5.005-.858 7.363-.102 1.44.476 2.787 1.283 3.817 2.406 1.943-.056 3.865-.368 5.8-.52z" style="fill:#bc9353;fill-opacity:1;stroke-width:.860709"/><path style="fill:#bc9353;fill-opacity:1;stroke-width:1.02278" class="st12" d="M181.905 108.356c-2.799-.06-4.912 2.147-6.539 4.166-.817.95-3.068 3.465-.843 3.946 1.698-.27 2.622-1.984 4.144-2.6 1.432.016-.302 2.031.073 2.874 0 1.797 1.255 3.212 1.925 4.797.837 1.324 2.555 1.341 3.892 1.82 1.715.406 3.597.817 5.304.197 2.024-1.125 2.708-3.525 4.082-5.257.797-.877 1.97-2.54.433-3.353-2.314-1.175-4.228-3.019-6.483-4.31-1.799-1.162-3.777-2.318-5.988-2.28z"/><path style="fill:#a184dc;fill-opacity:1;stroke-width:.985394" class="st24" d="m106.228 102.367 18.305 50.225h88.789l-.097-3.166H178.75l-.525-1.46-16.945-45.47-2.926-.13z"/><path class="st26" transform="matrix(.86 0 0 .86141 36.195 -3.786)" style="fill:none" d="M98.62 177.14h67.56"/><path d="M95.52 165.816c0 16.637-13.485 30.129-30.129 30.129-16.641 0-30.125-13.484-30.125-30.129 0-16.64 13.484-30.125 30.125-30.125 16.644 0 30.129 13.485 30.129 30.125" style="fill:#bc9353;fill-opacity:1;fill-rule:nonzero;stroke:none" transform="matrix(1.14668 0 0 1.14855 171.795 -130.087)"/><path d="M59.543 170.609a2.874 2.874 0 0 0 2.871 2.875 2.882 2.882 0 0 0 2.875-2.875 2.88 2.88 0 0 0-2.875-2.871 2.876 2.876 0 0 0-2.871 2.871m-19.09 0a2.877 2.877 0 0 0 2.875 2.875 2.88 2.88 0 0 0 2.871-2.875 2.876 2.876 0 0 0-2.871-2.871 2.88 2.88 0 0 0-2.875 2.871" style="fill:#000;fill-opacity:1;fill-rule:nonzero;stroke:none" transform="matrix(1.14668 0 0 1.14855 171.795 -130.087)"/><path d="M57.246 179.73a5.315 5.315 0 0 1-5.316 5.317 5.32 5.32 0 0 1-5.317-5.317m6.434-2.175a2.234 2.234 0 1 1 0-4.469" style="fill:none;stroke:#000;stroke-width:.99;stroke-linecap:butt;stroke-linejoin:miter;stroke-miterlimit:10;stroke-dasharray:none;stroke-opacity:1" transform="matrix(1.14668 0 0 1.14855 171.795 -130.087)"/><path d="M65.398 135.691c-15.859 0-28.851 12.262-30.027 27.825h36.945v-5.746h.465c1.348 9.757 8.961 17.871 19.199 19.41.418.058.84.113 1.254.148a30.028 30.028 0 0 0 2.286-11.512c0-16.632-13.485-30.125-30.129-30.125" style="fill:#000;fill-opacity:1;fill-rule:nonzero;stroke:none" transform="matrix(1.14668 0 0 1.14855 171.795 -130.087)"/><path d="M101.355 173.977a6.202 6.202 0 0 0-6.351.367c-.332.226-.645.48-.93.773a6.223 6.223 0 0 0 1.551 9.906c5.672 1.817 9.906 1.204 13.957.243-1.543-3.864-3.473-7.688-8.219-11.282" style="fill:#000;fill-opacity:1;fill-rule:nonzero;stroke:none" transform="matrix(1.14668 0 0 1.14855 171.795 -130.087)"/><ellipse style="fill:#bc9353;fill-opacity:1;stroke-width:.451512" cx="123.855" cy="47.992" rx="28.294" ry="28.34"/><path class="st0" d="M115.05 40.554c-2.488 3.122-2.447 7.677.08 10.757a8.557 8.557 0 0 0 11.358 1.698l5.472 5.48a.579.579 0 0 0 .832 0l1.533-1.535a.583.583 0 0 0 0-.833l-5.471-5.48c2.212-3.325 1.857-7.87-1.066-10.809-3.563-3.578-9.511-3.334-12.74.722zm10.973 9.608a6.046 6.046 0 0 1-8.547 0 6.07 6.07 0 0 1 0-8.56 6.046 6.046 0 0 1 8.547 0c2.354 2.348 2.354 6.191 0 8.56z" style="fill:#f9fbfc;stroke-width:1.01591"/><ellipse style="fill:#1ead28;fill-opacity:1;stroke-width:.451512" cx="49.636" cy="47.992" rx="28.294" ry="28.34"/><path class="st0" d="m43.574 45.615-6.453 2.759 6.453 2.718-.844 1.954-7.736-3.462v-2.393l7.736-3.483zm9.506-6.383-4.686 18.02-2.227-.52 4.705-18zm11.198 7.952v2.393l-7.736 3.462-.844-1.954 6.434-2.718-6.434-2.759.844-1.913z" style="fill:#f9fbfc;stroke-width:.675604"/><ellipse style="fill:#7c2869;fill-opacity:1;stroke-width:.451512" cx="49.636" cy="120.473" rx="28.294" ry="28.34"/><path class="st9" d="M46.008 111.5c-1.422 0-1.896.387-1.896 1.453v4.758c0 1.861-.764 2.423-2.06 2.782 1.286.339 2.06.9 2.06 2.742v4.758c0 1.066.493 1.454 1.896 1.454v2.083c-3.59 0-4.614-1.153-4.614-3.556v-4.506c0-1.29-.34-1.793-1.51-1.793v-2.384c1.171 0 1.51-.523 1.51-1.812v-4.506c0-2.423 1.015-3.557 4.614-3.557zm11.842 1.482v4.507c0 1.288.34 1.812 1.538 1.812v2.374c-1.2 0-1.538.494-1.538 1.793v4.506c0 2.403-1.016 3.556-4.615 3.556v-2.083c1.403 0 1.897-.388 1.897-1.454v-4.758c0-1.832.764-2.403 2.06-2.742-1.287-.359-2.06-.93-2.06-2.782v-4.758c0-1.066-.475-1.453-1.897-1.453v-2.084c3.6.011 4.615 1.144 4.615 3.566z" style="fill:#f1f2f2;stroke-width:.968253"/><path style="fill:#ff7b54;fill-opacity:1;stroke:none;stroke-width:.755312" d="M107.719 151.838a8.971 8.971 0 0 0-8.984 8.999v14.968c0 1.526.41 2.939 1.073 4.195H320v-26.765a8.923 8.923 0 0 0-4.779-1.397z"/></svg>