<svg width="1280" height="720" viewBox="0 0 320 180" xmlns:xlink="http://www.w3.org/1999/xlink" xmlns="http://www.w3.org/2000/svg"><defs><linearGradient xlink:href="#a" id="b" gradientUnits="userSpaceOnUse" gradientTransform="scale(.75)" x1="353.75" y1="406.16" x2="353.75" y2="-12.08" spreadMethod="pad"/><linearGradient x1="353.75" y1="406.16" x2="353.75" y2="-12.08" gradientUnits="userSpaceOnUse" gradientTransform="scale(.75)" spreadMethod="pad" id="a"><stop style="stop-opacity:1;stop-color:#1ead28" offset="0"/><stop style="stop-opacity:1;stop-color:#248029" offset="1"/></linearGradient></defs><path d="M0 0h532v299H0z" transform="scale(.60253 .6024)" style="fill:url(#b);stroke:none"/><path style="fill:#1e5c93;fill-opacity:1;stroke:#ff7b54;stroke-width:0;stroke-miterlimit:10" d="M70.817 12.82a6.51 6.51 0 0 0-6.508 6.506v114.587a6.51 6.51 0 0 0 6.508 6.506h65.034v19.38h48.3v-19.38h65.034a6.508 6.508 0 0 0 6.506-6.506V19.326a6.508 6.508 0 0 0-6.506-6.506z"/><rect style="fill:#1e5c93;fill-opacity:1;stroke-width:.452609" width="93.924" height="17.708" x="113.038" y="149.472" rx="4.594" ry="4.594"/><rect x="76.546" y="24.003" class="st4" width="166.908" height="105.232" style="fill:#34c3ff;fill-opacity:1;stroke-width:1.40624" ry="3.076"/><rect style="fill:#ff7b54;fill-opacity:1;stroke-width:.324819" width="36.372" height="2.986" x="87.978" y="115.919" rx=".597" ry="2.986"/><rect style="fill:#ffc93c;fill-opacity:1;stroke-width:.324819" width="36.372" height="2.986" x="138.611" y="115.919" rx=".597" ry="2.986"/><rect style="fill:#7c2869;fill-opacity:1;stroke-width:.324819" width="36.372" height="2.986" x="189.246" y="115.919" rx=".597" ry="2.986"/><rect style="fill:#7c2869;fill-opacity:1;stroke-width:.561841" width="108.823" height="2.986" x="87.978" y="107.742" rx="1.787" ry="2.986"/><rect style="fill:#7c2869;fill-opacity:1;stroke-width:.383081" width="50.591" height="2.986" x="87.978" y="34.15" rx=".831" ry="2.986"/><rect style="fill:#ffc93c;fill-opacity:1;stroke-width:.392624" width="53.143" height="2.986" x="150.76" y="34.15" rx=".873" ry="2.986"/><rect style="fill:#ff7b54;fill-opacity:1;stroke-width:.330754" width="37.714" height="2.986" x="87.978" y="42.327" rx=".619" ry="2.986"/><rect style="fill:#7c2869;fill-opacity:1;stroke-width:.330754" width="37.714" height="2.986" x="136.98" y="42.327" rx=".619" ry="2.986"/><rect style="fill:#7c2869;fill-opacity:1;stroke-width:.330754" width="37.714" height="2.986" x="185.979" y="42.327" rx=".619" ry="2.986"/><rect style="fill:#7c2869;fill-opacity:1;stroke-width:.394228" width="53.577" height="2.986" x="87.978" y="58.681" rx=".88" ry="2.986"/><rect style="fill:#ff7b54;fill-opacity:1;stroke-width:.394228" width="53.577" height="2.986" x="153.312" y="58.681" rx=".88" ry="2.986"/><rect style="fill:#7c2869;fill-opacity:1;stroke-width:.429539" width="63.607" height="2.986" x="87.978" y="83.212" rx="1.044" ry="2.986"/><rect style="fill:#7c2869;fill-opacity:1;stroke-width:.429539" width="63.607" height="2.986" x="164.748" y="83.212" rx="1.044" ry="2.986"/><rect style="fill:#7c2869;fill-opacity:1;stroke-width:.544329" width="102.146" height="2.986" x="87.978" y="91.388" rx="1.677" ry="2.986"/><rect style="fill:#ff7b54;fill-opacity:1;stroke-width:.364145" width="45.713" height="2.986" x="87.978" y="99.565" rx=".751" ry="2.986"/><rect style="fill:#ffc93c;fill-opacity:1;stroke-width:.364145" width="45.713" height="2.986" x="148.414" y="99.565" rx=".751" ry="2.986"/><rect style="fill:#7c2869;fill-opacity:1;stroke-width:.439645" width="66.635" height="2.986" x="87.978" y="50.504" rx="1.094" ry="2.986"/><rect style="fill:#ffc93c;fill-opacity:1;stroke-width:.431148" width="64.083" height="2.986" x="164.748" y="50.504" rx="1.052" ry="2.986"/><rect style="fill:#7c2869;fill-opacity:1;stroke-width:.59351" width="121.437" height="2.986" x="87.978" y="66.858" rx="1.994" ry="2.986"/><rect style="fill:#ff7b54;fill-opacity:1;stroke-width:.362885" width="45.398" height="2.986" x="87.978" y="75.035" rx=".745" ry="2.986"/><rect style="fill:#ffc93c;fill-opacity:1;stroke-width:.362885" width="45.398" height="2.986" x="145.148" y="75.035" rx=".745" ry="2.986"/></svg>