<svg width="1280" height="720" viewBox="0 0 320 180" xmlns:xlink="http://www.w3.org/1999/xlink" xmlns="http://www.w3.org/2000/svg"><defs><linearGradient xlink:href="#a" id="b" gradientUnits="userSpaceOnUse" gradientTransform="matrix(0 97.92692 97.84512 0 -153432.68 43496.279)" x1="-444.171" y1="1569.753" x2="-442.334" y2="1569.751" spreadMethod="pad"/><linearGradient x1="-443.86" y1="1569.77" x2="-442.79" y2="1569.77" gradientUnits="userSpaceOnUse" gradientTransform="matrix(0 216.88999 216.88999 0 -337037.24 96415.477)" spreadMethod="pad" id="a"><stop style="stop-opacity:1;stop-color:#ff7b54" offset="0"/><stop style="stop-opacity:1;stop-color:#d64e4e" offset="1"/></linearGradient></defs><path d="M0 0h320v180H0z" style="fill:url(#b);stroke:none;stroke-width:.601753"/><path style="fill:#1e5c93;fill-opacity:1;stroke:#ff7b54;stroke-width:0;stroke-miterlimit:10" d="M70.816 12.82a6.51 6.51 0 0 0-6.507 6.506v114.587a6.51 6.51 0 0 0 6.507 6.506h65.035v19.38h48.3v-19.38h65.034a6.508 6.508 0 0 0 6.506-6.506V19.326a6.508 6.508 0 0 0-6.506-6.506z"/><rect style="fill:#1e5c93;fill-opacity:1;stroke-width:.452609" width="93.924" height="17.708" x="113.038" y="149.472" rx="4.594" ry="4.594"/><rect x="76.546" y="24.003" class="st4" width="166.908" height="105.232" style="fill:#34c3ff;fill-opacity:1;stroke-width:1.40624" ry="3.076"/><path d="M120.512 34.03c0-.168.085-.253.085-.422l.253-.254.254-.253h52.149c.174.084.259.169.343.253.085.085.17.17.17.254.084.169.188.29.084.423v9.397c0 .085 0 .17-.085.338 0 .085-.084.17-.169.254-.085.085-.169.17-.343.254-.085 0-.254.084-.339.084h-37.328c-.508 0-.677.17-.93.423l-.936.93c-.254.254-.507.508-.93.508h-2.88c-.423 0-.677-.254-.93-.508l-.931-.93c-.254-.254-.423-.423-.93-.423h-2.204c-.17.085-.254.17-.338.254-.085.084-.17.17-.17.254-.084.169-.084.253-.084.422v67.13c0 .084 0 .253.084.337 0 .17.085.254.17.339.084.084.169.169.338.169.084.084.169.084.338.084h1.866c.507 0 .676.254.93.508l.93.93c.254.254.508.423.93.423h2.88c.424 0 .677-.17.931-.423l.936-.93c.253-.254.422-.508.93-.508h21.59c.085 0 .254 0 .339.085.174.085.259.085.343.17.085.084.17.253.17.337.084.085.084.254.084.339v5.67c0 .085 0 .255-.085.34 0 .084-.084.253-.169.337-.084.085-.169.085-.343.17-.085.084-.254.084-.339.084h-35.734c-.084 0-.169 0-.338-.084-.085-.085-.17-.085-.254-.17-.084-.084-.169-.253-.253-.338 0-.084-.085-.254-.085-.338z" style="fill:#1ead28;fill-opacity:1;fill-rule:nonzero;stroke:none;stroke-width:.528531"/><path d="M120.512 34.03c0-.168.085-.253.085-.422l.253-.254.254-.253h52.149c.174.084.259.169.343.253.085.085.17.17.17.254.084.169-.02.29.084.423v9.397c0 .085 0 .17-.085.338 0 .085-.084.17-.169.254-.085.085-.169.17-.343.254-.085 0-.254.084-.339.084h-37.328c-.508 0-.677.17-.93.423l-.936.93c-.254.254-.507.508-.93.508h-2.88c-.423 0-.677-.254-.93-.508l-.931-.93c-.254-.254-.423-.423-.93-.423h-2.204c-.17.085-.254.17-.338.254-.085.084-.17.17-.17.254-.084.169-.084.253-.084.422v67.13c0 .084 0 .253.084.337 0 .17.085.254.17.339.084.084.169.169.338.169.084.084.169.084.338.084h1.866c.507 0 .676.254.93.508l.93.93c.254.254.508.423.93.423h2.88c.424 0 .677-.17.931-.423l.936-.93c.253-.254.422-.508.93-.508h21.59c.085 0 .254 0 .339.085.174.085.259.085.343.17.085.084.17.253.17.337.084.085.084.254.084.339v5.67c0 .085 0 .255-.085.34 0 .084-.084.253-.169.337-.084.085-.169.085-.343.17-.085.084-.254.084-.339.084h-35.734c-.084 0-.169 0-.338-.084-.085-.085-.17-.085-.254-.17-.084-.084-.169-.253-.253-.338 0-.084-.085-.254-.085-.338z" style="fill:none;stroke:#fff;stroke-width:.254224;stroke-linecap:butt;stroke-linejoin:miter;stroke-miterlimit:4;stroke-dasharray:none;stroke-opacity:1"/><path d="M124.323 45.288c0-.169 0-.253.084-.422 0-.085.085-.17.17-.254.084-.085.169-.17.338-.254h2.204c.507 0 .676.17.93.423l.93.93c.254.254.508.508.93.508h2.88c.424 0 .677-.254.931-.508l.936-.93c.253-.254.422-.423.93-.423h56.991l.254.254.254.254v10.158c-.085.085-.17.17-.254.338-.085.085-.17.085-.254.17-.169 0-.253.084-.428.084h-56.563c-.508 0-.677.254-.93.423l-.936.93c-.254.254-.507.507-.93.507h-2.88c-.423 0-.677-.253-.93-.507l-.931-.93c-.254-.17-.423-.423-.93-.423h-1.866c-.17 0-.254-.085-.338-.085-.17-.084-.254-.084-.339-.169-.084-.169-.169-.253-.169-.338-.084-.085-.084-.254-.084-.338z" style="fill:#1e5c93;fill-opacity:1;fill-rule:nonzero;stroke:none;stroke-width:.528531"/><path d="M124.323 45.288c0-.169 0-.253.084-.422 0-.085.085-.17.17-.254.084-.085.169-.17.338-.254h2.204c.507 0 .676.17.93.423l.93.93c.254.254.508.508.93.508h2.88c.424 0 .677-.254.931-.508l.936-.93c.253-.254.422-.423.93-.423h56.991l.254.254.254.254v10.158c-.085.085-.17.17-.254.338-.085.085-.17.085-.254.17-.169 0-.253.084-.428.084h-56.563c-.508 0-.677.254-.93.423l-.936.93c-.254.254-.507.507-.93.507h-2.88c-.423 0-.677-.253-.93-.507l-.931-.93c-.254-.17-.423-.423-.93-.423h-1.866c-.17 0-.254-.085-.338-.085-.17-.084-.254-.084-.339-.169-.084-.169-.169-.253-.169-.338-.084-.085-.084-.254-.084-.338z" style="fill:none;stroke:#fff;stroke-width:.254224;stroke-linecap:butt;stroke-linejoin:miter;stroke-miterlimit:4;stroke-dasharray:none;stroke-opacity:1"/><path d="M185.224 46.219h1.86c.254 0 .508 0 .677.084.259 0 .513.085.766.17.17.084.423.253.592.338.254.169.423.338.592.507.17.17.338.344.508.597.084.17.253.423.338.592.084.254.169.508.169.761.085.17.085.423.085.677 0 .254 0 .507-.085.76 0 .255-.085.508-.17.677-.084.254-.253.423-.337.677-.17.17-.339.423-.508.592-.169.169-.338.254-.592.428-.169.17-.423.254-.592.338-.253.085-.507.17-.766.254-.17 0-.423.085-.677.085h-1.86c-.254 0-.507-.085-.761-.085-.254-.085-.513-.17-.682-.254-.254-.084-.507-.169-.676-.338-.17-.174-.423-.259-.592-.428a2.57 2.57 0 0 1-.423-.592 2.532 2.532 0 0 1-.339-.677c-.169-.169-.169-.422-.253-.676 0-.254-.085-.507-.085-.761s.085-.508.085-.677c.084-.253.084-.507.253-.76.085-.17.17-.424.339-.593.084-.253.253-.428.423-.597.169-.17.422-.338.592-.507.169-.085.422-.254.676-.339.17-.084.428-.169.682-.169.254-.084.507-.084.76-.084z" style="fill:#1ead28;fill-opacity:1;fill-rule:nonzero;stroke:none;stroke-width:.528531"/><path d="M185.224 46.219h1.86c.254 0 .508 0 .677.084.259 0 .512.085.766.17.17.084.423.253.592.338.254.169.423.338.592.507.17.17.338.344.507.597.085.17.254.423.339.592.084.254.169.508.169.761.084.17.084.423.084.677 0 .254 0 .507-.084.76 0 .255-.085.508-.17.677-.084.254-.253.423-.338.677-.169.17-.338.423-.507.592-.17.169-.338.254-.592.428-.169.17-.423.254-.592.338-.254.085-.507.17-.766.254-.17 0-.423.085-.677.085h-1.86c-.254 0-.508-.085-.761-.085-.254-.085-.513-.17-.682-.254-.254-.084-.507-.169-.677-.338-.169-.174-.422-.259-.592-.428a2.57 2.57 0 0 1-.422-.592 2.532 2.532 0 0 1-.339-.677c-.169-.169-.169-.422-.253-.676 0-.254-.085-.507-.085-.761s.085-.508.085-.677c.084-.253.084-.507.253-.76.085-.17.17-.424.339-.593.084-.253.253-.428.422-.597.17-.17.423-.338.592-.507.17-.085.423-.254.677-.339.17-.084.428-.169.682-.169.253-.084.507-.084.76-.084z" style="fill:none;stroke:#fff;stroke-width:.254224;stroke-linecap:butt;stroke-linejoin:miter;stroke-miterlimit:4;stroke-dasharray:none;stroke-opacity:1"/><path d="M124.323 56.546c0-.169 0-.254.084-.338 0-.17.085-.254.17-.338.084-.085.169-.17.338-.17.084-.084.169-.084.338-.084h1.866c.507 0 .676.254.93.423l.93.93c.254.254.508.507.93.507h2.88c.424 0 .677-.253.931-.507l.936-.93c.253-.17.422-.423.93-.423h62.958c.085 0 .254 0 .339.085.084 0 .169.084.338.169.085.084.085.169.17.338 0 .084.145.18.084.338v9.82c0 .17-.085.254-.085.423-.085.085-.085.17-.169.254-.17.084-.254.169-.338.254h-63.297c-.508 0-.677.253-.93.507l-.936.93c-.254.254-.507.513-.93.513h-2.88c-.423 0-.677-.26-.93-.513l-.931-.93c-.254-.254-.423-.507-.93-.507h-2.204a1.167 1.167 0 0 1-.338-.254c-.085-.085-.17-.17-.17-.254-.084-.169-.084-.254-.084-.423z" style="fill:#a184dc;fill-opacity:1;fill-rule:nonzero;stroke:none;stroke-width:.528531"/><path d="M124.323 56.546c0-.169 0-.254.084-.338 0-.17.085-.254.17-.338.084-.085.169-.17.338-.17.084-.084.169-.084.338-.084h1.866c.507 0 .676.254.93.423l.93.93c.254.254.508.507.93.507h2.88c.424 0 .677-.253.931-.507l.936-.93c.253-.17.422-.423.93-.423h62.958c.085 0 .254 0 .339.085.084 0 .169.084.338.169.085.084.085.169.17.338 0 .084.145.18.084.338v9.82c0 .17-.085.254-.085.423-.085.085-.085.17-.169.254-.17.084-.254.169-.338.254h-63.297c-.508 0-.677.253-.93.507l-.936.93c-.254.254-.507.513-.93.513h-2.88c-.423 0-.677-.26-.93-.513l-.931-.93c-.254-.254-.423-.507-.93-.507h-2.204a1.167 1.167 0 0 1-.338-.254c-.085-.085-.17-.17-.17-.254-.084-.169-.084-.254-.084-.423z" style="fill:none;stroke:#fff;stroke-width:.254224;stroke-linecap:butt;stroke-linejoin:miter;stroke-miterlimit:4;stroke-dasharray:none;stroke-opacity:1"/><path d="M155.737 57.73h1.866c.254 0 .508 0 .761.085.254 0 .508.084.677.169.253.084.507.253.676.343.17.17.428.339.598.508.169.169.338.338.422.507.17.254.254.423.339.677.084.253.169.507.253.676 0 .254.085.508.085.761 0 .254-.085.508-.085.761-.084.254-.169.423-.253.677-.085.254-.17.423-.339.676-.084.175-.253.344-.422.598-.17.169-.429.253-.598.422-.169.17-.423.254-.676.339-.17.084-.423.169-.677.253-.253 0-.507.085-.76.085h-1.867c-.253 0-.507-.085-.76-.085a5.827 5.827 0 0 0-.677-.253 2.532 2.532 0 0 1-.677-.339c-.169-.169-.338-.253-.507-.422-.17-.254-.338-.423-.507-.598-.085-.253-.254-.422-.339-.676-.09-.254-.174-.423-.174-.677-.085-.253-.085-.507-.085-.76 0-.254 0-.508.085-.762 0-.169.084-.423.174-.676.085-.254.254-.423.339-.677l.507-.507.507-.508c.254-.09.423-.259.677-.343.254-.085.507-.17.676-.17.254-.084.508-.084.761-.084z" style="fill:#fff;fill-opacity:1;fill-rule:nonzero;stroke:none;stroke-width:.528531"/><path d="M155.737 57.73h1.866c.254 0 .508 0 .761.085.254 0 .508.084.677.169.253.084.507.253.676.343.17.17.428.339.598.508.169.169.338.338.422.507.17.254.254.423.339.677.084.253.169.507.253.676 0 .254.085.508.085.761 0 .254-.085.508-.085.761-.084.254-.169.423-.253.677-.085.254-.17.423-.339.676-.084.175-.253.344-.422.598-.17.169-.429.253-.598.422-.169.17-.423.254-.676.339-.17.084-.423.169-.677.253-.253 0-.507.085-.76.085h-1.867c-.253 0-.507-.085-.76-.085a5.827 5.827 0 0 0-.677-.253 2.532 2.532 0 0 1-.677-.339c-.169-.169-.338-.253-.507-.422-.17-.254-.338-.423-.507-.598-.085-.253-.254-.422-.339-.676-.09-.254-.174-.423-.174-.677-.085-.253-.085-.507-.085-.76 0-.254 0-.508.085-.762 0-.169.084-.423.174-.676.085-.254.254-.423.339-.677l.507-.507.507-.508c.254-.09.423-.259.677-.343.254-.085.507-.17.676-.17.254-.084.508-.084.761-.084z" style="fill:none;stroke:#fff;stroke-width:.254224;stroke-linecap:butt;stroke-linejoin:miter;stroke-miterlimit:4;stroke-dasharray:none;stroke-opacity:1"/><path d="M157.18 59.85v2.706h-.592v-2.03h-.169c0 .085-.084.085-.084.085-.085.084-.085.084-.17.084h-.174v-.507c.174 0 .344-.085.428-.085.17-.084.254-.169.338-.253z" style="fill:#1e5c93;fill-opacity:1;fill-rule:nonzero;stroke:none;stroke-width:.528531"/><path d="M164.677 57.476h31.782c.17 0 .254 0 .423.085.085 0 .17.085.254.17.084.084.169.168.254.337 0 .085.084.26.084.344v6.094c0 .169-.084.254-.084.338-.085.17-.17.254-.254.338-.085.085-.17.17-.254.17-.169.084-.254.084-.423.084h-31.782c-.085 0-.254 0-.338-.084-.175 0-.26-.085-.344-.17-.084-.084-.169-.169-.169-.338-.085-.084-.085-.169-.085-.338v-6.094c0-.085 0-.26.085-.344 0-.169.085-.253.17-.338.084-.084.168-.17.343-.17.084-.084.253-.084.338-.084z" style="fill:none;stroke:#fff;stroke-width:.254224;stroke-linecap:butt;stroke-linejoin:miter;stroke-miterlimit:4;stroke-dasharray:none;stroke-opacity:1"/><path d="M194.17 62.217c-.084 0-.168 0-.253-.084l-.846-.846c-.084-.084-.084-.169-.084-.254 0-.084 0-.169.084-.253.085-.085 2.03-.085 2.2 0 0 .084.084.169.084.253 0 .085-.085.17-.085.254l-.93.846c0 .084-.085.084-.17.084z" style="fill:#fff;fill-opacity:1;fill-rule:nonzero;stroke:none;stroke-width:.528531"/><path d="M124.323 68.311c0-.169 0-.253.084-.423 0-.084.085-.169.17-.253.084-.085.169-.17.338-.254.084 0 .169-.084.338-.084h1.866c.507 0 .676.253.93.507l.93.93c.254.254.508.513.93.513h2.88c.424 0 .677-.26.931-.513l.936-.93c.253-.254.422-.507.93-.507h56.563c.175 0 .26.084.428.084l.254.254.254.253v10.159l-.254.254-.254.253c-.169 0-.253.085-.428.085h-56.563c-.508 0-.677.169-.93.423l-.936.935c-.254.254-.507.508-.93.508h-2.88c-.423 0-.677-.254-.93-.508l-.931-.935c-.254-.254-.423-.423-.93-.423h-1.866c-.17 0-.254-.085-.338-.085a1.167 1.167 0 0 1-.339-.253c-.084-.085-.169-.17-.169-.254-.084-.17-.084-.254-.084-.338z" style="fill:#1e5c93;fill-opacity:1;fill-rule:nonzero;stroke:none;stroke-width:.528531"/><path d="M124.323 68.311c0-.169 0-.253.084-.423 0-.084.085-.169.17-.253.084-.085.169-.17.338-.254.084 0 .169-.084.338-.084h1.866c.507 0 .676.253.93.507l.93.93c.254.254.508.513.93.513h2.88c.424 0 .677-.26.931-.513l.936-.93c.253-.254.422-.507.93-.507h56.563c.175 0 .26.084.428.084l.254.254.254.253v10.159l-.254.254-.254.253c-.169 0-.253.085-.428.085h-56.563c-.508 0-.677.169-.93.423l-.936.935c-.254.254-.507.508-.93.508h-2.88c-.423 0-.677-.254-.93-.508l-.931-.935c-.254-.254-.423-.423-.93-.423h-1.866c-.17 0-.254-.085-.338-.085a1.167 1.167 0 0 1-.339-.253c-.084-.085-.169-.17-.169-.254-.084-.17-.084-.254-.084-.338z" style="fill:none;stroke:#fff;stroke-width:.254224;stroke-linecap:butt;stroke-linejoin:miter;stroke-miterlimit:4;stroke-dasharray:none;stroke-opacity:1"/><path d="M185.224 69.247h1.86c.254 0 .508 0 .677.084.259 0 .513.085.766.17.17.084.423.253.592.338.254.169.423.338.592.507l.508.508c.084.253.253.422.338.676.084.254.169.507.169.677.085.253.085.507.085.76 0 .254 0 .508-.085.762 0 .253-.085.423-.17.682-.084.253-.253.422-.337.676l-.508.507c-.169.17-.338.339-.592.508-.169.169-.423.254-.592.338-.253.085-.507.17-.766.254h-3.298c-.254-.085-.513-.17-.682-.254-.254-.084-.507-.169-.676-.338-.17-.17-.423-.338-.592-.508-.17-.169-.339-.338-.423-.507a2.532 2.532 0 0 1-.339-.676c-.169-.26-.169-.429-.253-.682 0-.254-.085-.508-.085-.761 0-.254.085-.508.085-.761.084-.17.084-.423.253-.677.085-.254.17-.423.339-.676.084-.17.253-.339.423-.508.169-.169.422-.338.592-.507.169-.085.422-.254.676-.339.17-.084.428-.169.682-.169.254-.084.507-.084.76-.084z" style="fill:#ffc93c;fill-opacity:1;fill-rule:nonzero;stroke:none;stroke-width:.528531"/><path d="M185.224 69.247h1.86c.254 0 .508 0 .677.084.259 0 .513.085.766.17.17.084.423.253.592.338.254.169.423.338.592.507l.508.508c.084.253.253.422.338.676.084.254.169.507.169.677.085.253.085.507.085.76 0 .254 0 .508-.085.762 0 .253-.085.423-.17.682-.084.253-.253.422-.337.676l-.508.507c-.169.17-.338.339-.592.508-.169.169-.423.254-.592.338-.253.085-.507.17-.766.254h-3.298c-.254-.085-.513-.17-.682-.254-.254-.084-.507-.169-.676-.338-.17-.17-.423-.338-.592-.508-.17-.169-.339-.338-.423-.507a2.532 2.532 0 0 1-.339-.676c-.169-.26-.169-.429-.253-.682 0-.254-.085-.508-.085-.761 0-.254.085-.508.085-.761.084-.17.084-.423.253-.677.085-.254.17-.423.339-.676.084-.17.253-.339.423-.508.169-.169.422-.338.592-.507.169-.085.422-.254.676-.339.17-.084.428-.169.682-.169.254-.084.507-.084.76-.084z" style="fill:none;stroke:#fff;stroke-width:.254224;stroke-linecap:butt;stroke-linejoin:miter;stroke-miterlimit:4;stroke-dasharray:none;stroke-opacity:1"/><path d="M124.323 91.255c0-.085 0-.254.084-.338 0-.085.085-.17.17-.254.084-.17.169-.17.338-.26.084 0 .169-.084.338-.084h1.866c.507 0 .676.26.93.513l.93.93c.254.254.508.423.93.423h2.88c.424 0 .677-.17.931-.423l.936-.93c.253-.254.422-.513.93-.513h56.563c.175 0 .26.085.428.085.085.09.17.09.254.259l.254.254v10.153c-.085.09-.17.174-.254.259l-.254.253h-56.991c-.508 0-.677.254-.93.508l-.936.93c-.254.254-.507.507-.93.507h-2.88c-.423 0-.677-.253-.93-.507l-.931-.93c-.254-.254-.423-.508-.93-.508h-2.204a1.168 1.168 0 0 1-.339-.253c-.084-.085-.169-.17-.169-.26-.084-.168-.084-.253-.084-.422z" style="fill:#1e5c93;fill-opacity:1;fill-rule:nonzero;stroke:none;stroke-width:.528531"/><path d="M124.323 91.255c0-.085 0-.254.084-.338 0-.085.085-.17.17-.254.084-.17.169-.17.338-.26.084 0 .169-.084.338-.084h1.866c.507 0 .676.26.93.513l.93.93c.254.254.508.423.93.423h2.88c.424 0 .677-.17.931-.423l.936-.93c.253-.254.422-.513.93-.513h56.563c.175 0 .26.085.428.085.085.09.17.09.254.259l.254.254v10.153c-.085.09-.17.174-.254.259l-.254.253h-56.991c-.508 0-.677.254-.93.508l-.936.93c-.254.254-.507.507-.93.507h-2.88c-.423 0-.677-.253-.93-.507l-.931-.93c-.254-.254-.423-.508-.93-.508h-2.204a1.168 1.168 0 0 1-.339-.253c-.084-.085-.169-.17-.169-.26-.084-.168-.084-.253-.084-.422z" style="fill:none;stroke:#fff;stroke-width:.254224;stroke-linecap:butt;stroke-linejoin:miter;stroke-miterlimit:4;stroke-dasharray:none;stroke-opacity:1"/><path d="M185.224 92.185h1.86c.254 0 .508.085.677.085.259.084.513.169.766.253.17.085.423.17.592.339.254.169.423.253.592.422.17.254.338.423.508.592.084.254.253.423.338.677.084.254.169.423.169.676.085.254.085.508.085.767 0 .253 0 .507-.085.76 0 .17-.085.424-.17.677-.084.254-.253.423-.337.677l-.508.507c-.169.17-.338.339-.592.508-.169.084-.423.253-.592.338-.253.084-.507.169-.766.169-.17.085-.423.085-.677.085h-1.86c-.254 0-.507 0-.761-.085-.254 0-.513-.085-.682-.17-.254-.084-.507-.253-.676-.337-.17-.17-.423-.339-.592-.508-.17-.169-.339-.338-.423-.507a2.532 2.532 0 0 1-.339-.677c-.169-.253-.169-.507-.253-.676 0-.254-.085-.508-.085-.761 0-.26.085-.513.085-.767.084-.253.084-.422.253-.676.085-.254.17-.423.339-.677.084-.169.253-.338.423-.592.169-.169.422-.253.592-.422.169-.17.422-.254.676-.339.17-.084.428-.169.682-.253.254 0 .507-.085.76-.085z" style="fill:#ff7b54;fill-opacity:1;fill-rule:nonzero;stroke:none;stroke-width:.528531"/><path d="M185.224 92.185h1.86c.254 0 .508.085.677.085.259.084.513.169.766.253.17.085.423.17.592.339.254.169.423.253.592.422.17.254.338.423.508.592.084.254.253.423.338.677.084.254.169.423.169.676.085.254.085.508.085.767 0 .253 0 .507-.085.76 0 .17-.085.424-.17.677-.084.254-.253.423-.337.677l-.508.507c-.169.17-.338.339-.592.508-.169.084-.423.253-.592.338-.253.084-.507.169-.766.169-.17.085-.423.085-.677.085h-1.86c-.254 0-.507 0-.761-.085-.254 0-.513-.085-.682-.17-.254-.084-.507-.253-.676-.337-.17-.17-.423-.339-.592-.508-.17-.169-.339-.338-.423-.507a2.532 2.532 0 0 1-.339-.677c-.169-.253-.169-.507-.253-.676 0-.254-.085-.508-.085-.761 0-.26.085-.513.085-.767.084-.253.084-.422.253-.676.085-.254.17-.423.339-.677.084-.169.253-.338.423-.592.169-.169.422-.253.592-.422.169-.17.422-.254.676-.339.17-.084.428-.169.682-.253.254 0 .507-.085.76-.085z" style="fill:none;stroke:#fff;stroke-width:.254224;stroke-linecap:butt;stroke-linejoin:miter;stroke-miterlimit:4;stroke-dasharray:none;stroke-opacity:1"/><path d="M124.323 79.598c0-.17 0-.254.084-.338 0-.17.085-.254.17-.339.084-.084.169-.169.338-.169.084-.084.169-.084.338-.084h1.866c.507 0 .676.253.93.423l.93.93c.254.254.508.507.93.507h2.88c.424 0 .677-.253.931-.507l.936-.93c.253-.17.422-.423.93-.423h62.958c.085 0 .254 0 .339.084.084 0 .169.085.338.17.085.084.085.169.17.338 0 .084.145.18.084.338v9.82c0 .17-.085.254-.085.423-.085.085-.085.17-.169.254-.17.084-.254.169-.338.253h-63.297c-.508 0-.677.254-.93.508l-.936.93c-.254.254-.507.513-.93.513h-2.88c-.423 0-.677-.26-.93-.513l-.931-.93c-.254-.254-.423-.508-.93-.508h-2.204a1.167 1.167 0 0 1-.338-.253c-.085-.085-.17-.17-.17-.254-.084-.17-.084-.254-.084-.423z" style="fill:#a184dc;fill-opacity:1;fill-rule:nonzero;stroke:none;stroke-width:.528531"/><path d="M124.323 79.598c0-.17 0-.254.084-.338 0-.17.085-.254.17-.339.084-.084.169-.169.338-.169.084-.084.169-.084.338-.084h1.866c.507 0 .676.253.93.423l.93.93c.254.254.508.507.93.507h2.88c.424 0 .677-.253.931-.507l.936-.93c.253-.17.422-.423.93-.423h62.958c.085 0 .254 0 .339.084.084 0 .169.085.338.17.085.084.085.169.17.338 0 .084.145.18.084.338v9.82c0 .17-.085.254-.085.423-.085.085-.085.17-.169.254-.17.084-.254.169-.338.253h-63.297c-.508 0-.677.254-.93.508l-.936.93c-.254.254-.507.513-.93.513h-2.88c-.423 0-.677-.26-.93-.513l-.931-.93c-.254-.254-.423-.508-.93-.508h-2.204a1.167 1.167 0 0 1-.338-.253c-.085-.085-.17-.17-.17-.254-.084-.17-.084-.254-.084-.423z" style="fill:none;stroke:#fff;stroke-width:.254224;stroke-linecap:butt;stroke-linejoin:miter;stroke-miterlimit:4;stroke-dasharray:none;stroke-opacity:1"/><path d="M155.737 80.782h1.866c.254 0 .508 0 .761.084.254 0 .508.085.677.17.253.084.507.253.676.343.17.17.428.338.598.508.169.169.338.338.422.507.17.254.254.423.339.676.084.254.169.508.253.677 0 .254.085.507.085.761s-.085.507-.085.761c-.084.254-.169.423-.253.677-.085.253-.17.422-.339.676-.084.175-.253.344-.422.597-.17.17-.429.254-.598.423-.169.17-.423.254-.676.338-.17.085-.423.17-.677.254-.253 0-.507.085-.76.085h-1.867c-.253 0-.507-.085-.76-.085a5.827 5.827 0 0 0-.677-.254 2.532 2.532 0 0 1-.677-.338c-.169-.169-.338-.253-.507-.423-.17-.253-.338-.422-.507-.597-.085-.254-.254-.423-.339-.676-.09-.254-.174-.423-.174-.677-.085-.254-.085-.507-.085-.761s0-.507.085-.761c0-.17.084-.423.174-.677.085-.253.254-.422.339-.676l.507-.507.507-.508c.254-.09.423-.259.677-.343.254-.085.507-.17.676-.17.254-.084.508-.084.761-.084z" style="fill:#fff;fill-opacity:1;fill-rule:nonzero;stroke:none;stroke-width:.528531"/><path d="M155.737 80.782h1.866c.254 0 .508 0 .761.084.254 0 .508.085.677.17.253.084.507.253.676.343.17.17.428.338.598.508.169.169.338.338.422.507.17.254.254.423.339.676.084.254.169.508.253.677 0 .254.085.507.085.761s-.085.507-.085.761c-.084.254-.169.423-.253.677-.085.253-.17.422-.339.676-.084.175-.253.344-.422.597-.17.17-.429.254-.598.423-.169.17-.423.254-.676.338-.17.085-.423.17-.677.254-.253 0-.507.085-.76.085h-1.867c-.253 0-.507-.085-.76-.085a5.827 5.827 0 0 0-.677-.254 2.532 2.532 0 0 1-.677-.338c-.169-.169-.338-.253-.507-.423-.17-.253-.338-.422-.507-.597-.085-.254-.254-.423-.339-.676-.09-.254-.174-.423-.174-.677-.085-.254-.085-.507-.085-.761s0-.507.085-.761c0-.17.084-.423.174-.677.085-.253.254-.422.339-.676l.507-.507.507-.508c.254-.09.423-.259.677-.343.254-.085.507-.17.676-.17.254-.084.508-.084.761-.084z" style="fill:none;stroke:#fff;stroke-width:.254224;stroke-linecap:butt;stroke-linejoin:miter;stroke-miterlimit:4;stroke-dasharray:none;stroke-opacity:1"/><path d="M157.18 82.901v2.706h-.592v-2.03h-.169c0 .085-.084.085-.084.085-.085.085-.085.085-.17.085h-.174v-.507c.174 0 .344-.085.428-.085.17-.085.254-.17.338-.254z" style="fill:#1e5c93;fill-opacity:1;fill-rule:nonzero;stroke:none;stroke-width:.528531"/><path d="M164.677 80.528h31.782c.17 0 .254 0 .423.085.085 0 .17.084.254.169.084.084.169.169.254.338 0 .085.084.26.084.344v6.094c0 .169-.084.253-.084.338-.085.17-.17.254-.254.338-.085.085-.17.17-.254.17-.169.084-.254.084-.423.084h-31.782c-.085 0-.254 0-.338-.085-.175 0-.26-.084-.344-.169-.084-.084-.169-.169-.169-.338-.085-.085-.085-.17-.085-.338v-6.094c0-.085 0-.26.085-.344 0-.169.085-.254.17-.338.084-.085.168-.17.343-.17.084-.084.253-.084.338-.084z" style="fill:none;stroke:#fff;stroke-width:.254224;stroke-linecap:butt;stroke-linejoin:miter;stroke-miterlimit:4;stroke-dasharray:none;stroke-opacity:1"/><path d="M194.17 85.27c-.084 0-.168 0-.253-.085l-.846-.846c-.084-.085-.084-.17-.084-.254 0-.084 0-.169.084-.253.085-.085 2.03-.085 2.2 0 0 .084.084.169.084.253 0 .085-.085.17-.085.254l-.93.846c0 .084-.085.084-.17.084z" style="fill:#fff;fill-opacity:1;fill-rule:nonzero;stroke:none;stroke-width:.528531"/><path d="M124.323 102.522c0-.17 0-.254.084-.338 0-.17.085-.254.17-.339.084-.084.169-.169.338-.169.084-.084.169-.084.338-.084h1.866c.507 0 .676.253.93.422l.93.93c.254.254.508.508.93.508h2.88c.424 0 .677-.254.931-.507l.936-.93c.253-.17.422-.423.93-.423h62.958c.085 0 .254 0 .339.084.084 0 .169.085.338.17.085.084.085.168.17.338 0 .084.145.18.084.338v9.82c0 .169-.085.254-.085.423-.085.084-.085.169-.169.253-.17.085-.254.17-.338.254h-63.297c-.508 0-.677.254-.93.507l-.936.93c-.254.254-.507.513-.93.513h-2.88c-.423 0-.677-.259-.93-.512l-.931-.93c-.254-.254-.423-.508-.93-.508h-2.204a1.168 1.168 0 0 1-.338-.254c-.085-.084-.17-.169-.17-.253-.084-.17-.084-.254-.084-.423z" style="fill:#a184dc;fill-opacity:1;fill-rule:nonzero;stroke:none;stroke-width:.528531"/><path d="M124.323 102.522c0-.17 0-.254.084-.338 0-.17.085-.254.17-.339.084-.084.169-.169.338-.169.084-.084.169-.084.338-.084h1.866c.507 0 .676.253.93.422l.93.93c.254.254.508.508.93.508h2.88c.424 0 .677-.254.931-.507l.936-.93c.253-.17.422-.423.93-.423h62.958c.085 0 .254 0 .339.084.084 0 .169.085.338.17.085.084.085.168.17.338 0 .084.145.18.084.338v9.82c0 .169-.085.254-.085.423-.085.084-.085.169-.169.253-.17.085-.254.17-.338.254h-63.297c-.508 0-.677.254-.93.507l-.936.93c-.254.254-.507.513-.93.513h-2.88c-.423 0-.677-.259-.93-.512l-.931-.93c-.254-.254-.423-.508-.93-.508h-2.204a1.168 1.168 0 0 1-.338-.254c-.085-.084-.17-.169-.17-.253-.084-.17-.084-.254-.084-.423z" style="fill:none;stroke:#fff;stroke-width:.254224;stroke-linecap:butt;stroke-linejoin:miter;stroke-miterlimit:4;stroke-dasharray:none;stroke-opacity:1"/><path d="M155.737 103.706h1.866c.254 0 .508 0 .761.084.254 0 .508.085.677.17.253.084.507.253.676.343.17.17.428.338.598.507.169.17.338.339.422.508.17.253.254.423.339.676.084.254.169.508.253.677 0 .253.085.507.085.76 0 .255-.085.508-.085.762-.084.254-.169.423-.253.676-.085.254-.17.423-.339.677-.084.174-.253.344-.422.597-.17.17-.429.254-.598.423-.169.17-.423.254-.676.338-.17.085-.423.17-.677.254-.253 0-.507.085-.76.085h-1.867c-.253 0-.507-.085-.76-.085-.17-.085-.423-.17-.677-.254a2.533 2.533 0 0 1-.677-.338c-.169-.17-.338-.254-.507-.423-.17-.253-.338-.423-.507-.597-.085-.254-.254-.423-.339-.677-.09-.253-.174-.422-.174-.676-.085-.254-.085-.507-.085-.761s0-.508.085-.761c0-.17.084-.423.174-.677.085-.253.254-.423.339-.676l.507-.508.507-.507c.254-.09.423-.259.677-.344.254-.084.507-.169.676-.169.254-.084.508-.084.761-.084z" style="fill:#fff;fill-opacity:1;fill-rule:nonzero;stroke:none;stroke-width:.528531"/><path d="M155.737 103.706h1.866c.254 0 .508 0 .761.084.254 0 .508.085.677.17.253.084.507.253.676.343.17.17.428.338.598.507.169.17.338.339.422.508.17.253.254.423.339.676.084.254.169.508.253.677 0 .253.085.507.085.76 0 .255-.085.508-.085.762-.084.254-.169.423-.253.676-.085.254-.17.423-.339.677-.084.174-.253.344-.422.597-.17.17-.429.254-.598.423-.169.17-.423.254-.676.338-.17.085-.423.17-.677.254-.253 0-.507.085-.76.085h-1.867c-.253 0-.507-.085-.76-.085-.17-.085-.423-.17-.677-.254a2.533 2.533 0 0 1-.677-.338c-.169-.17-.338-.254-.507-.423-.17-.253-.338-.423-.507-.597-.085-.254-.254-.423-.339-.677-.09-.253-.174-.422-.174-.676-.085-.254-.085-.507-.085-.761s0-.508.085-.761c0-.17.084-.423.174-.677.085-.253.254-.423.339-.676l.507-.508.507-.507c.254-.09.423-.259.677-.344.254-.084.507-.169.676-.169.254-.084.508-.084.761-.084z" style="fill:none;stroke:#fff;stroke-width:.254224;stroke-linecap:butt;stroke-linejoin:miter;stroke-miterlimit:4;stroke-dasharray:none;stroke-opacity:1"/><path d="M157.18 105.825v2.706h-.592v-2.03h-.169c0 .085-.084.085-.084.085-.085.085-.085.085-.17.085h-.174v-.508c.174 0 .344-.084.428-.084.17-.085.254-.17.338-.254z" style="fill:#1e5c93;fill-opacity:1;fill-rule:nonzero;stroke:none;stroke-width:.528531"/><path d="M164.677 103.452h31.782c.17 0 .254 0 .423.085.085 0 .17.084.254.169.084.084.169.169.254.338 0 .085.084.259.084.344v6.093c0 .17-.084.254-.084.339-.085.169-.17.253-.254.338-.085.085-.17.17-.254.17-.169.084-.254.084-.423.084h-31.782c-.085 0-.254 0-.338-.085-.175 0-.26-.084-.344-.169-.084-.085-.169-.17-.169-.338-.085-.085-.085-.17-.085-.339v-6.093c0-.085 0-.26.085-.344 0-.17.085-.254.17-.338.084-.085.168-.17.343-.17.084-.084.253-.084.338-.084z" style="fill:none;stroke:#fff;stroke-width:.254224;stroke-linecap:butt;stroke-linejoin:miter;stroke-miterlimit:4;stroke-dasharray:none;stroke-opacity:1"/><path d="M194.17 108.193c-.084 0-.168 0-.253-.085l-.846-.845c-.084-.085-.084-.17-.084-.254 0-.085 0-.17.084-.254.085-.084 2.03-.084 2.2 0 0 .085.084.17.084.254 0 .085-.085.17-.085.254l-.93.845c0 .085-.085.085-.17.085z" style="fill:#fff;fill-opacity:1;fill-rule:nonzero;stroke:none;stroke-width:.528531"/><rect style="fill:#f9f9f9;fill-opacity:1;stroke-width:.383432" width="47.925" height="4.147" x="127.921" y="48.282" ry="2.073"/><rect style="fill:#f9f9f9;fill-opacity:1;stroke-width:.383432" width="47.925" height="4.147" x="127.921" y="70.938" ry="2.073"/><rect style="fill:#f9f9f9;fill-opacity:1;stroke-width:.255106" width="21.215" height="4.147" x="127.921" y="59.214" ry="2.073"/><rect style="fill:#f9f9f9;fill-opacity:1;stroke-width:.255106" width="21.215" height="4.147" x="166.657" y="59.214" ry="2.073"/><rect style="fill:#f9f9f9;fill-opacity:1;stroke-width:.255106" width="21.215" height="4.147" x="127.921" y="82.325" ry="2.073"/><rect style="fill:#f9f9f9;fill-opacity:1;stroke-width:.255106" width="21.215" height="4.147" x="166.657" y="82.325" ry="2.073"/><rect style="fill:#f9f9f9;fill-opacity:1;stroke-width:.255106" width="21.215" height="4.147" x="127.921" y="105.436" ry="2.073"/><rect style="fill:#f9f9f9;fill-opacity:1;stroke-width:.255106" width="21.215" height="4.147" x="166.657" y="105.436" ry="2.073"/><rect style="fill:#f9f9f9;fill-opacity:1;stroke-width:.383432" width="47.925" height="4.147" x="127.921" y="94.102" ry="2.073"/></svg>