<svg xmlns="http://www.w3.org/2000/svg" width="1280" height="720" viewBox="0 0 320 180" xmlns:v="https://vecta.io/nano"><path d="M0 0h320v180H0z" fill="#ecfaff"/><g fill="#1e5c93"><path d="M80.394 124.993a1.98 1.98 0 0 0-1.98 1.98v11.441a1.98 1.98 0 1 0 3.96 0v-11.441a1.98 1.98 0 0 0-1.98-1.98zM41.606 101.95h11.441a1.98 1.98 0 1 0 0-3.96H41.606a1.98 1.98 0 1 0 0 3.96zm66.135 0h11.441a1.98 1.98 0 1 0 0-3.96h-11.441a1.98 1.98 0 1 0 0 3.96zm-52.165 8.712l-15.039 9.654a1.98 1.98 0 1 0 2.142 3.333l15.039-9.654a1.98 1.98 0 0 0 .596-2.735c-.589-.92-1.816-1.187-2.738-.598zm12.455 10.652a1.98 1.98 0 0 0-2.742.567l-5.263 8.009a1.98 1.98 0 0 0 .567 2.742c.335.221.712.326 1.086.326a1.98 1.98 0 0 0 1.658-.894l5.263-8.009a1.98 1.98 0 0 0-.567-2.742zm53.822-1.001l-15.039-9.654a1.981 1.981 0 1 0-2.142 3.333l15.039 9.654a1.97 1.97 0 0 0 1.069.313 1.98 1.98 0 0 0 1.073-3.646zm-24.752 1.568a1.98 1.98 0 0 0-3.309 2.175l5.263 8.009a1.98 1.98 0 0 0 1.658.894 1.97 1.97 0 0 0 1.086-.326 1.98 1.98 0 0 0 .567-2.742l-5.263-8.009zm-3.698-22.029c-.992-.447-2.166-.004-2.617.988-.007.017-.773 1.673-2.337 3.237-1.592 1.592-3.263 2.442-3.287 2.455a1.98 1.98 0 0 0 .885 3.752c.296 0 .596-.066.876-.206.092-.046 2.249-1.123 4.325-3.2 2.105-2.105 3.11-4.323 3.151-4.417.445-.996 0-2.159-.996-2.608zm-.022-26.767h1.014c.596 0 1.161-.269 1.537-.731a1.98 1.98 0 0 0 .401-1.653l-3.48-16.635a1.98 1.98 0 0 0-1.938-1.575h-.793c-.972-1.417-3.073-3.583-7.032-4.102v-6.802a1.98 1.98 0 1 0-3.96 0v6.855c-3.749.591-5.747 2.665-6.68 4.052h-.777a1.98 1.98 0 0 0-1.938 1.575l-3.48 16.635a1.97 1.97 0 0 0 .401 1.653c.377.462.942.731 1.537.731h.624c-.418 4.588-2.3 7.067-4.439 9.884-2.67 3.513-5.696 7.494-5.696 15.733 0 4.667 2.269 9.923 6.071 14.058 4.371 4.755 10.181 7.374 16.357 7.374 12.247 0 22.595-10.271 22.595-22.43 0-6.018-2.845-10.328-5.593-14.498-2.144-3.252-4.183-6.351-4.73-10.12zM73.283 56.45h.326c.826 0 1.555-.486 1.844-1.259.05-.12 1.27-2.959 5.819-2.959s5.819 2.854 5.863 2.959a1.98 1.98 0 0 0 1.844 1.259h.326l2.652 12.676H70.631zm7.829 59.724c-11.274 0-18.469-10.348-18.469-17.472s2.374-10.028 4.888-13.337c2.372-3.121 4.818-6.338 5.263-12.282h6.336v6.982h-2.002a1.98 1.98 0 0 0-1.516.705c-.377.447-.537 1.038-.436 1.614l2.589 14.872a1.98 1.98 0 0 0 1.949 1.64 2.02 2.02 0 0 0 .342-.028 1.98 1.98 0 0 0 1.286-.819 1.97 1.97 0 0 0 1.345.828c1.075.153 2.085-.598 2.24-1.68l2.124-14.872a1.98 1.98 0 0 0-1.96-2.26H83.09v-6.982h6.29c.541 4.897 3.02 8.655 5.425 12.301 2.54 3.85 4.941 7.488 4.941 12.317 0 9.838-8.708 18.469-18.635 18.469zm1.697-32.145l-1.498 10.49-1.826-10.49zm170.942-10.455h1.029c.604 0 1.178-.273 1.56-.742s.531-1.086.407-1.677l-3.531-16.878a2.01 2.01 0 0 0-1.967-1.598h-.804c-.987-1.438-3.118-3.635-7.135-4.162v-6.901a2.01 2.01 0 0 0-2.009-2.009 2.01 2.01 0 0 0-2.009 2.009v6.955c-3.804.6-5.831 2.704-6.777 4.111h-.789a2.01 2.01 0 0 0-1.967 1.597l-3.531 16.878c-.124.593.025 1.209.407 1.678s.956.742 1.56.742h.633c-.425 4.655-2.333 7.17-4.504 10.028-2.709 3.564-5.779 7.604-5.779 15.963 0 4.735 2.302 10.068 6.159 14.263 4.435 4.824 10.33 7.481 16.596 7.481 12.425 0 22.924-10.421 22.924-22.757 0-6.106-2.886-10.479-5.675-14.709-2.175-3.299-4.244-6.444-4.8-10.268zM233.36 56.696h.331a1.97 1.97 0 0 0 1.871-1.277c.05-.121 1.289-3.002 5.904-3.002s5.904 2.895 5.948 3.002a2.01 2.01 0 0 0 1.871 1.277h.331l2.691 12.861h-21.638zm7.943 60.595c-11.439 0-18.738-10.499-18.738-17.727s2.409-10.174 4.96-13.532c2.406-3.166 4.888-6.43 5.339-12.461h6.428v7.084h-2.031a2.01 2.01 0 0 0-1.538.716c-.382.453-.544 1.053-.442 1.638l2.626 15.089c.169.978 1.018 1.664 1.977 1.664.113 0 .231-.018.347-.029a2.01 2.01 0 0 0 1.304-.831c.307.44.789.758 1.364.84 1.091.156 2.116-.607 2.273-1.704l2.155-15.089c.082-.578-.089-1.16-.471-1.6a2.01 2.01 0 0 0-1.518-.694h-2.031v-7.084h6.382c.549 4.968 3.064 8.781 5.504 12.481 2.578 3.906 5.013 7.597 5.013 12.496 0 9.981-8.834 18.738-18.907 18.738zm1.722-32.614l-1.52 10.643-1.853-10.643z" stroke="#ff7b54" stroke-width="0" stroke-miterlimit="10"/><path d="M167.314 71.586L185.735 90l-18.42 18.415V97.226h-23.547V82.774h23.547z" fill-rule="evenodd"/></g></svg>