<svg width="1280" height="720" viewBox="0 0 1280 720" fill="none" xmlns="http://www.w3.org/2000/svg">
<g clip-path="url(#clip0_114_878)">
<rect width="1280" height="720" fill="white"/>
<path d="M-1 0H1279V719.999H-1V0Z" fill="#ECFAFF"/>
<circle cx="456" cy="356" r="80" fill="#35C2FF" fill-opacity="0.4"/>
<circle cx="172" cy="142" r="80" fill="#35C2FF" fill-opacity="0.4"/>
<circle cx="737" cy="577" r="80" fill="#35C2FF" fill-opacity="0.4"/>
<path d="M535.976 114.8H516.425C509.767 114.8 506.438 114.8 503.894 116.093C501.657 117.231 499.839 119.046 498.699 121.279C497.403 123.819 497.403 127.141 497.403 133.787V167.013C497.403 173.659 497.403 176.981 498.699 179.515C499.84 181.752 501.653 183.567 503.894 184.707C506.432 186 509.761 186 516.407 186H585.398C592.044 186 595.367 186 597.906 184.707C600.146 183.568 601.967 181.751 603.107 179.515C604.403 176.981 604.403 173.665 604.403 167.031V133.769C604.403 127.135 604.403 123.813 603.107 121.279C601.966 119.046 600.145 117.23 597.906 116.093C595.367 114.8 592.038 114.8 585.381 114.8H565.823M535.976 114.8H536.351M535.976 114.8C535.346 114.8 534.996 114.8 534.716 114.764C533.891 114.672 533.094 114.409 532.377 113.991C531.66 113.573 531.038 113.009 530.553 112.337C530.067 111.664 529.728 110.898 529.558 110.086C529.387 109.275 529.389 108.437 529.562 107.627C529.698 107.111 529.857 106.603 530.038 106.102L530.044 106.066C530.353 105.152 530.502 104.701 530.674 104.292C531.521 102.268 532.913 100.518 534.695 99.2362C536.478 97.9542 538.582 97.1904 540.773 97.0297C541.201 97 541.683 97 542.64 97H559.154C560.117 97 560.598 97 561.038 97.0297C563.228 97.1915 565.331 97.9557 567.113 99.2376C568.894 100.52 570.286 102.269 571.132 104.292C571.304 104.696 571.453 105.152 571.762 106.072C572.035 106.891 572.178 107.3 572.237 107.627C572.411 108.437 572.413 109.274 572.243 110.085C572.072 110.896 571.734 111.662 571.249 112.335C570.764 113.007 570.143 113.571 569.427 113.989C568.711 114.408 567.914 114.672 567.09 114.764C566.668 114.799 566.246 114.811 565.823 114.8M565.823 114.8H565.455H536.339M550.903 168.2C546.173 168.2 541.637 166.325 538.293 162.987C534.948 159.648 533.069 155.121 533.069 150.4C533.069 145.679 534.948 141.152 538.293 137.813C541.637 134.475 546.173 132.6 550.903 132.6C555.633 132.6 560.169 134.475 563.513 137.813C566.857 141.152 568.736 145.679 568.736 150.4C568.736 155.121 566.857 159.648 563.513 162.987C560.169 166.325 555.633 168.2 550.903 168.2Z" stroke="#1E5C93" stroke-width="12" stroke-linecap="round" stroke-linejoin="round"/>
<path d="M172.5 103C197.054 103 218.528 117.046 229.672 137.887L230.194 138.885L230.197 138.89C230.725 139.931 231 141.082 231 142.249C231 143.416 230.725 144.567 230.197 145.608L230.194 145.613C219.214 166.994 197.444 181.5 172.5 181.5C147.556 181.5 125.791 167.004 114.805 145.615L114.803 145.61C114.275 144.569 114 143.418 114 142.251C114 141.084 114.275 139.933 114.803 138.892L114.805 138.887C125.785 117.506 147.556 103 172.5 103ZM172.5 114.562C153.361 114.562 135.785 125.11 126.143 142.25C135.786 159.39 153.363 169.938 172.5 169.938C191.639 169.937 209.215 159.39 218.856 142.25C209.214 125.11 191.639 114.563 172.5 114.562ZM172.497 118.938L172.955 118.94C177.685 119.019 182.283 120.532 186.135 123.285C190.111 126.127 193.091 130.145 194.652 134.771C196.213 139.396 196.275 144.395 194.831 149.059C193.387 153.722 190.508 157.814 186.604 160.754C182.701 163.694 177.969 165.334 173.08 165.441C168.191 165.549 163.392 164.118 159.362 161.353C155.333 158.587 152.277 154.627 150.628 150.031C148.979 145.436 148.822 140.439 150.177 135.749L150.528 134.531L151.631 135.156C153.125 136.004 154.811 136.455 156.53 136.468C157.866 136.467 159.189 136.205 160.424 135.695C161.659 135.185 162.782 134.436 163.728 133.493C164.673 132.55 165.422 131.43 165.934 130.198C166.444 128.968 166.707 127.65 166.708 126.319C166.696 124.604 166.243 122.92 165.394 121.429L164.777 120.348L165.966 119.979C168.078 119.323 170.273 118.972 172.484 118.938H172.497Z" fill="#1E5C93" stroke="#1E5C93" stroke-width="2"/>
<path d="M424.121 145.071C425.83 143.378 425.83 140.629 424.121 138.936L402.246 117.27C400.537 115.577 397.762 115.577 396.053 117.27C394.344 118.962 394.344 121.711 396.053 123.404L410.463 137.677H306.375C303.955 137.677 302 139.613 302 142.01C302 144.407 303.955 146.343 306.375 146.343H410.463L396.053 160.616C394.344 162.309 394.344 165.058 396.053 166.751C397.762 168.443 400.537 168.443 402.246 166.751L424.121 145.084V145.071Z" fill="#1E5C93"/>
<path d="M774.156 573.586L761.906 585.829C763.438 584.328 765.501 583.492 767.647 583.502C769.792 583.513 771.846 584.37 773.363 585.887C774.88 587.404 775.737 589.459 775.748 591.604C775.759 593.749 774.923 595.812 773.421 597.344L748.035 622.73C741.216 629.548 731.967 633.379 722.323 633.379C712.68 633.379 703.431 629.548 696.611 622.73M774.156 573.586C774.913 572.829 775.513 571.93 775.923 570.94C776.333 569.951 776.544 568.89 776.544 567.82C776.544 566.749 776.333 565.688 775.923 564.699C775.513 563.709 774.913 562.81 774.156 562.053C773.398 561.296 772.499 560.695 771.51 560.286C770.521 559.876 769.46 559.665 768.389 559.665C767.318 559.665 766.258 559.876 765.269 560.286C764.279 560.695 763.38 561.296 762.623 562.053L770.66 554.034M774.156 573.586L761.906 585.835M770.66 554.034C772.137 552.495 772.952 550.438 772.93 548.305C772.908 546.172 772.052 544.132 770.544 542.623C769.036 541.115 766.996 540.257 764.863 540.234C762.73 540.211 760.673 541.025 759.133 542.501M770.66 554.034L736.009 588.673M759.133 542.501L751.096 550.527C752.573 548.987 753.388 546.931 753.366 544.798C753.345 542.664 752.488 540.625 750.98 539.116C749.472 537.607 747.433 536.749 745.3 536.727C743.167 536.704 741.109 537.518 739.569 538.994L707.433 571.13C707.421 571.134 707.419 571.13 707.427 571.118L711.352 556.454C711.764 554.883 711.594 553.216 710.874 551.76C710.153 550.304 708.931 549.158 707.432 548.532C705.933 547.907 704.258 547.844 702.716 548.357C701.175 548.869 699.87 549.921 699.044 551.32L685.96 573.721C681.91 580.66 680.272 588.745 681.302 596.713C682.332 604.682 685.972 612.084 691.653 617.766M759.133 542.501L751.096 550.532M691.653 617.766L696.611 622.73M691.653 617.766C685.97 612.084 682.33 604.68 681.3 596.711C680.27 588.741 681.909 580.655 685.96 573.715L699.044 551.325C699.87 549.927 701.175 548.875 702.716 548.363C704.258 547.85 705.933 547.913 707.432 548.538C708.931 549.163 710.153 550.31 710.874 551.766C711.594 553.222 711.764 554.889 711.352 556.46L707.433 571.095C707.433 571.118 707.439 571.126 707.451 571.118L739.569 539C740.321 538.217 741.221 537.592 742.217 537.161C743.213 536.73 744.285 536.503 745.37 536.492C746.455 536.481 747.532 536.686 748.536 537.096C749.541 537.507 750.454 538.113 751.221 538.881C751.988 539.649 752.594 540.562 753.004 541.566C753.414 542.571 753.619 543.648 753.607 544.733C753.596 545.818 753.368 546.89 752.936 547.886C752.505 548.882 751.88 549.781 751.096 550.532M696.611 622.73C699.988 626.107 703.997 628.786 708.41 630.613C712.822 632.441 717.551 633.382 722.326 633.382C727.102 633.382 731.831 632.441 736.243 630.613C740.655 628.786 744.664 626.107 748.041 622.73L773.421 597.35C774.19 596.597 774.802 595.699 775.221 594.708C775.64 593.716 775.859 592.652 775.865 591.576C775.87 590.499 775.662 589.433 775.253 588.438C774.843 587.442 774.241 586.538 773.48 585.777C772.719 585.016 771.814 584.413 770.819 584.004C769.824 583.594 768.757 583.387 767.681 583.392C766.604 583.397 765.54 583.616 764.549 584.035C763.558 584.455 762.659 585.067 761.906 585.835M761.906 585.835L747.542 600.194M751.096 550.532L724.482 577.14M793.772 536.615C789.284 530.116 783.652 524.486 777.152 520" stroke="#1E5C93" stroke-width="10" stroke-linecap="square"/>
<path d="M1095.34 535.5C1102.9 535.5 1108.88 540.708 1114 547.949C1118.5 554.315 1122.56 562.577 1126.6 571.145L1128.34 574.831L1128.34 574.832C1132.13 582.951 1136.13 591.484 1140.32 597.992C1142.41 601.245 1144.5 603.916 1146.58 605.759C1148.66 607.608 1150.58 608.5 1152.38 608.5C1154.39 608.5 1157.58 607.351 1162.04 602.431C1166.49 597.524 1172.03 589.041 1178.69 574.83L1178.71 574.805C1179.28 573.648 1180.28 572.761 1181.49 572.335C1182.71 571.909 1184.05 571.976 1185.21 572.524C1186.38 573.072 1187.29 574.057 1187.74 575.266C1187.93 575.786 1188.03 576.331 1188.04 576.876H1188.63L1187.63 579.014C1181.45 592.184 1175.61 601.95 1169.89 608.443C1164.18 614.931 1158.41 618.344 1152.38 618.344C1144.82 618.344 1138.84 613.136 1133.72 605.895C1128.57 598.619 1124 588.866 1119.38 579.013L1119.38 579.012C1115.58 570.893 1111.59 562.36 1107.4 555.852C1105.31 552.598 1103.22 549.928 1101.14 548.085C1099.06 546.236 1097.13 545.344 1095.34 545.344C1093.33 545.344 1090.14 546.492 1085.69 551.413C1081.24 556.32 1075.7 564.803 1069.02 579.015L1069.02 579.026L1069.01 579.039C1068.44 580.196 1067.44 581.082 1066.22 581.509C1065.01 581.935 1063.67 581.867 1062.5 581.319C1061.34 580.771 1060.43 579.787 1059.98 578.578C1059.53 577.369 1059.58 576.033 1060.1 574.855L1060.11 574.844L1060.11 574.831C1066.28 561.661 1072.11 551.894 1077.83 545.4C1083.54 538.913 1089.31 535.5 1095.34 535.5Z" fill="#1E5C93" stroke="#1E5C93" stroke-width="3"/>
<path d="M987.893 580.071C989.602 578.378 989.602 575.629 987.893 573.936L966.018 552.27C964.309 550.577 961.534 550.577 959.825 552.27C958.116 553.962 958.116 556.711 959.825 558.404L974.235 572.677H870.147C867.727 572.677 865.772 574.613 865.772 577.01C865.772 579.407 867.727 581.343 870.147 581.343H974.235L959.825 595.616C958.116 597.309 958.116 600.058 959.825 601.751C961.534 603.443 964.309 603.443 966.018 601.751L987.893 580.084V580.071Z" fill="#1E5C93"/>
<path d="M455.502 329.991C457.226 329.991 458.88 330.676 460.099 331.894C461.318 333.113 462.002 334.766 462.002 336.49C462.002 338.213 462.687 339.866 463.906 341.085C465.125 342.303 466.778 342.988 468.502 342.988C470.226 342.988 471.879 342.303 473.098 341.085C474.317 339.866 475.002 338.213 475.002 336.49C475.002 333.244 474.191 330.05 472.644 327.198C471.097 324.345 468.862 321.923 466.141 320.153C463.421 318.382 460.302 317.318 457.067 317.058C453.831 316.798 450.582 317.349 447.613 318.662C444.645 319.975 442.051 322.008 440.068 324.577C438.084 327.146 436.773 330.169 436.254 333.372C435.735 336.576 436.024 339.858 437.095 342.922C438.165 345.985 439.984 348.733 442.386 350.916C442.451 350.981 443.439 352.021 443.647 352.32C444.38 353.391 444.773 354.658 444.773 355.956C444.773 357.254 444.38 358.521 443.647 359.592C443.121 360.293 442.742 361.093 442.534 361.945C442.325 362.796 442.291 363.681 442.433 364.546C442.576 365.411 442.892 366.238 443.362 366.978C443.833 367.718 444.448 368.355 445.171 368.85C445.894 369.346 446.71 369.69 447.57 369.863C448.43 370.035 449.315 370.031 450.174 369.852C451.032 369.673 451.845 369.323 452.564 368.821C453.283 368.32 453.894 367.678 454.359 366.935C456.59 363.696 457.782 359.854 457.776 355.921C457.77 351.988 456.567 348.15 454.326 344.918C453.329 343.656 452.266 342.448 451.141 341.298C450.748 340.95 450.399 340.555 450.101 340.122C449.441 339.144 449.06 338.004 448.999 336.826C448.938 335.647 449.2 334.474 449.755 333.433C450.31 332.391 451.138 331.521 452.151 330.914C453.164 330.308 454.322 329.989 455.502 329.991ZM455.502 291C448.523 290.999 441.637 292.604 435.377 295.69C429.117 298.776 423.652 303.261 419.403 308.796C415.154 314.332 412.236 320.771 410.874 327.615C409.513 334.459 409.744 341.525 411.551 348.265C411.997 349.93 413.087 351.349 414.58 352.211C416.073 353.072 417.848 353.306 419.513 352.859C421.178 352.413 422.598 351.323 423.46 349.83C424.322 348.338 424.555 346.563 424.108 344.899C422.913 340.431 422.684 335.76 423.439 331.198C424.193 326.636 425.913 322.287 428.483 318.442C431.054 314.597 434.415 311.345 438.343 308.904C442.271 306.462 446.675 304.887 451.261 304.283C455.847 303.68 460.509 304.062 464.935 305.404C469.361 306.746 473.45 309.017 476.928 312.066C480.406 315.115 483.192 318.871 485.102 323.082C487.012 327.294 488 331.865 488.002 336.49C487.978 342.358 486.397 348.114 483.419 353.171L460.247 401.475C459.108 403.448 457.469 405.088 455.495 406.228C453.521 407.369 451.282 407.971 449.003 407.973C445.569 407.928 442.289 406.544 439.861 404.116C437.433 401.688 436.049 398.409 436.003 394.976C436.006 392.696 436.609 390.457 437.752 388.484C438.615 386.991 438.85 385.215 438.405 383.549C437.959 381.882 436.87 380.461 435.376 379.597C433.882 378.734 432.106 378.499 430.44 378.944C428.773 379.39 427.351 380.479 426.487 381.973C424.762 384.946 423.644 388.232 423.198 391.641C422.752 395.049 422.987 398.513 423.889 401.83C424.791 405.147 426.342 408.252 428.452 410.966C430.563 413.68 433.191 415.948 436.185 417.638C439.179 419.329 442.478 420.41 445.892 420.817C449.306 421.224 452.767 420.95 456.074 420.011C459.382 419.071 462.47 417.485 465.16 415.344C467.85 413.203 470.088 410.55 471.746 407.538L494.904 359.234C498.898 352.319 501 344.475 501 336.49C501 328.505 498.898 320.661 494.905 313.745C490.911 306.83 485.168 301.087 478.251 297.095C471.335 293.102 463.489 291 455.502 291Z" fill="#1E5C93"/>
<path d="M768 346.333C768 358.014 772.64 369.216 780.9 377.475C789.159 385.735 800.361 390.375 812.042 390.375M812.042 390.375C823.722 390.375 834.924 385.735 843.184 377.475C851.443 369.216 856.083 358.014 856.083 346.333M812.042 390.375V415.542M786.875 415.542H837.208M793.167 314.875C793.167 309.869 795.155 305.068 798.695 301.528C802.235 297.989 807.036 296 812.042 296C817.048 296 821.849 297.989 825.388 301.528C828.928 305.068 830.917 309.869 830.917 314.875V346.333C830.917 351.339 828.928 356.14 825.388 359.68C821.849 363.22 817.048 365.208 812.042 365.208C807.036 365.208 802.235 363.22 798.695 359.68C795.155 356.14 793.167 351.339 793.167 346.333V314.875Z" stroke="#1E5C93" stroke-width="13" stroke-linecap="round" stroke-linejoin="round"/>
<path d="M695.121 359.071C696.83 357.378 696.83 354.629 695.121 352.936L673.246 331.27C671.537 329.577 668.762 329.577 667.053 331.27C665.344 332.962 665.344 335.711 667.053 337.404L681.463 351.677H577.375C574.955 351.677 573 353.613 573 356.01C573 358.407 574.955 360.343 577.375 360.343H681.463L667.053 374.616C665.344 376.309 665.344 379.058 667.053 380.751C668.762 382.443 671.537 382.443 673.246 380.751L695.121 359.084V359.071Z" fill="#1E5C93"/>
</g>
<defs>
<clipPath id="clip0_114_878">
<rect width="1280" height="720" fill="white"/>
</clipPath>
</defs>
</svg>
