<?xml version="1.0" encoding="UTF-8" standalone="no"?>
<!DOCTYPE svg PUBLIC "-//W3C//DTD SVG 1.1//EN"
 "http://www.w3.org/Graphics/SVG/1.1/DTD/svg11.dtd">
<!-- Generated by graphviz version 14.1.2 (0)
 -->
<!-- Title: PDG_MakeCode Pages: 1 -->
<svg width="927pt" height="920pt"
 viewBox="0.00 0.00 927.00 920.00" xmlns="http://www.w3.org/2000/svg" xmlns:xlink="http://www.w3.org/1999/xlink">
<g id="graph0" class="graph" transform="scale(1 1) rotate(0) translate(21.6 898.6)">
<title>PDG_MakeCode</title>
<polygon fill="#fbf6eb" stroke="none" points="-21.6,21.6 -21.6,-898.6 905.37,-898.6 905.37,21.6 -21.6,21.6"/>
<g id="clust1" class="cluster">
<title>cluster_loop</title>
<path fill="#fbf6eb" stroke="#8b2418" stroke-width="1.8" stroke-dasharray="5,2" d="M489.77,-8C489.77,-8 863.77,-8 863.77,-8 869.77,-8 875.77,-14 875.77,-20 875.77,-20 875.77,-712 875.77,-712 875.77,-718 869.77,-724 863.77,-724 863.77,-724 489.77,-724 489.77,-724 483.77,-724 477.77,-718 477.77,-712 477.77,-712 477.77,-20 477.77,-20 477.77,-14 483.77,-8 489.77,-8"/>
<text xml:space="preserve" text-anchor="start" x="511.64" y="-710.55" font-family="Arial" font-weight="bold" font-size="11.00">loop</text>
<text xml:space="preserve" text-anchor="start" x="485.77" y="-701.45" font-family="Arial" font-size="9.00" fill="#8b2418">alcance de control</text>
</g>
<!-- n1 -->
<g id="node1" class="node">
<title>n1</title>
<path fill="#34495e" stroke="#1a1612" stroke-width="1.5" d="M395.29,-877C395.29,-877 288.25,-877 288.25,-877 282.25,-877 276.25,-871 276.25,-865 276.25,-865 276.25,-853 276.25,-853 276.25,-847 282.25,-841 288.25,-841 288.25,-841 395.29,-841 395.29,-841 401.29,-841 407.29,-847 407.29,-853 407.29,-853 407.29,-865 407.29,-865 407.29,-871 401.29,-877 395.29,-877"/>
<text xml:space="preserve" text-anchor="middle" x="341.77" y="-855.3" font-family="Arial" font-size="11.00" fill="#fbf6eb">1 &#160;&#160;ProgramStartEvent</text>
</g>
<!-- n2 -->
<g id="node2" class="node">
<title>n2</title>
<path fill="#8b2418" stroke="#1a1612" stroke-width="1.5" d="M376.54,-800C376.54,-800 307,-800 307,-800 301,-800 295,-794 295,-788 295,-788 295,-776 295,-776 295,-770 301,-764 307,-764 307,-764 376.54,-764 376.54,-764 382.54,-764 388.54,-770 388.54,-776 388.54,-776 388.54,-788 388.54,-788 388.54,-794 382.54,-800 376.54,-800"/>
<text xml:space="preserve" text-anchor="middle" x="341.77" y="-778.3" font-family="Arial" font-size="11.00" fill="#fbf6eb">2 &#160;&#160;SetVariable</text>
</g>
<!-- n1&#45;&gt;n2 -->
<g id="edge1" class="edge">
<title>n1&#45;&gt;n2</title>
<path fill="none" stroke="#8b2418" stroke-width="2" d="M341.77,-840.6C341.77,-832.52 341.77,-822.67 341.77,-813.42"/>
<polygon fill="#8b2418" stroke="#8b2418" stroke-width="2" points="345.27,-813.59 341.77,-803.59 338.27,-813.59 345.27,-813.59"/>
</g>
<!-- n3 -->
<g id="node3" class="node">
<title>n3</title>
<path fill="#8b2418" stroke="#1a1612" stroke-width="1.5" d="M81.54,-502C81.54,-502 12,-502 12,-502 6,-502 0,-496 0,-490 0,-490 0,-478 0,-478 0,-472 6,-466 12,-466 12,-466 81.54,-466 81.54,-466 87.54,-466 93.54,-472 93.54,-478 93.54,-478 93.54,-490 93.54,-490 93.54,-496 87.54,-502 81.54,-502"/>
<text xml:space="preserve" text-anchor="middle" x="46.77" y="-480.3" font-family="Arial" font-size="11.00" fill="#fbf6eb">3 &#160;&#160;SetVariable</text>
</g>
<!-- n2&#45;&gt;n3 -->
<g id="edge2" class="edge">
<title>n2&#45;&gt;n3</title>
<path fill="none" stroke="#8b2418" stroke-width="2" d="M324.2,-763.37C274.5,-713.5 132.67,-571.19 73.36,-511.68"/>
<polygon fill="#8b2418" stroke="#8b2418" stroke-width="2" points="75.92,-509.29 66.38,-504.68 70.96,-514.24 75.92,-509.29"/>
</g>
<!-- n4 -->
<g id="node8" class="node">
<title>n4</title>
<path fill="#fbf6eb" stroke="#1a1612" stroke-width="1.5" d="M595.91,-678C595.91,-678 507.62,-678 507.62,-678 501.62,-678 495.62,-672 495.62,-666 495.62,-666 495.62,-654 495.62,-654 495.62,-648 501.62,-642 507.62,-642 507.62,-642 595.91,-642 595.91,-642 601.91,-642 607.91,-648 607.91,-654 607.91,-654 607.91,-666 607.91,-666 607.91,-672 601.91,-678 595.91,-678"/>
<text xml:space="preserve" text-anchor="middle" x="551.77" y="-656.3" font-family="Arial" font-size="11.00" fill="#1a1612">4 &#160;&#160;Comparison [&gt;]</text>
</g>
<!-- n2&#45;&gt;n4 -->
<g id="edge3" class="edge">
<title>n2&#45;&gt;n4</title>
<path fill="none" stroke="#4a3f33" stroke-width="1.3" d="M372.76,-763.29C409.31,-742.41 470.21,-707.61 510.67,-684.48"/>
<polygon fill="#4a3f33" stroke="#4a3f33" stroke-width="1.3" points="512.34,-687.56 519.29,-679.56 508.87,-681.48 512.34,-687.56"/>
<text xml:space="preserve" text-anchor="middle" x="436.04" y="-734.5" font-family="Arial" font-size="10.00" fill="#8b2418"> inicio </text>
</g>
<!-- n7 -->
<g id="node11" class="node">
<title>n7</title>
<path fill="#fbf6eb" stroke="#1a1612" stroke-width="1.5" d="M713.79,-238C713.79,-238 639.75,-238 639.75,-238 633.75,-238 627.75,-232 627.75,-226 627.75,-226 627.75,-214 627.75,-214 627.75,-208 633.75,-202 639.75,-202 639.75,-202 713.79,-202 713.79,-202 719.79,-202 725.79,-208 725.79,-214 725.79,-214 725.79,-226 725.79,-226 725.79,-232 719.79,-238 713.79,-238"/>
<text xml:space="preserve" text-anchor="middle" x="676.77" y="-216.3" font-family="Arial" font-size="11.00" fill="#1a1612">7 &#160;&#160;Arithmetic [&#45;]</text>
</g>
<!-- n2&#45;&gt;n7 -->
<g id="edge4" class="edge">
<title>n2&#45;&gt;n7</title>
<path fill="none" stroke="#4a3f33" stroke-width="1.3" d="M341.77,-763.51C341.77,-740.15 341.77,-697.46 341.77,-661 341.77,-661 341.77,-661 341.77,-527 341.77,-454.56 432.35,-334.27 479.77,-290 501.29,-269.91 510.45,-268.98 537.77,-258 539.76,-257.2 579.6,-246.62 616.11,-236.97"/>
<polygon fill="#4a3f33" stroke="#4a3f33" stroke-width="1.3" points="616.61,-240.46 625.39,-234.52 614.83,-233.69 616.61,-240.46"/>
<text xml:space="preserve" text-anchor="middle" x="370.55" y="-480.5" font-family="Arial" font-size="10.00" fill="#8b2418"> inicio </text>
</g>
<!-- n18 -->
<g id="node5" class="node">
<title>n18</title>
<path fill="#b8843a" stroke="#1a1612" stroke-width="1.5" d="M142.04,-414C142.04,-414 33.5,-414 33.5,-414 27.5,-414 21.5,-408 21.5,-402 21.5,-402 21.5,-390 21.5,-390 21.5,-384 27.5,-378 33.5,-378 33.5,-378 142.04,-378 142.04,-378 148.04,-378 154.04,-384 154.04,-390 154.04,-390 154.04,-402 154.04,-402 154.04,-408 148.04,-414 142.04,-414"/>
<text xml:space="preserve" text-anchor="middle" x="87.77" y="-392.3" font-family="Arial" font-size="11.00" fill="#fbf6eb">18 &#160;&#160;ConditionalBranch</text>
</g>
<!-- n3&#45;&gt;n18 -->
<g id="edge5" class="edge">
<title>n3&#45;&gt;n18</title>
<path fill="none" stroke="#4a3f33" stroke-width="1.3" d="M55.07,-465.6C60.59,-454.02 67.96,-438.54 74.32,-425.22"/>
<polygon fill="#4a3f33" stroke="#4a3f33" stroke-width="1.3" points="77.35,-426.98 78.5,-416.45 71.04,-423.97 77.35,-426.98"/>
<text xml:space="preserve" text-anchor="middle" x="85.85" y="-436.5" font-family="Arial" font-size="10.00" fill="#8b2418"> activo </text>
</g>
<!-- n17 -->
<g id="node4" class="node">
<title>n17</title>
<path fill="#34495e" stroke="#1a1612" stroke-width="1.5" d="M265.79,-502C265.79,-502 137.75,-502 137.75,-502 131.75,-502 125.75,-496 125.75,-490 125.75,-490 125.75,-478 125.75,-478 125.75,-472 131.75,-466 137.75,-466 137.75,-466 265.79,-466 265.79,-466 271.79,-466 277.79,-472 277.79,-478 277.79,-478 277.79,-490 277.79,-490 277.79,-496 271.79,-502 265.79,-502"/>
<text xml:space="preserve" text-anchor="middle" x="201.77" y="-480.3" font-family="Arial" font-size="11.00" fill="#fbf6eb">17 &#160;&#160;SuddenNoiseEvent #1</text>
</g>
<!-- n17&#45;&gt;n18 -->
<g id="edge22" class="edge">
<title>n17&#45;&gt;n18</title>
<path fill="none" stroke="#8b2418" stroke-width="2" d="M178.43,-465.39C161.98,-452.98 139.71,-436.18 121.36,-422.34"/>
<polygon fill="#8b2418" stroke="#8b2418" stroke-width="2" points="123.59,-419.64 113.5,-416.41 119.38,-425.23 123.59,-419.64"/>
</g>
<!-- n20 -->
<g id="node7" class="node">
<title>n20</title>
<path fill="#8b2418" stroke="#1a1612" stroke-width="1.5" d="M307.54,-326C307.54,-326 232,-326 232,-326 226,-326 220,-320 220,-314 220,-314 220,-302 220,-302 220,-296 226,-290 232,-290 232,-290 307.54,-290 307.54,-290 313.54,-290 319.54,-296 319.54,-302 319.54,-302 319.54,-314 319.54,-314 319.54,-320 313.54,-326 307.54,-326"/>
<text xml:space="preserve" text-anchor="middle" x="269.77" y="-304.3" font-family="Arial" font-size="11.00" fill="#fbf6eb">20 &#160;&#160;SetVariable</text>
</g>
<!-- n18&#45;&gt;n20 -->
<g id="edge23" class="edge">
<title>n18&#45;&gt;n20</title>
<path fill="none" stroke="#8b2418" stroke-width="2" d="M130.45,-377.29C144.35,-371.35 159.79,-364.56 173.77,-358 190.81,-350 209.28,-340.72 225.42,-332.4"/>
<polygon fill="#8b2418" stroke="#8b2418" stroke-width="2" points="226.76,-335.65 234.03,-327.94 223.54,-329.44 226.76,-335.65"/>
<text xml:space="preserve" text-anchor="middle" x="208.97" y="-348.5" font-family="Arial" font-size="10.00" fill="#8b2418"> true </text>
</g>
<!-- n19 -->
<g id="node6" class="node">
<title>n19</title>
<path fill="#fbf6eb" stroke="#1a1612" stroke-width="1.5" d="M307.79,-414C307.79,-414 197.75,-414 197.75,-414 191.75,-414 185.75,-408 185.75,-402 185.75,-402 185.75,-390 185.75,-390 185.75,-384 191.75,-378 197.75,-378 197.75,-378 307.79,-378 307.79,-378 313.79,-378 319.79,-384 319.79,-390 319.79,-390 319.79,-402 319.79,-402 319.79,-408 313.79,-414 307.79,-414"/>
<text xml:space="preserve" text-anchor="middle" x="252.77" y="-392.3" font-family="Arial" font-size="11.00" fill="#1a1612">19 &#160;&#160;ReadRuntimeMillis</text>
</g>
<!-- n19&#45;&gt;n20 -->
<g id="edge24" class="edge">
<title>n19&#45;&gt;n20</title>
<path fill="none" stroke="#4a3f33" stroke-width="1.3" d="M256.21,-377.6C258.45,-366.25 261.44,-351.16 264.03,-338.02"/>
<polygon fill="#4a3f33" stroke="#4a3f33" stroke-width="1.3" points="267.39,-339.09 265.89,-328.6 260.52,-337.73 267.39,-339.09"/>
<text xml:space="preserve" text-anchor="middle" x="279.91" y="-348.5" font-family="Arial" font-size="10.00" fill="#8b2418"> time_1 </text>
</g>
<!-- n20&#45;&gt;n4 -->
<g id="edge25" class="edge">
<title>n20&#45;&gt;n4</title>
<path fill="none" stroke="#4a3f33" stroke-width="1.3" d="M320.17,-314.1C368.7,-322.13 434.77,-342.67 434.77,-395 434.77,-573 434.77,-573 434.77,-573 434.77,-602.27 458.83,-622.67 485.13,-636.24"/>
<polygon fill="#4a3f33" stroke="#4a3f33" stroke-width="1.3" points="483.36,-639.27 493.89,-640.44 486.39,-632.96 483.36,-639.27"/>
<text xml:space="preserve" text-anchor="middle" x="449.02" y="-480.5" font-family="Arial" font-size="10.00" fill="#8b2418"> inicio </text>
</g>
<!-- n20&#45;&gt;n7 -->
<g id="edge26" class="edge">
<title>n20&#45;&gt;n7</title>
<path fill="none" stroke="#4a3f33" stroke-width="1.3" d="M281,-289.27C289.07,-278.2 301.02,-264.79 315.27,-258 374.88,-229.58 546.59,-248.62 611.77,-238 613.04,-237.79 614.31,-237.57 615.6,-237.34"/>
<polygon fill="#4a3f33" stroke="#4a3f33" stroke-width="1.3" points="616.26,-240.78 625.36,-235.36 614.87,-233.92 616.26,-240.78"/>
<text xml:space="preserve" text-anchor="middle" x="329.52" y="-260.5" font-family="Arial" font-size="10.00" fill="#8b2418"> inicio </text>
</g>
<!-- n5 -->
<g id="node9" class="node">
<title>n5</title>
<path fill="#b8843a" stroke="#1a1612" stroke-width="1.5" d="M846.04,-590C846.04,-590 743.5,-590 743.5,-590 737.5,-590 731.5,-584 731.5,-578 731.5,-578 731.5,-566 731.5,-566 731.5,-560 737.5,-554 743.5,-554 743.5,-554 846.04,-554 846.04,-554 852.04,-554 858.04,-560 858.04,-566 858.04,-566 858.04,-578 858.04,-578 858.04,-584 852.04,-590 846.04,-590"/>
<text xml:space="preserve" text-anchor="middle" x="794.77" y="-568.3" font-family="Arial" font-size="11.00" fill="#fbf6eb">5 &#160;&#160;ConditionalBranch</text>
</g>
<!-- n4&#45;&gt;n5 -->
<g id="edge6" class="edge">
<title>n4&#45;&gt;n5</title>
<path fill="none" stroke="#4a3f33" stroke-width="1.3" d="M601.83,-641.29C640.05,-627.76 692.91,-609.05 733.64,-594.64"/>
<polygon fill="#4a3f33" stroke="#4a3f33" stroke-width="1.3" points="734.67,-597.98 742.92,-591.35 732.33,-591.39 734.67,-597.98"/>
<text xml:space="preserve" text-anchor="middle" x="710.32" y="-612.5" font-family="Arial" font-size="10.00" fill="#8b2418"> condition </text>
</g>
<!-- n9 -->
<g id="node13" class="node">
<title>n9</title>
<path fill="#fbf6eb" stroke="#1a1612" stroke-width="1.5" d="M845.66,-502C845.66,-502 749.88,-502 749.88,-502 743.88,-502 737.88,-496 737.88,-490 737.88,-490 737.88,-478 737.88,-478 737.88,-472 743.88,-466 749.88,-466 749.88,-466 845.66,-466 845.66,-466 851.66,-466 857.66,-472 857.66,-478 857.66,-478 857.66,-490 857.66,-490 857.66,-496 851.66,-502 845.66,-502"/>
<text xml:space="preserve" text-anchor="middle" x="797.77" y="-480.3" font-family="Arial" font-size="11.00" fill="#1a1612">9 &#160;&#160;ShowNumber #1</text>
</g>
<!-- n5&#45;&gt;n9 -->
<g id="edge7" class="edge">
<title>n5&#45;&gt;n9</title>
<path fill="none" stroke="#8b2418" stroke-width="2" d="M795.38,-553.6C795.76,-542.71 796.26,-528.39 796.7,-515.64"/>
<polygon fill="#8b2418" stroke="#8b2418" stroke-width="2" points="800.2,-515.81 797.05,-505.7 793.2,-515.57 800.2,-515.81"/>
<text xml:space="preserve" text-anchor="middle" x="807.7" y="-524.5" font-family="Arial" font-size="10.00" fill="#8b2418"> true </text>
</g>
<!-- n6 -->
<g id="node10" class="node">
<title>n6</title>
<path fill="#fbf6eb" stroke="#1a1612" stroke-width="1.5" d="M743.79,-326C743.79,-326 639.75,-326 639.75,-326 633.75,-326 627.75,-320 627.75,-314 627.75,-314 627.75,-302 627.75,-302 627.75,-296 633.75,-290 639.75,-290 639.75,-290 743.79,-290 743.79,-290 749.79,-290 755.79,-296 755.79,-302 755.79,-302 755.79,-314 755.79,-314 755.79,-320 749.79,-326 743.79,-326"/>
<text xml:space="preserve" text-anchor="middle" x="691.77" y="-304.3" font-family="Arial" font-size="11.00" fill="#1a1612">6 &#160;&#160;ReadRuntimeMillis</text>
</g>
<!-- n6&#45;&gt;n7 -->
<g id="edge8" class="edge">
<title>n6&#45;&gt;n7</title>
<path fill="none" stroke="#4a3f33" stroke-width="1.3" d="M688.73,-289.6C686.78,-278.36 684.18,-263.47 681.9,-250.43"/>
<polygon fill="#4a3f33" stroke="#4a3f33" stroke-width="1.3" points="685.36,-249.86 680.19,-240.61 678.46,-251.06 685.36,-249.86"/>
<text xml:space="preserve" text-anchor="middle" x="702.79" y="-260.5" font-family="Arial" font-size="10.00" fill="#8b2418"> time_1 </text>
</g>
<!-- n8 -->
<g id="node12" class="node">
<title>n8</title>
<path fill="#fbf6eb" stroke="#1a1612" stroke-width="1.5" d="M780.91,-150C780.91,-150 704.62,-150 704.62,-150 698.62,-150 692.62,-144 692.62,-138 692.62,-138 692.62,-126 692.62,-126 692.62,-120 698.62,-114 704.62,-114 704.62,-114 780.91,-114 780.91,-114 786.91,-114 792.91,-120 792.91,-126 792.91,-126 792.91,-138 792.91,-138 792.91,-144 786.91,-150 780.91,-150"/>
<text xml:space="preserve" text-anchor="middle" x="742.77" y="-128.3" font-family="Arial" font-size="11.00" fill="#1a1612">8 &#160;&#160;Arithmetic [÷]</text>
</g>
<!-- n7&#45;&gt;n8 -->
<g id="edge9" class="edge">
<title>n7&#45;&gt;n8</title>
<path fill="none" stroke="#4a3f33" stroke-width="1.3" d="M690.13,-201.6C699.28,-189.67 711.6,-173.61 722.03,-160.03"/>
<polygon fill="#4a3f33" stroke="#4a3f33" stroke-width="1.3" points="724.7,-162.3 728.01,-152.23 719.14,-158.04 724.7,-162.3"/>
<text xml:space="preserve" text-anchor="middle" x="723.47" y="-172.5" font-family="Arial" font-size="10.00" fill="#8b2418"> left </text>
</g>
<!-- n8&#45;&gt;n9 -->
<g id="edge10" class="edge">
<title>n8&#45;&gt;n9</title>
<path fill="none" stroke="#4a3f33" stroke-width="1.3" d="M772.76,-150.47C794.38,-165.56 819.77,-189.54 819.77,-219 819.77,-397 819.77,-397 819.77,-397 819.77,-416.59 814.34,-437.94 808.88,-454.46"/>
<polygon fill="#4a3f33" stroke="#4a3f33" stroke-width="1.3" points="805.65,-453.09 805.63,-463.69 812.25,-455.42 805.65,-453.09"/>
<text xml:space="preserve" text-anchor="middle" x="834.39" y="-304.5" font-family="Arial" font-size="10.00" fill="#8b2418"> value </text>
</g>
<!-- n12 -->
<g id="node16" class="node">
<title>n12</title>
<path fill="#b8843a" stroke="#1a1612" stroke-width="1.5" d="M701.04,-414C701.04,-414 592.5,-414 592.5,-414 586.5,-414 580.5,-408 580.5,-402 580.5,-402 580.5,-390 580.5,-390 580.5,-384 586.5,-378 592.5,-378 592.5,-378 701.04,-378 701.04,-378 707.04,-378 713.04,-384 713.04,-390 713.04,-390 713.04,-402 713.04,-402 713.04,-408 707.04,-414 701.04,-414"/>
<text xml:space="preserve" text-anchor="middle" x="646.77" y="-392.3" font-family="Arial" font-size="11.00" fill="#fbf6eb">12 &#160;&#160;ConditionalBranch</text>
</g>
<!-- n9&#45;&gt;n12 -->
<g id="edge11" class="edge">
<title>n9&#45;&gt;n12</title>
<path fill="none" stroke="#8b2418" stroke-width="2" d="M766.85,-465.39C744.43,-452.62 713.84,-435.2 689.14,-421.13"/>
<polygon fill="#8b2418" stroke="#8b2418" stroke-width="2" points="690.96,-418.14 680.54,-416.23 687.5,-424.22 690.96,-418.14"/>
<text xml:space="preserve" text-anchor="middle" x="742.56" y="-436.5" font-family="Arial" font-size="10.00" fill="#8b2418"> true </text>
</g>
<!-- n10 -->
<g id="node14" class="node">
<title>n10</title>
<path fill="#fbf6eb" stroke="#1a1612" stroke-width="1.5" d="M687.91,-590C687.91,-590 569.62,-590 569.62,-590 563.62,-590 557.62,-584 557.62,-578 557.62,-578 557.62,-566 557.62,-566 557.62,-560 563.62,-554 569.62,-554 569.62,-554 687.91,-554 687.91,-554 693.91,-554 699.91,-560 699.91,-566 699.91,-566 699.91,-578 699.91,-578 699.91,-584 693.91,-590 687.91,-590"/>
<text xml:space="preserve" text-anchor="middle" x="628.77" y="-568.3" font-family="Arial" font-size="11.00" fill="#1a1612">10 &#160;&#160;ReadSoundLevel #1</text>
</g>
<!-- n11 -->
<g id="node15" class="node">
<title>n11</title>
<path fill="#fbf6eb" stroke="#1a1612" stroke-width="1.5" d="M693.54,-502C693.54,-502 600,-502 600,-502 594,-502 588,-496 588,-490 588,-490 588,-478 588,-478 588,-472 594,-466 600,-466 600,-466 693.54,-466 693.54,-466 699.54,-466 705.54,-472 705.54,-478 705.54,-478 705.54,-490 705.54,-490 705.54,-496 699.54,-502 693.54,-502"/>
<text xml:space="preserve" text-anchor="middle" x="646.77" y="-480.3" font-family="Arial" font-size="11.00" fill="#1a1612">11 &#160;&#160;Comparison [&lt;]</text>
</g>
<!-- n10&#45;&gt;n11 -->
<g id="edge12" class="edge">
<title>n10&#45;&gt;n11</title>
<path fill="none" stroke="#4a3f33" stroke-width="1.3" d="M632.41,-553.6C634.79,-542.25 637.95,-527.16 640.7,-514.02"/>
<polygon fill="#4a3f33" stroke="#4a3f33" stroke-width="1.3" points="644.05,-515.1 642.67,-504.6 637.19,-513.67 644.05,-515.1"/>
<text xml:space="preserve" text-anchor="middle" x="660.22" y="-524.5" font-family="Arial" font-size="10.00" fill="#8b2418"> sound_1 </text>
</g>
<!-- n11&#45;&gt;n12 -->
<g id="edge13" class="edge">
<title>n11&#45;&gt;n12</title>
<path fill="none" stroke="#4a3f33" stroke-width="1.3" d="M646.77,-465.6C646.77,-454.36 646.77,-439.47 646.77,-426.43"/>
<polygon fill="#4a3f33" stroke="#4a3f33" stroke-width="1.3" points="650.27,-426.64 646.77,-416.64 643.27,-426.64 650.27,-426.64"/>
<text xml:space="preserve" text-anchor="middle" x="669.27" y="-436.5" font-family="Arial" font-size="10.00" fill="#8b2418"> condition </text>
</g>
<!-- n13 -->
<g id="node17" class="node">
<title>n13</title>
<path fill="#8b2418" stroke="#1a1612" stroke-width="1.5" d="M583.54,-326C583.54,-326 508,-326 508,-326 502,-326 496,-320 496,-314 496,-314 496,-302 496,-302 496,-296 502,-290 508,-290 508,-290 583.54,-290 583.54,-290 589.54,-290 595.54,-296 595.54,-302 595.54,-302 595.54,-314 595.54,-314 595.54,-320 589.54,-326 583.54,-326"/>
<text xml:space="preserve" text-anchor="middle" x="545.77" y="-304.3" font-family="Arial" font-size="11.00" fill="#fbf6eb">13 &#160;&#160;SetVariable</text>
</g>
<!-- n12&#45;&gt;n13 -->
<g id="edge14" class="edge">
<title>n12&#45;&gt;n13</title>
<path fill="none" stroke="#8b2418" stroke-width="2" d="M626.33,-377.6C611.92,-365.32 592.36,-348.67 576.13,-334.85"/>
<polygon fill="#8b2418" stroke="#8b2418" stroke-width="2" points="578.71,-332.45 568.83,-328.64 574.17,-337.78 578.71,-332.45"/>
<text xml:space="preserve" text-anchor="middle" x="613.57" y="-348.5" font-family="Arial" font-size="10.00" fill="#8b2418"> true </text>
</g>
<!-- n13&#45;&gt;n4 -->
<g id="edge16" class="edge">
<title>n13&#45;&gt;n4</title>
<path fill="none" stroke="#4a3f33" stroke-width="1.3" d="M544.48,-326.46C541.44,-370.65 534.6,-490.48 541.77,-590 542.72,-603.22 544.69,-617.75 546.63,-630.06"/>
<polygon fill="#4a3f33" stroke="#4a3f33" stroke-width="1.3" points="543.11,-630.26 548.2,-639.55 550.02,-629.11 543.11,-630.26"/>
<text xml:space="preserve" text-anchor="middle" x="552.99" y="-480.5" font-family="Arial" font-size="10.00" fill="#8b2418"> inicio </text>
</g>
<!-- n13&#45;&gt;n7 -->
<g id="edge17" class="edge">
<title>n13&#45;&gt;n7</title>
<path fill="none" stroke="#4a3f33" stroke-width="1.3" d="M572.6,-289.39C592.11,-276.58 618.76,-259.08 640.22,-244.99"/>
<polygon fill="#4a3f33" stroke="#4a3f33" stroke-width="1.3" points="641.9,-248.08 648.34,-239.67 638.05,-242.23 641.9,-248.08"/>
<text xml:space="preserve" text-anchor="middle" x="633.36" y="-260.5" font-family="Arial" font-size="10.00" fill="#8b2418"> inicio </text>
</g>
<!-- n14 -->
<g id="node18" class="node">
<title>n14</title>
<path fill="#8b2418" stroke="#1a1612" stroke-width="1.5" d="M583.54,-238C583.54,-238 508,-238 508,-238 502,-238 496,-232 496,-226 496,-226 496,-214 496,-214 496,-208 502,-202 508,-202 508,-202 583.54,-202 583.54,-202 589.54,-202 595.54,-208 595.54,-214 595.54,-214 595.54,-226 595.54,-226 595.54,-232 589.54,-238 583.54,-238"/>
<text xml:space="preserve" text-anchor="middle" x="545.77" y="-216.3" font-family="Arial" font-size="11.00" fill="#fbf6eb">14 &#160;&#160;SetVariable</text>
</g>
<!-- n13&#45;&gt;n14 -->
<g id="edge15" class="edge">
<title>n13&#45;&gt;n14</title>
<path fill="none" stroke="#8b2418" stroke-width="2" d="M545.77,-289.6C545.77,-278.71 545.77,-264.39 545.77,-251.64"/>
<polygon fill="#8b2418" stroke="#8b2418" stroke-width="2" points="549.27,-251.7 545.77,-241.7 542.27,-251.7 549.27,-251.7"/>
<text xml:space="preserve" text-anchor="middle" x="557.02" y="-260.5" font-family="Arial" font-size="10.00" fill="#8b2418"> true </text>
</g>
<!-- n14&#45;&gt;n18 -->
<g id="edge19" class="edge">
<title>n14&#45;&gt;n18</title>
<path fill="none" stroke="#4a3f33" stroke-width="1.3" d="M495.5,-225.43C406.18,-234.09 224.23,-255.48 171.52,-290 141.58,-309.61 117.43,-343.45 102.9,-367.41"/>
<polygon fill="#4a3f33" stroke="#4a3f33" stroke-width="1.3" points="99.94,-365.54 97.9,-375.94 105.98,-369.08 99.94,-365.54"/>
<text xml:space="preserve" text-anchor="middle" x="187.64" y="-304.5" font-family="Arial" font-size="10.00" fill="#8b2418"> activo </text>
</g>
<!-- n15 -->
<g id="node19" class="node">
<title>n15</title>
<path fill="#4a3f33" stroke="#1a1612" stroke-width="1.5" d="M569.66,-150C569.66,-150 521.88,-150 521.88,-150 515.88,-150 509.88,-144 509.88,-138 509.88,-138 509.88,-126 509.88,-126 509.88,-120 515.88,-114 521.88,-114 521.88,-114 569.66,-114 569.66,-114 575.66,-114 581.66,-120 581.66,-126 581.66,-126 581.66,-138 581.66,-138 581.66,-144 575.66,-150 569.66,-150"/>
<text xml:space="preserve" text-anchor="middle" x="545.77" y="-128.3" font-family="Arial" font-size="11.00" fill="#fbf6eb">15 &#160;&#160;Delay</text>
</g>
<!-- n14&#45;&gt;n15 -->
<g id="edge18" class="edge">
<title>n14&#45;&gt;n15</title>
<path fill="none" stroke="#8b2418" stroke-width="2" d="M545.77,-201.6C545.77,-190.71 545.77,-176.39 545.77,-163.64"/>
<polygon fill="#8b2418" stroke="#8b2418" stroke-width="2" points="549.27,-163.7 545.77,-153.7 542.27,-163.7 549.27,-163.7"/>
<text xml:space="preserve" text-anchor="middle" x="557.02" y="-172.5" font-family="Arial" font-size="10.00" fill="#8b2418"> true </text>
</g>
<!-- n16 -->
<g id="node20" class="node">
<title>n16</title>
<path fill="#8b2418" stroke="#1a1612" stroke-width="1.5" d="M583.54,-62C583.54,-62 508,-62 508,-62 502,-62 496,-56 496,-50 496,-50 496,-38 496,-38 496,-32 502,-26 508,-26 508,-26 583.54,-26 583.54,-26 589.54,-26 595.54,-32 595.54,-38 595.54,-38 595.54,-50 595.54,-50 595.54,-56 589.54,-62 583.54,-62"/>
<text xml:space="preserve" text-anchor="middle" x="545.77" y="-40.3" font-family="Arial" font-size="11.00" fill="#fbf6eb">16 &#160;&#160;SetVariable</text>
</g>
<!-- n15&#45;&gt;n16 -->
<g id="edge20" class="edge">
<title>n15&#45;&gt;n16</title>
<path fill="none" stroke="#8b2418" stroke-width="2" d="M545.77,-113.6C545.77,-102.71 545.77,-88.39 545.77,-75.64"/>
<polygon fill="#8b2418" stroke="#8b2418" stroke-width="2" points="549.27,-75.7 545.77,-65.7 542.27,-75.7 549.27,-75.7"/>
<text xml:space="preserve" text-anchor="middle" x="557.02" y="-84.5" font-family="Arial" font-size="10.00" fill="#8b2418"> true </text>
</g>
<!-- n16&#45;&gt;n18 -->
<g id="edge21" class="edge">
<title>n16&#45;&gt;n18</title>
<path fill="none" stroke="#4a3f33" stroke-width="1.3" d="M495.36,-48.96C373.86,-59.17 74.77,-88.61 74.77,-131 74.77,-309 74.77,-309 74.77,-309 74.77,-328.01 77.91,-349.13 81.11,-365.67"/>
<polygon fill="#4a3f33" stroke="#4a3f33" stroke-width="1.3" points="77.67,-366.31 83.12,-375.4 84.52,-364.9 77.67,-366.31"/>
<text xml:space="preserve" text-anchor="middle" x="90.89" y="-216.5" font-family="Arial" font-size="10.00" fill="#8b2418"> activo </text>
</g>
</g>
</svg>
