<?xml version="1.0" encoding="UTF-8" standalone="no"?>
<!DOCTYPE svg PUBLIC "-//W3C//DTD SVG 1.1//EN"
 "http://www.w3.org/Graphics/SVG/1.1/DTD/svg11.dtd">
<!-- Generated by graphviz version 14.1.2 (0)
 -->
<!-- Title: PDG_Protobject Pages: 1 -->
<svg width="971pt" height="764pt"
 viewBox="0.00 0.00 971.00 764.00" xmlns="http://www.w3.org/2000/svg" xmlns:xlink="http://www.w3.org/1999/xlink">
<g id="graph0" class="graph" transform="scale(1 1) rotate(0) translate(21.6 742.6)">
<title>PDG_Protobject</title>
<polygon fill="#fbf6eb" stroke="none" points="-21.6,21.6 -21.6,-742.6 949.37,-742.6 949.37,21.6 -21.6,21.6"/>
<g id="clust1" class="cluster">
<title>cluster_loop</title>
<path fill="#fbf6eb" stroke="#8b2418" stroke-width="1.8" stroke-dasharray="5,2" d="M20,-8C20,-8 440,-8 440,-8 446,-8 452,-14 452,-20 452,-20 452,-701 452,-701 452,-707 446,-713 440,-713 440,-713 20,-713 20,-713 14,-713 8,-707 8,-701 8,-701 8,-20 8,-20 8,-14 14,-8 20,-8"/>
<text xml:space="preserve" text-anchor="start" x="41.88" y="-699.55" font-family="Arial" font-weight="bold" font-size="11.00">loop</text>
<text xml:space="preserve" text-anchor="start" x="16" y="-690.45" font-family="Arial" font-size="9.00" fill="#8b2418">alcance de control</text>
</g>
<!-- n1 -->
<g id="node1" class="node">
<title>n1</title>
<path fill="#34495e" stroke="#1a1612" stroke-width="1.5" d="M589.52,-502C589.52,-502 482.48,-502 482.48,-502 476.48,-502 470.48,-496 470.48,-490 470.48,-490 470.48,-478 470.48,-478 470.48,-472 476.48,-466 482.48,-466 482.48,-466 589.52,-466 589.52,-466 595.52,-466 601.52,-472 601.52,-478 601.52,-478 601.52,-490 601.52,-490 601.52,-496 595.52,-502 589.52,-502"/>
<text xml:space="preserve" text-anchor="middle" x="536" y="-480.3" font-family="Arial" font-size="11.00" fill="#fbf6eb">1 &#160;&#160;ProgramStartEvent</text>
</g>
<!-- n2 -->
<g id="node2" class="node">
<title>n2</title>
<path fill="#fbf6eb" stroke="#1a1612" stroke-width="1.5" d="M573.02,-414C573.02,-414 486.98,-414 486.98,-414 480.98,-414 474.98,-408 474.98,-402 474.98,-402 474.98,-390 474.98,-390 474.98,-384 480.98,-378 486.98,-378 486.98,-378 573.02,-378 573.02,-378 579.02,-378 585.02,-384 585.02,-390 585.02,-390 585.02,-402 585.02,-402 585.02,-408 579.02,-414 573.02,-414"/>
<text xml:space="preserve" text-anchor="middle" x="530" y="-392.3" font-family="Arial" font-size="11.00" fill="#1a1612">2 &#160;&#160;SetTextSize #1</text>
</g>
<!-- n1&#45;&gt;n2 -->
<g id="edge1" class="edge">
<title>n1&#45;&gt;n2</title>
<path fill="none" stroke="#8b2418" stroke-width="2" d="M534.79,-465.6C534.03,-454.71 533.03,-440.39 532.14,-427.64"/>
<polygon fill="#8b2418" stroke="#8b2418" stroke-width="2" points="535.63,-427.42 531.44,-417.69 528.65,-427.91 535.63,-427.42"/>
</g>
<!-- n3 -->
<g id="node3" class="node">
<title>n3</title>
<path fill="#8b2418" stroke="#1a1612" stroke-width="1.5" d="M557.77,-326C557.77,-326 488.23,-326 488.23,-326 482.23,-326 476.23,-320 476.23,-314 476.23,-314 476.23,-302 476.23,-302 476.23,-296 482.23,-290 488.23,-290 488.23,-290 557.77,-290 557.77,-290 563.77,-290 569.77,-296 569.77,-302 569.77,-302 569.77,-314 569.77,-314 569.77,-320 563.77,-326 557.77,-326"/>
<text xml:space="preserve" text-anchor="middle" x="523" y="-304.3" font-family="Arial" font-size="11.00" fill="#fbf6eb">3 &#160;&#160;SetVariable</text>
</g>
<!-- n2&#45;&gt;n3 -->
<g id="edge2" class="edge">
<title>n2&#45;&gt;n3</title>
<path fill="none" stroke="#8b2418" stroke-width="2" d="M528.58,-377.6C527.7,-366.71 526.53,-352.39 525.49,-339.64"/>
<polygon fill="#8b2418" stroke="#8b2418" stroke-width="2" points="528.98,-339.37 524.68,-329.69 522.01,-339.94 528.98,-339.37"/>
</g>
<!-- n4 -->
<g id="node4" class="node">
<title>n4</title>
<path fill="#8b2418" stroke="#1a1612" stroke-width="1.5" d="M915.77,-238C915.77,-238 846.23,-238 846.23,-238 840.23,-238 834.23,-232 834.23,-226 834.23,-226 834.23,-214 834.23,-214 834.23,-208 840.23,-202 846.23,-202 846.23,-202 915.77,-202 915.77,-202 921.77,-202 927.77,-208 927.77,-214 927.77,-214 927.77,-226 927.77,-226 927.77,-232 921.77,-238 915.77,-238"/>
<text xml:space="preserve" text-anchor="middle" x="881" y="-216.3" font-family="Arial" font-size="11.00" fill="#fbf6eb">4 &#160;&#160;SetVariable</text>
</g>
<!-- n3&#45;&gt;n4 -->
<g id="edge3" class="edge">
<title>n3&#45;&gt;n4</title>
<path fill="none" stroke="#8b2418" stroke-width="2" d="M570.38,-296.44C628.76,-283.3 730.91,-259.93 818,-238 819.11,-237.72 820.22,-237.44 821.35,-237.15"/>
<polygon fill="#8b2418" stroke="#8b2418" stroke-width="2" points="821.84,-240.64 830.64,-234.74 820.08,-233.86 821.84,-240.64"/>
</g>
<!-- n6 -->
<g id="node10" class="node">
<title>n6</title>
<path fill="#fbf6eb" stroke="#1a1612" stroke-width="1.5" d="M422.14,-238C422.14,-238 333.86,-238 333.86,-238 327.86,-238 321.86,-232 321.86,-226 321.86,-226 321.86,-214 321.86,-214 321.86,-208 327.86,-202 333.86,-202 333.86,-202 422.14,-202 422.14,-202 428.14,-202 434.14,-208 434.14,-214 434.14,-214 434.14,-226 434.14,-226 434.14,-232 428.14,-238 422.14,-238"/>
<text xml:space="preserve" text-anchor="middle" x="378" y="-216.3" font-family="Arial" font-size="11.00" fill="#1a1612">6 &#160;&#160;Comparison [&gt;]</text>
</g>
<!-- n3&#45;&gt;n6 -->
<g id="edge4" class="edge">
<title>n3&#45;&gt;n6</title>
<path fill="none" stroke="#4a3f33" stroke-width="1.3" d="M511.19,-289.58C503.38,-279.19 492.34,-266.43 480,-258 469.58,-250.88 457.63,-244.96 445.66,-240.08"/>
<polygon fill="#4a3f33" stroke="#4a3f33" stroke-width="1.3" points="447.14,-236.9 436.55,-236.61 444.64,-243.44 447.14,-236.9"/>
<text xml:space="preserve" text-anchor="middle" x="507.91" y="-260.5" font-family="Arial" font-size="10.00" fill="#8b2418"> inicio </text>
</g>
<!-- n9 -->
<g id="node13" class="node">
<title>n9</title>
<path fill="#fbf6eb" stroke="#1a1612" stroke-width="1.5" d="M146.02,-238C146.02,-238 71.98,-238 71.98,-238 65.98,-238 59.98,-232 59.98,-226 59.98,-226 59.98,-214 59.98,-214 59.98,-208 65.98,-202 71.98,-202 71.98,-202 146.02,-202 146.02,-202 152.02,-202 158.02,-208 158.02,-214 158.02,-214 158.02,-226 158.02,-226 158.02,-232 152.02,-238 146.02,-238"/>
<text xml:space="preserve" text-anchor="middle" x="109" y="-216.3" font-family="Arial" font-size="11.00" fill="#1a1612">9 &#160;&#160;Arithmetic [&#45;]</text>
</g>
<!-- n3&#45;&gt;n9 -->
<g id="edge5" class="edge">
<title>n3&#45;&gt;n9</title>
<path fill="none" stroke="#4a3f33" stroke-width="1.3" d="M484.31,-289.27C458.9,-278.42 424.62,-265.26 393,-258 297.74,-236.12 270.27,-254.87 174,-238 172.74,-237.78 171.46,-237.54 170.18,-237.3"/>
<polygon fill="#4a3f33" stroke="#4a3f33" stroke-width="1.3" points="170.93,-233.88 160.42,-235.25 169.49,-240.73 170.93,-233.88"/>
<text xml:space="preserve" text-anchor="middle" x="447.52" y="-260.5" font-family="Arial" font-size="10.00" fill="#8b2418"> inicio </text>
</g>
<!-- n20 -->
<g id="node6" class="node">
<title>n20</title>
<path fill="#b8843a" stroke="#1a1612" stroke-width="1.5" d="M849.27,-150C849.27,-150 740.73,-150 740.73,-150 734.73,-150 728.73,-144 728.73,-138 728.73,-138 728.73,-126 728.73,-126 728.73,-120 734.73,-114 740.73,-114 740.73,-114 849.27,-114 849.27,-114 855.27,-114 861.27,-120 861.27,-126 861.27,-126 861.27,-138 861.27,-138 861.27,-144 855.27,-150 849.27,-150"/>
<text xml:space="preserve" text-anchor="middle" x="795" y="-128.3" font-family="Arial" font-size="11.00" fill="#fbf6eb">20 &#160;&#160;ConditionalBranch</text>
</g>
<!-- n4&#45;&gt;n20 -->
<g id="edge6" class="edge">
<title>n4&#45;&gt;n20</title>
<path fill="none" stroke="#4a3f33" stroke-width="1.3" d="M863.6,-201.6C851.32,-189.32 834.67,-172.67 820.85,-158.85"/>
<polygon fill="#4a3f33" stroke="#4a3f33" stroke-width="1.3" points="823.61,-156.66 814.06,-152.06 818.66,-161.61 823.61,-156.66"/>
<text xml:space="preserve" text-anchor="middle" x="859.27" y="-172.5" font-family="Arial" font-size="10.00" fill="#8b2418"> activo </text>
</g>
<!-- n19 -->
<g id="node5" class="node">
<title>n19</title>
<path fill="#34495e" stroke="#1a1612" stroke-width="1.5" d="M790.02,-238C790.02,-238 661.98,-238 661.98,-238 655.98,-238 649.98,-232 649.98,-226 649.98,-226 649.98,-214 649.98,-214 649.98,-208 655.98,-202 661.98,-202 661.98,-202 790.02,-202 790.02,-202 796.02,-202 802.02,-208 802.02,-214 802.02,-214 802.02,-226 802.02,-226 802.02,-232 796.02,-238 790.02,-238"/>
<text xml:space="preserve" text-anchor="middle" x="726" y="-216.3" font-family="Arial" font-size="11.00" fill="#fbf6eb">19 &#160;&#160;SuddenNoiseEvent #1</text>
</g>
<!-- n19&#45;&gt;n20 -->
<g id="edge25" class="edge">
<title>n19&#45;&gt;n20</title>
<path fill="none" stroke="#8b2418" stroke-width="2" d="M739.96,-201.6C749.35,-189.9 761.92,-174.23 772.68,-160.82"/>
<polygon fill="#8b2418" stroke="#8b2418" stroke-width="2" points="775.4,-163.02 778.93,-153.03 769.94,-158.64 775.4,-163.02"/>
</g>
<!-- n22 -->
<g id="node8" class="node">
<title>n22</title>
<path fill="#8b2418" stroke="#1a1612" stroke-width="1.5" d="M750.77,-62C750.77,-62 675.23,-62 675.23,-62 669.23,-62 663.23,-56 663.23,-50 663.23,-50 663.23,-38 663.23,-38 663.23,-32 669.23,-26 675.23,-26 675.23,-26 750.77,-26 750.77,-26 756.77,-26 762.77,-32 762.77,-38 762.77,-38 762.77,-50 762.77,-50 762.77,-56 756.77,-62 750.77,-62"/>
<text xml:space="preserve" text-anchor="middle" x="713" y="-40.3" font-family="Arial" font-size="11.00" fill="#fbf6eb">22 &#160;&#160;SetVariable</text>
</g>
<!-- n20&#45;&gt;n22 -->
<g id="edge26" class="edge">
<title>n20&#45;&gt;n22</title>
<path fill="none" stroke="#8b2418" stroke-width="2" d="M778.41,-113.6C767.03,-101.67 751.72,-85.61 738.77,-72.03"/>
<polygon fill="#8b2418" stroke="#8b2418" stroke-width="2" points="741.37,-69.69 731.94,-64.86 736.31,-74.52 741.37,-69.69"/>
<text xml:space="preserve" text-anchor="middle" x="770.16" y="-84.5" font-family="Arial" font-size="10.00" fill="#8b2418"> true </text>
</g>
<!-- n21 -->
<g id="node7" class="node">
<title>n21</title>
<path fill="#fbf6eb" stroke="#1a1612" stroke-width="1.5" d="M592.02,-150C592.02,-150 481.98,-150 481.98,-150 475.98,-150 469.98,-144 469.98,-138 469.98,-138 469.98,-126 469.98,-126 469.98,-120 475.98,-114 481.98,-114 481.98,-114 592.02,-114 592.02,-114 598.02,-114 604.02,-120 604.02,-126 604.02,-126 604.02,-138 604.02,-138 604.02,-144 598.02,-150 592.02,-150"/>
<text xml:space="preserve" text-anchor="middle" x="537" y="-128.3" font-family="Arial" font-size="11.00" fill="#1a1612">21 &#160;&#160;ReadRuntimeMillis</text>
</g>
<!-- n21&#45;&gt;n22 -->
<g id="edge27" class="edge">
<title>n21&#45;&gt;n22</title>
<path fill="none" stroke="#4a3f33" stroke-width="1.3" d="M559.29,-113.26C572.75,-103.14 590.58,-90.76 607.75,-82 621.5,-74.98 636.88,-68.75 651.56,-63.49"/>
<polygon fill="#4a3f33" stroke="#4a3f33" stroke-width="1.3" points="652.44,-66.89 660.74,-60.31 650.15,-60.28 652.44,-66.89"/>
<text xml:space="preserve" text-anchor="middle" x="625.38" y="-84.5" font-family="Arial" font-size="10.00" fill="#8b2418"> time_1 </text>
</g>
<!-- n22&#45;&gt;n6 -->
<g id="edge28" class="edge">
<title>n22&#45;&gt;n6</title>
<path fill="none" stroke="#4a3f33" stroke-width="1.3" d="M763.29,-52.31C800.86,-60.58 850.17,-77.94 877,-114 919.72,-171.42 893.93,-170.24 883,-182 881.16,-183.98 583.81,-204.77 446.3,-214.29"/>
<polygon fill="#4a3f33" stroke="#4a3f33" stroke-width="1.3" points="446.4,-210.78 436.66,-214.96 446.88,-217.76 446.4,-210.78"/>
<text xml:space="preserve" text-anchor="middle" x="912.78" y="-128.5" font-family="Arial" font-size="10.00" fill="#8b2418"> inicio </text>
</g>
<!-- n22&#45;&gt;n9 -->
<g id="edge29" class="edge">
<title>n22&#45;&gt;n9</title>
<path fill="none" stroke="#4a3f33" stroke-width="1.3" d="M703.06,-62.72C688.38,-87.02 658.43,-129.95 620,-150 443.08,-242.33 370.13,-165.11 174,-202 172.74,-202.24 171.47,-202.49 170.19,-202.74"/>
<polygon fill="#4a3f33" stroke="#4a3f33" stroke-width="1.3" points="169.47,-199.32 160.44,-204.87 170.96,-206.16 169.47,-199.32"/>
<text xml:space="preserve" text-anchor="middle" x="678.71" y="-128.5" font-family="Arial" font-size="10.00" fill="#8b2418"> inicio </text>
</g>
<!-- n5 -->
<g id="node9" class="node">
<title>n5</title>
<path fill="#fbf6eb" stroke="#1a1612" stroke-width="1.5" d="M151.02,-667C151.02,-667 40.98,-667 40.98,-667 34.98,-667 28.98,-661 28.98,-655 28.98,-655 28.98,-643 28.98,-643 28.98,-637 34.98,-631 40.98,-631 40.98,-631 151.02,-631 151.02,-631 157.02,-631 163.02,-637 163.02,-643 163.02,-643 163.02,-655 163.02,-655 163.02,-661 157.02,-667 151.02,-667"/>
<text xml:space="preserve" text-anchor="middle" x="96" y="-645.3" font-family="Arial" font-size="11.00" fill="#1a1612">5 &#160;&#160;ClearTextDisplay #1</text>
</g>
<!-- n7 -->
<g id="node11" class="node">
<title>n7</title>
<path fill="#b8843a" stroke="#1a1612" stroke-width="1.5" d="M147.27,-590C147.27,-590 44.73,-590 44.73,-590 38.73,-590 32.73,-584 32.73,-578 32.73,-578 32.73,-566 32.73,-566 32.73,-560 38.73,-554 44.73,-554 44.73,-554 147.27,-554 147.27,-554 153.27,-554 159.27,-560 159.27,-566 159.27,-566 159.27,-578 159.27,-578 159.27,-584 153.27,-590 147.27,-590"/>
<text xml:space="preserve" text-anchor="middle" x="96" y="-568.3" font-family="Arial" font-size="11.00" fill="#fbf6eb">7 &#160;&#160;ConditionalBranch</text>
</g>
<!-- n5&#45;&gt;n7 -->
<g id="edge7" class="edge">
<title>n5&#45;&gt;n7</title>
<path fill="none" stroke="#8b2418" stroke-width="2" d="M96,-630.6C96,-622.52 96,-612.67 96,-603.42"/>
<polygon fill="#8b2418" stroke="#8b2418" stroke-width="2" points="99.5,-603.59 96,-593.59 92.5,-603.59 99.5,-603.59"/>
</g>
<!-- n11 -->
<g id="node15" class="node">
<title>n11</title>
<path fill="#fbf6eb" stroke="#1a1612" stroke-width="1.5" d="M146.52,-502C146.52,-502 45.48,-502 45.48,-502 39.48,-502 33.48,-496 33.48,-490 33.48,-490 33.48,-478 33.48,-478 33.48,-472 39.48,-466 45.48,-466 45.48,-466 146.52,-466 146.52,-466 152.52,-466 158.52,-472 158.52,-478 158.52,-478 158.52,-490 158.52,-490 158.52,-496 152.52,-502 146.52,-502"/>
<text xml:space="preserve" text-anchor="middle" x="96" y="-480.3" font-family="Arial" font-size="11.00" fill="#1a1612">11 &#160;&#160;ShowNumber #1</text>
</g>
<!-- n5&#45;&gt;n11 -->
<g id="edge8" class="edge">
<title>n5&#45;&gt;n11</title>
<path fill="none" stroke="#5a6b3b" stroke-width="1.3" stroke-dasharray="5,2" d="M133.45,-630.48C149.32,-620.93 166.16,-607.46 175,-590 182.23,-575.73 181.62,-568.57 175,-554 166.77,-535.88 151.16,-520.65 135.98,-509.15"/>
<polygon fill="#5a6b3b" stroke="#5a6b3b" stroke-width="1.3" points="138.42,-506.59 128.25,-503.62 134.35,-512.29 138.42,-506.59"/>
<text xml:space="preserve" text-anchor="middle" x="198.57" y="-568.5" font-family="Arial" font-size="10.00" fill="#5a6b3b"> display </text>
</g>
<!-- n6&#45;&gt;n7 -->
<g id="edge9" class="edge">
<title>n6&#45;&gt;n7</title>
<path fill="none" stroke="#4a3f33" stroke-width="1.3" d="M386.52,-238.69C389.04,-244.69 391.52,-251.51 393,-258 396.16,-271.89 394.56,-275.76 395,-290 398.03,-387.07 411.33,-433.98 342,-502 335.67,-508.21 241.33,-533.57 171.36,-551.74"/>
<polygon fill="#4a3f33" stroke="#4a3f33" stroke-width="1.3" points="170.63,-548.31 161.82,-554.21 172.38,-555.09 170.63,-548.31"/>
<text xml:space="preserve" text-anchor="middle" x="420.44" y="-392.5" font-family="Arial" font-size="10.00" fill="#8b2418"> condition </text>
</g>
<!-- n7&#45;&gt;n11 -->
<g id="edge10" class="edge">
<title>n7&#45;&gt;n11</title>
<path fill="none" stroke="#8b2418" stroke-width="2" d="M96,-553.6C96,-542.71 96,-528.39 96,-515.64"/>
<polygon fill="#8b2418" stroke="#8b2418" stroke-width="2" points="99.5,-515.7 96,-505.7 92.5,-515.7 99.5,-515.7"/>
<text xml:space="preserve" text-anchor="middle" x="107.25" y="-524.5" font-family="Arial" font-size="10.00" fill="#8b2418"> true </text>
</g>
<!-- n8 -->
<g id="node12" class="node">
<title>n8</title>
<path fill="#fbf6eb" stroke="#1a1612" stroke-width="1.5" d="M235.02,-326C235.02,-326 130.98,-326 130.98,-326 124.98,-326 118.98,-320 118.98,-314 118.98,-314 118.98,-302 118.98,-302 118.98,-296 124.98,-290 130.98,-290 130.98,-290 235.02,-290 235.02,-290 241.02,-290 247.02,-296 247.02,-302 247.02,-302 247.02,-314 247.02,-314 247.02,-320 241.02,-326 235.02,-326"/>
<text xml:space="preserve" text-anchor="middle" x="183" y="-304.3" font-family="Arial" font-size="11.00" fill="#1a1612">8 &#160;&#160;ReadRuntimeMillis</text>
</g>
<!-- n8&#45;&gt;n9 -->
<g id="edge11" class="edge">
<title>n8&#45;&gt;n9</title>
<path fill="none" stroke="#4a3f33" stroke-width="1.3" d="M136,-289.37C127.76,-284.3 120.12,-277.92 114.75,-270 110.91,-264.33 108.9,-257.41 107.97,-250.59"/>
<polygon fill="#4a3f33" stroke="#4a3f33" stroke-width="1.3" points="111.46,-250.43 107.38,-240.66 104.48,-250.85 111.46,-250.43"/>
<text xml:space="preserve" text-anchor="middle" x="132.38" y="-260.5" font-family="Arial" font-size="10.00" fill="#8b2418"> time_1 </text>
</g>
<!-- n10 -->
<g id="node14" class="node">
<title>n10</title>
<path fill="#fbf6eb" stroke="#1a1612" stroke-width="1.5" d="M128.14,-150C128.14,-150 45.86,-150 45.86,-150 39.86,-150 33.86,-144 33.86,-138 33.86,-138 33.86,-126 33.86,-126 33.86,-120 39.86,-114 45.86,-114 45.86,-114 128.14,-114 128.14,-114 134.14,-114 140.14,-120 140.14,-126 140.14,-126 140.14,-138 140.14,-138 140.14,-144 134.14,-150 128.14,-150"/>
<text xml:space="preserve" text-anchor="middle" x="87" y="-128.3" font-family="Arial" font-size="11.00" fill="#1a1612">10 &#160;&#160;Arithmetic [÷]</text>
</g>
<!-- n9&#45;&gt;n10 -->
<g id="edge12" class="edge">
<title>n9&#45;&gt;n10</title>
<path fill="none" stroke="#4a3f33" stroke-width="1.3" d="M104.55,-201.6C101.64,-190.25 97.79,-175.16 94.42,-162.02"/>
<polygon fill="#4a3f33" stroke="#4a3f33" stroke-width="1.3" points="97.88,-161.4 92.01,-152.58 91.1,-163.13 97.88,-161.4"/>
<text xml:space="preserve" text-anchor="middle" x="109.07" y="-172.5" font-family="Arial" font-size="10.00" fill="#8b2418"> left </text>
</g>
<!-- n10&#45;&gt;n11 -->
<g id="edge13" class="edge">
<title>n10&#45;&gt;n11</title>
<path fill="none" stroke="#4a3f33" stroke-width="1.3" d="M72.08,-150.68C61.96,-163.88 49.47,-182.87 44,-202 18.11,-292.5 59.15,-403.19 82.14,-454.44"/>
<polygon fill="#4a3f33" stroke="#4a3f33" stroke-width="1.3" points="78.96,-455.9 86.32,-463.52 85.32,-452.97 78.96,-455.9"/>
<text xml:space="preserve" text-anchor="middle" x="55.92" y="-304.5" font-family="Arial" font-size="10.00" fill="#8b2418"> value </text>
</g>
<!-- n14 -->
<g id="node18" class="node">
<title>n14</title>
<path fill="#b8843a" stroke="#1a1612" stroke-width="1.5" d="M313.27,-414C313.27,-414 204.73,-414 204.73,-414 198.73,-414 192.73,-408 192.73,-402 192.73,-402 192.73,-390 192.73,-390 192.73,-384 198.73,-378 204.73,-378 204.73,-378 313.27,-378 313.27,-378 319.27,-378 325.27,-384 325.27,-390 325.27,-390 325.27,-402 325.27,-402 325.27,-408 319.27,-414 313.27,-414"/>
<text xml:space="preserve" text-anchor="middle" x="259" y="-392.3" font-family="Arial" font-size="11.00" fill="#fbf6eb">14 &#160;&#160;ConditionalBranch</text>
</g>
<!-- n11&#45;&gt;n14 -->
<g id="edge14" class="edge">
<title>n11&#45;&gt;n14</title>
<path fill="none" stroke="#8b2418" stroke-width="2" d="M129.38,-465.39C153.8,-452.5 187.2,-434.88 213.98,-420.75"/>
<polygon fill="#8b2418" stroke="#8b2418" stroke-width="2" points="215.5,-423.91 222.71,-416.15 212.23,-417.72 215.5,-423.91"/>
<text xml:space="preserve" text-anchor="middle" x="198.51" y="-436.5" font-family="Arial" font-size="10.00" fill="#8b2418"> true </text>
</g>
<!-- n12 -->
<g id="node16" class="node">
<title>n12</title>
<path fill="#fbf6eb" stroke="#1a1612" stroke-width="1.5" d="M422.14,-590C422.14,-590 303.86,-590 303.86,-590 297.86,-590 291.86,-584 291.86,-578 291.86,-578 291.86,-566 291.86,-566 291.86,-560 297.86,-554 303.86,-554 303.86,-554 422.14,-554 422.14,-554 428.14,-554 434.14,-560 434.14,-566 434.14,-566 434.14,-578 434.14,-578 434.14,-584 428.14,-590 422.14,-590"/>
<text xml:space="preserve" text-anchor="middle" x="363" y="-568.3" font-family="Arial" font-size="11.00" fill="#1a1612">12 &#160;&#160;ReadSoundLevel #1</text>
</g>
<!-- n13 -->
<g id="node17" class="node">
<title>n13</title>
<path fill="#fbf6eb" stroke="#1a1612" stroke-width="1.5" d="M314.14,-502C314.14,-502 219.86,-502 219.86,-502 213.86,-502 207.86,-496 207.86,-490 207.86,-490 207.86,-478 207.86,-478 207.86,-472 213.86,-466 219.86,-466 219.86,-466 314.14,-466 314.14,-466 320.14,-466 326.14,-472 326.14,-478 326.14,-478 326.14,-490 326.14,-490 326.14,-496 320.14,-502 314.14,-502"/>
<text xml:space="preserve" text-anchor="middle" x="267" y="-480.3" font-family="Arial" font-size="11.00" fill="#1a1612">13 &#160;&#160;Comparison [&lt;]</text>
</g>
<!-- n12&#45;&gt;n13 -->
<g id="edge15" class="edge">
<title>n12&#45;&gt;n13</title>
<path fill="none" stroke="#4a3f33" stroke-width="1.3" d="M364.13,-553.47C363.89,-543.3 361.93,-530.8 355,-522 350.04,-515.7 343.81,-510.46 336.97,-506.11"/>
<polygon fill="#4a3f33" stroke="#4a3f33" stroke-width="1.3" points="338.75,-503.09 328.31,-501.3 335.35,-509.21 338.75,-503.09"/>
<text xml:space="preserve" text-anchor="middle" x="382.45" y="-524.5" font-family="Arial" font-size="10.00" fill="#8b2418"> sound_1 </text>
</g>
<!-- n13&#45;&gt;n14 -->
<g id="edge16" class="edge">
<title>n13&#45;&gt;n14</title>
<path fill="none" stroke="#4a3f33" stroke-width="1.3" d="M265.38,-465.6C264.34,-454.36 262.95,-439.47 261.74,-426.43"/>
<polygon fill="#4a3f33" stroke="#4a3f33" stroke-width="1.3" points="265.24,-426.26 260.83,-416.63 258.27,-426.91 265.24,-426.26"/>
<text xml:space="preserve" text-anchor="middle" x="285.98" y="-436.5" font-family="Arial" font-size="10.00" fill="#8b2418"> condition </text>
</g>
<!-- n15 -->
<g id="node19" class="node">
<title>n15</title>
<path fill="#8b2418" stroke="#1a1612" stroke-width="1.5" d="M366.77,-326C366.77,-326 291.23,-326 291.23,-326 285.23,-326 279.23,-320 279.23,-314 279.23,-314 279.23,-302 279.23,-302 279.23,-296 285.23,-290 291.23,-290 291.23,-290 366.77,-290 366.77,-290 372.77,-290 378.77,-296 378.77,-302 378.77,-302 378.77,-314 378.77,-314 378.77,-320 372.77,-326 366.77,-326"/>
<text xml:space="preserve" text-anchor="middle" x="329" y="-304.3" font-family="Arial" font-size="11.00" fill="#fbf6eb">15 &#160;&#160;SetVariable</text>
</g>
<!-- n14&#45;&gt;n15 -->
<g id="edge17" class="edge">
<title>n14&#45;&gt;n15</title>
<path fill="none" stroke="#8b2418" stroke-width="2" d="M273.17,-377.6C282.78,-365.78 295.69,-349.92 306.68,-336.43"/>
<polygon fill="#8b2418" stroke="#8b2418" stroke-width="2" points="309.11,-338.99 312.7,-329.02 303.68,-334.57 309.11,-338.99"/>
<text xml:space="preserve" text-anchor="middle" x="309.44" y="-348.5" font-family="Arial" font-size="10.00" fill="#8b2418"> true </text>
</g>
<!-- n15&#45;&gt;n6 -->
<g id="edge19" class="edge">
<title>n15&#45;&gt;n6</title>
<path fill="none" stroke="#4a3f33" stroke-width="1.3" d="M338.92,-289.6C345.58,-277.9 354.51,-262.23 362.15,-248.82"/>
<polygon fill="#4a3f33" stroke="#4a3f33" stroke-width="1.3" points="365.05,-250.8 366.96,-240.38 358.97,-247.34 365.05,-250.8"/>
<text xml:space="preserve" text-anchor="middle" x="370.68" y="-260.5" font-family="Arial" font-size="10.00" fill="#8b2418"> inicio </text>
</g>
<!-- n15&#45;&gt;n9 -->
<g id="edge20" class="edge">
<title>n15&#45;&gt;n9</title>
<path fill="none" stroke="#4a3f33" stroke-width="1.3" d="M283.68,-289.29C249.37,-275.87 202.04,-257.37 165.29,-243.01"/>
<polygon fill="#4a3f33" stroke="#4a3f33" stroke-width="1.3" points="166.68,-239.79 156.09,-239.41 164.13,-246.31 166.68,-239.79"/>
<text xml:space="preserve" text-anchor="middle" x="246.42" y="-260.5" font-family="Arial" font-size="10.00" fill="#8b2418"> inicio </text>
</g>
<!-- n16 -->
<g id="node20" class="node">
<title>n16</title>
<path fill="#8b2418" stroke="#1a1612" stroke-width="1.5" d="M277.77,-238C277.77,-238 202.23,-238 202.23,-238 196.23,-238 190.23,-232 190.23,-226 190.23,-226 190.23,-214 190.23,-214 190.23,-208 196.23,-202 202.23,-202 202.23,-202 277.77,-202 277.77,-202 283.77,-202 289.77,-208 289.77,-214 289.77,-214 289.77,-226 289.77,-226 289.77,-232 283.77,-238 277.77,-238"/>
<text xml:space="preserve" text-anchor="middle" x="240" y="-216.3" font-family="Arial" font-size="11.00" fill="#fbf6eb">16 &#160;&#160;SetVariable</text>
</g>
<!-- n15&#45;&gt;n16 -->
<g id="edge18" class="edge">
<title>n15&#45;&gt;n16</title>
<path fill="none" stroke="#8b2418" stroke-width="2" d="M310.99,-289.6C298.53,-277.55 281.7,-261.3 267.56,-247.63"/>
<polygon fill="#8b2418" stroke="#8b2418" stroke-width="2" points="270.09,-245.21 260.47,-240.78 265.23,-250.24 270.09,-245.21"/>
<text xml:space="preserve" text-anchor="middle" x="301.08" y="-260.5" font-family="Arial" font-size="10.00" fill="#8b2418"> true </text>
</g>
<!-- n16&#45;&gt;n20 -->
<g id="edge22" class="edge">
<title>n16&#45;&gt;n20</title>
<path fill="none" stroke="#4a3f33" stroke-width="1.3" d="M290.23,-204.96C295.53,-203.81 300.85,-202.79 306,-202 473.16,-176.34 521.63,-221.79 686,-182 692.58,-180.41 720.78,-167.7 746.85,-155.63"/>
<polygon fill="#4a3f33" stroke="#4a3f33" stroke-width="1.3" points="748.06,-158.92 755.66,-151.54 745.11,-152.58 748.06,-158.92"/>
<text xml:space="preserve" text-anchor="middle" x="731.36" y="-172.5" font-family="Arial" font-size="10.00" fill="#8b2418"> activo </text>
</g>
<!-- n17 -->
<g id="node21" class="node">
<title>n17</title>
<path fill="#4a3f33" stroke="#1a1612" stroke-width="1.5" d="M345.89,-150C345.89,-150 298.11,-150 298.11,-150 292.11,-150 286.11,-144 286.11,-138 286.11,-138 286.11,-126 286.11,-126 286.11,-120 292.11,-114 298.11,-114 298.11,-114 345.89,-114 345.89,-114 351.89,-114 357.89,-120 357.89,-126 357.89,-126 357.89,-138 357.89,-138 357.89,-144 351.89,-150 345.89,-150"/>
<text xml:space="preserve" text-anchor="middle" x="322" y="-128.3" font-family="Arial" font-size="11.00" fill="#fbf6eb">17 &#160;&#160;Delay</text>
</g>
<!-- n16&#45;&gt;n17 -->
<g id="edge21" class="edge">
<title>n16&#45;&gt;n17</title>
<path fill="none" stroke="#8b2418" stroke-width="2" d="M256.59,-201.6C267.97,-189.67 283.28,-173.61 296.23,-160.03"/>
<polygon fill="#8b2418" stroke="#8b2418" stroke-width="2" points="298.69,-162.52 303.06,-152.86 293.63,-157.69 298.69,-162.52"/>
<text xml:space="preserve" text-anchor="middle" x="297.16" y="-172.5" font-family="Arial" font-size="10.00" fill="#8b2418"> true </text>
</g>
<!-- n18 -->
<g id="node22" class="node">
<title>n18</title>
<path fill="#8b2418" stroke="#1a1612" stroke-width="1.5" d="M410.77,-62C410.77,-62 335.23,-62 335.23,-62 329.23,-62 323.23,-56 323.23,-50 323.23,-50 323.23,-38 323.23,-38 323.23,-32 329.23,-26 335.23,-26 335.23,-26 410.77,-26 410.77,-26 416.77,-26 422.77,-32 422.77,-38 422.77,-38 422.77,-50 422.77,-50 422.77,-56 416.77,-62 410.77,-62"/>
<text xml:space="preserve" text-anchor="middle" x="373" y="-40.3" font-family="Arial" font-size="11.00" fill="#fbf6eb">18 &#160;&#160;SetVariable</text>
</g>
<!-- n17&#45;&gt;n18 -->
<g id="edge23" class="edge">
<title>n17&#45;&gt;n18</title>
<path fill="none" stroke="#8b2418" stroke-width="2" d="M332.32,-113.6C339.12,-102.13 348.18,-86.85 356.03,-73.62"/>
<polygon fill="#8b2418" stroke="#8b2418" stroke-width="2" points="358.89,-75.66 360.98,-65.28 352.86,-72.09 358.89,-75.66"/>
<text xml:space="preserve" text-anchor="middle" x="361.8" y="-84.5" font-family="Arial" font-size="10.00" fill="#8b2418"> true </text>
</g>
<!-- n18&#45;&gt;n20 -->
<g id="edge24" class="edge">
<title>n18&#45;&gt;n20</title>
<path fill="none" stroke="#4a3f33" stroke-width="1.3" d="M423.45,-61.38C457.87,-72.02 504.67,-85.46 546.75,-94 616.23,-108.1 634.97,-102.97 705,-114 708.77,-114.59 712.62,-115.23 716.51,-115.88"/>
<polygon fill="#4a3f33" stroke="#4a3f33" stroke-width="1.3" points="715.85,-119.32 726.3,-117.58 717.05,-112.42 715.85,-119.32"/>
<text xml:space="preserve" text-anchor="middle" x="562.88" y="-84.5" font-family="Arial" font-size="10.00" fill="#8b2418"> activo </text>
</g>
</g>
</svg>
