<?xml version="1.0" encoding="UTF-8" standalone="no"?>
<!DOCTYPE svg PUBLIC "-//W3C//DTD SVG 1.1//EN"
 "http://www.w3.org/Graphics/SVG/1.1/DTD/svg11.dtd">
<!-- Generated by graphviz version 14.1.2 (0)
 -->
<!-- Title: PDG_MakeCode Pages: 1 -->
<svg width="488pt" height="691pt"
 viewBox="0.00 0.00 488.00 691.00" xmlns="http://www.w3.org/2000/svg" xmlns:xlink="http://www.w3.org/1999/xlink">
<g id="graph0" class="graph" transform="scale(1 1) rotate(0) translate(21.6 669.6)">
<title>PDG_MakeCode</title>
<polygon fill="#fbf6eb" stroke="none" points="-21.6,21.6 -21.6,-669.6 466.13,-669.6 466.13,21.6 -21.6,21.6"/>
<g id="clust1" class="cluster">
<title>cluster_loop</title>
<path fill="#fbf6eb" stroke="#8b2418" stroke-width="1.8" stroke-dasharray="5,2" d="M167.52,-153C167.52,-153 346.52,-153 346.52,-153 352.52,-153 358.52,-159 358.52,-165 358.52,-165 358.52,-483 358.52,-483 358.52,-489 352.52,-495 346.52,-495 346.52,-495 167.52,-495 167.52,-495 161.52,-495 155.52,-489 155.52,-483 155.52,-483 155.52,-165 155.52,-165 155.52,-159 161.52,-153 167.52,-153"/>
<text xml:space="preserve" text-anchor="start" x="189.39" y="-481.55" font-family="Arial" font-weight="bold" font-size="11.00">loop</text>
<text xml:space="preserve" text-anchor="start" x="163.52" y="-472.45" font-family="Arial" font-size="9.00" fill="#8b2418">alcance de control</text>
</g>
<!-- n1 -->
<g id="node1" class="node">
<title>n1</title>
<path fill="#34495e" stroke="#1a1612" stroke-width="1.5" d="M119.04,-648C119.04,-648 12,-648 12,-648 6,-648 0,-642 0,-636 0,-636 0,-624 0,-624 0,-618 6,-612 12,-612 12,-612 119.04,-612 119.04,-612 125.04,-612 131.04,-618 131.04,-624 131.04,-624 131.04,-636 131.04,-636 131.04,-642 125.04,-648 119.04,-648"/>
<text xml:space="preserve" text-anchor="middle" x="65.52" y="-626.3" font-family="Arial" font-size="11.00" fill="#fbf6eb">1 &#160;&#160;ProgramStartEvent</text>
</g>
<!-- n2 -->
<g id="node2" class="node">
<title>n2</title>
<path fill="#5a6b3b" stroke="#1a1612" stroke-width="1.5" d="M108.16,-571C108.16,-571 22.87,-571 22.87,-571 16.87,-571 10.87,-565 10.87,-559 10.87,-559 10.87,-547 10.87,-547 10.87,-541 16.87,-535 22.87,-535 22.87,-535 108.16,-535 108.16,-535 114.16,-535 120.16,-541 120.16,-547 120.16,-547 120.16,-559 120.16,-559 120.16,-565 114.16,-571 108.16,-571"/>
<text xml:space="preserve" text-anchor="middle" x="65.52" y="-549.3" font-family="Arial" font-size="11.00" fill="#fbf6eb">2 &#160;&#160;DrawImage #1</text>
</g>
<!-- n1&#45;&gt;n2 -->
<g id="edge1" class="edge">
<title>n1&#45;&gt;n2</title>
<path fill="none" stroke="#8b2418" stroke-width="2" d="M65.52,-611.6C65.52,-603.52 65.52,-593.67 65.52,-584.42"/>
<polygon fill="#8b2418" stroke="#8b2418" stroke-width="2" points="69.02,-584.59 65.52,-574.59 62.02,-584.59 69.02,-584.59"/>
</g>
<!-- n5 -->
<g id="node7" class="node">
<title>n5</title>
<path fill="#5a6b3b" stroke="#1a1612" stroke-width="1.5" d="M271.16,-449C271.16,-449 185.88,-449 185.88,-449 179.88,-449 173.88,-443 173.88,-437 173.88,-437 173.88,-425 173.88,-425 173.88,-419 179.88,-413 185.88,-413 185.88,-413 271.16,-413 271.16,-413 277.16,-413 283.16,-419 283.16,-425 283.16,-425 283.16,-437 283.16,-437 283.16,-443 277.16,-449 271.16,-449"/>
<text xml:space="preserve" text-anchor="middle" x="228.52" y="-427.3" font-family="Arial" font-size="11.00" fill="#fbf6eb">5 &#160;&#160;DrawImage #1</text>
</g>
<!-- n2&#45;&gt;n5 -->
<g id="edge2" class="edge">
<title>n2&#45;&gt;n5</title>
<path fill="none" stroke="#5a6b3b" stroke-width="1.3" stroke-dasharray="5,2" d="M79.92,-534.56C88.57,-524.67 100.13,-512.42 111.77,-503 134.06,-484.96 161.32,-468.13 183.9,-455.39"/>
<polygon fill="#5a6b3b" stroke="#5a6b3b" stroke-width="1.3" points="185.47,-458.52 192.51,-450.61 182.07,-452.4 185.47,-458.52"/>
<text xml:space="preserve" text-anchor="middle" x="130.14" y="-505.5" font-family="Arial" font-size="10.00" fill="#5a6b3b"> display </text>
</g>
<!-- n3 -->
<g id="node3" class="node">
<title>n3</title>
<path fill="#34495e" stroke="#1a1612" stroke-width="1.5" d="M282.04,-648C282.04,-648 175,-648 175,-648 169,-648 163,-642 163,-636 163,-636 163,-624 163,-624 163,-618 169,-612 175,-612 175,-612 282.04,-612 282.04,-612 288.04,-612 294.04,-618 294.04,-624 294.04,-624 294.04,-636 294.04,-636 294.04,-642 288.04,-648 282.04,-648"/>
<text xml:space="preserve" text-anchor="middle" x="228.52" y="-626.3" font-family="Arial" font-size="11.00" fill="#fbf6eb">3 &#160;&#160;SuddenNoiseEvent</text>
</g>
<!-- n4 -->
<g id="node4" class="node">
<title>n4</title>
<path fill="#fbf6eb" stroke="#1a1612" stroke-width="1.5" d="M269.29,-571C269.29,-571 187.75,-571 187.75,-571 181.75,-571 175.75,-565 175.75,-559 175.75,-559 175.75,-547 175.75,-547 175.75,-541 181.75,-535 187.75,-535 187.75,-535 269.29,-535 269.29,-535 275.29,-535 281.29,-541 281.29,-547 281.29,-547 281.29,-559 281.29,-559 281.29,-565 275.29,-571 269.29,-571"/>
<text xml:space="preserve" text-anchor="middle" x="228.52" y="-549.3" font-family="Arial" font-size="11.00" fill="#1a1612">4 &#160;&#160;PlaySound #1</text>
</g>
<!-- n3&#45;&gt;n4 -->
<g id="edge3" class="edge">
<title>n3&#45;&gt;n4</title>
<path fill="none" stroke="#8b2418" stroke-width="2" d="M228.52,-611.6C228.52,-603.52 228.52,-593.67 228.52,-584.42"/>
<polygon fill="#8b2418" stroke="#8b2418" stroke-width="2" points="232.02,-584.59 228.52,-574.59 225.02,-584.59 232.02,-584.59"/>
</g>
<!-- n9 -->
<g id="node5" class="node">
<title>n9</title>
<path fill="#fbf6eb" stroke="#1a1612" stroke-width="1.5" d="M270.04,-113C270.04,-113 187,-113 187,-113 181,-113 175,-107 175,-101 175,-101 175,-89 175,-89 175,-83 181,-77 187,-77 187,-77 270.04,-77 270.04,-77 276.04,-77 282.04,-83 282.04,-89 282.04,-89 282.04,-101 282.04,-101 282.04,-107 276.04,-113 270.04,-113"/>
<text xml:space="preserve" text-anchor="middle" x="228.52" y="-91.3" font-family="Arial" font-size="11.00" fill="#1a1612">9 &#160;&#160;StopSound #1</text>
</g>
<!-- n4&#45;&gt;n9 -->
<g id="edge5" class="edge">
<title>n4&#45;&gt;n9</title>
<path fill="none" stroke="#5a6b3b" stroke-width="1.3" stroke-dasharray="5,2" d="M281.94,-544.61C312.22,-537.38 347.71,-523.12 366.52,-495 451.03,-368.66 409.72,-298.73 366.52,-153 357.43,-122.34 325.06,-108 293.96,-101.36"/>
<polygon fill="#5a6b3b" stroke="#5a6b3b" stroke-width="1.3" points="295.01,-97.99 284.53,-99.61 293.73,-104.88 295.01,-97.99"/>
<text xml:space="preserve" text-anchor="middle" x="428.41" y="-306.5" font-family="Arial" font-size="10.00" fill="#5a6b3b"> sound </text>
</g>
<!-- n4&#45;&gt;n5 -->
<g id="edge4" class="edge">
<title>n4&#45;&gt;n5</title>
<path fill="none" stroke="#8b2418" stroke-width="2" d="M228.52,-534.29C228.52,-515.4 228.52,-485.11 228.52,-462.39"/>
<polygon fill="#8b2418" stroke="#8b2418" stroke-width="2" points="232.02,-462.42 228.52,-452.42 225.02,-462.42 232.02,-462.42"/>
</g>
<!-- n10 -->
<g id="node6" class="node">
<title>n10</title>
<path fill="#5a6b3b" stroke="#1a1612" stroke-width="1.5" d="M274.16,-36C274.16,-36 182.88,-36 182.88,-36 176.88,-36 170.88,-30 170.88,-24 170.88,-24 170.88,-12 170.88,-12 170.88,-6 176.88,0 182.88,0 182.88,0 274.16,0 274.16,0 280.16,0 286.16,-6 286.16,-12 286.16,-12 286.16,-24 286.16,-24 286.16,-30 280.16,-36 274.16,-36"/>
<text xml:space="preserve" text-anchor="middle" x="228.52" y="-14.3" font-family="Arial" font-size="11.00" fill="#fbf6eb">10 &#160;&#160;DrawImage #1</text>
</g>
<!-- n9&#45;&gt;n10 -->
<g id="edge12" class="edge">
<title>n9&#45;&gt;n10</title>
<path fill="none" stroke="#8b2418" stroke-width="2" d="M228.52,-76.6C228.52,-68.52 228.52,-58.67 228.52,-49.42"/>
<polygon fill="#8b2418" stroke="#8b2418" stroke-width="2" points="232.02,-49.59 228.52,-39.59 225.02,-49.59 232.02,-49.59"/>
</g>
<!-- n6 -->
<g id="node8" class="node">
<title>n6</title>
<path fill="#4a3f33" stroke="#1a1612" stroke-width="1.5" d="M227.41,-372C227.41,-372 185.62,-372 185.62,-372 179.62,-372 173.62,-366 173.62,-360 173.62,-360 173.62,-348 173.62,-348 173.62,-342 179.62,-336 185.62,-336 185.62,-336 227.41,-336 227.41,-336 233.41,-336 239.41,-342 239.41,-348 239.41,-348 239.41,-360 239.41,-360 239.41,-366 233.41,-372 227.41,-372"/>
<text xml:space="preserve" text-anchor="middle" x="206.52" y="-350.3" font-family="Arial" font-size="11.00" fill="#fbf6eb">6 &#160;&#160;Delay</text>
</g>
<!-- n5&#45;&gt;n6 -->
<g id="edge6" class="edge">
<title>n5&#45;&gt;n6</title>
<path fill="none" stroke="#8b2418" stroke-width="2" d="M221.92,-412.43C219.74,-406.33 217.4,-399.4 215.52,-393 214.76,-390.41 214.02,-387.7 213.31,-384.98"/>
<polygon fill="#8b2418" stroke="#8b2418" stroke-width="2" points="216.75,-384.33 210.98,-375.45 209.95,-385.99 216.75,-384.33"/>
</g>
<!-- n7 -->
<g id="node9" class="node">
<title>n7</title>
<path fill="#5a6b3b" stroke="#1a1612" stroke-width="1.5" d="M271.16,-284C271.16,-284 185.88,-284 185.88,-284 179.88,-284 173.88,-278 173.88,-272 173.88,-272 173.88,-260 173.88,-260 173.88,-254 179.88,-248 185.88,-248 185.88,-248 271.16,-248 271.16,-248 277.16,-248 283.16,-254 283.16,-260 283.16,-260 283.16,-272 283.16,-272 283.16,-278 277.16,-284 271.16,-284"/>
<text xml:space="preserve" text-anchor="middle" x="228.52" y="-262.3" font-family="Arial" font-size="11.00" fill="#fbf6eb">7 &#160;&#160;DrawImage #1</text>
</g>
<!-- n5&#45;&gt;n7 -->
<g id="edge7" class="edge">
<title>n5&#45;&gt;n7</title>
<path fill="none" stroke="#5a6b3b" stroke-width="1.3" stroke-dasharray="5,2" d="M239.16,-412.43C245.27,-401.29 252.35,-386.31 255.52,-372 261.29,-345.95 252.39,-316.56 243.3,-295.51"/>
<polygon fill="#5a6b3b" stroke="#5a6b3b" stroke-width="1.3" points="246.52,-294.14 239.15,-286.53 240.17,-297.08 246.52,-294.14"/>
<text xml:space="preserve" text-anchor="middle" x="275.73" y="-350.5" font-family="Arial" font-size="10.00" fill="#5a6b3b"> display </text>
</g>
<!-- n6&#45;&gt;n7 -->
<g id="edge8" class="edge">
<title>n6&#45;&gt;n7</title>
<path fill="none" stroke="#8b2418" stroke-width="2" d="M209.03,-335.62C210.57,-326.19 212.77,-314.37 215.52,-304 216.16,-301.58 216.89,-299.1 217.66,-296.61"/>
<polygon fill="#8b2418" stroke="#8b2418" stroke-width="2" points="220.89,-297.98 220.77,-287.38 214.26,-295.74 220.89,-297.98"/>
</g>
<!-- n7&#45;&gt;n10 -->
<g id="edge10" class="edge">
<title>n7&#45;&gt;n10</title>
<path fill="none" stroke="#5a6b3b" stroke-width="1.3" stroke-dasharray="5,2" d="M247.39,-247.34C257.77,-236.61 270.02,-222.11 277.52,-207 303.54,-154.57 323.42,-129.97 298.52,-77 292.33,-63.83 281.52,-52.63 270.22,-43.68"/>
<polygon fill="#5a6b3b" stroke="#5a6b3b" stroke-width="1.3" points="272.43,-40.96 262.29,-37.86 268.29,-46.6 272.43,-40.96"/>
<text xml:space="preserve" text-anchor="middle" x="327.38" y="-135.5" font-family="Arial" font-size="10.00" fill="#5a6b3b"> display </text>
</g>
<!-- n8 -->
<g id="node10" class="node">
<title>n8</title>
<path fill="#4a3f33" stroke="#1a1612" stroke-width="1.5" d="M249.41,-207C249.41,-207 207.62,-207 207.62,-207 201.62,-207 195.62,-201 195.62,-195 195.62,-195 195.62,-183 195.62,-183 195.62,-177 201.62,-171 207.62,-171 207.62,-171 249.41,-171 249.41,-171 255.41,-171 261.41,-177 261.41,-183 261.41,-183 261.41,-195 261.41,-195 261.41,-201 255.41,-207 249.41,-207"/>
<text xml:space="preserve" text-anchor="middle" x="228.52" y="-185.3" font-family="Arial" font-size="11.00" fill="#fbf6eb">8 &#160;&#160;Delay</text>
</g>
<!-- n7&#45;&gt;n8 -->
<g id="edge9" class="edge">
<title>n7&#45;&gt;n8</title>
<path fill="none" stroke="#8b2418" stroke-width="2" d="M228.52,-247.6C228.52,-239.52 228.52,-229.67 228.52,-220.42"/>
<polygon fill="#8b2418" stroke="#8b2418" stroke-width="2" points="232.02,-220.59 228.52,-210.59 225.02,-220.59 232.02,-220.59"/>
</g>
<!-- n8&#45;&gt;n9 -->
<g id="edge11" class="edge">
<title>n8&#45;&gt;n9</title>
<path fill="none" stroke="#8b2418" stroke-width="2" d="M228.52,-170.26C228.52,-157.92 228.52,-141.14 228.52,-126.65"/>
<polygon fill="#8b2418" stroke="#8b2418" stroke-width="2" points="232.02,-126.71 228.52,-116.71 225.02,-126.71 232.02,-126.71"/>
</g>
</g>
</svg>
