<?xml version="1.0" encoding="UTF-8" standalone="no"?>
<!DOCTYPE svg PUBLIC "-//W3C//DTD SVG 1.1//EN"
 "http://www.w3.org/Graphics/SVG/1.1/DTD/svg11.dtd">
<!-- Generated by graphviz version 14.1.2 (0)
 -->
<!-- Title: PDG_MakeCode Pages: 1 -->
<svg width="496pt" height="691pt"
 viewBox="0.00 0.00 496.00 691.00" xmlns="http://www.w3.org/2000/svg" xmlns:xlink="http://www.w3.org/1999/xlink">
<g id="graph0" class="graph" transform="scale(1 1) rotate(0) translate(21.6 669.6)">
<title>PDG_MakeCode</title>
<polygon fill="#fbf6eb" stroke="none" points="-21.6,21.6 -21.6,-669.6 474.13,-669.6 474.13,21.6 -21.6,21.6"/>
<g id="clust1" class="cluster">
<title>cluster_loop</title>
<path fill="#fbf6eb" stroke="#8b2418" stroke-width="1.8" stroke-dasharray="5,2" d="M175.52,-153C175.52,-153 354.52,-153 354.52,-153 360.52,-153 366.52,-159 366.52,-165 366.52,-165 366.52,-483 366.52,-483 366.52,-489 360.52,-495 354.52,-495 354.52,-495 175.52,-495 175.52,-495 169.52,-495 163.52,-489 163.52,-483 163.52,-483 163.52,-165 163.52,-165 163.52,-159 169.52,-153 175.52,-153"/>
<text xml:space="preserve" text-anchor="start" x="197.39" y="-481.55" font-family="Arial" font-weight="bold" font-size="11.00">loop</text>
<text xml:space="preserve" text-anchor="start" x="171.52" y="-472.45" font-family="Arial" font-size="9.00" fill="#8b2418">alcance de control</text>
</g>
<!-- n1 -->
<g id="node1" class="node">
<title>n1</title>
<path fill="#34495e" stroke="#1a1612" stroke-width="1.5" d="M119.04,-648C119.04,-648 12,-648 12,-648 6,-648 0,-642 0,-636 0,-636 0,-624 0,-624 0,-618 6,-612 12,-612 12,-612 119.04,-612 119.04,-612 125.04,-612 131.04,-618 131.04,-624 131.04,-624 131.04,-636 131.04,-636 131.04,-642 125.04,-648 119.04,-648"/>
<text xml:space="preserve" text-anchor="middle" x="65.52" y="-626.3" font-family="Arial" font-size="11.00" fill="#fbf6eb">1 &#160;&#160;ProgramStartEvent</text>
</g>
<!-- n2 -->
<g id="node2" class="node">
<title>n2</title>
<path fill="#5a6b3b" stroke="#1a1612" stroke-width="1.5" d="M108.16,-571C108.16,-571 22.87,-571 22.87,-571 16.87,-571 10.87,-565 10.87,-559 10.87,-559 10.87,-547 10.87,-547 10.87,-541 16.87,-535 22.87,-535 22.87,-535 108.16,-535 108.16,-535 114.16,-535 120.16,-541 120.16,-547 120.16,-547 120.16,-559 120.16,-559 120.16,-565 114.16,-571 108.16,-571"/>
<text xml:space="preserve" text-anchor="middle" x="65.52" y="-549.3" font-family="Arial" font-size="11.00" fill="#fbf6eb">2 &#160;&#160;DrawImage #1</text>
</g>
<!-- n1&#45;&gt;n2 -->
<g id="edge1" class="edge">
<title>n1&#45;&gt;n2</title>
<path fill="none" stroke="#8b2418" stroke-width="2" d="M65.52,-611.6C65.52,-603.52 65.52,-593.67 65.52,-584.42"/>
<polygon fill="#8b2418" stroke="#8b2418" stroke-width="2" points="69.02,-584.59 65.52,-574.59 62.02,-584.59 69.02,-584.59"/>
</g>
<!-- n5 -->
<g id="node7" class="node">
<title>n5</title>
<path fill="#5a6b3b" stroke="#1a1612" stroke-width="1.5" d="M279.16,-449C279.16,-449 193.88,-449 193.88,-449 187.88,-449 181.88,-443 181.88,-437 181.88,-437 181.88,-425 181.88,-425 181.88,-419 187.88,-413 193.88,-413 193.88,-413 279.16,-413 279.16,-413 285.16,-413 291.16,-419 291.16,-425 291.16,-425 291.16,-437 291.16,-437 291.16,-443 285.16,-449 279.16,-449"/>
<text xml:space="preserve" text-anchor="middle" x="236.52" y="-427.3" font-family="Arial" font-size="11.00" fill="#fbf6eb">5 &#160;&#160;DrawImage #1</text>
</g>
<!-- n2&#45;&gt;n5 -->
<g id="edge2" class="edge">
<title>n2&#45;&gt;n5</title>
<path fill="none" stroke="#5a6b3b" stroke-width="1.3" stroke-dasharray="5,2" d="M82.11,-534.69C92,-524.83 105.06,-512.58 117.77,-503 141.3,-485.25 169.56,-468.21 192.6,-455.27"/>
<polygon fill="#5a6b3b" stroke="#5a6b3b" stroke-width="1.3" points="194.02,-458.49 201.07,-450.58 190.63,-452.36 194.02,-458.49"/>
<text xml:space="preserve" text-anchor="middle" x="136.14" y="-505.5" font-family="Arial" font-size="10.00" fill="#5a6b3b"> display </text>
</g>
<!-- n3 -->
<g id="node3" class="node">
<title>n3</title>
<path fill="#34495e" stroke="#1a1612" stroke-width="1.5" d="M297.54,-648C297.54,-648 175.5,-648 175.5,-648 169.5,-648 163.5,-642 163.5,-636 163.5,-636 163.5,-624 163.5,-624 163.5,-618 169.5,-612 175.5,-612 175.5,-612 297.54,-612 297.54,-612 303.54,-612 309.54,-618 309.54,-624 309.54,-624 309.54,-636 309.54,-636 309.54,-642 303.54,-648 297.54,-648"/>
<text xml:space="preserve" text-anchor="middle" x="236.52" y="-626.3" font-family="Arial" font-size="11.00" fill="#fbf6eb">3 &#160;&#160;SuddenNoiseEvent #1</text>
</g>
<!-- n4 -->
<g id="node4" class="node">
<title>n4</title>
<path fill="#fbf6eb" stroke="#1a1612" stroke-width="1.5" d="M277.29,-571C277.29,-571 195.75,-571 195.75,-571 189.75,-571 183.75,-565 183.75,-559 183.75,-559 183.75,-547 183.75,-547 183.75,-541 189.75,-535 195.75,-535 195.75,-535 277.29,-535 277.29,-535 283.29,-535 289.29,-541 289.29,-547 289.29,-547 289.29,-559 289.29,-559 289.29,-565 283.29,-571 277.29,-571"/>
<text xml:space="preserve" text-anchor="middle" x="236.52" y="-549.3" font-family="Arial" font-size="11.00" fill="#1a1612">4 &#160;&#160;PlaySound #1</text>
</g>
<!-- n3&#45;&gt;n4 -->
<g id="edge3" class="edge">
<title>n3&#45;&gt;n4</title>
<path fill="none" stroke="#8b2418" stroke-width="2" d="M236.52,-611.6C236.52,-603.52 236.52,-593.67 236.52,-584.42"/>
<polygon fill="#8b2418" stroke="#8b2418" stroke-width="2" points="240.02,-584.59 236.52,-574.59 233.02,-584.59 240.02,-584.59"/>
</g>
<!-- n9 -->
<g id="node5" class="node">
<title>n9</title>
<path fill="#fbf6eb" stroke="#1a1612" stroke-width="1.5" d="M278.04,-113C278.04,-113 195,-113 195,-113 189,-113 183,-107 183,-101 183,-101 183,-89 183,-89 183,-83 189,-77 195,-77 195,-77 278.04,-77 278.04,-77 284.04,-77 290.04,-83 290.04,-89 290.04,-89 290.04,-101 290.04,-101 290.04,-107 284.04,-113 278.04,-113"/>
<text xml:space="preserve" text-anchor="middle" x="236.52" y="-91.3" font-family="Arial" font-size="11.00" fill="#1a1612">9 &#160;&#160;StopSound #1</text>
</g>
<!-- n4&#45;&gt;n9 -->
<g id="edge5" class="edge">
<title>n4&#45;&gt;n9</title>
<path fill="none" stroke="#5a6b3b" stroke-width="1.3" stroke-dasharray="5,2" d="M289.94,-544.61C320.22,-537.38 355.71,-523.12 374.52,-495 459.03,-368.66 417.72,-298.73 374.52,-153 365.43,-122.34 333.06,-108 301.96,-101.36"/>
<polygon fill="#5a6b3b" stroke="#5a6b3b" stroke-width="1.3" points="303.01,-97.99 292.53,-99.61 301.73,-104.88 303.01,-97.99"/>
<text xml:space="preserve" text-anchor="middle" x="436.41" y="-306.5" font-family="Arial" font-size="10.00" fill="#5a6b3b"> sound </text>
</g>
<!-- n4&#45;&gt;n5 -->
<g id="edge4" class="edge">
<title>n4&#45;&gt;n5</title>
<path fill="none" stroke="#8b2418" stroke-width="2" d="M236.52,-534.29C236.52,-515.4 236.52,-485.11 236.52,-462.39"/>
<polygon fill="#8b2418" stroke="#8b2418" stroke-width="2" points="240.02,-462.42 236.52,-452.42 233.02,-462.42 240.02,-462.42"/>
</g>
<!-- n10 -->
<g id="node6" class="node">
<title>n10</title>
<path fill="#5a6b3b" stroke="#1a1612" stroke-width="1.5" d="M282.16,-36C282.16,-36 190.88,-36 190.88,-36 184.88,-36 178.88,-30 178.88,-24 178.88,-24 178.88,-12 178.88,-12 178.88,-6 184.88,0 190.88,0 190.88,0 282.16,0 282.16,0 288.16,0 294.16,-6 294.16,-12 294.16,-12 294.16,-24 294.16,-24 294.16,-30 288.16,-36 282.16,-36"/>
<text xml:space="preserve" text-anchor="middle" x="236.52" y="-14.3" font-family="Arial" font-size="11.00" fill="#fbf6eb">10 &#160;&#160;DrawImage #1</text>
</g>
<!-- n9&#45;&gt;n10 -->
<g id="edge12" class="edge">
<title>n9&#45;&gt;n10</title>
<path fill="none" stroke="#8b2418" stroke-width="2" d="M236.52,-76.6C236.52,-68.52 236.52,-58.67 236.52,-49.42"/>
<polygon fill="#8b2418" stroke="#8b2418" stroke-width="2" points="240.02,-49.59 236.52,-39.59 233.02,-49.59 240.02,-49.59"/>
</g>
<!-- n6 -->
<g id="node8" class="node">
<title>n6</title>
<path fill="#4a3f33" stroke="#1a1612" stroke-width="1.5" d="M235.41,-372C235.41,-372 193.62,-372 193.62,-372 187.62,-372 181.62,-366 181.62,-360 181.62,-360 181.62,-348 181.62,-348 181.62,-342 187.62,-336 193.62,-336 193.62,-336 235.41,-336 235.41,-336 241.41,-336 247.41,-342 247.41,-348 247.41,-348 247.41,-360 247.41,-360 247.41,-366 241.41,-372 235.41,-372"/>
<text xml:space="preserve" text-anchor="middle" x="214.52" y="-350.3" font-family="Arial" font-size="11.00" fill="#fbf6eb">6 &#160;&#160;Delay</text>
</g>
<!-- n5&#45;&gt;n6 -->
<g id="edge6" class="edge">
<title>n5&#45;&gt;n6</title>
<path fill="none" stroke="#8b2418" stroke-width="2" d="M229.92,-412.43C227.74,-406.33 225.4,-399.4 223.52,-393 222.76,-390.41 222.02,-387.7 221.31,-384.98"/>
<polygon fill="#8b2418" stroke="#8b2418" stroke-width="2" points="224.75,-384.33 218.98,-375.45 217.95,-385.99 224.75,-384.33"/>
</g>
<!-- n7 -->
<g id="node9" class="node">
<title>n7</title>
<path fill="#5a6b3b" stroke="#1a1612" stroke-width="1.5" d="M279.16,-284C279.16,-284 193.88,-284 193.88,-284 187.88,-284 181.88,-278 181.88,-272 181.88,-272 181.88,-260 181.88,-260 181.88,-254 187.88,-248 193.88,-248 193.88,-248 279.16,-248 279.16,-248 285.16,-248 291.16,-254 291.16,-260 291.16,-260 291.16,-272 291.16,-272 291.16,-278 285.16,-284 279.16,-284"/>
<text xml:space="preserve" text-anchor="middle" x="236.52" y="-262.3" font-family="Arial" font-size="11.00" fill="#fbf6eb">7 &#160;&#160;DrawImage #1</text>
</g>
<!-- n5&#45;&gt;n7 -->
<g id="edge7" class="edge">
<title>n5&#45;&gt;n7</title>
<path fill="none" stroke="#5a6b3b" stroke-width="1.3" stroke-dasharray="5,2" d="M247.16,-412.43C253.27,-401.29 260.35,-386.31 263.52,-372 269.29,-345.95 260.39,-316.56 251.3,-295.51"/>
<polygon fill="#5a6b3b" stroke="#5a6b3b" stroke-width="1.3" points="254.52,-294.14 247.15,-286.53 248.17,-297.08 254.52,-294.14"/>
<text xml:space="preserve" text-anchor="middle" x="283.73" y="-350.5" font-family="Arial" font-size="10.00" fill="#5a6b3b"> display </text>
</g>
<!-- n6&#45;&gt;n7 -->
<g id="edge8" class="edge">
<title>n6&#45;&gt;n7</title>
<path fill="none" stroke="#8b2418" stroke-width="2" d="M217.03,-335.62C218.57,-326.19 220.77,-314.37 223.52,-304 224.16,-301.58 224.89,-299.1 225.66,-296.61"/>
<polygon fill="#8b2418" stroke="#8b2418" stroke-width="2" points="228.89,-297.98 228.77,-287.38 222.26,-295.74 228.89,-297.98"/>
</g>
<!-- n7&#45;&gt;n10 -->
<g id="edge10" class="edge">
<title>n7&#45;&gt;n10</title>
<path fill="none" stroke="#5a6b3b" stroke-width="1.3" stroke-dasharray="5,2" d="M255.39,-247.34C265.77,-236.61 278.02,-222.11 285.52,-207 311.54,-154.57 331.42,-129.97 306.52,-77 300.33,-63.83 289.52,-52.63 278.22,-43.68"/>
<polygon fill="#5a6b3b" stroke="#5a6b3b" stroke-width="1.3" points="280.43,-40.96 270.29,-37.86 276.29,-46.6 280.43,-40.96"/>
<text xml:space="preserve" text-anchor="middle" x="335.38" y="-135.5" font-family="Arial" font-size="10.00" fill="#5a6b3b"> display </text>
</g>
<!-- n8 -->
<g id="node10" class="node">
<title>n8</title>
<path fill="#4a3f33" stroke="#1a1612" stroke-width="1.5" d="M257.41,-207C257.41,-207 215.62,-207 215.62,-207 209.62,-207 203.62,-201 203.62,-195 203.62,-195 203.62,-183 203.62,-183 203.62,-177 209.62,-171 215.62,-171 215.62,-171 257.41,-171 257.41,-171 263.41,-171 269.41,-177 269.41,-183 269.41,-183 269.41,-195 269.41,-195 269.41,-201 263.41,-207 257.41,-207"/>
<text xml:space="preserve" text-anchor="middle" x="236.52" y="-185.3" font-family="Arial" font-size="11.00" fill="#fbf6eb">8 &#160;&#160;Delay</text>
</g>
<!-- n7&#45;&gt;n8 -->
<g id="edge9" class="edge">
<title>n7&#45;&gt;n8</title>
<path fill="none" stroke="#8b2418" stroke-width="2" d="M236.52,-247.6C236.52,-239.52 236.52,-229.67 236.52,-220.42"/>
<polygon fill="#8b2418" stroke="#8b2418" stroke-width="2" points="240.02,-220.59 236.52,-210.59 233.02,-220.59 240.02,-220.59"/>
</g>
<!-- n8&#45;&gt;n9 -->
<g id="edge11" class="edge">
<title>n8&#45;&gt;n9</title>
<path fill="none" stroke="#8b2418" stroke-width="2" d="M236.52,-170.26C236.52,-157.92 236.52,-141.14 236.52,-126.65"/>
<polygon fill="#8b2418" stroke="#8b2418" stroke-width="2" points="240.02,-126.71 236.52,-116.71 233.02,-126.71 240.02,-126.71"/>
</g>
</g>
</svg>
