<?xml version="1.0" encoding="UTF-8" standalone="no"?>
<!DOCTYPE svg PUBLIC "-//W3C//DTD SVG 1.1//EN"
 "http://www.w3.org/Graphics/SVG/1.1/DTD/svg11.dtd">
<!-- Generated by graphviz version 14.1.2 (0)
 -->
<!-- Title: PDG_Protobject Pages: 1 -->
<svg width="914pt" height="451pt"
 viewBox="0.00 0.00 914.00 451.00" xmlns="http://www.w3.org/2000/svg" xmlns:xlink="http://www.w3.org/1999/xlink">
<g id="graph0" class="graph" transform="scale(1 1) rotate(0) translate(21.6 429.6)">
<title>PDG_Protobject</title>
<polygon fill="#fbf6eb" stroke="none" points="-21.6,21.6 -21.6,-429.6 892.37,-429.6 892.37,21.6 -21.6,21.6"/>
<g id="clust1" class="cluster">
<title>cluster_loop</title>
<path fill="#fbf6eb" stroke="#8b2418" stroke-width="1.8" stroke-dasharray="5,2" d="M197.77,-8C197.77,-8 850.77,-8 850.77,-8 856.77,-8 862.77,-14 862.77,-20 862.77,-20 862.77,-388 862.77,-388 862.77,-394 856.77,-400 850.77,-400 850.77,-400 197.77,-400 197.77,-400 191.77,-400 185.77,-394 185.77,-388 185.77,-388 185.77,-20 185.77,-20 185.77,-14 191.77,-8 197.77,-8"/>
<text xml:space="preserve" text-anchor="start" x="219.64" y="-386.55" font-family="Arial" font-weight="bold" font-size="11.00">loop</text>
<text xml:space="preserve" text-anchor="start" x="193.77" y="-377.45" font-family="Arial" font-size="9.00" fill="#8b2418">alcance de control</text>
</g>
<!-- n1 -->
<g id="node1" class="node">
<title>n1</title>
<path fill="#34495e" stroke="#1a1612" stroke-width="1.5" d="M130.29,-326C130.29,-326 23.25,-326 23.25,-326 17.25,-326 11.25,-320 11.25,-314 11.25,-314 11.25,-302 11.25,-302 11.25,-296 17.25,-290 23.25,-290 23.25,-290 130.29,-290 130.29,-290 136.29,-290 142.29,-296 142.29,-302 142.29,-302 142.29,-314 142.29,-314 142.29,-320 136.29,-326 130.29,-326"/>
<text xml:space="preserve" text-anchor="middle" x="76.77" y="-304.3" font-family="Arial" font-size="11.00" fill="#fbf6eb">1 &#160;&#160;ProgramStartEvent</text>
</g>
<!-- n2 -->
<g id="node2" class="node">
<title>n2</title>
<path fill="#fbf6eb" stroke="#1a1612" stroke-width="1.5" d="M141.54,-238C141.54,-238 12,-238 12,-238 6,-238 0,-232 0,-226 0,-226 0,-214 0,-214 0,-208 6,-202 12,-202 12,-202 141.54,-202 141.54,-202 147.54,-202 153.54,-208 153.54,-214 153.54,-214 153.54,-226 153.54,-226 153.54,-232 147.54,-238 141.54,-238"/>
<text xml:space="preserve" text-anchor="middle" x="76.77" y="-216.3" font-family="Arial" font-size="11.00" fill="#1a1612">2 &#160;&#160;SetBackgroundColor #1</text>
</g>
<!-- n1&#45;&gt;n2 -->
<g id="edge1" class="edge">
<title>n1&#45;&gt;n2</title>
<path fill="none" stroke="#8b2418" stroke-width="2" d="M76.77,-289.6C76.77,-278.71 76.77,-264.39 76.77,-251.64"/>
<polygon fill="#8b2418" stroke="#8b2418" stroke-width="2" points="80.27,-251.7 76.77,-241.7 73.27,-251.7 80.27,-251.7"/>
</g>
<!-- n3 -->
<g id="node3" class="node">
<title>n3</title>
<path fill="#fbf6eb" stroke="#1a1612" stroke-width="1.5" d="M122.04,-150C122.04,-150 31.5,-150 31.5,-150 25.5,-150 19.5,-144 19.5,-138 19.5,-138 19.5,-126 19.5,-126 19.5,-120 25.5,-114 31.5,-114 31.5,-114 122.04,-114 122.04,-114 128.04,-114 134.04,-120 134.04,-126 134.04,-126 134.04,-138 134.04,-138 134.04,-144 128.04,-150 122.04,-150"/>
<text xml:space="preserve" text-anchor="middle" x="76.77" y="-128.3" font-family="Arial" font-size="11.00" fill="#1a1612">3 &#160;&#160;ClearDisplay #1</text>
</g>
<!-- n2&#45;&gt;n3 -->
<g id="edge2" class="edge">
<title>n2&#45;&gt;n3</title>
<path fill="none" stroke="#8b2418" stroke-width="2" d="M76.77,-201.6C76.77,-190.71 76.77,-176.39 76.77,-163.64"/>
<polygon fill="#8b2418" stroke="#8b2418" stroke-width="2" points="80.27,-163.7 76.77,-153.7 73.27,-163.7 80.27,-163.7"/>
</g>
<!-- n2&#45;&gt;n3 -->
<g id="edge3" class="edge">
<title>n2&#45;&gt;n3</title>
<path fill="none" stroke="#5a6b3b" stroke-width="1.3" stroke-dasharray="5,2" d="M87.27,-201.54C90.31,-195.56 93.23,-188.68 94.77,-182 96.36,-175.1 95.3,-167.84 93.06,-161.09"/>
<polygon fill="#5a6b3b" stroke="#5a6b3b" stroke-width="1.3" points="96.39,-159.97 89.22,-152.17 89.96,-162.74 96.39,-159.97"/>
<text xml:space="preserve" text-anchor="middle" x="113.91" y="-172.5" font-family="Arial" font-size="10.00" fill="#5a6b3b"> display </text>
</g>
<!-- n7 -->
<g id="node7" class="node">
<title>n7</title>
<path fill="#5a6b3b" stroke="#1a1612" stroke-width="1.5" d="M301.41,-62C301.41,-62 216.12,-62 216.12,-62 210.12,-62 204.12,-56 204.12,-50 204.12,-50 204.12,-38 204.12,-38 204.12,-32 210.12,-26 216.12,-26 216.12,-26 301.41,-26 301.41,-26 307.41,-26 313.41,-32 313.41,-38 313.41,-38 313.41,-50 313.41,-50 313.41,-56 307.41,-62 301.41,-62"/>
<text xml:space="preserve" text-anchor="middle" x="258.77" y="-40.3" font-family="Arial" font-size="11.00" fill="#fbf6eb">7 &#160;&#160;DrawImage #1</text>
</g>
<!-- n3&#45;&gt;n7 -->
<g id="edge4" class="edge">
<title>n3&#45;&gt;n7</title>
<path fill="none" stroke="#5a6b3b" stroke-width="1.3" stroke-dasharray="5,2" d="M114.04,-113.39C141.92,-100.22 180.28,-82.09 210.51,-67.81"/>
<polygon fill="#5a6b3b" stroke="#5a6b3b" stroke-width="1.3" points="211.91,-71.01 219.46,-63.58 208.92,-64.68 211.91,-71.01"/>
<text xml:space="preserve" text-anchor="middle" x="197.04" y="-84.5" font-family="Arial" font-size="10.00" fill="#5a6b3b"> display </text>
</g>
<!-- n4 -->
<g id="node4" class="node">
<title>n4</title>
<path fill="#fbf6eb" stroke="#1a1612" stroke-width="1.5" d="M550.16,-326C550.16,-326 481.38,-326 481.38,-326 475.38,-326 469.38,-320 469.38,-314 469.38,-314 469.38,-302 469.38,-302 469.38,-296 475.38,-290 481.38,-290 481.38,-290 550.16,-290 550.16,-290 556.16,-290 562.16,-296 562.16,-302 562.16,-302 562.16,-314 562.16,-314 562.16,-320 556.16,-326 550.16,-326"/>
<text xml:space="preserve" text-anchor="middle" x="515.77" y="-304.3" font-family="Arial" font-size="11.00" fill="#1a1612">4 &#160;&#160;ReadTilt #1</text>
</g>
<!-- n5 -->
<g id="node5" class="node">
<title>n5</title>
<path fill="#fbf6eb" stroke="#1a1612" stroke-width="1.5" d="M552.04,-238C552.04,-238 479.5,-238 479.5,-238 473.5,-238 467.5,-232 467.5,-226 467.5,-226 467.5,-214 467.5,-214 467.5,-208 473.5,-202 479.5,-202 479.5,-202 552.04,-202 552.04,-202 558.04,-202 564.04,-208 564.04,-214 564.04,-214 564.04,-226 564.04,-226 564.04,-232 558.04,-238 552.04,-238"/>
<text xml:space="preserve" text-anchor="middle" x="515.77" y="-216.3" font-family="Arial" font-size="11.00" fill="#1a1612">5 &#160;&#160;Comparison</text>
</g>
<!-- n4&#45;&gt;n5 -->
<g id="edge5" class="edge">
<title>n4&#45;&gt;n5</title>
<path fill="none" stroke="#4a3f33" stroke-width="1.3" d="M515.77,-289.6C515.77,-278.36 515.77,-263.47 515.77,-250.43"/>
<polygon fill="#4a3f33" stroke="#4a3f33" stroke-width="1.3" points="519.27,-250.64 515.77,-240.64 512.27,-250.64 519.27,-250.64"/>
<text xml:space="preserve" text-anchor="middle" x="529.27" y="-260.5" font-family="Arial" font-size="10.00" fill="#8b2418"> tilt_1 </text>
</g>
<!-- n6 -->
<g id="node6" class="node">
<title>n6</title>
<path fill="#b8843a" stroke="#1a1612" stroke-width="1.5" d="M567.04,-150C567.04,-150 464.5,-150 464.5,-150 458.5,-150 452.5,-144 452.5,-138 452.5,-138 452.5,-126 452.5,-126 452.5,-120 458.5,-114 464.5,-114 464.5,-114 567.04,-114 567.04,-114 573.04,-114 579.04,-120 579.04,-126 579.04,-126 579.04,-138 579.04,-138 579.04,-144 573.04,-150 567.04,-150"/>
<text xml:space="preserve" text-anchor="middle" x="515.77" y="-128.3" font-family="Arial" font-size="11.00" fill="#fbf6eb">6 &#160;&#160;ConditionalBranch</text>
</g>
<!-- n5&#45;&gt;n6 -->
<g id="edge6" class="edge">
<title>n5&#45;&gt;n6</title>
<path fill="none" stroke="#4a3f33" stroke-width="1.3" d="M515.77,-201.6C515.77,-190.36 515.77,-175.47 515.77,-162.43"/>
<polygon fill="#4a3f33" stroke="#4a3f33" stroke-width="1.3" points="519.27,-162.64 515.77,-152.64 512.27,-162.64 519.27,-162.64"/>
<text xml:space="preserve" text-anchor="middle" x="538.27" y="-172.5" font-family="Arial" font-size="10.00" fill="#8b2418"> condition </text>
</g>
<!-- n6&#45;&gt;n7 -->
<g id="edge7" class="edge">
<title>n6&#45;&gt;n7</title>
<path fill="none" stroke="#8b2418" stroke-width="2" d="M451.82,-116.96C426.47,-110.79 397.23,-102.91 371.27,-94 349.83,-86.64 326.77,-76.93 307.15,-68.1"/>
<polygon fill="#8b2418" stroke="#8b2418" stroke-width="2" points="308.73,-64.97 298.18,-64 305.82,-71.34 308.73,-64.97"/>
<text xml:space="preserve" text-anchor="middle" x="382.52" y="-84.5" font-family="Arial" font-size="10.00" fill="#8b2418"> true </text>
</g>
<!-- n8 -->
<g id="node8" class="node">
<title>n8</title>
<path fill="#fbf6eb" stroke="#1a1612" stroke-width="1.5" d="M438.54,-62C438.54,-62 357,-62 357,-62 351,-62 345,-56 345,-50 345,-50 345,-38 345,-38 345,-32 351,-26 357,-26 357,-26 438.54,-26 438.54,-26 444.54,-26 450.54,-32 450.54,-38 450.54,-38 450.54,-50 450.54,-50 450.54,-56 444.54,-62 438.54,-62"/>
<text xml:space="preserve" text-anchor="middle" x="397.77" y="-40.3" font-family="Arial" font-size="11.00" fill="#1a1612">8 &#160;&#160;PlaySound #1</text>
</g>
<!-- n6&#45;&gt;n8 -->
<g id="edge8" class="edge">
<title>n6&#45;&gt;n8</title>
<path fill="none" stroke="#8b2418" stroke-width="2" d="M451.97,-120.72C435.72,-115.24 419.66,-106.85 408.27,-94 403.63,-88.76 400.87,-81.98 399.26,-75.14"/>
<polygon fill="#8b2418" stroke="#8b2418" stroke-width="2" points="402.74,-74.7 397.84,-65.3 395.81,-75.7 402.74,-74.7"/>
<text xml:space="preserve" text-anchor="middle" x="419.52" y="-84.5" font-family="Arial" font-size="10.00" fill="#8b2418"> true </text>
</g>
<!-- n9 -->
<g id="node9" class="node">
<title>n9</title>
<path fill="#4a3f33" stroke="#1a1612" stroke-width="1.5" d="M536.66,-62C536.66,-62 494.88,-62 494.88,-62 488.88,-62 482.88,-56 482.88,-50 482.88,-50 482.88,-38 482.88,-38 482.88,-32 488.88,-26 494.88,-26 494.88,-26 536.66,-26 536.66,-26 542.66,-26 548.66,-32 548.66,-38 548.66,-38 548.66,-50 548.66,-50 548.66,-56 542.66,-62 536.66,-62"/>
<text xml:space="preserve" text-anchor="middle" x="515.77" y="-40.3" font-family="Arial" font-size="11.00" fill="#fbf6eb">9 &#160;&#160;Delay</text>
</g>
<!-- n6&#45;&gt;n9 -->
<g id="edge9" class="edge">
<title>n6&#45;&gt;n9</title>
<path fill="none" stroke="#8b2418" stroke-width="2" d="M515.77,-113.6C515.77,-102.71 515.77,-88.39 515.77,-75.64"/>
<polygon fill="#8b2418" stroke="#8b2418" stroke-width="2" points="519.27,-75.7 515.77,-65.7 512.27,-75.7 519.27,-75.7"/>
<text xml:space="preserve" text-anchor="middle" x="527.02" y="-84.5" font-family="Arial" font-size="10.00" fill="#8b2418"> true </text>
</g>
<!-- n10 -->
<g id="node10" class="node">
<title>n10</title>
<path fill="#fbf6eb" stroke="#1a1612" stroke-width="1.5" d="M689.04,-62C689.04,-62 592.5,-62 592.5,-62 586.5,-62 580.5,-56 580.5,-50 580.5,-50 580.5,-38 580.5,-38 580.5,-32 586.5,-26 592.5,-26 592.5,-26 689.04,-26 689.04,-26 695.04,-26 701.04,-32 701.04,-38 701.04,-38 701.04,-50 701.04,-50 701.04,-56 695.04,-62 689.04,-62"/>
<text xml:space="preserve" text-anchor="middle" x="640.77" y="-40.3" font-family="Arial" font-size="11.00" fill="#1a1612">10 &#160;&#160;ClearDisplay #1</text>
</g>
<!-- n6&#45;&gt;n10 -->
<g id="edge10" class="edge">
<title>n6&#45;&gt;n10</title>
<path fill="none" stroke="#8b2418" stroke-width="2" d="M564.08,-113.32C575.66,-107.99 587.6,-101.53 597.77,-94 605.9,-87.98 613.6,-80.19 620.17,-72.6"/>
<polygon fill="#8b2418" stroke="#8b2418" stroke-width="2" points="622.84,-74.87 626.45,-64.91 617.42,-70.44 622.84,-74.87"/>
<text xml:space="preserve" text-anchor="middle" x="622.43" y="-84.5" font-family="Arial" font-size="10.00" fill="#8b2418"> true </text>
</g>
<!-- n11 -->
<g id="node11" class="node">
<title>n11</title>
<path fill="#fbf6eb" stroke="#1a1612" stroke-width="1.5" d="M832.91,-62C832.91,-62 744.62,-62 744.62,-62 738.62,-62 732.62,-56 732.62,-50 732.62,-50 732.62,-38 732.62,-38 732.62,-32 738.62,-26 744.62,-26 744.62,-26 832.91,-26 832.91,-26 838.91,-26 844.91,-32 844.91,-38 844.91,-38 844.91,-50 844.91,-50 844.91,-56 838.91,-62 832.91,-62"/>
<text xml:space="preserve" text-anchor="middle" x="788.77" y="-40.3" font-family="Arial" font-size="11.00" fill="#1a1612">11 &#160;&#160;StopSound #1</text>
</g>
<!-- n6&#45;&gt;n11 -->
<g id="edge11" class="edge">
<title>n6&#45;&gt;n11</title>
<path fill="none" stroke="#8b2418" stroke-width="2" d="M577.75,-113.28C598.18,-107.31 620.99,-100.51 641.77,-94 669.12,-85.43 699.18,-75.5 724.94,-66.83"/>
<polygon fill="#8b2418" stroke="#8b2418" stroke-width="2" points="725.99,-70.17 734.35,-63.66 723.75,-63.54 725.99,-70.17"/>
<text xml:space="preserve" text-anchor="middle" x="689.46" y="-84.5" font-family="Arial" font-size="10.00" fill="#8b2418"> true </text>
</g>
<!-- n7&#45;&gt;n10 -->
<g id="edge12" class="edge">
<title>n7&#45;&gt;n10</title>
<path fill="none" stroke="#5a6b3b" stroke-width="1.3" stroke-dasharray="5,2" d="M304.45,-62.71C348.01,-78.36 415.63,-96.94 475.14,-89 508.67,-84.53 545.02,-75.17 575.11,-66.15"/>
<polygon fill="#5a6b3b" stroke="#5a6b3b" stroke-width="1.3" points="575.89,-69.57 584.43,-63.29 573.84,-62.88 575.89,-69.57"/>
<text xml:space="preserve" text-anchor="middle" x="456.77" y="-84.5" font-family="Arial" font-size="10.00" fill="#5a6b3b"> display </text>
</g>
<!-- n8&#45;&gt;n11 -->
<g id="edge13" class="edge">
<title>n8&#45;&gt;n11</title>
<path fill="none" stroke="#5a6b3b" stroke-width="1.3" stroke-dasharray="5,2" d="M450.29,-62.71C481.11,-72.7 521.08,-83.95 557.64,-89 616.75,-97.16 683.6,-81.39 730.14,-66.32"/>
<polygon fill="#5a6b3b" stroke="#5a6b3b" stroke-width="1.3" points="730.98,-69.73 739.35,-63.24 728.76,-63.09 730.98,-69.73"/>
<text xml:space="preserve" text-anchor="middle" x="573.77" y="-84.5" font-family="Arial" font-size="10.00" fill="#5a6b3b"> sound </text>
</g>
</g>
</svg>
