<?xml version="1.0" encoding="UTF-8" standalone="no"?>
<!DOCTYPE svg PUBLIC "-//W3C//DTD SVG 1.1//EN"
 "http://www.w3.org/Graphics/SVG/1.1/DTD/svg11.dtd">
<!-- Generated by graphviz version 14.1.2 (0)
 -->
<!-- Title: PDG_MakeCode Pages: 1 -->
<svg width="726pt" height="451pt"
 viewBox="0.00 0.00 726.00 451.00" xmlns="http://www.w3.org/2000/svg" xmlns:xlink="http://www.w3.org/1999/xlink">
<g id="graph0" class="graph" transform="scale(1 1) rotate(0) translate(21.6 429.6)">
<title>PDG_MakeCode</title>
<polygon fill="#fbf6eb" stroke="none" points="-21.6,21.6 -21.6,-429.6 704.6,-429.6 704.6,21.6 -21.6,21.6"/>
<g id="clust1" class="cluster">
<title>cluster_loop</title>
<path fill="#fbf6eb" stroke="#8b2418" stroke-width="1.8" stroke-dasharray="5,2" d="M20,-8C20,-8 663,-8 663,-8 669,-8 675,-14 675,-20 675,-20 675,-388 675,-388 675,-394 669,-400 663,-400 663,-400 20,-400 20,-400 14,-400 8,-394 8,-388 8,-388 8,-20 8,-20 8,-14 14,-8 20,-8"/>
<text xml:space="preserve" text-anchor="start" x="41.88" y="-386.55" font-family="Arial" font-weight="bold" font-size="11.00">loop</text>
<text xml:space="preserve" text-anchor="start" x="16" y="-377.45" font-family="Arial" font-size="9.00" fill="#8b2418">alcance de control</text>
</g>
<!-- n1 -->
<g id="node1" class="node">
<title>n1</title>
<path fill="#fbf6eb" stroke="#1a1612" stroke-width="1.5" d="M450.39,-326C450.39,-326 381.61,-326 381.61,-326 375.61,-326 369.61,-320 369.61,-314 369.61,-314 369.61,-302 369.61,-302 369.61,-296 375.61,-290 381.61,-290 381.61,-290 450.39,-290 450.39,-290 456.39,-290 462.39,-296 462.39,-302 462.39,-302 462.39,-314 462.39,-314 462.39,-320 456.39,-326 450.39,-326"/>
<text xml:space="preserve" text-anchor="middle" x="416" y="-304.3" font-family="Arial" font-size="11.00" fill="#1a1612">1 &#160;&#160;ReadTilt #1</text>
</g>
<!-- n2 -->
<g id="node2" class="node">
<title>n2</title>
<path fill="#fbf6eb" stroke="#1a1612" stroke-width="1.5" d="M452.27,-238C452.27,-238 379.73,-238 379.73,-238 373.73,-238 367.73,-232 367.73,-226 367.73,-226 367.73,-214 367.73,-214 367.73,-208 373.73,-202 379.73,-202 379.73,-202 452.27,-202 452.27,-202 458.27,-202 464.27,-208 464.27,-214 464.27,-214 464.27,-226 464.27,-226 464.27,-232 458.27,-238 452.27,-238"/>
<text xml:space="preserve" text-anchor="middle" x="416" y="-216.3" font-family="Arial" font-size="11.00" fill="#1a1612">2 &#160;&#160;Comparison</text>
</g>
<!-- n1&#45;&gt;n2 -->
<g id="edge1" class="edge">
<title>n1&#45;&gt;n2</title>
<path fill="none" stroke="#4a3f33" stroke-width="1.3" d="M416,-289.6C416,-278.36 416,-263.47 416,-250.43"/>
<polygon fill="#4a3f33" stroke="#4a3f33" stroke-width="1.3" points="419.5,-250.64 416,-240.64 412.5,-250.64 419.5,-250.64"/>
<text xml:space="preserve" text-anchor="middle" x="429.5" y="-260.5" font-family="Arial" font-size="10.00" fill="#8b2418"> tilt_1 </text>
</g>
<!-- n3 -->
<g id="node3" class="node">
<title>n3</title>
<path fill="#b8843a" stroke="#1a1612" stroke-width="1.5" d="M467.27,-150C467.27,-150 364.73,-150 364.73,-150 358.73,-150 352.73,-144 352.73,-138 352.73,-138 352.73,-126 352.73,-126 352.73,-120 358.73,-114 364.73,-114 364.73,-114 467.27,-114 467.27,-114 473.27,-114 479.27,-120 479.27,-126 479.27,-126 479.27,-138 479.27,-138 479.27,-144 473.27,-150 467.27,-150"/>
<text xml:space="preserve" text-anchor="middle" x="416" y="-128.3" font-family="Arial" font-size="11.00" fill="#fbf6eb">3 &#160;&#160;ConditionalBranch</text>
</g>
<!-- n2&#45;&gt;n3 -->
<g id="edge2" class="edge">
<title>n2&#45;&gt;n3</title>
<path fill="none" stroke="#4a3f33" stroke-width="1.3" d="M416,-201.6C416,-190.36 416,-175.47 416,-162.43"/>
<polygon fill="#4a3f33" stroke="#4a3f33" stroke-width="1.3" points="419.5,-162.64 416,-152.64 412.5,-162.64 419.5,-162.64"/>
<text xml:space="preserve" text-anchor="middle" x="438.5" y="-172.5" font-family="Arial" font-size="10.00" fill="#8b2418"> condition </text>
</g>
<!-- n4 -->
<g id="node4" class="node">
<title>n4</title>
<path fill="#fbf6eb" stroke="#1a1612" stroke-width="1.5" d="M119.77,-62C119.77,-62 38.23,-62 38.23,-62 32.23,-62 26.23,-56 26.23,-50 26.23,-50 26.23,-38 26.23,-38 26.23,-32 32.23,-26 38.23,-26 38.23,-26 119.77,-26 119.77,-26 125.77,-26 131.77,-32 131.77,-38 131.77,-38 131.77,-50 131.77,-50 131.77,-56 125.77,-62 119.77,-62"/>
<text xml:space="preserve" text-anchor="middle" x="79" y="-40.3" font-family="Arial" font-size="11.00" fill="#1a1612">4 &#160;&#160;PlaySound #1</text>
</g>
<!-- n3&#45;&gt;n4 -->
<g id="edge3" class="edge">
<title>n3&#45;&gt;n4</title>
<path fill="none" stroke="#8b2418" stroke-width="2" d="M352.37,-120.67C315.37,-114.15 268,-104.9 226.5,-94 197.44,-86.37 165.75,-76.1 139.21,-66.94"/>
<polygon fill="#8b2418" stroke="#8b2418" stroke-width="2" points="140.48,-63.68 129.89,-63.68 138.17,-70.29 140.48,-63.68"/>
<text xml:space="preserve" text-anchor="middle" x="237.75" y="-84.5" font-family="Arial" font-size="10.00" fill="#8b2418"> true </text>
</g>
<!-- n5 -->
<g id="node5" class="node">
<title>n5</title>
<path fill="#5a6b3b" stroke="#1a1612" stroke-width="1.5" d="M260.64,-62C260.64,-62 175.36,-62 175.36,-62 169.36,-62 163.36,-56 163.36,-50 163.36,-50 163.36,-38 163.36,-38 163.36,-32 169.36,-26 175.36,-26 175.36,-26 260.64,-26 260.64,-26 266.64,-26 272.64,-32 272.64,-38 272.64,-38 272.64,-50 272.64,-50 272.64,-56 266.64,-62 260.64,-62"/>
<text xml:space="preserve" text-anchor="middle" x="218" y="-40.3" font-family="Arial" font-size="11.00" fill="#fbf6eb">5 &#160;&#160;DrawImage #1</text>
</g>
<!-- n3&#45;&gt;n5 -->
<g id="edge4" class="edge">
<title>n3&#45;&gt;n5</title>
<path fill="none" stroke="#8b2418" stroke-width="2" d="M352.07,-120.78C326.93,-115.13 298.42,-106.61 274.5,-94 263.37,-88.13 252.56,-79.68 243.44,-71.45"/>
<polygon fill="#8b2418" stroke="#8b2418" stroke-width="2" points="246.11,-69.16 236.45,-64.81 241.29,-74.24 246.11,-69.16"/>
<text xml:space="preserve" text-anchor="middle" x="285.75" y="-84.5" font-family="Arial" font-size="10.00" fill="#8b2418"> true </text>
</g>
<!-- n6 -->
<g id="node6" class="node">
<title>n6</title>
<path fill="#4a3f33" stroke="#1a1612" stroke-width="1.5" d="M358.89,-62C358.89,-62 317.11,-62 317.11,-62 311.11,-62 305.11,-56 305.11,-50 305.11,-50 305.11,-38 305.11,-38 305.11,-32 311.11,-26 317.11,-26 317.11,-26 358.89,-26 358.89,-26 364.89,-26 370.89,-32 370.89,-38 370.89,-38 370.89,-50 370.89,-50 370.89,-56 364.89,-62 358.89,-62"/>
<text xml:space="preserve" text-anchor="middle" x="338" y="-40.3" font-family="Arial" font-size="11.00" fill="#fbf6eb">6 &#160;&#160;Delay</text>
</g>
<!-- n3&#45;&gt;n6 -->
<g id="edge5" class="edge">
<title>n3&#45;&gt;n6</title>
<path fill="none" stroke="#8b2418" stroke-width="2" d="M404.52,-113.52C397.84,-103.84 388.98,-91.81 380,-82 376.63,-78.31 372.92,-74.62 369.14,-71.06"/>
<polygon fill="#8b2418" stroke="#8b2418" stroke-width="2" points="371.78,-68.73 362.01,-64.63 367.09,-73.93 371.78,-68.73"/>
<text xml:space="preserve" text-anchor="middle" x="400.95" y="-84.5" font-family="Arial" font-size="10.00" fill="#8b2418"> true </text>
</g>
<!-- n7 -->
<g id="node7" class="node">
<title>n7</title>
<path fill="#fbf6eb" stroke="#1a1612" stroke-width="1.5" d="M505.27,-62C505.27,-62 414.73,-62 414.73,-62 408.73,-62 402.73,-56 402.73,-50 402.73,-50 402.73,-38 402.73,-38 402.73,-32 408.73,-26 414.73,-26 414.73,-26 505.27,-26 505.27,-26 511.27,-26 517.27,-32 517.27,-38 517.27,-38 517.27,-50 517.27,-50 517.27,-56 511.27,-62 505.27,-62"/>
<text xml:space="preserve" text-anchor="middle" x="460" y="-40.3" font-family="Arial" font-size="11.00" fill="#1a1612">7 &#160;&#160;ClearDisplay #1</text>
</g>
<!-- n3&#45;&gt;n7 -->
<g id="edge6" class="edge">
<title>n3&#45;&gt;n7</title>
<path fill="none" stroke="#8b2418" stroke-width="2" d="M428.42,-113.34C432.37,-107.35 436.6,-100.51 440,-94 443.22,-87.85 446.27,-81.06 448.99,-74.54"/>
<polygon fill="#8b2418" stroke="#8b2418" stroke-width="2" points="452.18,-75.99 452.62,-65.41 445.68,-73.41 452.18,-75.99"/>
<text xml:space="preserve" text-anchor="middle" x="456.92" y="-84.5" font-family="Arial" font-size="10.00" fill="#8b2418"> true </text>
</g>
<!-- n8 -->
<g id="node8" class="node">
<title>n8</title>
<path fill="#fbf6eb" stroke="#1a1612" stroke-width="1.5" d="M644.52,-62C644.52,-62 561.48,-62 561.48,-62 555.48,-62 549.48,-56 549.48,-50 549.48,-50 549.48,-38 549.48,-38 549.48,-32 555.48,-26 561.48,-26 561.48,-26 644.52,-26 644.52,-26 650.52,-26 656.52,-32 656.52,-38 656.52,-38 656.52,-50 656.52,-50 656.52,-56 650.52,-62 644.52,-62"/>
<text xml:space="preserve" text-anchor="middle" x="603" y="-40.3" font-family="Arial" font-size="11.00" fill="#1a1612">8 &#160;&#160;StopSound #1</text>
</g>
<!-- n3&#45;&gt;n8 -->
<g id="edge7" class="edge">
<title>n3&#45;&gt;n8</title>
<path fill="none" stroke="#8b2418" stroke-width="2" d="M454.29,-113.39C482.81,-100.27 522.01,-82.25 553,-67.99"/>
<polygon fill="#8b2418" stroke="#8b2418" stroke-width="2" points="554.06,-71.36 561.69,-64 551.14,-65 554.06,-71.36"/>
<text xml:space="preserve" text-anchor="middle" x="531.95" y="-84.5" font-family="Arial" font-size="10.00" fill="#8b2418"> true </text>
</g>
<!-- n4&#45;&gt;n8 -->
<g id="edge8" class="edge">
<title>n4&#45;&gt;n8</title>
<path fill="none" stroke="#5a6b3b" stroke-width="1.3" stroke-dasharray="5,2" d="M132.43,-59.73C192.27,-75.54 292.26,-96.56 379.12,-89 432.96,-84.31 492.94,-71.86 537.26,-61.24"/>
<polygon fill="#5a6b3b" stroke="#5a6b3b" stroke-width="1.3" points="537.95,-64.67 546.84,-58.9 536.29,-57.87 537.95,-64.67"/>
<text xml:space="preserve" text-anchor="middle" x="363" y="-84.5" font-family="Arial" font-size="10.00" fill="#5a6b3b"> sound </text>
</g>
<!-- n5&#45;&gt;n7 -->
<g id="edge9" class="edge">
<title>n5&#45;&gt;n7</title>
<path fill="none" stroke="#5a6b3b" stroke-width="1.3" stroke-dasharray="5,2" d="M245.51,-62.64C261.9,-72.6 283.55,-83.85 304.62,-89 343.67,-98.54 387.62,-83.34 418.79,-68.09"/>
<polygon fill="#5a6b3b" stroke="#5a6b3b" stroke-width="1.3" points="420.2,-71.31 427.5,-63.63 417.01,-65.07 420.2,-71.31"/>
<text xml:space="preserve" text-anchor="middle" x="323" y="-84.5" font-family="Arial" font-size="10.00" fill="#5a6b3b"> display </text>
</g>
</g>
</svg>
