<?xml version="1.0" encoding="UTF-8" standalone="no"?>
<!DOCTYPE svg PUBLIC "-//W3C//DTD SVG 1.1//EN"
 "http://www.w3.org/Graphics/SVG/1.1/DTD/svg11.dtd">
<!-- Generated by graphviz version 14.1.2 (0)
 -->
<!-- Title: PDG_Protobject Pages: 1 -->
<svg width="874pt" height="451pt"
 viewBox="0.00 0.00 874.00 451.00" xmlns="http://www.w3.org/2000/svg" xmlns:xlink="http://www.w3.org/1999/xlink">
<g id="graph0" class="graph" transform="scale(1 1) rotate(0) translate(21.6 429.6)">
<title>PDG_Protobject</title>
<polygon fill="#fbf6eb" stroke="none" points="-21.6,21.6 -21.6,-429.6 852.12,-429.6 852.12,21.6 -21.6,21.6"/>
<g id="clust1" class="cluster">
<title>cluster_loop</title>
<path fill="#fbf6eb" stroke="#8b2418" stroke-width="1.8" stroke-dasharray="5,2" d="M161.52,-8C161.52,-8 810.52,-8 810.52,-8 816.52,-8 822.52,-14 822.52,-20 822.52,-20 822.52,-388 822.52,-388 822.52,-394 816.52,-400 810.52,-400 810.52,-400 161.52,-400 161.52,-400 155.52,-400 149.52,-394 149.52,-388 149.52,-388 149.52,-20 149.52,-20 149.52,-14 155.52,-8 161.52,-8"/>
<text xml:space="preserve" text-anchor="start" x="183.39" y="-386.55" font-family="Arial" font-weight="bold" font-size="11.00">loop</text>
<text xml:space="preserve" text-anchor="start" x="157.52" y="-377.45" font-family="Arial" font-size="9.00" fill="#8b2418">alcance de control</text>
</g>
<!-- n1 -->
<g id="node1" class="node">
<title>n1</title>
<path fill="#34495e" stroke="#1a1612" stroke-width="1.5" d="M119.04,-326C119.04,-326 12,-326 12,-326 6,-326 0,-320 0,-314 0,-314 0,-302 0,-302 0,-296 6,-290 12,-290 12,-290 119.04,-290 119.04,-290 125.04,-290 131.04,-296 131.04,-302 131.04,-302 131.04,-314 131.04,-314 131.04,-320 125.04,-326 119.04,-326"/>
<text xml:space="preserve" text-anchor="middle" x="65.52" y="-304.3" font-family="Arial" font-size="11.00" fill="#fbf6eb">1 &#160;&#160;ProgramStartEvent</text>
</g>
<!-- n2 -->
<g id="node2" class="node">
<title>n2</title>
<path fill="#fbf6eb" stroke="#1a1612" stroke-width="1.5" d="M110.79,-238C110.79,-238 20.25,-238 20.25,-238 14.25,-238 8.25,-232 8.25,-226 8.25,-226 8.25,-214 8.25,-214 8.25,-208 14.25,-202 20.25,-202 20.25,-202 110.79,-202 110.79,-202 116.79,-202 122.79,-208 122.79,-214 122.79,-214 122.79,-226 122.79,-226 122.79,-232 116.79,-238 110.79,-238"/>
<text xml:space="preserve" text-anchor="middle" x="65.52" y="-216.3" font-family="Arial" font-size="11.00" fill="#1a1612">2 &#160;&#160;ClearDisplay #1</text>
</g>
<!-- n1&#45;&gt;n2 -->
<g id="edge1" class="edge">
<title>n1&#45;&gt;n2</title>
<path fill="none" stroke="#8b2418" stroke-width="2" d="M65.52,-289.6C65.52,-278.71 65.52,-264.39 65.52,-251.64"/>
<polygon fill="#8b2418" stroke="#8b2418" stroke-width="2" points="69.02,-251.7 65.52,-241.7 62.02,-251.7 69.02,-251.7"/>
</g>
<!-- n6 -->
<g id="node6" class="node">
<title>n6</title>
<path fill="#5a6b3b" stroke="#1a1612" stroke-width="1.5" d="M265.16,-62C265.16,-62 179.88,-62 179.88,-62 173.88,-62 167.88,-56 167.88,-50 167.88,-50 167.88,-38 167.88,-38 167.88,-32 173.88,-26 179.88,-26 179.88,-26 265.16,-26 265.16,-26 271.16,-26 277.16,-32 277.16,-38 277.16,-38 277.16,-50 277.16,-50 277.16,-56 271.16,-62 265.16,-62"/>
<text xml:space="preserve" text-anchor="middle" x="222.52" y="-40.3" font-family="Arial" font-size="11.00" fill="#fbf6eb">6 &#160;&#160;DrawImage #1</text>
</g>
<!-- n2&#45;&gt;n6 -->
<g id="edge2" class="edge">
<title>n2&#45;&gt;n6</title>
<path fill="none" stroke="#5a6b3b" stroke-width="1.3" stroke-dasharray="5,2" d="M81.44,-201.36C109.18,-170.61 166.51,-107.08 198.9,-71.18"/>
<polygon fill="#5a6b3b" stroke="#5a6b3b" stroke-width="1.3" points="201.14,-73.92 205.24,-64.15 195.94,-69.23 201.14,-73.92"/>
<text xml:space="preserve" text-anchor="middle" x="178" y="-128.5" font-family="Arial" font-size="10.00" fill="#5a6b3b"> display </text>
</g>
<!-- n3 -->
<g id="node3" class="node">
<title>n3</title>
<path fill="#fbf6eb" stroke="#1a1612" stroke-width="1.5" d="M513.91,-326C513.91,-326 445.12,-326 445.12,-326 439.12,-326 433.12,-320 433.12,-314 433.12,-314 433.12,-302 433.12,-302 433.12,-296 439.12,-290 445.12,-290 445.12,-290 513.91,-290 513.91,-290 519.91,-290 525.91,-296 525.91,-302 525.91,-302 525.91,-314 525.91,-314 525.91,-320 519.91,-326 513.91,-326"/>
<text xml:space="preserve" text-anchor="middle" x="479.52" y="-304.3" font-family="Arial" font-size="11.00" fill="#1a1612">3 &#160;&#160;ReadTilt #1</text>
</g>
<!-- n4 -->
<g id="node4" class="node">
<title>n4</title>
<path fill="#fbf6eb" stroke="#1a1612" stroke-width="1.5" d="M515.79,-238C515.79,-238 443.25,-238 443.25,-238 437.25,-238 431.25,-232 431.25,-226 431.25,-226 431.25,-214 431.25,-214 431.25,-208 437.25,-202 443.25,-202 443.25,-202 515.79,-202 515.79,-202 521.79,-202 527.79,-208 527.79,-214 527.79,-214 527.79,-226 527.79,-226 527.79,-232 521.79,-238 515.79,-238"/>
<text xml:space="preserve" text-anchor="middle" x="479.52" y="-216.3" font-family="Arial" font-size="11.00" fill="#1a1612">4 &#160;&#160;Comparison</text>
</g>
<!-- n3&#45;&gt;n4 -->
<g id="edge3" class="edge">
<title>n3&#45;&gt;n4</title>
<path fill="none" stroke="#4a3f33" stroke-width="1.3" d="M479.52,-289.6C479.52,-278.36 479.52,-263.47 479.52,-250.43"/>
<polygon fill="#4a3f33" stroke="#4a3f33" stroke-width="1.3" points="483.02,-250.64 479.52,-240.64 476.02,-250.64 483.02,-250.64"/>
<text xml:space="preserve" text-anchor="middle" x="493.02" y="-260.5" font-family="Arial" font-size="10.00" fill="#8b2418"> tilt_1 </text>
</g>
<!-- n5 -->
<g id="node5" class="node">
<title>n5</title>
<path fill="#b8843a" stroke="#1a1612" stroke-width="1.5" d="M530.79,-150C530.79,-150 428.25,-150 428.25,-150 422.25,-150 416.25,-144 416.25,-138 416.25,-138 416.25,-126 416.25,-126 416.25,-120 422.25,-114 428.25,-114 428.25,-114 530.79,-114 530.79,-114 536.79,-114 542.79,-120 542.79,-126 542.79,-126 542.79,-138 542.79,-138 542.79,-144 536.79,-150 530.79,-150"/>
<text xml:space="preserve" text-anchor="middle" x="479.52" y="-128.3" font-family="Arial" font-size="11.00" fill="#fbf6eb">5 &#160;&#160;ConditionalBranch</text>
</g>
<!-- n4&#45;&gt;n5 -->
<g id="edge4" class="edge">
<title>n4&#45;&gt;n5</title>
<path fill="none" stroke="#4a3f33" stroke-width="1.3" d="M479.52,-201.6C479.52,-190.36 479.52,-175.47 479.52,-162.43"/>
<polygon fill="#4a3f33" stroke="#4a3f33" stroke-width="1.3" points="483.02,-162.64 479.52,-152.64 476.02,-162.64 483.02,-162.64"/>
<text xml:space="preserve" text-anchor="middle" x="502.02" y="-172.5" font-family="Arial" font-size="10.00" fill="#8b2418"> condition </text>
</g>
<!-- n5&#45;&gt;n6 -->
<g id="edge5" class="edge">
<title>n5&#45;&gt;n6</title>
<path fill="none" stroke="#8b2418" stroke-width="2" d="M415.57,-116.96C390.22,-110.79 360.98,-102.91 335.02,-94 313.58,-86.64 290.52,-76.93 270.9,-68.1"/>
<polygon fill="#8b2418" stroke="#8b2418" stroke-width="2" points="272.48,-64.97 261.93,-64 269.57,-71.34 272.48,-64.97"/>
<text xml:space="preserve" text-anchor="middle" x="346.27" y="-84.5" font-family="Arial" font-size="10.00" fill="#8b2418"> true </text>
</g>
<!-- n7 -->
<g id="node7" class="node">
<title>n7</title>
<path fill="#fbf6eb" stroke="#1a1612" stroke-width="1.5" d="M402.29,-62C402.29,-62 320.75,-62 320.75,-62 314.75,-62 308.75,-56 308.75,-50 308.75,-50 308.75,-38 308.75,-38 308.75,-32 314.75,-26 320.75,-26 320.75,-26 402.29,-26 402.29,-26 408.29,-26 414.29,-32 414.29,-38 414.29,-38 414.29,-50 414.29,-50 414.29,-56 408.29,-62 402.29,-62"/>
<text xml:space="preserve" text-anchor="middle" x="361.52" y="-40.3" font-family="Arial" font-size="11.00" fill="#1a1612">7 &#160;&#160;PlaySound #1</text>
</g>
<!-- n5&#45;&gt;n7 -->
<g id="edge6" class="edge">
<title>n5&#45;&gt;n7</title>
<path fill="none" stroke="#8b2418" stroke-width="2" d="M415.72,-120.72C399.47,-115.24 383.41,-106.85 372.02,-94 367.38,-88.76 364.62,-81.98 363.01,-75.14"/>
<polygon fill="#8b2418" stroke="#8b2418" stroke-width="2" points="366.49,-74.7 361.59,-65.3 359.56,-75.7 366.49,-74.7"/>
<text xml:space="preserve" text-anchor="middle" x="383.27" y="-84.5" font-family="Arial" font-size="10.00" fill="#8b2418"> true </text>
</g>
<!-- n8 -->
<g id="node8" class="node">
<title>n8</title>
<path fill="#4a3f33" stroke="#1a1612" stroke-width="1.5" d="M500.41,-62C500.41,-62 458.62,-62 458.62,-62 452.62,-62 446.62,-56 446.62,-50 446.62,-50 446.62,-38 446.62,-38 446.62,-32 452.62,-26 458.62,-26 458.62,-26 500.41,-26 500.41,-26 506.41,-26 512.41,-32 512.41,-38 512.41,-38 512.41,-50 512.41,-50 512.41,-56 506.41,-62 500.41,-62"/>
<text xml:space="preserve" text-anchor="middle" x="479.52" y="-40.3" font-family="Arial" font-size="11.00" fill="#fbf6eb">8 &#160;&#160;Delay</text>
</g>
<!-- n5&#45;&gt;n8 -->
<g id="edge7" class="edge">
<title>n5&#45;&gt;n8</title>
<path fill="none" stroke="#8b2418" stroke-width="2" d="M479.52,-113.6C479.52,-102.71 479.52,-88.39 479.52,-75.64"/>
<polygon fill="#8b2418" stroke="#8b2418" stroke-width="2" points="483.02,-75.7 479.52,-65.7 476.02,-75.7 483.02,-75.7"/>
<text xml:space="preserve" text-anchor="middle" x="490.77" y="-84.5" font-family="Arial" font-size="10.00" fill="#8b2418"> true </text>
</g>
<!-- n9 -->
<g id="node9" class="node">
<title>n9</title>
<path fill="#fbf6eb" stroke="#1a1612" stroke-width="1.5" d="M646.79,-62C646.79,-62 556.25,-62 556.25,-62 550.25,-62 544.25,-56 544.25,-50 544.25,-50 544.25,-38 544.25,-38 544.25,-32 550.25,-26 556.25,-26 556.25,-26 646.79,-26 646.79,-26 652.79,-26 658.79,-32 658.79,-38 658.79,-38 658.79,-50 658.79,-50 658.79,-56 652.79,-62 646.79,-62"/>
<text xml:space="preserve" text-anchor="middle" x="601.52" y="-40.3" font-family="Arial" font-size="11.00" fill="#1a1612">9 &#160;&#160;ClearDisplay #1</text>
</g>
<!-- n5&#45;&gt;n9 -->
<g id="edge8" class="edge">
<title>n5&#45;&gt;n9</title>
<path fill="none" stroke="#8b2418" stroke-width="2" d="M525.63,-113.29C536.92,-107.94 548.59,-101.46 558.52,-94 566.61,-87.92 574.29,-80.12 580.86,-72.53"/>
<polygon fill="#8b2418" stroke="#8b2418" stroke-width="2" points="583.53,-74.8 587.16,-64.85 578.11,-70.37 583.53,-74.8"/>
<text xml:space="preserve" text-anchor="middle" x="583.14" y="-84.5" font-family="Arial" font-size="10.00" fill="#8b2418"> true </text>
</g>
<!-- n10 -->
<g id="node10" class="node">
<title>n10</title>
<path fill="#fbf6eb" stroke="#1a1612" stroke-width="1.5" d="M792.04,-62C792.04,-62 703,-62 703,-62 697,-62 691,-56 691,-50 691,-50 691,-38 691,-38 691,-32 697,-26 703,-26 703,-26 792.04,-26 792.04,-26 798.04,-26 804.04,-32 804.04,-38 804.04,-38 804.04,-50 804.04,-50 804.04,-56 798.04,-62 792.04,-62"/>
<text xml:space="preserve" text-anchor="middle" x="747.52" y="-40.3" font-family="Arial" font-size="11.00" fill="#1a1612">10 &#160;&#160;StopSound #1</text>
</g>
<!-- n5&#45;&gt;n10 -->
<g id="edge9" class="edge">
<title>n5&#45;&gt;n10</title>
<path fill="none" stroke="#8b2418" stroke-width="2" d="M539.7,-113.34C559.73,-107.34 582.13,-100.51 602.52,-94 629.49,-85.39 659.14,-75.46 684.55,-66.79"/>
<polygon fill="#8b2418" stroke="#8b2418" stroke-width="2" points="685.46,-70.18 693.79,-63.63 683.2,-63.56 685.46,-70.18"/>
<text xml:space="preserve" text-anchor="middle" x="649.7" y="-84.5" font-family="Arial" font-size="10.00" fill="#8b2418"> true </text>
</g>
<!-- n6&#45;&gt;n9 -->
<g id="edge10" class="edge">
<title>n6&#45;&gt;n9</title>
<path fill="none" stroke="#5a6b3b" stroke-width="1.3" stroke-dasharray="5,2" d="M267.79,-62.62C311.35,-78.34 379.2,-97.11 438.89,-89 471.7,-84.55 507.23,-75.26 536.68,-66.27"/>
<polygon fill="#5a6b3b" stroke="#5a6b3b" stroke-width="1.3" points="537.69,-69.62 546.2,-63.3 535.61,-62.94 537.69,-69.62"/>
<text xml:space="preserve" text-anchor="middle" x="420.52" y="-84.5" font-family="Arial" font-size="10.00" fill="#5a6b3b"> display </text>
</g>
<!-- n7&#45;&gt;n10 -->
<g id="edge11" class="edge">
<title>n7&#45;&gt;n10</title>
<path fill="none" stroke="#5a6b3b" stroke-width="1.3" stroke-dasharray="5,2" d="M413.36,-62.71C443.8,-72.7 483.27,-83.95 519.39,-89 577.63,-97.14 643.45,-81.45 689.37,-66.41"/>
<polygon fill="#5a6b3b" stroke="#5a6b3b" stroke-width="1.3" points="690.38,-69.76 698.73,-63.25 688.14,-63.13 690.38,-69.76"/>
<text xml:space="preserve" text-anchor="middle" x="535.52" y="-84.5" font-family="Arial" font-size="10.00" fill="#5a6b3b"> sound </text>
</g>
</g>
</svg>
