<svg xmlns="http://www.w3.org/2000/svg" width="1280" height="720" xmlns:v="https://vecta.io/nano"><style><![CDATA[.B{clip-path:none}.C{stroke-linejoin:round}.D{stroke-linecap:round}]]></style><defs><clipPath ><path d="M0 0h708.12v398.41H0z" stroke-width="0" fill="none"/></clipPath><linearGradient id="B" gradientTransform="matrix(0,391.70759,391.38046,0,-613730.75,173985.07)" x1="-443.86" y1="1569.77" x2="-442.79" y2="1569.77" gradientUnits="userSpaceOnUse" spreadMethod="pad"><stop offset="0" stop-color="#ff7b54"/><stop offset="1" stop-color="#d64e4e"/></linearGradient></defs><path d="M0 0h1280v720H0z" fill="url(#B)" class="B"/><path d="M912.633 243.363h171.072v236.316H912.633z" fill="#ffc93c" class="B"/><path d="M975.3 311.011h45.724v106.594H975.3z" fill="#34c3ff" class="B"/><path d="M1015.885 316.167v96.292h-35.443v-96.292h35.443m10.29-10.299h-56.034v116.883h56.034z" fill="#fff" class="B"/><path d="M980.442 403.487h35.441v8.975h-35.441z" fill="#1e5c93" class="B"/><g class="C"><path d="M425.723 481.107c-32.414 0-53.146-29.838-53.146-50.588 0-38.49 26.56-36.751 26.56-71.771h52.932c0 27.666 27.207 41.088 27.207 69.185 0 28.106-24.2 53.193-53.57 53.193z" fill="#ffc93c" stroke="#ffc93c" stroke-width="9.026" class="B"/><path d="M446.992 466.782s5.019-2.492 9.889-7.347c4.858-4.864 7.131-9.952 7.131-9.952" fill="none" stroke="#fff" stroke-width="5.416" class="B D"/></g><g fill="#1e5c93"><path d="M457.819 188.004s-6.691-17.514-31.973-17.514-31.796 17.514-31.796 17.514z" class="B"/><path d="M480.291 260.932H371.607l14.436-72.927h79.812z" class="B"/></g><path d="M604.155 419.919H247.726c0-98.503 79.793-178.362 178.214-178.362 98.413 0 178.216 79.86 178.216 178.363z" fill="#1dae27" class="B"/><path d="M424.963 514.538v47.491m-98.505-108.304l-34.577 22.2m238.251-22.2l34.558 22.2m-195.525 21.973l-21.835 33.25m140.085-33.25l21.832 33.25" class="B C D" stroke="#ffc93c" fill="none" stroke-width="11.734"/><path d="M453.571 0h-16.103l2.721 5.464c4.145 8.728 6.967 16.322 7.451 19.859v.004c2.462 17.954-2.609 34.883-9.463 52.025s-15.534 34.19-18.514 52.459c-7.353 44.993 8.11 75.281 8.11 75.281l12.818-6.653s-13.369-25.397-6.682-66.301c2.47-15.142 10.522-31.536 17.671-49.419s13.353-37.56 10.365-59.355v-.004c-.95-6.944-4.198-14.53-8.374-23.362z" fill="#34c3ff"/></svg>