<?xml version="1.0" encoding="UTF-8" standalone="no"?>
<!DOCTYPE svg PUBLIC "-//W3C//DTD SVG 1.1//EN"
 "http://www.w3.org/Graphics/SVG/1.1/DTD/svg11.dtd">
<!-- Generated by graphviz version 14.1.2 (0)
 -->
<!-- Title: PDG_Protobject Pages: 1 -->
<svg width="691pt" height="744pt"
 viewBox="0.00 0.00 691.00 744.00" xmlns="http://www.w3.org/2000/svg" xmlns:xlink="http://www.w3.org/1999/xlink">
<g id="graph0" class="graph" transform="scale(1 1) rotate(0) translate(21.6 722.6)">
<title>PDG_Protobject</title>
<polygon fill="#fbf6eb" stroke="none" points="-21.6,21.6 -21.6,-722.6 669,-722.6 669,21.6 -21.6,21.6"/>
<g id="clust1" class="cluster">
<title>cluster_loop</title>
<path fill="#fbf6eb" stroke="#8b2418" stroke-width="1.8" stroke-dasharray="5,2" d="M20,-8C20,-8 520,-8 520,-8 526,-8 532,-14 532,-20 532,-20 532,-448 532,-448 532,-454 526,-460 520,-460 520,-460 20,-460 20,-460 14,-460 8,-454 8,-448 8,-448 8,-20 8,-20 8,-14 14,-8 20,-8"/>
<text xml:space="preserve" text-anchor="start" x="41.88" y="-446.55" font-family="Arial" font-weight="bold" font-size="11.00">loop</text>
<text xml:space="preserve" text-anchor="start" x="16" y="-437.45" font-family="Arial" font-size="9.00" fill="#8b2418">alcance de control</text>
</g>
<!-- n1 -->
<g id="node1" class="node">
<title>n1</title>
<path fill="#34495e" stroke="#1a1612" stroke-width="1.5" d="M474.52,-701C474.52,-701 367.48,-701 367.48,-701 361.48,-701 355.48,-695 355.48,-689 355.48,-689 355.48,-677 355.48,-677 355.48,-671 361.48,-665 367.48,-665 367.48,-665 474.52,-665 474.52,-665 480.52,-665 486.52,-671 486.52,-677 486.52,-677 486.52,-689 486.52,-689 486.52,-695 480.52,-701 474.52,-701"/>
<text xml:space="preserve" text-anchor="middle" x="421" y="-679.3" font-family="Arial" font-size="11.00" fill="#fbf6eb">1 &#160;&#160;ProgramStartEvent</text>
</g>
<!-- n2 -->
<g id="node2" class="node">
<title>n2</title>
<path fill="#8b2418" stroke="#1a1612" stroke-width="1.5" d="M455.77,-624C455.77,-624 386.23,-624 386.23,-624 380.23,-624 374.23,-618 374.23,-612 374.23,-612 374.23,-600 374.23,-600 374.23,-594 380.23,-588 386.23,-588 386.23,-588 455.77,-588 455.77,-588 461.77,-588 467.77,-594 467.77,-600 467.77,-600 467.77,-612 467.77,-612 467.77,-618 461.77,-624 455.77,-624"/>
<text xml:space="preserve" text-anchor="middle" x="421" y="-602.3" font-family="Arial" font-size="11.00" fill="#fbf6eb">2 &#160;&#160;SetVariable</text>
</g>
<!-- n1&#45;&gt;n2 -->
<g id="edge1" class="edge">
<title>n1&#45;&gt;n2</title>
<path fill="none" stroke="#8b2418" stroke-width="2" d="M421,-664.6C421,-656.52 421,-646.67 421,-637.42"/>
<polygon fill="#8b2418" stroke="#8b2418" stroke-width="2" points="424.5,-637.59 421,-627.59 417.5,-637.59 424.5,-637.59"/>
</g>
<!-- n12 -->
<g id="node4" class="node">
<title>n12</title>
<path fill="#fbf6eb" stroke="#1a1612" stroke-width="1.5" d="M345.02,-536C345.02,-536 234.98,-536 234.98,-536 228.98,-536 222.98,-530 222.98,-524 222.98,-524 222.98,-512 222.98,-512 222.98,-506 228.98,-500 234.98,-500 234.98,-500 345.02,-500 345.02,-500 351.02,-500 357.02,-506 357.02,-512 357.02,-512 357.02,-524 357.02,-524 357.02,-530 351.02,-536 345.02,-536"/>
<text xml:space="preserve" text-anchor="middle" x="290" y="-514.3" font-family="Arial" font-size="11.00" fill="#1a1612">12 &#160;&#160;ChangeVariableBy</text>
</g>
<!-- n2&#45;&gt;n12 -->
<g id="edge4" class="edge">
<title>n2&#45;&gt;n12</title>
<path fill="none" stroke="#4a3f33" stroke-width="1.3" d="M391.38,-587.25C381.56,-581.25 370.62,-574.44 360.75,-568 348.75,-560.17 335.81,-551.33 324.32,-543.33"/>
<polygon fill="#4a3f33" stroke="#4a3f33" stroke-width="1.3" points="326.47,-540.56 316.27,-537.7 322.46,-546.3 326.47,-540.56"/>
<text xml:space="preserve" text-anchor="middle" x="378.38" y="-558.5" font-family="Arial" font-size="10.00" fill="#8b2418"> toques </text>
</g>
<!-- n4 -->
<g id="node6" class="node">
<title>n4</title>
<path fill="#fbf6eb" stroke="#1a1612" stroke-width="1.5" d="M407.27,-414C407.27,-414 334.73,-414 334.73,-414 328.73,-414 322.73,-408 322.73,-402 322.73,-402 322.73,-390 322.73,-390 322.73,-384 328.73,-378 334.73,-378 334.73,-378 407.27,-378 407.27,-378 413.27,-378 419.27,-384 419.27,-390 419.27,-390 419.27,-402 419.27,-402 419.27,-408 413.27,-414 407.27,-414"/>
<text xml:space="preserve" text-anchor="middle" x="371" y="-392.3" font-family="Arial" font-size="11.00" fill="#1a1612">4 &#160;&#160;Comparison</text>
</g>
<!-- n2&#45;&gt;n4 -->
<g id="edge2" class="edge">
<title>n2&#45;&gt;n4</title>
<path fill="none" stroke="#4a3f33" stroke-width="1.3" d="M416.74,-587.27C408.12,-551.42 388.56,-470.05 378.03,-426.23"/>
<polygon fill="#4a3f33" stroke="#4a3f33" stroke-width="1.3" points="381.45,-425.51 375.71,-416.6 374.65,-427.14 381.45,-425.51"/>
<text xml:space="preserve" text-anchor="middle" x="421.82" y="-514.5" font-family="Arial" font-size="10.00" fill="#8b2418"> toques </text>
</g>
<!-- n7 -->
<g id="node9" class="node">
<title>n7</title>
<path fill="#fbf6eb" stroke="#1a1612" stroke-width="1.5" d="M112.02,-238C112.02,-238 37.98,-238 37.98,-238 31.98,-238 25.98,-232 25.98,-226 25.98,-226 25.98,-214 25.98,-214 25.98,-208 31.98,-202 37.98,-202 37.98,-202 112.02,-202 112.02,-202 118.02,-202 124.02,-208 124.02,-214 124.02,-214 124.02,-226 124.02,-226 124.02,-232 118.02,-238 112.02,-238"/>
<text xml:space="preserve" text-anchor="middle" x="75" y="-216.3" font-family="Arial" font-size="11.00" fill="#1a1612">7 &#160;&#160;Arithmetic [&#45;]</text>
</g>
<!-- n2&#45;&gt;n7 -->
<g id="edge3" class="edge">
<title>n2&#45;&gt;n7</title>
<path fill="none" stroke="#4a3f33" stroke-width="1.3" d="M468.44,-590.36C500.12,-577.31 536,-554.65 536,-519 536,-519 536,-519 536,-307 536,-235.47 225.13,-252.44 140,-238 138.73,-237.79 137.46,-237.56 136.17,-237.32"/>
<polygon fill="#4a3f33" stroke="#4a3f33" stroke-width="1.3" points="136.92,-233.9 126.42,-235.3 135.5,-240.75 136.92,-233.9"/>
<text xml:space="preserve" text-anchor="middle" x="553.62" y="-392.5" font-family="Arial" font-size="10.00" fill="#8b2418"> toques </text>
</g>
<!-- n11 -->
<g id="node3" class="node">
<title>n11</title>
<path fill="#fbf6eb" stroke="#1a1612" stroke-width="1.5" d="M635.39,-701C635.39,-701 530.61,-701 530.61,-701 524.61,-701 518.61,-695 518.61,-689 518.61,-689 518.61,-677 518.61,-677 518.61,-671 524.61,-665 530.61,-665 530.61,-665 635.39,-665 635.39,-665 641.39,-665 647.39,-671 647.39,-677 647.39,-677 647.39,-689 647.39,-689 647.39,-695 641.39,-701 635.39,-701"/>
<text xml:space="preserve" text-anchor="middle" x="583" y="-679.3" font-family="Arial" font-size="11.00" fill="#1a1612">11 &#160;&#160;OnTouchEvent #1</text>
</g>
<!-- n12&#45;&gt;n4 -->
<g id="edge17" class="edge">
<title>n12&#45;&gt;n4</title>
<path fill="none" stroke="#4a3f33" stroke-width="1.3" d="M301.95,-499.29C315.31,-479.51 337.09,-447.23 352.62,-424.23"/>
<polygon fill="#4a3f33" stroke="#4a3f33" stroke-width="1.3" points="355.47,-426.27 358.16,-416.02 349.67,-422.35 355.47,-426.27"/>
<text xml:space="preserve" text-anchor="middle" x="338.49" y="-470.5" font-family="Arial" font-size="10.00" fill="#8b2418"> toques </text>
</g>
<!-- n12&#45;&gt;n7 -->
<g id="edge18" class="edge">
<title>n12&#45;&gt;n7</title>
<path fill="none" stroke="#4a3f33" stroke-width="1.3" d="M277.19,-499.37C241.05,-449.6 138.03,-307.78 94.65,-248.05"/>
<polygon fill="#4a3f33" stroke="#4a3f33" stroke-width="1.3" points="97.6,-246.16 88.89,-240.13 91.94,-250.28 97.6,-246.16"/>
<text xml:space="preserve" text-anchor="middle" x="190.21" y="-348.5" font-family="Arial" font-size="10.00" fill="#8b2418"> toques </text>
</g>
<!-- n3 -->
<g id="node5" class="node">
<title>n3</title>
<path fill="#b8843a" stroke="#1a1612" stroke-width="1.5" d="M422.27,-326C422.27,-326 319.73,-326 319.73,-326 313.73,-326 307.73,-320 307.73,-314 307.73,-314 307.73,-302 307.73,-302 307.73,-296 313.73,-290 319.73,-290 319.73,-290 422.27,-290 422.27,-290 428.27,-290 434.27,-296 434.27,-302 434.27,-302 434.27,-314 434.27,-314 434.27,-320 428.27,-326 422.27,-326"/>
<text xml:space="preserve" text-anchor="middle" x="371" y="-304.3" font-family="Arial" font-size="11.00" fill="#fbf6eb">3 &#160;&#160;ConditionalBranch</text>
</g>
<!-- n5 -->
<g id="node7" class="node">
<title>n5</title>
<path fill="#fbf6eb" stroke="#1a1612" stroke-width="1.5" d="M230.39,-238C230.39,-238 167.61,-238 167.61,-238 161.61,-238 155.61,-232 155.61,-226 155.61,-226 155.61,-214 155.61,-214 155.61,-208 161.61,-202 167.61,-202 167.61,-202 230.39,-202 230.39,-202 236.39,-202 242.39,-208 242.39,-214 242.39,-214 242.39,-226 242.39,-226 242.39,-232 236.39,-238 230.39,-238"/>
<text xml:space="preserve" text-anchor="middle" x="199" y="-216.3" font-family="Arial" font-size="11.00" fill="#1a1612">5 &#160;&#160;ForRange</text>
</g>
<!-- n3&#45;&gt;n5 -->
<g id="edge5" class="edge">
<title>n3&#45;&gt;n5</title>
<path fill="none" stroke="#8b2418" stroke-width="2" d="M335.78,-289.39C309.78,-276.39 274.13,-258.56 245.74,-244.37"/>
<polygon fill="#8b2418" stroke="#8b2418" stroke-width="2" points="247.69,-241.43 237.18,-240.09 244.56,-247.69 247.69,-241.43"/>
<text xml:space="preserve" text-anchor="middle" x="306.55" y="-260.5" font-family="Arial" font-size="10.00" fill="#8b2418"> true </text>
</g>
<!-- n8 -->
<g id="node10" class="node">
<title>n8</title>
<path fill="#fbf6eb" stroke="#1a1612" stroke-width="1.5" d="M377.27,-238C377.27,-238 286.73,-238 286.73,-238 280.73,-238 274.73,-232 274.73,-226 274.73,-226 274.73,-214 274.73,-214 274.73,-208 280.73,-202 286.73,-202 286.73,-202 377.27,-202 377.27,-202 383.27,-202 389.27,-208 389.27,-214 389.27,-214 389.27,-226 389.27,-226 389.27,-232 383.27,-238 377.27,-238"/>
<text xml:space="preserve" text-anchor="middle" x="332" y="-216.3" font-family="Arial" font-size="11.00" fill="#1a1612">8 &#160;&#160;ClearDisplay #1</text>
</g>
<!-- n3&#45;&gt;n8 -->
<g id="edge6" class="edge">
<title>n3&#45;&gt;n8</title>
<path fill="none" stroke="#8b2418" stroke-width="2" d="M363.11,-289.6C358.01,-278.36 351.26,-263.47 345.34,-250.43"/>
<polygon fill="#8b2418" stroke="#8b2418" stroke-width="2" points="348.58,-249.09 341.26,-241.43 342.21,-251.98 348.58,-249.09"/>
<text xml:space="preserve" text-anchor="middle" x="367.34" y="-260.5" font-family="Arial" font-size="10.00" fill="#8b2418"> false </text>
</g>
<!-- n9 -->
<g id="node11" class="node">
<title>n9</title>
<path fill="#5a6b3b" stroke="#1a1612" stroke-width="1.5" d="M441.64,-150C441.64,-150 356.36,-150 356.36,-150 350.36,-150 344.36,-144 344.36,-138 344.36,-138 344.36,-126 344.36,-126 344.36,-120 350.36,-114 356.36,-114 356.36,-114 441.64,-114 441.64,-114 447.64,-114 453.64,-120 453.64,-126 453.64,-126 453.64,-138 453.64,-138 453.64,-144 447.64,-150 441.64,-150"/>
<text xml:space="preserve" text-anchor="middle" x="399" y="-128.3" font-family="Arial" font-size="11.00" fill="#fbf6eb">9 &#160;&#160;DrawImage #1</text>
</g>
<!-- n3&#45;&gt;n9 -->
<g id="edge7" class="edge">
<title>n3&#45;&gt;n9</title>
<path fill="none" stroke="#8b2418" stroke-width="2" d="M382.49,-289.41C390.57,-275.95 400.67,-256.6 405,-238 410.74,-213.35 408.51,-184.6 405.25,-163.43"/>
<polygon fill="#8b2418" stroke="#8b2418" stroke-width="2" points="408.72,-162.96 403.55,-153.71 401.82,-164.16 408.72,-162.96"/>
<text xml:space="preserve" text-anchor="middle" x="422.04" y="-216.5" font-family="Arial" font-size="10.00" fill="#8b2418"> false </text>
</g>
<!-- n10 -->
<g id="node12" class="node">
<title>n10</title>
<path fill="#fbf6eb" stroke="#1a1612" stroke-width="1.5" d="M486.77,-62C486.77,-62 399.23,-62 399.23,-62 393.23,-62 387.23,-56 387.23,-50 387.23,-50 387.23,-38 387.23,-38 387.23,-32 393.23,-26 399.23,-26 399.23,-26 486.77,-26 486.77,-26 492.77,-26 498.77,-32 498.77,-38 498.77,-38 498.77,-50 498.77,-50 498.77,-56 492.77,-62 486.77,-62"/>
<text xml:space="preserve" text-anchor="middle" x="443" y="-40.3" font-family="Arial" font-size="11.00" fill="#1a1612">10 &#160;&#160;PlaySound #1</text>
</g>
<!-- n3&#45;&gt;n10 -->
<g id="edge8" class="edge">
<title>n3&#45;&gt;n10</title>
<path fill="none" stroke="#8b2418" stroke-width="2" d="M395.56,-289.33C411.48,-276.69 431.5,-258.36 444,-238 465.33,-203.24 464.16,-190.36 470,-150 474.38,-119.7 470.06,-110.55 459,-82 458.03,-79.5 457,-76.92 455.93,-74.34"/>
<polygon fill="#8b2418" stroke="#8b2418" stroke-width="2" points="459.25,-73.2 452.11,-65.36 452.81,-75.93 459.25,-73.2"/>
<text xml:space="preserve" text-anchor="middle" x="480.7" y="-172.5" font-family="Arial" font-size="10.00" fill="#8b2418"> false </text>
</g>
<!-- n4&#45;&gt;n3 -->
<g id="edge9" class="edge">
<title>n4&#45;&gt;n3</title>
<path fill="none" stroke="#4a3f33" stroke-width="1.3" d="M371,-377.6C371,-366.36 371,-351.47 371,-338.43"/>
<polygon fill="#4a3f33" stroke="#4a3f33" stroke-width="1.3" points="374.5,-338.64 371,-328.64 367.5,-338.64 374.5,-338.64"/>
<text xml:space="preserve" text-anchor="middle" x="394.62" y="-348.5" font-family="Arial" font-size="10.00" fill="#8b2418"> condicion </text>
</g>
<!-- n6 -->
<g id="node8" class="node">
<title>n6</title>
<path fill="#5a6b3b" stroke="#1a1612" stroke-width="1.5" d="M146.27,-150C146.27,-150 73.73,-150 73.73,-150 67.73,-150 61.73,-144 61.73,-138 61.73,-138 61.73,-126 61.73,-126 61.73,-120 67.73,-114 73.73,-114 73.73,-114 146.27,-114 146.27,-114 152.27,-114 158.27,-120 158.27,-126 158.27,-126 158.27,-138 158.27,-138 158.27,-144 152.27,-150 146.27,-150"/>
<text xml:space="preserve" text-anchor="middle" x="110" y="-128.3" font-family="Arial" font-size="11.00" fill="#fbf6eb">6 &#160;&#160;PlotPoint #1</text>
</g>
<!-- n5&#45;&gt;n6 -->
<g id="edge10" class="edge">
<title>n5&#45;&gt;n6</title>
<path fill="none" stroke="#8b2418" stroke-width="2" d="M155.07,-204.26C137.58,-197.49 120.34,-189.35 115,-182 111.07,-176.59 109.07,-169.92 108.19,-163.25"/>
<polygon fill="#8b2418" stroke="#8b2418" stroke-width="2" points="111.7,-163.27 107.81,-153.42 104.7,-163.55 111.7,-163.27"/>
</g>
<!-- n5&#45;&gt;n6 -->
<g id="edge11" class="edge">
<title>n5&#45;&gt;n6</title>
<path fill="none" stroke="#4a3f33" stroke-width="1.3" d="M197.94,-201.49C196.51,-191.33 193.27,-178.83 186,-170 181.29,-164.27 175.48,-159.37 169.18,-155.18"/>
<polygon fill="#4a3f33" stroke="#4a3f33" stroke-width="1.3" points="171.07,-152.23 160.67,-150.17 167.52,-158.26 171.07,-152.23"/>
<text xml:space="preserve" text-anchor="middle" x="207.47" y="-172.5" font-family="Arial" font-size="10.00" fill="#8b2418"> value </text>
</g>
<!-- n6&#45;&gt;n8 -->
<g id="edge12" class="edge">
<title>n6&#45;&gt;n8</title>
<path fill="none" stroke="#5a6b3b" stroke-width="1.3" stroke-dasharray="5,2" d="M116.85,-150.68C121.95,-161.44 129.99,-174.52 141.25,-182 185.1,-211.13 206.38,-191.66 258,-202 259.57,-202.32 261.16,-202.64 262.77,-202.97"/>
<polygon fill="#5a6b3b" stroke="#5a6b3b" stroke-width="1.3" points="261.87,-206.36 272.37,-205.01 263.32,-199.51 261.87,-206.36"/>
<text xml:space="preserve" text-anchor="middle" x="159.62" y="-172.5" font-family="Arial" font-size="10.00" fill="#5a6b3b"> display </text>
</g>
<!-- n7&#45;&gt;n6 -->
<g id="edge13" class="edge">
<title>n7&#45;&gt;n6</title>
<path fill="none" stroke="#4a3f33" stroke-width="1.3" d="M70.09,-201.58C68.28,-191.91 67.56,-179.89 71.75,-170 73.35,-166.23 75.54,-162.65 78.07,-159.32"/>
<polygon fill="#4a3f33" stroke="#4a3f33" stroke-width="1.3" points="80.51,-161.84 84.59,-152.07 75.3,-157.17 80.51,-161.84"/>
<text xml:space="preserve" text-anchor="middle" x="86.38" y="-172.5" font-family="Arial" font-size="10.00" fill="#8b2418"> value </text>
</g>
<!-- n8&#45;&gt;n9 -->
<g id="edge14" class="edge">
<title>n8&#45;&gt;n9</title>
<path fill="none" stroke="#8b2418" stroke-width="2" d="M345.56,-201.6C354.67,-189.9 366.88,-174.23 377.32,-160.82"/>
<polygon fill="#8b2418" stroke="#8b2418" stroke-width="2" points="379.99,-163.1 383.37,-153.06 374.46,-158.8 379.99,-163.1"/>
<text xml:space="preserve" text-anchor="middle" x="383.01" y="-172.5" font-family="Arial" font-size="10.00" fill="#8b2418"> false </text>
</g>
<!-- n8&#45;&gt;n9 -->
<g id="edge15" class="edge">
<title>n8&#45;&gt;n9</title>
<path fill="none" stroke="#5a6b3b" stroke-width="1.3" stroke-dasharray="5,2" d="M319.46,-201.7C313.97,-191.85 310.03,-179.6 316.25,-170 320.78,-163.01 326.98,-157.33 333.96,-152.71"/>
<polygon fill="#5a6b3b" stroke="#5a6b3b" stroke-width="1.3" points="335.21,-156.03 342.16,-148.03 331.74,-149.95 335.21,-156.03"/>
<text xml:space="preserve" text-anchor="middle" x="334.62" y="-172.5" font-family="Arial" font-size="10.00" fill="#5a6b3b"> display </text>
</g>
<!-- n9&#45;&gt;n10 -->
<g id="edge16" class="edge">
<title>n9&#45;&gt;n10</title>
<path fill="none" stroke="#8b2418" stroke-width="2" d="M407.9,-113.6C413.71,-102.25 421.43,-87.16 428.15,-74.02"/>
<polygon fill="#8b2418" stroke="#8b2418" stroke-width="2" points="431.14,-75.86 432.58,-65.37 424.91,-72.68 431.14,-75.86"/>
<text xml:space="preserve" text-anchor="middle" x="437.13" y="-84.5" font-family="Arial" font-size="10.00" fill="#8b2418"> false </text>
</g>
</g>
</svg>
