<?xml version="1.0" encoding="UTF-8" standalone="no"?>
<!DOCTYPE svg PUBLIC "-//W3C//DTD SVG 1.1//EN"
 "http://www.w3.org/Graphics/SVG/1.1/DTD/svg11.dtd">
<!-- Generated by graphviz version 14.1.2 (0)
 -->
<!-- Title: PDG_MakeCode Pages: 1 -->
<svg width="311pt" height="392pt"
 viewBox="0.00 0.00 311.00 392.00" xmlns="http://www.w3.org/2000/svg" xmlns:xlink="http://www.w3.org/1999/xlink">
<g id="graph0" class="graph" transform="scale(1 1) rotate(0) translate(21.6 370.6)">
<title>PDG_MakeCode</title>
<polygon fill="#fbf6eb" stroke="none" points="-21.6,21.6 -21.6,-370.6 289.89,-370.6 289.89,21.6 -21.6,21.6"/>
<g id="clust1" class="cluster">
<title>cluster_loop</title>
<path fill="#fbf6eb" stroke="#8b2418" stroke-width="1.8" stroke-dasharray="5,2" d="M45.52,-8C45.52,-8 177.52,-8 177.52,-8 183.52,-8 189.52,-14 189.52,-20 189.52,-20 189.52,-96 189.52,-96 189.52,-102 183.52,-108 177.52,-108 177.52,-108 45.52,-108 45.52,-108 39.52,-108 33.52,-102 33.52,-96 33.52,-96 33.52,-20 33.52,-20 33.52,-14 39.52,-8 45.52,-8"/>
<text xml:space="preserve" text-anchor="start" x="67.39" y="-94.55" font-family="Arial" font-weight="bold" font-size="11.00">loop</text>
<text xml:space="preserve" text-anchor="start" x="41.52" y="-85.45" font-family="Arial" font-size="9.00" fill="#8b2418">alcance de control</text>
</g>
<!-- n1 -->
<g id="node1" class="node">
<title>n1</title>
<path fill="#34495e" stroke="#1a1612" stroke-width="1.5" d="M119.04,-349C119.04,-349 12,-349 12,-349 6,-349 0,-343 0,-337 0,-337 0,-325 0,-325 0,-319 6,-313 12,-313 12,-313 119.04,-313 119.04,-313 125.04,-313 131.04,-319 131.04,-325 131.04,-325 131.04,-337 131.04,-337 131.04,-343 125.04,-349 119.04,-349"/>
<text xml:space="preserve" text-anchor="middle" x="65.52" y="-327.3" font-family="Arial" font-size="11.00" fill="#fbf6eb">1 &#160;&#160;ProgramStartEvent</text>
</g>
<!-- n2 -->
<g id="node2" class="node">
<title>n2</title>
<path fill="#8b2418" stroke="#1a1612" stroke-width="1.5" d="M100.29,-272C100.29,-272 30.75,-272 30.75,-272 24.75,-272 18.75,-266 18.75,-260 18.75,-260 18.75,-248 18.75,-248 18.75,-242 24.75,-236 30.75,-236 30.75,-236 100.29,-236 100.29,-236 106.29,-236 112.29,-242 112.29,-248 112.29,-248 112.29,-260 112.29,-260 112.29,-266 106.29,-272 100.29,-272"/>
<text xml:space="preserve" text-anchor="middle" x="65.52" y="-250.3" font-family="Arial" font-size="11.00" fill="#fbf6eb">2 &#160;&#160;SetVariable</text>
</g>
<!-- n1&#45;&gt;n2 -->
<g id="edge1" class="edge">
<title>n1&#45;&gt;n2</title>
<path fill="none" stroke="#8b2418" stroke-width="2" d="M65.52,-312.6C65.52,-304.52 65.52,-294.67 65.52,-285.42"/>
<polygon fill="#8b2418" stroke="#8b2418" stroke-width="2" points="69.02,-285.59 65.52,-275.59 62.02,-285.59 69.02,-285.59"/>
</g>
<!-- n4 -->
<g id="node4" class="node">
<title>n4</title>
<path fill="#fbf6eb" stroke="#1a1612" stroke-width="1.5" d="M248.54,-184C248.54,-184 144.5,-184 144.5,-184 138.5,-184 132.5,-178 132.5,-172 132.5,-172 132.5,-160 132.5,-160 132.5,-154 138.5,-148 144.5,-148 144.5,-148 248.54,-148 248.54,-148 254.54,-148 260.54,-154 260.54,-160 260.54,-160 260.54,-172 260.54,-172 260.54,-178 254.54,-184 248.54,-184"/>
<text xml:space="preserve" text-anchor="middle" x="196.52" y="-162.3" font-family="Arial" font-size="11.00" fill="#1a1612">4 &#160;&#160;ChangeVariableBy</text>
</g>
<!-- n2&#45;&gt;n4 -->
<g id="edge2" class="edge">
<title>n2&#45;&gt;n4</title>
<path fill="none" stroke="#4a3f33" stroke-width="1.3" d="M92.35,-235.39C111.86,-222.58 138.51,-205.08 159.97,-190.99"/>
<polygon fill="#4a3f33" stroke="#4a3f33" stroke-width="1.3" points="161.65,-194.08 168.09,-185.67 157.8,-188.23 161.65,-194.08"/>
<text xml:space="preserve" text-anchor="middle" x="156.49" y="-206.5" font-family="Arial" font-size="10.00" fill="#8b2418"> toques </text>
</g>
<!-- n5 -->
<g id="node5" class="node">
<title>n5</title>
<path fill="#fbf6eb" stroke="#1a1612" stroke-width="1.5" d="M159.41,-62C159.41,-62 63.62,-62 63.62,-62 57.62,-62 51.62,-56 51.62,-50 51.62,-50 51.62,-38 51.62,-38 51.62,-32 57.62,-26 63.62,-26 63.62,-26 159.41,-26 159.41,-26 165.41,-26 171.41,-32 171.41,-38 171.41,-38 171.41,-50 171.41,-50 171.41,-56 165.41,-62 159.41,-62"/>
<text xml:space="preserve" text-anchor="middle" x="111.52" y="-40.3" font-family="Arial" font-size="11.00" fill="#1a1612">5 &#160;&#160;ShowNumber #1</text>
</g>
<!-- n2&#45;&gt;n5 -->
<g id="edge3" class="edge">
<title>n2&#45;&gt;n5</title>
<path fill="none" stroke="#4a3f33" stroke-width="1.3" d="M67.41,-235.4C69.84,-214.44 74.55,-178.42 81.27,-148 86.85,-122.71 95.29,-94.53 101.83,-74.05"/>
<polygon fill="#4a3f33" stroke="#4a3f33" stroke-width="1.3" points="105.16,-75.13 104.92,-64.54 98.5,-72.97 105.16,-75.13"/>
<text xml:space="preserve" text-anchor="middle" x="98.89" y="-162.5" font-family="Arial" font-size="10.00" fill="#8b2418"> toques </text>
</g>
<!-- n3 -->
<g id="node3" class="node">
<title>n3</title>
<path fill="#fbf6eb" stroke="#1a1612" stroke-width="1.5" d="M256.29,-272C256.29,-272 156.75,-272 156.75,-272 150.75,-272 144.75,-266 144.75,-260 144.75,-260 144.75,-248 144.75,-248 144.75,-242 150.75,-236 156.75,-236 156.75,-236 256.29,-236 256.29,-236 262.29,-236 268.29,-242 268.29,-248 268.29,-248 268.29,-260 268.29,-260 268.29,-266 262.29,-272 256.29,-272"/>
<text xml:space="preserve" text-anchor="middle" x="206.52" y="-250.3" font-family="Arial" font-size="11.00" fill="#1a1612">3 &#160;&#160;OnTouchEvent #1</text>
</g>
<!-- n3&#45;&gt;n4 -->
<g id="edge4" class="edge">
<title>n3&#45;&gt;n4</title>
<path fill="none" stroke="#8b2418" stroke-width="2" d="M204.5,-235.6C203.22,-224.6 201.53,-210.08 200.04,-197.24"/>
<polygon fill="#8b2418" stroke="#8b2418" stroke-width="2" points="203.56,-197.21 198.92,-187.68 196.6,-198.02 203.56,-197.21"/>
</g>
<!-- n4&#45;&gt;n5 -->
<g id="edge5" class="edge">
<title>n4&#45;&gt;n5</title>
<path fill="none" stroke="#4a3f33" stroke-width="1.3" d="M183.98,-147.29C169.9,-127.42 146.89,-94.94 130.59,-71.92"/>
<polygon fill="#4a3f33" stroke="#4a3f33" stroke-width="1.3" points="133.61,-70.13 124.97,-63.99 127.9,-74.18 133.61,-70.13"/>
<text xml:space="preserve" text-anchor="middle" x="186.65" y="-118.5" font-family="Arial" font-size="10.00" fill="#8b2418"> toques </text>
</g>
</g>
</svg>
