<?xml version="1.0" encoding="UTF-8" standalone="no"?>
<!DOCTYPE svg PUBLIC "-//W3C//DTD SVG 1.1//EN"
 "http://www.w3.org/Graphics/SVG/1.1/DTD/svg11.dtd">
<!-- Generated by graphviz version 14.1.2 (0)
 -->
<!-- Title: PDG_Protobject Pages: 1 -->
<svg width="462pt" height="772pt"
 viewBox="0.00 0.00 462.00 772.00" xmlns="http://www.w3.org/2000/svg" xmlns:xlink="http://www.w3.org/1999/xlink">
<g id="graph0" class="graph" transform="scale(1 1) rotate(0) translate(21.6 750.6)">
<title>PDG_Protobject</title>
<polygon fill="#fbf6eb" stroke="none" points="-21.6,21.6 -21.6,-750.6 440.6,-750.6 440.6,21.6 -21.6,21.6"/>
<g id="clust1" class="cluster">
<title>cluster_loop</title>
<path fill="#fbf6eb" stroke="#8b2418" stroke-width="1.8" stroke-dasharray="5,2" d="M20,-8C20,-8 399,-8 399,-8 405,-8 411,-14 411,-20 411,-20 411,-476 411,-476 411,-482 405,-488 399,-488 399,-488 20,-488 20,-488 14,-488 8,-482 8,-476 8,-476 8,-20 8,-20 8,-14 14,-8 20,-8"/>
<text xml:space="preserve" text-anchor="start" x="41.88" y="-474.55" font-family="Arial" font-weight="bold" font-size="11.00">loop</text>
<text xml:space="preserve" text-anchor="start" x="16" y="-465.45" font-family="Arial" font-size="9.00" fill="#8b2418">alcance de control</text>
</g>
<!-- n1 -->
<g id="node1" class="node">
<title>n1</title>
<path fill="#34495e" stroke="#1a1612" stroke-width="1.5" d="M311.52,-729C311.52,-729 204.48,-729 204.48,-729 198.48,-729 192.48,-723 192.48,-717 192.48,-717 192.48,-705 192.48,-705 192.48,-699 198.48,-693 204.48,-693 204.48,-693 311.52,-693 311.52,-693 317.52,-693 323.52,-699 323.52,-705 323.52,-705 323.52,-717 323.52,-717 323.52,-723 317.52,-729 311.52,-729"/>
<text xml:space="preserve" text-anchor="middle" x="258" y="-707.3" font-family="Arial" font-size="11.00" fill="#fbf6eb">1 &#160;&#160;ProgramStartEvent</text>
</g>
<!-- n2 -->
<g id="node2" class="node">
<title>n2</title>
<path fill="#8b2418" stroke="#1a1612" stroke-width="1.5" d="M292.77,-652C292.77,-652 223.23,-652 223.23,-652 217.23,-652 211.23,-646 211.23,-640 211.23,-640 211.23,-628 211.23,-628 211.23,-622 217.23,-616 223.23,-616 223.23,-616 292.77,-616 292.77,-616 298.77,-616 304.77,-622 304.77,-628 304.77,-628 304.77,-640 304.77,-640 304.77,-646 298.77,-652 292.77,-652"/>
<text xml:space="preserve" text-anchor="middle" x="258" y="-630.3" font-family="Arial" font-size="11.00" fill="#fbf6eb">2 &#160;&#160;SetVariable</text>
</g>
<!-- n1&#45;&gt;n2 -->
<g id="edge1" class="edge">
<title>n1&#45;&gt;n2</title>
<path fill="none" stroke="#8b2418" stroke-width="2" d="M258,-692.6C258,-684.52 258,-674.67 258,-665.42"/>
<polygon fill="#8b2418" stroke="#8b2418" stroke-width="2" points="261.5,-665.59 258,-655.59 254.5,-665.59 261.5,-665.59"/>
</g>
<!-- n4 -->
<g id="node4" class="node">
<title>n4</title>
<path fill="#fbf6eb" stroke="#1a1612" stroke-width="1.5" d="M175.02,-564C175.02,-564 70.98,-564 70.98,-564 64.98,-564 58.98,-558 58.98,-552 58.98,-552 58.98,-540 58.98,-540 58.98,-534 64.98,-528 70.98,-528 70.98,-528 175.02,-528 175.02,-528 181.02,-528 187.02,-534 187.02,-540 187.02,-540 187.02,-552 187.02,-552 187.02,-558 181.02,-564 175.02,-564"/>
<text xml:space="preserve" text-anchor="middle" x="123" y="-542.3" font-family="Arial" font-size="11.00" fill="#1a1612">4 &#160;&#160;ChangeVariableBy</text>
</g>
<!-- n2&#45;&gt;n4 -->
<g id="edge2" class="edge">
<title>n2&#45;&gt;n4</title>
<path fill="none" stroke="#4a3f33" stroke-width="1.3" d="M225.99,-615.26C215.6,-609.32 204.08,-602.54 193.75,-596 181.64,-588.34 168.67,-579.54 157.19,-571.53"/>
<polygon fill="#4a3f33" stroke="#4a3f33" stroke-width="1.3" points="159.35,-568.77 149.15,-565.88 155.32,-574.49 159.35,-568.77"/>
<text xml:space="preserve" text-anchor="middle" x="211.38" y="-586.5" font-family="Arial" font-size="10.00" fill="#8b2418"> toques </text>
</g>
<!-- n6 -->
<g id="node6" class="node">
<title>n6</title>
<path fill="#fbf6eb" stroke="#1a1612" stroke-width="1.5" d="M283.14,-414C283.14,-414 194.86,-414 194.86,-414 188.86,-414 182.86,-408 182.86,-402 182.86,-402 182.86,-390 182.86,-390 182.86,-384 188.86,-378 194.86,-378 194.86,-378 283.14,-378 283.14,-378 289.14,-378 295.14,-384 295.14,-390 295.14,-390 295.14,-402 295.14,-402 295.14,-408 289.14,-414 283.14,-414"/>
<text xml:space="preserve" text-anchor="middle" x="239" y="-392.3" font-family="Arial" font-size="11.00" fill="#1a1612">6 &#160;&#160;Comparison [&lt;]</text>
</g>
<!-- n2&#45;&gt;n6 -->
<g id="edge3" class="edge">
<title>n2&#45;&gt;n6</title>
<path fill="none" stroke="#4a3f33" stroke-width="1.3" d="M256.57,-615.26C253.32,-574.93 245.36,-476.01 241.37,-426.39"/>
<polygon fill="#4a3f33" stroke="#4a3f33" stroke-width="1.3" points="244.87,-426.27 240.58,-416.58 237.89,-426.83 244.87,-426.27"/>
<text xml:space="preserve" text-anchor="middle" x="269.83" y="-542.5" font-family="Arial" font-size="10.00" fill="#8b2418"> toques </text>
</g>
<!-- n7 -->
<g id="node7" class="node">
<title>n7</title>
<path fill="#fbf6eb" stroke="#1a1612" stroke-width="1.5" d="M381.02,-326C381.02,-326 306.98,-326 306.98,-326 300.98,-326 294.98,-320 294.98,-314 294.98,-314 294.98,-302 294.98,-302 294.98,-296 300.98,-290 306.98,-290 306.98,-290 381.02,-290 381.02,-290 387.02,-290 393.02,-296 393.02,-302 393.02,-302 393.02,-314 393.02,-314 393.02,-320 387.02,-326 381.02,-326"/>
<text xml:space="preserve" text-anchor="middle" x="344" y="-304.3" font-family="Arial" font-size="11.00" fill="#1a1612">7 &#160;&#160;Arithmetic [&#45;]</text>
</g>
<!-- n2&#45;&gt;n7 -->
<g id="edge4" class="edge">
<title>n2&#45;&gt;n7</title>
<path fill="none" stroke="#4a3f33" stroke-width="1.3" d="M269.66,-615.31C278.01,-601.8 288.83,-582.43 295,-564 321.53,-484.73 335.33,-386.51 340.93,-338.38"/>
<polygon fill="#4a3f33" stroke="#4a3f33" stroke-width="1.3" points="344.38,-339.01 342.02,-328.68 337.42,-338.23 344.38,-339.01"/>
<text xml:space="preserve" text-anchor="middle" x="331.15" y="-498.5" font-family="Arial" font-size="10.00" fill="#8b2418"> toques </text>
</g>
<!-- n3 -->
<g id="node3" class="node">
<title>n3</title>
<path fill="#fbf6eb" stroke="#1a1612" stroke-width="1.5" d="M166.77,-652C166.77,-652 67.23,-652 67.23,-652 61.23,-652 55.23,-646 55.23,-640 55.23,-640 55.23,-628 55.23,-628 55.23,-622 61.23,-616 67.23,-616 67.23,-616 166.77,-616 166.77,-616 172.77,-616 178.77,-622 178.77,-628 178.77,-628 178.77,-640 178.77,-640 178.77,-646 172.77,-652 166.77,-652"/>
<text xml:space="preserve" text-anchor="middle" x="117" y="-630.3" font-family="Arial" font-size="11.00" fill="#1a1612">3 &#160;&#160;OnTouchEvent #1</text>
</g>
<!-- n3&#45;&gt;n4 -->
<g id="edge5" class="edge">
<title>n3&#45;&gt;n4</title>
<path fill="none" stroke="#8b2418" stroke-width="2" d="M118.21,-615.6C118.97,-604.71 119.97,-590.39 120.86,-577.64"/>
<polygon fill="#8b2418" stroke="#8b2418" stroke-width="2" points="124.35,-577.91 121.56,-567.69 117.37,-577.42 124.35,-577.91"/>
</g>
<!-- n4&#45;&gt;n6 -->
<g id="edge6" class="edge">
<title>n4&#45;&gt;n6</title>
<path fill="none" stroke="#4a3f33" stroke-width="1.3" d="M136.76,-527.44C156.91,-501.74 194.58,-453.67 218.14,-423.61"/>
<polygon fill="#4a3f33" stroke="#4a3f33" stroke-width="1.3" points="220.63,-426.11 224.04,-416.08 215.12,-421.8 220.63,-426.11"/>
<text xml:space="preserve" text-anchor="middle" x="178.15" y="-498.5" font-family="Arial" font-size="10.00" fill="#8b2418"> toques </text>
</g>
<!-- n4&#45;&gt;n7 -->
<g id="edge7" class="edge">
<title>n4&#45;&gt;n7</title>
<path fill="none" stroke="#4a3f33" stroke-width="1.3" d="M118.34,-527.44C110.74,-494.7 99.58,-423.52 131.75,-378 153.2,-347.65 173.84,-358.05 209,-346 223,-341.2 254.25,-332.59 283.16,-324.88"/>
<polygon fill="#4a3f33" stroke="#4a3f33" stroke-width="1.3" points="283.84,-328.33 292.6,-322.38 282.04,-321.56 283.84,-328.33"/>
<text xml:space="preserve" text-anchor="middle" x="149.38" y="-392.5" font-family="Arial" font-size="10.00" fill="#8b2418"> toques </text>
</g>
<!-- n5 -->
<g id="node5" class="node">
<title>n5</title>
<path fill="#b8843a" stroke="#1a1612" stroke-width="1.5" d="M251.27,-326C251.27,-326 148.73,-326 148.73,-326 142.73,-326 136.73,-320 136.73,-314 136.73,-314 136.73,-302 136.73,-302 136.73,-296 142.73,-290 148.73,-290 148.73,-290 251.27,-290 251.27,-290 257.27,-290 263.27,-296 263.27,-302 263.27,-302 263.27,-314 263.27,-314 263.27,-320 257.27,-326 251.27,-326"/>
<text xml:space="preserve" text-anchor="middle" x="200" y="-304.3" font-family="Arial" font-size="11.00" fill="#fbf6eb">5 &#160;&#160;ConditionalBranch</text>
</g>
<!-- n8 -->
<g id="node8" class="node">
<title>n8</title>
<path fill="#5a6b3b" stroke="#1a1612" stroke-width="1.5" d="M381.27,-238C381.27,-238 308.73,-238 308.73,-238 302.73,-238 296.73,-232 296.73,-226 296.73,-226 296.73,-214 296.73,-214 296.73,-208 302.73,-202 308.73,-202 308.73,-202 381.27,-202 381.27,-202 387.27,-202 393.27,-208 393.27,-214 393.27,-214 393.27,-226 393.27,-226 393.27,-232 387.27,-238 381.27,-238"/>
<text xml:space="preserve" text-anchor="middle" x="345" y="-216.3" font-family="Arial" font-size="11.00" fill="#fbf6eb">8 &#160;&#160;PlotPoint #1</text>
</g>
<!-- n5&#45;&gt;n8 -->
<g id="edge8" class="edge">
<title>n5&#45;&gt;n8</title>
<path fill="none" stroke="#8b2418" stroke-width="2" d="M232.05,-289.4C242.89,-283.36 255.03,-276.48 266,-270 279.33,-262.13 293.76,-253.28 306.6,-245.29"/>
<polygon fill="#8b2418" stroke="#8b2418" stroke-width="2" points="308.21,-248.41 314.83,-240.14 304.5,-242.48 308.21,-248.41"/>
<text xml:space="preserve" text-anchor="middle" x="296.93" y="-260.5" font-family="Arial" font-size="10.00" fill="#8b2418"> true </text>
</g>
<!-- n9 -->
<g id="node9" class="node">
<title>n9</title>
<path fill="#fbf6eb" stroke="#1a1612" stroke-width="1.5" d="M128.27,-238C128.27,-238 37.73,-238 37.73,-238 31.73,-238 25.73,-232 25.73,-226 25.73,-226 25.73,-214 25.73,-214 25.73,-208 31.73,-202 37.73,-202 37.73,-202 128.27,-202 128.27,-202 134.27,-202 140.27,-208 140.27,-214 140.27,-214 140.27,-226 140.27,-226 140.27,-232 134.27,-238 128.27,-238"/>
<text xml:space="preserve" text-anchor="middle" x="83" y="-216.3" font-family="Arial" font-size="11.00" fill="#1a1612">9 &#160;&#160;ClearDisplay #1</text>
</g>
<!-- n5&#45;&gt;n9 -->
<g id="edge9" class="edge">
<title>n5&#45;&gt;n9</title>
<path fill="none" stroke="#8b2418" stroke-width="2" d="M176.04,-289.39C159.08,-276.93 136.1,-260.03 117.21,-246.15"/>
<polygon fill="#8b2418" stroke="#8b2418" stroke-width="2" points="119.5,-243.48 109.37,-240.38 115.35,-249.12 119.5,-243.48"/>
<text xml:space="preserve" text-anchor="middle" x="162.01" y="-260.5" font-family="Arial" font-size="10.00" fill="#8b2418"> false </text>
</g>
<!-- n10 -->
<g id="node10" class="node">
<title>n10</title>
<path fill="#5a6b3b" stroke="#1a1612" stroke-width="1.5" d="M218.64,-150C218.64,-150 127.36,-150 127.36,-150 121.36,-150 115.36,-144 115.36,-138 115.36,-138 115.36,-126 115.36,-126 115.36,-120 121.36,-114 127.36,-114 127.36,-114 218.64,-114 218.64,-114 224.64,-114 230.64,-120 230.64,-126 230.64,-126 230.64,-138 230.64,-138 230.64,-144 224.64,-150 218.64,-150"/>
<text xml:space="preserve" text-anchor="middle" x="173" y="-128.3" font-family="Arial" font-size="11.00" fill="#fbf6eb">10 &#160;&#160;DrawImage #1</text>
</g>
<!-- n5&#45;&gt;n10 -->
<g id="edge10" class="edge">
<title>n5&#45;&gt;n10</title>
<path fill="none" stroke="#8b2418" stroke-width="2" d="M197.26,-289.36C192.67,-259.79 183.38,-199.88 177.72,-163.41"/>
<polygon fill="#8b2418" stroke="#8b2418" stroke-width="2" points="181.2,-163.02 176.21,-153.68 174.28,-164.1 181.2,-163.02"/>
<text xml:space="preserve" text-anchor="middle" x="202.68" y="-216.5" font-family="Arial" font-size="10.00" fill="#8b2418"> false </text>
</g>
<!-- n11 -->
<g id="node11" class="node">
<title>n11</title>
<path fill="#fbf6eb" stroke="#1a1612" stroke-width="1.5" d="M284.39,-62C284.39,-62 197.61,-62 197.61,-62 191.61,-62 185.61,-56 185.61,-50 185.61,-50 185.61,-38 185.61,-38 185.61,-32 191.61,-26 197.61,-26 197.61,-26 284.39,-26 284.39,-26 290.39,-26 296.39,-32 296.39,-38 296.39,-38 296.39,-50 296.39,-50 296.39,-56 290.39,-62 284.39,-62"/>
<text xml:space="preserve" text-anchor="middle" x="241" y="-40.3" font-family="Arial" font-size="11.00" fill="#1a1612">11 &#160;&#160;PlaySound #1</text>
</g>
<!-- n5&#45;&gt;n11 -->
<g id="edge11" class="edge">
<title>n5&#45;&gt;n11</title>
<path fill="none" stroke="#8b2418" stroke-width="2" d="M240.49,-289.36C247.91,-284.22 254.67,-277.83 259,-270 293.53,-207.58 269.85,-120.17 253.29,-74.87"/>
<polygon fill="#8b2418" stroke="#8b2418" stroke-width="2" points="256.58,-73.66 249.74,-65.57 250.04,-76.16 256.58,-73.66"/>
<text xml:space="preserve" text-anchor="middle" x="289.92" y="-172.5" font-family="Arial" font-size="10.00" fill="#8b2418"> false </text>
</g>
<!-- n6&#45;&gt;n5 -->
<g id="edge12" class="edge">
<title>n6&#45;&gt;n5</title>
<path fill="none" stroke="#4a3f33" stroke-width="1.3" d="M231.11,-377.6C225.86,-366.02 218.84,-350.54 212.8,-337.22"/>
<polygon fill="#4a3f33" stroke="#4a3f33" stroke-width="1.3" points="216.14,-336.13 208.83,-328.46 209.77,-339.02 216.14,-336.13"/>
<text xml:space="preserve" text-anchor="middle" x="236.46" y="-348.5" font-family="Arial" font-size="10.00" fill="#8b2418"> value </text>
</g>
<!-- n7&#45;&gt;n8 -->
<g id="edge13" class="edge">
<title>n7&#45;&gt;n8</title>
<path fill="none" stroke="#4a3f33" stroke-width="1.3" d="M344.2,-289.6C344.33,-278.36 344.51,-263.47 344.66,-250.43"/>
<polygon fill="#4a3f33" stroke="#4a3f33" stroke-width="1.3" points="348.16,-250.68 344.77,-240.64 341.16,-250.6 348.16,-250.68"/>
<text xml:space="preserve" text-anchor="middle" x="359.18" y="-260.5" font-family="Arial" font-size="10.00" fill="#8b2418"> value </text>
</g>
<!-- n8&#45;&gt;n9 -->
<g id="edge14" class="edge">
<title>n8&#45;&gt;n9</title>
<path fill="none" stroke="#5a6b3b" stroke-width="1.3" stroke-dasharray="5,2" d="M313.62,-238.58C296.22,-247.81 273.82,-257.96 252.38,-262.67 210.28,-271.9 162.72,-257.73 128.74,-243.3"/>
<polygon fill="#5a6b3b" stroke="#5a6b3b" stroke-width="1.3" points="130.57,-240.28 120.01,-239.43 127.73,-246.68 130.57,-240.28"/>
<text xml:space="preserve" text-anchor="middle" x="234" y="-260.5" font-family="Arial" font-size="10.00" fill="#5a6b3b"> display </text>
</g>
<!-- n9&#45;&gt;n10 -->
<g id="edge15" class="edge">
<title>n9&#45;&gt;n10</title>
<path fill="none" stroke="#8b2418" stroke-width="2" d="M80.25,-201.62C79.6,-191.51 80.53,-179.01 87,-170 91.61,-163.59 97.56,-158.28 104.18,-153.88"/>
<polygon fill="#8b2418" stroke="#8b2418" stroke-width="2" points="105.45,-157.19 112.41,-149.2 101.99,-151.1 105.45,-157.19"/>
<text xml:space="preserve" text-anchor="middle" x="100.5" y="-172.5" font-family="Arial" font-size="10.00" fill="#8b2418"> false </text>
</g>
<!-- n9&#45;&gt;n10 -->
<g id="edge16" class="edge">
<title>n9&#45;&gt;n10</title>
<path fill="none" stroke="#5a6b3b" stroke-width="1.3" stroke-dasharray="5,2" d="M101.21,-201.6C114.06,-189.32 131.48,-172.67 145.95,-158.85"/>
<polygon fill="#5a6b3b" stroke="#5a6b3b" stroke-width="1.3" points="148.27,-161.47 153.08,-152.03 143.43,-156.41 148.27,-161.47"/>
<text xml:space="preserve" text-anchor="middle" x="151.76" y="-172.5" font-family="Arial" font-size="10.00" fill="#5a6b3b"> display </text>
</g>
<!-- n10&#45;&gt;n11 -->
<g id="edge17" class="edge">
<title>n10&#45;&gt;n11</title>
<path fill="none" stroke="#8b2418" stroke-width="2" d="M186.76,-113.6C196.01,-101.9 208.4,-86.23 219,-72.82"/>
<polygon fill="#8b2418" stroke="#8b2418" stroke-width="2" points="221.69,-75.06 225.15,-65.05 216.2,-70.72 221.69,-75.06"/>
<text xml:space="preserve" text-anchor="middle" x="224.57" y="-84.5" font-family="Arial" font-size="10.00" fill="#8b2418"> false </text>
</g>
</g>
</svg>
