<?xml version="1.0" encoding="UTF-8" standalone="no"?>
<!DOCTYPE svg PUBLIC "-//W3C//DTD SVG 1.1//EN"
 "http://www.w3.org/Graphics/SVG/1.1/DTD/svg11.dtd">
<!-- Generated by graphviz version 14.1.2 (0)
 -->
<!-- Title: PDG_MakeCode Pages: 1 -->
<svg width="347pt" height="420pt"
 viewBox="0.00 0.00 347.00 420.00" xmlns="http://www.w3.org/2000/svg" xmlns:xlink="http://www.w3.org/1999/xlink">
<g id="graph0" class="graph" transform="scale(1 1) rotate(0) translate(21.6 398.6)">
<title>PDG_MakeCode</title>
<polygon fill="#fbf6eb" stroke="none" points="-21.6,21.6 -21.6,-398.6 325.26,-398.6 325.26,21.6 -21.6,21.6"/>
<!-- n1 -->
<g id="node1" class="node">
<title>n1</title>
<path fill="#34495e" stroke="#1a1612" stroke-width="1.5" d="M132.16,-377C132.16,-377 25.12,-377 25.12,-377 19.13,-377 13.12,-371 13.12,-365 13.12,-365 13.12,-353 13.12,-353 13.12,-347 19.12,-341 25.12,-341 25.12,-341 132.16,-341 132.16,-341 138.16,-341 144.16,-347 144.16,-353 144.16,-353 144.16,-365 144.16,-365 144.16,-371 138.16,-377 132.16,-377"/>
<text xml:space="preserve" text-anchor="middle" x="78.64" y="-355.3" font-family="Arial" font-size="11.00" fill="#fbf6eb">1 &#160;&#160;ProgramStartEvent</text>
</g>
<!-- n2 -->
<g id="node2" class="node">
<title>n2</title>
<path fill="#8b2418" stroke="#1a1612" stroke-width="1.5" d="M113.41,-300C113.41,-300 43.88,-300 43.88,-300 37.88,-300 31.88,-294 31.88,-288 31.88,-288 31.88,-276 31.88,-276 31.88,-270 37.88,-264 43.88,-264 43.88,-264 113.41,-264 113.41,-264 119.41,-264 125.41,-270 125.41,-276 125.41,-276 125.41,-288 125.41,-288 125.41,-294 119.41,-300 113.41,-300"/>
<text xml:space="preserve" text-anchor="middle" x="78.64" y="-278.3" font-family="Arial" font-size="11.00" fill="#fbf6eb">2 &#160;&#160;SetVariable</text>
</g>
<!-- n1&#45;&gt;n2 -->
<g id="edge1" class="edge">
<title>n1&#45;&gt;n2</title>
<path fill="none" stroke="#8b2418" stroke-width="2" d="M78.64,-340.6C78.64,-332.52 78.64,-322.67 78.64,-313.42"/>
<polygon fill="#8b2418" stroke="#8b2418" stroke-width="2" points="82.15,-313.59 78.65,-303.59 75.15,-313.59 82.15,-313.59"/>
</g>
<!-- n4 -->
<g id="node4" class="node">
<title>n4</title>
<path fill="#8b2418" stroke="#1a1612" stroke-width="1.5" d="M242.91,-212C242.91,-212 158.37,-212 158.37,-212 152.37,-212 146.37,-206 146.37,-200 146.37,-200 146.37,-188 146.37,-188 146.37,-182 152.37,-176 158.37,-176 158.37,-176 242.91,-176 242.91,-176 248.91,-176 254.91,-182 254.91,-188 254.91,-188 254.91,-200 254.91,-200 254.91,-206 248.91,-212 242.91,-212"/>
<text xml:space="preserve" text-anchor="middle" x="200.64" y="-190.3" font-family="Arial" font-size="11.00" fill="#fbf6eb">4 &#160;&#160;ToggleVariable</text>
</g>
<!-- n2&#45;&gt;n4 -->
<g id="edge2" class="edge">
<title>n2&#45;&gt;n4</title>
<path fill="none" stroke="#4a3f33" stroke-width="1.3" d="M103.63,-263.39C121.64,-250.69 146.17,-233.4 166.07,-219.38"/>
<polygon fill="#4a3f33" stroke="#4a3f33" stroke-width="1.3" points="167.93,-222.34 174.09,-213.72 163.9,-216.62 167.93,-222.34"/>
<text xml:space="preserve" text-anchor="middle" x="164.57" y="-234.5" font-family="Arial" font-size="10.00" fill="#8b2418"> estado </text>
</g>
<!-- n5 -->
<g id="node5" class="node">
<title>n5</title>
<path fill="#b8843a" stroke="#1a1612" stroke-width="1.5" d="M194.91,-124C194.91,-124 92.37,-124 92.37,-124 86.37,-124 80.37,-118 80.37,-112 80.37,-112 80.37,-100 80.37,-100 80.37,-94 86.37,-88 92.37,-88 92.37,-88 194.91,-88 194.91,-88 200.91,-88 206.91,-94 206.91,-100 206.91,-100 206.91,-112 206.91,-112 206.91,-118 200.91,-124 194.91,-124"/>
<text xml:space="preserve" text-anchor="middle" x="143.64" y="-102.3" font-family="Arial" font-size="11.00" fill="#fbf6eb">5 &#160;&#160;ConditionalBranch</text>
</g>
<!-- n2&#45;&gt;n5 -->
<g id="edge3" class="edge">
<title>n2&#45;&gt;n5</title>
<path fill="none" stroke="#4a3f33" stroke-width="1.3" d="M79.06,-263.26C80.11,-241.85 83.63,-205.09 95.39,-176 101.49,-160.92 111.4,-145.92 120.66,-133.77"/>
<polygon fill="#4a3f33" stroke="#4a3f33" stroke-width="1.3" points="123.16,-136.25 126.64,-126.24 117.68,-131.9 123.16,-136.25"/>
<text xml:space="preserve" text-anchor="middle" x="113.02" y="-190.5" font-family="Arial" font-size="10.00" fill="#8b2418"> estado </text>
</g>
<!-- n3 -->
<g id="node3" class="node">
<title>n3</title>
<path fill="#34495e" stroke="#1a1612" stroke-width="1.5" d="M291.66,-300C291.66,-300 169.62,-300 169.62,-300 163.62,-300 157.62,-294 157.62,-288 157.62,-288 157.62,-276 157.62,-276 157.62,-270 163.62,-264 169.62,-264 169.62,-264 291.66,-264 291.66,-264 297.66,-264 303.66,-270 303.66,-276 303.66,-276 303.66,-288 303.66,-288 303.66,-294 297.66,-300 291.66,-300"/>
<text xml:space="preserve" text-anchor="middle" x="230.64" y="-278.3" font-family="Arial" font-size="11.00" fill="#fbf6eb">3 &#160;&#160;SuddenNoiseEvent #1</text>
</g>
<!-- n3&#45;&gt;n4 -->
<g id="edge4" class="edge">
<title>n3&#45;&gt;n4</title>
<path fill="none" stroke="#8b2418" stroke-width="2" d="M224.57,-263.6C220.7,-252.48 215.57,-237.77 211.05,-224.83"/>
<polygon fill="#8b2418" stroke="#8b2418" stroke-width="2" points="214.41,-223.82 207.81,-215.53 207.8,-226.13 214.41,-223.82"/>
</g>
<!-- n4&#45;&gt;n5 -->
<g id="edge5" class="edge">
<title>n4&#45;&gt;n5</title>
<path fill="none" stroke="#8b2418" stroke-width="2" d="M194.91,-175.43C191.3,-165.72 186.12,-153.7 179.64,-144 177.43,-140.68 174.89,-137.39 172.22,-134.23"/>
<polygon fill="#8b2418" stroke="#8b2418" stroke-width="2" points="174.8,-131.87 165.45,-126.88 169.65,-136.61 174.8,-131.87"/>
</g>
<!-- n4&#45;&gt;n5 -->
<g id="edge6" class="edge">
<title>n4&#45;&gt;n5</title>
<path fill="none" stroke="#4a3f33" stroke-width="1.3" d="M155.65,-175.36C147.95,-170.28 140.97,-163.91 136.39,-156 132.91,-149.97 132.35,-142.85 133.23,-135.93"/>
<polygon fill="#4a3f33" stroke="#4a3f33" stroke-width="1.3" points="136.62,-136.8 135.45,-126.27 129.8,-135.23 136.62,-136.8"/>
<text xml:space="preserve" text-anchor="middle" x="154.02" y="-146.5" font-family="Arial" font-size="10.00" fill="#8b2418"> estado </text>
</g>
<!-- n6 -->
<g id="node6" class="node">
<title>n6</title>
<path fill="#5a6b3b" stroke="#1a1612" stroke-width="1.5" d="M97.29,-36C97.29,-36 12,-36 12,-36 6,-36 0,-30 0,-24 0,-24 0,-12 0,-12 0,-6 6,0 12,0 12,0 97.29,0 97.29,0 103.29,0 109.29,-6 109.29,-12 109.29,-12 109.29,-24 109.29,-24 109.29,-30 103.29,-36 97.29,-36"/>
<text xml:space="preserve" text-anchor="middle" x="54.64" y="-14.3" font-family="Arial" font-size="11.00" fill="#fbf6eb">6 &#160;&#160;DrawImage #1</text>
</g>
<!-- n5&#45;&gt;n6 -->
<g id="edge7" class="edge">
<title>n5&#45;&gt;n6</title>
<path fill="none" stroke="#8b2418" stroke-width="2" d="M125.63,-87.6C113.17,-75.55 96.35,-59.3 82.21,-45.63"/>
<polygon fill="#8b2418" stroke="#8b2418" stroke-width="2" points="84.73,-43.21 75.11,-38.78 79.87,-48.24 84.73,-43.21"/>
<text xml:space="preserve" text-anchor="middle" x="115.72" y="-58.5" font-family="Arial" font-size="10.00" fill="#8b2418"> true </text>
</g>
<!-- n7 -->
<g id="node7" class="node">
<title>n7</title>
<path fill="#5a6b3b" stroke="#1a1612" stroke-width="1.5" d="M275.29,-36C275.29,-36 190,-36 190,-36 184,-36 178,-30 178,-24 178,-24 178,-12 178,-12 178,-6 184,0 190,0 190,0 275.29,0 275.29,0 281.29,0 287.29,-6 287.29,-12 287.29,-12 287.29,-24 287.29,-24 287.29,-30 281.29,-36 275.29,-36"/>
<text xml:space="preserve" text-anchor="middle" x="232.64" y="-14.3" font-family="Arial" font-size="11.00" fill="#fbf6eb">7 &#160;&#160;DrawImage #1</text>
</g>
<!-- n5&#45;&gt;n7 -->
<g id="edge8" class="edge">
<title>n5&#45;&gt;n7</title>
<path fill="none" stroke="#8b2418" stroke-width="2" d="M161.66,-87.6C174.12,-75.55 190.94,-59.3 205.08,-45.63"/>
<polygon fill="#8b2418" stroke="#8b2418" stroke-width="2" points="207.42,-48.24 212.18,-38.78 202.56,-43.21 207.42,-48.24"/>
<text xml:space="preserve" text-anchor="middle" x="206.97" y="-58.5" font-family="Arial" font-size="10.00" fill="#8b2418"> false </text>
</g>
<!-- n6&#45;&gt;n7 -->
<g id="edge9" class="edge">
<title>n6&#45;&gt;n7</title>
<path fill="none" stroke="#5a6b3b" stroke-width="1.3" stroke-dasharray="5,2" d="M109.99,-18C127.57,-18 147.21,-18 165.52,-18"/>
<polygon fill="#5a6b3b" stroke="#5a6b3b" stroke-width="1.3" points="165.37,-21.5 175.37,-18 165.37,-14.5 165.37,-21.5"/>
<text xml:space="preserve" text-anchor="middle" x="143.64" y="-23.5" font-family="Arial" font-size="10.00" fill="#5a6b3b"> display </text>
</g>
</g>
</svg>
