<?xml version="1.0" encoding="UTF-8" standalone="no"?>
<!DOCTYPE svg PUBLIC "-//W3C//DTD SVG 1.1//EN"
 "http://www.w3.org/Graphics/SVG/1.1/DTD/svg11.dtd">
<!-- Generated by graphviz version 14.1.2 (0)
 -->
<!-- Title: PDG_Protobject Pages: 1 -->
<svg width="475pt" height="420pt"
 viewBox="0.00 0.00 475.00 420.00" xmlns="http://www.w3.org/2000/svg" xmlns:xlink="http://www.w3.org/1999/xlink">
<g id="graph0" class="graph" transform="scale(1 1) rotate(0) translate(21.6 398.6)">
<title>PDG_Protobject</title>
<polygon fill="#fbf6eb" stroke="none" points="-21.6,21.6 -21.6,-398.6 453.64,-398.6 453.64,21.6 -21.6,21.6"/>
<!-- n1 -->
<g id="node1" class="node">
<title>n1</title>
<path fill="#34495e" stroke="#1a1612" stroke-width="1.5" d="M281.79,-377C281.79,-377 174.75,-377 174.75,-377 168.75,-377 162.75,-371 162.75,-365 162.75,-365 162.75,-353 162.75,-353 162.75,-347 168.75,-341 174.75,-341 174.75,-341 281.79,-341 281.79,-341 287.79,-341 293.79,-347 293.79,-353 293.79,-353 293.79,-365 293.79,-365 293.79,-371 287.79,-377 281.79,-377"/>
<text xml:space="preserve" text-anchor="middle" x="228.27" y="-355.3" font-family="Arial" font-size="11.00" fill="#fbf6eb">1 &#160;&#160;ProgramStartEvent</text>
</g>
<!-- n2 -->
<g id="node2" class="node">
<title>n2</title>
<path fill="#8b2418" stroke="#1a1612" stroke-width="1.5" d="M263.04,-300C263.04,-300 193.5,-300 193.5,-300 187.5,-300 181.5,-294 181.5,-288 181.5,-288 181.5,-276 181.5,-276 181.5,-270 187.5,-264 193.5,-264 193.5,-264 263.04,-264 263.04,-264 269.04,-264 275.04,-270 275.04,-276 275.04,-276 275.04,-288 275.04,-288 275.04,-294 269.04,-300 263.04,-300"/>
<text xml:space="preserve" text-anchor="middle" x="228.27" y="-278.3" font-family="Arial" font-size="11.00" fill="#fbf6eb">2 &#160;&#160;SetVariable</text>
</g>
<!-- n1&#45;&gt;n2 -->
<g id="edge1" class="edge">
<title>n1&#45;&gt;n2</title>
<path fill="none" stroke="#8b2418" stroke-width="2" d="M228.27,-340.6C228.27,-332.52 228.27,-322.67 228.27,-313.42"/>
<polygon fill="#8b2418" stroke="#8b2418" stroke-width="2" points="231.77,-313.59 228.27,-303.59 224.77,-313.59 231.77,-313.59"/>
</g>
<!-- n3 -->
<g id="node3" class="node">
<title>n3</title>
<path fill="#fbf6eb" stroke="#1a1612" stroke-width="1.5" d="M420.04,-212C420.04,-212 290.5,-212 290.5,-212 284.5,-212 278.5,-206 278.5,-200 278.5,-200 278.5,-188 278.5,-188 278.5,-182 284.5,-176 290.5,-176 290.5,-176 420.04,-176 420.04,-176 426.04,-176 432.04,-182 432.04,-188 432.04,-188 432.04,-200 432.04,-200 432.04,-206 426.04,-212 420.04,-212"/>
<text xml:space="preserve" text-anchor="middle" x="355.27" y="-190.3" font-family="Arial" font-size="11.00" fill="#1a1612">3 &#160;&#160;SetBackgroundColor #1</text>
</g>
<!-- n2&#45;&gt;n3 -->
<g id="edge2" class="edge">
<title>n2&#45;&gt;n3</title>
<path fill="none" stroke="#8b2418" stroke-width="2" d="M254.28,-263.39C272.85,-250.81 298.1,-233.71 318.7,-219.76"/>
<polygon fill="#8b2418" stroke="#8b2418" stroke-width="2" points="320.47,-222.79 326.79,-214.28 316.55,-216.99 320.47,-222.79"/>
</g>
<!-- n5 -->
<g id="node5" class="node">
<title>n5</title>
<path fill="#8b2418" stroke="#1a1612" stroke-width="1.5" d="M135.54,-212C135.54,-212 51,-212 51,-212 45,-212 39,-206 39,-200 39,-200 39,-188 39,-188 39,-182 45,-176 51,-176 51,-176 135.54,-176 135.54,-176 141.54,-176 147.54,-182 147.54,-188 147.54,-188 147.54,-200 147.54,-200 147.54,-206 141.54,-212 135.54,-212"/>
<text xml:space="preserve" text-anchor="middle" x="93.27" y="-190.3" font-family="Arial" font-size="11.00" fill="#fbf6eb">5 &#160;&#160;ToggleVariable</text>
</g>
<!-- n2&#45;&gt;n5 -->
<g id="edge3" class="edge">
<title>n2&#45;&gt;n5</title>
<path fill="none" stroke="#4a3f33" stroke-width="1.3" d="M186.32,-263.31C174.56,-257.71 162,-251.12 151.02,-244 140.43,-237.13 129.66,-228.53 120.34,-220.45"/>
<polygon fill="#4a3f33" stroke="#4a3f33" stroke-width="1.3" points="122.82,-217.98 113.02,-213.94 118.17,-223.2 122.82,-217.98"/>
<text xml:space="preserve" text-anchor="middle" x="168.64" y="-234.5" font-family="Arial" font-size="10.00" fill="#8b2418"> estado </text>
</g>
<!-- n6 -->
<g id="node6" class="node">
<title>n6</title>
<path fill="#b8843a" stroke="#1a1612" stroke-width="1.5" d="M198.54,-124C198.54,-124 96,-124 96,-124 90,-124 84,-118 84,-112 84,-112 84,-100 84,-100 84,-94 90,-88 96,-88 96,-88 198.54,-88 198.54,-88 204.54,-88 210.54,-94 210.54,-100 210.54,-100 210.54,-112 210.54,-112 210.54,-118 204.54,-124 198.54,-124"/>
<text xml:space="preserve" text-anchor="middle" x="147.27" y="-102.3" font-family="Arial" font-size="11.00" fill="#fbf6eb">6 &#160;&#160;ConditionalBranch</text>
</g>
<!-- n2&#45;&gt;n6 -->
<g id="edge4" class="edge">
<title>n2&#45;&gt;n6</title>
<path fill="none" stroke="#4a3f33" stroke-width="1.3" d="M220.71,-263.57C209.3,-237.42 186.81,-186.56 166.27,-144 164.88,-141.11 163.39,-138.11 161.9,-135.13"/>
<polygon fill="#4a3f33" stroke="#4a3f33" stroke-width="1.3" points="165.09,-133.68 157.43,-126.36 158.85,-136.85 165.09,-133.68"/>
<text xml:space="preserve" text-anchor="middle" x="214.71" y="-190.5" font-family="Arial" font-size="10.00" fill="#8b2418"> estado </text>
</g>
<!-- n7 -->
<g id="node7" class="node">
<title>n7</title>
<path fill="#5a6b3b" stroke="#1a1612" stroke-width="1.5" d="M279.91,-36C279.91,-36 194.62,-36 194.62,-36 188.62,-36 182.62,-30 182.62,-24 182.62,-24 182.62,-12 182.62,-12 182.62,-6 188.62,0 194.62,0 194.62,0 279.91,0 279.91,0 285.91,0 291.91,-6 291.91,-12 291.91,-12 291.91,-24 291.91,-24 291.91,-30 285.91,-36 279.91,-36"/>
<text xml:space="preserve" text-anchor="middle" x="237.27" y="-14.3" font-family="Arial" font-size="11.00" fill="#fbf6eb">7 &#160;&#160;DrawImage #1</text>
</g>
<!-- n3&#45;&gt;n7 -->
<g id="edge5" class="edge">
<title>n3&#45;&gt;n7</title>
<path fill="none" stroke="#5a6b3b" stroke-width="1.3" stroke-dasharray="5,2" d="M277.98,-181.49C206.63,-170.84 111.35,-156.57 109.27,-156 73.25,-146.04 52.32,-155.05 31.52,-124 22.62,-110.71 23.4,-101.79 31.52,-88 46.06,-63.31 115.95,-43.61 170.28,-31.67"/>
<polygon fill="#5a6b3b" stroke="#5a6b3b" stroke-width="1.3" points="170.99,-35.1 180.04,-29.59 169.53,-28.26 170.99,-35.1"/>
<text xml:space="preserve" text-anchor="middle" x="49.89" y="-102.5" font-family="Arial" font-size="10.00" fill="#5a6b3b"> display </text>
</g>
<!-- n4 -->
<g id="node4" class="node">
<title>n4</title>
<path fill="#34495e" stroke="#1a1612" stroke-width="1.5" d="M137.29,-300C137.29,-300 15.25,-300 15.25,-300 9.25,-300 3.25,-294 3.25,-288 3.25,-288 3.25,-276 3.25,-276 3.25,-270 9.25,-264 15.25,-264 15.25,-264 137.29,-264 137.29,-264 143.29,-264 149.29,-270 149.29,-276 149.29,-276 149.29,-288 149.29,-288 149.29,-294 143.29,-300 137.29,-300"/>
<text xml:space="preserve" text-anchor="middle" x="76.27" y="-278.3" font-family="Arial" font-size="11.00" fill="#fbf6eb">4 &#160;&#160;SuddenNoiseEvent #1</text>
</g>
<!-- n4&#45;&gt;n5 -->
<g id="edge6" class="edge">
<title>n4&#45;&gt;n5</title>
<path fill="none" stroke="#8b2418" stroke-width="2" d="M79.71,-263.6C81.88,-252.6 84.75,-238.08 87.29,-225.24"/>
<polygon fill="#8b2418" stroke="#8b2418" stroke-width="2" points="90.68,-226.13 89.19,-215.64 83.82,-224.77 90.68,-226.13"/>
</g>
<!-- n5&#45;&gt;n6 -->
<g id="edge7" class="edge">
<title>n5&#45;&gt;n6</title>
<path fill="none" stroke="#8b2418" stroke-width="2" d="M99.17,-175.54C102.83,-165.86 108.01,-153.84 114.27,-144 116.37,-140.69 118.77,-137.39 121.3,-134.2"/>
<polygon fill="#8b2418" stroke="#8b2418" stroke-width="2" points="123.78,-136.68 127.6,-126.8 118.45,-132.14 123.78,-136.68"/>
</g>
<!-- n5&#45;&gt;n6 -->
<g id="edge8" class="edge">
<title>n5&#45;&gt;n6</title>
<path fill="none" stroke="#4a3f33" stroke-width="1.3" d="M104.2,-175.6C111.61,-163.78 121.57,-147.92 130.05,-134.43"/>
<polygon fill="#4a3f33" stroke="#4a3f33" stroke-width="1.3" points="132.77,-136.67 135.13,-126.34 126.85,-132.95 132.77,-136.67"/>
<text xml:space="preserve" text-anchor="middle" x="141.13" y="-146.5" font-family="Arial" font-size="10.00" fill="#8b2418"> estado </text>
</g>
<!-- n6&#45;&gt;n7 -->
<g id="edge9" class="edge">
<title>n6&#45;&gt;n7</title>
<path fill="none" stroke="#8b2418" stroke-width="2" d="M165.48,-87.6C178.09,-75.55 195.1,-59.3 209.4,-45.63"/>
<polygon fill="#8b2418" stroke="#8b2418" stroke-width="2" points="211.77,-48.2 216.59,-38.76 206.94,-43.14 211.77,-48.2"/>
<text xml:space="preserve" text-anchor="middle" x="208.91" y="-58.5" font-family="Arial" font-size="10.00" fill="#8b2418"> true </text>
</g>
<!-- n8 -->
<g id="node8" class="node">
<title>n8</title>
<path fill="#fbf6eb" stroke="#1a1612" stroke-width="1.5" d="M102.54,-36C102.54,-36 12,-36 12,-36 6,-36 0,-30 0,-24 0,-24 0,-12 0,-12 0,-6 6,0 12,0 12,0 102.54,0 102.54,0 108.54,0 114.54,-6 114.54,-12 114.54,-12 114.54,-24 114.54,-24 114.54,-30 108.54,-36 102.54,-36"/>
<text xml:space="preserve" text-anchor="middle" x="57.27" y="-14.3" font-family="Arial" font-size="11.00" fill="#1a1612">8 &#160;&#160;ClearDisplay #1</text>
</g>
<!-- n6&#45;&gt;n8 -->
<g id="edge10" class="edge">
<title>n6&#45;&gt;n8</title>
<path fill="none" stroke="#8b2418" stroke-width="2" d="M129.06,-87.6C116.45,-75.55 99.44,-59.3 85.14,-45.63"/>
<polygon fill="#8b2418" stroke="#8b2418" stroke-width="2" points="87.6,-43.14 77.95,-38.76 82.77,-48.2 87.6,-43.14"/>
<text xml:space="preserve" text-anchor="middle" x="121.16" y="-58.5" font-family="Arial" font-size="10.00" fill="#8b2418"> false </text>
</g>
<!-- n7&#45;&gt;n8 -->
<g id="edge11" class="edge">
<title>n7&#45;&gt;n8</title>
<path fill="none" stroke="#5a6b3b" stroke-width="1.3" stroke-dasharray="5,2" d="M181.89,-18C164.54,-18 145.17,-18 126.97,-18"/>
<polygon fill="#5a6b3b" stroke="#5a6b3b" stroke-width="1.3" points="127.18,-14.5 117.18,-18 127.18,-21.5 127.18,-14.5"/>
<text xml:space="preserve" text-anchor="middle" x="148.58" y="-23.5" font-family="Arial" font-size="10.00" fill="#5a6b3b"> display </text>
</g>
</g>
</svg>
