<svg xmlns="http://www.w3.org/2000/svg" width="1280" height="720" xmlns:v="https://vecta.io/nano"><defs><clipPath ><path d="M0 0h708.12v398.41H0z" fill="none" stroke-width="0"/></clipPath><clipPath ><path d="M257.36 60.62h193.41v261.64H257.36z" fill="none" stroke-width="0"/></clipPath><linearGradient x1="1316.56" y1="988.24" x2="1317.63" y2="988.24" gradientUnits="userSpaceOnUse" gradientTransform="matrix(0,763.16994,762.53236,0,-752924.4,-1004797.3)" spreadMethod="pad" id="C"><stop offset="0" stop-color="#7c2869"/><stop offset="1" stop-color="#c3598c"/></linearGradient><clipPath id="D"><path d="M0 0h532v299H0z"/></clipPath><clipPath id="E"><path d="M0 0h532v299H0z"/></clipPath><clipPath id="F"><path d="M0 0h532v299H0z"/></clipPath><clipPath id="G"><path d="M0 0h532v299H0z"/></clipPath></defs><path d="M0 0h1280v720H0z" clip-path="none" fill="url(#C)"/><path d="M230.198 642.397c-155.96-156.088-155.96-409.167 0-565.265m817.434 0c155.958 156.098 155.958 409.177 0 565.265m-749.024-68.458c-118.195-118.294-118.176-310.062 0-428.357m680.631.019c118.195 118.294 118.176 310.062 0 428.357m-612.218-68.47c-80.414-80.481-80.414-210.948 0-291.419m543.807-.017c80.411 80.471 80.411 210.936 0 291.417" clip-path="none" fill="none" stroke="#ff7b54" stroke-width="25.202" stroke-miterlimit="10"/><g transform="scale(2.40601513984962 2.4080268731326604)" clip-path="none"><path d="M198.066 194.438c0 26.101 30.219 47.257 67.485 47.257s67.488-21.156 67.488-47.257v-16.762H198.066z" clip-path="url(#D)" fill="#33c2ff"/><path d="M333.039 177.676c0 26.097-30.219 47.258-67.488 47.258s-67.485-21.161-67.485-47.258 30.219-47.258 67.485-47.258 67.488 21.156 67.488 47.258" clip-path="url(#E)" fill="#1f5c94"/><path d="M206.781 174.594c0 22.73 26.313 41.152 58.77 41.152s58.765-18.43 58.765-41.152v-19.563H206.781z" clip-path="url(#F)" fill="#ffc93d"/><path d="M324.316 155.031c0 22.735-26.312 41.153-58.769 41.153s-58.766-18.426-58.766-41.153 26.313-41.152 58.766-41.152 58.769 18.43 58.769 41.152" clip-path="url(#G)" fill="#ff7a54"/></g></svg>