<svg xmlns="http://www.w3.org/2000/svg" width="1280" height="720" xmlns:v="https://vecta.io/nano"><style><![CDATA[#B{animation-name:example;animation-duration:4s;animation-iteration-count:infinite}@keyframes example{0%{transform:translateY(0px)}35%{transform:translateY(0px)}45%{transform:translateY(-160px)}75%{transform:translateY(-160px)}85%{transform:translateY(0px)}100%{transform:translateY(0px)}}.B{clip-path:none}]]></style><defs><linearGradient id="A" gradientTransform="matrix(0,910.08834,909.32813,0,-897990.53,-1198231.4)" x1="1317.442" y1="988.242" x2="1316.696" y2="988.242" gradientUnits="userSpaceOnUse" spreadMethod="pad"><stop offset="0" stop-color="#f6a227"/><stop offset="1" stop-color="#ffc93c"/></linearGradient></defs><g id="B"><path d="M584.087 278.067v321.321h118.271V278.067z" fill="#fff" class="B"/><path d="M702.348 463.441H584.097v163.553l118.252.01zm-71.681 43.448h25.129v96.657H643.5v-85.558h-12.834v-11.099z" fill="#1ead28" class="B"/><path d="M584.07 278.067v157.766h118.252V278.067zm59.203 23.464l4.472.203a38.303 38.303 0 0 1 4.125.608 31.912 31.912 0 0 1 3.78 1.016 27.249 27.249 0 0 1 3.431 1.417 24.51 24.51 0 0 1 3.086 1.821 23.45 23.45 0 0 1 2.739 2.229 23.874 23.874 0 0 1 2.392 2.634 26.164 26.164 0 0 1 2.045 3.04l1.754 3.368 1.52 3.685 1.288 4.001 1.051 4.32.82 4.638.584 4.954.352 5.273.117 5.59-.117 5.686-.352 5.359-.584 5.034-.819 4.709-1.051 4.381-1.288 4.057-1.52 3.729-1.754 3.405a26.164 26.164 0 0 1-2.045 3.04 23.981 23.981 0 0 1-2.392 2.634 23.326 23.326 0 0 1-2.739 2.229c-.971.675-2 1.283-3.086 1.823a27.07 27.07 0 0 1-3.431 1.417c-1.202.404-2.463.743-3.78 1.014a38.458 38.458 0 0 1-4.125.611l-4.472.203c-1.56 0-3.061-.068-4.504-.203a38.959 38.959 0 0 1-4.15-.611 32.043 32.043 0 0 1-3.805-1.014 27.368 27.368 0 0 1-3.448-1.416 24.59 24.59 0 0 1-3.103-1.823 23.349 23.349 0 0 1-2.751-2.229c-.859-.811-1.656-1.689-2.397-2.634a26.03 26.03 0 0 1-2.048-3.04l-1.754-3.405-1.52-3.729-1.288-4.057-1.055-4.381-.818-4.709-.584-5.034-.352-5.359-.117-5.686.117-5.589.352-5.273.584-4.954.818-4.638 1.055-4.32 1.288-4.001 1.52-3.685 1.754-3.368a26.03 26.03 0 0 1 2.048-3.04 23.838 23.838 0 0 1 2.397-2.634 23.409 23.409 0 0 1 2.751-2.229 24.578 24.578 0 0 1 3.103-1.821c1.091-.54 2.24-1.012 3.448-1.416a32.186 32.186 0 0 1 3.805-1.016c1.326-.27 2.707-.473 4.15-.608zm0 11.096l-2.206.077-2.073.233-1.938.384-1.805.543a16.802 16.802 0 0 0-1.67.694c-.534.258-1.047.541-1.537.85a14.549 14.549 0 0 0-1.405 1.004 14.406 14.406 0 0 0-1.269 1.16 21.394 21.394 0 0 0-2.148 2.674 23.612 23.612 0 0 0-1.765 3.074 27.642 27.642 0 0 0-1.376 3.475c-.397 1.226-.727 2.519-.995 3.878l-.643 4.237-.462 4.689-.274 5.141-.091 5.588.091 5.774.274 5.29.462 4.802.643 4.318a33.629 33.629 0 0 0 .995 3.878c.397 1.226.853 2.384 1.376 3.475a23.612 23.612 0 0 0 1.765 3.074 21.441 21.441 0 0 0 2.148 2.674 14.453 14.453 0 0 0 1.269 1.16 14.728 14.728 0 0 0 1.405 1.004 15.562 15.562 0 0 0 1.537.853 16.874 16.874 0 0 0 1.67.696 19.068 19.068 0 0 0 1.805.538l1.938.386 2.073.233 2.206.076 2.173-.076 2.038-.233 1.906-.386 1.772-.538a16.385 16.385 0 0 0 1.637-.696 14.99 14.99 0 0 0 1.505-.853 13.917 13.917 0 0 0 1.369-1.004 14.191 14.191 0 0 0 1.237-1.16l1.151-1.286 1.046-1.388a22.443 22.443 0 0 0 1.779-3.074c.524-1.091.978-2.249 1.363-3.475a32.079 32.079 0 0 0 .943-3.878l.701-4.318.503-4.802.303-5.29.098-5.774-.098-5.588-.303-5.141-.503-4.689-.701-4.237c-.243-1.359-.559-2.652-.943-3.878a25.961 25.961 0 0 0-1.363-3.475 22.57 22.57 0 0 0-1.779-3.074l-1.046-1.388-1.151-1.286a14.37 14.37 0 0 0-1.237-1.16 13.94 13.94 0 0 0-1.369-1.004 15.014 15.014 0 0 0-1.505-.85 16.373 16.373 0 0 0-1.637-.694l-1.772-.543-1.906-.384-2.038-.233z" fill="#ff7a54" class="B"/><path d="M584.095 434.098h118.263v29.343H584.095z" fill="#34c3ff" class="B"/></g><path d="M702.358 278.067V463.44H584.086V278.067h118.272m34.34-34.367H549.715v254.085h186.981z" fill="#1e5c93" class="B"/><path d="M0 0v720h1280V0H0zm441.703 126.809h403.008v467.574H441.703V126.809z" fill="url(#A)" class="B"/><path d="M441.702 126.809v474.729H844.71V126.809zm108.013 116.892h186.982v254.083H549.715z" fill="#7c2869" class="B"/></svg>