<?xml version="1.0" encoding="UTF-8" standalone="no"?>
<!DOCTYPE svg PUBLIC "-//W3C//DTD SVG 1.1//EN"
 "http://www.w3.org/Graphics/SVG/1.1/DTD/svg11.dtd">
<!-- Generated by graphviz version 14.1.2 (0)
 -->
<!-- Title: PDG_Protobject Pages: 1 -->
<svg width="1054pt" height="733pt"
 viewBox="0.00 0.00 1054.00 733.00" xmlns="http://www.w3.org/2000/svg" xmlns:xlink="http://www.w3.org/1999/xlink">
<g id="graph0" class="graph" transform="scale(1 1) rotate(0) translate(21.6 711.6)">
<title>PDG_Protobject</title>
<polygon fill="#fbf6eb" stroke="none" points="-21.6,21.6 -21.6,-711.6 1032.1,-711.6 1032.1,21.6 -21.6,21.6"/>
<g id="clust1" class="cluster">
<title>cluster_loop</title>
<path fill="#fbf6eb" stroke="#8b2418" stroke-width="1.8" stroke-dasharray="5,2" d="M32,-8C32,-8 265,-8 265,-8 271,-8 277,-14 277,-20 277,-20 277,-261 277,-261 277,-267 271,-273 265,-273 265,-273 32,-273 32,-273 26,-273 20,-267 20,-261 20,-261 20,-20 20,-20 20,-14 26,-8 32,-8"/>
<text xml:space="preserve" text-anchor="start" x="53.88" y="-259.55" font-family="Arial" font-weight="bold" font-size="11.00">loop</text>
<text xml:space="preserve" text-anchor="start" x="28" y="-250.45" font-family="Arial" font-size="9.00" fill="#8b2418">alcance de control</text>
</g>
<!-- n1 -->
<g id="node1" class="node">
<title>n1</title>
<path fill="#34495e" stroke="#1a1612" stroke-width="1.5" d="M487.52,-690C487.52,-690 380.48,-690 380.48,-690 374.48,-690 368.48,-684 368.48,-678 368.48,-678 368.48,-666 368.48,-666 368.48,-660 374.48,-654 380.48,-654 380.48,-654 487.52,-654 487.52,-654 493.52,-654 499.52,-660 499.52,-666 499.52,-666 499.52,-678 499.52,-678 499.52,-684 493.52,-690 487.52,-690"/>
<text xml:space="preserve" text-anchor="middle" x="434" y="-668.3" font-family="Arial" font-size="11.00" fill="#fbf6eb">1 &#160;&#160;ProgramStartEvent</text>
</g>
<!-- n2 -->
<g id="node2" class="node">
<title>n2</title>
<path fill="#8b2418" stroke="#1a1612" stroke-width="1.5" d="M468.77,-613C468.77,-613 399.23,-613 399.23,-613 393.23,-613 387.23,-607 387.23,-601 387.23,-601 387.23,-589 387.23,-589 387.23,-583 393.23,-577 399.23,-577 399.23,-577 468.77,-577 468.77,-577 474.77,-577 480.77,-583 480.77,-589 480.77,-589 480.77,-601 480.77,-601 480.77,-607 474.77,-613 468.77,-613"/>
<text xml:space="preserve" text-anchor="middle" x="434" y="-591.3" font-family="Arial" font-size="11.00" fill="#fbf6eb">2 &#160;&#160;SetVariable</text>
</g>
<!-- n1&#45;&gt;n2 -->
<g id="edge1" class="edge">
<title>n1&#45;&gt;n2</title>
<path fill="none" stroke="#8b2418" stroke-width="2" d="M434,-653.6C434,-645.52 434,-635.67 434,-626.42"/>
<polygon fill="#8b2418" stroke="#8b2418" stroke-width="2" points="437.5,-626.59 434,-616.59 430.5,-626.59 437.5,-626.59"/>
</g>
<!-- n4 -->
<g id="node4" class="node">
<title>n4</title>
<path fill="#b8843a" stroke="#1a1612" stroke-width="1.5" d="M555.27,-525C555.27,-525 452.73,-525 452.73,-525 446.73,-525 440.73,-519 440.73,-513 440.73,-513 440.73,-501 440.73,-501 440.73,-495 446.73,-489 452.73,-489 452.73,-489 555.27,-489 555.27,-489 561.27,-489 567.27,-495 567.27,-501 567.27,-501 567.27,-513 567.27,-513 567.27,-519 561.27,-525 555.27,-525"/>
<text xml:space="preserve" text-anchor="middle" x="504" y="-503.3" font-family="Arial" font-size="11.00" fill="#fbf6eb">4 &#160;&#160;ConditionalBranch</text>
</g>
<!-- n2&#45;&gt;n4 -->
<g id="edge2" class="edge">
<title>n2&#45;&gt;n4</title>
<path fill="none" stroke="#4a3f33" stroke-width="1.3" d="M448.17,-576.6C457.97,-564.55 471.2,-548.3 482.32,-534.63"/>
<polygon fill="#4a3f33" stroke="#4a3f33" stroke-width="1.3" points="484.77,-537.16 488.37,-527.2 479.35,-532.74 484.77,-537.16"/>
<text xml:space="preserve" text-anchor="middle" x="494.57" y="-547.5" font-family="Arial" font-size="10.00" fill="#8b2418"> pausado </text>
</g>
<!-- n3 -->
<g id="node3" class="node">
<title>n3</title>
<path fill="#fbf6eb" stroke="#1a1612" stroke-width="1.5" d="M624.77,-613C624.77,-613 525.23,-613 525.23,-613 519.23,-613 513.23,-607 513.23,-601 513.23,-601 513.23,-589 513.23,-589 513.23,-583 519.23,-577 525.23,-577 525.23,-577 624.77,-577 624.77,-577 630.77,-577 636.77,-583 636.77,-589 636.77,-589 636.77,-601 636.77,-601 636.77,-607 630.77,-613 624.77,-613"/>
<text xml:space="preserve" text-anchor="middle" x="575" y="-591.3" font-family="Arial" font-size="11.00" fill="#1a1612">3 &#160;&#160;OnTouchEvent #1</text>
</g>
<!-- n3&#45;&gt;n4 -->
<g id="edge3" class="edge">
<title>n3&#45;&gt;n4</title>
<path fill="none" stroke="#8b2418" stroke-width="2" d="M560.63,-576.6C550.88,-564.78 537.78,-548.92 526.64,-535.43"/>
<polygon fill="#8b2418" stroke="#8b2418" stroke-width="2" points="529.58,-533.49 520.52,-528.01 524.18,-537.95 529.58,-533.49"/>
</g>
<!-- n5 -->
<g id="node5" class="node">
<title>n5</title>
<path fill="#8b2418" stroke="#1a1612" stroke-width="1.5" d="M442.77,-437C442.77,-437 373.23,-437 373.23,-437 367.23,-437 361.23,-431 361.23,-425 361.23,-425 361.23,-413 361.23,-413 361.23,-407 367.23,-401 373.23,-401 373.23,-401 442.77,-401 442.77,-401 448.77,-401 454.77,-407 454.77,-413 454.77,-413 454.77,-425 454.77,-425 454.77,-431 448.77,-437 442.77,-437"/>
<text xml:space="preserve" text-anchor="middle" x="408" y="-415.3" font-family="Arial" font-size="11.00" fill="#fbf6eb">5 &#160;&#160;SetVariable</text>
</g>
<!-- n4&#45;&gt;n5 -->
<g id="edge4" class="edge">
<title>n4&#45;&gt;n5</title>
<path fill="none" stroke="#8b2418" stroke-width="2" d="M480.32,-488.52C472.56,-482.53 464,-475.66 456.5,-469 448.57,-461.96 440.32,-453.92 432.92,-446.42"/>
<polygon fill="#8b2418" stroke="#8b2418" stroke-width="2" points="435.68,-444.24 426.2,-439.5 430.66,-449.11 435.68,-444.24"/>
<text xml:space="preserve" text-anchor="middle" x="467.75" y="-459.5" font-family="Arial" font-size="10.00" fill="#8b2418"> true </text>
</g>
<!-- n7 -->
<g id="node7" class="node">
<title>n7</title>
<path fill="#8b2418" stroke="#1a1612" stroke-width="1.5" d="M239.77,-349C239.77,-349 170.23,-349 170.23,-349 164.23,-349 158.23,-343 158.23,-337 158.23,-337 158.23,-325 158.23,-325 158.23,-319 164.23,-313 170.23,-313 170.23,-313 239.77,-313 239.77,-313 245.77,-313 251.77,-319 251.77,-325 251.77,-325 251.77,-337 251.77,-337 251.77,-343 245.77,-349 239.77,-349"/>
<text xml:space="preserve" text-anchor="middle" x="205" y="-327.3" font-family="Arial" font-size="11.00" fill="#fbf6eb">7 &#160;&#160;SetVariable</text>
</g>
<!-- n4&#45;&gt;n7 -->
<g id="edge5" class="edge">
<title>n4&#45;&gt;n7</title>
<path fill="none" stroke="#8b2418" stroke-width="2" d="M440.05,-501.17C382.39,-495.84 302.68,-485.71 276,-469 238.28,-445.38 219.62,-394.73 211.16,-362.07"/>
<polygon fill="#8b2418" stroke="#8b2418" stroke-width="2" points="214.64,-361.58 208.93,-352.66 207.83,-363.2 214.64,-361.58"/>
<text xml:space="preserve" text-anchor="middle" x="253.54" y="-415.5" font-family="Arial" font-size="10.00" fill="#8b2418"> true </text>
</g>
<!-- n8 -->
<g id="node8" class="node">
<title>n8</title>
<path fill="#fbf6eb" stroke="#1a1612" stroke-width="1.5" d="M388.77,-227C388.77,-227 307.23,-227 307.23,-227 301.23,-227 295.23,-221 295.23,-215 295.23,-215 295.23,-203 295.23,-203 295.23,-197 301.23,-191 307.23,-191 307.23,-191 388.77,-191 388.77,-191 394.77,-191 400.77,-197 400.77,-203 400.77,-203 400.77,-215 400.77,-215 400.77,-221 394.77,-227 388.77,-227"/>
<text xml:space="preserve" text-anchor="middle" x="348" y="-205.3" font-family="Arial" font-size="11.00" fill="#1a1612">8 &#160;&#160;PlaySound #1</text>
</g>
<!-- n4&#45;&gt;n8 -->
<g id="edge6" class="edge">
<title>n4&#45;&gt;n8</title>
<path fill="none" stroke="#8b2418" stroke-width="2" d="M440.35,-495.65C405.88,-486.45 366.13,-469.2 345,-437 305.35,-376.57 324.05,-286.22 337.84,-239.84"/>
<polygon fill="#8b2418" stroke="#8b2418" stroke-width="2" points="341.17,-240.93 340.82,-230.34 334.49,-238.84 341.17,-240.93"/>
<text xml:space="preserve" text-anchor="middle" x="335.31" y="-371.5" font-family="Arial" font-size="10.00" fill="#8b2418"> true </text>
</g>
<!-- n12 -->
<g id="node9" class="node">
<title>n12</title>
<path fill="#fbf6eb" stroke="#1a1612" stroke-width="1.5" d="M652.77,-437C652.77,-437 565.23,-437 565.23,-437 559.23,-437 553.23,-431 553.23,-425 553.23,-425 553.23,-413 553.23,-413 553.23,-407 559.23,-401 565.23,-401 565.23,-401 652.77,-401 652.77,-401 658.77,-401 664.77,-407 664.77,-413 664.77,-413 664.77,-425 664.77,-425 664.77,-431 658.77,-437 652.77,-437"/>
<text xml:space="preserve" text-anchor="middle" x="609" y="-415.3" font-family="Arial" font-size="11.00" fill="#1a1612">12 &#160;&#160;PlaySound #1</text>
</g>
<!-- n4&#45;&gt;n12 -->
<g id="edge9" class="edge">
<title>n4&#45;&gt;n12</title>
<path fill="none" stroke="#8b2418" stroke-width="2" d="M525.5,-488.39C540.51,-476.1 560.78,-459.5 577.59,-445.73"/>
<polygon fill="#8b2418" stroke="#8b2418" stroke-width="2" points="579.67,-448.55 585.19,-439.51 575.23,-443.13 579.67,-448.55"/>
<text xml:space="preserve" text-anchor="middle" x="574.04" y="-459.5" font-family="Arial" font-size="10.00" fill="#8b2418"> true </text>
</g>
<!-- n13 -->
<g id="node10" class="node">
<title>n13</title>
<path fill="#4a3f33" stroke="#1a1612" stroke-width="1.5" d="M741.89,-349C741.89,-349 694.11,-349 694.11,-349 688.11,-349 682.11,-343 682.11,-337 682.11,-337 682.11,-325 682.11,-325 682.11,-319 688.11,-313 694.11,-313 694.11,-313 741.89,-313 741.89,-313 747.89,-313 753.89,-319 753.89,-325 753.89,-325 753.89,-337 753.89,-337 753.89,-343 747.89,-349 741.89,-349"/>
<text xml:space="preserve" text-anchor="middle" x="718" y="-327.3" font-family="Arial" font-size="11.00" fill="#fbf6eb">13 &#160;&#160;Delay</text>
</g>
<!-- n4&#45;&gt;n13 -->
<g id="edge10" class="edge">
<title>n4&#45;&gt;n13</title>
<path fill="none" stroke="#8b2418" stroke-width="2" d="M567.9,-494.92C605.31,-485.39 650.96,-468.05 681,-437 700.66,-416.68 709.93,-385.3 714.27,-362.13"/>
<polygon fill="#8b2418" stroke="#8b2418" stroke-width="2" points="717.68,-363 715.81,-352.57 710.76,-361.89 717.68,-363"/>
<text xml:space="preserve" text-anchor="middle" x="714.18" y="-415.5" font-family="Arial" font-size="10.00" fill="#8b2418"> true </text>
</g>
<!-- n14 -->
<g id="node11" class="node">
<title>n14</title>
<path fill="#fbf6eb" stroke="#1a1612" stroke-width="1.5" d="M809.52,-227C809.52,-227 720.48,-227 720.48,-227 714.48,-227 708.48,-221 708.48,-215 708.48,-215 708.48,-203 708.48,-203 708.48,-197 714.48,-191 720.48,-191 720.48,-191 809.52,-191 809.52,-191 815.52,-191 821.52,-197 821.52,-203 821.52,-203 821.52,-215 821.52,-215 821.52,-221 815.52,-227 809.52,-227"/>
<text xml:space="preserve" text-anchor="middle" x="765" y="-205.3" font-family="Arial" font-size="11.00" fill="#1a1612">14 &#160;&#160;StopSound #1</text>
</g>
<!-- n4&#45;&gt;n14 -->
<g id="edge11" class="edge">
<title>n4&#45;&gt;n14</title>
<path fill="none" stroke="#8b2418" stroke-width="2" d="M567.78,-503.8C619.6,-498.51 690.79,-482.66 733,-437 783.02,-382.89 777.43,-288.3 770.5,-240.1"/>
<polygon fill="#8b2418" stroke="#8b2418" stroke-width="2" points="774,-239.85 768.98,-230.52 767.09,-240.95 774,-239.85"/>
<text xml:space="preserve" text-anchor="middle" x="778.14" y="-371.5" font-family="Arial" font-size="10.00" fill="#8b2418"> true </text>
</g>
<!-- n15 -->
<g id="node12" class="node">
<title>n15</title>
<path fill="#8b2418" stroke="#1a1612" stroke-width="1.5" d="M802.77,-139C802.77,-139 727.23,-139 727.23,-139 721.23,-139 715.23,-133 715.23,-127 715.23,-127 715.23,-115 715.23,-115 715.23,-109 721.23,-103 727.23,-103 727.23,-103 802.77,-103 802.77,-103 808.77,-103 814.77,-109 814.77,-115 814.77,-115 814.77,-127 814.77,-127 814.77,-133 808.77,-139 802.77,-139"/>
<text xml:space="preserve" text-anchor="middle" x="765" y="-117.3" font-family="Arial" font-size="11.00" fill="#fbf6eb">15 &#160;&#160;SetVariable</text>
</g>
<!-- n4&#45;&gt;n15 -->
<g id="edge12" class="edge">
<title>n4&#45;&gt;n15</title>
<path fill="none" stroke="#8b2418" stroke-width="2" d="M567.77,-501.22C699.2,-490.52 988,-462.19 988,-420 988,-420 988,-420 988,-208 988,-173.45 893.65,-147.46 827.69,-133.51"/>
<polygon fill="#8b2418" stroke="#8b2418" stroke-width="2" points="828.79,-130.17 818.29,-131.58 827.38,-137.02 828.79,-130.17"/>
<text xml:space="preserve" text-anchor="middle" x="999.25" y="-327.5" font-family="Arial" font-size="10.00" fill="#8b2418"> true </text>
</g>
<!-- n10 -->
<g id="node14" class="node">
<title>n10</title>
<path fill="#fbf6eb" stroke="#1a1612" stroke-width="1.5" d="M160.02,-139C160.02,-139 49.98,-139 49.98,-139 43.98,-139 37.98,-133 37.98,-127 37.98,-127 37.98,-115 37.98,-115 37.98,-109 43.98,-103 49.98,-103 49.98,-103 160.02,-103 160.02,-103 166.02,-103 172.02,-109 172.02,-115 172.02,-115 172.02,-127 172.02,-127 172.02,-133 166.02,-139 160.02,-139"/>
<text xml:space="preserve" text-anchor="middle" x="105" y="-117.3" font-family="Arial" font-size="11.00" fill="#1a1612">10 &#160;&#160;ChangeVariableBy</text>
</g>
<!-- n4&#45;&gt;n10 -->
<g id="edge7" class="edge">
<title>n4&#45;&gt;n10</title>
<path fill="none" stroke="#8b2418" stroke-width="2" d="M440.17,-501.68C304.55,-491.63 0,-464.16 0,-420 0,-420 0,-420 0,-208 0,-180.23 22.25,-159.81 46.26,-145.85"/>
<polygon fill="#8b2418" stroke="#8b2418" stroke-width="2" points="47.9,-148.94 55.05,-141.13 44.59,-142.77 47.9,-148.94"/>
<text xml:space="preserve" text-anchor="middle" x="11.25" y="-327.5" font-family="Arial" font-size="10.00" fill="#8b2418"> true </text>
</g>
<!-- n11 -->
<g id="node15" class="node">
<title>n11</title>
<path fill="#4a3f33" stroke="#1a1612" stroke-width="1.5" d="M246.52,-62C246.52,-62 199.48,-62 199.48,-62 193.48,-62 187.48,-56 187.48,-50 187.48,-50 187.48,-38 187.48,-38 187.48,-32 193.48,-26 199.48,-26 199.48,-26 246.52,-26 246.52,-26 252.52,-26 258.52,-32 258.52,-38 258.52,-38 258.52,-50 258.52,-50 258.52,-56 252.52,-62 246.52,-62"/>
<text xml:space="preserve" text-anchor="middle" x="223" y="-40.3" font-family="Arial" font-size="11.00" fill="#fbf6eb">11 &#160;&#160;Delay</text>
</g>
<!-- n4&#45;&gt;n11 -->
<g id="edge8" class="edge">
<title>n4&#45;&gt;n11</title>
<path fill="none" stroke="#8b2418" stroke-width="2" d="M508.19,-488.38C515.62,-453.73 528.48,-374.71 508,-313 468.74,-194.69 339.29,-108.27 269.14,-68.83"/>
<polygon fill="#8b2418" stroke="#8b2418" stroke-width="2" points="271.1,-65.91 260.66,-64.14 267.72,-72.04 271.1,-65.91"/>
<text xml:space="preserve" text-anchor="middle" x="511.27" y="-283.5" font-family="Arial" font-size="10.00" fill="#8b2418"> true </text>
</g>
<!-- n5&#45;&gt;n7 -->
<g id="edge13" class="edge">
<title>n5&#45;&gt;n7</title>
<path fill="none" stroke="#8b2418" stroke-width="2" d="M384.72,-400.47C370.17,-390.17 350.71,-377.54 332,-369 310.78,-359.32 286.41,-351.49 264.72,-345.58"/>
<polygon fill="#8b2418" stroke="#8b2418" stroke-width="2" points="265.8,-342.24 255.24,-343.09 264.02,-349.01 265.8,-342.24"/>
</g>
<!-- n5&#45;&gt;n15 -->
<g id="edge14" class="edge">
<title>n5&#45;&gt;n15</title>
<path fill="none" stroke="#4a3f33" stroke-width="1.3" d="M429.26,-400.37C490.03,-349.99 664.59,-205.25 735.01,-146.86"/>
<polygon fill="#4a3f33" stroke="#4a3f33" stroke-width="1.3" points="736.87,-149.87 742.33,-140.79 732.4,-144.48 736.87,-149.87"/>
<text xml:space="preserve" text-anchor="middle" x="591.42" y="-283.5" font-family="Arial" font-size="10.00" fill="#8b2418"> pausado </text>
</g>
<!-- n6 -->
<g id="node6" class="node">
<title>n6</title>
<path fill="#5a6b3b" stroke="#1a1612" stroke-width="1.5" d="M152.52,-437C152.52,-437 63.48,-437 63.48,-437 57.48,-437 51.48,-431 51.48,-425 51.48,-425 51.48,-413 51.48,-413 51.48,-407 57.48,-401 63.48,-401 63.48,-401 152.52,-401 152.52,-401 158.52,-401 164.52,-407 164.52,-413 164.52,-413 164.52,-425 164.52,-425 164.52,-431 158.52,-437 152.52,-437"/>
<text xml:space="preserve" text-anchor="middle" x="108" y="-415.3" font-family="Arial" font-size="11.00" fill="#fbf6eb">6 &#160;&#160;RandomInteger</text>
</g>
<!-- n6&#45;&gt;n7 -->
<g id="edge15" class="edge">
<title>n6&#45;&gt;n7</title>
<path fill="none" stroke="#4a3f33" stroke-width="1.3" d="M127.63,-400.6C141.6,-388.21 160.61,-371.36 176.28,-357.46"/>
<polygon fill="#4a3f33" stroke="#4a3f33" stroke-width="1.3" points="178.43,-360.23 183.59,-350.98 173.79,-354.99 178.43,-360.23"/>
<text xml:space="preserve" text-anchor="middle" x="179.93" y="-371.5" font-family="Arial" font-size="10.00" fill="#8b2418"> tiempo </text>
</g>
<!-- n7&#45;&gt;n8 -->
<g id="edge16" class="edge">
<title>n7&#45;&gt;n8</title>
<path fill="none" stroke="#8b2418" stroke-width="2" d="M232.13,-312.33C248.02,-301.57 268.21,-287.21 285,-273 298.19,-261.84 311.87,-248.42 323.09,-236.84"/>
<polygon fill="#8b2418" stroke="#8b2418" stroke-width="2" points="325.42,-239.48 329.79,-229.83 320.35,-234.64 325.42,-239.48"/>
</g>
<!-- n9 -->
<g id="node13" class="node">
<title>n9</title>
<path fill="#fbf6eb" stroke="#1a1612" stroke-width="1.5" d="M242.27,-227C242.27,-227 169.73,-227 169.73,-227 163.73,-227 157.73,-221 157.73,-215 157.73,-215 157.73,-203 157.73,-203 157.73,-197 163.73,-191 169.73,-191 169.73,-191 242.27,-191 242.27,-191 248.27,-191 254.27,-197 254.27,-203 254.27,-203 254.27,-215 254.27,-215 254.27,-221 248.27,-227 242.27,-227"/>
<text xml:space="preserve" text-anchor="middle" x="206" y="-205.3" font-family="Arial" font-size="11.00" fill="#1a1612">9 &#160;&#160;Comparison</text>
</g>
<!-- n7&#45;&gt;n9 -->
<g id="edge17" class="edge">
<title>n7&#45;&gt;n9</title>
<path fill="none" stroke="#4a3f33" stroke-width="1.3" d="M203.13,-312.33C202.57,-306.22 202.03,-299.31 201.75,-293 200.97,-275.14 201.94,-255.13 203.15,-239.23"/>
<polygon fill="#4a3f33" stroke="#4a3f33" stroke-width="1.3" points="206.62,-239.7 203.97,-229.44 199.64,-239.11 206.62,-239.7"/>
<text xml:space="preserve" text-anchor="middle" x="219.38" y="-283.5" font-family="Arial" font-size="10.00" fill="#8b2418"> tiempo </text>
</g>
<!-- n7&#45;&gt;n10 -->
<g id="edge18" class="edge">
<title>n7&#45;&gt;n10</title>
<path fill="none" stroke="#4a3f33" stroke-width="1.3" d="M157.54,-314.41C138.26,-305.49 117.93,-292.16 106.75,-273 84.82,-235.42 90.59,-183.1 97.36,-150.95"/>
<polygon fill="#4a3f33" stroke="#4a3f33" stroke-width="1.3" points="100.77,-151.74 99.6,-141.21 93.95,-150.17 100.77,-151.74"/>
<text xml:space="preserve" text-anchor="middle" x="124.38" y="-205.5" font-family="Arial" font-size="10.00" fill="#8b2418"> tiempo </text>
</g>
<!-- n8&#45;&gt;n12 -->
<g id="edge20" class="edge">
<title>n8&#45;&gt;n12</title>
<path fill="none" stroke="#5a6b3b" stroke-width="1.3" stroke-dasharray="5,2" d="M369.16,-227.64C389.51,-244.55 421.19,-270.72 449,-293 492.88,-328.16 544.19,-368.03 576.64,-393.09"/>
<polygon fill="#5a6b3b" stroke="#5a6b3b" stroke-width="1.3" points="574.46,-395.83 584.52,-399.17 578.74,-390.29 574.46,-395.83"/>
<text xml:space="preserve" text-anchor="middle" x="535.53" y="-327.5" font-family="Arial" font-size="10.00" fill="#5a6b3b"> sound </text>
</g>
<!-- n8&#45;&gt;n10 -->
<g id="edge19" class="edge">
<title>n8&#45;&gt;n10</title>
<path fill="none" stroke="#8b2418" stroke-width="2" d="M299.97,-190.33C274.22,-180.91 241.92,-169.2 213,-159 198.84,-154 183.59,-148.72 169.15,-143.76"/>
<polygon fill="#8b2418" stroke="#8b2418" stroke-width="2" points="170.71,-140.6 160.12,-140.67 168.44,-147.22 170.71,-140.6"/>
</g>
<!-- n12&#45;&gt;n13 -->
<g id="edge25" class="edge">
<title>n12&#45;&gt;n13</title>
<path fill="none" stroke="#8b2418" stroke-width="2" d="M631.32,-400.39C647.04,-387.98 668.34,-371.18 685.88,-357.34"/>
<polygon fill="#8b2418" stroke="#8b2418" stroke-width="2" points="687.65,-360.4 693.33,-351.46 683.31,-354.91 687.65,-360.4"/>
</g>
<!-- n12&#45;&gt;n14 -->
<g id="edge26" class="edge">
<title>n12&#45;&gt;n14</title>
<path fill="none" stroke="#5a6b3b" stroke-width="1.3" stroke-dasharray="5,2" d="M665.44,-401.13C706.78,-387.51 757.74,-367.6 770,-349 791.61,-316.22 783.75,-269.01 775.14,-238.92"/>
<polygon fill="#5a6b3b" stroke="#5a6b3b" stroke-width="1.3" points="778.5,-237.93 772.2,-229.42 771.82,-240.01 778.5,-237.93"/>
<text xml:space="preserve" text-anchor="middle" x="798.67" y="-327.5" font-family="Arial" font-size="10.00" fill="#5a6b3b"> sound </text>
</g>
<!-- n13&#45;&gt;n14 -->
<g id="edge27" class="edge">
<title>n13&#45;&gt;n14</title>
<path fill="none" stroke="#8b2418" stroke-width="2" d="M724.94,-312.29C732.44,-293.13 744.53,-262.25 753.47,-239.43"/>
<polygon fill="#8b2418" stroke="#8b2418" stroke-width="2" points="756.7,-240.8 757.09,-230.21 750.18,-238.24 756.7,-240.8"/>
</g>
<!-- n14&#45;&gt;n15 -->
<g id="edge28" class="edge">
<title>n14&#45;&gt;n15</title>
<path fill="none" stroke="#8b2418" stroke-width="2" d="M765,-190.6C765,-179.71 765,-165.39 765,-152.64"/>
<polygon fill="#8b2418" stroke="#8b2418" stroke-width="2" points="768.5,-152.7 765,-142.7 761.5,-152.7 768.5,-152.7"/>
</g>
<!-- n9&#45;&gt;n10 -->
<g id="edge21" class="edge">
<title>n9&#45;&gt;n10</title>
<path fill="none" stroke="#8b2418" stroke-width="2" d="M196.27,-190.67C189.99,-180.56 181.12,-168.07 171,-159 165.86,-154.4 160.06,-150.13 154.08,-146.24"/>
<polygon fill="#8b2418" stroke="#8b2418" stroke-width="2" points="156.18,-143.43 145.81,-141.25 152.56,-149.42 156.18,-143.43"/>
<text xml:space="preserve" text-anchor="middle" x="193.54" y="-161.5" font-family="Arial" font-size="10.00" fill="#8b2418"> true </text>
</g>
<!-- n9&#45;&gt;n11 -->
<g id="edge22" class="edge">
<title>n9&#45;&gt;n11</title>
<path fill="none" stroke="#8b2418" stroke-width="2" d="M209.74,-190.37C210.92,-184.26 212.15,-177.35 213,-171 217.35,-138.52 220.03,-101.05 221.5,-75.47"/>
<polygon fill="#8b2418" stroke="#8b2418" stroke-width="2" points="224.99,-75.79 222.04,-65.62 218,-75.41 224.99,-75.79"/>
<text xml:space="preserve" text-anchor="middle" x="230.86" y="-117.5" font-family="Arial" font-size="10.00" fill="#8b2418"> true </text>
</g>
<!-- n10&#45;&gt;n9 -->
<g id="edge24" class="edge">
<title>n10&#45;&gt;n9</title>
<path fill="none" stroke="#4a3f33" stroke-width="1.3" d="M109.86,-139.64C113.43,-149.85 119.16,-162.35 127.75,-171 133.3,-176.59 139.86,-181.44 146.77,-185.62"/>
<polygon fill="#4a3f33" stroke="#4a3f33" stroke-width="1.3" points="144.92,-188.59 155.37,-190.33 148.28,-182.45 144.92,-188.59"/>
<text xml:space="preserve" text-anchor="middle" x="145.38" y="-161.5" font-family="Arial" font-size="10.00" fill="#8b2418"> tiempo </text>
</g>
<!-- n10&#45;&gt;n11 -->
<g id="edge23" class="edge">
<title>n10&#45;&gt;n11</title>
<path fill="none" stroke="#8b2418" stroke-width="2" d="M132.67,-102.42C148.09,-92.61 167.54,-80.25 184.43,-69.51"/>
<polygon fill="#8b2418" stroke="#8b2418" stroke-width="2" points="185.98,-72.68 192.54,-64.36 182.23,-66.77 185.98,-72.68"/>
</g>
</g>
</svg>
