<?xml version="1.0" encoding="UTF-8" standalone="no"?>
<!DOCTYPE svg PUBLIC "-//W3C//DTD SVG 1.1//EN"
 "http://www.w3.org/Graphics/SVG/1.1/DTD/svg11.dtd">
<!-- Generated by graphviz version 14.1.2 (0)
 -->
<!-- Title: PDG_Protobject Pages: 1 -->
<svg width="1090pt" height="821pt"
 viewBox="0.00 0.00 1090.00 821.00" xmlns="http://www.w3.org/2000/svg" xmlns:xlink="http://www.w3.org/1999/xlink">
<g id="graph0" class="graph" transform="scale(1 1) rotate(0) translate(21.6 799.6)">
<title>PDG_Protobject</title>
<polygon fill="#fbf6eb" stroke="none" points="-21.6,21.6 -21.6,-799.6 1068.35,-799.6 1068.35,21.6 -21.6,21.6"/>
<g id="clust1" class="cluster">
<title>cluster_loop</title>
<path fill="#fbf6eb" stroke="#8b2418" stroke-width="1.8" stroke-dasharray="5,2" d="M162,-8C162,-8 383,-8 383,-8 389,-8 395,-14 395,-20 395,-20 395,-261 395,-261 395,-267 389,-273 383,-273 383,-273 162,-273 162,-273 156,-273 150,-267 150,-261 150,-261 150,-20 150,-20 150,-14 156,-8 162,-8"/>
<text xml:space="preserve" text-anchor="start" x="183.88" y="-259.55" font-family="Arial" font-weight="bold" font-size="11.00">loop</text>
<text xml:space="preserve" text-anchor="start" x="158" y="-250.45" font-family="Arial" font-size="9.00" fill="#8b2418">alcance de control</text>
</g>
<!-- n1 -->
<g id="node1" class="node">
<title>n1</title>
<path fill="#34495e" stroke="#1a1612" stroke-width="1.5" d="M511.52,-778C511.52,-778 404.48,-778 404.48,-778 398.48,-778 392.48,-772 392.48,-766 392.48,-766 392.48,-754 392.48,-754 392.48,-748 398.48,-742 404.48,-742 404.48,-742 511.52,-742 511.52,-742 517.52,-742 523.52,-748 523.52,-754 523.52,-754 523.52,-766 523.52,-766 523.52,-772 517.52,-778 511.52,-778"/>
<text xml:space="preserve" text-anchor="middle" x="458" y="-756.3" font-family="Arial" font-size="11.00" fill="#fbf6eb">1 &#160;&#160;ProgramStartEvent</text>
</g>
<!-- n2 -->
<g id="node2" class="node">
<title>n2</title>
<path fill="#8b2418" stroke="#1a1612" stroke-width="1.5" d="M492.77,-701C492.77,-701 423.23,-701 423.23,-701 417.23,-701 411.23,-695 411.23,-689 411.23,-689 411.23,-677 411.23,-677 411.23,-671 417.23,-665 423.23,-665 423.23,-665 492.77,-665 492.77,-665 498.77,-665 504.77,-671 504.77,-677 504.77,-677 504.77,-689 504.77,-689 504.77,-695 498.77,-701 492.77,-701"/>
<text xml:space="preserve" text-anchor="middle" x="458" y="-679.3" font-family="Arial" font-size="11.00" fill="#fbf6eb">2 &#160;&#160;SetVariable</text>
</g>
<!-- n1&#45;&gt;n2 -->
<g id="edge1" class="edge">
<title>n1&#45;&gt;n2</title>
<path fill="none" stroke="#8b2418" stroke-width="2" d="M458,-741.6C458,-733.52 458,-723.67 458,-714.42"/>
<polygon fill="#8b2418" stroke="#8b2418" stroke-width="2" points="461.5,-714.59 458,-704.59 454.5,-714.59 461.5,-714.59"/>
</g>
<!-- n4 -->
<g id="node4" class="node">
<title>n4</title>
<path fill="#b8843a" stroke="#1a1612" stroke-width="1.5" d="M579.27,-613C579.27,-613 476.73,-613 476.73,-613 470.73,-613 464.73,-607 464.73,-601 464.73,-601 464.73,-589 464.73,-589 464.73,-583 470.73,-577 476.73,-577 476.73,-577 579.27,-577 579.27,-577 585.27,-577 591.27,-583 591.27,-589 591.27,-589 591.27,-601 591.27,-601 591.27,-607 585.27,-613 579.27,-613"/>
<text xml:space="preserve" text-anchor="middle" x="528" y="-591.3" font-family="Arial" font-size="11.00" fill="#fbf6eb">4 &#160;&#160;ConditionalBranch</text>
</g>
<!-- n2&#45;&gt;n4 -->
<g id="edge2" class="edge">
<title>n2&#45;&gt;n4</title>
<path fill="none" stroke="#4a3f33" stroke-width="1.3" d="M472.17,-664.6C481.97,-652.55 495.2,-636.3 506.32,-622.63"/>
<polygon fill="#4a3f33" stroke="#4a3f33" stroke-width="1.3" points="508.77,-625.16 512.37,-615.2 503.35,-620.74 508.77,-625.16"/>
<text xml:space="preserve" text-anchor="middle" x="518.57" y="-635.5" font-family="Arial" font-size="10.00" fill="#8b2418"> pausado </text>
</g>
<!-- n3 -->
<g id="node3" class="node">
<title>n3</title>
<path fill="#fbf6eb" stroke="#1a1612" stroke-width="1.5" d="M648.77,-701C648.77,-701 549.23,-701 549.23,-701 543.23,-701 537.23,-695 537.23,-689 537.23,-689 537.23,-677 537.23,-677 537.23,-671 543.23,-665 549.23,-665 549.23,-665 648.77,-665 648.77,-665 654.77,-665 660.77,-671 660.77,-677 660.77,-677 660.77,-689 660.77,-689 660.77,-695 654.77,-701 648.77,-701"/>
<text xml:space="preserve" text-anchor="middle" x="599" y="-679.3" font-family="Arial" font-size="11.00" fill="#1a1612">3 &#160;&#160;OnTouchEvent #1</text>
</g>
<!-- n3&#45;&gt;n4 -->
<g id="edge3" class="edge">
<title>n3&#45;&gt;n4</title>
<path fill="none" stroke="#8b2418" stroke-width="2" d="M584.63,-664.6C574.88,-652.78 561.78,-636.92 550.64,-623.43"/>
<polygon fill="#8b2418" stroke="#8b2418" stroke-width="2" points="553.58,-621.49 544.52,-616.01 548.18,-625.95 553.58,-621.49"/>
</g>
<!-- n5 -->
<g id="node5" class="node">
<title>n5</title>
<path fill="#8b2418" stroke="#1a1612" stroke-width="1.5" d="M288.77,-525C288.77,-525 219.23,-525 219.23,-525 213.23,-525 207.23,-519 207.23,-513 207.23,-513 207.23,-501 207.23,-501 207.23,-495 213.23,-489 219.23,-489 219.23,-489 288.77,-489 288.77,-489 294.77,-489 300.77,-495 300.77,-501 300.77,-501 300.77,-513 300.77,-513 300.77,-519 294.77,-525 288.77,-525"/>
<text xml:space="preserve" text-anchor="middle" x="254" y="-503.3" font-family="Arial" font-size="11.00" fill="#fbf6eb">5 &#160;&#160;SetVariable</text>
</g>
<!-- n4&#45;&gt;n5 -->
<g id="edge4" class="edge">
<title>n4&#45;&gt;n5</title>
<path fill="none" stroke="#8b2418" stroke-width="2" d="M471.56,-576.29C425.49,-561.83 360.58,-541.45 313.67,-526.73"/>
<polygon fill="#8b2418" stroke="#8b2418" stroke-width="2" points="314.72,-523.39 304.13,-523.74 312.63,-530.07 314.72,-523.39"/>
<text xml:space="preserve" text-anchor="middle" x="418.65" y="-547.5" font-family="Arial" font-size="10.00" fill="#8b2418"> true </text>
</g>
<!-- n7 -->
<g id="node7" class="node">
<title>n7</title>
<path fill="#8b2418" stroke="#1a1612" stroke-width="1.5" d="M288.77,-437C288.77,-437 219.23,-437 219.23,-437 213.23,-437 207.23,-431 207.23,-425 207.23,-425 207.23,-413 207.23,-413 207.23,-407 213.23,-401 219.23,-401 219.23,-401 288.77,-401 288.77,-401 294.77,-401 300.77,-407 300.77,-413 300.77,-413 300.77,-425 300.77,-425 300.77,-431 294.77,-437 288.77,-437"/>
<text xml:space="preserve" text-anchor="middle" x="254" y="-415.3" font-family="Arial" font-size="11.00" fill="#fbf6eb">7 &#160;&#160;SetVariable</text>
</g>
<!-- n4&#45;&gt;n7 -->
<g id="edge5" class="edge">
<title>n4&#45;&gt;n7</title>
<path fill="none" stroke="#8b2418" stroke-width="2" d="M464.13,-591.49C370.69,-586.3 203.94,-570.7 168.5,-525 146.85,-497.08 180.08,-465.76 211.22,-444.65"/>
<polygon fill="#8b2418" stroke="#8b2418" stroke-width="2" points="213.03,-447.65 219.52,-439.27 209.22,-441.77 213.03,-447.65"/>
<text xml:space="preserve" text-anchor="middle" x="179.75" y="-503.5" font-family="Arial" font-size="10.00" fill="#8b2418"> true </text>
</g>
<!-- n8 -->
<g id="node8" class="node">
<title>n8</title>
<path fill="#fbf6eb" stroke="#1a1612" stroke-width="1.5" d="M177.77,-349C177.77,-349 96.23,-349 96.23,-349 90.23,-349 84.23,-343 84.23,-337 84.23,-337 84.23,-325 84.23,-325 84.23,-319 90.23,-313 96.23,-313 96.23,-313 177.77,-313 177.77,-313 183.77,-313 189.77,-319 189.77,-325 189.77,-325 189.77,-337 189.77,-337 189.77,-343 183.77,-349 177.77,-349"/>
<text xml:space="preserve" text-anchor="middle" x="137" y="-327.3" font-family="Arial" font-size="11.00" fill="#1a1612">8 &#160;&#160;PlaySound #1</text>
</g>
<!-- n4&#45;&gt;n8 -->
<g id="edge6" class="edge">
<title>n4&#45;&gt;n8</title>
<path fill="none" stroke="#8b2418" stroke-width="2" d="M464,-591.74C379.71,-587.96 236.61,-578.53 189,-557 119.27,-525.47 124.62,-415.86 131.85,-362.15"/>
<polygon fill="#8b2418" stroke="#8b2418" stroke-width="2" points="135.28,-362.88 133.28,-352.47 128.35,-361.85 135.28,-362.88"/>
<text xml:space="preserve" text-anchor="middle" x="143" y="-459.5" font-family="Arial" font-size="10.00" fill="#8b2418"> true </text>
</g>
<!-- n12 -->
<g id="node9" class="node">
<title>n12</title>
<path fill="#fbf6eb" stroke="#1a1612" stroke-width="1.5" d="M942.77,-525C942.77,-525 855.23,-525 855.23,-525 849.23,-525 843.23,-519 843.23,-513 843.23,-513 843.23,-501 843.23,-501 843.23,-495 849.23,-489 855.23,-489 855.23,-489 942.77,-489 942.77,-489 948.77,-489 954.77,-495 954.77,-501 954.77,-501 954.77,-513 954.77,-513 954.77,-519 948.77,-525 942.77,-525"/>
<text xml:space="preserve" text-anchor="middle" x="899" y="-503.3" font-family="Arial" font-size="11.00" fill="#1a1612">12 &#160;&#160;PlaySound #1</text>
</g>
<!-- n4&#45;&gt;n12 -->
<g id="edge10" class="edge">
<title>n4&#45;&gt;n12</title>
<path fill="none" stroke="#8b2418" stroke-width="2" d="M591.81,-592.88C650.85,-590.19 740.36,-581.88 814,-557 831.36,-551.14 849.14,-541.55 863.92,-532.4"/>
<polygon fill="#8b2418" stroke="#8b2418" stroke-width="2" points="865.51,-535.54 872.04,-527.19 861.73,-529.65 865.51,-535.54"/>
<text xml:space="preserve" text-anchor="middle" x="852.37" y="-547.5" font-family="Arial" font-size="10.00" fill="#8b2418"> true </text>
</g>
<!-- n13 -->
<g id="node10" class="node">
<title>n13</title>
<path fill="#4a3f33" stroke="#1a1612" stroke-width="1.5" d="M918.89,-437C918.89,-437 871.11,-437 871.11,-437 865.11,-437 859.11,-431 859.11,-425 859.11,-425 859.11,-413 859.11,-413 859.11,-407 865.11,-401 871.11,-401 871.11,-401 918.89,-401 918.89,-401 924.89,-401 930.89,-407 930.89,-413 930.89,-413 930.89,-425 930.89,-425 930.89,-431 924.89,-437 918.89,-437"/>
<text xml:space="preserve" text-anchor="middle" x="895" y="-415.3" font-family="Arial" font-size="11.00" fill="#fbf6eb">13 &#160;&#160;Delay</text>
</g>
<!-- n4&#45;&gt;n13 -->
<g id="edge11" class="edge">
<title>n4&#45;&gt;n13</title>
<path fill="none" stroke="#8b2418" stroke-width="2" d="M591.99,-591.9C634.02,-588.3 689.14,-579.25 733,-557 772.11,-537.16 771.12,-517.45 804.5,-489 822.43,-473.72 843.29,-457.7 860.47,-444.95"/>
<polygon fill="#8b2418" stroke="#8b2418" stroke-width="2" points="862.21,-448.01 868.19,-439.26 858.06,-442.38 862.21,-448.01"/>
<text xml:space="preserve" text-anchor="middle" x="815.75" y="-503.5" font-family="Arial" font-size="10.00" fill="#8b2418"> true </text>
</g>
<!-- n14 -->
<g id="node11" class="node">
<title>n14</title>
<path fill="#fbf6eb" stroke="#1a1612" stroke-width="1.5" d="M836.52,-349C836.52,-349 747.48,-349 747.48,-349 741.48,-349 735.48,-343 735.48,-337 735.48,-337 735.48,-325 735.48,-325 735.48,-319 741.48,-313 747.48,-313 747.48,-313 836.52,-313 836.52,-313 842.52,-313 848.52,-319 848.52,-325 848.52,-325 848.52,-337 848.52,-337 848.52,-343 842.52,-349 836.52,-349"/>
<text xml:space="preserve" text-anchor="middle" x="792" y="-327.3" font-family="Arial" font-size="11.00" fill="#1a1612">14 &#160;&#160;StopSound #1</text>
</g>
<!-- n4&#45;&gt;n14 -->
<g id="edge12" class="edge">
<title>n4&#45;&gt;n14</title>
<path fill="none" stroke="#8b2418" stroke-width="2" d="M591.97,-587.89C617.4,-582.84 645.63,-573.65 667,-557 732.57,-505.91 768.85,-410.27 783.78,-361.8"/>
<polygon fill="#8b2418" stroke="#8b2418" stroke-width="2" points="787.09,-362.94 786.58,-352.36 780.38,-360.95 787.09,-362.94"/>
<text xml:space="preserve" text-anchor="middle" x="755.35" y="-459.5" font-family="Arial" font-size="10.00" fill="#8b2418"> true </text>
</g>
<!-- n15 -->
<g id="node12" class="node">
<title>n15</title>
<path fill="#8b2418" stroke="#1a1612" stroke-width="1.5" d="M829.77,-227C829.77,-227 754.23,-227 754.23,-227 748.23,-227 742.23,-221 742.23,-215 742.23,-215 742.23,-203 742.23,-203 742.23,-197 748.23,-191 754.23,-191 754.23,-191 829.77,-191 829.77,-191 835.77,-191 841.77,-197 841.77,-203 841.77,-203 841.77,-215 841.77,-215 841.77,-221 835.77,-227 829.77,-227"/>
<text xml:space="preserve" text-anchor="middle" x="792" y="-205.3" font-family="Arial" font-size="11.00" fill="#fbf6eb">15 &#160;&#160;SetVariable</text>
</g>
<!-- n4&#45;&gt;n15 -->
<g id="edge13" class="edge">
<title>n4&#45;&gt;n15</title>
<path fill="none" stroke="#8b2418" stroke-width="2" d="M581.66,-576.35C611.23,-562.9 642,-540.97 642,-508 642,-508 642,-508 642,-330 642,-282.4 688.64,-250.57 729.9,-231.73"/>
<polygon fill="#8b2418" stroke="#8b2418" stroke-width="2" points="731.08,-235.03 738.86,-227.84 728.29,-228.61 731.08,-235.03"/>
<text xml:space="preserve" text-anchor="middle" x="653.25" y="-415.5" font-family="Arial" font-size="10.00" fill="#8b2418"> true </text>
</g>
<!-- n9 -->
<g id="node13" class="node">
<title>n9</title>
<path fill="#fbf6eb" stroke="#1a1612" stroke-width="1.5" d="M275.14,-227C275.14,-227 186.86,-227 186.86,-227 180.86,-227 174.86,-221 174.86,-215 174.86,-215 174.86,-203 174.86,-203 174.86,-197 180.86,-191 186.86,-191 186.86,-191 275.14,-191 275.14,-191 281.14,-191 287.14,-197 287.14,-203 287.14,-203 287.14,-215 287.14,-215 287.14,-221 281.14,-227 275.14,-227"/>
<text xml:space="preserve" text-anchor="middle" x="231" y="-205.3" font-family="Arial" font-size="11.00" fill="#1a1612">9 &#160;&#160;Comparison [&gt;]</text>
</g>
<!-- n4&#45;&gt;n9 -->
<g id="edge7" class="edge">
<title>n4&#45;&gt;n9</title>
<path fill="none" stroke="#8b2418" stroke-width="2" d="M464.05,-590.17C323.48,-580.91 0,-554.52 0,-508 0,-508 0,-508 0,-330 0,-256.44 93.37,-227.91 161.39,-216.89"/>
<polygon fill="#8b2418" stroke="#8b2418" stroke-width="2" points="161.83,-220.36 171.2,-215.42 160.79,-213.44 161.83,-220.36"/>
<text xml:space="preserve" text-anchor="middle" x="11.25" y="-415.5" font-family="Arial" font-size="10.00" fill="#8b2418"> true </text>
</g>
<!-- n10 -->
<g id="node14" class="node">
<title>n10</title>
<path fill="#fbf6eb" stroke="#1a1612" stroke-width="1.5" d="M312.02,-139C312.02,-139 201.98,-139 201.98,-139 195.98,-139 189.98,-133 189.98,-127 189.98,-127 189.98,-115 189.98,-115 189.98,-109 195.98,-103 201.98,-103 201.98,-103 312.02,-103 312.02,-103 318.02,-103 324.02,-109 324.02,-115 324.02,-115 324.02,-127 324.02,-127 324.02,-133 318.02,-139 312.02,-139"/>
<text xml:space="preserve" text-anchor="middle" x="257" y="-117.3" font-family="Arial" font-size="11.00" fill="#1a1612">10 &#160;&#160;ChangeVariableBy</text>
</g>
<!-- n4&#45;&gt;n10 -->
<g id="edge8" class="edge">
<title>n4&#45;&gt;n10</title>
<path fill="none" stroke="#8b2418" stroke-width="2" d="M527.12,-576.46C522.86,-511.06 498.94,-279.03 371,-159 361.28,-149.88 349.29,-143.01 336.78,-137.83"/>
<polygon fill="#8b2418" stroke="#8b2418" stroke-width="2" points="338.11,-134.59 327.51,-134.42 335.68,-141.16 338.11,-134.59"/>
<text xml:space="preserve" text-anchor="middle" x="503.89" y="-371.5" font-family="Arial" font-size="10.00" fill="#8b2418"> true </text>
</g>
<!-- n11 -->
<g id="node15" class="node">
<title>n11</title>
<path fill="#4a3f33" stroke="#1a1612" stroke-width="1.5" d="M322.52,-62C322.52,-62 275.48,-62 275.48,-62 269.48,-62 263.48,-56 263.48,-50 263.48,-50 263.48,-38 263.48,-38 263.48,-32 269.48,-26 275.48,-26 275.48,-26 322.52,-26 322.52,-26 328.52,-26 334.52,-32 334.52,-38 334.52,-38 334.52,-50 334.52,-50 334.52,-56 328.52,-62 322.52,-62"/>
<text xml:space="preserve" text-anchor="middle" x="299" y="-40.3" font-family="Arial" font-size="11.00" fill="#fbf6eb">11 &#160;&#160;Delay</text>
</g>
<!-- n4&#45;&gt;n11 -->
<g id="edge9" class="edge">
<title>n4&#45;&gt;n11</title>
<path fill="none" stroke="#8b2418" stroke-width="2" d="M539.17,-576.3C548.75,-559.43 561,-532.95 561,-508 561,-508 561,-508 561,-120 561,-76.2 423.98,-56.53 348.12,-48.99"/>
<polygon fill="#8b2418" stroke="#8b2418" stroke-width="2" points="348.45,-45.51 338.17,-48.05 347.79,-52.48 348.45,-45.51"/>
<text xml:space="preserve" text-anchor="middle" x="572.25" y="-327.5" font-family="Arial" font-size="10.00" fill="#8b2418"> true </text>
</g>
<!-- n5&#45;&gt;n4 -->
<g id="edge15" class="edge">
<title>n5&#45;&gt;n4</title>
<path fill="none" stroke="#4a3f33" stroke-width="1.3" d="M274.12,-525.56C287.47,-536.28 305.85,-549.34 324.25,-557 364.8,-573.87 413.04,-583.07 452.4,-588.07"/>
<polygon fill="#4a3f33" stroke="#4a3f33" stroke-width="1.3" points="451.75,-591.52 462.09,-589.23 452.58,-584.57 451.75,-591.52"/>
<text xml:space="preserve" text-anchor="middle" x="345.62" y="-547.5" font-family="Arial" font-size="10.00" fill="#8b2418"> pausado </text>
</g>
<!-- n5&#45;&gt;n7 -->
<g id="edge14" class="edge">
<title>n5&#45;&gt;n7</title>
<path fill="none" stroke="#8b2418" stroke-width="2" d="M254,-488.6C254,-477.71 254,-463.39 254,-450.64"/>
<polygon fill="#8b2418" stroke="#8b2418" stroke-width="2" points="257.5,-450.7 254,-440.7 250.5,-450.7 257.5,-450.7"/>
</g>
<!-- n6 -->
<g id="node6" class="node">
<title>n6</title>
<path fill="#5a6b3b" stroke="#1a1612" stroke-width="1.5" d="M433.52,-525C433.52,-525 344.48,-525 344.48,-525 338.48,-525 332.48,-519 332.48,-513 332.48,-513 332.48,-501 332.48,-501 332.48,-495 338.48,-489 344.48,-489 344.48,-489 433.52,-489 433.52,-489 439.52,-489 445.52,-495 445.52,-501 445.52,-501 445.52,-513 445.52,-513 445.52,-519 439.52,-525 433.52,-525"/>
<text xml:space="preserve" text-anchor="middle" x="389" y="-503.3" font-family="Arial" font-size="11.00" fill="#fbf6eb">6 &#160;&#160;RandomInteger</text>
</g>
<!-- n6&#45;&gt;n7 -->
<g id="edge16" class="edge">
<title>n6&#45;&gt;n7</title>
<path fill="none" stroke="#4a3f33" stroke-width="1.3" d="M361.35,-488.39C341.24,-475.58 313.78,-458.08 291.66,-443.99"/>
<polygon fill="#4a3f33" stroke="#4a3f33" stroke-width="1.3" points="293.58,-441.07 283.27,-438.64 289.82,-446.97 293.58,-441.07"/>
<text xml:space="preserve" text-anchor="middle" x="344.21" y="-459.5" font-family="Arial" font-size="10.00" fill="#8b2418"> value </text>
</g>
<!-- n7&#45;&gt;n8 -->
<g id="edge17" class="edge">
<title>n7&#45;&gt;n8</title>
<path fill="none" stroke="#8b2418" stroke-width="2" d="M230.04,-400.39C213.08,-387.93 190.1,-371.03 171.21,-357.15"/>
<polygon fill="#8b2418" stroke="#8b2418" stroke-width="2" points="173.5,-354.48 163.37,-351.38 169.35,-360.12 173.5,-354.48"/>
</g>
<!-- n7&#45;&gt;n9 -->
<g id="edge18" class="edge">
<title>n7&#45;&gt;n9</title>
<path fill="none" stroke="#4a3f33" stroke-width="1.3" d="M252.04,-400.27C248.08,-364.5 239.12,-283.4 234.26,-239.52"/>
<polygon fill="#4a3f33" stroke="#4a3f33" stroke-width="1.3" points="237.75,-239.2 233.17,-229.64 230.79,-239.97 237.75,-239.2"/>
<text xml:space="preserve" text-anchor="middle" x="263.9" y="-327.5" font-family="Arial" font-size="10.00" fill="#8b2418"> tiempo </text>
</g>
<!-- n7&#45;&gt;n10 -->
<g id="edge19" class="edge">
<title>n7&#45;&gt;n10</title>
<path fill="none" stroke="#4a3f33" stroke-width="1.3" d="M264.48,-400.3C272.27,-386.63 282.75,-367.06 290,-349 320.84,-272.16 332.64,-252.87 345,-171 345.8,-165.73 347.95,-163.44 345,-159 341.79,-154.16 337.81,-149.96 333.33,-146.3"/>
<polygon fill="#4a3f33" stroke="#4a3f33" stroke-width="1.3" points="335.36,-143.45 325.14,-140.66 331.39,-149.22 335.36,-143.45"/>
<text xml:space="preserve" text-anchor="middle" x="334.99" y="-283.5" font-family="Arial" font-size="10.00" fill="#8b2418"> tiempo </text>
</g>
<!-- n8&#45;&gt;n12 -->
<g id="edge21" class="edge">
<title>n8&#45;&gt;n12</title>
<path fill="none" stroke="#5a6b3b" stroke-width="1.3" stroke-dasharray="5,2" d="M190.36,-348.29C285.47,-376.77 490.92,-435.71 668,-469 737.88,-482.14 759.49,-475.64 831.12,-488.42"/>
<polygon fill="#5a6b3b" stroke="#5a6b3b" stroke-width="1.3" points="830.16,-491.8 840.63,-490.19 831.44,-484.92 830.16,-491.8"/>
<text xml:space="preserve" text-anchor="middle" x="528.71" y="-415.5" font-family="Arial" font-size="10.00" fill="#5a6b3b"> sound </text>
</g>
<!-- n8&#45;&gt;n9 -->
<g id="edge20" class="edge">
<title>n8&#45;&gt;n9</title>
<path fill="none" stroke="#8b2418" stroke-width="2" d="M150.87,-312.29C166.3,-292.59 191.42,-260.52 209.43,-237.54"/>
<polygon fill="#8b2418" stroke="#8b2418" stroke-width="2" points="212.1,-239.8 215.51,-229.77 206.59,-235.49 212.1,-239.8"/>
</g>
<!-- n12&#45;&gt;n13 -->
<g id="edge27" class="edge">
<title>n12&#45;&gt;n13</title>
<path fill="none" stroke="#8b2418" stroke-width="2" d="M898.19,-488.6C897.68,-477.71 897.02,-463.39 896.43,-450.64"/>
<polygon fill="#8b2418" stroke="#8b2418" stroke-width="2" points="899.92,-450.52 895.96,-440.7 892.93,-450.85 899.92,-450.52"/>
</g>
<!-- n12&#45;&gt;n14 -->
<g id="edge28" class="edge">
<title>n12&#45;&gt;n14</title>
<path fill="none" stroke="#5a6b3b" stroke-width="1.3" stroke-dasharray="5,2" d="M865.83,-488.32C846.69,-476.38 823.89,-458.83 810.75,-437 796.95,-414.08 792.76,-383.6 791.72,-361.38"/>
<polygon fill="#5a6b3b" stroke="#5a6b3b" stroke-width="1.3" points="795.22,-361.56 791.47,-351.65 788.23,-361.73 795.22,-361.56"/>
<text xml:space="preserve" text-anchor="middle" x="826.88" y="-415.5" font-family="Arial" font-size="10.00" fill="#5a6b3b"> sound </text>
</g>
<!-- n13&#45;&gt;n14 -->
<g id="edge29" class="edge">
<title>n13&#45;&gt;n14</title>
<path fill="none" stroke="#8b2418" stroke-width="2" d="M874.16,-400.6C859.46,-388.32 839.51,-371.67 822.96,-357.85"/>
<polygon fill="#8b2418" stroke="#8b2418" stroke-width="2" points="825.41,-355.34 815.49,-351.61 820.92,-360.71 825.41,-355.34"/>
</g>
<!-- n14&#45;&gt;n15 -->
<g id="edge30" class="edge">
<title>n14&#45;&gt;n15</title>
<path fill="none" stroke="#8b2418" stroke-width="2" d="M792,-312.29C792,-293.4 792,-263.11 792,-240.39"/>
<polygon fill="#8b2418" stroke="#8b2418" stroke-width="2" points="795.5,-240.42 792,-230.42 788.5,-240.42 795.5,-240.42"/>
</g>
<!-- n15&#45;&gt;n4 -->
<g id="edge31" class="edge">
<title>n15&#45;&gt;n4</title>
<path fill="none" stroke="#4a3f33" stroke-width="1.3" d="M842.51,-216.26C905.22,-227.17 1004,-256.09 1004,-330 1004,-508 1004,-508 1004,-508 1004,-570.58 933.21,-543.96 872,-557 780.78,-576.43 673.67,-585.9 603.5,-590.35"/>
<polygon fill="#4a3f33" stroke="#4a3f33" stroke-width="1.3" points="603.43,-586.85 593.67,-590.95 603.86,-593.83 603.43,-586.85"/>
<text xml:space="preserve" text-anchor="middle" x="1025.38" y="-415.5" font-family="Arial" font-size="10.00" fill="#8b2418"> pausado </text>
</g>
<!-- n9&#45;&gt;n10 -->
<g id="edge22" class="edge">
<title>n9&#45;&gt;n10</title>
<path fill="none" stroke="#8b2418" stroke-width="2" d="M207.6,-190.36C198.48,-181.25 191.49,-169.81 197.5,-159 199.82,-154.82 202.84,-151.05 206.27,-147.67"/>
<polygon fill="#8b2418" stroke="#8b2418" stroke-width="2" points="208.29,-150.53 213.83,-141.5 203.87,-145.11 208.29,-150.53"/>
<text xml:space="preserve" text-anchor="middle" x="208.75" y="-161.5" font-family="Arial" font-size="10.00" fill="#8b2418"> true </text>
</g>
<!-- n9&#45;&gt;n10 -->
<g id="edge23" class="edge">
<title>n9&#45;&gt;n10</title>
<path fill="none" stroke="#4a3f33" stroke-width="1.3" d="M236.26,-190.6C239.69,-179.25 244.25,-164.16 248.23,-151.02"/>
<polygon fill="#4a3f33" stroke="#4a3f33" stroke-width="1.3" points="251.54,-152.14 251.09,-141.56 244.84,-150.12 251.54,-152.14"/>
<text xml:space="preserve" text-anchor="middle" x="268.06" y="-161.5" font-family="Arial" font-size="10.00" fill="#8b2418"> condition </text>
</g>
<!-- n10&#45;&gt;n9 -->
<g id="edge25" class="edge">
<title>n10&#45;&gt;n9</title>
<path fill="none" stroke="#4a3f33" stroke-width="1.3" d="M286.62,-139.68C297.5,-148.53 305.7,-159.73 299,-171 296.26,-175.61 292.72,-179.68 288.71,-183.27"/>
<polygon fill="#4a3f33" stroke="#4a3f33" stroke-width="1.3" points="286.72,-180.38 280.83,-189.19 290.93,-185.98 286.72,-180.38"/>
<text xml:space="preserve" text-anchor="middle" x="319.04" y="-161.5" font-family="Arial" font-size="10.00" fill="#8b2418"> tiempo </text>
</g>
<!-- n10&#45;&gt;n10 -->
<g id="edge26" class="edge">
<title>n10&#45;&gt;n10</title>
<path fill="none" stroke="#4a3f33" stroke-width="1.3" d="M324.57,-128.16C342.47,-127.75 356.02,-125.36 356.02,-121 356.02,-117.66 348.07,-115.48 336.32,-114.46"/>
<polygon fill="#4a3f33" stroke="#4a3f33" stroke-width="1.3" points="336.7,-110.97 326.54,-113.95 336.34,-117.96 336.7,-110.97"/>
<text xml:space="preserve" text-anchor="middle" x="373.64" y="-117.5" font-family="Arial" font-size="10.00" fill="#8b2418"> tiempo </text>
</g>
<!-- n10&#45;&gt;n11 -->
<g id="edge24" class="edge">
<title>n10&#45;&gt;n11</title>
<path fill="none" stroke="#8b2418" stroke-width="2" d="M266.74,-102.6C271.53,-94.05 277.43,-83.52 282.87,-73.81"/>
<polygon fill="#8b2418" stroke="#8b2418" stroke-width="2" points="285.85,-75.64 287.69,-65.2 279.75,-72.22 285.85,-75.64"/>
</g>
</g>
</svg>
