<?xml version="1.0" encoding="UTF-8" standalone="no"?>
<!DOCTYPE svg PUBLIC "-//W3C//DTD SVG 1.1//EN"
 "http://www.w3.org/Graphics/SVG/1.1/DTD/svg11.dtd">
<!-- Generated by graphviz version 14.1.2 (0)
 -->
<!-- Title: PDG_MakeCode Pages: 1 -->
<svg width="1022pt" height="821pt"
 viewBox="0.00 0.00 1022.00 821.00" xmlns="http://www.w3.org/2000/svg" xmlns:xlink="http://www.w3.org/1999/xlink">
<g id="graph0" class="graph" transform="scale(1 1) rotate(0) translate(21.6 799.6)">
<title>PDG_MakeCode</title>
<polygon fill="#fbf6eb" stroke="none" points="-21.6,21.6 -21.6,-799.6 1000.29,-799.6 1000.29,21.6 -21.6,21.6"/>
<g id="clust1" class="cluster">
<title>cluster_loop</title>
<path fill="#fbf6eb" stroke="#8b2418" stroke-width="1.8" stroke-dasharray="5,2" d="M162,-8C162,-8 383,-8 383,-8 389,-8 395,-14 395,-20 395,-20 395,-261 395,-261 395,-267 389,-273 383,-273 383,-273 162,-273 162,-273 156,-273 150,-267 150,-261 150,-261 150,-20 150,-20 150,-14 156,-8 162,-8"/>
<text xml:space="preserve" text-anchor="start" x="183.88" y="-259.55" font-family="Arial" font-weight="bold" font-size="11.00">loop</text>
<text xml:space="preserve" text-anchor="start" x="158" y="-250.45" font-family="Arial" font-size="9.00" fill="#8b2418">alcance de control</text>
</g>
<!-- n1 -->
<g id="node1" class="node">
<title>n1</title>
<path fill="#34495e" stroke="#1a1612" stroke-width="1.5" d="M479.52,-778C479.52,-778 372.48,-778 372.48,-778 366.48,-778 360.48,-772 360.48,-766 360.48,-766 360.48,-754 360.48,-754 360.48,-748 366.48,-742 372.48,-742 372.48,-742 479.52,-742 479.52,-742 485.52,-742 491.52,-748 491.52,-754 491.52,-754 491.52,-766 491.52,-766 491.52,-772 485.52,-778 479.52,-778"/>
<text xml:space="preserve" text-anchor="middle" x="426" y="-756.3" font-family="Arial" font-size="11.00" fill="#fbf6eb">1 &#160;&#160;ProgramStartEvent</text>
</g>
<!-- n2 -->
<g id="node2" class="node">
<title>n2</title>
<path fill="#8b2418" stroke="#1a1612" stroke-width="1.5" d="M460.77,-701C460.77,-701 391.23,-701 391.23,-701 385.23,-701 379.23,-695 379.23,-689 379.23,-689 379.23,-677 379.23,-677 379.23,-671 385.23,-665 391.23,-665 391.23,-665 460.77,-665 460.77,-665 466.77,-665 472.77,-671 472.77,-677 472.77,-677 472.77,-689 472.77,-689 472.77,-695 466.77,-701 460.77,-701"/>
<text xml:space="preserve" text-anchor="middle" x="426" y="-679.3" font-family="Arial" font-size="11.00" fill="#fbf6eb">2 &#160;&#160;SetVariable</text>
</g>
<!-- n1&#45;&gt;n2 -->
<g id="edge1" class="edge">
<title>n1&#45;&gt;n2</title>
<path fill="none" stroke="#8b2418" stroke-width="2" d="M426,-741.6C426,-733.52 426,-723.67 426,-714.42"/>
<polygon fill="#8b2418" stroke="#8b2418" stroke-width="2" points="429.5,-714.59 426,-704.59 422.5,-714.59 429.5,-714.59"/>
</g>
<!-- n4 -->
<g id="node4" class="node">
<title>n4</title>
<path fill="#b8843a" stroke="#1a1612" stroke-width="1.5" d="M547.27,-613C547.27,-613 444.73,-613 444.73,-613 438.73,-613 432.73,-607 432.73,-601 432.73,-601 432.73,-589 432.73,-589 432.73,-583 438.73,-577 444.73,-577 444.73,-577 547.27,-577 547.27,-577 553.27,-577 559.27,-583 559.27,-589 559.27,-589 559.27,-601 559.27,-601 559.27,-607 553.27,-613 547.27,-613"/>
<text xml:space="preserve" text-anchor="middle" x="496" y="-591.3" font-family="Arial" font-size="11.00" fill="#fbf6eb">4 &#160;&#160;ConditionalBranch</text>
</g>
<!-- n2&#45;&gt;n4 -->
<g id="edge2" class="edge">
<title>n2&#45;&gt;n4</title>
<path fill="none" stroke="#4a3f33" stroke-width="1.3" d="M440.17,-664.6C449.97,-652.55 463.2,-636.3 474.32,-622.63"/>
<polygon fill="#4a3f33" stroke="#4a3f33" stroke-width="1.3" points="476.77,-625.16 480.37,-615.2 471.35,-620.74 476.77,-625.16"/>
<text xml:space="preserve" text-anchor="middle" x="486.57" y="-635.5" font-family="Arial" font-size="10.00" fill="#8b2418"> pausado </text>
</g>
<!-- n3 -->
<g id="node3" class="node">
<title>n3</title>
<path fill="#fbf6eb" stroke="#1a1612" stroke-width="1.5" d="M616.77,-701C616.77,-701 517.23,-701 517.23,-701 511.23,-701 505.23,-695 505.23,-689 505.23,-689 505.23,-677 505.23,-677 505.23,-671 511.23,-665 517.23,-665 517.23,-665 616.77,-665 616.77,-665 622.77,-665 628.77,-671 628.77,-677 628.77,-677 628.77,-689 628.77,-689 628.77,-695 622.77,-701 616.77,-701"/>
<text xml:space="preserve" text-anchor="middle" x="567" y="-679.3" font-family="Arial" font-size="11.00" fill="#1a1612">3 &#160;&#160;OnTouchEvent #1</text>
</g>
<!-- n3&#45;&gt;n4 -->
<g id="edge3" class="edge">
<title>n3&#45;&gt;n4</title>
<path fill="none" stroke="#8b2418" stroke-width="2" d="M552.63,-664.6C542.88,-652.78 529.78,-636.92 518.64,-623.43"/>
<polygon fill="#8b2418" stroke="#8b2418" stroke-width="2" points="521.58,-621.49 512.52,-616.01 516.18,-625.95 521.58,-621.49"/>
</g>
<!-- n5 -->
<g id="node5" class="node">
<title>n5</title>
<path fill="#8b2418" stroke="#1a1612" stroke-width="1.5" d="M434.77,-525C434.77,-525 365.23,-525 365.23,-525 359.23,-525 353.23,-519 353.23,-513 353.23,-513 353.23,-501 353.23,-501 353.23,-495 359.23,-489 365.23,-489 365.23,-489 434.77,-489 434.77,-489 440.77,-489 446.77,-495 446.77,-501 446.77,-501 446.77,-513 446.77,-513 446.77,-519 440.77,-525 434.77,-525"/>
<text xml:space="preserve" text-anchor="middle" x="400" y="-503.3" font-family="Arial" font-size="11.00" fill="#fbf6eb">5 &#160;&#160;SetVariable</text>
</g>
<!-- n4&#45;&gt;n5 -->
<g id="edge4" class="edge">
<title>n4&#45;&gt;n5</title>
<path fill="none" stroke="#8b2418" stroke-width="2" d="M432.09,-591.09C408.25,-586.51 383.38,-576.81 368.5,-557 363.44,-550.26 365.01,-542.72 369.43,-535.61"/>
<polygon fill="#8b2418" stroke="#8b2418" stroke-width="2" points="372.02,-537.97 375.6,-528 366.58,-533.57 372.02,-537.97"/>
<text xml:space="preserve" text-anchor="middle" x="379.75" y="-547.5" font-family="Arial" font-size="10.00" fill="#8b2418"> true </text>
</g>
<!-- n7 -->
<g id="node7" class="node">
<title>n7</title>
<path fill="#8b2418" stroke="#1a1612" stroke-width="1.5" d="M333.77,-437C333.77,-437 264.23,-437 264.23,-437 258.23,-437 252.23,-431 252.23,-425 252.23,-425 252.23,-413 252.23,-413 252.23,-407 258.23,-401 264.23,-401 264.23,-401 333.77,-401 333.77,-401 339.77,-401 345.77,-407 345.77,-413 345.77,-413 345.77,-425 345.77,-425 345.77,-431 339.77,-437 333.77,-437"/>
<text xml:space="preserve" text-anchor="middle" x="299" y="-415.3" font-family="Arial" font-size="11.00" fill="#fbf6eb">7 &#160;&#160;SetVariable</text>
</g>
<!-- n4&#45;&gt;n7 -->
<g id="edge5" class="edge">
<title>n4&#45;&gt;n7</title>
<path fill="none" stroke="#8b2418" stroke-width="2" d="M432.37,-589.26C390.25,-582.29 338.52,-565.43 314.5,-525 301.16,-502.54 297.84,-472.76 297.54,-450.65"/>
<polygon fill="#8b2418" stroke="#8b2418" stroke-width="2" points="301.03,-450.76 297.65,-440.72 294.03,-450.68 301.03,-450.76"/>
<text xml:space="preserve" text-anchor="middle" x="325.75" y="-503.5" font-family="Arial" font-size="10.00" fill="#8b2418"> true </text>
</g>
<!-- n8 -->
<g id="node8" class="node">
<title>n8</title>
<path fill="#fbf6eb" stroke="#1a1612" stroke-width="1.5" d="M222.77,-349C222.77,-349 141.23,-349 141.23,-349 135.23,-349 129.23,-343 129.23,-337 129.23,-337 129.23,-325 129.23,-325 129.23,-319 135.23,-313 141.23,-313 141.23,-313 222.77,-313 222.77,-313 228.77,-313 234.77,-319 234.77,-325 234.77,-325 234.77,-337 234.77,-337 234.77,-343 228.77,-349 222.77,-349"/>
<text xml:space="preserve" text-anchor="middle" x="182" y="-327.3" font-family="Arial" font-size="11.00" fill="#1a1612">8 &#160;&#160;PlaySound #1</text>
</g>
<!-- n4&#45;&gt;n8 -->
<g id="edge6" class="edge">
<title>n4&#45;&gt;n8</title>
<path fill="none" stroke="#8b2418" stroke-width="2" d="M432.32,-592.31C332.43,-588.17 146.04,-573.91 105,-525 63,-474.94 118.99,-399.09 155.33,-359.01"/>
<polygon fill="#8b2418" stroke="#8b2418" stroke-width="2" points="157.75,-361.55 162.01,-351.84 152.63,-356.77 157.75,-361.55"/>
<text xml:space="preserve" text-anchor="middle" x="104.91" y="-459.5" font-family="Arial" font-size="10.00" fill="#8b2418"> true </text>
</g>
<!-- n12 -->
<g id="node9" class="node">
<title>n12</title>
<path fill="#fbf6eb" stroke="#1a1612" stroke-width="1.5" d="M712.52,-525C712.52,-525 623.48,-525 623.48,-525 617.48,-525 611.48,-519 611.48,-513 611.48,-513 611.48,-501 611.48,-501 611.48,-495 617.48,-489 623.48,-489 623.48,-489 712.52,-489 712.52,-489 718.52,-489 724.52,-495 724.52,-501 724.52,-501 724.52,-513 724.52,-513 724.52,-519 718.52,-525 712.52,-525"/>
<text xml:space="preserve" text-anchor="middle" x="668" y="-503.3" font-family="Arial" font-size="11.00" fill="#1a1612">12 &#160;&#160;StopSound #1</text>
</g>
<!-- n4&#45;&gt;n12 -->
<g id="edge10" class="edge">
<title>n4&#45;&gt;n12</title>
<path fill="none" stroke="#8b2418" stroke-width="2" d="M543.39,-576.38C557.62,-570.65 573.13,-563.96 587,-557 601.57,-549.69 617.02,-540.68 630.47,-532.39"/>
<polygon fill="#8b2418" stroke="#8b2418" stroke-width="2" points="632.05,-535.53 638.67,-527.26 628.34,-529.6 632.05,-535.53"/>
<text xml:space="preserve" text-anchor="middle" x="618.83" y="-547.5" font-family="Arial" font-size="10.00" fill="#8b2418"> true </text>
</g>
<!-- n13 -->
<g id="node10" class="node">
<title>n13</title>
<path fill="#fbf6eb" stroke="#1a1612" stroke-width="1.5" d="M799.77,-437C799.77,-437 712.23,-437 712.23,-437 706.23,-437 700.23,-431 700.23,-425 700.23,-425 700.23,-413 700.23,-413 700.23,-407 706.23,-401 712.23,-401 712.23,-401 799.77,-401 799.77,-401 805.77,-401 811.77,-407 811.77,-413 811.77,-413 811.77,-425 811.77,-425 811.77,-431 805.77,-437 799.77,-437"/>
<text xml:space="preserve" text-anchor="middle" x="756" y="-415.3" font-family="Arial" font-size="11.00" fill="#1a1612">13 &#160;&#160;PlaySound #1</text>
</g>
<!-- n4&#45;&gt;n13 -->
<g id="edge11" class="edge">
<title>n4&#45;&gt;n13</title>
<path fill="none" stroke="#8b2418" stroke-width="2" d="M559.96,-584.2C624.42,-572.95 717.61,-552.45 741,-525 758.39,-504.59 760.85,-473.43 759.74,-450.35"/>
<polygon fill="#8b2418" stroke="#8b2418" stroke-width="2" points="763.24,-450.23 758.96,-440.53 756.26,-450.78 763.24,-450.23"/>
<text xml:space="preserve" text-anchor="middle" x="768.37" y="-503.5" font-family="Arial" font-size="10.00" fill="#8b2418"> true </text>
</g>
<!-- n14 -->
<g id="node11" class="node">
<title>n14</title>
<path fill="#8b2418" stroke="#1a1612" stroke-width="1.5" d="M898.77,-349C898.77,-349 823.23,-349 823.23,-349 817.23,-349 811.23,-343 811.23,-337 811.23,-337 811.23,-325 811.23,-325 811.23,-319 817.23,-313 823.23,-313 823.23,-313 898.77,-313 898.77,-313 904.77,-313 910.77,-319 910.77,-325 910.77,-325 910.77,-337 910.77,-337 910.77,-343 904.77,-349 898.77,-349"/>
<text xml:space="preserve" text-anchor="middle" x="861" y="-327.3" font-family="Arial" font-size="11.00" fill="#fbf6eb">14 &#160;&#160;SetVariable</text>
</g>
<!-- n4&#45;&gt;n14 -->
<g id="edge12" class="edge">
<title>n4&#45;&gt;n14</title>
<path fill="none" stroke="#8b2418" stroke-width="2" d="M560.01,-588.02C605.17,-582.68 666.69,-573.14 719,-557 751.3,-547.03 764.19,-548.99 788,-525 832.89,-479.77 850.64,-404.2 857.3,-362.3"/>
<polygon fill="#8b2418" stroke="#8b2418" stroke-width="2" points="860.75,-362.87 858.72,-352.47 853.82,-361.87 860.75,-362.87"/>
<text xml:space="preserve" text-anchor="middle" x="841.85" y="-459.5" font-family="Arial" font-size="10.00" fill="#8b2418"> true </text>
</g>
<!-- n9 -->
<g id="node12" class="node">
<title>n9</title>
<path fill="#fbf6eb" stroke="#1a1612" stroke-width="1.5" d="M278.14,-227C278.14,-227 189.86,-227 189.86,-227 183.86,-227 177.86,-221 177.86,-215 177.86,-215 177.86,-203 177.86,-203 177.86,-197 183.86,-191 189.86,-191 189.86,-191 278.14,-191 278.14,-191 284.14,-191 290.14,-197 290.14,-203 290.14,-203 290.14,-215 290.14,-215 290.14,-221 284.14,-227 278.14,-227"/>
<text xml:space="preserve" text-anchor="middle" x="234" y="-205.3" font-family="Arial" font-size="11.00" fill="#1a1612">9 &#160;&#160;Comparison [&gt;]</text>
</g>
<!-- n4&#45;&gt;n9 -->
<g id="edge7" class="edge">
<title>n4&#45;&gt;n9</title>
<path fill="none" stroke="#8b2418" stroke-width="2" d="M432.14,-592.77C357.88,-590.16 232.06,-582.05 127,-557 68.15,-542.97 0,-568.5 0,-508 0,-508 0,-508 0,-330 0,-255.21 95.81,-227 164.81,-216.38"/>
<polygon fill="#8b2418" stroke="#8b2418" stroke-width="2" points="164.95,-219.9 174.36,-215.02 163.96,-212.97 164.95,-219.9"/>
<text xml:space="preserve" text-anchor="middle" x="11.25" y="-415.5" font-family="Arial" font-size="10.00" fill="#8b2418"> true </text>
</g>
<!-- n10 -->
<g id="node13" class="node">
<title>n10</title>
<path fill="#fbf6eb" stroke="#1a1612" stroke-width="1.5" d="M312.02,-139C312.02,-139 201.98,-139 201.98,-139 195.98,-139 189.98,-133 189.98,-127 189.98,-127 189.98,-115 189.98,-115 189.98,-109 195.98,-103 201.98,-103 201.98,-103 312.02,-103 312.02,-103 318.02,-103 324.02,-109 324.02,-115 324.02,-115 324.02,-127 324.02,-127 324.02,-133 318.02,-139 312.02,-139"/>
<text xml:space="preserve" text-anchor="middle" x="257" y="-117.3" font-family="Arial" font-size="11.00" fill="#1a1612">10 &#160;&#160;ChangeVariableBy</text>
</g>
<!-- n4&#45;&gt;n10 -->
<g id="edge8" class="edge">
<title>n4&#45;&gt;n10</title>
<path fill="none" stroke="#8b2418" stroke-width="2" d="M497.19,-576.46C500.63,-510.06 503.21,-272.18 374,-159 363.28,-149.61 350.17,-142.6 336.65,-137.37"/>
<polygon fill="#8b2418" stroke="#8b2418" stroke-width="2" points="338.18,-134.19 327.58,-134.21 335.87,-140.8 338.18,-134.19"/>
<text xml:space="preserve" text-anchor="middle" x="495.65" y="-371.5" font-family="Arial" font-size="10.00" fill="#8b2418"> true </text>
</g>
<!-- n11 -->
<g id="node14" class="node">
<title>n11</title>
<path fill="#4a3f33" stroke="#1a1612" stroke-width="1.5" d="M322.52,-62C322.52,-62 275.48,-62 275.48,-62 269.48,-62 263.48,-56 263.48,-50 263.48,-50 263.48,-38 263.48,-38 263.48,-32 269.48,-26 275.48,-26 275.48,-26 322.52,-26 322.52,-26 328.52,-26 334.52,-32 334.52,-38 334.52,-38 334.52,-50 334.52,-50 334.52,-56 328.52,-62 322.52,-62"/>
<text xml:space="preserve" text-anchor="middle" x="299" y="-40.3" font-family="Arial" font-size="11.00" fill="#fbf6eb">11 &#160;&#160;Delay</text>
</g>
<!-- n4&#45;&gt;n11 -->
<g id="edge9" class="edge">
<title>n4&#45;&gt;n11</title>
<path fill="none" stroke="#8b2418" stroke-width="2" d="M520.58,-576.5C539.34,-560.9 562,-536.23 562,-508 562,-508 562,-508 562,-120 562,-75.9 423.53,-56.31 347.54,-48.88"/>
<polygon fill="#8b2418" stroke="#8b2418" stroke-width="2" points="348.31,-45.44 338.03,-47.99 347.66,-52.41 348.31,-45.44"/>
<text xml:space="preserve" text-anchor="middle" x="573.25" y="-327.5" font-family="Arial" font-size="10.00" fill="#8b2418"> true </text>
</g>
<!-- n5&#45;&gt;n4 -->
<g id="edge14" class="edge">
<title>n5&#45;&gt;n4</title>
<path fill="none" stroke="#4a3f33" stroke-width="1.3" d="M407.16,-525.44C411.98,-535.58 419.12,-548.08 428.25,-557 433.22,-561.86 438.97,-566.27 444.96,-570.21"/>
<polygon fill="#4a3f33" stroke="#4a3f33" stroke-width="1.3" points="443.14,-573.2 453.51,-575.39 446.76,-567.21 443.14,-573.2"/>
<text xml:space="preserve" text-anchor="middle" x="449.62" y="-547.5" font-family="Arial" font-size="10.00" fill="#8b2418"> pausado </text>
</g>
<!-- n5&#45;&gt;n7 -->
<g id="edge13" class="edge">
<title>n5&#45;&gt;n7</title>
<path fill="none" stroke="#8b2418" stroke-width="2" d="M379.56,-488.6C365.15,-476.32 345.59,-459.67 329.36,-445.85"/>
<polygon fill="#8b2418" stroke="#8b2418" stroke-width="2" points="331.94,-443.45 322.06,-439.64 327.4,-448.78 331.94,-443.45"/>
</g>
<!-- n6 -->
<g id="node6" class="node">
<title>n6</title>
<path fill="#5a6b3b" stroke="#1a1612" stroke-width="1.5" d="M222.52,-525C222.52,-525 133.48,-525 133.48,-525 127.48,-525 121.48,-519 121.48,-513 121.48,-513 121.48,-501 121.48,-501 121.48,-495 127.48,-489 133.48,-489 133.48,-489 222.52,-489 222.52,-489 228.52,-489 234.52,-495 234.52,-501 234.52,-501 234.52,-513 234.52,-513 234.52,-519 228.52,-525 222.52,-525"/>
<text xml:space="preserve" text-anchor="middle" x="178" y="-503.3" font-family="Arial" font-size="11.00" fill="#fbf6eb">6 &#160;&#160;RandomInteger</text>
</g>
<!-- n6&#45;&gt;n7 -->
<g id="edge15" class="edge">
<title>n6&#45;&gt;n7</title>
<path fill="none" stroke="#4a3f33" stroke-width="1.3" d="M201.64,-488.34C214.34,-478.93 230.32,-467.21 244.75,-457 250.67,-452.81 257.01,-448.41 263.18,-444.17"/>
<polygon fill="#4a3f33" stroke="#4a3f33" stroke-width="1.3" points="264.75,-447.34 271.04,-438.81 260.8,-441.56 264.75,-447.34"/>
<text xml:space="preserve" text-anchor="middle" x="259.38" y="-459.5" font-family="Arial" font-size="10.00" fill="#8b2418"> value </text>
</g>
<!-- n7&#45;&gt;n8 -->
<g id="edge16" class="edge">
<title>n7&#45;&gt;n8</title>
<path fill="none" stroke="#8b2418" stroke-width="2" d="M275.04,-400.39C258.08,-387.93 235.1,-371.03 216.21,-357.15"/>
<polygon fill="#8b2418" stroke="#8b2418" stroke-width="2" points="218.5,-354.48 208.37,-351.38 214.35,-360.12 218.5,-354.48"/>
</g>
<!-- n7&#45;&gt;n9 -->
<g id="edge17" class="edge">
<title>n7&#45;&gt;n9</title>
<path fill="none" stroke="#4a3f33" stroke-width="1.3" d="M293.46,-400.27C282.23,-364.35 256.72,-282.7 243.05,-238.95"/>
<polygon fill="#4a3f33" stroke="#4a3f33" stroke-width="1.3" points="246.44,-238.07 240.11,-229.57 239.76,-240.16 246.44,-238.07"/>
<text xml:space="preserve" text-anchor="middle" x="294.78" y="-327.5" font-family="Arial" font-size="10.00" fill="#8b2418"> tiempo </text>
</g>
<!-- n7&#45;&gt;n10 -->
<g id="edge18" class="edge">
<title>n7&#45;&gt;n10</title>
<path fill="none" stroke="#4a3f33" stroke-width="1.3" d="M310.04,-400.54C336.58,-356.13 398,-236.93 346,-159 342.8,-154.21 338.85,-150.03 334.41,-146.4"/>
<polygon fill="#4a3f33" stroke="#4a3f33" stroke-width="1.3" points="336.53,-143.61 326.32,-140.79 332.55,-149.36 336.53,-143.61"/>
<text xml:space="preserve" text-anchor="middle" x="377.75" y="-283.5" font-family="Arial" font-size="10.00" fill="#8b2418"> tiempo </text>
</g>
<!-- n8&#45;&gt;n12 -->
<g id="edge20" class="edge">
<title>n8&#45;&gt;n12</title>
<path fill="none" stroke="#5a6b3b" stroke-width="1.3" stroke-dasharray="5,2" d="M231.41,-349.69C321.1,-381.8 510.43,-449.59 607.63,-484.38"/>
<polygon fill="#5a6b3b" stroke="#5a6b3b" stroke-width="1.3" points="606.28,-487.62 616.87,-487.7 608.64,-481.03 606.28,-487.62"/>
<text xml:space="preserve" text-anchor="middle" x="489.44" y="-415.5" font-family="Arial" font-size="10.00" fill="#5a6b3b"> sound </text>
</g>
<!-- n8&#45;&gt;n9 -->
<g id="edge19" class="edge">
<title>n8&#45;&gt;n9</title>
<path fill="none" stroke="#8b2418" stroke-width="2" d="M189.67,-312.29C198.02,-293.04 211.48,-261.97 221.38,-239.11"/>
<polygon fill="#8b2418" stroke="#8b2418" stroke-width="2" points="224.5,-240.73 225.26,-230.17 218.07,-237.95 224.5,-240.73"/>
</g>
<!-- n12&#45;&gt;n13 -->
<g id="edge26" class="edge">
<title>n12&#45;&gt;n13</title>
<path fill="none" stroke="#8b2418" stroke-width="2" d="M685.81,-488.6C698.13,-476.55 714.76,-460.3 728.75,-446.63"/>
<polygon fill="#8b2418" stroke="#8b2418" stroke-width="2" points="731.05,-449.28 735.75,-439.79 726.15,-444.27 731.05,-449.28"/>
</g>
<!-- n12&#45;&gt;n13 -->
<g id="edge27" class="edge">
<title>n12&#45;&gt;n13</title>
<path fill="none" stroke="#5a6b3b" stroke-width="1.3" stroke-dasharray="5,2" d="M725,-493.58C733.04,-491.96 741.22,-490.39 749,-489 779.07,-483.64 865.03,-492.12 885,-469 907.11,-443.4 865.57,-431.13 823.88,-425.28"/>
<polygon fill="#5a6b3b" stroke="#5a6b3b" stroke-width="1.3" points="824.48,-421.82 814.12,-424.04 823.6,-428.77 824.48,-421.82"/>
<text xml:space="preserve" text-anchor="middle" x="906.92" y="-459.5" font-family="Arial" font-size="10.00" fill="#5a6b3b"> sound </text>
</g>
<!-- n13&#45;&gt;n14 -->
<g id="edge28" class="edge">
<title>n13&#45;&gt;n14</title>
<path fill="none" stroke="#8b2418" stroke-width="2" d="M777.5,-400.39C792.51,-388.1 812.78,-371.5 829.59,-357.73"/>
<polygon fill="#8b2418" stroke="#8b2418" stroke-width="2" points="831.67,-360.55 837.19,-351.51 827.23,-355.13 831.67,-360.55"/>
</g>
<!-- n14&#45;&gt;n4 -->
<g id="edge29" class="edge">
<title>n14&#45;&gt;n4</title>
<path fill="none" stroke="#4a3f33" stroke-width="1.3" d="M881.89,-349.7C910.53,-376.2 955.79,-427.5 931,-469 904.08,-514.07 873.52,-500.67 827,-525 799.17,-539.56 793.97,-547.61 764,-557 700.84,-576.79 626.01,-586 571.5,-590.29"/>
<polygon fill="#4a3f33" stroke="#4a3f33" stroke-width="1.3" points="571.52,-586.78 561.8,-591.01 572.03,-593.76 571.52,-586.78"/>
<text xml:space="preserve" text-anchor="middle" x="957.31" y="-459.5" font-family="Arial" font-size="10.00" fill="#8b2418"> pausado </text>
</g>
<!-- n9&#45;&gt;n10 -->
<g id="edge21" class="edge">
<title>n9&#45;&gt;n10</title>
<path fill="none" stroke="#8b2418" stroke-width="2" d="M208.81,-190.63C198.95,-181.59 191.32,-170.13 197.5,-159 199.82,-154.82 202.84,-151.05 206.27,-147.67"/>
<polygon fill="#8b2418" stroke="#8b2418" stroke-width="2" points="208.29,-150.53 213.83,-141.5 203.87,-145.11 208.29,-150.53"/>
<text xml:space="preserve" text-anchor="middle" x="208.75" y="-161.5" font-family="Arial" font-size="10.00" fill="#8b2418"> true </text>
</g>
<!-- n9&#45;&gt;n10 -->
<g id="edge22" class="edge">
<title>n9&#45;&gt;n10</title>
<path fill="none" stroke="#4a3f33" stroke-width="1.3" d="M238.65,-190.6C241.69,-179.25 245.72,-164.16 249.24,-151.02"/>
<polygon fill="#4a3f33" stroke="#4a3f33" stroke-width="1.3" points="252.56,-152.14 251.77,-141.57 245.8,-150.33 252.56,-152.14"/>
<text xml:space="preserve" text-anchor="middle" x="269.38" y="-161.5" font-family="Arial" font-size="10.00" fill="#8b2418"> condition </text>
</g>
<!-- n10&#45;&gt;n9 -->
<g id="edge24" class="edge">
<title>n10&#45;&gt;n9</title>
<path fill="none" stroke="#4a3f33" stroke-width="1.3" d="M287.18,-139.54C298.29,-148.36 306.69,-159.57 300,-171 297.31,-175.59 293.83,-179.65 289.86,-183.24"/>
<polygon fill="#4a3f33" stroke="#4a3f33" stroke-width="1.3" points="287.92,-180.31 282.1,-189.16 292.17,-185.87 287.92,-180.31"/>
<text xml:space="preserve" text-anchor="middle" x="320" y="-161.5" font-family="Arial" font-size="10.00" fill="#8b2418"> tiempo </text>
</g>
<!-- n10&#45;&gt;n10 -->
<g id="edge25" class="edge">
<title>n10&#45;&gt;n10</title>
<path fill="none" stroke="#4a3f33" stroke-width="1.3" d="M324.57,-128.16C342.47,-127.75 356.02,-125.36 356.02,-121 356.02,-117.66 348.07,-115.48 336.32,-114.46"/>
<polygon fill="#4a3f33" stroke="#4a3f33" stroke-width="1.3" points="336.7,-110.97 326.54,-113.95 336.34,-117.96 336.7,-110.97"/>
<text xml:space="preserve" text-anchor="middle" x="373.64" y="-117.5" font-family="Arial" font-size="10.00" fill="#8b2418"> tiempo </text>
</g>
<!-- n10&#45;&gt;n11 -->
<g id="edge23" class="edge">
<title>n10&#45;&gt;n11</title>
<path fill="none" stroke="#8b2418" stroke-width="2" d="M266.74,-102.6C271.53,-94.05 277.43,-83.52 282.87,-73.81"/>
<polygon fill="#8b2418" stroke="#8b2418" stroke-width="2" points="285.85,-75.64 287.69,-65.2 279.75,-72.22 285.85,-75.64"/>
</g>
</g>
</svg>
