<?xml version="1.0" encoding="UTF-8" standalone="no"?>
<!DOCTYPE svg PUBLIC "-//W3C//DTD SVG 1.1//EN"
 "http://www.w3.org/Graphics/SVG/1.1/DTD/svg11.dtd">
<!-- Generated by graphviz version 14.1.2 (0)
 -->
<!-- Title: PDG_MakeCode Pages: 1 -->
<svg width="962pt" height="733pt"
 viewBox="0.00 0.00 962.00 733.00" xmlns="http://www.w3.org/2000/svg" xmlns:xlink="http://www.w3.org/1999/xlink">
<g id="graph0" class="graph" transform="scale(1 1) rotate(0) translate(21.6 711.6)">
<title>PDG_MakeCode</title>
<polygon fill="#fbf6eb" stroke="none" points="-21.6,21.6 -21.6,-711.6 940.87,-711.6 940.87,21.6 -21.6,21.6"/>
<g id="clust1" class="cluster">
<title>cluster_loop</title>
<path fill="#fbf6eb" stroke="#8b2418" stroke-width="1.8" stroke-dasharray="5,2" d="M135.77,-8C135.77,-8 368.77,-8 368.77,-8 374.77,-8 380.77,-14 380.77,-20 380.77,-20 380.77,-261 380.77,-261 380.77,-267 374.77,-273 368.77,-273 368.77,-273 135.77,-273 135.77,-273 129.77,-273 123.77,-267 123.77,-261 123.77,-261 123.77,-20 123.77,-20 123.77,-14 129.77,-8 135.77,-8"/>
<text xml:space="preserve" text-anchor="start" x="157.64" y="-259.55" font-family="Arial" font-weight="bold" font-size="11.00">loop</text>
<text xml:space="preserve" text-anchor="start" x="131.77" y="-250.45" font-family="Arial" font-size="9.00" fill="#8b2418">alcance de control</text>
</g>
<!-- n1 -->
<g id="node1" class="node">
<title>n1</title>
<path fill="#34495e" stroke="#1a1612" stroke-width="1.5" d="M535.29,-690C535.29,-690 428.25,-690 428.25,-690 422.25,-690 416.25,-684 416.25,-678 416.25,-678 416.25,-666 416.25,-666 416.25,-660 422.25,-654 428.25,-654 428.25,-654 535.29,-654 535.29,-654 541.29,-654 547.29,-660 547.29,-666 547.29,-666 547.29,-678 547.29,-678 547.29,-684 541.29,-690 535.29,-690"/>
<text xml:space="preserve" text-anchor="middle" x="481.77" y="-668.3" font-family="Arial" font-size="11.00" fill="#fbf6eb">1 &#160;&#160;ProgramStartEvent</text>
</g>
<!-- n2 -->
<g id="node2" class="node">
<title>n2</title>
<path fill="#8b2418" stroke="#1a1612" stroke-width="1.5" d="M516.54,-613C516.54,-613 447,-613 447,-613 441,-613 435,-607 435,-601 435,-601 435,-589 435,-589 435,-583 441,-577 447,-577 447,-577 516.54,-577 516.54,-577 522.54,-577 528.54,-583 528.54,-589 528.54,-589 528.54,-601 528.54,-601 528.54,-607 522.54,-613 516.54,-613"/>
<text xml:space="preserve" text-anchor="middle" x="481.77" y="-591.3" font-family="Arial" font-size="11.00" fill="#fbf6eb">2 &#160;&#160;SetVariable</text>
</g>
<!-- n1&#45;&gt;n2 -->
<g id="edge1" class="edge">
<title>n1&#45;&gt;n2</title>
<path fill="none" stroke="#8b2418" stroke-width="2" d="M481.77,-653.6C481.77,-645.52 481.77,-635.67 481.77,-626.42"/>
<polygon fill="#8b2418" stroke="#8b2418" stroke-width="2" points="485.27,-626.59 481.77,-616.59 478.27,-626.59 485.27,-626.59"/>
</g>
<!-- n4 -->
<g id="node4" class="node">
<title>n4</title>
<path fill="#b8843a" stroke="#1a1612" stroke-width="1.5" d="M603.04,-525C603.04,-525 500.5,-525 500.5,-525 494.5,-525 488.5,-519 488.5,-513 488.5,-513 488.5,-501 488.5,-501 488.5,-495 494.5,-489 500.5,-489 500.5,-489 603.04,-489 603.04,-489 609.04,-489 615.04,-495 615.04,-501 615.04,-501 615.04,-513 615.04,-513 615.04,-519 609.04,-525 603.04,-525"/>
<text xml:space="preserve" text-anchor="middle" x="551.77" y="-503.3" font-family="Arial" font-size="11.00" fill="#fbf6eb">4 &#160;&#160;ConditionalBranch</text>
</g>
<!-- n2&#45;&gt;n4 -->
<g id="edge2" class="edge">
<title>n2&#45;&gt;n4</title>
<path fill="none" stroke="#4a3f33" stroke-width="1.3" d="M495.94,-576.6C505.74,-564.55 518.97,-548.3 530.09,-534.63"/>
<polygon fill="#4a3f33" stroke="#4a3f33" stroke-width="1.3" points="532.54,-537.16 536.14,-527.2 527.12,-532.74 532.54,-537.16"/>
<text xml:space="preserve" text-anchor="middle" x="542.34" y="-547.5" font-family="Arial" font-size="10.00" fill="#8b2418"> pausado </text>
</g>
<!-- n3 -->
<g id="node3" class="node">
<title>n3</title>
<path fill="#fbf6eb" stroke="#1a1612" stroke-width="1.5" d="M672.54,-613C672.54,-613 573,-613 573,-613 567,-613 561,-607 561,-601 561,-601 561,-589 561,-589 561,-583 567,-577 573,-577 573,-577 672.54,-577 672.54,-577 678.54,-577 684.54,-583 684.54,-589 684.54,-589 684.54,-601 684.54,-601 684.54,-607 678.54,-613 672.54,-613"/>
<text xml:space="preserve" text-anchor="middle" x="622.77" y="-591.3" font-family="Arial" font-size="11.00" fill="#1a1612">3 &#160;&#160;OnTouchEvent #1</text>
</g>
<!-- n3&#45;&gt;n4 -->
<g id="edge3" class="edge">
<title>n3&#45;&gt;n4</title>
<path fill="none" stroke="#8b2418" stroke-width="2" d="M608.4,-576.6C598.65,-564.78 585.55,-548.92 574.41,-535.43"/>
<polygon fill="#8b2418" stroke="#8b2418" stroke-width="2" points="577.35,-533.49 568.29,-528.01 571.95,-537.95 577.35,-533.49"/>
</g>
<!-- n5 -->
<g id="node5" class="node">
<title>n5</title>
<path fill="#8b2418" stroke="#1a1612" stroke-width="1.5" d="M537.54,-437C537.54,-437 468,-437 468,-437 462,-437 456,-431 456,-425 456,-425 456,-413 456,-413 456,-407 462,-401 468,-401 468,-401 537.54,-401 537.54,-401 543.54,-401 549.54,-407 549.54,-413 549.54,-413 549.54,-425 549.54,-425 549.54,-431 543.54,-437 537.54,-437"/>
<text xml:space="preserve" text-anchor="middle" x="502.77" y="-415.3" font-family="Arial" font-size="11.00" fill="#fbf6eb">5 &#160;&#160;SetVariable</text>
</g>
<!-- n4&#45;&gt;n5 -->
<g id="edge4" class="edge">
<title>n4&#45;&gt;n5</title>
<path fill="none" stroke="#8b2418" stroke-width="2" d="M541.85,-488.6C535.32,-477.13 526.62,-461.85 519.08,-448.62"/>
<polygon fill="#8b2418" stroke="#8b2418" stroke-width="2" points="522.33,-447.26 514.34,-440.3 516.25,-450.72 522.33,-447.26"/>
<text xml:space="preserve" text-anchor="middle" x="541.45" y="-459.5" font-family="Arial" font-size="10.00" fill="#8b2418"> true </text>
</g>
<!-- n7 -->
<g id="node7" class="node">
<title>n7</title>
<path fill="#8b2418" stroke="#1a1612" stroke-width="1.5" d="M277.54,-349C277.54,-349 208,-349 208,-349 202,-349 196,-343 196,-337 196,-337 196,-325 196,-325 196,-319 202,-313 208,-313 208,-313 277.54,-313 277.54,-313 283.54,-313 289.54,-319 289.54,-325 289.54,-325 289.54,-337 289.54,-337 289.54,-343 283.54,-349 277.54,-349"/>
<text xml:space="preserve" text-anchor="middle" x="242.77" y="-327.3" font-family="Arial" font-size="11.00" fill="#fbf6eb">7 &#160;&#160;SetVariable</text>
</g>
<!-- n4&#45;&gt;n7 -->
<g id="edge5" class="edge">
<title>n4&#45;&gt;n7</title>
<path fill="none" stroke="#8b2418" stroke-width="2" d="M488.05,-503.16C395.25,-497.54 229.95,-481.41 193.27,-437 173.93,-413.58 194.51,-381.35 214.72,-358.8"/>
<polygon fill="#8b2418" stroke="#8b2418" stroke-width="2" points="217.12,-361.35 221.45,-351.68 212.04,-356.54 217.12,-361.35"/>
<text xml:space="preserve" text-anchor="middle" x="204.52" y="-415.5" font-family="Arial" font-size="10.00" fill="#8b2418"> true </text>
</g>
<!-- n8 -->
<g id="node8" class="node">
<title>n8</title>
<path fill="#fbf6eb" stroke="#1a1612" stroke-width="1.5" d="M93.54,-227C93.54,-227 12,-227 12,-227 6,-227 0,-221 0,-215 0,-215 0,-203 0,-203 0,-197 6,-191 12,-191 12,-191 93.54,-191 93.54,-191 99.54,-191 105.54,-197 105.54,-203 105.54,-203 105.54,-215 105.54,-215 105.54,-221 99.54,-227 93.54,-227"/>
<text xml:space="preserve" text-anchor="middle" x="52.77" y="-205.3" font-family="Arial" font-size="11.00" fill="#1a1612">8 &#160;&#160;PlaySound #1</text>
</g>
<!-- n4&#45;&gt;n8 -->
<g id="edge6" class="edge">
<title>n4&#45;&gt;n8</title>
<path fill="none" stroke="#8b2418" stroke-width="2" d="M487.87,-503.5C404.13,-499.46 262.32,-489.73 214.77,-469 119.83,-427.6 75.47,-298.64 59.76,-239.81"/>
<polygon fill="#8b2418" stroke="#8b2418" stroke-width="2" points="63.21,-239.17 57.35,-230.34 56.43,-240.9 63.21,-239.17"/>
<text xml:space="preserve" text-anchor="middle" x="129.26" y="-371.5" font-family="Arial" font-size="10.00" fill="#8b2418"> true </text>
</g>
<!-- n12 -->
<g id="node9" class="node">
<title>n12</title>
<path fill="#fbf6eb" stroke="#1a1612" stroke-width="1.5" d="M682.29,-437C682.29,-437 593.25,-437 593.25,-437 587.25,-437 581.25,-431 581.25,-425 581.25,-425 581.25,-413 581.25,-413 581.25,-407 587.25,-401 593.25,-401 593.25,-401 682.29,-401 682.29,-401 688.29,-401 694.29,-407 694.29,-413 694.29,-413 694.29,-425 694.29,-425 694.29,-431 688.29,-437 682.29,-437"/>
<text xml:space="preserve" text-anchor="middle" x="637.77" y="-415.3" font-family="Arial" font-size="11.00" fill="#1a1612">12 &#160;&#160;StopSound #1</text>
</g>
<!-- n4&#45;&gt;n12 -->
<g id="edge9" class="edge">
<title>n4&#45;&gt;n12</title>
<path fill="none" stroke="#8b2418" stroke-width="2" d="M569.17,-488.6C581.22,-476.55 597.47,-460.3 611.14,-446.63"/>
<polygon fill="#8b2418" stroke="#8b2418" stroke-width="2" points="613.36,-449.36 617.96,-439.81 608.41,-444.41 613.36,-449.36"/>
<text xml:space="preserve" text-anchor="middle" x="611.17" y="-459.5" font-family="Arial" font-size="10.00" fill="#8b2418"> true </text>
</g>
<!-- n13 -->
<g id="node10" class="node">
<title>n13</title>
<path fill="#fbf6eb" stroke="#1a1612" stroke-width="1.5" d="M769.54,-349C769.54,-349 682,-349 682,-349 676,-349 670,-343 670,-337 670,-337 670,-325 670,-325 670,-319 676,-313 682,-313 682,-313 769.54,-313 769.54,-313 775.54,-313 781.54,-319 781.54,-325 781.54,-325 781.54,-337 781.54,-337 781.54,-343 775.54,-349 769.54,-349"/>
<text xml:space="preserve" text-anchor="middle" x="725.77" y="-327.3" font-family="Arial" font-size="11.00" fill="#1a1612">13 &#160;&#160;PlaySound #1</text>
</g>
<!-- n4&#45;&gt;n13 -->
<g id="edge10" class="edge">
<title>n4&#45;&gt;n13</title>
<path fill="none" stroke="#8b2418" stroke-width="2" d="M615.74,-493.9C649.21,-484.2 687.87,-467.03 710.77,-437 726.86,-415.9 729.59,-385.29 728.9,-362.56"/>
<polygon fill="#8b2418" stroke="#8b2418" stroke-width="2" points="732.4,-362.37 728.3,-352.6 725.41,-362.79 732.4,-362.37"/>
<text xml:space="preserve" text-anchor="middle" x="736.95" y="-415.5" font-family="Arial" font-size="10.00" fill="#8b2418"> true </text>
</g>
<!-- n14 -->
<g id="node11" class="node">
<title>n14</title>
<path fill="#8b2418" stroke="#1a1612" stroke-width="1.5" d="M763.54,-227C763.54,-227 688,-227 688,-227 682,-227 676,-221 676,-215 676,-215 676,-203 676,-203 676,-197 682,-191 688,-191 688,-191 763.54,-191 763.54,-191 769.54,-191 775.54,-197 775.54,-203 775.54,-203 775.54,-215 775.54,-215 775.54,-221 769.54,-227 763.54,-227"/>
<text xml:space="preserve" text-anchor="middle" x="725.77" y="-205.3" font-family="Arial" font-size="11.00" fill="#fbf6eb">14 &#160;&#160;SetVariable</text>
</g>
<!-- n4&#45;&gt;n14 -->
<g id="edge11" class="edge">
<title>n4&#45;&gt;n14</title>
<path fill="none" stroke="#8b2418" stroke-width="2" d="M615.57,-501.25C661.38,-494.35 720.95,-477.57 755.77,-437 793.66,-392.84 815.25,-368.5 797.77,-313 788.72,-284.25 768.46,-256.53 751.74,-237.1"/>
<polygon fill="#8b2418" stroke="#8b2418" stroke-width="2" points="754.43,-234.86 745.16,-229.73 749.21,-239.52 754.43,-234.86"/>
<text xml:space="preserve" text-anchor="middle" x="812.21" y="-371.5" font-family="Arial" font-size="10.00" fill="#8b2418"> true </text>
</g>
<!-- n10 -->
<g id="node13" class="node">
<title>n10</title>
<path fill="#fbf6eb" stroke="#1a1612" stroke-width="1.5" d="M350.79,-139C350.79,-139 240.75,-139 240.75,-139 234.75,-139 228.75,-133 228.75,-127 228.75,-127 228.75,-115 228.75,-115 228.75,-109 234.75,-103 240.75,-103 240.75,-103 350.79,-103 350.79,-103 356.79,-103 362.79,-109 362.79,-115 362.79,-115 362.79,-127 362.79,-127 362.79,-133 356.79,-139 350.79,-139"/>
<text xml:space="preserve" text-anchor="middle" x="295.77" y="-117.3" font-family="Arial" font-size="11.00" fill="#1a1612">10 &#160;&#160;ChangeVariableBy</text>
</g>
<!-- n4&#45;&gt;n10 -->
<g id="edge7" class="edge">
<title>n4&#45;&gt;n10</title>
<path fill="none" stroke="#8b2418" stroke-width="2" d="M509.85,-488.31C486.54,-476.66 458.54,-459.41 439.77,-437 364.32,-346.89 390.65,-298.33 342.77,-191 336.29,-176.48 335.49,-172.3 326.77,-159 324.63,-155.74 322.25,-152.45 319.78,-149.23"/>
<polygon fill="#8b2418" stroke="#8b2418" stroke-width="2" points="322.72,-147.31 313.7,-141.76 317.29,-151.73 322.72,-147.31"/>
<text xml:space="preserve" text-anchor="middle" x="400.11" y="-327.5" font-family="Arial" font-size="10.00" fill="#8b2418"> true </text>
</g>
<!-- n11 -->
<g id="node14" class="node">
<title>n11</title>
<path fill="#4a3f33" stroke="#1a1612" stroke-width="1.5" d="M319.29,-62C319.29,-62 272.25,-62 272.25,-62 266.25,-62 260.25,-56 260.25,-50 260.25,-50 260.25,-38 260.25,-38 260.25,-32 266.25,-26 272.25,-26 272.25,-26 319.29,-26 319.29,-26 325.29,-26 331.29,-32 331.29,-38 331.29,-38 331.29,-50 331.29,-50 331.29,-56 325.29,-62 319.29,-62"/>
<text xml:space="preserve" text-anchor="middle" x="295.77" y="-40.3" font-family="Arial" font-size="11.00" fill="#fbf6eb">11 &#160;&#160;Delay</text>
</g>
<!-- n4&#45;&gt;n11 -->
<g id="edge8" class="edge">
<title>n4&#45;&gt;n11</title>
<path fill="none" stroke="#8b2418" stroke-width="2" d="M615.45,-503.08C715.14,-496.74 896.77,-477.33 896.77,-420 896.77,-420 896.77,-420 896.77,-120 896.77,-64.49 487.88,-49.53 344.63,-45.99"/>
<polygon fill="#8b2418" stroke="#8b2418" stroke-width="2" points="345.12,-42.5 335.04,-45.76 344.95,-49.5 345.12,-42.5"/>
<text xml:space="preserve" text-anchor="middle" x="908.02" y="-283.5" font-family="Arial" font-size="10.00" fill="#8b2418"> true </text>
</g>
<!-- n5&#45;&gt;n7 -->
<g id="edge12" class="edge">
<title>n5&#45;&gt;n7</title>
<path fill="none" stroke="#8b2418" stroke-width="2" d="M455.55,-408.89C425.21,-402.46 385.17,-392.87 350.77,-381 329.92,-373.8 307.6,-364.05 288.7,-355.13"/>
<polygon fill="#8b2418" stroke="#8b2418" stroke-width="2" points="290.38,-352.06 279.85,-350.89 287.35,-358.37 290.38,-352.06"/>
</g>
<!-- n5&#45;&gt;n14 -->
<g id="edge13" class="edge">
<title>n5&#45;&gt;n14</title>
<path fill="none" stroke="#4a3f33" stroke-width="1.3" d="M545.73,-400.26C555.35,-395 564.99,-388.58 572.77,-381 597.61,-356.8 589.33,-340.05 611.02,-313 635.12,-282.95 668.38,-254.14 692.89,-234.67"/>
<polygon fill="#4a3f33" stroke="#4a3f33" stroke-width="1.3" points="694.88,-237.56 700.6,-228.64 690.57,-232.04 694.88,-237.56"/>
<text xml:space="preserve" text-anchor="middle" x="632.39" y="-327.5" font-family="Arial" font-size="10.00" fill="#8b2418"> pausado </text>
</g>
<!-- n6 -->
<g id="node6" class="node">
<title>n6</title>
<path fill="#5a6b3b" stroke="#1a1612" stroke-width="1.5" d="M333.29,-437C333.29,-437 244.25,-437 244.25,-437 238.25,-437 232.25,-431 232.25,-425 232.25,-425 232.25,-413 232.25,-413 232.25,-407 238.25,-401 244.25,-401 244.25,-401 333.29,-401 333.29,-401 339.29,-401 345.29,-407 345.29,-413 345.29,-413 345.29,-425 345.29,-425 345.29,-431 339.29,-437 333.29,-437"/>
<text xml:space="preserve" text-anchor="middle" x="288.77" y="-415.3" font-family="Arial" font-size="11.00" fill="#fbf6eb">6 &#160;&#160;RandomInteger</text>
</g>
<!-- n6&#45;&gt;n7 -->
<g id="edge14" class="edge">
<title>n6&#45;&gt;n7</title>
<path fill="none" stroke="#4a3f33" stroke-width="1.3" d="M279.46,-400.6C273.27,-389.02 264.99,-373.54 257.87,-360.22"/>
<polygon fill="#4a3f33" stroke="#4a3f33" stroke-width="1.3" points="260.95,-358.57 253.15,-351.41 254.78,-361.88 260.95,-358.57"/>
<text xml:space="preserve" text-anchor="middle" x="286.15" y="-371.5" font-family="Arial" font-size="10.00" fill="#8b2418"> tiempo </text>
</g>
<!-- n7&#45;&gt;n8 -->
<g id="edge15" class="edge">
<title>n7&#45;&gt;n8</title>
<path fill="none" stroke="#8b2418" stroke-width="2" d="M195.37,-313.49C170.52,-303.69 140.24,-289.87 115.77,-273 101.15,-262.92 86.96,-249.2 75.77,-237.14"/>
<polygon fill="#8b2418" stroke="#8b2418" stroke-width="2" points="78.44,-234.87 69.15,-229.77 73.23,-239.55 78.44,-234.87"/>
</g>
<!-- n9 -->
<g id="node12" class="node">
<title>n9</title>
<path fill="#fbf6eb" stroke="#1a1612" stroke-width="1.5" d="M248.04,-227C248.04,-227 175.5,-227 175.5,-227 169.5,-227 163.5,-221 163.5,-215 163.5,-215 163.5,-203 163.5,-203 163.5,-197 169.5,-191 175.5,-191 175.5,-191 248.04,-191 248.04,-191 254.04,-191 260.04,-197 260.04,-203 260.04,-203 260.04,-215 260.04,-215 260.04,-221 254.04,-227 248.04,-227"/>
<text xml:space="preserve" text-anchor="middle" x="211.77" y="-205.3" font-family="Arial" font-size="11.00" fill="#1a1612">9 &#160;&#160;Comparison</text>
</g>
<!-- n7&#45;&gt;n9 -->
<g id="edge16" class="edge">
<title>n7&#45;&gt;n9</title>
<path fill="none" stroke="#4a3f33" stroke-width="1.3" d="M238.2,-312.29C233.2,-292.95 225.12,-261.68 219.21,-238.8"/>
<polygon fill="#4a3f33" stroke="#4a3f33" stroke-width="1.3" points="222.64,-238.1 216.75,-229.29 215.87,-239.85 222.64,-238.1"/>
<text xml:space="preserve" text-anchor="middle" x="250.37" y="-283.5" font-family="Arial" font-size="10.00" fill="#8b2418"> tiempo </text>
</g>
<!-- n7&#45;&gt;n10 -->
<g id="edge17" class="edge">
<title>n7&#45;&gt;n10</title>
<path fill="none" stroke="#4a3f33" stroke-width="1.3" d="M261.64,-312.6C266.92,-306.83 272.19,-300.06 275.77,-293 300.84,-243.55 295.96,-226.13 301.77,-171 302.44,-164.66 302.21,-157.87 301.55,-151.43"/>
<polygon fill="#4a3f33" stroke="#4a3f33" stroke-width="1.3" points="305.03,-151.03 300.16,-141.62 298.1,-152.02 305.03,-151.03"/>
<text xml:space="preserve" text-anchor="middle" x="317.54" y="-205.5" font-family="Arial" font-size="10.00" fill="#8b2418"> tiempo </text>
</g>
<!-- n8&#45;&gt;n12 -->
<g id="edge19" class="edge">
<title>n8&#45;&gt;n12</title>
<path fill="none" stroke="#5a6b3b" stroke-width="1.3" stroke-dasharray="5,2" d="M64.65,-227.73C75.86,-242.77 94.14,-263.4 115.77,-273 148.31,-287.44 240.43,-276.67 275.77,-281 349.05,-289.98 369.16,-288.4 438.77,-313 498.27,-334.03 561.93,-370.33 600.8,-394.26"/>
<polygon fill="#5a6b3b" stroke="#5a6b3b" stroke-width="1.3" points="598.59,-397.01 608.94,-399.32 602.29,-391.07 598.59,-397.01"/>
<text xml:space="preserve" text-anchor="middle" x="536.44" y="-327.5" font-family="Arial" font-size="10.00" fill="#5a6b3b"> sound </text>
</g>
<!-- n8&#45;&gt;n10 -->
<g id="edge18" class="edge">
<title>n8&#45;&gt;n10</title>
<path fill="none" stroke="#8b2418" stroke-width="2" d="M102.83,-190.29C140.72,-176.87 193.01,-158.37 233.59,-144.01"/>
<polygon fill="#8b2418" stroke="#8b2418" stroke-width="2" points="234.67,-147.34 242.93,-140.7 232.33,-140.74 234.67,-147.34"/>
</g>
<!-- n12&#45;&gt;n13 -->
<g id="edge24" class="edge">
<title>n12&#45;&gt;n13</title>
<path fill="none" stroke="#8b2418" stroke-width="2" d="M655.58,-400.6C667.9,-388.55 684.53,-372.3 698.52,-358.63"/>
<polygon fill="#8b2418" stroke="#8b2418" stroke-width="2" points="700.82,-361.28 705.52,-351.79 695.92,-356.27 700.82,-361.28"/>
</g>
<!-- n12&#45;&gt;n13 -->
<g id="edge25" class="edge">
<title>n12&#45;&gt;n13</title>
<path fill="none" stroke="#5a6b3b" stroke-width="1.3" stroke-dasharray="5,2" d="M632.61,-400.29C630.78,-390.31 630.47,-378.06 636.52,-369 642.15,-360.58 650.08,-354.07 658.92,-349.04"/>
<polygon fill="#5a6b3b" stroke="#5a6b3b" stroke-width="1.3" points="660.43,-352.2 667.87,-344.66 657.35,-345.92 660.43,-352.2"/>
<text xml:space="preserve" text-anchor="middle" x="652.64" y="-371.5" font-family="Arial" font-size="10.00" fill="#5a6b3b"> sound </text>
</g>
<!-- n13&#45;&gt;n14 -->
<g id="edge26" class="edge">
<title>n13&#45;&gt;n14</title>
<path fill="none" stroke="#8b2418" stroke-width="2" d="M725.77,-312.29C725.77,-293.4 725.77,-263.11 725.77,-240.39"/>
<polygon fill="#8b2418" stroke="#8b2418" stroke-width="2" points="729.27,-240.42 725.77,-230.42 722.27,-240.42 729.27,-240.42"/>
</g>
<!-- n9&#45;&gt;n10 -->
<g id="edge20" class="edge">
<title>n9&#45;&gt;n10</title>
<path fill="none" stroke="#8b2418" stroke-width="2" d="M206.02,-190.33C203.89,-180.35 203.26,-168.1 209.27,-159 212.26,-154.48 215.92,-150.5 220.04,-147.01"/>
<polygon fill="#8b2418" stroke="#8b2418" stroke-width="2" points="221.74,-150.09 227.89,-141.47 217.71,-144.38 221.74,-150.09"/>
<text xml:space="preserve" text-anchor="middle" x="220.52" y="-161.5" font-family="Arial" font-size="10.00" fill="#8b2418"> true </text>
</g>
<!-- n9&#45;&gt;n11 -->
<g id="edge21" class="edge">
<title>n9&#45;&gt;n11</title>
<path fill="none" stroke="#8b2418" stroke-width="2" d="M201.08,-190.4C189.28,-168.48 173.98,-130.55 190.27,-103 202.78,-81.85 226.05,-67.89 247.56,-58.98"/>
<polygon fill="#8b2418" stroke="#8b2418" stroke-width="2" points="248.65,-62.31 256.76,-55.49 246.17,-55.77 248.65,-62.31"/>
<text xml:space="preserve" text-anchor="middle" x="201.52" y="-117.5" font-family="Arial" font-size="10.00" fill="#8b2418"> true </text>
</g>
<!-- n10&#45;&gt;n9 -->
<g id="edge23" class="edge">
<title>n10&#45;&gt;n9</title>
<path fill="none" stroke="#4a3f33" stroke-width="1.3" d="M278.51,-139.67C266.57,-151.89 250.49,-168.36 237.1,-182.06"/>
<polygon fill="#4a3f33" stroke="#4a3f33" stroke-width="1.3" points="234.63,-179.59 230.14,-189.19 239.63,-184.48 234.63,-179.59"/>
<text xml:space="preserve" text-anchor="middle" x="276.42" y="-161.5" font-family="Arial" font-size="10.00" fill="#8b2418"> tiempo </text>
</g>
<!-- n10&#45;&gt;n11 -->
<g id="edge22" class="edge">
<title>n10&#45;&gt;n11</title>
<path fill="none" stroke="#8b2418" stroke-width="2" d="M295.77,-102.6C295.77,-94.52 295.77,-84.67 295.77,-75.42"/>
<polygon fill="#8b2418" stroke="#8b2418" stroke-width="2" points="299.27,-75.59 295.77,-65.59 292.27,-75.59 299.27,-75.59"/>
</g>
</g>
</svg>
