<svg width="1280" height="720" viewBox="0 0 1280 720" fill="none" xmlns="http://www.w3.org/2000/svg">
<g clip-path="url(#clip0_410_4355)">
<rect width="1280" height="720" fill="#ECFAFF"/>
<rect width="1280" height="720" fill="#ECFAFF"/>
<path d="M397.552 271C396.97 271 396.408 271.017 395.864 271.058C394.831 271.133 393.806 271.288 392.798 271.521C391.885 271.745 390.999 272.056 390.147 272.448C389.347 272.827 388.591 273.293 387.897 273.839C387.553 274.109 387.233 274.4 386.927 274.712C386.331 275.331 385.783 275.997 385.287 276.718C384.788 277.438 384.34 278.206 383.937 279.025C383.537 279.844 383.185 280.717 382.882 281.634C382.571 282.588 382.319 283.56 382.125 284.543C381.936 285.548 381.774 286.607 381.633 287.724C381.495 288.84 381.374 290.014 381.281 291.242C381.184 292.526 381.114 293.812 381.071 295.099C380.976 297.942 380.976 300.786 381.071 303.629C381.116 305.016 381.188 306.339 381.281 307.601C381.374 308.863 381.491 310.067 381.633 311.207C381.77 312.351 381.936 313.43 382.125 314.448C382.329 315.47 382.583 316.441 382.882 317.358C383.185 318.282 383.537 319.151 383.937 319.97C384.34 320.789 384.788 321.56 385.287 322.277C385.783 322.995 386.331 323.664 386.927 324.284C387.852 325.222 388.94 325.988 390.142 326.547C390.99 326.95 391.881 327.261 392.798 327.474C393.277 327.593 393.77 327.687 394.28 327.765C394.789 327.843 395.32 327.9 395.864 327.941C396.978 328.02 398.098 328.02 399.212 327.941C399.746 327.9 400.267 327.84 400.77 327.765C401.258 327.69 401.743 327.593 402.223 327.474C403.553 327.158 404.821 326.629 405.976 325.908C406.706 325.447 407.377 324.902 407.974 324.284C408.589 323.662 409.148 322.991 409.648 322.277C410.158 321.557 410.612 320.789 411.008 319.97C411.408 319.151 411.756 318.278 412.053 317.361C412.354 316.407 412.595 315.436 412.773 314.452C412.979 313.43 413.151 312.351 413.306 311.207C413.461 310.067 413.589 308.863 413.692 307.601C413.796 306.339 413.871 305.016 413.923 303.632C414.026 300.79 414.026 297.945 413.923 295.103C413.875 293.815 413.798 292.53 413.692 291.246C413.589 290.014 413.461 288.844 413.306 287.727C413.154 286.611 412.976 285.548 412.773 284.547C412.593 283.563 412.352 282.591 412.049 281.637C411.767 280.743 411.418 279.87 411.008 279.025C410.425 277.829 409.7 276.705 408.849 275.676C408.294 275.015 407.684 274.4 407.024 273.839C406.353 273.291 405.615 272.825 404.829 272.452C403.545 271.845 402.176 271.435 400.766 271.233C400.251 271.154 399.732 271.095 399.212 271.058C398.659 271.018 398.107 270.999 397.552 271Z" fill="#35C2FF"/>
<mask id="mask0_410_4355" style="mask-type:alpha" maskUnits="userSpaceOnUse" x="353" y="244" width="89" height="243">
<path d="M353 244.691L353.035 486.202L441.913 486.209V244.691H353ZM397.501 262.328C398.663 262.328 399.784 262.378 400.861 262.48C401.938 262.582 402.972 262.734 403.961 262.938C404.95 263.141 405.9 263.395 406.804 263.696C407.705 264.001 408.565 264.357 409.378 264.763C411.793 265.945 413.906 267.663 415.555 269.787C416.114 270.499 416.624 271.261 417.095 272.074C417.562 272.877 418.003 273.72 418.413 274.605C418.819 275.485 419.202 276.41 419.554 277.372C419.907 278.338 420.232 279.337 420.524 280.381C420.815 281.424 421.079 282.508 421.313 283.629C421.55 284.751 421.754 285.913 421.93 287.115C422.106 288.315 422.251 289.554 422.37 290.838C422.485 292.119 422.573 293.44 422.634 294.802C422.753 297.626 422.753 300.454 422.634 303.278C422.573 304.66 422.485 306.002 422.37 307.306C422.251 308.607 422.106 309.867 421.93 311.087C421.754 312.306 421.546 313.488 421.313 314.627C421.076 315.765 420.818 316.863 420.524 317.919C420.229 318.976 419.907 319.993 419.554 320.968C419.202 321.944 418.823 322.879 418.413 323.773C418.003 324.668 417.562 325.518 417.091 326.331C416.624 327.144 416.114 327.906 415.558 328.618C414.459 330.02 413.159 331.252 411.699 332.273C410.97 332.781 410.198 333.235 409.381 333.642C408.565 334.048 407.705 334.404 406.804 334.709C405.872 335.021 404.921 335.276 403.957 335.471C402.972 335.674 401.938 335.827 400.861 335.928C399.784 336.03 398.663 336.081 397.498 336.081C396.326 336.081 395.198 336.03 394.114 335.928C393.067 335.832 392.027 335.679 390.997 335.471C390.028 335.276 389.072 335.021 388.134 334.709C387.247 334.412 386.381 334.056 385.542 333.642C384.733 333.243 383.954 332.786 383.211 332.273C381.744 331.257 380.439 330.023 379.342 328.614C378.777 327.89 378.264 327.127 377.805 326.331C377.326 325.499 376.884 324.646 376.484 323.773C376.077 322.879 375.695 321.944 375.342 320.968C374.99 319.993 374.668 318.976 374.376 317.919C374.075 316.831 373.811 315.733 373.584 314.627C373.347 313.488 373.143 312.306 372.97 311.087C372.794 309.867 372.646 308.607 372.53 307.306C372.412 306.002 372.327 304.66 372.266 303.275C372.147 300.452 372.147 297.625 372.266 294.802C372.323 293.44 372.412 292.119 372.53 290.838C372.646 289.558 372.794 288.315 372.97 287.112C373.143 285.913 373.35 284.751 373.584 283.629C373.821 282.508 374.082 281.424 374.376 280.381C374.668 279.337 374.99 278.338 375.342 277.372C375.695 276.41 376.077 275.489 376.487 274.605C376.894 273.724 377.335 272.877 377.805 272.074C378.273 271.261 378.787 270.499 379.342 269.787C380.443 268.383 381.747 267.151 383.211 266.132C383.943 265.624 384.722 265.17 385.542 264.763C386.362 264.357 387.226 264.001 388.134 263.696C389.045 263.391 389.998 263.141 390.994 262.938C391.99 262.734 393.03 262.582 394.114 262.48C395.198 262.378 396.326 262.328 397.501 262.328ZM388.005 395.928H406.892V468.576H397.65V404.268H388.005V395.928Z" fill="#34C3FF"/>
</mask>
<g mask="url(#mask0_410_4355)">
<path d="M353 244.691L353.035 486.202L441.913 486.209V244.691H353ZM397.501 262.328C398.663 262.328 399.784 262.378 400.861 262.48C401.938 262.582 402.972 262.734 403.961 262.938C404.95 263.141 405.9 263.395 406.804 263.696C407.705 264.001 408.565 264.357 409.378 264.763C411.793 265.945 413.906 267.663 415.555 269.787C416.114 270.499 416.624 271.261 417.095 272.074C417.562 272.877 418.003 273.72 418.413 274.605C418.819 275.485 419.202 276.41 419.554 277.372C419.907 278.338 420.232 279.337 420.524 280.381C420.815 281.424 421.079 282.508 421.313 283.629C421.55 284.751 421.754 285.913 421.93 287.115C422.106 288.315 422.251 289.554 422.37 290.838C422.485 292.119 422.573 293.44 422.634 294.802C422.753 297.626 422.753 300.454 422.634 303.278C422.573 304.66 422.485 306.002 422.37 307.306C422.251 308.607 422.106 309.867 421.93 311.087C421.754 312.306 421.546 313.488 421.313 314.627C421.076 315.765 420.818 316.863 420.524 317.919C420.229 318.976 419.907 319.993 419.554 320.968C419.202 321.944 418.823 322.879 418.413 323.773C418.003 324.668 417.562 325.518 417.091 326.331C416.624 327.144 416.114 327.906 415.558 328.618C414.459 330.02 413.159 331.252 411.699 332.273C410.97 332.781 410.198 333.235 409.381 333.642C408.565 334.048 407.705 334.404 406.804 334.709C405.872 335.021 404.921 335.276 403.957 335.471C402.972 335.674 401.938 335.827 400.861 335.928C399.784 336.03 398.663 336.081 397.498 336.081C396.326 336.081 395.198 336.03 394.114 335.928C393.067 335.832 392.027 335.679 390.997 335.471C390.028 335.276 389.072 335.021 388.134 334.709C387.247 334.412 386.381 334.056 385.542 333.642C384.733 333.243 383.954 332.786 383.211 332.273C381.744 331.257 380.439 330.023 379.342 328.614C378.777 327.89 378.264 327.127 377.805 326.331C377.326 325.499 376.884 324.646 376.484 323.773C376.077 322.879 375.695 321.944 375.342 320.968C374.99 319.993 374.668 318.976 374.376 317.919C374.075 316.831 373.811 315.733 373.584 314.627C373.347 313.488 373.143 312.306 372.97 311.087C372.794 309.867 372.646 308.607 372.53 307.306C372.412 306.002 372.327 304.66 372.266 303.275C372.147 300.452 372.147 297.625 372.266 294.802C372.323 293.44 372.412 292.119 372.53 290.838C372.646 289.558 372.794 288.315 372.97 287.112C373.143 285.913 373.35 284.751 373.584 283.629C373.821 282.508 374.082 281.424 374.376 280.381C374.668 279.337 374.99 278.338 375.342 277.372C375.695 276.41 376.077 275.489 376.487 274.605C376.894 273.724 377.335 272.877 377.805 272.074C378.273 271.261 378.787 270.499 379.342 269.787C380.443 268.383 381.747 267.151 383.211 266.132C383.943 265.624 384.722 265.17 385.542 264.763C386.362 264.357 387.226 264.001 388.134 263.696C389.045 263.391 389.998 263.141 390.994 262.938C391.99 262.734 393.03 262.582 394.114 262.48C395.198 262.378 396.326 262.328 397.501 262.328ZM388.005 395.928H406.892V468.576H397.65V404.268H388.005V395.928Z" fill="#35C2FF"/>
<rect x="352.848" y="368.586" width="89.6325" height="117.419" fill="#2E91E9"/>
</g>
<path d="M246 131V590H549V131.003H246.003L246 131ZM327.212 218.859H467.791V512.016H327.212V218.859Z" fill="url(#paint0_linear_410_4355)"/>
<path d="M749.042 279.092L734.177 321H721.402L706.537 279.092H717.402L727.79 310.732L738.237 279.092H749.042ZM784.71 303.807C784.71 304.762 784.65 305.757 784.531 306.792H761.428C761.587 308.861 762.244 310.453 763.398 311.568C764.592 312.642 766.044 313.18 767.756 313.18C770.303 313.18 772.074 312.105 773.069 309.956H783.934C783.377 312.145 782.362 314.115 780.889 315.866C779.457 317.617 777.646 318.99 775.457 319.985C773.268 320.98 770.82 321.478 768.114 321.478C764.85 321.478 761.945 320.781 759.398 319.388C756.851 317.995 754.861 316.005 753.428 313.418C751.995 310.831 751.279 307.807 751.279 304.344C751.279 300.882 751.976 297.857 753.368 295.27C754.801 292.683 756.791 290.693 759.338 289.3C761.885 287.907 764.811 287.211 768.114 287.211C771.338 287.211 774.203 287.888 776.71 289.241C779.218 290.594 781.168 292.524 782.561 295.031C783.994 297.539 784.71 300.464 784.71 303.807ZM774.263 301.121C774.263 299.369 773.666 297.976 772.472 296.942C771.278 295.907 769.785 295.39 767.995 295.39C766.283 295.39 764.831 295.887 763.637 296.882C762.482 297.877 761.766 299.29 761.487 301.121H774.263ZM800.304 293.24C801.498 291.41 802.99 289.977 804.781 288.942C806.572 287.868 808.562 287.33 810.751 287.33V298.136H807.945C805.398 298.136 803.488 298.693 802.214 299.807C800.941 300.882 800.304 302.792 800.304 305.538V321H790.095V287.689H800.304V293.24ZM813.601 304.285C813.601 300.862 814.237 297.857 815.511 295.27C816.824 292.683 818.595 290.693 820.824 289.3C823.053 287.907 825.54 287.211 828.286 287.211C830.475 287.211 832.465 287.669 834.256 288.584C836.087 289.499 837.52 290.733 838.554 292.285V276.823H848.763V321H838.554V316.224C837.599 317.816 836.226 319.09 834.435 320.045C832.684 321 830.634 321.478 828.286 321.478C825.54 321.478 823.053 320.781 820.824 319.388C818.595 317.955 816.824 315.946 815.511 313.359C814.237 310.732 813.601 307.707 813.601 304.285ZM838.554 304.344C838.554 301.797 837.838 299.787 836.405 298.315C835.012 296.842 833.301 296.106 831.271 296.106C829.241 296.106 827.51 296.842 826.077 298.315C824.684 299.748 823.988 301.737 823.988 304.285C823.988 306.832 824.684 308.861 826.077 310.374C827.51 311.846 829.241 312.583 831.271 312.583C833.301 312.583 835.012 311.846 836.405 310.374C837.838 308.901 838.554 306.891 838.554 304.344ZM854.118 304.285C854.118 300.862 854.755 297.857 856.029 295.27C857.342 292.683 859.113 290.693 861.342 289.3C863.57 287.907 866.058 287.211 868.804 287.211C871.152 287.211 873.202 287.689 874.953 288.644C876.744 289.599 878.117 290.853 879.072 292.405V287.689H889.28V321H879.072V316.284C878.077 317.836 876.684 319.09 874.893 320.045C873.142 321 871.092 321.478 868.744 321.478C866.038 321.478 863.57 320.781 861.342 319.388C859.113 317.955 857.342 315.946 856.029 313.359C854.755 310.732 854.118 307.707 854.118 304.285ZM879.072 304.344C879.072 301.797 878.356 299.787 876.923 298.315C875.53 296.842 873.819 296.106 871.789 296.106C869.759 296.106 868.028 296.842 866.595 298.315C865.202 299.748 864.506 301.737 864.506 304.285C864.506 306.832 865.202 308.861 866.595 310.374C868.028 311.846 869.759 312.583 871.789 312.583C873.819 312.583 875.53 311.846 876.923 310.374C878.356 308.901 879.072 306.891 879.072 304.344ZM894.636 304.285C894.636 300.862 895.273 297.857 896.546 295.27C897.86 292.683 899.631 290.693 901.859 289.3C904.088 287.907 906.575 287.211 909.322 287.211C911.511 287.211 913.5 287.669 915.291 288.584C917.122 289.499 918.555 290.733 919.59 292.285V276.823H929.798V321H919.59V316.224C918.634 317.816 917.261 319.09 915.47 320.045C913.719 321 911.67 321.478 909.322 321.478C906.575 321.478 904.088 320.781 901.859 319.388C899.631 317.955 897.86 315.946 896.546 313.359C895.273 310.732 894.636 307.707 894.636 304.285ZM919.59 304.344C919.59 301.797 918.873 299.787 917.441 298.315C916.048 296.842 914.336 296.106 912.306 296.106C910.277 296.106 908.546 296.842 907.113 298.315C905.72 299.748 905.023 301.737 905.023 304.285C905.023 306.832 905.72 308.861 907.113 310.374C908.546 311.846 910.277 312.583 912.306 312.583C914.336 312.583 916.048 311.846 917.441 310.374C918.873 308.901 919.59 306.891 919.59 304.344ZM968.584 303.807C968.584 304.762 968.525 305.757 968.405 306.792H945.302C945.461 308.861 946.118 310.453 947.272 311.568C948.466 312.642 949.919 313.18 951.63 313.18C954.177 313.18 955.948 312.105 956.943 309.956H967.808C967.251 312.145 966.236 314.115 964.764 315.866C963.331 317.617 961.52 318.99 959.331 319.985C957.142 320.98 954.695 321.478 951.988 321.478C948.725 321.478 945.82 320.781 943.272 319.388C940.725 317.995 938.735 316.005 937.303 313.418C935.87 310.831 935.154 307.807 935.154 304.344C935.154 300.882 935.85 297.857 937.243 295.27C938.676 292.683 940.666 290.693 943.213 289.3C945.76 287.907 948.685 287.211 951.988 287.211C955.212 287.211 958.078 287.888 960.585 289.241C963.092 290.594 965.042 292.524 966.435 295.031C967.868 297.539 968.584 300.464 968.584 303.807ZM958.137 301.121C958.137 299.369 957.54 297.976 956.346 296.942C955.152 295.907 953.66 295.39 951.869 295.39C950.158 295.39 948.705 295.887 947.511 296.882C946.357 297.877 945.641 299.29 945.362 301.121H958.137ZM984.178 293.24C985.372 291.41 986.865 289.977 988.656 288.942C990.447 287.868 992.436 287.33 994.625 287.33V298.136H991.82C989.272 298.136 987.362 298.693 986.089 299.807C984.815 300.882 984.178 302.792 984.178 305.538V321H973.97V287.689H984.178V293.24ZM1014.67 321.478C1011.4 321.478 1008.46 320.781 1005.83 319.388C1003.25 317.995 1001.2 316.005 999.684 313.418C998.211 310.831 997.475 307.807 997.475 304.344C997.475 300.922 998.231 297.917 999.744 295.33C1001.26 292.703 1003.33 290.693 1005.95 289.3C1008.58 287.907 1011.52 287.211 1014.79 287.211C1018.05 287.211 1021 287.907 1023.62 289.3C1026.25 290.693 1028.32 292.703 1029.83 295.33C1031.34 297.917 1032.1 300.922 1032.1 304.344C1032.1 307.767 1031.32 310.792 1029.77 313.418C1028.26 316.005 1026.17 317.995 1023.5 319.388C1020.88 320.781 1017.93 321.478 1014.67 321.478ZM1014.67 312.642C1016.62 312.642 1018.27 311.926 1019.62 310.493C1021.02 309.06 1021.71 307.011 1021.71 304.344C1021.71 301.678 1021.04 299.628 1019.68 298.195C1018.37 296.763 1016.74 296.046 1014.79 296.046C1012.8 296.046 1011.15 296.763 1009.83 298.195C1008.52 299.588 1007.86 301.638 1007.86 304.344C1007.86 307.011 1008.5 309.06 1009.77 310.493C1011.09 311.926 1012.72 312.642 1014.67 312.642Z" fill="#1E5C93"/>
<path d="M660.163 284.7L651.523 273.359L620.741 294.421L642.342 313.322L660.163 284.7Z" fill="white"/>
<path fill-rule="evenodd" clip-rule="evenodd" d="M641.802 321.153C645.526 321.153 649.212 320.419 652.652 318.995C656.092 317.57 659.218 315.481 661.85 312.849C664.483 310.216 666.571 307.091 667.996 303.651C669.421 300.211 670.154 296.524 670.154 292.801C670.154 289.078 669.421 285.391 667.996 281.951C666.571 278.511 664.483 275.386 661.85 272.753C659.218 270.121 656.092 268.032 652.652 266.607C649.212 265.183 645.526 264.449 641.802 264.449C634.283 264.449 627.072 267.436 621.755 272.753C616.438 278.07 613.451 285.282 613.451 292.801C613.451 300.32 616.438 307.532 621.755 312.849C627.072 318.166 634.283 321.153 641.802 321.153ZM641.072 304.268L656.823 285.367L651.984 281.334L638.438 297.586L631.429 290.574L626.974 295.028L636.425 304.479L638.863 306.917L641.072 304.268Z" fill="url(#paint1_linear_410_4355)"/>
<path d="M736.983 406.092V414.271H719.91V423.106H732.685V431.046H719.91V448H709.701V406.092H736.983ZM740.319 431.285C740.319 427.862 740.956 424.857 742.229 422.27C743.543 419.683 745.314 417.693 747.542 416.3C749.771 414.907 752.258 414.211 755.005 414.211C757.353 414.211 759.402 414.689 761.153 415.644C762.944 416.599 764.317 417.853 765.273 419.405V414.689H775.481V448H765.273V443.284C764.278 444.836 762.885 446.09 761.094 447.045C759.343 448 757.293 448.478 754.945 448.478C752.239 448.478 749.771 447.781 747.542 446.388C745.314 444.955 743.543 442.946 742.229 440.359C740.956 437.732 740.319 434.707 740.319 431.285ZM765.273 431.344C765.273 428.797 764.556 426.787 763.124 425.315C761.731 423.842 760.019 423.106 757.989 423.106C755.96 423.106 754.229 423.842 752.796 425.315C751.403 426.748 750.706 428.737 750.706 431.285C750.706 433.832 751.403 435.861 752.796 437.374C754.229 438.846 755.96 439.583 757.989 439.583C760.019 439.583 761.731 438.846 763.124 437.374C764.556 435.901 765.273 433.891 765.273 431.344ZM793.075 403.823V448H782.866V403.823H793.075ZM814.024 448.478C811.119 448.478 808.532 447.98 806.263 446.985C803.995 445.99 802.204 444.637 800.89 442.926C799.577 441.175 798.841 439.224 798.682 437.075H808.771C808.89 438.229 809.427 439.165 810.382 439.881C811.338 440.597 812.512 440.956 813.905 440.956C815.178 440.956 816.153 440.717 816.83 440.239C817.546 439.722 817.904 439.065 817.904 438.269C817.904 437.314 817.407 436.618 816.412 436.18C815.417 435.702 813.805 435.185 811.576 434.628C809.188 434.07 807.199 433.493 805.607 432.896C804.015 432.26 802.642 431.285 801.487 429.971C800.333 428.618 799.756 426.807 799.756 424.539C799.756 422.628 800.274 420.897 801.308 419.345C802.383 417.753 803.935 416.499 805.965 415.584C808.034 414.669 810.482 414.211 813.308 414.211C817.486 414.211 820.77 415.246 823.158 417.315C825.586 419.385 826.978 422.131 827.337 425.554H817.904C817.745 424.399 817.228 423.484 816.352 422.807C815.516 422.131 814.402 421.793 813.009 421.793C811.815 421.793 810.9 422.031 810.263 422.509C809.626 422.947 809.308 423.564 809.308 424.36C809.308 425.315 809.805 426.031 810.8 426.509C811.835 426.986 813.427 427.464 815.576 427.941C818.044 428.578 820.053 429.215 821.606 429.852C823.158 430.449 824.511 431.444 825.665 432.837C826.859 434.19 827.476 436.021 827.516 438.329C827.516 440.279 826.959 442.03 825.844 443.582C824.77 445.095 823.198 446.289 821.128 447.164C819.098 448.04 816.73 448.478 814.024 448.478ZM848.924 448.478C845.661 448.478 842.716 447.781 840.089 446.388C837.502 444.995 835.453 443.005 833.94 440.418C832.468 437.831 831.731 434.807 831.731 431.344C831.731 427.922 832.488 424.917 834 422.33C835.512 419.703 837.582 417.693 840.209 416.3C842.835 414.907 845.78 414.211 849.044 414.211C852.307 414.211 855.252 414.907 857.879 416.3C860.506 417.693 862.575 419.703 864.088 422.33C865.6 424.917 866.356 427.922 866.356 431.344C866.356 434.767 865.58 437.792 864.028 440.418C862.516 443.005 860.426 444.995 857.76 446.388C855.133 447.781 852.188 448.478 848.924 448.478ZM848.924 439.642C850.875 439.642 852.526 438.926 853.879 437.493C855.272 436.06 855.969 434.011 855.969 431.344C855.969 428.678 855.292 426.628 853.939 425.195C852.626 423.763 850.994 423.046 849.044 423.046C847.054 423.046 845.402 423.763 844.089 425.195C842.776 426.588 842.119 428.638 842.119 431.344C842.119 434.011 842.756 436.06 844.029 437.493C845.343 438.926 846.974 439.642 848.924 439.642Z" fill="#1E5C93"/>
<path d="M663.404 410.603V439.764L621.821 444.085L625.061 407.902L663.404 410.603Z" fill="white"/>
<path fill-rule="evenodd" clip-rule="evenodd" d="M641.802 458.305C659.201 458.305 673.304 444.201 673.304 426.803C673.304 409.404 659.201 395.301 641.802 395.301C624.404 395.301 610.3 409.404 610.3 426.803C610.3 444.201 624.404 458.305 641.802 458.305ZM654.611 413.994C655.053 414.437 655.302 415.038 655.302 415.664C655.302 416.29 655.053 416.89 654.611 417.333L645.141 426.803L654.608 436.269C655.025 436.717 655.252 437.309 655.242 437.921C655.231 438.534 654.983 439.118 654.55 439.55C654.117 439.983 653.533 440.231 652.921 440.242C652.309 440.253 651.717 440.026 651.269 439.608L641.802 430.148L632.336 439.615C632.12 439.847 631.859 440.033 631.569 440.162C631.279 440.291 630.966 440.361 630.649 440.366C630.332 440.372 630.017 440.313 629.723 440.195C629.428 440.076 629.161 439.899 628.937 439.675C628.712 439.45 628.536 439.183 628.417 438.889C628.298 438.595 628.24 438.28 628.245 437.962C628.251 437.645 628.32 437.332 628.449 437.042C628.578 436.753 628.765 436.492 628.997 436.275L638.457 426.803L628.994 417.336C628.761 417.12 628.575 416.859 628.446 416.569C628.317 416.28 628.248 415.967 628.242 415.65C628.236 415.332 628.295 415.017 628.414 414.723C628.532 414.429 628.709 414.162 628.934 413.937C629.158 413.713 629.425 413.536 629.719 413.417C630.014 413.298 630.329 413.24 630.646 413.246C630.963 413.251 631.276 413.321 631.566 413.45C631.856 413.579 632.116 413.765 632.333 413.997L641.802 423.457L651.269 413.991C651.712 413.548 652.312 413.3 652.938 413.3C653.564 413.3 654.165 413.548 654.608 413.991" fill="url(#paint2_linear_410_4355)"/>
</g>
<defs>
<linearGradient id="paint0_linear_410_4355" x1="397.5" y1="131" x2="397.5" y2="590" gradientUnits="userSpaceOnUse">
<stop stop-color="#1E5C93"/>
<stop offset="1" stop-color="#72598B"/>
</linearGradient>
<linearGradient id="paint1_linear_410_4355" x1="641.802" y1="264.449" x2="641.802" y2="321.153" gradientUnits="userSpaceOnUse">
<stop stop-color="#1EAD28"/>
<stop offset="1" stop-color="#38813E"/>
</linearGradient>
<linearGradient id="paint2_linear_410_4355" x1="641.802" y1="395.301" x2="641.802" y2="458.305" gradientUnits="userSpaceOnUse">
<stop stop-color="#CE393C"/>
<stop offset="1" stop-color="#6F214F"/>
</linearGradient>
<clipPath id="clip0_410_4355">
<rect width="1280" height="720" fill="white"/>
</clipPath>
</defs>
</svg>
