<svg width="1280" height="720" viewBox="0 0 1280 720" fill="none" xmlns="http://www.w3.org/2000/svg">
<rect width="1280" height="720" fill="#ECFAFF"/>
<path d="M533.13 353.336H367.339" stroke="#50598C" stroke-width="5"/>
<g filter="url(#filter0_di_410_4334)">
<path fill-rule="evenodd" clip-rule="evenodd" d="M66 353.338L249.612 169.727L433.223 353.338L249.612 536.95L66 353.338Z" fill="url(#paint0_linear_410_4334)"/>
</g>
<mask id="path-3-inside-1_410_4334" fill="white">
<path d="M529.349 198.887H814.487V536.948H529.349V198.887Z"/>
</mask>
<path d="M529.349 198.887V193.887H524.349V198.887H529.349ZM529.349 536.948H524.349V541.948H529.349V536.948ZM529.349 198.887V203.887H814.487V198.887V193.887H529.349V198.887ZM814.487 536.948V531.948H529.349V536.948V541.948H814.487V536.948ZM529.349 536.948H534.349V198.887H529.349H524.349V536.948H529.349Z" fill="#50598C" mask="url(#path-3-inside-1_410_4334)"/>
<path fill-rule="evenodd" clip-rule="evenodd" d="M817.255 202.607L808.128 210.767L805.847 208.728L813.833 201.587L805.847 194.446L808.128 192.406L817.255 200.567C817.558 200.837 817.727 201.204 817.727 201.587C817.727 201.969 817.558 202.336 817.255 202.607Z" fill="#50598C"/>
<path fill-rule="evenodd" clip-rule="evenodd" d="M817.255 535.267L808.128 543.428L805.847 541.388L813.833 534.247L805.847 527.106L808.128 525.066L817.255 533.227C817.558 533.498 817.727 533.864 817.727 534.247C817.727 534.63 817.558 534.996 817.255 535.267Z" fill="#50598C"/>
<path d="M851.209 631.992H1214.11V403.018H851.209V631.992Z" fill="url(#paint1_linear_410_4334)"/>
<path d="M851.209 316.973H1214.11V87.9982H851.209V316.973Z" fill="url(#paint2_linear_410_4334)"/>
<path d="M1016.88 493.022V499.802H999.423V510.542H1012.8V517.202H999.423V534.902H991.023V493.022H1016.88ZM1031.24 493.022V534.902H1022.84V493.022H1031.24ZM1075.36 534.902H1066.96L1047.94 506.162V534.902H1039.54V492.962H1047.94L1066.96 521.762V492.962H1075.36V534.902Z" fill="white"/>
<path d="M690.279 194.024L681.639 182.684L650.857 203.745L672.458 222.646L690.279 194.024Z" fill="white"/>
<path fill-rule="evenodd" clip-rule="evenodd" d="M671.918 230.477C675.641 230.477 679.328 229.744 682.768 228.319C686.208 226.894 689.333 224.806 691.966 222.173C694.599 219.54 696.687 216.415 698.112 212.975C699.537 209.535 700.27 205.848 700.27 202.125C700.27 198.402 699.537 194.715 698.112 191.275C696.687 187.836 694.599 184.71 691.966 182.077C689.333 179.445 686.208 177.356 682.768 175.932C679.328 174.507 675.641 173.773 671.918 173.773C664.399 173.773 657.187 176.76 651.87 182.077C646.553 187.394 643.566 194.606 643.566 202.125C643.566 209.645 646.553 216.856 651.87 222.173C657.187 227.49 664.399 230.477 671.918 230.477ZM671.187 213.592L686.938 194.691L682.1 190.659L668.554 206.91L661.545 199.898L657.09 204.352L666.541 213.803L668.979 216.241L671.187 213.592Z" fill="url(#paint3_linear_410_4334)"/>
<path d="M693.519 518.587V547.749L651.937 552.069L655.177 515.887L693.519 518.587Z" fill="white"/>
<path fill-rule="evenodd" clip-rule="evenodd" d="M671.918 566.289C689.317 566.289 703.42 552.186 703.42 534.787C703.42 517.389 689.317 503.285 671.918 503.285C654.519 503.285 640.416 517.389 640.416 534.787C640.416 552.186 654.519 566.289 671.918 566.289ZM684.727 521.978C685.169 522.421 685.418 523.022 685.418 523.648C685.418 524.274 685.169 524.875 684.727 525.318L675.257 534.787L684.724 544.253C685.141 544.701 685.368 545.294 685.357 545.906C685.346 546.518 685.099 547.102 684.666 547.535C684.233 547.968 683.649 548.216 683.037 548.226C682.425 548.237 681.832 548.01 681.384 547.593L671.918 538.133L662.452 547.599C662.235 547.831 661.975 548.017 661.685 548.146C661.395 548.276 661.082 548.345 660.765 548.351C660.448 548.356 660.132 548.298 659.838 548.179C659.544 548.06 659.277 547.883 659.052 547.659C658.828 547.435 658.651 547.167 658.532 546.873C658.414 546.579 658.355 546.264 658.361 545.947C658.366 545.629 658.436 545.317 658.565 545.027C658.694 544.737 658.88 544.476 659.112 544.26L668.572 534.787L659.109 525.321C658.877 525.104 658.691 524.844 658.562 524.554C658.433 524.264 658.363 523.951 658.358 523.634C658.352 523.317 658.41 523.002 658.529 522.707C658.648 522.413 658.825 522.146 659.049 521.922C659.274 521.697 659.541 521.52 659.835 521.402C660.129 521.283 660.444 521.224 660.762 521.23C661.079 521.236 661.392 521.305 661.682 521.434C661.971 521.563 662.232 521.749 662.449 521.982L671.918 531.442L681.384 521.975C681.827 521.533 682.428 521.284 683.054 521.284C683.68 521.284 684.281 521.533 684.724 521.975" fill="url(#paint4_linear_410_4334)"/>
<path d="M263.236 336.911H273.986L284.136 347.961L273.986 359.011H263.236L273.436 347.961L263.236 336.911ZM299.682 358.611C300.816 357.711 301.332 357.294 301.232 357.361C304.499 354.661 307.066 352.444 308.932 350.711C310.832 348.978 312.432 347.161 313.732 345.261C315.032 343.361 315.682 341.511 315.682 339.711C315.682 338.344 315.366 337.278 314.732 336.511C314.099 335.744 313.149 335.361 311.882 335.361C310.616 335.361 309.616 335.844 308.882 336.811C308.182 337.744 307.832 339.078 307.832 340.811H299.582C299.649 337.978 300.249 335.611 301.382 333.711C302.549 331.811 304.066 330.411 305.932 329.511C307.832 328.611 309.932 328.161 312.232 328.161C316.199 328.161 319.182 329.178 321.182 331.211C323.216 333.244 324.232 335.894 324.232 339.161C324.232 342.728 323.016 346.044 320.582 349.111C318.149 352.144 315.049 355.111 311.282 358.011H324.782V364.961H299.682V358.611ZM328.547 346.711C328.547 340.978 329.647 336.461 331.847 333.161C334.08 329.861 337.664 328.211 342.597 328.211C347.53 328.211 351.097 329.861 353.297 333.161C355.53 336.461 356.647 340.978 356.647 346.711C356.647 352.511 355.53 357.061 353.297 360.361C351.097 363.661 347.53 365.311 342.597 365.311C337.664 365.311 334.08 363.661 331.847 360.361C329.647 357.061 328.547 352.511 328.547 346.711ZM348.247 346.711C348.247 343.344 347.88 340.761 347.147 338.961C346.414 337.128 344.897 336.211 342.597 336.211C340.297 336.211 338.78 337.128 338.047 338.961C337.314 340.761 336.947 343.344 336.947 346.711C336.947 348.978 337.08 350.861 337.347 352.361C337.614 353.828 338.147 355.028 338.947 355.961C339.78 356.861 340.997 357.311 342.597 357.311C344.197 357.311 345.397 356.861 346.197 355.961C347.03 355.028 347.58 353.828 347.847 352.361C348.114 350.861 348.247 348.978 348.247 346.711Z" fill="#1E5C93"/>
<path d="M239.837 390.651C235.947 394.159 205.816 392.401 188.789 392.326C171.528 392.252 138.306 393.754 137.031 390.18C135.898 386.961 165.896 366.737 181.099 356.039C199.959 342.765 233.881 318.224 239.463 318.844C244.711 319.43 242.544 342.369 242.619 354.198C242.703 366.382 244.169 386.73 239.837 390.651Z" fill="#9C3D86"/>
<path d="M204.681 294.093L189.107 304.507C186.549 306.218 185.861 309.679 187.572 312.238L197.987 327.812C199.698 330.37 203.159 331.057 205.718 329.346L221.291 318.931C223.849 317.22 224.537 313.759 222.826 311.201L212.411 295.627C210.7 293.068 207.239 292.382 204.681 294.093Z" fill="#F3CA59"/>
<path d="M143.934 335.134C144.85 334.993 145.787 335.154 146.605 335.591C147.261 336.066 147.749 336.738 147.998 337.509C148.164 338.058 148.114 338.464 147.484 342.517L146.796 346.928L162.639 335.94L178.483 324.952L179.229 324.869C179.957 324.76 180.7 324.894 181.344 325.251C182.033 325.616 182.82 326.663 182.953 327.418C183.075 328.156 182.957 328.914 182.614 329.578L182.348 330.076L166.538 341.106L150.728 352.135L155.307 352.883C159.521 353.572 159.935 353.655 160.424 353.979C161.071 354.394 161.669 355.142 161.893 355.839C162.084 356.733 161.935 357.665 161.477 358.455C160.974 359.092 160.284 359.555 159.504 359.776C158.923 359.925 158.417 359.859 150.03 358.522C143.005 357.401 141.072 357.052 140.674 356.836C139.866 356.335 139.274 355.55 139.015 354.635C138.932 354.203 139.181 352.409 140.259 345.582C141.545 337.509 141.636 337.028 141.976 336.546C142.469 335.885 143.152 335.392 143.934 335.134Z" fill="#1E5C93"/>
<mask id="mask0_410_4334" style="mask-type:alpha" maskUnits="userSpaceOnUse" x="968" y="181" width="129" height="137">
<path d="M984.214 301.906H1080.79C1085.05 301.906 1089.15 303.601 1092.17 306.62C1095.19 309.638 1096.88 313.732 1096.88 318.001H968.119C968.119 313.732 969.815 309.638 972.833 306.62C975.852 303.601 979.946 301.906 984.214 301.906ZM1032.5 181.191C1045.31 181.191 1057.59 186.279 1066.64 195.334C1075.7 204.389 1080.79 216.671 1080.79 229.477V301.906H984.214V229.477C984.214 216.671 989.302 204.389 998.357 195.334C1007.41 186.279 1019.69 181.191 1032.5 181.191Z" fill="black"/>
</mask>
<g mask="url(#mask0_410_4334)">
<rect x="950" y="151" width="152" height="151" fill="url(#paint5_linear_410_4334)"/>
<ellipse cx="998" cy="282" rx="66" ry="65" fill="url(#paint6_radial_410_4334)"/>
<rect x="950" y="302" width="152" height="24" fill="black"/>
<ellipse cx="1055" cy="205" rx="66" ry="65" fill="url(#paint7_radial_410_4334)"/>
</g>
<path d="M1107 234H1139.5" stroke="#EB2818" stroke-width="10" stroke-linecap="round"/>
<path d="M925 234H957.5" stroke="#EB2818" stroke-width="10" stroke-linecap="round"/>
<path d="M1033 157.5V125" stroke="#EB2818" stroke-width="10" stroke-linecap="round"/>
<path d="M1096 180.98L1118.98 157.999" stroke="#EB2818" stroke-width="10" stroke-linecap="round"/>
<path d="M999.052 163.305L988 146.5" stroke="#EB2818" stroke-width="10" stroke-linecap="round"/>
<path d="M1066 163.305L1077.05 146.5" stroke="#EB2818" stroke-width="10" stroke-linecap="round"/>
<path d="M959.104 206.719L940 200.427" stroke="#EB2818" stroke-width="10" stroke-linecap="round"/>
<path d="M1109 206.719L1128.1 200.427" stroke="#EB2818" stroke-width="10" stroke-linecap="round"/>
<path d="M969.981 180.98L947 157.999" stroke="#EB2818" stroke-width="10" stroke-linecap="round"/>
<path d="M1032 251C1018 251 1018 264.332 1018 280.779V302H1046V280.779C1046 264.332 1046 251 1032 251Z" fill="#FB6B54" fill-opacity="0.4"/>
<path d="M661.91 159.418C658.846 159.418 656.1 158.92 653.672 157.925C651.244 156.93 649.294 155.458 647.822 153.508C646.389 151.558 645.633 149.21 645.553 146.463H656.418C656.577 148.016 657.115 149.21 658.03 150.045C658.945 150.841 660.139 151.239 661.612 151.239C663.124 151.239 664.318 150.901 665.194 150.224C666.069 149.508 666.507 148.533 666.507 147.299C666.507 146.264 666.149 145.409 665.432 144.732C664.756 144.056 663.9 143.498 662.865 143.061C661.87 142.623 660.438 142.125 658.567 141.568C655.861 140.732 653.652 139.897 651.941 139.061C650.229 138.225 648.757 136.991 647.523 135.36C646.289 133.728 645.672 131.599 645.672 128.972C645.672 125.072 647.085 122.027 649.911 119.838C652.737 117.609 656.418 116.495 660.955 116.495C665.572 116.495 669.293 117.609 672.119 119.838C674.944 122.027 676.457 125.092 676.656 129.032H665.612C665.532 127.678 665.034 126.624 664.119 125.868C663.204 125.072 662.03 124.674 660.597 124.674C659.363 124.674 658.368 125.012 657.612 125.689C656.856 126.325 656.478 127.261 656.478 128.494C656.478 129.847 657.115 130.902 658.388 131.658C659.662 132.414 661.652 133.23 664.358 134.106C667.064 135.021 669.253 135.897 670.925 136.733C672.636 137.568 674.109 138.782 675.342 140.374C676.576 141.966 677.193 144.016 677.193 146.523C677.193 148.911 676.576 151.08 675.342 153.03C674.148 154.98 672.397 156.532 670.089 157.687C667.781 158.841 665.054 159.418 661.91 159.418ZM694.46 125.689V159H684.251V125.689H694.46ZM696.31 117.39L681.923 123.42V116.376L696.31 109.451V117.39Z" fill="#1E5C93"/>
<path d="M670.241 479H660.033L642.959 453.151V479H632.751V437.092H642.959L660.033 463.061V437.092H670.241V479ZM692.804 479.478C689.541 479.478 686.596 478.781 683.969 477.388C681.382 475.995 679.332 474.005 677.82 471.418C676.347 468.831 675.611 465.807 675.611 462.344C675.611 458.922 676.367 455.917 677.88 453.33C679.392 450.703 681.462 448.693 684.088 447.3C686.715 445.907 689.66 445.211 692.924 445.211C696.187 445.211 699.132 445.907 701.759 447.3C704.386 448.693 706.455 450.703 707.967 453.33C709.48 455.917 710.236 458.922 710.236 462.344C710.236 465.767 709.46 468.792 707.908 471.418C706.395 474.005 704.306 475.995 701.64 477.388C699.013 478.781 696.068 479.478 692.804 479.478ZM692.804 470.642C694.754 470.642 696.406 469.926 697.759 468.493C699.152 467.06 699.849 465.011 699.849 462.344C699.849 459.678 699.172 457.628 697.819 456.195C696.505 454.763 694.874 454.046 692.924 454.046C690.934 454.046 689.282 454.763 687.969 456.195C686.655 457.588 685.999 459.638 685.999 462.344C685.999 465.011 686.635 467.06 687.909 468.493C689.222 469.926 690.854 470.642 692.804 470.642Z" fill="#1E5C93"/>
<defs>
<filter id="filter0_di_410_4334" x="62" y="169.727" width="375.223" height="376.223" filterUnits="userSpaceOnUse" color-interpolation-filters="sRGB">
<feFlood flood-opacity="0" result="BackgroundImageFix"/>
<feColorMatrix in="SourceAlpha" type="matrix" values="0 0 0 0 0 0 0 0 0 0 0 0 0 0 0 0 0 0 127 0" result="hardAlpha"/>
<feOffset dy="4"/>
<feGaussianBlur stdDeviation="2"/>
<feComposite in2="hardAlpha" operator="out"/>
<feColorMatrix type="matrix" values="0 0 0 0 0 0 0 0 0 0 0 0 0 0 0 0 0 0 0.25 0"/>
<feBlend mode="normal" in2="BackgroundImageFix" result="effect1_dropShadow_410_4334"/>
<feBlend mode="normal" in="SourceGraphic" in2="effect1_dropShadow_410_4334" result="shape"/>
<feColorMatrix in="SourceAlpha" type="matrix" values="0 0 0 0 0 0 0 0 0 0 0 0 0 0 0 0 0 0 127 0" result="hardAlpha"/>
<feOffset dy="9"/>
<feGaussianBlur stdDeviation="20.4"/>
<feComposite in2="hardAlpha" operator="arithmetic" k2="-1" k3="1"/>
<feColorMatrix type="matrix" values="0 0 0 0 0.557707 0 0 0 0 0.514631 0 0 0 0 0.822791 0 0 0 0.25 0"/>
<feBlend mode="normal" in2="shape" result="effect2_innerShadow_410_4334"/>
</filter>
<linearGradient id="paint0_linear_410_4334" x1="249.612" y1="169.727" x2="249.612" y2="536.95" gradientUnits="userSpaceOnUse">
<stop stop-color="#DEEBF6"/>
<stop offset="1" stop-color="#AED1F6"/>
</linearGradient>
<linearGradient id="paint1_linear_410_4334" x1="1032.66" y1="631.992" x2="1032.66" y2="403.018" gradientUnits="userSpaceOnUse">
<stop stop-color="#DFB8BC"/>
<stop offset="1" stop-color="#A38690"/>
</linearGradient>
<linearGradient id="paint2_linear_410_4334" x1="1032.66" y1="316.973" x2="1032.66" y2="87.9982" gradientUnits="userSpaceOnUse">
<stop stop-color="#A1848E"/>
<stop offset="1" stop-color="#D4C0BB"/>
</linearGradient>
<linearGradient id="paint3_linear_410_4334" x1="671.918" y1="173.773" x2="671.918" y2="230.477" gradientUnits="userSpaceOnUse">
<stop stop-color="#1EAD28"/>
<stop offset="1" stop-color="#38813E"/>
</linearGradient>
<linearGradient id="paint4_linear_410_4334" x1="671.918" y1="503.285" x2="671.918" y2="566.289" gradientUnits="userSpaceOnUse">
<stop stop-color="#CE393C"/>
<stop offset="1" stop-color="#6F214F"/>
</linearGradient>
<linearGradient id="paint5_linear_410_4334" x1="1026" y1="151" x2="1026" y2="302" gradientUnits="userSpaceOnUse">
<stop stop-color="#FF0000"/>
<stop offset="1" stop-color="#990000"/>
</linearGradient>
<radialGradient id="paint6_radial_410_4334" cx="0" cy="0" r="1" gradientUnits="userSpaceOnUse" gradientTransform="translate(998 282) rotate(90) scale(65 66)">
<stop stop-color="#AB2325"/>
<stop offset="1" stop-color="#AB2325" stop-opacity="0"/>
</radialGradient>
<radialGradient id="paint7_radial_410_4334" cx="0" cy="0" r="1" gradientUnits="userSpaceOnUse" gradientTransform="translate(1055 205) rotate(90) scale(65 66)">
<stop stop-color="#FF846B"/>
<stop offset="1" stop-color="#FE431E" stop-opacity="0"/>
</radialGradient>
</defs>
</svg>
