<svg width="1280" height="720" viewBox="0 0 1280 720" fill="none" xmlns="http://www.w3.org/2000/svg">
<rect width="1280" height="720" fill="#ECFAFF"/>
<path fill-rule="evenodd" clip-rule="evenodd" d="M476.004 453.157L400.355 452.241L401.291 376.595L423.987 399.853L507.564 319.062L536.882 349.105L453.305 429.896L476.004 453.157Z" fill="url(#paint0_linear_410_4338)"/>
<path fill-rule="evenodd" clip-rule="evenodd" d="M783.996 453.157L859.645 452.241L858.708 376.595L836.012 399.853L752.435 319.062L723.117 349.105L806.694 429.896L783.996 453.157Z" fill="url(#paint1_linear_410_4338)"/>
<g filter="url(#filter0_di_410_4338)">
<path fill-rule="evenodd" clip-rule="evenodd" d="M462.62 235.285L628.906 69L795.191 235.285L628.906 401.571L462.62 235.285Z" fill="url(#paint2_linear_410_4338)"/>
</g>
<path d="M693.959 286.218C688.873 290.804 649.484 288.506 627.225 288.409C604.66 288.311 561.23 290.275 559.564 285.603C558.083 281.394 597.297 254.956 617.172 240.971C641.827 223.619 686.173 191.538 693.469 192.347C700.33 193.113 697.498 223.101 697.596 238.565C697.705 254.492 699.621 281.092 693.959 286.218Z" fill="#9C3D86"/>
<path d="M648 159.992L627.641 173.606C624.297 175.843 623.398 180.367 625.634 183.712L639.249 204.071C641.486 207.416 646.011 208.313 649.356 206.076L669.714 192.462C673.058 190.226 673.958 185.701 671.721 182.356L658.106 161.997C655.869 158.652 651.344 157.755 648 159.992Z" fill="#F3CA59"/>
<path d="M568.587 213.643C569.785 213.459 571.01 213.669 572.079 214.24C572.937 214.862 573.575 215.74 573.901 216.748C574.118 217.465 574.052 217.997 573.228 223.295L572.329 229.061L593.04 214.697L613.752 200.332L614.727 200.224C615.679 200.082 616.651 200.257 617.493 200.723C618.393 201.201 619.423 202.569 619.596 203.557C619.756 204.521 619.601 205.512 619.153 206.38L618.804 207.031L598.138 221.45L577.469 235.868L583.455 236.845C588.964 237.746 589.505 237.855 590.145 238.278C590.991 238.821 591.772 239.798 592.064 240.71C592.314 241.878 592.12 243.097 591.522 244.13C590.864 244.963 589.962 245.567 588.942 245.857C588.183 246.052 587.52 245.965 576.557 244.217C567.373 242.752 564.847 242.296 564.326 242.013C563.27 241.359 562.496 240.332 562.157 239.136C562.048 238.571 562.374 236.226 563.784 227.302C565.464 216.748 565.584 216.119 566.029 215.489C566.672 214.625 567.565 213.981 568.587 213.643Z" fill="#1E5C93"/>
<path d="M449.933 352.163C448.09 353.95 446.149 355.251 444.108 356.068C442.068 356.884 440.037 357.135 438.015 356.821C436.016 356.483 434.193 355.512 432.544 353.906L439.079 347.573C440.08 348.414 441.099 348.819 442.136 348.788C443.151 348.733 444.101 348.277 444.987 347.418C445.896 346.537 446.417 345.637 446.549 344.72C446.658 343.779 446.353 342.937 445.634 342.195C445.031 341.573 444.317 341.267 443.492 341.278C442.69 341.265 441.851 341.429 440.973 341.769C440.12 342.085 438.968 342.621 437.518 343.376C435.404 344.451 433.588 345.236 432.071 345.731C430.555 346.226 428.95 346.342 427.257 346.08C425.564 345.817 423.952 344.896 422.421 343.317C420.147 340.971 419.222 338.316 419.646 335.352C420.047 332.365 421.611 329.549 424.34 326.904C427.117 324.213 430.004 322.715 433.003 322.408C435.978 322.077 438.674 323.039 441.09 325.293L434.448 331.73C433.611 330.963 432.697 330.618 431.706 330.697C430.691 330.752 429.753 331.197 428.892 332.032C428.15 332.751 427.748 333.535 427.688 334.382C427.604 335.206 427.922 335.989 428.641 336.731C429.43 337.545 430.428 337.808 431.634 337.521C432.841 337.233 434.514 336.564 436.652 335.513C438.813 334.486 440.64 333.737 442.132 333.265C443.649 332.77 445.242 332.642 446.912 332.88C448.582 333.119 450.147 333.992 451.609 335.5C453.001 336.936 453.894 338.6 454.289 340.492C454.707 342.361 454.559 344.315 453.843 346.355C453.128 348.395 451.824 350.331 449.933 352.163ZM449.85 312.905L469.266 332.94L463.127 338.89L443.71 318.855L449.85 312.905ZM446.126 306.835L440.987 318.847L436.881 314.611L441.498 302.06L446.126 306.835Z" fill="#1E5C93"/>
<path d="M811.854 350.741L805.847 344.657L811.204 319.27L795.799 334.482L789.792 328.398L814.767 303.736L820.775 309.82L815.346 335.277L830.822 319.995L836.83 326.079L811.854 350.741ZM824.848 364.469C822.927 362.524 821.609 360.359 820.893 357.974C820.201 355.612 820.181 353.22 820.833 350.796C821.508 348.396 822.877 346.178 824.941 344.14C826.98 342.126 829.216 340.808 831.648 340.187C834.103 339.542 836.519 339.593 838.895 340.339C841.271 341.084 843.419 342.43 845.34 344.375C847.26 346.32 848.578 348.485 849.294 350.87C850.009 353.255 850.03 355.671 849.354 358.118C848.702 360.542 847.357 362.761 845.317 364.775C843.277 366.789 841.018 368.107 838.539 368.727C836.107 369.349 833.692 369.274 831.292 368.505C828.916 367.759 826.768 366.414 824.848 364.469ZM830.113 359.27C831.261 360.432 832.66 360.995 834.31 360.958C835.983 360.945 837.615 360.154 839.204 358.584C840.793 357.015 841.616 355.406 841.674 353.756C841.755 352.13 841.222 350.736 840.074 349.574C838.903 348.388 837.504 347.825 835.877 347.886C834.274 347.923 832.666 348.738 831.053 350.33C829.464 351.9 828.618 353.485 828.513 355.087C828.432 356.713 828.966 358.107 830.113 359.27Z" fill="#1E5C93"/>
<rect x="61" y="491" width="431" height="160" rx="20" fill="url(#paint3_linear_410_4338)"/>
<path d="M127.107 530.633V516.998" stroke="#FFC93C" stroke-width="4" stroke-linecap="round" stroke-linejoin="round"/>
<path d="M155.394 548.094L165.31 541.718" stroke="#FFC93C" stroke-width="4" stroke-linecap="round" stroke-linejoin="round"/>
<path d="M96.9204 548.094L87 541.718" stroke="#FFC93C" stroke-width="4" stroke-linecap="round" stroke-linejoin="round"/>
<path d="M143.127 535.414L149.392 525.868" stroke="#FFC93C" stroke-width="4" stroke-linecap="round" stroke-linejoin="round"/>
<path d="M109.181 535.414L102.914 525.868" stroke="#FFC93C" stroke-width="4" stroke-linecap="round" stroke-linejoin="round"/>
<path d="M127.209 542.235C142.063 542.235 151.562 555.907 151.562 565.421C151.562 583.059 139.384 582.266 139.384 598.316H115.128C115.128 585.635 102.657 579.491 102.657 566.614C102.657 553.734 113.741 542.238 127.206 542.238" fill="#FFC93C"/>
<path d="M127.209 542.235C142.063 542.235 151.562 555.907 151.562 565.421C151.562 583.059 139.384 582.266 139.384 598.316H115.128C115.128 585.635 102.657 579.491 102.657 566.614C102.657 553.734 113.741 542.238 127.206 542.238L127.209 542.235Z" stroke="#FFC93C" stroke-width="4" stroke-linejoin="round"/>
<path d="M117.956 616.915C117.956 616.915 119.878 621.945 127.137 621.945C134.393 621.945 136.262 616.915 136.262 616.915H117.956Z" fill="#1E5C93"/>
<path d="M111.506 595.978H142.71L138.566 616.918H115.65L111.506 595.978Z" fill="#1E5C93"/>
<path d="M215.65 536.75V543.85H227.1V550.45H215.65V558.15H228.6V565H207.1V529.9H228.6V536.75H215.65ZM251.151 536.8C254.417 536.8 257.017 537.867 258.951 540C260.917 542.1 261.901 545 261.901 548.7V565H253.401V549.85C253.401 547.983 252.917 546.533 251.951 545.5C250.984 544.467 249.684 543.95 248.051 543.95C246.417 543.95 245.117 544.467 244.151 545.5C243.184 546.533 242.701 547.983 242.701 549.85V565H234.151V537.1H242.701V540.8C243.567 539.567 244.734 538.6 246.201 537.9C247.667 537.167 249.317 536.8 251.151 536.8ZM266.142 551.05C266.142 548.15 266.726 545.617 267.892 543.45C269.092 541.283 270.742 539.617 272.842 538.45C274.976 537.283 277.409 536.7 280.142 536.7C283.642 536.7 286.559 537.617 288.892 539.45C291.259 541.283 292.809 543.867 293.542 547.2H284.442C283.676 545.067 282.192 544 279.992 544C278.426 544 277.176 544.617 276.242 545.85C275.309 547.05 274.842 548.783 274.842 551.05C274.842 553.317 275.309 555.067 276.242 556.3C277.176 557.5 278.426 558.1 279.992 558.1C282.192 558.1 283.676 557.033 284.442 554.9H293.542C292.809 558.167 291.259 560.733 288.892 562.6C286.526 564.467 283.609 565.4 280.142 565.4C277.409 565.4 274.976 564.817 272.842 563.65C270.742 562.483 269.092 560.817 267.892 558.65C266.726 556.483 266.142 553.95 266.142 551.05ZM324.416 550.6C324.416 551.4 324.366 552.233 324.266 553.1H304.916C305.049 554.833 305.599 556.167 306.566 557.1C307.566 558 308.782 558.45 310.216 558.45C312.349 558.45 313.832 557.55 314.666 555.75H323.766C323.299 557.583 322.449 559.233 321.216 560.7C320.016 562.167 318.499 563.317 316.666 564.15C314.832 564.983 312.782 565.4 310.516 565.4C307.782 565.4 305.349 564.817 303.216 563.65C301.082 562.483 299.416 560.817 298.216 558.65C297.016 556.483 296.416 553.95 296.416 551.05C296.416 548.15 296.999 545.617 298.166 543.45C299.366 541.283 301.032 539.617 303.166 538.45C305.299 537.283 307.749 536.7 310.516 536.7C313.216 536.7 315.616 537.267 317.716 538.4C319.816 539.533 321.449 541.15 322.616 543.25C323.816 545.35 324.416 547.8 324.416 550.6ZM315.666 548.35C315.666 546.883 315.166 545.717 314.166 544.85C313.166 543.983 311.916 543.55 310.416 543.55C308.982 543.55 307.766 543.967 306.766 544.8C305.799 545.633 305.199 546.817 304.966 548.35H315.666ZM345.926 536.8C349.193 536.8 351.793 537.867 353.726 540C355.693 542.1 356.676 545 356.676 548.7V565H348.176V549.85C348.176 547.983 347.693 546.533 346.726 545.5C345.76 544.467 344.46 543.95 342.826 543.95C341.193 543.95 339.893 544.467 338.926 545.5C337.96 546.533 337.476 547.983 337.476 549.85V565H328.926V537.1H337.476V540.8C338.343 539.567 339.51 538.6 340.976 537.9C342.443 537.167 344.093 536.8 345.926 536.8ZM360.918 551C360.918 548.133 361.451 545.617 362.518 543.45C363.618 541.283 365.101 539.617 366.968 538.45C368.834 537.283 370.918 536.7 373.218 536.7C375.051 536.7 376.718 537.083 378.218 537.85C379.751 538.617 380.951 539.65 381.818 540.95V528H390.368V565H381.818V561C381.018 562.333 379.868 563.4 378.368 564.2C376.901 565 375.184 565.4 373.218 565.4C370.918 565.4 368.834 564.817 366.968 563.65C365.101 562.45 363.618 560.767 362.518 558.6C361.451 556.4 360.918 553.867 360.918 551ZM381.818 551.05C381.818 548.917 381.218 547.233 380.018 546C378.851 544.767 377.418 544.15 375.718 544.15C374.018 544.15 372.568 544.767 371.368 546C370.201 547.2 369.618 548.867 369.618 551C369.618 553.133 370.201 554.833 371.368 556.1C372.568 557.333 374.018 557.95 375.718 557.95C377.418 557.95 378.851 557.333 380.018 556.1C381.218 554.867 381.818 553.183 381.818 551.05ZM422.853 550.6C422.853 551.4 422.803 552.233 422.703 553.1H403.353C403.486 554.833 404.036 556.167 405.003 557.1C406.003 558 407.22 558.45 408.653 558.45C410.786 558.45 412.27 557.55 413.103 555.75H422.203C421.736 557.583 420.886 559.233 419.653 560.7C418.453 562.167 416.936 563.317 415.103 564.15C413.27 564.983 411.22 565.4 408.953 565.4C406.22 565.4 403.786 564.817 401.653 563.65C399.52 562.483 397.853 560.817 396.653 558.65C395.453 556.483 394.853 553.95 394.853 551.05C394.853 548.15 395.436 545.617 396.603 543.45C397.803 541.283 399.47 539.617 401.603 538.45C403.736 537.283 406.186 536.7 408.953 536.7C411.653 536.7 414.053 537.267 416.153 538.4C418.253 539.533 419.886 541.15 421.053 543.25C422.253 545.35 422.853 547.8 422.853 550.6ZM414.103 548.35C414.103 546.883 413.603 545.717 412.603 544.85C411.603 543.983 410.353 543.55 408.853 543.55C407.42 543.55 406.203 543.967 405.203 544.8C404.236 545.633 403.636 546.817 403.403 548.35H414.103ZM435.914 541.75C436.914 540.217 438.164 539.017 439.664 538.15C441.164 537.25 442.83 536.8 444.664 536.8V545.85H442.314C440.18 545.85 438.58 546.317 437.514 547.25C436.447 548.15 435.914 549.75 435.914 552.05V565H427.364V537.1H435.914V541.75ZM215.65 578V615H207.1V578H215.65ZM249.396 587.1V615H240.846V611.2C239.979 612.433 238.796 613.433 237.296 614.2C235.829 614.933 234.196 615.3 232.396 615.3C230.263 615.3 228.379 614.833 226.746 613.9C225.113 612.933 223.846 611.55 222.946 609.75C222.046 607.95 221.596 605.833 221.596 603.4V587.1H230.096V602.25C230.096 604.117 230.579 605.567 231.546 606.6C232.513 607.633 233.813 608.15 235.446 608.15C237.113 608.15 238.429 607.633 239.396 606.6C240.363 605.567 240.846 604.117 240.846 602.25V587.1H249.396ZM263.538 607.95H275.638V615H253.988V608.2L265.588 594.15H254.087V587.1H275.388V593.9L263.538 607.95Z" fill="white"/>
<rect x="788" y="492" width="431" height="160" rx="20" fill="url(#paint4_linear_410_4338)"/>
<path d="M955.95 559.8H942.85L940.75 566H931.8L944.5 530.9H954.4L967.1 566H958.05L955.95 559.8ZM953.75 553.2L949.4 540.35L945.1 553.2H953.75ZM979.515 542.05C980.349 540.75 981.499 539.7 982.965 538.9C984.432 538.1 986.149 537.7 988.115 537.7C990.415 537.7 992.499 538.283 994.365 539.45C996.232 540.617 997.699 542.283 998.765 544.45C999.865 546.617 1000.42 549.133 1000.42 552C1000.42 554.867 999.865 557.4 998.765 559.6C997.699 561.767 996.232 563.45 994.365 564.65C992.499 565.817 990.415 566.4 988.115 566.4C986.182 566.4 984.465 566 982.965 565.2C981.499 564.4 980.349 563.367 979.515 562.1V579.3H970.965V538.1H979.515V542.05ZM991.715 552C991.715 549.867 991.115 548.2 989.915 547C988.749 545.767 987.299 545.15 985.565 545.15C983.865 545.15 982.415 545.767 981.215 547C980.049 548.233 979.465 549.917 979.465 552.05C979.465 554.183 980.049 555.867 981.215 557.1C982.415 558.333 983.865 558.95 985.565 558.95C987.265 558.95 988.715 558.333 989.915 557.1C991.115 555.833 991.715 554.133 991.715 552ZM1003.2 552C1003.2 549.133 1003.73 546.617 1004.8 544.45C1005.9 542.283 1007.38 540.617 1009.25 539.45C1011.12 538.283 1013.2 537.7 1015.5 537.7C1017.47 537.7 1019.18 538.1 1020.65 538.9C1022.15 539.7 1023.3 540.75 1024.1 542.05V538.1H1032.65V566H1024.1V562.05C1023.27 563.35 1022.1 564.4 1020.6 565.2C1019.13 566 1017.42 566.4 1015.45 566.4C1013.18 566.4 1011.12 565.817 1009.25 564.65C1007.38 563.45 1005.9 561.767 1004.8 559.6C1003.73 557.4 1003.2 554.867 1003.2 552ZM1024.1 552.05C1024.1 549.917 1023.5 548.233 1022.3 547C1021.13 545.767 1019.7 545.15 1018 545.15C1016.3 545.15 1014.85 545.767 1013.65 547C1012.48 548.2 1011.9 549.867 1011.9 552C1011.9 554.133 1012.48 555.833 1013.65 557.1C1014.85 558.333 1016.3 558.95 1018 558.95C1019.7 558.95 1021.13 558.333 1022.3 557.1C1023.5 555.867 1024.1 554.183 1024.1 552.05ZM1049.44 537.7C1051.4 537.7 1053.12 538.1 1054.59 538.9C1056.09 539.7 1057.24 540.75 1058.04 542.05V538.1H1066.59V565.95C1066.59 568.517 1066.07 570.833 1065.04 572.9C1064.04 575 1062.49 576.667 1060.39 577.9C1058.32 579.133 1055.74 579.75 1052.64 579.75C1048.5 579.75 1045.15 578.767 1042.59 576.8C1040.02 574.867 1038.55 572.233 1038.19 568.9H1046.64C1046.9 569.967 1047.54 570.8 1048.54 571.4C1049.54 572.033 1050.77 572.35 1052.24 572.35C1054 572.35 1055.4 571.833 1056.44 570.8C1057.5 569.8 1058.04 568.183 1058.04 565.95V562C1057.2 563.3 1056.05 564.367 1054.59 565.2C1053.12 566 1051.4 566.4 1049.44 566.4C1047.14 566.4 1045.05 565.817 1043.19 564.65C1041.32 563.45 1039.84 561.767 1038.74 559.6C1037.67 557.4 1037.14 554.867 1037.14 552C1037.14 549.133 1037.67 546.617 1038.74 544.45C1039.84 542.283 1041.32 540.617 1043.19 539.45C1045.05 538.283 1047.14 537.7 1049.44 537.7ZM1058.04 552.05C1058.04 549.917 1057.44 548.233 1056.24 547C1055.07 545.767 1053.64 545.15 1051.94 545.15C1050.24 545.15 1048.79 545.767 1047.59 547C1046.42 548.2 1045.84 549.867 1045.84 552C1045.84 554.133 1046.42 555.833 1047.59 557.1C1048.79 558.333 1050.24 558.95 1051.94 558.95C1053.64 558.95 1055.07 558.333 1056.24 557.1C1057.44 555.867 1058.04 554.183 1058.04 552.05ZM1071.07 552C1071.07 549.133 1071.61 546.617 1072.67 544.45C1073.77 542.283 1075.26 540.617 1077.12 539.45C1078.99 538.283 1081.07 537.7 1083.37 537.7C1085.34 537.7 1087.06 538.1 1088.52 538.9C1090.02 539.7 1091.17 540.75 1091.97 542.05V538.1H1100.52V566H1091.97V562.05C1091.14 563.35 1089.97 564.4 1088.47 565.2C1087.01 566 1085.29 566.4 1083.32 566.4C1081.06 566.4 1078.99 565.817 1077.12 564.65C1075.26 563.45 1073.77 561.767 1072.67 559.6C1071.61 557.4 1071.07 554.867 1071.07 552ZM1091.97 552.05C1091.97 549.917 1091.37 548.233 1090.17 547C1089.01 545.767 1087.57 545.15 1085.87 545.15C1084.17 545.15 1082.72 545.767 1081.52 547C1080.36 548.2 1079.77 549.867 1079.77 552C1079.77 554.133 1080.36 555.833 1081.52 557.1C1082.72 558.333 1084.17 558.95 1085.87 558.95C1087.57 558.95 1089.01 558.333 1090.17 557.1C1091.37 555.867 1091.97 554.183 1091.97 552.05ZM1115.26 542.75C1116.26 541.217 1117.51 540.017 1119.01 539.15C1120.51 538.25 1122.17 537.8 1124.01 537.8V546.85H1121.66C1119.52 546.85 1117.92 547.317 1116.86 548.25C1115.79 549.15 1115.26 550.75 1115.26 553.05V566H1106.71V538.1H1115.26V542.75ZM942.65 579V616H934.1V579H942.65ZM976.396 588.1V616H967.846V612.2C966.979 613.433 965.796 614.433 964.296 615.2C962.829 615.933 961.196 616.3 959.396 616.3C957.263 616.3 955.379 615.833 953.746 614.9C952.113 613.933 950.846 612.55 949.946 610.75C949.046 608.95 948.596 606.833 948.596 604.4V588.1H957.096V603.25C957.096 605.117 957.579 606.567 958.546 607.6C959.513 608.633 960.813 609.15 962.446 609.15C964.113 609.15 965.429 608.633 966.396 607.6C967.363 606.567 967.846 605.117 967.846 603.25V588.1H976.396ZM990.538 608.95H1002.64V616H980.988V609.2L992.588 595.15H981.087V588.1H1002.39V594.9L990.538 608.95Z" fill="white"/>
<path d="M850.228 536.64C850.228 536.64 847.592 537.946 845.044 540.498C843.518 542.021 842.252 543.785 841.299 545.719" stroke="#FFC93C" stroke-width="6.83666" stroke-linejoin="round"/>
<path d="M860.114 526.998C877.122 526.998 888 542.658 888 553.552C888 573.748 874.055 572.841 874.055 591.223H846.283C846.283 576.699 832 569.663 832 554.918C832 540.166 844.692 527.009 860.11 527.009" fill="#A2A2A2"/>
<path d="M849.522 609.576C849.522 609.576 851.726 615.336 860.038 615.336C868.343 615.336 870.486 609.576 870.486 609.576H849.522Z" fill="#1E5C93"/>
<path d="M842.137 585.604H877.869L873.124 609.578H846.882L842.137 585.604Z" fill="#1E5C93"/>
<path d="M841.299 545.719C841.299 545.719 842.492 543.056 845.044 540.501C847.592 537.946 850.228 536.643 850.228 536.643" stroke="#1E5C93" stroke-width="4.12677" stroke-linecap="round" stroke-linejoin="round"/>
<defs>
<filter id="filter0_di_410_4338" x="458.62" y="69" width="340.571" height="341.57" filterUnits="userSpaceOnUse" color-interpolation-filters="sRGB">
<feFlood flood-opacity="0" result="BackgroundImageFix"/>
<feColorMatrix in="SourceAlpha" type="matrix" values="0 0 0 0 0 0 0 0 0 0 0 0 0 0 0 0 0 0 127 0" result="hardAlpha"/>
<feOffset dy="4"/>
<feGaussianBlur stdDeviation="2"/>
<feComposite in2="hardAlpha" operator="out"/>
<feColorMatrix type="matrix" values="0 0 0 0 0 0 0 0 0 0 0 0 0 0 0 0 0 0 0.25 0"/>
<feBlend mode="normal" in2="BackgroundImageFix" result="effect1_dropShadow_410_4338"/>
<feBlend mode="normal" in="SourceGraphic" in2="effect1_dropShadow_410_4338" result="shape"/>
<feColorMatrix in="SourceAlpha" type="matrix" values="0 0 0 0 0 0 0 0 0 0 0 0 0 0 0 0 0 0 127 0" result="hardAlpha"/>
<feOffset dy="9"/>
<feGaussianBlur stdDeviation="20.4"/>
<feComposite in2="hardAlpha" operator="arithmetic" k2="-1" k3="1"/>
<feColorMatrix type="matrix" values="0 0 0 0 0.557707 0 0 0 0 0.514631 0 0 0 0 0.822791 0 0 0 0.25 0"/>
<feBlend mode="normal" in2="shape" result="effect2_innerShadow_410_4338"/>
</filter>
<linearGradient id="paint0_linear_410_4338" x1="521.034" y1="328.014" x2="394.244" y2="448.916" gradientUnits="userSpaceOnUse">
<stop stop-color="#1EAD28"/>
<stop offset="1" stop-color="#34873B"/>
</linearGradient>
<linearGradient id="paint1_linear_410_4338" x1="762.839" y1="322.127" x2="862.459" y2="457.973" gradientUnits="userSpaceOnUse">
<stop stop-color="#CE393C"/>
<stop offset="1" stop-color="#73224F"/>
</linearGradient>
<linearGradient id="paint2_linear_410_4338" x1="628.906" y1="69" x2="628.906" y2="401.571" gradientUnits="userSpaceOnUse">
<stop stop-color="#DEEBF6"/>
<stop offset="1" stop-color="#AED1F6"/>
</linearGradient>
<linearGradient id="paint3_linear_410_4338" x1="276.5" y1="491" x2="276.5" y2="651" gradientUnits="userSpaceOnUse">
<stop stop-color="#B3D779"/>
<stop offset="1" stop-color="#1EAD28"/>
</linearGradient>
<linearGradient id="paint4_linear_410_4338" x1="1003.5" y1="492" x2="1003.5" y2="652" gradientUnits="userSpaceOnUse">
<stop stop-color="#C8383D"/>
<stop offset="1" stop-color="#85274B"/>
</linearGradient>
</defs>
</svg>
