<svg width="1280" height="720" viewBox="0 0 1280 720" fill="none" xmlns="http://www.w3.org/2000/svg">
<g clip-path="url(#clip0_184_295)">
<rect width="1280" height="720" fill="white"/>
<path d="M-0.0117188 -0.0976562H1279.97V719.892H-0.0117188V-0.0976562Z" fill="url(#paint0_linear_184_295)"/>
<mask id="mask0_184_295" style="mask-type:alpha" maskUnits="userSpaceOnUse" x="348" y="410" width="101" height="126">
<path d="M387.961 533.206L356.208 535.212L348.418 523.579L417.111 411.389L448.311 410.355L387.961 533.206Z" fill="#D08259"/>
</mask>
<g mask="url(#mask0_184_295)">
<path d="M387.961 533.206L356.208 535.212L348.418 523.579L417.111 411.389L448.311 410.355L387.961 533.206Z" fill="#D99773"/>
<path d="M389.073 534.867L378.502 519.08L385.39 497.016L415.474 492.517L389.073 534.867Z" fill="#D68270"/>
</g>
<path d="M347.862 522.749L408.765 398.926L439.965 397.892L379.615 520.743L347.862 522.749Z" fill="#EEBA8D"/>
<mask id="mask1_184_295" style="mask-type:alpha" maskUnits="userSpaceOnUse" x="791" y="381" width="101" height="126">
<path d="M831.109 504.842L799.356 506.849L791.567 495.216L860.259 383.026L891.459 381.991L831.109 504.842Z" fill="#D08259"/>
</mask>
<g mask="url(#mask1_184_295)">
<path d="M831.109 504.842L799.356 506.849L791.567 495.216L860.259 383.026L891.459 381.991L831.109 504.842Z" fill="#D99773"/>
<path d="M832.222 506.504L821.65 490.716L828.539 468.653L858.622 464.154L832.222 506.504Z" fill="#D68270"/>
</g>
<path d="M791.01 494.386L851.913 370.563L883.113 369.528L822.763 492.379L791.01 494.386Z" fill="#EEBA8D"/>
<mask id="mask2_184_295" style="mask-type:alpha" maskUnits="userSpaceOnUse" x="281" y="263" width="688" height="251">
<path d="M298.475 513.697L906.34 470.713L968.356 348.552L951.385 323.209L418.89 263.974L281.505 488.354L298.475 513.697Z" fill="#D09059"/>
</mask>
<g mask="url(#mask2_184_295)">
<path d="M298.475 513.697L906.34 470.713L968.356 348.552L951.385 323.209L418.89 263.974L281.505 488.354L298.475 513.697Z" fill="#D99773"/>
<path d="M871.005 416.146L921.081 490.929L998.494 371.094L937.012 279.278L871.005 416.146Z" fill="#D68270"/>
</g>
<path d="M281.505 488.354L889.785 445.092L951.801 322.931L405.25 240.011L281.505 488.354Z" fill="#EEBA8D"/>
<g filter="url(#filter0_d_184_295)">
<path d="M411.405 245.578L458.924 238.37L461.461 242.158L337.951 490.875C317 485.648 303.135 486.508 288.464 493.347L285.671 489.176L411.405 245.578Z" fill="#6C205B"/>
<path d="M408.623 241.423C426.014 231.098 437.481 232.468 458.679 238.003L335.738 485.771C316.63 480.261 304.37 480.264 285.682 489.192L408.623 241.423Z" fill="#7C2869"/>
</g>
<g filter="url(#filter1_d_184_295)">
<path d="M469.618 254.351L517.137 247.143L519.673 250.931L402.952 486.408C382.001 481.182 368.135 482.042 353.465 488.881L350.672 484.71L469.618 254.351Z" fill="#2F2878"/>
<path d="M467.013 250.461C484.403 240.137 495.87 241.507 517.068 247.041L400.757 481.333C381.649 475.822 369.389 475.826 350.701 484.753L467.013 250.461Z" fill="#404E9D"/>
</g>
<g filter="url(#filter2_d_184_295)">
<path d="M529.967 264.484L577.486 257.276L580.022 261.064L470.237 482.639C449.287 477.412 435.421 478.272 420.751 485.111L417.958 480.94L529.967 264.484Z" fill="#3291FF"/>
<path d="M527.363 260.596C544.753 250.271 556.22 251.641 577.418 257.176L468.183 477.08C449.075 471.57 436.815 471.573 418.128 480.501L527.363 260.596Z" fill="#35C2FF"/>
</g>
<g filter="url(#filter3_d_184_295)">
<path d="M590.022 272.408L637.541 265.2L640.078 268.988L536.665 477.609C515.714 472.382 501.848 473.243 487.178 480.081L484.385 475.91L590.022 272.408Z" fill="#4CBA65"/>
<path d="M587.418 268.518C604.808 258.193 616.275 259.563 637.474 265.098L534.409 472.46C515.301 466.949 503.041 466.953 484.353 475.88L587.418 268.518Z" fill="#A5CD5B"/>
</g>
<g filter="url(#filter4_d_184_295)">
<path d="M651.228 279.337L698.747 272.129L701.284 275.917L603.76 472.922C582.809 467.695 568.943 468.556 554.273 475.395L551.48 471.223L651.228 279.337Z" fill="#F6A227"/>
<path d="M648.722 275.603C666.112 265.279 677.579 266.649 698.777 272.183L601.456 467.869C582.348 462.359 570.088 462.362 551.401 471.29L648.722 275.603Z" fill="#FFC93C"/>
</g>
<g filter="url(#filter5_d_184_295)">
<path d="M711.701 286.987L759.219 279.779L761.756 283.567L670.428 467.977C649.477 462.75 635.612 463.61 620.942 470.449L618.149 466.278L711.701 286.987Z" fill="#E7574A"/>
<path d="M709.199 283.243C726.59 272.918 738.057 274.289 759.255 279.823L668.102 462.968C648.994 457.457 636.734 457.461 618.047 466.388L709.199 283.243Z" fill="#FD7853"/>
</g>
<g filter="url(#filter6_d_184_295)">
<path d="M773.872 298.473L821.391 291.265L823.928 295.053L740.616 463.17C719.665 457.943 705.799 458.803 691.129 465.642L688.336 461.471L773.872 298.473Z" fill="#922D35"/>
<path d="M771.493 294.48C788.883 284.155 800.35 285.525 821.548 291.06L738.334 458.061C719.226 452.55 706.966 452.554 688.279 461.481L771.493 294.48Z" fill="#CE393C"/>
</g>
<g filter="url(#filter7_d_184_295)">
<path d="M834.34 308.365L881.859 301.157L884.396 304.945L808.696 457.892C787.745 452.665 773.879 453.526 759.209 460.364L756.416 456.193L834.34 308.365Z" fill="#7C2869"/>
<path d="M831.837 304.615C849.227 294.29 860.694 295.66 881.892 301.195L806.457 452.761C787.349 447.25 775.089 447.253 756.402 456.181L831.837 304.615Z" fill="#AC4695"/>
</g>
<g filter="url(#filter8_d_184_295)">
<path d="M894.811 316.009L942.329 308.801L944.866 312.589L872.502 458.445C851.551 453.218 837.685 454.079 823.015 460.917L820.222 456.746L894.811 316.009Z" fill="#B03A95"/>
<path d="M892.302 312.263C909.692 301.938 921.159 303.308 942.357 308.843L870.141 453.503C851.034 447.992 838.773 447.996 820.086 456.923L892.302 312.263Z" fill="#E165C5"/>
</g>
<g filter="url(#filter9_di_184_295)">
<circle cx="425.785" cy="245.515" r="5" transform="rotate(-33.8072 425.785 245.515)" fill="#D99773"/>
</g>
<g filter="url(#filter10_di_184_295)">
<circle cx="317.52" cy="468.451" r="5" transform="rotate(-33.8072 317.52 468.451)" fill="#D99773"/>
</g>
<g filter="url(#filter11_di_184_295)">
<circle cx="485.715" cy="255.933" r="5" transform="rotate(-33.8072 485.715 255.933)" fill="#D99773"/>
</g>
<g filter="url(#filter12_di_184_295)">
<circle cx="380.75" cy="465.824" r="5" transform="rotate(-33.8072 380.75 465.824)" fill="#D99773"/>
</g>
<g filter="url(#filter13_di_184_295)">
<circle cx="547.305" cy="265.238" r="5" transform="rotate(-33.8072 547.305 265.238)" fill="#D99773"/>
</g>
<g filter="url(#filter14_di_184_295)">
<circle cx="449.248" cy="462.08" r="5" transform="rotate(-33.8072 449.248 462.08)" fill="#D99773"/>
</g>
<g filter="url(#filter15_di_184_295)">
<circle cx="607.784" cy="272.878" r="5" transform="rotate(-33.8072 607.784 272.878)" fill="#D99773"/>
</g>
<g filter="url(#filter16_di_184_295)">
<circle cx="514.141" cy="458.341" r="5" transform="rotate(-33.8072 514.141 458.341)" fill="#D99773"/>
</g>
<g filter="url(#filter17_di_184_295)">
<circle cx="670.198" cy="278.021" r="5" transform="rotate(-33.8072 670.198 278.021)" fill="#D99773"/>
</g>
<g filter="url(#filter18_di_184_295)">
<circle cx="580.42" cy="454.876" r="5" transform="rotate(-33.8072 580.42 454.876)" fill="#D99773"/>
</g>
<g filter="url(#filter19_di_184_295)">
<circle cx="729.845" cy="286.22" r="5" transform="rotate(-33.8072 729.845 286.22)" fill="#D99773"/>
</g>
<g filter="url(#filter20_di_184_295)">
<circle cx="647.806" cy="449.47" r="5" transform="rotate(-33.8072 647.806 449.47)" fill="#D99773"/>
</g>
<g filter="url(#filter21_di_184_295)">
<circle cx="792.549" cy="297.185" r="5" transform="rotate(-33.8072 792.549 297.185)" fill="#D99773"/>
</g>
<g filter="url(#filter22_di_184_295)">
<circle cx="716.022" cy="443.505" r="5" transform="rotate(-33.8072 716.022 443.505)" fill="#D99773"/>
</g>
<g filter="url(#filter23_di_184_295)">
<circle cx="852.478" cy="307.603" r="5" transform="rotate(-33.8072 852.478 307.603)" fill="#D99773"/>
</g>
<g filter="url(#filter24_di_184_295)">
<circle cx="784.52" cy="439.761" r="5" transform="rotate(-33.8072 784.52 439.761)" fill="#D99773"/>
</g>
<g filter="url(#filter25_di_184_295)">
<circle cx="912.681" cy="316.632" r="5" transform="rotate(-33.8072 912.681 316.632)" fill="#D99773"/>
</g>
<g filter="url(#filter26_di_184_295)">
<circle cx="850.25" cy="439.072" r="5" transform="rotate(-33.8072 850.25 439.072)" fill="#D99773"/>
</g>
<path d="M674.5 842.694C643.551 838.86 624.892 801.13 608.831 775.393C606.482 771.629 563.49 753.715 557.38 748.292C567.098 734.466 571.716 753.065 616.565 734.649C623.372 750.602 671.843 715.951 698.371 740.348C730.461 729.053 834.813 591.692 836.346 552.807C835.711 514.151 840.215 472.356 822.238 437.117C818.407 385.554 864.831 506.28 875.677 455.531C882.013 432.396 874.015 391.215 888.339 378.247C900.912 395.133 895.748 465.676 924.829 444.213C938.636 423.262 940.045 364.955 961.971 368.168C964.553 390.449 934.226 448.225 949.388 450.055C956.521 437.726 985.759 387.769 978.998 430.125C979.103 448.071 944.618 497.14 969.521 494.194C975.426 480.758 998.464 438.839 993.325 478.223C978.386 530.76 925.936 556.422 899.302 601.47C867.913 644.313 788.747 770.918 749.151 807.084C728.987 820.522 697.724 850.883 674.5 842.694Z" fill="#FF7B54"/>
<path d="M247.264 768.787C272.087 787.664 311.795 773.702 341.267 766.507C345.578 765.455 388.854 782.67 397.014 783.059C399.72 766.377 360.493 792.007 341.267 747.5C377.293 748.576 325.252 754.159 341.267 747.5C287 707.5 290.835 599.798 316.902 570.904C344.362 543.689 370.336 510.637 407.817 497.981C446.578 463.763 329.024 517.713 356.716 473.825C368.344 452.845 402.836 428.966 401.645 409.681C380.853 412.98 335.267 467.062 329.453 431.389C334.21 406.753 373.934 364.049 356.001 351.031C338.588 365.169 319.926 427.695 307.799 418.413C311.308 404.608 325.287 348.437 300.535 383.467C287.924 396.234 278.319 455.436 262.558 435.93C267.72 422.192 280.519 376.103 256.683 407.874C230.671 455.901 250.272 510.904 237.861 561.743C230.39 614.326 215.659 637.618 218.726 691.157C223.766 714.858 224.926 758.422 247.264 768.787Z" fill="#FF7B54"/>
<path d="M891 172.261C891 182.606 882.671 190.993 872.397 190.993C862.128 190.993 853.793 182.615 853.793 172.261C853.793 161.912 862.119 153.529 872.397 153.529C882.679 153.529 891 161.912 891 172.261Z" fill="white"/>
<path d="M819.38 81V175.629V81Z" fill="white"/>
<path d="M887.719 81V175.629V81Z" fill="white"/>
<path d="M822.207 181.268C822.207 191.613 813.876 200 803.603 200C793.334 200 785 191.622 785 181.268C785 170.919 793.324 162.536 803.604 162.536C813.881 162.536 822.207 170.919 822.207 181.268Z" fill="white"/>
<path d="M819.38 81H887.909V102.684H819.381L819.38 81Z" fill="white"/>
<path d="M819.38 81V175.629M819.38 81H887.909V102.684H819.381L819.38 81ZM887.719 81V175.629M891 172.261C891 182.606 882.671 190.993 872.397 190.993C862.128 190.993 853.793 182.615 853.793 172.261C853.793 161.912 862.119 153.529 872.397 153.529C882.679 153.529 891 161.912 891 172.261ZM822.207 181.268C822.207 191.613 813.876 200 803.603 200C793.334 200 785 191.622 785 181.268C785 170.919 793.324 162.536 803.604 162.536C813.881 162.536 822.207 170.919 822.207 181.268Z" stroke="white" stroke-width="5" stroke-miterlimit="10"/>
<path d="M1194 513.261C1194 523.606 1185.67 531.993 1175.4 531.993C1165.13 531.993 1156.79 523.615 1156.79 513.261C1156.79 502.912 1165.12 494.529 1175.4 494.529C1185.68 494.529 1194 502.912 1194 513.261Z" fill="white"/>
<path d="M1122.38 422V516.629V422Z" fill="white"/>
<path d="M1190.72 422V516.629V422Z" fill="white"/>
<path d="M1125.21 522.268C1125.21 532.613 1116.88 541 1106.6 541C1096.33 541 1088 532.622 1088 522.268C1088 511.919 1096.32 503.536 1106.6 503.536C1116.88 503.536 1125.21 511.919 1125.21 522.268Z" fill="white"/>
<path d="M1122.38 422H1190.91V443.684H1122.38L1122.38 422Z" fill="white"/>
<path d="M1122.38 422V516.629M1122.38 422H1190.91V443.684H1122.38L1122.38 422ZM1190.72 422V516.629M1194 513.261C1194 523.606 1185.67 531.993 1175.4 531.993C1165.13 531.993 1156.79 523.615 1156.79 513.261C1156.79 502.912 1165.12 494.529 1175.4 494.529C1185.68 494.529 1194 502.912 1194 513.261ZM1125.21 522.268C1125.21 532.613 1116.88 541 1106.6 541C1096.33 541 1088 532.622 1088 522.268C1088 511.919 1096.32 503.536 1106.6 503.536C1116.88 503.536 1125.21 511.919 1125.21 522.268Z" stroke="white" stroke-width="5" stroke-miterlimit="10"/>
<path d="M281 291.261C281 301.606 272.671 309.993 262.397 309.993C252.128 309.993 243.793 301.615 243.793 291.261C243.793 280.912 252.119 272.529 262.397 272.529C272.679 272.529 281 280.912 281 291.261Z" fill="white"/>
<path d="M209.38 200V294.629V200Z" fill="white"/>
<path d="M277.719 200V294.629V200Z" fill="white"/>
<path d="M212.207 300.268C212.207 310.613 203.876 319 193.603 319C183.334 319 175 310.622 175 300.268C175 289.919 183.324 281.536 193.604 281.536C203.881 281.536 212.207 289.919 212.207 300.268Z" fill="white"/>
<path d="M209.38 200H277.909V221.684H209.381L209.38 200Z" fill="white"/>
<path d="M209.38 200V294.629M209.38 200H277.909V221.684H209.381L209.38 200ZM277.719 200V294.629M281 291.261C281 301.606 272.671 309.993 262.397 309.993C252.128 309.993 243.793 301.615 243.793 291.261C243.793 280.912 252.119 272.529 262.397 272.529C272.679 272.529 281 280.912 281 291.261ZM212.207 300.268C212.207 310.613 203.876 319 193.603 319C183.334 319 175 310.622 175 300.268C175 289.919 183.324 281.536 193.604 281.536C203.881 281.536 212.207 289.919 212.207 300.268Z" stroke="white" stroke-width="5" stroke-miterlimit="10"/>
<path d="M1065 210V315.933V210Z" fill="white"/>
<path d="M1065 317.038C1065 328.616 1055.6 338 1044 338C1032.4 338 1023 328.616 1023 317.038C1023 305.46 1032.4 296.075 1044 296.075C1055.6 296.075 1065 305.46 1065 317.038Z" fill="white"/>
<path d="M1065 210V315.933M1065 317.038C1065 328.616 1055.6 338 1044 338C1032.4 338 1023 328.616 1023 317.038C1023 305.46 1032.4 296.075 1044 296.075C1055.6 296.075 1065 305.46 1065 317.038Z" stroke="white" stroke-width="5"/>
<path d="M533 36V141.933V36Z" fill="white"/>
<path d="M533 143.038C533 154.616 523.6 164 512.002 164C500.4 164 491 154.616 491 143.038C491 131.46 500.4 122.075 512.002 122.075C523.6 122.075 533 131.46 533 143.038Z" fill="white"/>
<path d="M533 36V141.933M533 143.038C533 154.616 523.6 164 512.002 164C500.4 164 491 154.616 491 143.038C491 131.46 500.4 122.075 512.002 122.075C523.6 122.075 533 131.46 533 143.038Z" stroke="white" stroke-width="5"/>
<path d="M100 377.038C100 388.616 90.5999 398 79.0018 398C67.4 398 58 388.616 58 377.038C58 365.46 67.4 356.075 79.0018 356.075C90.5999 356.075 100 365.46 100 377.038Z" fill="white"/>
<path d="M99.9998 270V375.933M100 377.038C100 388.616 90.5999 398 79.0018 398C67.4 398 58 388.616 58 377.038C58 365.46 67.4 356.075 79.0018 356.075C90.5999 356.075 100 365.46 100 377.038Z" stroke="white" stroke-width="5"/>
<path d="M165.586 469C165.586 494.757 144.732 515.638 119 515.638C144.732 515.638 165.586 536.511 165.586 562.265C165.586 536.511 186.451 515.638 212.182 515.638C186.451 515.638 165.586 494.757 165.586 469Z" fill="white"/>
<path d="M310.587 71C310.587 96.7536 289.733 117.626 264 117.626C289.732 117.626 310.587 138.508 310.587 164.262C310.587 138.508 331.452 117.626 357.184 117.626C331.452 117.626 310.587 96.7536 310.587 71Z" fill="white"/>
<path d="M1140.6 128C1140.6 153.754 1119.73 174.636 1094 174.636C1119.73 174.636 1140.6 195.508 1140.6 221.265C1140.6 195.508 1161.45 174.635 1187.19 174.635C1161.45 174.635 1140.6 153.754 1140.6 128Z" fill="white"/>
<path d="M658.587 95C658.587 120.757 637.732 141.639 612 141.639C637.732 141.639 658.587 162.511 658.587 188.265C658.587 162.511 679.452 141.639 705.183 141.639C679.452 141.639 658.587 120.757 658.587 95Z" fill="white"/>
<path d="M1043.6 582C1043.6 607.754 1022.73 628.626 997 628.626C1022.73 628.626 1043.6 649.508 1043.6 675.262C1043.6 649.508 1064.45 628.626 1090.19 628.626C1064.45 628.626 1043.6 607.754 1043.6 582Z" fill="white"/>
<path d="M603.956 592C603.956 612.43 587.415 628.984 567 628.984C587.415 628.984 603.956 645.549 603.956 665.971C603.956 645.549 620.504 628.984 640.909 628.984C620.504 628.984 603.956 612.43 603.956 592Z" fill="white"/>
</g>
<defs>
<filter id="filter0_d_184_295" x="278.971" y="231.04" width="189.19" height="273.007" filterUnits="userSpaceOnUse" color-interpolation-filters="sRGB">
<feFlood flood-opacity="0" result="BackgroundImageFix"/>
<feColorMatrix in="SourceAlpha" type="matrix" values="0 0 0 0 0 0 0 0 0 0 0 0 0 0 0 0 0 0 127 0" result="hardAlpha"/>
<feOffset dy="4"/>
<feGaussianBlur stdDeviation="3.35"/>
<feComposite in2="hardAlpha" operator="out"/>
<feColorMatrix type="matrix" values="0 0 0 0 0.893893 0 0 0 0 0.783885 0 0 0 0 0.86901 0 0 0 1 0"/>
<feBlend mode="multiply" in2="BackgroundImageFix" result="effect1_dropShadow_184_295"/>
<feBlend mode="normal" in="SourceGraphic" in2="effect1_dropShadow_184_295" result="shape"/>
</filter>
<filter id="filter1_d_184_295" x="343.972" y="240.079" width="182.401" height="259.502" filterUnits="userSpaceOnUse" color-interpolation-filters="sRGB">
<feFlood flood-opacity="0" result="BackgroundImageFix"/>
<feColorMatrix in="SourceAlpha" type="matrix" values="0 0 0 0 0 0 0 0 0 0 0 0 0 0 0 0 0 0 127 0" result="hardAlpha"/>
<feOffset dy="4"/>
<feGaussianBlur stdDeviation="3.35"/>
<feComposite in2="hardAlpha" operator="out"/>
<feColorMatrix type="matrix" values="0 0 0 0 0.893893 0 0 0 0 0.783885 0 0 0 0 0.86901 0 0 0 1 0"/>
<feBlend mode="multiply" in2="BackgroundImageFix" result="effect1_dropShadow_184_295"/>
<feBlend mode="normal" in="SourceGraphic" in2="effect1_dropShadow_184_295" result="shape"/>
</filter>
<filter id="filter2_d_184_295" x="411.258" y="250.214" width="175.465" height="245.597" filterUnits="userSpaceOnUse" color-interpolation-filters="sRGB">
<feFlood flood-opacity="0" result="BackgroundImageFix"/>
<feColorMatrix in="SourceAlpha" type="matrix" values="0 0 0 0 0 0 0 0 0 0 0 0 0 0 0 0 0 0 127 0" result="hardAlpha"/>
<feOffset dy="4"/>
<feGaussianBlur stdDeviation="3.35"/>
<feComposite in2="hardAlpha" operator="out"/>
<feColorMatrix type="matrix" values="0 0 0 0 0.893893 0 0 0 0 0.783885 0 0 0 0 0.86901 0 0 0 1 0"/>
<feBlend mode="multiply" in2="BackgroundImageFix" result="effect1_dropShadow_184_295"/>
<feBlend mode="normal" in="SourceGraphic" in2="effect1_dropShadow_184_295" result="shape"/>
</filter>
<filter id="filter3_d_184_295" x="477.653" y="258.136" width="169.124" height="232.646" filterUnits="userSpaceOnUse" color-interpolation-filters="sRGB">
<feFlood flood-opacity="0" result="BackgroundImageFix"/>
<feColorMatrix in="SourceAlpha" type="matrix" values="0 0 0 0 0 0 0 0 0 0 0 0 0 0 0 0 0 0 127 0" result="hardAlpha"/>
<feOffset dy="4"/>
<feGaussianBlur stdDeviation="3.35"/>
<feComposite in2="hardAlpha" operator="out"/>
<feColorMatrix type="matrix" values="0 0 0 0 0.893893 0 0 0 0 0.783885 0 0 0 0 0.86901 0 0 0 1 0"/>
<feBlend mode="multiply" in2="BackgroundImageFix" result="effect1_dropShadow_184_295"/>
<feBlend mode="normal" in="SourceGraphic" in2="effect1_dropShadow_184_295" result="shape"/>
</filter>
<filter id="filter4_d_184_295" x="544.701" y="265.222" width="163.283" height="220.873" filterUnits="userSpaceOnUse" color-interpolation-filters="sRGB">
<feFlood flood-opacity="0" result="BackgroundImageFix"/>
<feColorMatrix in="SourceAlpha" type="matrix" values="0 0 0 0 0 0 0 0 0 0 0 0 0 0 0 0 0 0 127 0" result="hardAlpha"/>
<feOffset dy="4"/>
<feGaussianBlur stdDeviation="3.35"/>
<feComposite in2="hardAlpha" operator="out"/>
<feColorMatrix type="matrix" values="0 0 0 0 0.893893 0 0 0 0 0.783885 0 0 0 0 0.86901 0 0 0 1 0"/>
<feBlend mode="multiply" in2="BackgroundImageFix" result="effect1_dropShadow_184_295"/>
<feBlend mode="normal" in="SourceGraphic" in2="effect1_dropShadow_184_295" result="shape"/>
</filter>
<filter id="filter5_d_184_295" x="611.347" y="272.861" width="157.109" height="208.289" filterUnits="userSpaceOnUse" color-interpolation-filters="sRGB">
<feFlood flood-opacity="0" result="BackgroundImageFix"/>
<feColorMatrix in="SourceAlpha" type="matrix" values="0 0 0 0 0 0 0 0 0 0 0 0 0 0 0 0 0 0 127 0" result="hardAlpha"/>
<feOffset dy="4"/>
<feGaussianBlur stdDeviation="3.35"/>
<feComposite in2="hardAlpha" operator="out"/>
<feColorMatrix type="matrix" values="0 0 0 0 0.893893 0 0 0 0 0.783885 0 0 0 0 0.86901 0 0 0 1 0"/>
<feBlend mode="multiply" in2="BackgroundImageFix" result="effect1_dropShadow_184_295"/>
<feBlend mode="normal" in="SourceGraphic" in2="effect1_dropShadow_184_295" result="shape"/>
</filter>
<filter id="filter6_d_184_295" x="681.579" y="284.097" width="149.049" height="192.246" filterUnits="userSpaceOnUse" color-interpolation-filters="sRGB">
<feFlood flood-opacity="0" result="BackgroundImageFix"/>
<feColorMatrix in="SourceAlpha" type="matrix" values="0 0 0 0 0 0 0 0 0 0 0 0 0 0 0 0 0 0 127 0" result="hardAlpha"/>
<feOffset dy="4"/>
<feGaussianBlur stdDeviation="3.35"/>
<feComposite in2="hardAlpha" operator="out"/>
<feColorMatrix type="matrix" values="0 0 0 0 0.893893 0 0 0 0 0.783885 0 0 0 0 0.86901 0 0 0 1 0"/>
<feBlend mode="multiply" in2="BackgroundImageFix" result="effect1_dropShadow_184_295"/>
<feBlend mode="normal" in="SourceGraphic" in2="effect1_dropShadow_184_295" result="shape"/>
</filter>
<filter id="filter7_d_184_295" x="749.702" y="294.232" width="141.394" height="176.834" filterUnits="userSpaceOnUse" color-interpolation-filters="sRGB">
<feFlood flood-opacity="0" result="BackgroundImageFix"/>
<feColorMatrix in="SourceAlpha" type="matrix" values="0 0 0 0 0 0 0 0 0 0 0 0 0 0 0 0 0 0 127 0" result="hardAlpha"/>
<feOffset dy="4"/>
<feGaussianBlur stdDeviation="3.35"/>
<feComposite in2="hardAlpha" operator="out"/>
<feColorMatrix type="matrix" values="0 0 0 0 0.893893 0 0 0 0 0.783885 0 0 0 0 0.86901 0 0 0 1 0"/>
<feBlend mode="multiply" in2="BackgroundImageFix" result="effect1_dropShadow_184_295"/>
<feBlend mode="normal" in="SourceGraphic" in2="effect1_dropShadow_184_295" result="shape"/>
</filter>
<filter id="filter8_d_184_295" x="813.386" y="301.88" width="138.18" height="169.738" filterUnits="userSpaceOnUse" color-interpolation-filters="sRGB">
<feFlood flood-opacity="0" result="BackgroundImageFix"/>
<feColorMatrix in="SourceAlpha" type="matrix" values="0 0 0 0 0 0 0 0 0 0 0 0 0 0 0 0 0 0 127 0" result="hardAlpha"/>
<feOffset dy="4"/>
<feGaussianBlur stdDeviation="3.35"/>
<feComposite in2="hardAlpha" operator="out"/>
<feColorMatrix type="matrix" values="0 0 0 0 0.893893 0 0 0 0 0.783885 0 0 0 0 0.86901 0 0 0 1 0"/>
<feBlend mode="multiply" in2="BackgroundImageFix" result="effect1_dropShadow_184_295"/>
<feBlend mode="normal" in="SourceGraphic" in2="effect1_dropShadow_184_295" result="shape"/>
</filter>
<filter id="filter9_di_184_295" x="416.785" y="240.514" width="18.001" height="18.002" filterUnits="userSpaceOnUse" color-interpolation-filters="sRGB">
<feFlood flood-opacity="0" result="BackgroundImageFix"/>
<feColorMatrix in="SourceAlpha" type="matrix" values="0 0 0 0 0 0 0 0 0 0 0 0 0 0 0 0 0 0 127 0" result="hardAlpha"/>
<feOffset dy="4"/>
<feGaussianBlur stdDeviation="2"/>
<feComposite in2="hardAlpha" operator="out"/>
<feColorMatrix type="matrix" values="0 0 0 0 0.893893 0 0 0 0 0.783885 0 0 0 0 0.86901 0 0 0 0.3 0"/>
<feBlend mode="multiply" in2="BackgroundImageFix" result="effect1_dropShadow_184_295"/>
<feBlend mode="normal" in="SourceGraphic" in2="effect1_dropShadow_184_295" result="shape"/>
<feColorMatrix in="SourceAlpha" type="matrix" values="0 0 0 0 0 0 0 0 0 0 0 0 0 0 0 0 0 0 127 0" result="hardAlpha"/>
<feOffset dy="4"/>
<feGaussianBlur stdDeviation="2"/>
<feComposite in2="hardAlpha" operator="arithmetic" k2="-1" k3="1"/>
<feColorMatrix type="matrix" values="0 0 0 0 0.933333 0 0 0 0 0.72549 0 0 0 0 0.552941 0 0 0 1 0"/>
<feBlend mode="normal" in2="shape" result="effect2_innerShadow_184_295"/>
</filter>
<filter id="filter10_di_184_295" x="308.519" y="463.449" width="18.001" height="18.002" filterUnits="userSpaceOnUse" color-interpolation-filters="sRGB">
<feFlood flood-opacity="0" result="BackgroundImageFix"/>
<feColorMatrix in="SourceAlpha" type="matrix" values="0 0 0 0 0 0 0 0 0 0 0 0 0 0 0 0 0 0 127 0" result="hardAlpha"/>
<feOffset dy="4"/>
<feGaussianBlur stdDeviation="2"/>
<feComposite in2="hardAlpha" operator="out"/>
<feColorMatrix type="matrix" values="0 0 0 0 0.893893 0 0 0 0 0.783885 0 0 0 0 0.86901 0 0 0 0.3 0"/>
<feBlend mode="multiply" in2="BackgroundImageFix" result="effect1_dropShadow_184_295"/>
<feBlend mode="normal" in="SourceGraphic" in2="effect1_dropShadow_184_295" result="shape"/>
<feColorMatrix in="SourceAlpha" type="matrix" values="0 0 0 0 0 0 0 0 0 0 0 0 0 0 0 0 0 0 127 0" result="hardAlpha"/>
<feOffset dy="4"/>
<feGaussianBlur stdDeviation="2"/>
<feComposite in2="hardAlpha" operator="arithmetic" k2="-1" k3="1"/>
<feColorMatrix type="matrix" values="0 0 0 0 0.933333 0 0 0 0 0.72549 0 0 0 0 0.552941 0 0 0 1 0"/>
<feBlend mode="normal" in2="shape" result="effect2_innerShadow_184_295"/>
</filter>
<filter id="filter11_di_184_295" x="476.714" y="250.932" width="18.001" height="18.002" filterUnits="userSpaceOnUse" color-interpolation-filters="sRGB">
<feFlood flood-opacity="0" result="BackgroundImageFix"/>
<feColorMatrix in="SourceAlpha" type="matrix" values="0 0 0 0 0 0 0 0 0 0 0 0 0 0 0 0 0 0 127 0" result="hardAlpha"/>
<feOffset dy="4"/>
<feGaussianBlur stdDeviation="2"/>
<feComposite in2="hardAlpha" operator="out"/>
<feColorMatrix type="matrix" values="0 0 0 0 0.893893 0 0 0 0 0.783885 0 0 0 0 0.86901 0 0 0 0.3 0"/>
<feBlend mode="multiply" in2="BackgroundImageFix" result="effect1_dropShadow_184_295"/>
<feBlend mode="normal" in="SourceGraphic" in2="effect1_dropShadow_184_295" result="shape"/>
<feColorMatrix in="SourceAlpha" type="matrix" values="0 0 0 0 0 0 0 0 0 0 0 0 0 0 0 0 0 0 127 0" result="hardAlpha"/>
<feOffset dy="4"/>
<feGaussianBlur stdDeviation="2"/>
<feComposite in2="hardAlpha" operator="arithmetic" k2="-1" k3="1"/>
<feColorMatrix type="matrix" values="0 0 0 0 0.933333 0 0 0 0 0.72549 0 0 0 0 0.552941 0 0 0 1 0"/>
<feBlend mode="normal" in2="shape" result="effect2_innerShadow_184_295"/>
</filter>
<filter id="filter12_di_184_295" x="371.75" y="460.822" width="18.001" height="18.002" filterUnits="userSpaceOnUse" color-interpolation-filters="sRGB">
<feFlood flood-opacity="0" result="BackgroundImageFix"/>
<feColorMatrix in="SourceAlpha" type="matrix" values="0 0 0 0 0 0 0 0 0 0 0 0 0 0 0 0 0 0 127 0" result="hardAlpha"/>
<feOffset dy="4"/>
<feGaussianBlur stdDeviation="2"/>
<feComposite in2="hardAlpha" operator="out"/>
<feColorMatrix type="matrix" values="0 0 0 0 0.893893 0 0 0 0 0.783885 0 0 0 0 0.86901 0 0 0 0.3 0"/>
<feBlend mode="multiply" in2="BackgroundImageFix" result="effect1_dropShadow_184_295"/>
<feBlend mode="normal" in="SourceGraphic" in2="effect1_dropShadow_184_295" result="shape"/>
<feColorMatrix in="SourceAlpha" type="matrix" values="0 0 0 0 0 0 0 0 0 0 0 0 0 0 0 0 0 0 127 0" result="hardAlpha"/>
<feOffset dy="4"/>
<feGaussianBlur stdDeviation="2"/>
<feComposite in2="hardAlpha" operator="arithmetic" k2="-1" k3="1"/>
<feColorMatrix type="matrix" values="0 0 0 0 0.933333 0 0 0 0 0.72549 0 0 0 0 0.552941 0 0 0 1 0"/>
<feBlend mode="normal" in2="shape" result="effect2_innerShadow_184_295"/>
</filter>
<filter id="filter13_di_184_295" x="538.305" y="260.236" width="18.001" height="18.002" filterUnits="userSpaceOnUse" color-interpolation-filters="sRGB">
<feFlood flood-opacity="0" result="BackgroundImageFix"/>
<feColorMatrix in="SourceAlpha" type="matrix" values="0 0 0 0 0 0 0 0 0 0 0 0 0 0 0 0 0 0 127 0" result="hardAlpha"/>
<feOffset dy="4"/>
<feGaussianBlur stdDeviation="2"/>
<feComposite in2="hardAlpha" operator="out"/>
<feColorMatrix type="matrix" values="0 0 0 0 0.893893 0 0 0 0 0.783885 0 0 0 0 0.86901 0 0 0 0.3 0"/>
<feBlend mode="multiply" in2="BackgroundImageFix" result="effect1_dropShadow_184_295"/>
<feBlend mode="normal" in="SourceGraphic" in2="effect1_dropShadow_184_295" result="shape"/>
<feColorMatrix in="SourceAlpha" type="matrix" values="0 0 0 0 0 0 0 0 0 0 0 0 0 0 0 0 0 0 127 0" result="hardAlpha"/>
<feOffset dy="4"/>
<feGaussianBlur stdDeviation="2"/>
<feComposite in2="hardAlpha" operator="arithmetic" k2="-1" k3="1"/>
<feColorMatrix type="matrix" values="0 0 0 0 0.933333 0 0 0 0 0.72549 0 0 0 0 0.552941 0 0 0 1 0"/>
<feBlend mode="normal" in2="shape" result="effect2_innerShadow_184_295"/>
</filter>
<filter id="filter14_di_184_295" x="440.248" y="457.078" width="18.001" height="18.002" filterUnits="userSpaceOnUse" color-interpolation-filters="sRGB">
<feFlood flood-opacity="0" result="BackgroundImageFix"/>
<feColorMatrix in="SourceAlpha" type="matrix" values="0 0 0 0 0 0 0 0 0 0 0 0 0 0 0 0 0 0 127 0" result="hardAlpha"/>
<feOffset dy="4"/>
<feGaussianBlur stdDeviation="2"/>
<feComposite in2="hardAlpha" operator="out"/>
<feColorMatrix type="matrix" values="0 0 0 0 0.893893 0 0 0 0 0.783885 0 0 0 0 0.86901 0 0 0 0.3 0"/>
<feBlend mode="multiply" in2="BackgroundImageFix" result="effect1_dropShadow_184_295"/>
<feBlend mode="normal" in="SourceGraphic" in2="effect1_dropShadow_184_295" result="shape"/>
<feColorMatrix in="SourceAlpha" type="matrix" values="0 0 0 0 0 0 0 0 0 0 0 0 0 0 0 0 0 0 127 0" result="hardAlpha"/>
<feOffset dy="4"/>
<feGaussianBlur stdDeviation="2"/>
<feComposite in2="hardAlpha" operator="arithmetic" k2="-1" k3="1"/>
<feColorMatrix type="matrix" values="0 0 0 0 0.933333 0 0 0 0 0.72549 0 0 0 0 0.552941 0 0 0 1 0"/>
<feBlend mode="normal" in2="shape" result="effect2_innerShadow_184_295"/>
</filter>
<filter id="filter15_di_184_295" x="598.783" y="267.877" width="18.001" height="18.002" filterUnits="userSpaceOnUse" color-interpolation-filters="sRGB">
<feFlood flood-opacity="0" result="BackgroundImageFix"/>
<feColorMatrix in="SourceAlpha" type="matrix" values="0 0 0 0 0 0 0 0 0 0 0 0 0 0 0 0 0 0 127 0" result="hardAlpha"/>
<feOffset dy="4"/>
<feGaussianBlur stdDeviation="2"/>
<feComposite in2="hardAlpha" operator="out"/>
<feColorMatrix type="matrix" values="0 0 0 0 0.893893 0 0 0 0 0.783885 0 0 0 0 0.86901 0 0 0 0.3 0"/>
<feBlend mode="multiply" in2="BackgroundImageFix" result="effect1_dropShadow_184_295"/>
<feBlend mode="normal" in="SourceGraphic" in2="effect1_dropShadow_184_295" result="shape"/>
<feColorMatrix in="SourceAlpha" type="matrix" values="0 0 0 0 0 0 0 0 0 0 0 0 0 0 0 0 0 0 127 0" result="hardAlpha"/>
<feOffset dy="4"/>
<feGaussianBlur stdDeviation="2"/>
<feComposite in2="hardAlpha" operator="arithmetic" k2="-1" k3="1"/>
<feColorMatrix type="matrix" values="0 0 0 0 0.933333 0 0 0 0 0.72549 0 0 0 0 0.552941 0 0 0 1 0"/>
<feBlend mode="normal" in2="shape" result="effect2_innerShadow_184_295"/>
</filter>
<filter id="filter16_di_184_295" x="505.14" y="453.34" width="18.001" height="18.002" filterUnits="userSpaceOnUse" color-interpolation-filters="sRGB">
<feFlood flood-opacity="0" result="BackgroundImageFix"/>
<feColorMatrix in="SourceAlpha" type="matrix" values="0 0 0 0 0 0 0 0 0 0 0 0 0 0 0 0 0 0 127 0" result="hardAlpha"/>
<feOffset dy="4"/>
<feGaussianBlur stdDeviation="2"/>
<feComposite in2="hardAlpha" operator="out"/>
<feColorMatrix type="matrix" values="0 0 0 0 0.893893 0 0 0 0 0.783885 0 0 0 0 0.86901 0 0 0 0.3 0"/>
<feBlend mode="multiply" in2="BackgroundImageFix" result="effect1_dropShadow_184_295"/>
<feBlend mode="normal" in="SourceGraphic" in2="effect1_dropShadow_184_295" result="shape"/>
<feColorMatrix in="SourceAlpha" type="matrix" values="0 0 0 0 0 0 0 0 0 0 0 0 0 0 0 0 0 0 127 0" result="hardAlpha"/>
<feOffset dy="4"/>
<feGaussianBlur stdDeviation="2"/>
<feComposite in2="hardAlpha" operator="arithmetic" k2="-1" k3="1"/>
<feColorMatrix type="matrix" values="0 0 0 0 0.933333 0 0 0 0 0.72549 0 0 0 0 0.552941 0 0 0 1 0"/>
<feBlend mode="normal" in2="shape" result="effect2_innerShadow_184_295"/>
</filter>
<filter id="filter17_di_184_295" x="661.198" y="273.02" width="18.001" height="18.002" filterUnits="userSpaceOnUse" color-interpolation-filters="sRGB">
<feFlood flood-opacity="0" result="BackgroundImageFix"/>
<feColorMatrix in="SourceAlpha" type="matrix" values="0 0 0 0 0 0 0 0 0 0 0 0 0 0 0 0 0 0 127 0" result="hardAlpha"/>
<feOffset dy="4"/>
<feGaussianBlur stdDeviation="2"/>
<feComposite in2="hardAlpha" operator="out"/>
<feColorMatrix type="matrix" values="0 0 0 0 0.893893 0 0 0 0 0.783885 0 0 0 0 0.86901 0 0 0 0.3 0"/>
<feBlend mode="multiply" in2="BackgroundImageFix" result="effect1_dropShadow_184_295"/>
<feBlend mode="normal" in="SourceGraphic" in2="effect1_dropShadow_184_295" result="shape"/>
<feColorMatrix in="SourceAlpha" type="matrix" values="0 0 0 0 0 0 0 0 0 0 0 0 0 0 0 0 0 0 127 0" result="hardAlpha"/>
<feOffset dy="4"/>
<feGaussianBlur stdDeviation="2"/>
<feComposite in2="hardAlpha" operator="arithmetic" k2="-1" k3="1"/>
<feColorMatrix type="matrix" values="0 0 0 0 0.933333 0 0 0 0 0.72549 0 0 0 0 0.552941 0 0 0 1 0"/>
<feBlend mode="normal" in2="shape" result="effect2_innerShadow_184_295"/>
</filter>
<filter id="filter18_di_184_295" x="571.42" y="449.875" width="18.001" height="18.002" filterUnits="userSpaceOnUse" color-interpolation-filters="sRGB">
<feFlood flood-opacity="0" result="BackgroundImageFix"/>
<feColorMatrix in="SourceAlpha" type="matrix" values="0 0 0 0 0 0 0 0 0 0 0 0 0 0 0 0 0 0 127 0" result="hardAlpha"/>
<feOffset dy="4"/>
<feGaussianBlur stdDeviation="2"/>
<feComposite in2="hardAlpha" operator="out"/>
<feColorMatrix type="matrix" values="0 0 0 0 0.893893 0 0 0 0 0.783885 0 0 0 0 0.86901 0 0 0 0.3 0"/>
<feBlend mode="multiply" in2="BackgroundImageFix" result="effect1_dropShadow_184_295"/>
<feBlend mode="normal" in="SourceGraphic" in2="effect1_dropShadow_184_295" result="shape"/>
<feColorMatrix in="SourceAlpha" type="matrix" values="0 0 0 0 0 0 0 0 0 0 0 0 0 0 0 0 0 0 127 0" result="hardAlpha"/>
<feOffset dy="4"/>
<feGaussianBlur stdDeviation="2"/>
<feComposite in2="hardAlpha" operator="arithmetic" k2="-1" k3="1"/>
<feColorMatrix type="matrix" values="0 0 0 0 0.933333 0 0 0 0 0.72549 0 0 0 0 0.552941 0 0 0 1 0"/>
<feBlend mode="normal" in2="shape" result="effect2_innerShadow_184_295"/>
</filter>
<filter id="filter19_di_184_295" x="720.844" y="281.219" width="18.001" height="18.002" filterUnits="userSpaceOnUse" color-interpolation-filters="sRGB">
<feFlood flood-opacity="0" result="BackgroundImageFix"/>
<feColorMatrix in="SourceAlpha" type="matrix" values="0 0 0 0 0 0 0 0 0 0 0 0 0 0 0 0 0 0 127 0" result="hardAlpha"/>
<feOffset dy="4"/>
<feGaussianBlur stdDeviation="2"/>
<feComposite in2="hardAlpha" operator="out"/>
<feColorMatrix type="matrix" values="0 0 0 0 0.893893 0 0 0 0 0.783885 0 0 0 0 0.86901 0 0 0 0.3 0"/>
<feBlend mode="multiply" in2="BackgroundImageFix" result="effect1_dropShadow_184_295"/>
<feBlend mode="normal" in="SourceGraphic" in2="effect1_dropShadow_184_295" result="shape"/>
<feColorMatrix in="SourceAlpha" type="matrix" values="0 0 0 0 0 0 0 0 0 0 0 0 0 0 0 0 0 0 127 0" result="hardAlpha"/>
<feOffset dy="4"/>
<feGaussianBlur stdDeviation="2"/>
<feComposite in2="hardAlpha" operator="arithmetic" k2="-1" k3="1"/>
<feColorMatrix type="matrix" values="0 0 0 0 0.933333 0 0 0 0 0.72549 0 0 0 0 0.552941 0 0 0 1 0"/>
<feBlend mode="normal" in2="shape" result="effect2_innerShadow_184_295"/>
</filter>
<filter id="filter20_di_184_295" x="638.805" y="444.469" width="18.001" height="18.002" filterUnits="userSpaceOnUse" color-interpolation-filters="sRGB">
<feFlood flood-opacity="0" result="BackgroundImageFix"/>
<feColorMatrix in="SourceAlpha" type="matrix" values="0 0 0 0 0 0 0 0 0 0 0 0 0 0 0 0 0 0 127 0" result="hardAlpha"/>
<feOffset dy="4"/>
<feGaussianBlur stdDeviation="2"/>
<feComposite in2="hardAlpha" operator="out"/>
<feColorMatrix type="matrix" values="0 0 0 0 0.893893 0 0 0 0 0.783885 0 0 0 0 0.86901 0 0 0 0.3 0"/>
<feBlend mode="multiply" in2="BackgroundImageFix" result="effect1_dropShadow_184_295"/>
<feBlend mode="normal" in="SourceGraphic" in2="effect1_dropShadow_184_295" result="shape"/>
<feColorMatrix in="SourceAlpha" type="matrix" values="0 0 0 0 0 0 0 0 0 0 0 0 0 0 0 0 0 0 127 0" result="hardAlpha"/>
<feOffset dy="4"/>
<feGaussianBlur stdDeviation="2"/>
<feComposite in2="hardAlpha" operator="arithmetic" k2="-1" k3="1"/>
<feColorMatrix type="matrix" values="0 0 0 0 0.933333 0 0 0 0 0.72549 0 0 0 0 0.552941 0 0 0 1 0"/>
<feBlend mode="normal" in2="shape" result="effect2_innerShadow_184_295"/>
</filter>
<filter id="filter21_di_184_295" x="783.548" y="292.184" width="18.001" height="18.002" filterUnits="userSpaceOnUse" color-interpolation-filters="sRGB">
<feFlood flood-opacity="0" result="BackgroundImageFix"/>
<feColorMatrix in="SourceAlpha" type="matrix" values="0 0 0 0 0 0 0 0 0 0 0 0 0 0 0 0 0 0 127 0" result="hardAlpha"/>
<feOffset dy="4"/>
<feGaussianBlur stdDeviation="2"/>
<feComposite in2="hardAlpha" operator="out"/>
<feColorMatrix type="matrix" values="0 0 0 0 0.893893 0 0 0 0 0.783885 0 0 0 0 0.86901 0 0 0 0.3 0"/>
<feBlend mode="multiply" in2="BackgroundImageFix" result="effect1_dropShadow_184_295"/>
<feBlend mode="normal" in="SourceGraphic" in2="effect1_dropShadow_184_295" result="shape"/>
<feColorMatrix in="SourceAlpha" type="matrix" values="0 0 0 0 0 0 0 0 0 0 0 0 0 0 0 0 0 0 127 0" result="hardAlpha"/>
<feOffset dy="4"/>
<feGaussianBlur stdDeviation="2"/>
<feComposite in2="hardAlpha" operator="arithmetic" k2="-1" k3="1"/>
<feColorMatrix type="matrix" values="0 0 0 0 0.933333 0 0 0 0 0.72549 0 0 0 0 0.552941 0 0 0 1 0"/>
<feBlend mode="normal" in2="shape" result="effect2_innerShadow_184_295"/>
</filter>
<filter id="filter22_di_184_295" x="707.021" y="438.504" width="18.001" height="18.002" filterUnits="userSpaceOnUse" color-interpolation-filters="sRGB">
<feFlood flood-opacity="0" result="BackgroundImageFix"/>
<feColorMatrix in="SourceAlpha" type="matrix" values="0 0 0 0 0 0 0 0 0 0 0 0 0 0 0 0 0 0 127 0" result="hardAlpha"/>
<feOffset dy="4"/>
<feGaussianBlur stdDeviation="2"/>
<feComposite in2="hardAlpha" operator="out"/>
<feColorMatrix type="matrix" values="0 0 0 0 0.893893 0 0 0 0 0.783885 0 0 0 0 0.86901 0 0 0 0.3 0"/>
<feBlend mode="multiply" in2="BackgroundImageFix" result="effect1_dropShadow_184_295"/>
<feBlend mode="normal" in="SourceGraphic" in2="effect1_dropShadow_184_295" result="shape"/>
<feColorMatrix in="SourceAlpha" type="matrix" values="0 0 0 0 0 0 0 0 0 0 0 0 0 0 0 0 0 0 127 0" result="hardAlpha"/>
<feOffset dy="4"/>
<feGaussianBlur stdDeviation="2"/>
<feComposite in2="hardAlpha" operator="arithmetic" k2="-1" k3="1"/>
<feColorMatrix type="matrix" values="0 0 0 0 0.933333 0 0 0 0 0.72549 0 0 0 0 0.552941 0 0 0 1 0"/>
<feBlend mode="normal" in2="shape" result="effect2_innerShadow_184_295"/>
</filter>
<filter id="filter23_di_184_295" x="843.477" y="302.602" width="18.001" height="18.002" filterUnits="userSpaceOnUse" color-interpolation-filters="sRGB">
<feFlood flood-opacity="0" result="BackgroundImageFix"/>
<feColorMatrix in="SourceAlpha" type="matrix" values="0 0 0 0 0 0 0 0 0 0 0 0 0 0 0 0 0 0 127 0" result="hardAlpha"/>
<feOffset dy="4"/>
<feGaussianBlur stdDeviation="2"/>
<feComposite in2="hardAlpha" operator="out"/>
<feColorMatrix type="matrix" values="0 0 0 0 0.893893 0 0 0 0 0.783885 0 0 0 0 0.86901 0 0 0 0.3 0"/>
<feBlend mode="multiply" in2="BackgroundImageFix" result="effect1_dropShadow_184_295"/>
<feBlend mode="normal" in="SourceGraphic" in2="effect1_dropShadow_184_295" result="shape"/>
<feColorMatrix in="SourceAlpha" type="matrix" values="0 0 0 0 0 0 0 0 0 0 0 0 0 0 0 0 0 0 127 0" result="hardAlpha"/>
<feOffset dy="4"/>
<feGaussianBlur stdDeviation="2"/>
<feComposite in2="hardAlpha" operator="arithmetic" k2="-1" k3="1"/>
<feColorMatrix type="matrix" values="0 0 0 0 0.933333 0 0 0 0 0.72549 0 0 0 0 0.552941 0 0 0 1 0"/>
<feBlend mode="normal" in2="shape" result="effect2_innerShadow_184_295"/>
</filter>
<filter id="filter24_di_184_295" x="775.519" y="434.76" width="18.001" height="18.002" filterUnits="userSpaceOnUse" color-interpolation-filters="sRGB">
<feFlood flood-opacity="0" result="BackgroundImageFix"/>
<feColorMatrix in="SourceAlpha" type="matrix" values="0 0 0 0 0 0 0 0 0 0 0 0 0 0 0 0 0 0 127 0" result="hardAlpha"/>
<feOffset dy="4"/>
<feGaussianBlur stdDeviation="2"/>
<feComposite in2="hardAlpha" operator="out"/>
<feColorMatrix type="matrix" values="0 0 0 0 0.893893 0 0 0 0 0.783885 0 0 0 0 0.86901 0 0 0 0.3 0"/>
<feBlend mode="multiply" in2="BackgroundImageFix" result="effect1_dropShadow_184_295"/>
<feBlend mode="normal" in="SourceGraphic" in2="effect1_dropShadow_184_295" result="shape"/>
<feColorMatrix in="SourceAlpha" type="matrix" values="0 0 0 0 0 0 0 0 0 0 0 0 0 0 0 0 0 0 127 0" result="hardAlpha"/>
<feOffset dy="4"/>
<feGaussianBlur stdDeviation="2"/>
<feComposite in2="hardAlpha" operator="arithmetic" k2="-1" k3="1"/>
<feColorMatrix type="matrix" values="0 0 0 0 0.933333 0 0 0 0 0.72549 0 0 0 0 0.552941 0 0 0 1 0"/>
<feBlend mode="normal" in2="shape" result="effect2_innerShadow_184_295"/>
</filter>
<filter id="filter25_di_184_295" x="903.681" y="311.631" width="18.001" height="18.002" filterUnits="userSpaceOnUse" color-interpolation-filters="sRGB">
<feFlood flood-opacity="0" result="BackgroundImageFix"/>
<feColorMatrix in="SourceAlpha" type="matrix" values="0 0 0 0 0 0 0 0 0 0 0 0 0 0 0 0 0 0 127 0" result="hardAlpha"/>
<feOffset dy="4"/>
<feGaussianBlur stdDeviation="2"/>
<feComposite in2="hardAlpha" operator="out"/>
<feColorMatrix type="matrix" values="0 0 0 0 0.893893 0 0 0 0 0.783885 0 0 0 0 0.86901 0 0 0 0.3 0"/>
<feBlend mode="multiply" in2="BackgroundImageFix" result="effect1_dropShadow_184_295"/>
<feBlend mode="normal" in="SourceGraphic" in2="effect1_dropShadow_184_295" result="shape"/>
<feColorMatrix in="SourceAlpha" type="matrix" values="0 0 0 0 0 0 0 0 0 0 0 0 0 0 0 0 0 0 127 0" result="hardAlpha"/>
<feOffset dy="4"/>
<feGaussianBlur stdDeviation="2"/>
<feComposite in2="hardAlpha" operator="arithmetic" k2="-1" k3="1"/>
<feColorMatrix type="matrix" values="0 0 0 0 0.933333 0 0 0 0 0.72549 0 0 0 0 0.552941 0 0 0 1 0"/>
<feBlend mode="normal" in2="shape" result="effect2_innerShadow_184_295"/>
</filter>
<filter id="filter26_di_184_295" x="841.25" y="434.07" width="18.001" height="18.002" filterUnits="userSpaceOnUse" color-interpolation-filters="sRGB">
<feFlood flood-opacity="0" result="BackgroundImageFix"/>
<feColorMatrix in="SourceAlpha" type="matrix" values="0 0 0 0 0 0 0 0 0 0 0 0 0 0 0 0 0 0 127 0" result="hardAlpha"/>
<feOffset dy="4"/>
<feGaussianBlur stdDeviation="2"/>
<feComposite in2="hardAlpha" operator="out"/>
<feColorMatrix type="matrix" values="0 0 0 0 0.893893 0 0 0 0 0.783885 0 0 0 0 0.86901 0 0 0 0.3 0"/>
<feBlend mode="multiply" in2="BackgroundImageFix" result="effect1_dropShadow_184_295"/>
<feBlend mode="normal" in="SourceGraphic" in2="effect1_dropShadow_184_295" result="shape"/>
<feColorMatrix in="SourceAlpha" type="matrix" values="0 0 0 0 0 0 0 0 0 0 0 0 0 0 0 0 0 0 127 0" result="hardAlpha"/>
<feOffset dy="4"/>
<feGaussianBlur stdDeviation="2"/>
<feComposite in2="hardAlpha" operator="arithmetic" k2="-1" k3="1"/>
<feColorMatrix type="matrix" values="0 0 0 0 0.933333 0 0 0 0 0.72549 0 0 0 0 0.552941 0 0 0 1 0"/>
<feBlend mode="normal" in2="shape" result="effect2_innerShadow_184_295"/>
</filter>
<linearGradient id="paint0_linear_184_295" x1="643.753" y1="778.536" x2="643.753" y2="-84.7306" gradientUnits="userSpaceOnUse">
<stop stop-color="#1F5E96"/>
<stop offset="1" stop-color="#3291FF"/>
</linearGradient>
<clipPath id="clip0_184_295">
<rect width="1280" height="720" fill="white"/>
</clipPath>
</defs>
</svg>
