<?xml version="1.0" encoding="UTF-8" standalone="no"?>
<!DOCTYPE svg PUBLIC "-//W3C//DTD SVG 1.1//EN"
 "http://www.w3.org/Graphics/SVG/1.1/DTD/svg11.dtd">
<!-- Generated by graphviz version 14.1.2 (0)
 -->
<!-- Title: PDG_MakeCode Pages: 1 -->
<svg width="1636pt" height="979pt"
 viewBox="0.00 0.00 1636.00 979.00" xmlns="http://www.w3.org/2000/svg" xmlns:xlink="http://www.w3.org/1999/xlink">
<g id="graph0" class="graph" transform="scale(1 1) rotate(0) translate(21.6 957.6)">
<title>PDG_MakeCode</title>
<polygon fill="#fbf6eb" stroke="none" points="-21.6,21.6 -21.6,-957.6 1614.01,-957.6 1614.01,21.6 -21.6,21.6"/>
<g id="clust1" class="cluster">
<title>cluster_loop</title>
<path fill="#fbf6eb" stroke="#8b2418" stroke-width="1.8" stroke-dasharray="5,2" d="M161.52,-8C161.52,-8 1418.52,-8 1418.52,-8 1424.52,-8 1430.52,-14 1430.52,-20 1430.52,-20 1430.52,-916 1430.52,-916 1430.52,-922 1424.52,-928 1418.52,-928 1418.52,-928 161.52,-928 161.52,-928 155.52,-928 149.52,-922 149.52,-916 149.52,-916 149.52,-20 149.52,-20 149.52,-14 155.52,-8 161.52,-8"/>
<text xml:space="preserve" text-anchor="start" x="183.39" y="-914.55" font-family="Arial" font-weight="bold" font-size="11.00">loop</text>
<text xml:space="preserve" text-anchor="start" x="157.52" y="-905.45" font-family="Arial" font-size="9.00" fill="#8b2418">alcance de control</text>
</g>
<!-- n1 -->
<g id="node1" class="node">
<title>n1</title>
<path fill="#34495e" stroke="#1a1612" stroke-width="1.5" d="M119.04,-326C119.04,-326 12,-326 12,-326 6,-326 0,-320 0,-314 0,-314 0,-302 0,-302 0,-296 6,-290 12,-290 12,-290 119.04,-290 119.04,-290 125.04,-290 131.04,-296 131.04,-302 131.04,-302 131.04,-314 131.04,-314 131.04,-320 125.04,-326 119.04,-326"/>
<text xml:space="preserve" text-anchor="middle" x="65.52" y="-304.3" font-family="Arial" font-size="11.00" fill="#fbf6eb">1 &#160;&#160;ProgramStartEvent</text>
</g>
<!-- n2 -->
<g id="node2" class="node">
<title>n2</title>
<path fill="#8b2418" stroke="#1a1612" stroke-width="1.5" d="M109.29,-238C109.29,-238 39.75,-238 39.75,-238 33.75,-238 27.75,-232 27.75,-226 27.75,-226 27.75,-214 27.75,-214 27.75,-208 33.75,-202 39.75,-202 39.75,-202 109.29,-202 109.29,-202 115.29,-202 121.29,-208 121.29,-214 121.29,-214 121.29,-226 121.29,-226 121.29,-232 115.29,-238 109.29,-238"/>
<text xml:space="preserve" text-anchor="middle" x="74.52" y="-216.3" font-family="Arial" font-size="11.00" fill="#fbf6eb">2 &#160;&#160;SetVariable</text>
</g>
<!-- n1&#45;&gt;n2 -->
<g id="edge1" class="edge">
<title>n1&#45;&gt;n2</title>
<path fill="none" stroke="#8b2418" stroke-width="2" d="M67.34,-289.6C68.49,-278.6 70.01,-264.08 71.36,-251.24"/>
<polygon fill="#8b2418" stroke="#8b2418" stroke-width="2" points="74.8,-251.99 72.36,-241.68 67.83,-251.26 74.8,-251.99"/>
</g>
<!-- n37 -->
<g id="node38" class="node">
<title>n37</title>
<path fill="#b8843a" stroke="#1a1612" stroke-width="1.5" d="M520.79,-150C520.79,-150 412.25,-150 412.25,-150 406.25,-150 400.25,-144 400.25,-138 400.25,-138 400.25,-126 400.25,-126 400.25,-120 406.25,-114 412.25,-114 412.25,-114 520.79,-114 520.79,-114 526.79,-114 532.79,-120 532.79,-126 532.79,-126 532.79,-138 532.79,-138 532.79,-144 526.79,-150 520.79,-150"/>
<text xml:space="preserve" text-anchor="middle" x="466.52" y="-128.3" font-family="Arial" font-size="11.00" fill="#fbf6eb">37 &#160;&#160;ConditionalBranch</text>
</g>
<!-- n2&#45;&gt;n37 -->
<g id="edge2" class="edge">
<title>n2&#45;&gt;n37</title>
<path fill="none" stroke="#4a3f33" stroke-width="1.3" d="M121.68,-206.79C128.33,-205.14 135.09,-203.5 141.52,-202 225.52,-182.43 322.26,-162.19 388.21,-148.73"/>
<polygon fill="#4a3f33" stroke="#4a3f33" stroke-width="1.3" points="388.72,-152.19 397.82,-146.77 387.32,-145.34 388.72,-152.19"/>
<text xml:space="preserve" text-anchor="middle" x="307.53" y="-172.5" font-family="Arial" font-size="10.00" fill="#8b2418"> sonidofijo </text>
</g>
<!-- n54 -->
<g id="node3" class="node">
<title>n54</title>
<path fill="#fbf6eb" stroke="#1a1612" stroke-width="1.5" d="M1580.41,-854C1580.41,-854 1460.62,-854 1460.62,-854 1454.62,-854 1448.62,-848 1448.62,-842 1448.62,-842 1448.62,-830 1448.62,-830 1448.62,-824 1454.62,-818 1460.62,-818 1460.62,-818 1580.41,-818 1580.41,-818 1586.41,-818 1592.41,-824 1592.41,-830 1592.41,-830 1592.41,-842 1592.41,-842 1592.41,-848 1586.41,-854 1580.41,-854"/>
<text xml:space="preserve" text-anchor="middle" x="1520.52" y="-832.3" font-family="Arial" font-size="11.00" fill="#1a1612">54 &#160;&#160;Arithmetic [constrain]</text>
</g>
<!-- n3 -->
<g id="node4" class="node">
<title>n3</title>
<path fill="#fbf6eb" stroke="#1a1612" stroke-width="1.5" d="M258.91,-766C258.91,-766 190.12,-766 190.12,-766 184.12,-766 178.12,-760 178.12,-754 178.12,-754 178.12,-742 178.12,-742 178.12,-736 184.12,-730 190.12,-730 190.12,-730 258.91,-730 258.91,-730 264.91,-730 270.91,-736 270.91,-742 270.91,-742 270.91,-754 270.91,-754 270.91,-760 264.91,-766 258.91,-766"/>
<text xml:space="preserve" text-anchor="middle" x="224.52" y="-744.3" font-family="Arial" font-size="11.00" fill="#1a1612">3 &#160;&#160;ReadTilt #1</text>
</g>
<!-- n4 -->
<g id="node5" class="node">
<title>n4</title>
<path fill="#fbf6eb" stroke="#1a1612" stroke-width="1.5" d="M262.66,-678C262.66,-678 186.38,-678 186.38,-678 180.38,-678 174.38,-672 174.38,-666 174.38,-666 174.38,-654 174.38,-654 174.38,-648 180.38,-642 186.38,-642 186.38,-642 262.66,-642 262.66,-642 268.66,-642 274.66,-648 274.66,-654 274.66,-654 274.66,-666 274.66,-666 274.66,-672 268.66,-678 262.66,-678"/>
<text xml:space="preserve" text-anchor="middle" x="224.52" y="-656.3" font-family="Arial" font-size="11.00" fill="#1a1612">4 &#160;&#160;Arithmetic [÷]</text>
</g>
<!-- n3&#45;&gt;n4 -->
<g id="edge3" class="edge">
<title>n3&#45;&gt;n4</title>
<path fill="none" stroke="#4a3f33" stroke-width="1.3" d="M224.52,-729.6C224.52,-718.36 224.52,-703.47 224.52,-690.43"/>
<polygon fill="#4a3f33" stroke="#4a3f33" stroke-width="1.3" points="228.02,-690.64 224.52,-680.64 221.02,-690.64 228.02,-690.64"/>
<text xml:space="preserve" text-anchor="middle" x="238.02" y="-700.5" font-family="Arial" font-size="10.00" fill="#8b2418"> tilt_1 </text>
</g>
<!-- n5 -->
<g id="node6" class="node">
<title>n5</title>
<path fill="#fbf6eb" stroke="#1a1612" stroke-width="1.5" d="M277.54,-590C277.54,-590 179.5,-590 179.5,-590 173.5,-590 167.5,-584 167.5,-578 167.5,-578 167.5,-566 167.5,-566 167.5,-560 173.5,-554 179.5,-554 179.5,-554 277.54,-554 277.54,-554 283.54,-554 289.54,-560 289.54,-566 289.54,-566 289.54,-578 289.54,-578 289.54,-584 283.54,-590 277.54,-590"/>
<text xml:space="preserve" text-anchor="middle" x="228.52" y="-568.3" font-family="Arial" font-size="11.00" fill="#1a1612">5 &#160;&#160;Arithmetic [round]</text>
</g>
<!-- n4&#45;&gt;n5 -->
<g id="edge4" class="edge">
<title>n4&#45;&gt;n5</title>
<path fill="none" stroke="#4a3f33" stroke-width="1.3" d="M225.33,-641.6C225.85,-630.36 226.54,-615.47 227.15,-602.43"/>
<polygon fill="#4a3f33" stroke="#4a3f33" stroke-width="1.3" points="230.64,-602.79 227.61,-592.64 223.65,-602.46 230.64,-602.79"/>
<text xml:space="preserve" text-anchor="middle" x="241.38" y="-612.5" font-family="Arial" font-size="10.00" fill="#8b2418"> value </text>
</g>
<!-- n6 -->
<g id="node7" class="node">
<title>n6</title>
<path fill="#fbf6eb" stroke="#1a1612" stroke-width="1.5" d="M428.16,-502C428.16,-502 360.88,-502 360.88,-502 354.88,-502 348.88,-496 348.88,-490 348.88,-490 348.88,-478 348.88,-478 348.88,-472 354.88,-466 360.88,-466 360.88,-466 428.16,-466 428.16,-466 434.16,-466 440.16,-472 440.16,-478 440.16,-478 440.16,-490 440.16,-490 440.16,-496 434.16,-502 428.16,-502"/>
<text xml:space="preserve" text-anchor="middle" x="394.52" y="-480.3" font-family="Arial" font-size="11.00" fill="#1a1612">6 &#160;&#160;SerialWrite</text>
</g>
<!-- n5&#45;&gt;n6 -->
<g id="edge5" class="edge">
<title>n5&#45;&gt;n6</title>
<path fill="none" stroke="#4a3f33" stroke-width="1.3" d="M262.51,-553.39C287.72,-540.33 322.32,-522.41 349.77,-508.18"/>
<polygon fill="#4a3f33" stroke="#4a3f33" stroke-width="1.3" points="351.27,-511.35 358.54,-503.64 348.05,-505.13 351.27,-511.35"/>
<text xml:space="preserve" text-anchor="middle" x="336.08" y="-524.5" font-family="Arial" font-size="10.00" fill="#8b2418"> value </text>
</g>
<!-- n7 -->
<g id="node8" class="node">
<title>n7</title>
<path fill="#fbf6eb" stroke="#1a1612" stroke-width="1.5" d="M460.79,-414C460.79,-414 370.25,-414 370.25,-414 364.25,-414 358.25,-408 358.25,-402 358.25,-402 358.25,-390 358.25,-390 358.25,-384 364.25,-378 370.25,-378 370.25,-378 460.79,-378 460.79,-378 466.79,-378 472.79,-384 472.79,-390 472.79,-390 472.79,-402 472.79,-402 472.79,-408 466.79,-414 460.79,-414"/>
<text xml:space="preserve" text-anchor="middle" x="415.52" y="-392.3" font-family="Arial" font-size="11.00" fill="#1a1612">7 &#160;&#160;ClearDisplay #1</text>
</g>
<!-- n6&#45;&gt;n7 -->
<g id="edge6" class="edge">
<title>n6&#45;&gt;n7</title>
<path fill="none" stroke="#8b2418" stroke-width="2" d="M398.77,-465.6C401.46,-454.6 405,-440.08 408.14,-427.24"/>
<polygon fill="#8b2418" stroke="#8b2418" stroke-width="2" points="411.51,-428.16 410.49,-417.61 404.71,-426.5 411.51,-428.16"/>
</g>
<!-- n27 -->
<g id="node28" class="node">
<title>n27</title>
<path fill="#b8843a" stroke="#1a1612" stroke-width="1.5" d="M610.79,-326C610.79,-326 502.25,-326 502.25,-326 496.25,-326 490.25,-320 490.25,-314 490.25,-314 490.25,-302 490.25,-302 490.25,-296 496.25,-290 502.25,-290 502.25,-290 610.79,-290 610.79,-290 616.79,-290 622.79,-296 622.79,-302 622.79,-302 622.79,-314 622.79,-314 622.79,-320 616.79,-326 610.79,-326"/>
<text xml:space="preserve" text-anchor="middle" x="556.52" y="-304.3" font-family="Arial" font-size="11.00" fill="#fbf6eb">27 &#160;&#160;ConditionalBranch</text>
</g>
<!-- n7&#45;&gt;n27 -->
<g id="edge7" class="edge">
<title>n7&#45;&gt;n27</title>
<path fill="none" stroke="#8b2418" stroke-width="2" d="M438.98,-377.43C452.34,-367.72 469.54,-355.7 485.52,-346 492.94,-341.49 500.97,-336.98 508.87,-332.74"/>
<polygon fill="#8b2418" stroke="#8b2418" stroke-width="2" points="510.37,-335.91 517.58,-328.15 507.1,-329.71 510.37,-335.91"/>
</g>
<!-- n36 -->
<g id="node37" class="node">
<title>n36</title>
<path fill="#5a6b3b" stroke="#1a1612" stroke-width="1.5" d="M907.79,-238C907.79,-238 829.25,-238 829.25,-238 823.25,-238 817.25,-232 817.25,-226 817.25,-226 817.25,-214 817.25,-214 817.25,-208 823.25,-202 829.25,-202 829.25,-202 907.79,-202 907.79,-202 913.79,-202 919.79,-208 919.79,-214 919.79,-214 919.79,-226 919.79,-226 919.79,-232 913.79,-238 907.79,-238"/>
<text xml:space="preserve" text-anchor="middle" x="868.52" y="-216.3" font-family="Arial" font-size="11.00" fill="#fbf6eb">36 &#160;&#160;PlotPoint #1</text>
</g>
<!-- n7&#45;&gt;n36 -->
<g id="edge8" class="edge">
<title>n7&#45;&gt;n36</title>
<path fill="none" stroke="#5a6b3b" stroke-width="1.3" stroke-dasharray="5,2" d="M459.05,-377.28C484.79,-367.23 518.18,-354.92 548.52,-346 587.83,-334.45 598.88,-336.39 638.52,-326 643.71,-324.64 818.97,-272.86 823.52,-270 832.9,-264.11 841.57,-255.75 848.74,-247.61"/>
<polygon fill="#5a6b3b" stroke="#5a6b3b" stroke-width="1.3" points="851.23,-250.09 854.91,-240.16 845.83,-245.63 851.23,-250.09"/>
<text xml:space="preserve" text-anchor="middle" x="776.31" y="-304.5" font-family="Arial" font-size="10.00" fill="#5a6b3b"> display </text>
</g>
<!-- n8 -->
<g id="node9" class="node">
<title>n8</title>
<path fill="#fbf6eb" stroke="#1a1612" stroke-width="1.5" d="M884.91,-854C884.91,-854 816.12,-854 816.12,-854 810.12,-854 804.12,-848 804.12,-842 804.12,-842 804.12,-830 804.12,-830 804.12,-824 810.12,-818 816.12,-818 816.12,-818 884.91,-818 884.91,-818 890.91,-818 896.91,-824 896.91,-830 896.91,-830 896.91,-842 896.91,-842 896.91,-848 890.91,-854 884.91,-854"/>
<text xml:space="preserve" text-anchor="middle" x="850.52" y="-832.3" font-family="Arial" font-size="11.00" fill="#1a1612">8 &#160;&#160;ReadTilt #1</text>
</g>
<!-- n9 -->
<g id="node10" class="node">
<title>n9</title>
<path fill="#fbf6eb" stroke="#1a1612" stroke-width="1.5" d="M888.66,-766C888.66,-766 812.38,-766 812.38,-766 806.38,-766 800.38,-760 800.38,-754 800.38,-754 800.38,-742 800.38,-742 800.38,-736 806.38,-730 812.38,-730 812.38,-730 888.66,-730 888.66,-730 894.66,-730 900.66,-736 900.66,-742 900.66,-742 900.66,-754 900.66,-754 900.66,-760 894.66,-766 888.66,-766"/>
<text xml:space="preserve" text-anchor="middle" x="850.52" y="-744.3" font-family="Arial" font-size="11.00" fill="#1a1612">9 &#160;&#160;Arithmetic [÷]</text>
</g>
<!-- n8&#45;&gt;n9 -->
<g id="edge9" class="edge">
<title>n8&#45;&gt;n9</title>
<path fill="none" stroke="#4a3f33" stroke-width="1.3" d="M850.52,-817.6C850.52,-806.36 850.52,-791.47 850.52,-778.43"/>
<polygon fill="#4a3f33" stroke="#4a3f33" stroke-width="1.3" points="854.02,-778.64 850.52,-768.64 847.02,-778.64 854.02,-778.64"/>
<text xml:space="preserve" text-anchor="middle" x="864.02" y="-788.5" font-family="Arial" font-size="10.00" fill="#8b2418"> tilt_1 </text>
</g>
<!-- n10 -->
<g id="node11" class="node">
<title>n10</title>
<path fill="#fbf6eb" stroke="#1a1612" stroke-width="1.5" d="M902.54,-678C902.54,-678 798.5,-678 798.5,-678 792.5,-678 786.5,-672 786.5,-666 786.5,-666 786.5,-654 786.5,-654 786.5,-648 792.5,-642 798.5,-642 798.5,-642 902.54,-642 902.54,-642 908.54,-642 914.54,-648 914.54,-654 914.54,-654 914.54,-666 914.54,-666 914.54,-672 908.54,-678 902.54,-678"/>
<text xml:space="preserve" text-anchor="middle" x="850.52" y="-656.3" font-family="Arial" font-size="11.00" fill="#1a1612">10 &#160;&#160;Arithmetic [round]</text>
</g>
<!-- n9&#45;&gt;n10 -->
<g id="edge10" class="edge">
<title>n9&#45;&gt;n10</title>
<path fill="none" stroke="#4a3f33" stroke-width="1.3" d="M850.52,-729.6C850.52,-718.36 850.52,-703.47 850.52,-690.43"/>
<polygon fill="#4a3f33" stroke="#4a3f33" stroke-width="1.3" points="854.02,-690.64 850.52,-680.64 847.02,-690.64 854.02,-690.64"/>
<text xml:space="preserve" text-anchor="middle" x="865.14" y="-700.5" font-family="Arial" font-size="10.00" fill="#8b2418"> value </text>
</g>
<!-- n11 -->
<g id="node12" class="node">
<title>n11</title>
<path fill="#fbf6eb" stroke="#1a1612" stroke-width="1.5" d="M877.29,-590C877.29,-590 783.75,-590 783.75,-590 777.75,-590 771.75,-584 771.75,-578 771.75,-578 771.75,-566 771.75,-566 771.75,-560 777.75,-554 783.75,-554 783.75,-554 877.29,-554 877.29,-554 883.29,-554 889.29,-560 889.29,-566 889.29,-566 889.29,-578 889.29,-578 889.29,-584 883.29,-590 877.29,-590"/>
<text xml:space="preserve" text-anchor="middle" x="830.52" y="-568.3" font-family="Arial" font-size="11.00" fill="#1a1612">11 &#160;&#160;Comparison [&gt;]</text>
</g>
<!-- n10&#45;&gt;n11 -->
<g id="edge11" class="edge">
<title>n10&#45;&gt;n11</title>
<path fill="none" stroke="#4a3f33" stroke-width="1.3" d="M846.47,-641.6C843.83,-630.25 840.32,-615.16 837.27,-602.02"/>
<polygon fill="#4a3f33" stroke="#4a3f33" stroke-width="1.3" points="840.75,-601.54 835.08,-592.59 833.93,-603.12 840.75,-601.54"/>
<text xml:space="preserve" text-anchor="middle" x="856.34" y="-612.5" font-family="Arial" font-size="10.00" fill="#8b2418"> value </text>
</g>
<!-- n16 -->
<g id="node17" class="node">
<title>n16</title>
<path fill="#fbf6eb" stroke="#1a1612" stroke-width="1.5" d="M717.16,-502C717.16,-502 643.88,-502 643.88,-502 637.88,-502 631.88,-496 631.88,-490 631.88,-490 631.88,-478 631.88,-478 631.88,-472 637.88,-466 643.88,-466 643.88,-466 717.16,-466 717.16,-466 723.16,-466 729.16,-472 729.16,-478 729.16,-478 729.16,-490 729.16,-490 729.16,-496 723.16,-502 717.16,-502"/>
<text xml:space="preserve" text-anchor="middle" x="680.52" y="-480.3" font-family="Arial" font-size="11.00" fill="#1a1612">16 &#160;&#160;LogicalAnd</text>
</g>
<!-- n11&#45;&gt;n16 -->
<g id="edge12" class="edge">
<title>n11&#45;&gt;n16</title>
<path fill="none" stroke="#4a3f33" stroke-width="1.3" d="M799.8,-553.39C777.23,-540.45 746.32,-522.72 721.62,-508.56"/>
<polygon fill="#4a3f33" stroke="#4a3f33" stroke-width="1.3" points="723.58,-505.65 713.16,-503.71 720.09,-511.72 723.58,-505.65"/>
<text xml:space="preserve" text-anchor="middle" x="779.13" y="-524.5" font-family="Arial" font-size="10.00" fill="#8b2418"> value </text>
</g>
<!-- n12 -->
<g id="node13" class="node">
<title>n12</title>
<path fill="#fbf6eb" stroke="#1a1612" stroke-width="1.5" d="M727.91,-854C727.91,-854 653.12,-854 653.12,-854 647.12,-854 641.12,-848 641.12,-842 641.12,-842 641.12,-830 641.12,-830 641.12,-824 647.12,-818 653.12,-818 653.12,-818 727.91,-818 727.91,-818 733.91,-818 739.91,-824 739.91,-830 739.91,-830 739.91,-842 739.91,-842 739.91,-848 733.91,-854 727.91,-854"/>
<text xml:space="preserve" text-anchor="middle" x="690.52" y="-832.3" font-family="Arial" font-size="11.00" fill="#1a1612">12 &#160;&#160;ReadTilt #1</text>
</g>
<!-- n13 -->
<g id="node14" class="node">
<title>n13</title>
<path fill="#fbf6eb" stroke="#1a1612" stroke-width="1.5" d="M731.66,-766C731.66,-766 649.38,-766 649.38,-766 643.38,-766 637.38,-760 637.38,-754 637.38,-754 637.38,-742 637.38,-742 637.38,-736 643.38,-730 649.38,-730 649.38,-730 731.66,-730 731.66,-730 737.66,-730 743.66,-736 743.66,-742 743.66,-742 743.66,-754 743.66,-754 743.66,-760 737.66,-766 731.66,-766"/>
<text xml:space="preserve" text-anchor="middle" x="690.52" y="-744.3" font-family="Arial" font-size="11.00" fill="#1a1612">13 &#160;&#160;Arithmetic [÷]</text>
</g>
<!-- n12&#45;&gt;n13 -->
<g id="edge13" class="edge">
<title>n12&#45;&gt;n13</title>
<path fill="none" stroke="#4a3f33" stroke-width="1.3" d="M690.52,-817.6C690.52,-806.36 690.52,-791.47 690.52,-778.43"/>
<polygon fill="#4a3f33" stroke="#4a3f33" stroke-width="1.3" points="694.02,-778.64 690.52,-768.64 687.02,-778.64 694.02,-778.64"/>
<text xml:space="preserve" text-anchor="middle" x="704.02" y="-788.5" font-family="Arial" font-size="10.00" fill="#8b2418"> tilt_1 </text>
</g>
<!-- n14 -->
<g id="node15" class="node">
<title>n14</title>
<path fill="#fbf6eb" stroke="#1a1612" stroke-width="1.5" d="M742.54,-678C742.54,-678 638.5,-678 638.5,-678 632.5,-678 626.5,-672 626.5,-666 626.5,-666 626.5,-654 626.5,-654 626.5,-648 632.5,-642 638.5,-642 638.5,-642 742.54,-642 742.54,-642 748.54,-642 754.54,-648 754.54,-654 754.54,-654 754.54,-666 754.54,-666 754.54,-672 748.54,-678 742.54,-678"/>
<text xml:space="preserve" text-anchor="middle" x="690.52" y="-656.3" font-family="Arial" font-size="11.00" fill="#1a1612">14 &#160;&#160;Arithmetic [round]</text>
</g>
<!-- n13&#45;&gt;n14 -->
<g id="edge14" class="edge">
<title>n13&#45;&gt;n14</title>
<path fill="none" stroke="#4a3f33" stroke-width="1.3" d="M690.52,-729.6C690.52,-718.36 690.52,-703.47 690.52,-690.43"/>
<polygon fill="#4a3f33" stroke="#4a3f33" stroke-width="1.3" points="694.02,-690.64 690.52,-680.64 687.02,-690.64 694.02,-690.64"/>
<text xml:space="preserve" text-anchor="middle" x="705.14" y="-700.5" font-family="Arial" font-size="10.00" fill="#8b2418"> value </text>
</g>
<!-- n15 -->
<g id="node16" class="node">
<title>n15</title>
<path fill="#fbf6eb" stroke="#1a1612" stroke-width="1.5" d="M727.66,-590C727.66,-590 633.38,-590 633.38,-590 627.38,-590 621.38,-584 621.38,-578 621.38,-578 621.38,-566 621.38,-566 621.38,-560 627.38,-554 633.38,-554 633.38,-554 727.66,-554 727.66,-554 733.66,-554 739.66,-560 739.66,-566 739.66,-566 739.66,-578 739.66,-578 739.66,-584 733.66,-590 727.66,-590"/>
<text xml:space="preserve" text-anchor="middle" x="680.52" y="-568.3" font-family="Arial" font-size="11.00" fill="#1a1612">15 &#160;&#160;Comparison [&lt;]</text>
</g>
<!-- n14&#45;&gt;n15 -->
<g id="edge15" class="edge">
<title>n14&#45;&gt;n15</title>
<path fill="none" stroke="#4a3f33" stroke-width="1.3" d="M688.5,-641.6C687.19,-630.36 685.46,-615.47 683.94,-602.43"/>
<polygon fill="#4a3f33" stroke="#4a3f33" stroke-width="1.3" points="687.43,-602.16 682.8,-592.63 680.48,-602.96 687.43,-602.16"/>
<text xml:space="preserve" text-anchor="middle" x="700.74" y="-612.5" font-family="Arial" font-size="10.00" fill="#8b2418"> value </text>
</g>
<!-- n15&#45;&gt;n16 -->
<g id="edge16" class="edge">
<title>n15&#45;&gt;n16</title>
<path fill="none" stroke="#4a3f33" stroke-width="1.3" d="M680.52,-553.6C680.52,-542.36 680.52,-527.47 680.52,-514.43"/>
<polygon fill="#4a3f33" stroke="#4a3f33" stroke-width="1.3" points="684.02,-514.64 680.52,-504.64 677.02,-514.64 684.02,-514.64"/>
<text xml:space="preserve" text-anchor="middle" x="695.14" y="-524.5" font-family="Arial" font-size="10.00" fill="#8b2418"> value </text>
</g>
<!-- n26 -->
<g id="node27" class="node">
<title>n26</title>
<path fill="#fbf6eb" stroke="#1a1612" stroke-width="1.5" d="M593.16,-414C593.16,-414 519.88,-414 519.88,-414 513.88,-414 507.88,-408 507.88,-402 507.88,-402 507.88,-390 507.88,-390 507.88,-384 513.88,-378 519.88,-378 519.88,-378 593.16,-378 593.16,-378 599.16,-378 605.16,-384 605.16,-390 605.16,-390 605.16,-402 605.16,-402 605.16,-408 599.16,-414 593.16,-414"/>
<text xml:space="preserve" text-anchor="middle" x="556.52" y="-392.3" font-family="Arial" font-size="11.00" fill="#1a1612">26 &#160;&#160;LogicalAnd</text>
</g>
<!-- n16&#45;&gt;n26 -->
<g id="edge17" class="edge">
<title>n16&#45;&gt;n26</title>
<path fill="none" stroke="#4a3f33" stroke-width="1.3" d="M655.13,-465.39C636.82,-452.69 611.88,-435.4 591.67,-421.38"/>
<polygon fill="#4a3f33" stroke="#4a3f33" stroke-width="1.3" points="593.71,-418.53 583.5,-415.71 589.72,-424.28 593.71,-418.53"/>
<text xml:space="preserve" text-anchor="middle" x="640.57" y="-436.5" font-family="Arial" font-size="10.00" fill="#8b2418"> value </text>
</g>
<!-- n17 -->
<g id="node18" class="node">
<title>n17</title>
<path fill="#fbf6eb" stroke="#1a1612" stroke-width="1.5" d="M567.91,-854C567.91,-854 493.12,-854 493.12,-854 487.12,-854 481.12,-848 481.12,-842 481.12,-842 481.12,-830 481.12,-830 481.12,-824 487.12,-818 493.12,-818 493.12,-818 567.91,-818 567.91,-818 573.91,-818 579.91,-824 579.91,-830 579.91,-830 579.91,-842 579.91,-842 579.91,-848 573.91,-854 567.91,-854"/>
<text xml:space="preserve" text-anchor="middle" x="530.52" y="-832.3" font-family="Arial" font-size="11.00" fill="#1a1612">17 &#160;&#160;ReadTilt #2</text>
</g>
<!-- n18 -->
<g id="node19" class="node">
<title>n18</title>
<path fill="#fbf6eb" stroke="#1a1612" stroke-width="1.5" d="M571.66,-766C571.66,-766 489.38,-766 489.38,-766 483.38,-766 477.38,-760 477.38,-754 477.38,-754 477.38,-742 477.38,-742 477.38,-736 483.38,-730 489.38,-730 489.38,-730 571.66,-730 571.66,-730 577.66,-730 583.66,-736 583.66,-742 583.66,-742 583.66,-754 583.66,-754 583.66,-760 577.66,-766 571.66,-766"/>
<text xml:space="preserve" text-anchor="middle" x="530.52" y="-744.3" font-family="Arial" font-size="11.00" fill="#1a1612">18 &#160;&#160;Arithmetic [÷]</text>
</g>
<!-- n17&#45;&gt;n18 -->
<g id="edge18" class="edge">
<title>n17&#45;&gt;n18</title>
<path fill="none" stroke="#4a3f33" stroke-width="1.3" d="M530.52,-817.6C530.52,-806.36 530.52,-791.47 530.52,-778.43"/>
<polygon fill="#4a3f33" stroke="#4a3f33" stroke-width="1.3" points="534.02,-778.64 530.52,-768.64 527.02,-778.64 534.02,-778.64"/>
<text xml:space="preserve" text-anchor="middle" x="544.02" y="-788.5" font-family="Arial" font-size="10.00" fill="#8b2418"> tilt_2 </text>
</g>
<!-- n19 -->
<g id="node20" class="node">
<title>n19</title>
<path fill="#fbf6eb" stroke="#1a1612" stroke-width="1.5" d="M582.54,-678C582.54,-678 478.5,-678 478.5,-678 472.5,-678 466.5,-672 466.5,-666 466.5,-666 466.5,-654 466.5,-654 466.5,-648 472.5,-642 478.5,-642 478.5,-642 582.54,-642 582.54,-642 588.54,-642 594.54,-648 594.54,-654 594.54,-654 594.54,-666 594.54,-666 594.54,-672 588.54,-678 582.54,-678"/>
<text xml:space="preserve" text-anchor="middle" x="530.52" y="-656.3" font-family="Arial" font-size="11.00" fill="#1a1612">19 &#160;&#160;Arithmetic [round]</text>
</g>
<!-- n18&#45;&gt;n19 -->
<g id="edge19" class="edge">
<title>n18&#45;&gt;n19</title>
<path fill="none" stroke="#4a3f33" stroke-width="1.3" d="M530.52,-729.6C530.52,-718.36 530.52,-703.47 530.52,-690.43"/>
<polygon fill="#4a3f33" stroke="#4a3f33" stroke-width="1.3" points="534.02,-690.64 530.52,-680.64 527.02,-690.64 534.02,-690.64"/>
<text xml:space="preserve" text-anchor="middle" x="545.14" y="-700.5" font-family="Arial" font-size="10.00" fill="#8b2418"> value </text>
</g>
<!-- n20 -->
<g id="node21" class="node">
<title>n20</title>
<path fill="#fbf6eb" stroke="#1a1612" stroke-width="1.5" d="M577.66,-590C577.66,-590 483.38,-590 483.38,-590 477.38,-590 471.38,-584 471.38,-578 471.38,-578 471.38,-566 471.38,-566 471.38,-560 477.38,-554 483.38,-554 483.38,-554 577.66,-554 577.66,-554 583.66,-554 589.66,-560 589.66,-566 589.66,-566 589.66,-578 589.66,-578 589.66,-584 583.66,-590 577.66,-590"/>
<text xml:space="preserve" text-anchor="middle" x="530.52" y="-568.3" font-family="Arial" font-size="11.00" fill="#1a1612">20 &#160;&#160;Comparison [&gt;]</text>
</g>
<!-- n19&#45;&gt;n20 -->
<g id="edge20" class="edge">
<title>n19&#45;&gt;n20</title>
<path fill="none" stroke="#4a3f33" stroke-width="1.3" d="M530.52,-641.6C530.52,-630.36 530.52,-615.47 530.52,-602.43"/>
<polygon fill="#4a3f33" stroke="#4a3f33" stroke-width="1.3" points="534.02,-602.64 530.52,-592.64 527.02,-602.64 534.02,-602.64"/>
<text xml:space="preserve" text-anchor="middle" x="545.14" y="-612.5" font-family="Arial" font-size="10.00" fill="#8b2418"> value </text>
</g>
<!-- n25 -->
<g id="node26" class="node">
<title>n25</title>
<path fill="#fbf6eb" stroke="#1a1612" stroke-width="1.5" d="M567.16,-502C567.16,-502 493.88,-502 493.88,-502 487.88,-502 481.88,-496 481.88,-490 481.88,-490 481.88,-478 481.88,-478 481.88,-472 487.88,-466 493.88,-466 493.88,-466 567.16,-466 567.16,-466 573.16,-466 579.16,-472 579.16,-478 579.16,-478 579.16,-490 579.16,-490 579.16,-496 573.16,-502 567.16,-502"/>
<text xml:space="preserve" text-anchor="middle" x="530.52" y="-480.3" font-family="Arial" font-size="11.00" fill="#1a1612">25 &#160;&#160;LogicalAnd</text>
</g>
<!-- n20&#45;&gt;n25 -->
<g id="edge21" class="edge">
<title>n20&#45;&gt;n25</title>
<path fill="none" stroke="#4a3f33" stroke-width="1.3" d="M530.52,-553.6C530.52,-542.36 530.52,-527.47 530.52,-514.43"/>
<polygon fill="#4a3f33" stroke="#4a3f33" stroke-width="1.3" points="534.02,-514.64 530.52,-504.64 527.02,-514.64 534.02,-514.64"/>
<text xml:space="preserve" text-anchor="middle" x="545.14" y="-524.5" font-family="Arial" font-size="10.00" fill="#8b2418"> value </text>
</g>
<!-- n21 -->
<g id="node22" class="node">
<title>n21</title>
<path fill="#fbf6eb" stroke="#1a1612" stroke-width="1.5" d="M407.91,-854C407.91,-854 333.12,-854 333.12,-854 327.12,-854 321.12,-848 321.12,-842 321.12,-842 321.12,-830 321.12,-830 321.12,-824 327.12,-818 333.12,-818 333.12,-818 407.91,-818 407.91,-818 413.91,-818 419.91,-824 419.91,-830 419.91,-830 419.91,-842 419.91,-842 419.91,-848 413.91,-854 407.91,-854"/>
<text xml:space="preserve" text-anchor="middle" x="370.52" y="-832.3" font-family="Arial" font-size="11.00" fill="#1a1612">21 &#160;&#160;ReadTilt #2</text>
</g>
<!-- n22 -->
<g id="node23" class="node">
<title>n22</title>
<path fill="#fbf6eb" stroke="#1a1612" stroke-width="1.5" d="M411.66,-766C411.66,-766 329.38,-766 329.38,-766 323.38,-766 317.38,-760 317.38,-754 317.38,-754 317.38,-742 317.38,-742 317.38,-736 323.38,-730 329.38,-730 329.38,-730 411.66,-730 411.66,-730 417.66,-730 423.66,-736 423.66,-742 423.66,-742 423.66,-754 423.66,-754 423.66,-760 417.66,-766 411.66,-766"/>
<text xml:space="preserve" text-anchor="middle" x="370.52" y="-744.3" font-family="Arial" font-size="11.00" fill="#1a1612">22 &#160;&#160;Arithmetic [÷]</text>
</g>
<!-- n21&#45;&gt;n22 -->
<g id="edge22" class="edge">
<title>n21&#45;&gt;n22</title>
<path fill="none" stroke="#4a3f33" stroke-width="1.3" d="M370.52,-817.6C370.52,-806.36 370.52,-791.47 370.52,-778.43"/>
<polygon fill="#4a3f33" stroke="#4a3f33" stroke-width="1.3" points="374.02,-778.64 370.52,-768.64 367.02,-778.64 374.02,-778.64"/>
<text xml:space="preserve" text-anchor="middle" x="384.02" y="-788.5" font-family="Arial" font-size="10.00" fill="#8b2418"> tilt_2 </text>
</g>
<!-- n23 -->
<g id="node24" class="node">
<title>n23</title>
<path fill="#fbf6eb" stroke="#1a1612" stroke-width="1.5" d="M422.54,-678C422.54,-678 318.5,-678 318.5,-678 312.5,-678 306.5,-672 306.5,-666 306.5,-666 306.5,-654 306.5,-654 306.5,-648 312.5,-642 318.5,-642 318.5,-642 422.54,-642 422.54,-642 428.54,-642 434.54,-648 434.54,-654 434.54,-654 434.54,-666 434.54,-666 434.54,-672 428.54,-678 422.54,-678"/>
<text xml:space="preserve" text-anchor="middle" x="370.52" y="-656.3" font-family="Arial" font-size="11.00" fill="#1a1612">23 &#160;&#160;Arithmetic [round]</text>
</g>
<!-- n22&#45;&gt;n23 -->
<g id="edge23" class="edge">
<title>n22&#45;&gt;n23</title>
<path fill="none" stroke="#4a3f33" stroke-width="1.3" d="M370.52,-729.6C370.52,-718.36 370.52,-703.47 370.52,-690.43"/>
<polygon fill="#4a3f33" stroke="#4a3f33" stroke-width="1.3" points="374.02,-690.64 370.52,-680.64 367.02,-690.64 374.02,-690.64"/>
<text xml:space="preserve" text-anchor="middle" x="385.14" y="-700.5" font-family="Arial" font-size="10.00" fill="#8b2418"> value </text>
</g>
<!-- n24 -->
<g id="node25" class="node">
<title>n24</title>
<path fill="#fbf6eb" stroke="#1a1612" stroke-width="1.5" d="M427.66,-590C427.66,-590 333.38,-590 333.38,-590 327.38,-590 321.38,-584 321.38,-578 321.38,-578 321.38,-566 321.38,-566 321.38,-560 327.38,-554 333.38,-554 333.38,-554 427.66,-554 427.66,-554 433.66,-554 439.66,-560 439.66,-566 439.66,-566 439.66,-578 439.66,-578 439.66,-584 433.66,-590 427.66,-590"/>
<text xml:space="preserve" text-anchor="middle" x="380.52" y="-568.3" font-family="Arial" font-size="11.00" fill="#1a1612">24 &#160;&#160;Comparison [&lt;]</text>
</g>
<!-- n23&#45;&gt;n24 -->
<g id="edge24" class="edge">
<title>n23&#45;&gt;n24</title>
<path fill="none" stroke="#4a3f33" stroke-width="1.3" d="M372.54,-641.6C373.85,-630.36 375.58,-615.47 377.1,-602.43"/>
<polygon fill="#4a3f33" stroke="#4a3f33" stroke-width="1.3" points="380.56,-602.96 378.24,-592.63 373.61,-602.16 380.56,-602.96"/>
<text xml:space="preserve" text-anchor="middle" x="390.74" y="-612.5" font-family="Arial" font-size="10.00" fill="#8b2418"> value </text>
</g>
<!-- n24&#45;&gt;n25 -->
<g id="edge25" class="edge">
<title>n24&#45;&gt;n25</title>
<path fill="none" stroke="#4a3f33" stroke-width="1.3" d="M411.24,-553.39C433.81,-540.45 464.72,-522.72 489.42,-508.56"/>
<polygon fill="#4a3f33" stroke="#4a3f33" stroke-width="1.3" points="490.95,-511.72 497.88,-503.71 487.46,-505.65 490.95,-511.72"/>
<text xml:space="preserve" text-anchor="middle" x="479.13" y="-524.5" font-family="Arial" font-size="10.00" fill="#8b2418"> value </text>
</g>
<!-- n25&#45;&gt;n26 -->
<g id="edge26" class="edge">
<title>n25&#45;&gt;n26</title>
<path fill="none" stroke="#4a3f33" stroke-width="1.3" d="M535.78,-465.6C539.21,-454.25 543.77,-439.16 547.75,-426.02"/>
<polygon fill="#4a3f33" stroke="#4a3f33" stroke-width="1.3" points="551.06,-427.14 550.61,-416.56 544.36,-425.12 551.06,-427.14"/>
<text xml:space="preserve" text-anchor="middle" x="559.7" y="-436.5" font-family="Arial" font-size="10.00" fill="#8b2418"> value </text>
</g>
<!-- n26&#45;&gt;n27 -->
<g id="edge27" class="edge">
<title>n26&#45;&gt;n27</title>
<path fill="none" stroke="#4a3f33" stroke-width="1.3" d="M556.52,-377.6C556.52,-366.36 556.52,-351.47 556.52,-338.43"/>
<polygon fill="#4a3f33" stroke="#4a3f33" stroke-width="1.3" points="560.02,-338.64 556.52,-328.64 553.02,-338.64 560.02,-338.64"/>
<text xml:space="preserve" text-anchor="middle" x="579.02" y="-348.5" font-family="Arial" font-size="10.00" fill="#8b2418"> condition </text>
</g>
<!-- n27&#45;&gt;n36 -->
<g id="edge28" class="edge">
<title>n27&#45;&gt;n36</title>
<path fill="none" stroke="#8b2418" stroke-width="2" d="M617.15,-289.34C649.93,-279.88 691.14,-268.12 728.02,-258 752.87,-251.18 780.25,-243.91 804.2,-237.64"/>
<polygon fill="#8b2418" stroke="#8b2418" stroke-width="2" points="805.02,-241.04 813.81,-235.13 803.25,-234.27 805.02,-241.04"/>
<text xml:space="preserve" text-anchor="middle" x="739.27" y="-260.5" font-family="Arial" font-size="10.00" fill="#8b2418"> true </text>
</g>
<!-- n27&#45;&gt;n37 -->
<g id="edge29" class="edge">
<title>n27&#45;&gt;n37</title>
<path fill="none" stroke="#8b2418" stroke-width="2" d="M500.34,-289.3C491.85,-284.32 484.08,-278 478.52,-270 456.75,-238.69 457.47,-193.13 461.1,-163.28"/>
<polygon fill="#8b2418" stroke="#8b2418" stroke-width="2" points="464.56,-163.79 462.52,-153.4 457.63,-162.79 464.56,-163.79"/>
<text xml:space="preserve" text-anchor="middle" x="475.12" y="-216.5" font-family="Arial" font-size="10.00" fill="#8b2418"> true </text>
</g>
<!-- n49 -->
<g id="node50" class="node">
<title>n49</title>
<path fill="#5a6b3b" stroke="#1a1612" stroke-width="1.5" d="M1227.79,-238C1227.79,-238 1149.25,-238 1149.25,-238 1143.25,-238 1137.25,-232 1137.25,-226 1137.25,-226 1137.25,-214 1137.25,-214 1137.25,-208 1143.25,-202 1149.25,-202 1149.25,-202 1227.79,-202 1227.79,-202 1233.79,-202 1239.79,-208 1239.79,-214 1239.79,-214 1239.79,-226 1239.79,-226 1239.79,-232 1233.79,-238 1227.79,-238"/>
<text xml:space="preserve" text-anchor="middle" x="1188.52" y="-216.3" font-family="Arial" font-size="11.00" fill="#fbf6eb">49 &#160;&#160;PlotPoint #1</text>
</g>
<!-- n27&#45;&gt;n49 -->
<g id="edge30" class="edge">
<title>n27&#45;&gt;n49</title>
<path fill="none" stroke="#8b2418" stroke-width="2" d="M623.48,-293.78C679.45,-283.06 761.46,-268.12 833.52,-258 934.61,-243.81 1052.61,-232.56 1123.89,-226.34"/>
<polygon fill="#8b2418" stroke="#8b2418" stroke-width="2" points="1123.97,-229.85 1133.63,-225.5 1123.36,-222.88 1123.97,-229.85"/>
<text xml:space="preserve" text-anchor="middle" x="847.02" y="-260.5" font-family="Arial" font-size="10.00" fill="#8b2418"> false </text>
</g>
<!-- n50 -->
<g id="node51" class="node">
<title>n50</title>
<path fill="#8b2418" stroke="#1a1612" stroke-width="1.5" d="M608.29,-238C608.29,-238 532.75,-238 532.75,-238 526.75,-238 520.75,-232 520.75,-226 520.75,-226 520.75,-214 520.75,-214 520.75,-208 526.75,-202 532.75,-202 532.75,-202 608.29,-202 608.29,-202 614.29,-202 620.29,-208 620.29,-214 620.29,-214 620.29,-226 620.29,-226 620.29,-232 614.29,-238 608.29,-238"/>
<text xml:space="preserve" text-anchor="middle" x="570.52" y="-216.3" font-family="Arial" font-size="11.00" fill="#fbf6eb">50 &#160;&#160;SetVariable</text>
</g>
<!-- n27&#45;&gt;n50 -->
<g id="edge31" class="edge">
<title>n27&#45;&gt;n50</title>
<path fill="none" stroke="#8b2418" stroke-width="2" d="M559.35,-289.6C561.14,-278.6 563.51,-264.08 565.6,-251.24"/>
<polygon fill="#8b2418" stroke="#8b2418" stroke-width="2" points="569,-252.09 567.16,-241.66 562.1,-250.97 569,-252.09"/>
<text xml:space="preserve" text-anchor="middle" x="577.86" y="-260.5" font-family="Arial" font-size="10.00" fill="#8b2418"> false </text>
</g>
<!-- n51 -->
<g id="node52" class="node">
<title>n51</title>
<path fill="#fbf6eb" stroke="#1a1612" stroke-width="1.5" d="M753.04,-238C753.04,-238 664,-238 664,-238 658,-238 652,-232 652,-226 652,-226 652,-214 652,-214 652,-208 658,-202 664,-202 664,-202 753.04,-202 753.04,-202 759.04,-202 765.04,-208 765.04,-214 765.04,-214 765.04,-226 765.04,-226 765.04,-232 759.04,-238 753.04,-238"/>
<text xml:space="preserve" text-anchor="middle" x="708.52" y="-216.3" font-family="Arial" font-size="11.00" fill="#1a1612">51 &#160;&#160;StopSound #1</text>
</g>
<!-- n27&#45;&gt;n51 -->
<g id="edge32" class="edge">
<title>n27&#45;&gt;n51</title>
<path fill="none" stroke="#8b2418" stroke-width="2" d="M587.65,-289.39C610.22,-276.62 641.01,-259.2 665.87,-245.13"/>
<polygon fill="#8b2418" stroke="#8b2418" stroke-width="2" points="667.56,-248.2 674.54,-240.23 664.11,-242.1 667.56,-248.2"/>
<text xml:space="preserve" text-anchor="middle" x="655.12" y="-260.5" font-family="Arial" font-size="10.00" fill="#8b2418"> false </text>
</g>
<!-- n52 -->
<g id="node53" class="node">
<title>n52</title>
<path fill="#4a3f33" stroke="#1a1612" stroke-width="1.5" d="M246.41,-238C246.41,-238 198.62,-238 198.62,-238 192.62,-238 186.62,-232 186.62,-226 186.62,-226 186.62,-214 186.62,-214 186.62,-208 192.62,-202 198.62,-202 198.62,-202 246.41,-202 246.41,-202 252.41,-202 258.41,-208 258.41,-214 258.41,-214 258.41,-226 258.41,-226 258.41,-232 252.41,-238 246.41,-238"/>
<text xml:space="preserve" text-anchor="middle" x="222.52" y="-216.3" font-family="Arial" font-size="11.00" fill="#fbf6eb">52 &#160;&#160;Delay</text>
</g>
<!-- n27&#45;&gt;n52 -->
<g id="edge33" class="edge">
<title>n27&#45;&gt;n52</title>
<path fill="none" stroke="#8b2418" stroke-width="2" d="M489.72,-295.65C454.35,-289.13 410.32,-280.22 371.52,-270 337.57,-261.06 300.03,-248.69 271.12,-238.62"/>
<polygon fill="#8b2418" stroke="#8b2418" stroke-width="2" points="272.34,-235.35 261.75,-235.33 270.02,-241.95 272.34,-235.35"/>
<text xml:space="preserve" text-anchor="middle" x="385.02" y="-260.5" font-family="Arial" font-size="10.00" fill="#8b2418"> false </text>
</g>
<!-- n53 -->
<g id="node54" class="node">
<title>n53</title>
<path fill="#fbf6eb" stroke="#1a1612" stroke-width="1.5" d="M390.66,-238C390.66,-238 302.38,-238 302.38,-238 296.38,-238 290.38,-232 290.38,-226 290.38,-226 290.38,-214 290.38,-214 290.38,-208 296.38,-202 302.38,-202 302.38,-202 390.66,-202 390.66,-202 396.66,-202 402.66,-208 402.66,-214 402.66,-214 402.66,-226 402.66,-226 402.66,-232 396.66,-238 390.66,-238"/>
<text xml:space="preserve" text-anchor="middle" x="346.52" y="-216.3" font-family="Arial" font-size="11.00" fill="#1a1612">53 &#160;&#160;EmitSound #1</text>
</g>
<!-- n27&#45;&gt;n53 -->
<g id="edge34" class="edge">
<title>n27&#45;&gt;n53</title>
<path fill="none" stroke="#8b2418" stroke-width="2" d="M489.73,-290.65C470.3,-285.03 449.26,-278.07 430.52,-270 414.62,-263.15 397.97,-253.92 383.73,-245.32"/>
<polygon fill="#8b2418" stroke="#8b2418" stroke-width="2" points="385.81,-242.49 375.46,-240.21 382.13,-248.44 385.81,-242.49"/>
<text xml:space="preserve" text-anchor="middle" x="444.02" y="-260.5" font-family="Arial" font-size="10.00" fill="#8b2418"> false </text>
</g>
<!-- n28 -->
<g id="node29" class="node">
<title>n28</title>
<path fill="#fbf6eb" stroke="#1a1612" stroke-width="1.5" d="M1007.91,-590C1007.91,-590 933.12,-590 933.12,-590 927.12,-590 921.12,-584 921.12,-578 921.12,-578 921.12,-566 921.12,-566 921.12,-560 927.12,-554 933.12,-554 933.12,-554 1007.91,-554 1007.91,-554 1013.91,-554 1019.91,-560 1019.91,-566 1019.91,-566 1019.91,-578 1019.91,-578 1019.91,-584 1013.91,-590 1007.91,-590"/>
<text xml:space="preserve" text-anchor="middle" x="970.52" y="-568.3" font-family="Arial" font-size="11.00" fill="#1a1612">28 &#160;&#160;ReadTilt #1</text>
</g>
<!-- n29 -->
<g id="node30" class="node">
<title>n29</title>
<path fill="#fbf6eb" stroke="#1a1612" stroke-width="1.5" d="M916.66,-502C916.66,-502 834.38,-502 834.38,-502 828.38,-502 822.38,-496 822.38,-490 822.38,-490 822.38,-478 822.38,-478 822.38,-472 828.38,-466 834.38,-466 834.38,-466 916.66,-466 916.66,-466 922.66,-466 928.66,-472 928.66,-478 928.66,-478 928.66,-490 928.66,-490 928.66,-496 922.66,-502 916.66,-502"/>
<text xml:space="preserve" text-anchor="middle" x="875.52" y="-480.3" font-family="Arial" font-size="11.00" fill="#1a1612">29 &#160;&#160;Arithmetic [÷]</text>
</g>
<!-- n28&#45;&gt;n29 -->
<g id="edge35" class="edge">
<title>n28&#45;&gt;n29</title>
<path fill="none" stroke="#4a3f33" stroke-width="1.3" d="M951.3,-553.6C937.61,-541.21 919,-524.36 903.64,-510.46"/>
<polygon fill="#4a3f33" stroke="#4a3f33" stroke-width="1.3" points="906.26,-508.11 896.5,-503.99 901.57,-513.3 906.26,-508.11"/>
<text xml:space="preserve" text-anchor="middle" x="942.21" y="-524.5" font-family="Arial" font-size="10.00" fill="#8b2418"> tilt_1 </text>
</g>
<!-- n30 -->
<g id="node31" class="node">
<title>n30</title>
<path fill="#fbf6eb" stroke="#1a1612" stroke-width="1.5" d="M920.54,-414C920.54,-414 816.5,-414 816.5,-414 810.5,-414 804.5,-408 804.5,-402 804.5,-402 804.5,-390 804.5,-390 804.5,-384 810.5,-378 816.5,-378 816.5,-378 920.54,-378 920.54,-378 926.54,-378 932.54,-384 932.54,-390 932.54,-390 932.54,-402 932.54,-402 932.54,-408 926.54,-414 920.54,-414"/>
<text xml:space="preserve" text-anchor="middle" x="868.52" y="-392.3" font-family="Arial" font-size="11.00" fill="#1a1612">30 &#160;&#160;Arithmetic [round]</text>
</g>
<!-- n29&#45;&gt;n30 -->
<g id="edge36" class="edge">
<title>n29&#45;&gt;n30</title>
<path fill="none" stroke="#4a3f33" stroke-width="1.3" d="M874.1,-465.6C873.19,-454.36 871.98,-439.47 870.92,-426.43"/>
<polygon fill="#4a3f33" stroke="#4a3f33" stroke-width="1.3" points="874.42,-426.32 870.12,-416.63 867.44,-426.88 874.42,-426.32"/>
<text xml:space="preserve" text-anchor="middle" x="887.06" y="-436.5" font-family="Arial" font-size="10.00" fill="#8b2418"> value </text>
</g>
<!-- n31 -->
<g id="node32" class="node">
<title>n31</title>
<path fill="#fbf6eb" stroke="#1a1612" stroke-width="1.5" d="M910.04,-326C910.04,-326 827,-326 827,-326 821,-326 815,-320 815,-314 815,-314 815,-302 815,-302 815,-296 821,-290 827,-290 827,-290 910.04,-290 910.04,-290 916.04,-290 922.04,-296 922.04,-302 922.04,-302 922.04,-314 922.04,-314 922.04,-320 916.04,-326 910.04,-326"/>
<text xml:space="preserve" text-anchor="middle" x="868.52" y="-304.3" font-family="Arial" font-size="11.00" fill="#1a1612">31 &#160;&#160;Arithmetic [+]</text>
</g>
<!-- n30&#45;&gt;n31 -->
<g id="edge37" class="edge">
<title>n30&#45;&gt;n31</title>
<path fill="none" stroke="#4a3f33" stroke-width="1.3" d="M868.52,-377.6C868.52,-366.36 868.52,-351.47 868.52,-338.43"/>
<polygon fill="#4a3f33" stroke="#4a3f33" stroke-width="1.3" points="872.02,-338.64 868.52,-328.64 865.02,-338.64 872.02,-338.64"/>
<text xml:space="preserve" text-anchor="middle" x="883.14" y="-348.5" font-family="Arial" font-size="10.00" fill="#8b2418"> value </text>
</g>
<!-- n31&#45;&gt;n36 -->
<g id="edge38" class="edge">
<title>n31&#45;&gt;n36</title>
<path fill="none" stroke="#4a3f33" stroke-width="1.3" d="M868.52,-289.6C868.52,-278.36 868.52,-263.47 868.52,-250.43"/>
<polygon fill="#4a3f33" stroke="#4a3f33" stroke-width="1.3" points="872.02,-250.64 868.52,-240.64 865.02,-250.64 872.02,-250.64"/>
<text xml:space="preserve" text-anchor="middle" x="883.14" y="-260.5" font-family="Arial" font-size="10.00" fill="#8b2418"> value </text>
</g>
<!-- n32 -->
<g id="node33" class="node">
<title>n32</title>
<path fill="#fbf6eb" stroke="#1a1612" stroke-width="1.5" d="M1138.91,-590C1138.91,-590 1064.12,-590 1064.12,-590 1058.12,-590 1052.12,-584 1052.12,-578 1052.12,-578 1052.12,-566 1052.12,-566 1052.12,-560 1058.12,-554 1064.12,-554 1064.12,-554 1138.91,-554 1138.91,-554 1144.91,-554 1150.91,-560 1150.91,-566 1150.91,-566 1150.91,-578 1150.91,-578 1150.91,-584 1144.91,-590 1138.91,-590"/>
<text xml:space="preserve" text-anchor="middle" x="1101.52" y="-568.3" font-family="Arial" font-size="11.00" fill="#1a1612">32 &#160;&#160;ReadTilt #2</text>
</g>
<!-- n33 -->
<g id="node34" class="node">
<title>n33</title>
<path fill="#fbf6eb" stroke="#1a1612" stroke-width="1.5" d="M1092.66,-502C1092.66,-502 1010.38,-502 1010.38,-502 1004.38,-502 998.38,-496 998.38,-490 998.38,-490 998.38,-478 998.38,-478 998.38,-472 1004.38,-466 1010.38,-466 1010.38,-466 1092.66,-466 1092.66,-466 1098.66,-466 1104.66,-472 1104.66,-478 1104.66,-478 1104.66,-490 1104.66,-490 1104.66,-496 1098.66,-502 1092.66,-502"/>
<text xml:space="preserve" text-anchor="middle" x="1051.52" y="-480.3" font-family="Arial" font-size="11.00" fill="#1a1612">33 &#160;&#160;Arithmetic [÷]</text>
</g>
<!-- n32&#45;&gt;n33 -->
<g id="edge39" class="edge">
<title>n32&#45;&gt;n33</title>
<path fill="none" stroke="#4a3f33" stroke-width="1.3" d="M1091.4,-553.6C1084.6,-541.9 1075.49,-526.23 1067.7,-512.82"/>
<polygon fill="#4a3f33" stroke="#4a3f33" stroke-width="1.3" points="1070.84,-511.26 1062.78,-504.37 1064.78,-514.78 1070.84,-511.26"/>
<text xml:space="preserve" text-anchor="middle" x="1093.01" y="-524.5" font-family="Arial" font-size="10.00" fill="#8b2418"> tilt_2 </text>
</g>
<!-- n34 -->
<g id="node35" class="node">
<title>n34</title>
<path fill="#fbf6eb" stroke="#1a1612" stroke-width="1.5" d="M1080.54,-414C1080.54,-414 976.5,-414 976.5,-414 970.5,-414 964.5,-408 964.5,-402 964.5,-402 964.5,-390 964.5,-390 964.5,-384 970.5,-378 976.5,-378 976.5,-378 1080.54,-378 1080.54,-378 1086.54,-378 1092.54,-384 1092.54,-390 1092.54,-390 1092.54,-402 1092.54,-402 1092.54,-408 1086.54,-414 1080.54,-414"/>
<text xml:space="preserve" text-anchor="middle" x="1028.52" y="-392.3" font-family="Arial" font-size="11.00" fill="#1a1612">34 &#160;&#160;Arithmetic [round]</text>
</g>
<!-- n33&#45;&gt;n34 -->
<g id="edge40" class="edge">
<title>n33&#45;&gt;n34</title>
<path fill="none" stroke="#4a3f33" stroke-width="1.3" d="M1046.87,-465.6C1043.83,-454.25 1039.8,-439.16 1036.28,-426.02"/>
<polygon fill="#4a3f33" stroke="#4a3f33" stroke-width="1.3" points="1039.72,-425.33 1033.75,-416.57 1032.96,-427.14 1039.72,-425.33"/>
<text xml:space="preserve" text-anchor="middle" x="1056.02" y="-436.5" font-family="Arial" font-size="10.00" fill="#8b2418"> value </text>
</g>
<!-- n35 -->
<g id="node36" class="node">
<title>n35</title>
<path fill="#fbf6eb" stroke="#1a1612" stroke-width="1.5" d="M1055.04,-326C1055.04,-326 972,-326 972,-326 966,-326 960,-320 960,-314 960,-314 960,-302 960,-302 960,-296 966,-290 972,-290 972,-290 1055.04,-290 1055.04,-290 1061.04,-290 1067.04,-296 1067.04,-302 1067.04,-302 1067.04,-314 1067.04,-314 1067.04,-320 1061.04,-326 1055.04,-326"/>
<text xml:space="preserve" text-anchor="middle" x="1013.52" y="-304.3" font-family="Arial" font-size="11.00" fill="#1a1612">35 &#160;&#160;Arithmetic [+]</text>
</g>
<!-- n34&#45;&gt;n35 -->
<g id="edge41" class="edge">
<title>n34&#45;&gt;n35</title>
<path fill="none" stroke="#4a3f33" stroke-width="1.3" d="M1025.48,-377.6C1023.53,-366.36 1020.93,-351.47 1018.65,-338.43"/>
<polygon fill="#4a3f33" stroke="#4a3f33" stroke-width="1.3" points="1022.11,-337.86 1016.94,-328.61 1015.21,-339.06 1022.11,-337.86"/>
<text xml:space="preserve" text-anchor="middle" x="1036.54" y="-348.5" font-family="Arial" font-size="10.00" fill="#8b2418"> value </text>
</g>
<!-- n35&#45;&gt;n36 -->
<g id="edge42" class="edge">
<title>n35&#45;&gt;n36</title>
<path fill="none" stroke="#4a3f33" stroke-width="1.3" d="M983.83,-289.39C962.03,-276.46 932.19,-258.76 908.33,-244.61"/>
<polygon fill="#4a3f33" stroke="#4a3f33" stroke-width="1.3" points="910.25,-241.68 899.87,-239.59 906.68,-247.7 910.25,-241.68"/>
<text xml:space="preserve" text-anchor="middle" x="964.33" y="-260.5" font-family="Arial" font-size="10.00" fill="#8b2418"> value </text>
</g>
<!-- n36&#45;&gt;n49 -->
<g id="edge43" class="edge">
<title>n36&#45;&gt;n49</title>
<path fill="none" stroke="#5a6b3b" stroke-width="1.3" stroke-dasharray="5,2" d="M920.29,-220C976.09,-220 1064.96,-220 1124.96,-220"/>
<polygon fill="#5a6b3b" stroke="#5a6b3b" stroke-width="1.3" points="1124.59,-223.5 1134.59,-220 1124.59,-216.5 1124.59,-223.5"/>
<text xml:space="preserve" text-anchor="middle" x="1028.52" y="-225.5" font-family="Arial" font-size="10.00" fill="#5a6b3b"> display </text>
</g>
<!-- n38 -->
<g id="node39" class="node">
<title>n38</title>
<path fill="#fbf6eb" stroke="#1a1612" stroke-width="1.5" d="M647.66,-62C647.66,-62 559.38,-62 559.38,-62 553.38,-62 547.38,-56 547.38,-50 547.38,-50 547.38,-38 547.38,-38 547.38,-32 553.38,-26 559.38,-26 559.38,-26 647.66,-26 647.66,-26 653.66,-26 659.66,-32 659.66,-38 659.66,-38 659.66,-50 659.66,-50 659.66,-56 653.66,-62 647.66,-62"/>
<text xml:space="preserve" text-anchor="middle" x="603.52" y="-40.3" font-family="Arial" font-size="11.00" fill="#1a1612">38 &#160;&#160;EmitSound #1</text>
</g>
<!-- n37&#45;&gt;n38 -->
<g id="edge44" class="edge">
<title>n37&#45;&gt;n38</title>
<path fill="none" stroke="#8b2418" stroke-width="2" d="M494.57,-113.39C514.8,-100.69 542.35,-83.4 564.69,-69.38"/>
<polygon fill="#8b2418" stroke="#8b2418" stroke-width="2" points="566.33,-72.48 572.94,-64.2 562.61,-66.55 566.33,-72.48"/>
<text xml:space="preserve" text-anchor="middle" x="554.47" y="-84.5" font-family="Arial" font-size="10.00" fill="#8b2418"> true </text>
</g>
<!-- n39 -->
<g id="node40" class="node">
<title>n39</title>
<path fill="#4a3f33" stroke="#1a1612" stroke-width="1.5" d="M371.41,-62C371.41,-62 323.62,-62 323.62,-62 317.62,-62 311.62,-56 311.62,-50 311.62,-50 311.62,-38 311.62,-38 311.62,-32 317.62,-26 323.62,-26 323.62,-26 371.41,-26 371.41,-26 377.41,-26 383.41,-32 383.41,-38 383.41,-38 383.41,-50 383.41,-50 383.41,-56 377.41,-62 371.41,-62"/>
<text xml:space="preserve" text-anchor="middle" x="347.52" y="-40.3" font-family="Arial" font-size="11.00" fill="#fbf6eb">39 &#160;&#160;Delay</text>
</g>
<!-- n37&#45;&gt;n39 -->
<g id="edge45" class="edge">
<title>n37&#45;&gt;n39</title>
<path fill="none" stroke="#8b2418" stroke-width="2" d="M407.29,-113.35C396.12,-108.28 385.11,-101.91 376.02,-94 369.67,-88.47 364.37,-81.16 360.15,-73.88"/>
<polygon fill="#8b2418" stroke="#8b2418" stroke-width="2" points="363.28,-72.33 355.59,-65.04 357.06,-75.53 363.28,-72.33"/>
<text xml:space="preserve" text-anchor="middle" x="387.27" y="-84.5" font-family="Arial" font-size="10.00" fill="#8b2418"> true </text>
</g>
<!-- n40 -->
<g id="node41" class="node">
<title>n40</title>
<path fill="#8b2418" stroke="#1a1612" stroke-width="1.5" d="M503.29,-62C503.29,-62 427.75,-62 427.75,-62 421.75,-62 415.75,-56 415.75,-50 415.75,-50 415.75,-38 415.75,-38 415.75,-32 421.75,-26 427.75,-26 427.75,-26 503.29,-26 503.29,-26 509.29,-26 515.29,-32 515.29,-38 515.29,-38 515.29,-50 515.29,-50 515.29,-56 509.29,-62 503.29,-62"/>
<text xml:space="preserve" text-anchor="middle" x="465.52" y="-40.3" font-family="Arial" font-size="11.00" fill="#fbf6eb">40 &#160;&#160;SetVariable</text>
</g>
<!-- n37&#45;&gt;n40 -->
<g id="edge46" class="edge">
<title>n37&#45;&gt;n40</title>
<path fill="none" stroke="#8b2418" stroke-width="2" d="M427.33,-113.39C419.99,-108.23 413.28,-101.82 409.02,-94 404.25,-85.26 407.4,-77.37 414.16,-70.59"/>
<polygon fill="#8b2418" stroke="#8b2418" stroke-width="2" points="416.23,-73.42 421.94,-64.49 411.91,-67.91 416.23,-73.42"/>
<text xml:space="preserve" text-anchor="middle" x="420.27" y="-84.5" font-family="Arial" font-size="10.00" fill="#8b2418"> true </text>
</g>
<!-- n38&#45;&gt;n51 -->
<g id="edge47" class="edge">
<title>n38&#45;&gt;n51</title>
<path fill="none" stroke="#5a6b3b" stroke-width="1.3" stroke-dasharray="5,2" d="M614.19,-62.69C632.53,-93.07 670.14,-155.39 691.92,-191.49"/>
<polygon fill="#5a6b3b" stroke="#5a6b3b" stroke-width="1.3" points="688.69,-192.92 696.86,-199.67 694.69,-189.3 688.69,-192.92"/>
<text xml:space="preserve" text-anchor="middle" x="682.58" y="-128.5" font-family="Arial" font-size="10.00" fill="#5a6b3b"> sound </text>
</g>
<!-- n40&#45;&gt;n37 -->
<g id="edge48" class="edge">
<title>n40&#45;&gt;n37</title>
<path fill="none" stroke="#4a3f33" stroke-width="1.3" d="M465.73,-62.67C465.86,-73.96 466.03,-88.87 466.18,-101.88"/>
<polygon fill="#4a3f33" stroke="#4a3f33" stroke-width="1.3" points="462.68,-101.67 466.29,-111.63 469.68,-101.59 462.68,-101.67"/>
<text xml:space="preserve" text-anchor="middle" x="489.7" y="-84.5" font-family="Arial" font-size="10.00" fill="#8b2418"> sonidofijo </text>
</g>
<!-- n41 -->
<g id="node42" class="node">
<title>n41</title>
<path fill="#fbf6eb" stroke="#1a1612" stroke-width="1.5" d="M1269.91,-590C1269.91,-590 1195.12,-590 1195.12,-590 1189.12,-590 1183.12,-584 1183.12,-578 1183.12,-578 1183.12,-566 1183.12,-566 1183.12,-560 1189.12,-554 1195.12,-554 1195.12,-554 1269.91,-554 1269.91,-554 1275.91,-554 1281.91,-560 1281.91,-566 1281.91,-566 1281.91,-578 1281.91,-578 1281.91,-584 1275.91,-590 1269.91,-590"/>
<text xml:space="preserve" text-anchor="middle" x="1232.52" y="-568.3" font-family="Arial" font-size="11.00" fill="#1a1612">41 &#160;&#160;ReadTilt #1</text>
</g>
<!-- n42 -->
<g id="node43" class="node">
<title>n42</title>
<path fill="#fbf6eb" stroke="#1a1612" stroke-width="1.5" d="M1249.66,-502C1249.66,-502 1167.38,-502 1167.38,-502 1161.38,-502 1155.38,-496 1155.38,-490 1155.38,-490 1155.38,-478 1155.38,-478 1155.38,-472 1161.38,-466 1167.38,-466 1167.38,-466 1249.66,-466 1249.66,-466 1255.66,-466 1261.66,-472 1261.66,-478 1261.66,-478 1261.66,-490 1261.66,-490 1261.66,-496 1255.66,-502 1249.66,-502"/>
<text xml:space="preserve" text-anchor="middle" x="1208.52" y="-480.3" font-family="Arial" font-size="11.00" fill="#1a1612">42 &#160;&#160;Arithmetic [÷]</text>
</g>
<!-- n41&#45;&gt;n42 -->
<g id="edge49" class="edge">
<title>n41&#45;&gt;n42</title>
<path fill="none" stroke="#4a3f33" stroke-width="1.3" d="M1227.66,-553.6C1224.5,-542.25 1220.29,-527.16 1216.62,-514.02"/>
<polygon fill="#4a3f33" stroke="#4a3f33" stroke-width="1.3" points="1220.04,-513.26 1213.98,-504.57 1213.3,-515.14 1220.04,-513.26"/>
<text xml:space="preserve" text-anchor="middle" x="1235.46" y="-524.5" font-family="Arial" font-size="10.00" fill="#8b2418"> tilt_1 </text>
</g>
<!-- n43 -->
<g id="node44" class="node">
<title>n43</title>
<path fill="#fbf6eb" stroke="#1a1612" stroke-width="1.5" d="M1240.54,-414C1240.54,-414 1136.5,-414 1136.5,-414 1130.5,-414 1124.5,-408 1124.5,-402 1124.5,-402 1124.5,-390 1124.5,-390 1124.5,-384 1130.5,-378 1136.5,-378 1136.5,-378 1240.54,-378 1240.54,-378 1246.54,-378 1252.54,-384 1252.54,-390 1252.54,-390 1252.54,-402 1252.54,-402 1252.54,-408 1246.54,-414 1240.54,-414"/>
<text xml:space="preserve" text-anchor="middle" x="1188.52" y="-392.3" font-family="Arial" font-size="11.00" fill="#1a1612">43 &#160;&#160;Arithmetic [round]</text>
</g>
<!-- n42&#45;&gt;n43 -->
<g id="edge50" class="edge">
<title>n42&#45;&gt;n43</title>
<path fill="none" stroke="#4a3f33" stroke-width="1.3" d="M1204.47,-465.6C1201.83,-454.25 1198.32,-439.16 1195.27,-426.02"/>
<polygon fill="#4a3f33" stroke="#4a3f33" stroke-width="1.3" points="1198.75,-425.54 1193.08,-416.59 1191.93,-427.12 1198.75,-425.54"/>
<text xml:space="preserve" text-anchor="middle" x="1214.34" y="-436.5" font-family="Arial" font-size="10.00" fill="#8b2418"> value </text>
</g>
<!-- n44 -->
<g id="node45" class="node">
<title>n44</title>
<path fill="#fbf6eb" stroke="#1a1612" stroke-width="1.5" d="M1230.04,-326C1230.04,-326 1147,-326 1147,-326 1141,-326 1135,-320 1135,-314 1135,-314 1135,-302 1135,-302 1135,-296 1141,-290 1147,-290 1147,-290 1230.04,-290 1230.04,-290 1236.04,-290 1242.04,-296 1242.04,-302 1242.04,-302 1242.04,-314 1242.04,-314 1242.04,-320 1236.04,-326 1230.04,-326"/>
<text xml:space="preserve" text-anchor="middle" x="1188.52" y="-304.3" font-family="Arial" font-size="11.00" fill="#1a1612">44 &#160;&#160;Arithmetic [+]</text>
</g>
<!-- n43&#45;&gt;n44 -->
<g id="edge51" class="edge">
<title>n43&#45;&gt;n44</title>
<path fill="none" stroke="#4a3f33" stroke-width="1.3" d="M1188.52,-377.6C1188.52,-366.36 1188.52,-351.47 1188.52,-338.43"/>
<polygon fill="#4a3f33" stroke="#4a3f33" stroke-width="1.3" points="1192.02,-338.64 1188.52,-328.64 1185.02,-338.64 1192.02,-338.64"/>
<text xml:space="preserve" text-anchor="middle" x="1203.14" y="-348.5" font-family="Arial" font-size="10.00" fill="#8b2418"> value </text>
</g>
<!-- n44&#45;&gt;n49 -->
<g id="edge52" class="edge">
<title>n44&#45;&gt;n49</title>
<path fill="none" stroke="#4a3f33" stroke-width="1.3" d="M1188.52,-289.6C1188.52,-278.36 1188.52,-263.47 1188.52,-250.43"/>
<polygon fill="#4a3f33" stroke="#4a3f33" stroke-width="1.3" points="1192.02,-250.64 1188.52,-240.64 1185.02,-250.64 1192.02,-250.64"/>
<text xml:space="preserve" text-anchor="middle" x="1203.14" y="-260.5" font-family="Arial" font-size="10.00" fill="#8b2418"> value </text>
</g>
<!-- n45 -->
<g id="node46" class="node">
<title>n45</title>
<path fill="#fbf6eb" stroke="#1a1612" stroke-width="1.5" d="M1400.91,-590C1400.91,-590 1326.12,-590 1326.12,-590 1320.12,-590 1314.12,-584 1314.12,-578 1314.12,-578 1314.12,-566 1314.12,-566 1314.12,-560 1320.12,-554 1326.12,-554 1326.12,-554 1400.91,-554 1400.91,-554 1406.91,-554 1412.91,-560 1412.91,-566 1412.91,-566 1412.91,-578 1412.91,-578 1412.91,-584 1406.91,-590 1400.91,-590"/>
<text xml:space="preserve" text-anchor="middle" x="1363.52" y="-568.3" font-family="Arial" font-size="11.00" fill="#1a1612">45 &#160;&#160;ReadTilt #2</text>
</g>
<!-- n46 -->
<g id="node47" class="node">
<title>n46</title>
<path fill="#fbf6eb" stroke="#1a1612" stroke-width="1.5" d="M1397.66,-502C1397.66,-502 1315.38,-502 1315.38,-502 1309.38,-502 1303.38,-496 1303.38,-490 1303.38,-490 1303.38,-478 1303.38,-478 1303.38,-472 1309.38,-466 1315.38,-466 1315.38,-466 1397.66,-466 1397.66,-466 1403.66,-466 1409.66,-472 1409.66,-478 1409.66,-478 1409.66,-490 1409.66,-490 1409.66,-496 1403.66,-502 1397.66,-502"/>
<text xml:space="preserve" text-anchor="middle" x="1356.52" y="-480.3" font-family="Arial" font-size="11.00" fill="#1a1612">46 &#160;&#160;Arithmetic [÷]</text>
</g>
<!-- n45&#45;&gt;n46 -->
<g id="edge53" class="edge">
<title>n45&#45;&gt;n46</title>
<path fill="none" stroke="#4a3f33" stroke-width="1.3" d="M1362.1,-553.6C1361.19,-542.36 1359.98,-527.47 1358.92,-514.43"/>
<polygon fill="#4a3f33" stroke="#4a3f33" stroke-width="1.3" points="1362.42,-514.32 1358.12,-504.63 1355.44,-514.88 1362.42,-514.32"/>
<text xml:space="preserve" text-anchor="middle" x="1373.94" y="-524.5" font-family="Arial" font-size="10.00" fill="#8b2418"> tilt_2 </text>
</g>
<!-- n47 -->
<g id="node48" class="node">
<title>n47</title>
<path fill="#fbf6eb" stroke="#1a1612" stroke-width="1.5" d="M1400.54,-414C1400.54,-414 1296.5,-414 1296.5,-414 1290.5,-414 1284.5,-408 1284.5,-402 1284.5,-402 1284.5,-390 1284.5,-390 1284.5,-384 1290.5,-378 1296.5,-378 1296.5,-378 1400.54,-378 1400.54,-378 1406.54,-378 1412.54,-384 1412.54,-390 1412.54,-390 1412.54,-402 1412.54,-402 1412.54,-408 1406.54,-414 1400.54,-414"/>
<text xml:space="preserve" text-anchor="middle" x="1348.52" y="-392.3" font-family="Arial" font-size="11.00" fill="#1a1612">47 &#160;&#160;Arithmetic [round]</text>
</g>
<!-- n46&#45;&gt;n47 -->
<g id="edge54" class="edge">
<title>n46&#45;&gt;n47</title>
<path fill="none" stroke="#4a3f33" stroke-width="1.3" d="M1354.9,-465.6C1353.86,-454.36 1352.47,-439.47 1351.26,-426.43"/>
<polygon fill="#4a3f33" stroke="#4a3f33" stroke-width="1.3" points="1354.76,-426.26 1350.35,-416.63 1347.79,-426.91 1354.76,-426.26"/>
<text xml:space="preserve" text-anchor="middle" x="1367.62" y="-436.5" font-family="Arial" font-size="10.00" fill="#8b2418"> value </text>
</g>
<!-- n48 -->
<g id="node49" class="node">
<title>n48</title>
<path fill="#fbf6eb" stroke="#1a1612" stroke-width="1.5" d="M1379.04,-326C1379.04,-326 1296,-326 1296,-326 1290,-326 1284,-320 1284,-314 1284,-314 1284,-302 1284,-302 1284,-296 1290,-290 1296,-290 1296,-290 1379.04,-290 1379.04,-290 1385.04,-290 1391.04,-296 1391.04,-302 1391.04,-302 1391.04,-314 1391.04,-314 1391.04,-320 1385.04,-326 1379.04,-326"/>
<text xml:space="preserve" text-anchor="middle" x="1337.52" y="-304.3" font-family="Arial" font-size="11.00" fill="#1a1612">48 &#160;&#160;Arithmetic [+]</text>
</g>
<!-- n47&#45;&gt;n48 -->
<g id="edge55" class="edge">
<title>n47&#45;&gt;n48</title>
<path fill="none" stroke="#4a3f33" stroke-width="1.3" d="M1346.29,-377.6C1344.86,-366.36 1342.95,-351.47 1341.28,-338.43"/>
<polygon fill="#4a3f33" stroke="#4a3f33" stroke-width="1.3" points="1344.77,-338.1 1340.03,-328.62 1337.83,-338.99 1344.77,-338.1"/>
<text xml:space="preserve" text-anchor="middle" x="1358.3" y="-348.5" font-family="Arial" font-size="10.00" fill="#8b2418"> value </text>
</g>
<!-- n48&#45;&gt;n49 -->
<g id="edge56" class="edge">
<title>n48&#45;&gt;n49</title>
<path fill="none" stroke="#4a3f33" stroke-width="1.3" d="M1307.01,-289.39C1284.58,-276.45 1253.88,-258.72 1229.34,-244.56"/>
<polygon fill="#4a3f33" stroke="#4a3f33" stroke-width="1.3" points="1231.36,-241.69 1220.95,-239.72 1227.86,-247.75 1231.36,-241.69"/>
<text xml:space="preserve" text-anchor="middle" x="1286.57" y="-260.5" font-family="Arial" font-size="10.00" fill="#8b2418"> value </text>
</g>
<!-- n50&#45;&gt;n37 -->
<g id="edge57" class="edge">
<title>n50&#45;&gt;n37</title>
<path fill="none" stroke="#4a3f33" stroke-width="1.3" d="M549.22,-201.39C534.08,-188.87 513.53,-171.87 496.7,-157.95"/>
<polygon fill="#4a3f33" stroke="#4a3f33" stroke-width="1.3" points="499.24,-155.52 489.3,-151.84 494.78,-160.91 499.24,-155.52"/>
<text xml:space="preserve" text-anchor="middle" x="548.37" y="-172.5" font-family="Arial" font-size="10.00" fill="#8b2418"> sonidofijo </text>
</g>
<!-- n51&#45;&gt;n53 -->
<g id="edge58" class="edge">
<title>n51&#45;&gt;n53</title>
<path fill="none" stroke="#5a6b3b" stroke-width="1.3" stroke-dasharray="5,2" d="M660.62,-238.73C615.77,-254 546.79,-271.67 486.39,-262.67 459.62,-258.67 430.89,-250.61 406.47,-242.55"/>
<polygon fill="#5a6b3b" stroke="#5a6b3b" stroke-width="1.3" points="407.68,-239.26 397.08,-239.37 405.43,-245.89 407.68,-239.26"/>
<text xml:space="preserve" text-anchor="middle" x="502.52" y="-260.5" font-family="Arial" font-size="10.00" fill="#5a6b3b"> sound </text>
</g>
</g>
</svg>
