<?xml version="1.0" encoding="UTF-8" standalone="no"?>
<!DOCTYPE svg PUBLIC "-//W3C//DTD SVG 1.1//EN"
 "http://www.w3.org/Graphics/SVG/1.1/DTD/svg11.dtd">
<!-- Generated by graphviz version 14.1.2 (0)
 -->
<!-- Title: PDG_Protobject Pages: 1 -->
<svg width="1143pt" height="803pt"
 viewBox="0.00 0.00 1143.00 803.00" xmlns="http://www.w3.org/2000/svg" xmlns:xlink="http://www.w3.org/1999/xlink">
<g id="graph0" class="graph" transform="scale(1 1) rotate(0) translate(21.6 781.6)">
<title>PDG_Protobject</title>
<polygon fill="#fbf6eb" stroke="none" points="-21.6,21.6 -21.6,-781.6 1121.37,-781.6 1121.37,21.6 -21.6,21.6"/>
<g id="clust1" class="cluster">
<title>cluster_loop</title>
<path fill="#fbf6eb" stroke="#8b2418" stroke-width="1.8" stroke-dasharray="5,2" d="M183.77,-8C183.77,-8 1079.77,-8 1079.77,-8 1085.77,-8 1091.77,-14 1091.77,-20 1091.77,-20 1091.77,-740 1091.77,-740 1091.77,-746 1085.77,-752 1079.77,-752 1079.77,-752 183.77,-752 183.77,-752 177.77,-752 171.77,-746 171.77,-740 171.77,-740 171.77,-20 171.77,-20 171.77,-14 177.77,-8 183.77,-8"/>
<text xml:space="preserve" text-anchor="start" x="205.64" y="-738.55" font-family="Arial" font-weight="bold" font-size="11.00">loop</text>
<text xml:space="preserve" text-anchor="start" x="179.77" y="-729.45" font-family="Arial" font-size="9.00" fill="#8b2418">alcance de control</text>
</g>
<!-- n1 -->
<g id="node1" class="node">
<title>n1</title>
<path fill="#34495e" stroke="#1a1612" stroke-width="1.5" d="M130.29,-590C130.29,-590 23.25,-590 23.25,-590 17.25,-590 11.25,-584 11.25,-578 11.25,-578 11.25,-566 11.25,-566 11.25,-560 17.25,-554 23.25,-554 23.25,-554 130.29,-554 130.29,-554 136.29,-554 142.29,-560 142.29,-566 142.29,-566 142.29,-578 142.29,-578 142.29,-584 136.29,-590 130.29,-590"/>
<text xml:space="preserve" text-anchor="middle" x="76.77" y="-568.3" font-family="Arial" font-size="11.00" fill="#fbf6eb">1 &#160;&#160;ProgramStartEvent</text>
</g>
<!-- n2 -->
<g id="node2" class="node">
<title>n2</title>
<path fill="#fbf6eb" stroke="#1a1612" stroke-width="1.5" d="M141.54,-502C141.54,-502 12,-502 12,-502 6,-502 0,-496 0,-490 0,-490 0,-478 0,-478 0,-472 6,-466 12,-466 12,-466 141.54,-466 141.54,-466 147.54,-466 153.54,-472 153.54,-478 153.54,-478 153.54,-490 153.54,-490 153.54,-496 147.54,-502 141.54,-502"/>
<text xml:space="preserve" text-anchor="middle" x="76.77" y="-480.3" font-family="Arial" font-size="11.00" fill="#1a1612">2 &#160;&#160;SetBackgroundColor #1</text>
</g>
<!-- n1&#45;&gt;n2 -->
<g id="edge1" class="edge">
<title>n1&#45;&gt;n2</title>
<path fill="none" stroke="#8b2418" stroke-width="2" d="M76.77,-553.6C76.77,-542.71 76.77,-528.39 76.77,-515.64"/>
<polygon fill="#8b2418" stroke="#8b2418" stroke-width="2" points="80.27,-515.7 76.77,-505.7 73.27,-515.7 80.27,-515.7"/>
</g>
<!-- n3 -->
<g id="node3" class="node">
<title>n3</title>
<path fill="#8b2418" stroke="#1a1612" stroke-width="1.5" d="M141.54,-414C141.54,-414 72,-414 72,-414 66,-414 60,-408 60,-402 60,-402 60,-390 60,-390 60,-384 66,-378 72,-378 72,-378 141.54,-378 141.54,-378 147.54,-378 153.54,-384 153.54,-390 153.54,-390 153.54,-402 153.54,-402 153.54,-408 147.54,-414 141.54,-414"/>
<text xml:space="preserve" text-anchor="middle" x="106.77" y="-392.3" font-family="Arial" font-size="11.00" fill="#fbf6eb">3 &#160;&#160;SetVariable</text>
</g>
<!-- n2&#45;&gt;n3 -->
<g id="edge2" class="edge">
<title>n2&#45;&gt;n3</title>
<path fill="none" stroke="#8b2418" stroke-width="2" d="M82.84,-465.6C86.72,-454.48 91.85,-439.77 96.36,-426.83"/>
<polygon fill="#8b2418" stroke="#8b2418" stroke-width="2" points="99.62,-428.13 99.61,-417.53 93.01,-425.82 99.62,-428.13"/>
</g>
<!-- n16 -->
<g id="node16" class="node">
<title>n16</title>
<path fill="#b8843a" stroke="#1a1612" stroke-width="1.5" d="M332.04,-326C332.04,-326 223.5,-326 223.5,-326 217.5,-326 211.5,-320 211.5,-314 211.5,-314 211.5,-302 211.5,-302 211.5,-296 217.5,-290 223.5,-290 223.5,-290 332.04,-290 332.04,-290 338.04,-290 344.04,-296 344.04,-302 344.04,-302 344.04,-314 344.04,-314 344.04,-320 338.04,-326 332.04,-326"/>
<text xml:space="preserve" text-anchor="middle" x="277.77" y="-304.3" font-family="Arial" font-size="11.00" fill="#fbf6eb">16 &#160;&#160;ConditionalBranch</text>
</g>
<!-- n3&#45;&gt;n16 -->
<g id="edge3" class="edge">
<title>n3&#45;&gt;n16</title>
<path fill="none" stroke="#4a3f33" stroke-width="1.3" d="M141.79,-377.39C167.87,-364.27 203.71,-346.25 232.05,-331.99"/>
<polygon fill="#4a3f33" stroke="#4a3f33" stroke-width="1.3" points="233.39,-335.24 240.75,-327.62 230.24,-328.99 233.39,-335.24"/>
<text xml:space="preserve" text-anchor="middle" x="226.13" y="-348.5" font-family="Arial" font-size="10.00" fill="#8b2418"> sonidofijo </text>
</g>
<!-- n23 -->
<g id="node23" class="node">
<title>n23</title>
<path fill="#b8843a" stroke="#1a1612" stroke-width="1.5" d="M524.04,-150C524.04,-150 415.5,-150 415.5,-150 409.5,-150 403.5,-144 403.5,-138 403.5,-138 403.5,-126 403.5,-126 403.5,-120 409.5,-114 415.5,-114 415.5,-114 524.04,-114 524.04,-114 530.04,-114 536.04,-120 536.04,-126 536.04,-126 536.04,-138 536.04,-138 536.04,-144 530.04,-150 524.04,-150"/>
<text xml:space="preserve" text-anchor="middle" x="469.77" y="-128.3" font-family="Arial" font-size="11.00" fill="#fbf6eb">23 &#160;&#160;ConditionalBranch</text>
</g>
<!-- n3&#45;&gt;n23 -->
<g id="edge4" class="edge">
<title>n3&#45;&gt;n23</title>
<path fill="none" stroke="#4a3f33" stroke-width="1.3" d="M107.47,-377.29C109.98,-339.2 121.44,-249.1 173.77,-202 205.43,-173.5 314.9,-153.5 391.44,-142.62"/>
<polygon fill="#4a3f33" stroke="#4a3f33" stroke-width="1.3" points="391.58,-146.13 401,-141.29 390.61,-139.2 391.58,-146.13"/>
<text xml:space="preserve" text-anchor="middle" x="158.02" y="-260.5" font-family="Arial" font-size="10.00" fill="#8b2418"> sonidofijo </text>
</g>
<!-- n4 -->
<g id="node4" class="node">
<title>n4</title>
<path fill="#5a6b3b" stroke="#1a1612" stroke-width="1.5" d="M300.41,-414C300.41,-414 215.12,-414 215.12,-414 209.12,-414 203.12,-408 203.12,-402 203.12,-402 203.12,-390 203.12,-390 203.12,-384 209.12,-378 215.12,-378 215.12,-378 300.41,-378 300.41,-378 306.41,-378 312.41,-384 312.41,-390 312.41,-390 312.41,-402 312.41,-402 312.41,-408 306.41,-414 300.41,-414"/>
<text xml:space="preserve" text-anchor="middle" x="257.77" y="-392.3" font-family="Arial" font-size="11.00" fill="#fbf6eb">4 &#160;&#160;DrawImage #1</text>
</g>
<!-- n4&#45;&gt;n16 -->
<g id="edge5" class="edge">
<title>n4&#45;&gt;n16</title>
<path fill="none" stroke="#8b2418" stroke-width="2" d="M261.82,-377.6C264.38,-366.6 267.75,-352.08 270.74,-339.24"/>
<polygon fill="#8b2418" stroke="#8b2418" stroke-width="2" points="274.12,-340.15 272.97,-329.62 267.3,-338.57 274.12,-340.15"/>
</g>
<!-- n22 -->
<g id="node22" class="node">
<title>n22</title>
<path fill="#5a6b3b" stroke="#1a1612" stroke-width="1.5" d="M891.04,-238C891.04,-238 812.5,-238 812.5,-238 806.5,-238 800.5,-232 800.5,-226 800.5,-226 800.5,-214 800.5,-214 800.5,-208 806.5,-202 812.5,-202 812.5,-202 891.04,-202 891.04,-202 897.04,-202 903.04,-208 903.04,-214 903.04,-214 903.04,-226 903.04,-226 903.04,-232 897.04,-238 891.04,-238"/>
<text xml:space="preserve" text-anchor="middle" x="851.77" y="-216.3" font-family="Arial" font-size="11.00" fill="#fbf6eb">22 &#160;&#160;PlotPoint #1</text>
</g>
<!-- n4&#45;&gt;n22 -->
<g id="edge6" class="edge">
<title>n4&#45;&gt;n22</title>
<path fill="none" stroke="#5a6b3b" stroke-width="1.3" stroke-dasharray="5,2" d="M278.33,-377.42C290.31,-367.59 305.93,-355.46 320.77,-346 337.2,-335.53 342.63,-335.26 359.77,-326 388.22,-310.62 392.01,-299.2 423.02,-290 495.1,-268.62 693.65,-303.89 760.77,-270 766.97,-266.87 765.25,-262.21 770.77,-258 777.69,-252.71 785.49,-247.96 793.44,-243.77"/>
<polygon fill="#5a6b3b" stroke="#5a6b3b" stroke-width="1.3" points="794.75,-247.03 802.15,-239.45 791.64,-240.75 794.75,-247.03"/>
<text xml:space="preserve" text-anchor="middle" x="441.39" y="-304.5" font-family="Arial" font-size="10.00" fill="#5a6b3b"> display </text>
</g>
<!-- n5 -->
<g id="node5" class="node">
<title>n5</title>
<path fill="#fbf6eb" stroke="#1a1612" stroke-width="1.5" d="M280.16,-678C280.16,-678 211.38,-678 211.38,-678 205.38,-678 199.38,-672 199.38,-666 199.38,-666 199.38,-654 199.38,-654 199.38,-648 205.38,-642 211.38,-642 211.38,-642 280.16,-642 280.16,-642 286.16,-642 292.16,-648 292.16,-654 292.16,-654 292.16,-666 292.16,-666 292.16,-672 286.16,-678 280.16,-678"/>
<text xml:space="preserve" text-anchor="middle" x="245.77" y="-656.3" font-family="Arial" font-size="11.00" fill="#1a1612">5 &#160;&#160;ReadTilt #1</text>
</g>
<!-- n6 -->
<g id="node6" class="node">
<title>n6</title>
<path fill="#fbf6eb" stroke="#1a1612" stroke-width="1.5" d="M289.91,-590C289.91,-590 201.62,-590 201.62,-590 195.62,-590 189.62,-584 189.62,-578 189.62,-578 189.62,-566 189.62,-566 189.62,-560 195.62,-554 201.62,-554 201.62,-554 289.91,-554 289.91,-554 295.91,-554 301.91,-560 301.91,-566 301.91,-566 301.91,-578 301.91,-578 301.91,-584 295.91,-590 289.91,-590"/>
<text xml:space="preserve" text-anchor="middle" x="245.77" y="-568.3" font-family="Arial" font-size="11.00" fill="#1a1612">6 &#160;&#160;Comparison [&gt;]</text>
</g>
<!-- n5&#45;&gt;n6 -->
<g id="edge7" class="edge">
<title>n5&#45;&gt;n6</title>
<path fill="none" stroke="#4a3f33" stroke-width="1.3" d="M245.77,-641.6C245.77,-630.36 245.77,-615.47 245.77,-602.43"/>
<polygon fill="#4a3f33" stroke="#4a3f33" stroke-width="1.3" points="249.27,-602.64 245.77,-592.64 242.27,-602.64 249.27,-602.64"/>
<text xml:space="preserve" text-anchor="middle" x="259.27" y="-612.5" font-family="Arial" font-size="10.00" fill="#8b2418"> tilt_1 </text>
</g>
<!-- n9 -->
<g id="node9" class="node">
<title>n9</title>
<path fill="#fbf6eb" stroke="#1a1612" stroke-width="1.5" d="M423.41,-502C423.41,-502 356.12,-502 356.12,-502 350.12,-502 344.12,-496 344.12,-490 344.12,-490 344.12,-478 344.12,-478 344.12,-472 350.12,-466 356.12,-466 356.12,-466 423.41,-466 423.41,-466 429.41,-466 435.41,-472 435.41,-478 435.41,-478 435.41,-490 435.41,-490 435.41,-496 429.41,-502 423.41,-502"/>
<text xml:space="preserve" text-anchor="middle" x="389.77" y="-480.3" font-family="Arial" font-size="11.00" fill="#1a1612">9 &#160;&#160;LogicalAnd</text>
</g>
<!-- n6&#45;&gt;n9 -->
<g id="edge8" class="edge">
<title>n6&#45;&gt;n9</title>
<path fill="none" stroke="#4a3f33" stroke-width="1.3" d="M275.26,-553.39C296.9,-540.46 326.54,-522.76 350.24,-508.61"/>
<polygon fill="#4a3f33" stroke="#4a3f33" stroke-width="1.3" points="351.84,-511.73 358.63,-503.6 348.25,-505.72 351.84,-511.73"/>
<text xml:space="preserve" text-anchor="middle" x="341.02" y="-524.5" font-family="Arial" font-size="10.00" fill="#8b2418"> value </text>
</g>
<!-- n7 -->
<g id="node7" class="node">
<title>n7</title>
<path fill="#fbf6eb" stroke="#1a1612" stroke-width="1.5" d="M424.16,-678C424.16,-678 355.38,-678 355.38,-678 349.38,-678 343.38,-672 343.38,-666 343.38,-666 343.38,-654 343.38,-654 343.38,-648 349.38,-642 355.38,-642 355.38,-642 424.16,-642 424.16,-642 430.16,-642 436.16,-648 436.16,-654 436.16,-654 436.16,-666 436.16,-666 436.16,-672 430.16,-678 424.16,-678"/>
<text xml:space="preserve" text-anchor="middle" x="389.77" y="-656.3" font-family="Arial" font-size="11.00" fill="#1a1612">7 &#160;&#160;ReadTilt #1</text>
</g>
<!-- n8 -->
<g id="node8" class="node">
<title>n8</title>
<path fill="#fbf6eb" stroke="#1a1612" stroke-width="1.5" d="M433.91,-590C433.91,-590 345.62,-590 345.62,-590 339.62,-590 333.62,-584 333.62,-578 333.62,-578 333.62,-566 333.62,-566 333.62,-560 339.62,-554 345.62,-554 345.62,-554 433.91,-554 433.91,-554 439.91,-554 445.91,-560 445.91,-566 445.91,-566 445.91,-578 445.91,-578 445.91,-584 439.91,-590 433.91,-590"/>
<text xml:space="preserve" text-anchor="middle" x="389.77" y="-568.3" font-family="Arial" font-size="11.00" fill="#1a1612">8 &#160;&#160;Comparison [&lt;]</text>
</g>
<!-- n7&#45;&gt;n8 -->
<g id="edge9" class="edge">
<title>n7&#45;&gt;n8</title>
<path fill="none" stroke="#4a3f33" stroke-width="1.3" d="M389.77,-641.6C389.77,-630.36 389.77,-615.47 389.77,-602.43"/>
<polygon fill="#4a3f33" stroke="#4a3f33" stroke-width="1.3" points="393.27,-602.64 389.77,-592.64 386.27,-602.64 393.27,-602.64"/>
<text xml:space="preserve" text-anchor="middle" x="403.27" y="-612.5" font-family="Arial" font-size="10.00" fill="#8b2418"> tilt_1 </text>
</g>
<!-- n8&#45;&gt;n9 -->
<g id="edge10" class="edge">
<title>n8&#45;&gt;n9</title>
<path fill="none" stroke="#4a3f33" stroke-width="1.3" d="M389.77,-553.6C389.77,-542.36 389.77,-527.47 389.77,-514.43"/>
<polygon fill="#4a3f33" stroke="#4a3f33" stroke-width="1.3" points="393.27,-514.64 389.77,-504.64 386.27,-514.64 393.27,-514.64"/>
<text xml:space="preserve" text-anchor="middle" x="404.39" y="-524.5" font-family="Arial" font-size="10.00" fill="#8b2418"> value </text>
</g>
<!-- n15 -->
<g id="node15" class="node">
<title>n15</title>
<path fill="#fbf6eb" stroke="#1a1612" stroke-width="1.5" d="M429.41,-414C429.41,-414 356.12,-414 356.12,-414 350.12,-414 344.12,-408 344.12,-402 344.12,-402 344.12,-390 344.12,-390 344.12,-384 350.12,-378 356.12,-378 356.12,-378 429.41,-378 429.41,-378 435.41,-378 441.41,-384 441.41,-390 441.41,-390 441.41,-402 441.41,-402 441.41,-408 435.41,-414 429.41,-414"/>
<text xml:space="preserve" text-anchor="middle" x="392.77" y="-392.3" font-family="Arial" font-size="11.00" fill="#1a1612">15 &#160;&#160;LogicalAnd</text>
</g>
<!-- n9&#45;&gt;n15 -->
<g id="edge11" class="edge">
<title>n9&#45;&gt;n15</title>
<path fill="none" stroke="#4a3f33" stroke-width="1.3" d="M390.38,-465.6C390.77,-454.36 391.29,-439.47 391.74,-426.43"/>
<polygon fill="#4a3f33" stroke="#4a3f33" stroke-width="1.3" points="395.23,-426.76 392.08,-416.64 388.24,-426.51 395.23,-426.76"/>
<text xml:space="preserve" text-anchor="middle" x="406.07" y="-436.5" font-family="Arial" font-size="10.00" fill="#8b2418"> value </text>
</g>
<!-- n10 -->
<g id="node10" class="node">
<title>n10</title>
<path fill="#fbf6eb" stroke="#1a1612" stroke-width="1.5" d="M574.16,-678C574.16,-678 499.38,-678 499.38,-678 493.38,-678 487.38,-672 487.38,-666 487.38,-666 487.38,-654 487.38,-654 487.38,-648 493.38,-642 499.38,-642 499.38,-642 574.16,-642 574.16,-642 580.16,-642 586.16,-648 586.16,-654 586.16,-654 586.16,-666 586.16,-666 586.16,-672 580.16,-678 574.16,-678"/>
<text xml:space="preserve" text-anchor="middle" x="536.77" y="-656.3" font-family="Arial" font-size="11.00" fill="#1a1612">10 &#160;&#160;ReadTilt #2</text>
</g>
<!-- n11 -->
<g id="node11" class="node">
<title>n11</title>
<path fill="#fbf6eb" stroke="#1a1612" stroke-width="1.5" d="M583.54,-590C583.54,-590 490,-590 490,-590 484,-590 478,-584 478,-578 478,-578 478,-566 478,-566 478,-560 484,-554 490,-554 490,-554 583.54,-554 583.54,-554 589.54,-554 595.54,-560 595.54,-566 595.54,-566 595.54,-578 595.54,-578 595.54,-584 589.54,-590 583.54,-590"/>
<text xml:space="preserve" text-anchor="middle" x="536.77" y="-568.3" font-family="Arial" font-size="11.00" fill="#1a1612">11 &#160;&#160;Comparison [&gt;]</text>
</g>
<!-- n10&#45;&gt;n11 -->
<g id="edge12" class="edge">
<title>n10&#45;&gt;n11</title>
<path fill="none" stroke="#4a3f33" stroke-width="1.3" d="M536.77,-641.6C536.77,-630.36 536.77,-615.47 536.77,-602.43"/>
<polygon fill="#4a3f33" stroke="#4a3f33" stroke-width="1.3" points="540.27,-602.64 536.77,-592.64 533.27,-602.64 540.27,-602.64"/>
<text xml:space="preserve" text-anchor="middle" x="550.27" y="-612.5" font-family="Arial" font-size="10.00" fill="#8b2418"> tilt_2 </text>
</g>
<!-- n14 -->
<g id="node14" class="node">
<title>n14</title>
<path fill="#fbf6eb" stroke="#1a1612" stroke-width="1.5" d="M558.41,-502C558.41,-502 485.12,-502 485.12,-502 479.12,-502 473.12,-496 473.12,-490 473.12,-490 473.12,-478 473.12,-478 473.12,-472 479.12,-466 485.12,-466 485.12,-466 558.41,-466 558.41,-466 564.41,-466 570.41,-472 570.41,-478 570.41,-478 570.41,-490 570.41,-490 570.41,-496 564.41,-502 558.41,-502"/>
<text xml:space="preserve" text-anchor="middle" x="521.77" y="-480.3" font-family="Arial" font-size="11.00" fill="#1a1612">14 &#160;&#160;LogicalAnd</text>
</g>
<!-- n11&#45;&gt;n14 -->
<g id="edge13" class="edge">
<title>n11&#45;&gt;n14</title>
<path fill="none" stroke="#4a3f33" stroke-width="1.3" d="M533.73,-553.6C531.78,-542.36 529.18,-527.47 526.9,-514.43"/>
<polygon fill="#4a3f33" stroke="#4a3f33" stroke-width="1.3" points="530.36,-513.86 525.19,-504.61 523.46,-515.06 530.36,-513.86"/>
<text xml:space="preserve" text-anchor="middle" x="544.79" y="-524.5" font-family="Arial" font-size="10.00" fill="#8b2418"> value </text>
</g>
<!-- n12 -->
<g id="node12" class="node">
<title>n12</title>
<path fill="#fbf6eb" stroke="#1a1612" stroke-width="1.5" d="M724.16,-678C724.16,-678 649.38,-678 649.38,-678 643.38,-678 637.38,-672 637.38,-666 637.38,-666 637.38,-654 637.38,-654 637.38,-648 643.38,-642 649.38,-642 649.38,-642 724.16,-642 724.16,-642 730.16,-642 736.16,-648 736.16,-654 736.16,-654 736.16,-666 736.16,-666 736.16,-672 730.16,-678 724.16,-678"/>
<text xml:space="preserve" text-anchor="middle" x="686.77" y="-656.3" font-family="Arial" font-size="11.00" fill="#1a1612">12 &#160;&#160;ReadTilt #2</text>
</g>
<!-- n13 -->
<g id="node13" class="node">
<title>n13</title>
<path fill="#fbf6eb" stroke="#1a1612" stroke-width="1.5" d="M733.91,-590C733.91,-590 639.62,-590 639.62,-590 633.62,-590 627.62,-584 627.62,-578 627.62,-578 627.62,-566 627.62,-566 627.62,-560 633.62,-554 639.62,-554 639.62,-554 733.91,-554 733.91,-554 739.91,-554 745.91,-560 745.91,-566 745.91,-566 745.91,-578 745.91,-578 745.91,-584 739.91,-590 733.91,-590"/>
<text xml:space="preserve" text-anchor="middle" x="686.77" y="-568.3" font-family="Arial" font-size="11.00" fill="#1a1612">13 &#160;&#160;Comparison [&lt;]</text>
</g>
<!-- n12&#45;&gt;n13 -->
<g id="edge14" class="edge">
<title>n12&#45;&gt;n13</title>
<path fill="none" stroke="#4a3f33" stroke-width="1.3" d="M686.77,-641.6C686.77,-630.36 686.77,-615.47 686.77,-602.43"/>
<polygon fill="#4a3f33" stroke="#4a3f33" stroke-width="1.3" points="690.27,-602.64 686.77,-592.64 683.27,-602.64 690.27,-602.64"/>
<text xml:space="preserve" text-anchor="middle" x="700.27" y="-612.5" font-family="Arial" font-size="10.00" fill="#8b2418"> tilt_2 </text>
</g>
<!-- n13&#45;&gt;n14 -->
<g id="edge15" class="edge">
<title>n13&#45;&gt;n14</title>
<path fill="none" stroke="#4a3f33" stroke-width="1.3" d="M652.98,-553.39C627.93,-540.33 593.54,-522.41 566.25,-508.18"/>
<polygon fill="#4a3f33" stroke="#4a3f33" stroke-width="1.3" points="568.03,-505.16 557.54,-503.64 564.79,-511.37 568.03,-505.16"/>
<text xml:space="preserve" text-anchor="middle" x="628.77" y="-524.5" font-family="Arial" font-size="10.00" fill="#8b2418"> value </text>
</g>
<!-- n14&#45;&gt;n15 -->
<g id="edge16" class="edge">
<title>n14&#45;&gt;n15</title>
<path fill="none" stroke="#4a3f33" stroke-width="1.3" d="M495.35,-465.39C476.22,-452.64 450.13,-435.24 429.05,-421.18"/>
<polygon fill="#4a3f33" stroke="#4a3f33" stroke-width="1.3" points="431.05,-418.31 420.79,-415.68 427.17,-424.14 431.05,-418.31"/>
<text xml:space="preserve" text-anchor="middle" x="479.62" y="-436.5" font-family="Arial" font-size="10.00" fill="#8b2418"> value </text>
</g>
<!-- n15&#45;&gt;n16 -->
<g id="edge17" class="edge">
<title>n15&#45;&gt;n16</title>
<path fill="none" stroke="#4a3f33" stroke-width="1.3" d="M369.22,-377.39C352.32,-364.75 329.33,-347.55 310.62,-333.57"/>
<polygon fill="#4a3f33" stroke="#4a3f33" stroke-width="1.3" points="312.97,-330.95 302.86,-327.77 308.78,-336.56 312.97,-330.95"/>
<text xml:space="preserve" text-anchor="middle" x="364.66" y="-348.5" font-family="Arial" font-size="10.00" fill="#8b2418"> condition </text>
</g>
<!-- n16&#45;&gt;n22 -->
<g id="edge18" class="edge">
<title>n16&#45;&gt;n22</title>
<path fill="none" stroke="#8b2418" stroke-width="2" d="M344.48,-293.54C352.31,-292.21 360.2,-290.99 367.77,-290 485.75,-274.49 518.15,-293.68 634.77,-270 651.09,-266.69 654.13,-262.11 670.27,-258 720.33,-245.25 734.25,-248.8 784.77,-238 785.69,-237.8 786.62,-237.6 787.56,-237.4"/>
<polygon fill="#8b2418" stroke="#8b2418" stroke-width="2" points="788,-240.89 796.97,-235.24 786.44,-234.06 788,-240.89"/>
<text xml:space="preserve" text-anchor="middle" x="681.52" y="-260.5" font-family="Arial" font-size="10.00" fill="#8b2418"> true </text>
</g>
<!-- n16&#45;&gt;n23 -->
<g id="edge19" class="edge">
<title>n16&#45;&gt;n23</title>
<path fill="none" stroke="#8b2418" stroke-width="2" d="M336.78,-289.37C365.36,-278.38 398.46,-261.73 421.77,-238 442.32,-217.08 455.05,-185.78 462.2,-162.8"/>
<polygon fill="#8b2418" stroke="#8b2418" stroke-width="2" points="465.54,-163.85 464.94,-153.28 458.81,-161.92 465.54,-163.85"/>
<text xml:space="preserve" text-anchor="middle" x="457.7" y="-216.5" font-family="Arial" font-size="10.00" fill="#8b2418"> true </text>
</g>
<!-- n33 -->
<g id="node33" class="node">
<title>n33</title>
<path fill="#5a6b3b" stroke="#1a1612" stroke-width="1.5" d="M1062.04,-238C1062.04,-238 983.5,-238 983.5,-238 977.5,-238 971.5,-232 971.5,-226 971.5,-226 971.5,-214 971.5,-214 971.5,-208 977.5,-202 983.5,-202 983.5,-202 1062.04,-202 1062.04,-202 1068.04,-202 1074.04,-208 1074.04,-214 1074.04,-214 1074.04,-226 1074.04,-226 1074.04,-232 1068.04,-238 1062.04,-238"/>
<text xml:space="preserve" text-anchor="middle" x="1022.77" y="-216.3" font-family="Arial" font-size="11.00" fill="#fbf6eb">33 &#160;&#160;PlotPoint #1</text>
</g>
<!-- n16&#45;&gt;n33 -->
<g id="edge20" class="edge">
<title>n16&#45;&gt;n33</title>
<path fill="none" stroke="#8b2418" stroke-width="2" d="M344.46,-293.43C352.3,-292.13 360.2,-290.94 367.77,-290 513.14,-271.92 552.95,-297.84 696.77,-270 713.33,-266.79 716.29,-261.59 732.77,-258 814.01,-240.31 836.38,-249.16 918.77,-238 931.55,-236.27 945.18,-234.2 958.22,-232.12"/>
<polygon fill="#8b2418" stroke="#8b2418" stroke-width="2" points="958.72,-235.58 968.02,-230.52 957.59,-228.67 958.72,-235.58"/>
<text xml:space="preserve" text-anchor="middle" x="746.27" y="-260.5" font-family="Arial" font-size="10.00" fill="#8b2418"> false </text>
</g>
<!-- n34 -->
<g id="node34" class="node">
<title>n34</title>
<path fill="#8b2418" stroke="#1a1612" stroke-width="1.5" d="M611.54,-238C611.54,-238 536,-238 536,-238 530,-238 524,-232 524,-226 524,-226 524,-214 524,-214 524,-208 530,-202 536,-202 536,-202 611.54,-202 611.54,-202 617.54,-202 623.54,-208 623.54,-214 623.54,-214 623.54,-226 623.54,-226 623.54,-232 617.54,-238 611.54,-238"/>
<text xml:space="preserve" text-anchor="middle" x="573.77" y="-216.3" font-family="Arial" font-size="11.00" fill="#fbf6eb">34 &#160;&#160;SetVariable</text>
</g>
<!-- n16&#45;&gt;n34 -->
<g id="edge21" class="edge">
<title>n16&#45;&gt;n34</title>
<path fill="none" stroke="#8b2418" stroke-width="2" d="M344.55,-294.03C352.37,-292.62 360.24,-291.24 367.77,-290 430.22,-279.68 450.31,-294.26 508.77,-270 522.12,-264.46 535.18,-255.52 546.05,-246.78"/>
<polygon fill="#8b2418" stroke="#8b2418" stroke-width="2" points="548.06,-249.68 553.43,-240.55 543.54,-244.33 548.06,-249.68"/>
<text xml:space="preserve" text-anchor="middle" x="543.74" y="-260.5" font-family="Arial" font-size="10.00" fill="#8b2418"> false </text>
</g>
<!-- n35 -->
<g id="node35" class="node">
<title>n35</title>
<path fill="#fbf6eb" stroke="#1a1612" stroke-width="1.5" d="M756.29,-238C756.29,-238 667.25,-238 667.25,-238 661.25,-238 655.25,-232 655.25,-226 655.25,-226 655.25,-214 655.25,-214 655.25,-208 661.25,-202 667.25,-202 667.25,-202 756.29,-202 756.29,-202 762.29,-202 768.29,-208 768.29,-214 768.29,-214 768.29,-226 768.29,-226 768.29,-232 762.29,-238 756.29,-238"/>
<text xml:space="preserve" text-anchor="middle" x="711.77" y="-216.3" font-family="Arial" font-size="11.00" fill="#1a1612">35 &#160;&#160;StopSound #1</text>
</g>
<!-- n16&#45;&gt;n35 -->
<g id="edge22" class="edge">
<title>n16&#45;&gt;n35</title>
<path fill="none" stroke="#8b2418" stroke-width="2" d="M344.5,-293.74C352.33,-292.38 360.22,-291.09 367.77,-290 454.87,-277.38 478.72,-288.47 564.77,-270 573.51,-268.12 612.83,-254.98 648.61,-242.77"/>
<polygon fill="#8b2418" stroke="#8b2418" stroke-width="2" points="649.36,-246.22 657.69,-239.67 647.09,-239.59 649.36,-246.22"/>
<text xml:space="preserve" text-anchor="middle" x="613.72" y="-260.5" font-family="Arial" font-size="10.00" fill="#8b2418"> false </text>
</g>
<!-- n36 -->
<g id="node36" class="node">
<title>n36</title>
<path fill="#4a3f33" stroke="#1a1612" stroke-width="1.5" d="M249.66,-238C249.66,-238 201.88,-238 201.88,-238 195.88,-238 189.88,-232 189.88,-226 189.88,-226 189.88,-214 189.88,-214 189.88,-208 195.88,-202 201.88,-202 201.88,-202 249.66,-202 249.66,-202 255.66,-202 261.66,-208 261.66,-214 261.66,-214 261.66,-226 261.66,-226 261.66,-232 255.66,-238 249.66,-238"/>
<text xml:space="preserve" text-anchor="middle" x="225.77" y="-216.3" font-family="Arial" font-size="11.00" fill="#fbf6eb">36 &#160;&#160;Delay</text>
</g>
<!-- n16&#45;&gt;n36 -->
<g id="edge23" class="edge">
<title>n16&#45;&gt;n36</title>
<path fill="none" stroke="#8b2418" stroke-width="2" d="M267.25,-289.6C260.32,-278.13 251.08,-262.85 243.08,-249.62"/>
<polygon fill="#8b2418" stroke="#8b2418" stroke-width="2" points="246.19,-248.01 238.02,-241.26 240.2,-251.63 246.19,-248.01"/>
<text xml:space="preserve" text-anchor="middle" x="268.38" y="-260.5" font-family="Arial" font-size="10.00" fill="#8b2418"> false </text>
</g>
<!-- n37 -->
<g id="node37" class="node">
<title>n37</title>
<path fill="#fbf6eb" stroke="#1a1612" stroke-width="1.5" d="M393.91,-238C393.91,-238 305.62,-238 305.62,-238 299.62,-238 293.62,-232 293.62,-226 293.62,-226 293.62,-214 293.62,-214 293.62,-208 299.62,-202 305.62,-202 305.62,-202 393.91,-202 393.91,-202 399.91,-202 405.91,-208 405.91,-214 405.91,-214 405.91,-226 405.91,-226 405.91,-232 399.91,-238 393.91,-238"/>
<text xml:space="preserve" text-anchor="middle" x="349.77" y="-216.3" font-family="Arial" font-size="11.00" fill="#1a1612">37 &#160;&#160;EmitSound #1</text>
</g>
<!-- n16&#45;&gt;n37 -->
<g id="edge24" class="edge">
<title>n16&#45;&gt;n37</title>
<path fill="none" stroke="#8b2418" stroke-width="2" d="M292.34,-289.6C302.23,-277.78 315.51,-261.92 326.81,-248.43"/>
<polygon fill="#8b2418" stroke="#8b2418" stroke-width="2" points="329.3,-250.91 333.03,-240.99 323.93,-246.41 329.3,-250.91"/>
<text xml:space="preserve" text-anchor="middle" x="331.58" y="-260.5" font-family="Arial" font-size="10.00" fill="#8b2418"> false </text>
</g>
<!-- n17 -->
<g id="node17" class="node">
<title>n17</title>
<path fill="#fbf6eb" stroke="#1a1612" stroke-width="1.5" d="M689.16,-502C689.16,-502 614.38,-502 614.38,-502 608.38,-502 602.38,-496 602.38,-490 602.38,-490 602.38,-478 602.38,-478 602.38,-472 608.38,-466 614.38,-466 614.38,-466 689.16,-466 689.16,-466 695.16,-466 701.16,-472 701.16,-478 701.16,-478 701.16,-490 701.16,-490 701.16,-496 695.16,-502 689.16,-502"/>
<text xml:space="preserve" text-anchor="middle" x="651.77" y="-480.3" font-family="Arial" font-size="11.00" fill="#1a1612">17 &#160;&#160;ReadTilt #1</text>
</g>
<!-- n18 -->
<g id="node18" class="node">
<title>n18</title>
<path fill="#fbf6eb" stroke="#1a1612" stroke-width="1.5" d="M573.29,-414C573.29,-414 490.25,-414 490.25,-414 484.25,-414 478.25,-408 478.25,-402 478.25,-402 478.25,-390 478.25,-390 478.25,-384 484.25,-378 490.25,-378 490.25,-378 573.29,-378 573.29,-378 579.29,-378 585.29,-384 585.29,-390 585.29,-390 585.29,-402 585.29,-402 585.29,-408 579.29,-414 573.29,-414"/>
<text xml:space="preserve" text-anchor="middle" x="531.77" y="-392.3" font-family="Arial" font-size="11.00" fill="#1a1612">18 &#160;&#160;Arithmetic [×]</text>
</g>
<!-- n17&#45;&gt;n18 -->
<g id="edge25" class="edge">
<title>n17&#45;&gt;n18</title>
<path fill="none" stroke="#4a3f33" stroke-width="1.3" d="M627.2,-465.39C609.48,-452.69 585.35,-435.4 565.78,-421.38"/>
<polygon fill="#4a3f33" stroke="#4a3f33" stroke-width="1.3" points="568.08,-418.71 557.91,-415.73 564,-424.4 568.08,-418.71"/>
<text xml:space="preserve" text-anchor="middle" x="612.45" y="-436.5" font-family="Arial" font-size="10.00" fill="#8b2418"> tilt_1 </text>
</g>
<!-- n19 -->
<g id="node19" class="node">
<title>n19</title>
<path fill="#fbf6eb" stroke="#1a1612" stroke-width="1.5" d="M571.29,-326C571.29,-326 488.25,-326 488.25,-326 482.25,-326 476.25,-320 476.25,-314 476.25,-314 476.25,-302 476.25,-302 476.25,-296 482.25,-290 488.25,-290 488.25,-290 571.29,-290 571.29,-290 577.29,-290 583.29,-296 583.29,-302 583.29,-302 583.29,-314 583.29,-314 583.29,-320 577.29,-326 571.29,-326"/>
<text xml:space="preserve" text-anchor="middle" x="529.77" y="-304.3" font-family="Arial" font-size="11.00" fill="#1a1612">19 &#160;&#160;Arithmetic [+]</text>
</g>
<!-- n18&#45;&gt;n19 -->
<g id="edge26" class="edge">
<title>n18&#45;&gt;n19</title>
<path fill="none" stroke="#4a3f33" stroke-width="1.3" d="M531.37,-377.6C531.1,-366.36 530.76,-351.47 530.45,-338.43"/>
<polygon fill="#4a3f33" stroke="#4a3f33" stroke-width="1.3" points="533.96,-338.56 530.23,-328.64 526.96,-338.72 533.96,-338.56"/>
<text xml:space="preserve" text-anchor="middle" x="545.51" y="-348.5" font-family="Arial" font-size="10.00" fill="#8b2418"> value </text>
</g>
<!-- n19&#45;&gt;n22 -->
<g id="edge27" class="edge">
<title>n19&#45;&gt;n22</title>
<path fill="none" stroke="#4a3f33" stroke-width="1.3" d="M583.87,-293C588.89,-291.9 593.91,-290.88 598.77,-290 673.19,-276.48 696.04,-294 767.77,-270 785.33,-264.12 803.26,-254.29 818.03,-244.96"/>
<polygon fill="#4a3f33" stroke="#4a3f33" stroke-width="1.3" points="819.59,-248.12 826.05,-239.72 815.76,-242.26 819.59,-248.12"/>
<text xml:space="preserve" text-anchor="middle" x="809.26" y="-260.5" font-family="Arial" font-size="10.00" fill="#8b2418"> value </text>
</g>
<!-- n20 -->
<g id="node20" class="node">
<title>n20</title>
<path fill="#fbf6eb" stroke="#1a1612" stroke-width="1.5" d="M706.16,-414C706.16,-414 631.38,-414 631.38,-414 625.38,-414 619.38,-408 619.38,-402 619.38,-402 619.38,-390 619.38,-390 619.38,-384 625.38,-378 631.38,-378 631.38,-378 706.16,-378 706.16,-378 712.16,-378 718.16,-384 718.16,-390 718.16,-390 718.16,-402 718.16,-402 718.16,-408 712.16,-414 706.16,-414"/>
<text xml:space="preserve" text-anchor="middle" x="668.77" y="-392.3" font-family="Arial" font-size="11.00" fill="#1a1612">20 &#160;&#160;ReadTilt #2</text>
</g>
<!-- n21 -->
<g id="node21" class="node">
<title>n21</title>
<path fill="#fbf6eb" stroke="#1a1612" stroke-width="1.5" d="M710.29,-326C710.29,-326 627.25,-326 627.25,-326 621.25,-326 615.25,-320 615.25,-314 615.25,-314 615.25,-302 615.25,-302 615.25,-296 621.25,-290 627.25,-290 627.25,-290 710.29,-290 710.29,-290 716.29,-290 722.29,-296 722.29,-302 722.29,-302 722.29,-314 722.29,-314 722.29,-320 716.29,-326 710.29,-326"/>
<text xml:space="preserve" text-anchor="middle" x="668.77" y="-304.3" font-family="Arial" font-size="11.00" fill="#1a1612">21 &#160;&#160;Arithmetic [+]</text>
</g>
<!-- n20&#45;&gt;n21 -->
<g id="edge28" class="edge">
<title>n20&#45;&gt;n21</title>
<path fill="none" stroke="#4a3f33" stroke-width="1.3" d="M668.77,-377.6C668.77,-366.36 668.77,-351.47 668.77,-338.43"/>
<polygon fill="#4a3f33" stroke="#4a3f33" stroke-width="1.3" points="672.27,-338.64 668.77,-328.64 665.27,-338.64 672.27,-338.64"/>
<text xml:space="preserve" text-anchor="middle" x="682.27" y="-348.5" font-family="Arial" font-size="10.00" fill="#8b2418"> tilt_2 </text>
</g>
<!-- n21&#45;&gt;n22 -->
<g id="edge29" class="edge">
<title>n21&#45;&gt;n22</title>
<path fill="none" stroke="#4a3f33" stroke-width="1.3" d="M722.97,-293.45C727.96,-292.26 732.96,-291.09 737.77,-290 780.27,-280.34 800.78,-298.48 833.77,-270 839.8,-264.79 843.82,-257.38 846.48,-249.89"/>
<polygon fill="#4a3f33" stroke="#4a3f33" stroke-width="1.3" points="849.85,-250.84 849.14,-240.27 843.11,-248.98 849.85,-250.84"/>
<text xml:space="preserve" text-anchor="middle" x="857.01" y="-260.5" font-family="Arial" font-size="10.00" fill="#8b2418"> value </text>
</g>
<!-- n22&#45;&gt;n33 -->
<g id="edge30" class="edge">
<title>n22&#45;&gt;n33</title>
<path fill="none" stroke="#5a6b3b" stroke-width="1.3" stroke-dasharray="5,2" d="M903.54,-220C921.04,-220 940.78,-220 959.09,-220"/>
<polygon fill="#5a6b3b" stroke="#5a6b3b" stroke-width="1.3" points="958.91,-223.5 968.91,-220 958.91,-216.5 958.91,-223.5"/>
<text xml:space="preserve" text-anchor="middle" x="937.27" y="-225.5" font-family="Arial" font-size="10.00" fill="#5a6b3b"> display </text>
</g>
<!-- n24 -->
<g id="node24" class="node">
<title>n24</title>
<path fill="#fbf6eb" stroke="#1a1612" stroke-width="1.5" d="M597.91,-62C597.91,-62 509.62,-62 509.62,-62 503.62,-62 497.62,-56 497.62,-50 497.62,-50 497.62,-38 497.62,-38 497.62,-32 503.62,-26 509.62,-26 509.62,-26 597.91,-26 597.91,-26 603.91,-26 609.91,-32 609.91,-38 609.91,-38 609.91,-50 609.91,-50 609.91,-56 603.91,-62 597.91,-62"/>
<text xml:space="preserve" text-anchor="middle" x="553.77" y="-40.3" font-family="Arial" font-size="11.00" fill="#1a1612">24 &#160;&#160;EmitSound #1</text>
</g>
<!-- n23&#45;&gt;n24 -->
<g id="edge31" class="edge">
<title>n23&#45;&gt;n24</title>
<path fill="none" stroke="#8b2418" stroke-width="2" d="M486.77,-113.6C498.53,-101.55 514.41,-85.3 527.75,-71.63"/>
<polygon fill="#8b2418" stroke="#8b2418" stroke-width="2" points="529.91,-74.44 534.39,-64.84 524.9,-69.55 529.91,-74.44"/>
<text xml:space="preserve" text-anchor="middle" x="528.05" y="-84.5" font-family="Arial" font-size="10.00" fill="#8b2418"> true </text>
</g>
<!-- n25 -->
<g id="node25" class="node">
<title>n25</title>
<path fill="#8b2418" stroke="#1a1612" stroke-width="1.5" d="M450.54,-62C450.54,-62 375,-62 375,-62 369,-62 363,-56 363,-50 363,-50 363,-38 363,-38 363,-32 369,-26 375,-26 375,-26 450.54,-26 450.54,-26 456.54,-26 462.54,-32 462.54,-38 462.54,-38 462.54,-50 462.54,-50 462.54,-56 456.54,-62 450.54,-62"/>
<text xml:space="preserve" text-anchor="middle" x="412.77" y="-40.3" font-family="Arial" font-size="11.00" fill="#fbf6eb">25 &#160;&#160;SetVariable</text>
</g>
<!-- n23&#45;&gt;n25 -->
<g id="edge32" class="edge">
<title>n23&#45;&gt;n25</title>
<path fill="none" stroke="#8b2418" stroke-width="2" d="M426.29,-113.36C418.68,-108.26 411.77,-101.89 407.27,-94 404.01,-88.27 403.2,-81.56 403.68,-74.97"/>
<polygon fill="#8b2418" stroke="#8b2418" stroke-width="2" points="407.08,-75.8 405.41,-65.34 400.19,-74.56 407.08,-75.8"/>
<text xml:space="preserve" text-anchor="middle" x="418.52" y="-84.5" font-family="Arial" font-size="10.00" fill="#8b2418"> true </text>
</g>
<!-- n24&#45;&gt;n35 -->
<g id="edge33" class="edge">
<title>n24&#45;&gt;n35</title>
<path fill="none" stroke="#5a6b3b" stroke-width="1.3" stroke-dasharray="5,2" d="M569.83,-62.69C597.78,-93.47 655.47,-157 688.04,-192.87"/>
<polygon fill="#5a6b3b" stroke="#5a6b3b" stroke-width="1.3" points="685.11,-194.85 694.43,-199.9 690.3,-190.15 685.11,-194.85"/>
<text xml:space="preserve" text-anchor="middle" x="664.6" y="-128.5" font-family="Arial" font-size="10.00" fill="#5a6b3b"> sound </text>
</g>
<!-- n25&#45;&gt;n23 -->
<g id="edge34" class="edge">
<title>n25&#45;&gt;n23</title>
<path fill="none" stroke="#4a3f33" stroke-width="1.3" d="M424.48,-62.67C432.35,-74.55 442.87,-90.42 451.8,-103.88"/>
<polygon fill="#4a3f33" stroke="#4a3f33" stroke-width="1.3" points="448.71,-105.55 457.15,-111.96 454.54,-101.69 448.71,-105.55"/>
<text xml:space="preserve" text-anchor="middle" x="468.31" y="-84.5" font-family="Arial" font-size="10.00" fill="#8b2418"> sonidofijo </text>
</g>
<!-- n26 -->
<g id="node26" class="node">
<title>n26</title>
<path fill="#fbf6eb" stroke="#1a1612" stroke-width="1.5" d="M865.16,-590C865.16,-590 790.38,-590 790.38,-590 784.38,-590 778.38,-584 778.38,-578 778.38,-578 778.38,-566 778.38,-566 778.38,-560 784.38,-554 790.38,-554 790.38,-554 865.16,-554 865.16,-554 871.16,-554 877.16,-560 877.16,-566 877.16,-566 877.16,-578 877.16,-578 877.16,-584 871.16,-590 865.16,-590"/>
<text xml:space="preserve" text-anchor="middle" x="827.77" y="-568.3" font-family="Arial" font-size="11.00" fill="#1a1612">26 &#160;&#160;ReadTilt #1</text>
</g>
<!-- n27 -->
<g id="node27" class="node">
<title>n27</title>
<path fill="#fbf6eb" stroke="#1a1612" stroke-width="1.5" d="M869.29,-502C869.29,-502 786.25,-502 786.25,-502 780.25,-502 774.25,-496 774.25,-490 774.25,-490 774.25,-478 774.25,-478 774.25,-472 780.25,-466 786.25,-466 786.25,-466 869.29,-466 869.29,-466 875.29,-466 881.29,-472 881.29,-478 881.29,-478 881.29,-490 881.29,-490 881.29,-496 875.29,-502 869.29,-502"/>
<text xml:space="preserve" text-anchor="middle" x="827.77" y="-480.3" font-family="Arial" font-size="11.00" fill="#1a1612">27 &#160;&#160;Arithmetic [×]</text>
</g>
<!-- n26&#45;&gt;n27 -->
<g id="edge35" class="edge">
<title>n26&#45;&gt;n27</title>
<path fill="none" stroke="#4a3f33" stroke-width="1.3" d="M827.77,-553.6C827.77,-542.36 827.77,-527.47 827.77,-514.43"/>
<polygon fill="#4a3f33" stroke="#4a3f33" stroke-width="1.3" points="831.27,-514.64 827.77,-504.64 824.27,-514.64 831.27,-514.64"/>
<text xml:space="preserve" text-anchor="middle" x="841.27" y="-524.5" font-family="Arial" font-size="10.00" fill="#8b2418"> tilt_1 </text>
</g>
<!-- n28 -->
<g id="node28" class="node">
<title>n28</title>
<path fill="#fbf6eb" stroke="#1a1612" stroke-width="1.5" d="M868.29,-414C868.29,-414 785.25,-414 785.25,-414 779.25,-414 773.25,-408 773.25,-402 773.25,-402 773.25,-390 773.25,-390 773.25,-384 779.25,-378 785.25,-378 785.25,-378 868.29,-378 868.29,-378 874.29,-378 880.29,-384 880.29,-390 880.29,-390 880.29,-402 880.29,-402 880.29,-408 874.29,-414 868.29,-414"/>
<text xml:space="preserve" text-anchor="middle" x="826.77" y="-392.3" font-family="Arial" font-size="11.00" fill="#1a1612">28 &#160;&#160;Arithmetic [+]</text>
</g>
<!-- n27&#45;&gt;n28 -->
<g id="edge36" class="edge">
<title>n27&#45;&gt;n28</title>
<path fill="none" stroke="#4a3f33" stroke-width="1.3" d="M827.57,-465.6C827.44,-454.36 827.26,-439.47 827.11,-426.43"/>
<polygon fill="#4a3f33" stroke="#4a3f33" stroke-width="1.3" points="830.61,-426.6 827,-416.64 823.61,-426.68 830.61,-426.6"/>
<text xml:space="preserve" text-anchor="middle" x="841.95" y="-436.5" font-family="Arial" font-size="10.00" fill="#8b2418"> value </text>
</g>
<!-- n29 -->
<g id="node29" class="node">
<title>n29</title>
<path fill="#fbf6eb" stroke="#1a1612" stroke-width="1.5" d="M885.66,-326C885.66,-326 765.88,-326 765.88,-326 759.88,-326 753.88,-320 753.88,-314 753.88,-314 753.88,-302 753.88,-302 753.88,-296 759.88,-290 765.88,-290 765.88,-290 885.66,-290 885.66,-290 891.66,-290 897.66,-296 897.66,-302 897.66,-302 897.66,-314 897.66,-314 897.66,-320 891.66,-326 885.66,-326"/>
<text xml:space="preserve" text-anchor="middle" x="825.77" y="-304.3" font-family="Arial" font-size="11.00" fill="#1a1612">29 &#160;&#160;Arithmetic [constrain]</text>
</g>
<!-- n28&#45;&gt;n29 -->
<g id="edge37" class="edge">
<title>n28&#45;&gt;n29</title>
<path fill="none" stroke="#4a3f33" stroke-width="1.3" d="M826.57,-377.6C826.44,-366.36 826.26,-351.47 826.11,-338.43"/>
<polygon fill="#4a3f33" stroke="#4a3f33" stroke-width="1.3" points="829.61,-338.6 826,-328.64 822.61,-338.68 829.61,-338.6"/>
<text xml:space="preserve" text-anchor="middle" x="840.95" y="-348.5" font-family="Arial" font-size="10.00" fill="#8b2418"> value </text>
</g>
<!-- n29&#45;&gt;n33 -->
<g id="edge38" class="edge">
<title>n29&#45;&gt;n33</title>
<path fill="none" stroke="#4a3f33" stroke-width="1.3" d="M866.11,-289.39C896.55,-276.1 938.54,-257.77 971.39,-243.43"/>
<polygon fill="#4a3f33" stroke="#4a3f33" stroke-width="1.3" points="972.58,-246.73 980.34,-239.52 969.78,-240.32 972.58,-246.73"/>
<text xml:space="preserve" text-anchor="middle" x="950.69" y="-260.5" font-family="Arial" font-size="10.00" fill="#8b2418"> value </text>
</g>
<!-- n30 -->
<g id="node30" class="node">
<title>n30</title>
<path fill="#fbf6eb" stroke="#1a1612" stroke-width="1.5" d="M1039.16,-502C1039.16,-502 964.38,-502 964.38,-502 958.38,-502 952.38,-496 952.38,-490 952.38,-490 952.38,-478 952.38,-478 952.38,-472 958.38,-466 964.38,-466 964.38,-466 1039.16,-466 1039.16,-466 1045.16,-466 1051.16,-472 1051.16,-478 1051.16,-478 1051.16,-490 1051.16,-490 1051.16,-496 1045.16,-502 1039.16,-502"/>
<text xml:space="preserve" text-anchor="middle" x="1001.77" y="-480.3" font-family="Arial" font-size="11.00" fill="#1a1612">30 &#160;&#160;ReadTilt #2</text>
</g>
<!-- n31 -->
<g id="node31" class="node">
<title>n31</title>
<path fill="#fbf6eb" stroke="#1a1612" stroke-width="1.5" d="M1043.29,-414C1043.29,-414 960.25,-414 960.25,-414 954.25,-414 948.25,-408 948.25,-402 948.25,-402 948.25,-390 948.25,-390 948.25,-384 954.25,-378 960.25,-378 960.25,-378 1043.29,-378 1043.29,-378 1049.29,-378 1055.29,-384 1055.29,-390 1055.29,-390 1055.29,-402 1055.29,-402 1055.29,-408 1049.29,-414 1043.29,-414"/>
<text xml:space="preserve" text-anchor="middle" x="1001.77" y="-392.3" font-family="Arial" font-size="11.00" fill="#1a1612">31 &#160;&#160;Arithmetic [+]</text>
</g>
<!-- n30&#45;&gt;n31 -->
<g id="edge39" class="edge">
<title>n30&#45;&gt;n31</title>
<path fill="none" stroke="#4a3f33" stroke-width="1.3" d="M1001.77,-465.6C1001.77,-454.36 1001.77,-439.47 1001.77,-426.43"/>
<polygon fill="#4a3f33" stroke="#4a3f33" stroke-width="1.3" points="1005.27,-426.64 1001.77,-416.64 998.27,-426.64 1005.27,-426.64"/>
<text xml:space="preserve" text-anchor="middle" x="1015.27" y="-436.5" font-family="Arial" font-size="10.00" fill="#8b2418"> tilt_2 </text>
</g>
<!-- n32 -->
<g id="node32" class="node">
<title>n32</title>
<path fill="#fbf6eb" stroke="#1a1612" stroke-width="1.5" d="M1061.66,-326C1061.66,-326 941.88,-326 941.88,-326 935.88,-326 929.88,-320 929.88,-314 929.88,-314 929.88,-302 929.88,-302 929.88,-296 935.88,-290 941.88,-290 941.88,-290 1061.66,-290 1061.66,-290 1067.66,-290 1073.66,-296 1073.66,-302 1073.66,-302 1073.66,-314 1073.66,-314 1073.66,-320 1067.66,-326 1061.66,-326"/>
<text xml:space="preserve" text-anchor="middle" x="1001.77" y="-304.3" font-family="Arial" font-size="11.00" fill="#1a1612">32 &#160;&#160;Arithmetic [constrain]</text>
</g>
<!-- n31&#45;&gt;n32 -->
<g id="edge40" class="edge">
<title>n31&#45;&gt;n32</title>
<path fill="none" stroke="#4a3f33" stroke-width="1.3" d="M1001.77,-377.6C1001.77,-366.36 1001.77,-351.47 1001.77,-338.43"/>
<polygon fill="#4a3f33" stroke="#4a3f33" stroke-width="1.3" points="1005.27,-338.64 1001.77,-328.64 998.27,-338.64 1005.27,-338.64"/>
<text xml:space="preserve" text-anchor="middle" x="1016.39" y="-348.5" font-family="Arial" font-size="10.00" fill="#8b2418"> value </text>
</g>
<!-- n32&#45;&gt;n33 -->
<g id="edge41" class="edge">
<title>n32&#45;&gt;n33</title>
<path fill="none" stroke="#4a3f33" stroke-width="1.3" d="M1006.02,-289.6C1008.79,-278.25 1012.48,-263.16 1015.68,-250.02"/>
<polygon fill="#4a3f33" stroke="#4a3f33" stroke-width="1.3" points="1019.02,-251.13 1017.99,-240.58 1012.22,-249.47 1019.02,-251.13"/>
<text xml:space="preserve" text-anchor="middle" x="1028.15" y="-260.5" font-family="Arial" font-size="10.00" fill="#8b2418"> value </text>
</g>
<!-- n34&#45;&gt;n23 -->
<g id="edge42" class="edge">
<title>n34&#45;&gt;n23</title>
<path fill="none" stroke="#4a3f33" stroke-width="1.3" d="M552.47,-201.39C537.33,-188.87 516.78,-171.87 499.95,-157.95"/>
<polygon fill="#4a3f33" stroke="#4a3f33" stroke-width="1.3" points="502.49,-155.52 492.55,-151.84 498.03,-160.91 502.49,-155.52"/>
<text xml:space="preserve" text-anchor="middle" x="551.62" y="-172.5" font-family="Arial" font-size="10.00" fill="#8b2418"> sonidofijo </text>
</g>
<!-- n35&#45;&gt;n37 -->
<g id="edge43" class="edge">
<title>n35&#45;&gt;n37</title>
<path fill="none" stroke="#5a6b3b" stroke-width="1.3" stroke-dasharray="5,2" d="M663,-238.68C615.31,-254.61 540.59,-273.37 475.64,-262.67 451.7,-258.72 426.19,-250.81 404.43,-242.87"/>
<polygon fill="#5a6b3b" stroke="#5a6b3b" stroke-width="1.3" points="405.86,-239.67 395.27,-239.42 403.4,-246.22 405.86,-239.67"/>
<text xml:space="preserve" text-anchor="middle" x="491.77" y="-260.5" font-family="Arial" font-size="10.00" fill="#5a6b3b"> sound </text>
</g>
</g>
</svg>
