<?xml version="1.0" encoding="UTF-8" standalone="no"?>
<!DOCTYPE svg PUBLIC "-//W3C//DTD SVG 1.1//EN"
 "http://www.w3.org/Graphics/SVG/1.1/DTD/svg11.dtd">
<!-- Generated by graphviz version 14.1.2 (0)
 -->
<!-- Title: PDG_Protobject Pages: 1 -->
<svg width="1113pt" height="803pt"
 viewBox="0.00 0.00 1113.00 803.00" xmlns="http://www.w3.org/2000/svg" xmlns:xlink="http://www.w3.org/1999/xlink">
<g id="graph0" class="graph" transform="scale(1 1) rotate(0) translate(21.6 781.6)">
<title>PDG_Protobject</title>
<polygon fill="#fbf6eb" stroke="none" points="-21.6,21.6 -21.6,-781.6 1091.12,-781.6 1091.12,21.6 -21.6,21.6"/>
<g id="clust1" class="cluster">
<title>cluster_loop</title>
<path fill="#fbf6eb" stroke="#8b2418" stroke-width="1.8" stroke-dasharray="5,2" d="M161.52,-8C161.52,-8 1049.52,-8 1049.52,-8 1055.52,-8 1061.52,-14 1061.52,-20 1061.52,-20 1061.52,-740 1061.52,-740 1061.52,-746 1055.52,-752 1049.52,-752 1049.52,-752 161.52,-752 161.52,-752 155.52,-752 149.52,-746 149.52,-740 149.52,-740 149.52,-20 149.52,-20 149.52,-14 155.52,-8 161.52,-8"/>
<text xml:space="preserve" text-anchor="start" x="183.39" y="-738.55" font-family="Arial" font-weight="bold" font-size="11.00">loop</text>
<text xml:space="preserve" text-anchor="start" x="157.52" y="-729.45" font-family="Arial" font-size="9.00" fill="#8b2418">alcance de control</text>
</g>
<!-- n1 -->
<g id="node1" class="node">
<title>n1</title>
<path fill="#34495e" stroke="#1a1612" stroke-width="1.5" d="M119.04,-326C119.04,-326 12,-326 12,-326 6,-326 0,-320 0,-314 0,-314 0,-302 0,-302 0,-296 6,-290 12,-290 12,-290 119.04,-290 119.04,-290 125.04,-290 131.04,-296 131.04,-302 131.04,-302 131.04,-314 131.04,-314 131.04,-320 125.04,-326 119.04,-326"/>
<text xml:space="preserve" text-anchor="middle" x="65.52" y="-304.3" font-family="Arial" font-size="11.00" fill="#fbf6eb">1 &#160;&#160;ProgramStartEvent</text>
</g>
<!-- n2 -->
<g id="node2" class="node">
<title>n2</title>
<path fill="#8b2418" stroke="#1a1612" stroke-width="1.5" d="M109.29,-238C109.29,-238 39.75,-238 39.75,-238 33.75,-238 27.75,-232 27.75,-226 27.75,-226 27.75,-214 27.75,-214 27.75,-208 33.75,-202 39.75,-202 39.75,-202 109.29,-202 109.29,-202 115.29,-202 121.29,-208 121.29,-214 121.29,-214 121.29,-226 121.29,-226 121.29,-232 115.29,-238 109.29,-238"/>
<text xml:space="preserve" text-anchor="middle" x="74.52" y="-216.3" font-family="Arial" font-size="11.00" fill="#fbf6eb">2 &#160;&#160;SetVariable</text>
</g>
<!-- n1&#45;&gt;n2 -->
<g id="edge1" class="edge">
<title>n1&#45;&gt;n2</title>
<path fill="none" stroke="#8b2418" stroke-width="2" d="M67.34,-289.6C68.49,-278.6 70.01,-264.08 71.36,-251.24"/>
<polygon fill="#8b2418" stroke="#8b2418" stroke-width="2" points="74.8,-251.99 72.36,-241.68 67.83,-251.26 74.8,-251.99"/>
</g>
<!-- n22 -->
<g id="node22" class="node">
<title>n22</title>
<path fill="#b8843a" stroke="#1a1612" stroke-width="1.5" d="M493.79,-150C493.79,-150 385.25,-150 385.25,-150 379.25,-150 373.25,-144 373.25,-138 373.25,-138 373.25,-126 373.25,-126 373.25,-120 379.25,-114 385.25,-114 385.25,-114 493.79,-114 493.79,-114 499.79,-114 505.79,-120 505.79,-126 505.79,-126 505.79,-138 505.79,-138 505.79,-144 499.79,-150 493.79,-150"/>
<text xml:space="preserve" text-anchor="middle" x="439.52" y="-128.3" font-family="Arial" font-size="11.00" fill="#fbf6eb">22 &#160;&#160;ConditionalBranch</text>
</g>
<!-- n2&#45;&gt;n22 -->
<g id="edge2" class="edge">
<title>n2&#45;&gt;n22</title>
<path fill="none" stroke="#4a3f33" stroke-width="1.3" d="M121.71,-206.89C128.36,-205.23 135.11,-203.56 141.52,-202 215.94,-183.94 301.08,-164.34 361.24,-150.65"/>
<polygon fill="#4a3f33" stroke="#4a3f33" stroke-width="1.3" points="361.66,-154.15 370.64,-148.52 360.11,-147.32 361.66,-154.15"/>
<text xml:space="preserve" text-anchor="middle" x="295.81" y="-172.5" font-family="Arial" font-size="10.00" fill="#8b2418"> sonidofijo </text>
</g>
<!-- n3 -->
<g id="node3" class="node">
<title>n3</title>
<path fill="#fbf6eb" stroke="#1a1612" stroke-width="1.5" d="M275.79,-414C275.79,-414 185.25,-414 185.25,-414 179.25,-414 173.25,-408 173.25,-402 173.25,-402 173.25,-390 173.25,-390 173.25,-384 179.25,-378 185.25,-378 185.25,-378 275.79,-378 275.79,-378 281.79,-378 287.79,-384 287.79,-390 287.79,-390 287.79,-402 287.79,-402 287.79,-408 281.79,-414 275.79,-414"/>
<text xml:space="preserve" text-anchor="middle" x="230.52" y="-392.3" font-family="Arial" font-size="11.00" fill="#1a1612">3 &#160;&#160;ClearDisplay #1</text>
</g>
<!-- n15 -->
<g id="node15" class="node">
<title>n15</title>
<path fill="#b8843a" stroke="#1a1612" stroke-width="1.5" d="M301.79,-326C301.79,-326 193.25,-326 193.25,-326 187.25,-326 181.25,-320 181.25,-314 181.25,-314 181.25,-302 181.25,-302 181.25,-296 187.25,-290 193.25,-290 193.25,-290 301.79,-290 301.79,-290 307.79,-290 313.79,-296 313.79,-302 313.79,-302 313.79,-314 313.79,-314 313.79,-320 307.79,-326 301.79,-326"/>
<text xml:space="preserve" text-anchor="middle" x="247.52" y="-304.3" font-family="Arial" font-size="11.00" fill="#fbf6eb">15 &#160;&#160;ConditionalBranch</text>
</g>
<!-- n3&#45;&gt;n15 -->
<g id="edge3" class="edge">
<title>n3&#45;&gt;n15</title>
<path fill="none" stroke="#8b2418" stroke-width="2" d="M233.96,-377.6C236.13,-366.6 239,-352.08 241.54,-339.24"/>
<polygon fill="#8b2418" stroke="#8b2418" stroke-width="2" points="244.93,-340.13 243.44,-329.64 238.07,-338.77 244.93,-340.13"/>
</g>
<!-- n21 -->
<g id="node21" class="node">
<title>n21</title>
<path fill="#5a6b3b" stroke="#1a1612" stroke-width="1.5" d="M860.79,-238C860.79,-238 782.25,-238 782.25,-238 776.25,-238 770.25,-232 770.25,-226 770.25,-226 770.25,-214 770.25,-214 770.25,-208 776.25,-202 782.25,-202 782.25,-202 860.79,-202 860.79,-202 866.79,-202 872.79,-208 872.79,-214 872.79,-214 872.79,-226 872.79,-226 872.79,-232 866.79,-238 860.79,-238"/>
<text xml:space="preserve" text-anchor="middle" x="821.52" y="-216.3" font-family="Arial" font-size="11.00" fill="#fbf6eb">21 &#160;&#160;PlotPoint #1</text>
</g>
<!-- n3&#45;&gt;n21 -->
<g id="edge4" class="edge">
<title>n3&#45;&gt;n21</title>
<path fill="none" stroke="#5a6b3b" stroke-width="1.3" stroke-dasharray="5,2" d="M251.08,-377.28C262.84,-367.52 278.08,-355.51 292.52,-346 308.13,-335.72 313.17,-335.07 329.52,-326 357.8,-310.31 361.76,-299.2 392.77,-290 464.85,-268.62 663.4,-303.89 730.52,-270 736.72,-266.87 735,-262.21 740.52,-258 747.44,-252.71 755.24,-247.96 763.19,-243.77"/>
<polygon fill="#5a6b3b" stroke="#5a6b3b" stroke-width="1.3" points="764.5,-247.03 771.9,-239.45 761.39,-240.75 764.5,-247.03"/>
<text xml:space="preserve" text-anchor="middle" x="411.14" y="-304.5" font-family="Arial" font-size="10.00" fill="#5a6b3b"> display </text>
</g>
<!-- n4 -->
<g id="node4" class="node">
<title>n4</title>
<path fill="#fbf6eb" stroke="#1a1612" stroke-width="1.5" d="M257.91,-678C257.91,-678 189.12,-678 189.12,-678 183.12,-678 177.12,-672 177.12,-666 177.12,-666 177.12,-654 177.12,-654 177.12,-648 183.12,-642 189.12,-642 189.12,-642 257.91,-642 257.91,-642 263.91,-642 269.91,-648 269.91,-654 269.91,-654 269.91,-666 269.91,-666 269.91,-672 263.91,-678 257.91,-678"/>
<text xml:space="preserve" text-anchor="middle" x="223.52" y="-656.3" font-family="Arial" font-size="11.00" fill="#1a1612">4 &#160;&#160;ReadTilt #1</text>
</g>
<!-- n5 -->
<g id="node5" class="node">
<title>n5</title>
<path fill="#fbf6eb" stroke="#1a1612" stroke-width="1.5" d="M267.66,-590C267.66,-590 179.38,-590 179.38,-590 173.38,-590 167.38,-584 167.38,-578 167.38,-578 167.38,-566 167.38,-566 167.38,-560 173.38,-554 179.38,-554 179.38,-554 267.66,-554 267.66,-554 273.66,-554 279.66,-560 279.66,-566 279.66,-566 279.66,-578 279.66,-578 279.66,-584 273.66,-590 267.66,-590"/>
<text xml:space="preserve" text-anchor="middle" x="223.52" y="-568.3" font-family="Arial" font-size="11.00" fill="#1a1612">5 &#160;&#160;Comparison [&gt;]</text>
</g>
<!-- n4&#45;&gt;n5 -->
<g id="edge5" class="edge">
<title>n4&#45;&gt;n5</title>
<path fill="none" stroke="#4a3f33" stroke-width="1.3" d="M223.52,-641.6C223.52,-630.36 223.52,-615.47 223.52,-602.43"/>
<polygon fill="#4a3f33" stroke="#4a3f33" stroke-width="1.3" points="227.02,-602.64 223.52,-592.64 220.02,-602.64 227.02,-602.64"/>
<text xml:space="preserve" text-anchor="middle" x="237.02" y="-612.5" font-family="Arial" font-size="10.00" fill="#8b2418"> tilt_1 </text>
</g>
<!-- n8 -->
<g id="node8" class="node">
<title>n8</title>
<path fill="#fbf6eb" stroke="#1a1612" stroke-width="1.5" d="M401.16,-502C401.16,-502 333.88,-502 333.88,-502 327.88,-502 321.88,-496 321.88,-490 321.88,-490 321.88,-478 321.88,-478 321.88,-472 327.88,-466 333.88,-466 333.88,-466 401.16,-466 401.16,-466 407.16,-466 413.16,-472 413.16,-478 413.16,-478 413.16,-490 413.16,-490 413.16,-496 407.16,-502 401.16,-502"/>
<text xml:space="preserve" text-anchor="middle" x="367.52" y="-480.3" font-family="Arial" font-size="11.00" fill="#1a1612">8 &#160;&#160;LogicalAnd</text>
</g>
<!-- n5&#45;&gt;n8 -->
<g id="edge6" class="edge">
<title>n5&#45;&gt;n8</title>
<path fill="none" stroke="#4a3f33" stroke-width="1.3" d="M253.01,-553.39C274.65,-540.46 304.29,-522.76 327.99,-508.61"/>
<polygon fill="#4a3f33" stroke="#4a3f33" stroke-width="1.3" points="329.59,-511.73 336.38,-503.6 326,-505.72 329.59,-511.73"/>
<text xml:space="preserve" text-anchor="middle" x="318.77" y="-524.5" font-family="Arial" font-size="10.00" fill="#8b2418"> value </text>
</g>
<!-- n6 -->
<g id="node6" class="node">
<title>n6</title>
<path fill="#fbf6eb" stroke="#1a1612" stroke-width="1.5" d="M401.91,-678C401.91,-678 333.12,-678 333.12,-678 327.12,-678 321.12,-672 321.12,-666 321.12,-666 321.12,-654 321.12,-654 321.12,-648 327.12,-642 333.12,-642 333.12,-642 401.91,-642 401.91,-642 407.91,-642 413.91,-648 413.91,-654 413.91,-654 413.91,-666 413.91,-666 413.91,-672 407.91,-678 401.91,-678"/>
<text xml:space="preserve" text-anchor="middle" x="367.52" y="-656.3" font-family="Arial" font-size="11.00" fill="#1a1612">6 &#160;&#160;ReadTilt #1</text>
</g>
<!-- n7 -->
<g id="node7" class="node">
<title>n7</title>
<path fill="#fbf6eb" stroke="#1a1612" stroke-width="1.5" d="M411.66,-590C411.66,-590 323.38,-590 323.38,-590 317.38,-590 311.38,-584 311.38,-578 311.38,-578 311.38,-566 311.38,-566 311.38,-560 317.38,-554 323.38,-554 323.38,-554 411.66,-554 411.66,-554 417.66,-554 423.66,-560 423.66,-566 423.66,-566 423.66,-578 423.66,-578 423.66,-584 417.66,-590 411.66,-590"/>
<text xml:space="preserve" text-anchor="middle" x="367.52" y="-568.3" font-family="Arial" font-size="11.00" fill="#1a1612">7 &#160;&#160;Comparison [&lt;]</text>
</g>
<!-- n6&#45;&gt;n7 -->
<g id="edge7" class="edge">
<title>n6&#45;&gt;n7</title>
<path fill="none" stroke="#4a3f33" stroke-width="1.3" d="M367.52,-641.6C367.52,-630.36 367.52,-615.47 367.52,-602.43"/>
<polygon fill="#4a3f33" stroke="#4a3f33" stroke-width="1.3" points="371.02,-602.64 367.52,-592.64 364.02,-602.64 371.02,-602.64"/>
<text xml:space="preserve" text-anchor="middle" x="381.02" y="-612.5" font-family="Arial" font-size="10.00" fill="#8b2418"> tilt_1 </text>
</g>
<!-- n7&#45;&gt;n8 -->
<g id="edge8" class="edge">
<title>n7&#45;&gt;n8</title>
<path fill="none" stroke="#4a3f33" stroke-width="1.3" d="M367.52,-553.6C367.52,-542.36 367.52,-527.47 367.52,-514.43"/>
<polygon fill="#4a3f33" stroke="#4a3f33" stroke-width="1.3" points="371.02,-514.64 367.52,-504.64 364.02,-514.64 371.02,-514.64"/>
<text xml:space="preserve" text-anchor="middle" x="382.14" y="-524.5" font-family="Arial" font-size="10.00" fill="#8b2418"> value </text>
</g>
<!-- n14 -->
<g id="node14" class="node">
<title>n14</title>
<path fill="#fbf6eb" stroke="#1a1612" stroke-width="1.5" d="M405.16,-414C405.16,-414 331.88,-414 331.88,-414 325.88,-414 319.88,-408 319.88,-402 319.88,-402 319.88,-390 319.88,-390 319.88,-384 325.88,-378 331.88,-378 331.88,-378 405.16,-378 405.16,-378 411.16,-378 417.16,-384 417.16,-390 417.16,-390 417.16,-402 417.16,-402 417.16,-408 411.16,-414 405.16,-414"/>
<text xml:space="preserve" text-anchor="middle" x="368.52" y="-392.3" font-family="Arial" font-size="11.00" fill="#1a1612">14 &#160;&#160;LogicalAnd</text>
</g>
<!-- n8&#45;&gt;n14 -->
<g id="edge9" class="edge">
<title>n8&#45;&gt;n14</title>
<path fill="none" stroke="#4a3f33" stroke-width="1.3" d="M367.72,-465.6C367.85,-454.36 368.03,-439.47 368.18,-426.43"/>
<polygon fill="#4a3f33" stroke="#4a3f33" stroke-width="1.3" points="371.68,-426.68 368.29,-416.64 364.68,-426.6 371.68,-426.68"/>
<text xml:space="preserve" text-anchor="middle" x="382.7" y="-436.5" font-family="Arial" font-size="10.00" fill="#8b2418"> value </text>
</g>
<!-- n9 -->
<g id="node9" class="node">
<title>n9</title>
<path fill="#fbf6eb" stroke="#1a1612" stroke-width="1.5" d="M548.91,-678C548.91,-678 480.12,-678 480.12,-678 474.12,-678 468.12,-672 468.12,-666 468.12,-666 468.12,-654 468.12,-654 468.12,-648 474.12,-642 480.12,-642 480.12,-642 548.91,-642 548.91,-642 554.91,-642 560.91,-648 560.91,-654 560.91,-654 560.91,-666 560.91,-666 560.91,-672 554.91,-678 548.91,-678"/>
<text xml:space="preserve" text-anchor="middle" x="514.52" y="-656.3" font-family="Arial" font-size="11.00" fill="#1a1612">9 &#160;&#160;ReadTilt #2</text>
</g>
<!-- n10 -->
<g id="node10" class="node">
<title>n10</title>
<path fill="#fbf6eb" stroke="#1a1612" stroke-width="1.5" d="M561.66,-590C561.66,-590 467.38,-590 467.38,-590 461.38,-590 455.38,-584 455.38,-578 455.38,-578 455.38,-566 455.38,-566 455.38,-560 461.38,-554 467.38,-554 467.38,-554 561.66,-554 561.66,-554 567.66,-554 573.66,-560 573.66,-566 573.66,-566 573.66,-578 573.66,-578 573.66,-584 567.66,-590 561.66,-590"/>
<text xml:space="preserve" text-anchor="middle" x="514.52" y="-568.3" font-family="Arial" font-size="11.00" fill="#1a1612">10 &#160;&#160;Comparison [&gt;]</text>
</g>
<!-- n9&#45;&gt;n10 -->
<g id="edge10" class="edge">
<title>n9&#45;&gt;n10</title>
<path fill="none" stroke="#4a3f33" stroke-width="1.3" d="M514.52,-641.6C514.52,-630.36 514.52,-615.47 514.52,-602.43"/>
<polygon fill="#4a3f33" stroke="#4a3f33" stroke-width="1.3" points="518.02,-602.64 514.52,-592.64 511.02,-602.64 518.02,-602.64"/>
<text xml:space="preserve" text-anchor="middle" x="528.02" y="-612.5" font-family="Arial" font-size="10.00" fill="#8b2418"> tilt_2 </text>
</g>
<!-- n13 -->
<g id="node13" class="node">
<title>n13</title>
<path fill="#fbf6eb" stroke="#1a1612" stroke-width="1.5" d="M536.16,-502C536.16,-502 462.88,-502 462.88,-502 456.88,-502 450.88,-496 450.88,-490 450.88,-490 450.88,-478 450.88,-478 450.88,-472 456.88,-466 462.88,-466 462.88,-466 536.16,-466 536.16,-466 542.16,-466 548.16,-472 548.16,-478 548.16,-478 548.16,-490 548.16,-490 548.16,-496 542.16,-502 536.16,-502"/>
<text xml:space="preserve" text-anchor="middle" x="499.52" y="-480.3" font-family="Arial" font-size="11.00" fill="#1a1612">13 &#160;&#160;LogicalAnd</text>
</g>
<!-- n10&#45;&gt;n13 -->
<g id="edge11" class="edge">
<title>n10&#45;&gt;n13</title>
<path fill="none" stroke="#4a3f33" stroke-width="1.3" d="M511.48,-553.6C509.53,-542.36 506.93,-527.47 504.65,-514.43"/>
<polygon fill="#4a3f33" stroke="#4a3f33" stroke-width="1.3" points="508.11,-513.86 502.94,-504.61 501.21,-515.06 508.11,-513.86"/>
<text xml:space="preserve" text-anchor="middle" x="522.54" y="-524.5" font-family="Arial" font-size="10.00" fill="#8b2418"> value </text>
</g>
<!-- n11 -->
<g id="node11" class="node">
<title>n11</title>
<path fill="#fbf6eb" stroke="#1a1612" stroke-width="1.5" d="M701.54,-678C701.54,-678 627.5,-678 627.5,-678 621.5,-678 615.5,-672 615.5,-666 615.5,-666 615.5,-654 615.5,-654 615.5,-648 621.5,-642 627.5,-642 627.5,-642 701.54,-642 701.54,-642 707.54,-642 713.54,-648 713.54,-654 713.54,-654 713.54,-666 713.54,-666 713.54,-672 707.54,-678 701.54,-678"/>
<text xml:space="preserve" text-anchor="middle" x="664.52" y="-656.3" font-family="Arial" font-size="11.00" fill="#1a1612">11 &#160;&#160;ReadTilt #2</text>
</g>
<!-- n12 -->
<g id="node12" class="node">
<title>n12</title>
<path fill="#fbf6eb" stroke="#1a1612" stroke-width="1.5" d="M711.66,-590C711.66,-590 617.38,-590 617.38,-590 611.38,-590 605.38,-584 605.38,-578 605.38,-578 605.38,-566 605.38,-566 605.38,-560 611.38,-554 617.38,-554 617.38,-554 711.66,-554 711.66,-554 717.66,-554 723.66,-560 723.66,-566 723.66,-566 723.66,-578 723.66,-578 723.66,-584 717.66,-590 711.66,-590"/>
<text xml:space="preserve" text-anchor="middle" x="664.52" y="-568.3" font-family="Arial" font-size="11.00" fill="#1a1612">12 &#160;&#160;Comparison [&lt;]</text>
</g>
<!-- n11&#45;&gt;n12 -->
<g id="edge12" class="edge">
<title>n11&#45;&gt;n12</title>
<path fill="none" stroke="#4a3f33" stroke-width="1.3" d="M664.52,-641.6C664.52,-630.36 664.52,-615.47 664.52,-602.43"/>
<polygon fill="#4a3f33" stroke="#4a3f33" stroke-width="1.3" points="668.02,-602.64 664.52,-592.64 661.02,-602.64 668.02,-602.64"/>
<text xml:space="preserve" text-anchor="middle" x="678.02" y="-612.5" font-family="Arial" font-size="10.00" fill="#8b2418"> tilt_2 </text>
</g>
<!-- n12&#45;&gt;n13 -->
<g id="edge13" class="edge">
<title>n12&#45;&gt;n13</title>
<path fill="none" stroke="#4a3f33" stroke-width="1.3" d="M630.73,-553.39C605.68,-540.33 571.29,-522.41 544,-508.18"/>
<polygon fill="#4a3f33" stroke="#4a3f33" stroke-width="1.3" points="545.78,-505.16 535.29,-503.64 542.54,-511.37 545.78,-505.16"/>
<text xml:space="preserve" text-anchor="middle" x="606.52" y="-524.5" font-family="Arial" font-size="10.00" fill="#8b2418"> value </text>
</g>
<!-- n13&#45;&gt;n14 -->
<g id="edge14" class="edge">
<title>n13&#45;&gt;n14</title>
<path fill="none" stroke="#4a3f33" stroke-width="1.3" d="M472.69,-465.39C453.18,-452.58 426.53,-435.08 405.07,-420.99"/>
<polygon fill="#4a3f33" stroke="#4a3f33" stroke-width="1.3" points="407.24,-418.23 396.95,-415.67 403.39,-424.08 407.24,-418.23"/>
<text xml:space="preserve" text-anchor="middle" x="456.49" y="-436.5" font-family="Arial" font-size="10.00" fill="#8b2418"> value </text>
</g>
<!-- n14&#45;&gt;n15 -->
<g id="edge15" class="edge">
<title>n14&#45;&gt;n15</title>
<path fill="none" stroke="#4a3f33" stroke-width="1.3" d="M343.74,-377.39C325.88,-364.69 301.54,-347.4 281.82,-333.38"/>
<polygon fill="#4a3f33" stroke="#4a3f33" stroke-width="1.3" points="284.05,-330.67 273.87,-327.73 279.99,-336.37 284.05,-330.67"/>
<text xml:space="preserve" text-anchor="middle" x="337.76" y="-348.5" font-family="Arial" font-size="10.00" fill="#8b2418"> condition </text>
</g>
<!-- n15&#45;&gt;n21 -->
<g id="edge16" class="edge">
<title>n15&#45;&gt;n21</title>
<path fill="none" stroke="#8b2418" stroke-width="2" d="M314.23,-293.54C322.06,-292.21 329.95,-290.99 337.52,-290 455.5,-274.49 487.9,-293.68 604.52,-270 620.84,-266.69 623.88,-262.11 640.02,-258 690.08,-245.25 704,-248.8 754.52,-238 755.44,-237.8 756.37,-237.6 757.31,-237.4"/>
<polygon fill="#8b2418" stroke="#8b2418" stroke-width="2" points="757.75,-240.89 766.72,-235.24 756.19,-234.06 757.75,-240.89"/>
<text xml:space="preserve" text-anchor="middle" x="651.27" y="-260.5" font-family="Arial" font-size="10.00" fill="#8b2418"> true </text>
</g>
<!-- n15&#45;&gt;n22 -->
<g id="edge17" class="edge">
<title>n15&#45;&gt;n22</title>
<path fill="none" stroke="#8b2418" stroke-width="2" d="M306.93,-289.27C335.45,-278.3 368.36,-261.69 391.52,-238 411.9,-217.15 424.62,-186.1 431.8,-163.17"/>
<polygon fill="#8b2418" stroke="#8b2418" stroke-width="2" points="435.14,-164.23 434.56,-153.65 428.41,-162.28 435.14,-164.23"/>
<text xml:space="preserve" text-anchor="middle" x="427.41" y="-216.5" font-family="Arial" font-size="10.00" fill="#8b2418"> true </text>
</g>
<!-- n32 -->
<g id="node32" class="node">
<title>n32</title>
<path fill="#5a6b3b" stroke="#1a1612" stroke-width="1.5" d="M1031.79,-238C1031.79,-238 953.25,-238 953.25,-238 947.25,-238 941.25,-232 941.25,-226 941.25,-226 941.25,-214 941.25,-214 941.25,-208 947.25,-202 953.25,-202 953.25,-202 1031.79,-202 1031.79,-202 1037.79,-202 1043.79,-208 1043.79,-214 1043.79,-214 1043.79,-226 1043.79,-226 1043.79,-232 1037.79,-238 1031.79,-238"/>
<text xml:space="preserve" text-anchor="middle" x="992.52" y="-216.3" font-family="Arial" font-size="11.00" fill="#fbf6eb">32 &#160;&#160;PlotPoint #1</text>
</g>
<!-- n15&#45;&gt;n32 -->
<g id="edge18" class="edge">
<title>n15&#45;&gt;n32</title>
<path fill="none" stroke="#8b2418" stroke-width="2" d="M314.21,-293.43C322.05,-292.13 329.95,-290.94 337.52,-290 482.89,-271.92 522.7,-297.84 666.52,-270 683.08,-266.79 686.04,-261.59 702.52,-258 783.76,-240.31 806.13,-249.16 888.52,-238 901.3,-236.27 914.93,-234.2 927.97,-232.12"/>
<polygon fill="#8b2418" stroke="#8b2418" stroke-width="2" points="928.47,-235.58 937.77,-230.52 927.34,-228.67 928.47,-235.58"/>
<text xml:space="preserve" text-anchor="middle" x="716.02" y="-260.5" font-family="Arial" font-size="10.00" fill="#8b2418"> false </text>
</g>
<!-- n33 -->
<g id="node33" class="node">
<title>n33</title>
<path fill="#8b2418" stroke="#1a1612" stroke-width="1.5" d="M581.29,-238C581.29,-238 505.75,-238 505.75,-238 499.75,-238 493.75,-232 493.75,-226 493.75,-226 493.75,-214 493.75,-214 493.75,-208 499.75,-202 505.75,-202 505.75,-202 581.29,-202 581.29,-202 587.29,-202 593.29,-208 593.29,-214 593.29,-214 593.29,-226 593.29,-226 593.29,-232 587.29,-238 581.29,-238"/>
<text xml:space="preserve" text-anchor="middle" x="543.52" y="-216.3" font-family="Arial" font-size="11.00" fill="#fbf6eb">33 &#160;&#160;SetVariable</text>
</g>
<!-- n15&#45;&gt;n33 -->
<g id="edge19" class="edge">
<title>n15&#45;&gt;n33</title>
<path fill="none" stroke="#8b2418" stroke-width="2" d="M314.3,-294.03C322.12,-292.62 329.99,-291.24 337.52,-290 399.97,-279.68 420.06,-294.26 478.52,-270 491.87,-264.46 504.93,-255.52 515.8,-246.78"/>
<polygon fill="#8b2418" stroke="#8b2418" stroke-width="2" points="517.81,-249.68 523.18,-240.55 513.29,-244.33 517.81,-249.68"/>
<text xml:space="preserve" text-anchor="middle" x="513.49" y="-260.5" font-family="Arial" font-size="10.00" fill="#8b2418"> false </text>
</g>
<!-- n34 -->
<g id="node34" class="node">
<title>n34</title>
<path fill="#fbf6eb" stroke="#1a1612" stroke-width="1.5" d="M726.04,-238C726.04,-238 637,-238 637,-238 631,-238 625,-232 625,-226 625,-226 625,-214 625,-214 625,-208 631,-202 637,-202 637,-202 726.04,-202 726.04,-202 732.04,-202 738.04,-208 738.04,-214 738.04,-214 738.04,-226 738.04,-226 738.04,-232 732.04,-238 726.04,-238"/>
<text xml:space="preserve" text-anchor="middle" x="681.52" y="-216.3" font-family="Arial" font-size="11.00" fill="#1a1612">34 &#160;&#160;StopSound #1</text>
</g>
<!-- n15&#45;&gt;n34 -->
<g id="edge20" class="edge">
<title>n15&#45;&gt;n34</title>
<path fill="none" stroke="#8b2418" stroke-width="2" d="M314.25,-293.74C322.08,-292.38 329.97,-291.09 337.52,-290 424.62,-277.38 448.47,-288.47 534.52,-270 543.26,-268.12 582.58,-254.98 618.36,-242.77"/>
<polygon fill="#8b2418" stroke="#8b2418" stroke-width="2" points="619.11,-246.22 627.44,-239.67 616.84,-239.59 619.11,-246.22"/>
<text xml:space="preserve" text-anchor="middle" x="583.47" y="-260.5" font-family="Arial" font-size="10.00" fill="#8b2418"> false </text>
</g>
<!-- n35 -->
<g id="node35" class="node">
<title>n35</title>
<path fill="#4a3f33" stroke="#1a1612" stroke-width="1.5" d="M227.41,-238C227.41,-238 179.62,-238 179.62,-238 173.62,-238 167.62,-232 167.62,-226 167.62,-226 167.62,-214 167.62,-214 167.62,-208 173.62,-202 179.62,-202 179.62,-202 227.41,-202 227.41,-202 233.41,-202 239.41,-208 239.41,-214 239.41,-214 239.41,-226 239.41,-226 239.41,-232 233.41,-238 227.41,-238"/>
<text xml:space="preserve" text-anchor="middle" x="203.52" y="-216.3" font-family="Arial" font-size="11.00" fill="#fbf6eb">35 &#160;&#160;Delay</text>
</g>
<!-- n15&#45;&gt;n35 -->
<g id="edge21" class="edge">
<title>n15&#45;&gt;n35</title>
<path fill="none" stroke="#8b2418" stroke-width="2" d="M238.43,-289.31C235.28,-283.2 231.74,-276.3 228.52,-270 225.2,-263.52 221.64,-256.55 218.28,-249.96"/>
<polygon fill="#8b2418" stroke="#8b2418" stroke-width="2" points="221.57,-248.71 213.91,-241.39 215.34,-251.89 221.57,-248.71"/>
<text xml:space="preserve" text-anchor="middle" x="242.02" y="-260.5" font-family="Arial" font-size="10.00" fill="#8b2418"> false </text>
</g>
<!-- n36 -->
<g id="node36" class="node">
<title>n36</title>
<path fill="#fbf6eb" stroke="#1a1612" stroke-width="1.5" d="M363.16,-238C363.16,-238 283.88,-238 283.88,-238 277.88,-238 271.88,-232 271.88,-226 271.88,-226 271.88,-214 271.88,-214 271.88,-208 277.88,-202 283.88,-202 283.88,-202 363.16,-202 363.16,-202 369.16,-202 375.16,-208 375.16,-214 375.16,-214 375.16,-226 375.16,-226 375.16,-232 369.16,-238 363.16,-238"/>
<text xml:space="preserve" text-anchor="middle" x="323.52" y="-216.3" font-family="Arial" font-size="11.00" fill="#1a1612">36 &#160;&#160;PlayTone #1</text>
</g>
<!-- n15&#45;&gt;n36 -->
<g id="edge22" class="edge">
<title>n15&#45;&gt;n36</title>
<path fill="none" stroke="#8b2418" stroke-width="2" d="M262.9,-289.6C273.34,-277.78 287.36,-261.92 299.28,-248.43"/>
<polygon fill="#8b2418" stroke="#8b2418" stroke-width="2" points="301.9,-250.75 305.9,-240.94 296.65,-246.12 301.9,-250.75"/>
<text xml:space="preserve" text-anchor="middle" x="303.57" y="-260.5" font-family="Arial" font-size="10.00" fill="#8b2418"> false </text>
</g>
<!-- n16 -->
<g id="node16" class="node">
<title>n16</title>
<path fill="#fbf6eb" stroke="#1a1612" stroke-width="1.5" d="M666.91,-502C666.91,-502 592.12,-502 592.12,-502 586.12,-502 580.12,-496 580.12,-490 580.12,-490 580.12,-478 580.12,-478 580.12,-472 586.12,-466 592.12,-466 592.12,-466 666.91,-466 666.91,-466 672.91,-466 678.91,-472 678.91,-478 678.91,-478 678.91,-490 678.91,-490 678.91,-496 672.91,-502 666.91,-502"/>
<text xml:space="preserve" text-anchor="middle" x="629.52" y="-480.3" font-family="Arial" font-size="11.00" fill="#1a1612">16 &#160;&#160;ReadTilt #1</text>
</g>
<!-- n17 -->
<g id="node17" class="node">
<title>n17</title>
<path fill="#fbf6eb" stroke="#1a1612" stroke-width="1.5" d="M545.04,-414C545.04,-414 462,-414 462,-414 456,-414 450,-408 450,-402 450,-402 450,-390 450,-390 450,-384 456,-378 462,-378 462,-378 545.04,-378 545.04,-378 551.04,-378 557.04,-384 557.04,-390 557.04,-390 557.04,-402 557.04,-402 557.04,-408 551.04,-414 545.04,-414"/>
<text xml:space="preserve" text-anchor="middle" x="503.52" y="-392.3" font-family="Arial" font-size="11.00" fill="#1a1612">17 &#160;&#160;Arithmetic [×]</text>
</g>
<!-- n16&#45;&gt;n17 -->
<g id="edge23" class="edge">
<title>n16&#45;&gt;n17</title>
<path fill="none" stroke="#4a3f33" stroke-width="1.3" d="M603.72,-465.39C585.03,-452.64 559.54,-435.24 538.95,-421.18"/>
<polygon fill="#4a3f33" stroke="#4a3f33" stroke-width="1.3" points="541.15,-418.44 530.91,-415.7 537.2,-424.22 541.15,-418.44"/>
<text xml:space="preserve" text-anchor="middle" x="587.56" y="-436.5" font-family="Arial" font-size="10.00" fill="#8b2418"> tilt_1 </text>
</g>
<!-- n18 -->
<g id="node18" class="node">
<title>n18</title>
<path fill="#fbf6eb" stroke="#1a1612" stroke-width="1.5" d="M541.04,-326C541.04,-326 458,-326 458,-326 452,-326 446,-320 446,-314 446,-314 446,-302 446,-302 446,-296 452,-290 458,-290 458,-290 541.04,-290 541.04,-290 547.04,-290 553.04,-296 553.04,-302 553.04,-302 553.04,-314 553.04,-314 553.04,-320 547.04,-326 541.04,-326"/>
<text xml:space="preserve" text-anchor="middle" x="499.52" y="-304.3" font-family="Arial" font-size="11.00" fill="#1a1612">18 &#160;&#160;Arithmetic [+]</text>
</g>
<!-- n17&#45;&gt;n18 -->
<g id="edge24" class="edge">
<title>n17&#45;&gt;n18</title>
<path fill="none" stroke="#4a3f33" stroke-width="1.3" d="M502.71,-377.6C502.19,-366.36 501.5,-351.47 500.89,-338.43"/>
<polygon fill="#4a3f33" stroke="#4a3f33" stroke-width="1.3" points="504.39,-338.46 500.43,-328.64 497.4,-338.79 504.39,-338.46"/>
<text xml:space="preserve" text-anchor="middle" x="516.38" y="-348.5" font-family="Arial" font-size="10.00" fill="#8b2418"> value </text>
</g>
<!-- n18&#45;&gt;n21 -->
<g id="edge25" class="edge">
<title>n18&#45;&gt;n21</title>
<path fill="none" stroke="#4a3f33" stroke-width="1.3" d="M553.62,-293C558.64,-291.9 563.66,-290.88 568.52,-290 642.94,-276.48 665.79,-294 737.52,-270 755.08,-264.12 773.01,-254.29 787.78,-244.96"/>
<polygon fill="#4a3f33" stroke="#4a3f33" stroke-width="1.3" points="789.34,-248.12 795.8,-239.72 785.51,-242.26 789.34,-248.12"/>
<text xml:space="preserve" text-anchor="middle" x="779.01" y="-260.5" font-family="Arial" font-size="10.00" fill="#8b2418"> value </text>
</g>
<!-- n19 -->
<g id="node19" class="node">
<title>n19</title>
<path fill="#fbf6eb" stroke="#1a1612" stroke-width="1.5" d="M675.91,-414C675.91,-414 601.12,-414 601.12,-414 595.12,-414 589.12,-408 589.12,-402 589.12,-402 589.12,-390 589.12,-390 589.12,-384 595.12,-378 601.12,-378 601.12,-378 675.91,-378 675.91,-378 681.91,-378 687.91,-384 687.91,-390 687.91,-390 687.91,-402 687.91,-402 687.91,-408 681.91,-414 675.91,-414"/>
<text xml:space="preserve" text-anchor="middle" x="638.52" y="-392.3" font-family="Arial" font-size="11.00" fill="#1a1612">19 &#160;&#160;ReadTilt #2</text>
</g>
<!-- n20 -->
<g id="node20" class="node">
<title>n20</title>
<path fill="#fbf6eb" stroke="#1a1612" stroke-width="1.5" d="M680.04,-326C680.04,-326 597,-326 597,-326 591,-326 585,-320 585,-314 585,-314 585,-302 585,-302 585,-296 591,-290 597,-290 597,-290 680.04,-290 680.04,-290 686.04,-290 692.04,-296 692.04,-302 692.04,-302 692.04,-314 692.04,-314 692.04,-320 686.04,-326 680.04,-326"/>
<text xml:space="preserve" text-anchor="middle" x="638.52" y="-304.3" font-family="Arial" font-size="11.00" fill="#1a1612">20 &#160;&#160;Arithmetic [+]</text>
</g>
<!-- n19&#45;&gt;n20 -->
<g id="edge26" class="edge">
<title>n19&#45;&gt;n20</title>
<path fill="none" stroke="#4a3f33" stroke-width="1.3" d="M638.52,-377.6C638.52,-366.36 638.52,-351.47 638.52,-338.43"/>
<polygon fill="#4a3f33" stroke="#4a3f33" stroke-width="1.3" points="642.02,-338.64 638.52,-328.64 635.02,-338.64 642.02,-338.64"/>
<text xml:space="preserve" text-anchor="middle" x="652.02" y="-348.5" font-family="Arial" font-size="10.00" fill="#8b2418"> tilt_2 </text>
</g>
<!-- n20&#45;&gt;n21 -->
<g id="edge27" class="edge">
<title>n20&#45;&gt;n21</title>
<path fill="none" stroke="#4a3f33" stroke-width="1.3" d="M692.72,-293.45C697.71,-292.26 702.71,-291.09 707.52,-290 750.02,-280.34 770.53,-298.48 803.52,-270 809.55,-264.79 813.57,-257.38 816.23,-249.89"/>
<polygon fill="#4a3f33" stroke="#4a3f33" stroke-width="1.3" points="819.6,-250.84 818.89,-240.27 812.86,-248.98 819.6,-250.84"/>
<text xml:space="preserve" text-anchor="middle" x="826.76" y="-260.5" font-family="Arial" font-size="10.00" fill="#8b2418"> value </text>
</g>
<!-- n21&#45;&gt;n32 -->
<g id="edge28" class="edge">
<title>n21&#45;&gt;n32</title>
<path fill="none" stroke="#5a6b3b" stroke-width="1.3" stroke-dasharray="5,2" d="M873.29,-220C890.79,-220 910.53,-220 928.84,-220"/>
<polygon fill="#5a6b3b" stroke="#5a6b3b" stroke-width="1.3" points="928.66,-223.5 938.66,-220 928.66,-216.5 928.66,-223.5"/>
<text xml:space="preserve" text-anchor="middle" x="907.02" y="-225.5" font-family="Arial" font-size="10.00" fill="#5a6b3b"> display </text>
</g>
<!-- n23 -->
<g id="node23" class="node">
<title>n23</title>
<path fill="#fbf6eb" stroke="#1a1612" stroke-width="1.5" d="M563.16,-62C563.16,-62 483.88,-62 483.88,-62 477.88,-62 471.88,-56 471.88,-50 471.88,-50 471.88,-38 471.88,-38 471.88,-32 477.88,-26 483.88,-26 483.88,-26 563.16,-26 563.16,-26 569.16,-26 575.16,-32 575.16,-38 575.16,-38 575.16,-50 575.16,-50 575.16,-56 569.16,-62 563.16,-62"/>
<text xml:space="preserve" text-anchor="middle" x="523.52" y="-40.3" font-family="Arial" font-size="11.00" fill="#1a1612">23 &#160;&#160;PlayTone #1</text>
</g>
<!-- n22&#45;&gt;n23 -->
<g id="edge29" class="edge">
<title>n22&#45;&gt;n23</title>
<path fill="none" stroke="#8b2418" stroke-width="2" d="M456.52,-113.6C468.28,-101.55 484.16,-85.3 497.5,-71.63"/>
<polygon fill="#8b2418" stroke="#8b2418" stroke-width="2" points="499.66,-74.44 504.14,-64.84 494.65,-69.55 499.66,-74.44"/>
<text xml:space="preserve" text-anchor="middle" x="497.8" y="-84.5" font-family="Arial" font-size="10.00" fill="#8b2418"> true </text>
</g>
<!-- n24 -->
<g id="node24" class="node">
<title>n24</title>
<path fill="#8b2418" stroke="#1a1612" stroke-width="1.5" d="M423.29,-62C423.29,-62 347.75,-62 347.75,-62 341.75,-62 335.75,-56 335.75,-50 335.75,-50 335.75,-38 335.75,-38 335.75,-32 341.75,-26 347.75,-26 347.75,-26 423.29,-26 423.29,-26 429.29,-26 435.29,-32 435.29,-38 435.29,-38 435.29,-50 435.29,-50 435.29,-56 429.29,-62 423.29,-62"/>
<text xml:space="preserve" text-anchor="middle" x="385.52" y="-40.3" font-family="Arial" font-size="11.00" fill="#fbf6eb">24 &#160;&#160;SetVariable</text>
</g>
<!-- n22&#45;&gt;n24 -->
<g id="edge30" class="edge">
<title>n22&#45;&gt;n24</title>
<path fill="none" stroke="#8b2418" stroke-width="2" d="M396.04,-113.36C388.43,-108.26 381.52,-101.89 377.02,-94 373.73,-88.22 373.18,-81.49 374.04,-74.9"/>
<polygon fill="#8b2418" stroke="#8b2418" stroke-width="2" points="377.42,-75.79 376.44,-65.24 370.63,-74.1 377.42,-75.79"/>
<text xml:space="preserve" text-anchor="middle" x="388.27" y="-84.5" font-family="Arial" font-size="10.00" fill="#8b2418"> true </text>
</g>
<!-- n23&#45;&gt;n34 -->
<g id="edge31" class="edge">
<title>n23&#45;&gt;n34</title>
<path fill="none" stroke="#5a6b3b" stroke-width="1.3" stroke-dasharray="5,2" d="M539.58,-62.69C567.53,-93.47 625.22,-157 657.79,-192.87"/>
<polygon fill="#5a6b3b" stroke="#5a6b3b" stroke-width="1.3" points="654.86,-194.85 664.18,-199.9 660.05,-190.15 654.86,-194.85"/>
<text xml:space="preserve" text-anchor="middle" x="634.35" y="-128.5" font-family="Arial" font-size="10.00" fill="#5a6b3b"> sound </text>
</g>
<!-- n24&#45;&gt;n22 -->
<g id="edge32" class="edge">
<title>n24&#45;&gt;n22</title>
<path fill="none" stroke="#4a3f33" stroke-width="1.3" d="M396.62,-62.67C404,-74.43 413.84,-90.11 422.24,-103.48"/>
<polygon fill="#4a3f33" stroke="#4a3f33" stroke-width="1.3" points="419.26,-105.32 427.55,-111.93 425.19,-101.6 419.26,-105.32"/>
<text xml:space="preserve" text-anchor="middle" x="439.38" y="-84.5" font-family="Arial" font-size="10.00" fill="#8b2418"> sonidofijo </text>
</g>
<!-- n25 -->
<g id="node25" class="node">
<title>n25</title>
<path fill="#fbf6eb" stroke="#1a1612" stroke-width="1.5" d="M842.91,-590C842.91,-590 768.12,-590 768.12,-590 762.12,-590 756.12,-584 756.12,-578 756.12,-578 756.12,-566 756.12,-566 756.12,-560 762.12,-554 768.12,-554 768.12,-554 842.91,-554 842.91,-554 848.91,-554 854.91,-560 854.91,-566 854.91,-566 854.91,-578 854.91,-578 854.91,-584 848.91,-590 842.91,-590"/>
<text xml:space="preserve" text-anchor="middle" x="805.52" y="-568.3" font-family="Arial" font-size="11.00" fill="#1a1612">25 &#160;&#160;ReadTilt #1</text>
</g>
<!-- n26 -->
<g id="node26" class="node">
<title>n26</title>
<path fill="#fbf6eb" stroke="#1a1612" stroke-width="1.5" d="M846.04,-502C846.04,-502 763,-502 763,-502 757,-502 751,-496 751,-490 751,-490 751,-478 751,-478 751,-472 757,-466 763,-466 763,-466 846.04,-466 846.04,-466 852.04,-466 858.04,-472 858.04,-478 858.04,-478 858.04,-490 858.04,-490 858.04,-496 852.04,-502 846.04,-502"/>
<text xml:space="preserve" text-anchor="middle" x="804.52" y="-480.3" font-family="Arial" font-size="11.00" fill="#1a1612">26 &#160;&#160;Arithmetic [×]</text>
</g>
<!-- n25&#45;&gt;n26 -->
<g id="edge33" class="edge">
<title>n25&#45;&gt;n26</title>
<path fill="none" stroke="#4a3f33" stroke-width="1.3" d="M805.32,-553.6C805.19,-542.36 805.01,-527.47 804.86,-514.43"/>
<polygon fill="#4a3f33" stroke="#4a3f33" stroke-width="1.3" points="808.36,-514.6 804.75,-504.64 801.36,-514.68 808.36,-514.6"/>
<text xml:space="preserve" text-anchor="middle" x="818.58" y="-524.5" font-family="Arial" font-size="10.00" fill="#8b2418"> tilt_1 </text>
</g>
<!-- n27 -->
<g id="node27" class="node">
<title>n27</title>
<path fill="#fbf6eb" stroke="#1a1612" stroke-width="1.5" d="M840.04,-414C840.04,-414 757,-414 757,-414 751,-414 745,-408 745,-402 745,-402 745,-390 745,-390 745,-384 751,-378 757,-378 757,-378 840.04,-378 840.04,-378 846.04,-378 852.04,-384 852.04,-390 852.04,-390 852.04,-402 852.04,-402 852.04,-408 846.04,-414 840.04,-414"/>
<text xml:space="preserve" text-anchor="middle" x="798.52" y="-392.3" font-family="Arial" font-size="11.00" fill="#1a1612">27 &#160;&#160;Arithmetic [+]</text>
</g>
<!-- n26&#45;&gt;n27 -->
<g id="edge34" class="edge">
<title>n26&#45;&gt;n27</title>
<path fill="none" stroke="#4a3f33" stroke-width="1.3" d="M803.31,-465.6C802.52,-454.36 801.48,-439.47 800.57,-426.43"/>
<polygon fill="#4a3f33" stroke="#4a3f33" stroke-width="1.3" points="804.08,-426.37 799.89,-416.64 797.09,-426.85 804.08,-426.37"/>
<text xml:space="preserve" text-anchor="middle" x="816.5" y="-436.5" font-family="Arial" font-size="10.00" fill="#8b2418"> value </text>
</g>
<!-- n28 -->
<g id="node28" class="node">
<title>n28</title>
<path fill="#fbf6eb" stroke="#1a1612" stroke-width="1.5" d="M855.41,-326C855.41,-326 735.62,-326 735.62,-326 729.62,-326 723.62,-320 723.62,-314 723.62,-314 723.62,-302 723.62,-302 723.62,-296 729.62,-290 735.62,-290 735.62,-290 855.41,-290 855.41,-290 861.41,-290 867.41,-296 867.41,-302 867.41,-302 867.41,-314 867.41,-314 867.41,-320 861.41,-326 855.41,-326"/>
<text xml:space="preserve" text-anchor="middle" x="795.52" y="-304.3" font-family="Arial" font-size="11.00" fill="#1a1612">28 &#160;&#160;Arithmetic [constrain]</text>
</g>
<!-- n27&#45;&gt;n28 -->
<g id="edge35" class="edge">
<title>n27&#45;&gt;n28</title>
<path fill="none" stroke="#4a3f33" stroke-width="1.3" d="M797.91,-377.6C797.52,-366.36 797,-351.47 796.55,-338.43"/>
<polygon fill="#4a3f33" stroke="#4a3f33" stroke-width="1.3" points="800.05,-338.51 796.21,-328.64 793.06,-338.76 800.05,-338.51"/>
<text xml:space="preserve" text-anchor="middle" x="811.82" y="-348.5" font-family="Arial" font-size="10.00" fill="#8b2418"> value </text>
</g>
<!-- n28&#45;&gt;n32 -->
<g id="edge36" class="edge">
<title>n28&#45;&gt;n32</title>
<path fill="none" stroke="#4a3f33" stroke-width="1.3" d="M835.86,-289.39C866.3,-276.1 908.29,-257.77 941.14,-243.43"/>
<polygon fill="#4a3f33" stroke="#4a3f33" stroke-width="1.3" points="942.33,-246.73 950.09,-239.52 939.53,-240.32 942.33,-246.73"/>
<text xml:space="preserve" text-anchor="middle" x="920.44" y="-260.5" font-family="Arial" font-size="10.00" fill="#8b2418"> value </text>
</g>
<!-- n29 -->
<g id="node29" class="node">
<title>n29</title>
<path fill="#fbf6eb" stroke="#1a1612" stroke-width="1.5" d="M1008.91,-502C1008.91,-502 934.12,-502 934.12,-502 928.12,-502 922.12,-496 922.12,-490 922.12,-490 922.12,-478 922.12,-478 922.12,-472 928.12,-466 934.12,-466 934.12,-466 1008.91,-466 1008.91,-466 1014.91,-466 1020.91,-472 1020.91,-478 1020.91,-478 1020.91,-490 1020.91,-490 1020.91,-496 1014.91,-502 1008.91,-502"/>
<text xml:space="preserve" text-anchor="middle" x="971.52" y="-480.3" font-family="Arial" font-size="11.00" fill="#1a1612">29 &#160;&#160;ReadTilt #2</text>
</g>
<!-- n30 -->
<g id="node30" class="node">
<title>n30</title>
<path fill="#fbf6eb" stroke="#1a1612" stroke-width="1.5" d="M1013.04,-414C1013.04,-414 930,-414 930,-414 924,-414 918,-408 918,-402 918,-402 918,-390 918,-390 918,-384 924,-378 930,-378 930,-378 1013.04,-378 1013.04,-378 1019.04,-378 1025.04,-384 1025.04,-390 1025.04,-390 1025.04,-402 1025.04,-402 1025.04,-408 1019.04,-414 1013.04,-414"/>
<text xml:space="preserve" text-anchor="middle" x="971.52" y="-392.3" font-family="Arial" font-size="11.00" fill="#1a1612">30 &#160;&#160;Arithmetic [+]</text>
</g>
<!-- n29&#45;&gt;n30 -->
<g id="edge37" class="edge">
<title>n29&#45;&gt;n30</title>
<path fill="none" stroke="#4a3f33" stroke-width="1.3" d="M971.52,-465.6C971.52,-454.36 971.52,-439.47 971.52,-426.43"/>
<polygon fill="#4a3f33" stroke="#4a3f33" stroke-width="1.3" points="975.02,-426.64 971.52,-416.64 968.02,-426.64 975.02,-426.64"/>
<text xml:space="preserve" text-anchor="middle" x="985.02" y="-436.5" font-family="Arial" font-size="10.00" fill="#8b2418"> tilt_2 </text>
</g>
<!-- n31 -->
<g id="node31" class="node">
<title>n31</title>
<path fill="#fbf6eb" stroke="#1a1612" stroke-width="1.5" d="M1031.41,-326C1031.41,-326 911.62,-326 911.62,-326 905.62,-326 899.62,-320 899.62,-314 899.62,-314 899.62,-302 899.62,-302 899.62,-296 905.62,-290 911.62,-290 911.62,-290 1031.41,-290 1031.41,-290 1037.41,-290 1043.41,-296 1043.41,-302 1043.41,-302 1043.41,-314 1043.41,-314 1043.41,-320 1037.41,-326 1031.41,-326"/>
<text xml:space="preserve" text-anchor="middle" x="971.52" y="-304.3" font-family="Arial" font-size="11.00" fill="#1a1612">31 &#160;&#160;Arithmetic [constrain]</text>
</g>
<!-- n30&#45;&gt;n31 -->
<g id="edge38" class="edge">
<title>n30&#45;&gt;n31</title>
<path fill="none" stroke="#4a3f33" stroke-width="1.3" d="M971.52,-377.6C971.52,-366.36 971.52,-351.47 971.52,-338.43"/>
<polygon fill="#4a3f33" stroke="#4a3f33" stroke-width="1.3" points="975.02,-338.64 971.52,-328.64 968.02,-338.64 975.02,-338.64"/>
<text xml:space="preserve" text-anchor="middle" x="986.14" y="-348.5" font-family="Arial" font-size="10.00" fill="#8b2418"> value </text>
</g>
<!-- n31&#45;&gt;n32 -->
<g id="edge39" class="edge">
<title>n31&#45;&gt;n32</title>
<path fill="none" stroke="#4a3f33" stroke-width="1.3" d="M975.77,-289.6C978.54,-278.25 982.23,-263.16 985.43,-250.02"/>
<polygon fill="#4a3f33" stroke="#4a3f33" stroke-width="1.3" points="988.77,-251.13 987.74,-240.58 981.97,-249.47 988.77,-251.13"/>
<text xml:space="preserve" text-anchor="middle" x="997.9" y="-260.5" font-family="Arial" font-size="10.00" fill="#8b2418"> value </text>
</g>
<!-- n33&#45;&gt;n22 -->
<g id="edge40" class="edge">
<title>n33&#45;&gt;n22</title>
<path fill="none" stroke="#4a3f33" stroke-width="1.3" d="M522.22,-201.39C507.08,-188.87 486.53,-171.87 469.7,-157.95"/>
<polygon fill="#4a3f33" stroke="#4a3f33" stroke-width="1.3" points="472.24,-155.52 462.3,-151.84 467.78,-160.91 472.24,-155.52"/>
<text xml:space="preserve" text-anchor="middle" x="521.37" y="-172.5" font-family="Arial" font-size="10.00" fill="#8b2418"> sonidofijo </text>
</g>
<!-- n34&#45;&gt;n36 -->
<g id="edge41" class="edge">
<title>n34&#45;&gt;n36</title>
<path fill="none" stroke="#5a6b3b" stroke-width="1.3" stroke-dasharray="5,2" d="M633.18,-238.67C585.49,-254.74 510.49,-273.73 445.39,-262.67 422.26,-258.73 397.66,-250.88 376.67,-242.98"/>
<polygon fill="#5a6b3b" stroke="#5a6b3b" stroke-width="1.3" points="378.16,-239.8 367.57,-239.44 375.62,-246.32 378.16,-239.8"/>
<text xml:space="preserve" text-anchor="middle" x="461.52" y="-260.5" font-family="Arial" font-size="10.00" fill="#5a6b3b"> sound </text>
</g>
</g>
</svg>
