<?xml version="1.0" encoding="UTF-8" standalone="no"?>
<!DOCTYPE svg PUBLIC "-//W3C//DTD SVG 1.1//EN"
 "http://www.w3.org/Graphics/SVG/1.1/DTD/svg11.dtd">
<!-- Generated by graphviz version 14.1.2 (0)
 -->
<!-- Title: PDG_MakeCode Pages: 1 -->
<svg width="358pt" height="698pt"
 viewBox="0.00 0.00 358.00 698.00" xmlns="http://www.w3.org/2000/svg" xmlns:xlink="http://www.w3.org/1999/xlink">
<g id="graph0" class="graph" transform="scale(1 1) rotate(0) translate(21.6 676.6)">
<title>PDG_MakeCode</title>
<polygon fill="#fbf6eb" stroke="none" points="-21.6,21.6 -21.6,-676.6 336.6,-676.6 336.6,21.6 -21.6,21.6"/>
<g id="clust1" class="cluster">
<title>cluster_loop</title>
<path fill="#fbf6eb" stroke="#8b2418" stroke-width="1.8" stroke-dasharray="5,2" d="M20,-8C20,-8 295,-8 295,-8 301,-8 307,-14 307,-20 307,-20 307,-635 307,-635 307,-641 301,-647 295,-647 295,-647 20,-647 20,-647 14,-647 8,-641 8,-635 8,-635 8,-20 8,-20 8,-14 14,-8 20,-8"/>
<text xml:space="preserve" text-anchor="start" x="41.88" y="-633.55" font-family="Arial" font-weight="bold" font-size="11.00">loop</text>
<text xml:space="preserve" text-anchor="start" x="16" y="-624.45" font-family="Arial" font-size="9.00" fill="#8b2418">alcance de control</text>
</g>
<!-- n1 -->
<g id="node1" class="node">
<title>n1</title>
<path fill="#5a6b3b" stroke="#1a1612" stroke-width="1.5" d="M123.64,-601C123.64,-601 38.36,-601 38.36,-601 32.36,-601 26.36,-595 26.36,-589 26.36,-589 26.36,-577 26.36,-577 26.36,-571 32.36,-565 38.36,-565 38.36,-565 123.64,-565 123.64,-565 129.64,-565 135.64,-571 135.64,-577 135.64,-577 135.64,-589 135.64,-589 135.64,-595 129.64,-601 123.64,-601"/>
<text xml:space="preserve" text-anchor="middle" x="81" y="-579.3" font-family="Arial" font-size="11.00" fill="#fbf6eb">1 &#160;&#160;DrawImage #1</text>
</g>
<!-- n2 -->
<g id="node2" class="node">
<title>n2</title>
<path fill="#fbf6eb" stroke="#1a1612" stroke-width="1.5" d="M121.14,-524C121.14,-524 38.86,-524 38.86,-524 32.86,-524 26.86,-518 26.86,-512 26.86,-512 26.86,-500 26.86,-500 26.86,-494 32.86,-488 38.86,-488 38.86,-488 121.14,-488 121.14,-488 127.14,-488 133.14,-494 133.14,-500 133.14,-500 133.14,-512 133.14,-512 133.14,-518 127.14,-524 121.14,-524"/>
<text xml:space="preserve" text-anchor="middle" x="80" y="-502.3" font-family="Arial" font-size="11.00" fill="#1a1612">2 &#160;&#160;EmitSound #1</text>
</g>
<!-- n1&#45;&gt;n2 -->
<g id="edge1" class="edge">
<title>n1&#45;&gt;n2</title>
<path fill="none" stroke="#8b2418" stroke-width="2" d="M80.77,-564.6C80.66,-556.52 80.53,-546.67 80.41,-537.42"/>
<polygon fill="#8b2418" stroke="#8b2418" stroke-width="2" points="83.91,-537.54 80.27,-527.59 76.91,-537.63 83.91,-537.54"/>
</g>
<!-- n5 -->
<g id="node5" class="node">
<title>n5</title>
<path fill="#5a6b3b" stroke="#1a1612" stroke-width="1.5" d="M123.64,-293C123.64,-293 38.36,-293 38.36,-293 32.36,-293 26.36,-287 26.36,-281 26.36,-281 26.36,-269 26.36,-269 26.36,-263 32.36,-257 38.36,-257 38.36,-257 123.64,-257 123.64,-257 129.64,-257 135.64,-263 135.64,-269 135.64,-269 135.64,-281 135.64,-281 135.64,-287 129.64,-293 123.64,-293"/>
<text xml:space="preserve" text-anchor="middle" x="81" y="-271.3" font-family="Arial" font-size="11.00" fill="#fbf6eb">5 &#160;&#160;DrawImage #1</text>
</g>
<!-- n1&#45;&gt;n5 -->
<g id="edge2" class="edge">
<title>n1&#45;&gt;n5</title>
<path fill="none" stroke="#5a6b3b" stroke-width="1.3" stroke-dasharray="5,2" d="M111.75,-564.26C125.79,-554.37 141.05,-540.66 149,-524 163.74,-493.1 150.56,-481.23 151,-447 151.65,-396.77 170.63,-379.33 149,-334 142.79,-320.98 132.12,-309.77 121.05,-300.77"/>
<polygon fill="#5a6b3b" stroke="#5a6b3b" stroke-width="1.3" points="123.4,-298.16 113.32,-294.92 119.18,-303.74 123.4,-298.16"/>
<text xml:space="preserve" text-anchor="middle" x="172.87" y="-425.5" font-family="Arial" font-size="10.00" fill="#5a6b3b"> display </text>
</g>
<!-- n3 -->
<g id="node3" class="node">
<title>n3</title>
<path fill="#4a3f33" stroke="#1a1612" stroke-width="1.5" d="M79.89,-447C79.89,-447 38.11,-447 38.11,-447 32.11,-447 26.11,-441 26.11,-435 26.11,-435 26.11,-423 26.11,-423 26.11,-417 32.11,-411 38.11,-411 38.11,-411 79.89,-411 79.89,-411 85.89,-411 91.89,-417 91.89,-423 91.89,-423 91.89,-435 91.89,-435 91.89,-441 85.89,-447 79.89,-447"/>
<text xml:space="preserve" text-anchor="middle" x="59" y="-425.3" font-family="Arial" font-size="11.00" fill="#fbf6eb">3 &#160;&#160;Delay</text>
</g>
<!-- n2&#45;&gt;n3 -->
<g id="edge3" class="edge">
<title>n2&#45;&gt;n3</title>
<path fill="none" stroke="#8b2418" stroke-width="2" d="M73.31,-487.46C71.12,-481.35 68.8,-474.43 67,-468 66.28,-465.41 65.58,-462.71 64.93,-459.99"/>
<polygon fill="#8b2418" stroke="#8b2418" stroke-width="2" points="68.41,-459.49 62.84,-450.48 61.57,-460.99 68.41,-459.49"/>
</g>
<!-- n4 -->
<g id="node4" class="node">
<title>n4</title>
<path fill="#fbf6eb" stroke="#1a1612" stroke-width="1.5" d="M121.14,-370C121.14,-370 38.86,-370 38.86,-370 32.86,-370 26.86,-364 26.86,-358 26.86,-358 26.86,-346 26.86,-346 26.86,-340 32.86,-334 38.86,-334 38.86,-334 121.14,-334 121.14,-334 127.14,-334 133.14,-340 133.14,-346 133.14,-346 133.14,-358 133.14,-358 133.14,-364 127.14,-370 121.14,-370"/>
<text xml:space="preserve" text-anchor="middle" x="80" y="-348.3" font-family="Arial" font-size="11.00" fill="#1a1612">4 &#160;&#160;EmitSound #1</text>
</g>
<!-- n2&#45;&gt;n4 -->
<g id="edge4" class="edge">
<title>n2&#45;&gt;n4</title>
<path fill="none" stroke="#5a6b3b" stroke-width="1.3" stroke-dasharray="5,2" d="M91.03,-487.49C97.37,-476.36 104.71,-461.39 108,-447 111.57,-431.4 111.57,-426.6 108,-411 105.66,-400.77 101.27,-390.25 96.65,-381.02"/>
<polygon fill="#5a6b3b" stroke="#5a6b3b" stroke-width="1.3" points="99.76,-379.41 91.96,-372.25 93.59,-382.72 99.76,-379.41"/>
<text xml:space="preserve" text-anchor="middle" x="126.8" y="-425.5" font-family="Arial" font-size="10.00" fill="#5a6b3b"> sound </text>
</g>
<!-- n3&#45;&gt;n4 -->
<g id="edge5" class="edge">
<title>n3&#45;&gt;n4</title>
<path fill="none" stroke="#8b2418" stroke-width="2" d="M62.83,-410.52C64.33,-404.04 66.13,-396.66 68,-390 68.64,-387.71 69.33,-385.35 70.05,-382.98"/>
<polygon fill="#8b2418" stroke="#8b2418" stroke-width="2" points="73.37,-384.08 73.06,-373.49 66.7,-381.97 73.37,-384.08"/>
</g>
<!-- n4&#45;&gt;n5 -->
<g id="edge6" class="edge">
<title>n4&#45;&gt;n5</title>
<path fill="none" stroke="#8b2418" stroke-width="2" d="M80.23,-333.6C80.34,-325.52 80.47,-315.67 80.59,-306.42"/>
<polygon fill="#8b2418" stroke="#8b2418" stroke-width="2" points="84.09,-306.63 80.73,-296.59 77.09,-306.54 84.09,-306.63"/>
</g>
<!-- n6 -->
<g id="node6" class="node">
<title>n6</title>
<path fill="#4a3f33" stroke="#1a1612" stroke-width="1.5" d="M101.89,-216C101.89,-216 60.11,-216 60.11,-216 54.11,-216 48.11,-210 48.11,-204 48.11,-204 48.11,-192 48.11,-192 48.11,-186 54.11,-180 60.11,-180 60.11,-180 101.89,-180 101.89,-180 107.89,-180 113.89,-186 113.89,-192 113.89,-192 113.89,-204 113.89,-204 113.89,-210 107.89,-216 101.89,-216"/>
<text xml:space="preserve" text-anchor="middle" x="81" y="-194.3" font-family="Arial" font-size="11.00" fill="#fbf6eb">6 &#160;&#160;Delay</text>
</g>
<!-- n5&#45;&gt;n6 -->
<g id="edge7" class="edge">
<title>n5&#45;&gt;n6</title>
<path fill="none" stroke="#8b2418" stroke-width="2" d="M81,-256.6C81,-248.52 81,-238.67 81,-229.42"/>
<polygon fill="#8b2418" stroke="#8b2418" stroke-width="2" points="84.5,-229.59 81,-219.59 77.5,-229.59 84.5,-229.59"/>
</g>
<!-- n7 -->
<g id="node7" class="node">
<title>n7</title>
<path fill="#5a6b3b" stroke="#1a1612" stroke-width="1.5" d="M123.64,-139C123.64,-139 38.36,-139 38.36,-139 32.36,-139 26.36,-133 26.36,-127 26.36,-127 26.36,-115 26.36,-115 26.36,-109 32.36,-103 38.36,-103 38.36,-103 123.64,-103 123.64,-103 129.64,-103 135.64,-109 135.64,-115 135.64,-115 135.64,-127 135.64,-127 135.64,-133 129.64,-139 123.64,-139"/>
<text xml:space="preserve" text-anchor="middle" x="81" y="-117.3" font-family="Arial" font-size="11.00" fill="#fbf6eb">7 &#160;&#160;DrawImage #1</text>
</g>
<!-- n5&#45;&gt;n7 -->
<g id="edge8" class="edge">
<title>n5&#45;&gt;n7</title>
<path fill="none" stroke="#5a6b3b" stroke-width="1.3" stroke-dasharray="5,2" d="M101.66,-256.39C112.33,-245.89 124.29,-231.6 130,-216 135.5,-200.97 135.5,-195.03 130,-180 125.72,-168.3 117.92,-157.34 109.79,-148.16"/>
<polygon fill="#5a6b3b" stroke="#5a6b3b" stroke-width="1.3" points="112.44,-145.87 103.02,-141.04 107.37,-150.7 112.44,-145.87"/>
<text xml:space="preserve" text-anchor="middle" x="152.5" y="-194.5" font-family="Arial" font-size="10.00" fill="#5a6b3b"> display </text>
</g>
<!-- n6&#45;&gt;n7 -->
<g id="edge9" class="edge">
<title>n6&#45;&gt;n7</title>
<path fill="none" stroke="#8b2418" stroke-width="2" d="M81,-179.6C81,-171.52 81,-161.67 81,-152.42"/>
<polygon fill="#8b2418" stroke="#8b2418" stroke-width="2" points="84.5,-152.59 81,-142.59 77.5,-152.59 84.5,-152.59"/>
</g>
<!-- n8 -->
<g id="node8" class="node">
<title>n8</title>
<path fill="#4a3f33" stroke="#1a1612" stroke-width="1.5" d="M101.89,-62C101.89,-62 60.11,-62 60.11,-62 54.11,-62 48.11,-56 48.11,-50 48.11,-50 48.11,-38 48.11,-38 48.11,-32 54.11,-26 60.11,-26 60.11,-26 101.89,-26 101.89,-26 107.89,-26 113.89,-32 113.89,-38 113.89,-38 113.89,-50 113.89,-50 113.89,-56 107.89,-62 101.89,-62"/>
<text xml:space="preserve" text-anchor="middle" x="81" y="-40.3" font-family="Arial" font-size="11.00" fill="#fbf6eb">8 &#160;&#160;Delay</text>
</g>
<!-- n7&#45;&gt;n8 -->
<g id="edge10" class="edge">
<title>n7&#45;&gt;n8</title>
<path fill="none" stroke="#8b2418" stroke-width="2" d="M81,-102.6C81,-94.52 81,-84.67 81,-75.42"/>
<polygon fill="#8b2418" stroke="#8b2418" stroke-width="2" points="84.5,-75.59 81,-65.59 77.5,-75.59 84.5,-75.59"/>
</g>
</g>
</svg>
