<svg xmlns="http://www.w3.org/2000/svg" width="1280" height="720" xmlns:v="https://vecta.io/nano"><style><![CDATA[.B{clip-path:none}]]></style><defs><clipPath ><path d="M0 0h708.12v398.41H0z" stroke-width="0" fill="none"/></clipPath><linearGradient x1="638.923" y1="745.128" x2="638.923" y2="-25.591" gradientUnits="userSpaceOnUse" spreadMethod="pad" id="B"><stop offset="0" stop-color="#a184dc"/><stop offset=".25" stop-color="#a184dc"/><stop offset="1" stop-color="#7568c5"/></linearGradient></defs><path d="M0 0h1280v720H0z" fill="url(#B)" class="B"/><path d="M215.264 719.54h440.93v-91.421h-440.93z" fill="#1e5c93" class="B"/><g fill="#34c3ff"><path d="M540.826 522.917c0 58.094-47.057 105.202-105.112 105.202-58.045 0-105.114-47.108-105.114-105.202 0-58.103 47.069-105.199 105.114-105.199 58.055 0 105.112 47.096 105.112 105.199z" class="B"/><path d="M482.293 383.705c0 25.744-20.855 46.617-46.578 46.617s-46.571-20.873-46.571-46.617 20.846-46.61 46.571-46.61 46.578 20.863 46.578 46.61z" class="B"/><path d="M408.919 348.834h53.608v247.962h-53.608zM380.283 602.11h112.876v26.009H380.283z" class="B"/></g><path d="M210.969 107.186H660.49v245.657H210.969z" fill="#ff7b54" class="B"/><path d="M912.633 242.459h156.232v237.802H912.633z" fill="#fff" class="B"/><path d="M1030.253 364.657c0 21.831-17.687 39.535-39.502 39.535-21.822 0-39.502-17.704-39.502-39.535 0-21.843 17.679-39.535 39.502-39.535 21.815 0 39.502 17.692 39.502 39.535" fill="#ff7b54" class="B"/><path d="M1036.316 391.567l4.324 2.485m7.706-28.822h-4.964m-2.742-28.841l-4.324 2.512m-19.257-19.291l2.49-4.318m-28.798-7.722v4.985m-26.314 7.055l-2.49-4.318m-16.778 23.609l-4.314-2.512m-2.745 28.841h-4.98m12.039 26.337l-4.314 2.485" class="B" fill="none" stroke="#1e5c93" stroke-width="2.365" stroke-linecap="round" stroke-miterlimit="10"/><path d="M1025.395 364.657c0 19.141-15.519 34.671-34.644 34.671-19.135 0-34.651-15.529-34.651-34.671s15.516-34.683 34.651-34.683c19.125 0 34.644 15.539 34.644 34.683" fill="#ffc93c" class="B"/><path d="M990.751 353.98a1.41 1.41 0 0 1-1.41-1.411v-9.82a1.41 1.41 0 0 1 1.41-1.411c.772 0 1.4.631 1.4 1.411v9.82c0 .78-.628 1.411-1.4 1.411" fill="#1e5c93" class="B"/></svg>