<svg xmlns="http://www.w3.org/2000/svg" width="1280" height="720" xmlns:v="https://vecta.io/nano"><style><![CDATA[#E{transform-origin:center center;animation-name:example;animation-duration:6s;animation-timing-function:linear;animation-iteration-count:infinite}@keyframes example{0%{opacity:0}50%{opacity:1}100%{opacity:0}}.B{clip-path:none}]]></style><defs><clipPath ><path d="M0 0h708.12v398.41H0z" stroke-width="0" fill="none"/></clipPath><linearGradient id="B" x1="6270.401" y1="676.607" x2="6199.007" y2="635.635" gradientUnits="userSpaceOnUse"><stop offset="0" stop-color="red"/><stop offset="1"/></linearGradient><linearGradient id="C" x1="6302.367" y1="676.689" x2="6373.705" y2="635.53" gradientUnits="userSpaceOnUse"><stop offset="0" stop-color="#0f0"/><stop offset="1"/></linearGradient><linearGradient id="D" x1="6286.379" y1="704.284" x2="6286.386" y2="786.561" gradientUnits="userSpaceOnUse"><stop offset="0" stop-color="#00f"/><stop offset="1"/></linearGradient></defs><path d="M0 0h1280v720H0z" fill="#1a1a1a"/><g transform="matrix(3.779527 0 0 3.779527 -23119.454 -2327.4171)"><path d="M6254.261 704.642v-.074c0-11.952 6.492-22.377 16.147-27.961.024-11.923 6.513-22.313 16.14-27.886 0 0 .01.007-87.541-13.086l55.254 69.007z" fill="url(#B)" class="B"/><path d="M6302.367 676.614c9.649 5.583 16.148 16.009 16.148 27.96v.074s-.01-.074 55.19-69.118l-87.477 13.198c9.627 5.573 16.115 15.97 16.14 27.886z" fill="url(#C)" class="B"/><path d="M6270.246 676.568c4.748-2.753 10.256-4.327 16.14-4.327a32.14 32.14 0 0 1 16.137 4.327c-.025-11.923-6.514-22.313-16.137-27.886-9.627 5.573-16.115 15.97-16.14 27.886z" fill="#ff0" class="B"/><path d="M6286.386 704.284a32.2 32.2 0 0 1-16.147 4.327 32.14 32.14 0 0 1-16.14-4.327s0-.074 32.287 82.277l32.284-82.277c-4.746 2.752-10.256 4.327-16.141 4.327a32.18 32.18 0 0 1-16.143-4.327z" fill="url(#D)" class="B"/><path d="M6286.386 704.549c-9.648-5.583-16.147-16.013-16.147-27.96v-.075c-9.648 5.584-16.147 16.009-16.147 27.961v.074a32.1 32.1 0 0 0 16.14 4.327c5.883 0 11.392-1.581 16.147-4.327z" fill="#f0f" class="B"/><path d="M6302.529 676.521v.074c0 11.948-6.492 22.377-16.143 27.96 4.748 2.75 10.264 4.328 16.143 4.327s11.393-1.585 16.141-4.327v-.074c0-11.951-6.492-22.377-16.147-27.96z" fill="#0ff" class="B"/><path d="M6286.386 704.582c9.645-5.582 16.143-16.013 16.143-27.96v-.075c-4.748-2.752-10.256-4.327-16.14-4.327s-11.388 1.581-16.136 4.327v.075c0 11.947 6.492 22.377 16.143 27.96z" fill="#fff" class="B"/></g><path d="M0 0h1280v720H0z" fill="#1a1a1a" id="E"/></svg>