<svg xmlns="http://www.w3.org/2000/svg" width="1280" height="720" xmlns:v="https://vecta.io/nano"><style><![CDATA[#F{transform-origin:center center;animation-name:example;animation-duration:6s;animation-timing-function:linear;animation-iteration-count:infinite}#E{transform-box: fill-box;animation-timing-function:linear;transform-origin:center center;animation-name:rotat;animation-duration:6s;animation-iteration-count:infinite}@keyframes example{0%{opacity:1}50%{opacity:0}100%{opacity:1}} @keyframes rotat{0%{transform:rotate(0deg)}50%{transform:rotate(300deg)}100%{transform:rotate(0deg)}}.B{clip-path:none}]]></style><defs><clipPath ><path d="M0 0h708.12v398.41H0z" stroke-width="0" fill="none"/></clipPath><linearGradient id="B" x1="6270.401" y1="676.607" x2="6199.007" y2="635.635" gradientUnits="userSpaceOnUse"><stop offset="0" stop-color="red"/><stop offset="1"/></linearGradient><linearGradient id="C" x1="6302.367" y1="676.689" x2="6373.705" y2="635.53" gradientUnits="userSpaceOnUse"><stop offset="0" stop-color="#0f0"/><stop offset="1"/></linearGradient><linearGradient id="D" x1="6286.379" y1="704.284" x2="6286.386" y2="786.561" gradientUnits="userSpaceOnUse"><stop offset="0" stop-color="#00f"/><stop offset="1"/></linearGradient></defs><path d="M0 0h1280v719.999H0z" fill="#1a1a1a"/><path d="M1067.342 484.902l7.215 12.536m48.608-68.392l12.497 7.228m22.359-83.541h-14.401m-7.958-83.535l-12.497 7.215m-55.823-55.856l7.215-12.522m-83.458-22.385v14.442m-76.228 20.465l-7.235-12.522m-48.588 68.378l-12.511-7.215m-7.95 83.535H824.17m34.878 76.313l-12.511 7.228m68.334 48.628l-7.235 12.536" class="B" fill="#34c3ff" stroke="#34c3ff" stroke-width="6.84" stroke-linecap="round" stroke-miterlimit="10"/><g id="E"><path d="M893.163 291.821c32.744-54.131 103.135-71.496 157.221-38.78s71.389 103.127 38.645 157.258-103.137 71.489-157.223 38.773-71.387-103.119-38.643-157.251" fill="#34c3ff" stroke="#34c3ff" stroke-width="1.828" class="B"/><path d="M945.12 433.074l-5.325-3.221 14.502-23.975 5.325 3.221z" fill="#7c2869" class="B"/></g><g transform="matrix(2.884973 0 0 2.884973 -17765.407 -1691.3478)"><path d="M6254.261 704.642v-.074c0-11.952 6.492-22.377 16.147-27.961.024-11.923 6.513-22.313 16.14-27.886 0 0 .01.007-87.541-13.086l55.254 69.007z" fill="url(#B)" class="B"/><path d="M6302.367 676.614c9.649 5.583 16.148 16.009 16.148 27.96v.074s-.01-.074 55.19-69.118l-87.477 13.198c9.627 5.573 16.115 15.97 16.14 27.886z" fill="url(#C)" class="B"/><path d="M6270.246 676.568c4.748-2.753 10.256-4.327 16.14-4.327a32.14 32.14 0 0 1 16.137 4.327c-.025-11.923-6.514-22.313-16.137-27.886-9.627 5.573-16.115 15.97-16.14 27.886z" fill="#ff0" class="B"/><path d="M6286.386 704.284a32.2 32.2 0 0 1-16.147 4.327 32.14 32.14 0 0 1-16.14-4.327s0-.074 32.287 82.277l32.284-82.277c-4.746 2.752-10.256 4.327-16.141 4.327a32.18 32.18 0 0 1-16.143-4.327z" fill="url(#D)" class="B"/><path d="M6286.386 704.549c-9.648-5.583-16.147-16.013-16.147-27.96v-.075c-9.648 5.584-16.147 16.009-16.147 27.961v.074a32.1 32.1 0 0 0 16.14 4.327c5.883 0 11.392-1.581 16.147-4.327z" fill="#f0f" class="B"/><path d="M6302.529 676.521v.074c0 11.948-6.492 22.377-16.143 27.96 4.748 2.75 10.264 4.328 16.143 4.327s11.393-1.585 16.141-4.327v-.074c0-11.951-6.492-22.377-16.147-27.96z" fill="#0ff" class="B"/><path d="M6286.386 704.582c9.645-5.582 16.143-16.013 16.143-27.96v-.075c-4.748-2.752-10.256-4.327-16.14-4.327s-11.388 1.581-16.136 4.327v.075c0 11.947 6.492 22.377 16.143 27.96z" fill="#fff" class="B"/></g><path d="M44.517 44.383H701.71v631.233H44.517z" fill="#1a1a1a" id="F"/></svg>