<svg width="1280" height="720" viewBox="0 0 1280 720" fill="none" xmlns="http://www.w3.org/2000/svg">
<g clip-path="url(#clip0_457_26)">
<rect width="1280" height="720" fill="#ECFAFF"/>
<path d="M0 0H1279.99V719.999H0V0Z" fill="#ECFAFF"/>
<path d="M519.792 309.451C519.791 309.428 519.79 309.405 519.789 309.382C517.529 262.951 568.689 222.732 634.058 219.55C699.426 216.369 754.25 251.43 756.51 297.862C756.555 298.795 756.579 299.726 756.582 300.654" stroke="#424242" stroke-width="21"/>
<path d="M742.295 285.293L752.337 284.906C794.175 283.295 829.397 315.905 831.008 357.742C832.62 399.58 800.01 434.803 758.172 436.414L748.13 436.801L742.295 285.293Z" fill="url(#paint0_linear_457_26)"/>
<path d="M531.635 292.957L522.026 293.284C479.941 294.718 446.988 329.996 448.421 372.08C449.855 414.164 485.133 447.118 527.217 445.684L536.826 445.357L531.635 292.957Z" fill="url(#paint1_linear_457_26)"/>
<rect x="531.183" y="292.488" width="212.704" height="152.641" transform="rotate(-2.20566 531.183 292.488)" fill="url(#paint2_linear_457_26)"/>
<g filter="url(#filter0_di_457_26)">
<path d="M608.958 364.686L563.489 378.676" stroke="#5C5C5C" stroke-width="4"/>
</g>
<g filter="url(#filter1_di_457_26)">
<path d="M671.915 364.686L717.384 378.676" stroke="#5C5C5C" stroke-width="4"/>
</g>
<g filter="url(#filter2_di_457_26)">
<path d="M623.39 408.26C642.265 403.449 658.675 405.747 659.276 404.638L658.176 403.387C648.52 392.399 630.868 394.403 623.921 407.276L623.39 408.26Z" fill="#5C5C5C"/>
</g>
<path d="M915 359C915 207.121 791.878 84 640 84C488.122 84 365 207.121 365 359C365 510.878 488.122 634 640 634C791.878 634 915 510.878 915 359Z" stroke="#1E5C93" stroke-width="13.089"/>
<path fill-rule="evenodd" clip-rule="evenodd" d="M378.987 204.668L384.838 262.419L431.934 228.481L378.987 204.668Z" fill="#1E5C93"/>
<g filter="url(#filter3_d_457_26)">
<path d="M582.727 340.827C593.924 341.821 600.905 339.93 608.959 333.205" stroke="url(#paint3_linear_457_26)" stroke-width="4"/>
</g>
<g filter="url(#filter4_d_457_26)">
<path d="M688.529 340.827C677.332 341.821 670.351 339.93 662.297 333.205" stroke="url(#paint4_linear_457_26)" stroke-width="4"/>
</g>
<path d="M972.136 104.767C973.302 104.767 974.248 105.117 974.973 105.816C975.725 106.49 976.101 107.332 976.101 108.343C976.101 109.379 975.725 110.247 974.973 110.947C974.248 111.647 973.302 111.996 972.136 111.996C970.996 111.996 970.05 111.647 969.299 110.947C968.573 110.247 968.21 109.379 968.21 108.343C968.21 107.332 968.573 106.49 969.299 105.816C970.05 105.117 970.996 104.767 972.136 104.767ZM969.571 133.88C966.798 133.88 964.569 133.154 962.885 131.703C961.227 130.252 960.397 128.205 960.397 125.562C960.397 123.126 961.188 121.234 962.768 119.887C964.375 118.514 966.487 117.814 969.104 117.788L969.299 114.873H975.129L975.323 122.102H972.991C970.97 122.102 969.428 122.362 968.366 122.88C967.329 123.372 966.824 124.279 966.85 125.601C966.85 126.482 967.096 127.168 967.588 127.661C968.107 128.179 968.793 128.438 969.648 128.438C970.581 128.438 971.307 128.166 971.825 127.622C972.343 127.104 972.602 126.391 972.602 125.484H978.86C978.912 127.065 978.575 128.49 977.85 129.76C977.15 131.029 976.088 132.027 974.662 132.753C973.263 133.504 971.566 133.88 969.571 133.88ZM1006.03 99.7137V127H999.387V115.767H989.047V127H982.401V99.7137H989.047V110.403H999.387V99.7137H1006.03ZM1009.51 116.117C1009.51 113.888 1009.92 111.932 1010.75 110.247C1011.61 108.563 1012.76 107.267 1014.21 106.36C1015.66 105.453 1017.28 105 1019.07 105C1020.6 105 1021.94 105.311 1023.08 105.933C1024.24 106.555 1025.14 107.371 1025.76 108.382V105.311H1032.4V127H1025.76V123.929C1025.11 124.94 1024.2 125.756 1023.04 126.378C1021.9 127 1020.56 127.311 1019.03 127.311C1017.27 127.311 1015.66 126.857 1014.21 125.951C1012.76 125.018 1011.61 123.709 1010.75 122.025C1009.92 120.314 1009.51 118.345 1009.51 116.117ZM1025.76 116.155C1025.76 114.497 1025.29 113.188 1024.36 112.23C1023.45 111.271 1022.34 110.791 1021.02 110.791C1019.69 110.791 1018.57 111.271 1017.63 112.23C1016.73 113.163 1016.27 114.458 1016.27 116.117C1016.27 117.775 1016.73 119.097 1017.63 120.081C1018.57 121.04 1019.69 121.519 1021.02 121.519C1022.34 121.519 1023.45 121.04 1024.36 120.081C1025.29 119.122 1025.76 117.814 1025.76 116.155ZM1059.37 105.311L1045.76 137.3H1038.61L1043.59 126.261L1034.76 105.311H1042.19L1047.2 118.876L1052.18 105.311H1059.37ZM1076.66 108.926C1077.43 107.734 1078.4 106.801 1079.57 106.127C1080.74 105.428 1082.03 105.078 1083.46 105.078V112.113H1081.63C1079.97 112.113 1078.73 112.476 1077.9 113.201C1077.07 113.901 1076.66 115.145 1076.66 116.933V127H1070.01V105.311H1076.66V108.926ZM1108.05 105.311V127H1101.4V124.046C1100.73 125.005 1099.81 125.782 1098.65 126.378C1097.5 126.948 1096.24 127.233 1094.84 127.233C1093.18 127.233 1091.71 126.87 1090.44 126.145C1089.17 125.393 1088.19 124.318 1087.49 122.919C1086.79 121.519 1086.44 119.874 1086.44 117.982V105.311H1093.05V117.088C1093.05 118.539 1093.42 119.667 1094.18 120.47C1094.93 121.273 1095.94 121.675 1097.21 121.675C1098.5 121.675 1099.53 121.273 1100.28 120.47C1101.03 119.667 1101.4 118.539 1101.4 117.088V105.311H1108.05ZM1116.17 103.056C1115 103.056 1114.04 102.72 1113.29 102.046C1112.57 101.346 1112.2 100.491 1112.2 99.4805C1112.2 98.444 1112.57 97.5889 1113.29 96.9151C1114.04 96.2155 1115 95.8657 1116.17 95.8657C1117.31 95.8657 1118.24 96.2155 1118.97 96.9151C1119.72 97.5889 1120.09 98.444 1120.09 99.4805C1120.09 100.491 1119.72 101.346 1118.97 102.046C1118.24 102.72 1117.31 103.056 1116.17 103.056ZM1119.47 105.311V127H1112.83V105.311H1119.47ZM1122.97 116.117C1122.97 113.888 1123.38 111.932 1124.21 110.247C1125.07 108.563 1126.22 107.267 1127.67 106.36C1129.12 105.453 1130.74 105 1132.53 105C1133.95 105 1135.25 105.298 1136.42 105.894C1137.61 106.49 1138.54 107.293 1139.21 108.304V98.2367H1145.86V127H1139.21V123.89C1138.59 124.927 1137.7 125.756 1136.53 126.378C1135.39 127 1134.06 127.311 1132.53 127.311C1130.74 127.311 1129.12 126.857 1127.67 125.951C1126.22 125.018 1125.07 123.709 1124.21 122.025C1123.38 120.314 1122.97 118.345 1122.97 116.117ZM1139.21 116.155C1139.21 114.497 1138.75 113.188 1137.82 112.23C1136.91 111.271 1135.79 110.791 1134.47 110.791C1133.15 110.791 1132.02 111.271 1131.09 112.23C1130.18 113.163 1129.73 114.458 1129.73 116.117C1129.73 117.775 1130.18 119.097 1131.09 120.081C1132.02 121.04 1133.15 121.519 1134.47 121.519C1135.79 121.519 1136.91 121.04 1137.82 120.081C1138.75 119.122 1139.21 117.814 1139.21 116.155ZM1160.54 127.311C1158.42 127.311 1156.5 126.857 1154.79 125.951C1153.11 125.044 1151.77 123.748 1150.79 122.064C1149.83 120.379 1149.35 118.41 1149.35 116.155C1149.35 113.927 1149.84 111.971 1150.83 110.286C1151.81 108.576 1153.16 107.267 1154.87 106.36C1156.58 105.453 1158.5 105 1160.62 105C1162.75 105 1164.66 105.453 1166.37 106.36C1168.08 107.267 1169.43 108.576 1170.42 110.286C1171.4 111.971 1171.89 113.927 1171.89 116.155C1171.89 118.384 1171.39 120.353 1170.38 122.064C1169.39 123.748 1168.03 125.044 1166.3 125.951C1164.59 126.857 1162.67 127.311 1160.54 127.311ZM1160.54 121.558C1161.81 121.558 1162.89 121.092 1163.77 120.159C1164.68 119.226 1165.13 117.892 1165.13 116.155C1165.13 114.419 1164.69 113.085 1163.81 112.152C1162.95 111.219 1161.89 110.753 1160.62 110.753C1159.33 110.753 1158.25 111.219 1157.39 112.152C1156.54 113.059 1156.11 114.393 1156.11 116.155C1156.11 117.892 1156.53 119.226 1157.36 120.159C1158.21 121.092 1159.27 121.558 1160.54 121.558ZM1183.39 98.1978C1186.16 98.1978 1188.38 98.9234 1190.03 100.374C1191.72 101.826 1192.56 103.873 1192.56 106.516C1192.56 108.952 1191.76 110.856 1190.15 112.23C1188.57 113.577 1186.47 114.264 1183.85 114.29L1183.66 117.205H1177.83L1177.63 109.975H1179.97C1181.96 109.975 1183.48 109.729 1184.51 109.237C1185.58 108.744 1186.11 107.85 1186.11 106.555C1186.11 105.648 1185.86 104.935 1185.37 104.417C1184.88 103.899 1184.19 103.64 1183.31 103.64C1182.38 103.64 1181.65 103.912 1181.13 104.456C1180.61 104.974 1180.36 105.687 1180.36 106.594H1174.1C1174.05 105.013 1174.37 103.588 1175.07 102.318C1175.79 101.048 1176.86 100.051 1178.26 99.325C1179.68 98.5736 1181.39 98.1978 1183.39 98.1978ZM1180.82 127.311C1179.66 127.311 1178.7 126.974 1177.95 126.3C1177.22 125.601 1176.86 124.746 1176.86 123.735C1176.86 122.698 1177.22 121.83 1177.95 121.131C1178.7 120.431 1179.66 120.081 1180.82 120.081C1181.96 120.081 1182.89 120.431 1183.62 121.131C1184.37 121.83 1184.75 122.698 1184.75 123.735C1184.75 124.746 1184.37 125.601 1183.62 126.3C1182.89 126.974 1181.96 127.311 1180.82 127.311Z" fill="#434343"/>
<path d="M972.136 447.767C973.302 447.767 974.248 448.117 974.973 448.816C975.725 449.49 976.101 450.332 976.101 451.343C976.101 452.379 975.725 453.247 974.973 453.947C974.248 454.647 973.302 454.996 972.136 454.996C970.996 454.996 970.05 454.647 969.299 453.947C968.573 453.247 968.21 452.379 968.21 451.343C968.21 450.332 968.573 449.49 969.299 448.816C970.05 448.117 970.996 447.767 972.136 447.767ZM969.571 476.88C966.798 476.88 964.569 476.154 962.885 474.703C961.227 473.252 960.397 471.205 960.397 468.562C960.397 466.126 961.188 464.234 962.768 462.887C964.375 461.514 966.487 460.814 969.104 460.788L969.299 457.873H975.129L975.323 465.102H972.991C970.97 465.102 969.428 465.362 968.366 465.88C967.329 466.372 966.824 467.279 966.85 468.601C966.85 469.482 967.096 470.168 967.588 470.661C968.107 471.179 968.793 471.438 969.648 471.438C970.581 471.438 971.307 471.166 971.825 470.622C972.343 470.104 972.602 469.391 972.602 468.484H978.86C978.912 470.065 978.575 471.49 977.85 472.76C977.15 474.029 976.088 475.027 974.662 475.753C973.263 476.504 971.566 476.88 969.571 476.88ZM1006.03 442.714V470H999.387V458.767H989.047V470H982.401V442.714H989.047V453.403H999.387V442.714H1006.03ZM1009.51 459.117C1009.51 456.888 1009.92 454.932 1010.75 453.247C1011.61 451.563 1012.76 450.267 1014.21 449.36C1015.66 448.453 1017.28 448 1019.07 448C1020.6 448 1021.94 448.311 1023.08 448.933C1024.24 449.555 1025.14 450.371 1025.76 451.382V448.311H1032.4V470H1025.76V466.929C1025.11 467.94 1024.2 468.756 1023.04 469.378C1021.9 470 1020.56 470.311 1019.03 470.311C1017.27 470.311 1015.66 469.857 1014.21 468.951C1012.76 468.018 1011.61 466.709 1010.75 465.025C1009.92 463.314 1009.51 461.345 1009.51 459.117ZM1025.76 459.155C1025.76 457.497 1025.29 456.188 1024.36 455.23C1023.45 454.271 1022.34 453.791 1021.02 453.791C1019.69 453.791 1018.57 454.271 1017.63 455.23C1016.73 456.163 1016.27 457.458 1016.27 459.117C1016.27 460.775 1016.73 462.097 1017.63 463.081C1018.57 464.04 1019.69 464.519 1021.02 464.519C1022.34 464.519 1023.45 464.04 1024.36 463.081C1025.29 462.122 1025.76 460.814 1025.76 459.155ZM1059.37 448.311L1045.76 480.3H1038.61L1043.59 469.261L1034.76 448.311H1042.19L1047.2 461.876L1052.18 448.311H1059.37ZM1076.66 451.926C1077.43 450.734 1078.4 449.801 1079.57 449.127C1080.74 448.428 1082.03 448.078 1083.46 448.078V455.113H1081.63C1079.97 455.113 1078.73 455.476 1077.9 456.201C1077.07 456.901 1076.66 458.145 1076.66 459.933V470H1070.01V448.311H1076.66V451.926ZM1108.05 448.311V470H1101.4V467.046C1100.73 468.005 1099.81 468.782 1098.65 469.378C1097.5 469.948 1096.24 470.233 1094.84 470.233C1093.18 470.233 1091.71 469.87 1090.44 469.145C1089.17 468.393 1088.19 467.318 1087.49 465.919C1086.79 464.519 1086.44 462.874 1086.44 460.982V448.311H1093.05V460.088C1093.05 461.539 1093.42 462.667 1094.18 463.47C1094.93 464.273 1095.94 464.675 1097.21 464.675C1098.5 464.675 1099.53 464.273 1100.28 463.47C1101.03 462.667 1101.4 461.539 1101.4 460.088V448.311H1108.05ZM1116.17 446.056C1115 446.056 1114.04 445.72 1113.29 445.046C1112.57 444.346 1112.2 443.491 1112.2 442.481C1112.2 441.444 1112.57 440.589 1113.29 439.915C1114.04 439.215 1115 438.866 1116.17 438.866C1117.31 438.866 1118.24 439.215 1118.97 439.915C1119.72 440.589 1120.09 441.444 1120.09 442.481C1120.09 443.491 1119.72 444.346 1118.97 445.046C1118.24 445.72 1117.31 446.056 1116.17 446.056ZM1119.47 448.311V470H1112.83V448.311H1119.47ZM1122.97 459.117C1122.97 456.888 1123.38 454.932 1124.21 453.247C1125.07 451.563 1126.22 450.267 1127.67 449.36C1129.12 448.453 1130.74 448 1132.53 448C1133.95 448 1135.25 448.298 1136.42 448.894C1137.61 449.49 1138.54 450.293 1139.21 451.304V441.237H1145.86V470H1139.21V466.89C1138.59 467.927 1137.7 468.756 1136.53 469.378C1135.39 470 1134.06 470.311 1132.53 470.311C1130.74 470.311 1129.12 469.857 1127.67 468.951C1126.22 468.018 1125.07 466.709 1124.21 465.025C1123.38 463.314 1122.97 461.345 1122.97 459.117ZM1139.21 459.155C1139.21 457.497 1138.75 456.188 1137.82 455.23C1136.91 454.271 1135.79 453.791 1134.47 453.791C1133.15 453.791 1132.02 454.271 1131.09 455.23C1130.18 456.163 1129.73 457.458 1129.73 459.117C1129.73 460.775 1130.18 462.097 1131.09 463.081C1132.02 464.04 1133.15 464.519 1134.47 464.519C1135.79 464.519 1136.91 464.04 1137.82 463.081C1138.75 462.122 1139.21 460.814 1139.21 459.155ZM1160.54 470.311C1158.42 470.311 1156.5 469.857 1154.79 468.951C1153.11 468.044 1151.77 466.748 1150.79 465.064C1149.83 463.379 1149.35 461.41 1149.35 459.155C1149.35 456.927 1149.84 454.971 1150.83 453.286C1151.81 451.576 1153.16 450.267 1154.87 449.36C1156.58 448.453 1158.5 448 1160.62 448C1162.75 448 1164.66 448.453 1166.37 449.36C1168.08 450.267 1169.43 451.576 1170.42 453.286C1171.4 454.971 1171.89 456.927 1171.89 459.155C1171.89 461.384 1171.39 463.353 1170.38 465.064C1169.39 466.748 1168.03 468.044 1166.3 468.951C1164.59 469.857 1162.67 470.311 1160.54 470.311ZM1160.54 464.558C1161.81 464.558 1162.89 464.092 1163.77 463.159C1164.68 462.226 1165.13 460.892 1165.13 459.155C1165.13 457.419 1164.69 456.085 1163.81 455.152C1162.95 454.219 1161.89 453.753 1160.62 453.753C1159.33 453.753 1158.25 454.219 1157.39 455.152C1156.54 456.059 1156.11 457.393 1156.11 459.155C1156.11 460.892 1156.53 462.226 1157.36 463.159C1158.21 464.092 1159.27 464.558 1160.54 464.558ZM1183.39 441.198C1186.16 441.198 1188.38 441.923 1190.03 443.374C1191.72 444.826 1192.56 446.873 1192.56 449.516C1192.56 451.952 1191.76 453.856 1190.15 455.23C1188.57 456.577 1186.47 457.264 1183.85 457.29L1183.66 460.205H1177.83L1177.63 452.975H1179.97C1181.96 452.975 1183.48 452.729 1184.51 452.237C1185.58 451.744 1186.11 450.85 1186.11 449.555C1186.11 448.648 1185.86 447.935 1185.37 447.417C1184.88 446.899 1184.19 446.64 1183.31 446.64C1182.38 446.64 1181.65 446.912 1181.13 447.456C1180.61 447.974 1180.36 448.687 1180.36 449.594H1174.1C1174.05 448.013 1174.37 446.588 1175.07 445.318C1175.79 444.048 1176.86 443.051 1178.26 442.325C1179.68 441.574 1181.39 441.198 1183.39 441.198ZM1180.82 470.311C1179.66 470.311 1178.7 469.974 1177.95 469.3C1177.22 468.601 1176.86 467.746 1176.86 466.735C1176.86 465.698 1177.22 464.83 1177.95 464.131C1178.7 463.431 1179.66 463.081 1180.82 463.081C1181.96 463.081 1182.89 463.431 1183.62 464.131C1184.37 464.83 1184.75 465.698 1184.75 466.735C1184.75 467.746 1184.37 468.601 1183.62 469.3C1182.89 469.974 1181.96 470.311 1180.82 470.311Z" fill="#434343"/>
<path d="M85.136 104.767C86.302 104.767 87.2479 105.117 87.9734 105.816C88.7249 106.49 89.1006 107.332 89.1006 108.343C89.1006 109.379 88.7249 110.247 87.9734 110.947C87.2479 111.647 86.302 111.996 85.136 111.996C83.9958 111.996 83.05 111.647 82.2985 110.947C81.5729 110.247 81.2102 109.379 81.2102 108.343C81.2102 107.332 81.5729 106.49 82.2985 105.816C83.05 105.117 83.9958 104.767 85.136 104.767ZM82.5706 133.88C79.7979 133.88 77.5694 133.154 75.8851 131.703C74.2266 130.252 73.3974 128.205 73.3974 125.562C73.3974 123.126 74.1878 121.234 75.7685 119.887C77.3751 118.514 79.487 117.814 82.1042 117.788L82.2985 114.873H88.1289L88.3233 122.102H85.9911C83.9699 122.102 82.4281 122.362 81.3656 122.88C80.3291 123.372 79.8238 124.279 79.8497 125.601C79.8497 126.482 80.0959 127.168 80.5883 127.661C81.1065 128.179 81.7932 128.438 82.6483 128.438C83.5812 128.438 84.3068 128.166 84.825 127.622C85.3433 127.104 85.6024 126.391 85.6024 125.484H91.8604C91.9122 127.065 91.5753 128.49 90.8498 129.76C90.1501 131.029 89.0877 132.027 87.6625 132.753C86.2632 133.504 84.5659 133.88 82.5706 133.88ZM119.033 99.7137V127H112.387V115.767H102.047V127H95.4008V99.7137H102.047V110.403H112.387V99.7137H119.033ZM122.51 116.117C122.51 113.888 122.925 111.932 123.754 110.247C124.609 108.563 125.762 107.267 127.213 106.36C128.664 105.453 130.284 105 132.072 105C133.601 105 134.935 105.311 136.075 105.933C137.242 106.555 138.136 107.371 138.757 108.382V105.311H145.404V127H138.757V123.929C138.11 124.94 137.203 125.756 136.037 126.378C134.896 127 133.562 127.311 132.033 127.311C130.271 127.311 128.664 126.857 127.213 125.951C125.762 125.018 124.609 123.709 123.754 122.025C122.925 120.314 122.51 118.345 122.51 116.117ZM138.757 116.155C138.757 114.497 138.291 113.188 137.358 112.23C136.451 111.271 135.337 110.791 134.015 110.791C132.694 110.791 131.567 111.271 130.634 112.23C129.727 113.163 129.273 114.458 129.273 116.117C129.273 117.775 129.727 119.097 130.634 120.081C131.567 121.04 132.694 121.519 134.015 121.519C135.337 121.519 136.451 121.04 137.358 120.081C138.291 119.122 138.757 117.814 138.757 116.155ZM172.368 105.311L158.764 137.3H151.612L156.587 126.261L147.764 105.311H155.188L160.202 118.876L165.177 105.311H172.368ZM189.655 108.926C190.433 107.734 191.404 106.801 192.571 106.127C193.737 105.428 195.032 105.078 196.457 105.078V112.113H194.631C192.972 112.113 191.728 112.476 190.899 113.201C190.07 113.901 189.655 115.145 189.655 116.933V127H183.009V105.311H189.655V108.926ZM221.051 105.311V127H214.405V124.046C213.731 125.005 212.811 125.782 211.645 126.378C210.505 126.948 209.235 127.233 207.836 127.233C206.177 127.233 204.713 126.87 203.444 126.145C202.174 125.393 201.189 124.318 200.49 122.919C199.79 121.519 199.44 119.874 199.44 117.982V105.311H206.048V117.088C206.048 118.539 206.424 119.667 207.175 120.47C207.927 121.273 208.937 121.675 210.207 121.675C211.503 121.675 212.526 121.273 213.278 120.47C214.029 119.667 214.405 118.539 214.405 117.088V105.311H221.051ZM229.168 103.056C228.002 103.056 227.044 102.72 226.292 102.046C225.567 101.346 225.204 100.491 225.204 99.4805C225.204 98.444 225.567 97.5889 226.292 96.9151C227.044 96.2155 228.002 95.8657 229.168 95.8657C230.309 95.8657 231.241 96.2155 231.967 96.9151C232.719 97.5889 233.094 98.444 233.094 99.4805C233.094 100.491 232.719 101.346 231.967 102.046C231.241 102.72 230.309 103.056 229.168 103.056ZM232.472 105.311V127H225.826V105.311H232.472ZM235.968 116.117C235.968 113.888 236.382 111.932 237.211 110.247C238.066 108.563 239.22 107.267 240.671 106.36C242.122 105.453 243.741 105 245.529 105C246.955 105 248.25 105.298 249.416 105.894C250.608 106.49 251.541 107.293 252.215 108.304V98.2367H258.862V127H252.215V123.89C251.593 124.927 250.699 125.756 249.533 126.378C248.393 127 247.058 127.311 245.529 127.311C243.741 127.311 242.122 126.857 240.671 125.951C239.22 125.018 238.066 123.709 237.211 122.025C236.382 120.314 235.968 118.345 235.968 116.117ZM252.215 116.155C252.215 114.497 251.748 113.188 250.816 112.23C249.909 111.271 248.794 110.791 247.473 110.791C246.151 110.791 245.024 111.271 244.091 112.23C243.184 113.163 242.731 114.458 242.731 116.117C242.731 117.775 243.184 119.097 244.091 120.081C245.024 121.04 246.151 121.519 247.473 121.519C248.794 121.519 249.909 121.04 250.816 120.081C251.748 119.122 252.215 117.814 252.215 116.155ZM273.543 127.311C271.418 127.311 269.501 126.857 267.79 125.951C266.106 125.044 264.771 123.748 263.787 122.064C262.828 120.379 262.349 118.41 262.349 116.155C262.349 113.927 262.841 111.971 263.826 110.286C264.81 108.576 266.158 107.267 267.868 106.36C269.578 105.453 271.496 105 273.621 105C275.746 105 277.663 105.453 279.373 106.36C281.084 107.267 282.431 108.576 283.416 110.286C284.4 111.971 284.893 113.927 284.893 116.155C284.893 118.384 284.388 120.353 283.377 122.064C282.392 123.748 281.032 125.044 279.296 125.951C277.585 126.857 275.668 127.311 273.543 127.311ZM273.543 121.558C274.813 121.558 275.888 121.092 276.769 120.159C277.676 119.226 278.13 117.892 278.13 116.155C278.13 114.419 277.689 113.085 276.808 112.152C275.953 111.219 274.89 110.753 273.621 110.753C272.325 110.753 271.25 111.219 270.395 112.152C269.539 113.059 269.112 114.393 269.112 116.155C269.112 117.892 269.526 119.226 270.356 120.159C271.211 121.092 272.273 121.558 273.543 121.558ZM296.387 98.1978C299.16 98.1978 301.375 98.9234 303.034 100.374C304.718 101.826 305.56 103.873 305.56 106.516C305.56 108.952 304.757 110.856 303.15 112.23C301.57 113.577 299.471 114.264 296.854 114.29L296.659 117.205H290.829L290.635 109.975H292.967C294.962 109.975 296.478 109.729 297.514 109.237C298.577 108.744 299.108 107.85 299.108 106.555C299.108 105.648 298.862 104.935 298.37 104.417C297.877 103.899 297.19 103.64 296.309 103.64C295.377 103.64 294.651 103.912 294.133 104.456C293.615 104.974 293.355 105.687 293.355 106.594H287.097C287.046 105.013 287.37 103.588 288.069 102.318C288.795 101.048 289.857 100.051 291.256 99.325C292.682 98.5736 294.392 98.1978 296.387 98.1978ZM293.822 127.311C292.656 127.311 291.697 126.974 290.945 126.3C290.22 125.601 289.857 124.746 289.857 123.735C289.857 122.698 290.22 121.83 290.945 121.131C291.697 120.431 292.656 120.081 293.822 120.081C294.962 120.081 295.895 120.431 296.62 121.131C297.372 121.83 297.748 122.698 297.748 123.735C297.748 124.746 297.372 125.601 296.62 126.3C295.895 126.974 294.962 127.311 293.822 127.311Z" fill="#434343"/>
<path d="M85.136 447.767C86.302 447.767 87.2479 448.117 87.9734 448.816C88.7249 449.49 89.1006 450.332 89.1006 451.343C89.1006 452.379 88.7249 453.247 87.9734 453.947C87.2479 454.647 86.302 454.996 85.136 454.996C83.9958 454.996 83.05 454.647 82.2985 453.947C81.5729 453.247 81.2102 452.379 81.2102 451.343C81.2102 450.332 81.5729 449.49 82.2985 448.816C83.05 448.117 83.9958 447.767 85.136 447.767ZM82.5706 476.88C79.7979 476.88 77.5694 476.154 75.8851 474.703C74.2266 473.252 73.3974 471.205 73.3974 468.562C73.3974 466.126 74.1878 464.234 75.7685 462.887C77.3751 461.514 79.487 460.814 82.1042 460.788L82.2985 457.873H88.1289L88.3233 465.102H85.9911C83.9699 465.102 82.4281 465.362 81.3656 465.88C80.3291 466.372 79.8238 467.279 79.8497 468.601C79.8497 469.482 80.0959 470.168 80.5883 470.661C81.1065 471.179 81.7932 471.438 82.6483 471.438C83.5812 471.438 84.3068 471.166 84.825 470.622C85.3433 470.104 85.6024 469.391 85.6024 468.484H91.8604C91.9122 470.065 91.5753 471.49 90.8498 472.76C90.1501 474.029 89.0877 475.027 87.6625 475.753C86.2632 476.504 84.5659 476.88 82.5706 476.88ZM119.033 442.714V470H112.387V458.767H102.047V470H95.4008V442.714H102.047V453.403H112.387V442.714H119.033ZM122.51 459.117C122.51 456.888 122.925 454.932 123.754 453.247C124.609 451.563 125.762 450.267 127.213 449.36C128.664 448.453 130.284 448 132.072 448C133.601 448 134.935 448.311 136.075 448.933C137.242 449.555 138.136 450.371 138.757 451.382V448.311H145.404V470H138.757V466.929C138.11 467.94 137.203 468.756 136.037 469.378C134.896 470 133.562 470.311 132.033 470.311C130.271 470.311 128.664 469.857 127.213 468.951C125.762 468.018 124.609 466.709 123.754 465.025C122.925 463.314 122.51 461.345 122.51 459.117ZM138.757 459.155C138.757 457.497 138.291 456.188 137.358 455.23C136.451 454.271 135.337 453.791 134.015 453.791C132.694 453.791 131.567 454.271 130.634 455.23C129.727 456.163 129.273 457.458 129.273 459.117C129.273 460.775 129.727 462.097 130.634 463.081C131.567 464.04 132.694 464.519 134.015 464.519C135.337 464.519 136.451 464.04 137.358 463.081C138.291 462.122 138.757 460.814 138.757 459.155ZM172.368 448.311L158.764 480.3H151.612L156.587 469.261L147.764 448.311H155.188L160.202 461.876L165.177 448.311H172.368ZM189.655 451.926C190.433 450.734 191.404 449.801 192.571 449.127C193.737 448.428 195.032 448.078 196.457 448.078V455.113H194.631C192.972 455.113 191.728 455.476 190.899 456.201C190.07 456.901 189.655 458.145 189.655 459.933V470H183.009V448.311H189.655V451.926ZM221.051 448.311V470H214.405V467.046C213.731 468.005 212.811 468.782 211.645 469.378C210.505 469.948 209.235 470.233 207.836 470.233C206.177 470.233 204.713 469.87 203.444 469.145C202.174 468.393 201.189 467.318 200.49 465.919C199.79 464.519 199.44 462.874 199.44 460.982V448.311H206.048V460.088C206.048 461.539 206.424 462.667 207.175 463.47C207.927 464.273 208.937 464.675 210.207 464.675C211.503 464.675 212.526 464.273 213.278 463.47C214.029 462.667 214.405 461.539 214.405 460.088V448.311H221.051ZM229.168 446.056C228.002 446.056 227.044 445.72 226.292 445.046C225.567 444.346 225.204 443.491 225.204 442.481C225.204 441.444 225.567 440.589 226.292 439.915C227.044 439.215 228.002 438.866 229.168 438.866C230.309 438.866 231.241 439.215 231.967 439.915C232.719 440.589 233.094 441.444 233.094 442.481C233.094 443.491 232.719 444.346 231.967 445.046C231.241 445.72 230.309 446.056 229.168 446.056ZM232.472 448.311V470H225.826V448.311H232.472ZM235.968 459.117C235.968 456.888 236.382 454.932 237.211 453.247C238.066 451.563 239.22 450.267 240.671 449.36C242.122 448.453 243.741 448 245.529 448C246.955 448 248.25 448.298 249.416 448.894C250.608 449.49 251.541 450.293 252.215 451.304V441.237H258.862V470H252.215V466.89C251.593 467.927 250.699 468.756 249.533 469.378C248.393 470 247.058 470.311 245.529 470.311C243.741 470.311 242.122 469.857 240.671 468.951C239.22 468.018 238.066 466.709 237.211 465.025C236.382 463.314 235.968 461.345 235.968 459.117ZM252.215 459.155C252.215 457.497 251.748 456.188 250.816 455.23C249.909 454.271 248.794 453.791 247.473 453.791C246.151 453.791 245.024 454.271 244.091 455.23C243.184 456.163 242.731 457.458 242.731 459.117C242.731 460.775 243.184 462.097 244.091 463.081C245.024 464.04 246.151 464.519 247.473 464.519C248.794 464.519 249.909 464.04 250.816 463.081C251.748 462.122 252.215 460.814 252.215 459.155ZM273.543 470.311C271.418 470.311 269.501 469.857 267.79 468.951C266.106 468.044 264.771 466.748 263.787 465.064C262.828 463.379 262.349 461.41 262.349 459.155C262.349 456.927 262.841 454.971 263.826 453.286C264.81 451.576 266.158 450.267 267.868 449.36C269.578 448.453 271.496 448 273.621 448C275.746 448 277.663 448.453 279.373 449.36C281.084 450.267 282.431 451.576 283.416 453.286C284.4 454.971 284.893 456.927 284.893 459.155C284.893 461.384 284.388 463.353 283.377 465.064C282.392 466.748 281.032 468.044 279.296 468.951C277.585 469.857 275.668 470.311 273.543 470.311ZM273.543 464.558C274.813 464.558 275.888 464.092 276.769 463.159C277.676 462.226 278.13 460.892 278.13 459.155C278.13 457.419 277.689 456.085 276.808 455.152C275.953 454.219 274.89 453.753 273.621 453.753C272.325 453.753 271.25 454.219 270.395 455.152C269.539 456.059 269.112 457.393 269.112 459.155C269.112 460.892 269.526 462.226 270.356 463.159C271.211 464.092 272.273 464.558 273.543 464.558ZM296.387 441.198C299.16 441.198 301.375 441.923 303.034 443.374C304.718 444.826 305.56 446.873 305.56 449.516C305.56 451.952 304.757 453.856 303.15 455.23C301.57 456.577 299.471 457.264 296.854 457.29L296.659 460.205H290.829L290.635 452.975H292.967C294.962 452.975 296.478 452.729 297.514 452.237C298.577 451.744 299.108 450.85 299.108 449.555C299.108 448.648 298.862 447.935 298.37 447.417C297.877 446.899 297.19 446.64 296.309 446.64C295.377 446.64 294.651 446.912 294.133 447.456C293.615 447.974 293.355 448.687 293.355 449.594H287.097C287.046 448.013 287.37 446.588 288.069 445.318C288.795 444.048 289.857 443.051 291.256 442.325C292.682 441.574 294.392 441.198 296.387 441.198ZM293.822 470.311C292.656 470.311 291.697 469.974 290.945 469.3C290.22 468.601 289.857 467.746 289.857 466.735C289.857 465.698 290.22 464.83 290.945 464.131C291.697 463.431 292.656 463.081 293.822 463.081C294.962 463.081 295.895 463.431 296.62 464.131C297.372 464.83 297.748 465.698 297.748 466.735C297.748 467.746 297.372 468.601 296.62 469.3C295.895 469.974 294.962 470.311 293.822 470.311Z" fill="#434343"/>
<path d="M871.663 230.83C895.778 230.83 915.327 210.944 915.327 186.415C915.327 161.885 895.778 142 871.663 142C847.548 142 828 161.885 828 186.415C828 210.944 847.548 230.83 871.663 230.83Z" fill="#ECFAFF" stroke="#1E5C93" stroke-width="4.98021"/>
<path d="M890.665 214.877H852.647C852.376 214.877 852.113 214.782 851.905 214.608C851.696 214.434 851.556 214.192 851.507 213.925C850.372 207.678 855.351 198.921 867.165 186.411C855.351 173.903 850.372 165.146 851.507 158.899C851.556 158.632 851.697 158.39 851.905 158.216C852.113 158.043 852.376 157.947 852.647 157.947H890.665C890.937 157.947 891.2 158.042 891.408 158.216C891.616 158.39 891.757 158.632 891.805 158.899C892.94 165.146 887.962 173.905 876.147 186.413C887.961 198.921 892.94 207.679 891.805 213.927C891.756 214.194 891.616 214.435 891.408 214.609C891.199 214.783 890.937 214.878 890.665 214.878V214.877ZM853.676 212.561H889.637C889.933 207.029 884.709 198.717 873.714 187.212C873.508 186.996 873.393 186.71 873.393 186.412C873.393 186.114 873.508 185.828 873.714 185.612C884.707 174.105 889.932 165.794 889.636 160.263H853.676C853.38 165.794 858.605 174.107 869.6 185.612C869.806 185.828 869.921 186.114 869.921 186.412C869.921 186.71 869.806 186.996 869.6 187.212C858.606 198.719 853.382 207.03 853.676 212.561Z" fill="#1E5C93" stroke="#1E5C93" stroke-width="1.82202" stroke-miterlimit="10"/>
<path d="M894.056 214.877H849.255C848.948 214.877 848.653 214.755 848.436 214.538C848.219 214.321 848.097 214.027 848.097 213.72C848.097 213.413 848.219 213.118 848.436 212.901C848.653 212.684 848.948 212.562 849.255 212.562H894.056C894.363 212.562 894.657 212.684 894.874 212.901C895.091 213.118 895.213 213.413 895.213 213.72C895.213 214.027 895.091 214.321 894.874 214.538C894.657 214.755 894.363 214.877 894.056 214.877ZM894.056 160.264H849.255C848.948 160.264 848.653 160.142 848.436 159.925C848.219 159.708 848.097 159.413 848.097 159.107C848.097 158.8 848.219 158.505 848.436 158.288C848.653 158.071 848.948 157.949 849.255 157.949H894.056C894.363 157.949 894.657 158.071 894.874 158.288C895.091 158.505 895.213 158.8 895.213 159.107C895.213 159.413 895.091 159.708 894.874 159.925C894.657 160.142 894.363 160.264 894.056 160.264ZM852.858 210.467C852.651 210.467 852.449 210.412 852.271 210.308C852.092 210.203 851.946 210.053 851.845 209.873C851.771 209.74 851.724 209.594 851.706 209.443C851.688 209.292 851.701 209.139 851.742 208.993C851.784 208.847 851.854 208.71 851.948 208.591C852.042 208.472 852.159 208.372 852.292 208.298C852.327 208.279 855.873 206.305 859.996 204.345C865.636 201.664 869.65 200.279 871.93 200.225L872.218 200.221C879.149 200.221 889.869 205.839 890.327 206.081C890.462 206.152 890.581 206.249 890.678 206.366C890.775 206.483 890.848 206.618 890.893 206.763C890.937 206.908 890.953 207.061 890.939 207.213C890.925 207.364 890.881 207.511 890.81 207.645C890.666 207.917 890.421 208.12 890.127 208.211C889.834 208.302 889.517 208.272 889.245 208.13C889.136 208.072 878.3 202.379 871.982 202.54C868.035 202.632 857.244 208.187 853.42 210.32C853.248 210.417 853.054 210.467 852.856 210.467L852.858 210.467ZM872.556 176.966C867.355 176.966 857.639 174.269 857.228 174.153C857.082 174.112 856.945 174.043 856.825 173.949C856.706 173.856 856.605 173.739 856.531 173.607C856.456 173.474 856.408 173.328 856.39 173.177C856.372 173.026 856.383 172.873 856.424 172.727C856.465 172.58 856.534 172.444 856.628 172.324C856.722 172.204 856.838 172.104 856.971 172.03C857.103 171.955 857.249 171.907 857.4 171.889C857.551 171.871 857.704 171.882 857.851 171.923C857.948 171.95 867.672 174.65 872.554 174.65C877.437 174.65 884.041 174.07 884.105 174.065C884.41 174.038 884.714 174.134 884.949 174.33C885.185 174.527 885.333 174.808 885.362 175.113C885.389 175.419 885.294 175.723 885.098 175.959C884.901 176.195 884.619 176.343 884.313 176.37C884.248 176.377 877.65 176.966 872.556 176.966V176.966ZM871.656 192.182C871.421 192.182 871.191 192.11 870.998 191.977C870.804 191.843 870.656 191.654 870.572 191.435C870.565 191.414 869.712 189.217 867.894 187.185C867.69 186.956 867.584 186.656 867.601 186.349C867.618 186.043 867.755 185.755 867.984 185.55C868.213 185.346 868.513 185.24 868.82 185.257C869.126 185.274 869.414 185.411 869.619 185.64C871.737 188.006 872.699 190.509 872.739 190.614C872.805 190.789 872.828 190.978 872.805 191.164C872.783 191.35 872.715 191.528 872.609 191.682C872.502 191.836 872.36 191.963 872.194 192.05C872.028 192.137 871.843 192.182 871.656 192.182V192.182Z" fill="#1E5C93" stroke="#1E5C93" stroke-width="1.82202" stroke-miterlimit="10"/>
<path d="M871.656 192.182C871.516 192.181 871.377 192.156 871.246 192.106C870.959 191.997 870.727 191.779 870.601 191.499C870.475 191.219 870.465 190.9 870.573 190.613C870.613 190.508 871.574 188.005 873.693 185.639C873.795 185.526 873.917 185.434 874.054 185.368C874.192 185.302 874.34 185.264 874.492 185.256C874.644 185.247 874.796 185.269 874.939 185.319C875.083 185.37 875.215 185.448 875.328 185.549C875.441 185.651 875.533 185.774 875.599 185.911C875.665 186.048 875.703 186.197 875.711 186.348C875.72 186.5 875.698 186.652 875.648 186.796C875.597 186.939 875.519 187.071 875.418 187.184C873.584 189.231 872.747 191.412 872.739 191.434C872.656 191.653 872.508 191.843 872.314 191.976C872.121 192.11 871.891 192.181 871.656 192.181V192.182ZM871.957 196.969C871.805 196.969 871.655 196.94 871.514 196.881C871.374 196.823 871.246 196.738 871.139 196.631C871.031 196.523 870.946 196.395 870.888 196.255C870.83 196.115 870.8 195.964 870.8 195.812V195.739C870.8 195.432 870.922 195.138 871.139 194.921C871.356 194.704 871.65 194.582 871.957 194.582C872.264 194.582 872.559 194.704 872.776 194.921C872.993 195.138 873.115 195.432 873.115 195.739V195.812C873.115 195.964 873.085 196.115 873.026 196.255C872.968 196.395 872.883 196.523 872.776 196.631C872.668 196.738 872.54 196.823 872.4 196.881C872.26 196.94 872.109 196.969 871.957 196.969Z" fill="#1E5C93" stroke="#1E5C93" stroke-width="1.82202" stroke-miterlimit="10"/>
<path d="M433.663 589.83C457.778 589.83 477.327 569.944 477.327 545.415C477.327 520.885 457.778 501 433.663 501C409.548 501 390 520.885 390 545.415C390 569.944 409.548 589.83 433.663 589.83Z" fill="#ECFAFF" stroke="#1E5C93" stroke-width="4.98021"/>
<path d="M452.665 573.877H414.647C414.376 573.877 414.113 573.782 413.905 573.608C413.696 573.434 413.556 573.192 413.507 572.925C412.372 566.678 417.351 557.921 429.165 545.411C417.351 532.903 412.372 524.146 413.507 517.899C413.556 517.632 413.697 517.39 413.905 517.216C414.113 517.043 414.376 516.947 414.647 516.947H452.665C452.937 516.947 453.2 517.042 453.408 517.216C453.616 517.39 453.757 517.632 453.805 517.899C454.94 524.146 449.962 532.905 438.147 545.413C449.961 557.921 454.94 566.679 453.805 572.927C453.756 573.194 453.616 573.435 453.408 573.609C453.199 573.783 452.937 573.878 452.665 573.878V573.877ZM415.676 571.561H451.637C451.933 566.029 446.709 557.717 435.714 546.212C435.508 545.996 435.393 545.71 435.393 545.412C435.393 545.114 435.508 544.828 435.714 544.612C446.707 533.105 451.932 524.794 451.636 519.263H415.676C415.38 524.794 420.605 533.107 431.6 544.612C431.806 544.828 431.921 545.114 431.921 545.412C431.921 545.71 431.806 545.996 431.6 546.212C420.606 557.719 415.382 566.03 415.676 571.561Z" fill="#1E5C93" stroke="#1E5C93" stroke-width="1.82202" stroke-miterlimit="10"/>
<path d="M456.056 573.877H411.255C410.948 573.877 410.653 573.755 410.436 573.538C410.219 573.321 410.097 573.027 410.097 572.72C410.097 572.413 410.219 572.118 410.436 571.901C410.653 571.684 410.948 571.562 411.255 571.562H456.056C456.363 571.562 456.657 571.684 456.874 571.901C457.091 572.118 457.213 572.413 457.213 572.72C457.213 573.027 457.091 573.321 456.874 573.538C456.657 573.755 456.363 573.877 456.056 573.877ZM456.056 519.264H411.255C410.948 519.264 410.653 519.142 410.436 518.925C410.219 518.708 410.097 518.413 410.097 518.107C410.097 517.8 410.219 517.505 410.436 517.288C410.653 517.071 410.948 516.949 411.255 516.949H456.056C456.363 516.949 456.657 517.071 456.874 517.288C457.091 517.505 457.213 517.8 457.213 518.107C457.213 518.413 457.091 518.708 456.874 518.925C456.657 519.142 456.363 519.264 456.056 519.264ZM414.858 569.467C414.651 569.467 414.449 569.412 414.271 569.308C414.092 569.203 413.946 569.053 413.845 568.873C413.771 568.74 413.724 568.594 413.706 568.443C413.688 568.292 413.701 568.139 413.742 567.993C413.784 567.847 413.854 567.71 413.948 567.591C414.042 567.472 414.159 567.372 414.292 567.298C414.327 567.279 417.873 565.305 421.996 563.345C427.636 560.664 431.65 559.279 433.93 559.225L434.218 559.221C441.149 559.221 451.869 564.839 452.327 565.081C452.462 565.152 452.581 565.249 452.678 565.366C452.775 565.483 452.848 565.618 452.893 565.763C452.937 565.908 452.953 566.061 452.939 566.213C452.925 566.364 452.881 566.511 452.81 566.645C452.666 566.917 452.421 567.12 452.127 567.211C451.834 567.302 451.517 567.272 451.245 567.13C451.136 567.072 440.3 561.379 433.982 561.54C430.035 561.632 419.244 567.187 415.42 569.32C415.248 569.417 415.054 569.467 414.856 569.467L414.858 569.467ZM434.556 535.966C429.355 535.966 419.639 533.269 419.228 533.153C419.082 533.112 418.945 533.043 418.825 532.949C418.706 532.856 418.605 532.739 418.531 532.607C418.456 532.474 418.408 532.328 418.39 532.177C418.372 532.026 418.383 531.873 418.424 531.727C418.465 531.58 418.534 531.444 418.628 531.324C418.722 531.204 418.838 531.104 418.971 531.03C419.103 530.955 419.249 530.907 419.4 530.889C419.551 530.871 419.704 530.882 419.851 530.923C419.948 530.95 429.672 533.65 434.554 533.65C439.437 533.65 446.041 533.07 446.105 533.065C446.41 533.038 446.714 533.134 446.949 533.33C447.185 533.527 447.333 533.808 447.362 534.113C447.389 534.419 447.294 534.723 447.098 534.959C446.901 535.195 446.619 535.343 446.313 535.37C446.248 535.377 439.65 535.966 434.556 535.966V535.966ZM433.656 551.182C433.421 551.182 433.191 551.11 432.998 550.977C432.804 550.843 432.656 550.654 432.572 550.435C432.565 550.414 431.712 548.217 429.894 546.185C429.69 545.956 429.584 545.656 429.601 545.349C429.618 545.043 429.755 544.755 429.984 544.55C430.213 544.346 430.513 544.24 430.82 544.257C431.126 544.274 431.414 544.411 431.619 544.64C433.737 547.006 434.699 549.509 434.739 549.614C434.805 549.789 434.828 549.978 434.805 550.164C434.783 550.35 434.715 550.528 434.609 550.682C434.502 550.836 434.36 550.963 434.194 551.05C434.028 551.137 433.843 551.182 433.656 551.182V551.182Z" fill="#1E5C93" stroke="#1E5C93" stroke-width="1.82202" stroke-miterlimit="10"/>
<path d="M433.656 551.182C433.516 551.181 433.377 551.156 433.246 551.106C432.959 550.997 432.727 550.779 432.601 550.499C432.475 550.219 432.465 549.9 432.573 549.613C432.613 549.508 433.574 547.005 435.693 544.639C435.795 544.526 435.917 544.434 436.054 544.368C436.192 544.302 436.34 544.264 436.492 544.256C436.644 544.247 436.796 544.269 436.939 544.319C437.083 544.37 437.215 544.448 437.328 544.549C437.441 544.651 437.533 544.774 437.599 544.911C437.665 545.048 437.703 545.197 437.711 545.348C437.72 545.5 437.698 545.652 437.648 545.796C437.597 545.939 437.519 546.071 437.418 546.184C435.584 548.231 434.747 550.412 434.739 550.434C434.656 550.653 434.508 550.843 434.314 550.976C434.121 551.11 433.891 551.181 433.656 551.181V551.182ZM433.957 555.969C433.805 555.969 433.655 555.94 433.514 555.881C433.374 555.823 433.246 555.738 433.139 555.631C433.031 555.523 432.946 555.395 432.888 555.255C432.83 555.115 432.8 554.964 432.8 554.812V554.739C432.8 554.432 432.922 554.138 433.139 553.921C433.356 553.704 433.65 553.582 433.957 553.582C434.264 553.582 434.559 553.704 434.776 553.921C434.993 554.138 435.115 554.432 435.115 554.739V554.812C435.115 554.964 435.085 555.115 435.026 555.255C434.968 555.395 434.883 555.523 434.776 555.631C434.668 555.738 434.54 555.823 434.4 555.881C434.26 555.94 434.109 555.969 433.957 555.969Z" fill="#1E5C93" stroke="#1E5C93" stroke-width="1.82202" stroke-miterlimit="10"/>
<path d="M1057.44 169.501L1077 189.058L1096.46 169.602C1096.89 169.145 1097.4 168.779 1097.98 168.526C1098.55 168.274 1099.17 168.14 1099.8 168.133C1101.14 168.133 1102.43 168.667 1103.38 169.617C1104.33 170.567 1104.87 171.856 1104.87 173.199C1104.88 173.821 1104.76 174.438 1104.53 175.013C1104.29 175.588 1103.94 176.109 1103.5 176.543L1083.79 195.999L1103.5 215.709C1104.33 216.526 1104.82 217.632 1104.87 218.799C1104.87 220.143 1104.33 221.432 1103.38 222.382C1102.43 223.332 1101.14 223.866 1099.8 223.866C1099.15 223.893 1098.51 223.785 1097.91 223.55C1097.31 223.314 1096.76 222.956 1096.3 222.498L1077 202.941L1057.49 222.447C1057.07 222.89 1056.55 223.243 1055.99 223.486C1055.42 223.73 1054.82 223.859 1054.2 223.866C1052.86 223.866 1051.57 223.332 1050.62 222.382C1049.67 221.432 1049.13 220.143 1049.13 218.799C1049.12 218.178 1049.24 217.561 1049.47 216.986C1049.71 216.411 1050.06 215.89 1050.5 215.455L1070.21 195.999L1050.5 176.29C1049.67 175.473 1049.18 174.367 1049.13 173.199C1049.13 171.856 1049.67 170.567 1050.62 169.617C1051.57 168.667 1052.86 168.133 1054.2 168.133C1055.42 168.148 1056.58 168.639 1057.44 169.501Z" fill="#CE393C"/>
<path d="M1057.44 512.501L1077 532.058L1096.46 512.602C1096.89 512.145 1097.4 511.779 1097.98 511.526C1098.55 511.274 1099.17 511.14 1099.8 511.133C1101.14 511.133 1102.43 511.667 1103.38 512.617C1104.33 513.567 1104.87 514.856 1104.87 516.199C1104.88 516.821 1104.76 517.438 1104.53 518.013C1104.29 518.588 1103.94 519.109 1103.5 519.543L1083.79 538.999L1103.5 558.709C1104.33 559.526 1104.82 560.632 1104.87 561.799C1104.87 563.143 1104.33 564.432 1103.38 565.382C1102.43 566.332 1101.14 566.866 1099.8 566.866C1099.15 566.893 1098.51 566.785 1097.91 566.55C1097.31 566.314 1096.76 565.956 1096.3 565.498L1077 545.941L1057.49 565.447C1057.07 565.89 1056.55 566.243 1055.99 566.486C1055.42 566.73 1054.82 566.859 1054.2 566.866C1052.86 566.866 1051.57 566.332 1050.62 565.382C1049.67 564.432 1049.13 563.143 1049.13 561.799C1049.12 561.178 1049.24 560.561 1049.47 559.986C1049.71 559.411 1050.06 558.89 1050.5 558.455L1070.21 538.999L1050.5 519.29C1049.67 518.473 1049.18 517.367 1049.13 516.199C1049.13 514.856 1049.67 513.567 1050.62 512.617C1051.57 511.667 1052.86 511.133 1054.2 511.133C1055.42 511.148 1056.58 511.639 1057.44 512.501Z" fill="#CE393C"/>
<path d="M170.443 169.501L190 189.058L209.456 169.602C209.886 169.145 210.404 168.779 210.978 168.526C211.553 168.274 212.172 168.14 212.8 168.133C214.144 168.133 215.433 168.667 216.383 169.617C217.333 170.567 217.867 171.856 217.867 173.199C217.879 173.821 217.763 174.438 217.528 175.013C217.293 175.588 216.943 176.109 216.499 176.543L196.789 195.999L216.499 215.709C217.334 216.526 217.823 217.632 217.867 218.799C217.867 220.143 217.333 221.432 216.383 222.382C215.433 223.332 214.144 223.866 212.8 223.866C212.154 223.893 211.51 223.785 210.908 223.55C210.306 223.314 209.76 222.956 209.304 222.498L190 202.941L170.493 222.447C170.065 222.89 169.554 223.243 168.989 223.486C168.423 223.73 167.815 223.859 167.2 223.866C165.856 223.866 164.568 223.332 163.617 222.382C162.667 221.432 162.133 220.143 162.133 218.799C162.122 218.178 162.237 217.561 162.472 216.986C162.707 216.411 163.058 215.89 163.501 215.455L183.211 195.999L163.501 176.29C162.666 175.473 162.177 174.367 162.133 173.199C162.133 171.856 162.667 170.567 163.617 169.617C164.568 168.667 165.856 168.133 167.2 168.133C168.416 168.148 169.581 168.639 170.443 169.501Z" fill="#CE393C"/>
<path d="M170.443 512.501L190 532.058L209.456 512.602C209.886 512.145 210.404 511.779 210.978 511.526C211.553 511.274 212.172 511.14 212.8 511.133C214.144 511.133 215.433 511.667 216.383 512.617C217.333 513.567 217.867 514.856 217.867 516.199C217.879 516.821 217.763 517.438 217.528 518.013C217.293 518.588 216.943 519.109 216.499 519.543L196.789 538.999L216.499 558.709C217.334 559.526 217.823 560.632 217.867 561.799C217.867 563.143 217.333 564.432 216.383 565.382C215.433 566.332 214.144 566.866 212.8 566.866C212.154 566.893 211.51 566.785 210.908 566.55C210.306 566.314 209.76 565.956 209.304 565.498L190 545.941L170.493 565.447C170.065 565.89 169.554 566.243 168.989 566.486C168.423 566.73 167.815 566.859 167.2 566.866C165.856 566.866 164.568 566.332 163.617 565.382C162.667 564.432 162.133 563.143 162.133 561.799C162.122 561.178 162.237 560.561 162.472 559.986C162.707 559.411 163.058 558.89 163.501 558.455L183.211 538.999L163.501 519.29C162.666 518.473 162.177 517.367 162.133 516.199C162.133 514.856 162.667 513.567 163.617 512.617C164.568 511.667 165.856 511.133 167.2 511.133C168.416 511.148 169.581 511.639 170.443 512.501Z" fill="#CE393C"/>
</g>
<defs>
<filter id="filter0_di_457_26" x="558.901" y="362.773" width="54.6453" height="25.8145" filterUnits="userSpaceOnUse" color-interpolation-filters="sRGB">
<feFlood flood-opacity="0" result="BackgroundImageFix"/>
<feColorMatrix in="SourceAlpha" type="matrix" values="0 0 0 0 0 0 0 0 0 0 0 0 0 0 0 0 0 0 127 0" result="hardAlpha"/>
<feOffset dy="4"/>
<feGaussianBlur stdDeviation="2"/>
<feComposite in2="hardAlpha" operator="out"/>
<feColorMatrix type="matrix" values="0 0 0 0 0 0 0 0 0 0 0 0 0 0 0 0 0 0 0.25 0"/>
<feBlend mode="normal" in2="BackgroundImageFix" result="effect1_dropShadow_457_26"/>
<feBlend mode="normal" in="SourceGraphic" in2="effect1_dropShadow_457_26" result="shape"/>
<feColorMatrix in="SourceAlpha" type="matrix" values="0 0 0 0 0 0 0 0 0 0 0 0 0 0 0 0 0 0 127 0" result="hardAlpha"/>
<feOffset dy="4"/>
<feGaussianBlur stdDeviation="2"/>
<feComposite in2="hardAlpha" operator="arithmetic" k2="-1" k3="1"/>
<feColorMatrix type="matrix" values="0 0 0 0 0 0 0 0 0 0 0 0 0 0 0 0 0 0 0.25 0"/>
<feBlend mode="normal" in2="shape" result="effect2_innerShadow_457_26"/>
</filter>
<filter id="filter1_di_457_26" x="667.327" y="362.773" width="54.6453" height="25.8145" filterUnits="userSpaceOnUse" color-interpolation-filters="sRGB">
<feFlood flood-opacity="0" result="BackgroundImageFix"/>
<feColorMatrix in="SourceAlpha" type="matrix" values="0 0 0 0 0 0 0 0 0 0 0 0 0 0 0 0 0 0 127 0" result="hardAlpha"/>
<feOffset dy="4"/>
<feGaussianBlur stdDeviation="2"/>
<feComposite in2="hardAlpha" operator="out"/>
<feColorMatrix type="matrix" values="0 0 0 0 0 0 0 0 0 0 0 0 0 0 0 0 0 0 0.25 0"/>
<feBlend mode="normal" in2="BackgroundImageFix" result="effect1_dropShadow_457_26"/>
<feBlend mode="normal" in="SourceGraphic" in2="effect1_dropShadow_457_26" result="shape"/>
<feColorMatrix in="SourceAlpha" type="matrix" values="0 0 0 0 0 0 0 0 0 0 0 0 0 0 0 0 0 0 127 0" result="hardAlpha"/>
<feOffset dy="4"/>
<feGaussianBlur stdDeviation="2"/>
<feComposite in2="hardAlpha" operator="arithmetic" k2="-1" k3="1"/>
<feColorMatrix type="matrix" values="0 0 0 0 0 0 0 0 0 0 0 0 0 0 0 0 0 0 0.25 0"/>
<feBlend mode="normal" in2="shape" result="effect2_innerShadow_457_26"/>
</filter>
<filter id="filter2_di_457_26" x="619.39" y="396.248" width="43.8857" height="20.0117" filterUnits="userSpaceOnUse" color-interpolation-filters="sRGB">
<feFlood flood-opacity="0" result="BackgroundImageFix"/>
<feColorMatrix in="SourceAlpha" type="matrix" values="0 0 0 0 0 0 0 0 0 0 0 0 0 0 0 0 0 0 127 0" result="hardAlpha"/>
<feOffset dy="4"/>
<feGaussianBlur stdDeviation="2"/>
<feComposite in2="hardAlpha" operator="out"/>
<feColorMatrix type="matrix" values="0 0 0 0 0 0 0 0 0 0 0 0 0 0 0 0 0 0 0.25 0"/>
<feBlend mode="normal" in2="BackgroundImageFix" result="effect1_dropShadow_457_26"/>
<feBlend mode="normal" in="SourceGraphic" in2="effect1_dropShadow_457_26" result="shape"/>
<feColorMatrix in="SourceAlpha" type="matrix" values="0 0 0 0 0 0 0 0 0 0 0 0 0 0 0 0 0 0 127 0" result="hardAlpha"/>
<feOffset dy="4"/>
<feGaussianBlur stdDeviation="2"/>
<feComposite in2="hardAlpha" operator="arithmetic" k2="-1" k3="1"/>
<feColorMatrix type="matrix" values="0 0 0 0 0 0 0 0 0 0 0 0 0 0 0 0 0 0 0.25 0"/>
<feBlend mode="normal" in2="shape" result="effect2_innerShadow_457_26"/>
</filter>
<filter id="filter3_d_457_26" x="578.55" y="331.67" width="35.6907" height="19.4043" filterUnits="userSpaceOnUse" color-interpolation-filters="sRGB">
<feFlood flood-opacity="0" result="BackgroundImageFix"/>
<feColorMatrix in="SourceAlpha" type="matrix" values="0 0 0 0 0 0 0 0 0 0 0 0 0 0 0 0 0 0 127 0" result="hardAlpha"/>
<feOffset dy="4"/>
<feGaussianBlur stdDeviation="2"/>
<feComposite in2="hardAlpha" operator="out"/>
<feColorMatrix type="matrix" values="0 0 0 0 0 0 0 0 0 0 0 0 0 0 0 0 0 0 0.25 0"/>
<feBlend mode="normal" in2="BackgroundImageFix" result="effect1_dropShadow_457_26"/>
<feBlend mode="normal" in="SourceGraphic" in2="effect1_dropShadow_457_26" result="shape"/>
</filter>
<filter id="filter4_d_457_26" x="657.015" y="331.67" width="35.6907" height="19.4043" filterUnits="userSpaceOnUse" color-interpolation-filters="sRGB">
<feFlood flood-opacity="0" result="BackgroundImageFix"/>
<feColorMatrix in="SourceAlpha" type="matrix" values="0 0 0 0 0 0 0 0 0 0 0 0 0 0 0 0 0 0 127 0" result="hardAlpha"/>
<feOffset dy="4"/>
<feGaussianBlur stdDeviation="2"/>
<feComposite in2="hardAlpha" operator="out"/>
<feColorMatrix type="matrix" values="0 0 0 0 0 0 0 0 0 0 0 0 0 0 0 0 0 0 0.25 0"/>
<feBlend mode="normal" in2="BackgroundImageFix" result="effect1_dropShadow_457_26"/>
<feBlend mode="normal" in="SourceGraphic" in2="effect1_dropShadow_457_26" result="shape"/>
</filter>
<linearGradient id="paint0_linear_457_26" x1="785.193" y1="283.641" x2="791.028" y2="435.149" gradientUnits="userSpaceOnUse">
<stop stop-color="#3E3E3E"/>
<stop offset="1" stop-color="#717171"/>
</linearGradient>
<linearGradient id="paint1_linear_457_26" x1="488.73" y1="294.418" x2="493.921" y2="446.818" gradientUnits="userSpaceOnUse">
<stop stop-color="#3E3E3E"/>
<stop offset="1" stop-color="#717171"/>
</linearGradient>
<linearGradient id="paint2_linear_457_26" x1="637.534" y1="292.488" x2="637.534" y2="445.13" gradientUnits="userSpaceOnUse">
<stop stop-color="#D9D9D9"/>
<stop offset="1" stop-color="#CAB6B6"/>
</linearGradient>
<linearGradient id="paint3_linear_457_26" x1="595.712" y1="333.205" x2="597.154" y2="348.07" gradientUnits="userSpaceOnUse">
<stop stop-color="#454545"/>
<stop offset="1" stop-color="#656565"/>
</linearGradient>
<linearGradient id="paint4_linear_457_26" x1="675.544" y1="333.205" x2="674.102" y2="348.07" gradientUnits="userSpaceOnUse">
<stop stop-color="#454545"/>
<stop offset="1" stop-color="#656565"/>
</linearGradient>
<clipPath id="clip0_457_26">
<rect width="1280" height="720" fill="white"/>
</clipPath>
</defs>
</svg>
