<svg width="1280" height="720" viewBox="0 0 1280 720" fill="none" xmlns="http://www.w3.org/2000/svg">
<g clip-path="url(#clip0_224_129)">
<rect width="1280" height="720" fill="#ECFAFF"/>
<path d="M0 0H1279.99V719.999H0V0Z" fill="#ECFAFF"/>
<path d="M165.535 114.039V119.558H174.436V124.689H165.535V130.675H175.602V136H158.889V108.714H175.602V114.039H165.535ZM189.674 129.781L194.377 114.311H201.451L193.755 136H185.554L177.857 114.311H184.97L189.674 129.781ZM224.694 124.806C224.694 125.428 224.655 126.075 224.577 126.749H209.535C209.639 128.097 210.066 129.133 210.818 129.859C211.595 130.558 212.541 130.908 213.655 130.908C215.314 130.908 216.467 130.208 217.115 128.809H224.189C223.826 130.234 223.165 131.517 222.206 132.657C221.274 133.797 220.095 134.691 218.669 135.339C217.244 135.987 215.65 136.311 213.888 136.311C211.764 136.311 209.872 135.857 208.213 134.951C206.555 134.044 205.259 132.748 204.327 131.064C203.394 129.379 202.927 127.41 202.927 125.155C202.927 122.901 203.381 120.932 204.288 119.247C205.221 117.563 206.516 116.267 208.175 115.36C209.833 114.453 211.738 114 213.888 114C215.987 114 217.853 114.44 219.486 115.322C221.118 116.203 222.388 117.459 223.295 119.092C224.228 120.724 224.694 122.629 224.694 124.806ZM217.892 123.057C217.892 121.916 217.503 121.009 216.726 120.336C215.948 119.662 214.977 119.325 213.811 119.325C212.696 119.325 211.751 119.649 210.973 120.297C210.222 120.945 209.755 121.865 209.574 123.057H217.892ZM241.416 114.078C243.956 114.078 245.977 114.907 247.48 116.565C249.009 118.198 249.773 120.452 249.773 123.329V136H243.165V124.223C243.165 122.771 242.789 121.644 242.038 120.841C241.287 120.038 240.276 119.636 239.006 119.636C237.736 119.636 236.726 120.038 235.974 120.841C235.223 121.644 234.847 122.771 234.847 124.223V136H228.2V114.311H234.847V117.187C235.521 116.228 236.428 115.477 237.568 114.933C238.708 114.363 239.991 114.078 241.416 114.078ZM266.48 130.364V136H263.098C260.689 136 258.81 135.417 257.462 134.251C256.115 133.059 255.441 131.128 255.441 128.459V119.83H252.798V114.311H255.441V109.025H262.088V114.311H266.441V119.83H262.088V128.537C262.088 129.185 262.243 129.651 262.554 129.936C262.865 130.221 263.384 130.364 264.109 130.364H266.48ZM280.055 136.311C277.93 136.311 276.013 135.857 274.303 134.951C272.618 134.044 271.284 132.748 270.299 131.064C269.34 129.379 268.861 127.41 268.861 125.155C268.861 122.927 269.353 120.971 270.338 119.286C271.323 117.576 272.67 116.267 274.38 115.36C276.091 114.453 278.008 114 280.133 114C282.258 114 284.175 114.453 285.886 115.36C287.596 116.267 288.943 117.576 289.928 119.286C290.913 120.971 291.405 122.927 291.405 125.155C291.405 127.384 290.9 129.353 289.889 131.064C288.904 132.748 287.544 134.044 285.808 134.951C284.098 135.857 282.18 136.311 280.055 136.311ZM280.055 130.558C281.325 130.558 282.4 130.092 283.281 129.159C284.188 128.226 284.642 126.892 284.642 125.155C284.642 123.419 284.201 122.085 283.32 121.152C282.465 120.219 281.403 119.753 280.133 119.753C278.837 119.753 277.762 120.219 276.907 121.152C276.052 122.059 275.624 123.393 275.624 125.155C275.624 126.892 276.039 128.226 276.868 129.159C277.723 130.092 278.785 130.558 280.055 130.558Z" fill="#1A3567"/>
<path d="M989.847 131.18H979.664L978.031 136H971.073L980.946 108.714H988.642L998.515 136H991.48L989.847 131.18ZM988.137 126.049L984.755 116.06L981.413 126.049H988.137ZM1000.2 125.155C1000.2 122.901 1000.65 120.932 1001.56 119.247C1002.49 117.563 1003.77 116.267 1005.41 115.36C1007.07 114.453 1008.96 114 1011.08 114C1013.8 114 1016.07 114.713 1017.88 116.138C1019.72 117.563 1020.93 119.571 1021.5 122.163H1014.42C1013.83 120.504 1012.68 119.675 1010.97 119.675C1009.75 119.675 1008.78 120.154 1008.05 121.113C1007.32 122.046 1006.96 123.393 1006.96 125.155C1006.96 126.918 1007.32 128.278 1008.05 129.237C1008.78 130.17 1009.75 130.636 1010.97 130.636C1012.68 130.636 1013.83 129.807 1014.42 128.148H1021.5C1020.93 130.688 1019.72 132.683 1017.88 134.134C1016.04 135.585 1013.78 136.311 1011.08 136.311C1008.96 136.311 1007.07 135.857 1005.41 134.951C1003.77 134.044 1002.49 132.748 1001.56 131.064C1000.65 129.379 1000.2 127.41 1000.2 125.155ZM1037.14 130.364V136H1033.76C1031.35 136 1029.47 135.417 1028.12 134.251C1026.78 133.059 1026.1 131.128 1026.1 128.459V119.83H1023.46V114.311H1026.1V109.025H1032.75V114.311H1037.1V119.83H1032.75V128.537C1032.75 129.185 1032.91 129.651 1033.22 129.936C1033.53 130.221 1034.05 130.364 1034.77 130.364H1037.14ZM1044.19 112.056C1043.02 112.056 1042.06 111.72 1041.31 111.046C1040.59 110.346 1040.22 109.491 1040.22 108.481C1040.22 107.444 1040.59 106.589 1041.31 105.915C1042.06 105.215 1043.02 104.866 1044.19 104.866C1045.33 104.866 1046.26 105.215 1046.99 105.915C1047.74 106.589 1048.11 107.444 1048.11 108.481C1048.11 109.491 1047.74 110.346 1046.99 111.046C1046.26 111.72 1045.33 112.056 1044.19 112.056ZM1047.49 114.311V136H1040.84V114.311H1047.49ZM1062.06 129.781L1066.77 114.311H1073.84L1066.15 136H1057.94L1050.25 114.311H1057.36L1062.06 129.781ZM1075.32 125.117C1075.32 122.888 1075.73 120.932 1076.56 119.247C1077.42 117.563 1078.57 116.267 1080.02 115.36C1081.47 114.453 1083.09 114 1084.88 114C1086.41 114 1087.74 114.311 1088.88 114.933C1090.05 115.555 1090.94 116.371 1091.57 117.382V114.311H1098.21V136H1091.57V132.929C1090.92 133.94 1090.01 134.756 1088.84 135.378C1087.7 136 1086.37 136.311 1084.84 136.311C1083.08 136.311 1081.47 135.857 1080.02 134.951C1078.57 134.018 1077.42 132.709 1076.56 131.025C1075.73 129.314 1075.32 127.345 1075.32 125.117ZM1091.57 125.155C1091.57 123.497 1091.1 122.188 1090.17 121.23C1089.26 120.271 1088.14 119.791 1086.82 119.791C1085.5 119.791 1084.37 120.271 1083.44 121.23C1082.53 122.163 1082.08 123.458 1082.08 125.117C1082.08 126.775 1082.53 128.097 1083.44 129.081C1084.37 130.04 1085.5 130.519 1086.82 130.519C1088.14 130.519 1089.26 130.04 1090.17 129.081C1091.1 128.122 1091.57 126.814 1091.57 125.155ZM1101.7 125.155C1101.7 122.901 1102.15 120.932 1103.06 119.247C1103.99 117.563 1105.28 116.267 1106.91 115.36C1108.57 114.453 1110.46 114 1112.58 114C1115.3 114 1117.57 114.713 1119.38 116.138C1121.22 117.563 1122.43 119.571 1123 122.163H1115.93C1115.33 120.504 1114.18 119.675 1112.47 119.675C1111.25 119.675 1110.28 120.154 1109.55 121.113C1108.83 122.046 1108.46 123.393 1108.46 125.155C1108.46 126.918 1108.83 128.278 1109.55 129.237C1110.28 130.17 1111.25 130.636 1112.47 130.636C1114.18 130.636 1115.33 129.807 1115.93 128.148H1123C1122.43 130.688 1121.22 132.683 1119.38 134.134C1117.54 135.585 1115.28 136.311 1112.58 136.311C1110.46 136.311 1108.57 135.857 1106.91 134.951C1105.28 134.044 1103.99 132.748 1103.06 131.064C1102.15 129.379 1101.7 127.41 1101.7 125.155ZM1129.9 112.056C1128.73 112.056 1127.77 111.72 1127.02 111.046C1126.3 110.346 1125.93 109.491 1125.93 108.481C1125.93 107.444 1126.3 106.589 1127.02 105.915C1127.77 105.215 1128.73 104.866 1129.9 104.866C1131.04 104.866 1131.97 105.215 1132.7 105.915C1133.45 106.589 1133.82 107.444 1133.82 108.481C1133.82 109.491 1133.45 110.346 1132.7 111.046C1131.97 111.72 1131.04 112.056 1129.9 112.056ZM1133.2 114.311V136H1126.55V114.311H1133.2ZM1147.89 136.311C1145.77 136.311 1143.85 135.857 1142.14 134.951C1140.45 134.044 1139.12 132.748 1138.13 131.064C1137.18 129.379 1136.7 127.41 1136.7 125.155C1136.7 122.927 1137.19 120.971 1138.17 119.286C1139.16 117.576 1140.51 116.267 1142.22 115.36C1143.93 114.453 1145.84 114 1147.97 114C1150.09 114 1152.01 114.453 1153.72 115.36C1155.43 116.267 1156.78 117.576 1157.76 119.286C1158.75 120.971 1159.24 122.927 1159.24 125.155C1159.24 127.384 1158.74 129.353 1157.72 131.064C1156.74 132.748 1155.38 134.044 1153.64 134.951C1151.93 135.857 1150.02 136.311 1147.89 136.311ZM1147.89 130.558C1149.16 130.558 1150.24 130.092 1151.12 129.159C1152.02 128.226 1152.48 126.892 1152.48 125.155C1152.48 123.419 1152.04 122.085 1151.16 121.152C1150.3 120.219 1149.24 119.753 1147.97 119.753C1146.67 119.753 1145.6 120.219 1144.74 121.152C1143.89 122.059 1143.46 123.393 1143.46 125.155C1143.46 126.892 1143.87 128.226 1144.7 129.159C1145.56 130.092 1146.62 130.558 1147.89 130.558ZM1153.02 108.753L1143.65 112.678V108.092L1153.02 103.583V108.753ZM1175.98 114.078C1178.52 114.078 1180.54 114.907 1182.05 116.565C1183.58 118.198 1184.34 120.452 1184.34 123.329V136H1177.73V124.223C1177.73 122.771 1177.36 121.644 1176.6 120.841C1175.85 120.038 1174.84 119.636 1173.57 119.636C1172.3 119.636 1171.29 120.038 1170.54 120.841C1169.79 121.644 1169.41 122.771 1169.41 124.223V136H1162.77V114.311H1169.41V117.187C1170.09 116.228 1170.99 115.477 1172.13 114.933C1173.27 114.363 1174.56 114.078 1175.98 114.078Z" fill="#1A3567"/>
<path d="M552.417 136.272C550.422 136.272 548.634 135.948 547.053 135.3C545.472 134.653 544.203 133.694 543.244 132.424C542.311 131.154 541.819 129.625 541.767 127.837H548.841C548.945 128.848 549.294 129.625 549.89 130.17C550.486 130.688 551.264 130.947 552.223 130.947C553.207 130.947 553.985 130.727 554.555 130.286C555.125 129.82 555.41 129.185 555.41 128.382C555.41 127.708 555.177 127.151 554.71 126.71C554.27 126.27 553.713 125.907 553.039 125.622C552.391 125.337 551.458 125.013 550.24 124.65C548.478 124.106 547.04 123.562 545.926 123.018C544.812 122.473 543.853 121.67 543.049 120.608C542.246 119.545 541.845 118.159 541.845 116.449C541.845 113.909 542.764 111.927 544.604 110.502C546.444 109.051 548.841 108.325 551.795 108.325C554.801 108.325 557.224 109.051 559.064 110.502C560.903 111.927 561.888 113.922 562.018 116.488H554.827C554.775 115.607 554.451 114.92 553.855 114.428C553.259 113.909 552.495 113.65 551.562 113.65C550.759 113.65 550.111 113.87 549.618 114.311C549.126 114.726 548.88 115.334 548.88 116.138C548.88 117.019 549.294 117.705 550.124 118.198C550.953 118.69 552.249 119.221 554.011 119.791C555.773 120.387 557.198 120.958 558.286 121.502C559.401 122.046 560.359 122.836 561.163 123.873C561.966 124.909 562.368 126.244 562.368 127.876C562.368 129.431 561.966 130.843 561.163 132.113C560.385 133.383 559.245 134.393 557.742 135.145C556.239 135.896 554.464 136.272 552.417 136.272ZM586.903 124.806C586.903 125.428 586.864 126.075 586.787 126.749H571.744C571.848 128.097 572.275 129.133 573.027 129.859C573.804 130.558 574.75 130.908 575.864 130.908C577.523 130.908 578.676 130.208 579.324 128.809H586.398C586.035 130.234 585.374 131.517 584.416 132.657C583.483 133.797 582.304 134.691 580.878 135.339C579.453 135.987 577.86 136.311 576.098 136.311C573.973 136.311 572.081 135.857 570.423 134.951C568.764 134.044 567.469 132.748 566.536 131.064C565.603 129.379 565.136 127.41 565.136 125.155C565.136 122.901 565.59 120.932 566.497 119.247C567.43 117.563 568.725 116.267 570.384 115.36C572.042 114.453 573.947 114 576.098 114C578.196 114 580.062 114.44 581.695 115.322C583.327 116.203 584.597 117.459 585.504 119.092C586.437 120.724 586.903 122.629 586.903 124.806ZM580.101 123.057C580.101 121.916 579.712 121.009 578.935 120.336C578.158 119.662 577.186 119.325 576.02 119.325C574.906 119.325 573.96 119.649 573.182 120.297C572.431 120.945 571.964 121.865 571.783 123.057H580.101ZM603.625 114.078C606.165 114.078 608.186 114.907 609.689 116.565C611.218 118.198 611.982 120.452 611.982 123.329V136H605.374V124.223C605.374 122.771 604.999 121.644 604.247 120.841C603.496 120.038 602.485 119.636 601.215 119.636C599.946 119.636 598.935 120.038 598.184 120.841C597.432 121.644 597.056 122.771 597.056 124.223V136H590.41V114.311H597.056V117.187C597.73 116.228 598.637 115.477 599.777 114.933C600.917 114.363 602.2 114.078 603.625 114.078ZM625.424 136.311C623.533 136.311 621.848 135.987 620.371 135.339C618.894 134.691 617.728 133.81 616.873 132.696C616.018 131.556 615.538 130.286 615.435 128.887H622.004C622.081 129.638 622.431 130.247 623.053 130.714C623.675 131.18 624.44 131.413 625.346 131.413C626.176 131.413 626.811 131.258 627.251 130.947C627.718 130.61 627.951 130.183 627.951 129.664C627.951 129.042 627.627 128.589 626.979 128.304C626.331 127.993 625.282 127.656 623.831 127.293C622.276 126.93 620.98 126.555 619.944 126.166C618.907 125.751 618.013 125.117 617.262 124.261C616.51 123.38 616.134 122.201 616.134 120.724C616.134 119.481 616.471 118.353 617.145 117.343C617.845 116.306 618.855 115.49 620.177 114.894C621.524 114.298 623.118 114 624.958 114C627.679 114 629.816 114.674 631.371 116.021C632.952 117.369 633.859 119.157 634.092 121.385H627.951C627.847 120.634 627.51 120.038 626.94 119.597C626.396 119.157 625.67 118.936 624.763 118.936C623.986 118.936 623.39 119.092 622.975 119.403C622.561 119.688 622.354 120.089 622.354 120.608C622.354 121.23 622.677 121.696 623.325 122.007C623.999 122.318 625.036 122.629 626.435 122.94C628.041 123.355 629.35 123.769 630.361 124.184C631.371 124.572 632.252 125.22 633.004 126.127C633.781 127.008 634.183 128.2 634.209 129.703C634.209 130.973 633.846 132.113 633.12 133.124C632.421 134.108 631.397 134.886 630.05 135.456C628.728 136.026 627.186 136.311 625.424 136.311ZM648.148 136.311C646.023 136.311 644.106 135.857 642.395 134.951C640.711 134.044 639.376 132.748 638.392 131.064C637.433 129.379 636.954 127.41 636.954 125.155C636.954 122.927 637.446 120.971 638.431 119.286C639.415 117.576 640.763 116.267 642.473 115.36C644.183 114.453 646.101 114 648.226 114C650.351 114 652.268 114.453 653.978 115.36C655.689 116.267 657.036 117.576 658.021 119.286C659.005 120.971 659.498 122.927 659.498 125.155C659.498 127.384 658.992 129.353 657.982 131.064C656.997 132.748 655.637 134.044 653.901 134.951C652.19 135.857 650.273 136.311 648.148 136.311ZM648.148 130.558C649.418 130.558 650.493 130.092 651.374 129.159C652.281 128.226 652.735 126.892 652.735 125.155C652.735 123.419 652.294 122.085 651.413 121.152C650.558 120.219 649.495 119.753 648.226 119.753C646.93 119.753 645.855 120.219 645 121.152C644.144 122.059 643.717 123.393 643.717 125.155C643.717 126.892 644.131 128.226 644.961 129.159C645.816 130.092 646.878 130.558 648.148 130.558ZM669.671 117.926C670.448 116.734 671.42 115.801 672.586 115.127C673.752 114.428 675.048 114.078 676.473 114.078V121.113H674.646C672.987 121.113 671.744 121.476 670.914 122.201C670.085 122.901 669.671 124.145 669.671 125.933V136H663.024V114.311H669.671V117.926ZM700.095 124.806C700.095 125.428 700.056 126.075 699.978 126.749H684.936C685.04 128.097 685.467 129.133 686.219 129.859C686.996 130.558 687.942 130.908 689.056 130.908C690.715 130.908 691.868 130.208 692.515 128.809H699.59C699.227 130.234 698.566 131.517 697.607 132.657C696.674 133.797 695.495 134.691 694.07 135.339C692.645 135.987 691.051 136.311 689.289 136.311C687.164 136.311 685.273 135.857 683.614 134.951C681.956 134.044 680.66 132.748 679.727 131.064C678.795 129.379 678.328 127.41 678.328 125.155C678.328 122.901 678.782 120.932 679.689 119.247C680.621 117.563 681.917 116.267 683.576 115.36C685.234 114.453 687.139 114 689.289 114C691.388 114 693.254 114.44 694.886 115.322C696.519 116.203 697.789 117.459 698.696 119.092C699.629 120.724 700.095 122.629 700.095 124.806ZM693.293 123.057C693.293 121.916 692.904 121.009 692.127 120.336C691.349 119.662 690.378 119.325 689.212 119.325C688.097 119.325 687.151 119.649 686.374 120.297C685.623 120.945 685.156 121.865 684.975 123.057H693.293ZM712.425 136.311C710.533 136.311 708.849 135.987 707.372 135.339C705.895 134.691 704.729 133.81 703.874 132.696C703.018 131.556 702.539 130.286 702.435 128.887H709.004C709.082 129.638 709.432 130.247 710.054 130.714C710.676 131.18 711.44 131.413 712.347 131.413C713.176 131.413 713.811 131.258 714.252 130.947C714.718 130.61 714.951 130.183 714.951 129.664C714.951 129.042 714.627 128.589 713.98 128.304C713.332 127.993 712.282 127.656 710.831 127.293C709.276 126.93 707.981 126.555 706.944 126.166C705.908 125.751 705.014 125.117 704.262 124.261C703.511 123.38 703.135 122.201 703.135 120.724C703.135 119.481 703.472 118.353 704.146 117.343C704.845 116.306 705.856 115.49 707.177 114.894C708.525 114.298 710.119 114 711.958 114C714.679 114 716.817 114.674 718.372 116.021C719.952 117.369 720.859 119.157 721.093 121.385H714.951C714.848 120.634 714.511 120.038 713.941 119.597C713.397 119.157 712.671 118.936 711.764 118.936C710.987 118.936 710.391 119.092 709.976 119.403C709.561 119.688 709.354 120.089 709.354 120.608C709.354 121.23 709.678 121.696 710.326 122.007C711 122.318 712.036 122.629 713.435 122.94C715.042 123.355 716.351 123.769 717.361 124.184C718.372 124.572 719.253 125.22 720.004 126.127C720.782 127.008 721.183 128.2 721.209 129.703C721.209 130.973 720.846 132.113 720.121 133.124C719.421 134.108 718.398 134.886 717.05 135.456C715.729 136.026 714.187 136.311 712.425 136.311Z" fill="#1A3567"/>
<path d="M285.6 256.55V259.375H280.95V274H277.45V259.375H272.8V256.55H285.6ZM294.304 274.225C292.97 274.225 291.77 273.933 290.704 273.35C289.637 272.75 288.795 271.908 288.179 270.825C287.579 269.742 287.279 268.492 287.279 267.075C287.279 265.658 287.587 264.408 288.204 263.325C288.837 262.242 289.695 261.408 290.779 260.825C291.862 260.225 293.07 259.925 294.404 259.925C295.737 259.925 296.945 260.225 298.029 260.825C299.112 261.408 299.962 262.242 300.579 263.325C301.212 264.408 301.529 265.658 301.529 267.075C301.529 268.492 301.204 269.742 300.554 270.825C299.92 271.908 299.054 272.75 297.954 273.35C296.87 273.933 295.654 274.225 294.304 274.225ZM294.304 271.175C294.937 271.175 295.529 271.025 296.079 270.725C296.645 270.408 297.095 269.942 297.429 269.325C297.762 268.708 297.929 267.958 297.929 267.075C297.929 265.758 297.579 264.75 296.879 264.05C296.195 263.333 295.354 262.975 294.354 262.975C293.354 262.975 292.512 263.333 291.829 264.05C291.162 264.75 290.829 265.758 290.829 267.075C290.829 268.392 291.154 269.408 291.804 270.125C292.47 270.825 293.304 271.175 294.304 271.175ZM317.171 260.15V274H313.646V272.25C313.196 272.85 312.604 273.325 311.871 273.675C311.154 274.008 310.371 274.175 309.521 274.175C308.438 274.175 307.479 273.95 306.646 273.5C305.813 273.033 305.154 272.358 304.671 271.475C304.204 270.575 303.971 269.508 303.971 268.275V260.15H307.471V267.775C307.471 268.875 307.746 269.725 308.296 270.325C308.846 270.908 309.596 271.2 310.546 271.2C311.513 271.2 312.271 270.908 312.821 270.325C313.371 269.725 313.646 268.875 313.646 267.775V260.15H317.171ZM319.724 267.075C319.724 265.642 320.016 264.392 320.599 263.325C321.183 262.242 321.991 261.408 323.024 260.825C324.058 260.225 325.241 259.925 326.574 259.925C328.291 259.925 329.708 260.358 330.824 261.225C331.958 262.075 332.716 263.275 333.099 264.825H329.324C329.124 264.225 328.783 263.758 328.299 263.425C327.833 263.075 327.249 262.9 326.549 262.9C325.549 262.9 324.758 263.267 324.174 264C323.591 264.717 323.299 265.742 323.299 267.075C323.299 268.392 323.591 269.417 324.174 270.15C324.758 270.867 325.549 271.225 326.549 271.225C327.966 271.225 328.891 270.592 329.324 269.325H333.099C332.716 270.825 331.958 272.017 330.824 272.9C329.691 273.783 328.274 274.225 326.574 274.225C325.241 274.225 324.058 273.933 323.024 273.35C321.991 272.75 321.183 271.917 320.599 270.85C320.016 269.767 319.724 268.508 319.724 267.075ZM343.463 259.95C344.513 259.95 345.447 260.183 346.263 260.65C347.08 261.1 347.713 261.775 348.163 262.675C348.63 263.558 348.863 264.625 348.863 265.875V274H345.363V266.35C345.363 265.25 345.088 264.408 344.538 263.825C343.988 263.225 343.238 262.925 342.288 262.925C341.322 262.925 340.555 263.225 339.988 263.825C339.438 264.408 339.163 265.25 339.163 266.35V274H335.663V255.5H339.163V261.875C339.613 261.275 340.213 260.808 340.963 260.475C341.713 260.125 342.547 259.95 343.463 259.95Z" fill="#1A3567"/>
<path d="M218.125 250.75C219.427 250.75 220.648 250.994 221.787 251.482C222.926 251.971 223.919 252.638 224.766 253.484C225.612 254.331 226.279 255.324 226.768 256.463C227.256 257.602 227.5 258.823 227.5 260.125V278.875C227.5 282.749 226.768 286.395 225.303 289.812C223.838 293.23 221.82 296.209 219.248 298.748C216.676 301.287 213.698 303.289 210.312 304.754C206.927 306.219 203.281 306.967 199.375 307C194.688 307 190.326 306.105 186.289 304.314C182.253 302.524 178.574 299.985 175.254 296.697L152.207 273.65C151.296 272.739 150.596 271.681 150.107 270.477C149.619 269.272 149.375 268.035 149.375 266.766C149.375 265.398 149.635 264.129 150.156 262.957C150.677 261.785 151.377 260.743 152.256 259.832C153.135 258.921 154.16 258.237 155.332 257.781C156.504 257.326 157.773 257.065 159.141 257C161.81 257 164.105 257.96 166.025 259.881L171.25 265.057V248.65C169.329 247.739 167.604 246.6 166.074 245.232C164.544 243.865 163.242 242.319 162.168 240.594C161.094 238.868 160.247 237.013 159.629 235.027C159.01 233.042 158.717 230.991 158.75 228.875C158.75 225.848 159.32 223.016 160.459 220.379C161.598 217.742 163.161 215.415 165.146 213.396C167.132 211.378 169.443 209.816 172.08 208.709C174.717 207.602 177.565 207.033 180.625 207C183.652 207 186.484 207.57 189.121 208.709C191.758 209.848 194.085 211.411 196.104 213.396C198.122 215.382 199.684 217.693 200.791 220.33C201.898 222.967 202.467 225.815 202.5 228.875C202.5 231.902 201.898 234.799 200.693 237.566C199.489 240.333 197.78 242.758 195.566 244.842C196.706 245.135 197.731 245.623 198.643 246.307C199.554 246.99 200.352 247.837 201.035 248.846C202.5 248.032 204.03 247.625 205.625 247.625C207.253 247.625 208.766 247.999 210.166 248.748C211.566 249.497 212.689 250.571 213.535 251.971C215 251.157 216.53 250.75 218.125 250.75ZM165 228.875C165 231.316 165.553 233.644 166.66 235.857C167.767 238.071 169.297 239.91 171.25 241.375V228.875C171.25 227.573 171.494 226.352 171.982 225.213C172.471 224.074 173.138 223.081 173.984 222.234C174.831 221.388 175.824 220.721 176.963 220.232C178.102 219.744 179.323 219.5 180.625 219.5C181.927 219.5 183.148 219.744 184.287 220.232C185.426 220.721 186.419 221.388 187.266 222.234C188.112 223.081 188.779 224.074 189.268 225.213C189.756 226.352 190 227.573 190 228.875V241.375C191.953 239.91 193.483 238.071 194.59 235.857C195.697 233.644 196.25 231.316 196.25 228.875C196.25 226.727 195.843 224.708 195.029 222.82C194.215 220.932 193.092 219.288 191.66 217.889C190.228 216.489 188.568 215.366 186.68 214.52C184.792 213.673 182.773 213.25 180.625 213.25C178.477 213.25 176.458 213.657 174.57 214.471C172.682 215.285 171.022 216.408 169.59 217.84C168.158 219.272 167.035 220.932 166.221 222.82C165.407 224.708 165 226.727 165 228.875ZM221.25 260.125C221.25 259.279 220.941 258.546 220.322 257.928C219.704 257.309 218.971 257 218.125 257C217.018 257 216.253 257.309 215.83 257.928C215.407 258.546 215.146 259.311 215.049 260.223C214.951 261.134 214.935 262.143 215 263.25C215.065 264.357 215.065 265.35 215 266.229C214.935 267.107 214.674 267.889 214.219 268.572C213.763 269.256 212.982 269.565 211.875 269.5C210.671 269.5 209.857 269.126 209.434 268.377C209.01 267.628 208.75 266.652 208.652 265.447C208.555 264.243 208.587 262.99 208.75 261.688C208.913 260.385 208.945 259.132 208.848 257.928C208.75 256.723 208.506 255.763 208.115 255.047C207.725 254.331 206.895 253.94 205.625 253.875C204.518 253.875 203.753 254.184 203.33 254.803C202.907 255.421 202.646 256.186 202.549 257.098C202.451 258.009 202.435 259.018 202.5 260.125C202.565 261.232 202.565 262.225 202.5 263.104C202.435 263.982 202.174 264.764 201.719 265.447C201.263 266.131 200.482 266.44 199.375 266.375C198.171 266.375 197.357 266.001 196.934 265.252C196.51 264.503 196.25 263.527 196.152 262.322C196.055 261.118 196.087 259.865 196.25 258.562C196.413 257.26 196.445 256.007 196.348 254.803C196.25 253.598 196.006 252.638 195.615 251.922C195.225 251.206 194.395 250.815 193.125 250.75C192.018 250.75 191.253 251.059 190.83 251.678C190.407 252.296 190.146 253.061 190.049 253.973C189.951 254.884 189.935 255.893 190 257C190.065 258.107 190.065 259.1 190 259.979C189.935 260.857 189.674 261.639 189.219 262.322C188.763 263.006 187.982 263.315 186.875 263.25C186.029 263.25 185.296 262.941 184.678 262.322C184.059 261.704 183.75 260.971 183.75 260.125V228.875C183.75 228.029 183.441 227.296 182.822 226.678C182.204 226.059 181.471 225.75 180.625 225.75C179.779 225.75 179.046 226.059 178.428 226.678C177.809 227.296 177.5 228.029 177.5 228.875V267.303C177.5 268.051 177.37 268.735 177.109 269.354C176.849 269.972 176.475 270.542 175.986 271.062C175.498 271.583 174.928 271.958 174.277 272.186C173.626 272.413 172.943 272.56 172.227 272.625C171.51 272.625 170.827 272.495 170.176 272.234C169.525 271.974 168.923 271.583 168.369 271.062L161.582 264.275C160.898 263.592 160.085 263.25 159.141 263.25C158.197 263.25 157.383 263.592 156.699 264.275C156.016 264.959 155.658 265.789 155.625 266.766C155.625 267.71 155.967 268.523 156.65 269.207L179.697 292.303C182.432 295.037 185.426 297.12 188.682 298.553C191.937 299.985 195.501 300.717 199.375 300.75C202.402 300.75 205.234 300.18 207.871 299.041C210.508 297.902 212.819 296.339 214.805 294.354C216.79 292.368 218.353 290.057 219.492 287.42C220.632 284.783 221.217 281.935 221.25 278.875V260.125Z" fill="#1E5C93"/>
<path d="M272.875 407.25C272.875 405.533 273.258 404 274.025 402.65C274.808 401.283 275.867 400.225 277.2 399.475C278.55 398.708 280.058 398.325 281.725 398.325C283.675 398.325 285.383 398.825 286.85 399.825C288.317 400.825 289.342 402.208 289.925 403.975H285.9C285.5 403.142 284.933 402.517 284.2 402.1C283.483 401.683 282.65 401.475 281.7 401.475C280.683 401.475 279.775 401.717 278.975 402.2C278.192 402.667 277.575 403.333 277.125 404.2C276.692 405.067 276.475 406.083 276.475 407.25C276.475 408.4 276.692 409.417 277.125 410.3C277.575 411.167 278.192 411.842 278.975 412.325C279.775 412.792 280.683 413.025 281.7 413.025C282.65 413.025 283.483 412.817 284.2 412.4C284.933 411.967 285.5 411.333 285.9 410.5H289.925C289.342 412.283 288.317 413.675 286.85 414.675C285.4 415.658 283.692 416.15 281.725 416.15C280.058 416.15 278.55 415.775 277.2 415.025C275.867 414.258 274.808 413.2 274.025 411.85C273.258 410.5 272.875 408.967 272.875 407.25ZM296.414 397.5V416H292.914V397.5H296.414ZM298.972 409.025C298.972 407.625 299.247 406.383 299.797 405.3C300.364 404.217 301.122 403.383 302.072 402.8C303.039 402.217 304.114 401.925 305.297 401.925C306.331 401.925 307.231 402.133 307.997 402.55C308.781 402.967 309.406 403.492 309.872 404.125V402.15H313.397V416H309.872V413.975C309.422 414.625 308.797 415.167 307.997 415.6C307.214 416.017 306.306 416.225 305.272 416.225C304.106 416.225 303.039 415.925 302.072 415.325C301.122 414.725 300.364 413.883 299.797 412.8C299.247 411.7 298.972 410.442 298.972 409.025ZM309.872 409.075C309.872 408.225 309.706 407.5 309.372 406.9C309.039 406.283 308.589 405.817 308.022 405.5C307.456 405.167 306.847 405 306.197 405C305.547 405 304.947 405.158 304.397 405.475C303.847 405.792 303.397 406.258 303.047 406.875C302.714 407.475 302.547 408.192 302.547 409.025C302.547 409.858 302.714 410.592 303.047 411.225C303.397 411.842 303.847 412.317 304.397 412.65C304.964 412.983 305.564 413.15 306.197 413.15C306.847 413.15 307.456 412.992 308.022 412.675C308.589 412.342 309.039 411.875 309.372 411.275C309.706 410.658 309.872 409.925 309.872 409.075ZM320.316 404.15C320.766 403.517 321.382 402.992 322.166 402.575C322.966 402.142 323.874 401.925 324.891 401.925C326.074 401.925 327.141 402.217 328.091 402.8C329.057 403.383 329.816 404.217 330.366 405.3C330.932 406.367 331.216 407.608 331.216 409.025C331.216 410.442 330.932 411.7 330.366 412.8C329.816 413.883 329.057 414.725 328.091 415.325C327.141 415.925 326.074 416.225 324.891 416.225C323.874 416.225 322.974 416.017 322.191 415.6C321.424 415.183 320.799 414.658 320.316 414.025V422.6H316.816V402.15H320.316V404.15ZM327.641 409.025C327.641 408.192 327.466 407.475 327.116 406.875C326.782 406.258 326.332 405.792 325.766 405.475C325.216 405.158 324.616 405 323.966 405C323.332 405 322.732 405.167 322.166 405.5C321.616 405.817 321.166 406.283 320.816 406.9C320.482 407.517 320.316 408.242 320.316 409.075C320.316 409.908 320.482 410.633 320.816 411.25C321.166 411.867 321.616 412.342 322.166 412.675C322.732 412.992 323.332 413.15 323.966 413.15C324.616 413.15 325.216 412.983 325.766 412.65C326.332 412.317 326.782 411.842 327.116 411.225C327.466 410.608 327.641 409.875 327.641 409.025Z" fill="#1A3567"/>
<path d="M222.974 401.335C224.114 400.252 225.626 399.648 227.199 399.648C228.771 399.648 230.284 400.252 231.424 401.335C233.759 403.585 233.759 407.235 231.424 409.485L225.794 414.91M222.974 401.335L228.609 395.905C230.944 393.655 230.944 390.005 228.609 387.755C227.469 386.672 225.956 386.069 224.384 386.069C222.812 386.069 221.299 386.672 220.159 387.755L215.934 391.83L201.844 405.41M222.974 401.335L207.479 416.27M225.794 414.91C226.934 413.827 228.446 413.223 230.019 413.223C231.591 413.223 233.104 413.827 234.244 414.91C234.798 415.434 235.24 416.065 235.542 416.765C235.844 417.465 236 418.22 236 418.983C236 419.745 235.844 420.5 235.542 421.2C235.24 421.9 234.798 422.532 234.244 423.055L216.869 439.805C210.749 445.705 207.684 448.655 204.314 450.105C202.359 450.945 199.129 451.31 196.689 451.465C194.574 451.6 192.539 452.39 191.039 453.84L187.759 457M225.794 414.91L213.114 427.13M215.929 391.83C216.484 391.307 216.925 390.675 217.227 389.975C217.529 389.275 217.685 388.52 217.685 387.758C217.685 386.995 217.529 386.24 217.227 385.54C216.925 384.84 216.484 384.209 215.929 383.685C214.789 382.602 213.277 381.999 211.704 381.999C210.132 381.999 208.619 382.602 207.479 383.685L183.639 406.665L183.654 397.85C183.659 393.985 180.174 390.98 176.19 391.415C173.14 391.745 170.7 394.025 170.26 396.955L167.445 419.215C166.91 423.47 164.145 428.17 160.995 431.205M136 409.5C139.29 406.26 142.18 401.255 142.745 396.71L145.68 372.95C145.913 371.418 146.648 370.006 147.77 368.936C148.892 367.867 150.338 367.2 151.88 367.04C156.05 366.58 159.685 369.78 159.68 373.905L159.66 383.325L184.579 358.8C185.76 357.646 187.346 357 188.997 357C190.648 357 192.234 357.646 193.414 358.8C193.993 359.366 194.452 360.042 194.766 360.787C195.079 361.533 195.241 362.334 195.241 363.143C195.241 363.952 195.079 364.753 194.766 365.498C194.452 366.244 193.993 366.919 193.414 367.485L197.834 363.14C199.015 361.986 200.601 361.34 202.252 361.34C203.903 361.34 205.488 361.986 206.669 363.14C207.889 364.34 208.499 365.915 208.499 367.49M193.419 367.49L180.994 379.7" stroke="#1E5C93" stroke-width="7" stroke-linecap="round" stroke-linejoin="round"/>
<path d="M648.667 215.334H615.333C613.123 215.334 611.004 216.212 609.441 217.775C607.878 219.338 607 221.457 607 223.667V290.334C607 292.544 607.878 294.664 609.441 296.227C611.004 297.789 613.123 298.667 615.333 298.667H648.667C650.877 298.667 652.996 297.789 654.559 296.227C656.122 294.664 657 292.544 657 290.334V223.667C657 221.457 656.122 219.338 654.559 217.775C652.996 216.212 650.877 215.334 648.667 215.334ZM636.167 294.501H627.833V290.334H636.167V294.501ZM648.667 286.167H615.333V227.834H648.667V286.167Z" fill="#1E5C93"/>
<path d="M297.05 548.55L292.175 566H288.05L284.775 553.575L281.35 566L277.25 566.025L272.55 548.55H276.3L279.375 562.1L282.925 548.55H286.825L290.175 562.025L293.275 548.55H297.05ZM298.435 559.025C298.435 557.625 298.71 556.383 299.26 555.3C299.827 554.217 300.585 553.383 301.535 552.8C302.502 552.217 303.577 551.925 304.76 551.925C305.794 551.925 306.694 552.133 307.46 552.55C308.244 552.967 308.869 553.492 309.335 554.125V552.15H312.86V566H309.335V563.975C308.885 564.625 308.26 565.167 307.46 565.6C306.677 566.017 305.769 566.225 304.735 566.225C303.569 566.225 302.502 565.925 301.535 565.325C300.585 564.725 299.827 563.883 299.26 562.8C298.71 561.7 298.435 560.442 298.435 559.025ZM309.335 559.075C309.335 558.225 309.169 557.5 308.835 556.9C308.502 556.283 308.052 555.817 307.485 555.5C306.919 555.167 306.31 555 305.66 555C305.01 555 304.41 555.158 303.86 555.475C303.31 555.792 302.86 556.258 302.51 556.875C302.177 557.475 302.01 558.192 302.01 559.025C302.01 559.858 302.177 560.592 302.51 561.225C302.86 561.842 303.31 562.317 303.86 562.65C304.427 562.983 305.027 563.15 305.66 563.15C306.31 563.15 306.919 562.992 307.485 562.675C308.052 562.342 308.502 561.875 308.835 561.275C309.169 560.658 309.335 559.925 309.335 559.075ZM322.054 562.775L325.554 552.15H329.279L324.154 566H319.904L314.804 552.15H318.554L322.054 562.775ZM344.12 558.775C344.12 559.275 344.086 559.725 344.02 560.125H333.895C333.978 561.125 334.328 561.908 334.945 562.475C335.561 563.042 336.32 563.325 337.22 563.325C338.52 563.325 339.445 562.767 339.995 561.65H343.77C343.37 562.983 342.603 564.083 341.47 564.95C340.336 565.8 338.945 566.225 337.295 566.225C335.961 566.225 334.761 565.933 333.695 565.35C332.645 564.75 331.82 563.908 331.22 562.825C330.636 561.742 330.345 560.492 330.345 559.075C330.345 557.642 330.636 556.383 331.22 555.3C331.803 554.217 332.62 553.383 333.67 552.8C334.72 552.217 335.928 551.925 337.295 551.925C338.611 551.925 339.786 552.208 340.82 552.775C341.87 553.342 342.678 554.15 343.245 555.2C343.828 556.233 344.12 557.425 344.12 558.775ZM340.495 557.775C340.478 556.875 340.153 556.158 339.52 555.625C338.886 555.075 338.111 554.8 337.195 554.8C336.328 554.8 335.595 555.067 334.995 555.6C334.411 556.117 334.053 556.842 333.92 557.775H340.495Z" fill="#1A3567"/>
<path d="M214.345 549.535L204.569 559.254C205.792 558.062 207.438 557.398 209.15 557.407C210.862 557.415 212.502 558.096 213.712 559.3C214.923 560.504 215.607 562.135 215.616 563.838C215.624 565.541 214.957 567.178 213.758 568.394L193.499 588.545C188.056 593.957 180.675 596.998 172.979 596.998C165.283 596.998 157.902 593.957 152.459 588.545M214.345 549.535C214.949 548.934 215.428 548.221 215.755 547.435C216.082 546.65 216.251 545.808 216.251 544.958C216.251 544.108 216.082 543.266 215.755 542.481C215.428 541.696 214.949 540.982 214.345 540.381C213.74 539.78 213.023 539.303 212.233 538.978C211.444 538.652 210.597 538.485 209.743 538.485C208.888 538.485 208.042 538.652 207.252 538.978C206.463 539.303 205.745 539.78 205.141 540.381L211.555 534.015M214.345 549.535L204.569 559.259M211.555 534.015C212.734 532.794 213.384 531.161 213.367 529.468C213.349 527.775 212.666 526.156 211.462 524.958C210.259 523.76 208.631 523.079 206.929 523.061C205.226 523.043 203.585 523.689 202.356 524.861M211.555 534.015L183.901 561.511M202.356 524.861L195.942 531.231C197.12 530.009 197.771 528.377 197.753 526.684C197.736 524.991 197.052 523.372 195.849 522.174C194.645 520.976 193.018 520.295 191.316 520.277C189.613 520.259 187.971 520.905 186.742 522.077L161.096 547.586C161.086 547.589 161.085 547.586 161.091 547.577L164.223 535.937C164.552 534.689 164.416 533.366 163.841 532.21C163.266 531.055 162.291 530.145 161.094 529.648C159.898 529.152 158.561 529.102 157.331 529.509C156.101 529.916 155.06 530.751 154.4 531.861L143.958 549.643C140.726 555.151 139.419 561.568 140.241 567.893C141.063 574.218 143.968 580.095 148.502 584.604M202.356 524.861L195.942 531.236M148.502 584.604L152.459 588.545M148.502 584.604C143.967 580.094 141.061 574.217 140.239 567.891C139.417 561.565 140.725 555.147 143.958 549.638L154.4 531.866C155.06 530.756 156.101 529.92 157.331 529.514C158.561 529.107 159.898 529.156 161.094 529.653C162.291 530.149 163.266 531.059 163.841 532.215C164.416 533.371 164.552 534.694 164.223 535.941L161.096 547.558C161.096 547.577 161.1 547.583 161.11 547.577L186.742 522.082C187.342 521.46 188.06 520.964 188.855 520.622C189.65 520.28 190.506 520.099 191.372 520.091C192.238 520.082 193.097 520.245 193.899 520.571C194.701 520.896 195.429 521.378 196.041 521.987C196.653 522.597 197.137 523.321 197.464 524.119C197.791 524.917 197.955 525.771 197.946 526.632C197.936 527.494 197.754 528.345 197.41 529.135C197.066 529.926 196.567 530.64 195.942 531.236M152.459 588.545C155.154 591.226 158.353 593.352 161.875 594.803C165.396 596.253 169.17 597 172.981 597C176.793 597 180.567 596.253 184.088 594.803C187.609 593.352 190.808 591.226 193.504 588.545L213.758 568.399C214.372 567.801 214.86 567.088 215.195 566.301C215.53 565.515 215.704 564.67 215.708 563.815C215.713 562.961 215.547 562.114 215.22 561.324C214.893 560.534 214.412 559.816 213.805 559.212C213.198 558.608 212.476 558.13 211.682 557.805C210.887 557.48 210.036 557.315 209.177 557.319C208.318 557.323 207.469 557.497 206.678 557.83C205.887 558.163 205.17 558.648 204.569 559.259M204.569 559.259L193.105 570.656M195.942 531.236L174.702 552.357M230 520.188C226.418 515.03 221.924 510.561 216.736 507" stroke="#1E5C93" stroke-width="7" stroke-linecap="square"/>
<path d="M631.773 450.095C620.138 450.027 619.294 450.01 619.243 449.772C619.25 449.394 619.306 449.019 619.411 448.656C619.977 446.442 621.845 444.449 624.54 443.188C626.509 442.277 626.594 442.251 629.07 441.825L630.083 441.638L630.168 432.184L630.253 422.73L629.914 422.602C629.52 422.478 629.12 422.376 628.715 422.296C626.885 421.86 625.104 421.238 623.4 420.439C620.772 419.229 617.155 416.044 615.406 413.404C613.65 410.679 612.403 407.654 611.722 404.478C611.097 401.463 610.793 396.429 611.156 395.211C611.274 394.855 611.477 394.533 611.747 394.274C612.66 393.508 614.316 393.985 614.561 395.083C614.645 395.313 614.672 396.719 614.705 398.201C614.79 402.8 615.465 405.755 617.24 409.324C618.431 411.709 620.856 414.511 622.876 415.848C624.946 417.211 626.34 417.824 628.731 418.412C629.973 418.718 633.691 418.752 634.984 418.48C637.527 417.935 640.02 416.785 641.98 415.269C644.65 413.191 646.839 410.048 647.963 406.641C648.521 404.938 648.588 404.691 648.783 403.549C648.873 403.033 648.977 402.519 649.095 402.008C649.18 401.718 649.264 400.066 649.315 398.328C649.4 395.007 649.484 394.598 650.126 394.147C650.945 393.567 652.5 394.061 652.847 395.015C653.075 395.671 653.05 399.393 652.762 401.344C652.374 404.316 652.154 405.364 651.436 407.535C649.997 412.072 647.154 416.024 643.324 418.812C641.508 420.055 639.525 421.031 637.435 421.708C636.638 422.002 635.818 422.227 634.984 422.381C634.592 422.437 634.211 422.552 633.852 422.721V432.141C633.852 440.292 633.852 441.476 634.038 441.578C634.156 441.638 634.883 441.808 635.643 441.944C636.404 442.089 637.164 442.285 637.324 442.387C637.485 442.49 637.832 442.617 638.086 442.668C638.728 442.805 640.189 443.529 641.178 444.21C642.335 445.002 643.577 446.399 644.093 447.506C644.583 448.537 644.82 450.027 644.516 450.121C644.406 450.146 638.711 450.138 631.849 450.104L631.773 450.095Z" fill="#1E5C93" stroke="#1E5C93" stroke-width="3"/>
<path d="M632.273 366.5C633.493 366.5 634.265 366.565 634.914 366.704C635.542 366.838 636.158 367.065 637.031 367.499L637.036 367.501C639.554 368.747 641.492 371.029 642.405 373.979L642.406 373.981C642.473 374.197 642.485 374.242 642.503 374.384C642.532 374.598 642.562 374.988 642.585 375.833C642.608 376.672 642.623 377.867 642.635 379.635L642.669 386.877C642.669 390.685 642.668 393.934 642.654 396.32C642.647 397.516 642.637 398.486 642.624 399.197C642.617 399.554 642.609 399.835 642.601 400.043C642.595 400.192 642.59 400.272 642.588 400.302C642.359 402.004 641.735 403.629 640.764 405.051C639.104 407.278 636.917 408.583 633.9 409.041L633.852 409.049L633.803 409.058C632.906 409.23 631.973 409.239 631.048 409.088C630.005 408.903 629.482 408.794 629.065 408.673C628.675 408.559 628.325 408.42 627.636 408.105H627.635C625.064 406.931 623.256 404.786 622.213 401.13C622.211 401.1 622.208 401.06 622.205 401.012C622.191 400.801 622.177 400.499 622.164 400.106C622.137 399.324 622.115 398.249 622.097 396.97C622.061 394.414 622.042 391.088 622.042 387.756C622.042 384.424 622.061 381.097 622.097 378.54C622.115 377.26 622.137 376.184 622.164 375.401C622.177 375.008 622.191 374.704 622.205 374.493C622.208 374.437 622.212 374.394 622.214 374.362C623.222 370.799 625.503 368.294 628.654 367.105L628.657 367.104C629.6 366.747 629.944 366.641 630.282 366.583C630.646 366.521 631.096 366.5 632.273 366.5Z" stroke="#1E5C93" stroke-width="5"/>
<path fill-rule="evenodd" clip-rule="evenodd" d="M632.001 587.373C621.758 587.373 610.791 582.309 600.28 572.732C592.496 565.641 587.704 558.627 587.503 558.332C587.171 557.842 586.995 557.262 587 556.67C587.005 556.077 587.191 555.501 587.532 555.016C587.73 554.731 592.532 547.96 600.318 541.117C610.822 531.88 621.776 527 632.001 527C642.224 527 653.178 531.881 663.684 541.115C671.47 547.96 676.268 554.733 676.469 555.016C677.167 556.009 677.178 557.328 676.496 558.332C676.298 558.627 671.504 565.641 663.722 572.732C653.21 582.309 642.242 587.373 632.001 587.373ZM593.548 556.726C597.963 562.539 613.779 581.541 631.999 581.541C650.221 581.541 666.034 562.542 670.452 556.726C665.999 551.073 650.206 532.828 631.999 532.828C613.794 532.828 598.001 551.076 593.548 556.726Z" fill="#1E5C93"/>
<path fill-rule="evenodd" clip-rule="evenodd" d="M632.001 573.085C623.231 573.085 616.095 565.953 616.095 557.183C616.095 548.416 623.228 541.281 631.999 541.281C640.773 541.281 647.901 548.416 647.901 557.183C647.901 565.953 640.771 573.085 632.001 573.085ZM632.001 547.111C629.33 547.114 626.77 548.176 624.881 550.064C622.993 551.953 621.93 554.513 621.926 557.183C621.929 559.854 622.993 562.415 624.881 564.303C626.77 566.192 629.33 567.254 632.001 567.257C634.672 567.254 637.232 566.191 639.12 564.303C641.008 562.414 642.07 559.854 642.073 557.183C642.07 554.513 641.007 551.953 639.119 550.065C637.231 548.177 634.671 547.114 632.001 547.111Z" fill="#1E5C93"/>
<path d="M631.999 560.227C633.679 560.227 635.041 558.866 635.041 557.186C635.041 555.506 633.679 554.145 631.999 554.145C630.32 554.145 628.958 555.506 628.958 557.186C628.958 558.866 630.32 560.227 631.999 560.227Z" fill="#1E5C93"/>
<path d="M1078.87 428.75V453.75M1078.87 360V385M1057 406.875H1032M1125.75 406.875H1100.75M1044.5 406.879C1044.5 415.996 1048.12 424.739 1054.57 431.186C1061.01 437.633 1069.76 441.254 1078.87 441.254C1087.99 441.254 1096.74 437.633 1103.18 431.186C1109.63 424.739 1113.25 415.996 1113.25 406.879C1113.25 397.762 1109.63 389.019 1103.18 382.572C1096.74 376.126 1087.99 372.504 1078.87 372.504C1069.76 372.504 1061.01 376.126 1054.57 382.572C1048.12 389.019 1044.5 397.762 1044.5 406.879Z" stroke="#1A3567" stroke-width="6" stroke-linecap="round" stroke-linejoin="round"/>
<path d="M405 264.5H529.5M529.5 264.5L523 271.5M529.5 264.5L523 257" stroke="#1A3567" stroke-width="3" stroke-linecap="round"/>
<path d="M713.349 259.065L973.5 339.116M973.5 339.116L965.028 343.53M973.5 339.116L968 330.5" stroke="#1A3567" stroke-width="3" stroke-linecap="round"/>
<path d="M698 406.861L970.093 406.861M970.093 406.861L963.593 413.861M970.093 406.861L963.593 400" stroke="#1A3567" stroke-width="3" stroke-linecap="round"/>
<path d="M713.349 549.232L973.5 469.181M973.5 469.181L965.028 464.767M973.5 469.181L968 477.797" stroke="#1A3567" stroke-width="3" stroke-linecap="round"/>
<path d="M405 407.5H529.5M529.5 407.5L523 414.5M529.5 407.5L523 400" stroke="#1A3567" stroke-width="3" stroke-linecap="round"/>
<path d="M405 558.5H529.5M529.5 558.5L523 565.5M529.5 558.5L523 551" stroke="#1A3567" stroke-width="3" stroke-linecap="round"/>
</g>
<defs>
<clipPath id="clip0_224_129">
<rect width="1280" height="720" fill="white"/>
</clipPath>
</defs>
</svg>
