<svg width="1280" height="720" viewBox="0 0 1280 720" fill="none" xmlns="http://www.w3.org/2000/svg">
<g clip-path="url(#clip0_224_137)">
<rect width="1280" height="720" fill="#ECFAFF"/>
<path d="M0 0H1279.99V719.999H0V0Z" fill="#ECFAFF"/>
<mask id="mask0_224_137" style="mask-type:alpha" maskUnits="userSpaceOnUse" x="847" y="111" width="148" height="148">
<circle cx="921" cy="185" r="74" fill="#1EAD28"/>
</mask>
<g mask="url(#mask0_224_137)">
<circle cx="921" cy="185" r="74" fill="url(#paint0_linear_224_137)"/>
<circle cx="956" cy="135" r="66" fill="url(#paint1_radial_224_137)"/>
</g>
<mask id="mask1_224_137" style="mask-type:alpha" maskUnits="userSpaceOnUse" x="847" y="445" width="148" height="148">
<circle cx="921" cy="519" r="74" fill="#FFC93C"/>
</mask>
<g mask="url(#mask1_224_137)">
<circle cx="921" cy="519" r="74" fill="url(#paint2_linear_224_137)"/>
</g>
<g filter="url(#filter0_d_224_137)">
<path d="M735.194 288.444H462V417.8H735.194V439.79C735.194 444.731 741.457 446.887 744.515 442.998L818 349.547L744.429 260.896C741.313 257.141 735.194 259.338 735.194 264.211V288.444Z" fill="url(#paint3_linear_224_137)"/>
<path d="M509.795 330.254C514.138 330.254 517.932 331.112 521.179 332.828C524.426 334.544 526.93 336.962 528.69 340.083C530.49 343.164 531.39 346.732 531.39 350.789C531.39 354.806 530.49 358.374 528.69 361.495C526.93 364.615 524.407 367.033 521.121 368.749C517.874 370.465 514.098 371.323 509.795 371.323H494.362V330.254H509.795ZM509.15 362.665C512.944 362.665 515.898 361.631 518.01 359.564C520.123 357.497 521.179 354.572 521.179 350.789C521.179 347.005 520.123 344.061 518.01 341.955C515.898 339.849 512.944 338.796 509.15 338.796H504.396V362.665H509.15Z" fill="#ECFAFF"/>
<path d="M547.032 330.254V371.323H536.998V330.254H547.032Z" fill="#ECFAFF"/>
<path d="M569.209 371.732C566.197 371.732 563.497 371.245 561.111 370.27C558.725 369.295 556.808 367.852 555.36 365.941C553.952 364.03 553.209 361.729 553.13 359.037H563.81C563.967 360.558 564.495 361.729 565.395 362.548C566.294 363.328 567.468 363.718 568.916 363.718C570.402 363.718 571.576 363.386 572.436 362.723C573.297 362.021 573.727 361.065 573.727 359.856C573.727 358.842 573.375 358.004 572.671 357.341C572.006 356.678 571.165 356.132 570.148 355.703C569.17 355.274 567.762 354.786 565.923 354.24C563.263 353.421 561.091 352.602 559.409 351.783C557.727 350.964 556.28 349.755 555.067 348.156C553.854 346.557 553.248 344.47 553.248 341.896C553.248 338.074 554.636 335.09 557.414 332.945C560.192 330.761 563.81 329.669 568.27 329.669C572.808 329.669 576.466 330.761 579.244 332.945C582.021 335.09 583.508 338.093 583.703 341.955H572.847C572.769 340.629 572.28 339.595 571.38 338.854C570.48 338.074 569.326 337.684 567.918 337.684C566.705 337.684 565.727 338.015 564.984 338.679C564.241 339.303 563.869 340.219 563.869 341.428C563.869 342.754 564.495 343.788 565.747 344.529C566.999 345.27 568.955 346.069 571.615 346.927C574.275 347.824 576.427 348.682 578.07 349.501C579.752 350.321 581.2 351.51 582.412 353.07C583.625 354.63 584.231 356.639 584.231 359.096C584.231 361.436 583.625 363.562 582.412 365.473C581.239 367.384 579.517 368.905 577.248 370.036C574.979 371.167 572.3 371.732 569.209 371.732Z" fill="#ECFAFF"/>
<path d="M621.801 343.476C621.801 345.855 621.254 348.039 620.158 350.028C619.063 351.978 617.381 353.558 615.112 354.767C612.843 355.976 610.026 356.58 606.661 356.58H600.441V371.323H590.407V330.254H606.661C609.948 330.254 612.725 330.82 614.994 331.951C617.263 333.082 618.965 334.642 620.099 336.631C621.234 338.62 621.801 340.902 621.801 343.476ZM605.899 348.624C607.816 348.624 609.243 348.175 610.182 347.278C611.121 346.381 611.591 345.114 611.591 343.476C611.591 341.838 611.121 340.57 610.182 339.673C609.243 338.776 607.816 338.327 605.899 338.327H600.441V348.624H605.899Z" fill="#ECFAFF"/>
<path d="M652.669 364.069H637.294L634.83 371.323H624.326L639.231 330.254H650.85L665.755 371.323H655.134L652.669 364.069ZM650.087 356.346L644.982 341.311L639.935 356.346H650.087Z" fill="#ECFAFF"/>
<path d="M691.299 371.323L682.732 355.82H680.326V371.323H670.291V330.254H687.133C690.38 330.254 693.138 330.82 695.407 331.951C697.715 333.082 699.436 334.642 700.571 336.631C701.705 338.581 702.273 340.765 702.273 343.183C702.273 345.913 701.49 348.351 699.925 350.496C698.4 352.641 696.131 354.162 693.118 355.059L702.625 371.323H691.299ZM680.326 348.741H686.546C688.385 348.741 689.754 348.292 690.654 347.395C691.593 346.498 692.062 345.231 692.062 343.593C692.062 342.033 691.593 340.804 690.654 339.907C689.754 339.01 688.385 338.562 686.546 338.562H680.326V348.741Z" fill="#ECFAFF"/>
<path d="M734.215 364.069H718.841L716.376 371.323H705.872L720.777 330.254H732.396L747.301 371.323H736.68L734.215 364.069ZM731.633 356.346L726.528 341.311L721.482 356.346H731.633Z" fill="#ECFAFF"/>
</g>
<path d="M192.5 407.219L247.5 460.719L264.5 445.219L291.5 437.219L339 393.719L343 376.719L333.5 367.719L339 353.719L333.5 348.719L327.5 338.219L333.5 325.719L323 319.719H309L298.5 308.219L287 280.719V271.719L276.5 268.719L264.5 271.719L258.5 263.219H242L192.5 311.719V294.219L184.5 280.719L173.5 275.219L166 294.219L162 342.219L146 364.219L192.5 407.219Z" fill="#E6C6B0"/>
<path d="M318.339 347.059C320.585 344.926 323.564 343.736 326.662 343.736C329.759 343.736 332.739 344.926 334.985 347.059C339.585 351.491 339.585 358.682 334.985 363.114L323.894 373.802M318.339 347.059L329.44 336.362C334.039 331.929 334.039 324.739 329.44 320.306C327.193 318.173 324.214 316.984 321.116 316.984C318.019 316.984 315.039 318.173 312.793 320.306L304.47 328.334L276.713 355.087M318.339 347.059L287.814 376.481M323.894 373.802C326.14 371.668 329.119 370.479 332.217 370.479C335.315 370.479 338.294 371.668 340.54 373.802C341.633 374.833 342.503 376.076 343.098 377.456C343.693 378.836 344 380.322 344 381.824C344 383.327 343.693 384.813 343.098 386.193C342.503 387.573 341.633 388.816 340.54 389.847L306.312 422.845C294.256 434.468 288.218 440.279 281.579 443.136C277.728 444.79 271.365 445.509 266.558 445.815C262.391 446.081 258.382 447.637 255.427 450.494L248.966 456.719M323.894 373.802L298.915 397.875M304.46 328.334C305.553 327.303 306.423 326.059 307.018 324.68C307.613 323.3 307.92 321.814 307.92 320.311C307.92 318.809 307.613 317.322 307.018 315.943C306.423 314.563 305.553 313.32 304.46 312.289C302.214 310.155 299.235 308.966 296.137 308.966C293.039 308.966 290.06 310.155 287.814 312.289L240.85 357.559L240.879 340.194C240.889 332.58 234.024 326.66 226.173 327.517C220.165 328.167 215.358 332.658 214.491 338.43L208.946 382.282C207.892 390.665 202.445 399.924 196.24 405.903M147 363.144C153.481 356.761 159.174 346.901 160.287 337.948L166.069 291.141C166.529 288.122 167.977 285.34 170.188 283.233C172.398 281.126 175.246 279.812 178.283 279.498C186.498 278.592 193.659 284.896 193.649 293.022L193.61 311.579L242.701 263.265C245.028 260.992 248.151 259.719 251.404 259.719C254.656 259.719 257.78 260.992 260.106 263.265C261.245 264.38 262.15 265.711 262.768 267.18C263.386 268.649 263.705 270.226 263.705 271.82C263.705 273.414 263.386 274.991 262.768 276.46C262.15 277.929 261.245 279.26 260.106 280.375L268.813 271.815C271.14 269.541 274.263 268.269 277.516 268.269C280.769 268.269 283.892 269.541 286.218 271.815C288.622 274.179 289.823 277.282 289.823 280.384M260.116 280.384L235.639 304.438" stroke="#1E5C93" stroke-width="10" stroke-linecap="round" stroke-linejoin="round"/>
<path d="M250.357 134.393C245 133.361 230.585 132.992 220.16 133.623C183.113 135.858 147.839 148.833 117.617 171.341C104.286 181.269 94.1457 191.193 80.7819 207.393C78.4451 210.228 75.9614 214.695 75.5989 216.725C74.9809 220.168 78.6225 223.552 82.7962 223.417C85.0464 223.343 86.1471 222.617 88.0464 219.947C88.9672 218.659 91.3031 215.675 93.2383 213.312C116.273 185.221 144.095 166.124 178.139 155.035C192.191 150.458 206.156 147.876 222.156 146.894C228.184 146.525 231.629 146.511 239.062 146.822C248.311 147.21 251.598 147.11 252.856 146.408C255.891 144.716 256.766 140.402 254.734 137.132C253.709 135.481 252.685 134.839 250.357 134.393ZM235.722 166.967C230.669 165.79 219.637 165.621 209.47 166.566C183.85 168.944 158.413 179.022 138.052 194.861C128.635 202.187 118.625 212.488 112.415 221.242C109.424 225.477 109.157 228.445 111.528 231.328C112.744 232.805 114.077 233.426 116.183 233.499C119.048 233.599 120.356 232.631 124.533 227.322C135.882 212.898 147.38 203.051 161.827 195.391C177.618 187.017 186.875 183.623 199.966 181.407C208.718 179.928 214.508 179.663 235.072 179.802L238.822 179.828L240.049 178.286C241.098 176.965 241.297 176.418 241.446 174.457C241.642 171.853 240.671 169.436 238.937 168.215C238.352 167.806 236.907 167.244 235.722 166.967ZM216.321 197.278C212.335 196.917 203.062 197.269 198.232 197.962C190.795 199.031 180.106 202.328 174.563 205.264C164.741 210.468 155.625 217.899 148.679 226.371C144.628 231.31 143.951 233.21 145.103 236.407C146.574 240.493 151.669 241.914 154.999 239.167C155.693 238.593 157.602 236.52 159.237 234.562C172.267 218.972 192.062 209.766 210.978 210.498C218.319 210.78 220.457 210.223 222.407 207.518C223.467 206.069 223.73 204.65 223.344 202.691C222.712 199.472 220.338 197.641 216.321 197.278Z" fill="#A43254"/>
<path d="M258.435 586.047C263.793 587.078 278.207 587.447 288.633 586.816C325.68 584.581 360.953 571.606 391.176 549.099C404.507 539.17 414.647 529.247 428.011 513.047C430.347 510.211 432.831 505.744 433.194 503.714C433.812 500.272 430.17 496.887 425.996 497.022C423.746 497.097 422.645 497.823 420.746 500.493C419.825 501.78 417.489 504.765 415.554 507.127C392.519 535.218 364.698 554.316 330.653 565.404C316.601 569.981 302.637 572.563 286.637 573.545C280.608 573.914 277.164 573.929 269.73 573.618C260.482 573.229 257.195 573.33 255.936 574.031C252.902 575.724 252.027 580.037 254.059 583.307C255.084 584.958 256.108 585.6 258.435 586.047ZM273.07 553.472C278.124 554.649 289.155 554.818 299.322 553.873C324.943 551.495 350.38 541.417 370.741 525.578C380.158 518.252 390.168 507.951 396.378 499.198C399.368 494.963 399.636 491.995 397.264 489.112C396.048 487.634 394.716 487.013 392.609 486.941C389.745 486.84 388.437 487.808 384.259 493.118C372.911 507.542 361.412 517.388 346.965 525.048C331.174 533.423 321.918 536.816 308.826 539.033C300.075 540.511 294.285 540.777 273.72 540.638L269.97 540.612L268.744 542.154C267.694 543.475 267.496 544.021 267.346 545.983C267.15 548.587 268.122 551.004 269.856 552.225C270.44 552.633 271.886 553.195 273.07 553.472ZM292.472 523.162C296.458 523.523 305.731 523.171 310.56 522.477C317.997 521.408 328.687 518.112 334.23 515.176C344.052 509.971 353.168 502.54 360.113 494.069C364.165 489.13 364.842 487.229 363.689 484.033C362.219 479.946 357.123 478.526 353.794 481.272C353.1 481.846 351.191 483.92 349.555 485.877C336.525 501.468 316.731 510.674 297.814 509.941C290.473 509.66 288.335 510.216 286.386 512.922C285.326 514.37 285.063 515.79 285.449 517.748C286.081 520.968 288.454 522.799 292.472 523.162Z" fill="#A43254"/>
<path d="M921 231.133V285M921 83V136.867M873.867 184H820M1022 184H968.133M846.933 184.009C846.933 203.653 854.737 222.492 868.627 236.382C882.517 250.272 901.356 258.076 921 258.076C940.644 258.076 959.483 250.272 973.373 236.382C987.263 222.492 995.067 203.653 995.067 184.009C995.067 164.365 987.263 145.526 973.373 131.636C959.483 117.746 940.644 109.942 921 109.942C901.356 109.942 882.517 117.746 868.627 131.636C854.737 145.526 846.933 164.365 846.933 184.009Z" stroke="#1B5F21" stroke-width="6" stroke-linecap="round" stroke-linejoin="round"/>
<g filter="url(#filter1_di_224_137)">
<path d="M948.03 155.674V194.115C948.03 196.97 946.896 199.708 944.878 201.726C942.859 203.745 940.122 204.879 937.267 204.879C934.412 204.879 931.674 203.745 929.656 201.726C927.637 199.708 926.503 196.97 926.503 194.115C926.503 191.261 927.637 188.523 929.656 186.504C931.674 184.486 934.412 183.352 937.267 183.352C938.928 183.352 940.496 183.721 941.88 184.397V166.345L911.127 172.896V200.266C911.127 203.121 909.993 205.858 907.974 207.877C905.955 209.896 903.218 211.03 900.363 211.03C897.508 211.03 894.771 209.896 892.752 207.877C890.733 205.858 889.599 203.121 889.599 200.266C889.599 197.411 890.733 194.674 892.752 192.655C894.771 190.636 897.508 189.502 900.363 189.502C902.024 189.502 903.592 189.871 904.976 190.548V164.9L948.03 155.674Z" fill="#1B5F21"/>
<path d="M947.53 194.115C947.53 196.837 946.449 199.448 944.524 201.373C942.599 203.298 939.988 204.379 937.266 204.379C934.545 204.379 931.934 203.298 930.01 201.373C928.085 199.448 927.004 196.837 927.004 194.115C927.004 191.393 928.085 188.782 930.01 186.857C931.934 184.933 934.545 183.852 937.266 183.852C938.852 183.852 940.346 184.204 941.66 184.847L942.38 185.198V165.728L941.776 165.856L911.022 172.406L910.627 172.491V200.266C910.627 202.988 909.546 205.599 907.621 207.523C905.696 209.448 903.085 210.529 900.363 210.529C897.641 210.529 895.03 209.448 893.105 207.523C891.181 205.599 890.099 202.988 890.099 200.266C890.099 197.544 891.181 194.933 893.105 193.009C895.03 191.084 897.641 190.002 900.363 190.002C901.949 190.002 903.443 190.355 904.757 190.997L905.476 191.349V165.304L947.53 156.292V194.115Z" stroke="#1B5F21"/>
</g>
<path d="M919 566.133V620M919 418V471.867M871.867 519H818M1020 519H966.133M844.933 519.009C844.933 538.653 852.737 557.492 866.627 571.382C880.517 585.272 899.356 593.076 919 593.076C938.644 593.076 957.483 585.272 971.373 571.382C985.263 557.492 993.067 538.653 993.067 519.009C993.067 499.365 985.263 480.526 971.373 466.636C957.483 452.746 938.644 444.942 919 444.942C899.356 444.942 880.517 452.746 866.627 466.636C852.737 480.526 844.933 499.365 844.933 519.009Z" stroke="#DE2E07" stroke-width="6" stroke-linecap="round" stroke-linejoin="round"/>
<g filter="url(#filter2_di_224_137)">
<path d="M931.218 533.377H905.308L908.373 550.372L913.666 554.272H923.417L927.875 550.372L931.218 533.377Z" fill="#DE2E07"/>
<path fill-rule="evenodd" clip-rule="evenodd" d="M905.862 502.385C906.908 502.856 908.145 502.389 908.621 501.343C908.628 501.325 909.436 499.579 911.085 497.931C912.763 496.252 914.525 495.356 914.55 495.342C915.58 494.83 916 493.578 915.49 492.549C915.317 492.199 915.051 491.906 914.72 491.7C914.389 491.495 914.007 491.387 913.617 491.387C913.306 491.387 912.989 491.456 912.694 491.604C912.597 491.653 910.323 492.789 908.134 494.978C905.915 497.196 904.855 499.535 904.811 499.635C904.342 500.685 904.811 501.911 905.862 502.385Z" fill="#DE2E07"/>
<path fill-rule="evenodd" clip-rule="evenodd" d="M905.885 530.604C905.307 526.63 903.158 523.363 900.897 519.934C897.999 515.538 895 510.993 895 504.648C895 491.829 905.91 481 918.822 481C925.333 481 931.459 483.762 936.067 488.774C940.076 493.134 942.468 498.675 942.468 503.596C942.468 512.282 939.277 516.48 936.462 520.183C934.206 523.152 932.223 525.766 931.782 530.604L932.44 530.604C932.75 530.604 933.057 530.673 933.337 530.807C933.618 530.94 933.865 531.134 934.061 531.375C934.458 531.862 934.613 532.501 934.483 533.118L930.814 550.657C930.611 551.624 929.759 552.317 928.771 552.317L927.951 552.317C927.018 553.703 925.076 555.742 921.505 556.48C919.173 556.85 917.905 556.907 915.767 556.48C912.212 555.736 910.263 553.693 909.32 552.319L908.484 552.319C908.005 552.319 907.54 552.154 907.168 551.852C906.796 551.55 906.539 551.128 906.441 550.659L902.772 533.12C902.708 532.817 902.713 532.502 902.786 532.201C902.859 531.899 902.999 531.618 903.195 531.377C903.592 530.89 904.187 530.606 904.815 530.606L905.885 530.606L905.885 530.604ZM917.03 519.068L918.609 508.008L920.535 519.068L917.03 519.068ZM918.819 485.177C930.706 485.177 938.291 496.087 938.291 503.598C938.291 511.109 935.788 514.171 933.137 517.659C930.637 520.95 928.058 524.342 927.589 530.608L920.909 530.608L920.909 523.247L923.019 523.247C923.324 523.247 923.624 523.181 923.9 523.052C924.176 522.924 924.421 522.736 924.617 522.504C924.813 522.271 924.956 521.998 925.036 521.704C925.115 521.41 925.129 521.102 925.077 520.802L922.347 505.122C922.172 504.106 921.29 503.392 920.292 503.392C920.175 503.392 920.052 503.402 919.932 503.422C919.66 503.469 919.401 503.57 919.168 503.718C918.935 503.866 918.734 504.059 918.577 504.286C918.413 504.051 918.203 503.852 917.959 503.702C917.715 503.551 917.443 503.453 917.159 503.413C916.026 503.252 914.961 504.043 914.797 505.184L912.557 520.864C912.472 521.465 912.65 522.07 913.047 522.527C913.243 522.753 913.485 522.934 913.757 523.058C914.029 523.183 914.325 523.247 914.624 523.247L916.734 523.247L916.734 530.608L910.103 530.608C909.533 525.445 906.919 521.483 904.384 517.639C901.705 513.58 899.175 509.744 899.175 504.653C899.175 494.281 908.355 485.182 918.822 485.182L918.819 485.177ZM927.074 548.145L926.73 548.145C925.859 548.145 925.091 548.657 924.786 549.472C924.733 549.599 923.447 552.592 918.651 552.592C913.855 552.592 912.516 549.583 912.47 549.472C912.317 549.081 912.049 548.745 911.703 548.508C911.356 548.272 910.946 548.145 910.526 548.145L910.182 548.145L907.385 534.78L929.87 534.78L927.074 548.145Z" fill="#DE2E07"/>
</g>
<mask id="mask2_224_137" style="mask-type:alpha" maskUnits="userSpaceOnUse" x="1049" y="275" width="148" height="148">
<circle cx="1123" cy="349" r="74" fill="url(#paint4_linear_224_137)"/>
</mask>
<g mask="url(#mask2_224_137)">
<circle cx="1123" cy="349" r="74" fill="url(#paint5_linear_224_137)"/>
<ellipse cx="1149.5" cy="310.5" rx="62.5" ry="58.5" fill="url(#paint6_radial_224_137)"/>
</g>
<path d="M1122.5 395.4V449M1122.5 248V301.6M1075.6 348.5H1022M1223 348.5H1169.4M1048.8 348.509C1048.8 368.055 1056.56 386.801 1070.39 400.623C1084.21 414.444 1102.95 422.209 1122.5 422.209C1142.05 422.209 1160.79 414.444 1174.61 400.623C1188.44 386.801 1196.2 368.055 1196.2 348.509C1196.2 328.962 1188.44 310.217 1174.61 296.395C1160.79 282.574 1142.05 274.809 1122.5 274.809C1102.95 274.809 1084.21 282.574 1070.39 296.395C1056.56 310.217 1048.8 328.962 1048.8 348.509Z" stroke="#9A2420" stroke-width="6" stroke-linecap="round" stroke-linejoin="round"/>
<g filter="url(#filter3_di_224_137)">
<path d="M1113.44 368.745L1092.74 353.864M1102.28 345.368L1118.63 357.487M1101.95 343.728L1119.79 326.359M1117.07 313.766L1088.03 341.329M1135.82 332.213L1128.51 324.744M1086.42 346.099C1086.42 348.207 1087.26 350.228 1088.75 351.718C1090.24 353.208 1092.26 354.045 1094.37 354.045C1096.48 354.045 1098.5 353.208 1099.99 351.718C1101.48 350.228 1102.31 348.207 1102.31 346.099C1102.31 343.992 1101.48 341.971 1099.99 340.481C1098.5 338.991 1096.48 338.154 1094.37 338.154C1092.26 338.154 1090.24 338.991 1088.75 340.481C1087.26 341.971 1086.42 343.992 1086.42 346.099ZM1115.02 319.081C1115.02 321.188 1115.86 323.209 1117.35 324.699C1118.84 326.189 1120.86 327.026 1122.97 327.026C1125.07 327.026 1127.1 326.189 1128.59 324.699C1130.08 323.209 1130.91 321.188 1130.91 319.081C1130.91 316.973 1130.08 314.952 1128.59 313.462C1127.1 311.972 1125.07 311.135 1122.97 311.135C1120.86 311.135 1118.84 311.972 1117.35 313.462C1115.86 314.952 1115.02 316.973 1115.02 319.081ZM1134.09 336.564C1134.09 338.25 1134.76 339.867 1135.96 341.059C1137.15 342.251 1138.77 342.921 1140.45 342.921C1142.14 342.921 1143.75 342.251 1144.95 341.059C1146.14 339.867 1146.81 338.25 1146.81 336.564C1146.81 334.879 1146.14 333.262 1144.95 332.07C1143.75 330.878 1142.14 330.208 1140.45 330.208C1138.77 330.208 1137.15 330.878 1135.96 332.07C1134.76 333.262 1134.09 334.879 1134.09 336.564Z" stroke="#CE393C" stroke-width="4" stroke-linecap="round" stroke-linejoin="round"/>
<path d="M1146.65 335.13C1148.03 334.874 1149.44 334.923 1150.8 335.276C1152.15 335.629 1153.41 336.276 1154.49 337.171C1155.57 338.067 1156.44 339.188 1157.03 340.457C1157.62 341.725 1157.93 343.109 1157.93 344.51M1148.4 354.044C1147 354.045 1145.61 353.737 1144.34 353.142C1143.08 352.547 1141.95 351.68 1141.06 350.602C1140.16 349.525 1139.52 348.264 1139.17 346.908C1138.81 345.552 1138.76 344.135 1139.02 342.758M1087.21 382.649H1157.14M1113.44 382.649V365.96C1113.44 363.431 1114.44 361.006 1116.23 359.218C1118.02 357.43 1120.44 356.425 1122.97 356.425C1125.5 356.425 1127.92 357.43 1129.71 359.218C1131.5 361.006 1132.51 363.431 1132.51 365.96V382.646" stroke="#CE393C" stroke-width="4" stroke-linecap="round" stroke-linejoin="round"/>
</g>
</g>
<defs>
<filter id="filter0_d_224_137" x="458" y="259" width="364" height="194" filterUnits="userSpaceOnUse" color-interpolation-filters="sRGB">
<feFlood flood-opacity="0" result="BackgroundImageFix"/>
<feColorMatrix in="SourceAlpha" type="matrix" values="0 0 0 0 0 0 0 0 0 0 0 0 0 0 0 0 0 0 127 0" result="hardAlpha"/>
<feOffset dy="4"/>
<feGaussianBlur stdDeviation="2"/>
<feComposite in2="hardAlpha" operator="out"/>
<feColorMatrix type="matrix" values="0 0 0 0 0 0 0 0 0 0 0 0 0 0 0 0 0 0 0.25 0"/>
<feBlend mode="normal" in2="BackgroundImageFix" result="effect1_dropShadow_224_137"/>
<feBlend mode="normal" in="SourceGraphic" in2="effect1_dropShadow_224_137" result="shape"/>
</filter>
<filter id="filter1_di_224_137" x="885.599" y="155.674" width="66.4312" height="63.3555" filterUnits="userSpaceOnUse" color-interpolation-filters="sRGB">
<feFlood flood-opacity="0" result="BackgroundImageFix"/>
<feColorMatrix in="SourceAlpha" type="matrix" values="0 0 0 0 0 0 0 0 0 0 0 0 0 0 0 0 0 0 127 0" result="hardAlpha"/>
<feOffset dy="4"/>
<feGaussianBlur stdDeviation="2"/>
<feComposite in2="hardAlpha" operator="out"/>
<feColorMatrix type="matrix" values="0 0 0 0 0 0 0 0 0 0 0 0 0 0 0 0 0 0 0.25 0"/>
<feBlend mode="normal" in2="BackgroundImageFix" result="effect1_dropShadow_224_137"/>
<feBlend mode="normal" in="SourceGraphic" in2="effect1_dropShadow_224_137" result="shape"/>
<feColorMatrix in="SourceAlpha" type="matrix" values="0 0 0 0 0 0 0 0 0 0 0 0 0 0 0 0 0 0 127 0" result="hardAlpha"/>
<feOffset dy="4"/>
<feGaussianBlur stdDeviation="2"/>
<feComposite in2="hardAlpha" operator="arithmetic" k2="-1" k3="1"/>
<feColorMatrix type="matrix" values="0 0 0 0 0 0 0 0 0 0 0 0 0 0 0 0 0 0 0.25 0"/>
<feBlend mode="normal" in2="shape" result="effect2_innerShadow_224_137"/>
</filter>
<filter id="filter2_di_224_137" x="891" y="481" width="55.4678" height="83.7793" filterUnits="userSpaceOnUse" color-interpolation-filters="sRGB">
<feFlood flood-opacity="0" result="BackgroundImageFix"/>
<feColorMatrix in="SourceAlpha" type="matrix" values="0 0 0 0 0 0 0 0 0 0 0 0 0 0 0 0 0 0 127 0" result="hardAlpha"/>
<feOffset dy="4"/>
<feGaussianBlur stdDeviation="2"/>
<feComposite in2="hardAlpha" operator="out"/>
<feColorMatrix type="matrix" values="0 0 0 0 0.806227 0 0 0 0 0.224889 0 0 0 0 0.234578 0 0 0 0.3 0"/>
<feBlend mode="normal" in2="BackgroundImageFix" result="effect1_dropShadow_224_137"/>
<feBlend mode="normal" in="SourceGraphic" in2="effect1_dropShadow_224_137" result="shape"/>
<feColorMatrix in="SourceAlpha" type="matrix" values="0 0 0 0 0 0 0 0 0 0 0 0 0 0 0 0 0 0 127 0" result="hardAlpha"/>
<feOffset dy="4"/>
<feGaussianBlur stdDeviation="2"/>
<feComposite in2="hardAlpha" operator="arithmetic" k2="-1" k3="1"/>
<feColorMatrix type="matrix" values="0 0 0 0 0.401949 0 0 0 0 0 0 0 0 0 0 0 0 0 0.25 0"/>
<feBlend mode="normal" in2="shape" result="effect2_innerShadow_224_137"/>
</filter>
<filter id="filter3_di_224_137" x="1080.42" y="308.135" width="83.5088" height="83.5137" filterUnits="userSpaceOnUse" color-interpolation-filters="sRGB">
<feFlood flood-opacity="0" result="BackgroundImageFix"/>
<feColorMatrix in="SourceAlpha" type="matrix" values="0 0 0 0 0 0 0 0 0 0 0 0 0 0 0 0 0 0 127 0" result="hardAlpha"/>
<feOffset dy="3"/>
<feGaussianBlur stdDeviation="2"/>
<feComposite in2="hardAlpha" operator="out"/>
<feColorMatrix type="matrix" values="0 0 0 0 0.806227 0 0 0 0 0.224889 0 0 0 0 0.234578 0 0 0 0.54 0"/>
<feBlend mode="normal" in2="BackgroundImageFix" result="effect1_dropShadow_224_137"/>
<feBlend mode="normal" in="SourceGraphic" in2="effect1_dropShadow_224_137" result="shape"/>
<feColorMatrix in="SourceAlpha" type="matrix" values="0 0 0 0 0 0 0 0 0 0 0 0 0 0 0 0 0 0 127 0" result="hardAlpha"/>
<feOffset dy="2"/>
<feGaussianBlur stdDeviation="2"/>
<feComposite in2="hardAlpha" operator="arithmetic" k2="-1" k3="1"/>
<feColorMatrix type="matrix" values="0 0 0 0 0.522893 0 0 0 0 0.109245 0 0 0 0 0.0796987 0 0 0 1 0"/>
<feBlend mode="normal" in2="shape" result="effect2_innerShadow_224_137"/>
</filter>
<linearGradient id="paint0_linear_224_137" x1="921" y1="111" x2="921" y2="259" gradientUnits="userSpaceOnUse">
<stop stop-color="#3ECB47"/>
<stop offset="1" stop-color="#268D2E"/>
</linearGradient>
<radialGradient id="paint1_radial_224_137" cx="0" cy="0" r="1" gradientUnits="userSpaceOnUse" gradientTransform="translate(956 135) rotate(90) scale(66)">
<stop stop-color="#95D429"/>
<stop offset="1" stop-color="#21A435" stop-opacity="0"/>
</radialGradient>
<linearGradient id="paint2_linear_224_137" x1="921" y1="445" x2="921" y2="593" gradientUnits="userSpaceOnUse">
<stop stop-color="#FFC93C"/>
<stop offset="1" stop-color="#FF7D49"/>
</linearGradient>
<linearGradient id="paint3_linear_224_137" x1="640" y1="259" x2="640" y2="445" gradientUnits="userSpaceOnUse">
<stop stop-color="#CE393C"/>
<stop offset="1" stop-color="#962F5C"/>
</linearGradient>
<linearGradient id="paint4_linear_224_137" x1="1123" y1="275" x2="1123" y2="423" gradientUnits="userSpaceOnUse">
<stop stop-color="#FF7B54"/>
<stop offset="1" stop-color="#D7484A"/>
</linearGradient>
<linearGradient id="paint5_linear_224_137" x1="1123" y1="275" x2="1123" y2="423" gradientUnits="userSpaceOnUse">
<stop stop-color="#FF7B54"/>
<stop offset="1" stop-color="#D7484A"/>
</linearGradient>
<radialGradient id="paint6_radial_224_137" cx="0" cy="0" r="1" gradientTransform="matrix(-6.37755 73.7609 -78.8043 -6.77339 1155.88 295.239)" gradientUnits="userSpaceOnUse">
<stop stop-color="#FFA175"/>
<stop offset="1" stop-color="#FA7553" stop-opacity="0"/>
</radialGradient>
<clipPath id="clip0_224_137">
<rect width="1280" height="720" fill="white"/>
</clipPath>
</defs>
</svg>
