<svg xmlns="http://www.w3.org/2000/svg" xmlns:xlink="http://www.w3.org/1999/xlink" width="1281.07" height="720" xmlns:v="https://vecta.io/nano"><style><![CDATA[.B{clip-path:none}.C{fill:none}.D{fill:#ff7b54}.E{fill:#ffc93c}.F{stroke-miterlimit:10}.G{stroke-linecap:round}.H{stroke-width:1.806}]]></style><defs><clipPath ><path d="M0 0h708.12v398.41H0z" stroke-width="0" class="C"/></clipPath><clipPath ><path d="M-14.17-14.17h736.48V418H-14.17z" stroke-width="0" class="C"/></clipPath><linearGradient id="C" gradientTransform="matrix(0,-292.41271,-292.41271,0,684895.62,-110669.15)" x1="-381.06" y1="2340.06" x2="-378.39" y2="2340.06" gradientUnits="userSpaceOnUse" spreadMethod="pad"><stop offset="0" stop-color="#1e5c93"/><stop offset="1" stop-color="#35c2ff"/></linearGradient><path id="D" d="M882.787 340.396c0 30.055-24.364 54.417-54.417 54.417s-54.417-24.362-54.417-54.417 24.362-54.414 54.417-54.414 54.417 24.362 54.417 54.414z"/><path id="E" d="M882.787 94.026c0 30.043-24.364 54.407-54.417 54.407s-54.417-24.364-54.417-54.407c0-30.055 24.362-54.417 54.417-54.417s54.417 24.362 54.417 54.417z"/><path id="F" d="M17.931-81.649c0 30.055-24.364 54.417-54.417 54.417s-54.417-24.362-54.417-54.417 24.362-54.417 54.417-54.417 54.417 24.364 54.417 54.417z"/></defs><path d="M0 0h1281.07v720H0z" fill="url(#C)" class="B"/><path d="M.001 524.083v195.456h1278.878V417.048l-495.95-15.968-379.501 45.083z" fill="#13752d" class="B"/><path d="M158.666 719.539h657.243c-57.415-193.534-158.097-273.002-199.766-298.66l-212.694 25.263-187.413 36.205c7.666 80.962-30.156 178.757-57.369 237.192z" fill="#bc9353" class="B"/><path d="M786.936 85.899h82.841v254.5h-82.841z" class="B"/><path d="M820.6 340.396h15.529v318.076H820.6z" class="B"/><use xlink:href="#D" fill="#1ead28" class="B"/><use xlink:href="#E" class="B D"/><path d="M786.936 85.899h82.841v254.5h-82.841z" class="B"/><use xlink:href="#D" fill="#1ead28" class="B"/><g class="D"><use xlink:href="#E" class="B"/><path d="M174.009 85.899h426.493v527.028H174.009z" class="B"/></g><path d="M511.443 549.82h60.596a10.44 10.44 0 0 1 10.458 10.46v116.724c0 5.794-4.664 10.458-10.458 10.458h-60.596c-5.786 0-10.451-4.664-10.451-10.458V560.28c0-5.794 4.664-10.46 10.451-10.46zm-308.991 0h60.596a10.43 10.43 0 0 1 10.451 10.46v116.724c0 5.794-4.655 10.458-10.451 10.458h-60.596a10.43 10.43 0 0 1-10.451-10.458V560.28a10.43 10.43 0 0 1 10.451-10.46z" class="B" fill="#1e5c93"/><path d="M611.196 612.927H163.303v-207.55l46.552-202.322h354.799l46.542 202.322z" fill="#7c2869" class="B"/><path d="M566.262 401.859H208.256l16.03-155.046h325.938z" fill="#34c3ff" class="B"/><path d="M353.388 507.256h67.745" stroke="#ff7b54" stroke-width="9.03" stroke-linejoin="round" class="B C G"/><path d="M577.597 507.256c0 26.479-21.465 47.953-47.944 47.953s-47.953-21.475-47.953-47.953 21.475-47.953 47.953-47.953 47.944 21.475 47.944 47.953z" class="B E"/><path d="M645.691 400.014c0 16.387-13.292 29.677-29.679 29.677s-29.667-13.29-29.667-29.677 13.283-29.667 29.667-29.667 29.679 13.283 29.679 29.667zm-452.719 0c0 16.387-13.283 29.677-29.669 29.677-16.394 0-29.677-13.29-29.677-29.677s13.283-29.667 29.677-29.667c16.387 0 29.669 13.283 29.669 29.667z" class="B" fill="#7c2869"/><path d="M292.792 507.256c0 26.479-21.465 47.953-47.953 47.953-26.479 0-47.944-21.475-47.944-47.953s21.465-47.953 47.944-47.953c26.488 0 47.953 21.475 47.953 47.953zm245.544-105.397c-2.89-4.46-6.952-8.561-11.195-12.134-11.07-9.36-28.34-15.305-47.737-15.305-16.432 0-36.515 6.981-48.057 13.894-6.913 4.156-10.884 8.344-13.526 13.526h120.495z" class="B E"/><path d="M472.782 292.161c-5.531 15.426-20.374 26.837-38.321 28.501a38.51 38.51 0 0 0-.207 3.932c0 23.206 20.213 42.027 45.151 42.027 24.945 0 45.151-18.821 45.151-42.027 0-1.515-.084-3.01-.246-4.477a49.24 49.24 0 0 1-8.691.78c-19.941 0-36.864-12.05-42.836-28.737z" class="B D"/><path d="M479.404 282.567c-23.507 0-42.817 16.724-44.943 38.095 17.947-1.664 32.79-13.092 38.321-28.501 5.972 16.688 22.876 28.737 42.836 28.737 2.981 0 5.871-.275 8.691-.78-2.408-21.099-21.586-37.551-44.905-37.551z" class="B"/><path d="M463.988 340.726h30.861v32.848c0 8.522-6.913 15.426-15.426 15.426-8.522 0-15.419-6.913-15.419-15.426v-32.848z" class="B D"/><path d="M466.969 328.065a4.38 4.38 0 0 1-4.375 4.366c-2.415 0-4.373-1.958-4.373-4.366a4.37 4.37 0 0 1 4.373-4.373 4.38 4.38 0 0 1 4.375 4.373zm29.075 0a4.37 4.37 0 0 1-4.373 4.366c-2.418 0-4.375-1.958-4.375-4.366 0-2.418 1.958-4.373 4.375-4.373a4.37 4.37 0 0 1 4.373 4.373z" class="B"/><path d="M470.468 341.949a8.11 8.11 0 0 0 8.108 8.108 8.11 8.11 0 0 0 8.108-8.108m-9.82-3.32c1.873 0 3.415-1.515 3.415-3.415a3.41 3.41 0 0 0-3.415-3.415" class="B C F H" stroke="#000"/><path d="M425.026 305.123h109.028v64.839H425.026z" class="B"/><path d="M538.336 401.859c-2.89-5.042-6.952-9.7-11.195-13.743-11.07-10.583-28.34-17.319-47.737-17.319-16.432 0-36.515 7.903-48.057 15.729-6.913 4.693-10.884 9.461-13.526 15.332z" class="B E"/><path d="M471.391 272.042c-6.68 18.653-24.653 32.47-46.364 34.493a47.3 47.3 0 0 0-.255 4.768c0 28.087 24.478 50.86 54.633 50.86 30.165 0 54.631-22.773 54.631-50.86 0-1.842-.104-3.648-.301-5.435-3.395.609-6.923.958-10.516.958-24.126 0-44.604-14.581-51.828-34.767z" class="B D"/><path d="M479.573 260.303c-28.538 0-51.96 20.297-54.547 46.232 21.785-2.023 39.807-15.879 46.504-34.586 7.263 20.271 27.779 34.878 51.98 34.878 3.612 0 7.13-.33 10.545-.958-2.926-25.605-26.187-45.548-54.482-45.548z" class="B"/><path d="M463.988 344.338h30.861v32.848c0 8.522-6.913 15.426-15.426 15.426-8.522 0-15.419-6.913-15.419-15.426v-32.848z" class="B D"/><path d="M464.364 315.48c0 2.916-2.372 5.286-5.295 5.286-2.916 0-5.288-2.37-5.288-5.286 0-2.926 2.372-5.295 5.288-5.295 2.923 0 5.295 2.37 5.295 5.295zm35.159 0a5.29 5.29 0 0 1-5.286 5.286c-2.926 0-5.295-2.37-5.295-5.286 0-2.926 2.37-5.295 5.295-5.295 2.916 0 5.286 2.37 5.286 5.295z" class="B"/><path d="M468.588 332.269c0 5.418 4.392 9.813 9.81 9.813s9.801-4.395 9.801-9.813m-11.879-4.007a4.12 4.12 0 1 0 0-8.24" class="B C F H" stroke="#000"/><g transform="translate(864.856 298.861)"><g class="E"><use xlink:href="#F" class="B"/><use xlink:href="#F" class="B"/></g><path d="M-167.733-81.254l43.872-.055m218.613.055l-43.843-.055m-211.201-49.394l40.147 16.546m207.456-16.546l-40.147 16.546m-207.456 81.562l40.908-16.601M87.311-32.595L46.423-49.196" class="B C F G" stroke="#ffc93d" stroke-width="11.739"/></g></svg>