<svg xmlns="http://www.w3.org/2000/svg" width="1281.07" height="720" xmlns:v="https://vecta.io/nano"><defs><clipPath ><path d="M0 0h708.12v398.41H0z" stroke-width="0" fill="none"/></clipPath><clipPath ><path d="M-14.17-14.17h736.48V418H-14.17z" stroke-width="0" fill="none"/></clipPath><linearGradient id="C" x1="638.349" y1="733.525" x2="638.349" y2="-21.817" gradientUnits="userSpaceOnUse" spreadMethod="pad"><stop offset="0" stop-color="#1ead28"/><stop offset="1" stop-color="#248029"/></linearGradient></defs><path d="M0 0h1280v720H0z" fill="url(#C)"/><g stroke="#1e5c93" stroke-miterlimit="10"><path d="M404.638 243.386h470.724v297.993H404.638z" fill="#34c3ff" stroke-width="17.992" clip-path="none"/><path d="M402.258 544.28h475.484l37.814 100.682H364.444z" clip-path="none" fill="#1e5c93" stroke-width="9.147"/><path d="M536.955 586.802h206.089l16.39 43.639H520.565z" clip-path="none" fill="#a184dc" stroke-width="3.964"/></g><g transform="translate(12094.333 -2681.091)"><g transform="matrix(.70336 0 0 .70336 -6469.6865 987.03157)" fill="#f3ca59"><circle cx="-6981.029" cy="2893.369" r="37.727" clip-path="none"/><circle cx="-7192.888" cy="2897.024" r="37.727" clip-path="none"/></g><path d="M-11505.879 3144.428c-18.838-1.56-39.006-11.035-53.871-25.309-4.577-4.396-5.427-5.823-5.476-9.198-.06-5.006 3.888-9.046 8.866-9.046 3.028 0 4.758.93 9.085 4.889 7.221 6.604 12.663 10.3 21.187 14.388 10.491 5.031 20.989 7.166 30.667 6.234 11.958-1.15 20.847-5.336 30.521-14.371 9.746-9.103 17.712-13.961 29.818-18.184 9.624-3.358 18.011-4.704 29.296-4.704 11.208 0 19.374 1.301 29.172 4.648 11.282 3.853 22.251 10.492 29.835 18.058 2.459 2.454 3.736 5.948 3.11 8.509-1.072 4.38-4.747 7.456-8.907 7.456-3.005 0-4.139-.609-9.505-5.106-5.29-4.434-9.818-7.254-15.812-9.847-17.99-7.782-40.274-7.39-58.003 1.022-6.249 2.965-10.127 5.662-16.92 11.767-3.198 2.874-7.13 6.155-8.738 7.291-9.077 6.416-19.989 10.303-32.318 11.512-5.44.533-5.468.533-12.007-.01z" fill="#ff7b54" stroke="#ff7b54" stroke-width="12.783"/></g><path d="M769.205 335.233c-6.016-9.24-1.7-23.685-3.085-34.975.441-38.644-1.017-77.357 1.046-115.954 6.996-53.92 50.424-100.596 103.799-111.195 17.198-3.503 35.234-3.336 52.525-.613 50.394 9.037 93.122 49.817 104.355 99.785 11.148 45.723-4.069 96.797-39.255 128.281-25.994 24.907-62.619 36.726-98.283 35.175-40.352.01-80.799.787-121.102-.504z" fill="#7c2869"/><path d="M898.462 125.88q22.067 0 35.436 12.094 13.579 11.882 13.579 32.889 0 20.794-13.367 31.828-13.368 10.822-35.435 10.822l-.849 16.338h-26.099l-1.06-36.071h9.548q18.46 0 28.432-4.88 9.973-4.88 9.973-17.824 0-9.336-5.517-14.853-5.305-5.517-14.641-5.517-9.76 0-15.277 5.305-5.305 5.305-5.305 14.641h-28.008q-.212-12.943 5.517-23.128 5.729-10.185 16.763-15.914 11.246-5.729 26.31-5.729zM884.67 280.562q-8.062 0-13.367-4.88-5.093-5.092-5.093-12.519 0-7.426 5.093-12.307 5.305-5.093 13.367-5.093 7.851 0 12.944 5.093 5.092 4.88 5.092 12.307 0 7.426-5.092 12.519-5.093 4.88-12.944 4.88z" fill="#fff"/></svg>