<svg xmlns="http://www.w3.org/2000/svg" xmlns:xlink="http://www.w3.org/1999/xlink" width="1281.07" height="720" xmlns:v="https://vecta.io/nano"><style><![CDATA[.B{clip-path:none}]]></style><defs><clipPath ><path d="M0 0h708.12v398.41H0z" stroke-width="0" fill="none"/></clipPath><clipPath ><path d="M-14.17-14.17h736.48V418H-14.17z" stroke-width="0" fill="none"/></clipPath><linearGradient id="C" gradientTransform="matrix(0,-292.41273,292.1684,0,-684628.12,146128.38)" x1="499.89" y1="2345.51" x2="497.16" y2="2345.51" gradientUnits="userSpaceOnUse" spreadMethod="pad"><stop offset="0" stop-color="#1e5c93"/><stop offset="1" stop-color="#35c2ff"/></linearGradient><path id="D" d="M17.931-81.649c0 30.055-24.364 54.417-54.417 54.417s-54.417-24.362-54.417-54.417 24.362-54.417 54.417-54.417 54.417 24.364 54.417 54.417z"/></defs><path d="M1280 0H0v720h1280z" fill="url(#C)" class="B"/><g transform="translate(39.491 -714.946)"><path d="M588.556 1258.373v176.573h23.905v-176.573z" class="B"/><path d="M536.784 866.49h127.45v391.884h-127.45z" class="B"/><path d="M684.226 1258.374c0 46.277-37.481 83.789-83.716 83.789s-83.719-37.512-83.719-83.789 37.481-83.786 83.719-83.786 83.716 37.512 83.716 83.786z" fill="#1ead28" class="B"/><path d="M684.226 879.004c0 46.274-37.481 83.789-83.716 83.789s-83.719-37.516-83.719-83.789 37.481-83.789 83.719-83.789 83.716 37.512 83.716 83.789z" fill="#ff7b54" class="B"/><g transform="matrix(1.55923 0 0 1.55923 657.40537 1196.0006)"><g fill="#ffc93c"><use xlink:href="#D" class="B"/><use xlink:href="#D" class="B"/></g><path d="M-167.733-81.254l43.872-.055m218.613.055l-43.843-.055m-211.201-49.394l40.147 16.546m207.456-16.546l-40.147 16.546m-207.456 81.562l40.908-16.601M87.311-32.595L46.423-49.196" class="B" fill="none" stroke="#ffc93d" stroke-width="11.739" stroke-linecap="round" stroke-miterlimit="10"/></g></g></svg>