<svg xmlns="http://www.w3.org/2000/svg" width="1281.07" height="720" xmlns:v="https://vecta.io/nano"><g transform="matrix(3.779527 0 0 3.779527 -11545.108 -6290.4822)"><path d="M3054.643 1664.357h338.667v190.5h-338.667z" fill="#13752d"/><g fill="#bc9353"><path d="M3054.643 1711.606h338.667v48.001h-338.667z"/><path d="M3172.05 1664.357v190.5h-48.001v-190.5z"/></g><rect width="24.077" height="61.912" x="3183.731" y="1766.888" ry="10.877"/><path d="M3205.338 1779.1c0 5.289-4.284 9.576-9.568 9.576s-9.568-4.288-9.568-9.576 4.284-9.576 9.568-9.576 9.568 4.287 9.568 9.576z" clip-path="none" fill="#ff7b54"/><rect width="24.077" height="61.912" x="1678.384" y="-3243.924" ry="10.877" transform="rotate(90)"/><path d="M3231.711 1699.991c-5.289 0-9.576-4.284-9.576-9.568s4.288-9.568 9.576-9.568 9.576 4.284 9.576 9.568-4.287 9.568-9.576 9.568z" clip-path="none" fill="#1ead28"/><path d="M3139.496 1824.262l8.553-8.556 8.553 8.556h-5.197v18.741h-6.713v-18.741zm210.15-80.102l-8.556-8.553 8.556-8.553v5.197h18.741v6.713h-18.741z" fill="#f9f9f9" fill-rule="evenodd"/><path d="M3138.092 1768.011h19.746v31.794h-19.746z" fill="#34c3ff"/><path d="M3137.7 1798.523v-31.798c0-1.86.781-4.835 4.129-4.941s8.244-.12 12.359.048c3.991-.037 4.205 2.639 4.186 6.481v31.513c.014 2.17-1.597 4.06-4.234 4.035l-12.324.014c-2.914.015-4.112-2.445-4.11-5.345zm17.58-1.62c-.375-.469-.64-1.143-1.084-1.482h-12.146l-1.92 2.923 16.141.041-.99-1.482zm-14.245-6.463v-3.638l-2.326-.275-.061 9.141 2.388-1.591zm16.356-3.887c-.642.223-1.959-.068-2.318.451l-.042 6.767 2.349 1.568.014-8.786zm-16.356-3.321c-.041-.965.171-1.976-.333-2.857l-2.014-5.32-.014 9.8c1.034.083 2.33.432 2.355-.855zm16.37-2.154l-.026-6.236-2.348 6.305v4.06c.462-.082 2.371.185 2.378-.284v-3.845zm-2.263-5.82c.078-1.236 1.29-3.056.625-3.939-5.063-1.489-10.545-1.376-15.604.059-.216 1.219.614 2.858.856 4.254l.867 3.321h12.296l.96-3.695z" fill="#1e5c93"/><path d="M3159.016 1745.479v-19.746h31.794v19.746z" fill="#34c3ff"/><path d="M3189.529 1745.955h-31.798c-1.86 0-4.835-.781-4.941-4.129s-.12-8.244.048-12.359c-.037-3.991 2.639-4.205 6.481-4.186h31.513c2.17-.014 4.06 1.597 4.035 4.234l.014 12.324c.015 2.914-2.445 4.112-5.345 4.11zm-1.62-17.58c-.469.375-1.143.64-1.482 1.084v12.146l2.923 1.92.041-16.141-1.482.99zm-6.463 14.245h-3.638l-.275 2.326 9.142.061-1.591-2.388zm-3.887-16.356c.223.642-.068 1.959.451 2.318l6.767.042 1.568-2.349c-2.928 0-5.859-.05-8.786-.014zm-3.321 16.356c-.965.041-1.977-.171-2.857.333l-5.32 2.014 9.8.014c.083-1.034.432-2.33-.855-2.355zm-2.154-16.37l-6.236.026 6.305 2.348h4.06c-.082-.462.185-2.371-.284-2.378-1.399-.022-2.361 0-3.845 0zm-5.82 2.263c-1.236-.078-3.057-1.29-3.939-.625-1.489 5.063-1.376 10.545.059 15.604 1.219.216 2.858-.614 4.254-.856l3.321-.867v-12.295l-3.695-.96z" fill="#7c2869"/></g></svg>