<svg width="1280" height="720" viewBox="0 0 1280 720" fill="none" xmlns="http://www.w3.org/2000/svg">
<g clip-path="url(#clip0_410_4586)">
<rect width="1280" height="720" fill="#ECFAFF"/>
<path d="M0.078125 0.210938H1280.06V720.201H0.078125V0.210938Z" fill="url(#paint0_linear_410_4586)"/>
<path d="M755.127 169C828.057 282.947 794.926 434.63 681.127 507.798" stroke="#ECFAFF" stroke-width="10" stroke-miterlimit="10"/>
<path d="M705.143 201.062C760.387 287.413 735.28 402.359 649.063 457.814" stroke="#ECFAFF" stroke-width="10" stroke-miterlimit="10"/>
<path d="M655.159 233.125C692.717 291.879 675.634 370.092 617 407.829" stroke="#ECFAFF" stroke-width="10" stroke-miterlimit="10"/>
<path d="M986.702 332.251C986.702 300.302 1012.6 274.402 1044.55 274.402C1076.5 274.402 1102.4 300.302 1102.4 332.251C1068.45 398.275 1086.05 407.078 1044.55 407.078C999.278 407.078 1003.05 375.01 986.702 332.251Z" fill="#FFC93C"/>
<path fill-rule="evenodd" clip-rule="evenodd" d="M1044.89 255.375C1046.38 255.375 1047.8 254.785 1048.85 253.735C1049.9 252.686 1050.49 251.261 1050.5 249.776V217.401C1050.44 215.951 1049.83 214.578 1048.78 213.57C1047.74 212.563 1046.34 212 1044.89 212C1043.44 212 1042.05 212.563 1041 213.57C1039.96 214.578 1039.34 215.951 1039.29 217.401V249.776C1039.29 251.26 1039.88 252.683 1040.93 253.733C1041.98 254.782 1043.41 255.373 1044.89 255.375Z" fill="#ECFAFF"/>
<path fill-rule="evenodd" clip-rule="evenodd" d="M1154.65 320.591H1122.28C1120.83 320.644 1119.45 321.258 1118.45 322.303C1117.44 323.348 1116.88 324.742 1116.88 326.194C1116.88 327.645 1117.44 329.04 1118.45 330.085C1119.45 331.13 1120.83 331.744 1122.28 331.797H1154.65C1156.1 331.744 1157.47 331.13 1158.48 330.085C1159.49 329.04 1160.05 327.645 1160.05 326.194C1160.05 324.742 1159.49 323.348 1158.48 322.303C1157.47 321.258 1156.1 320.644 1154.65 320.591Z" fill="#ECFAFF"/>
<path fill-rule="evenodd" clip-rule="evenodd" d="M967.51 320.591H935.136C933.685 320.644 932.312 321.258 931.305 322.303C930.297 323.348 929.734 324.742 929.734 326.194C929.734 327.645 930.297 329.04 931.305 330.085C932.312 331.13 933.685 331.744 935.136 331.797H967.51C968.961 331.744 970.334 331.13 971.341 330.085C972.349 329.04 972.911 327.645 972.911 326.194C972.911 324.742 972.349 323.348 971.341 322.303C970.334 321.258 968.961 320.644 967.51 320.591Z" fill="#ECFAFF"/>
<path fill-rule="evenodd" clip-rule="evenodd" d="M1115.12 295.931L1157.67 268.613C1158.29 268.216 1158.83 267.7 1159.25 267.095C1159.67 266.491 1159.96 265.809 1160.12 265.09C1160.28 264.37 1160.29 263.627 1160.16 262.903C1160.03 262.178 1159.76 261.486 1159.36 260.867C1158.96 260.247 1158.45 259.712 1157.84 259.292C1157.24 258.872 1156.56 258.575 1155.84 258.418C1155.12 258.261 1154.37 258.248 1153.65 258.378C1152.92 258.509 1152.23 258.781 1151.61 259.178L1109.06 286.496C1107.81 287.3 1106.93 288.567 1106.61 290.02C1106.29 291.473 1106.57 292.992 1107.37 294.243C1108.17 295.494 1109.44 296.375 1110.89 296.692C1112.35 297.008 1113.87 296.735 1115.12 295.931Z" fill="#ECFAFF"/>
<path fill-rule="evenodd" clip-rule="evenodd" d="M1079.88 265.802C1081.12 266.615 1082.63 266.903 1084.09 266.602C1085.54 266.301 1086.82 265.436 1087.63 264.197L1102.52 241.536C1103.29 240.294 1103.55 238.801 1103.23 237.375C1102.92 235.948 1102.06 234.701 1100.84 233.899C1099.62 233.096 1098.13 232.802 1096.7 233.078C1095.26 233.355 1093.99 234.181 1093.16 235.379L1078.27 258.04C1077.45 259.282 1077.16 260.798 1077.46 262.253C1077.76 263.709 1078.64 264.985 1079.88 265.802Z" fill="#ECFAFF"/>
<path fill-rule="evenodd" clip-rule="evenodd" d="M927.577 268.62L970.132 295.938C971.383 296.724 972.894 296.984 974.336 296.662C975.777 296.34 977.034 295.463 977.832 294.22C978.63 292.977 978.906 291.469 978.599 290.024C978.291 288.579 977.426 287.314 976.191 286.503L933.636 259.185C932.385 258.382 930.865 258.108 929.413 258.425C927.96 258.741 926.692 259.622 925.889 260.873C925.085 262.125 924.812 263.644 925.129 265.096C925.445 266.549 926.326 267.817 927.577 268.62Z" fill="#ECFAFF"/>
<path fill-rule="evenodd" clip-rule="evenodd" d="M997.616 264.196C998.021 264.81 998.542 265.339 999.15 265.752C999.759 266.165 1000.44 266.454 1001.16 266.603C1001.88 266.752 1002.63 266.757 1003.35 266.619C1004.07 266.481 1004.76 266.201 1005.37 265.797C1005.99 265.393 1006.52 264.871 1006.93 264.263C1007.34 263.654 1007.63 262.97 1007.78 262.249C1007.93 261.529 1007.94 260.786 1007.8 260.064C1007.66 259.342 1007.38 258.653 1006.98 258.039L992.085 235.378C991.25 234.179 989.98 233.354 988.546 233.077C987.111 232.801 985.625 233.095 984.405 233.897C983.184 234.7 982.325 235.947 982.01 237.373C981.694 238.8 981.949 240.293 982.718 241.535L997.609 264.196H997.616Z" fill="#ECFAFF"/>
<path fill-rule="evenodd" clip-rule="evenodd" d="M1008.08 326.523C1010.89 327.787 1014.21 326.535 1015.49 323.728C1015.5 323.678 1017.67 318.993 1022.1 314.569C1026.6 310.063 1031.33 307.659 1031.4 307.622C1034.16 306.246 1035.29 302.887 1033.92 300.123C1033.46 299.186 1032.74 298.398 1031.85 297.847C1030.97 297.296 1029.94 297.005 1028.9 297.006C1028.06 297.006 1027.21 297.192 1026.42 297.589C1026.16 297.719 1020.05 300.768 1014.18 306.642C1008.22 312.598 1005.38 318.876 1005.26 319.142C1004 321.962 1005.26 325.252 1008.08 326.523Z" fill="#ECFAFF"/>
<path fill-rule="evenodd" clip-rule="evenodd" d="M1008.14 402.261H1005.27C1003.59 402.261 1001.99 403.023 1000.92 404.331C1000.4 404.977 1000.02 405.733 999.826 406.542C999.63 407.352 999.617 408.195 999.789 409.01L1009.64 456.083C1009.9 457.342 1010.59 458.473 1011.59 459.284C1012.59 460.095 1013.83 460.538 1015.12 460.539H1017.36C1020.12 464.548 1026.06 470.677 1037.26 472.146V472.148C1037.26 472.148 1039.31 471.998 1042.41 471.998C1045.5 471.998 1048.47 471.996 1048.47 471.996V471.997C1059.08 470.324 1064.73 464.455 1067.37 460.533H1069.57C1072.22 460.533 1074.51 458.673 1075.05 456.077L1084.9 409.004C1085.25 407.349 1084.83 405.632 1083.77 404.325C1083.24 403.679 1082.58 403.158 1081.82 402.8C1081.07 402.442 1080.25 402.256 1079.42 402.255H1077.65C1078.83 389.272 1084.16 382.257 1090.21 374.288C1097.76 364.347 1106.33 353.081 1106.33 329.768C1106.33 316.562 1099.91 301.689 1089.15 289.989C1076.78 276.535 1060.34 269.123 1042.86 269.123C1008.21 269.123 978.93 298.187 978.93 332.594C978.93 349.623 986.98 361.819 994.757 373.618C1000.82 382.821 1006.59 391.59 1008.14 402.255V402.261ZM1065.01 449.334H1064.09C1061.75 449.334 1059.69 450.71 1058.87 452.898C1058.73 453.239 1055.28 461.27 1042.41 461.27C1029.54 461.27 1025.94 453.195 1025.82 452.898C1025.41 451.848 1024.69 450.946 1023.76 450.311C1022.83 449.675 1021.73 449.335 1020.6 449.334H1019.68L1012.17 413.466H1072.52L1065.01 449.334ZM1042.86 280.333C1074.76 280.333 1095.12 309.615 1095.12 329.774C1095.12 349.933 1088.4 358.15 1081.29 367.514C1074.58 376.345 1067.65 385.449 1066.4 402.267H1048.47V382.511H1054.13C1054.95 382.511 1055.76 382.332 1056.5 381.988C1057.24 381.643 1057.89 381.141 1058.42 380.516C1058.95 379.891 1059.33 379.158 1059.54 378.369C1059.76 377.58 1059.79 376.754 1059.65 375.948L1052.33 333.864C1051.86 331.137 1049.49 329.222 1046.81 329.222C1046.5 329.222 1046.17 329.247 1045.85 329.303C1045.12 329.429 1044.42 329.699 1043.79 330.097C1043.17 330.495 1042.63 331.013 1042.21 331.621C1041.77 330.989 1041.2 330.455 1040.55 330.052C1039.9 329.649 1039.16 329.386 1038.4 329.278C1035.36 328.844 1032.5 330.97 1032.06 334.031L1026.05 376.116C1025.82 377.727 1026.3 379.351 1027.37 380.578C1027.89 381.184 1028.54 381.67 1029.27 382.004C1030 382.338 1030.8 382.511 1031.6 382.511H1037.26V402.267H1019.46C1017.93 388.411 1010.92 377.777 1004.11 367.458C996.926 356.564 990.134 346.27 990.134 332.606C990.134 304.769 1014.77 280.346 1042.86 280.346L1042.86 280.333ZM1038.06 371.294L1042.29 341.61L1047.46 371.294H1038.06Z" fill="#1A3567"/>
<path d="M1066.56 453.604L1042.66 469.953L1017.51 453.604L1004.31 406.445H1077.25L1066.56 453.604Z" fill="#1A3567"/>
<path d="M495 331.957L530 383C531.972 383 540.845 379.466 560.563 365.331C580.282 351.196 595.07 326.067 600 315.27C598.192 300.384 592.704 268.746 585.211 261.286C577.718 253.825 560.728 260.795 553.169 265.212L523.592 291.712L518.169 277.479C515.803 266.485 502.394 268.644 502.394 277.479L495 331.957Z" fill="#D9987C"/>
<path d="M196.687 454.094L216.409 544.58C363.991 546.536 497.593 457.614 531.397 381.776L497.974 327.487C389.363 423.696 280.449 454.738 200.309 455.085L196.687 454.094Z" fill="#E8714D"/>
<path d="M177.05 429.706C177.05 429.706 117.762 450.911 110.356 593.849C108.382 631.955 110.357 759.004 110.357 759.004L321.954 750.059C326.114 608.413 318.53 450.407 289.422 430.642C260.314 410.877 235.896 413.187 177.049 429.703L177.05 429.706Z" fill="#FF7B54"/>
<path d="M219.51 131C199.953 185.67 147.304 226.182 83.7187 232.073C83.2486 236.698 83.0092 241.344 83 245.993C83 328.285 154.632 395 243 395C331.349 395 403 328.285 403 245.991C403 240.618 402.668 235.32 402.078 230.078C391.917 231.935 381.609 232.875 371.28 232.885C300.607 232.885 240.695 190.193 219.51 131Z" fill="#EEB98D"/>
<path d="M242.601 101C159.106 101 90.5453 159.919 83 235.191C146.715 229.34 199.468 189.089 219.064 134.771C240.294 193.583 300.325 236 371.139 236C381.682 236 392.017 235.047 402 233.211C393.437 158.894 325.345 101 242.601 101Z" fill="black"/>
<path d="M234.321 462.919L219.991 461.776C204.611 460.51 192.966 445.217 194.073 427.527L201.928 300L272 305.655L264.145 433.188C263.058 450.834 249.701 464.167 234.288 462.919" fill="#EEB98D"/>
<path d="M199 257.498C199 261.609 197.261 265.552 194.167 268.459C191.072 271.367 186.876 273 182.5 273C178.124 273 173.927 271.367 170.832 268.459C167.738 265.552 166 261.609 166 257.498C166 255.462 166.426 253.446 167.256 251.565C168.085 249.684 169.3 247.976 170.832 246.536C172.365 245.097 174.184 243.956 176.186 243.177C178.188 242.399 180.334 241.999 182.501 242C184.668 241.998 186.814 242.398 188.816 243.176C190.818 243.954 192.638 245.095 194.171 246.535C195.703 247.974 196.918 249.683 197.746 251.564C198.575 253.446 199.001 255.462 199 257.498Z" fill="black"/>
<path d="M301 257.497C301 261.608 299.367 265.552 296.46 268.459C293.553 271.367 289.611 273 285.5 273C281.389 273 277.447 271.367 274.54 268.459C271.633 265.552 270 261.608 270 257.497C269.999 255.46 270.399 253.444 271.178 251.563C271.956 249.681 273.098 247.972 274.538 246.533C275.978 245.093 277.688 243.952 279.569 243.174C281.451 242.396 283.467 241.997 285.503 242C287.538 242 289.553 242.4 291.433 243.179C293.313 243.958 295.021 245.099 296.46 246.538C297.899 247.977 299.041 249.685 299.82 251.566C300.599 253.446 301 255.461 301 257.497Z" fill="black"/>
<path d="M323 251.501C323 271.096 306.872 287 287 287C267.123 287 251 271.096 251 251.501C251 231.9 267.121 216 287 216C306.872 216 323 231.9 323 251.501Z" stroke="#7C2869" stroke-width="3.00022" stroke-miterlimit="10"/>
<path d="M217.998 251.501C217.998 271.096 201.877 287 182 287C162.142 287 146 271.096 146 251.501C146 231.9 162.142 216 182 216C201.877 216 217.998 231.9 217.998 251.501Z" stroke="#7C2869" stroke-width="3.00022" stroke-miterlimit="10"/>
<path d="M210 308C210 323.999 223.218 337 239.506 337C255.78 337 269 324.001 269 308" stroke="black" stroke-width="5" stroke-miterlimit="10"/>
<path d="M233 296C239.613 296 245 290.609 245 283.99C245 277.374 239.611 272 233 272" stroke="black" stroke-width="5" stroke-miterlimit="10"/>
<path d="M251 250.998C251 242.711 243.621 236 234.498 236C232.331 235.999 230.185 236.386 228.182 237.14C226.18 237.893 224.361 238.998 222.829 240.391C221.296 241.785 220.082 243.439 219.253 245.259C218.425 247.079 217.998 249.03 218 251" stroke="#7C2869" stroke-width="3.00022" stroke-miterlimit="10"/>
<path d="M157 446.5L202.982 517.782C340.812 504.89 456.542 408.639 480.506 334.541L443.921 287.244C352.224 387.799 267.704 416.686 193 425C174.465 427.014 167.004 432.407 157 446.5Z" fill="#FF7B54"/>
<path d="M443 287.957L478 339C479.972 339 488.845 335.466 508.563 321.331C528.282 307.196 543.07 282.067 548 271.27C546.192 256.384 540.704 224.746 533.211 217.286C525.718 209.825 508.728 216.795 501.169 221.212L471.592 247.712L466.169 233.479C463.803 222.485 450.394 224.644 450.394 233.479L443 287.957Z" fill="#EEB98D"/>
</g>
<defs>
<linearGradient id="paint0_linear_410_4586" x1="635.075" y1="747.058" x2="635.075" y2="-24.8947" gradientUnits="userSpaceOnUse">
<stop stop-color="#3291FF"/>
<stop offset="1" stop-color="#35C2FF"/>
</linearGradient>
<clipPath id="clip0_410_4586">
<rect width="1280" height="720" fill="white"/>
</clipPath>
</defs>
</svg>
