<svg width="1280" height="720" viewBox="0 0 1280 720" fill="none" xmlns="http://www.w3.org/2000/svg">
<g clip-path="url(#clip0_410_4586)">
<rect width="1280" height="720" fill="#ECFAFF"/>
<path d="M0.078125 0.210938H1280.06V720.201H0.078125V0.210938Z" fill="url(#paint0_linear_410_4586)"/>
<path d="M755.127 169C828.057 282.947 794.926 434.63 681.127 507.798" stroke="#ECFAFF" stroke-width="10" stroke-miterlimit="10"/>
<path d="M705.143 201.062C760.387 287.413 735.28 402.359 649.063 457.814" stroke="#ECFAFF" stroke-width="10" stroke-miterlimit="10"/>
<path d="M655.159 233.125C692.717 291.879 675.634 370.092 617 407.829" stroke="#ECFAFF" stroke-width="10" stroke-miterlimit="10"/>
<path d="M495 331.957L530 383C531.972 383 540.845 379.466 560.563 365.331C580.282 351.196 595.07 326.067 600 315.27C598.192 300.384 592.704 268.746 585.211 261.286C577.718 253.825 560.728 260.795 553.169 265.212L523.592 291.712L518.169 277.479C515.803 266.485 502.394 268.644 502.394 277.479L495 331.957Z" fill="#D9987C"/>
<path d="M196.687 454.094L216.409 544.58C363.991 546.536 497.593 457.614 531.397 381.776L497.974 327.487C389.363 423.696 280.449 454.738 200.309 455.085L196.687 454.094Z" fill="#E8714D"/>
<path d="M177.05 429.706C177.05 429.706 117.762 450.911 110.356 593.849C108.382 631.955 110.357 759.004 110.357 759.004L321.954 750.059C326.114 608.413 318.53 450.407 289.422 430.642C260.314 410.877 235.896 413.187 177.049 429.703L177.05 429.706Z" fill="#FF7B54"/>
<path d="M219.51 131C199.953 185.67 147.304 226.182 83.7187 232.073C83.2486 236.698 83.0092 241.344 83 245.993C83 328.285 154.632 395 243 395C331.349 395 403 328.285 403 245.991C403 240.618 402.668 235.32 402.078 230.078C391.917 231.935 381.609 232.875 371.28 232.885C300.607 232.885 240.695 190.193 219.51 131Z" fill="#EEB98D"/>
<path d="M242.601 101C159.106 101 90.5453 159.919 83 235.191C146.715 229.34 199.468 189.089 219.064 134.771C240.294 193.583 300.325 236 371.139 236C381.682 236 392.017 235.047 402 233.211C393.437 158.894 325.345 101 242.601 101Z" fill="black"/>
<path d="M234.321 462.919L219.991 461.776C204.611 460.51 192.966 445.217 194.073 427.527L201.928 300L272 305.655L264.145 433.188C263.058 450.834 249.701 464.167 234.288 462.919" fill="#EEB98D"/>
<path d="M199 257.498C199 261.609 197.261 265.552 194.167 268.459C191.072 271.367 186.876 273 182.5 273C178.124 273 173.927 271.367 170.832 268.459C167.738 265.552 166 261.609 166 257.498C166 255.462 166.426 253.446 167.256 251.565C168.085 249.684 169.3 247.976 170.832 246.536C172.365 245.097 174.184 243.956 176.186 243.177C178.188 242.399 180.334 241.999 182.501 242C184.668 241.998 186.814 242.398 188.816 243.176C190.818 243.954 192.638 245.095 194.171 246.535C195.703 247.974 196.918 249.683 197.746 251.564C198.575 253.446 199.001 255.462 199 257.498Z" fill="black"/>
<path d="M301 257.497C301 261.608 299.367 265.552 296.46 268.459C293.553 271.367 289.611 273 285.5 273C281.389 273 277.447 271.367 274.54 268.459C271.633 265.552 270 261.608 270 257.497C269.999 255.46 270.399 253.444 271.178 251.563C271.956 249.681 273.098 247.972 274.538 246.533C275.978 245.093 277.688 243.952 279.569 243.174C281.451 242.396 283.467 241.997 285.503 242C287.538 242 289.553 242.4 291.433 243.179C293.313 243.958 295.021 245.099 296.46 246.538C297.899 247.977 299.041 249.685 299.82 251.566C300.599 253.446 301 255.461 301 257.497Z" fill="black"/>
<path d="M323 251.501C323 271.096 306.872 287 287 287C267.123 287 251 271.096 251 251.501C251 231.9 267.121 216 287 216C306.872 216 323 231.9 323 251.501Z" stroke="#7C2869" stroke-width="3.00022" stroke-miterlimit="10"/>
<path d="M217.998 251.501C217.998 271.096 201.877 287 182 287C162.142 287 146 271.096 146 251.501C146 231.9 162.142 216 182 216C201.877 216 217.998 231.9 217.998 251.501Z" stroke="#7C2869" stroke-width="3.00022" stroke-miterlimit="10"/>
<path d="M210 308C210 323.999 223.218 337 239.506 337C255.78 337 269 324.001 269 308" stroke="black" stroke-width="5" stroke-miterlimit="10"/>
<path d="M233 296C239.613 296 245 290.609 245 283.99C245 277.374 239.611 272 233 272" stroke="black" stroke-width="5" stroke-miterlimit="10"/>
<path d="M251 250.998C251 242.711 243.621 236 234.498 236C232.331 235.999 230.185 236.386 228.182 237.14C226.18 237.893 224.361 238.998 222.829 240.391C221.296 241.785 220.082 243.439 219.253 245.259C218.425 247.079 217.998 249.03 218 251" stroke="#7C2869" stroke-width="3.00022" stroke-miterlimit="10"/>
<path d="M157 446.5L202.982 517.782C340.812 504.89 456.542 408.639 480.506 334.541L443.921 287.244C352.224 387.799 267.704 416.686 193 425C174.465 427.014 167.004 432.407 157 446.5Z" fill="#FF7B54"/>
<path d="M443 287.957L478 339C479.972 339 488.845 335.466 508.563 321.331C528.282 307.196 543.07 282.067 548 271.27C546.192 256.384 540.704 224.746 533.211 217.286C525.718 209.825 508.728 216.795 501.169 221.212L471.592 247.712L466.169 233.479C463.803 222.485 450.394 224.644 450.394 233.479L443 287.957Z" fill="#EEB98D"/>
</g>
<defs>
<linearGradient id="paint0_linear_410_4586" x1="635.075" y1="747.058" x2="635.075" y2="-24.8947" gradientUnits="userSpaceOnUse">
<stop stop-color="#3291FF"/>
<stop offset="1" stop-color="#35C2FF"/>
</linearGradient>
<clipPath id="clip0_410_4586">
<rect width="1280" height="720" fill="white"/>
</clipPath>
</defs>
</svg>
