<svg width="1280" height="720" viewBox="0 0 1280 720" fill="none" xmlns="http://www.w3.org/2000/svg">
<rect width="1280" height="720" fill="#ECFAFF"/>
<circle cx="392.348" cy="226.652" r="12.6522" transform="rotate(90 392.348 226.652)" fill="#3E3E3E"/>
<circle cx="392.348" cy="264.605" r="12.6522" transform="rotate(90 392.348 264.605)" fill="#3E3E3E"/>
<circle cx="392.348" cy="302.566" r="12.6522" transform="rotate(90 392.348 302.566)" fill="#3E3E3E"/>
<circle cx="392.348" cy="340.519" r="12.6522" transform="rotate(90 392.348 340.519)" fill="#3E3E3E"/>
<circle cx="392.348" cy="378.48" r="12.6522" transform="rotate(90 392.348 378.48)" fill="#3E3E3E"/>
<circle cx="392.348" cy="416.433" r="12.6522" transform="rotate(90 392.348 416.433)" fill="#3E3E3E"/>
<circle cx="392.348" cy="454.394" r="12.6522" transform="rotate(90 392.348 454.394)" fill="#3E3E3E"/>
<circle cx="392.348" cy="492.347" r="12.6522" transform="rotate(90 392.348 492.347)" fill="#3E3E3E"/>
<circle cx="354.395" cy="226.652" r="12.6522" transform="rotate(90 354.395 226.652)" fill="#3E3E3E"/>
<circle cx="354.395" cy="264.605" r="12.6522" transform="rotate(90 354.395 264.605)" fill="#3E3E3E"/>
<circle cx="354.395" cy="302.566" r="12.6522" transform="rotate(90 354.395 302.566)" fill="#3E3E3E"/>
<circle cx="354.395" cy="340.519" r="12.6522" transform="rotate(90 354.395 340.519)" fill="#3E3E3E"/>
<circle cx="354.395" cy="378.48" r="12.6522" transform="rotate(90 354.395 378.48)" fill="#3E3E3E"/>
<circle cx="354.395" cy="416.433" r="12.6522" transform="rotate(90 354.395 416.433)" fill="#3E3E3E"/>
<circle cx="354.395" cy="454.394" r="12.6522" transform="rotate(90 354.395 454.394)" fill="#3E3E3E"/>
<circle cx="354.395" cy="492.347" r="12.6522" transform="rotate(90 354.395 492.347)" fill="#3E3E3E"/>
<circle cx="316.434" cy="226.652" r="12.6522" transform="rotate(90 316.434 226.652)" fill="#3E3E3E"/>
<circle cx="316.434" cy="264.605" r="12.6522" transform="rotate(90 316.434 264.605)" fill="#3E3E3E"/>
<circle cx="316.434" cy="302.566" r="12.6522" transform="rotate(90 316.434 302.566)" fill="#3E3E3E"/>
<circle cx="316.434" cy="340.519" r="12.6522" transform="rotate(90 316.434 340.519)" fill="#3E3E3E"/>
<circle cx="316.434" cy="378.48" r="12.6522" transform="rotate(90 316.434 378.48)" fill="#3E3E3E"/>
<circle cx="316.434" cy="416.433" r="12.6522" transform="rotate(90 316.434 416.433)" fill="#3E3E3E"/>
<circle cx="316.434" cy="454.394" r="12.6522" transform="rotate(90 316.434 454.394)" fill="#3E3E3E"/>
<circle cx="316.434" cy="492.347" r="12.6522" transform="rotate(90 316.434 492.347)" fill="#3E3E3E"/>
<circle cx="240.52" cy="226.652" r="12.6522" transform="rotate(90 240.52 226.652)" fill="#3E3E3E"/>
<circle cx="240.52" cy="264.605" r="12.6522" transform="rotate(90 240.52 264.605)" fill="#3E3E3E"/>
<circle cx="240.52" cy="302.566" r="12.6522" transform="rotate(90 240.52 302.566)" fill="#3E3E3E"/>
<circle cx="240.52" cy="340.519" r="12.6522" transform="rotate(90 240.52 340.519)" fill="#3E3E3E"/>
<circle cx="240.52" cy="378.48" r="12.6522" transform="rotate(90 240.52 378.48)" fill="#3E3E3E"/>
<circle cx="240.52" cy="416.433" r="12.6522" transform="rotate(90 240.52 416.433)" fill="#3E3E3E"/>
<circle cx="240.52" cy="454.394" r="12.6522" transform="rotate(90 240.52 454.394)" fill="#3E3E3E"/>
<circle cx="240.52" cy="492.347" r="12.6522" transform="rotate(90 240.52 492.347)" fill="#3E3E3E"/>
<circle cx="126.653" cy="226.652" r="12.6522" transform="rotate(90 126.653 226.652)" fill="#FFC93C"/>
<circle cx="126.653" cy="264.605" r="12.6522" transform="rotate(90 126.653 264.605)" fill="#FFC93C"/>
<circle cx="126.653" cy="302.566" r="12.6522" transform="rotate(90 126.653 302.566)" fill="#FFC93C"/>
<circle cx="126.653" cy="340.519" r="12.6522" transform="rotate(90 126.653 340.519)" fill="#FFC93C"/>
<circle cx="126.653" cy="378.48" r="12.6522" transform="rotate(90 126.653 378.48)" fill="#FFC93C"/>
<circle cx="126.653" cy="416.433" r="12.6522" transform="rotate(90 126.653 416.433)" fill="#FFC93C"/>
<circle cx="126.653" cy="454.394" r="12.6522" transform="rotate(90 126.653 454.394)" fill="#FFC93C"/>
<circle cx="126.653" cy="492.347" r="12.6522" transform="rotate(90 126.653 492.347)" fill="#FFC93C"/>
<circle cx="202.567" cy="226.652" r="12.6522" transform="rotate(90 202.567 226.652)" fill="#3E3E3E"/>
<circle cx="202.567" cy="264.605" r="12.6522" transform="rotate(90 202.567 264.605)" fill="#3E3E3E"/>
<circle cx="202.567" cy="302.566" r="12.6522" transform="rotate(90 202.567 302.566)" fill="#3E3E3E"/>
<circle cx="202.567" cy="340.519" r="12.6522" transform="rotate(90 202.567 340.519)" fill="#3E3E3E"/>
<circle cx="202.567" cy="378.48" r="12.6522" transform="rotate(90 202.567 378.48)" fill="#3E3E3E"/>
<circle cx="202.567" cy="416.433" r="12.6522" transform="rotate(90 202.567 416.433)" fill="#3E3E3E"/>
<circle cx="202.567" cy="454.394" r="12.6522" transform="rotate(90 202.567 454.394)" fill="#3E3E3E"/>
<circle cx="202.567" cy="492.347" r="12.6522" transform="rotate(90 202.567 492.347)" fill="#3E3E3E"/>
<circle cx="278.481" cy="226.652" r="12.6522" transform="rotate(90 278.481 226.652)" fill="#3E3E3E"/>
<circle cx="278.481" cy="264.605" r="12.6522" transform="rotate(90 278.481 264.605)" fill="#3E3E3E"/>
<circle cx="278.481" cy="302.566" r="12.6522" transform="rotate(90 278.481 302.566)" fill="#3E3E3E"/>
<circle cx="278.481" cy="340.519" r="12.6522" transform="rotate(90 278.481 340.519)" fill="#3E3E3E"/>
<circle cx="278.481" cy="378.48" r="12.6522" transform="rotate(90 278.481 378.48)" fill="#3E3E3E"/>
<circle cx="278.481" cy="416.433" r="12.6522" transform="rotate(90 278.481 416.433)" fill="#3E3E3E"/>
<circle cx="278.481" cy="454.394" r="12.6522" transform="rotate(90 278.481 454.394)" fill="#3E3E3E"/>
<circle cx="278.481" cy="492.347" r="12.6522" transform="rotate(90 278.481 492.347)" fill="#3E3E3E"/>
<circle cx="164.606" cy="226.652" r="12.6522" transform="rotate(90 164.606 226.652)" fill="#FFC93C"/>
<circle cx="164.606" cy="264.605" r="12.6522" transform="rotate(90 164.606 264.605)" fill="#FFC93C"/>
<circle cx="164.606" cy="302.566" r="12.6522" transform="rotate(90 164.606 302.566)" fill="#FFC93C"/>
<circle cx="164.606" cy="340.519" r="12.6522" transform="rotate(90 164.606 340.519)" fill="#FFC93C"/>
<circle cx="164.606" cy="378.48" r="12.6522" transform="rotate(90 164.606 378.48)" fill="#FFC93C"/>
<circle cx="164.606" cy="416.433" r="12.6522" transform="rotate(90 164.606 416.433)" fill="#FFC93C"/>
<circle cx="164.606" cy="454.394" r="12.6522" transform="rotate(90 164.606 454.394)" fill="#FFC93C"/>
<circle cx="164.606" cy="492.347" r="12.6522" transform="rotate(90 164.606 492.347)" fill="#FFC93C"/>
<circle cx="772.348" cy="226.652" r="12.6522" transform="rotate(90 772.348 226.652)" fill="#3E3E3E"/>
<circle cx="772.348" cy="264.605" r="12.6522" transform="rotate(90 772.348 264.605)" fill="#3E3E3E"/>
<circle cx="772.348" cy="302.566" r="12.6522" transform="rotate(90 772.348 302.566)" fill="#3E3E3E"/>
<circle cx="772.348" cy="340.519" r="12.6522" transform="rotate(90 772.348 340.519)" fill="#3E3E3E"/>
<circle cx="772.348" cy="378.48" r="12.6522" transform="rotate(90 772.348 378.48)" fill="#3E3E3E"/>
<circle cx="772.348" cy="416.433" r="12.6522" transform="rotate(90 772.348 416.433)" fill="#3E3E3E"/>
<circle cx="772.348" cy="454.394" r="12.6522" transform="rotate(90 772.348 454.394)" fill="#3E3E3E"/>
<circle cx="772.348" cy="492.347" r="12.6522" transform="rotate(90 772.348 492.347)" fill="#3E3E3E"/>
<circle cx="734.395" cy="226.652" r="12.6522" transform="rotate(90 734.395 226.652)" fill="#3E3E3E"/>
<circle cx="734.395" cy="264.605" r="12.6522" transform="rotate(90 734.395 264.605)" fill="#3E3E3E"/>
<circle cx="734.395" cy="302.566" r="12.6522" transform="rotate(90 734.395 302.566)" fill="#3E3E3E"/>
<circle cx="734.395" cy="340.519" r="12.6522" transform="rotate(90 734.395 340.519)" fill="#3E3E3E"/>
<circle cx="734.395" cy="378.48" r="12.6522" transform="rotate(90 734.395 378.48)" fill="#3E3E3E"/>
<circle cx="734.395" cy="416.433" r="12.6522" transform="rotate(90 734.395 416.433)" fill="#3E3E3E"/>
<circle cx="734.395" cy="454.394" r="12.6522" transform="rotate(90 734.395 454.394)" fill="#3E3E3E"/>
<circle cx="734.395" cy="492.347" r="12.6522" transform="rotate(90 734.395 492.347)" fill="#3E3E3E"/>
<circle cx="696.434" cy="226.652" r="12.6522" transform="rotate(90 696.434 226.652)" fill="#3E3E3E"/>
<circle cx="696.434" cy="264.605" r="12.6522" transform="rotate(90 696.434 264.605)" fill="#3E3E3E"/>
<circle cx="696.434" cy="302.566" r="12.6522" transform="rotate(90 696.434 302.566)" fill="#3E3E3E"/>
<circle cx="696.434" cy="340.519" r="12.6522" transform="rotate(90 696.434 340.519)" fill="#3E3E3E"/>
<circle cx="696.434" cy="378.48" r="12.6522" transform="rotate(90 696.434 378.48)" fill="#3E3E3E"/>
<circle cx="696.434" cy="416.433" r="12.6522" transform="rotate(90 696.434 416.433)" fill="#3E3E3E"/>
<circle cx="696.434" cy="454.394" r="12.6522" transform="rotate(90 696.434 454.394)" fill="#3E3E3E"/>
<circle cx="696.434" cy="492.347" r="12.6522" transform="rotate(90 696.434 492.347)" fill="#3E3E3E"/>
<circle cx="620.52" cy="226.652" r="12.6522" transform="rotate(90 620.52 226.652)" fill="#FFC93C"/>
<circle cx="620.52" cy="264.605" r="12.6522" transform="rotate(90 620.52 264.605)" fill="#FFC93C"/>
<circle cx="620.52" cy="302.566" r="12.6522" transform="rotate(90 620.52 302.566)" fill="#FFC93C"/>
<circle cx="620.52" cy="340.519" r="12.6522" transform="rotate(90 620.52 340.519)" fill="#FFC93C"/>
<circle cx="620.52" cy="378.48" r="12.6522" transform="rotate(90 620.52 378.48)" fill="#FFC93C"/>
<circle cx="620.52" cy="416.433" r="12.6522" transform="rotate(90 620.52 416.433)" fill="#FFC93C"/>
<circle cx="620.52" cy="454.394" r="12.6522" transform="rotate(90 620.52 454.394)" fill="#FFC93C"/>
<circle cx="620.52" cy="492.347" r="12.6522" transform="rotate(90 620.52 492.347)" fill="#FFC93C"/>
<circle cx="506.653" cy="226.652" r="12.6522" transform="rotate(90 506.653 226.652)" fill="#FFC93C"/>
<circle cx="506.653" cy="264.605" r="12.6522" transform="rotate(90 506.653 264.605)" fill="#FFC93C"/>
<circle cx="506.653" cy="302.566" r="12.6522" transform="rotate(90 506.653 302.566)" fill="#FFC93C"/>
<circle cx="506.653" cy="340.519" r="12.6522" transform="rotate(90 506.653 340.519)" fill="#FFC93C"/>
<circle cx="506.653" cy="378.48" r="12.6522" transform="rotate(90 506.653 378.48)" fill="#FFC93C"/>
<circle cx="506.653" cy="416.433" r="12.6522" transform="rotate(90 506.653 416.433)" fill="#FFC93C"/>
<circle cx="506.653" cy="454.394" r="12.6522" transform="rotate(90 506.653 454.394)" fill="#FFC93C"/>
<circle cx="506.653" cy="492.347" r="12.6522" transform="rotate(90 506.653 492.347)" fill="#FFC93C"/>
<circle cx="582.567" cy="226.652" r="12.6522" transform="rotate(90 582.567 226.652)" fill="#FFC93C"/>
<circle cx="582.567" cy="264.605" r="12.6522" transform="rotate(90 582.567 264.605)" fill="#FFC93C"/>
<circle cx="582.567" cy="302.566" r="12.6522" transform="rotate(90 582.567 302.566)" fill="#FFC93C"/>
<circle cx="582.567" cy="340.519" r="12.6522" transform="rotate(90 582.567 340.519)" fill="#FFC93C"/>
<circle cx="582.567" cy="378.48" r="12.6522" transform="rotate(90 582.567 378.48)" fill="#FFC93C"/>
<circle cx="582.567" cy="416.433" r="12.6522" transform="rotate(90 582.567 416.433)" fill="#FFC93C"/>
<circle cx="582.567" cy="454.394" r="12.6522" transform="rotate(90 582.567 454.394)" fill="#FFC93C"/>
<circle cx="582.567" cy="492.347" r="12.6522" transform="rotate(90 582.567 492.347)" fill="#FFC93C"/>
<circle cx="658.481" cy="226.652" r="12.6522" transform="rotate(90 658.481 226.652)" fill="#3E3E3E"/>
<circle cx="658.481" cy="264.605" r="12.6522" transform="rotate(90 658.481 264.605)" fill="#3E3E3E"/>
<circle cx="658.481" cy="302.566" r="12.6522" transform="rotate(90 658.481 302.566)" fill="#3E3E3E"/>
<circle cx="658.481" cy="340.519" r="12.6522" transform="rotate(90 658.481 340.519)" fill="#3E3E3E"/>
<circle cx="658.481" cy="378.48" r="12.6522" transform="rotate(90 658.481 378.48)" fill="#3E3E3E"/>
<circle cx="658.481" cy="416.433" r="12.6522" transform="rotate(90 658.481 416.433)" fill="#3E3E3E"/>
<circle cx="658.481" cy="454.394" r="12.6522" transform="rotate(90 658.481 454.394)" fill="#3E3E3E"/>
<circle cx="658.481" cy="492.347" r="12.6522" transform="rotate(90 658.481 492.347)" fill="#3E3E3E"/>
<circle cx="544.606" cy="226.652" r="12.6522" transform="rotate(90 544.606 226.652)" fill="#FFC93C"/>
<circle cx="544.606" cy="264.605" r="12.6522" transform="rotate(90 544.606 264.605)" fill="#FFC93C"/>
<circle cx="544.606" cy="302.566" r="12.6522" transform="rotate(90 544.606 302.566)" fill="#FFC93C"/>
<circle cx="544.606" cy="340.519" r="12.6522" transform="rotate(90 544.606 340.519)" fill="#FFC93C"/>
<circle cx="544.606" cy="378.48" r="12.6522" transform="rotate(90 544.606 378.48)" fill="#FFC93C"/>
<circle cx="544.606" cy="416.433" r="12.6522" transform="rotate(90 544.606 416.433)" fill="#FFC93C"/>
<circle cx="544.606" cy="454.394" r="12.6522" transform="rotate(90 544.606 454.394)" fill="#FFC93C"/>
<circle cx="544.606" cy="492.347" r="12.6522" transform="rotate(90 544.606 492.347)" fill="#FFC93C"/>
<circle cx="886.652" cy="227.652" r="12.6522" fill="#FFC93C"/>
<circle cx="924.609" cy="227.652" r="12.6522" fill="#FFC93C"/>
<circle cx="962.565" cy="227.652" r="12.6522" fill="#FFC93C"/>
<circle cx="1000.52" cy="227.652" r="12.6522" fill="#FFC93C"/>
<circle cx="1038.48" cy="227.652" r="12.6522" fill="#FFC93C"/>
<circle cx="1076.43" cy="227.652" r="12.6522" fill="#FFC93C"/>
<circle cx="1114.39" cy="227.652" r="12.6522" fill="#FFC93C"/>
<circle cx="1152.35" cy="227.652" r="12.6522" fill="#FFC93C"/>
<circle cx="886.652" cy="265.605" r="12.6522" fill="#FFC93C"/>
<circle cx="924.609" cy="265.605" r="12.6522" fill="#FFC93C"/>
<circle cx="962.565" cy="265.605" r="12.6522" fill="#FFC93C"/>
<circle cx="1000.52" cy="265.605" r="12.6522" fill="#FFC93C"/>
<circle cx="1038.48" cy="265.605" r="12.6522" fill="#FFC93C"/>
<circle cx="1076.43" cy="265.605" r="12.6522" fill="#FFC93C"/>
<circle cx="1114.39" cy="265.605" r="12.6522" fill="#FFC93C"/>
<circle cx="1152.35" cy="265.605" r="12.6522" fill="#FFC93C"/>
<circle cx="886.652" cy="303.566" r="12.6522" fill="#FFC93C"/>
<circle cx="924.609" cy="303.566" r="12.6522" fill="#FFC93C"/>
<circle cx="962.565" cy="303.566" r="12.6522" fill="#FFC93C"/>
<circle cx="1000.52" cy="303.566" r="12.6522" fill="#FFC93C"/>
<circle cx="1038.48" cy="303.566" r="12.6522" fill="#FFC93C"/>
<circle cx="1076.43" cy="303.566" r="12.6522" fill="#FFC93C"/>
<circle cx="1114.39" cy="303.566" r="12.6522" fill="#FFC93C"/>
<circle cx="1152.35" cy="303.566" r="12.6522" fill="#FFC93C"/>
<circle cx="886.652" cy="379.48" r="12.6522" fill="#FFC93C"/>
<circle cx="924.609" cy="379.48" r="12.6522" fill="#FFC93C"/>
<circle cx="962.565" cy="379.48" r="12.6522" fill="#FFC93C"/>
<circle cx="1000.52" cy="379.48" r="12.6522" fill="#FFC93C"/>
<circle cx="1038.48" cy="379.48" r="12.6522" fill="#FFC93C"/>
<circle cx="1076.43" cy="379.48" r="12.6522" fill="#FFC93C"/>
<circle cx="1114.39" cy="379.48" r="12.6522" fill="#FFC93C"/>
<circle cx="1152.35" cy="379.48" r="12.6522" fill="#FFC93C"/>
<circle cx="886.652" cy="493.347" r="12.6522" fill="#FFC93C"/>
<circle cx="924.609" cy="493.347" r="12.6522" fill="#FFC93C"/>
<circle cx="962.565" cy="493.347" r="12.6522" fill="#FFC93C"/>
<circle cx="1000.52" cy="493.347" r="12.6522" fill="#FFC93C"/>
<circle cx="1038.48" cy="493.347" r="12.6522" fill="#FFC93C"/>
<circle cx="1076.43" cy="493.347" r="12.6522" fill="#FFC93C"/>
<circle cx="1114.39" cy="493.347" r="12.6522" fill="#FFC93C"/>
<circle cx="1152.35" cy="493.347" r="12.6522" fill="#FFC93C"/>
<circle cx="886.652" cy="417.433" r="12.6522" fill="#FFC93C"/>
<circle cx="924.609" cy="417.433" r="12.6522" fill="#FFC93C"/>
<circle cx="962.565" cy="417.433" r="12.6522" fill="#FFC93C"/>
<circle cx="1000.52" cy="417.433" r="12.6522" fill="#FFC93C"/>
<circle cx="1038.48" cy="417.433" r="12.6522" fill="#FFC93C"/>
<circle cx="1076.43" cy="417.433" r="12.6522" fill="#FFC93C"/>
<circle cx="1114.39" cy="417.433" r="12.6522" fill="#FFC93C"/>
<circle cx="1152.35" cy="417.433" r="12.6522" fill="#FFC93C"/>
<circle cx="886.652" cy="341.519" r="12.6522" fill="#FFC93C"/>
<circle cx="924.609" cy="341.519" r="12.6522" fill="#FFC93C"/>
<circle cx="962.565" cy="341.519" r="12.6522" fill="#FFC93C"/>
<circle cx="1000.52" cy="341.519" r="12.6522" fill="#FFC93C"/>
<circle cx="1038.48" cy="341.519" r="12.6522" fill="#FFC93C"/>
<circle cx="1076.43" cy="341.519" r="12.6522" fill="#FFC93C"/>
<circle cx="1114.39" cy="341.519" r="12.6522" fill="#FFC93C"/>
<circle cx="1152.35" cy="341.519" r="12.6522" fill="#FFC93C"/>
<circle cx="886.652" cy="455.394" r="12.6522" fill="#FFC93C"/>
<circle cx="924.609" cy="455.394" r="12.6522" fill="#FFC93C"/>
<circle cx="962.565" cy="455.394" r="12.6522" fill="#FFC93C"/>
<circle cx="1000.52" cy="455.394" r="12.6522" fill="#FFC93C"/>
<circle cx="1038.48" cy="455.394" r="12.6522" fill="#FFC93C"/>
<circle cx="1076.43" cy="455.394" r="12.6522" fill="#FFC93C"/>
<circle cx="1114.39" cy="455.394" r="12.6522" fill="#FFC93C"/>
<circle cx="1152.35" cy="455.394" r="12.6522" fill="#FFC93C"/>
</svg>
