<?xml version="1.0" encoding="UTF-8"?>
<svg version="1.1" xmlns="http://www.w3.org/2000/svg" width="1280" height="720">
<path d="M0 0 C422.4 0 844.8 0 1280 0 C1280 237.6 1280 475.2 1280 720 C857.6 720 435.2 720 0 720 C0 482.4 0 244.8 0 0 Z " fill="#9883D5" transform="translate(0,0)"/>
<path d="M0 0 C0.79623779 -0.00100708 1.59247559 -0.00201416 2.4128418 -0.00305176 C16.4520166 0.00890426 30.13450241 0.93620281 44 3.25 C44.89058105 3.39453613 45.78116211 3.53907227 46.69873047 3.68798828 C58.14531375 5.59892648 69.0534068 8.50184839 79.94628906 12.49853516 C81.83924677 13.19117945 83.74343551 13.85292256 85.6484375 14.51171875 C121.65998358 27.74775059 155.23080842 54.72219768 171.8828125 89.69140625 C178.77134442 105.4675895 182.23583987 119.05989397 182 136.25 C183.22976563 136.14558594 184.45953125 136.04117188 185.7265625 135.93359375 C198.51393994 135.1672991 198.51393994 135.1672991 202.4609375 138.04296875 C204.03635698 140.43008913 205.07378445 142.5457814 206 145.25 C206.36222656 146.10851562 206.72445312 146.96703125 207.09765625 147.8515625 C212.79612204 169.31331677 205.21296557 190.6487178 195 209.25 C194.28199219 209.1778125 193.56398438 209.105625 192.82421875 209.03125 C165.39563259 206.57189981 142.17897338 209.64008551 120 227.25 C119.34 227.91 118.68 228.57 118 229.25 C114.61753075 229.0193771 112.21136647 228.35803175 109.1875 226.8125 C99.75466342 222.1885605 88.19117275 221.53342933 78.25 224.875 C66.33726475 229.82709634 58.58146623 237.30321988 52.9453125 248.85546875 C49.06279718 258.69010465 49.56833942 272.26194494 53.74609375 281.8984375 C59.61868505 292.91183303 68.01935948 300.04114987 79.69140625 304.33984375 C83.48670396 305.38388669 87.08725075 305.8464048 91 306.25 C91.25652344 307.27996094 91.51304687 308.30992187 91.77734375 309.37109375 C95.6406361 324.05682535 101.36326938 337.51825803 112.25 348.3671875 C114 350.25 114 350.25 115 353.25 C114.56244385 353.66660889 114.1248877 354.08321777 113.67407227 354.51245117 C98.83311474 368.06494686 98.83311474 368.06494686 89 385.25 C87.83984375 385.19199219 86.6796875 385.13398438 85.484375 385.07421875 C72.4900762 384.61835181 62.34876374 386.53123176 52.0390625 395.09765625 C44.09561634 403.48240497 40.4492419 413.60403079 40.69140625 425 C41.62689924 434.85228066 45.1359221 444.03066483 52 451.25 C63.30849081 460.30021428 74.05298219 461.75372575 88 462.25 C88.12677124 463.07854492 88.12677124 463.07854492 88.25610352 463.92382812 C90.91642349 480.74638847 94.88278004 498.56624963 107.703125 510.88671875 C109 512.25 109 512.25 109 514.25 C109.55945313 514.50910156 110.11890625 514.76820313 110.6953125 515.03515625 C113.26727319 516.39088468 115.52077887 517.98233983 117.875 519.6875 C128.82035814 527.40045705 139.75574092 529.81418161 153 528.25 C161.59353587 526.16671858 168.56775561 522.26440174 175 516.25 C175.92039062 515.40888672 175.92039062 515.40888672 176.859375 514.55078125 C179.90792691 511.44152808 181.97035668 508.56610474 183.4609375 504.4765625 C184.9697983 500.36801519 186.48204453 496.86233188 189 493.25 C193.12738908 491.492244 197.04148208 491.55556738 201.48291016 491.43701172 C206.75145198 491.04557592 211.90309794 489.78119469 217.0625 488.6875 C219.19889432 488.24712106 221.33559852 487.80824193 223.47265625 487.37109375 C224.39312744 487.1795874 225.31359863 486.98808105 226.26196289 486.79077148 C229.16623701 486.21716764 232.07784711 485.72327428 235 485.25 C235.45375 485.930625 235.9075 486.61125 236.375 487.3125 C244.27943659 496.15794095 256.13103645 502.58588728 267.98046875 503.5859375 C282.12256909 503.89286678 293.28220567 501.07739296 304 491.25 C315.72768347 478.04134626 320.56991675 462.18422028 320.375 444.75 C320.38660156 443.71230469 320.39820313 442.67460937 320.41015625 441.60546875 C320.3853857 434.9752178 319.45867176 429.10600228 317.64306641 422.72851562 C317 420.25 317 420.25 317 417.25 C318.10859375 416.76789063 319.2171875 416.28578125 320.359375 415.7890625 C321.82294113 415.15109778 323.28648144 414.51307384 324.75 413.875 C325.47960937 413.55789063 326.20921875 413.24078125 326.9609375 412.9140625 C328.02441406 412.45 328.02441406 412.45 329.109375 411.9765625 C329.75874023 411.69377441 330.40810547 411.41098633 331.07714844 411.11962891 C333.07933508 410.21411991 335.04086056 409.24481594 337 408.25 C337 407.59 337 406.93 337 406.25 C337.66 406.25 338.32 406.25 339 406.25 C339.2784375 405.67894531 339.556875 405.10789062 339.84375 404.51953125 C341.36781532 401.52803818 343.07797341 398.65417321 344.78125 395.76171875 C349.08798638 386.88597679 349.47743153 376.41074603 347.1953125 366.89453125 C342.64355755 354.76174996 334.67119016 347.93603347 323.33203125 342.52734375 C313.69552071 338.83315976 304.49624461 339.6423977 295 343.25 C293.329375 344.11625 293.329375 344.11625 291.625 345 C289 346.25 289 346.25 287.1015625 346.01953125 C284.58795348 345.09912051 282.87438524 343.81792853 280.75 342.1875 C271.51604741 335.55273406 260.93401726 330.37400493 250 327.25 C250.17015625 326.70214844 250.3403125 326.15429688 250.515625 325.58984375 C251.04687719 323.85197091 251.56174763 322.10906204 252.06640625 320.36328125 C252.68473255 318.30133121 253.35902495 316.25528214 254.08984375 314.23046875 C256.2426704 307.64940791 257.11625277 302.21459707 256.90234375 295.3046875 C256.86407471 294.06380371 256.82580566 292.82291992 256.78637695 291.54443359 C256.68018203 289.04748724 256.52755946 286.55201254 256.32495117 284.06103516 C256.16469857 280.54520483 256.13702311 277.66593841 257 274.25 C259.28588782 271.80104315 261.47392793 270.32138047 264.40454102 268.71557617 C272.93752481 263.89726165 277.07577423 255.23603283 280 246.25 C282.70943654 235.08225837 281.02016657 224.53004257 275.4921875 214.51953125 C269.77269127 205.72746844 261.11335669 198.38281845 250.80078125 195.671875 C236.6822465 193.54523378 224.73216492 195.1308157 213 203.6875 C209.54612301 206.54588096 207.188029 209.34960049 205 213.25 C203.02 212.59 201.04 211.93 199 211.25 C199.44730469 210.34121094 199.89460937 209.43242187 200.35546875 208.49609375 C207.53179324 193.67178949 212.16895945 180.00857268 212.25 163.375 C212.270625 162.32441406 212.29125 161.27382812 212.3125 160.19140625 C212.34425138 153.84906841 211.70296125 148.98033936 209 143.25 C208.43498735 141.91772948 207.87237189 140.58443902 207.3125 139.25 C206.6628125 137.765 206.6628125 137.765 206 136.25 C224.38834324 135.81705884 242.07877401 135.47805091 260 140.25 C261.175625 140.55035156 262.35125 140.85070312 263.5625 141.16015625 C288.57698504 148.24146268 309.62165422 161.17679078 329 178.25 C329.70769531 178.87132812 330.41539062 179.49265625 331.14453125 180.1328125 C342.36411488 190.66741102 351.05667247 203.98398552 358.11572266 217.55908203 C358.86884181 218.99919888 359.65561911 220.42163199 360.44921875 221.83984375 C370.73795408 240.82694207 374.30507762 262.5311727 373.9677906 283.85465813 C373.92248457 286.72845399 373.89006432 289.60236412 373.85660744 292.4763186 C373.83851603 294.02236982 373.81979659 295.5684138 373.8004818 297.11445022 C373.67788632 307.10515306 373.64243291 317.09638346 373.60296726 327.08770251 C373.56427226 336.77699083 373.49901936 346.4641325 373.34521484 356.15234375 C373.2226407 363.88357428 373.16274296 371.61259931 373.17213297 379.34483111 C373.17491628 383.4171908 373.14969357 387.48426157 373.04795837 391.55546188 C372.50282596 414.4335414 376.58351865 429.2646893 389.80578613 448.084095 C392.72246442 452.29240236 395.38354897 456.62777339 398.05268097 460.99757957 C400.42943743 464.88373347 402.87008665 468.72828695 405.30810547 472.57617188 C406.88090309 475.06178219 408.44439903 477.55291148 410.00390625 480.046875 C427.39030532 507.80679558 445.45725239 535.2058051 464.37255859 561.94775391 C465.94660818 564.17446972 467.51519639 566.40492219 469.08203125 568.63671875 C484.45924432 590.52006124 500.20179329 612.14498364 516.52441406 633.33349609 C517.9018774 635.1225575 519.27588885 636.91419802 520.6484375 638.70703125 C528.79097995 649.33567654 537.03858659 659.87307723 545.5 670.25 C572 702.75619743 572 702.75619743 572 705.25 C208.67 705.25 -154.66 705.25 -529 705.25 C-529 694.25 -529 694.25 -527.53125 691.55859375 C-526.8609375 690.94113281 -526.190625 690.32367187 -525.5 689.6875 C-524.39591797 688.59308594 -524.39591797 688.59308594 -523.26953125 687.4765625 C-522.52058594 686.74179687 -521.77164063 686.00703125 -521 685.25 C-519.70340326 683.70881199 -518.4327382 682.14547361 -517.1875 680.5625 C-516.5275 679.72847656 -515.8675 678.89445313 -515.1875 678.03515625 C-514.465625 677.11605469 -513.74375 676.19695313 -513 675.25 C-512.14590277 674.1653099 -511.2917324 673.0806774 -510.4375 671.99609375 C-508.57591397 669.63063486 -506.71681547 667.26324657 -504.859375 664.89453125 C-502.97682142 662.49382598 -501.091454 660.09538377 -499.203125 657.69921875 C-493.59432558 650.57990139 -488.02430204 643.43247675 -482.51806641 636.23339844 C-481.40170239 634.774836 -480.28399245 633.31730345 -479.16552734 631.86035156 C-471.37273494 621.70743454 -463.65868734 611.52608183 -456.28662109 601.06347656 C-453.75984261 597.50201345 -451.18753345 593.9732709 -448.625 590.4375 C-442.89001899 582.5078148 -437.21557959 574.53811168 -431.59863281 566.52441406 C-429.97665683 564.21678911 -428.34408041 561.91691935 -426.7109375 559.6171875 C-417.32114293 546.32411843 -408.3322292 532.77436626 -399.375 519.1875 C-398.7684256 518.26826752 -398.1618512 517.34903503 -397.53689575 516.40194702 C-386.85017679 500.2646096 -386.85017679 500.2646096 -376.50479317 483.90836525 C-373.49864139 479.03785768 -370.39301581 474.39641716 -366.86416626 469.88800049 C-352.90636362 451.2052182 -352.80558661 434.18520174 -353.30749416 411.56387115 C-353.3958455 406.73868147 -353.38744934 401.91358311 -353.38946533 397.08772278 C-353.40669098 387.96798897 -353.50138655 378.85096452 -353.6284802 369.73216468 C-353.811698 356.38800944 -353.89295624 343.04313621 -353.95456314 329.69791889 C-353.95913269 328.71013941 -353.96370224 327.72235992 -353.96841025 326.70464772 C-353.9774292 324.73218727 -353.98618187 322.75972558 -353.99466157 320.78726274 C-354.02201711 315.08498837 -354.07794052 309.38391799 -354.15802026 303.68214995 C-354.63659532 268.54698801 -354.63659532 268.54698801 -350 251.25 C-349.6501417 249.80496693 -349.30418855 248.35898224 -348.96234131 246.91203308 C-342.84607246 221.59618521 -328.8906087 199.80420694 -311 181.25 C-309.94425781 180.09951172 -309.94425781 180.09951172 -308.8671875 178.92578125 C-295.28531209 164.54345311 -277.30445912 153.55121684 -259 146.25 C-257.46859375 145.63898438 -257.46859375 145.63898438 -255.90625 145.015625 C-251.9744459 143.58104783 -248.03165145 142.36802808 -244 141.25 C-243.17338867 141.01716309 -242.34677734 140.78432617 -241.49511719 140.54443359 C-219.35178333 134.61677163 -196.71400618 135.75302599 -174 136.25 C-173.95101563 135.13157715 -173.90203125 134.0131543 -173.8515625 132.86083984 C-173.10145891 117.28768635 -173.10145891 117.28768635 -171 109.875 C-170.78706299 109.09954834 -170.57412598 108.32409668 -170.35473633 107.52514648 C-159.579107 70.69390469 -131.23118006 42.86185666 -98.46875 24.65234375 C-75.78983609 12.33287471 -51.42519462 5.12824878 -26 1.25 C-24.98099609 1.09096191 -24.98099609 1.09096191 -23.94140625 0.92871094 C-16.01648227 -0.13225537 -7.98133596 0.00700623 0 0 Z " fill="#2C5189" transform="translate(529,14.75)"/>
<path d="M0 0 C0.66128906 0.3403125 1.32257813 0.680625 2.00390625 1.03125 C3.22787109 1.63453125 3.22787109 1.63453125 4.4765625 2.25 C15.83127272 8.41545351 21.73828109 17.63392817 26.31640625 29.40625 C28.55473191 41.20833075 26.66337361 52.68644096 20.19140625 62.90625 C15.29574507 69.61010765 10.24035121 74.05508656 3.00390625 78.03125 C3.03009033 78.77995361 3.05627441 79.52865723 3.08325195 80.30004883 C3.62359611 98.1642372 3.60462328 114.93958588 -4.99609375 131.03125 C-3.84109375 131.19625 -2.68609375 131.36125 -1.49609375 131.53125 C9.14691835 133.90196833 19.43021983 140.11543123 27.98828125 146.68359375 C30.14431383 148.12512716 31.41765937 148.83155862 34.00390625 149.03125 C36.70233289 148.09828855 36.70233289 148.09828855 39.44140625 146.65625 C47.90767164 142.44077989 56.45033278 141.91503782 65.6171875 144.21875 C76.92770543 148.06913908 85.041297 154.7354785 90.44140625 165.34375 C94.93774512 174.91225314 95.84798875 185.82060409 92.37890625 195.96875 C90.25137219 200.98365171 87.57878194 205.89460813 84.00390625 210.03125 C83.34390625 210.03125 82.68390625 210.03125 82.00390625 210.03125 C82.00390625 210.69125 82.00390625 211.35125 82.00390625 212.03125 C76.45330791 216.04063592 69.02340376 221.03125 62.00390625 221.03125 C62.43703125 222.22041016 62.43703125 222.22041016 62.87890625 223.43359375 C69.16581397 243.18932809 67.6180271 263.73728305 58.75390625 282.34375 C52.59294454 294.01302918 43.93525586 302.37756775 31.37890625 306.96875 C17.64383965 310.47371117 4.98035124 308.09322194 -7.18359375 301.21875 C-11.80918465 298.31017844 -16.27778586 295.06114794 -19.99609375 291.03125 C-19.99609375 290.37125 -19.99609375 289.71125 -19.99609375 289.03125 C-20.76308594 289.27359375 -21.53007813 289.5159375 -22.3203125 289.765625 C-36.17323928 293.94885492 -51.4165523 298.26043851 -65.99609375 297.03125 C-66.16625 298.10826172 -66.16625 298.10826172 -66.33984375 299.20703125 C-69.01161712 310.70519881 -77.91199364 320.57488181 -87.49609375 326.96875 C-98.58685179 333.45493125 -110.63659315 335.2484424 -123.24609375 331.96875 C-141.31445295 325.52884495 -152.19040929 312.69865421 -160.234375 295.9609375 C-162.93951747 290.07098085 -165.1797689 284.34102467 -166.18359375 277.90625 C-166.34214844 276.93429687 -166.50070312 275.96234375 -166.6640625 274.9609375 C-167.00435409 271.95836462 -167.05432574 269.05035475 -166.99609375 266.03125 C-168.02347656 266.07765625 -169.05085937 266.1240625 -170.109375 266.171875 C-183.38194099 266.59437377 -193.77044002 264.10520894 -203.99609375 255.03125 C-212.08973869 246.22437198 -215.86057298 234.84186976 -215.375 222.9375 C-214.00181056 212.40499542 -208.56941812 202.45106425 -200.30859375 195.71875 C-190.14844955 188.8869289 -181.0098968 186.98916052 -168.99609375 188.03125 C-168.00609375 188.36125 -167.01609375 188.69125 -165.99609375 189.03125 C-165.90585937 188.49113281 -165.815625 187.95101562 -165.72265625 187.39453125 C-161.99390598 175.26606936 -149.87171611 165.45036162 -140.99609375 157.03125 C-142.78462564 153.88257709 -144.56119052 151.32878655 -147.12109375 148.78125 C-155.80605927 139.02679828 -163.99609375 123.24664895 -163.99609375 110.03125 C-165.04796875 110.134375 -166.09984375 110.2375 -167.18359375 110.34375 C-177.37559064 110.27159427 -185.72897998 105.15725442 -192.875 98.3125 C-196.1185918 94.82399611 -199.02886307 91.39249287 -201.12109375 87.09375 C-201.43304687 86.46597656 -201.745 85.83820313 -202.06640625 85.19140625 C-204.4580677 79.63431052 -205.35557752 74.76019217 -205.30859375 68.71875 C-205.3029541 67.96327881 -205.29731445 67.20780762 -205.29150391 66.42944336 C-205.16937821 60.81952089 -204.55171229 56.09390117 -201.99609375 51.03125 C-201.60550781 50.22558594 -201.21492187 49.41992188 -200.8125 48.58984375 C-194.70604004 37.25916026 -185.22919916 30.23680109 -173.05078125 26.421875 C-163.69025499 24.64230727 -151.57645543 25.35406723 -143.46484375 30.69921875 C-141.08510834 32.25717073 -141.08510834 32.25717073 -138.421875 31.91015625 C-135.76147983 30.94624496 -134.28603217 29.84852692 -132.18359375 27.96875 C-118.36693788 16.79588019 -100.44704056 10.82974707 -82.80859375 10.84375 C-81.55308716 10.8427832 -81.55308716 10.8427832 -80.2722168 10.84179688 C-74.0198678 10.89497236 -68.0764643 11.50090955 -61.99609375 13.03125 C-63.39619837 21.02425234 -71.942655 27.23024685 -77.99609375 32.03125 C-78.98609375 32.52625 -78.98609375 32.52625 -79.99609375 33.03125 C-80.64822667 35.05588255 -80.64822667 35.05588255 -80.99609375 37.03125 C-72.18391728 33.91027083 -66.4921755 27.84771362 -60.5390625 20.83203125 C-58.79046061 18.7912579 -56.93441364 16.89203709 -54.99609375 15.03125 C-53.34609375 15.69125 -51.69609375 16.35125 -49.99609375 17.03125 C-49.83109375 16.350625 -49.66609375 15.67 -49.49609375 14.96875 C-41.33139793 -1.02044599 -15.80564075 -6.68105362 0 0 Z " fill="#CF8F59" transform="translate(783.99609375,210.96875)"/>
<path d="M0 0 C0.79623779 -0.00100708 1.59247559 -0.00201416 2.4128418 -0.00305176 C16.4520166 0.00890426 30.13450241 0.93620281 44 3.25 C44.89058105 3.39453613 45.78116211 3.53907227 46.69873047 3.68798828 C58.14531375 5.59892648 69.0534068 8.50184839 79.94628906 12.49853516 C81.83924677 13.19117945 83.74343551 13.85292256 85.6484375 14.51171875 C121.65998358 27.74775059 155.23080842 54.72219768 171.8828125 89.69140625 C179.25302645 106.57074239 182 119.56879855 182 138.25 C165.83 138.25 149.66 138.25 133 138.25 C133 136.6 133 134.95 133 133.25 C132.46375 133.745 131.9275 134.24 131.375 134.75 C128.40641555 136.62489544 126.44687573 136.48501425 123 136.25 C124.71967351 133.22009905 126.29238306 130.48672704 129 128.25 C129.66 128.25 130.32 128.25 131 128.25 C128.41753221 115.47358041 123.47029834 105.14078316 115 95.25 C114.05060547 94.06664063 114.05060547 94.06664063 113.08203125 92.859375 C91.34443346 66.9210782 54.41815234 54.57064168 21.71118164 51.44848633 C-20.92003032 48.32744398 -63.79259856 57.26334982 -97 85.25 C-113.07974068 99.25046387 -121.66058624 117.19527616 -124 138.25 C-140.5 138.25 -157 138.25 -174 138.25 C-172.83181939 116.05456833 -172.83181939 116.05456833 -171 109.75 C-170.78706299 108.98357178 -170.57412598 108.21714355 -170.35473633 107.42749023 C-159.47087687 70.6453581 -131.23392417 42.86338185 -98.46875 24.65234375 C-75.78983609 12.33287471 -51.42519462 5.12824878 -26 1.25 C-25.32066406 1.14397461 -24.64132812 1.03794922 -23.94140625 0.92871094 C-16.01648227 -0.13225537 -7.98133596 0.00700623 0 0 Z " fill="#1A3567" transform="translate(529,14.75)"/>
<path d="M0 0 C0.68545898 0.12890625 1.37091797 0.2578125 2.07714844 0.390625 C26.45507685 5.07326843 49.85207083 13.76651971 69 30 C69.87785156 30.72832031 70.75570312 31.45664063 71.66015625 32.20703125 C84.14429743 42.95883308 94.57188424 56.88817487 97.625 73.375 C96.68730798 77.31330649 94.17208671 78.65265584 91 81 C90.34 81.99 89.68 82.98 89 84 C87.17424381 84.37259549 87.17424381 84.37259549 84.91203117 84.36914349 C84.05113376 84.37511663 83.19023636 84.38108978 82.30325115 84.38724393 C81.35190355 84.3785054 80.40055595 84.36976688 79.42037964 84.36076355 C78.41411691 84.36332682 77.40785418 84.3658901 76.37109864 84.36853105 C72.97754536 84.37349779 69.58443069 84.35692829 66.19091797 84.34057617 C63.76700857 84.33973053 61.3430984 84.34020382 58.91918945 84.34190369 C53.68953027 84.34258826 48.45997145 84.33404385 43.23034286 84.31719017 C35.6691323 84.29283826 28.10797607 84.28499882 20.54673053 84.2812262 C8.27998363 84.27465571 -3.98670352 84.25467841 -16.25341797 84.22631836 C-28.17138367 84.19879321 -40.08933316 84.17755208 -52.00732422 84.16479492 C-53.10873742 84.16361267 -53.10873742 84.16361267 -54.23240139 84.16240653 C-57.91594154 84.15849149 -61.59948182 84.15470035 -65.28302217 84.15097082 C-95.85539089 84.11985633 -126.42768717 84.06678178 -157 84 C-157.01801778 82.4049083 -157.03084964 80.80975749 -157.04150391 79.21459961 C-157.04920807 78.32630966 -157.05691223 77.43801971 -157.06484985 76.52281189 C-156.62228436 59.30597295 -143.49209798 43.86731447 -131.80859375 32.50390625 C-97.31549707 1.75275886 -44.6896154 -8.56794369 0 0 Z " fill="#8574CC" transform="translate(563,67)"/>
<path d="M0 0 C3.24276533 3.13632602 5.4377459 6.1402434 7.6875 10.06640625 C8.0265889 10.65293472 8.3656778 11.2394632 8.71504211 11.84376526 C9.43948638 13.09744562 10.16132722 14.35263343 10.88076782 15.60919189 C12.77410062 18.91347708 14.68957713 22.20485216 16.60546875 25.49609375 C16.98470993 26.14815796 17.36395111 26.80022217 17.75468445 27.4720459 C22.17318868 35.04686415 26.85947056 42.44226235 31.60253906 49.81689453 C33.01604781 52.02506979 34.41290541 54.24291822 35.8046875 56.46484375 C53.26493136 84.33264544 71.38154947 111.84877835 90.37255859 138.69775391 C91.94660818 140.92446972 93.51519639 143.15492219 95.08203125 145.38671875 C110.45924432 167.27006124 126.20179329 188.89498364 142.52441406 210.08349609 C143.9018774 211.8725575 145.27588885 213.66419802 146.6484375 215.45703125 C154.79097995 226.08567654 163.03858659 236.62307723 171.5 247 C198 279.50619743 198 279.50619743 198 282 C188.21205331 282.18565425 178.42452779 282.32765402 168.63517666 282.41449738 C164.08907667 282.45618661 159.54418427 282.51269548 154.9987793 282.60351562 C150.60905731 282.6906726 146.22049389 282.73832126 141.82997322 282.75901794 C140.15813014 282.77375928 138.486348 282.80254827 136.81500053 282.84584045 C123.72202919 283.17138219 123.72202919 283.17138219 119.45817566 280.27096558 C117.6756648 278.26084292 116.3327677 276.32471112 115 274 C114.21496094 273.01257813 113.42992187 272.02515625 112.62109375 271.0078125 C111.90050781 270.05648438 111.17992187 269.10515625 110.4375 268.125 C109.57746025 266.99430661 108.71674362 265.86412786 107.85546875 264.734375 C107.39833496 264.13431641 106.94120117 263.53425781 106.47021484 262.91601562 C104.90539728 260.8767117 103.32412995 258.85111352 101.73828125 256.828125 C93.89052225 246.81569712 86.26113183 236.66567981 78.75439453 226.39550781 C76.41235616 223.19761184 74.0558675 220.01049536 71.69970703 216.82299805 C50.13583919 187.63200986 29.08056742 157.96877581 9.6114502 127.32748413 C8.02104809 124.91782283 8.02104809 124.91782283 5.87976074 122.68643188 C-2.80158828 112.33160026 -1.005215 99.92069702 -0.78125 87.109375 C-0.76630985 84.5930563 -0.75493123 82.07671416 -0.74694824 79.56036377 C-0.71965182 73.64217463 -0.65677821 67.72522312 -0.57615232 61.80753827 C-0.47744021 54.39925109 -0.43488184 46.99080915 -0.390625 39.58203125 C-0.30509539 26.38741269 -0.17030238 13.193783 0 0 Z " fill="#1A3567" transform="translate(903,438)"/>
<path d="M0 0 C0.33 0 0.66 0 1 0 C1.16401137 14.15203816 1.28673255 28.30392752 1.3626852 42.45672321 C1.39914722 49.02918372 1.44857135 55.60100375 1.52807617 62.1730957 C1.60438329 68.52090396 1.64604314 74.8680979 1.6641407 81.21632957 C1.67703024 83.63279065 1.70220084 86.04921979 1.7401104 88.46541786 C2.09843048 112.25918002 2.09843048 112.25918002 -6 121 C-6.88660898 122.27621425 -7.75685853 123.56424353 -8.59765625 124.87109375 C-9.41702798 126.06144281 -10.23868884 127.25021904 -11.0625 128.4375 C-11.51874756 129.0979834 -11.97499512 129.7584668 -12.44506836 130.43896484 C-25.74961443 149.66775741 -39.26683582 168.71656087 -53.16796875 187.51806641 C-55.00174662 190.00236622 -56.82987966 192.49071924 -58.65625 194.98046875 C-65.33037383 204.07441343 -72.08415675 213.08854029 -79 222 C-80.23209954 223.60306488 -81.46186227 225.20790568 -82.69165039 226.81274414 C-86.70281631 232.0438453 -90.74456706 237.25042034 -94.8125 242.4375 C-95.4785022 243.2881604 -95.4785022 243.2881604 -96.15795898 244.15600586 C-96.58665283 244.70135986 -97.01534668 245.24671387 -97.45703125 245.80859375 C-97.82803955 246.28095459 -98.19904785 246.75331543 -98.58129883 247.23999023 C-99.28355591 248.11119507 -99.28355591 248.11119507 -100 249 C-100.55606934 250.04373779 -101.11213867 251.08747559 -101.68505859 252.1628418 C-103.75030964 254.60385554 -104.90903129 254.98470407 -108.11546326 255.52384949 C-112.28415011 255.69704566 -116.41248879 255.67472726 -120.58203125 255.5859375 C-122.12186528 255.57473984 -123.66172077 255.56620234 -125.20158386 255.56021118 C-129.24469543 255.53735678 -133.28650333 255.47846559 -137.32910156 255.4119873 C-141.45815394 255.35048992 -145.58741804 255.32318043 -149.71679688 255.29296875 C-157.81179464 255.22871658 -165.90573493 255.1263811 -174 255 C-174.03969535 253.22291753 -174.06816196 251.44558151 -174.09179688 249.66821289 C-174.10883667 248.67849991 -174.12587646 247.68878693 -174.14343262 246.66908264 C-173.9567414 243.19501722 -173.04190376 241.77898442 -170.5 239.4375 C-169.39591797 238.34308594 -169.39591797 238.34308594 -168.26953125 237.2265625 C-167.14611328 236.12441406 -167.14611328 236.12441406 -166 235 C-164.70340326 233.45881199 -163.4327382 231.89547361 -162.1875 230.3125 C-161.5275 229.47847656 -160.8675 228.64445313 -160.1875 227.78515625 C-159.1046875 226.40650391 -159.1046875 226.40650391 -158 225 C-157.14590277 223.9153099 -156.2917324 222.8306774 -155.4375 221.74609375 C-153.57591397 219.38063486 -151.71681547 217.01324657 -149.859375 214.64453125 C-147.97682142 212.24382598 -146.091454 209.84538377 -144.203125 207.44921875 C-138.59432558 200.32990139 -133.02430204 193.18247675 -127.51806641 185.98339844 C-126.40170239 184.524836 -125.28399245 183.06730345 -124.16552734 181.61035156 C-116.37273494 171.45743454 -108.65868734 161.27608183 -101.28662109 150.81347656 C-98.75984261 147.25201345 -96.18753345 143.7232709 -93.625 140.1875 C-87.89001899 132.2578148 -82.21557959 124.28811168 -76.59863281 116.27441406 C-74.97665683 113.96678911 -73.34408041 111.66691935 -71.7109375 109.3671875 C-62.32114293 96.07411843 -53.3322292 82.52436626 -44.375 68.9375 C-43.7684256 68.01826752 -43.1618512 67.09903503 -42.53689575 66.15194702 C-29.99063184 47.12533694 -17.75777224 27.90678733 -5.73632812 8.54492188 C-5.12595703 7.56458984 -4.51558594 6.58425781 -3.88671875 5.57421875 C-3.35264404 4.71401123 -2.81856934 3.85380371 -2.26831055 2.9675293 C-1 1 -1 1 0 0 Z " fill="#1A3567" transform="translate(174,465)"/>
<path d="M0 0 C0.95563089 -0.00445784 1.91126179 -0.00891569 2.89585119 -0.01350862 C3.94281635 -0.01332426 4.9897815 -0.01313989 6.06847286 -0.01294994 C7.18302268 -0.01662663 8.29757251 -0.02030332 9.44589657 -0.02409142 C13.19435578 -0.03513684 16.94278728 -0.03897359 20.69126034 -0.04278088 C23.37347739 -0.04904491 26.05569148 -0.05567887 28.73790646 -0.0626936 C36.79716677 -0.08244548 44.85642832 -0.09252307 52.91570678 -0.10142139 C56.71328224 -0.1058068 60.51085631 -0.11117299 64.30843067 -0.11641026 C76.93677035 -0.13342205 89.56510918 -0.14791513 102.19345856 -0.155159 C105.46974406 -0.15706882 108.74602955 -0.15898916 112.02231503 -0.16094494 C113.24373657 -0.16167055 113.24373657 -0.16167055 114.48983329 -0.16241082 C127.67390524 -0.17070706 140.85788634 -0.19603732 154.04191864 -0.22852562 C167.58529883 -0.26162661 181.12863291 -0.27961054 194.67205375 -0.28280324 C202.27306753 -0.28496563 209.87394885 -0.29367446 217.47492313 -0.31926441 C223.94980484 -0.3410131 230.42452192 -0.34900147 236.899436 -0.33929763 C240.20013289 -0.33476474 243.50042091 -0.33877923 246.80108547 -0.35605907 C250.38813886 -0.37378403 253.97433829 -0.36666763 257.56139278 -0.35352612 C258.59274288 -0.36449536 259.62409298 -0.37546461 260.68669611 -0.38676625 C271.34051517 -0.29289556 281.09640869 3.1902984 289.25937557 10.13422108 C299.41270037 20.79018572 301.25937557 30.46418851 301.25937557 45.13422108 C189.71937557 45.13422108 78.17937557 45.13422108 -36.74062443 45.13422108 C-36.74062443 31.86086744 -35.30829871 22.20599818 -26.74062443 12.13422108 C-19.39173112 5.13197368 -10.31330012 0.02236251 0 0 Z " fill="#1E5A92" transform="translate(407.7406244277954,674.8657789230347)"/>
<path d="M0 0 C4.14411366 3.69601739 6.93252509 8.16322251 9.953125 12.76953125 C10.52588669 13.63430588 11.09864838 14.49908051 11.68876648 15.39006042 C12.912636 17.23836393 14.13455878 19.08795771 15.35470581 20.9387207 C18.52369179 25.74376171 21.70914275 30.53785422 24.89453125 35.33203125 C25.51731461 36.26983429 26.14009796 37.20763733 26.78175354 38.17385864 C37.29901961 53.99171621 48.25928261 69.48634631 59.43652344 84.84375 C61.01066599 87.01470987 62.57333889 89.19348371 64.1328125 91.375 C71.97175786 102.325846 80.08328059 113.05050412 88.27441406 123.73974609 C90.41250629 126.54032021 92.52158797 129.36079573 94.625 132.1875 C102.7667486 143.07962817 111.13765763 153.81700777 119.7421875 164.34765625 C121 166 121 166 121 167 C83.71 167 46.42 167 8 167 C7.01 151.16 6.02 135.32 5 119 C4.30800847 109.04009435 3.60933087 99.08170584 2.875 89.125 C2.23567013 80.41764501 1.605604 71.70977022 1 63 C0.94172028 62.17763855 0.88344055 61.3552771 0.82339478 60.50799561 C-0.08322937 47.46125069 -0.11812976 34.44904215 -0.0625 21.375 C-0.05746856 19.28906359 -0.0529086 17.20312599 -0.04882812 15.1171875 C-0.03796746 10.07809476 -0.02079613 5.03906112 0 0 Z " fill="#BDA9E4" transform="translate(904,553)"/>
<path d="M0 0 C0.33 0 0.66 0 1 0 C1.48728235 17.41778325 0.08557318 34.73169907 -1.13910294 52.09164047 C-1.6079879 58.77311972 -2.06040567 65.4557517 -2.516119 72.13813972 C-2.68713064 74.64302731 -2.85889162 77.14786275 -3.03071594 79.6526947 C-4.49794413 101.09348664 -5.74574014 122.54555503 -7 144 C-39.34 144 -71.68 144 -105 144 C-101.4375394 139.25005253 -97.87446635 134.51335988 -94.25 129.8125 C-93.82154785 129.25626953 -93.3930957 128.70003906 -92.95166016 128.12695312 C-90.8673062 125.42103002 -88.78127649 122.71640087 -86.6953125 120.01171875 C-84.63467447 117.33705221 -82.57645955 114.66057653 -80.52099609 111.98193359 C-79.41772741 110.54431961 -78.31380042 109.10721075 -77.20947266 107.67041016 C-69.60173905 97.76484612 -62.06628177 87.82188164 -54.79370117 77.66699219 C-51.49568667 73.06208285 -48.15272699 68.49481169 -44.7734375 63.94921875 C-38.92500891 56.07831596 -33.26281921 48.11001835 -27.76049805 39.9934082 C-24.1722908 34.70059724 -20.51871863 29.46077046 -16.8125 24.25 C-12.43631918 18.09317625 -8.18604134 11.86484516 -4.0324707 5.55566406 C-1.08992411 1.08992411 -1.08992411 1.08992411 0 0 Z " fill="#BDAAE4" transform="translate(174,576)"/>
<path d="M0 0 C0.53625 0.309375 1.0725 0.61875 1.625 0.9375 C1.625 2.9175 1.625 4.8975 1.625 6.9375 C2.615 6.6075 3.605 6.2775 4.625 5.9375 C4.75 8.8125 4.75 8.8125 4.625 11.9375 C3.965 12.5975 3.305 13.2575 2.625 13.9375 C2.45822718 17.52093976 2.45822718 17.52093976 2.625 20.9375 C4.11 21.4325 4.11 21.4325 5.625 21.9375 C5.728125 21.174375 5.83125 20.41125 5.9375 19.625 C6.71369365 16.59078846 7.00562041 15.62742232 9.625 13.9375 C12.34985468 13.06270934 14.76693665 12.67462529 17.625 12.9375 C22.18450146 16.0784899 24.62795824 20.53862492 25.625 25.9375 C24.9375 29.1875 24.9375 29.1875 23.625 31.9375 C23.25375 32.72125 22.8825 33.505 22.5 34.3125 C22.21125 34.84875 21.9225 35.385 21.625 35.9375 C22.285 35.9375 22.945 35.9375 23.625 35.9375 C25.2258874 39.1392748 24.97849719 42.45588618 24.625 45.9375 C23.5625 48.875 23.5625 48.875 21.625 50.9375 C18.1875 51.9375 18.1875 51.9375 14.625 51.9375 C13.27710653 50.95721384 11.94287285 49.95778865 10.625 48.9375 C7.43264728 49.16323891 7.43264728 49.16323891 4.625 49.9375 C4.90817926 51.54318666 5.20187791 53.14702047 5.5 54.75 C5.66242188 55.64332031 5.82484375 56.53664063 5.9921875 57.45703125 C6.53688449 60.16477846 6.53688449 60.16477846 8.625 62.9375 C8.30075241 68.99012162 8.30075241 68.99012162 6.4296875 71.61328125 C3.94830734 73.43403423 1.98522115 73.44572229 -1.0625 73.625 C-2.05636719 73.69074219 -3.05023437 73.75648438 -4.07421875 73.82421875 C-5.21310547 73.88029297 -5.21310547 73.88029297 -6.375 73.9375 C-7.34262012 78.07062023 -7.38655746 80.11554082 -5.375 83.9375 C-4.818125 84.453125 -4.26125 84.96875 -3.6875 85.5 C-2.375 86.9375 -2.375 86.9375 -2.3125 88.8125 C-4.37198919 92.93147838 -8.07734838 95.27358522 -12.0625 97.3125 C-14.375 97.9375 -14.375 97.9375 -17.375 96.9375 C-17.375 96.2775 -17.375 95.6175 -17.375 94.9375 C-19.025 94.6075 -20.675 94.2775 -22.375 93.9375 C-22.705 92.9475 -23.035 91.9575 -23.375 90.9375 C-24.365 90.4425 -24.365 90.4425 -25.375 89.9375 C-25.705 90.5975 -26.035 91.2575 -26.375 91.9375 C-26.23392253 90.47869891 -26.08697585 89.02046449 -25.9375 87.5625 C-25.85628906 86.75039063 -25.77507813 85.93828125 -25.69140625 85.1015625 C-25.375 82.9375 -25.375 82.9375 -24.375 80.9375 C-23.715 80.9375 -23.055 80.9375 -22.375 80.9375 C-22.375 79.2875 -22.375 77.6375 -22.375 75.9375 C-23.695 75.6075 -25.015 75.2775 -26.375 74.9375 C-26.375 75.5975 -26.375 76.2575 -26.375 76.9375 C-27.984375 78.48046875 -27.984375 78.48046875 -30.125 80.125 C-30.82109375 80.67542969 -31.5171875 81.22585938 -32.234375 81.79296875 C-34.375 82.9375 -34.375 82.9375 -36.515625 82.80078125 C-38.375 81.9375 -38.375 81.9375 -40.375 78.9375 C-41.86 78.4425 -41.86 78.4425 -43.375 77.9375 C-45.79602134 74.30596799 -46.41709474 72.45947482 -46.0625 68.0625 C-45.835625 67.03125 -45.60875 66 -45.375 64.9375 C-43.89 64.4425 -43.89 64.4425 -42.375 63.9375 C-42.375 62.2875 -42.375 60.6375 -42.375 58.9375 C-46.38461075 59.89216923 -48.70888668 61.05748169 -51.4375 64.0625 C-54.04230124 66.89410451 -54.04230124 66.89410451 -57.25 67.3125 C-58.301875 67.126875 -58.301875 67.126875 -59.375 66.9375 C-59.87 64.4625 -59.87 64.4625 -60.375 61.9375 C-61.365 61.6075 -62.355 61.2775 -63.375 60.9375 C-64.48408285 56.10506756 -65.52335866 51.47928762 -65.375 46.5 C-65.04564676 42.83060465 -65.04564676 42.83060465 -67.375 39.9375 C-67.83655369 36.32199608 -67.82906883 34.60113906 -65.75 31.5625 C-62.66313568 29.45043494 -61.0467087 29.32554855 -57.375 29.9375 C-55 31.5625 -55 31.5625 -53.375 33.9375 C-52.74858354 38.63562348 -53.95696857 42.50615177 -55.375 46.9375 C-54.385 46.9375 -53.395 46.9375 -52.375 46.9375 C-52.375 47.5975 -52.375 48.2575 -52.375 48.9375 C-49.0220016 47.75941948 -46.6197471 46.74343388 -44.375 43.9375 C-44.045 42.9475 -43.715 41.9575 -43.375 40.9375 C-44.014375 40.628125 -44.65375 40.31875 -45.3125 40 C-47.375 38.9375 -47.375 38.9375 -48.375 37.9375 C-48.84240995 32.14161664 -48.84240995 32.14161664 -48.375 29.9375 C-45.55974036 27.10282478 -43.1656299 26.49139963 -39.25 26.1875 C-38.38117187 26.11015625 -37.51234375 26.0328125 -36.6171875 25.953125 C-34.375 25.9375 -34.375 25.9375 -32.375 26.9375 C-32.08625 26.15375 -31.7975 25.37 -31.5 24.5625 C-30.375 21.9375 -30.375 21.9375 -28.375 19.9375 C-21.6479891 18.36786412 -21.6479891 18.36786412 -18.515625 19.76953125 C-16.875 20.875 -16.875 20.875 -14.375 22.9375 C-13.715 22.2775 -13.055 21.6175 -12.375 20.9375 C-12.69610689 17.40532421 -13.25316502 14.30300494 -14.375 10.9375 C-15.365 10.9375 -16.355 10.9375 -17.375 10.9375 C-17.705 11.9275 -18.035 12.9175 -18.375 13.9375 C-19.50237975 9.99167088 -19.64418892 8.44596795 -17.6875 4.75 C-12.53543042 -1.51603057 -7.71049801 -3.44943332 0 0 Z " fill="#D49C80" transform="translate(749.375,378.0625)"/>
<path d="M0 0 C3.5 0.5625 3.5 0.5625 6 2.125 C8.11699976 5.56512461 7.34087295 7.70849897 6.5 11.5625 C6.5 12.5525 6.5 13.5425 6.5 14.5625 C6.231875 15.18125 5.96375 15.8 5.6875 16.4375 C5.5946875 17.489375 5.5946875 17.489375 5.5 18.5625 C6.325 19.325625 7.15 20.08875 8 20.875 C10.5 23.5625 10.5 23.5625 10.5625 27.1875 C9.5 30.5625 9.5 30.5625 7.875 32.5625 C4.45223815 34.00366288 2.05394628 33.41807966 -1.5 32.5625 C-2.16 31.9025 -2.82 31.2425 -3.5 30.5625 C-6.59926819 30.88448966 -6.59926819 30.88448966 -9.5 31.5625 C-9.21682074 33.16818666 -8.92312209 34.77202047 -8.625 36.375 C-8.46257813 37.26832031 -8.30015625 38.16164063 -8.1328125 39.08203125 C-7.58811551 41.78977846 -7.58811551 41.78977846 -5.5 44.5625 C-5.68010028 47.92437193 -5.91887954 50.56168142 -7.625 53.5 C-10.62786328 55.20162252 -13.11266189 54.84956255 -16.5 54.5625 C-17.510625 54.129375 -18.52125 53.69625 -19.5625 53.25 C-20.531875 53.023125 -21.50125 52.79625 -22.5 52.5625 C-24.54119788 54.17844832 -26.54072937 55.8481382 -28.5 57.5625 C-32.21443562 58.23109841 -33.72306429 58.07364192 -36.875 56 C-40.35132081 50.78551879 -38.25718634 43.52534245 -37.5 37.5625 C-38.49 37.2325 -39.48 36.9025 -40.5 36.5625 C-41.92041821 33.72166359 -41.81452272 31.70772722 -41.5 28.5625 C-39.89453125 26.37109375 -39.89453125 26.37109375 -37.5 24.5625 C-34.3359375 24.27734375 -34.3359375 24.27734375 -30.875 24.5 C-27.49535102 24.77515196 -27.49535102 24.77515196 -24.5 24.5625 C-22.5549 21.64485 -22.04723683 19.93712715 -21.5 16.5625 C-22.16 16.5625 -22.82 16.5625 -23.5 16.5625 C-25.96324069 12.86763897 -25.88991688 10.92956908 -25.5 6.5625 C-24.5 4.625 -24.5 4.625 -22.5 3.5625 C-18.7155274 2.93175457 -15.64907583 2.76162897 -12.4375 5 C-10.58534705 10.06255139 -12.16084529 15.48294767 -13.5 20.5625 C-8.82114742 20.98994381 -8.82114742 20.98994381 -4.625 19.3125 C-3.39493337 17.39906302 -2.88497994 15.79538365 -2.5 13.5625 C-3.4590625 13.253125 -3.4590625 13.253125 -4.4375 12.9375 C-6.5 11.5625 -6.5 11.5625 -7.5 8.75 C-7.5 5.5625 -7.5 5.5625 -6 2.6875 C-3.5 0.5625 -3.5 0.5625 0 0 Z " fill="#D6A08C" transform="translate(763.5,396.4375)"/>
<path d="M0 0 C4.85714286 4.85714286 4.85714286 4.85714286 5.4375 9.5 C5 13 5 13 3.3125 15.4375 C0.61589191 17.25953249 -0.81126451 17.35430394 -4 17 C-4.2475 17.763125 -4.495 18.52625 -4.75 19.3125 C-6.1292637 22.27791695 -7.19257315 23.38360273 -10 25 C-10.99 25 -11.98 25 -13 25 C-12.484375 25.53625 -11.96875 26.0725 -11.4375 26.625 C-10 29 -10 29 -10.0625 32.0625 C-11.15966796 35.50029294 -11.91749223 36.2362971 -15 38 C-17.55078125 38.046875 -17.55078125 38.046875 -20.3125 37.75 C-24.51802614 37.57506706 -24.51802614 37.57506706 -28.09765625 39.546875 C-29.25726634 40.8211718 -30.39178525 42.11889703 -31.49609375 43.44140625 C-33 45 -33 45 -35.9375 45.4375 C-36.618125 45.293125 -37.29875 45.14875 -38 45 C-38.33 43.35 -38.66 41.7 -39 40 C-39.99 39.67 -40.98 39.34 -42 39 C-43.10908285 34.16756756 -44.14835866 29.54178762 -44 24.5625 C-43.67064676 20.89310465 -43.67064676 20.89310465 -46 18 C-46.46155369 14.38449608 -46.45406883 12.66363906 -44.375 9.625 C-41.28813568 7.51293494 -39.6717087 7.38804855 -36 8 C-33.625 9.625 -33.625 9.625 -32 12 C-31.37358354 16.69812348 -32.58196857 20.56865177 -34 25 C-33.01 25 -32.02 25 -31 25 C-31 25.66 -31 26.32 -31 27 C-27.6470016 25.82191948 -25.2447471 24.80593388 -23 22 C-22.67 21.01 -22.34 20.02 -22 19 C-22.639375 18.690625 -23.27875 18.38125 -23.9375 18.0625 C-26 17 -26 17 -27 16 C-27.46740995 10.20411664 -27.46740995 10.20411664 -27 8 C-24.18474036 5.16532478 -21.7906299 4.55389963 -17.875 4.25 C-17.00617187 4.17265625 -16.13734375 4.0953125 -15.2421875 4.015625 C-13 4 -13 4 -11 5 C-11 4.34 -11 3.68 -11 3 C-7.65433901 -0.47948742 -4.65646621 -0.43115428 0 0 Z " fill="#D69F8C" transform="translate(728,400)"/>
<path d="M0 0 C0.53625 0.309375 1.0725 0.61875 1.625 0.9375 C1.625 2.9175 1.625 4.8975 1.625 6.9375 C2.615 6.6075 3.605 6.2775 4.625 5.9375 C4.75 8.8125 4.75 8.8125 4.625 11.9375 C3.965 12.5975 3.305 13.2575 2.625 13.9375 C2.45822718 17.52093976 2.45822718 17.52093976 2.625 20.9375 C3.615 21.2675 4.605 21.5975 5.625 21.9375 C5.728125 21.174375 5.83125 20.41125 5.9375 19.625 C6.71369365 16.59078846 7.00562041 15.62742232 9.625 13.9375 C12.34985468 13.06270934 14.76693665 12.67462529 17.625 12.9375 C22.18450146 16.0784899 24.62795824 20.53862492 25.625 25.9375 C24.9375 29.1875 24.9375 29.1875 23.625 31.9375 C23.25375 32.72125 22.8825 33.505 22.5 34.3125 C22.21125 34.84875 21.9225 35.385 21.625 35.9375 C22.285 35.9375 22.945 35.9375 23.625 35.9375 C24.12 38.9075 24.12 38.9075 24.625 41.9375 C23.635 41.4425 23.635 41.4425 22.625 40.9375 C22.625 40.2775 22.625 39.6175 22.625 38.9375 C19.985 38.6075 17.345 38.2775 14.625 37.9375 C14.625 37.6075 14.625 37.2775 14.625 36.9375 C16.275 36.9375 17.925 36.9375 19.625 36.9375 C19.41875 36.009375 19.2125 35.08125 19 34.125 C18.625 30.9375 18.625 30.9375 20.625 27.9375 C20.97440459 25.14226326 20.99733787 23.5726646 19.5625 21.125 C16.49886726 19.24728961 14.12335955 19.50020506 10.625 19.9375 C8.45833333 21.4375 8.45833333 21.4375 7.625 23.9375 C7.61825074 27.06430099 7.61825074 27.06430099 8.625 29.9375 C9.615 30.5975 10.605 31.2575 11.625 31.9375 C11.27280657 34.54373142 10.86026531 36.54539115 9.5 38.8125 C6.49789213 40.61376472 3.92320792 39.62203372 0.625 38.9375 C0.72039063 38.03386719 0.81578125 37.13023437 0.9140625 36.19921875 C1.02492188 35.01972656 1.13578125 33.84023438 1.25 32.625 C1.36601563 31.45324219 1.48203125 30.28148437 1.6015625 29.07421875 C1.91948782 25.77158833 1.91948782 25.77158833 -0.375 22.9375 C-2.27957929 22.49922799 -2.27957929 22.49922799 -4.375 22.625 C-5.426875 22.63080078 -5.426875 22.63080078 -6.5 22.63671875 C-8.6166577 22.78837054 -8.6166577 22.78837054 -10.375 24.9375 C-10.57646402 28.631007 -10.54853189 31.41690432 -9.375 34.9375 C-8.715 34.9375 -8.055 34.9375 -7.375 34.9375 C-8.125 41.6875 -8.125 41.6875 -10.375 43.9375 C-13.5 43.5625 -13.5 43.5625 -16.375 42.9375 C-17.10580266 40.96003397 -17.76921747 38.95677511 -18.375 36.9375 C-18.045 36.2775 -17.715 35.6175 -17.375 34.9375 C-17.30549459 33.39726004 -17.29047643 31.85415012 -17.3125 30.3125 C-17.32152344 29.49523437 -17.33054687 28.67796875 -17.33984375 27.8359375 C-17.35144531 27.20945312 -17.36304688 26.58296875 -17.375 25.9375 C-18.695 25.2775 -20.015 24.6175 -21.375 23.9375 C-21.375 23.6075 -21.375 23.2775 -21.375 22.9375 C-26.69670494 22.64187633 -26.69670494 22.64187633 -31.375 24.9375 C-30.75 23.0625 -30.75 23.0625 -29.375 20.9375 C-26.55277497 19.64909292 -24.42909154 18.8416735 -21.3125 19.125 C-18.83805927 20.16266869 -16.63331611 21.49468693 -14.375 22.9375 C-13.715 22.2775 -13.055 21.6175 -12.375 20.9375 C-12.69610689 17.40532421 -13.25316502 14.30300494 -14.375 10.9375 C-15.365 10.9375 -16.355 10.9375 -17.375 10.9375 C-17.705 11.9275 -18.035 12.9175 -18.375 13.9375 C-19.50237975 9.99167088 -19.64418892 8.44596795 -17.6875 4.75 C-12.53543042 -1.51603057 -7.71049801 -3.44943332 0 0 Z " fill="#D49C82" transform="translate(749.375,378.0625)"/>
<path d="M0 0 C7.70035355 -0.66959596 13.84989637 1.94031686 20.25 6.125 C30.88249825 17.24079362 31.55706772 29.27219664 31.30859375 43.90234375 C30.46763727 66.53837971 19.2755572 87.32044864 3.359375 102.9765625 C-0.53230536 106.31412943 -2.78141388 108 -8 108 C-8 105.875 -8 105.875 -7 103 C-5.16353827 101.36958032 -3.21049479 100.00981682 -1.19921875 98.6015625 C4.2634142 94.62344614 8.38607761 90.30416577 11 84 C11.66 84 12.32 84 13 84 C13.27070312 83.30648437 13.54140625 82.61296875 13.8203125 81.8984375 C14.63035764 79.90819414 15.48183073 77.93446575 16.3671875 75.9765625 C22.09293148 63.24939065 25.33985821 51.64701497 25.5 37.625 C25.51853027 36.61453613 25.53706055 35.60407227 25.55615234 34.56298828 C25.49923214 27.79394842 24.19664445 22.93468902 21 17 C20.61199219 16.00613281 20.22398437 15.01226562 19.82421875 13.98828125 C17.64501772 11.61309212 16.8929145 11.61170826 13.76953125 11.29296875 C12.11789206 11.23327095 10.46517768 11.19900356 8.8125 11.1875 C7.96751953 11.16236328 7.12253906 11.13722656 6.25195312 11.11132812 C4.1684695 11.05247266 2.08418373 11.02337005 0 11 C0 7.37 0 3.74 0 0 Z " fill="#A74794" transform="translate(711,140)"/>
<path d="M0 0 C0.625 2.5625 0.625 2.5625 1 5 C-0.093125 5.103125 -1.18625 5.20625 -2.3125 5.3125 C-5.82643659 5.75451674 -5.82643659 5.75451674 -7.9375 7.125 C-9.29998962 9.12352313 -9.29998962 9.12352313 -8.75 12.3125 C-9 16 -9 16 -10.546875 17.7890625 C-12.315313 19.28162417 -14.10146097 20.67780318 -16 22 C-14.73025028 26.41522109 -14.73025028 26.41522109 -12 30 C-11.58074736 33.77327378 -11.52811579 36.1420287 -13.375 39.5 C-16.98439699 41.56251256 -19.65807242 41.33214271 -23.7109375 40.734375 C-26 40 -26 40 -28.1875 37.375 C-29.11025158 33.54203189 -28.84218946 30.82813392 -28 27 C-27.01 26.67 -26.02 26.34 -25 26 C-25 24.68 -25 23.36 -25 22 C-21.97265625 21.36523438 -21.97265625 21.36523438 -18.9453125 20.73046875 C-16.62953451 20.07691162 -16.62953451 20.07691162 -15 17 C-15.31925253 13.16896958 -15.84453702 11.23319447 -18 8 C-15 7 -15 7 -12 7 C-11.401875 6.05125 -10.80375 5.1025 -10.1875 4.125 C-7.66521396 0.52173423 -4.41245543 -2.20622771 0 0 Z " fill="#D6A18D" transform="translate(732,416)"/>
<path d="M0 0 C1 1 2 2 3 3 C3.99 3 4.98 3 6 3 C6 2.34 6 1.68 6 1 C8.475 1.495 8.475 1.495 11 2 C10.505 2.33 10.01 2.66 9.5 3 C7.46053744 5.71928342 7.52475516 7.79216512 7.62890625 11.125 C7.86626637 13.23717738 7.86626637 13.23717738 10 15 C10.66 15.33 11.32 15.66 12 16 C11.66410006 19.13506611 10.97334828 20.025249 8.625 22.25 C6 24 6 24 3 24 C3 23.34 3 22.68 3 22 C2.01 22 1.02 22 0 22 C0.10699219 21.09636719 0.21398437 20.19273437 0.32421875 19.26171875 C0.44410156 18.08222656 0.56398438 16.90273438 0.6875 15.6875 C0.81511719 14.51574219 0.94273437 13.34398437 1.07421875 12.13671875 C1.28573796 9.04975462 1.28573796 9.04975462 -0.29296875 7.10546875 C-2.93314348 5.39569884 -4.93785649 5.61723206 -8 6 C-10 7 -10 7 -11 9 C-11.42478586 13.07794425 -11.31282587 14.53076119 -9 18 C-8.875 20.453125 -8.875 20.453125 -9 23.25 C-9.08789537 27.99007165 -8.69425167 31.57612064 -7 36 C-6.34 36.66 -5.68 37.32 -5 38 C-7.3125 37.875 -7.3125 37.875 -10 37 C-12.40976999 33.34379725 -13.5917271 30.37878054 -13 26 C-12.34 25.01 -11.68 24.02 -11 23 C-11.19266036 20.46286147 -11.19266036 20.46286147 -11.875 17.8125 C-12.07867188 16.91144531 -12.28234375 16.01039063 -12.4921875 15.08203125 C-12.65976562 14.39496094 -12.82734375 13.70789063 -13 13 C-13.66 13 -14.32 13 -15 13 C-16.28432364 9.14702908 -15.58019149 7.68711349 -14 4 C-11.79262152 1.08310701 -10.5493908 0.14879334 -7 -0.8125 C-4.24322932 -0.98479817 -2.52855955 -1.04630051 0 0 Z " fill="#D49C80" transform="translate(694,403)"/>
<path d="M0 0 C0.33 0 0.66 0 1 0 C1 2.31 1 4.62 1 7 C33.05228579 6.91813288 65.10452231 6.82613901 97.15673612 6.71994839 C100.93823074 6.70742907 104.71972563 6.69499637 108.5012207 6.68261719 C109.63049269 6.6789182 109.63049269 6.6789182 110.78257825 6.67514448 C122.98287485 6.63538845 135.18318075 6.60265372 147.38350443 6.57250018 C159.89617423 6.5414189 172.40880446 6.50282383 184.92142981 6.45720994 C192.64638446 6.42928731 200.37131007 6.40727071 208.0963017 6.39273749 C214.01341011 6.3809787 219.93044997 6.35878109 225.8475132 6.33261681 C228.27959149 6.32351467 230.7116853 6.3178447 233.14377975 6.31578636 C236.45341116 6.31248241 239.76276633 6.29705573 243.07234192 6.2784729 C244.53001259 6.281375 244.53001259 6.281375 246.01713115 6.28433573 C246.90091998 6.27687024 247.78470881 6.26940475 248.69527912 6.26171303 C249.84184466 6.25829554 249.84184466 6.25829554 251.01157314 6.25480902 C253.31805111 6.10895177 253.31805111 6.10895177 256 4 C256 5.32 256 6.64 256 8 C171.52 8 87.04 8 0 8 C0 5.36 0 2.72 0 0 Z " fill="#3B62A2" transform="translate(405,144)"/>
<path d="M0 0 C0.99 0.33 1.98 0.66 3 1 C2.91621094 2.04800781 2.83242188 3.09601563 2.74609375 4.17578125 C2.64291206 5.55466381 2.54006494 6.93357143 2.4375 8.3125 C2.38142578 9.00279297 2.32535156 9.69308594 2.26757812 10.40429688 C2.03418495 13.62512274 1.96775782 15.90327345 3 19 C3.66 19 4.32 19 5 19 C4.25 25.75 4.25 25.75 2 28 C-1.125 27.625 -1.125 27.625 -4 27 C-4.73080266 25.02253397 -5.39421747 23.01927511 -6 21 C-5.67 20.34 -5.34 19.68 -5 19 C-4.93049459 17.45976004 -4.91547643 15.91665012 -4.9375 14.375 C-4.94652344 13.55773437 -4.95554687 12.74046875 -4.96484375 11.8984375 C-4.97644531 11.27195312 -4.98804688 10.64546875 -5 10 C-6.32 9.34 -7.64 8.68 -9 8 C-9 7.67 -9 7.34 -9 7 C-14.32170494 6.70437633 -14.32170494 6.70437633 -19 9 C-18.375 7.125 -18.375 7.125 -17 5 C-14.17777497 3.71159292 -12.05409154 2.9041735 -8.9375 3.1875 C-6.46305927 4.22516869 -4.25831611 5.55718693 -2 7 C0.28728734 5.16116119 0.28728734 5.16116119 0.125 2.375 C0.08375 1.59125 0.0425 0.8075 0 0 Z " fill="#D49C7F" transform="translate(737,394)"/>
<path d="M0 0 C0.66 0 1.32 0 2 0 C3.20779006 2.85477649 3.01121976 3.96898066 1.9375 6.9375 C-0.47796284 10.75548965 -2.13199366 12.61968841 -6 15 C-9.8125 14.5 -9.8125 14.5 -13 13 C-13.33 12.01 -13.66 11.02 -14 10 C-15.98 10.99 -15.98 10.99 -18 12 C-18 14.31 -18 16.62 -18 19 C-17.195625 19.226875 -16.39125 19.45375 -15.5625 19.6875 C-13 21 -13 21 -12.11328125 23.25 C-11.95728843 27.03686009 -13.2588947 28.4086435 -15.625 31.3125 C-16.31851563 32.19550781 -17.01203125 33.07851563 -17.7265625 33.98828125 C-20 36 -20 36 -22.7734375 36.29296875 C-23.50820313 36.19628906 -24.24296875 36.09960938 -25 36 C-25 35.34 -25 34.68 -25 34 C-25.99 33.67 -26.98 33.34 -28 33 C-28 32.67 -28 32.34 -28 32 C-26.906875 31.9175 -25.81375 31.835 -24.6875 31.75 C-21.03901467 31.33365413 -21.03901467 31.33365413 -19.0625 29.25 C-17.7896211 26.55449175 -17.6310233 24.95181359 -18 22 C-18.309375 21.38125 -18.61875 20.7625 -18.9375 20.125 C-20.66821428 16.66357145 -21 12.84590557 -21 9 C-18 7 -18 7 -16 7.25 C-14 8 -14 8 -11 10 C-7.48188593 10.40302902 -7.48188593 10.40302902 -4 9 C-2.16588613 6.16352157 -1.04179044 3.20302029 0 0 Z " fill="#D49A7B" transform="translate(775,419)"/>
<path d="M0 0 C4.36689189 1.42398649 4.36689189 1.42398649 5.875 3.9375 C6.37530235 7.86844707 6.4746142 10.0380787 4.25 13.375 C1.15814769 15.40911336 -0.48867425 15.54355429 -4.125 14.9375 C-6.5 13.375 -6.5 13.375 -8.125 10.9375 C-8.6875 7.4375 -8.6875 7.4375 -8.125 3.9375 C-5.45043116 0.79094842 -4.15592269 -0.08311845 0 0 Z " fill="#CC3692" transform="translate(706.125,386.0625)"/>
<path d="M0 0 C3.4375 1 3.4375 1 5.4375 2.625 C6.90731805 6.11581787 6.42163921 8.39148956 5.4375 12 C3.31878452 14.34572071 2.0349873 14.89543972 -1.0625 15.4375 C-3.5625 15 -3.5625 15 -5.875 13.4375 C-8.20476201 10.07228821 -8.13539582 8.01027077 -7.5625 4 C-5.30132583 0.38212133 -4.292718 0 0 0 Z " fill="#CC3692" transform="translate(735.5625,458)"/>
<path d="M0 0 C2.5 1.5625 2.5 1.5625 4 4 C4 7.77684879 3.78395245 10.03513544 1.375 13 C-2.11581787 14.46981805 -4.39148956 13.98413921 -8 13 C-10 11.375 -10 11.375 -11 9 C-10.875 5.375 -10.875 5.375 -10 2 C-6.2794164 -0.48038907 -4.40203429 -0.46337203 0 0 Z " fill="#CE3794" transform="translate(770,416)"/>
<path d="M0 0 C2.4375 1.5625 2.4375 1.5625 4 4 C3.93913078 7.46954545 3.6274029 9.91947278 1.875 12.9375 C-1.22289358 14.69297303 -3.52844534 14.48723574 -7 14 C-9.5 11.875 -9.5 11.875 -11 9 C-11 5.47602562 -10.68152223 3.75724692 -8.3125 1.125 C-5.26389315 -0.35810604 -3.35257076 -0.48891657 0 0 Z " fill="#CC3593" transform="translate(754,437)"/>
<path d="M0 0 C4.91511194 1.34048507 4.91511194 1.34048507 6.4375 3.9375 C6.9375 6.8125 6.9375 6.8125 6.4375 9.9375 C4.3125 12.875 4.3125 12.875 1.4375 14.9375 C-1.79671175 14.9375 -3.67627619 14.46923428 -6.4375 12.8125 C-8.26349685 9.76917192 -7.98710581 7.39500445 -7.5625 3.9375 C-5.29401339 0.30792142 -4.30870043 -0.07559124 0 0 Z " fill="#CE3694" transform="translate(748.5625,418.0625)"/>
<path d="M0 0 C1.875 1.125 1.875 1.125 3 3 C3.49891602 6.92005446 3.55253414 9.11594538 1.4375 12.5 C-1 14 -1 14 -4.5625 14.0625 C-8 13 -8 13 -10 10.8125 C-11.23740475 7.33229915 -11.14217883 5.50268174 -10 2 C-6.88033777 -1.58183441 -4.3851177 -1.30620527 0 0 Z " fill="#CD3693" transform="translate(730,403)"/>
<path d="M0 0 C2.5 1.5625 2.5 1.5625 4 4 C3.93866496 7.4960972 3.65265114 9.93514814 1.8125 12.9375 C-1.00547398 14.58941578 -2.79404815 14.5129523 -6 14 C-8.9375 11.875 -8.9375 11.875 -11 9 C-11 5.76578825 -10.53173428 3.88622381 -8.875 1.125 C-5.83167192 -0.70099685 -3.45750445 -0.42460581 0 0 Z " fill="#CF3495" transform="translate(767,397)"/>
<path d="M0 0 C2.5 2.125 2.5 2.125 4 5 C4 8.52397438 3.68152223 10.24275308 1.3125 12.875 C-1.76660389 14.37294243 -3.61700591 14.56383235 -7 14 C-9.4375 11.875 -9.4375 11.875 -11 9 C-10.936318 5.81590023 -10.51040601 3.85067668 -8.875 1.125 C-5.79484632 -0.72309221 -3.49557617 -0.49060718 0 0 Z " fill="#CC3593" transform="translate(714,424)"/>
<path d="M0 0 C2.6923481 2.18753283 2.93936827 3.58423955 3.4375 7 C3 10 3 10 1.375 12.375 C-1.71186432 14.48706506 -3.3282913 14.61195145 -7 14 C-9.375 12.4375 -9.375 12.4375 -11 10 C-11.42213381 6.56262469 -11.60856522 4.17909511 -10 1.0625 C-6.75895557 -0.65930485 -3.57577233 -0.66300779 0 0 Z " fill="#CD3693" transform="translate(749,400)"/>
<path d="M0 0 C1.8125 1.125 1.8125 1.125 3 3 C3.49891602 6.92005446 3.55253414 9.11594538 1.4375 12.5 C-1 14 -1 14 -4.5625 14 C-8 13 -8 13 -10 11.375 C-11.48410166 7.85025855 -11.05654989 5.63189024 -10 2 C-6.60539102 -1.0174302 -4.26129477 -1.5699507 0 0 Z " fill="#CE3594" transform="translate(717,443)"/>
<path d="M0 0 C2.4375 1.625 2.4375 1.625 4 4 C4.61195145 7.6717087 4.48706506 9.28813568 2.375 12.375 C-0.71186432 14.48706506 -2.3282913 14.61195145 -6 14 C-8.375 12.4375 -8.375 12.4375 -10 10 C-10.42519574 6.53769185 -10.63902633 4.1652833 -8.9375 1.0625 C-5.8347167 -0.63902633 -3.46230815 -0.42519574 0 0 Z " fill="#CB3492" transform="translate(735,440)"/>
<path d="M0 0 C2.375 1.625 2.375 1.625 4 4 C4.61195145 7.6717087 4.48706506 9.28813568 2.375 12.375 C-0.71186432 14.48706506 -2.3282913 14.61195145 -6 14 C-8.375 12.375 -8.375 12.375 -10 10 C-10.61195145 6.3282913 -10.48706506 4.71186432 -8.375 1.625 C-5.28813568 -0.48706506 -3.6717087 -0.61195145 0 0 Z " fill="#CD3494" transform="translate(692,408)"/>
<path d="M0 0 C1.9375 1.1875 1.9375 1.1875 3 3 C3.53520313 6.59350675 3.44814771 8.31881548 1.4375 11.375 C-1.8994213 13.5996142 -4.06905293 13.50030235 -8 13 C-9.9375 12 -9.9375 12 -11 10 C-11.46000079 7.23999526 -11.50420748 4.75595226 -11 2 C-7.94260267 -2.03576448 -4.55750868 -1.16009312 0 0 Z " fill="#CD3393" transform="translate(712,406)"/>
<path d="M0 0 C2.0625 1.5625 2.0625 1.5625 3 4 C2.93439072 7.739729 2.76345433 10.0603639 0.375 13 C-3.07663304 14.45331917 -5.42809484 13.92604949 -9 13 C-11.46324069 9.30513897 -11.38991688 7.36706908 -11 3 C-8.85023976 -1.16516046 -4.12934638 -0.75547293 0 0 Z " fill="#CB3492" transform="translate(696,427)"/>
<path d="M0 0 C2.375 1 2.375 1 4 3 C4.56641498 5.77427747 4.56641498 8.22572253 4 11 C1.81246717 13.6923481 0.41576045 13.93936827 -3 14.4375 C-6 14 -6 14 -8.375 12.375 C-10.48706506 9.28813568 -10.61195145 7.6717087 -10 4 C-7.20125452 -0.09047416 -4.83066808 -0.70447243 0 0 Z " fill="#CC3492" transform="translate(745,381)"/>
<path d="M0 0 C2.375 1.5625 2.375 1.5625 4 4 C4.5 7.5625 4.5 7.5625 4 11 C1.79803976 13.62541413 0.38026421 13.9445448 -3 14.4375 C-6 14 -6 14 -8.375 12.375 C-10.48706506 9.28813568 -10.61195145 7.6717087 -10 4 C-7.21921757 -0.06422047 -4.81255755 -0.80209293 0 0 Z " fill="#CC3493" transform="translate(732,421)"/>
<path d="M0 0 C0.99 0.33 1.98 0.66 3 1 C3.71727778 2.64551962 4.38325228 4.31422289 5 6 C5.66 6.66 6.32 7.32 7 8 C7.36893538 11.39420545 7.46243252 13.29629833 5.5625 16.1875 C5.046875 16.785625 4.53125 17.38375 4 18 C3.67 18.99 3.34 19.98 3 21 C2.34 21 1.68 21 1 21 C0.375 18.625 0.375 18.625 0 16 C0.66 15.34 1.32 14.68 2 14 C2.50007794 10.54213985 2.50007794 10.54213985 2 7 C0.5 4.83333333 0.5 4.83333333 -2 4 C-5.67293796 4.22037628 -7.36966546 4.36966546 -10 7 C-10.40047444 9.32275177 -10.7397104 11.65739357 -11 14 C-11.66 13.34 -12.32 12.68 -13 12 C-13.66 12.66 -14.32 13.32 -15 14 C-15.33 12.02 -15.66 10.04 -16 8 C-15.34 8 -14.68 8 -14 8 C-13.9071875 6.88625 -13.9071875 6.88625 -13.8125 5.75 C-12.74359613 2.13217152 -11.09234428 1.06156286 -8 -1 C-4.32740566 -2.22419811 -3.42541582 -1.54143712 0 0 Z " fill="#D49C7A" transform="translate(709,383)"/>
<path d="M0 0 C1.8125 1.125 1.8125 1.125 3 3 C3.1875 6.6875 3.1875 6.6875 3 10 C2.62875 9.34 2.2575 8.68 1.875 8 C0.10654034 5.69730833 0.10654034 5.69730833 -3 5.5625 C-6.27115359 6.03954323 -6.95824544 6.54989453 -9 9 C-9.66 9 -10.32 9 -11 9 C-10.8125 5.6875 -10.8125 5.6875 -10 2 C-6.60539102 -1.0174302 -4.26129477 -1.5699507 0 0 Z " fill="#B72E84" transform="translate(717,443)"/>
<path d="M0 0 C4.91511194 1.34048507 4.91511194 1.34048507 6.4375 3.9375 C6.625 7.125 6.625 7.125 6.4375 9.9375 C5.4475 10.4325 5.4475 10.4325 4.4375 10.9375 C4.1075 9.6175 3.7775 8.2975 3.4375 6.9375 C1.14455512 6.07775199 1.14455512 6.07775199 -1.5625 5.9375 C-3.7710766 7.81258162 -3.7710766 7.81258162 -5.5625 9.9375 C-6.2225 9.9375 -6.8825 9.9375 -7.5625 9.9375 C-7.88241247 6.41846286 -7.93419764 4.51734832 -6 1.5 C-3.5625 -0.0625 -3.5625 -0.0625 0 0 Z " fill="#B72F84" transform="translate(748.5625,418.0625)"/>
<path d="M0 0 C0.66 0.33 1.32 0.66 2 1 C1.69381595 4.67420866 1.24228216 5.78135513 -1.5625 8.3125 C-2.366875 8.869375 -3.17125 9.42625 -4 10 C-5.32 9.34 -6.64 8.68 -8 8 C-8 5.36 -8 2.72 -8 0 C-4.67803635 -1.10732122 -3.31749961 -0.85064093 0 0 Z " fill="#D49C78" transform="translate(722,415)"/>
<path d="M0 0 C2.375 1.625 2.375 1.625 4 4 C4.25 7.25 4.25 7.25 4 10 C3.01 10.495 3.01 10.495 2 11 C1.67 9.68 1.34 8.36 1 7 C-3.89895217 5.81503452 -3.89895217 5.81503452 -8.4375 7.4375 C-8.953125 7.953125 -9.46875 8.46875 -10 9 C-9.6875 5.625 -9.6875 5.625 -9 2 C-5.50875983 -0.32749345 -4.10777749 -0.50299316 0 0 Z " fill="#B32E81" transform="translate(692,408)"/>
<path d="M0 0 C1.9375 1.1875 1.9375 1.1875 3 3 C3.1875 6.1875 3.1875 6.1875 3 9 C2.01 9.495 2.01 9.495 1 10 C0.34 8.35 -0.32 6.7 -1 5 C-3.832168 4.66551741 -3.832168 4.66551741 -7 5 C-9.37719693 6.87501931 -9.37719693 6.87501931 -11 9 C-11.48176187 2.6166552 -11.48176187 2.6166552 -9.4375 0 C-5.94085111 -1.43452262 -3.61795196 -0.92093323 0 0 Z " fill="#A82E79" transform="translate(712,406)"/>
<path d="M0 0 C4.32624283 1.50478011 4.32624283 1.50478011 5.875 4 C6.0625 7.1875 6.0625 7.1875 5.875 10 C5.545 9.01 5.215 8.02 4.875 7 C0.88640698 6.11389194 0.88640698 6.11389194 -3.125 6 C-5.68534753 8.28075185 -5.68534753 8.28075185 -7.125 11 C-7.9375 8.3125 -7.9375 8.3125 -8.125 5 C-5.62814053 1.44386681 -4.4341266 0 0 0 Z " fill="#AF2D7E" transform="translate(727.125,402)"/>
<path d="M0 0 C3.4375 1 3.4375 1 5.375 2.75 C6.60467908 5.35402628 6.67473981 7.15312226 6.4375 10 C5.4475 10.495 5.4475 10.495 4.4375 11 C4.1075 9.35 3.7775 7.7 3.4375 6 C0.10549815 5.58228196 0.10549815 5.58228196 -3.5625 6 C-6.03458796 8.35832772 -6.03458796 8.35832772 -7.5625 11 C-8.04195205 4.76712329 -8.04195205 4.76712329 -6 1.5 C-3.5625 0 -3.5625 0 0 0 Z " fill="#B23480" transform="translate(735.5625,458)"/>
<path d="M0 0 C2.375 1.6875 2.375 1.6875 4 4 C4.25 6.75 4.25 6.75 4 9 C3.01 9.495 3.01 9.495 2 10 C2 9.01 2 8.02 2 7 C0.56465159 6.7773254 -0.87345525 6.57238094 -2.3125 6.375 C-3.11300781 6.25898438 -3.91351562 6.14296875 -4.73828125 6.0234375 C-7.28723215 5.78466593 -7.28723215 5.78466593 -10 8 C-10.25 5.6875 -10.25 5.6875 -10 3 C-7.04273316 -0.29848994 -4.28732343 -0.62523467 0 0 Z " fill="#B62C83" transform="translate(754,437)"/>
<path d="M0 0 C2.5 1.625 2.5 1.625 4 4 C3.75 7.25 3.75 7.25 3 10 C2.690625 9.360625 2.38125 8.72125 2.0625 8.0625 C1.1654837 6.06389179 1.1654837 6.06389179 0 5 C-2.87306228 4.49904977 -2.87306228 4.49904977 -6 5 C-8.40406384 7.37842577 -8.40406384 7.37842577 -10 10 C-10.33 9.67 -10.66 9.34 -11 9 C-10.75 5.5625 -10.75 5.5625 -10 2 C-6.2794164 -0.48038907 -4.40203429 -0.46337203 0 0 Z " fill="#B63582" transform="translate(770,416)"/>
<path d="M0 0 C6.48478666 0.25631568 10.95540525 0.75192021 16 5 C16 5.33 16 5.66 16 6 C10.72 6 5.44 6 0 6 C0 4.02 0 2.04 0 0 Z " fill="#8774CA" transform="translate(711,145)"/>
<path d="M0 0 C1.9375 1.25 1.9375 1.25 3 3 C3 4.32 3 5.64 3 7 C2.40832031 6.89300781 1.81664062 6.78601563 1.20703125 6.67578125 C-4.05763491 5.84900009 -4.05763491 5.84900009 -9.0625 7.4375 C-9.701875 7.953125 -10.34125 8.46875 -11 9 C-10.67470941 6.07238473 -10.40430823 3.67384706 -8.875 1.125 C-5.87553214 -0.67468071 -3.40613332 -0.36494286 0 0 Z " fill="#AE2D7D" transform="translate(714,424)"/>
<path d="M0 0 C2.375 1.6875 2.375 1.6875 4 4 C4.25 6.75 4.25 6.75 4 9 C3.67 8.34 3.34 7.68 3 7 C0.64400765 6.53248212 0.64400765 6.53248212 -2.0625 6.375 C-2.98160156 6.30023438 -3.90070312 6.22546875 -4.84765625 6.1484375 C-5.55792969 6.09945313 -6.26820313 6.05046875 -7 6 C-7.33 6.99 -7.66 7.98 -8 9 C-8.66 9 -9.32 9 -10 9 C-10.35882213 5.77060081 -10.27258004 4.38790237 -8.375 1.6875 C-5.2935202 -0.50197249 -3.70758991 -0.61793165 0 0 Z " fill="#AD2C7D" transform="translate(732,421)"/>
<path d="M0 0 C4.23059921 1.37954322 4.23059921 1.37954322 5.875 3.9375 C6.0625 6.625 6.0625 6.625 5.875 8.9375 C5.545 8.2775 5.215 7.6175 4.875 6.9375 C1.89644493 6.07957947 -1.03192285 5.78068315 -4.125 5.9375 C-6.7155727 7.68844652 -6.7155727 7.68844652 -8.125 9.9375 C-8.4375 7.1875 -8.4375 7.1875 -8.125 3.9375 C-5.43583153 0.85286557 -4.12776368 -0.08255527 0 0 Z " fill="#AB2F7B" transform="translate(706.125,386.0625)"/>
<path d="M0 0 C2.375 1.0625 2.375 1.0625 4 3 C4.25 6.6875 4.25 6.6875 4 10 C3.67 8.68 3.34 7.36 3 6 C1.58376784 5.94552953 0.16691809 5.90699492 -1.25 5.875 C-2.43335938 5.84019531 -2.43335938 5.84019531 -3.640625 5.8046875 C-6.20731941 6.0171622 -7.7916067 6.71345895 -10 8 C-9.64505955 5.37344067 -9.27538036 3.42031739 -7.8125 1.1875 C-5.09937351 -0.59006563 -3.17290804 -0.38851935 0 0 Z " fill="#B22E80" transform="translate(745,381)"/>
<path d="M0 0 C1.1446875 0.3403125 1.1446875 0.3403125 2.3125 0.6875 C1.9825 3.3275 1.6525 5.9675 1.3125 8.6875 C-1.69781744 9.62173645 -2.55400268 9.73199911 -5.6875 8.6875 C-6.04825949 3.27610759 -6.04825949 3.27610759 -4.5 0.75 C-2.6875 -0.3125 -2.6875 -0.3125 0 0 Z " fill="#D49B77" transform="translate(741.6875,430.3125)"/>
<path d="M0 0 C2 1.6875 2 1.6875 3 4 C3.1875 6.75 3.1875 6.75 3 9 C2.46375 8.34 1.9275 7.68 1.375 7 C-0.87728283 4.75856431 -0.87728283 4.75856431 -4 4.5 C-7.5944274 5.09907123 -8.73943528 6.2177665 -11 9 C-11.35555556 3.66666667 -11.35555556 3.66666667 -10 1.125 C-6.78224619 -0.68498652 -3.59176448 -0.67345584 0 0 Z " fill="#AB2D7C" transform="translate(749,400)"/>
<path d="M0 0 C0.7092768 1.31116309 1.38047881 2.6441181 2 4 C1.25234375 3.94199219 0.5046875 3.88398438 -0.265625 3.82421875 C-6.43962764 3.33133049 -6.43962764 3.33133049 -11.5625 6.25 C-12.036875 7.1575 -12.51125 8.065 -13 9 C-13.4125 9.763125 -13.825 10.52625 -14.25 11.3125 C-14.62125 12.1478125 -14.62125 12.1478125 -15 13 C-16.28432364 9.14702908 -15.58019149 7.68711349 -14 4 C-11.79262152 1.08310701 -10.5493908 0.14879334 -7 -0.8125 C-2.37288136 -1.10169492 -2.37288136 -1.10169492 0 0 Z " fill="#D39A72" transform="translate(694,403)"/>
<path d="M0 0 C2.5 1.75 2.5 1.75 4 4 C3.75 6.25 3.75 6.25 3 8 C2.62875 7.505 2.2575 7.01 1.875 6.5 C0.00931202 4.74973954 0.00931202 4.74973954 -2.9375 4.5625 C-6.61051925 5.08721704 -7.70232915 6.17209742 -10 9 C-10.35789474 3.63157895 -10.35789474 3.63157895 -8.9375 1.125 C-5.84902396 -0.66830867 -3.48856031 -0.42841969 0 0 Z " fill="#AB2D7B" transform="translate(735,440)"/>
<path d="M0 0 C2.0625 1.75 2.0625 1.75 3 4 C2.6875 6.25 2.6875 6.25 2 8 C1.34 7.01 0.68 6.02 0 5 C-3.41538144 4.41630557 -3.41538144 4.41630557 -7 5 C-9.44098818 6.85420839 -9.44098818 6.85420839 -11 9 C-11.35555556 3.66666667 -11.35555556 3.66666667 -10 1.125 C-6.78493778 -0.6834725 -3.58868706 -0.67894079 0 0 Z " fill="#AA2C7B" transform="translate(696,427)"/>
<path d="M0 0 C0.99 0.33 1.98 0.66 3 1 C3.33 2.65 3.66 4.3 4 6 C-3.5027027 12.87567568 -3.5027027 12.87567568 -8 14 C-8.99 13.67 -9.98 13.34 -11 13 C-11 12.34 -11 11.68 -11 11 C-9.3603125 10.62875 -9.3603125 10.62875 -7.6875 10.25 C-3.87478436 8.95755402 -2.79352034 8.48740066 -1 5 C-0.28566879 2.35065178 -0.28566879 2.35065178 0 0 Z " fill="#D49A77" transform="translate(743,462)"/>
<path d="M0 0 C-0.36196915 2.67857172 -0.73987276 4.60980914 -2.25 6.875 C-4 8 -4 8 -6.6875 7.6875 C-7.450625 7.460625 -8.21375 7.23375 -9 7 C-9.22417836 4.2351335 -9.32233508 2.53722513 -7.875 0.125 C-5.07848948 -1.55290631 -3.06309468 -0.74875648 0 0 Z " fill="#D49B76" transform="translate(761,410)"/>
<path d="M0 0 C1.90608098 3.21182149 2.22266247 5.53882603 2.125 9.25 C2.10695313 10.14203125 2.08890625 11.0340625 2.0703125 11.953125 C2.03550781 12.96632813 2.03550781 12.96632813 2 14 C2.99 14.33 3.98 14.66 5 15 C4.01 15.33 3.02 15.66 2 16 C0 15 0 15 -1 12 C-1.66 11.67 -2.32 11.34 -3 11 C-3.33 11.66 -3.66 12.32 -4 13 C-3.85892253 11.54119891 -3.71197585 10.08296449 -3.5625 8.625 C-3.48128906 7.81289063 -3.40007813 7.00078125 -3.31640625 6.1640625 C-3 4 -3 4 -2 2 C-1.34 2 -0.68 2 0 2 C0 1.34 0 0.68 0 0 Z " fill="#D39970" transform="translate(727,457)"/>
<path d="M0 0 C-0.58910156 0.25523437 -1.17820312 0.51046875 -1.78515625 0.7734375 C-4.20636996 2.11428601 -5.60380326 3.56685539 -7.4375 5.625 C-10.62626266 8.94433699 -10.62626266 8.94433699 -13.9375 9.4375 C-14.9584375 9.2209375 -14.9584375 9.2209375 -16 9 C-16.33 7.68 -16.66 6.36 -17 5 C-15.88625 4.731875 -14.7725 4.46375 -13.625 4.1875 C-9.78159049 3.34190981 -9.78159049 3.34190981 -8 0 C-4.71023192 -1.09658936 -3.28696233 -0.79953138 0 0 Z " fill="#D4997B" transform="translate(706,436)"/>
<path d="M0 0 C0.66 0 1.32 0 2 0 C1.84402344 0.56847656 1.68804688 1.13695312 1.52734375 1.72265625 C0.09857736 7.39041165 -0.73498403 12.53003194 2 18 C1.01 18 0.02 18 -1 18 C-3.91360308 13.22169095 -4.19876651 10.44893869 -3 5 C-2.01 4.67 -1.02 4.34 0 4 C0 2.68 0 1.36 0 0 Z " fill="#D49C7E" transform="translate(707,438)"/>
<path d="M0 0 C3.5625 0.3125 3.5625 0.3125 5.5 1.8125 C5.850625 2.3075 6.20125 2.8025 6.5625 3.3125 C6.2325 3.9725 5.9025 4.6325 5.5625 5.3125 C4.64017578 5.27769531 4.64017578 5.27769531 3.69921875 5.2421875 C2.89097656 5.22414063 2.08273437 5.20609375 1.25 5.1875 C0.04923828 5.15269531 0.04923828 5.15269531 -1.17578125 5.1171875 C-3.72138576 5.15432678 -3.72138576 5.15432678 -6.4375 7.3125 C-5.67266544 2.46854777 -5.30770607 0.48251873 0 0 Z " fill="#A72C78" transform="translate(763.4375,396.6875)"/>
<path d="M0 0 C0 1.32 0 2.64 0 4 C0.99 4.33 1.98 4.66 3 5 C0 6 0 6 -2.4375 5.9375 C-5.19322942 6.00471291 -6.65584273 6.61086976 -9 8 C-8.67 5.69 -8.34 3.38 -8 1 C-2.25 0 -2.25 0 0 0 Z " fill="#D7A48F" transform="translate(737,453)"/>
<path d="M0 0 C1.51400391 0.01740234 1.51400391 0.01740234 3.05859375 0.03515625 C4.07050781 0.04417969 5.08242188 0.05320312 6.125 0.0625 C7.29869141 0.07990234 7.29869141 0.07990234 8.49609375 0.09765625 C8.16609375 2.40765625 7.83609375 4.71765625 7.49609375 7.09765625 C5.49609375 4.09765625 5.49609375 4.09765625 5.49609375 2.09765625 C2.06378927 2.36159126 2.06378927 2.36159126 -1.50390625 3.09765625 C-2.49390625 4.58265625 -2.49390625 4.58265625 -3.50390625 6.09765625 C-4.49390625 5.76765625 -5.48390625 5.43765625 -6.50390625 5.09765625 C-6.17390625 3.77765625 -5.84390625 2.45765625 -5.50390625 1.09765625 C-4.84390625 1.09765625 -4.18390625 1.09765625 -3.50390625 1.09765625 C-2.50390625 0.09765625 -2.50390625 0.09765625 0 0 Z " fill="#B93284" transform="translate(762.50390625,400.90234375)"/>
<path d="M0 0 C0.33 0 0.66 0 1 0 C1.36103152 6.3782235 1.36103152 6.3782235 -0.125 8.9375 C-2.785027 10.44484863 -5.00206205 10.19986253 -8 10 C-6.28032649 6.97009905 -4.70761694 4.23672704 -2 2 C-1.34 2 -0.68 2 0 2 C0 1.34 0 0.68 0 0 Z " fill="#792C6D" transform="translate(660,141)"/>
<path d="M0 0 C2 1.5 2 1.5 3 3 C2.67 3.66 2.34 4.32 2 5 C1.46375 4.484375 0.9275 3.96875 0.375 3.4375 C-1.98451253 1.7021144 -1.98451253 1.7021144 -5.125 2.1875 C-8.10154442 2.77610918 -8.10154442 2.77610918 -10 5 C-10.40047444 7.32275177 -10.7397104 9.65739357 -11 12 C-13 9 -13 9 -12.875 5.4375 C-12 2 -12 2 -10.4375 0.5625 C-6.77569116 -0.28253281 -3.77266246 -0.29941766 0 0 Z " fill="#D39C87" transform="translate(709,385)"/>
<path d="M0 0 C0.8971875 0.5259375 0.8971875 0.5259375 1.8125 1.0625 C1.19761719 1.17464844 0.58273437 1.28679687 -0.05078125 1.40234375 C-2.69152371 2.04673545 -4.82317112 2.70784894 -7.1875 4.0625 C-8.48163218 6.37163781 -9.08093897 8.42623579 -9.65234375 11.00390625 C-10.1875 13.0625 -10.1875 13.0625 -12.1875 15.0625 C-12.5175 13.0825 -12.8475 11.1025 -13.1875 9.0625 C-12.5275 9.0625 -11.8675 9.0625 -11.1875 9.0625 C-11.0946875 7.94875 -11.0946875 7.94875 -11 6.8125 C-9.93109613 3.19467152 -8.27984428 2.12406286 -5.1875 0.0625 C-2.1875 -0.9375 -2.1875 -0.9375 0 0 Z " fill="#D3986E" transform="translate(706.1875,381.9375)"/>
<path d="M0 0 C1.1484375 2.0546875 1.1484375 2.0546875 2 4 C1.31292969 3.97679687 0.62585938 3.95359375 -0.08203125 3.9296875 C-0.98308594 3.91164063 -1.88414062 3.89359375 -2.8125 3.875 C-3.70582031 3.85179687 -4.59914063 3.82859375 -5.51953125 3.8046875 C-8.25402714 3.81714173 -8.25402714 3.81714173 -11 6 C-9.55369928 1.42004773 -9.55369928 1.42004773 -7.1875 -0.375 C-4.35689926 -1.18374307 -2.75916595 -1.01653482 0 0 Z " fill="#A82F79" transform="translate(717,443)"/>
<path d="M0 0 C0.99 0.33 1.98 0.66 3 1 C3.8125 3.1875 3.8125 3.1875 4 6 C1.5625 8.8125 1.5625 8.8125 -1 11 C-0.67 7.37 -0.34 3.74 0 0 Z M-3 13 C-3.33 13.99 -3.66 14.98 -4 16 C-5.65 16 -7.3 16 -9 16 C-9 15.34 -9 14.68 -9 14 C-6.92446352 13.4465236 -5.15634036 13 -3 13 Z " fill="#D2986D" transform="translate(759,439)"/>
<path d="M0 0 C3.5 0.1875 3.5 0.1875 7 1 C7.66 1.99 8.32 2.98 9 4 C8.22914063 4.06058594 7.45828125 4.12117188 6.6640625 4.18359375 C5.66117188 4.26738281 4.65828125 4.35117187 3.625 4.4375 C2.12839844 4.55931641 2.12839844 4.55931641 0.6015625 4.68359375 C-1.97927613 4.84965626 -1.97927613 4.84965626 -4 6 C-2.84826645 3.53199953 -1.95216435 1.95216435 0 0 Z " fill="#A82E79" transform="translate(745,418)"/>
<path d="M0 0 C0 1.98 0 3.96 0 6 C-0.99 6.495 -0.99 6.495 -2 7 C-2.66 5.35 -3.32 3.7 -4 2 C-6.832168 1.66551741 -6.832168 1.66551741 -10 2 C-12.37719693 3.87501931 -12.37719693 3.87501931 -14 6 C-13.69977741 3.09784832 -13.16229344 2.14262151 -10.9375 0.1875 C-6.86145046 -1.46026471 -4.29133698 -0.80007978 0 0 Z " fill="#B53183" transform="translate(715,409)"/>
<path d="M0 0 C0 0.66 0 1.32 0 2 C-1.609375 3.54296875 -1.609375 3.54296875 -3.75 5.1875 C-4.44609375 5.73792969 -5.1421875 6.28835938 -5.859375 6.85546875 C-8 8 -8 8 -10.1875 7.8046875 C-12.61656363 6.72626701 -13.06303357 5.42049662 -14 3 C-12.948125 3.061875 -11.89625 3.12375 -10.8125 3.1875 C-6.49585262 2.97520587 -3.91779798 0 0 0 Z " fill="#D39972" transform="translate(723,453)"/>
<path d="M0 0 C0.33 0 0.66 0 1 0 C1 2.64 1 5.28 1 8 C1.66 8 2.32 8 3 8 C3.33 9.98 3.66 11.96 4 14 C3.34 13.67 2.68 13.34 2 13 C2 12.34 2 11.68 2 11 C-0.64 10.67 -3.28 10.34 -6 10 C-6 9.67 -6 9.34 -6 9 C-4.35 9 -2.7 9 -1 9 C-1.20625 8.071875 -1.4125 7.14375 -1.625 6.1875 C-2 3 -2 3 0 0 Z " fill="#D19285" transform="translate(770,406)"/>
<path d="M0 0 C0.125 2.875 0.125 2.875 0 6 C-0.66 6.66 -1.32 7.32 -2 8 C-2.40047444 10.32275177 -2.7397104 12.65739357 -3 15 C-3.66 14.67 -4.32 14.34 -5 14 C-5.19188324 9.20291909 -4.9022844 5.43866361 -3 1 C-1 0 -1 0 0 0 Z " fill="#D39A71" transform="translate(754,384)"/>
<path d="M0 0 C1.9375 1.5 1.9375 1.5 3 3 C1 4 1 4 -1.8125 3.375 C-5.64239256 2.9244244 -6.95694057 3.7624563 -10 6 C-9.625 3.5625 -9.625 3.5625 -9 1 C-5.95016004 -0.52491998 -3.3576631 -0.23562548 0 0 Z " fill="#A72E78" transform="translate(770,416)"/>
<path d="M0 0 C0.66 0.99 1.32 1.98 2 3 C1.38511719 3.04898437 0.77023437 3.09796875 0.13671875 3.1484375 C-0.67152344 3.22320312 -1.47976563 3.29796875 -2.3125 3.375 C-3.51326172 3.47941406 -3.51326172 3.47941406 -4.73828125 3.5859375 C-7.27224441 3.89564426 -7.27224441 3.89564426 -10 6 C-9.6875 4.125 -9.6875 4.125 -9 2 C-5.54970958 -0.30019361 -4.05445642 -0.43132515 0 0 Z " fill="#A62B78" transform="translate(754,437)"/>
<path d="M0 0 C4.08165827 -0.51020728 5.52957297 -0.31361802 9 2 C9 2.66 9 3.32 9 4 C5.04 4 1.08 4 -3 4 C-2.01 2.68 -1.02 1.36 0 0 Z " fill="#A22A75" transform="translate(739,381)"/>
<path d="M0 0 C0 0.66 0 1.32 0 2 C-0.69867187 2.13277344 -1.39734375 2.26554687 -2.1171875 2.40234375 C-3.02726563 2.57894531 -3.93734375 2.75554687 -4.875 2.9375 C-5.77992188 3.11152344 -6.68484375 3.28554688 -7.6171875 3.46484375 C-9.99956317 3.89963701 -9.99956317 3.89963701 -12 5 C-11.375 3.125 -11.375 3.125 -10 1 C-6.34962875 -0.66647383 -3.81601142 -1.4676967 0 0 Z " fill="#D3986D" transform="translate(768,392)"/>
<path d="M0 0 C2 2 2 2 2.1953125 4.1640625 C2.16050781 5.38222656 2.16050781 5.38222656 2.125 6.625 C2.10695313 7.44226563 2.08890625 8.25953125 2.0703125 9.1015625 C2.04710937 9.72804688 2.02390625 10.35453125 2 11 C2.99 11.33 3.98 11.66 5 12 C4.01 12.33 3.02 12.66 2 13 C1.34 12.67 0.68 12.34 0 12 C-0.44921875 9.53125 -0.44921875 9.53125 -0.6875 6.5 C-0.77386719 5.4996875 -0.86023438 4.499375 -0.94921875 3.46875 C-0.96597656 2.6540625 -0.98273437 1.839375 -1 1 C-0.67 0.67 -0.34 0.34 0 0 Z " fill="#D1917F" transform="translate(727,460)"/>
<path d="M0 0 C0.66 0 1.32 0 2 0 C2.33 1.65 2.66 3.3 3 5 C0.03 7.475 0.03 7.475 -3 10 C-2.01 6.7 -1.02 3.4 0 0 Z " fill="#D2976B" transform="translate(744,463)"/>
<path d="M0 0 C5.625 -0.25 5.625 -0.25 9 2 C9 2.66 9 3.32 9 4 C5.7 3.67 2.4 3.34 -1 3 C-0.67 2.01 -0.34 1.02 0 0 Z " fill="#A32C76" transform="translate(686,408)"/>
<path d="M0 0 C3.125 -0.1875 3.125 -0.1875 6 0 C6.33 0.99 6.66 1.98 7 3 C4.03 3 1.06 3 -2 3 C-1.34 2.01 -0.68 1.02 0 0 Z " fill="#A62B78" transform="translate(733,459)"/>
<path d="M0 0 C0.94875 0.04125 1.8975 0.0825 2.875 0.125 C3.205 0.785 3.535 1.445 3.875 2.125 C3.153125 2.0425 2.43125 1.96 1.6875 1.875 C-1.96048794 2.19926559 -3.47068298 3.69819587 -6.125 6.125 C-5.28810868 1.94054341 -4.61542241 0.1846169 0 0 Z " fill="#C4308E" transform="translate(767.125,419.875)"/>
<path d="M0 0 C0.66 0.33 1.32 0.66 2 1 C-1.465 3.97 -1.465 3.97 -5 7 C-6.32 6.34 -7.64 5.68 -9 5 C-7.88625 4.54625 -6.7725 4.0925 -5.625 3.625 C-2.03800992 2.27534014 -2.03800992 2.27534014 0 0 Z " fill="#D2976A" transform="translate(774,427)"/>
<path d="M0 0 C2.475 0.495 2.475 0.495 5 1 C4.34 2.32 3.68 3.64 3 5 C2.01 4.67 1.02 4.34 0 4 C0 2.68 0 1.36 0 0 Z M5 0 C6.98 0 8.96 0 11 0 C11 0.33 11 0.66 11 1 C9.02 1 7.04 1 5 1 C5 0.67 5 0.34 5 0 Z " fill="#C23B8B" transform="translate(756,402)"/>
<path d="M0 0 C2.31 0 4.62 0 7 0 C6.01 1.485 6.01 1.485 5 3 C2.375 3.1875 2.375 3.1875 0 3 C0 2.01 0 1.02 0 0 Z " fill="#D29669" transform="translate(690,442)"/>
<path d="M0 0 C0.9075 0.103125 1.815 0.20625 2.75 0.3125 C2.1725 0.56 1.595 0.8075 1 1.0625 C-1.5502997 2.47933317 -3.26785701 4.18877537 -5.25 6.3125 C-5.91 5.9825 -6.57 5.6525 -7.25 5.3125 C-4.05 0.38942308 -4.05 0.38942308 0 0 Z " fill="#C3318C" transform="translate(745.25,403.6875)"/>
<path d="M0 0 C1.45742463 -0.08096803 2.91612807 -0.13917774 4.375 -0.1875 C5.18710937 -0.22230469 5.99921875 -0.25710938 6.8359375 -0.29296875 C7.55007813 -0.19628906 8.26421875 -0.09960938 9 0 C9.66 0.99 10.32 1.98 11 3 C7.31733897 2.40049704 3.65456815 1.75241109 0 1 C0 0.67 0 0.34 0 0 Z " fill="#D59D79" transform="translate(723,399)"/>
<path d="M0 0 C2.475 0.495 2.475 0.495 5 1 C5 2.65 5 4.3 5 6 C4.01 6.495 4.01 6.495 3 7 C2.87625 6.030625 2.7525 5.06125 2.625 4.0625 C2.41875 3.051875 2.2125 2.04125 2 1 C1.34 0.67 0.68 0.34 0 0 Z " fill="#B2377F" transform="translate(753,440)"/>
<path d="M0 0 C0 0.66 0 1.32 0 2 C-2.64 2.99 -5.28 3.98 -8 5 C-5.96115496 0.48541456 -5.19128917 0 0 0 Z " fill="#A63577" transform="translate(728,402)"/>
</svg>
