<svg xmlns="http://www.w3.org/2000/svg" width="1280" height="720" xmlns:v="https://vecta.io/nano"><style><![CDATA[.C{clip-path:none}.D{fill:#ff7b54}]]></style><defs><clipPath ><path d="M0 0h708.12v398.41H0z" stroke-width="0" fill="none"/></clipPath><linearGradient id="B" x1="-29.87" y1="197.08" x2="731.97" y2="197.08" gradientUnits="userSpaceOnUse"><stop offset="0" stop-color="#1e5c93"/><stop offset="1" stop-color="#35c2ff"/></linearGradient><clipPath ><path d="M-29.87-23.84h761.85V418H-29.87z" stroke-width="0" fill="url(#B)"/></clipPath><linearGradient id="D" gradientTransform="matrix(0,-292.41273,-292.1684,0,685908.12,146128.38)" x1="499.89" y1="2345.51" x2="497.16" y2="2345.51" gradientUnits="userSpaceOnUse" spreadMethod="pad"><stop offset="0" stop-color="#1e5c93"/><stop offset="1" stop-color="#35c2ff"/></linearGradient></defs><path d="M0 0h1280v720H0z" fill="url(#D)" class="C"/><path d="M471.355 369.729L.001 384.921V720H1280V497.832l-429.483-83.021z" fill="#13752d" class="C"/><path d="M1037.77 442.311l.022.004-.019-.019zm-403.505-53.367c-43.85 27.017-153.028 113.781-208.307 330.472h680.911c-24.124-46.594-82.171-170.41-72.842-269.004L846.773 414.21z" class="C" fill="#bc9353"/><path d="M928.366 376.668h42.303c5.789 0 10.44 4.664 10.44 10.46v85.87c0 5.794-4.651 10.46-10.44 10.46h-42.303c-5.791 0-10.442-4.667-10.442-10.46v-85.87c0-5.796 4.651-10.46 10.442-10.46zm-239.531 0h42.303c5.789 0 10.442 4.664 10.442 10.46v85.87c0 5.794-4.653 10.46-10.442 10.46h-42.303c-5.789 0-10.452-4.667-10.452-10.46v-85.87c0-5.796 4.663-10.46 10.452-10.46z" class="C" fill="#1e5c93"/><path d="M1003.347 425.628h-347.21l16.551-142.637 9.398-19.341 17.359-170.291h260.593l17.03 170.291 9.728 19.341z" class="C D"/><path d="M950.544 261.863H708.937l7.218-148.045h227.171z" fill="#34c3ff" class="C"/><path d="M775.995 343.633h107.491m-107.491 17.325h107.491m-107.491 17.319h107.491" class="C" fill="none" stroke="#7c2869" stroke-width="9.026" stroke-linecap="round" stroke-linejoin="round"/><path d="M977.302 360.958c0 20.545-16.645 37.204-37.171 37.204s-37.171-16.659-37.171-37.204c0-20.553 16.645-37.202 37.171-37.202s37.171 16.649 37.171 37.202zm-220.779 0c0 20.545-16.645 37.204-37.173 37.204-20.535 0-37.171-16.659-37.171-37.204 0-20.553 16.635-37.202 37.171-37.202 20.528 0 37.173 16.649 37.173 37.202z" class="C" fill="#ffc93c"/><path d="M410.434 494.82v224.596h15.525V494.82z" class="C"/><path d="M376.804 240.314h82.772v254.507h-82.772z" class="C"/><path d="M472.565 494.821c0 30.055-24.342 54.417-54.369 54.417s-54.371-24.362-54.371-54.417 24.342-54.414 54.371-54.414 54.369 24.362 54.369 54.414z" fill="#1ead28" class="C"/><path d="M472.565 371.626c0 30.055-24.342 54.417-54.369 54.417s-54.371-24.362-54.371-54.417c0-30.043 24.342-54.407 54.371-54.407s54.369 24.364 54.369 54.407z" fill="#ffc93c" class="C"/><path d="M472.565 248.441c0 30.052-24.342 54.417-54.369 54.417s-54.371-24.364-54.371-54.417 24.342-54.417 54.371-54.417 54.369 24.362 54.369 54.417z" class="C D"/><path d="M945.114 261.863c-2.887-5.042-6.946-9.697-11.186-13.743-11.063-10.59-28.316-17.326-47.697-17.326-16.419 0-36.485 7.91-48.017 15.736-6.908 4.693-10.885 9.464-13.515 15.332z" fill="#1ead28" class="C"/><path d="M878.234 135.659c-6.674 18.653-24.626 32.47-46.316 34.493-.161 1.572-.255 3.162-.255 4.77 0 28.078 24.455 50.86 54.588 50.86s54.585-22.782 54.585-50.86c0-1.845-.113-3.651-.31-5.437-3.392.612-6.908.958-10.497.958-24.108 0-44.576-14.578-51.794-34.765z" class="C D"/><path d="M886.39 123.919c-28.504 0-51.917 20.3-54.491 46.232 21.758-2.023 39.774-15.879 46.465-34.586 7.257 20.261 27.753 34.878 51.936 34.878a57.85 57.85 0 0 0 10.536-.958c-2.923-25.614-26.165-45.545-54.446-45.545z" class="C"/><path d="M870.819 204.343h30.845v32.848c0 8.522-6.917 15.426-15.413 15.426-8.515 0-15.415-6.923-15.415-15.426v-32.848z" class="C D"/><path d="M871.204 179.087c0 2.926-2.37 5.295-5.291 5.295s-5.284-2.369-5.284-5.295c0-2.916 2.36-5.286 5.284-5.286a5.29 5.29 0 0 1 5.291 5.286zm35.13 0c0 2.926-2.368 5.295-5.291 5.295a5.29 5.29 0 1 1 5.291-5.295z" class="C"/><path d="M875.424 195.888a9.81 9.81 0 0 0 9.802 9.81 9.8 9.8 0 0 0 9.792-9.81m-11.852-4.007a4.11 4.11 0 0 0 4.107-4.12c0-2.278-1.831-4.12-4.107-4.12" class="C" fill="none" stroke="#000" stroke-width="1.805" stroke-miterlimit="10"/></svg>