<svg xmlns="http://www.w3.org/2000/svg" xmlns:xlink="http://www.w3.org/1999/xlink" width="1280" height="720" xmlns:v="https://vecta.io/nano"><defs><clipPath ><path d="M0 0h708.12v398.41H0z" stroke-width="0" fill="none"/></clipPath><linearGradient id="B" x1="-29.87" y1="197.08" x2="731.97" y2="197.08" gradientUnits="userSpaceOnUse"><stop offset="0" stop-color="#1e5c93"/><stop offset="1" stop-color="#35c2ff"/></linearGradient><clipPath ><path d="M-29.87-23.84h761.85V418H-29.87z" stroke-width="0" fill="url(#B)"/></clipPath><path id="D" d="M2829.084 711.663h-21.781c-.321 0-.596-.229-.653-.545-.651-3.579 2.202-8.596 8.971-15.763-6.768-7.166-9.621-12.183-8.971-15.762.057-.315.332-.545.653-.545h21.781c.321 0 .596.229.653.545.651 3.579-2.202 8.597-8.971 15.763 6.768 7.166 9.621 12.184 8.971 15.763-.057.315-.332.545-.653.545zm-21.192-1.327h20.603c.17-3.169-2.824-7.931-9.123-14.523-.245-.256-.245-.66 0-.916 6.298-6.593 9.292-11.354 9.122-14.523h-20.602c-.17 3.169 2.824 7.931 9.123 14.523.245.256.245.66 0 .916-6.298 6.593-9.292 11.354-9.123 14.523z"/><path id="E" d="M2831.027 711.663h-25.667c-.366 0-.663-.297-.663-.663s.297-.663.663-.663h25.667c.366 0 .663.297.663.663s-.297.663-.663.663zm0-31.288h-25.667c-.366 0-.663-.297-.663-.663s.297-.663.663-.663h25.667c.366 0 .663.297.663.663s-.297.663-.663.663zm-23.603 28.762c-.232 0-.459-.122-.58-.34-.086-.154-.107-.335-.059-.504s.161-.312.315-.398l4.414-2.265c3.231-1.536 5.53-2.329 6.837-2.36l.165-.002c3.971 0 10.112 3.218 10.375 3.357.156.082.272.223.324.391s.035.35-.048.505c-.171.323-.571.448-.896.277-.062-.033-6.271-3.295-9.89-3.202-2.261.053-8.444 3.235-10.635 4.457a.66.66 0 0 1-.323.084zm11.285-19.193c-2.979 0-8.546-1.545-8.781-1.612-.228-.064-.405-.244-.464-.474s.009-.473.178-.639.414-.229.642-.165c.056.015 5.627 1.562 8.424 1.562s6.581-.332 6.617-.335c.361-.032.687.236.72.601s-.236.687-.601.72c-.037.004-3.818.341-6.736.341zm-.516 8.717c-.268 0-.52-.163-.621-.428-.004-.012-.493-1.27-1.534-2.435-.244-.273-.221-.692.051-.937s.692-.221.937.051c1.214 1.355 1.765 2.789 1.788 2.85.13.343-.043.725-.386.855-.077.029-.156.043-.235.043z"/><path id="F" d="M2818.194 698.661c-.08 0-.16-.015-.235-.043-.343-.13-.515-.513-.386-.855.023-.06.574-1.494 1.788-2.85.244-.273.664-.296.937-.051s.296.664.051.937c-1.05 1.173-1.53 2.422-1.534 2.435-.098.258-.345.428-.621.428zm.172 2.743c-.366 0-.663-.297-.663-.663v-.042c0-.366.297-.663.663-.663s.663.297.663.663v.042c0 .366-.297.663-.663.663z"/></defs><path d="M0 0h1280v720H0z" fill="#ecfaff"/><g transform="matrix(3.779527 0 0 3.779527 -10268.27 -2265.8362)"><g transform="translate(-.15 -.603)"><path d="M2739.008 696.477l266.225.209v-2.124l-266.225-.209zm265.157 2.329l6.381-3.168-6.363-3.203z" fill="#434343"/><path d="M2789.032 695.355c0 12.244-9.917 22.169-22.15 22.169s-22.151-9.925-22.151-22.169 9.917-22.168 22.151-22.168 22.15 9.925 22.15 22.168z" clip-path="none" fill="#1ead28"/><path d="M2891.655 695.354c0 12.244-9.917 22.169-22.15 22.169s-22.151-9.925-22.151-22.169 9.917-22.165 22.151-22.165 22.15 9.926 22.15 22.165z" clip-path="none" fill="#ffc93c"/><path d="M2994.278 695.356c0 12.243-9.917 22.169-22.15 22.169s-22.151-9.926-22.151-22.169 9.917-22.169 22.151-22.169 22.15 9.925 22.15 22.169z" clip-path="none" fill="#ff7b54"/><path d="M3026.047 708.486c-.176-1.828-.395-2.19-2.6-4.28-1.552-1.472-2.864-3.203-3.692-4.872-.706-1.423-1.649-3.106-2.097-3.739-.789-1.117-1.002-1.8-.283-2.326.848-.62 3.213 1.109 4.613 3.327 1.709 2.707 1.852 2.158 1.544-5.931-.256-6.714-.217-7.53.381-8.026 1.151-.955 1.584.124 2.015 5.027.59 6.704 1.246 6.316 1.49-.882.206-6.077.51-7.133 1.816-6.311.579.365.701 1.197.783 5.366.108 5.527.333 7.052.945 6.44.22-.221.506-2.397.635-4.836.238-4.522.594-5.479 1.856-4.995.554.213.648 1.026.648 5.614 0 4.115.116 5.327.498 5.201.319-.106.61-1.505.81-3.909.331-3.973.669-4.794 1.637-3.99.852.707.836 15.13-.021 18.09-.327 1.128-.691 3.171-.81 4.54l-.216 2.489h-4.88-4.88z" fill="#1e5c93"/><ellipse cx="2818.193" cy="695.356" rx="7.786" ry="7.92" fill="#ecfaff"/><g stroke="#1e5c93" fill="#1e5c93" stroke-width=".831" stroke-miterlimit="10"><use xlink:href="#D"/><use xlink:href="#E"/><use xlink:href="#F"/></g><ellipse cx="2920.816" cy="695.356" rx="7.786" ry="7.92" fill="#ecfaff"/><g stroke="#1e5c93" fill="#1e5c93" stroke-width=".831" stroke-miterlimit="10"><use xlink:href="#D" x="102.623"/><use xlink:href="#E" x="102.623"/><use xlink:href="#F" x="102.622"/></g></g><rect width="4.63" height="6.372" x="2734.767" y="691.567" ry="2.315" fill="#434343"/></g></svg>