<svg xmlns="http://www.w3.org/2000/svg" width="1280" height="720" xmlns:v="https://vecta.io/nano"><defs><clipPath ><path d="M0 0h708.12v398.41H0z" stroke-width="0" fill="none"/></clipPath><linearGradient id="B" x1="-29.87" y1="197.08" x2="731.97" y2="197.08" gradientUnits="userSpaceOnUse"><stop offset="0" stop-color="#1e5c93"/><stop offset="1" stop-color="#35c2ff"/></linearGradient><clipPath ><path d="M-29.87-23.84h761.85V418H-29.87z" stroke-width="0" fill="url(#B)"/></clipPath><linearGradient id="D" gradientTransform="matrix(0,-292.41273,292.1684,0,-684628.12,146128.38)" x1="499.89" y1="2345.51" x2="497.16" y2="2345.51" gradientUnits="userSpaceOnUse" spreadMethod="pad"><stop offset="0" stop-color="#1e5c93"/><stop offset="1" stop-color="#35c2ff"/></linearGradient></defs><path d="M1280 0H0v720h1280z" clip-path="none" fill="url(#D)"/><g transform="translate(1426.948 -787.973)"><path clip-path="none" d="M-798.899 1331.4v176.573h23.905V1331.4z"/><path d="M-850.682 939.517h127.45V1331.4h-127.45z" clip-path="none"/><path d="M-703.23 1331.4c0 46.277-37.481 83.789-83.716 83.789s-83.719-37.512-83.719-83.789 37.481-83.786 83.719-83.786 83.716 37.512 83.716 83.786z" clip-path="none" fill="#1ead28"/><path d="M-703.23 1141.708c0 46.277-37.481 83.789-83.716 83.789s-83.719-37.512-83.719-83.789c0-46.259 37.481-83.774 83.719-83.774s83.716 37.516 83.716 83.774z" clip-path="none" fill="#ffc93c"/><path d="M-703.23 952.031c0 46.274-37.481 83.789-83.716 83.789s-83.719-37.516-83.719-83.789 37.481-83.789 83.719-83.789 83.716 37.512 83.716 83.789z" clip-path="none" fill="#ff7b54"/></g></svg>