<?xml version="1.0" encoding="UTF-8" standalone="no"?>
<!DOCTYPE svg PUBLIC "-//W3C//DTD SVG 1.1//EN"
 "http://www.w3.org/Graphics/SVG/1.1/DTD/svg11.dtd">
<!-- Generated by graphviz version 14.1.2 (0)
 -->
<!-- Title: PDG_Protobject Pages: 1 -->
<svg width="1254pt" height="451pt"
 viewBox="0.00 0.00 1254.00 451.00" xmlns="http://www.w3.org/2000/svg" xmlns:xlink="http://www.w3.org/1999/xlink">
<g id="graph0" class="graph" transform="scale(1 1) rotate(0) translate(21.6 429.6)">
<title>PDG_Protobject</title>
<polygon fill="#fbf6eb" stroke="none" points="-21.6,21.6 -21.6,-429.6 1232.6,-429.6 1232.6,21.6 -21.6,21.6"/>
<g id="clust1" class="cluster">
<title>cluster_loop</title>
<path fill="#fbf6eb" stroke="#8b2418" stroke-width="1.8" stroke-dasharray="5,2" d="M20,-8C20,-8 1191,-8 1191,-8 1197,-8 1203,-14 1203,-20 1203,-20 1203,-388 1203,-388 1203,-394 1197,-400 1191,-400 1191,-400 20,-400 20,-400 14,-400 8,-394 8,-388 8,-388 8,-20 8,-20 8,-14 14,-8 20,-8"/>
<text xml:space="preserve" text-anchor="start" x="41.88" y="-386.55" font-family="Arial" font-weight="bold" font-size="11.00">loop</text>
<text xml:space="preserve" text-anchor="start" x="16" y="-377.45" font-family="Arial" font-size="9.00" fill="#8b2418">alcance de control</text>
</g>
<!-- n1 -->
<g id="node1" class="node">
<title>n1</title>
<path fill="#fbf6eb" stroke="#1a1612" stroke-width="1.5" d="M681.02,-326C681.02,-326 576.98,-326 576.98,-326 570.98,-326 564.98,-320 564.98,-314 564.98,-314 564.98,-302 564.98,-302 564.98,-296 570.98,-290 576.98,-290 576.98,-290 681.02,-290 681.02,-290 687.02,-290 693.02,-296 693.02,-302 693.02,-302 693.02,-314 693.02,-314 693.02,-320 687.02,-326 681.02,-326"/>
<text xml:space="preserve" text-anchor="middle" x="629" y="-304.3" font-family="Arial" font-size="11.00" fill="#1a1612">1 &#160;&#160;ReadLightLevel #1</text>
</g>
<!-- n2 -->
<g id="node2" class="node">
<title>n2</title>
<path fill="#fbf6eb" stroke="#1a1612" stroke-width="1.5" d="M673.14,-238C673.14,-238 584.86,-238 584.86,-238 578.86,-238 572.86,-232 572.86,-226 572.86,-226 572.86,-214 572.86,-214 572.86,-208 578.86,-202 584.86,-202 584.86,-202 673.14,-202 673.14,-202 679.14,-202 685.14,-208 685.14,-214 685.14,-214 685.14,-226 685.14,-226 685.14,-232 679.14,-238 673.14,-238"/>
<text xml:space="preserve" text-anchor="middle" x="629" y="-216.3" font-family="Arial" font-size="11.00" fill="#1a1612">2 &#160;&#160;Comparison [&lt;]</text>
</g>
<!-- n1&#45;&gt;n2 -->
<g id="edge1" class="edge">
<title>n1&#45;&gt;n2</title>
<path fill="none" stroke="#4a3f33" stroke-width="1.3" d="M629,-289.6C629,-278.36 629,-263.47 629,-250.43"/>
<polygon fill="#4a3f33" stroke="#4a3f33" stroke-width="1.3" points="632.5,-250.64 629,-240.64 625.5,-250.64 632.5,-250.64"/>
<text xml:space="preserve" text-anchor="middle" x="646.25" y="-260.5" font-family="Arial" font-size="10.00" fill="#8b2418"> light_1 </text>
</g>
<!-- n3 -->
<g id="node3" class="node">
<title>n3</title>
<path fill="#b8843a" stroke="#1a1612" stroke-width="1.5" d="M680.27,-150C680.27,-150 577.73,-150 577.73,-150 571.73,-150 565.73,-144 565.73,-138 565.73,-138 565.73,-126 565.73,-126 565.73,-120 571.73,-114 577.73,-114 577.73,-114 680.27,-114 680.27,-114 686.27,-114 692.27,-120 692.27,-126 692.27,-126 692.27,-138 692.27,-138 692.27,-144 686.27,-150 680.27,-150"/>
<text xml:space="preserve" text-anchor="middle" x="629" y="-128.3" font-family="Arial" font-size="11.00" fill="#fbf6eb">3 &#160;&#160;ConditionalBranch</text>
</g>
<!-- n2&#45;&gt;n3 -->
<g id="edge2" class="edge">
<title>n2&#45;&gt;n3</title>
<path fill="none" stroke="#4a3f33" stroke-width="1.3" d="M629,-201.6C629,-190.36 629,-175.47 629,-162.43"/>
<polygon fill="#4a3f33" stroke="#4a3f33" stroke-width="1.3" points="632.5,-162.64 629,-152.64 625.5,-162.64 632.5,-162.64"/>
<text xml:space="preserve" text-anchor="middle" x="651.5" y="-172.5" font-family="Arial" font-size="10.00" fill="#8b2418"> condition </text>
</g>
<!-- n4 -->
<g id="node4" class="node">
<title>n4</title>
<path fill="#5a6b3b" stroke="#1a1612" stroke-width="1.5" d="M123.64,-62C123.64,-62 38.36,-62 38.36,-62 32.36,-62 26.36,-56 26.36,-50 26.36,-50 26.36,-38 26.36,-38 26.36,-32 32.36,-26 38.36,-26 38.36,-26 123.64,-26 123.64,-26 129.64,-26 135.64,-32 135.64,-38 135.64,-38 135.64,-50 135.64,-50 135.64,-56 129.64,-62 123.64,-62"/>
<text xml:space="preserve" text-anchor="middle" x="81" y="-40.3" font-family="Arial" font-size="11.00" fill="#fbf6eb">4 &#160;&#160;DrawImage #1</text>
</g>
<!-- n3&#45;&gt;n4 -->
<g id="edge3" class="edge">
<title>n3&#45;&gt;n4</title>
<path fill="none" stroke="#8b2418" stroke-width="2" d="M565.05,-131.37C449.34,-131.19 210.16,-126.71 134.5,-94 123.08,-89.06 112.5,-80.63 103.82,-72.15"/>
<polygon fill="#8b2418" stroke="#8b2418" stroke-width="2" points="106.39,-69.77 96.96,-64.92 101.31,-74.58 106.39,-69.77"/>
<text xml:space="preserve" text-anchor="middle" x="145.75" y="-84.5" font-family="Arial" font-size="10.00" fill="#8b2418"> true </text>
</g>
<!-- n5 -->
<g id="node5" class="node">
<title>n5</title>
<path fill="#4a3f33" stroke="#1a1612" stroke-width="1.5" d="M221.89,-62C221.89,-62 180.11,-62 180.11,-62 174.11,-62 168.11,-56 168.11,-50 168.11,-50 168.11,-38 168.11,-38 168.11,-32 174.11,-26 180.11,-26 180.11,-26 221.89,-26 221.89,-26 227.89,-26 233.89,-32 233.89,-38 233.89,-38 233.89,-50 233.89,-50 233.89,-56 227.89,-62 221.89,-62"/>
<text xml:space="preserve" text-anchor="middle" x="201" y="-40.3" font-family="Arial" font-size="11.00" fill="#fbf6eb">5 &#160;&#160;Delay</text>
</g>
<!-- n3&#45;&gt;n5 -->
<g id="edge4" class="edge">
<title>n3&#45;&gt;n5</title>
<path fill="none" stroke="#8b2418" stroke-width="2" d="M565.23,-130.56C445.09,-129.08 194.85,-122.55 168.5,-94 162.41,-87.4 164.34,-79.55 169.51,-72.08"/>
<polygon fill="#8b2418" stroke="#8b2418" stroke-width="2" points="172.14,-74.4 176.11,-64.57 166.88,-69.78 172.14,-74.4"/>
<text xml:space="preserve" text-anchor="middle" x="179.75" y="-84.5" font-family="Arial" font-size="10.00" fill="#8b2418"> true </text>
</g>
<!-- n6 -->
<g id="node6" class="node">
<title>n6</title>
<path fill="#5a6b3b" stroke="#1a1612" stroke-width="1.5" d="M431.64,-62C431.64,-62 346.36,-62 346.36,-62 340.36,-62 334.36,-56 334.36,-50 334.36,-50 334.36,-38 334.36,-38 334.36,-32 340.36,-26 346.36,-26 346.36,-26 431.64,-26 431.64,-26 437.64,-26 443.64,-32 443.64,-38 443.64,-38 443.64,-50 443.64,-50 443.64,-56 437.64,-62 431.64,-62"/>
<text xml:space="preserve" text-anchor="middle" x="389" y="-40.3" font-family="Arial" font-size="11.00" fill="#fbf6eb">6 &#160;&#160;DrawImage #1</text>
</g>
<!-- n3&#45;&gt;n6 -->
<g id="edge5" class="edge">
<title>n3&#45;&gt;n6</title>
<path fill="none" stroke="#8b2418" stroke-width="2" d="M565.41,-130.13C452.27,-127.93 225.58,-120.25 201.5,-94 197.9,-90.07 198.11,-86.12 201.5,-82 209.28,-72.54 270.45,-61.68 320.85,-54.19"/>
<polygon fill="#8b2418" stroke="#8b2418" stroke-width="2" points="321.33,-57.66 330.72,-52.75 320.32,-50.73 321.33,-57.66"/>
<text xml:space="preserve" text-anchor="middle" x="212.75" y="-84.5" font-family="Arial" font-size="10.00" fill="#8b2418"> true </text>
</g>
<!-- n7 -->
<g id="node7" class="node">
<title>n7</title>
<path fill="#4a3f33" stroke="#1a1612" stroke-width="1.5" d="M529.89,-62C529.89,-62 488.11,-62 488.11,-62 482.11,-62 476.11,-56 476.11,-50 476.11,-50 476.11,-38 476.11,-38 476.11,-32 482.11,-26 488.11,-26 488.11,-26 529.89,-26 529.89,-26 535.89,-26 541.89,-32 541.89,-38 541.89,-38 541.89,-50 541.89,-50 541.89,-56 535.89,-62 529.89,-62"/>
<text xml:space="preserve" text-anchor="middle" x="509" y="-40.3" font-family="Arial" font-size="11.00" fill="#fbf6eb">7 &#160;&#160;Delay</text>
</g>
<!-- n3&#45;&gt;n7 -->
<g id="edge6" class="edge">
<title>n3&#45;&gt;n7</title>
<path fill="none" stroke="#8b2418" stroke-width="2" d="M565.05,-129.6C459.25,-126.62 257.21,-117.85 235.5,-94 201.58,-56.74 410.73,-72.57 460,-62 461.12,-61.76 462.24,-61.5 463.38,-61.23"/>
<polygon fill="#8b2418" stroke="#8b2418" stroke-width="2" points="463.97,-64.7 472.65,-58.63 462.08,-57.96 463.97,-64.7"/>
<text xml:space="preserve" text-anchor="middle" x="246.75" y="-84.5" font-family="Arial" font-size="10.00" fill="#8b2418"> true </text>
</g>
<!-- n8 -->
<g id="node8" class="node">
<title>n8</title>
<path fill="#5a6b3b" stroke="#1a1612" stroke-width="1.5" d="M671.64,-62C671.64,-62 586.36,-62 586.36,-62 580.36,-62 574.36,-56 574.36,-50 574.36,-50 574.36,-38 574.36,-38 574.36,-32 580.36,-26 586.36,-26 586.36,-26 671.64,-26 671.64,-26 677.64,-26 683.64,-32 683.64,-38 683.64,-38 683.64,-50 683.64,-50 683.64,-56 677.64,-62 671.64,-62"/>
<text xml:space="preserve" text-anchor="middle" x="629" y="-40.3" font-family="Arial" font-size="11.00" fill="#fbf6eb">8 &#160;&#160;DrawImage #1</text>
</g>
<!-- n3&#45;&gt;n8 -->
<g id="edge7" class="edge">
<title>n3&#45;&gt;n8</title>
<path fill="none" stroke="#8b2418" stroke-width="2" d="M629,-113.6C629,-102.71 629,-88.39 629,-75.64"/>
<polygon fill="#8b2418" stroke="#8b2418" stroke-width="2" points="632.5,-75.7 629,-65.7 625.5,-75.7 632.5,-75.7"/>
<text xml:space="preserve" text-anchor="middle" x="640.25" y="-84.5" font-family="Arial" font-size="10.00" fill="#8b2418"> true </text>
</g>
<!-- n9 -->
<g id="node9" class="node">
<title>n9</title>
<path fill="#4a3f33" stroke="#1a1612" stroke-width="1.5" d="M769.89,-62C769.89,-62 728.11,-62 728.11,-62 722.11,-62 716.11,-56 716.11,-50 716.11,-50 716.11,-38 716.11,-38 716.11,-32 722.11,-26 728.11,-26 728.11,-26 769.89,-26 769.89,-26 775.89,-26 781.89,-32 781.89,-38 781.89,-38 781.89,-50 781.89,-50 781.89,-56 775.89,-62 769.89,-62"/>
<text xml:space="preserve" text-anchor="middle" x="749" y="-40.3" font-family="Arial" font-size="11.00" fill="#fbf6eb">9 &#160;&#160;Delay</text>
</g>
<!-- n3&#45;&gt;n9 -->
<g id="edge8" class="edge">
<title>n3&#45;&gt;n9</title>
<path fill="none" stroke="#8b2418" stroke-width="2" d="M692.82,-127.31C715.51,-122.54 738.91,-112.91 753,-94 757.04,-88.58 758.2,-81.82 757.87,-75.07"/>
<polygon fill="#8b2418" stroke="#8b2418" stroke-width="2" points="761.36,-74.74 756.27,-65.45 754.46,-75.88 761.36,-74.74"/>
<text xml:space="preserve" text-anchor="middle" x="768.85" y="-84.5" font-family="Arial" font-size="10.00" fill="#8b2418"> true </text>
</g>
<!-- n10 -->
<g id="node10" class="node">
<title>n10</title>
<path fill="#5a6b3b" stroke="#1a1612" stroke-width="1.5" d="M917.64,-62C917.64,-62 826.36,-62 826.36,-62 820.36,-62 814.36,-56 814.36,-50 814.36,-50 814.36,-38 814.36,-38 814.36,-32 820.36,-26 826.36,-26 826.36,-26 917.64,-26 917.64,-26 923.64,-26 929.64,-32 929.64,-38 929.64,-38 929.64,-50 929.64,-50 929.64,-56 923.64,-62 917.64,-62"/>
<text xml:space="preserve" text-anchor="middle" x="872" y="-40.3" font-family="Arial" font-size="11.00" fill="#fbf6eb">10 &#160;&#160;DrawImage #1</text>
</g>
<!-- n3&#45;&gt;n10 -->
<g id="edge9" class="edge">
<title>n3&#45;&gt;n10</title>
<path fill="none" stroke="#8b2418" stroke-width="2" d="M693.01,-120.65C722.55,-114.73 757.71,-106.04 788,-94 804.34,-87.5 821.29,-78.18 835.65,-69.41"/>
<polygon fill="#8b2418" stroke="#8b2418" stroke-width="2" points="837.38,-72.46 843.98,-64.17 833.65,-66.53 837.38,-72.46"/>
<text xml:space="preserve" text-anchor="middle" x="823.41" y="-84.5" font-family="Arial" font-size="10.00" fill="#8b2418"> true </text>
</g>
<!-- n11 -->
<g id="node11" class="node">
<title>n11</title>
<path fill="#4a3f33" stroke="#1a1612" stroke-width="1.5" d="M1020.52,-62C1020.52,-62 973.48,-62 973.48,-62 967.48,-62 961.48,-56 961.48,-50 961.48,-50 961.48,-38 961.48,-38 961.48,-32 967.48,-26 973.48,-26 973.48,-26 1020.52,-26 1020.52,-26 1026.52,-26 1032.52,-32 1032.52,-38 1032.52,-38 1032.52,-50 1032.52,-50 1032.52,-56 1026.52,-62 1020.52,-62"/>
<text xml:space="preserve" text-anchor="middle" x="997" y="-40.3" font-family="Arial" font-size="11.00" fill="#fbf6eb">11 &#160;&#160;Delay</text>
</g>
<!-- n3&#45;&gt;n11 -->
<g id="edge10" class="edge">
<title>n3&#45;&gt;n11</title>
<path fill="none" stroke="#8b2418" stroke-width="2" d="M692.75,-129.19C793.16,-125.68 978.88,-116.23 999,-94 1003.6,-88.92 1005.11,-82.2 1005.02,-75.36"/>
<polygon fill="#8b2418" stroke="#8b2418" stroke-width="2" points="1008.49,-74.92 1003.67,-65.49 1001.55,-75.87 1008.49,-74.92"/>
<text xml:space="preserve" text-anchor="middle" x="1015.66" y="-84.5" font-family="Arial" font-size="10.00" fill="#8b2418"> true </text>
</g>
<!-- n12 -->
<g id="node12" class="node">
<title>n12</title>
<path fill="#fbf6eb" stroke="#1a1612" stroke-width="1.5" d="M1173.27,-62C1173.27,-62 1076.73,-62 1076.73,-62 1070.73,-62 1064.73,-56 1064.73,-50 1064.73,-50 1064.73,-38 1064.73,-38 1064.73,-32 1070.73,-26 1076.73,-26 1076.73,-26 1173.27,-26 1173.27,-26 1179.27,-26 1185.27,-32 1185.27,-38 1185.27,-38 1185.27,-50 1185.27,-50 1185.27,-56 1179.27,-62 1173.27,-62"/>
<text xml:space="preserve" text-anchor="middle" x="1125" y="-40.3" font-family="Arial" font-size="11.00" fill="#1a1612">12 &#160;&#160;ClearDisplay #1</text>
</g>
<!-- n3&#45;&gt;n12 -->
<g id="edge11" class="edge">
<title>n3&#45;&gt;n12</title>
<path fill="none" stroke="#8b2418" stroke-width="2" d="M692.89,-128.34C790.71,-123.72 972.78,-112.89 1035,-94 1053.63,-88.34 1072.78,-78.57 1088.6,-69.23"/>
<polygon fill="#8b2418" stroke="#8b2418" stroke-width="2" points="1090.19,-72.36 1096.89,-64.15 1086.54,-66.39 1090.19,-72.36"/>
<text xml:space="preserve" text-anchor="middle" x="1077.15" y="-84.5" font-family="Arial" font-size="10.00" fill="#8b2418"> false </text>
</g>
<!-- n4&#45;&gt;n6 -->
<g id="edge12" class="edge">
<title>n4&#45;&gt;n6</title>
<path fill="none" stroke="#5a6b3b" stroke-width="1.3" stroke-dasharray="5,2" d="M136.39,-60.87C191.31,-76.58 271.56,-96.53 302.38,-89 319.33,-84.86 336.67,-76.76 351.33,-68.57"/>
<polygon fill="#5a6b3b" stroke="#5a6b3b" stroke-width="1.3" points="352.92,-71.69 359.79,-63.63 349.39,-65.65 352.92,-71.69"/>
<text xml:space="preserve" text-anchor="middle" x="284" y="-84.5" font-family="Arial" font-size="10.00" fill="#5a6b3b"> display </text>
</g>
<!-- n6&#45;&gt;n8 -->
<g id="edge13" class="edge">
<title>n6&#45;&gt;n8</title>
<path fill="none" stroke="#5a6b3b" stroke-width="1.3" stroke-dasharray="5,2" d="M421.69,-62.67C441.05,-72.64 466.46,-83.89 490.62,-89 524.88,-96.24 562.6,-82.45 590,-68.28"/>
<polygon fill="#5a6b3b" stroke="#5a6b3b" stroke-width="1.3" points="591.49,-71.46 598.6,-63.61 588.15,-65.31 591.49,-71.46"/>
<text xml:space="preserve" text-anchor="middle" x="509" y="-84.5" font-family="Arial" font-size="10.00" fill="#5a6b3b"> display </text>
</g>
<!-- n8&#45;&gt;n10 -->
<g id="edge14" class="edge">
<title>n8&#45;&gt;n10</title>
<path fill="none" stroke="#5a6b3b" stroke-width="1.3" stroke-dasharray="5,2" d="M656.51,-62.64C672.9,-72.6 694.55,-83.85 715.62,-89 755.03,-98.62 799.42,-83.3 830.81,-67.98"/>
<polygon fill="#5a6b3b" stroke="#5a6b3b" stroke-width="1.3" points="832.27,-71.16 839.59,-63.5 829.09,-64.93 832.27,-71.16"/>
<text xml:space="preserve" text-anchor="middle" x="734" y="-84.5" font-family="Arial" font-size="10.00" fill="#5a6b3b"> display </text>
</g>
<!-- n10&#45;&gt;n12 -->
<g id="edge15" class="edge">
<title>n10&#45;&gt;n12</title>
<path fill="none" stroke="#5a6b3b" stroke-width="1.3" stroke-dasharray="5,2" d="M900.55,-62.65C917.53,-72.61 939.94,-83.86 961.62,-89 1002.91,-98.78 1049.52,-83.27 1082.36,-67.85"/>
<polygon fill="#5a6b3b" stroke="#5a6b3b" stroke-width="1.3" points="1083.73,-71.07 1091.17,-63.53 1080.65,-64.79 1083.73,-71.07"/>
<text xml:space="preserve" text-anchor="middle" x="980" y="-84.5" font-family="Arial" font-size="10.00" fill="#5a6b3b"> display </text>
</g>
</g>
</svg>
