<svg xmlns="http://www.w3.org/2000/svg" width="1280" height="720" xmlns:v="https://vecta.io/nano"><style><![CDATA[.B{clip-path:none}.C{fill:none}.D{fill:#ffc93c}.E{stroke-miterlimit:10}]]></style><defs><clipPath ><path d="M0 0h708.12v398.41H0z" stroke-width="0" class="C"/></clipPath><clipPath ><path d="M-14.17-14.17h736.48v426.75H-14.17z" stroke-width="0" class="C"/></clipPath><linearGradient id="C" gradientTransform="matrix(0,-292.41271,-292.16843,0,347190.6,-112753.13)" x1="-388.15" y1="1186.15" x2="-385.51" y2="1186.15" gradientUnits="userSpaceOnUse" spreadMethod="pad"><stop offset="0" stop-color="#3291ff"/><stop offset="1" stop-color="#35c2ff"/></linearGradient></defs><path d="M0 0h1280v720H0z" fill="url(#C)" class="B"/><g stroke="#ffc93c" stroke-width="11.734" class="E"><path d="M124.944 177.045c0 12.409-10.048 22.464-22.443 22.464-12.408 0-22.453-10.056-22.453-22.464s10.045-22.472 22.453-22.472c12.396 0 22.443 10.066 22.443 22.472z" class="B D"/><path d="M124.944 62.308V175.87m82.734-113.562V175.87" class="B C"/><path d="M207.678 177.045c0 12.409-10.045 22.464-22.443 22.464s-22.453-10.056-22.453-22.464 10.057-22.472 22.453-22.472 22.443 10.066 22.443 22.472zM124.944 62.308h82.736v26.028h-82.736z" class="B D"/><path d="M784.258 373.629v199.64" class="B C"/><path d="M784.258 575.34c0 21.822-17.679 39.516-39.483 39.516-21.796 0-39.483-17.675-39.483-39.516 0-21.834 17.667-39.516 39.483-39.516s39.483 17.682 39.483 39.516z" class="B D"/><path d="M929.699 373.629v199.64" class="B C"/><path d="M929.699 575.34c0 21.822-17.677 39.516-39.483 39.516-21.794 0-39.483-17.675-39.483-39.516 0-21.834 17.67-39.516 39.483-39.516 21.822 0 39.483 17.682 39.483 39.516zM784.258 373.629h145.441v45.743H784.258z" class="B D"/><path d="M1162.914 157.593V357" class="B C"/><path d="M1162.914 359.068c0 21.795-17.65 39.47-39.427 39.47s-39.425-17.675-39.425-39.47 17.648-39.458 39.425-39.458 39.427 17.665 39.427 39.458z" class="B D"/><path d="M986.909 91.457v127.618" class="B C"/><path d="M986.909 220.409c0 13.94-11.299 25.265-25.246 25.265-13.955 0-25.234-11.306-25.234-25.265s11.296-25.246 25.234-25.246c13.928 0 25.246 11.296 25.246 25.246z" class="B D"/></g><path d="M576.881 352.786c0 83.313-67.481 150.858-150.725 150.858s-150.732-67.545-150.732-150.858 67.489-150.851 150.732-150.851 150.725 67.538 150.725 150.851" fill="#1e5c93" class="B"/><path d="M422.058 229.035h8.195v36.901h-8.195z" fill="#ff7b54" class="B"/><path d="M526.561 529.051l9.501 16.509m64.013-90.067l16.457 9.519m29.445-110.016h-18.964m-10.481-110.008l-16.457 9.502m-73.514-73.558l9.501-16.49m-109.906-29.479v19.019m-100.386 26.95l-9.528-16.49m-63.986 90.048l-16.476-9.502m-10.469 110.008h-18.986m45.931 100.497l-16.476 9.519m89.99 64.039l-9.528 16.509" class="B C E" stroke="#1e5c93" stroke-width="9.008" stroke-linecap="round"/></svg>