<svg xmlns="http://www.w3.org/2000/svg" width="1280" height="720" xmlns:v="https://vecta.io/nano"><style><![CDATA[.B{clip-path:none}.C{stroke-width:6.84}.D{stroke-linecap:round}.E{stroke-miterlimit:10}.F{stroke-width:1.828}]]></style><defs><clipPath ><path d="M0 0h708.12v398.41H0z" stroke-width="0" fill="none"/></clipPath><clipPath ><path d="M-14.17-14.17h736.48v426.75H-14.17z" stroke-width="0" fill="none"/></clipPath><linearGradient id="C" gradientTransform="matrix(0,763.16996,762.53251,0,-752924.55,-1004797.2)" x1="1317.442" y1="988.242" x2="1316.696" y2="988.242" gradientUnits="userSpaceOnUse" spreadMethod="pad"><stop offset="0" stop-color="#f6a227"/><stop offset="1" stop-color="#ffc93c"/></linearGradient></defs><path d="M0 0h1280v720H0z" fill="url(#C)" class="B"/><g transform="translate(-4712.678 -849.682)"><path d="M4862.457 1161.969c31.632-54.788 101.655-73.586 156.397-41.98s73.479 101.649 41.847 156.437-101.657 73.579-156.399 41.973-73.477-101.641-41.845-156.429" fill="#1e5c93" class="B"/><path d="M5037.827 1353.039l7.215 12.536m48.608-68.392l12.497 7.228m22.358-83.541h-14.401m-7.958-83.535l-12.497 7.215m-55.822-55.856l7.215-12.522m-83.458-22.385v14.442m-76.229 20.465l-7.235-12.522m-48.588 68.379l-12.511-7.215m-7.949 83.534h-14.417m34.877 76.313l-12.511 7.228m68.334 48.628l-7.235 12.536" class="B C D E" fill="none" stroke="#1e5c93"/><path d="M4917.286 1302.132l-5.389-3.111 14.01-24.267 5.389 3.111z" fill="#ff7b54" class="B"/></g><g transform="translate(-4701.775 -902.223)"><g fill="#7c2869" stroke="#7c2869"><path d="M5456.229 1271.733c0 63.264-51.242 114.555-114.454 114.555s-114.459-51.291-114.459-114.555 51.248-114.549 114.459-114.549 114.453 51.285 114.454 114.549" class="B F"/><path d="M5418.022 1405.581l7.215 12.536m48.608-68.393l12.497 7.228m22.358-83.54h-14.4m-7.959-83.535l-12.497 7.215m-55.822-55.857l7.215-12.522m-83.458-22.384v14.442m-76.229 20.464l-7.235-12.522m-48.588 68.379l-12.511-7.215m-7.949 83.535h-14.417m34.877 76.312l-12.511 7.228m68.334 48.629l-7.235 12.536" class="B C D E"/></g><path d="M5338.664 1177.762h6.223v28.021h-6.223z" fill="#fff" class="B"/></g><g transform="translate(-4712.678 -874.223)"><g fill="#34c3ff" stroke="#34c3ff"><path d="M5662.844 1324.669c-44.734-44.734-44.769-117.236-.072-161.933s117.203-44.667 161.937.068 44.761 117.236.064 161.933-117.195 44.667-161.93-.068" class="B F"/><path d="M5820.022 1377.581l7.215 12.536m48.608-68.393l12.497 7.228m22.358-83.54h-14.4m-7.959-83.535l-12.497 7.215m-55.822-55.857l7.215-12.522m-83.458-22.384v14.442m-76.229 20.464l-7.235-12.522m-48.588 68.379l-12.511-7.215m-7.949 83.535h-14.417m34.877 76.312l-12.511 7.228m68.334 48.629l-7.235 12.536" class="B C D E"/></g><path d="M5812.423 1307.985l-4.4 4.4-19.814-19.814 4.4-4.4z" fill="#7c2869" class="B"/></g></svg>