<svg xmlns="http://www.w3.org/2000/svg" xmlns:xlink="http://www.w3.org/1999/xlink" width="1280" height="720" xmlns:v="https://vecta.io/nano">
<style>
#D{transform-box: fill-box;transform-origin:center center;animation-name:example;animation-duration:6s;animation-iteration-count:infinite}
#E{animation-name:move;animation-duration:6s;animation-iteration-count:infinite}
@keyframes example{0%{transform:rotate(0deg)}50%{transform:rotate(300deg)}100%{transform:rotate(0deg)}} 
@keyframes move{0%{transform:translateX(-8px)}50%{transform:translateX(300px)}100%{transform:translateX(-8px)}}</style>
<defs><linearGradient xlink:href="#B" id="A" gradientTransform="matrix(0,391.70768,391.38082,0,-613731.27,173985.12)" x1="-444.171" y1="1569.753" x2="-442.334" y2="1569.751"/><linearGradient gradientUnits="userSpaceOnUse" spreadMethod="pad" id="B"><stop offset="0" stop-color="#ff7b54"/><stop offset="1" stop-color="#d64e4e"/></linearGradient><linearGradient xlink:href="#B" id="C" gradientTransform="matrix(0,391.70768,125.12736,0,-195343.67,173985.12)" x1="-444.171" y1="1569.753" x2="-442.334" y2="1569.751"/></defs><path d="M0 0h1280v720H0z" clip-path="none" fill="url(#A)"/><path d="M388.363 487.893l7.215 12.537m48.608-68.394l12.497 7.228m22.359-83.54h-14.401m-7.958-83.535l-12.497 7.215m-55.823-55.856l7.215-12.522m-83.458-22.385v14.442m-76.228 20.465l-7.235-12.522m-48.588 68.378l-12.511-7.215m-7.95 83.535h-14.417m34.878 76.312l-12.511 7.228m68.334 48.629l-7.235 12.537" clip-path="none" fill="#34c3ff" stroke="#34c3ff" stroke-width="6.84" stroke-linecap="round" stroke-miterlimit="10"/><g id="D"><path d="M212.995 296.822c31.632-54.788 101.654-73.586 156.397-41.981s73.479 101.648 41.847 156.437-101.657 73.579-156.399 41.973-73.477-101.641-41.845-156.43" clip-path="none" fill="#34c3ff" stroke="#34c3ff" stroke-width="1.828"/><path d="M267.824 436.986l-5.389-3.112 14.01-24.267 5.389 3.111z" clip-path="none" fill="#7c2869"/></g><path d="M1196.553 113.583v250.891 250.893L955.446 489.92 714.34 364.474l241.107-125.446z" fill="#ffc93c"/><path d="M845.824 179.468a11.02 11.02 0 0 0-5.804 1.967c-41.223 31.504-80.154 66.205-120.106 99.46-12.852-.036-25.903-1.175-40.278-.522-8.438.382-14.552 5.041-14.552 12.555v140.166c.073 14.431 5.975 18.042 14.067 18.029l40.665-.073 116.549 97.887c9.426 7.491 19.51.48 25.773-7.461v-343.96c1.299-9.063-7.667-18.453-16.314-18.052z" fill="#a184dc"/><path d="M870.774 0H1280v720H870.774z" clip-path="none" fill="url(#C)" id="E"/></svg>