<svg xmlns="http://www.w3.org/2000/svg" width="1280" height="720" xmlns:v="https://vecta.io/nano"><style><![CDATA[.B{clip-path:none}]]></style><defs><clipPath ><path d="M0 0h708.12v398.41H0z" fill="none" stroke-width="0"/></clipPath><linearGradient x1="638.924" y1="-20.589" x2="638.924" y2="742.563" gradientUnits="userSpaceOnUse" spreadMethod="pad" id="B"><stop offset="0" stop-color="#3291ff"/><stop offset="1" stop-color="#35c2ff"/></linearGradient></defs><path d="M0 0h1280v720H0z" fill="url(#B)" class="B"/><path d="M0 531.761v187.78h1277.813v-187.78z" fill="#ff7b54" class="B"/><g stroke="#1e5c93" stroke-miterlimit="10"><path d="M326.759 136.241h624.332v325.705H326.759z" fill="#fff" stroke-width="21.663" class="B"/><g fill="#1e5c93" stroke-width="5.416"><path d="M556.786 461.946h164.259v60.803H556.786z" class="B"/><path d="M489.275 522.749h299.296v9.011H489.275z" class="B"/></g></g><path d="M724.69 261.834v.197c0 31.776-17.246 59.495-42.894 74.341-.065 31.699-17.302 59.324-42.875 74.141 12.622 7.308 27.275 11.503 42.894 11.503 47.367 0 85.77-38.435 85.77-85.844 0-31.764-17.246-59.495-42.894-74.338z" fill="red" class="B"/><path d="M596.035 336.353c-25.631-14.843-42.897-42.564-42.897-74.338v-.197c-25.629 14.843-42.894 42.572-42.894 74.338 0 47.407 38.402 85.841 85.772 85.841a85.57 85.57 0 0 0 42.894-11.503c-25.574-14.817-42.81-42.461-42.875-74.141z" fill="#0f0" class="B"/><path d="M681.795 336.353c-12.612 7.318-27.246 11.503-42.875 11.503-15.62 0-30.253-4.204-42.868-11.503.067 31.699 17.304 59.324 42.868 74.141 25.574-14.817 42.81-42.461 42.875-74.141z" fill="#ff0" class="B"/><path d="M638.92 261.834c12.622-7.308 27.275-11.503 42.894-11.503a85.32 85.32 0 0 1 42.875 11.503c-.104-47.313-38.448-85.654-85.77-85.654-47.312 0-85.659 38.321-85.762 85.654 12.612-7.308 27.246-11.503 42.878-11.503 15.62 0 30.253 4.204 42.885 11.503z" fill="#00f" class="B"/><path d="M638.92 261.834c25.629 14.843 42.894 42.574 42.894 74.338v.2c25.629-14.845 42.894-42.564 42.894-74.341v-.197c-12.612-7.308-27.246-11.503-42.875-11.503s-30.263 4.204-42.894 11.503z" fill="#f0f" class="B"/><path d="M596.035 336.353v-.197c0-31.767 17.246-59.495 42.885-74.338-12.612-7.311-27.265-11.506-42.885-11.506-15.632 0-30.265 4.214-42.878 11.506v.197c0 31.774 17.246 59.495 42.894 74.338z" fill="#0ff" class="B"/><path d="M638.92 261.834c-25.622 14.843-42.885 42.574-42.885 74.338v.2c12.612 7.318 27.246 11.503 42.875 11.503a85.31 85.31 0 0 0 42.866-11.503v-.2c0-31.764-17.246-59.495-42.885-74.338z" fill="#fff" class="B"/></svg>