<svg xmlns="http://www.w3.org/2000/svg" xmlns:xlink="http://www.w3.org/1999/xlink" width="1280" height="720" xmlns:v="https://vecta.io/nano"><style><![CDATA[.C{clip-path:url(#clippath)}.D{fill:#1e5c93}.E{fill-rule:evenodd}]]></style><defs><linearGradient id="A" gradientTransform="matrix(0,-292.41269,-292.16951,0,347191.88,-112753.13)" x1="-388.15" y1="1186.15" x2="-385.51" y2="1186.15" spreadMethod="pad" xlink:href="#J"><stop offset="0" stop-color="#3291ff"/><stop offset="1" stop-color="#35c2ff"/></linearGradient><linearGradient id="B" x1="25222.504" y1="1828.731" x2="25149.154" y2="1819.81" xlink:href="#J"><stop offset="0" stop-color="#ff7b54"/><stop offset="1" stop-color="#1ead28"/></linearGradient><linearGradient id="C" x1="25225.229" y1="1830.35" x2="25151.047" y2="1833.202" xlink:href="#J"><stop offset="0" stop-color="#ffc93c"/><stop offset="1" stop-color="#1ead28"/></linearGradient><linearGradient id="D" x1="25066.412" y1="1827.871" x2="25216.748" y2="1827.871" xlink:href="#J"><stop offset="0" stop-color="#1ead28"/></linearGradient><linearGradient id="E" x1="25157.053" y1="1836.001" x2="25216.748" y2="1827.871" xlink:href="#J"><stop offset="0" stop-color="#1ead28"/><stop offset="1" stop-color="#34c3ff"/></linearGradient><linearGradient id="F" x1="25154.828" y1="1830.476" x2="25216.748" y2="1827.871" xlink:href="#J"><stop offset="0" stop-color="#1ead28"/><stop offset="1" stop-color="#1e5c93"/></linearGradient><linearGradient id="G" x1="25154.295" y1="1830.873" x2="25216.748" y2="1827.871" xlink:href="#J"><stop offset="0" stop-color="#1ead28"/><stop offset="1" stop-color="#a184dc"/></linearGradient><linearGradient id="H" x1="25213.201" y1="1840.785" x2="25157.182" y2="1835.12" xlink:href="#J"><stop offset="0" stop-color="#7c2869"/><stop offset="1" stop-color="#1ead28"/></linearGradient><path id="I" d="M25216.749 1914.668l-75.168-43.399-75.169-43.399 75.169-43.399 75.168-43.399v86.797z"/><linearGradient id="J" gradientUnits="userSpaceOnUse"/></defs><path d="M0 0h1280.001v720H0z" clip-path="none" fill="url(#A)"/><g transform="matrix(3.779527 0 0 3.779527 -24774.7 -1527.4091)" class="E"><path d="M6842.64 478.584c-6.189 0-12.818-3.06-19.17-8.848-4.703-4.285-7.6-8.524-7.72-8.702a1.76 1.76 0 0 1 .017-2.004c.121-.172 3.022-4.264 7.727-8.401 6.348-5.581 12.968-8.53 19.147-8.53s12.798 2.949 19.147 8.53c4.705 4.137 7.606 8.229 7.727 8.401.422.6.428 1.397.017 2.004-.121.178-3.017 4.417-7.72 8.702-6.353 5.789-12.981 8.848-19.17 8.848z" fill="#fff" class="C"/><path d="M6842.64 478.584c-6.189 0-12.818-3.06-19.17-8.848-4.703-4.285-7.6-8.524-7.72-8.702a1.76 1.76 0 0 1 .017-2.004c.121-.172 3.022-4.264 7.727-8.401 6.348-5.581 12.968-8.53 19.147-8.53s12.798 2.949 19.147 8.53c4.705 4.137 7.606 8.229 7.727 8.401.422.6.428 1.397.017 2.004-.121.178-3.017 4.417-7.72 8.702-6.353 5.789-12.981 8.848-19.17 8.848zm-23.237-18.521c2.667 3.513 12.226 14.997 23.237 14.997s20.568-11.482 23.237-14.997c-2.691-3.416-12.234-14.442-23.237-14.442s-20.547 11.028-23.237 14.442z" class="C D"/></g><path d="M1184.312 268.297c-2.215 0-4.43-.845-6.12-2.536l-19.899-19.9c-3.38-3.38-3.38-8.861 0-12.24a8.66 8.66 0 0 1 12.24 0l19.9 19.9c3.38 3.38 3.38 8.861 0 12.24-1.69 1.691-3.904 2.536-6.12 2.536zm-41.251 30.936c-2.193-.309-4.269-1.455-5.706-3.365l-16.928-22.482c-2.876-3.819-2.111-9.246 1.708-12.12s9.246-2.111 12.12 1.708l16.928 22.482c2.875 3.819 2.111 9.246-1.708 12.12-1.909 1.438-4.22 1.966-6.414 1.657zm-152.886-32.432c2.215 0 4.43-.845 6.12-2.535l19.9-19.9c3.38-3.38 3.38-8.861 0-12.24a8.66 8.66 0 0 0-12.24 0l-19.9 19.9c-3.38 3.38-3.38 8.861 0 12.24a8.62 8.62 0 0 0 6.12 2.535zm39.748 30.937c2.193-.309 4.269-1.455 5.706-3.365l16.928-22.482c2.876-3.819 2.111-9.246-1.708-12.12s-9.246-2.111-12.12 1.708l-16.928 22.482c-2.875 3.819-2.111 9.246 1.708 12.12 1.909 1.438 4.22 1.966 6.414 1.657zm53.225 15.501c-1.595-1.538-2.603-3.683-2.646-6.073l-.511-28.138c-.087-4.78 3.717-8.725 8.496-8.811a8.66 8.66 0 0 1 8.811 8.496l.512 28.138c.087 4.779-3.718 8.725-8.496 8.811-2.39.044-4.571-.885-6.166-2.423zm101.165-157.785c-2.215 0-4.43.845-6.12 2.536l-19.9 19.9c-3.38 3.38-3.38 8.861 0 12.24a8.66 8.66 0 0 0 12.24 0l19.9-19.9c3.38-3.38 3.38-8.861 0-12.24-1.69-1.691-3.904-2.536-6.12-2.536zm-41.251-30.936c-2.193.309-4.269 1.455-5.706 3.365l-16.928 22.482c-2.876 3.819-2.111 9.246 1.708 12.12s9.246 2.111 12.12-1.708l16.928-22.482c2.875-3.819 2.111-9.246-1.708-12.12-1.909-1.438-4.22-1.966-6.414-1.657zm-152.886 32.431c2.215 0 4.43.845 6.12 2.535l19.9 19.9c3.38 3.38 3.38 8.861 0 12.24a8.66 8.66 0 0 1-12.24 0l-19.9-19.9c-3.38-3.38-3.38-8.861 0-12.24a8.62 8.62 0 0 1 6.12-2.535zm39.748-30.936c2.193.309 4.269 1.455 5.706 3.365l16.928 22.482c2.876 3.819 2.111 9.246-1.708 12.12s-9.246 2.111-12.12-1.708l-16.928-22.482c-2.875-3.819-2.111-9.246 1.708-12.12 1.909-1.438 4.22-1.966 6.414-1.657zm53.225-15.502c-1.595 1.538-2.603 3.683-2.646 6.073l-.511 28.138c-.087 4.78 3.718 8.725 8.496 8.811a8.66 8.66 0 0 0 8.811-8.496l.512-28.138c.087-4.779-3.718-8.725-8.496-8.811-2.39-.044-4.571.885-6.166 2.423z" class="D"/><g transform="matrix(3.779527 0 0 3.779527 -24774.7 -1527.4091)" class="E"><path d="M6842.964 469.95c-5.299 0-9.612-4.311-9.612-9.61s4.311-9.61 9.612-9.61a9.62 9.62 0 0 1 9.609 9.61c0 5.299-4.311 9.61-9.609 9.61z" fill="#34c3ff" class="C"/><circle cx="6842.964" cy="460.34" r="3.558" class="C"/></g><path d="M673.2 519.491L438.521 367.17 203.837 214.847l236.883 142.283L677.6 499.412l-2.2 10.039z" fill="#ff7b54"/><path d="M666.511 537.875l-231.34-161.522-231.344-161.525 234.707 152.24 234.704 152.238-3.363 9.285z" fill="#ffc93c"/><path d="M657.656 554.545L430.751 384.679 203.843 214.812l231.409 161.377 231.406 161.375-4.501 8.491z" fill="#1ead28"/><path d="M646.609 569.558l-221.378-177.38L203.85 214.795l226.997 169.726L657.84 554.245l-5.616 7.657z" fill="#34c3ff"/><path d="M633.585 582.7L418.712 398.74 203.836 214.777l221.566 177.165 221.563 177.163-6.69 6.797z" class="D"/><path d="M618.32 594.279L411.086 404.523 203.85 214.765l214.985 183.867 214.982 183.864-7.748 5.891z" fill="#a184dc"/><path d="M600.851 604.113l-198.49-194.679-198.492-194.682 207.272 189.735L618.41 594.219l-8.78 4.947z" fill="#7c2869"/><use xlink:href="#I" transform="matrix(-3.371282 1.963087 .01285 .106925 85571.145 -49191.108)" fill="url(#B)"/><use xlink:href="#I" transform="matrix(-3.348306 2.080521 .02729 .098235 84968.817 -52118.866)" fill="url(#C)"/><use xlink:href="#I" transform="matrix(-3.30926 2.186903 .041482 .089138 83964.143 -54768.871)" fill="url(#D)"/><use xlink:href="#I" transform="matrix(-3.254275 2.282624 .055459 .07962 82560.302 -57150.888)" fill="url(#E)"/><use xlink:href="#I" transform="matrix(-3.18458 2.366325 .068996 .069846 80788.554 -59231.113)" fill="url(#F)"/><use xlink:href="#I" transform="matrix(-3.098482 2.439926 .082411 .059585 78605.858 -61057.294)" fill="url(#G)"/><use xlink:href="#I" transform="matrix(-2.996168 2.502302 .095565 .048918 76017.176 -62601.336)" fill="url(#H)"/><g fill="#ffc93c"><circle cx="206.844" cy="212.25" r="52.935"/><path d="M206.843 273.842c-33.961 0-61.59-27.63-61.59-61.591s27.63-61.591 61.59-61.591 61.591 27.63 61.591 61.591-27.63 61.591-61.591 61.591zm0-105.871c-24.415 0-44.279 19.864-44.279 44.279s19.864 44.279 44.279 44.279 44.28-19.864 44.28-44.279-19.864-44.279-44.28-44.279zm0-30.076a8.66 8.66 0 0 1-8.655-8.656v-28.142a8.66 8.66 0 0 1 8.655-8.656 8.66 8.66 0 0 1 8.656 8.656v28.142a8.66 8.66 0 0 1-8.656 8.656zm0 194.164a8.66 8.66 0 0 1-8.655-8.656v-28.142a8.66 8.66 0 0 1 8.655-8.656 8.66 8.66 0 0 1 8.656 8.656v28.142a8.66 8.66 0 0 1-8.656 8.656zm111.153-111.153h-28.142a8.66 8.66 0 0 1-8.655-8.656 8.66 8.66 0 0 1 8.655-8.656h28.142a8.66 8.66 0 0 1 8.656 8.656 8.66 8.66 0 0 1-8.656 8.656zm-194.164 0H95.69a8.66 8.66 0 0 1-8.655-8.656 8.66 8.66 0 0 1 8.655-8.656h28.142a8.66 8.66 0 0 1 8.655 8.656 8.66 8.66 0 0 1-8.656 8.656zm141.71-58.699c-2.215 0-4.431-.845-6.12-2.536-3.38-3.38-3.38-8.861 0-12.24l19.9-19.899c3.38-3.38 8.861-3.381 12.24 0a8.66 8.66 0 0 1 0 12.24l-19.9 19.898c-1.689 1.691-3.905 2.536-6.12 2.536zM128.245 299.504c-2.215 0-4.43-.845-6.12-2.535-3.38-3.38-3.38-8.861 0-12.24l19.9-19.9c3.38-3.38 8.861-3.38 12.24 0a8.66 8.66 0 0 1 0 12.24l-19.9 19.9a8.62 8.62 0 0 1-6.12 2.535zm19.9-137.297c-2.215 0-4.43-.845-6.12-2.536l-19.9-19.898c-3.38-3.38-3.38-8.86 0-12.24s8.861-3.381 12.24 0l19.9 19.899c3.38 3.38 3.38 8.86 0 12.24-1.69 1.691-3.904 2.536-6.12 2.536z"/></g><path d="M596.008 626.171c-60.603-10.069-79.896-93.824-21.447-132.293 15.462-12.773 24.088-32.635 24.372-52.538 1.672-21.56 22.913-40.319 44.759-36.129 18.279 2.937 33.775 19.102 34.06 37.933 5.741 69.087 40.498 50.253 49.677 93.081 9.115 30.336-8.647 72.529-37.115 87.101-16.564 9.202-35.163 2.72-52.857 1.936-13.839-1.242-27.631 2.876-41.45.909z" fill="#1ead28"/><path d="M640.409 384.498c8.441-14.034 21.808-20.915 37.548-23.023 3.748-.516 6.477.871 7.299 3.973.693 2.989-2.245 5.337-4.552 5.44-5.149.231-10.298 1.099-15.074 3.133-18.295 7.771-20.789 24.998-21.072 31.34l-9.781-.357c.232-7.15 2.124-14.262 5.633-20.506z"/></svg>