<svg xmlns="http://www.w3.org/2000/svg" xmlns:xlink="http://www.w3.org/1999/xlink" width="1280" height="720" xmlns:v="https://vecta.io/nano"><defs><linearGradient id="A" gradientTransform="matrix(0,-806.80324,806.13026,0,-1260788.9,1066226.9)" x1="1320.58" y1="1564.8" x2="1321.65" y2="1564.8" gradientUnits="userSpaceOnUse" spreadMethod="pad"><stop offset="0" stop-color="#1f5e96"/><stop offset="1" stop-color="#3291ff"/></linearGradient><path id="B" d="M6626.26 439.44a2.29 2.29 0 0 1-2.29-2.29v-7.446a2.29 2.29 0 1 1 4.58 0v7.446a2.29 2.29 0 0 1-2.29 2.29z"/><path id="C" d="M6655.669 461.403h-7.446a2.29 2.29 0 1 1 0-4.58h7.446a2.29 2.29 0 1 1 0 4.58z"/><path id="D" d="M6641.791 445.873a2.28 2.28 0 0 1-1.619-.671 2.29 2.29 0 0 1 0-3.239l5.265-5.265a2.29 2.29 0 0 1 3.239 3.239l-5.265 5.265a2.28 2.28 0 0 1-1.619.671z"/></defs><path d="M0 0h1280v720H0z" clip-path="none" fill="url(#A)"/><path d="M587.634 578.076l-212.111-198.04-212.114-198.042L410.093 338.8l246.681 156.804-34.57 41.236z" fill="#fff"/><path d="M1280.001 33.883L1280 .003 1157.11 0 970.046 196.88 624.019 561.066 996.56 261.671z" fill="#ff7b54"/><path d="M1280.003 174.801V32.439L996.289 261.006 623.968 560.963l396.99-233.68z" fill="#ffc93c"/><path d="M1280.003 299.006V172.463l-259.475 153.613-396.601 234.796 419.318-167.366z" fill="#1ead28"/><path d="M1280.001 411.063V296.786l-237.171 95.424-418.938 168.557 439.596-100.303z" fill="#34c3ff"/><path d="M1280.005 512.452V407.668l-217.153 50.633-439.001 102.363 457.535-33.617z" fill="#1e5c93"/><path d="M1280.001 608.029v-97.203l-198.929 15.076-457.273 34.652 473.549 34.26z" fill="#a184dc"/><path d="M1279.993 698.736v-91.211l-182.751-13.11-473.478-33.964 487.396 102.707z" fill="#7c2869"/><g transform="matrix(3.779527 0 0 3.779527 -24837.287 -1522.9798)" fill="#ffc93c"><circle cx="6626.26" cy="459.113" r="14.006"/><path d="M6626.26 475.409c-8.985 0-16.296-7.31-16.296-16.296s7.31-16.296 16.296-16.296 16.296 7.31 16.296 16.296-7.31 16.296-16.296 16.296zm0-28.012c-6.46 0-11.716 5.256-11.716 11.716s5.256 11.716 11.716 11.716 11.716-5.256 11.716-11.716-5.256-11.716-11.716-11.716z"/><use xlink:href="#B"/><use xlink:href="#B" y="51.373"/><use xlink:href="#C"/><use xlink:href="#C" x="-51.372"/><use xlink:href="#D"/><use xlink:href="#D" x="-36.327" y="36.326"/><path d="M6610.729 445.873a2.28 2.28 0 0 1-1.619-.671l-5.265-5.265a2.29 2.29 0 0 1 3.239-3.239l5.265 5.265a2.29 2.29 0 0 1 0 3.239 2.28 2.28 0 0 1-1.619.671z"/></g><rect width="45.962" height="109.955" x="641.782" y="502.242" ry="22.981" fill="#fff"/><path d="M619.928 624.361c-73.855-36.695-18.508-136.108 21.849-186.477 36.506 56.47 100.711 144.351 14.444 187.06-9.769 2.613-27.025 2.336-36.293-.584zm64.929-79.16c-1.916-10.154-20.306-44.134-18.986-38.558 9.709 41.011 15.131 66.281-5.18 104.138-1.986 3.702 33.772-14.673 24.166-65.579z" fill="#34c3ff"/></svg>