<svg xmlns="http://www.w3.org/2000/svg" xmlns:xlink="http://www.w3.org/1999/xlink" width="1280" height="720" xmlns:v="https://vecta.io/nano"><style><![CDATA[.B{fill:#1ead28}.C{fill:#1e5c93}.D{fill:#ff7b54}.E{clip-path:none}.F{stroke-miterlimit:10}]]></style><defs><linearGradient id="A" x1="-16437.684" y1="2319.876" x2="-16437.684" y2="1564.534" gradientUnits="userSpaceOnUse" spreadMethod="pad"><stop offset="0" stop-color="#1ead28"/><stop offset="1" stop-color="#248029"/></linearGradient><path id="B" d="M-4020.83 1596.663h50v50h-50z"/></defs><g transform="translate(17076.033 -1586.351)"><path d="M-17076.033 1586.351h1280v720h-1280z" fill="url(#A)"/><g transform="translate(-18522.957 -23.682)"><path d="M1712.923 1760.483h748.003v389.896h-748.003z" fill="#34c3ff" stroke-width="25.943" stroke="#1e5c93" class="E F"/><path d="M1846.59 1932.922c28.175-38.833 77.675-111.891 134.885-112.282s108.337 71.985 137.372 110.432 85.426 108.398 57.251 147.231-134.113 37.168-191.324 37.559-163.101 3.493-192.137-34.954 25.776-109.154 53.952-147.987z" fill="#58ab3f"/><path d="M2130.031 1982.328c21.678-28.358 59.763-81.708 103.781-81.994s83.354 52.567 105.695 80.643 65.727 79.158 44.049 107.515-103.187 27.142-147.205 27.428-125.491 2.551-147.831-25.526 19.832-79.709 41.51-108.067z" fill="#bc9353"/><circle cx="2163.856" cy="1834.738" r="43.034" fill="#f3ca59" class="E"/><g stroke-width="2.25" transform="matrix(2.88261 0 0 2.88261 1321.4384 1597.3908)" stroke="#1e5c93" class="C F"><path d="M231.414 191.836h68.27v25.25h-68.27z" class="E"/><path d="M203.355 217.086H327.75v3.742H203.355z" class="E"/></g></g><path d="M-17076.033 2213.099h1280v92.191h-1280z" class="D E"/></g><g transform="matrix(.736646 0 0 .736646 3703.867 -924.2693)"><use xlink:href="#B" class="C"/><g class="B"><use xlink:href="#B" x="50" y="-50"/><use xlink:href="#B" x="100"/></g><use xlink:href="#B" x="100" y="-50" class="C"/><use xlink:href="#B" x="150" y="-50" class="B"/><g class="C"><use xlink:href="#B" x="150"/><use xlink:href="#B" x="200" y="50"/></g><g class="D"><use xlink:href="#B" x="200"/><use xlink:href="#B" x="250" y="50"/><use xlink:href="#B" x="50"/><use xlink:href="#B" y="-50"/></g><use xlink:href="#B" x="-50" class="B"/><use xlink:href="#B" x="50" y="50" class="C"/><g class="B"><use xlink:href="#B" y="50"/><use xlink:href="#B" x="-50" y="150"/></g><g class="D"><use xlink:href="#B" x="100" y="50"/><use xlink:href="#B" x="-50" y="50"/><use xlink:href="#B" x="-50" y="200"/></g><use xlink:href="#B" x="150" y="50" class="B"/><g class="C"><use xlink:href="#B" x="250" y="100"/><use xlink:href="#B" x="100" y="100"/><use xlink:href="#B" x="-50" y="100"/></g><use xlink:href="#B" x="50" y="100" class="B"/><g class="D"><use xlink:href="#B" x="150" y="100"/><use xlink:href="#B" y="100"/></g><use xlink:href="#B" x="200" y="100" class="B"/><g class="C"><use xlink:href="#B" x="150" y="150"/><use xlink:href="#B" y="150"/></g><use xlink:href="#B" x="100" y="150" class="B"/><g class="D"><use xlink:href="#B" x="200" y="150"/><use xlink:href="#B" x="50" y="150"/></g><g class="B"><use xlink:href="#B" x="250" y="150"/><use xlink:href="#B" y="200"/></g><g class="C"><use xlink:href="#B" x="200" y="200"/><use xlink:href="#B" x="50" y="200"/></g><use xlink:href="#B" x="150" y="200" class="B"/><g class="D"><use xlink:href="#B" x="100" y="200"/><use xlink:href="#B" y="250"/></g><use xlink:href="#B" x="50" y="250" class="B"/><use xlink:href="#B" x="100" y="250" class="C"/><use xlink:href="#B" x="200" y="250" class="B"/><use xlink:href="#B" x="150" y="250" class="D"/><g fill="#fff" fill-opacity=".502"><ellipse cx="-3895.83" cy="1671.663" rx="10.25" ry="10.75"/><ellipse cx="-3945.83" cy="1671.663" rx="10.25" ry="10.75"/><ellipse cx="-3995.83" cy="1671.663" rx="10.25" ry="10.75"/><ellipse cx="-3945.83" cy="1621.663" rx="10.25" ry="10.75"/><ellipse cx="-3895.83" cy="1621.663" rx="10.25" ry="10.75"/><ellipse cx="-3995.83" cy="1621.663" rx="10.25" ry="10.75"/><ellipse cx="-3845.83" cy="1621.663" rx="10.25" ry="10.75"/><ellipse cx="-3845.83" cy="1671.663" rx="10.25" ry="10.75"/><ellipse cx="-3795.83" cy="1671.663" rx="10.25" ry="10.75"/><ellipse cx="-3795.83" cy="1621.663" rx="10.25" ry="10.75"/><ellipse cx="-4045.83" cy="1721.663" rx="10.25" ry="10.75"/><ellipse cx="-3995.83" cy="1721.663" rx="10.25" ry="10.75"/><ellipse cx="-3945.83" cy="1721.663" rx="10.25" ry="10.75"/><ellipse cx="-3895.83" cy="1721.663" rx="10.25" ry="10.75"/><ellipse cx="-3845.83" cy="1721.663" rx="10.25" ry="10.75"/><ellipse cx="-3795.83" cy="1721.663" rx="10.25" ry="10.75"/><ellipse cx="-3795.83" cy="1771.663" rx="10.25" ry="10.75"/><ellipse cx="-3845.83" cy="1771.663" rx="10.25" ry="10.75"/><ellipse cx="-3895.83" cy="1771.663" rx="10.25" ry="10.75"/><ellipse cx="-3945.83" cy="1771.663" rx="10.25" ry="10.75"/><ellipse cx="-3995.83" cy="1771.663" rx="10.25" ry="10.75"/><ellipse cx="-4045.83" cy="1772.582" rx="10.25" ry="10.75"/><ellipse cx="-3995.83" cy="1821.663" rx="10.25" ry="10.75"/><ellipse cx="-3945.83" cy="1821.663" rx="10.25" ry="10.75"/><ellipse cx="-3895.83" cy="1821.663" rx="10.25" ry="10.75"/><ellipse cx="-3845.83" cy="1821.663" rx="10.25" ry="10.75"/><ellipse cx="-3795.83" cy="1821.663" rx="10.25" ry="10.75"/><ellipse cx="-3945.83" cy="1871.663" rx="10.25" ry="10.75"/><ellipse cx="-3895.83" cy="1871.663" rx="10.25" ry="10.75"/><ellipse cx="-3845.83" cy="1871.663" rx="10.25" ry="10.75"/><ellipse cx="-4045.83" cy="1671.663" rx="10.25" ry="10.75"/></g><path d="M-4079.03 1597.75c-62.133 77.966-61.109 191.719 1.998 268.636a213.695 213.695 0 0 0 283.644 42.404l136.653 136.853c5.844 5.868 15.209 5.868 20.778 0l38.284-38.334a14.559 14.559 0 0 0 0-20.802l-136.628-136.853c55.241-83.036 46.375-196.538-26.621-269.935-88.979-89.354-237.519-83.26-318.157 18.031zm274.03 239.942a150.987 150.987 0 0 1-213.445 0 151.587 151.587 0 0 1 0-213.77 150.987 150.987 0 0 1 213.445 0c58.787 58.637 58.787 154.609 0 213.77z" fill="#7c2869"/></g></svg>