<svg xmlns="http://www.w3.org/2000/svg" width="1282.193" height="720.46" xmlns:v="https://vecta.io/nano"><style><![CDATA[.B{clip-path:none}.C{fill:#ffc93c}.D{fill:#ff7b54}.E{stroke-width:0}.F{stroke-miterlimit:10}]]></style><defs><clipPath ><path d="M0 0h708.12v398.41H0z" fill="none" class="E"/></clipPath><clipPath ><path d="M-14.17-14.17h736.48v426.75H-14.17z" fill="none" class="E"/></clipPath><clipPath ><path transform="rotate(274.24 354.035 201.34)" d="M290.43 137.72h127.24v127.24H290.43z" fill="none" class="E"/></clipPath><linearGradient x1="-438.43" y1="411.41" x2="-437.36" y2="411.41" gradientUnits="userSpaceOnUse" gradientTransform="matrix(0,-822.48122,822.67644,0,-337822.1,-359811.71)" spreadMethod="pad" id="D"><stop offset="0" stop-color="#7c2869"/><stop offset="1" stop-color="#c3598c"/></linearGradient><linearGradient x1="-438.51" y1="413.66" x2="-437.51" y2="413.66" gradientUnits="userSpaceOnUse" gradientTransform="matrix(0,246.33595,246.39441,0,-101281.21,108258.75)" spreadMethod="pad" id="E"><stop offset="0" stop-color="#1f5e96"/><stop offset=".2" stop-color="#2368ab"/><stop offset="1" stop-color="#3291ff"/></linearGradient></defs><path d="M0 0h1282.193v720.46H0z" fill="url(#D)" class="B"/><path d="M904.31 248.939h215.519v219.911H904.31z" class="B C"/><path d="M916.183 263.038h191.784v191.739H916.183z" fill="#34c3ff" class="B"/><g transform="matrix(2.410138 0 0 2.409566 -.0004 .00001)"><path d="M60.316 101.055h96.938v98.941H60.316z" class="B D"/><path d="M71.934 113.676h73.695v73.695H71.934z" fill="#fff" class="B"/><path d="M126.609 142.785v.039c0 6.598-3.586 12.352-8.91 15.434-.015 6.578-3.594 12.316-8.91 15.398 2.625 1.516 5.66 2.391 8.91 2.391 9.848 0 17.824-7.981 17.824-17.828 0-6.598-3.582-12.352-8.91-15.434" fill="#7c2869" class="B"/><path d="M99.871 158.266c-5.324-3.082-8.91-8.836-8.91-15.438v-.035c-5.324 3.082-8.91 8.836-8.91 15.434 0 9.839 7.98 17.828 17.828 17.828 3.246 0 6.293-.871 8.91-2.391-5.32-3.078-8.898-8.812-8.91-15.398" fill="#1ead28" class="B"/><path d="M117.691 158.266c-2.625 1.515-5.664 2.39-8.91 2.39a17.65 17.65 0 0 1-8.91-2.39c.016 6.578 3.59 12.312 8.91 15.398 5.317-3.078 8.895-8.812 8.91-15.398" class="B C"/><path d="M108.781 142.793c2.625-1.516 5.66-2.395 8.91-2.395a17.69 17.69 0 0 1 8.911 2.395 17.83 17.83 0 0 0-17.821-17.781c-9.828 0-17.804 7.957-17.82 17.781 2.625-1.516 5.66-2.395 8.91-2.395s6.293.872 8.91 2.395" fill="#1e5c93" class="B"/><path d="M108.781 142.793c5.324 3.082 8.91 8.836 8.91 15.434v.039c5.325-3.082 8.911-8.836 8.911-15.438v-.035a17.76 17.76 0 0 0-8.911-2.395c-3.25 0-6.293.872-8.91 2.395" fill="#a184dc" class="B"/><path d="M99.871 158.266v-.039c0-6.59 3.582-12.352 8.91-15.434a17.76 17.76 0 0 0-8.91-2.395c-3.25 0-6.293.872-8.91 2.395v.035c0 6.602 3.586 12.356 8.91 15.438" fill="#34c3ff" class="B"/><path d="M108.781 142.793c-5.328 3.082-8.91 8.836-8.91 15.434v.039c2.625 1.515 5.66 2.39 8.91 2.39s6.285-.867 8.91-2.39v-.039c0-6.59-3.586-12.352-8.91-15.434" fill="#fff" class="B"/></g><path d="M1011.231 336.134h30.852v61.716h-30.852z" class="B D"/><path d="M980.372 336.134h30.862v61.716h-30.862z" fill="#a184dc" class="B"/><path d="M516.796 240.684h246.388v246.313H516.796z" fill="url(#E)" class="B"/><path d="M675.554 390.473c-1.865-3.304-4.577-6.429-7.428-9.159-7.467-7.173-19.527-12.197-33.347-13.084-11.73-.761-26.379 3.304-34.928 7.718-5.131 2.636-8.154 5.46-10.262 9.036l85.984 5.508z" class="B C"/><path d="M633.801 309.186c-4.642 10.759-15.76 18.224-28.649 18.58-.152.923-.272 1.846-.33 2.805-1.063 16.549 12.513 30.92 30.298 32.059 17.801 1.14 33.082-11.351 34.147-27.927.075-1.082.075-2.145.017-3.21a34.35 34.35 0 0 1-6.233.161c-14.244-.904-25.757-10.289-29.249-22.469" class="B D"/><path d="M638.969 302.663c-16.777-1.082-31.322 9.978-33.817 25.122 12.889-.357 24.007-7.841 28.649-18.58 3.502 12.18 15.015 21.563 29.249 22.467a35.94 35.94 0 0 0 6.233-.169c-.762-15.154-13.687-27.775-30.315-28.84" class="B"/><path d="M636.804 378.762l-5.387-.337c-4.594-.292-8.086-4.265-7.775-8.858l1.675-26.129 22.021 1.402-1.685 26.139c-.284 4.583-4.266 8.077-8.85 7.783" class="B D"/><path d="M628.019 334.544a3.14 3.14 0 0 1-3.333 2.928c-1.714-.104-3.03-1.61-2.926-3.323a3.12 3.12 0 0 1 3.331-2.928 3.15 3.15 0 0 1 2.928 3.323m20.732 1.337c-.113 1.73-1.61 3.038-3.324 2.925-1.723-.104-3.042-1.61-2.938-3.323.113-1.73 1.591-3.038 3.333-2.925a3.15 3.15 0 0 1 2.928 3.323" class="B"/><path d="M629.856 344.606c-.198 3.2 2.232 5.947 5.404 6.144 3.201.198 5.951-2.219 6.148-5.402m-6.826-2.814c1.338.084 2.485-.94 2.579-2.277s-.94-2.513-2.278-2.588" class="B F" fill="none" stroke="#000" stroke-width="1.807"/><g class="C"><path d="M589.57 384.947c-7.269 36.396 25.938 51.608 25.938 51.608l38.232 1.778s23.716-15.416 24.309-28.161c.593-12.737-2.495-19.71-2.495-19.71l-46.094-7.267-39.89 1.732z" class="B"/><path d="M566.091 483.691c-10.94-36.396 42.893-54.543 42.893-54.543l53.626 1.157s35.672 15.416 36.557 28.153c.885 12.744-3.748 19.717-3.748 19.717l-69.32 7.267-60.008-1.732z" class="B"/></g><path d="M650.879 293.957a10.52 10.52 0 0 0-10.518-10.523c-5.818 0-10.525 4.696-10.525 10.523a10.51 10.51 0 0 0 10.525 10.513c5.818 0 10.518-4.696 10.518-10.513" class="B"/><path d="M665.632 385.22s47.176 31.985 14.818 67.694c-7.447 8.226-14.564 12.395-21.108 13.949m-61.874-86.472s-44.501 35.599-9.424 68.653c8.088 7.607 15.516 11.212 22.164 12.255" class="B F" fill="none" stroke="#ff7b54" stroke-width="14.459" stroke-linecap="round"/><path d="M610.951 378.875c0 11.024-8.944 19.963-19.978 19.963-11.024 0-19.968-8.939-19.968-19.963s8.944-19.973 19.968-19.973c11.034 0 19.978 8.952 19.978 19.973m83.113 8.566c0 11.021-8.944 19.963-19.97 19.963-11.034 0-19.978-8.942-19.978-19.963s8.944-19.973 19.978-19.973c11.026 0 19.97 8.952 19.97 19.973" class="B C"/><path d="M806.333 398.34c-.706-.742-.774-2.212.198-2.588 8.66-3.472 13.34-11.021 13.547-18.58.913-7.482-2.608-15.643-10.648-20.368-.904-.518-.603-1.966.198-2.578 24.289-19.05 3.201-48.088-3.324-70.357-3.888-13.262.434-33.847 1.986-47.721.829-7.426 3.897-14.749 5.601-22.139-7.577.595-15.261 2.542-22.735 2.279-13.962-.528-34.966.716-47.506-5.084-21.079-9.742-46.696-34.881-69.123-13.657-.742.696-2.213.773-2.588-.207-3.466-8.648-11.024-13.337-18.565-13.535-7.486-.923-15.647 2.607-20.373 10.645-.518.904-1.969.602-2.581-.198-19.055-24.284-48.099-3.219-70.374 3.304-13.265 3.889-33.855-.431-47.733-1.985-7.428-.829-14.752-3.896-22.142-5.6.593 7.576 2.543 15.257 2.278 22.729-.528 13.959.716 34.958-5.083 47.495-9.744 21.074-34.892 46.685-13.661 69.106.697.745.771 2.202-.207 2.588-8.633 3.484-13.34 11.024-13.538 18.58-.923 7.474 2.608 15.643 10.648 20.358.904.528.603 1.978-.198 2.59-24.289 19.05-3.201 48.088 3.304 70.357 3.888 13.262-.434 33.847-1.986 47.721-.829 7.426-3.9 14.749-5.604 22.137 7.58-.593 15.261-2.542 22.737-2.277 13.962.528 34.966-.716 47.506 5.082 21.079 9.742 46.696 34.874 69.123 13.657.742-.706 2.203-.771 2.588.198 3.463 8.66 11.024 13.337 18.585 13.544 7.474.913 15.647-2.607 20.363-10.645.528-.904 1.976-.602 2.588.198 19.055 24.284 48.099 3.219 70.374-3.313 13.265-3.877 33.855.443 47.733 1.995 7.428.829 14.752 3.899 22.144 5.602-.595-7.578-2.543-15.257-2.28-22.741.528-13.949-.716-34.948 5.085-47.485 9.744-21.074 34.88-46.685 13.661-69.106m-174.595 76.872l-111.421-8.255 8.264-111.394 8.257-111.397 111.423 8.265 111.421 8.255-8.267 111.394-8.255 111.394z" fill="#bc9353" class="B"/></svg>