<svg xmlns="http://www.w3.org/2000/svg" xmlns:xlink="http://www.w3.org/1999/xlink" width="1282.193" height="720.46" xmlns:v="https://vecta.io/nano"><style><![CDATA[.B{clip-path:none}.C{fill:#fff}.D{fill:#ff7b54}.E{fill:#1ead28}.F{fill:#ffc93c}.G{fill:#7c2869}.H{fill:#1e5c93}.I{fill:#a184dc}.J{fill:#34c3ff}.K{stroke-width:0}]]></style><defs><clipPath ><path d="M0 0h708.12v398.41H0z" fill="none" class="K"/></clipPath><clipPath ><path d="M-14.17-14.17h736.48v426.75H-14.17z" fill="none" class="K"/></clipPath><clipPath ><path transform="rotate(274.24 354.035 201.34)" d="M290.43 137.72h127.24v127.24H290.43z" fill="none" class="K"/></clipPath><linearGradient id="D" gradientTransform="matrix(0,-806.80324,806.13026,0,-1260788.9,1066226.9)" x1="1320.58" y1="1564.8" x2="1321.65" y2="1564.8" gradientUnits="userSpaceOnUse" spreadMethod="pad"><stop offset="0" stop-color="#1f5e96"/><stop offset="1" stop-color="#3291ff"/></linearGradient><path id="E" d="M60.316 101.055h96.938v98.941H60.316z"/><path id="F" d="M71.934 113.676h73.695v73.695H71.934z"/><path id="G" d="M126.609 142.785v.039c0 6.598-3.586 12.352-8.91 15.434-.015 6.578-3.594 12.316-8.91 15.398 2.625 1.516 5.66 2.391 8.91 2.391 9.848 0 17.824-7.981 17.824-17.828 0-6.598-3.582-12.352-8.91-15.434"/><path id="H" d="M99.871 158.266c-5.324-3.082-8.91-8.836-8.91-15.438v-.035c-5.324 3.082-8.91 8.836-8.91 15.434 0 9.839 7.98 17.828 17.828 17.828 3.246 0 6.293-.871 8.91-2.391-5.32-3.078-8.898-8.812-8.91-15.398"/><path id="I" d="M117.691 158.266c-2.625 1.515-5.664 2.39-8.91 2.39a17.65 17.65 0 0 1-8.91-2.39c.016 6.578 3.59 12.312 8.91 15.398 5.317-3.078 8.895-8.812 8.91-15.398"/><path id="J" d="M108.781 142.793c2.625-1.516 5.66-2.395 8.91-2.395a17.69 17.69 0 0 1 8.911 2.395 17.83 17.83 0 0 0-17.821-17.781c-9.828 0-17.804 7.957-17.82 17.781 2.625-1.516 5.66-2.395 8.91-2.395s6.293.872 8.91 2.395"/><path id="K" d="M108.781 142.793c5.324 3.082 8.91 8.836 8.91 15.434v.039c5.325-3.082 8.911-8.836 8.911-15.438v-.035a17.76 17.76 0 0 0-8.911-2.395c-3.25 0-6.293.872-8.91 2.395"/><path id="L" d="M99.871 158.266v-.039c0-6.59 3.582-12.352 8.91-15.434a17.76 17.76 0 0 0-8.91-2.395c-3.25 0-6.293.872-8.91 2.395v.035c0 6.602 3.586 12.356 8.91 15.438"/><path id="M" d="M108.781 142.793c-5.328 3.082-8.91 8.836-8.91 15.434v.039c2.625 1.515 5.66 2.39 8.91 2.39s6.285-.867 8.91-2.39v-.039c0-6.59-3.586-12.352-8.91-15.434"/></defs><path d="M0 0h1280v720H0z" fill="url(#D)" class="B"/><g transform="matrix(3.779527 0 0 3.779527 -26390.984 -2922.7006)"><g transform="matrix(.551225 0 0 .551094 6967.204194 806.211116)"><use xlink:href="#E" class="B D"/><use xlink:href="#F" class="B C"/><use xlink:href="#G" class="B G"/><use xlink:href="#H" class="B E"/><use xlink:href="#I" class="B F"/><use xlink:href="#J" class="B H"/><use xlink:href="#K" class="B I"/><use xlink:href="#L" class="B J"/><use xlink:href="#M" class="B C"/></g><rect width="46.567" height="23.283" x="7003.883" y="814.682" ry="11.642" class="E"/><g transform="matrix(.549126 .048041 -.04803 .548996 7055.796553 801.297404)"><use xlink:href="#E" class="B D"/><use xlink:href="#F" class="B C"/><use xlink:href="#G" class="B G"/><use xlink:href="#H" class="B E"/><use xlink:href="#I" class="B F"/><use xlink:href="#J" class="B H"/><use xlink:href="#K" class="B I"/><use xlink:href="#L" class="B J"/><use xlink:href="#M" class="B C"/></g><rect width="46.567" height="23.283" x="7085.022" y="814.682" ry="11.642" class="F"/><g transform="matrix(.54285 .095719 -.095696 .542721 7144.795986 797.057356)"><use xlink:href="#E" class="B D"/><use xlink:href="#F" class="B C"/><use xlink:href="#G" class="B G"/><use xlink:href="#H" class="B E"/><use xlink:href="#I" class="B F"/><use xlink:href="#J" class="B H"/><use xlink:href="#K" class="B I"/><use xlink:href="#L" class="B J"/><use xlink:href="#M" class="B C"/></g><rect width="46.567" height="23.283" x="7166.162" y="814.682" ry="11.642" class="D"/><g transform="matrix(.53244 .142668 -.142634 .532314 7234.129254 793.520364)"><use xlink:href="#E" class="B D"/><use xlink:href="#F" class="B C"/><use xlink:href="#G" class="B G"/><use xlink:href="#H" class="B E"/><use xlink:href="#I" class="B F"/><use xlink:href="#J" class="B H"/><use xlink:href="#K" class="B I"/><use xlink:href="#L" class="B J"/><use xlink:href="#M" class="B C"/></g><rect width="46.567" height="23.283" x="7247.301" y="814.682" ry="11.642" fill="#ff4914"/></g></svg>