<svg xmlns="http://www.w3.org/2000/svg" width="1280" height="720" xmlns:v="https://vecta.io/nano"><style><![CDATA[.B{clip-path:none}.C{fill:#1ead28}.D{fill:#34c3ff}.E{fill:#1e5c93}.F{stroke-miterlimit:10}]]></style><defs><clipPath ><path d="M0 0h708.12v398.41H0z" stroke-width="0" class="C"/></clipPath><linearGradient id="B" gradientTransform="matrix(0,391.95763,392.051,0,298693.17,169885.35)" x1="-433.13" y1="-760.25" x2="-432.09" y2="-760.25" gradientUnits="userSpaceOnUse" spreadMethod="pad"><stop offset="0" stop-color="#a184dc"/><stop offset=".25" stop-color="#a184dc"/><stop offset="1" stop-color="#7568c5"/></linearGradient></defs><path d="M0 0h1280v719.999H0z" class="B C"/><path d="M1279.998 720V.001H0V720z" fill="url(#B)" class="B"/><path d="M0 621.251V720h1279.998v-98.749z" class="B C"/><path d="M255.089 582.285c-149.674-149.627-149.674-392.241 0-541.896m784.461 0c149.675 149.636 149.675 392.25 0 541.896m-718.814-65.612c-113.426-113.401-113.426-297.244 0-410.623m653.186-.02c113.426 113.399 113.426 297.241 0 410.643m-587.546-65.641c-77.163-77.145-77.163-202.215 0-279.37m521.889 0c77.17 77.154 77.17 202.225 0 279.37" class="B F" fill="none" stroke="#ff7b54" stroke-width="24.183"/><path d="M460.11 166.024h385.019v384.928H460.11z" class="B D"/><path d="M822.553 188.613v339.748H482.724V188.613h339.829m45.191-45.179h-430.21v430.107h430.21z" class="B E"/><path d="M475.474 229.868h15.741v59.711h-15.741zm0 197.528h15.741v59.711h-15.741zm303.82-150.776h15.74v163.756h-15.74z" class="B" fill="#ffc93c"/><path d="M460.11 596.131h.518l-.518.631z" class="B D"/><path d="M508.19 573.541h-70.675v47.712h31.794z" class="B E"/><path d="M844.621 596.131h.527v.631z" class="B D"/><path d="M867.744 573.541h-70.685l38.883 47.712h31.802z" class="B E"/><g class="F"><path d="M718.231 358.488c0 36.23-29.375 65.605-65.612 65.605-36.246 0-65.618-29.375-65.618-65.605s29.372-65.603 65.618-65.603c36.237 0 65.612 29.375 65.612 65.603z" fill="#ffc93c" stroke="#1e5c93" stroke-width="27.111" class="B"/><path d="M652.619 285.193v14.072m0 118.464v14.062m73.312-73.303h-14.066m-118.482 0h-14.085m125.159-51.833l-9.942 9.956m-83.781 83.772l-9.959 9.939m0-103.667l9.959 9.956m83.781 83.772l9.942 9.939" class="B" fill="none" stroke="#ffc93c" stroke-width="3.615"/></g></svg>