<svg xmlns="http://www.w3.org/2000/svg" width="1280" height="720" xmlns:v="https://vecta.io/nano"><defs><linearGradient id="A" gradientTransform="matrix(0,763.16996,762.53251,0,-752924.55,-1004797.2)" x1="1317.442" y1="988.242" x2="1316.696" y2="988.242" gradientUnits="userSpaceOnUse" spreadMethod="pad"><stop offset="0" stop-color="#f6a227"/><stop offset="1" stop-color="#ffc93c"/></linearGradient></defs><path d="M0 0h1280.001v720H0z" clip-path="none" fill="url(#A)"/><path clip-path="none" d="M1.094 600.774V720h1277.813V600.774z" fill="#ff7b54"/><g transform="translate(-19688.215 -806.277)"><g stroke="#1e5c93" stroke-miterlimit="10"><path d="M19935.091 905.546h786.25v410.175h-786.25z" clip-path="none" fill="#34c3ff" stroke-width="27.282"/><g fill="#1e5c93" stroke-width="6.82"><path d="M20224.775 1315.721h206.857v76.572h-206.857z" clip-path="none"/><path d="M20139.755 1392.293h376.918v11.348h-376.918z" clip-path="none"/></g></g><path d="M20339.98 1217.653c-.649-.275-4.247-2.575-7.997-5.113-45.208-30.587-75.922-77.459-86.244-131.612-2.776-14.563-2.983-17.771-3.233-49.859-.211-27.017-.151-30.158.607-31.623 1.722-3.329 5.948-4.532 9.967-2.836 7.241 3.055 21.822 5.249 30.956 4.658 19.576-1.266 35.924-8.567 50.428-22.523 4.895-4.709 6.531-5.531 9.646-4.846 1.107.243 3.222 1.864 6.321 4.846 14.504 13.956 30.851 21.257 50.428 22.523 9.134.591 23.715-1.603 30.956-4.658 4.018-1.695 8.245-.492 9.966 2.836.758 1.466.819 4.606.607 31.623-.248 31.981-.4 34.34-3.202 49.601-9.973 54.333-41.663 102.231-88.04 133.069-6.195 4.119-8.652 4.98-11.166 3.914z" fill="#7c2869"/><path d="M20331.891 1126.908c-1.567-.96-9.779-8.29-18.251-16.287-16.214-15.308-18.099-17.996-16.94-24.166 1.627-8.674 11.902-13.62 19.054-9.173 1.566.974 7.233 5.93 12.594 11.013l9.748 9.243 12.821-12.204c22.112-21.048 23.566-22.171 28.721-22.167 10.368.013 16.639 9.938 11.817 18.71-1.958 3.562-43.835 43.362-47.76 45.392-3.653 1.889-8.369 1.745-11.804-.361z" fill="#1ead28"/></g></svg>