<svg xmlns="http://www.w3.org/2000/svg" width="1280" height="720" xmlns:v="https://vecta.io/nano"><defs><linearGradient id="A" gradientTransform="matrix(0,391.70768,391.3805,0,-613730.75,173985.12)" x1="-444.171" y1="1569.753" x2="-442.334" y2="1569.751" gradientUnits="userSpaceOnUse" spreadMethod="pad"><stop offset="0" stop-color="#ff7b54"/><stop offset="1" stop-color="#d64e4e"/></linearGradient></defs><path d="M0 0h1280v720H0z" fill="url(#A)"/><path clip-path="none" d="M0 611.222V720h1280V611.222z" fill="#ffc93c"/><path d="M436.9 610.822c-33.737 1.782-10.905-41.727-8.77-60.442 11.97-43.982 34.263-88.25 75.197-111.739 9.279-11.252 44.079-20.2 35.863-33.989-22.634-27.351-48.772-54.247-58.598-89.26 1.22-30.178 17.564-57.244 29.162-84.461 25.485-49.774 56.877-100.96 106.763-129.384 35.155-20.291 79.668-6.901 107.121 20.24 49.317 45.264 80.665 106.798 102.83 169.122 12.018 23.779-2.523 47.48-16.867 66.292-11.153 19.293-34.777 38.108-40.721 55.482 27.281 17.967 56.539 34.979 74.171 63.625 25.305 36.813 44.851 79.131 50.156 123.774 1.422 14.136-20.298 9.508-61.945 10.962-131.454.15-262.912.4-394.364-.224z" fill="#1e5c93"/><path d="M553.029 456.327c-18.483 0-21.492.971-25.137 8.113-1.438 2.819-1.504 5.686-1.504 65.359v61.306c-8 .187-12.787.409-13.299.735-6.431 4.091-5.851 15.306.945 18.266 1.982.863 27.852 1.062 142.358 1.087l139.936.031 2.699-1.817c6.84-4.603 5.102-16.574-2.713-18.687-.317-.086-4.706-.155-10.877-.217v-61.147l-.844-64.037c-1.15-3.044-4.58-6.575-7.672-7.898-2.128-.91-19.83-1.094-105.328-1.094z" fill="#34c3ff"/><path d="M617.147 454.539c4.324-3.623 5.414-6.646 5.417-15.029v-7.683l-6.749-3.59c-8.424-4.481-14.443-9.083-21.071-16.11-8.139-8.63-14.5-18.922-17.862-28.902l-1.74-5.165-8.273-.415c-8.779-.441-10.202-.91-13.586-4.483-3.079-3.25-3.825-5.876-3.825-13.458v-6.731l3.653-1.566c17.397-7.457 45.932-14.012 73.029-16.774 12.29-1.253 47.308-1.253 59.597 0 27.357 2.789 55.589 9.353 73.703 17.137l2.98 1.28v6.769c0 7.573-1.03 10.799-4.471 14.018-3.322 3.105-5.917 3.825-13.793 3.825h-7.036l-1.367 4.172c-6.565 20.037-23.278 38.707-43.856 48.993l-4.967 2.483v4.955c0 7.208 1.268 10.807 5.148 14.687l3.38 3.38-40.223-.007-40.223-.007z" fill="#bc9353"/><path d="M596.874 375.243c-1.936-1.523-2.08-2.107-2.293-9.337l-.226-7.712-11.323-.22-11.323-.221v-3.951-3.951h11.658c9.989 0 11.878-.199 13.193-1.391 1.365-1.236 3.86-1.418 22.458-1.637 17.678-.208 21.293-.055 23.304.985 1.309.677 2.58 1.861 2.824 2.63.396 1.245 1.628 1.399 11.181 1.399 7.249 0 10.737-.283 10.737-.87 0-.479.752-1.551 1.671-2.384 1.539-1.394 3.336-1.533 22.783-1.761 20.281-.238 21.199-.183 23.328 1.391 1.999 1.478 3.346 1.638 13.77 1.638h11.554v3.973 3.973h-11.05-11.051l-.273 8.018c-.396 11.604.746 11.053-22.889 11.053h-18.864l-3.256-2.359c-3.794-2.748-4.892-4.529-6.124-9.935-1.063-4.664-1.843-5.03-10.724-5.03-8.999 0-9.82.385-10.468 4.91-.669 4.679-3.27 8.625-7.108 10.782-2.695 1.514-4.217 1.632-21.163 1.632-17.189 0-18.381-.095-20.325-1.625zm18.384 205.647c-2.071-4.894-.545-10.393-.845-15.503 1.919-4.199 6.508-6.305 9.577-9.605 1.543-4.165-.999-10.457.686-15.453-3.099-1.619-5.872-7.065-9.635-4.692-3.306 3.004-10.196-1.121-5.476-4.334 4.261-4.56 10.88-4.732 14.632.518 3.525 5.424 7.958-2.255 9.468-5.838 1.428-6.485-7.164-5.91-10.772-8.608-4.125-3.005-1.428-9.014-2.154-13.323-.715-4.385-4.937-7.312-6.246-11.582.642-7.368 8.695-.642 9.529 3.517 1.886 2.404 3.671 4.994 3.098 8.166v8.133c3.399.404 8.125 5.362 10.498 2.274 3.165-3.422 7.066-6.34 5.625-11.618-1.094-3.9 3.508-7.137 2.746-10.005-4.63-1.788-2.556-9.6 2.224-6.517 3.414 3.102 8.418 8.631 12.426 2.769 1.703-4.39 10.039-4.754 7.58 1.086-2.866 2.573-2.764 5.392-.07 8.166 2.167 3.95-1.611 10.036 3.178 12.509 2.407 3.379 5.1 6.325 9.075 3.141 5.828-.402 4.553-5.624 4.498-9.987-.471-5.445 4.404-9.291 6.994-13.652 3.517-4.842 7.85 2.339 4.123 5.594-3.602 3.634-5.657 8.218-4.647 13.4 1.576 6.04-3.239 9.375-8.53 10.584-6.341.565-5.386 7.897-1.47 10.922 2.247 3.995 5.102 3.098 7.639-.089 3.613-4.775 9.184-3.302 13.309.052 4.854 4.471-2.754 7.521-6.273 4.318-3.761-.928-6.307 3.413-8.597 5.633 1.774 4.917-1.39 11.294.913 15.176 3.786 4.017 10.74 6.841 9.378 13.371.03 3.805 1.511 14.958-5.054 11.421-2.756-3.301-.971-7.521-1.34-11.362.691-3.681-4.71-6.667-6.977-7.195-3.089 3.62-5.704 7.74-9.852 10.297-10.128 7.295-24.555 8.09-35.182 1.366-4.816-2.858-8.857-7.008-11.567-11.909-3.828 1.332-8.273 4.943-7.071 9.548-.284 3.404 1.497 9.876-3.534 10.263a3.15 3.15 0 0 1-1.906-.954zm42.988-19.268c4.972-6.044-9.362-6.848-4.569-.103 1.151 1.279 3.409 1.509 4.569.103zm0-9.634c1.194-4.466 3.154-13.297-2.475-14.926-4.909 2.06-2.816 9.395-2.652 13.68.712 2.174 3.528 3.051 5.127 1.246z" fill="#7c2869"/><rect width="43.75" height="8.984" x="633.762" y="407.274" ry="4.492"/></svg>