<svg xmlns="http://www.w3.org/2000/svg" width="1280" height="720" xmlns:v="https://vecta.io/nano"><style><![CDATA[.B{clip-path:none}.C{stroke-width:5.312}.D{stroke-miterlimit:10}]]></style><defs><linearGradient id="A" x1="638.349" y1="733.525" x2="638.349" y2="-21.817" gradientUnits="userSpaceOnUse" spreadMethod="pad"><stop offset="0" stop-color="#1ead28"/><stop offset="1" stop-color="#248029"/></linearGradient></defs><path d="M0 0h1280v720H0z" fill="url(#A)"/><path d="M494.272 254.501h288.245V517.36H494.272z" fill="#1e5c93" class="B"/><path d="M750.38 217.005c8.964 59.647-32.143 115.224-91.765 124.187-59.659 8.951-115.252-32.129-124.204-91.738-8.964-59.647 32.125-115.224 91.748-124.191 59.66-8.951 115.251 32.129 124.221 91.742" fill="#f6c" class="B"/><path d="M617.589 150.711c-17.666 49.344-65.225 85.91-122.667 91.226-.415 4.147-.65 8.349-.65 12.564 0 74.276 64.711 134.49 144.538 134.49 79.81 0 144.539-60.214 144.539-134.49 0-4.851-.298-9.633-.832-14.364-9.001 1.634-18.32 2.534-27.822 2.534-63.844 0-117.966-38.533-137.106-91.96" fill="#bc9353" class="B"/><path d="M638.81 120.032c-75.276 0-137.087 53.525-143.888 121.905 57.442-5.316 105.001-41.882 122.667-91.226 19.14 53.427 73.262 91.96 137.106 91.96 9.502 0 18.821-.866 27.822-2.534-7.72-67.51-69.11-120.104-143.707-120.104" fill="#1e5c93" class="B"/><path d="M642.061 465.4l-14.666-1.02c-15.739-1.131-27.658-14.778-26.524-30.563l-1.963-113.803 71.707 5.047 1.964 113.808c-1.113 15.747-14.782 27.645-30.555 26.532" fill="#bc9353" class="B"/><path d="M598.99 265.585c0 7.73-6.271 14.015-14.02 14.015a14.03 14.03 0 0 1-14.017-14.015c0-7.752 6.281-14.015 14.017-14.015a14.01 14.01 0 0 1 14.02 14.015m93.049 0c0 7.73-6.288 14.015-14.021 14.015a14.02 14.02 0 0 1-14.021-14.015c0-7.752 6.268-14.015 14.021-14.015a14.02 14.02 0 0 1 14.021 14.015" class="B"/><g fill="none" class="C D"><path d="M710.023 259.185c0 17.663-14.339 31.997-32.005 31.997s-32.002-14.335-32.002-31.997 14.332-31.997 32.002-31.997 32.005 14.331 32.005 31.997m-93.048 0c0 17.663-14.335 31.997-32.005 31.997-17.653 0-32.004-14.335-32.004-31.997s14.351-31.997 32.004-31.997c17.67 0 32.005 14.331 32.005 31.997" class="B" stroke="#7c2869"/><path d="M610.155 310.031c0 14.296 11.621 25.913 25.937 25.913 14.305 0 25.924-11.617 25.924-25.913m-31.373-10.632a10.94 10.94 0 0 0 10.92-10.917c0-6.015-4.903-10.9-10.92-10.9" class="B" stroke="#000"/><path d="M646.045 259.053a14.53 14.53 0 1 0-29.07 0" stroke="#7c2869" class="B"/></g><path d="M511.207 417.383c-23.131 0-26.897 1.216-31.458 10.154-1.801 3.528-1.883 7.116-1.883 81.798v76.725c-10.013.234-16.003.512-16.645.92-8.049 5.12-7.321 19.156 1.183 22.861 2.48 1.08 34.857 1.329 178.163 1.36l175.132.039 3.379-2.274c8.56-5.76 6.385-20.742-3.395-23.387-.397-.108-5.89-.194-13.613-.271V508.78l-1.057-80.143c-1.439-3.81-5.731-8.228-9.602-9.884-2.662-1.139-24.817-1.369-131.819-1.369z" fill="#7c2869"/><path d="M638.824 566.631c-.31-.131-2.021-1.226-3.806-2.433-21.514-14.556-36.13-36.862-41.043-62.633-1.32-6.93-1.418-8.457-1.538-23.727-.09-12.857-.07-14.352.29-15.049.818-1.584 2.83-2.157 4.741-1.35 3.447 1.454 10.386 2.498 14.732 2.217 9.316-.602 17.095-4.077 24-10.718 2.328-2.241 3.106-2.632 4.588-2.306.527.115 1.535.887 3.009 2.306 6.902 6.642 14.682 10.116 23.998 10.718 4.347.281 11.286-.763 14.731-2.217 1.913-.807 3.925-.234 4.743 1.35.361.697.39 2.192.29 15.049-.117 15.219-.191 16.342-1.524 23.605-4.746 25.856-19.826 48.65-41.898 63.326-2.948 1.961-4.117 2.37-5.313 1.863z" fill="#1ead28"/><path d="M633.873 523.446c-.746-.457-4.654-3.945-8.686-7.751-7.716-7.285-8.613-8.564-8.06-11.5.774-4.128 5.664-6.482 9.067-4.365.746.464 3.442 2.822 5.994 5.241l4.639 4.399 6.1-5.808c10.524-10.017 11.215-10.551 13.668-10.549 4.934 0 7.919 4.729 5.624 8.904-.931 1.695-20.86 20.636-22.728 21.601-1.738.899-3.983.831-5.618-.172z" fill="#fff"/><path d="M0 611.222V720h1280V611.222z" fill="#34c3ff" class="B"/></svg>