<svg xmlns="http://www.w3.org/2000/svg" width="1280" height="720" xmlns:v="https://vecta.io/nano"><style><![CDATA[#O,#G,#J,#M,#D,#K,#C,#P,#E,#B,#H,#N,#F,#L,#T,#Q,#S,#I,#R{transform-box: fill-box;transform-origin:center center;animation-name:example;animation-duration:18s;animation-iteration-count:infinite;animation-timing-function:linear}@keyframes example{0%{transform:rotate(0deg)}100%{transform:rotate(360deg)}}.B{fill-opacity:1}.C{fill:#1e5c93}.D{fill:#ff7b54}.E{fill:#ffc93c}.F{fill:#bc9353}]]></style><defs><linearGradient id="A" gradientTransform="matrix(0,-292.41269,-292.16951,0,326431.43,-113421.84)" x1="-388.15" y1="1186.15" x2="-385.51" y2="1186.15" gradientUnits="userSpaceOnUse" spreadMethod="pad"><stop offset="0" stop-color="#3291ff"/><stop offset="1" stop-color="#35c2ff"/></linearGradient></defs><path d="M-20760.442-668.712h1280.001v720h-1280.001z" clip-path="none" transform="matrix(.999999 0 0 .999999 20760.439825 668.711462)" fill="url(#A)"/><path d="M1192.479 124.835c1.891-5.125-5.648-9.16-7.705-3.376-1.646 4.605-6.668 6.518-10.021 2.507-2.351-4.03 2.996-7.396 2.899-11.213-1.228-4.589-5.969-2.816-8.721-.777-3.783 3.365-9.352-1.472-7.653-5.629 1.936-3.592 9.952-4.628 6.86-9.951-2.957-3.094-8.01-.242-11.304-2.395-.361-2.647-.071-5.462-.165-8.185 3.939-.891 12.931 1.765 12.022-4.901-1.116-4.154-7.816-4.395-7.747-8.769.878-3.608 4.021-7.053 7.5-3.999 3.026 2.66 7.998 4.027 9.442-1.038-.873-3.611-6.403-8.746-1.774-11.837 3.739-3.993 7.166.864 8.822 4.255 1.973 5.039 9.215 1.765 7.59-3.113-.737-3.79 1.018-7.385 5.369-6.492 6.179-1.403 2.751 6.254 4.557 9.474 2.454 5.955 8.206-.363 9.306-3.985 2.362-3.869 9.172.322 8.454 4.164-3.125 2.69-5.408 11.886 1.264 10.666 3.167-1.298 8.953-6.141 10.604-.583 3.796 3.414-.149 6.743-3.629 7.896-4.838 1.807-3.546 8.203 1.654 7.769 3.768.012 9.105-.079 7.745 5.131.6 2.792.227 5.166-3.289 4.38-3.344-.024-10.109-.343-9.176 4.558 1.027 4.339 8.659 4.078 8.132 8.735-1.293 3.709-4.299 7.616-8.111 3.881-3.205-3.701-10.633-1.904-7.942 3.621 1.872 3.347 5.414 8.474-.444 10.103-6.021 3.577-6.196-6.398-11.171-7.224-6.059.158-3.23 8.367-4.248 12.243h-8.608l-.516-5.915zm15.936-34.461c.638-8.143-9.389-14.765-16.527-10.475-6.505 3.268-8.653 13.156-3.133 18.308 4.764 5.232 14.433 4.605 17.956-1.746 1.124-1.815 1.737-3.95 1.704-6.087z" id="B" class="B F"/><path d="M314.792 104.056c1.741-4.029-1.925-12.778-6.712-8.383-3.058 1.79-3.945 9.959-7.939 6.784-3.3-1.271-6.208-3.719-3.451-7.277 2.831-3.323 3.718-11.457-2.85-9.069-3.431.786-8.198 6.324-10.378.867-1.689-2.426-3.381-5.5.619-6.58 2.856-1.791 8.598-4.762 5.385-8.724-3.054-2.264-7.093-1.341-10.638-2.058-2.539-.532-.682-5.227-1.488-7.4 1.981-3.096 9.898.017 12.807-3.445 1.433-4.568-4.075-6.634-6.911-8.912-4.195-1.657.737-5.914 2.078-8.425 3.764-.737 8.471 5.537 11.784 3.686 4.941-3.1-.511-7.71-1.262-11.808-1.912-3.636 4.227-4.149 6.313-6.187 2.937 3.072 4.736 9.881 9.775 9.172 3.441-2.385 2.322-7.267 3.184-10.866 1.008-2.652 5.844-1.053 8.448-1.768 1.083 3.978-.552 9.6 2.852 12.399 4.841 1.26 6.81-4.911 9.235-7.962 2.016-1.65 6.175 1.954 7.485 3.95.109 3.929-3.559 6.746-4.065 10.441 2.135 4.27 5.889 2.465 9.177.593 2.815-1.55 5.811-2.959 7.033 1.025 1.359 2.259 3.92 4.758.031 5.892-3.067 2.711-10.186 4.449-6.002 9.391 3.173 1.745 7.43.696 11.013 1.726 1.225.539.274 2.978.574 4.324v4.323c-3.95.951-9.261-.617-12.204 2.592-1.974 5.104 5.23 6.515 7.743 9.387.93 3.661-2.694 10.038-6.778 6.737-2.85-.62-6.375-4.818-8.842-1.845-4.475 2.891 2.289 7.384 2.354 11.388.608 3.689-8.129 7.142-9.352 1.988-1.137-3.784-8.091-8.823-9.15-2.436-1.467 2.602 1.079 8.976-2.339 9.253h-7.072l-.46-2.771zm12.519-25.683c9.585-5.134 9.344-20.82-.077-26.02-6.43-4.114-15.805-2.487-20.118 3.939-4.583 6.042-4.001 15.49 1.976 20.417 3.79 3.912 9.806 5.019 14.851 3.104 1.17-.355 2.309-.825 3.368-1.44z" id="C" class="B F"/><path d="M695.014 240.165c-2.246-5.322 3.298-17.137-5.747-16.671-3.459-1.381-3.052 2.909-4.092 5.076-1.055 3.456-2.264 6.862-3.397 10.293-7.819.935-5.235-6.696-3.945-11.361.862-3.442 2.347-7.81-3.017-8.205-7.104-1.935-6.895 14.543-14.144 11.684-4.928-3.194 1.7-8.667 2.924-12.743 1.637-2.435 2.877-4.772-.693-5.924-2.336-2.896-4.765-1.59-6.907.858-3.801 3.308-8.418 10.939-12.658 4.095-.536-1.875 3.167-3.898 4.31-5.832 4.753-2.93 8.455-11.148.645-12.196-5.317 2.371-16.089 11.163-15.868.813l13.198-8.248-2.948-7.095c-5.19 1.035-10.437 3.001-15.618 3.231-6.292-8.148 7.44-7.487 12.021-10.251 2.308-1.889 1.99-9.635-2.416-8-2.363-2.324-13.433 2.324-13.107-3.054-.315-6.459 8.601-3.644 12.886-4.331 3.976 1.316 3.508-2.478 3.866-5.261.573-7.135-17.825-2.808-14.337-11.16 3.925-6.187 16.113 6.506 18.586-3.063 2.447-2.919-1.219-3.867-3.251-5.341l-9.656-6.226c2.057-8.496 9.897-1.78 14.807.615 2.985 3.864 7.994-3.021 6.676-5.312l-10.299-11.344c4.077-6.726 9.115-.839 13.002 3.267 2.136 5.383 9.398 1.104 8.911-2.332-1.969-4.501-5.195-8.668-5.991-13.513 4.996-6.331 8.19 3.046 10.934 6.67 1.431 2.196 2.53 5.516 5.379 2.919 6.705-1.575 2.032-8.652 1.542-13.26-1.079-3.007-1.714-5.709 2.545-5.448 7.527-.364 2.735 17.222 11.621 14.465 3.547.422 4.33-1.566 3.744-4.747V91.471c5.057-1.899 8.41.288 7.126 6.248l.468 9.715c6.246 2.176 9.68-1.856 10.177-8.203-.809-5.452 6.148-8.41 7.986-3.345-.215 5.78-6.5 15.071 2.172 16.822 2.644 1.76 3.215-3.238 4.867-4.715 1.785-2.697 3.295-5.612 5.267-8.162 8.85.827 3.269 8.09.659 12.653-.87 2.208-4.058 4.894-.495 6.188 2.078 1.615 4.2 4.46 6.102 1.102l10.003-9.144c6.074 3.421 2.443 8.318-2.027 11.588-2.395 2.468-5.984 5.418-2.183 8.212 1.249 3.366 3.394 2.834 5.854.931 4.146-1.365 9.797-8.143 12.677-2.696 2.952 2.593-.154 3.74-2.397 5.092l-9.968 6.328c1.052 5.524 4.129 8.27 9.857 5.301 4.198-1.297 11.37-3.28 10.294 3.799-4.671 4.041-17.25 1.782-14.905 10.757 2.592 4.223 9.018 1.768 13.441 2.365 3.526-1.023 3.836 1.17 3.389 4.119 1.148 3.791-1.796 3.49-4.656 3.273-4.418.572-12.446-2.366-12.419 4.338-.801 7.721 15.403 3.626 14.824 10.761-2.063 7.952-12.421-1.631-17.647 1.084-5.569 6.584 3.778 9.15 7.892 12.375 2.298 1.324 5.113 2.526 2.307 5.066-2.98 5.516-8.796-1.493-13.066-2.866-2.746-2.573-4.753-1.396-6.312 1.667-3.927 6.292 13.407 11.195 7.06 17.326-1.892 3.509-3.852.178-5.795-1.468-3.802-2.609-7.825-10.581-12.245-5.295-3.514 1.366-.707 3.985.276 6.242 1.972 4.607 8.454 11.075.556 13.216-3.452-1.055-4.997-7.01-7.665-10.175-.873-5.314-9.407-2.492-8.295 1.859.57 5.229 6.559 16.258-3.298 14.793-2.095-4.985-3.427-10.253-5.093-15.392-2.192.559-5.518.046-7.049 1.23l-.994 15.656c-1.771.896-4.408.66-6.251.047zm-.565-28.449c1.014-10.294 1.014-20.765.17-31.076-1.523-2.67-5.339-7.427-8.446-4.163-8.898 5.413-18.546 9.851-26.548 16.534.453 6.847 8.547 10.845 13.727 14.555 6.072 3.203 12.953 7.194 20.008 6.043l.585-.698zm15.847 1.155c10.472-2.829 20.376-9.133 26.542-18.084-2.429-6.182-10.718-7.979-15.897-11.796l-13.19-7.552c-2.063 1.381-5.136 2.155-6.576 3.911.25 10.68-.65 21.454.752 32.055.842 4.185 5.725 2.015 8.37 1.466zm-39.066-35.067l14.19-8.149c-.333-2.464.288-5.502-.631-7.613-9.62-5.362-18.888-11.485-29.048-15.778-7.15 3.084-5.62 16.028-6.091 23.207.985 4.9.94 19.794 9.1 15.085 4.237-2.103 8.373-4.41 12.48-6.751zm72.69 4.264c4.002-11.382 3.879-24.336-1.398-35.286-6.501-1.371-12.707 5.714-18.775 8.107l-12.962 7.526c.268 2.344-.514 5.295.367 7.285 9.682 5.317 18.906 11.589 29.027 16.013 2.5.904 3.088-2.005 3.741-3.645zm-21.677-33.827c4.285-3.836 15.609-5.902 14.271-12.345-6.863-8.325-16.088-14.567-26.605-17.196-10.593-5.57-8.46 9.069-8.722 15.319l-.014 19.225c4.996 3.858 9.335 3.222 14.194-1.025l6.876-3.979zm-30.125 6.482c3.179-.684 3.572-3.04 3.128-5.896-.278-10.08.729-20.371-1.54-30.248-7.433-2.259-16.738 3.255-23.366 7.324-4.471 3.254-8.205 7.357-12.179 11.172 3.859 5.186 10.452 7.443 15.567 11.17 5.708 1.964 12.222 10.786 18.39 6.479z" id="D" class="B C"/><path d="M106.509 329.073c1.724-4.595-4.445-11.221-7.79-5.606-3.102 2.276-4.361 11.16-8.766 6.813-3.625-1.353-6.327-4.154-3.496-7.876.825-3.184 5.486-7.334 1.43-9.908-4.534-2.77-8.678 2.541-12.964 3.533-2.083-.442-7.886-7.28-3.392-9.593 2.846-2.459 8.805-4.162 7.638-8.854-1.182-4.743-7.334-2.162-10.963-3.446-3.12.766-2.291-2.199-2.496-4.187l-.256-5.804c4.431-1.279 12.265 1.35 14.03-3.6.153-5.169-5.779-6.807-9.049-9.61-1.756-2.021 1.571-8.273 4.75-8.848 4.101 1.112 8.469 6.643 12.803 3.529 4.335-2.961-1.22-7.354-1.897-10.935-2.959-4.273 2.128-5.809 5.11-7.567 3.614-1.401 4.862 6.136 7.967 8.025 3.996 4.832 8.456-1.497 7.337-5.939.192-3.78-.389-8.163 4.724-6.72 6.847-1.521 6.13 6.021 6.418 10.589 1.749 6.492 8.954 2.449 10.028-2.208 1.406-2.813 3.671-6.235 6.627-2.695 3.092 1.458 6.561 3.018 3.485 6.54-2.678 3.575-5.606 11.748 1.209 11.766 3.883-.702 9.785-7.078 12.293-2.584 3.668 3.502 2.718 8.419-2.057 9.973-4.918 1.223-7.574 8.834-.879 9.311 3.097 1.412 10.584-1.281 10.055 3.72-.244 3.149 2.069 8.605-3.066 7.423-4.154.271-13.789-.199-10.458 6.46 1.987 4.09 10.443 4.234 8.412 9.92-.988 5.444-5.917 6.38-9.764 2.978-3.116-2.112-8.041-3.606-8.855 1.615-.457 4.445 4.629 7.544 3.987 12.042-2.514 3.281-8.793 5.869-10.927.503-.762-4.335-7.885-9.633-9.997-3.434.102 5.103.057 13.304-7.463 11.269-5.113 1.388-2.926-3.426-3.768-6.597zm11.703-23.972c8.79-3.674 13.823-15.205 8.842-23.761-4.267-8.99-16.87-12.077-24.926-6.315-7.738 5.146-9.91 16.808-4.173 24.228 4.413 6.426 13.131 8.371 20.257 5.848z" id="E" class="B C"/><path d="M804.037 469.376c1.872-5.158-5.53-9.437-7.79-3.628-1.479 3.304-4.283 7.753-7.953 4.125-5.269-2.088-1.162-6.849.185-10.055 2.223-6.212-5.777-6.192-8.821-2.954-3.824 3.668-7.345-2.015-7.217-5.571 1.89-3.462 9.826-4.51 7.537-9.996-2.976-3.467-8.303-.591-11.499-3.331-.599-2.015-.114-4.31-.271-6.439 2.126-3.141 8.794.428 11.686-2.99 2.611-5.322-5.445-6.798-7.325-10.434-.793-5.433 5.421-8.344 9.125-4.48 1.979 1.528 5.029 2.877 6.567.192 3.537-2.43-1.865-6.108-2.28-9.079-1.838-4.344 5.443-8.457 8.197-4.557.276 4.4 7.161 9.173 9.591 3.853.905-3.147-1.367-9.833 3.526-9.893 4.657-1.119 6.473 3.529 6.228 7.408-.814 4.988 5.482 6.846 7.587 2.179 1.325-3.835 5.116-7.233 8.754-3.541 4.918 2.166-.68 6.804-1.206 10.288-1.604 4.981 5.375 5.685 7.98 2.72 3.447-2.824 7.234-.699 8.148 3.235 1.729 5.213-8.241 4.612-8.084 10.138 1.123 4.378 6.661 3.488 10.129 3.961 2.885.844 3.891 9.717-.842 8.925-3.421-.183-10.843-.47-8.876 4.844 1.36 4.207 10.269 4.477 7.355 9.607-1.075 3.819-4.575 5.571-7.659 2.451-3.862-3.92-10.884-.608-7.428 4.812 2.079 3.331 4.107 7.723-1.034 9.191-5.203 3.612-5.876-5.295-9.854-6.899-6.255-2.282-5.31 6.62-5.172 10.375-.692 2.299-4.349.641-6.422 1.098-3.968 1.024-2.048-3.071-2.863-5.554zm13.634-27.422c5.341-5.92 1.738-16.709-6.047-18.35-6.218-1.854-13.479 2.48-14.31 9.038-1.462 6.814 4.293 14.132 11.386 13.798 3.454-.09 6.785-1.836 8.971-4.486z" id="F" class="B C"/><path d="M1129.878 683.392c-7.559-5.314.642-21.925-13.816-20.907-9.713-.199-10.6 17.938-21.4 10.962-8.491-2.446-11.223-10.589-5.273-17.234 5.284-7.752-5.741-18.643-13.221-13.32-5.881 5.16-13.126 6.158-15.726-2.775-6.384-7.737.079-14.856 7.386-17.404 6.641-9.276-3.4-20.152-13.437-16.377-7.844-.379-4.453-8.8-5.059-13.895-1.089-5.421.8-9.109 7.258-7.393 9.248 3.18 18.003-8.905 11.62-15.922-9.202-3.595-14.846-13.94-5.813-21.295 7.725-10.928 16.395 8.721 24.436-.862 10.047-6.664-1.963-15.053-.767-23.077 4.855-5.931 16.831-12.15 21.268-1.991 2.607 13.946 24.771 4.188 18.885-7.587-.22-9.585 12.759-7.593 18.745-6.592 4.38 7.173 1.274 23.774 15.016 20.597 8.509-2.224 9.77-18.148 20.588-10.194 8.85 3.618 8.595 11.96 3.262 18.442-3.806 8.677 9.345 17.563 16.071 10.347 8.87-9.166 17.134 6.579 16.342 14.67-3.307 5.817-17.371 7.355-11.336 17.238 2.129 11.223 21.336.839 20.086 11.104 2.367 8.238.315 19.462-10.738 15.879-8.752-.029-14.729 13.462-6.336 18.256 7.591 2.751 11.886 8.821 5.711 15.945-3.17 9.098-12.586 7.202-17.937 1.713-8.744-1.611-17.652 10.45-9.602 17.151 8.176 8.828-5.435 14.304-12.397 16.306-8.164-.908-7.549-16.229-18.621-12.144-11.515 1.356-4.576 14.77-9.96 20.708-4.725.997-10.249-.521-15.234-.347zm19.891-37.628c25.969-6.222 44.23-34.82 37.935-60.987-5.162-25.506-31.603-44.637-57.508-40.631-24.466 2.686-44.74 25.1-44.999 49.723-1.327 25.403 18.77 49.686 44.024 52.996 6.834.991 13.852.559 20.548-1.101zm-21.706-1.391c-28.801-3.935-48.694-37.41-38.372-64.612 7.647-23.297 33.913-38.97 58.011-33.023 24.127 5.185 42.536 30.008 38.737 54.726-2.762 22.969-22.828 42.844-46.238 43.769-4.059.276-8.162.016-12.138-.86zm23.443-4.531c25.835-7.445 39.871-40.145 27.778-64.109-10.193-22.579-39.934-33.868-62.237-22.478-20.213 9.474-31.739 34.321-24.909 55.771 6.846 23.609 34.319 39.209 57.961 31.233z" id="G" class="D"/><path d="M404.987 506.984c-2.147-5.543-1.921-15.538-8.492-17.427-11.815-2.355-22.313-8.487-33.031-13.493-8.157 2.148-14.991 7.652-21.985 12.241l-16.817-16.807c4.877-7.286 9.771-14.65 12.889-22.895-6.471-10.222-10.952-21.5-14.255-33.103-5.134-6.847-15.822-6.602-23.721-9.016-4.409-.542-1.024-7.423-2.083-10.689-2.423-10.45 2.13-16.571 12.981-16.191 14.452-.053 15.342-13.783 19.599-24.168 7.132-9.525 8.902-19.902.462-29.347-1.163-4.041-9.151-8.438-2.93-11.658l14.001-14.001c7.179 5.122 14.767 9.982 23.199 12.688 10.99-4.788 21.601-10.872 33.597-12.962 4.497-8.037 6.34-17.109 8.204-26.032 7.702-1.75 15.946-.6 23.887-.924 1.568 9.004 3.805 17.986 7.531 26.356 11.955 3.093 23.143 8.331 34.272 13.547 8.636-2.514 15.915-8.053 23.446-12.784l16.926 16.926c-4.894 7.933-13.72 16.425-11.825 26.024 6.011 9.535 9.732 20.292 13.077 30.938 5.905 7.29 21.745 3.403 25.313 9.884-.282 7.348.714 14.883-.718 22.082-9.638 3.266-25.882 2.357-26.678 15.793-2.612 9.581-7.387 18.331-12.037 27.037 3.6 7.906 7.828 15.521 12.961 22.54l-16.95 16.95c-7.05-5.057-14.553-9.45-22.494-12.956-10.87 6.402-22.504 12.109-34.914 14.615-8.301 6.821-1.262 27.734-15.95 24.78l-15.919.002-1.547-7.952zm29.156-36.104c35.429-6.855 63.243-41.134 61.886-77.345-.407-36.398-29.199-70.493-65.731-74.961-32.069-5.717-65.763 11.946-80.529 40.712-17.205 32.133-7.788 75.66 21.696 97.304 17.644 13.73 40.836 18.819 62.678 14.289zm-25.762-2.265c-35.898-4.614-65.823-38.094-64.537-74.549-1.161-37.366 30.524-71.496 67.563-74.381 34.731-3.964 69.792 19.966 79.088 53.613 9.051 29.917-3.097 64.374-28.862 82.057-15.309 11.682-34.462 14.713-53.252 13.261zm24.039-6.823c31.75-6.103 57.411-37.244 54.596-69.931.347-32.201-26.688-61.787-58.481-65.712-36.702-6.862-74.512 22.452-78.453 59.273-4.563 33.437 18.474 68.203 51.572 75.906 10.009 2.475 20.661 2.192 30.766.464zm-17.755-50.305c-13.723-2.736-18.61-22.716-6.866-30.987 12.423-10.832 33.194 3.412 27.571 18.936-2.577 8.426-12.002 14.358-20.706 12.051z" id="H" class="C"/><path d="M544.96 494.93c0-1.017.166-1.433.374-.924a2.87 2.87 0 0 1 0 1.848c-.204.508-.374.091-.374-.924zm47.462-1.941c0-1.017.166-1.432.374-.924a2.87 2.87 0 0 1 0 1.848c-.204.508-.374.091-.374-.924z" class="F"/><path d="M1112.152 442.536c-.487-2.776.069-9.685-4.65-7.321-2.562 1.293-3.08 5.522-6.039 5.801-2.872-1.011-5.742-3.153-3.265-6.254 1.72-2.22 3.059-7.6-1.462-6.825-2.9.001-5.996 4.668-8.44 1.463-1.104-1.999-3.645-4.708-.049-5.677 2.322-1.223 7.457-4.956 3.368-7.115-2.412-1.264-6.102-.325-7.951-1.891v-5.794c3.097-.728 8.45.401 9.541-3.393-.717-3.089-4.233-4.223-6.47-6.075-1.3-1.552 1.929-4.142 2.521-6.114 3.38.453 6.692 4.77 10.03 2.54 1.925-2.906-1.253-5.968-1.934-8.816-.607-2.42 5.866-6.052 6.796-1.962 1.709 1.6 2.492 6.02 5.335 4.75 3.777-1.587 1.363-6.132 3.013-8.78 1.44-1.517 6.935-2.448 6.677.389.12 2.826-.907 7.37 2.674 8.383 3.118-.104 4.083-3.559 5.754-5.652.802-2.428 3.257-.066 4.754.446 4.466 1.023-.37 5.089-.952 7.78-1.713 1.832 2.252 5.794 4.092 3.707 2.624-1.468 6.487-4.101 8.162.038 2.855 4.317-3.903 4.964-5.351 7.995-1.819 3.796 3.04 4.574 5.704 4.39 2.216-.077 4.813.136 3.963 2.918v3.781c-3.28.868-8.224-.488-10.11 2.924-.4 3.637 4.042 4.594 6.31 6.418 1.448 1.484-1.547 4.465-2.427 6.3-3.221-.593-6.703-4.731-9.826-2.254-1.918 2.974 1.297 5.949 2.263 8.698.469 1.971-3.605 2.866-5.291 3.886-2.832-1.827-3.66-7.712-7.808-6.607-2.77 1.784-1.79 5.447-1.933 8.252.605 2.495-3.042.912-4.493 1.307-1.039-.134-2.444-.265-2.505-1.637zm8.46-19.96c4.58-1.886 7.313-7.02 6.529-11.882-.603-6.375-7.096-11.777-13.527-10.147-6.557 1.181-11.403 8.397-9.34 14.882 1.585 5.17 7.054 9.15 12.493 8.589 1.355-.251 2.622-.826 3.845-1.443z" id="I" class="B E"/><path d="M996.415 339.421c.527-4.792-1.202-8.338-6.177-8.501-2.282-.172-5.408-2.941-6.643.107l-5.139 6.21-16.461-9.59c-.177-3.424 3.796-7.16 2.832-10.179l-6.687-7.272c-3.268 1.341-6.576 2.574-9.921 3.709-1.812-5.881-11.24-13.112-7.406-18.708 6.835-2.347 8.022-11.712 2.076-15.088-8.039 1.408-10.413-5.127-9.046-11.879v-9.4c3.936-.649 8.517-.061 11.919-2.033.19-2.671 4.178-7.183 1.245-9.142l-8.653-6.788 9.868-16.794c4.347 1.193 8.415 3.235 12.604 4.891 4.059-3.15 7.234-7.48 3.326-12.326-5.914-7.083 3.931-9.476 8.737-12.718 7.713-8.149 9.428 5.853 15.902 7.176 2.64-.817 7.444-.071 6.615-4.207l1.466-11.068h19.606c.88 4.622 1.325 9.308 1.827 13.982 4.091.939 9.295 3.04 11.13-2.37 2.878-5.161 6.988-8.376 11.937-3.102 5.603 3.041 13.441 6.311 7.503 13.43-.229 2.138-3.626 5.018-.959 6.479 4.075 6.04 10.186 2.714 15.554.436 4.595-.203 5.675 7.446 8.576 10.829.457 2.018 4.467 4.651 1.671 6.107-4.178 3.599-11.244 7.244-6.678 13.609 1.992 3.932 7.791 2.637 11.629 3.651 2.492.417.687 4.693 1.325 6.775-.605 4.477 2.471 11.461-2.631 13.522-5.566.227-12.246 1-10.804 9.012.729 6.046 13.153 7.701 5.099 14.756l-6.38 11.078c-4.045-1.209-9.116-5.476-12.616-1.176-1.235 2.307-5.731 4.066-3.767 6.971 4.472 5.928-.037 10.965-6.117 12.89l-7.96 4.515c-2.909-3.582-5.637-9.874-11.209-6.458-6.27-.108-6.66 5.58-6.915 10.38-.511 2.296-4.702.471-6.743 1.054h-13.07l-.466-2.77zm21.071-33.425c16.872-4.659 27.972-22.652 25.493-39.819-1.643-19.08-20.645-33.825-39.472-31.694-19.512 1.44-35.575 20.582-33.146 40.088 1.33 17.976 17.696 33.354 35.848 32.893 3.799.036 7.635-.361 11.278-1.469z" id="J" class="B E"/><path d="M278.886 282.638c2.943-9.524-12.406-10.208-10.779-.398-5.385 5.999-11.405-3.605-7.401-8.68-3.816-8.904-10.103.111-13.072 4.107-9.57-1.648-2.113-10.004-3.678-15.502-5.27-8.269-10.48 9.105-15.104 1.251-8.521-4.712 10.119-10.507.63-15.115-5.08-2.966-11.677 6.579-14.137-2.381-1.921-5.56 12.32-6.407 5.766-13.479-3.843-2.62-14.056 3.735-13.054-6.056 1.193-5.451 13.702-2.57 9.002-10.726-4.463-3.436-14.946-.889-10.657-10.119 3.933-2.501 14.055.565 10.814-7.433-3.968-3.672-14.368-6.574-6.261-12.731 4.395-.644 11.686 3.935 11.872-4.164-2.941-4.323-12.744-8.085-4.479-13.435 5.153.398 12.86 6.197 13.804-2.732-3.513-3.846-8.678-8.58-1.858-12.131 3.841-1.895 13.079 11.472 14.001-.529-2.337-4.906-3.68-13.404 4.77-10.482 2.911 3.866 9.23 10.293 11.933 2.447-4.317-5.288 1.562-14.608 6.919-9.086-.469 6.827 10.346 11.917 10.762 2.831-2.381-8.118 11.393-9.555 9.1-.979-.978 10.452 12.428 4.814 11.439-2.609 9.624-3.697 7.207 6.197 6.576 11.712 7.24 8.292 10.074-9.84 16.678-4.197 5.149 4.609-6.703 16.816 5.376 15.267 3.533-2.916 7.167-8.378 10.357-2.531 6.936 3.749-6.621 8.155-3.349 12.364 2.589 10.09 14.861-6.704 16.078 5.095-.585 5.124-12.635 9.825-3.674 14.027 5.424-1.164 14.347-.498 9.443 7.315-4.372 1.368-12.21 6.005-5.052 10.225 4.106 2.136 11.498-.631 8.804 6.822-1.005 5.509-15.93-.037-10.966 9.738 5.171 1.806 13.99 9.265 4.695 12.125-5.015-2.975-13.403-.672-9.372 6.368 9.363.917 5.865 16.839-2.495 9.506-6.501-5.21-11.153 6.259-4.006 9.302 4.821 2.894-.546 5.296-2.568 7.859-1.96 1.861-4.172-2.709-6.241-3.642-3.805-6.079-10.768 3.055-6.633 7.444 6.368 6.926-9.087 10.626-8.981 1.965-6.754-5.925-10.597 5.088-6.93 9.87-4.351 6.253-10.025 1.351-10.739-4.431-6.052-7.339-10.287 4.023-8.999 9.443-2.481-.498-6.757 1.051-7.985-.878l-.349-2.635zm14.665-17.511c27.034-4.64 48.866-31.058 46.669-58.705-.427-25.783-20.937-49.386-46.313-53.742-23.623-4.97-49.364 7.311-60.604 28.64-11.947 20.436-8.781 48.047 7.208 65.427 12.905 14.879 33.686 22.075 53.04 18.38zm-21.685-1.57c-26.449-5.069-47-31.613-44.173-58.607 1.147-26.901 24.691-50.493 51.591-51.762 25.271-1.957 50.67 15.332 57.333 39.951 7.55 23.695-3.572 51.304-25.092 63.58-11.751 7.081-26.202 9.977-39.659 6.838zm7.393-23.223v-18.463c-6.268-3.664-10.849-11.623-19.309-8.845l-26.731-.064c1.501 23.674 22.246 44.653 46.041 45.835zm15.924 17.346c18.31-4.782 33.924-20.465 37.265-39.263 1.304-9.491-13.154-4.024-19.2-5.435-6.73 1.365-16.796-3.471-19.924 4.255-9.252 3.647-6.181 12.995-6.625 20.999.697 6.523-1.462 15.851 1.04 20.601 2.521-.028 5.016-.504 7.444-1.156zm-8.764-45.586c7.551-9.185-14.127-8.998-6.346.198 1.671 1.854 4.756 1.657 6.346-.198zm-14.488-10.032c4.468-3.976 8.747-7.668 7.328-14.228v-28.838c-20.83 1.162-39.724 17.127-44.557 37.385-3.049 4.707-.954 10.121 4.852 8.438h30.587l.895-1.379zm61.294 1.408c-2.423-21.178-19.327-39.859-40.357-43.83-9.253-4.334-5.507 7.63-6.196 12.802-.081 7.75-.327 15.536.625 23.247 6.291 2.49 8.485 11.908 16.759 9.12 9.577-.11 19.267.512 28.769-.603l.319-.303z" id="K" class="B E"/><path d="M688.989 602.103c-1.901-4.817 1.1-13.799-4.342-15.459-7.027-4.568-11.916 1.516-14.949 7.319-5.018 5.065-12.56-3.9-15.582-6.171 1.737-5.507 8.746-12.309 1.815-16.797-4.004-7.71-10.581.263-16.348 1.418-4.282-2.805-13.664-14.485-3.041-17.258 6.234-2.399 7.312-14.566.432-15.736-3.862-1.632-13.466 1.432-12.238-4.798v-12.676l14.966-1.344c2.493-6.113 3.635-13.398-4.199-15.791-8.191-3.66-1.587-12.261 2.645-16.144 5.952-2.822 10.849 7.833 16.768 1.747 8.291-3.842 2.316-10.936-.196-16.675-1.496-5.049 8.781-6.741 12.666-9.693 4.821 5.86 9.787 15.673 18.447 9.24 4.126-4.789-.546-17.757 10.113-15.029 6.103-.616 11.111-.06 9.619 7.372-1.875 7.941 6.937 11.175 13.156 8.033 3.553-4.127 6.388-12.975 13.221-6.922 3.78 2.513 11.062 4.472 5.635 9.864-3.165 5.211-5.473 10.302 1.102 13.735 5.356 7.092 16.632-9.213 20.289 2.403 5.874 5.33 2.181 12.92-4.998 14.316-3.53 3.608-2.507 14.619 3.765 13.839 3.868 1.478 12.788-1.74 11.158 4.715v12.269c-5.316 1.967-15.461-1.407-16.008 6.002-6.696 9.97 11.328 9.845 9.115 18.681-2.314 5.669-8.278 13.38-14.584 6.908-5.991-6.225-16.345 4.945-11.235 11.026 2.145 4.477 5.82 8.976-.853 10.758-4.785 4.808-12.474 5.682-14.536-2.116-2.34-6.71-14.416-4.685-14.793 1.395.474 5.861-.861 14.261-8.997 11.765-2.673.006-5.347-.021-8.015-.194zm18.105-30.846c21.908-4.818 36.837-29.234 31.17-50.952-4.662-20.291-25.723-35.696-46.557-32.285-15.885 1.843-30.18 13.169-35.111 28.462-6.827 19.505 2.879 43.035 21.635 51.855 8.859 4.378 19.309 5.5 28.864 2.921zm-20.355-1.541c-20.764-5.003-35.111-28.013-29.761-48.808 4.161-17.599 20.864-32.425 39.449-31.32 20.843-1.258 40.14 16.773 41.035 37.507 1.311 16.32-7.989 32.993-23.022 39.784-8.529 4.282-18.476 4.118-27.701 2.837zm19.656-2.566c20.098-4.876 33.938-28.093 27.125-47.96-4.732-16.881-22.219-29.259-39.782-27.125-20.659.814-37.481 21.431-34.923 41.81 1.611 19.672 20.485 36.31 40.358 34.264a50.34 50.34 0 0 0 7.222-.988z" id="L" class="B E"/><path d="M862.21 171.604c-5.848-1.202-12.121-5.973-7.923-12.23 2.845-5.246-4.187-7.902-6.68-11.539-3.36-3.641-8.815 1.611-13.306.752-2.067-6.073-8.281-13.448-5.84-19.497 3.921-2.494 10.175-4.114 8.557-10.028 1.157-5.486-.067-9.748-5.704-11.668-8.324-2.931-.454-10.972.944-16.517 1.003-7.432 8.614-3.157 13.289-2.319 3.258-2.245 9.036-6.48 9.654-10.561-1.397-5.195-4.222-12.285 3.683-12.985 5.377-1.985 13.845-8.044 16.054.656 1.31 3.977 4.314 5.689 8.249 4.905h7.692c2.967-3.34 4.172-12.269 9.962-8.995 4.559 2.468 13.373 3.429 14.931 7.649-.675 4.422-4.404 9.992.314 13.274 3.247 4.093 6.571 8.284 12.027 5.008 7.782-3.957 8.841 5.961 11.369 11.139 4.857 6.018-2.003 9.294-6.7 11.746-2.488 3.272-1.489 10.362-.834 14.226 3.908 2.772 12.094 4.893 7.882 11.009-2.427 4.048-3.143 12.512-7.22 13.51-4.585-.349-10.361-5.041-13.401.249-3.736 3.423-8.25 6.647-4.925 12.001 4.416 7.615-5.907 8.896-11.044 11.47-4.742 3.549-8.445.67-10.37-4.053-.986-3.352-3.322-4.509-6.571-3.948l-8.902-.118c-2.54 3.033-3.951 9.482-7.312 10.352l-7.875-3.487zm25.443-41.185c9.249-1.976 13.099-14.985 6.46-21.726-6.095-7.081-19.537-5.084-22.441 4.125-3.944 9.497 5.948 21.135 15.981 17.6z" id="M" class="B D"/><path d="M604.254 417.175c-8.694-2.23-4.809-9.188-2.304-14.981.375-2.316 3.418-5.178.502-6.821-9.28-8.817-16.423-19.942-19.342-32.499-.087-3.33-2.206-4.381-5.28-4.359l-12.989-2.177.416-15.582L582.261 338c2.474-13.437 9.253-25.862 19.149-35.285 2.87-1.703 2.48-4.058.98-6.635-.86-4.464-6.687-10.409-2.03-13.624 5.889-5.464 13.758-7.383 17.344 1.605 3.556 8.853 11.686 2.621 18.377 2.508 9.941-1.156 20.027-.119 29.588 2.788 3.909-4.013 7.254-8.544 10.876-12.816 5.048 1.332 9.301 4.743 13.89 7.181l-5.558 15.346c3.261 6.346 9.843 10.816 13.011 17.492 3.902 6.336 6.314 13.431 8.181 20.582 5.248 2.418 11.366 2.31 17.022 3.496v15.816c-5.661 1.179-11.76 1.107-17.032 3.482-3.509 13.573-10.06 26.864-20.768 36.196-.952 4.472 2.751 9.224 3.995 13.786 3.927 5.526-5.943 6.314-8.864 9.296-6.761 4.614-9.246-8.952-15.114-11.152-7.327 1.54-14.839 3.496-22.486 3.087-8.313 1.889-19.085-7.791-24.548 1.302-3.56 4.177-7.199 11.917-12.784 5.471l-1.236-.75zm49.305-31.825c19.242-4.689 32.655-26.456 27.215-45.724-3.887-16.899-20.436-30.306-38.043-28.753-20.678-.402-38.543 19.998-36.318 40.403.614 21.181 22.58 39.049 43.471 34.684 1.231-.162 2.46-.352 3.675-.61z" id="N" class="B D"/><path d="M952.655 478.181c-.795-9.324-.854-9.468-4.26-10.489-1.664-.499-3.228-.619-3.476-.268l-4.355 6.344c-2.147 3.137-4.036 5.706-4.198 5.706-.873 0-9.272-5.452-9.272-6.019 0-.37 1.121-2.909 2.491-5.643 3.645-7.276 3.68-7.583 1.179-10.341l-2.188-2.413-5.249 2.643c-9.092 4.579-8.39 4.608-11.367-.471-1.434-2.447-2.599-4.681-2.589-4.964 0-.283 2.804-2.424 6.209-4.757l6.189-4.243-.926-3.15-.926-3.15-7.5-.655-7.5-.655v-5.813-5.814h2.772c1.525-.003 4.972-.212 7.66-.467l4.888-.462.743-3.247.743-3.248-6.001-4.177-6.295-4.404c-.351-.272 2.783-6.292 4.377-8.406 1.111-1.474 1.215-1.449 8.047 1.875 3.806 1.853 6.959 3.273 7.006 3.156s1.058-1.287 2.246-2.6l2.161-2.388-3.188-6.709c-1.82-3.83-2.906-6.972-2.53-7.322.363-.336 2.519-1.651 4.795-2.919l4.137-2.306 4.365 6.275c4.134 5.944 4.481 6.252 6.582 5.833 3.978-.793 4.805-1.589 4.805-4.62 0-1.553.212-4.867.475-7.367l.475-4.544h5.36c5.939 0 6.252.253 6.264 5.051 0 1.492.212 4.433.466 6.537.403 3.349.7 3.882 2.396 4.286a76.43 76.43 0 0 1 3.126.812c.836.246 2.352-1.354 5.105-5.395l4.458-6.367c.299-.34 2.704.623 5.347 2.143l4.803 2.763-1.11 2.663c-.61 1.465-2.095 4.615-3.298 7.001l-2.188 4.338 2.041 2.131c1.123 1.172 2.432 2.131 2.909 2.131s3.769-1.359 7.314-3.021 6.522-2.909 6.614-2.772 1.38 2.325 2.862 4.862l2.694 4.614-6.219 4.257c-3.42 2.341-6.23 4.59-6.245 4.997-.038.407.31 1.947.72 3.424l.746 2.685 7.751.528 7.752.528v5.772 5.772l-7.752.528-7.751.528-.746 2.685c-.41 1.476-.737 3.017-.726 3.424 0 .407 2.671 2.537 5.91 4.735s5.89 4.318 5.89 4.712c0 1.134-4.714 9.405-5.361 9.405-.321 0-3.524-1.477-7.12-3.283l-6.536-3.283-2.352 2.427-2.352 2.427 3.356 6.896c1.846 3.793 3.275 6.971 3.174 7.064-.437.403-9.331 5.495-9.598 5.495-.163 0-2.241-2.833-4.616-6.295-3.018-4.397-4.675-6.191-5.494-5.95a78.27 78.27 0 0 1-3.11.807c-1.696.404-1.994.936-2.396 4.286-.253 2.104-.463 5.046-.466 6.537 0 4.8-.325 5.051-6.282 5.051h-5.379zm14.781-30.33c3.602-1.84 8.154-6.698 9.754-10.411 1.511-3.507 1.503-11.503-.038-15.029-1.942-4.507-6.863-9.238-11.365-10.921-10.064-3.766-20.36.325-25.075 9.961-1.715 3.506-1.939 4.751-1.7 9.479.227 4.47.67 6.078 2.484 8.995 2.588 4.161 6.422 7.446 10.435 8.94 3.921 1.46 11.626.955 15.481-1.013z" id="O" class="B D"/><path d="M120.922 142.799c.013-4.898-.631-11.882-7.322-10.933-4.073 1.838-5.356 10.631-9.616 11.991-3.895-2.448-11.722-4.969-6.632-10.414 1.926-3.809 5.563-9.006.859-12.258-1.08-2.464-2.962-.613-4.64.139-3.563 1.424-6.916 4.567-10.836 4.113-3.108-3.767-7.851-9.754-.725-12.028l8.026-5.524-1.852-6.3-15-1.31V88.646c5.124.107 10.226-.446 15.32-.929l1.486-6.495-12.296-8.581c1.662-3.619 3.901-12.133 9.24-8.065 4.206.996 9.742 7.623 12.641 1.863 1.806-1.32 2.254-2.84.777-4.643-1.635-3.787-4.047-7.42-4.539-11.549 2.837-1.969 5.939-3.512 8.932-5.225 3.013 3.994 5.38 8.583 9.032 12.014 7.037 1.675 7.277-6.014 7.1-10.922.676-1.629-.507-5.34 1.487-5.515 3.26.196 6.733-.554 9.799.726 2.261 4.44-.324 10.578 2.738 14.779 5.285 4.07 7.757-2.45 10.315-5.714l3.407-4.867c3.739.565 6.816 3.217 10.151 4.906-1.91 4.798-4.266 9.398-6.596 14.002 2.341 2.845 5.48 5.86 9.094 2.678 3.858-.765 9.834-7.399 11.587-1.158l3.753 6.425c-4.19 3.028-8.817 5.568-12.464 9.254.994 1.767.005 6.563 2.989 6.213l13.98.952v11.544l-15.503 1.056c-.929 3.249-2.824 7.296 1.632 8.854 2.546 2.89 10.731 4.654 7.583 9.386-1.767 3.94-4.247 9.049-8.784 4.713l-9.12-4.558-4.705 4.854c2.194 4.644 4.651 9.179 6.53 13.96-3.979 1.445-9.653 8.895-12.124 2.194-3.123-3.761-6.312-12.818-12.377-7.099-2.268 4.481.676 10.974-2.856 14.503-3.287.598-6.658.233-9.984.333l-.488-5.736zm14.781-30.33c6.26-3.651 11.59-10.285 10.88-17.918.812-11.443-10.804-21.063-21.854-19.742-10.661.814-19.322 11.708-17.352 22.29.546 7.844 7.006 14.79 14.455 16.841 4.6.772 9.581.435 13.871-1.47z" id="P" class="B D"/><path d="M541.086 638.545c-6.105-2.215-1.683-10.068-4.495-14.383-5.639-5.038-9.307 2.811-11.627 6.97-2.532 5.547-10.479.534-10.701-3.681.444-5.234 8.638-11.485 1.482-15.349-5.451-1.995-10.444 7.06-15.958 2.849-4.724-4.306-2.032-10.064 3.429-12.021 4.733-.814 6.606-7.999 1.743-9.835-5.263.038-14.451.566-12.992-7.395-.54-7.561 7.74-3.593 11.932-5.441 5.83-1.794 4.464-8.321-.674-9.889-5.682-2.071-8.551-9.04-2.406-12.752 5.646-3.241 10.863 7.657 16.584 2.562 5.081-5.436-5.643-10.665-2.644-16.598 3.425-5.06 11.839-4.445 12.277 2.446 2.358 6.247 12.338 5.692 10.602-1.984.907-3.862-1.287-10.477 4.761-9.014 7.266-2.486 7.9 5.416 7.799 10.499.566 7.459 9.669 5.546 10.79-.678 1.869-8.112 12.44-4.82 12.653 2.092-1.136 4.081-6.996 8.628-3.506 13.022 5.626 5.328 11.496-5.937 17.094-2.255 5.04 3.959 3.297 11.889-3.327 12.4-7.182 3.369-2.82 12.684 4.354 10.35 6.495-1.46 8.695 4.472 7.436 9.688-1.892 5.664-10.051.54-14.269 3.663-5.296 6.785 5.091 9.459 8.639 13.207 2.737 5.953-6.456 12.844-10.927 7.156-3.918-4.343-11.729-2.359-9.698 4.346 2.775 4.331 7.342 12.034-.432 14.131-7.052 3.008-7.732-6.235-11.967-9.276-7.162-3.385-7.572 7.001-7.297 11.643-.522 4.799-4.989 5.741-8.657 3.527zm10.207-34.265c7.628-3.215 12.803-11.639 11.462-19.932-.854-13.092-17.677-21.422-28.662-14.257-6.696 3.741-10.237 11.734-9.069 19.233.872 12.07 15.475 20.153 26.269 14.956z" id="Q" class="B D"/><path d="M1056.429 165.496c-1.328-4.109.949-10.769-4.515-12.446-3.989-.206-4.434 5.285-7.022 7.581-1.368 3.17-6.555-.731-7.672-2.929.612-3.572 3.653-7.1 3.748-10.434-2.266-3.633-6.399-2.485-9.127-.161-4.152 3.401-8.562-1.969-7.844-5.73 2.869-2.571 9.998-4.797 7.508-9.716-2.939-3.783-10.372.429-11.831-4.817.076-2.817-1.032-7.073 3.341-5.969 3.241-.67 8.966.979 9.417-3.656.262-5.338-7.379-4.738-8.27-9.113-.147-3.986 4.026-8.209 7.508-4.551 3.078 1.664 6.772 4.067 8.914-.234 1.837-3.225-4.321-7.924-3.343-11.324 2.857-3.371 8.761-4.192 9.753 1.12 1.646 4.778 9.675 5.412 8.723-.84.398-3.736-.621-8.825 4.729-7.449 2.484-.268 5.182-.808 4.35 2.686.456 3.725-.37 11.86 5.659 8.983 3.889-1.468 3.7-9.34 8.827-7.266 3.905 1.047 5.242 4.14 2.846 7.492-.617 2.528-4.369 5.596-1.11 7.458 1.479 2.647 3.618 1.625 5.839.273 3.181-1.13 7.072-4.672 8.571.237 3.63 3.568-.353 6.361-3.613 7.642-4.444 1.958-3.914 8.999 1.607 8.094 2.285 1.103 8.242-1.267 7.608 2.507v6.644c-3.937 1.1-10.822-1.386-12.373 3.255-.36 4.945 5.76 5.661 8.047 8.78.4 2.997-2.344 8.871-6.062 6.327-2.429-1.332-4.997-2.375-7.488-3.587-2.775 2.087-4.472 4.348-1.877 7.418 1.154 3.138 4.673 7.208-.288 8.686-5.104 3.946-6.779-3.08-9.755-5.69-4.796-4.267-6.802 3.398-6.341 7.119.645 3.607-1.035 4.787-4.42 4.124-1.36-.01-2.737-.108-4.043-.512zm7.703-25.698c6.448-1.824 11.58-8.1 11.151-14.943.135-6.331-4.745-12.08-10.537-14.151-8.461-2.559-18.547 3.7-19.307 12.684-.853 5.064 1.243 10.486 5.557 13.377 3.6 3.279 8.478 4.663 13.136 3.033z" id="R" class="C"/><path d="M794.207 380.107c-3.984-4.834-.781-12.452-1.783-18.394l.351-126.851c4.721-5.921 13.226-2.741 18.938-.153 7.207 3.458 13.283 8.834 20.468 12.332.787-6.89 7.514-16.601 1.928-21.908-5.337-2.092-4.745-6.99.854-8.145 9.525-4.437 20.108-5.897 30.111-8.973 3.914-1.265 8.825-3.241 7.858 2.954-.016 7.39.248 14.82-.059 22.19-2.891 6.645-11.264-1.944-16.7-1.346-4.919-1.829-9.783-3.097-9.444 3.807-2.19 8.657-3.012 18.016-7.353 25.893-7.066 4.178-13.142-5.633-19.269-8.135-2.578-1.729-6.28-5.316-4.919.147l1.251 33.8c11.168-.12 22.159-2.646 33.332-2.676 5.052 1.612 3.937 6.99 3.991 11.062v38.975c-4.232 7.07-13.961 1.393-11.297-5.88-.342-10.13-.249-20.286-1.203-30.387-11.69 2.157-23.317 4.709-34.744 7.997-1.902 23.881-1.014 47.916-3.198 71.768-1.002 3.936-6.565 4.959-9.114 1.923zm9.658-151.321c-6.183-2.309-9.551-7.244-9.505-13.924.038-4.652 1.451-7.873 4.654-10.568 7.13-6 18.283-3.853 22.219 4.277 3.358 6.937.857 15.208-5.733 19.07-2.824 1.655-8.719 2.235-11.636 1.146zm371.443 117.323c-1.272-12.061-.592-24.296-.867-36.426l-.02-73.387c-11.077-1.106-22.439-7.298-27.164-17.733.974-5.361 5.324-9.96 7.839-14.89 3.901-5.869 7.086-12.371 11.992-17.475 8.792-.045.388 9.738-1.606 13.641-3.292 6.033-8.008 11.432-10.08 18.04 1.717 5.975 9.432 9.159 15.081 10.752 9.997 1.258 20.193 1.027 30.217.195 7.352-.49 12.458-6.102 17.471-10.835-5.79-9.62-12.33-18.859-17.138-29.012 3.852-8.094 9.084 3.977 11.899 7.53 4.366 7.209 9.521 14.226 12.186 22.249-3.174 7.301-10.421 12.046-17.392 15.359-1.901 1.419-6.608.449-5.591 3.919l-.65 102.403c2.697 7.063-8.919 9.193-8.146 1.616-1.033-19.156-1.039-38.353-1.546-57.529h-7.392c-.268 20.042.133 40.109-.915 60.128-.107 3.383-6.242 2.5-8.18 1.455zm6.558-120.169c-3.543-1.807-5.374-4.632-5.787-8.929-1.033-10.744 11.511-16.702 19.129-9.084 9.179 9.179-1.743 23.927-13.341 18.013zm-667.703 4.886c-2.901-5.58-1.161-12.425-2.032-18.563l-1.795-31.863c-8.584-3.377-17.295-6.481-26.103-9.219-5.057 9.388-9.366 19.304-14.477 28.601-12.333 9.36-24.249 19.318-37.131 27.915-8.033 4.781-11.969-8.645-3.707-11.177l31.563-24.644c5.185-16.975 8.672-34.453 12.214-51.841 2.447-11.361 3.629-23.153 7.865-34.035 4.518-6.11 13.941-2.301 20.54-3.603 20.048-.101 40.115-.293 60.148.589 8.288 2.059 2.625 13.847-4.803 10.914-15.751.431-31.511.2-47.267.259l-7.618 47.735c5.825 4.055 13.278 5.22 18.927 9.595 2.185 10.928 1.764 22.261 2.622 33.365.198 8.141 1.267 16.331.512 24.454-1.208 3.788-6.958 4.076-9.457 1.516zm-22.606-132.1c-5.813-2.64-8.996-8.489-8.214-15.093.898-7.578 6.677-12.612 14.538-12.666 11.789-.083 18.742 13.158 12.006 22.86-3.969 5.716-11.879 7.83-18.331 4.899z" fill="#7c2869"/><path d="M858.684 672.46l-13.223-6.589c1.837-5.131 4.491-9.935 6.773-14.882-11.662-9.8-20.605-22.744-25.132-37.328-5.438-.045-10.97.899-16.309.528-1.009-9.561-1.484-19.257-2.103-28.888 6.858-1.545 18.875 2.077 17.736-8.738 3.345-12.462 9.721-23.946 18.214-33.622-2.942-4.437-6.365-8.612-8.704-13.404 7.731-5.983 16.009-11.222 24.04-16.792l9.377 13.678c13.662-4.998 28.679-6.493 42.968-3.601 4.974-1.338 5.52-8.035 8.069-12.051.664-4.501 4.397-.357 6.898.316l20.807 10.162c-1.69 5.107-4.437 9.802-6.706 14.674 10.406 9.862 19.902 21.158 24.374 35.027 2.5 4.741 9.683 1.195 14.344 1.708 5.335-1.28 2.357 7.454 3.781 10.579-1.265 5.863 5.19 18.374-2.692 19.2-9.009-1.058-15.153 2.392-15.009 11.948-3.444 10.983-9.294 21.23-17.221 29.594 2.947 4.529 6.133 8.916 8.779 13.629-7.81 6.064-16.202 11.339-24.329 16.968-3.214-4.345-5.604-9.457-9.681-13.047-8.626 1.776-17.299 4.624-26.303 4.252-6.198.081-12.377-.616-18.467-1.731l-7.25 14.881-13.03-6.471zm43.206-53.757c11.755-2.333 21.808-13.976 19.997-26.302.983-13.075-12.118-25.468-25.131-23.948-13.568-1.487-26.535 11.62-25.134 25.134-1.611 15.695 15.335 29.016 30.268 25.116z" id="S" class="C"/><path d="M184.624 442.151c-22.349-5.597-24.313-38.259-4.997-48.077 12.403-6.301 29.722-1.967 35.83 11.193 5.183 11.92 1.889 27.818-10.196 34.359-6.042 3.874-13.842 3.183-20.637 2.525zm-23.732 210.415c-9.613-8.472-1.57-22.871-2.202-33.827l2.948-26.778c-11.149-15.025-21.469-30.884-34.01-44.743l-19.256 58.387c-17.022 14.886-35.014 28.634-52.573 42.883-9.329 1.873-18.665-8.182-11.712-16.587 15.017-13.158 30.925-25.259 46.452-37.806 15.172-47.801 31.429-95.448 53.024-140.772 4.739-11.646 19.16-18.76 29.822-9.921l49.689 26.543c13.779-10.174 24.477-24.026 38.061-34.445 8.961-4.709 17.411 6.071 13.98 14.085-14.825 14.097-28.672 29.315-44.511 42.279-11.363 4.624-21.773-8.023-32.31-11.496-6.924-4.147-15.479-9.625-16.94 2.378l-28.428 62.199c9.77 13.948 21.203 26.921 29.273 41.913-1.216 20.761-3.498 41.555-6.977 62.058-2.722 4.772-9.64 7.04-14.331 3.649z" fill="#7c2869"/><path d="M377.1 691.829c-.73-2.466-.84-5.664-4.246-4.976-2.757-.056-5.715-1.641-8.284-.554-2.637 3.967-4.911 10.009-10.033 5.819l-12.9-5.463 2.588-10.063-8.664-6.728c-3.111 1.543-6.327 4.432-9.458 4.699l-11.457-15.246 8.069-8.069-3.734-9.503c-3.795-.346-8.256.89-11.544-.971l-1.952-18.023c5.287-2.143 13.967-1.779 12.71-9.7 1.441-3.071-1.382-4.018-3.605-5.263-5.962-2.007-7.687-6.37-3.681-11.608 1.681-6.571 5.475-12.724 12.784-8.183 4.863 2.867 8.398-2.095 9.378-6.34-2.905-5.409-9.059-12.243-.152-15.493l9.53-7.277 9.882 9.806 7.592-2.697v-14.178c6.485-.943 12.989-1.729 19.511-2.373 2.318 5.601 1.536 15.673 10.066 14.372 2.778.712 3.02-3.608 4.624-5.225 1.939-6.771 7.147-6.913 12.41-3.295 5.213 1.888 12.373 3.432 8.07 10.236-3.235 5.517.266 9.592 5.082 12.019l11.442-6.632c3.664 5.185 8.259 9.819 11.122 15.484-.952 3.89-5.151 6.059-7.613 9.134.31 2.689 2.246 5.697 3.18 8.508h12.229c.896 6.293 2.24 12.654 2.106 18.994-2.943 2.306-7.051 2.36-10.537 3.554.105 3.791-3.018 9.284 1.35 11.434 1.994 2.333 9.033 2.666 6.044 6.807-3.49 4.694-2.924 17.787-11.286 14.334-5.417-3.543-8.119 2.069-10.737 5.842-2.478 2.255 1.512 4.762 2.174 7.156 3.575 3.82-1.857 5.526-4.14 7.659-3.194 2.102-6.043 5.123-9.453 6.652-3.472-.518-5.163-6.665-8.459-5.825-3.924 2.274-11.081 2.461-9.484 8.743 1.065 8.696-11.047 5.226-16.425 6.947-3.061.566-3.495-2.313-4.1-4.515zm11.707-31.316c18.548-4.874 31.382-25.756 25.932-44.43-4.071-15.549-18.929-27.958-35.28-27.533-19.546-1.019-37.223 16.422-37.1 35.857-.679 17.476 13.262 33.89 30.305 36.839 5.349.573 10.907.596 16.143-.733z" id="T" class="C"/></svg>