<?xml version="1.0" encoding="UTF-8" standalone="no"?>
<svg
   width="1092.692"
   height="815.765"
   version="1.1"
   id="svg8"
   xmlns="http://www.w3.org/2000/svg"
   xmlns:svg="http://www.w3.org/2000/svg">
  <defs
     id="defs3">
    <clipPath
       id="clipPath1">
      <path
         d="M0 0h708.12v398.41H0z"
         stroke-width="0"
         fill="none"
         id="path1" />
    </clipPath>
    <clipPath
       id="clipPath2">
      <path
         d="M-14.17-14.17h736.48v426.75H-14.17z"
         stroke-width="0"
         fill="none"
         id="path2" />
    </clipPath>
    <linearGradient
       id="C"
       x1="-.001"
       y1="-545.663"
       x2="207.243"
       y2="-545.663"
       gradientUnits="userSpaceOnUse">
      <stop
         offset="0"
         stop-color="#fff"
         id="stop2" />
      <stop
         offset="1"
         stop-color="#ffc93c"
         stop-opacity="0"
         id="stop3" />
    </linearGradient>
  </defs>
  <circle
     cx="546.347"
     cy="649.196"
     r="109.381"
     fill="#ffc93c"
     id="circle3" />
  <g
     transform="matrix(5.724981 0 0 5.724981 -24828.555 -9679.5277)"
     id="g7">
    <path
       d="M4349.629 1693.078h165.125v85.893h-165.125z"
       fill="#7e92a7"
       stroke="#7c2869"
       stroke-width="1.347"
       id="path3" />
    <path
       d="M4349.636 1691.122h165.1l.01 87.842-165.108-.001zm47.305 80.288c1.568-.351 1.904-.514 1.797-.871-.072-.242-.326-1.307-.563-2.368-.397-1.774-.477-1.915-1.003-1.755-1.6.485-2.98 2.249-3.09 3.948-.097 1.501-.021 1.763.468 1.616.255-.077 1.331-.333 2.392-.571zm105.833 0c1.568-.351 1.904-.514 1.797-.871-.073-.242-.326-1.307-.563-2.368-.397-1.774-.477-1.915-1.003-1.755-1.6.485-2.98 2.249-3.09 3.948-.097 1.501-.021 1.763.468 1.616.255-.077 1.331-.333 2.392-.571zm-85.109-.618c.88-.88 1.027-1.193 1.026-2.183 0-3.069-3.23-4.659-5.53-2.724-1.376 1.158-1.62 2.992-.607 4.556.564.871 1.6 1.355 2.928 1.367.996.01 1.297-.131 2.183-1.017zm-3.328-1.698c-.476-.727-.317-1.397.427-1.795.731-.391 1.518-.051 1.717.742.365 1.456-1.333 2.291-2.144 1.053zm-55.507-6.337c.843-.787.816-2.383-.054-3.254-1.458-1.458-3.849-.419-3.849 1.674 0 2.126 2.314 3.063 3.903 1.58zm105.833 0c.843-.787.816-2.383-.054-3.254-1.458-1.458-3.849-.419-3.849 1.674 0 2.126 2.314 3.063 3.903 1.58zm-80.128-6.588c.457-1.312.346-2.392-.404-3.895-.921-1.848-2.265-2.744-4.342-2.894-1.942-.14-3.675.617-4.63 2.023l-.651.958.908.466.908.466.772-.772c1.644-1.644 4.186-1.184 5.119.927.316.714.435 1.401.333 1.914-.137.687-.053.858.596 1.21 1.027.557 1.061.547 1.392-.402zm105.833 0c.457-1.312.346-2.392-.404-3.895-.921-1.848-2.265-2.744-4.342-2.894-1.942-.14-3.675.617-4.63 2.023l-.651.958.908.466.908.466.771-.772c1.644-1.644 4.186-1.184 5.12.927.316.714.435 1.401.333 1.914-.137.687-.053.858.596 1.21 1.027.557 1.061.547 1.392-.402zm-57.822-1.452c1.478-1.478.49-3.81-1.606-3.792-2.244.019-3.153 2.23-1.6 3.894.801.858 2.293.81 3.206-.102zm13.336-2.358c.539-.225 1.242-.656 1.563-.957l.583-.547-.757-.637-.757-.637-1.09.568c-1.498.781-2.771.561-3.912-.675-.677-.734-.86-1.16-.86-2.011 0-.594.127-1.318.283-1.608.311-.582.025-1.105-.865-1.582-.426-.228-.569-.094-1.043.979-1.936 4.376 2.467 8.94 6.856 7.106zm-44.247-6.47l2.796-4.101-.742-.594c-.408-.327-.807-.595-.887-.595-.2 0-5.913 8.454-5.782 8.557.622.49 1.459.956 1.618.902.109-.037 1.457-1.913 2.995-4.169zm105.833 0l2.796-4.101-.742-.594c-.408-.327-.807-.595-.887-.595-.2 0-5.913 8.454-5.782 8.557.622.49 1.459.956 1.618.902.109-.037 1.457-1.913 2.995-4.169zm-147.723-7.565c.915-.814 1.7-1.579 1.745-1.7s-.442-.526-1.082-.901c-1.462-.857-3.367-.921-4.622-.155-.473.288-.86.597-.86.686 0 .174 2.915 3.55 3.065 3.55.049 0 .839-.666 1.754-1.48zm105.833 0c.915-.814 1.7-1.579 1.745-1.7s-.442-.526-1.082-.901c-1.462-.857-3.367-.921-4.622-.155-.473.288-.86.597-.86.686 0 .174 2.915 3.55 3.065 3.55.05 0 .839-.666 1.754-1.48zm-58.588-1.578c.73-.512.752-1.21.058-1.838-.438-.397-.645-.428-1.191-.179-.804.367-.929 1.717-.197 2.143.611.356.646.353 1.33-.126zm44.082-4.374c2.682-2.109 1.39-6.062-1.98-6.062-1.05 0-1.444.145-2.205.814-1.586 1.392-1.597 3.348-.028 4.917.765.765 1.061.884 2.198.884.931 0 1.518-.161 2.016-.553zm-2.959-1.882c-.175-.175-.318-.568-.318-.873 0-.749.491-1.191 1.323-1.191s1.323.442 1.323 1.191-.491 1.191-1.323 1.191c-.378 0-.831-.143-1.005-.318zm-13.576-3.438l3.706-3.448 2.486-2.338-.614-.653c-.338-.359-.742-.648-.898-.641s-1.891 1.546-3.854 3.421l-3.57 3.408.639.68c.351.374.694.68.762.68s.672-.499 1.343-1.11zm-44.591-4.83c1.812-1.679-.049-4.721-2.352-3.845-1.02.388-1.427 1.009-1.437 2.192-.011 1.276.988 2.302 2.24 2.302.534 0 1.108-.24 1.549-.649zm105.833 0c1.812-1.679-.049-4.721-2.352-3.845-1.02.388-1.427 1.009-1.437 2.192-.011 1.276.988 2.302 2.241 2.302.534 0 1.108-.24 1.549-.649zm-135.002-2.669c1.986-.701 3.654-2.832 3.669-4.686.01-.669-.076-.728-1.019-.728-.987 0-1.031.038-1.19 1.034-.171 1.067-1.188 2.19-2.305 2.544-1.442.458-3.43-.659-3.98-2.236-.248-.711-.349-.762-1.243-.624-.535.082-1 .17-1.032.194s.066.495.218 1.048c.397 1.439 2.267 3.223 3.715 3.547 1.646.368 1.88.361 3.166-.093zm105.833 0c1.986-.701 3.654-2.832 3.669-4.686.01-.669-.076-.728-1.019-.728-.987 0-1.031.038-1.19 1.034-.171 1.067-1.188 2.19-2.305 2.544-1.442.458-3.43-.659-3.98-2.236-.248-.711-.349-.762-1.243-.624-.535.082-1 .17-1.032.194s.066.495.218 1.048c.397 1.439 2.267 3.223 3.715 3.547 1.646.368 1.88.361 3.166-.093zm-55.856-3.57c0-.839-.75-2.43-1.535-3.256a5.02 5.02 0 0 0-2.896-1.586c-.849-.161-.86-.15-.86.848 0 .933.082 1.044 1.046 1.423 1.062.417 2.126 1.74 2.128 2.646.001.364.228.463 1.059.463.887 0 1.058-.087 1.058-.538zm18.997-10.099c.439-.439.398-1.403-.076-1.796-.53-.44-1.648-.128-1.853.517-.373 1.175 1.073 2.135 1.928 1.279zm-47.591-3.167c.77-1.379-.737-2.8-2.243-2.114-.85.388-1.094 1.448-.53 2.309.619.946 2.198.835 2.773-.195zm105.833 0c.77-1.379-.737-2.8-2.243-2.114-.851.388-1.094 1.448-.53 2.309.619.946 2.198.835 2.773-.195zm-36.474-2.497l.641-.69-3.704-3.526-3.704-3.526-.754.71-.754.71 3.665 3.501c2.016 1.926 3.733 3.503 3.817 3.506s.441-.306.794-.685zm-84.955-2.577c0-.706-.189-1.689-.425-2.186-.472-.996-1.861-2.294-2.297-2.149-.37.123-2.127 4.262-1.853 4.364.118.044 1.106.472 2.198.952 1.332.586 2.048.779 2.179.587.107-.157.196-.863.199-1.569zm105.833 0c0-.706-.189-1.689-.424-2.186-.472-.996-1.861-2.294-2.297-2.149-.37.123-2.127 4.262-1.853 4.364.118.044 1.107.472 2.198.952 1.332.586 2.048.779 2.179.587.107-.157.196-.863.198-1.569z"
       fill="#002752"
       id="path4" />
    <rect
       width="106.227"
       height="27.143"
       x="4379.077"
       y="1736.535"
       ry="2.235"
       fill="#1ead28"
       stroke="#fafdfa"
       stroke-width="1.021"
       id="rect4" />
    <g
       transform="matrix(1.340236 0 0 1.340236 1348.2329 316.42824)"
       id="g5">
      <rect
         width="18.421"
         height="18.433"
         x="2262.408"
         y="1060.504"
         ry=".804"
         fill="#fff"
         id="rect5" />
      <path
         d="M2263.093 1075.413v-2.839h2.839 2.839v2.839 2.839h-2.839-2.839zm4.87 0v-2.031h-2.031-2.031v2.036 2.035h2.035 2.036zm-3.245 0v-1.214h1.214 1.214v1.214 1.214h-1.214-1.214zm4.874 2.437v-.402h.402.402v-.411-.411h-.402-.402v-.812-.812h.402.402v-.402-.402h-.402-.402v-1.223-1.223h-.812-.812v-.402-.402h-.411-.411v.402.402h-1.214-1.214v-.402-.402h1.214 1.214v-.411-.411h-1.214-1.214v.406.406h-.406-.406v.401.401h-.402-.401v-.401-.402h.401.402v-1.223-1.223h-.402-.401v-.401-.402h.401.402v.402.401h.411.411v-.401-.402h.813.812v.402.401h.402.402v-.401-.402h1.223 1.223v-.812-.812h.402.402v-.411-.411h.411.411v-.402-.401h-.812-.813v-.412-.411h1.214 1.214v-.402-.402h-.402-.402v-.411-.411h-.411-.411v.411.411h-.402-.402v-.812-.812h.813.812v.402.402h.402.402v.411.411h.406.406v-.808-.808h.401.401v1.214 1.214h-.813-.813v.406.406h.406.406v.401.401h.402.402v2.035 2.035h-.402-.402v.402.402h.402.402v1.223 1.223h-.402-.402v.401.402h.808.808v.406.406h-.411-.411v1.214 1.214h-.402-.402v.411.411h.401.401v-.406-.406h.808.808v-.401-.401h-.401-.402v-.411-.411h.402.401v.411.411h.411.411v.402.401h.402.402v-.401-.402h.812.813v-.411-.411h-.812-.812v-.813-.812h-.402-.402v.411.411h-.411-.411v-.812-.812h.411.411v-.411-.411h-.812-.812v-.402-.402h.812.813v.402.402h.402.402v-1.214-1.214h-.402-.402v.402.402h-.411-.411v-.402-.402h.411.411v-.411-.411h.402.402v-.402-.402h.411.411v.402.402h.402.402v-.402-.402h.813.812v.402.402h-.401-.402v.411.411h.402.401v.813.812h-.401-.402v.402.402h-.411-.411v-.402-.402h.411.411v-.411-.411h-.411-.411v-.402-.402h-.402-.402v1.214 1.214h-.411-.411v.411.411h1.223 1.223v1.625 1.625h-.411-.411v.402.401h-.812-.812v.411.411h.812.813v.402.402h-1.214-1.214v-.402-.402h-.411-.411v.402.402h-1.625-1.625v-.402-.402h-.402-.402v.402.402h-.812-.812zm3.249-2.437v-.411h-1.223-1.223v.411.411h1.223 1.223zm-.821-2.848v-.812h-.402-.402v-.812-.812h.402.402v-.402-.402h.411.411v-.411-.411h-.812-.812v-.402-.402h.402.402v-.411-.411h.411.411v-.402-.402h-.411-.411v.402.402h-.402-.402v-.402-.402h-.411-.411v.813.813h-.402-.402v.402.402h.812.813v.812.812h-.411-.411v-.402-.402h-.402-.402v.402.402h.402.402v.812.813h.411.411v.411.411h-.411-.411v.402.402h.812.813zm-3.25-2.026v-.411h-.401-.402v-.402-.402h.402.401v-.411-.411h-.401-.402v.411.411h-.411-.411v.402.402h.411.411v.411.411h.402.401zm-2.432-1.629v-.406h-.411-.411v.411.411h.406.406zm13.002 8.128v-.411h.402.402v.411.411h-.402-.402zm-4.874-8.936v-.402h.402.402v.402.402h-.402-.402zm-11.373-4.062v-2.839h2.839 2.839v2.839 2.839h-2.839-2.839zm4.87 0v-2.031h-2.036-2.035v2.036 2.036h2.031 2.031zm-3.245 0v-1.214h1.214 1.214v1.214 1.214h-1.214-1.214zm9.749 0v-2.839h2.839 2.839v2.839 2.839h-2.839-2.839zm4.874 0v-2.035h-2.035-2.035v2.023l.019 2.035 2.035.019h2.023zm-3.25 0v-1.214h1.214 1.214v1.214 1.214h-1.214-1.214z"
         id="path5" />
    </g>
    <path
       d="m 4336.88,1691.122 v 129.8632 c 0,6.1332 4.8976,12.2598 10.0982,12.2598 l 169.602,0 c 5.6662,0 11.1638,-5.2266 11.1638,-10.5972 V 1691.122 h -14.414 v 80.402 c 0,2.892 -2.457,5.239 -5.51,5.239 h -150.972 c -3.046,0 -5.514,-2.346 -5.514,-5.239 v -80.402 z m 95.468,97.306 c 9.095,0 16.433,7.349 16.433,16.46 0,9.071 -7.349,16.447 -16.433,16.447 -9.0895,0 -16.4633,-7.3575 -16.476,-16.447 0,-9.1 7.35,-16.46 16.476,-16.46 z"
       fill="#ff7b54"
       id="path6" />
    <path
       d="M4432.677 1747.305h-3.726v-1.143q0-.8-.143-1.02-.143-.219-.476-.219-.362 0-.553.295-.181.295-.181.896 0 .772.21 1.162.2.391 1.134.943 2.678 1.591 3.373 2.611.696 1.02.696 3.287 0 1.649-.391 2.43-.381.781-1.486 1.315-1.105.524-2.573.524-1.61 0-2.754-.61-1.134-.61-1.486-1.553-.353-.943-.353-2.678v-1.01h3.726v1.877q0 .867.153 1.115.162.248.562.248.4 0 .591-.314.2-.314.2-.934 0-1.363-.372-1.782-.381-.419-1.877-1.401-1.496-.991-1.982-1.439-.486-.448-.81-1.239-.314-.791-.314-2.02 0-1.772.448-2.592.457-.82 1.467-1.277 1.01-.467 2.439-.467 1.563 0 2.658.505 1.105.505 1.458 1.277.362.762.362 2.601zm10.958 2.058h-4.012v-2.687q0-1.172-.133-1.458-.124-.295-.562-.295-.495 0-.629.353-.133.352-.133 1.525v7.166q0 1.124.133 1.467.133.343.6.343.448 0 .581-.343.143-.343.143-1.61v-1.934h4.012v.6q0 2.392-.343 3.392-.333 1.001-1.496 1.753-1.153.753-2.849.753-1.763 0-2.906-.639-1.144-.638-1.515-1.763-.372-1.134-.372-3.402v-4.507q0-1.668.114-2.496.114-.839.677-1.61.572-.772 1.572-1.21 1.01-.448 2.316-.448 1.772 0 2.925.686 1.153.686 1.515 1.715.362 1.02.362 3.183zm8.366-6.727l2.297 15.427h-4.107l-.2-2.773h-1.439l-.238 2.773h-4.155l2.039-15.427zm-2.125 9.919q-.305-2.62-.61-6.47-.61 4.421-.762 6.47zm14.065-9.919v15.427h-3.516l-2.087-7.013v7.013h-3.354v-15.427h3.354l2.249 6.947v-6.947z"
       fill="#f9f9f9"
       id="path7" />
  </g>
  <path
     transform="rotate(90)"
     d="M0-1091.307h207.244V0H0z"
     fill="url(#C)"
     id="path8" />
</svg>
