<svg width="1280" height="720" viewBox="0 0 1280 720" fill="none" xmlns="http://www.w3.org/2000/svg">
<rect width="1280" height="720" fill="url(#paint0_linear_428_5444)"/>
<rect x="260.847" y="583.297" width="73.4479" height="62.6994" rx="16" fill="#8793AE"/>
<rect x="437.301" y="583.297" width="73.4479" height="62.6994" rx="16" fill="#8793AE"/>
<mask id="mask0_428_5444" style="mask-type:alpha" maskUnits="userSpaceOnUse" x="217" y="62" width="339" height="567">
<path d="M288.704 108.572C292.86 81.7706 315.933 62 343.054 62H433.894C461.226 62 484.411 82.0697 488.327 109.119L554.491 566.1C559.293 599.267 533.57 628.982 500.058 628.982H272.187C238.451 628.982 212.667 598.89 217.836 565.553L288.704 108.572Z" fill="url(#paint1_linear_428_5444)"/>
</mask>
<g mask="url(#mask0_428_5444)">
<path d="M288.704 108.572C292.86 81.7706 315.933 62 343.054 62H433.894C461.226 62 484.411 82.0697 488.327 109.119L554.491 566.1C559.293 599.267 533.57 628.982 500.058 628.982H272.187C238.451 628.982 212.667 598.89 217.836 565.553L288.704 108.572Z" fill="url(#paint2_linear_428_5444)"/>
<rect x="155.153" y="538.516" width="437.104" height="135.252" fill="#9CA3B4"/>
<circle cx="386.245" cy="569.864" r="77.9264" fill="#9CA3B4"/>
<path d="M388.037 114.844L376.393 542.095H396.098L388.037 114.844Z" fill="#9CA3B4"/>
</g>
<path d="M341.46 440.883H437.301" stroke="#9CA3B4" stroke-width="5" stroke-linecap="round"/>
<path d="M348.626 385.352H429.239" stroke="#9CA3B4" stroke-width="5" stroke-linecap="round"/>
<path d="M357.583 319.961H420.282" stroke="#9CA3B4" stroke-width="5" stroke-linecap="round"/>
<path d="M362.957 254.578H412.221" stroke="#9CA3B4" stroke-width="5" stroke-linecap="round"/>
<path d="M375.497 189.188H399.681" stroke="#9CA3B4" stroke-width="5" stroke-linecap="round"/>
<path fill-rule="evenodd" clip-rule="evenodd" d="M571.657 240.25C586.497 240.25 598.528 252.281 598.528 267.121C598.528 281.962 586.497 293.992 571.657 293.992C569.659 293.992 567.713 293.772 565.839 293.358L411.658 531.417L403.264 525.98L394.871 520.545L549.324 282.068C546.458 277.795 544.786 272.653 544.786 267.121C544.786 252.281 556.816 240.25 571.657 240.25Z" fill="url(#paint3_linear_428_5444)"/>
<path d="M387.141 490.148C344.104 490.148 309.215 525.037 309.215 568.075H465.068C465.068 525.037 430.179 490.148 387.141 490.148Z" fill="#9CA3B4"/>
<path d="M1074.35 260C1076.38 260.433 1078.02 261.45 1079.25 263.05C1080.48 264.617 1081.1 266.417 1081.1 268.45C1081.1 271.383 1080.07 273.717 1078 275.45C1075.97 277.15 1073.12 278 1069.45 278H1053.1V242.9H1068.9C1072.47 242.9 1075.25 243.717 1077.25 245.35C1079.28 246.983 1080.3 249.2 1080.3 252C1080.3 254.067 1079.75 255.783 1078.65 257.15C1077.58 258.517 1076.15 259.467 1074.35 260ZM1061.65 257.1H1067.25C1068.65 257.1 1069.72 256.8 1070.45 256.2C1071.22 255.567 1071.6 254.65 1071.6 253.45C1071.6 252.25 1071.22 251.333 1070.45 250.7C1069.72 250.067 1068.65 249.75 1067.25 249.75H1061.65V257.1ZM1067.95 271.1C1069.38 271.1 1070.48 270.783 1071.25 270.15C1072.05 269.483 1072.45 268.533 1072.45 267.3C1072.45 266.067 1072.03 265.1 1071.2 264.4C1070.4 263.7 1069.28 263.35 1067.85 263.35H1061.65V271.1H1067.95ZM1112.81 254.2C1112.81 256.233 1112.34 258.1 1111.41 259.8C1110.48 261.467 1109.04 262.817 1107.11 263.85C1105.18 264.883 1102.78 265.4 1099.91 265.4H1094.61V278H1086.06V242.9H1099.91C1102.71 242.9 1105.08 243.383 1107.01 244.35C1108.94 245.317 1110.39 246.65 1111.36 248.35C1112.33 250.05 1112.81 252 1112.81 254.2ZM1099.26 258.6C1100.89 258.6 1102.11 258.217 1102.91 257.45C1103.71 256.683 1104.11 255.6 1104.11 254.2C1104.11 252.8 1103.71 251.717 1102.91 250.95C1102.11 250.183 1100.89 249.8 1099.26 249.8H1094.61V258.6H1099.26ZM1157.01 242.9V278H1148.46V256.95L1140.61 278H1133.71L1125.81 256.9V278H1117.26V242.9H1127.36L1137.21 267.2L1146.96 242.9H1157.01Z" fill="#1A3567"/>
<path d="M866.181 195.523L848.372 207.361C845.447 209.306 844.66 213.24 846.617 216.148L858.526 233.851C860.483 236.759 864.441 237.539 867.367 235.594L885.175 223.757C888.101 221.812 888.887 217.878 886.931 214.969L875.021 197.267C873.065 194.359 869.106 193.579 866.181 195.523Z" fill="#F3CA59"/>
<path d="M906.36 305.674C901.882 309.704 867.203 307.684 847.606 307.599C827.74 307.513 789.503 309.239 788.036 305.133C786.732 301.436 821.257 278.205 838.755 265.917C860.462 250.671 899.505 222.482 905.929 223.193C911.969 223.866 909.476 250.216 909.562 263.803C909.658 277.798 911.345 301.17 906.36 305.674Z" fill="#7C2969"/>
<path d="M796.607 241.248C797.648 241.083 798.713 241.271 799.642 241.783C800.387 242.34 800.942 243.127 801.225 244.03C801.414 244.672 801.357 245.149 800.641 249.897L799.859 255.063L817.862 242.192L835.867 229.32L836.715 229.223C837.542 229.095 838.386 229.253 839.118 229.67C839.901 230.098 840.796 231.324 840.947 232.21C841.086 233.074 840.951 233.961 840.561 234.739L840.259 235.323L822.294 248.243L804.327 261.163L809.531 262.039C814.319 262.846 814.79 262.944 815.346 263.323C816.081 263.81 816.76 264.685 817.014 265.502C817.231 266.549 817.063 267.641 816.543 268.567C815.971 269.313 815.187 269.855 814.3 270.114C813.64 270.289 813.064 270.211 803.535 268.645C795.551 267.331 793.355 266.923 792.903 266.67C791.985 266.083 791.311 265.164 791.017 264.092C790.922 263.586 791.205 261.484 792.431 253.487C793.892 244.03 793.996 243.466 794.382 242.902C794.942 242.128 795.718 241.55 796.607 241.248Z" fill="#97D3FB"/>
<path d="M1074.35 393C1076.38 393.433 1078.02 394.45 1079.25 396.05C1080.48 397.617 1081.1 399.417 1081.1 401.45C1081.1 404.383 1080.07 406.717 1078 408.45C1075.97 410.15 1073.12 411 1069.45 411H1053.1V375.9H1068.9C1072.47 375.9 1075.25 376.717 1077.25 378.35C1079.28 379.983 1080.3 382.2 1080.3 385C1080.3 387.067 1079.75 388.783 1078.65 390.15C1077.58 391.517 1076.15 392.467 1074.35 393ZM1061.65 390.1H1067.25C1068.65 390.1 1069.72 389.8 1070.45 389.2C1071.22 388.567 1071.6 387.65 1071.6 386.45C1071.6 385.25 1071.22 384.333 1070.45 383.7C1069.72 383.067 1068.65 382.75 1067.25 382.75H1061.65V390.1ZM1067.95 404.1C1069.38 404.1 1070.48 403.783 1071.25 403.15C1072.05 402.483 1072.45 401.533 1072.45 400.3C1072.45 399.067 1072.03 398.1 1071.2 397.4C1070.4 396.7 1069.28 396.35 1067.85 396.35H1061.65V404.1H1067.95ZM1112.81 387.2C1112.81 389.233 1112.34 391.1 1111.41 392.8C1110.48 394.467 1109.04 395.817 1107.11 396.85C1105.18 397.883 1102.78 398.4 1099.91 398.4H1094.61V411H1086.06V375.9H1099.91C1102.71 375.9 1105.08 376.383 1107.01 377.35C1108.94 378.317 1110.39 379.65 1111.36 381.35C1112.33 383.05 1112.81 385 1112.81 387.2ZM1099.26 391.6C1100.89 391.6 1102.11 391.217 1102.91 390.45C1103.71 389.683 1104.11 388.6 1104.11 387.2C1104.11 385.8 1103.71 384.717 1102.91 383.95C1102.11 383.183 1100.89 382.8 1099.26 382.8H1094.61V391.6H1099.26ZM1157.01 375.9V411H1148.46V389.95L1140.61 411H1133.71L1125.81 389.9V411H1117.26V375.9H1127.36L1137.21 400.2L1146.96 375.9H1157.01Z" fill="#1A3567"/>
<path d="M858.181 335.523L840.372 347.361C837.447 349.306 836.66 353.24 838.617 356.148L850.526 373.851C852.483 376.759 856.441 377.539 859.367 375.594L877.175 363.757C880.101 361.812 880.887 357.878 878.931 354.969L867.021 337.267C865.065 334.359 861.106 333.579 858.181 335.523Z" fill="#F3CA59"/>
<path d="M898.36 445.674C893.882 449.704 859.203 447.684 839.606 447.599C819.74 447.513 781.503 449.239 780.036 445.133C778.732 441.436 813.257 418.205 830.755 405.917C852.462 390.671 891.505 362.482 897.929 363.193C903.969 363.866 901.476 390.216 901.562 403.803C901.658 417.798 903.345 441.17 898.36 445.674Z" fill="#7C2969"/>
<path d="M788.607 381.248C789.648 381.083 790.713 381.271 791.642 381.783C792.387 382.34 792.942 383.127 793.225 384.03C793.414 384.672 793.357 385.149 792.641 389.897L791.859 395.063L809.862 382.192L827.867 369.32L828.715 369.223C829.542 369.095 830.386 369.253 831.118 369.67C831.901 370.098 832.796 371.324 832.947 372.21C833.086 373.074 832.951 373.961 832.561 374.739L832.259 375.323L814.294 388.243L796.327 401.163L801.531 402.039C806.319 402.846 806.79 402.944 807.346 403.323C808.081 403.81 808.76 404.685 809.014 405.502C809.231 406.549 809.063 407.641 808.543 408.567C807.971 409.313 807.187 409.855 806.3 410.114C805.64 410.289 805.064 410.211 795.535 408.645C787.551 407.331 785.355 406.923 784.903 406.67C783.985 406.083 783.311 405.164 783.017 404.092C782.922 403.586 783.205 401.484 784.431 393.487C785.892 384.03 785.996 383.466 786.382 382.902C786.942 382.128 787.718 381.55 788.607 381.248Z" fill="#97D3FB"/>
<path d="M979.875 282.75V239M1001.75 260.875H958" stroke="#1A3567" stroke-width="13" stroke-linecap="round"/>
<path d="M979.875 282.75V239M1001.75 260.875H958" stroke="#1A3567" stroke-width="13" stroke-linecap="round"/>
<path d="M1001.75 400.875H958" stroke="#1A3567" stroke-width="13" stroke-linecap="round"/>
<path d="M1001.75 400.875H958" stroke="#1A3567" stroke-width="13" stroke-linecap="round"/>
<path d="M739.75 400.875H696" stroke="#1A3567" stroke-width="13" stroke-linecap="round"/>
<path d="M739.75 400.875H696" stroke="#1A3567" stroke-width="13" stroke-linecap="round"/>
<path d="M717.875 282.75V239M739.75 260.875H696" stroke="#1A3567" stroke-width="13" stroke-linecap="round"/>
<path d="M717.875 282.75V239M739.75 260.875H696" stroke="#1A3567" stroke-width="13" stroke-linecap="round"/>
<defs>
<linearGradient id="paint0_linear_428_5444" x1="640" y1="0" x2="640" y2="720" gradientUnits="userSpaceOnUse">
<stop stop-color="#ECFAFF"/>
<stop offset="1" stop-color="#97C3DF"/>
</linearGradient>
<linearGradient id="paint1_linear_428_5444" x1="385.798" y1="62" x2="385.798" y2="628.982" gradientUnits="userSpaceOnUse">
<stop stop-color="#E2DFE3"/>
<stop offset="1" stop-color="#7C7B7D"/>
</linearGradient>
<linearGradient id="paint2_linear_428_5444" x1="385.798" y1="62" x2="385.798" y2="628.982" gradientUnits="userSpaceOnUse">
<stop stop-color="#E2DFE3"/>
<stop offset="1" stop-color="#D0C1C8"/>
</linearGradient>
<linearGradient id="paint3_linear_428_5444" x1="581.436" y1="253.263" x2="404.352" y2="521.537" gradientUnits="userSpaceOnUse">
<stop stop-color="#1E5C93"/>
<stop offset="1" stop-color="#1A3567"/>
</linearGradient>
</defs>
</svg>
