<svg width="1280" height="720" viewBox="0 0 1280 720" fill="none" xmlns="http://www.w3.org/2000/svg">
<rect width="1280" height="720" fill="url(#paint0_linear_428_5471)"/>
<path d="M140 160L155 168.66V151.34L140 160ZM1140 160L1125 151.34V168.66L1140 160ZM153.5 160V161.5H1126.5V160V158.5H153.5V160Z" fill="#1A3567"/>
<path d="M140 360L155 368.66V351.34L140 360ZM1140 360L1125 351.34V368.66L1140 360ZM153.5 360V361.5H1126.5V360V358.5H153.5V360Z" fill="#1A3567"/>
<path d="M140 560L155 568.66V551.34L140 560ZM1140 560L1125 551.34V568.66L1140 560ZM153.5 560V561.5H1126.5V560V558.5H153.5V560Z" fill="#1A3567"/>
<rect x="223" y="115" width="340" height="89" rx="18" fill="url(#paint1_linear_428_5471)"/>
<rect x="470" y="315" width="340" height="89" rx="18" fill="url(#paint2_linear_428_5471)"/>
<path d="M286.36 169.56H295.56V174H280.76V146.08H286.36V169.56ZM319.719 162.44C319.719 163.24 319.666 163.96 319.559 164.6H303.359C303.493 166.2 304.053 167.453 305.039 168.36C306.026 169.267 307.239 169.72 308.679 169.72C310.759 169.72 312.239 168.827 313.119 167.04H319.159C318.519 169.173 317.293 170.933 315.479 172.32C313.666 173.68 311.439 174.36 308.799 174.36C306.666 174.36 304.746 173.893 303.039 172.96C301.359 172 300.039 170.653 299.079 168.92C298.146 167.187 297.679 165.187 297.679 162.92C297.679 160.627 298.146 158.613 299.079 156.88C300.013 155.147 301.319 153.813 302.999 152.88C304.679 151.947 306.613 151.48 308.799 151.48C310.906 151.48 312.786 151.933 314.439 152.84C316.119 153.747 317.413 155.04 318.319 156.72C319.253 158.373 319.719 160.28 319.719 162.44ZM313.919 160.84C313.893 159.4 313.373 158.253 312.359 157.4C311.346 156.52 310.106 156.08 308.639 156.08C307.253 156.08 306.079 156.507 305.119 157.36C304.186 158.187 303.613 159.347 303.399 160.84H313.919ZM344.407 162.44C344.407 163.24 344.354 163.96 344.247 164.6H328.047C328.18 166.2 328.74 167.453 329.727 168.36C330.714 169.267 331.927 169.72 333.367 169.72C335.447 169.72 336.927 168.827 337.807 167.04H343.847C343.207 169.173 341.98 170.933 340.167 172.32C338.354 173.68 336.127 174.36 333.487 174.36C331.354 174.36 329.434 173.893 327.727 172.96C326.047 172 324.727 170.653 323.767 168.92C322.834 167.187 322.367 165.187 322.367 162.92C322.367 160.627 322.834 158.613 323.767 156.88C324.7 155.147 326.007 153.813 327.687 152.88C329.367 151.947 331.3 151.48 333.487 151.48C335.594 151.48 337.474 151.933 339.127 152.84C340.807 153.747 342.1 155.04 343.007 156.72C343.94 158.373 344.407 160.28 344.407 162.44ZM338.607 160.84C338.58 159.4 338.06 158.253 337.047 157.4C336.034 156.52 334.794 156.08 333.327 156.08C331.94 156.08 330.767 156.507 329.807 157.36C328.874 158.187 328.3 159.347 328.087 160.84H338.607ZM354.094 155.28C354.814 154.107 355.748 153.187 356.894 152.52C358.068 151.853 359.401 151.52 360.894 151.52V157.4H359.414C357.654 157.4 356.321 157.813 355.414 158.64C354.534 159.467 354.094 160.907 354.094 162.96V174H348.494V151.84H354.094V155.28ZM382.678 174.36C380.864 174.36 379.238 174.04 377.798 173.4C376.358 172.733 375.211 171.84 374.358 170.72C373.531 169.6 373.078 168.36 372.998 167H378.638C378.744 167.853 379.158 168.56 379.878 169.12C380.624 169.68 381.544 169.96 382.638 169.96C383.704 169.96 384.531 169.747 385.118 169.32C385.731 168.893 386.038 168.347 386.038 167.68C386.038 166.96 385.664 166.427 384.918 166.08C384.198 165.707 383.038 165.307 381.438 164.88C379.784 164.48 378.424 164.067 377.358 163.64C376.318 163.213 375.411 162.56 374.638 161.68C373.891 160.8 373.518 159.613 373.518 158.12C373.518 156.893 373.864 155.773 374.558 154.76C375.278 153.747 376.291 152.947 377.598 152.36C378.931 151.773 380.491 151.48 382.278 151.48C384.918 151.48 387.024 152.147 388.598 153.48C390.171 154.787 391.038 156.56 391.198 158.8H385.838C385.758 157.92 385.384 157.227 384.718 156.72C384.078 156.187 383.211 155.92 382.118 155.92C381.104 155.92 380.318 156.107 379.758 156.48C379.224 156.853 378.958 157.373 378.958 158.04C378.958 158.787 379.331 159.36 380.078 159.76C380.824 160.133 381.984 160.52 383.558 160.92C385.158 161.32 386.478 161.733 387.518 162.16C388.558 162.587 389.451 163.253 390.198 164.16C390.971 165.04 391.371 166.213 391.398 167.68C391.398 168.96 391.038 170.107 390.318 171.12C389.624 172.133 388.611 172.933 387.278 173.52C385.971 174.08 384.438 174.36 382.678 174.36ZM416.594 162.44C416.594 163.24 416.541 163.96 416.434 164.6H400.234C400.368 166.2 400.928 167.453 401.914 168.36C402.901 169.267 404.114 169.72 405.554 169.72C407.634 169.72 409.114 168.827 409.994 167.04H416.034C415.394 169.173 414.168 170.933 412.354 172.32C410.541 173.68 408.314 174.36 405.674 174.36C403.541 174.36 401.621 173.893 399.914 172.96C398.234 172 396.914 170.653 395.954 168.92C395.021 167.187 394.554 165.187 394.554 162.92C394.554 160.627 395.021 158.613 395.954 156.88C396.888 155.147 398.194 153.813 399.874 152.88C401.554 151.947 403.488 151.48 405.674 151.48C407.781 151.48 409.661 151.933 411.314 152.84C412.994 153.747 414.288 155.04 415.194 156.72C416.128 158.373 416.594 160.28 416.594 162.44ZM410.794 160.84C410.768 159.4 410.248 158.253 409.234 157.4C408.221 156.52 406.981 156.08 405.514 156.08C404.128 156.08 402.954 156.507 401.994 157.36C401.061 158.187 400.488 159.347 400.274 160.84H410.794ZM432.962 151.52C435.602 151.52 437.735 152.36 439.362 154.04C440.989 155.693 441.802 158.013 441.802 161V174H436.202V161.76C436.202 160 435.762 158.653 434.882 157.72C434.002 156.76 432.802 156.28 431.282 156.28C429.735 156.28 428.509 156.76 427.602 157.72C426.722 158.653 426.282 160 426.282 161.76V174H420.682V151.84H426.282V154.6C427.029 153.64 427.975 152.893 429.122 152.36C430.295 151.8 431.575 151.52 432.962 151.52ZM455.607 174.36C453.794 174.36 452.167 174.04 450.727 173.4C449.287 172.733 448.141 171.84 447.287 170.72C446.461 169.6 446.007 168.36 445.927 167H451.567C451.674 167.853 452.087 168.56 452.807 169.12C453.554 169.68 454.474 169.96 455.567 169.96C456.634 169.96 457.461 169.747 458.047 169.32C458.661 168.893 458.967 168.347 458.967 167.68C458.967 166.96 458.594 166.427 457.847 166.08C457.127 165.707 455.967 165.307 454.367 164.88C452.714 164.48 451.354 164.067 450.287 163.64C449.247 163.213 448.341 162.56 447.567 161.68C446.821 160.8 446.447 159.613 446.447 158.12C446.447 156.893 446.794 155.773 447.487 154.76C448.207 153.747 449.221 152.947 450.527 152.36C451.861 151.773 453.421 151.48 455.207 151.48C457.847 151.48 459.954 152.147 461.527 153.48C463.101 154.787 463.967 156.56 464.127 158.8H458.767C458.687 157.92 458.314 157.227 457.647 156.72C457.007 156.187 456.141 155.92 455.047 155.92C454.034 155.92 453.247 156.107 452.687 156.48C452.154 156.853 451.887 157.373 451.887 158.04C451.887 158.787 452.261 159.36 453.007 159.76C453.754 160.133 454.914 160.52 456.487 160.92C458.087 161.32 459.407 161.733 460.447 162.16C461.487 162.587 462.381 163.253 463.127 164.16C463.901 165.04 464.301 166.213 464.327 167.68C464.327 168.96 463.967 170.107 463.247 171.12C462.554 172.133 461.541 172.933 460.207 173.52C458.901 174.08 457.367 174.36 455.607 174.36ZM478.764 174.36C476.631 174.36 474.711 173.893 473.004 172.96C471.297 172 469.951 170.653 468.964 168.92C468.004 167.187 467.524 165.187 467.524 162.92C467.524 160.653 468.017 158.653 469.004 156.92C470.017 155.187 471.391 153.853 473.124 152.92C474.857 151.96 476.791 151.48 478.924 151.48C481.057 151.48 482.991 151.96 484.724 152.92C486.457 153.853 487.817 155.187 488.804 156.92C489.817 158.653 490.324 160.653 490.324 162.92C490.324 165.187 489.804 167.187 488.764 168.92C487.751 170.653 486.364 172 484.604 172.96C482.871 173.893 480.924 174.36 478.764 174.36ZM478.764 169.48C479.777 169.48 480.724 169.24 481.604 168.76C482.511 168.253 483.231 167.507 483.764 166.52C484.297 165.533 484.564 164.333 484.564 162.92C484.564 160.813 484.004 159.2 482.884 158.08C481.791 156.933 480.444 156.36 478.844 156.36C477.244 156.36 475.897 156.933 474.804 158.08C473.737 159.2 473.204 160.813 473.204 162.92C473.204 165.027 473.724 166.653 474.764 167.8C475.831 168.92 477.164 169.48 478.764 169.48ZM500.032 155.28C500.752 154.107 501.685 153.187 502.832 152.52C504.005 151.853 505.339 151.52 506.832 151.52V157.4H505.352C503.592 157.4 502.259 157.813 501.352 158.64C500.472 159.467 500.032 160.907 500.032 162.96V174H494.432V151.84H500.032V155.28Z" fill="#ECFAFF"/>
<path d="M518.36 350.6V357.6H527.76V362.04H518.36V369.44H528.96V374H512.76V346.04H528.96V350.6H518.36ZM542.529 374.36C540.716 374.36 539.089 374.04 537.649 373.4C536.209 372.733 535.062 371.84 534.209 370.72C533.382 369.6 532.929 368.36 532.849 367H538.489C538.596 367.853 539.009 368.56 539.729 369.12C540.476 369.68 541.396 369.96 542.489 369.96C543.556 369.96 544.382 369.747 544.969 369.32C545.582 368.893 545.889 368.347 545.889 367.68C545.889 366.96 545.516 366.427 544.769 366.08C544.049 365.707 542.889 365.307 541.289 364.88C539.636 364.48 538.276 364.067 537.209 363.64C536.169 363.213 535.262 362.56 534.489 361.68C533.742 360.8 533.369 359.613 533.369 358.12C533.369 356.893 533.716 355.773 534.409 354.76C535.129 353.747 536.142 352.947 537.449 352.36C538.782 351.773 540.342 351.48 542.129 351.48C544.769 351.48 546.876 352.147 548.449 353.48C550.022 354.787 550.889 356.56 551.049 358.8H545.689C545.609 357.92 545.236 357.227 544.569 356.72C543.929 356.187 543.062 355.92 541.969 355.92C540.956 355.92 540.169 356.107 539.609 356.48C539.076 356.853 538.809 357.373 538.809 358.04C538.809 358.787 539.182 359.36 539.929 359.76C540.676 360.133 541.836 360.52 543.409 360.92C545.009 361.32 546.329 361.733 547.369 362.16C548.409 362.587 549.302 363.253 550.049 364.16C550.822 365.04 551.222 366.213 551.249 367.68C551.249 368.96 550.889 370.107 550.169 371.12C549.476 372.133 548.462 372.933 547.129 373.52C545.822 374.08 544.289 374.36 542.529 374.36ZM561.446 355.04C562.166 354.027 563.153 353.187 564.406 352.52C565.686 351.827 567.139 351.48 568.766 351.48C570.659 351.48 572.366 351.947 573.886 352.88C575.433 353.813 576.646 355.147 577.526 356.88C578.433 358.587 578.886 360.573 578.886 362.84C578.886 365.107 578.433 367.12 577.526 368.88C576.646 370.613 575.433 371.96 573.886 372.92C572.366 373.88 570.659 374.36 568.766 374.36C567.139 374.36 565.699 374.027 564.446 373.36C563.219 372.693 562.219 371.853 561.446 370.84V384.56H555.846V351.84H561.446V355.04ZM573.166 362.84C573.166 361.507 572.886 360.36 572.326 359.4C571.793 358.413 571.073 357.667 570.166 357.16C569.286 356.653 568.326 356.4 567.286 356.4C566.273 356.4 565.313 356.667 564.406 357.2C563.526 357.707 562.806 358.453 562.246 359.44C561.713 360.427 561.446 361.587 561.446 362.92C561.446 364.253 561.713 365.413 562.246 366.4C562.806 367.387 563.526 368.147 564.406 368.68C565.313 369.187 566.273 369.44 567.286 369.44C568.326 369.44 569.286 369.173 570.166 368.64C571.073 368.107 571.793 367.347 572.326 366.36C572.886 365.373 573.166 364.2 573.166 362.84ZM603.555 362.44C603.555 363.24 603.502 363.96 603.395 364.6H587.195C587.329 366.2 587.889 367.453 588.875 368.36C589.862 369.267 591.075 369.72 592.515 369.72C594.595 369.72 596.075 368.827 596.955 367.04H602.995C602.355 369.173 601.129 370.933 599.315 372.32C597.502 373.68 595.275 374.36 592.635 374.36C590.502 374.36 588.582 373.893 586.875 372.96C585.195 372 583.875 370.653 582.915 368.92C581.982 367.187 581.515 365.187 581.515 362.92C581.515 360.627 581.982 358.613 582.915 356.88C583.849 355.147 585.155 353.813 586.835 352.88C588.515 351.947 590.449 351.48 592.635 351.48C594.742 351.48 596.622 351.933 598.275 352.84C599.955 353.747 601.249 355.04 602.155 356.72C603.089 358.373 603.555 360.28 603.555 362.44ZM597.755 360.84C597.729 359.4 597.209 358.253 596.195 357.4C595.182 356.52 593.942 356.08 592.475 356.08C591.089 356.08 589.915 356.507 588.955 357.36C588.022 358.187 587.449 359.347 587.235 360.84H597.755ZM613.243 355.28C613.963 354.107 614.896 353.187 616.043 352.52C617.216 351.853 618.549 351.52 620.043 351.52V357.4H618.563C616.803 357.4 615.469 357.813 614.563 358.64C613.683 359.467 613.243 360.907 613.243 362.96V374H607.643V351.84H613.243V355.28ZM622.375 362.84C622.375 360.6 622.815 358.613 623.695 356.88C624.601 355.147 625.815 353.813 627.335 352.88C628.881 351.947 630.601 351.48 632.495 351.48C634.148 351.48 635.588 351.813 636.815 352.48C638.068 353.147 639.068 353.987 639.815 355V351.84H645.455V374H639.815V370.76C639.095 371.8 638.095 372.667 636.815 373.36C635.561 374.027 634.108 374.36 632.455 374.36C630.588 374.36 628.881 373.88 627.335 372.92C625.815 371.96 624.601 370.613 623.695 368.88C622.815 367.12 622.375 365.107 622.375 362.84ZM639.815 362.92C639.815 361.56 639.548 360.4 639.015 359.44C638.481 358.453 637.761 357.707 636.855 357.2C635.948 356.667 634.975 356.4 633.935 356.4C632.895 356.4 631.935 356.653 631.055 357.16C630.175 357.667 629.455 358.413 628.895 359.4C628.361 360.36 628.095 361.507 628.095 362.84C628.095 364.173 628.361 365.347 628.895 366.36C629.455 367.347 630.175 368.107 631.055 368.64C631.961 369.173 632.921 369.44 633.935 369.44C634.975 369.44 635.948 369.187 636.855 368.68C637.761 368.147 638.481 367.4 639.015 366.44C639.548 365.453 639.815 364.28 639.815 362.92ZM656.524 355.28C657.244 354.107 658.177 353.187 659.324 352.52C660.497 351.853 661.831 351.52 663.324 351.52V357.4H661.844C660.084 357.4 658.751 357.813 657.844 358.64C656.964 359.467 656.524 360.907 656.524 362.96V374H650.924V351.84H656.524V355.28ZM675.307 350V344.84H684.947V374H679.187V350H675.307ZM709.131 374.36C707.317 374.36 705.691 374.04 704.251 373.4C702.811 372.733 701.664 371.84 700.811 370.72C699.984 369.6 699.531 368.36 699.451 367H705.091C705.197 367.853 705.611 368.56 706.331 369.12C707.077 369.68 707.997 369.96 709.091 369.96C710.157 369.96 710.984 369.747 711.571 369.32C712.184 368.893 712.491 368.347 712.491 367.68C712.491 366.96 712.117 366.427 711.371 366.08C710.651 365.707 709.491 365.307 707.891 364.88C706.237 364.48 704.877 364.067 703.811 363.64C702.771 363.213 701.864 362.56 701.091 361.68C700.344 360.8 699.971 359.613 699.971 358.12C699.971 356.893 700.317 355.773 701.011 354.76C701.731 353.747 702.744 352.947 704.051 352.36C705.384 351.773 706.944 351.48 708.731 351.48C711.371 351.48 713.477 352.147 715.051 353.48C716.624 354.787 717.491 356.56 717.651 358.8H712.291C712.211 357.92 711.837 357.227 711.171 356.72C710.531 356.187 709.664 355.92 708.571 355.92C707.557 355.92 706.771 356.107 706.211 356.48C705.677 356.853 705.411 357.373 705.411 358.04C705.411 358.787 705.784 359.36 706.531 359.76C707.277 360.133 708.437 360.52 710.011 360.92C711.611 361.32 712.931 361.733 713.971 362.16C715.011 362.587 715.904 363.253 716.651 364.16C717.424 365.04 717.824 366.213 717.851 367.68C717.851 368.96 717.491 370.107 716.771 371.12C716.077 372.133 715.064 372.933 713.731 373.52C712.424 374.08 710.891 374.36 709.131 374.36ZM743.048 362.44C743.048 363.24 742.994 363.96 742.888 364.6H726.688C726.821 366.2 727.381 367.453 728.368 368.36C729.354 369.267 730.568 369.72 732.008 369.72C734.088 369.72 735.568 368.827 736.448 367.04H742.488C741.848 369.173 740.621 370.933 738.808 372.32C736.994 373.68 734.768 374.36 732.128 374.36C729.994 374.36 728.074 373.893 726.368 372.96C724.688 372 723.368 370.653 722.408 368.92C721.474 367.187 721.007 365.187 721.007 362.92C721.007 360.627 721.474 358.613 722.408 356.88C723.341 355.147 724.648 353.813 726.328 352.88C728.008 351.947 729.941 351.48 732.128 351.48C734.234 351.48 736.114 351.933 737.768 352.84C739.448 353.747 740.741 355.04 741.648 356.72C742.581 358.373 743.048 360.28 743.048 362.44ZM737.248 360.84C737.221 359.4 736.701 358.253 735.688 357.4C734.674 356.52 733.434 356.08 731.968 356.08C730.581 356.08 729.408 356.507 728.448 357.36C727.514 358.187 726.941 359.347 726.728 360.84H737.248ZM745.695 362.92C745.695 360.627 746.162 358.627 747.095 356.92C748.028 355.187 749.322 353.853 750.975 352.92C752.628 351.96 754.522 351.48 756.655 351.48C759.402 351.48 761.668 352.173 763.455 353.56C765.268 354.92 766.482 356.84 767.095 359.32H761.055C760.735 358.36 760.188 357.613 759.415 357.08C758.668 356.52 757.735 356.24 756.615 356.24C755.015 356.24 753.748 356.827 752.815 358C751.882 359.147 751.415 360.787 751.415 362.92C751.415 365.027 751.882 366.667 752.815 367.84C753.748 368.987 755.015 369.56 756.615 369.56C758.882 369.56 760.362 368.547 761.055 366.52H767.095C766.482 368.92 765.268 370.827 763.455 372.24C761.642 373.653 759.375 374.36 756.655 374.36C754.522 374.36 752.628 373.893 750.975 372.96C749.322 372 748.028 370.667 747.095 368.96C746.162 367.227 745.695 365.213 745.695 362.92Z" fill="#ECFAFF"/>
<rect x="746" y="515" width="340" height="89" rx="18" fill="url(#paint3_linear_428_5471)"/>
<path d="M854.52 546.08C857.453 546.08 860.027 546.653 862.24 547.8C864.48 548.947 866.2 550.587 867.4 552.72C868.627 554.827 869.24 557.28 869.24 560.08C869.24 562.88 868.627 565.333 867.4 567.44C866.2 569.52 864.48 571.133 862.24 572.28C860.027 573.427 857.453 574 854.52 574H844.76V546.08H854.52ZM854.32 569.24C857.253 569.24 859.52 568.44 861.12 566.84C862.72 565.24 863.52 562.987 863.52 560.08C863.52 557.173 862.72 554.907 861.12 553.28C859.52 551.627 857.253 550.8 854.32 550.8H850.36V569.24H854.32ZM876.272 549.2C875.285 549.2 874.459 548.893 873.792 548.28C873.152 547.64 872.832 546.853 872.832 545.92C872.832 544.987 873.152 544.213 873.792 543.6C874.459 542.96 875.285 542.64 876.272 542.64C877.259 542.64 878.072 542.96 878.712 543.6C879.379 544.213 879.712 544.987 879.712 545.92C879.712 546.853 879.379 547.64 878.712 548.28C878.072 548.893 877.259 549.2 876.272 549.2ZM879.032 551.84V574H873.432V551.84H879.032ZM890.165 555.08C890.885 554.013 891.871 553.147 893.125 552.48C894.405 551.813 895.858 551.48 897.485 551.48C899.378 551.48 901.085 551.947 902.605 552.88C904.151 553.813 905.365 555.147 906.245 556.88C907.151 558.587 907.605 560.573 907.605 562.84C907.605 565.107 907.151 567.12 906.245 568.88C905.365 570.613 904.151 571.96 902.605 572.92C901.085 573.88 899.378 574.36 897.485 574.36C895.831 574.36 894.378 574.04 893.125 573.4C891.898 572.733 890.911 571.88 890.165 570.84V574H884.565V544.4H890.165V555.08ZM901.885 562.84C901.885 561.507 901.605 560.36 901.045 559.4C900.511 558.413 899.791 557.667 898.885 557.16C898.005 556.653 897.045 556.4 896.005 556.4C894.991 556.4 894.031 556.667 893.125 557.2C892.245 557.707 891.525 558.453 890.965 559.44C890.431 560.427 890.165 561.587 890.165 562.92C890.165 564.253 890.431 565.413 890.965 566.4C891.525 567.387 892.245 568.147 893.125 568.68C894.031 569.187 894.991 569.44 896.005 569.44C897.045 569.44 898.005 569.173 898.885 568.64C899.791 568.107 900.511 567.347 901.045 566.36C901.605 565.373 901.885 564.2 901.885 562.84ZM932.594 551.84V574H926.954V571.2C926.234 572.16 925.287 572.92 924.114 573.48C922.967 574.013 921.714 574.28 920.354 574.28C918.621 574.28 917.087 573.92 915.754 573.2C914.421 572.453 913.367 571.373 912.594 569.96C911.847 568.52 911.474 566.813 911.474 564.84V551.84H917.074V564.04C917.074 565.8 917.514 567.16 918.394 568.12C919.274 569.053 920.474 569.52 921.994 569.52C923.541 569.52 924.754 569.053 925.634 568.12C926.514 567.16 926.954 565.8 926.954 564.04V551.84H932.594ZM940.959 549.2C939.946 549.2 939.106 548.893 938.439 548.28C937.799 547.64 937.479 546.853 937.479 545.92C937.479 544.987 937.799 544.213 938.439 543.6C939.106 542.96 939.946 542.64 940.959 542.64C941.946 542.64 942.759 542.96 943.399 543.6C944.039 544.213 944.359 544.987 944.359 545.92C944.359 546.853 944.039 547.64 943.399 548.28C942.759 548.893 941.946 549.2 940.959 549.2ZM943.719 577.64C943.719 580.093 943.106 581.853 941.879 582.92C940.679 584.013 938.946 584.56 936.679 584.56H934.199V579.8H935.799C936.653 579.8 937.253 579.627 937.599 579.28C937.946 578.96 938.119 578.427 938.119 577.68V551.84H943.719V577.64ZM947.812 562.84C947.812 560.6 948.252 558.613 949.132 556.88C950.039 555.147 951.252 553.813 952.772 552.88C954.319 551.947 956.039 551.48 957.932 551.48C959.586 551.48 961.026 551.813 962.252 552.48C963.506 553.147 964.506 553.987 965.252 555V551.84H970.892V574H965.252V570.76C964.532 571.8 963.532 572.667 962.252 573.36C960.999 574.027 959.546 574.36 957.892 574.36C956.026 574.36 954.319 573.88 952.772 572.92C951.252 571.96 950.039 570.613 949.132 568.88C948.252 567.12 947.812 565.107 947.812 562.84ZM965.252 562.92C965.252 561.56 964.986 560.4 964.452 559.44C963.919 558.453 963.199 557.707 962.292 557.2C961.386 556.667 960.412 556.4 959.372 556.4C958.332 556.4 957.372 556.653 956.492 557.16C955.612 557.667 954.892 558.413 954.332 559.4C953.799 560.36 953.532 561.507 953.532 562.84C953.532 564.173 953.799 565.347 954.332 566.36C954.892 567.347 955.612 568.107 956.492 568.64C957.399 569.173 958.359 569.44 959.372 569.44C960.412 569.44 961.386 569.187 962.292 568.68C963.199 568.147 963.919 567.4 964.452 566.44C964.986 565.453 965.252 564.28 965.252 562.92ZM981.962 555.28C982.682 554.107 983.615 553.187 984.762 552.52C985.935 551.853 987.268 551.52 988.762 551.52V557.4H987.282C985.522 557.4 984.188 557.813 983.282 558.64C982.402 559.467 981.962 560.907 981.962 562.96V574H976.362V551.84H981.962V555.28Z" fill="#ECFAFF"/>
<path fill-rule="evenodd" clip-rule="evenodd" d="M595 203.5C595 221.468 580.468 236 562.5 236C544.532 236 530 221.468 530 203.5C530 185.532 544.532 171 562.5 171C580.468 171 595 185.532 595 203.5ZM590.357 203.5C590.357 218.868 577.868 231.357 562.5 231.357C555.629 231.357 549.361 228.878 544.532 224.764L583.811 185.486C588.061 190.508 590.397 196.874 590.404 203.454L590.357 203.5ZM541.143 221.468L580.421 182.189C575.399 177.939 569.034 175.603 562.454 175.596C547.086 175.596 534.596 188.086 534.596 203.454C534.596 210.325 537.076 216.593 541.189 221.421L541.143 221.468Z" fill="#FF0000"/>
<path fill-rule="evenodd" clip-rule="evenodd" d="M1086 592.5C1086 610.468 1071.47 625 1053.5 625C1035.53 625 1021 610.468 1021 592.5C1021 574.532 1035.53 560 1053.5 560C1071.47 560 1086 574.532 1086 592.5ZM1081.36 592.5C1081.36 607.868 1068.87 620.357 1053.5 620.357C1046.63 620.357 1040.36 617.878 1035.53 613.764L1074.81 574.486C1079.06 579.508 1081.4 585.874 1081.4 592.454L1081.36 592.5ZM1032.14 610.468L1071.42 571.189C1066.4 566.939 1060.03 564.603 1053.45 564.596C1038.09 564.596 1025.6 577.086 1025.6 592.454C1025.6 599.325 1028.08 605.593 1032.19 610.421L1032.14 610.468Z" fill="#FF0000"/>
<defs>
<linearGradient id="paint0_linear_428_5471" x1="640" y1="0" x2="640" y2="720" gradientUnits="userSpaceOnUse">
<stop stop-color="#ECFAFF"/>
<stop offset="1" stop-color="#9BC5E0"/>
</linearGradient>
<linearGradient id="paint1_linear_428_5471" x1="393" y1="115" x2="393" y2="204" gradientUnits="userSpaceOnUse">
<stop stop-color="#1E5C93"/>
<stop offset="1" stop-color="#2E91E9"/>
</linearGradient>
<linearGradient id="paint2_linear_428_5471" x1="640" y1="315" x2="640" y2="404" gradientUnits="userSpaceOnUse">
<stop stop-color="#CE393C"/>
<stop offset="1" stop-color="#E35F61"/>
</linearGradient>
<linearGradient id="paint3_linear_428_5471" x1="916" y1="515" x2="916" y2="604" gradientUnits="userSpaceOnUse">
<stop stop-color="#1EAD28"/>
<stop offset="1" stop-color="#38813E"/>
</linearGradient>
</defs>
</svg>
