<svg width="1280" height="720" viewBox="0 0 1280 720" fill="none" xmlns="http://www.w3.org/2000/svg">
<rect width="1280" height="720" fill="#ECFAFF"/>
<circle cx="640" cy="323" r="173" fill="white" stroke="#1A3567" stroke-width="14"/>
<path d="M642.85 167.688V179.087" stroke="#1A3567" stroke-width="6"/>
<path d="M642.85 464.773V476.173" stroke="#1A3567" stroke-width="6"/>
<path d="M529.205 217.648L537.604 225.356" stroke="#1A3567" stroke-width="6"/>
<path d="M748.098 418.508L756.497 426.215" stroke="#1A3567" stroke-width="6"/>
<path d="M756.497 217.648L748.098 225.356" stroke="#1A3567" stroke-width="6"/>
<path d="M537.604 418.508L529.205 426.215" stroke="#1A3567" stroke-width="6"/>
<path d="M797.098 321.578H785.699" stroke="#1A3567" stroke-width="6"/>
<path d="M500.008 321.578H488.609" stroke="#1A3567" stroke-width="6"/>
<path d="M636.438 204.732L643.206 196.539L649.618 204.732" stroke="#1A3567" stroke-width="6"/>
<path d="M758.979 316.594L767.172 323.362L758.979 329.774" stroke="#1A3567" stroke-width="6"/>
<path d="M642.85 196.898V323.001H763.253" stroke="#1A3567" stroke-width="6"/>
<circle cx="642.493" cy="321.218" r="8.40558" fill="#1A3567" stroke="#1A3567"/>
<path d="M488.5 66.9V87.9C488.5 90 489.017 91.6167 490.05 92.75C491.083 93.8833 492.6 94.45 494.6 94.45C496.6 94.45 498.133 93.8833 499.2 92.75C500.267 91.6167 500.8 90 500.8 87.9V66.9H509.35V87.85C509.35 90.9833 508.683 93.6333 507.35 95.8C506.017 97.9667 504.217 99.6 501.95 100.7C499.717 101.8 497.217 102.35 494.45 102.35C491.683 102.35 489.2 101.817 487 100.75C484.833 99.65 483.117 98.0167 481.85 95.85C480.583 93.65 479.95 90.9833 479.95 87.85V66.9H488.5ZM500.45 59.85L488.4 64.9V59L500.45 53.2V59.85ZM523.904 65V102H515.354V65H523.904ZM545.65 94.75V102H541.3C538.2 102 535.783 101.25 534.05 99.75C532.317 98.2167 531.45 95.7333 531.45 92.3V81.2H528.05V74.1H531.45V67.3H540V74.1H545.6V81.2H540V92.4C540 93.2333 540.2 93.8333 540.6 94.2C541 94.5667 541.667 94.75 542.6 94.75H545.65ZM554.713 71.2C553.213 71.2 551.979 70.7667 551.013 69.9C550.079 69 549.613 67.9 549.613 66.6C549.613 65.2667 550.079 64.1667 551.013 63.3C551.979 62.4 553.213 61.95 554.713 61.95C556.179 61.95 557.379 62.4 558.313 63.3C559.279 64.1667 559.763 65.2667 559.763 66.6C559.763 67.9 559.279 69 558.313 69.9C557.379 70.7667 556.179 71.2 554.713 71.2ZM558.963 74.1V102H550.413V74.1H558.963ZM600.759 73.8C604.225 73.8 606.975 74.85 609.009 76.95C611.075 79.05 612.109 81.9667 612.109 85.7V102H603.609V86.85C603.609 85.05 603.125 83.6667 602.159 82.7C601.225 81.7 599.925 81.2 598.259 81.2C596.592 81.2 595.275 81.7 594.309 82.7C593.375 83.6667 592.909 85.05 592.909 86.85V102H584.409V86.85C584.409 85.05 583.925 83.6667 582.959 82.7C582.025 81.7 580.725 81.2 579.059 81.2C577.392 81.2 576.075 81.7 575.109 82.7C574.175 83.6667 573.709 85.05 573.709 86.85V102H565.159V74.1H573.709V77.6C574.575 76.4333 575.709 75.5167 577.109 74.85C578.509 74.15 580.092 73.8 581.859 73.8C583.959 73.8 585.825 74.25 587.459 75.15C589.125 76.05 590.425 77.3333 591.359 79C592.325 77.4667 593.642 76.2167 595.309 75.25C596.975 74.2833 598.792 73.8 600.759 73.8ZM630.788 102.4C628.055 102.4 625.588 101.817 623.388 100.65C621.222 99.4833 619.505 97.8167 618.238 95.65C617.005 93.4833 616.388 90.95 616.388 88.05C616.388 85.1833 617.022 82.6667 618.288 80.5C619.555 78.3 621.288 76.6167 623.488 75.45C625.688 74.2833 628.155 73.7 630.888 73.7C633.622 73.7 636.088 74.2833 638.288 75.45C640.488 76.6167 642.222 78.3 643.488 80.5C644.755 82.6667 645.388 85.1833 645.388 88.05C645.388 90.9167 644.738 93.45 643.438 95.65C642.172 97.8167 640.422 99.4833 638.188 100.65C635.988 101.817 633.522 102.4 630.788 102.4ZM630.788 95C632.422 95 633.805 94.4 634.938 93.2C636.105 92 636.688 90.2833 636.688 88.05C636.688 85.8167 636.122 84.1 634.988 82.9C633.888 81.7 632.522 81.1 630.888 81.1C629.222 81.1 627.838 81.7 626.738 82.9C625.638 84.0667 625.088 85.7833 625.088 88.05C625.088 90.2833 625.622 92 626.688 93.2C627.788 94.4 629.155 95 630.788 95ZM669.07 95.4H680.27V102H660.52V66.9H669.07V95.4ZM682.648 88C682.648 85.1333 683.181 82.6167 684.248 80.45C685.348 78.2833 686.831 76.6167 688.698 75.45C690.565 74.2833 692.648 73.7 694.948 73.7C696.915 73.7 698.631 74.1 700.098 74.9C701.598 75.7 702.748 76.75 703.548 78.05V74.1H712.098V102H703.548V98.05C702.715 99.35 701.548 100.4 700.048 101.2C698.581 102 696.865 102.4 694.898 102.4C692.631 102.4 690.565 101.817 688.698 100.65C686.831 99.45 685.348 97.7667 684.248 95.6C683.181 93.4 682.648 90.8667 682.648 88ZM703.548 88.05C703.548 85.9167 702.948 84.2333 701.748 83C700.581 81.7667 699.148 81.15 697.448 81.15C695.748 81.15 694.298 81.7667 693.098 83C691.931 84.2 691.348 85.8667 691.348 88C691.348 90.1333 691.931 91.8333 693.098 93.1C694.298 94.3333 695.748 94.95 697.448 94.95C699.148 94.95 700.581 94.3333 701.748 93.1C702.948 91.8667 703.548 90.1833 703.548 88.05ZM733.834 94.75V102H729.484C726.384 102 723.967 101.25 722.234 99.75C720.5 98.2167 719.634 95.7333 719.634 92.3V81.2H716.234V74.1H719.634V67.3H728.184V74.1H733.784V81.2H728.184V92.4C728.184 93.2333 728.384 93.8333 728.784 94.2C729.184 94.5667 729.85 94.75 730.784 94.75H733.834ZM742.896 71.2C741.396 71.2 740.163 70.7667 739.196 69.9C738.263 69 737.796 67.9 737.796 66.6C737.796 65.2667 738.263 64.1667 739.196 63.3C740.163 62.4 741.396 61.95 742.896 61.95C744.363 61.95 745.563 62.4 746.496 63.3C747.463 64.1667 747.946 65.2667 747.946 66.6C747.946 67.9 747.463 69 746.496 69.9C745.563 70.7667 744.363 71.2 742.896 71.2ZM747.146 74.1V102H738.596V74.1H747.146ZM751.642 88C751.642 85.1333 752.176 82.6167 753.242 80.45C754.342 78.2833 755.826 76.6167 757.692 75.45C759.559 74.2833 761.642 73.7 763.942 73.7C765.776 73.7 767.442 74.0833 768.942 74.85C770.476 75.6167 771.676 76.65 772.542 77.95V65H781.092V102H772.542V98C771.742 99.3333 770.592 100.4 769.092 101.2C767.626 102 765.909 102.4 763.942 102.4C761.642 102.4 759.559 101.817 757.692 100.65C755.826 99.45 754.342 97.7667 753.242 95.6C752.176 93.4 751.642 90.8667 751.642 88ZM772.542 88.05C772.542 85.9167 771.942 84.2333 770.742 83C769.576 81.7667 768.142 81.15 766.442 81.15C764.742 81.15 763.292 81.7667 762.092 83C760.926 84.2 760.342 85.8667 760.342 88C760.342 90.1333 760.926 91.8333 762.092 93.1C763.292 94.3333 764.742 94.95 766.442 94.95C768.142 94.95 769.576 94.3333 770.742 93.1C771.942 91.8667 772.542 90.1833 772.542 88.05ZM799.978 102.4C797.244 102.4 794.778 101.817 792.578 100.65C790.411 99.4833 788.694 97.8167 787.428 95.65C786.194 93.4833 785.578 90.95 785.578 88.05C785.578 85.1833 786.211 82.6667 787.478 80.5C788.744 78.3 790.478 76.6167 792.678 75.45C794.878 74.2833 797.344 73.7 800.078 73.7C802.811 73.7 805.278 74.2833 807.478 75.45C809.678 76.6167 811.411 78.3 812.678 80.5C813.944 82.6667 814.578 85.1833 814.578 88.05C814.578 90.9167 813.928 93.45 812.628 95.65C811.361 97.8167 809.611 99.4833 807.378 100.65C805.178 101.817 802.711 102.4 799.978 102.4ZM799.978 95C801.611 95 802.994 94.4 804.128 93.2C805.294 92 805.878 90.2833 805.878 88.05C805.878 85.8167 805.311 84.1 804.178 82.9C803.078 81.7 801.711 81.1 800.078 81.1C798.411 81.1 797.028 81.7 795.928 82.9C794.828 84.0667 794.278 85.7833 794.278 88.05C794.278 90.2833 794.811 92 795.878 93.2C796.978 94.4 798.344 95 799.978 95Z" fill="#CE393C"/>
<path d="M901.451 276.9V283.75H892.151V312H883.601V283.75H874.301V276.9H901.451ZM910.042 281.2C908.542 281.2 907.308 280.767 906.342 279.9C905.408 279 904.942 277.9 904.942 276.6C904.942 275.267 905.408 274.167 906.342 273.3C907.308 272.4 908.542 271.95 910.042 271.95C911.508 271.95 912.708 272.4 913.642 273.3C914.608 274.167 915.092 275.267 915.092 276.6C915.092 277.9 914.608 279 913.642 279.9C912.708 280.767 911.508 281.2 910.042 281.2ZM914.292 284.1V312H905.742V284.1H914.292ZM946.788 297.6C946.788 298.4 946.738 299.233 946.638 300.1H927.288C927.421 301.833 927.971 303.167 928.938 304.1C929.938 305 931.154 305.45 932.588 305.45C934.721 305.45 936.204 304.55 937.038 302.75H946.138C945.671 304.583 944.821 306.233 943.588 307.7C942.388 309.167 940.871 310.317 939.038 311.15C937.204 311.983 935.154 312.4 932.888 312.4C930.154 312.4 927.721 311.817 925.588 310.65C923.454 309.483 921.788 307.817 920.588 305.65C919.388 303.483 918.788 300.95 918.788 298.05C918.788 295.15 919.371 292.617 920.538 290.45C921.738 288.283 923.404 286.617 925.538 285.45C927.671 284.283 930.121 283.7 932.888 283.7C935.588 283.7 937.988 284.267 940.088 285.4C942.188 286.533 943.821 288.15 944.988 290.25C946.188 292.35 946.788 294.8 946.788 297.6ZM938.038 295.35C938.038 293.883 937.538 292.717 936.538 291.85C935.538 290.983 934.288 290.55 932.788 290.55C931.354 290.55 930.138 290.967 929.138 291.8C928.171 292.633 927.571 293.817 927.338 295.35H938.038ZM986.898 283.8C990.365 283.8 993.115 284.85 995.148 286.95C997.215 289.05 998.248 291.967 998.248 295.7V312H989.748V296.85C989.748 295.05 989.265 293.667 988.298 292.7C987.365 291.7 986.065 291.2 984.398 291.2C982.732 291.2 981.415 291.7 980.448 292.7C979.515 293.667 979.048 295.05 979.048 296.85V312H970.548V296.85C970.548 295.05 970.065 293.667 969.098 292.7C968.165 291.7 966.865 291.2 965.198 291.2C963.532 291.2 962.215 291.7 961.248 292.7C960.315 293.667 959.848 295.05 959.848 296.85V312H951.298V284.1H959.848V287.6C960.715 286.433 961.848 285.517 963.248 284.85C964.648 284.15 966.232 283.8 967.998 283.8C970.098 283.8 971.965 284.25 973.598 285.15C975.265 286.05 976.565 287.333 977.498 289C978.465 287.467 979.782 286.217 981.448 285.25C983.115 284.283 984.932 283.8 986.898 283.8ZM1012.78 288.05C1013.61 286.75 1014.76 285.7 1016.23 284.9C1017.69 284.1 1019.41 283.7 1021.38 283.7C1023.68 283.7 1025.76 284.283 1027.63 285.45C1029.49 286.617 1030.96 288.283 1032.03 290.45C1033.13 292.617 1033.68 295.133 1033.68 298C1033.68 300.867 1033.13 303.4 1032.03 305.6C1030.96 307.767 1029.49 309.45 1027.63 310.65C1025.76 311.817 1023.68 312.4 1021.38 312.4C1019.44 312.4 1017.73 312 1016.23 311.2C1014.76 310.4 1013.61 309.367 1012.78 308.1V325.3H1004.23V284.1H1012.78V288.05ZM1024.98 298C1024.98 295.867 1024.38 294.2 1023.18 293C1022.01 291.767 1020.56 291.15 1018.83 291.15C1017.13 291.15 1015.68 291.767 1014.48 293C1013.31 294.233 1012.73 295.917 1012.73 298.05C1012.73 300.183 1013.31 301.867 1014.48 303.1C1015.68 304.333 1017.13 304.95 1018.83 304.95C1020.53 304.95 1021.98 304.333 1023.18 303.1C1024.38 301.833 1024.98 300.133 1024.98 298ZM1050.86 312.4C1048.13 312.4 1045.66 311.817 1043.46 310.65C1041.3 309.483 1039.58 307.817 1038.31 305.65C1037.08 303.483 1036.46 300.95 1036.46 298.05C1036.46 295.183 1037.1 292.667 1038.36 290.5C1039.63 288.3 1041.36 286.617 1043.56 285.45C1045.76 284.283 1048.23 283.7 1050.96 283.7C1053.7 283.7 1056.16 284.283 1058.36 285.45C1060.56 286.617 1062.3 288.3 1063.56 290.5C1064.83 292.667 1065.46 295.183 1065.46 298.05C1065.46 300.917 1064.81 303.45 1063.51 305.65C1062.25 307.817 1060.5 309.483 1058.26 310.65C1056.06 311.817 1053.6 312.4 1050.86 312.4ZM1050.86 305C1052.5 305 1053.88 304.4 1055.01 303.2C1056.18 302 1056.76 300.283 1056.76 298.05C1056.76 295.817 1056.2 294.1 1055.06 292.9C1053.96 291.7 1052.6 291.1 1050.96 291.1C1049.3 291.1 1047.91 291.7 1046.81 292.9C1045.71 294.067 1045.16 295.783 1045.16 298.05C1045.16 300.283 1045.7 302 1046.76 303.2C1047.86 304.4 1049.23 305 1050.86 305ZM910.038 359.8H896.938L894.838 366H885.888L898.588 330.9H908.488L921.188 366H912.138L910.038 359.8ZM907.838 353.2L903.488 340.35L899.188 353.2H907.838ZM923.353 352.05C923.353 349.15 923.936 346.617 925.103 344.45C926.303 342.283 927.953 340.617 930.053 339.45C932.186 338.283 934.62 337.7 937.353 337.7C940.853 337.7 943.77 338.617 946.103 340.45C948.47 342.283 950.02 344.867 950.753 348.2H941.653C940.886 346.067 939.403 345 937.203 345C935.636 345 934.386 345.617 933.453 346.85C932.52 348.05 932.053 349.783 932.053 352.05C932.053 354.317 932.52 356.067 933.453 357.3C934.386 358.5 935.636 359.1 937.203 359.1C939.403 359.1 940.886 358.033 941.653 355.9H950.753C950.02 359.167 948.47 361.733 946.103 363.6C943.736 365.467 940.82 366.4 937.353 366.4C934.62 366.4 932.186 365.817 930.053 364.65C927.953 363.483 926.303 361.817 925.103 359.65C923.936 357.483 923.353 354.95 923.353 352.05ZM970.877 358.75V366H966.527C963.427 366 961.01 365.25 959.277 363.75C957.543 362.217 956.677 359.733 956.677 356.3V345.2H953.277V338.1H956.677V331.3H965.227V338.1H970.827V345.2H965.227V356.4C965.227 357.233 965.427 357.833 965.827 358.2C966.227 358.567 966.893 358.75 967.827 358.75H970.877ZM1003.19 338.1V366H994.639V362.2C993.772 363.433 992.589 364.433 991.089 365.2C989.622 365.933 987.989 366.3 986.189 366.3C984.056 366.3 982.172 365.833 980.539 364.9C978.906 363.933 977.639 362.55 976.739 360.75C975.839 358.95 975.389 356.833 975.389 354.4V338.1H983.889V353.25C983.889 355.117 984.372 356.567 985.339 357.6C986.306 358.633 987.606 359.15 989.239 359.15C990.906 359.15 992.222 358.633 993.189 357.6C994.156 356.567 994.639 355.117 994.639 353.25V338.1H1003.19ZM1007.63 352C1007.63 349.133 1008.16 346.617 1009.23 344.45C1010.33 342.283 1011.81 340.617 1013.68 339.45C1015.55 338.283 1017.63 337.7 1019.93 337.7C1021.9 337.7 1023.61 338.1 1025.08 338.9C1026.58 339.7 1027.73 340.75 1028.53 342.05V338.1H1037.08V366H1028.53V362.05C1027.7 363.35 1026.53 364.4 1025.03 365.2C1023.56 366 1021.85 366.4 1019.88 366.4C1017.61 366.4 1015.55 365.817 1013.68 364.65C1011.81 363.45 1010.33 361.767 1009.23 359.6C1008.16 357.4 1007.63 354.867 1007.63 352ZM1028.53 352.05C1028.53 349.917 1027.93 348.233 1026.73 347C1025.56 345.767 1024.13 345.15 1022.43 345.15C1020.73 345.15 1019.28 345.767 1018.08 347C1016.91 348.2 1016.33 349.867 1016.33 352C1016.33 354.133 1016.91 355.833 1018.08 357.1C1019.28 358.333 1020.73 358.95 1022.43 358.95C1024.13 358.95 1025.56 358.333 1026.73 357.1C1027.93 355.867 1028.53 354.183 1028.53 352.05ZM1051.82 329V366H1043.27V329H1051.82Z" fill="#1A3567"/>
<path d="M106.885 617.895C104.622 615.702 102.86 612.902 101.6 609.495C100.363 606.088 99.745 602.437 99.745 598.54C99.745 594.55 100.398 590.805 101.705 587.305C103.012 583.782 104.913 580.9 107.41 578.66H112.345V579.115C109.778 581.565 107.818 584.505 106.465 587.935C105.135 591.365 104.47 594.9 104.47 598.54C104.47 602.087 105.1 605.517 106.36 608.83C107.643 612.12 109.463 614.978 111.82 617.405V617.895H106.885ZM132.027 586.57V590.525H125.517V611H120.617V590.525H114.107V586.57H132.027ZM138.088 589.3C137.224 589.3 136.501 589.032 135.918 588.495C135.358 587.935 135.078 587.247 135.078 586.43C135.078 585.613 135.358 584.937 135.918 584.4C136.501 583.84 137.224 583.56 138.088 583.56C138.951 583.56 139.663 583.84 140.223 584.4C140.806 584.937 141.098 585.613 141.098 586.43C141.098 587.247 140.806 587.935 140.223 588.495C139.663 589.032 138.951 589.3 138.088 589.3ZM140.503 591.61V611H135.603V591.61H140.503ZM163.369 600.885C163.369 601.585 163.322 602.215 163.229 602.775H149.054C149.17 604.175 149.66 605.272 150.524 606.065C151.387 606.858 152.449 607.255 153.709 607.255C155.529 607.255 156.824 606.473 157.594 604.91H162.879C162.319 606.777 161.245 608.317 159.659 609.53C158.072 610.72 156.124 611.315 153.814 611.315C151.947 611.315 150.267 610.907 148.774 610.09C147.304 609.25 146.149 608.072 145.309 606.555C144.492 605.038 144.084 603.288 144.084 601.305C144.084 599.298 144.492 597.537 145.309 596.02C146.125 594.503 147.269 593.337 148.739 592.52C150.209 591.703 151.9 591.295 153.814 591.295C155.657 591.295 157.302 591.692 158.749 592.485C160.219 593.278 161.35 594.41 162.144 595.88C162.96 597.327 163.369 598.995 163.369 600.885ZM158.294 599.485C158.27 598.225 157.815 597.222 156.929 596.475C156.042 595.705 154.957 595.32 153.674 595.32C152.46 595.32 151.434 595.693 150.594 596.44C149.777 597.163 149.275 598.178 149.089 599.485H158.294ZM191.025 591.33C193.405 591.33 195.319 592.065 196.765 593.535C198.235 594.982 198.97 597.012 198.97 599.625V611H194.07V600.29C194.07 598.773 193.685 597.618 192.915 596.825C192.145 596.008 191.095 595.6 189.765 595.6C188.435 595.6 187.374 596.008 186.58 596.825C185.81 597.618 185.425 598.773 185.425 600.29V611H180.525V600.29C180.525 598.773 180.14 597.618 179.37 596.825C178.6 596.008 177.55 595.6 176.22 595.6C174.867 595.6 173.794 596.008 173 596.825C172.23 597.618 171.845 598.773 171.845 600.29V611H166.945V591.61H171.845V593.955C172.475 593.138 173.28 592.497 174.26 592.03C175.264 591.563 176.36 591.33 177.55 591.33C179.067 591.33 180.42 591.657 181.61 592.31C182.8 592.94 183.722 593.85 184.375 595.04C185.005 593.92 185.915 593.022 187.105 592.345C188.319 591.668 189.625 591.33 191.025 591.33ZM208.52 594.41C209.15 593.523 210.013 592.788 211.11 592.205C212.23 591.598 213.502 591.295 214.925 591.295C216.582 591.295 218.075 591.703 219.405 592.52C220.758 593.337 221.82 594.503 222.59 596.02C223.383 597.513 223.78 599.252 223.78 601.235C223.78 603.218 223.383 604.98 222.59 606.52C221.82 608.037 220.758 609.215 219.405 610.055C218.075 610.895 216.582 611.315 214.925 611.315C213.502 611.315 212.242 611.023 211.145 610.44C210.072 609.857 209.197 609.122 208.52 608.235V620.24H203.62V591.61H208.52V594.41ZM218.775 601.235C218.775 600.068 218.53 599.065 218.04 598.225C217.573 597.362 216.943 596.708 216.15 596.265C215.38 595.822 214.54 595.6 213.63 595.6C212.743 595.6 211.903 595.833 211.11 596.3C210.34 596.743 209.71 597.397 209.22 598.26C208.753 599.123 208.52 600.138 208.52 601.305C208.52 602.472 208.753 603.487 209.22 604.35C209.71 605.213 210.34 605.878 211.11 606.345C211.903 606.788 212.743 607.01 213.63 607.01C214.54 607.01 215.38 606.777 216.15 606.31C216.943 605.843 217.573 605.178 218.04 604.315C218.53 603.452 218.775 602.425 218.775 601.235ZM235.951 611.315C234.084 611.315 232.404 610.907 230.911 610.09C229.417 609.25 228.239 608.072 227.376 606.555C226.536 605.038 226.116 603.288 226.116 601.305C226.116 599.322 226.547 597.572 227.411 596.055C228.297 594.538 229.499 593.372 231.016 592.555C232.532 591.715 234.224 591.295 236.091 591.295C237.957 591.295 239.649 591.715 241.166 592.555C242.682 593.372 243.872 594.538 244.736 596.055C245.622 597.572 246.066 599.322 246.066 601.305C246.066 603.288 245.611 605.038 244.701 606.555C243.814 608.072 242.601 609.25 241.061 610.09C239.544 610.907 237.841 611.315 235.951 611.315ZM235.951 607.045C236.837 607.045 237.666 606.835 238.436 606.415C239.229 605.972 239.859 605.318 240.326 604.455C240.792 603.592 241.026 602.542 241.026 601.305C241.026 599.462 240.536 598.05 239.556 597.07C238.599 596.067 237.421 595.565 236.021 595.565C234.621 595.565 233.442 596.067 232.486 597.07C231.552 598.05 231.086 599.462 231.086 601.305C231.086 603.148 231.541 604.572 232.451 605.575C233.384 606.555 234.551 607.045 235.951 607.045ZM272.98 606.345H263.25L261.64 611H256.495L265.28 586.535H270.985L279.77 611H274.59L272.98 606.345ZM271.65 602.425L268.115 592.205L264.58 602.425H271.65ZM281.794 601.305C281.794 599.298 282.202 597.548 283.019 596.055C283.835 594.538 284.967 593.372 286.414 592.555C287.86 591.715 289.517 591.295 291.384 591.295C293.787 591.295 295.77 591.902 297.334 593.115C298.92 594.305 299.982 595.985 300.519 598.155H295.234C294.954 597.315 294.475 596.662 293.799 596.195C293.145 595.705 292.329 595.46 291.349 595.46C289.949 595.46 288.84 595.973 288.024 597C287.207 598.003 286.799 599.438 286.799 601.305C286.799 603.148 287.207 604.583 288.024 605.61C288.84 606.613 289.949 607.115 291.349 607.115C293.332 607.115 294.627 606.228 295.234 604.455H300.519C299.982 606.555 298.92 608.223 297.334 609.46C295.747 610.697 293.764 611.315 291.384 611.315C289.517 611.315 287.86 610.907 286.414 610.09C284.967 609.25 283.835 608.083 283.019 606.59C282.202 605.073 281.794 603.312 281.794 601.305ZM309.813 595.635V605.015C309.813 605.668 309.965 606.147 310.268 606.45C310.595 606.73 311.132 606.87 311.878 606.87H314.153V611H311.073C306.943 611 304.878 608.993 304.878 604.98V595.635H302.568V591.61H304.878V586.815H309.813V591.61H314.153V595.635H309.813ZM335.983 591.61V611H331.048V608.55C330.418 609.39 329.589 610.055 328.563 610.545C327.559 611.012 326.463 611.245 325.273 611.245C323.756 611.245 322.414 610.93 321.248 610.3C320.081 609.647 319.159 608.702 318.483 607.465C317.829 606.205 317.503 604.712 317.503 602.985V591.61H322.403V602.285C322.403 603.825 322.788 605.015 323.558 605.855C324.328 606.672 325.378 607.08 326.708 607.08C328.061 607.08 329.123 606.672 329.893 605.855C330.663 605.015 331.048 603.825 331.048 602.285V591.61H335.983ZM339.557 601.235C339.557 599.275 339.942 597.537 340.712 596.02C341.506 594.503 342.567 593.337 343.897 592.52C345.251 591.703 346.756 591.295 348.412 591.295C349.859 591.295 351.119 591.587 352.192 592.17C353.289 592.753 354.164 593.488 354.817 594.375V591.61H359.752V611H354.817V608.165C354.187 609.075 353.312 609.833 352.192 610.44C351.096 611.023 349.824 611.315 348.377 611.315C346.744 611.315 345.251 610.895 343.897 610.055C342.567 609.215 341.506 608.037 340.712 606.52C339.942 604.98 339.557 603.218 339.557 601.235ZM354.817 601.305C354.817 600.115 354.584 599.1 354.117 598.26C353.651 597.397 353.021 596.743 352.227 596.3C351.434 595.833 350.582 595.6 349.672 595.6C348.762 595.6 347.922 595.822 347.152 596.265C346.382 596.708 345.752 597.362 345.262 598.225C344.796 599.065 344.562 600.068 344.562 601.235C344.562 602.402 344.796 603.428 345.262 604.315C345.752 605.178 346.382 605.843 347.152 606.31C347.946 606.777 348.786 607.01 349.672 607.01C350.582 607.01 351.434 606.788 352.227 606.345C353.021 605.878 353.651 605.225 354.117 604.385C354.584 603.522 354.817 602.495 354.817 601.305ZM369.438 585.1V611H364.538V585.1H369.438Z" fill="#1A3567"/>
<path d="M457.245 589.57V604.69C457.245 606.347 457.677 607.618 458.54 608.505C459.403 609.368 460.617 609.8 462.18 609.8C463.767 609.8 464.992 609.368 465.855 608.505C466.718 607.618 467.15 606.347 467.15 604.69V589.57H472.085V604.655C472.085 606.732 471.63 608.493 470.72 609.94C469.833 611.363 468.632 612.437 467.115 613.16C465.622 613.883 463.953 614.245 462.11 614.245C460.29 614.245 458.633 613.883 457.14 613.16C455.67 612.437 454.503 611.363 453.64 609.94C452.777 608.493 452.345 606.732 452.345 604.655V589.57H457.245ZM465.995 584.495L457.945 588.17V584.67L465.995 580.505V584.495ZM481.719 588.1V614H476.819V588.1H481.719ZM492.266 598.635V608.015C492.266 608.668 492.417 609.147 492.721 609.45C493.047 609.73 493.584 609.87 494.331 609.87H496.606V614H493.526C489.396 614 487.331 611.993 487.331 607.98V598.635H485.021V594.61H487.331V589.815H492.266V594.61H496.606V598.635H492.266ZM502.615 592.3C501.752 592.3 501.028 592.032 500.445 591.495C499.885 590.935 499.605 590.247 499.605 589.43C499.605 588.613 499.885 587.937 500.445 587.4C501.028 586.84 501.752 586.56 502.615 586.56C503.478 586.56 504.19 586.84 504.75 587.4C505.333 587.937 505.625 588.613 505.625 589.43C505.625 590.247 505.333 590.935 504.75 591.495C504.19 592.032 503.478 592.3 502.615 592.3ZM505.03 594.61V614H500.13V594.61H505.03ZM533.951 594.33C536.331 594.33 538.244 595.065 539.691 596.535C541.161 597.982 541.896 600.012 541.896 602.625V614H536.996V603.29C536.996 601.773 536.611 600.618 535.841 599.825C535.071 599.008 534.021 598.6 532.691 598.6C531.361 598.6 530.299 599.008 529.506 599.825C528.736 600.618 528.351 601.773 528.351 603.29V614H523.451V603.29C523.451 601.773 523.066 600.618 522.296 599.825C521.526 599.008 520.476 598.6 519.146 598.6C517.793 598.6 516.719 599.008 515.926 599.825C515.156 600.618 514.771 601.773 514.771 603.29V614H509.871V594.61H514.771V596.955C515.401 596.138 516.206 595.497 517.186 595.03C518.189 594.563 519.286 594.33 520.476 594.33C521.993 594.33 523.346 594.657 524.536 595.31C525.726 595.94 526.648 596.85 527.301 598.04C527.931 596.92 528.841 596.022 530.031 595.345C531.244 594.668 532.551 594.33 533.951 594.33ZM555.156 614.315C553.289 614.315 551.609 613.907 550.116 613.09C548.623 612.25 547.444 611.072 546.581 609.555C545.741 608.038 545.321 606.288 545.321 604.305C545.321 602.322 545.753 600.572 546.616 599.055C547.503 597.538 548.704 596.372 550.221 595.555C551.738 594.715 553.429 594.295 555.296 594.295C557.163 594.295 558.854 594.715 560.371 595.555C561.888 596.372 563.078 597.538 563.941 599.055C564.828 600.572 565.271 602.322 565.271 604.305C565.271 606.288 564.816 608.038 563.906 609.555C563.019 611.072 561.806 612.25 560.266 613.09C558.749 613.907 557.046 614.315 555.156 614.315ZM555.156 610.045C556.043 610.045 556.871 609.835 557.641 609.415C558.434 608.972 559.064 608.318 559.531 607.455C559.998 606.592 560.231 605.542 560.231 604.305C560.231 602.462 559.741 601.05 558.761 600.07C557.804 599.067 556.626 598.565 555.226 598.565C553.826 598.565 552.648 599.067 551.691 600.07C550.758 601.05 550.291 602.462 550.291 604.305C550.291 606.148 550.746 607.572 551.656 608.575C552.589 609.555 553.756 610.045 555.156 610.045ZM582.105 610.115H590.155V614H577.205V589.57H582.105V610.115ZM592.009 604.235C592.009 602.275 592.394 600.537 593.164 599.02C593.958 597.503 595.019 596.337 596.349 595.52C597.703 594.703 599.208 594.295 600.864 594.295C602.311 594.295 603.571 594.587 604.644 595.17C605.741 595.753 606.616 596.488 607.269 597.375V594.61H612.204V614H607.269V611.165C606.639 612.075 605.764 612.833 604.644 613.44C603.548 614.023 602.276 614.315 600.829 614.315C599.196 614.315 597.703 613.895 596.349 613.055C595.019 612.215 593.958 611.037 593.164 609.52C592.394 607.98 592.009 606.218 592.009 604.235ZM607.269 604.305C607.269 603.115 607.036 602.1 606.569 601.26C606.103 600.397 605.473 599.743 604.679 599.3C603.886 598.833 603.034 598.6 602.124 598.6C601.214 598.6 600.374 598.822 599.604 599.265C598.834 599.708 598.204 600.362 597.714 601.225C597.248 602.065 597.014 603.068 597.014 604.235C597.014 605.402 597.248 606.428 597.714 607.315C598.204 608.178 598.834 608.843 599.604 609.31C600.398 609.777 601.238 610.01 602.124 610.01C603.034 610.01 603.886 609.788 604.679 609.345C605.473 608.878 606.103 608.225 606.569 607.385C607.036 606.522 607.269 605.495 607.269 604.305ZM622.695 598.635V608.015C622.695 608.668 622.847 609.147 623.15 609.45C623.477 609.73 624.014 609.87 624.76 609.87H627.035V614H623.955C619.825 614 617.76 611.993 617.76 607.98V598.635H615.45V594.61H617.76V589.815H622.695V594.61H627.035V598.635H622.695ZM633.045 592.3C632.181 592.3 631.458 592.032 630.875 591.495C630.315 590.935 630.035 590.247 630.035 589.43C630.035 588.613 630.315 587.937 630.875 587.4C631.458 586.84 632.181 586.56 633.045 586.56C633.908 586.56 634.62 586.84 635.18 587.4C635.763 587.937 636.055 588.613 636.055 589.43C636.055 590.247 635.763 590.935 635.18 591.495C634.62 592.032 633.908 592.3 633.045 592.3ZM635.46 594.61V614H630.56V594.61H635.46ZM639.041 604.235C639.041 602.275 639.426 600.537 640.196 599.02C640.989 597.503 642.062 596.337 643.416 595.52C644.769 594.703 646.274 594.295 647.931 594.295C649.191 594.295 650.392 594.575 651.536 595.135C652.679 595.672 653.589 596.395 654.266 597.305V588.1H659.236V614H654.266V611.13C653.659 612.087 652.807 612.857 651.711 613.44C650.614 614.023 649.342 614.315 647.896 614.315C646.262 614.315 644.769 613.895 643.416 613.055C642.062 612.215 640.989 611.037 640.196 609.52C639.426 607.98 639.041 606.218 639.041 604.235ZM654.301 604.305C654.301 603.115 654.067 602.1 653.601 601.26C653.134 600.397 652.504 599.743 651.711 599.3C650.917 598.833 650.066 598.6 649.156 598.6C648.246 598.6 647.406 598.822 646.636 599.265C645.866 599.708 645.236 600.362 644.746 601.225C644.279 602.065 644.046 603.068 644.046 604.235C644.046 605.402 644.279 606.428 644.746 607.315C645.236 608.178 645.866 608.843 646.636 609.31C647.429 609.777 648.269 610.01 649.156 610.01C650.066 610.01 650.917 609.788 651.711 609.345C652.504 608.878 653.134 608.225 653.601 607.385C654.067 606.522 654.301 605.495 654.301 604.305ZM662.761 604.235C662.761 602.275 663.146 600.537 663.916 599.02C664.71 597.503 665.771 596.337 667.101 595.52C668.455 594.703 669.96 594.295 671.616 594.295C673.063 594.295 674.323 594.587 675.396 595.17C676.493 595.753 677.368 596.488 678.021 597.375V594.61H682.956V614H678.021V611.165C677.391 612.075 676.516 612.833 675.396 613.44C674.3 614.023 673.028 614.315 671.581 614.315C669.948 614.315 668.455 613.895 667.101 613.055C665.771 612.215 664.71 611.037 663.916 609.52C663.146 607.98 662.761 606.218 662.761 604.235ZM678.021 604.305C678.021 603.115 677.788 602.1 677.321 601.26C676.855 600.397 676.225 599.743 675.431 599.3C674.638 598.833 673.786 598.6 672.876 598.6C671.966 598.6 671.126 598.822 670.356 599.265C669.586 599.708 668.956 600.362 668.466 601.225C668 602.065 667.766 603.068 667.766 604.235C667.766 605.402 668 606.428 668.466 607.315C668.956 608.178 669.586 608.843 670.356 609.31C671.15 609.777 671.99 610.01 672.876 610.01C673.786 610.01 674.638 609.788 675.431 609.345C676.225 608.878 676.855 608.225 677.321 607.385C677.788 606.522 678.021 605.495 678.021 604.305Z" fill="#1A3567"/>
<path d="M785.315 589.57V614H780.415V589.57H785.315ZM800.901 594.33C803.211 594.33 805.078 595.065 806.501 596.535C807.925 597.982 808.636 600.012 808.636 602.625V614H803.736V603.29C803.736 601.75 803.351 600.572 802.581 599.755C801.811 598.915 800.761 598.495 799.431 598.495C798.078 598.495 797.005 598.915 796.211 599.755C795.441 600.572 795.056 601.75 795.056 603.29V614H790.156V594.61H795.056V597.025C795.71 596.185 796.538 595.532 797.541 595.065C798.568 594.575 799.688 594.33 800.901 594.33ZM819.001 598.635V608.015C819.001 608.668 819.153 609.147 819.456 609.45C819.783 609.73 820.319 609.87 821.066 609.87H823.341V614H820.261C816.131 614 814.066 611.993 814.066 607.98V598.635H811.756V594.61H814.066V589.815H819.001V594.61H823.341V598.635H819.001ZM844.89 603.885C844.89 604.585 844.844 605.215 844.75 605.775H830.575C830.692 607.175 831.182 608.272 832.045 609.065C832.909 609.858 833.97 610.255 835.23 610.255C837.05 610.255 838.345 609.473 839.115 607.91H844.4C843.84 609.777 842.767 611.317 841.18 612.53C839.594 613.72 837.645 614.315 835.335 614.315C833.469 614.315 831.789 613.907 830.295 613.09C828.825 612.25 827.67 611.072 826.83 609.555C826.014 608.038 825.605 606.288 825.605 604.305C825.605 602.298 826.014 600.537 826.83 599.02C827.647 597.503 828.79 596.337 830.26 595.52C831.73 594.703 833.422 594.295 835.335 594.295C837.179 594.295 838.824 594.692 840.27 595.485C841.74 596.278 842.872 597.41 843.665 598.88C844.482 600.327 844.89 601.995 844.89 603.885ZM839.815 602.485C839.792 601.225 839.337 600.222 838.45 599.475C837.564 598.705 836.479 598.32 835.195 598.32C833.982 598.32 832.955 598.693 832.115 599.44C831.299 600.163 830.797 601.178 830.61 602.485H839.815ZM853.367 597.62C853.997 596.593 854.813 595.788 855.817 595.205C856.843 594.622 858.01 594.33 859.317 594.33V599.475H858.022C856.482 599.475 855.315 599.837 854.522 600.56C853.752 601.283 853.367 602.543 853.367 604.34V614H848.467V594.61H853.367V597.62ZM870.702 609.485L875.602 594.61H880.817L873.642 614H867.692L860.552 594.61H865.802L870.702 609.485ZM882.309 604.235C882.309 602.275 882.694 600.537 883.464 599.02C884.258 597.503 885.319 596.337 886.649 595.52C888.003 594.703 889.508 594.295 891.164 594.295C892.611 594.295 893.871 594.587 894.944 595.17C896.041 595.753 896.916 596.488 897.569 597.375V594.61H902.504V614H897.569V611.165C896.939 612.075 896.064 612.833 894.944 613.44C893.848 614.023 892.576 614.315 891.129 614.315C889.496 614.315 888.003 613.895 886.649 613.055C885.319 612.215 884.258 611.037 883.464 609.52C882.694 607.98 882.309 606.218 882.309 604.235ZM897.569 604.305C897.569 603.115 897.336 602.1 896.869 601.26C896.403 600.397 895.773 599.743 894.979 599.3C894.186 598.833 893.334 598.6 892.424 598.6C891.514 598.6 890.674 598.822 889.904 599.265C889.134 599.708 888.504 600.362 888.014 601.225C887.548 602.065 887.314 603.068 887.314 604.235C887.314 605.402 887.548 606.428 888.014 607.315C888.504 608.178 889.134 608.843 889.904 609.31C890.698 609.777 891.538 610.01 892.424 610.01C893.334 610.01 894.186 609.788 894.979 609.345C895.773 608.878 896.403 608.225 896.869 607.385C897.336 606.522 897.569 605.495 897.569 604.305ZM912.19 588.1V614H907.29V588.1H912.19ZM925.641 614.315C923.775 614.315 922.095 613.907 920.601 613.09C919.108 612.25 917.93 611.072 917.066 609.555C916.226 608.038 915.806 606.288 915.806 604.305C915.806 602.322 916.238 600.572 917.101 599.055C917.988 597.538 919.19 596.372 920.706 595.555C922.223 594.715 923.915 594.295 925.781 594.295C927.648 594.295 929.34 594.715 930.856 595.555C932.373 596.372 933.563 597.538 934.426 599.055C935.313 600.572 935.756 602.322 935.756 604.305C935.756 606.288 935.301 608.038 934.391 609.555C933.505 611.072 932.291 612.25 930.751 613.09C929.235 613.907 927.531 614.315 925.641 614.315ZM925.641 610.045C926.528 610.045 927.356 609.835 928.126 609.415C928.92 608.972 929.55 608.318 930.016 607.455C930.483 606.592 930.716 605.542 930.716 604.305C930.716 602.462 930.226 601.05 929.246 600.07C928.29 599.067 927.111 598.565 925.711 598.565C924.311 598.565 923.133 599.067 922.176 600.07C921.243 601.05 920.776 602.462 920.776 604.305C920.776 606.148 921.231 607.572 922.141 608.575C923.075 609.555 924.241 610.045 925.641 610.045ZM938.091 620.895V620.405C940.447 617.978 942.256 615.12 943.516 611.83C944.799 608.517 945.441 605.087 945.441 601.54C945.441 597.9 944.764 594.365 943.411 590.935C942.081 587.505 940.132 584.565 937.566 582.115V581.66H942.501C944.997 583.9 946.899 586.782 948.206 590.305C949.512 593.805 950.166 597.55 950.166 601.54C950.166 605.437 949.536 609.088 948.276 612.495C947.039 615.902 945.289 618.702 943.026 620.895H938.091Z" fill="#1A3567"/>
<path d="M393 601H428.1" stroke="#1A3567" stroke-width="4"/>
<path d="M717 589L741 605L717 621" stroke="#1A3567" stroke-width="4"/>
<path d="M1177.74 620.82H1206.23L1201.7 608.391V590.018L1194.58 565.159L1173.86 547.326L1163.5 535.438H1151.84L1138.24 552.19H1134.36L1116.88 571.104L1112.34 608.391L1107.81 620.82H1134.36V626.764L1142.78 637.032L1157.67 643.517L1173.86 640.815L1177.74 620.82Z" fill="#FFC93C"/>
<path d="M1135.61 620.221V626.165C1135.61 630.895 1137.86 635.431 1141.87 638.775C1145.88 642.12 1151.31 643.998 1156.98 643.998C1162.65 643.998 1168.08 642.12 1172.09 638.775C1176.1 635.431 1178.35 630.895 1178.35 626.165V620.221M1142.73 548.889C1142.73 545.736 1144.24 542.712 1146.91 540.482C1149.58 538.253 1153.2 537 1156.98 537C1160.76 537 1164.38 538.253 1167.05 540.482C1169.72 542.712 1171.22 545.736 1171.22 548.889C1179.4 552.117 1186.38 557.141 1191.39 563.424C1196.41 569.707 1199.29 577.012 1199.71 584.555V602.388C1200.25 606.084 1201.82 609.623 1204.29 612.72C1206.77 615.817 1210.08 618.387 1213.96 620.221H1100C1103.88 618.387 1107.19 615.817 1109.67 612.72C1112.14 609.623 1113.71 606.084 1114.24 602.388V584.555C1114.67 577.012 1117.54 569.707 1122.56 563.424C1127.58 557.141 1134.55 552.117 1142.73 548.889Z" stroke="#1A3567" stroke-width="9" stroke-linecap="round" stroke-linejoin="round"/>
<path d="M1056.13 606.699C1057.3 605.528 1057.3 603.628 1056.13 602.457L1037.04 583.365C1035.87 582.193 1033.97 582.193 1032.79 583.365C1031.62 584.536 1031.62 586.436 1032.79 587.608L1049.77 604.578L1032.79 621.549C1031.62 622.72 1031.62 624.62 1032.79 625.791C1033.97 626.963 1035.87 626.963 1037.04 625.791L1056.13 606.699ZM970.998 604.578V607.578H1054.01V604.578V601.578H970.998V604.578Z" fill="black"/>
</svg>
