<svg width="1280" height="720" viewBox="0 0 1280 720" fill="none" xmlns="http://www.w3.org/2000/svg">
<g clip-path="url(#clip0_410_4710)">
<rect width="1280" height="720" fill="url(#paint0_linear_410_4710)"/>
<path d="M153.524 143.329L333.914 737.007L1240.2 971.414L902.859 86.5821L160.914 86.583L153.524 143.329Z" fill="#EED1CB"/>
<path d="M159.078 88.2441L385.414 798.497L1253.83 919.159L908.414 31.4971L159.078 88.2441Z" fill="#FEF5F4"/>
<path d="M246.057 101.362C242.623 103.678 241.717 108.34 244.034 111.774C246.35 115.208 251.012 116.113 254.446 113.797L250.251 107.579L246.057 101.362ZM260.376 95.8931L253.624 92.6274L253.624 92.6274L260.376 95.8931ZM263.252 80.701L255.774 81.2725V81.2725L263.252 80.701ZM258.101 66.1224L251.924 70.3762L258.101 66.1224ZM246.318 56.1105L249.518 49.3278L249.518 49.3278L246.318 56.1105ZM206.672 70.5497L213.485 73.6853L213.485 73.6853L206.672 70.5497ZM250.251 107.579L254.446 113.797C259.891 110.123 264.267 105.073 267.127 99.1589L260.376 95.8931L253.624 92.6274C251.917 96.1561 249.306 99.1698 246.057 101.362L250.251 107.579ZM260.376 95.8931L267.127 99.1589C269.988 93.2452 271.231 86.6794 270.73 80.1294L263.252 80.701L255.774 81.2725C256.073 85.1809 255.331 89.0987 253.624 92.6274L260.376 95.8931ZM263.252 80.701L270.73 80.1294C270.23 73.5794 268.003 67.2788 264.277 61.8685L258.101 66.1224L251.924 70.3762C254.147 73.6046 255.475 77.3641 255.774 81.2725L263.252 80.701ZM258.101 66.1224L264.277 61.8685C260.552 56.4583 255.459 52.1313 249.518 49.3278L246.318 56.1105L243.117 62.8931C246.662 64.566 249.7 67.1479 251.924 70.3762L258.101 66.1224ZM246.318 56.1105L249.518 49.3278C243.578 46.5242 237 45.3442 230.455 45.9076L231.099 53.38L231.742 60.8523C235.647 60.5161 239.572 61.2203 243.117 62.8931L246.318 56.1105ZM231.099 53.38L230.455 45.9076C223.91 46.471 217.631 48.7579 212.257 52.5355L216.57 58.6713L220.883 64.8072C224.09 62.5531 227.836 61.1885 231.742 60.8523L231.099 53.38ZM216.57 58.6713L212.257 52.5355C206.883 56.3131 202.605 61.4467 199.859 67.4142L206.672 70.5497L213.485 73.6853C215.124 70.1245 217.676 67.0613 220.883 64.8072L216.57 58.6713ZM206.672 70.5497L199.859 67.4142C197.112 73.3816 195.995 79.97 196.622 86.5092L204.087 85.7943L211.553 85.0794C211.18 81.1774 211.846 77.2461 213.485 73.6853L206.672 70.5497Z" fill="#1A3567"/>
<path d="M315.738 95.8697C312.304 98.1862 311.398 102.848 313.714 106.282C316.031 109.715 320.693 110.621 324.126 108.305L319.932 102.087L315.738 95.8697ZM330.056 90.4009L323.305 87.1352L323.305 87.1352L330.056 90.4009ZM332.933 75.2088L325.455 75.7803V75.7803L332.933 75.2088ZM327.781 60.6302L321.604 64.884L327.781 60.6302ZM315.998 50.6183L319.199 43.8356L319.199 43.8356L315.998 50.6183ZM276.352 65.0576L283.165 68.1931L283.165 68.1931L276.352 65.0576ZM319.932 102.087L324.126 108.305C329.572 104.631 333.948 99.5803 336.808 93.6667L330.056 90.4009L323.305 87.1352C321.598 90.6639 318.987 93.6776 315.738 95.8697L319.932 102.087ZM330.056 90.4009L336.808 93.6667C339.669 87.753 340.912 81.1873 340.411 74.6372L332.933 75.2088L325.455 75.7803C325.753 79.6887 325.012 83.6065 323.305 87.1352L330.056 90.4009ZM332.933 75.2088L340.411 74.6372C339.91 68.0872 337.684 61.7866 333.958 56.3764L327.781 60.6302L321.604 64.884C323.827 68.1124 325.156 71.8719 325.455 75.7803L332.933 75.2088ZM327.781 60.6302L333.958 56.3764C330.232 50.9661 325.14 46.6391 319.199 43.8356L315.998 50.6183L312.797 57.401C316.342 59.0738 319.381 61.6557 321.604 64.884L327.781 60.6302ZM315.998 50.6183L319.199 43.8356C313.258 41.0321 306.681 39.852 300.136 40.4154L300.779 47.8878L301.423 55.3602C305.328 55.024 309.253 55.7281 312.797 57.401L315.998 50.6183ZM300.779 47.8878L300.136 40.4154C293.591 40.9789 287.312 43.2657 281.938 47.0433L286.251 53.1791L290.564 59.315C293.771 57.0609 297.517 55.6964 301.423 55.3602L300.779 47.8878ZM286.251 53.1791L281.938 47.0433C276.564 50.8209 272.286 55.9545 269.539 61.922L276.352 65.0576L283.165 68.1931C284.804 64.6323 287.357 61.5691 290.564 59.315L286.251 53.1791ZM276.352 65.0576L269.539 61.922C266.793 67.8894 265.676 74.4778 266.302 81.0171L273.768 80.3021L281.234 79.5872C280.86 75.6852 281.527 71.7539 283.165 68.1931L276.352 65.0576Z" fill="#1A3567"/>
<path d="M386.397 90.44C382.964 92.7565 382.058 97.4181 384.374 100.852C386.691 104.286 391.352 105.192 394.786 102.875L390.592 96.6575L386.397 90.44ZM400.716 84.9712L393.965 81.7055L393.965 81.7055L400.716 84.9712ZM403.593 69.7791L396.115 70.3506V70.3506L403.593 69.7791ZM398.441 55.2005L392.264 59.4544L398.441 55.2005ZM386.658 45.1886L389.859 38.4059L389.859 38.4059L386.658 45.1886ZM347.012 59.6279L353.825 62.7634L353.825 62.7634L347.012 59.6279ZM390.592 96.6575L394.786 102.875C400.232 99.2012 404.608 94.1506 407.468 88.237L400.716 84.9712L393.965 81.7055C392.258 85.2342 389.647 88.2479 386.397 90.44L390.592 96.6575ZM400.716 84.9712L407.468 88.237C410.328 82.3233 411.572 75.7576 411.071 69.2075L403.593 69.7791L396.115 70.3506C396.413 74.259 395.672 78.1768 393.965 81.7055L400.716 84.9712ZM403.593 69.7791L411.071 69.2075C410.57 62.6575 408.344 56.357 404.618 50.9467L398.441 55.2005L392.264 59.4544C394.487 62.6827 395.816 66.4422 396.115 70.3506L403.593 69.7791ZM398.441 55.2005L404.618 50.9467C400.892 45.5364 395.8 41.2094 389.859 38.4059L386.658 45.1886L383.457 51.9713C387.002 53.6441 390.041 56.226 392.264 59.4544L398.441 55.2005ZM386.658 45.1886L389.859 38.4059C383.918 35.6024 377.341 34.4223 370.796 34.9857L371.439 42.4581L372.082 49.9305C375.988 49.5943 379.912 50.2984 383.457 51.9713L386.658 45.1886ZM371.439 42.4581L370.796 34.9857C364.251 35.5492 357.972 37.836 352.598 41.6136L356.911 47.7495L361.224 53.8853C364.43 51.6312 368.177 50.2667 372.082 49.9305L371.439 42.4581ZM356.911 47.7495L352.598 41.6136C347.223 45.3912 342.946 50.5248 340.199 56.4923L347.012 59.6279L353.825 62.7634C355.464 59.2027 358.017 56.1394 361.224 53.8853L356.911 47.7495ZM347.012 59.6279L340.199 56.4923C337.453 62.4598 336.336 69.0482 336.962 75.5874L344.428 74.8724L351.894 74.1575C351.52 70.2555 352.187 66.3242 353.825 62.7634L347.012 59.6279Z" fill="#1A3567"/>
<path d="M456.078 84.9478C452.645 87.2643 451.739 91.9259 454.055 95.3597C456.372 98.7935 461.033 99.6993 464.467 97.3828L460.273 91.1653L456.078 84.9478ZM470.397 79.4791L463.646 76.2133L463.646 76.2133L470.397 79.4791ZM473.274 64.2869L465.796 64.8585V64.8585L473.274 64.2869ZM468.122 49.7083L461.945 53.9622L468.122 49.7083ZM456.339 39.6964L459.54 32.9137L459.54 32.9137L456.339 39.6964ZM416.693 54.1357L423.506 57.2713L423.506 57.2713L416.693 54.1357ZM460.273 91.1653L464.467 97.3828C469.913 93.709 474.289 88.6585 477.149 82.7448L470.397 79.4791L463.646 76.2133C461.939 79.742 459.328 82.7557 456.078 84.9478L460.273 91.1653ZM470.397 79.4791L477.149 82.7448C480.009 76.8311 481.252 70.2654 480.752 63.7154L473.274 64.2869L465.796 64.8585C466.094 68.7668 465.352 72.6846 463.646 76.2133L470.397 79.4791ZM473.274 64.2869L480.752 63.7154C480.251 57.1653 478.025 50.8648 474.299 45.4545L468.122 49.7083L461.945 53.9622C464.168 57.1905 465.497 60.9501 465.796 64.8585L473.274 64.2869ZM468.122 49.7083L474.299 45.4545C470.573 40.0442 465.481 35.7172 459.54 32.9137L456.339 39.6964L453.138 46.4791C456.683 48.152 459.722 50.7339 461.945 53.9622L468.122 49.7083ZM456.339 39.6964L459.54 32.9137C453.599 30.1102 447.022 28.9301 440.477 29.4936L441.12 36.9659L441.763 44.4383C445.669 44.1021 449.593 44.8062 453.138 46.4791L456.339 39.6964ZM441.12 36.9659L440.477 29.4936C433.932 30.057 427.653 32.3438 422.279 36.1214L426.592 42.2573L430.904 48.3931C434.111 46.139 437.858 44.7745 441.763 44.4383L441.12 36.9659ZM426.592 42.2573L422.279 36.1214C416.904 39.899 412.626 45.0326 409.88 51.0001L416.693 54.1357L423.506 57.2713C425.145 53.7105 427.698 50.6472 430.904 48.3931L426.592 42.2573ZM416.693 54.1357L409.88 51.0001C407.134 56.9676 406.017 63.556 406.643 70.0952L414.109 69.3802L421.575 68.6653C421.201 64.7633 421.867 60.832 423.506 57.2713L416.693 54.1357Z" fill="#1A3567"/>
<path d="M531.793 79.7994C528.359 82.1159 527.453 86.7775 529.77 90.2113C532.086 93.6451 536.748 94.5509 540.182 92.2344L535.987 86.0169L531.793 79.7994ZM546.112 74.3306L539.36 71.0649L539.36 71.0649L546.112 74.3306ZM548.988 59.1385L541.51 59.71V59.71L548.988 59.1385ZM543.836 44.5599L537.659 48.8137L543.836 44.5599ZM532.053 34.548L535.254 27.7653L535.254 27.7653L532.053 34.548ZM492.408 48.9872L499.221 52.1228L499.221 52.1228L492.408 48.9872ZM535.987 86.0169L540.182 92.2344C545.627 88.5606 550.003 83.51 552.863 77.5964L546.112 74.3306L539.36 71.0649C537.653 74.5936 535.042 77.6073 531.793 79.7994L535.987 86.0169ZM546.112 74.3306L552.863 77.5964C555.724 71.6827 556.967 65.1169 556.466 58.5669L548.988 59.1385L541.51 59.71C541.809 63.6184 541.067 67.5362 539.36 71.0649L546.112 74.3306ZM548.988 59.1385L556.466 58.5669C555.966 52.0169 553.739 45.7163 550.013 40.306L543.836 44.5599L537.659 48.8137C539.883 52.0421 541.211 55.8016 541.51 59.71L548.988 59.1385ZM543.836 44.5599L550.013 40.306C546.287 34.8958 541.195 30.5688 535.254 27.7653L532.053 34.548L528.853 41.3306C532.398 43.0035 535.436 45.5854 537.659 48.8137L543.836 44.5599ZM532.053 34.548L535.254 27.7653C529.313 24.9617 522.736 23.7817 516.191 24.3451L516.834 31.8175L517.478 39.2898C521.383 38.9536 525.308 39.6578 528.853 41.3306L532.053 34.548ZM516.834 31.8175L516.191 24.3451C509.646 24.9085 503.367 27.1954 497.993 30.973L502.306 37.1088L506.619 43.2447C509.826 40.9906 513.572 39.626 517.478 39.2898L516.834 31.8175ZM502.306 37.1088L497.993 30.973C492.619 34.7506 488.341 39.8842 485.594 45.8517L492.408 48.9872L499.221 52.1228C500.859 48.562 503.412 45.4988 506.619 43.2447L502.306 37.1088ZM492.408 48.9872L485.594 45.8517C482.848 51.8191 481.731 58.4075 482.357 64.9467L489.823 64.2318L497.289 63.5169C496.915 59.6149 497.582 55.6836 499.221 52.1228L492.408 48.9872Z" fill="#1A3567"/>
<path d="M601.473 74.3072C598.04 76.6237 597.134 81.2853 599.45 84.7191C601.767 88.1529 606.428 89.0587 609.862 86.7422L605.668 80.5247L601.473 74.3072ZM615.792 68.8384L609.041 65.5727L609.041 65.5727L615.792 68.8384ZM618.669 53.6463L611.191 54.2178V54.2178L618.669 53.6463ZM613.517 39.0677L607.34 43.3215L613.517 39.0677ZM601.734 29.0558L604.935 22.2731L604.935 22.2731L601.734 29.0558ZM562.088 43.4951L568.901 46.6306L568.901 46.6306L562.088 43.4951ZM605.668 80.5247L609.862 86.7422C615.308 83.0684 619.684 78.0178 622.544 72.1042L615.792 68.8384L609.041 65.5727C607.334 69.1014 604.723 72.1151 601.473 74.3072L605.668 80.5247ZM615.792 68.8384L622.544 72.1042C625.404 66.1905 626.648 59.6248 626.147 53.0747L618.669 53.6463L611.191 54.2178C611.489 58.1262 610.747 62.044 609.041 65.5727L615.792 68.8384ZM618.669 53.6463L626.147 53.0747C625.646 46.5247 623.42 40.2241 619.694 34.8139L613.517 39.0677L607.34 43.3215C609.563 46.5499 610.892 50.3094 611.191 54.2178L618.669 53.6463ZM613.517 39.0677L619.694 34.8139C615.968 29.4036 610.876 25.0766 604.935 22.2731L601.734 29.0558L598.533 35.8385C602.078 37.5113 605.117 40.0932 607.34 43.3215L613.517 39.0677ZM601.734 29.0558L604.935 22.2731C598.994 19.4696 592.417 18.2895 585.872 18.8529L586.515 26.3253L587.158 33.7977C591.064 33.4615 594.988 34.1656 598.533 35.8385L601.734 29.0558ZM586.515 26.3253L585.872 18.8529C579.327 19.4164 573.048 21.7032 567.674 25.4808L571.987 31.6166L576.3 37.7525C579.506 35.4984 583.253 34.1339 587.158 33.7977L586.515 26.3253ZM571.987 31.6166L567.674 25.4808C562.299 29.2584 558.021 34.392 555.275 40.3595L562.088 43.4951L568.901 46.6306C570.54 43.0698 573.093 40.0066 576.3 37.7525L571.987 31.6166ZM562.088 43.4951L555.275 40.3595C552.529 46.3269 551.412 52.9153 552.038 59.4546L559.504 58.7396L566.97 58.0247C566.596 54.1227 567.263 50.1914 568.901 46.6306L562.088 43.4951Z" fill="#1A3567"/>
<path d="M672.133 68.8775C668.7 71.194 667.794 75.8556 670.11 79.2894C672.427 82.7232 677.088 83.629 680.522 81.3125L676.328 75.095L672.133 68.8775ZM686.452 63.4087L679.701 60.143L679.701 60.143L686.452 63.4087ZM689.329 48.2166L681.85 48.7881V48.7881L689.329 48.2166ZM684.177 33.638L678 37.8919L684.177 33.638ZM672.394 23.6261L675.595 16.8434L675.595 16.8434L672.394 23.6261ZM632.748 38.0654L639.561 41.2009L639.561 41.2009L632.748 38.0654ZM676.328 75.095L680.522 81.3125C685.968 77.6387 690.344 72.5881 693.204 66.6745L686.452 63.4087L679.701 60.143C677.994 63.6717 675.383 66.6854 672.133 68.8775L676.328 75.095ZM686.452 63.4087L693.204 66.6745C696.064 60.7608 697.307 54.1951 696.807 47.645L689.329 48.2166L681.85 48.7881C682.149 52.6965 681.407 56.6143 679.701 60.143L686.452 63.4087ZM689.329 48.2166L696.807 47.645C696.306 41.095 694.08 34.7945 690.354 29.3842L684.177 33.638L678 37.8919C680.223 41.1202 681.552 44.8797 681.85 48.7881L689.329 48.2166ZM684.177 33.638L690.354 29.3842C686.628 23.9739 681.536 19.6469 675.595 16.8434L672.394 23.6261L669.193 30.4088C672.738 32.0816 675.777 34.6635 678 37.8919L684.177 33.638ZM672.394 23.6261L675.595 16.8434C669.654 14.0399 663.077 12.8598 656.532 13.4232L657.175 20.8956L657.818 28.368C661.724 28.0318 665.648 28.7359 669.193 30.4088L672.394 23.6261ZM657.175 20.8956L656.532 13.4232C649.987 13.9867 643.708 16.2735 638.334 20.0511L642.647 26.187L646.959 32.3228C650.166 30.0687 653.913 28.7042 657.818 28.368L657.175 20.8956ZM642.647 26.187L638.334 20.0511C632.959 23.8287 628.681 28.9623 625.935 34.9298L632.748 38.0654L639.561 41.2009C641.2 37.6402 643.753 34.5769 646.959 32.3228L642.647 26.187ZM632.748 38.0654L625.935 34.9298C623.189 40.8973 622.072 47.4857 622.698 54.0249L630.164 53.3099L637.63 52.595C637.256 48.693 637.922 44.7617 639.561 41.2009L632.748 38.0654Z" fill="#1A3567"/>
<path d="M741.814 63.3853C738.38 65.7018 737.474 70.3634 739.791 73.7972C742.107 77.231 746.769 78.1368 750.203 75.8203L746.008 69.6028L741.814 63.3853ZM756.133 57.9166L749.381 54.6508L749.381 54.6508L756.133 57.9166ZM759.009 42.7244L751.531 43.296V43.296L759.009 42.7244ZM753.857 28.1458L747.68 32.3997L753.857 28.1458ZM742.074 18.1339L745.275 11.3512L745.275 11.3512L742.074 18.1339ZM702.429 32.5732L709.242 35.7088L709.242 35.7088L702.429 32.5732ZM746.008 69.6028L750.203 75.8203C755.648 72.1465 760.024 67.096 762.884 61.1823L756.133 57.9166L749.381 54.6508C747.674 58.1795 745.063 61.1932 741.814 63.3853L746.008 69.6028ZM756.133 57.9166L762.884 61.1823C765.745 55.2686 766.988 48.7029 766.487 42.1529L759.009 42.7244L751.531 43.296C751.83 47.2043 751.088 51.1221 749.381 54.6508L756.133 57.9166ZM759.009 42.7244L766.487 42.1529C765.987 35.6028 763.76 29.3023 760.034 23.892L753.857 28.1458L747.68 32.3997C749.904 35.628 751.232 39.3876 751.531 43.296L759.009 42.7244ZM753.857 28.1458L760.034 23.892C756.308 18.4817 751.216 14.1547 745.275 11.3512L742.074 18.1339L738.874 24.9166C742.419 26.5895 745.457 29.1714 747.68 32.3997L753.857 28.1458ZM742.074 18.1339L745.275 11.3512C739.334 8.54768 732.757 7.36762 726.212 7.93105L726.855 15.4034L727.499 22.8758C731.404 22.5396 735.329 23.2437 738.874 24.9166L742.074 18.1339ZM726.855 15.4034L726.212 7.93105C719.667 8.49449 713.388 10.7813 708.014 14.5589L712.327 20.6948L716.64 26.8306C719.847 24.5765 723.593 23.212 727.499 22.8758L726.855 15.4034ZM712.327 20.6948L708.014 14.5589C702.64 18.3365 698.362 23.4701 695.615 29.4376L702.429 32.5732L709.242 35.7088C710.88 32.148 713.433 29.0847 716.64 26.8306L712.327 20.6948ZM702.429 32.5732L695.615 29.4376C692.869 35.4051 691.752 41.9935 692.378 48.5327L699.844 47.8177L707.31 47.1028C706.936 43.2008 707.603 39.2695 709.242 35.7088L702.429 32.5732Z" fill="#1A3567"/>
<path d="M808.995 59.1119C805.561 61.4284 804.655 66.09 806.972 69.5238C809.288 72.9576 813.95 73.8634 817.384 71.5469L813.189 65.3294L808.995 59.1119ZM823.314 53.6431L816.562 50.3774L816.562 50.3774L823.314 53.6431ZM826.19 38.451L818.712 39.0225V39.0225L826.19 38.451ZM821.038 23.8724L814.862 28.1262L821.038 23.8724ZM809.256 13.8605L812.456 7.07777L812.456 7.07777L809.256 13.8605ZM769.61 28.2997L776.423 31.4353L776.423 31.4353L769.61 28.2997ZM813.189 65.3294L817.384 71.5469C822.829 67.8731 827.205 62.8225 830.065 56.9089L823.314 53.6431L816.562 50.3774C814.855 53.9061 812.244 56.9198 808.995 59.1119L813.189 65.3294ZM823.314 53.6431L830.065 56.9089C832.926 50.9952 834.169 44.4294 833.668 37.8794L826.19 38.451L818.712 39.0225C819.011 42.9309 818.269 46.8487 816.562 50.3774L823.314 53.6431ZM826.19 38.451L833.668 37.8794C833.168 31.3294 830.941 25.0288 827.215 19.6185L821.038 23.8724L814.862 28.1262C817.085 31.3546 818.413 35.1141 818.712 39.0225L826.19 38.451ZM821.038 23.8724L827.215 19.6185C823.49 14.2083 818.397 9.8813 812.456 7.07777L809.256 13.8605L806.055 20.6431C809.6 22.316 812.638 24.8979 814.862 28.1262L821.038 23.8724ZM809.256 13.8605L812.456 7.07777C806.516 4.27424 799.938 3.09418 793.393 3.65762L794.037 11.13L794.68 18.6023C798.585 18.2661 802.51 18.9703 806.055 20.6431L809.256 13.8605ZM794.037 11.13L793.393 3.65762C786.848 4.22105 780.569 6.50787 775.195 10.2855L779.508 16.4213L783.821 22.5572C787.028 20.3031 790.774 18.9385 794.68 18.6023L794.037 11.13ZM779.508 16.4213L775.195 10.2855C769.821 14.0631 765.543 19.1967 762.797 25.1642L769.61 28.2997L776.423 31.4353C778.062 27.8745 780.614 24.8113 783.821 22.5572L779.508 16.4213ZM769.61 28.2997L762.797 25.1642C760.05 31.1316 758.933 37.72 759.559 44.2592L767.025 43.5443L774.491 42.8294C774.118 38.9274 774.784 34.9961 776.423 31.4353L769.61 28.2997Z" fill="#1A3567"/>
<path d="M878.676 53.6197C875.242 55.9362 874.336 60.5978 876.653 64.0316C878.969 67.4654 883.631 68.3712 887.065 66.0547L882.87 59.8372L878.676 53.6197ZM892.995 48.1509L886.243 44.8852L886.243 44.8852L892.995 48.1509ZM895.871 32.9588L888.393 33.5303V33.5303L895.871 32.9588ZM890.719 18.3802L884.542 22.634L890.719 18.3802ZM878.937 8.36827L882.137 1.58558L882.137 1.58558L878.937 8.36827ZM839.291 22.8076L846.104 25.9431L846.104 25.9431L839.291 22.8076ZM882.87 59.8372L887.065 66.0547C892.51 62.3809 896.886 57.3303 899.746 51.4167L892.995 48.1509L886.243 44.8852C884.536 48.4139 881.925 51.4276 878.676 53.6197L882.87 59.8372ZM892.995 48.1509L899.746 51.4167C902.607 45.503 903.85 38.9373 903.349 32.3872L895.871 32.9588L888.393 33.5303C888.692 37.4387 887.95 41.3565 886.243 44.8852L892.995 48.1509ZM895.871 32.9588L903.349 32.3872C902.849 25.8372 900.622 19.5366 896.896 14.1264L890.719 18.3802L884.542 22.634C886.766 25.8624 888.094 29.6219 888.393 33.5303L895.871 32.9588ZM890.719 18.3802L896.896 14.1264C893.17 8.71607 888.078 4.38911 882.137 1.58558L878.937 8.36827L875.736 15.151C879.281 16.8238 882.319 19.4057 884.542 22.634L890.719 18.3802ZM878.937 8.36827L882.137 1.58558C876.196 -1.21794 869.619 -2.398 863.074 -1.83457L863.717 5.63779L864.361 13.1102C868.266 12.774 872.191 13.4781 875.736 15.151L878.937 8.36827ZM863.717 5.63779L863.074 -1.83457C856.529 -1.27114 850.25 1.01568 844.876 4.79329L849.189 10.9291L853.502 17.065C856.709 14.8109 860.455 13.4464 864.361 13.1102L863.717 5.63779ZM849.189 10.9291L844.876 4.79329C839.502 8.5709 835.224 13.7045 832.477 19.672L839.291 22.8076L846.104 25.9431C847.742 22.3823 850.295 19.3191 853.502 17.065L849.189 10.9291ZM839.291 22.8076L832.477 19.672C829.731 25.6394 828.614 32.2278 829.24 38.7671L836.706 38.0521L844.172 37.3372C843.798 33.4352 844.465 29.5039 846.104 25.9431L839.291 22.8076Z" fill="#1A3567"/>
<path d="M400.075 251.993L404.906 300.613L395.154 301.582L390.323 252.961L400.075 251.993ZM432.036 258.384C436.633 257.927 440.494 259.021 443.617 261.665C446.736 264.263 448.554 268.162 449.07 273.363L451.32 296.002L441.568 296.971L439.45 275.656C439.145 272.591 438.146 270.322 436.452 268.849C434.754 267.329 432.581 266.701 429.934 266.964C427.24 267.231 425.187 268.28 423.775 270.108C422.404 271.886 421.87 274.307 422.175 277.372L424.293 298.687L414.541 299.656L410.707 261.066L420.459 260.097L420.936 264.903C422.07 263.102 423.59 261.638 425.494 260.511C427.441 259.333 429.621 258.624 432.036 258.384ZM468.909 263.373L470.764 282.041C470.893 283.341 471.289 284.263 471.953 284.807C472.659 285.3 473.754 285.472 475.24 285.324L479.768 284.875L480.585 293.094L474.455 293.703C466.235 294.52 461.729 290.934 460.935 282.947L459.087 264.349L454.49 264.805L453.694 256.795L458.292 256.338L457.343 246.795L467.165 245.819L468.113 255.362L476.751 254.504L477.547 262.515L468.909 263.373ZM521.472 268.702C521.611 270.095 521.642 271.358 521.567 272.491L493.356 275.294C493.865 278.057 495.057 280.143 496.932 281.551C498.807 282.96 500.999 283.539 503.506 283.29C507.129 282.93 509.551 281.118 510.775 277.855L521.293 276.81C520.547 280.635 518.716 283.913 515.798 286.641C512.875 289.323 509.116 290.893 504.518 291.349C500.803 291.718 497.379 291.238 494.245 289.908C491.154 288.527 488.622 286.41 486.65 283.558C484.725 280.701 483.566 277.299 483.174 273.351C482.777 269.358 483.242 265.771 484.567 262.591C485.893 259.411 487.937 256.863 490.701 254.947C493.466 253.031 496.752 251.884 500.56 251.505C504.228 251.141 507.58 251.605 510.616 252.898C513.699 254.186 516.175 256.215 518.045 258.983C519.956 261.701 521.098 264.941 521.472 268.702ZM511.095 266.919C510.799 264.416 509.696 262.509 507.783 261.199C505.866 259.842 503.631 259.29 501.077 259.544C498.662 259.784 496.693 260.73 495.168 262.382C493.686 263.983 492.888 266.102 492.775 268.74L511.095 266.919ZM537.103 254.557C538.154 252.39 539.62 250.626 541.502 249.267C543.43 247.903 545.694 247.092 548.295 246.833L549.312 257.073L546.735 257.329C543.67 257.633 541.419 258.584 539.983 260.18C538.594 261.772 538.077 264.356 538.432 267.932L540.342 287.157L530.59 288.126L526.756 249.536L536.508 248.567L537.103 254.557ZM573.95 274.743L580.761 244.17L591.14 243.139L580.694 283.148L568.853 284.324L550.809 247.146L561.257 246.108L573.95 274.743ZM596.013 262C595.625 258.099 596.048 254.563 597.28 251.392C598.559 248.217 600.442 245.685 602.927 243.797C605.459 241.904 608.374 240.794 611.671 240.466C614.55 240.18 617.115 240.511 619.367 241.46C621.665 242.404 623.551 243.694 625.027 245.329L624.48 239.827L634.302 238.851L638.136 277.441L628.314 278.417L627.754 272.774C626.68 274.71 625.088 276.392 622.979 277.821C620.912 279.199 618.439 280.031 615.56 280.317C612.309 280.64 609.254 280.099 606.394 278.695C603.581 277.286 601.235 275.151 599.357 272.289C597.52 269.377 596.405 265.947 596.013 262ZM626.397 259.122C626.162 256.753 625.497 254.779 624.402 253.2C623.303 251.574 621.919 250.398 620.253 249.673C618.582 248.901 616.841 248.605 615.03 248.785C613.218 248.965 611.591 249.572 610.146 250.607C608.701 251.641 607.576 253.066 606.772 254.881C606.009 256.645 605.743 258.688 605.974 261.01C606.205 263.332 606.872 265.329 607.976 267.001C609.122 268.623 610.507 269.822 612.132 270.598C613.803 271.37 615.521 271.668 617.286 271.493C619.097 271.313 620.748 270.703 622.239 269.664C623.726 268.579 624.85 267.154 625.613 265.39C626.371 263.579 626.633 261.49 626.397 259.122ZM652.291 223.979L657.412 275.525L647.66 276.494L642.539 224.948L652.291 223.979ZM701.866 284.967C696.928 281.049 692.868 275.825 689.687 269.294C686.552 262.759 684.599 255.613 683.829 247.858C683.04 239.917 683.599 232.335 685.508 225.111C687.412 217.84 690.627 211.729 695.152 206.777L704.974 205.802L705.064 206.707C700.44 212.091 697.121 218.329 695.106 225.423C693.137 232.513 692.512 239.68 693.232 246.924C693.934 253.982 695.866 260.684 699.028 267.029C702.233 273.323 706.42 278.652 711.591 283.016L711.687 283.991L701.866 284.967ZM761.488 225.651C766.225 225.181 770.178 226.265 773.348 228.905C776.56 231.493 778.424 235.388 778.94 240.589L781.19 263.228L771.438 264.197L769.32 242.881C769.02 239.863 768.025 237.64 766.336 236.214C764.642 234.741 762.472 234.136 759.825 234.399C757.178 234.662 755.146 235.684 753.728 237.466C752.353 239.198 751.815 241.572 752.115 244.591L754.232 265.906L744.48 266.875L742.363 245.56C742.063 242.541 741.068 240.319 739.379 238.892C737.685 237.419 735.514 236.814 732.868 237.077C730.174 237.345 728.119 238.37 726.701 240.152C725.326 241.883 724.788 244.258 725.088 247.276L727.206 268.591L717.454 269.56L713.619 230.97L723.371 230.001L723.835 234.668C724.927 232.918 726.403 231.482 728.261 230.36C730.165 229.232 732.302 228.551 734.67 228.316C737.689 228.016 740.447 228.398 742.944 229.463C745.437 230.482 747.451 232.111 748.987 234.35C750.019 231.996 751.653 230.029 753.887 228.447C756.168 226.86 758.702 225.928 761.488 225.651ZM805.273 261.468C802.116 261.782 799.227 261.506 796.609 260.64C793.986 259.729 791.835 258.371 790.155 256.569C788.522 254.761 787.518 252.68 787.143 250.326L796.965 249.35C797.298 250.818 798.14 251.977 799.491 252.827C800.888 253.673 802.538 254.002 804.442 253.813C806.3 253.628 807.703 253.113 808.65 252.269C809.645 251.42 810.084 250.415 809.969 249.254C809.844 248 809.102 247.136 807.742 246.661C806.423 246.136 804.334 245.64 801.474 245.174C798.525 244.763 796.086 244.279 794.154 243.72C792.269 243.157 790.577 242.176 789.078 240.778C787.626 239.374 786.77 237.373 786.512 234.772C786.3 232.636 786.71 230.625 787.742 228.741C788.82 226.852 790.447 225.283 792.62 224.035C794.841 222.783 797.507 222.002 800.618 221.693C805.215 221.237 808.999 222.033 811.97 224.083C814.936 226.086 816.752 229.024 817.418 232.897L808.084 233.825C807.793 232.306 807.022 231.163 805.774 230.396C804.567 229.578 803.012 229.264 801.108 229.453C799.343 229.628 798.005 230.089 797.095 230.836C796.231 231.579 795.856 232.531 795.972 233.691C796.101 234.992 796.85 235.926 798.22 236.493C799.584 237.014 801.671 237.487 804.48 237.911C807.336 238.331 809.706 238.822 811.591 239.385C813.476 239.948 815.147 240.955 816.604 242.404C818.103 243.803 819.003 245.777 819.303 248.326C819.524 250.555 819.096 252.615 818.017 254.504C816.985 256.388 815.359 257.957 813.139 259.209C810.96 260.41 808.338 261.163 805.273 261.468ZM827.257 272.509L827.16 271.533C831.371 266.238 834.404 260.192 836.262 253.395C838.16 246.547 838.759 239.593 838.058 232.535C837.338 225.29 835.292 218.389 831.921 211.83C828.596 205.267 824.137 199.801 818.544 195.432L818.454 194.527L828.276 193.551C833.688 197.515 838.042 202.874 841.339 209.628C844.632 216.335 846.673 223.66 847.462 231.6C848.232 239.356 847.7 246.748 845.866 253.777C844.079 260.801 841.15 266.72 837.079 271.533L827.257 272.509Z" fill="#1A3567"/>
<path d="M529.757 368.061C528.814 365.341 527.443 363.369 525.645 362.142C523.913 360.909 521.521 360.446 518.47 360.753C513.893 361.213 510.696 363.41 508.881 367.344C507.125 371.206 506.63 377.286 507.397 385.584C508.722 382.771 510.837 380.481 513.742 378.715C516.64 376.883 519.88 375.787 523.462 375.427C527.774 374.994 531.681 375.539 535.184 377.063C538.688 378.587 541.548 381.047 543.765 384.442C545.976 387.771 547.331 391.923 547.831 396.898C548.304 401.608 547.765 405.917 546.215 409.824C544.724 413.659 542.258 416.788 538.817 419.211C535.375 421.634 531.133 423.099 526.092 423.605C519.194 424.299 513.601 423.32 509.314 420.668C505.094 418.01 501.915 414.042 499.776 408.762C497.697 403.41 496.255 396.721 495.448 388.694C494.228 376.556 495.398 367.192 498.957 360.603C502.509 353.948 508.796 350.167 517.817 349.26C524.782 348.56 530.378 349.908 534.606 353.302C538.833 356.696 541.528 361.183 542.692 366.761L529.757 368.061ZM521.428 387.189C517.912 387.543 515.064 388.867 512.882 391.164C510.701 393.46 509.807 396.565 510.2 400.479C510.593 404.392 511.998 407.367 514.413 409.402C516.895 411.431 520.16 412.242 524.206 411.835C527.788 411.475 530.497 410.097 532.333 407.702C534.236 405.3 535.001 402.241 534.627 398.526C534.241 394.679 532.906 391.731 530.623 389.682C528.406 387.627 525.341 386.796 521.428 387.189ZM557.52 382.658C556.367 371.182 557.52 361.988 560.98 355.074C564.506 348.153 571.078 344.21 580.696 343.243C590.314 342.277 597.506 344.837 602.272 350.925C607.104 357.005 610.097 365.783 611.25 377.259C612.41 388.801 611.23 398.065 607.711 405.052C604.258 412.032 597.723 416.006 588.104 416.972C578.486 417.939 571.258 415.348 566.419 409.201C561.646 403.048 558.68 394.2 557.52 382.658ZM597.519 378.639C597.026 373.73 596.281 369.651 595.284 366.401C594.347 363.078 592.81 360.452 590.673 358.522C588.603 356.586 585.71 355.805 581.996 356.178C578.281 356.552 575.568 357.896 573.858 360.212C572.214 362.521 571.23 365.401 570.907 368.85C570.643 372.227 570.758 376.37 571.251 381.278C571.758 386.32 572.483 390.535 573.427 393.924C574.363 397.247 575.9 399.873 578.037 401.803C580.168 403.666 583.09 404.41 586.805 404.037C590.519 403.664 593.235 402.353 594.952 400.103C596.662 397.787 597.646 394.908 597.903 391.465C598.154 387.955 598.026 383.68 597.519 378.639ZM621.845 376.194C620.692 364.719 621.845 355.524 625.304 348.61C628.83 341.69 635.402 337.746 645.02 336.78C654.638 335.813 661.831 338.374 666.596 344.461C671.429 350.542 674.421 359.32 675.574 370.795C676.734 382.337 675.554 391.601 672.035 398.588C668.583 405.569 662.047 409.542 652.429 410.508C642.811 411.475 635.582 408.885 630.743 402.738C625.971 396.584 623.005 387.736 621.845 376.194ZM661.843 372.175C661.35 367.266 660.605 363.187 659.609 359.937C658.672 356.614 657.135 353.988 654.998 352.059C652.927 350.123 650.035 349.341 646.32 349.715C642.605 350.088 639.893 351.432 638.183 353.748C636.539 356.058 635.555 358.937 635.231 362.387C634.968 365.763 635.083 369.906 635.576 374.815C636.082 379.856 636.807 384.071 637.751 387.46C638.688 390.783 640.225 393.41 642.362 395.339C644.492 397.202 647.415 397.947 651.129 397.574C654.844 397.2 657.56 395.889 659.277 393.639C660.987 391.323 661.971 388.444 662.228 385.001C662.478 381.492 662.35 377.216 661.843 372.175ZM686.169 369.731C685.016 358.255 686.169 349.06 689.629 342.146C693.155 335.226 699.727 331.282 709.345 330.316C718.963 329.349 726.155 331.91 730.921 337.997C735.753 344.078 738.746 352.856 739.899 364.332C741.059 375.873 739.879 385.138 736.36 392.125C732.907 399.105 726.372 403.078 716.753 404.045C707.135 405.011 699.907 402.421 695.068 396.274C690.295 390.12 687.329 381.272 686.169 369.731ZM726.168 365.711C725.675 360.803 724.93 356.723 723.933 353.473C722.996 350.15 721.459 347.524 719.322 345.595C717.252 343.659 714.359 342.878 710.645 343.251C706.93 343.624 704.217 344.969 702.507 347.285C700.863 349.594 699.879 352.473 699.556 355.923C699.292 359.3 699.407 363.442 699.9 368.351C700.407 373.392 701.132 377.607 702.076 380.997C703.012 384.32 704.549 386.946 706.686 388.875C708.817 390.738 711.739 391.483 715.454 391.11C719.168 390.737 721.884 389.425 723.601 387.175C725.311 384.86 726.295 381.98 726.552 378.537C726.803 375.028 726.675 370.753 726.168 365.711ZM750.494 363.267C749.341 351.791 750.494 342.597 753.953 335.683C757.479 328.762 764.051 324.819 773.669 323.852C783.287 322.886 790.48 325.446 795.245 331.534C800.078 337.614 803.07 346.392 804.223 357.868C805.383 369.41 804.203 378.674 800.684 385.661C797.232 392.641 790.696 396.614 781.078 397.581C771.46 398.547 764.231 395.957 759.392 389.81C754.62 383.657 751.654 374.809 750.494 363.267ZM790.492 359.248C789.999 354.339 789.254 350.26 788.258 347.01C787.321 343.687 785.784 341.061 783.647 339.131C781.576 337.195 778.684 336.414 774.969 336.787C771.254 337.16 768.542 338.505 766.832 340.821C765.188 343.13 764.204 346.01 763.88 349.459C763.617 352.836 763.732 356.979 764.225 361.887C764.731 366.928 765.456 371.144 766.4 374.533C767.337 377.856 768.874 380.482 771.011 382.411C773.141 384.274 776.064 385.019 779.778 384.646C783.493 384.273 786.209 382.961 787.926 380.712C789.636 378.396 790.62 375.516 790.877 372.073C791.127 368.564 790.999 364.289 790.492 359.248Z" fill="#1A3567"/>
<path d="M628.197 518.484C632.181 518.847 635.584 520.503 638.406 523.452C641.227 526.401 642.831 529.934 643.217 534.049C643.566 537.766 642.945 541.139 641.355 544.167C639.824 547.123 637.408 549.56 634.106 551.477C630.804 553.394 626.797 554.573 622.084 555.016L592.116 557.829L585.593 488.334L614.266 485.643C618.979 485.2 623.1 485.584 626.628 486.792C630.223 487.995 633.011 489.876 634.992 492.435C637.04 494.989 638.225 497.991 638.549 501.442C638.929 505.491 638.152 508.979 636.217 511.906C634.349 514.827 631.675 517.02 628.197 518.484ZM602.223 515.7L614.967 514.504C618.286 514.192 620.773 513.222 622.428 511.593C624.076 509.899 624.77 507.657 624.508 504.87C624.247 502.082 623.148 500.009 621.213 498.65C619.277 497.292 616.65 496.769 613.331 497.08L600.587 498.276L602.223 515.7ZM619.028 543.852C622.413 543.535 624.96 542.492 626.669 540.725C628.444 538.951 629.195 536.604 628.92 533.683C628.64 530.696 627.426 528.467 625.279 526.994C623.126 525.456 620.357 524.845 616.972 525.163L603.232 526.453L604.989 545.17L619.028 543.852ZM702.265 499.077C702.614 502.794 702.045 506.363 700.558 509.784C699.138 513.198 696.629 516.078 693.033 518.425C689.503 520.765 684.884 522.203 679.175 522.739L667.527 523.832L670.031 550.515L656.093 551.823L649.569 482.329L675.157 479.927C680.533 479.422 685.2 479.922 689.158 481.425C693.116 482.928 696.177 485.219 698.34 488.297C700.571 491.368 701.879 494.962 702.265 499.077ZM677.522 511.544C681.372 511.183 684.145 510.052 685.841 508.152C687.532 506.185 688.227 503.609 687.928 500.423C687.293 493.653 683.191 490.623 675.625 491.333L664.573 492.37L666.47 512.582L677.522 511.544ZM785.91 469.53L792.433 539.025L778.494 540.333L774.251 495.132L759.876 542.081L749.323 543.072L726.362 499.627L730.605 544.829L716.666 546.137L710.143 476.643L725.973 475.157L752.926 524.755L770.179 471.007L785.91 469.53Z" fill="#1A3567"/>
<path d="M429.025 466.866L908.82 419.183" stroke="#1A3567" stroke-width="3" stroke-linecap="square"/>
</g>
<defs>
<linearGradient id="paint0_linear_410_4710" x1="640" y1="0" x2="640" y2="720" gradientUnits="userSpaceOnUse">
<stop stop-color="#31C0FD"/>
<stop offset="1" stop-color="#2E91E9"/>
</linearGradient>
<clipPath id="clip0_410_4710">
<rect width="1280" height="720" fill="white"/>
</clipPath>
</defs>
</svg>
