<?xml version="1.0" encoding="UTF-8" standalone="no"?>
<!DOCTYPE svg PUBLIC "-//W3C//DTD SVG 1.1//EN"
 "http://www.w3.org/Graphics/SVG/1.1/DTD/svg11.dtd">
<!-- Generated by graphviz version 14.1.2 (0)
 -->
<!-- Title: PDG_MakeCode Pages: 1 -->
<svg width="673pt" height="687pt"
 viewBox="0.00 0.00 673.00 687.00" xmlns="http://www.w3.org/2000/svg" xmlns:xlink="http://www.w3.org/1999/xlink">
<g id="graph0" class="graph" transform="scale(1 1) rotate(0) translate(21.6 665.6)">
<title>PDG_MakeCode</title>
<polygon fill="#fbf6eb" stroke="none" points="-21.6,21.6 -21.6,-665.6 651.12,-665.6 651.12,21.6 -21.6,21.6"/>
<g id="clust1" class="cluster">
<title>cluster_loop</title>
<path fill="#fbf6eb" stroke="#8b2418" stroke-width="1.8" stroke-dasharray="5,2" d="M161.52,-8C161.52,-8 609.52,-8 609.52,-8 615.52,-8 621.52,-14 621.52,-20 621.52,-20 621.52,-624 621.52,-624 621.52,-630 615.52,-636 609.52,-636 609.52,-636 161.52,-636 161.52,-636 155.52,-636 149.52,-630 149.52,-624 149.52,-624 149.52,-20 149.52,-20 149.52,-14 155.52,-8 161.52,-8"/>
<text xml:space="preserve" text-anchor="start" x="183.39" y="-622.55" font-family="Arial" font-weight="bold" font-size="11.00">loop</text>
<text xml:space="preserve" text-anchor="start" x="157.52" y="-613.45" font-family="Arial" font-size="9.00" fill="#8b2418">alcance de control</text>
</g>
<!-- n1 -->
<g id="node1" class="node">
<title>n1</title>
<path fill="#34495e" stroke="#1a1612" stroke-width="1.5" d="M119.04,-590C119.04,-590 12,-590 12,-590 6,-590 0,-584 0,-578 0,-578 0,-566 0,-566 0,-560 6,-554 12,-554 12,-554 119.04,-554 119.04,-554 125.04,-554 131.04,-560 131.04,-566 131.04,-566 131.04,-578 131.04,-578 131.04,-584 125.04,-590 119.04,-590"/>
<text xml:space="preserve" text-anchor="middle" x="65.52" y="-568.3" font-family="Arial" font-size="11.00" fill="#fbf6eb">1 &#160;&#160;ProgramStartEvent</text>
</g>
<!-- n2 -->
<g id="node2" class="node">
<title>n2</title>
<path fill="#8b2418" stroke="#1a1612" stroke-width="1.5" d="M100.29,-502C100.29,-502 30.75,-502 30.75,-502 24.75,-502 18.75,-496 18.75,-490 18.75,-490 18.75,-478 18.75,-478 18.75,-472 24.75,-466 30.75,-466 30.75,-466 100.29,-466 100.29,-466 106.29,-466 112.29,-472 112.29,-478 112.29,-478 112.29,-490 112.29,-490 112.29,-496 106.29,-502 100.29,-502"/>
<text xml:space="preserve" text-anchor="middle" x="65.52" y="-480.3" font-family="Arial" font-size="11.00" fill="#fbf6eb">2 &#160;&#160;SetVariable</text>
</g>
<!-- n1&#45;&gt;n2 -->
<g id="edge1" class="edge">
<title>n1&#45;&gt;n2</title>
<path fill="none" stroke="#8b2418" stroke-width="2" d="M65.52,-553.6C65.52,-542.71 65.52,-528.39 65.52,-515.64"/>
<polygon fill="#8b2418" stroke="#8b2418" stroke-width="2" points="69.02,-515.7 65.52,-505.7 62.02,-515.7 69.02,-515.7"/>
</g>
<!-- n3 -->
<g id="node3" class="node">
<title>n3</title>
<path fill="#fbf6eb" stroke="#1a1612" stroke-width="1.5" d="M383.91,-590C383.91,-590 315.12,-590 315.12,-590 309.12,-590 303.12,-584 303.12,-578 303.12,-578 303.12,-566 303.12,-566 303.12,-560 309.12,-554 315.12,-554 315.12,-554 383.91,-554 383.91,-554 389.91,-554 395.91,-560 395.91,-566 395.91,-566 395.91,-578 395.91,-578 395.91,-584 389.91,-590 383.91,-590"/>
<text xml:space="preserve" text-anchor="middle" x="349.52" y="-568.3" font-family="Arial" font-size="11.00" fill="#1a1612">3 &#160;&#160;ReadTilt #1</text>
</g>
<!-- n4 -->
<g id="node4" class="node">
<title>n4</title>
<path fill="#fbf6eb" stroke="#1a1612" stroke-width="1.5" d="M388.04,-502C388.04,-502 311,-502 311,-502 305,-502 299,-496 299,-490 299,-490 299,-478 299,-478 299,-472 305,-466 311,-466 311,-466 388.04,-466 388.04,-466 394.04,-466 400.04,-472 400.04,-478 400.04,-478 400.04,-490 400.04,-490 400.04,-496 394.04,-502 388.04,-502"/>
<text xml:space="preserve" text-anchor="middle" x="349.52" y="-480.3" font-family="Arial" font-size="11.00" fill="#1a1612">4 &#160;&#160;Arithmetic [+]</text>
</g>
<!-- n3&#45;&gt;n4 -->
<g id="edge2" class="edge">
<title>n3&#45;&gt;n4</title>
<path fill="none" stroke="#4a3f33" stroke-width="1.3" d="M349.52,-553.6C349.52,-542.36 349.52,-527.47 349.52,-514.43"/>
<polygon fill="#4a3f33" stroke="#4a3f33" stroke-width="1.3" points="353.02,-514.64 349.52,-504.64 346.02,-514.64 353.02,-514.64"/>
<text xml:space="preserve" text-anchor="middle" x="363.02" y="-524.5" font-family="Arial" font-size="10.00" fill="#8b2418"> tilt_1 </text>
</g>
<!-- n5 -->
<g id="node5" class="node">
<title>n5</title>
<path fill="#8b2418" stroke="#1a1612" stroke-width="1.5" d="M384.29,-414C384.29,-414 314.75,-414 314.75,-414 308.75,-414 302.75,-408 302.75,-402 302.75,-402 302.75,-390 302.75,-390 302.75,-384 308.75,-378 314.75,-378 314.75,-378 384.29,-378 384.29,-378 390.29,-378 396.29,-384 396.29,-390 396.29,-390 396.29,-402 396.29,-402 396.29,-408 390.29,-414 384.29,-414"/>
<text xml:space="preserve" text-anchor="middle" x="349.52" y="-392.3" font-family="Arial" font-size="11.00" fill="#fbf6eb">5 &#160;&#160;SetVariable</text>
</g>
<!-- n4&#45;&gt;n5 -->
<g id="edge3" class="edge">
<title>n4&#45;&gt;n5</title>
<path fill="none" stroke="#4a3f33" stroke-width="1.3" d="M349.52,-465.6C349.52,-454.36 349.52,-439.47 349.52,-426.43"/>
<polygon fill="#4a3f33" stroke="#4a3f33" stroke-width="1.3" points="353.02,-426.64 349.52,-416.64 346.02,-426.64 353.02,-426.64"/>
<text xml:space="preserve" text-anchor="middle" x="361.89" y="-436.5" font-family="Arial" font-size="10.00" fill="#8b2418"> bpm </text>
</g>
<!-- n6 -->
<g id="node6" class="node">
<title>n6</title>
<path fill="#fbf6eb" stroke="#1a1612" stroke-width="1.5" d="M325.04,-326C325.04,-326 248,-326 248,-326 242,-326 236,-320 236,-314 236,-314 236,-302 236,-302 236,-296 242,-290 248,-290 248,-290 325.04,-290 325.04,-290 331.04,-290 337.04,-296 337.04,-302 337.04,-302 337.04,-314 337.04,-314 337.04,-320 331.04,-326 325.04,-326"/>
<text xml:space="preserve" text-anchor="middle" x="286.52" y="-304.3" font-family="Arial" font-size="11.00" fill="#1a1612">6 &#160;&#160;Arithmetic [+]</text>
</g>
<!-- n5&#45;&gt;n6 -->
<g id="edge5" class="edge">
<title>n5&#45;&gt;n6</title>
<path fill="none" stroke="#4a3f33" stroke-width="1.3" d="M336.77,-377.6C328.03,-365.67 316.27,-349.61 306.32,-336.03"/>
<polygon fill="#4a3f33" stroke="#4a3f33" stroke-width="1.3" points="309.36,-334.26 300.63,-328.26 303.72,-338.4 309.36,-334.26"/>
<text xml:space="preserve" text-anchor="middle" x="334.17" y="-348.5" font-family="Arial" font-size="10.00" fill="#8b2418"> bpm </text>
</g>
<!-- n7 -->
<g id="node7" class="node">
<title>n7</title>
<path fill="#8b2418" stroke="#1a1612" stroke-width="1.5" d="M363.29,-238C363.29,-238 293.75,-238 293.75,-238 287.75,-238 281.75,-232 281.75,-226 281.75,-226 281.75,-214 281.75,-214 281.75,-208 287.75,-202 293.75,-202 293.75,-202 363.29,-202 363.29,-202 369.29,-202 375.29,-208 375.29,-214 375.29,-214 375.29,-226 375.29,-226 375.29,-232 369.29,-238 363.29,-238"/>
<text xml:space="preserve" text-anchor="middle" x="328.52" y="-216.3" font-family="Arial" font-size="11.00" fill="#fbf6eb">7 &#160;&#160;SetVariable</text>
</g>
<!-- n5&#45;&gt;n7 -->
<g id="edge4" class="edge">
<title>n5&#45;&gt;n7</title>
<path fill="none" stroke="#8b2418" stroke-width="2" d="M356.94,-377.37C367.08,-350.52 382.2,-298.26 365.52,-258 364.17,-254.73 362.37,-251.6 360.29,-248.64"/>
<polygon fill="#8b2418" stroke="#8b2418" stroke-width="2" points="362.96,-246.37 353.81,-241.03 357.63,-250.91 362.96,-246.37"/>
</g>
<!-- n6&#45;&gt;n7 -->
<g id="edge6" class="edge">
<title>n6&#45;&gt;n7</title>
<path fill="none" stroke="#4a3f33" stroke-width="1.3" d="M295.02,-289.6C300.67,-278.02 308.23,-262.54 314.74,-249.22"/>
<polygon fill="#4a3f33" stroke="#4a3f33" stroke-width="1.3" points="317.78,-250.96 319.03,-240.44 311.49,-247.89 317.78,-250.96"/>
<text xml:space="preserve" text-anchor="middle" x="335.53" y="-260.5" font-family="Arial" font-size="10.00" fill="#8b2418"> ultimobeat </text>
</g>
<!-- n9 -->
<g id="node9" class="node">
<title>n9</title>
<path fill="#fbf6eb" stroke="#1a1612" stroke-width="1.5" d="M583.54,-150C583.54,-150 509.5,-150 509.5,-150 503.5,-150 497.5,-144 497.5,-138 497.5,-138 497.5,-126 497.5,-126 497.5,-120 503.5,-114 509.5,-114 509.5,-114 583.54,-114 583.54,-114 589.54,-114 595.54,-120 595.54,-126 595.54,-126 595.54,-138 595.54,-138 595.54,-144 589.54,-150 583.54,-150"/>
<text xml:space="preserve" text-anchor="middle" x="546.52" y="-128.3" font-family="Arial" font-size="11.00" fill="#1a1612">9 &#160;&#160;Arithmetic [&#45;]</text>
</g>
<!-- n7&#45;&gt;n9 -->
<g id="edge8" class="edge">
<title>n7&#45;&gt;n9</title>
<path fill="none" stroke="#4a3f33" stroke-width="1.3" d="M373.43,-201.29C407.43,-187.87 454.33,-169.37 490.74,-155.01"/>
<polygon fill="#4a3f33" stroke="#4a3f33" stroke-width="1.3" points="491.82,-158.34 499.84,-151.41 489.26,-151.83 491.82,-158.34"/>
<text xml:space="preserve" text-anchor="middle" x="476.07" y="-172.5" font-family="Arial" font-size="10.00" fill="#8b2418"> ultimobeat </text>
</g>
<!-- n11 -->
<g id="node11" class="node">
<title>n11</title>
<path fill="#b8843a" stroke="#1a1612" stroke-width="1.5" d="M287.41,-150C287.41,-150 179.62,-150 179.62,-150 173.62,-150 167.62,-144 167.62,-138 167.62,-138 167.62,-126 167.62,-126 167.62,-120 173.62,-114 179.62,-114 179.62,-114 287.41,-114 287.41,-114 293.41,-114 299.41,-120 299.41,-126 299.41,-126 299.41,-138 299.41,-138 299.41,-144 293.41,-150 287.41,-150"/>
<text xml:space="preserve" text-anchor="middle" x="233.52" y="-128.3" font-family="Arial" font-size="11.00" fill="#fbf6eb">11 &#160;&#160;ConditionalBranch</text>
</g>
<!-- n7&#45;&gt;n11 -->
<g id="edge7" class="edge">
<title>n7&#45;&gt;n11</title>
<path fill="none" stroke="#8b2418" stroke-width="2" d="M309.3,-201.6C295.86,-189.44 277.69,-172.99 262.51,-159.24"/>
<polygon fill="#8b2418" stroke="#8b2418" stroke-width="2" points="265.05,-156.82 255.29,-152.7 260.35,-162.01 265.05,-156.82"/>
</g>
<!-- n8 -->
<g id="node8" class="node">
<title>n8</title>
<path fill="#fbf6eb" stroke="#1a1612" stroke-width="1.5" d="M591.54,-238C591.54,-238 487.5,-238 487.5,-238 481.5,-238 475.5,-232 475.5,-226 475.5,-226 475.5,-214 475.5,-214 475.5,-208 481.5,-202 487.5,-202 487.5,-202 591.54,-202 591.54,-202 597.54,-202 603.54,-208 603.54,-214 603.54,-214 603.54,-226 603.54,-226 603.54,-232 597.54,-238 591.54,-238"/>
<text xml:space="preserve" text-anchor="middle" x="539.52" y="-216.3" font-family="Arial" font-size="11.00" fill="#1a1612">8 &#160;&#160;ReadRuntimeMillis</text>
</g>
<!-- n8&#45;&gt;n9 -->
<g id="edge9" class="edge">
<title>n8&#45;&gt;n9</title>
<path fill="none" stroke="#4a3f33" stroke-width="1.3" d="M540.94,-201.6C541.85,-190.36 543.06,-175.47 544.12,-162.43"/>
<polygon fill="#4a3f33" stroke="#4a3f33" stroke-width="1.3" points="547.6,-162.88 544.92,-152.63 540.62,-162.32 547.6,-162.88"/>
<text xml:space="preserve" text-anchor="middle" x="561.06" y="-172.5" font-family="Arial" font-size="10.00" fill="#8b2418"> time_1 </text>
</g>
<!-- n10 -->
<g id="node10" class="node">
<title>n10</title>
<path fill="#fbf6eb" stroke="#1a1612" stroke-width="1.5" d="M591.66,-62C591.66,-62 497.38,-62 497.38,-62 491.38,-62 485.38,-56 485.38,-50 485.38,-50 485.38,-38 485.38,-38 485.38,-32 491.38,-26 497.38,-26 497.38,-26 591.66,-26 591.66,-26 597.66,-26 603.66,-32 603.66,-38 603.66,-38 603.66,-50 603.66,-50 603.66,-56 597.66,-62 591.66,-62"/>
<text xml:space="preserve" text-anchor="middle" x="544.52" y="-40.3" font-family="Arial" font-size="11.00" fill="#1a1612">10 &#160;&#160;Comparison [&gt;]</text>
</g>
<!-- n9&#45;&gt;n10 -->
<g id="edge10" class="edge">
<title>n9&#45;&gt;n10</title>
<path fill="none" stroke="#4a3f33" stroke-width="1.3" d="M546.12,-113.6C545.85,-102.36 545.51,-87.47 545.2,-74.43"/>
<polygon fill="#4a3f33" stroke="#4a3f33" stroke-width="1.3" points="548.71,-74.56 544.98,-64.64 541.71,-74.72 548.71,-74.56"/>
<text xml:space="preserve" text-anchor="middle" x="559.14" y="-84.5" font-family="Arial" font-size="10.00" fill="#8b2418"> delta </text>
</g>
<!-- n12 -->
<g id="node12" class="node">
<title>n12</title>
<path fill="#fbf6eb" stroke="#1a1612" stroke-width="1.5" d="M259.16,-62C259.16,-62 179.88,-62 179.88,-62 173.88,-62 167.88,-56 167.88,-50 167.88,-50 167.88,-38 167.88,-38 167.88,-32 173.88,-26 179.88,-26 179.88,-26 259.16,-26 259.16,-26 265.16,-26 271.16,-32 271.16,-38 271.16,-38 271.16,-50 271.16,-50 271.16,-56 265.16,-62 259.16,-62"/>
<text xml:space="preserve" text-anchor="middle" x="219.52" y="-40.3" font-family="Arial" font-size="11.00" fill="#1a1612">12 &#160;&#160;PlayTone #1</text>
</g>
<!-- n11&#45;&gt;n12 -->
<g id="edge11" class="edge">
<title>n11&#45;&gt;n12</title>
<path fill="none" stroke="#8b2418" stroke-width="2" d="M230.69,-113.6C228.9,-102.6 226.53,-88.08 224.44,-75.24"/>
<polygon fill="#8b2418" stroke="#8b2418" stroke-width="2" points="227.94,-74.97 222.88,-65.66 221.04,-76.09 227.94,-74.97"/>
<text xml:space="preserve" text-anchor="middle" x="238.61" y="-84.5" font-family="Arial" font-size="10.00" fill="#8b2418"> true </text>
</g>
<!-- n14 -->
<g id="node14" class="node">
<title>n14</title>
<path fill="#8b2418" stroke="#1a1612" stroke-width="1.5" d="M441.29,-62C441.29,-62 365.75,-62 365.75,-62 359.75,-62 353.75,-56 353.75,-50 353.75,-50 353.75,-38 353.75,-38 353.75,-32 359.75,-26 365.75,-26 365.75,-26 441.29,-26 441.29,-26 447.29,-26 453.29,-32 453.29,-38 453.29,-38 453.29,-50 453.29,-50 453.29,-56 447.29,-62 441.29,-62"/>
<text xml:space="preserve" text-anchor="middle" x="403.52" y="-40.3" font-family="Arial" font-size="11.00" fill="#fbf6eb">14 &#160;&#160;SetVariable</text>
</g>
<!-- n11&#45;&gt;n14 -->
<g id="edge12" class="edge">
<title>n11&#45;&gt;n14</title>
<path fill="none" stroke="#8b2418" stroke-width="2" d="M268.33,-113.39C293.92,-100.45 328.95,-82.72 356.94,-68.56"/>
<polygon fill="#8b2418" stroke="#8b2418" stroke-width="2" points="358.42,-71.74 365.76,-64.1 355.26,-65.49 358.42,-71.74"/>
<text xml:space="preserve" text-anchor="middle" x="339.95" y="-84.5" font-family="Arial" font-size="10.00" fill="#8b2418"> true </text>
</g>
<!-- n12&#45;&gt;n12 -->
<g id="edge13" class="edge">
<title>n12&#45;&gt;n12</title>
<path fill="none" stroke="#5a6b3b" stroke-width="1.3" stroke-dasharray="5,2" d="M271.8,-52.25C289.22,-52.25 303.16,-49.5 303.16,-44 303.16,-39.83 295.16,-37.24 283.7,-36.23"/>
<polygon fill="#5a6b3b" stroke="#5a6b3b" stroke-width="1.3" points="283.9,-32.74 273.76,-35.83 283.61,-39.73 283.9,-32.74"/>
<text xml:space="preserve" text-anchor="middle" x="319.29" y="-40.5" font-family="Arial" font-size="10.00" fill="#5a6b3b"> sound </text>
</g>
<!-- n13 -->
<g id="node13" class="node">
<title>n13</title>
<path fill="#fbf6eb" stroke="#1a1612" stroke-width="1.5" d="M453.54,-150C453.54,-150 343.5,-150 343.5,-150 337.5,-150 331.5,-144 331.5,-138 331.5,-138 331.5,-126 331.5,-126 331.5,-120 337.5,-114 343.5,-114 343.5,-114 453.54,-114 453.54,-114 459.54,-114 465.54,-120 465.54,-126 465.54,-126 465.54,-138 465.54,-138 465.54,-144 459.54,-150 453.54,-150"/>
<text xml:space="preserve" text-anchor="middle" x="398.52" y="-128.3" font-family="Arial" font-size="11.00" fill="#1a1612">13 &#160;&#160;ReadRuntimeMillis</text>
</g>
<!-- n13&#45;&gt;n14 -->
<g id="edge14" class="edge">
<title>n13&#45;&gt;n14</title>
<path fill="none" stroke="#4a3f33" stroke-width="1.3" d="M399.53,-113.6C400.18,-102.36 401.05,-87.47 401.81,-74.43"/>
<polygon fill="#4a3f33" stroke="#4a3f33" stroke-width="1.3" points="405.29,-74.82 402.38,-64.64 398.3,-74.42 405.29,-74.82"/>
<text xml:space="preserve" text-anchor="middle" x="418.94" y="-84.5" font-family="Arial" font-size="10.00" fill="#8b2418"> time_1 </text>
</g>
</g>
</svg>
