<?xml version="1.0" encoding="UTF-8" standalone="no"?>
<!DOCTYPE svg PUBLIC "-//W3C//DTD SVG 1.1//EN"
 "http://www.w3.org/Graphics/SVG/1.1/DTD/svg11.dtd">
<!-- Generated by graphviz version 14.1.2 (0)
 -->
<!-- Title: PDG_Protobject Pages: 1 -->
<svg width="675pt" height="863pt"
 viewBox="0.00 0.00 675.00 863.00" xmlns="http://www.w3.org/2000/svg" xmlns:xlink="http://www.w3.org/1999/xlink">
<g id="graph0" class="graph" transform="scale(1 1) rotate(0) translate(21.6 841.6)">
<title>PDG_Protobject</title>
<polygon fill="#fbf6eb" stroke="none" points="-21.6,21.6 -21.6,-841.6 653.12,-841.6 653.12,21.6 -21.6,21.6"/>
<g id="clust1" class="cluster">
<title>cluster_loop</title>
<path fill="#fbf6eb" stroke="#8b2418" stroke-width="1.8" stroke-dasharray="5,2" d="M161.52,-8C161.52,-8 611.52,-8 611.52,-8 617.52,-8 623.52,-14 623.52,-20 623.52,-20 623.52,-800 623.52,-800 623.52,-806 617.52,-812 611.52,-812 611.52,-812 161.52,-812 161.52,-812 155.52,-812 149.52,-806 149.52,-800 149.52,-800 149.52,-20 149.52,-20 149.52,-14 155.52,-8 161.52,-8"/>
<text xml:space="preserve" text-anchor="start" x="183.39" y="-798.55" font-family="Arial" font-weight="bold" font-size="11.00">loop</text>
<text xml:space="preserve" text-anchor="start" x="157.52" y="-789.45" font-family="Arial" font-size="9.00" fill="#8b2418">alcance de control</text>
</g>
<!-- n1 -->
<g id="node1" class="node">
<title>n1</title>
<path fill="#34495e" stroke="#1a1612" stroke-width="1.5" d="M119.04,-238C119.04,-238 12,-238 12,-238 6,-238 0,-232 0,-226 0,-226 0,-214 0,-214 0,-208 6,-202 12,-202 12,-202 119.04,-202 119.04,-202 125.04,-202 131.04,-208 131.04,-214 131.04,-214 131.04,-226 131.04,-226 131.04,-232 125.04,-238 119.04,-238"/>
<text xml:space="preserve" text-anchor="middle" x="65.52" y="-216.3" font-family="Arial" font-size="11.00" fill="#fbf6eb">1 &#160;&#160;ProgramStartEvent</text>
</g>
<!-- n2 -->
<g id="node2" class="node">
<title>n2</title>
<path fill="#8b2418" stroke="#1a1612" stroke-width="1.5" d="M109.29,-150C109.29,-150 39.75,-150 39.75,-150 33.75,-150 27.75,-144 27.75,-138 27.75,-138 27.75,-126 27.75,-126 27.75,-120 33.75,-114 39.75,-114 39.75,-114 109.29,-114 109.29,-114 115.29,-114 121.29,-120 121.29,-126 121.29,-126 121.29,-138 121.29,-138 121.29,-144 115.29,-150 109.29,-150"/>
<text xml:space="preserve" text-anchor="middle" x="74.52" y="-128.3" font-family="Arial" font-size="11.00" fill="#fbf6eb">2 &#160;&#160;SetVariable</text>
</g>
<!-- n1&#45;&gt;n2 -->
<g id="edge1" class="edge">
<title>n1&#45;&gt;n2</title>
<path fill="none" stroke="#8b2418" stroke-width="2" d="M67.34,-201.6C68.49,-190.6 70.01,-176.08 71.36,-163.24"/>
<polygon fill="#8b2418" stroke="#8b2418" stroke-width="2" points="74.8,-163.99 72.36,-153.68 67.83,-163.26 74.8,-163.99"/>
</g>
<!-- n9 -->
<g id="node9" class="node">
<title>n9</title>
<path fill="#fbf6eb" stroke="#1a1612" stroke-width="1.5" d="M312.54,-62C312.54,-62 238.5,-62 238.5,-62 232.5,-62 226.5,-56 226.5,-50 226.5,-50 226.5,-38 226.5,-38 226.5,-32 232.5,-26 238.5,-26 238.5,-26 312.54,-26 312.54,-26 318.54,-26 324.54,-32 324.54,-38 324.54,-38 324.54,-50 324.54,-50 324.54,-56 318.54,-62 312.54,-62"/>
<text xml:space="preserve" text-anchor="middle" x="275.52" y="-40.3" font-family="Arial" font-size="11.00" fill="#1a1612">9 &#160;&#160;Arithmetic [&#45;]</text>
</g>
<!-- n2&#45;&gt;n9 -->
<g id="edge2" class="edge">
<title>n2&#45;&gt;n9</title>
<path fill="none" stroke="#4a3f33" stroke-width="1.3" d="M82.48,-113.49C88.22,-102.8 97,-89.73 108.52,-82 139.73,-61.05 180.9,-51.77 214.56,-47.75"/>
<polygon fill="#4a3f33" stroke="#4a3f33" stroke-width="1.3" points="214.58,-51.26 224.16,-46.74 213.85,-44.3 214.58,-51.26"/>
<text xml:space="preserve" text-anchor="middle" x="134.02" y="-84.5" font-family="Arial" font-size="10.00" fill="#8b2418"> ultimobeat </text>
</g>
<!-- n3 -->
<g id="node3" class="node">
<title>n3</title>
<path fill="#fbf6eb" stroke="#1a1612" stroke-width="1.5" d="M293.91,-766C293.91,-766 225.12,-766 225.12,-766 219.12,-766 213.12,-760 213.12,-754 213.12,-754 213.12,-742 213.12,-742 213.12,-736 219.12,-730 225.12,-730 225.12,-730 293.91,-730 293.91,-730 299.91,-730 305.91,-736 305.91,-742 305.91,-742 305.91,-754 305.91,-754 305.91,-760 299.91,-766 293.91,-766"/>
<text xml:space="preserve" text-anchor="middle" x="259.52" y="-744.3" font-family="Arial" font-size="11.00" fill="#1a1612">3 &#160;&#160;ReadTilt #1</text>
</g>
<!-- n4 -->
<g id="node4" class="node">
<title>n4</title>
<path fill="#fbf6eb" stroke="#1a1612" stroke-width="1.5" d="M298.04,-678C298.04,-678 221,-678 221,-678 215,-678 209,-672 209,-666 209,-666 209,-654 209,-654 209,-648 215,-642 221,-642 221,-642 298.04,-642 298.04,-642 304.04,-642 310.04,-648 310.04,-654 310.04,-654 310.04,-666 310.04,-666 310.04,-672 304.04,-678 298.04,-678"/>
<text xml:space="preserve" text-anchor="middle" x="259.52" y="-656.3" font-family="Arial" font-size="11.00" fill="#1a1612">4 &#160;&#160;Arithmetic [+]</text>
</g>
<!-- n3&#45;&gt;n4 -->
<g id="edge3" class="edge">
<title>n3&#45;&gt;n4</title>
<path fill="none" stroke="#4a3f33" stroke-width="1.3" d="M259.52,-729.6C259.52,-718.36 259.52,-703.47 259.52,-690.43"/>
<polygon fill="#4a3f33" stroke="#4a3f33" stroke-width="1.3" points="263.02,-690.64 259.52,-680.64 256.02,-690.64 263.02,-690.64"/>
<text xml:space="preserve" text-anchor="middle" x="273.02" y="-700.5" font-family="Arial" font-size="10.00" fill="#8b2418"> tilt_1 </text>
</g>
<!-- n5 -->
<g id="node5" class="node">
<title>n5</title>
<path fill="#8b2418" stroke="#1a1612" stroke-width="1.5" d="M294.29,-590C294.29,-590 224.75,-590 224.75,-590 218.75,-590 212.75,-584 212.75,-578 212.75,-578 212.75,-566 212.75,-566 212.75,-560 218.75,-554 224.75,-554 224.75,-554 294.29,-554 294.29,-554 300.29,-554 306.29,-560 306.29,-566 306.29,-566 306.29,-578 306.29,-578 306.29,-584 300.29,-590 294.29,-590"/>
<text xml:space="preserve" text-anchor="middle" x="259.52" y="-568.3" font-family="Arial" font-size="11.00" fill="#fbf6eb">5 &#160;&#160;SetVariable</text>
</g>
<!-- n4&#45;&gt;n5 -->
<g id="edge4" class="edge">
<title>n4&#45;&gt;n5</title>
<path fill="none" stroke="#4a3f33" stroke-width="1.3" d="M259.52,-641.6C259.52,-630.36 259.52,-615.47 259.52,-602.43"/>
<polygon fill="#4a3f33" stroke="#4a3f33" stroke-width="1.3" points="263.02,-602.64 259.52,-592.64 256.02,-602.64 263.02,-602.64"/>
<text xml:space="preserve" text-anchor="middle" x="271.89" y="-612.5" font-family="Arial" font-size="10.00" fill="#8b2418"> bpm </text>
</g>
<!-- n6 -->
<g id="node6" class="node">
<title>n6</title>
<path fill="#fbf6eb" stroke="#1a1612" stroke-width="1.5" d="M256.66,-502C256.66,-502 180.38,-502 180.38,-502 174.38,-502 168.38,-496 168.38,-490 168.38,-490 168.38,-478 168.38,-478 168.38,-472 174.38,-466 180.38,-466 180.38,-466 256.66,-466 256.66,-466 262.66,-466 268.66,-472 268.66,-478 268.66,-478 268.66,-490 268.66,-490 268.66,-496 262.66,-502 256.66,-502"/>
<text xml:space="preserve" text-anchor="middle" x="218.52" y="-480.3" font-family="Arial" font-size="11.00" fill="#1a1612">6 &#160;&#160;Arithmetic [÷]</text>
</g>
<!-- n5&#45;&gt;n6 -->
<g id="edge6" class="edge">
<title>n5&#45;&gt;n6</title>
<path fill="none" stroke="#4a3f33" stroke-width="1.3" d="M251.22,-553.6C245.7,-542.02 238.33,-526.54 231.97,-513.22"/>
<polygon fill="#4a3f33" stroke="#4a3f33" stroke-width="1.3" points="235.25,-511.97 227.79,-504.45 228.94,-514.98 235.25,-511.97"/>
<text xml:space="preserve" text-anchor="middle" x="253.85" y="-524.5" font-family="Arial" font-size="10.00" fill="#8b2418"> bpm </text>
</g>
<!-- n7 -->
<g id="node7" class="node">
<title>n7</title>
<path fill="#8b2418" stroke="#1a1612" stroke-width="1.5" d="M294.29,-414C294.29,-414 224.75,-414 224.75,-414 218.75,-414 212.75,-408 212.75,-402 212.75,-402 212.75,-390 212.75,-390 212.75,-384 218.75,-378 224.75,-378 224.75,-378 294.29,-378 294.29,-378 300.29,-378 306.29,-384 306.29,-390 306.29,-390 306.29,-402 306.29,-402 306.29,-408 300.29,-414 294.29,-414"/>
<text xml:space="preserve" text-anchor="middle" x="259.52" y="-392.3" font-family="Arial" font-size="11.00" fill="#fbf6eb">7 &#160;&#160;SetVariable</text>
</g>
<!-- n5&#45;&gt;n7 -->
<g id="edge5" class="edge">
<title>n5&#45;&gt;n7</title>
<path fill="none" stroke="#8b2418" stroke-width="2" d="M271.31,-553.66C287.74,-527.19 313.68,-475.43 296.52,-434 295.17,-430.73 293.37,-427.6 291.29,-424.64"/>
<polygon fill="#8b2418" stroke="#8b2418" stroke-width="2" points="293.96,-422.37 284.81,-417.03 288.63,-426.91 293.96,-422.37"/>
</g>
<!-- n6&#45;&gt;n7 -->
<g id="edge7" class="edge">
<title>n6&#45;&gt;n7</title>
<path fill="none" stroke="#4a3f33" stroke-width="1.3" d="M221.17,-465.62C223.07,-455.97 226.18,-443.95 231.02,-434 232.69,-430.57 234.7,-427.16 236.88,-423.87"/>
<polygon fill="#4a3f33" stroke="#4a3f33" stroke-width="1.3" points="239.51,-426.2 242.58,-416.06 233.86,-422.08 239.51,-426.2"/>
<text xml:space="preserve" text-anchor="middle" x="261.77" y="-436.5" font-family="Arial" font-size="10.00" fill="#8b2418"> intervalobeat </text>
</g>
<!-- n10 -->
<g id="node10" class="node">
<title>n10</title>
<path fill="#fbf6eb" stroke="#1a1612" stroke-width="1.5" d="M257.79,-326C257.79,-326 179.25,-326 179.25,-326 173.25,-326 167.25,-320 167.25,-314 167.25,-314 167.25,-302 167.25,-302 167.25,-296 173.25,-290 179.25,-290 179.25,-290 257.79,-290 257.79,-290 263.79,-290 269.79,-296 269.79,-302 269.79,-302 269.79,-314 269.79,-314 269.79,-320 263.79,-326 257.79,-326"/>
<text xml:space="preserve" text-anchor="middle" x="218.52" y="-304.3" font-family="Arial" font-size="11.00" fill="#1a1612">10 &#160;&#160;Comparison</text>
</g>
<!-- n7&#45;&gt;n10 -->
<g id="edge9" class="edge">
<title>n7&#45;&gt;n10</title>
<path fill="none" stroke="#4a3f33" stroke-width="1.3" d="M244.38,-377.42C239.9,-371.55 235.32,-364.76 232.02,-358 228.93,-351.68 226.46,-344.54 224.52,-337.71"/>
<polygon fill="#4a3f33" stroke="#4a3f33" stroke-width="1.3" points="227.97,-337.09 222.14,-328.25 221.19,-338.8 227.97,-337.09"/>
<text xml:space="preserve" text-anchor="middle" x="262.77" y="-348.5" font-family="Arial" font-size="10.00" fill="#8b2418"> intervalobeat </text>
</g>
<!-- n11 -->
<g id="node11" class="node">
<title>n11</title>
<path fill="#b8843a" stroke="#1a1612" stroke-width="1.5" d="M352.41,-238C352.41,-238 244.62,-238 244.62,-238 238.62,-238 232.62,-232 232.62,-226 232.62,-226 232.62,-214 232.62,-214 232.62,-208 238.62,-202 244.62,-202 244.62,-202 352.41,-202 352.41,-202 358.41,-202 364.41,-208 364.41,-214 364.41,-214 364.41,-226 364.41,-226 364.41,-232 358.41,-238 352.41,-238"/>
<text xml:space="preserve" text-anchor="middle" x="298.52" y="-216.3" font-family="Arial" font-size="11.00" fill="#fbf6eb">11 &#160;&#160;ConditionalBranch</text>
</g>
<!-- n7&#45;&gt;n11 -->
<g id="edge8" class="edge">
<title>n7&#45;&gt;n11</title>
<path fill="none" stroke="#8b2418" stroke-width="2" d="M283.43,-377.36C289.11,-371.85 294.41,-365.28 297.52,-358 312.11,-323.78 309.25,-280.23 304.81,-251.53"/>
<polygon fill="#8b2418" stroke="#8b2418" stroke-width="2" points="308.26,-250.97 303.09,-241.72 301.37,-252.18 308.26,-250.97"/>
</g>
<!-- n8 -->
<g id="node8" class="node">
<title>n8</title>
<path fill="#fbf6eb" stroke="#1a1612" stroke-width="1.5" d="M593.54,-150C593.54,-150 489.5,-150 489.5,-150 483.5,-150 477.5,-144 477.5,-138 477.5,-138 477.5,-126 477.5,-126 477.5,-120 483.5,-114 489.5,-114 489.5,-114 593.54,-114 593.54,-114 599.54,-114 605.54,-120 605.54,-126 605.54,-126 605.54,-138 605.54,-138 605.54,-144 599.54,-150 593.54,-150"/>
<text xml:space="preserve" text-anchor="middle" x="541.52" y="-128.3" font-family="Arial" font-size="11.00" fill="#1a1612">8 &#160;&#160;ReadRuntimeMillis</text>
</g>
<!-- n8&#45;&gt;n9 -->
<g id="edge10" class="edge">
<title>n8&#45;&gt;n9</title>
<path fill="none" stroke="#4a3f33" stroke-width="1.3" d="M492.81,-113.26C465.99,-103.67 432.04,-91.82 401.52,-82 380.37,-75.2 357.06,-68.21 336.31,-62.17"/>
<polygon fill="#4a3f33" stroke="#4a3f33" stroke-width="1.3" points="337.54,-58.88 326.96,-59.46 335.59,-65.61 337.54,-58.88"/>
<text xml:space="preserve" text-anchor="middle" x="453.91" y="-84.5" font-family="Arial" font-size="10.00" fill="#8b2418"> time_1 </text>
</g>
<!-- n9&#45;&gt;n10 -->
<g id="edge11" class="edge">
<title>n9&#45;&gt;n10</title>
<path fill="none" stroke="#4a3f33" stroke-width="1.3" d="M238.88,-62.55C219.17,-74.15 196.67,-91.4 185.52,-114 158.82,-168.1 185.01,-239.95 203.58,-278.94"/>
<polygon fill="#4a3f33" stroke="#4a3f33" stroke-width="1.3" points="200.35,-280.3 207.92,-287.71 206.62,-277.2 200.35,-280.3"/>
<text xml:space="preserve" text-anchor="middle" x="188.14" y="-172.5" font-family="Arial" font-size="10.00" fill="#8b2418"> delta </text>
</g>
<!-- n10&#45;&gt;n11 -->
<g id="edge12" class="edge">
<title>n10&#45;&gt;n11</title>
<path fill="none" stroke="#4a3f33" stroke-width="1.3" d="M234.71,-289.6C246.02,-277.44 261.32,-260.99 274.11,-247.24"/>
<polygon fill="#4a3f33" stroke="#4a3f33" stroke-width="1.3" points="276.49,-249.82 280.74,-240.11 271.37,-245.05 276.49,-249.82"/>
<text xml:space="preserve" text-anchor="middle" x="277.93" y="-260.5" font-family="Arial" font-size="10.00" fill="#8b2418"> value </text>
</g>
<!-- n12 -->
<g id="node12" class="node">
<title>n12</title>
<path fill="#fbf6eb" stroke="#1a1612" stroke-width="1.5" d="M301.66,-150C301.66,-150 213.38,-150 213.38,-150 207.38,-150 201.38,-144 201.38,-138 201.38,-138 201.38,-126 201.38,-126 201.38,-120 207.38,-114 213.38,-114 213.38,-114 301.66,-114 301.66,-114 307.66,-114 313.66,-120 313.66,-126 313.66,-126 313.66,-138 313.66,-138 313.66,-144 307.66,-150 301.66,-150"/>
<text xml:space="preserve" text-anchor="middle" x="257.52" y="-128.3" font-family="Arial" font-size="11.00" fill="#1a1612">12 &#160;&#160;EmitSound #1</text>
</g>
<!-- n11&#45;&gt;n12 -->
<g id="edge13" class="edge">
<title>n11&#45;&gt;n12</title>
<path fill="none" stroke="#8b2418" stroke-width="2" d="M290.22,-201.6C284.87,-190.36 277.77,-175.47 271.55,-162.43"/>
<polygon fill="#8b2418" stroke="#8b2418" stroke-width="2" points="274.71,-160.93 267.25,-153.41 268.39,-163.94 274.71,-160.93"/>
<text xml:space="preserve" text-anchor="middle" x="291.72" y="-172.5" font-family="Arial" font-size="10.00" fill="#8b2418"> true </text>
</g>
<!-- n14 -->
<g id="node14" class="node">
<title>n14</title>
<path fill="#8b2418" stroke="#1a1612" stroke-width="1.5" d="M433.29,-150C433.29,-150 357.75,-150 357.75,-150 351.75,-150 345.75,-144 345.75,-138 345.75,-138 345.75,-126 345.75,-126 345.75,-120 351.75,-114 357.75,-114 357.75,-114 433.29,-114 433.29,-114 439.29,-114 445.29,-120 445.29,-126 445.29,-126 445.29,-138 445.29,-138 445.29,-144 439.29,-150 433.29,-150"/>
<text xml:space="preserve" text-anchor="middle" x="395.52" y="-128.3" font-family="Arial" font-size="11.00" fill="#fbf6eb">14 &#160;&#160;SetVariable</text>
</g>
<!-- n11&#45;&gt;n14 -->
<g id="edge14" class="edge">
<title>n11&#45;&gt;n14</title>
<path fill="none" stroke="#8b2418" stroke-width="2" d="M318.15,-201.6C331.86,-189.44 350.42,-172.99 365.92,-159.24"/>
<polygon fill="#8b2418" stroke="#8b2418" stroke-width="2" points="368.16,-161.93 373.32,-152.68 363.52,-156.7 368.16,-161.93"/>
<text xml:space="preserve" text-anchor="middle" x="364.08" y="-172.5" font-family="Arial" font-size="10.00" fill="#8b2418"> true </text>
</g>
<!-- n13 -->
<g id="node13" class="node">
<title>n13</title>
<path fill="#fbf6eb" stroke="#1a1612" stroke-width="1.5" d="M518.54,-238C518.54,-238 408.5,-238 408.5,-238 402.5,-238 396.5,-232 396.5,-226 396.5,-226 396.5,-214 396.5,-214 396.5,-208 402.5,-202 408.5,-202 408.5,-202 518.54,-202 518.54,-202 524.54,-202 530.54,-208 530.54,-214 530.54,-214 530.54,-226 530.54,-226 530.54,-232 524.54,-238 518.54,-238"/>
<text xml:space="preserve" text-anchor="middle" x="463.52" y="-216.3" font-family="Arial" font-size="11.00" fill="#1a1612">13 &#160;&#160;ReadRuntimeMillis</text>
</g>
<!-- n13&#45;&gt;n14 -->
<g id="edge15" class="edge">
<title>n13&#45;&gt;n14</title>
<path fill="none" stroke="#4a3f33" stroke-width="1.3" d="M449.76,-201.6C440.33,-189.67 427.63,-173.61 416.89,-160.03"/>
<polygon fill="#4a3f33" stroke="#4a3f33" stroke-width="1.3" points="419.66,-157.89 410.71,-152.22 414.17,-162.23 419.66,-157.89"/>
<text xml:space="preserve" text-anchor="middle" x="451.22" y="-172.5" font-family="Arial" font-size="10.00" fill="#8b2418"> time_1 </text>
</g>
<!-- n14&#45;&gt;n9 -->
<g id="edge16" class="edge">
<title>n14&#45;&gt;n9</title>
<path fill="none" stroke="#4a3f33" stroke-width="1.3" d="M370.95,-113.39C353.23,-100.69 329.1,-83.4 309.53,-69.38"/>
<polygon fill="#4a3f33" stroke="#4a3f33" stroke-width="1.3" points="311.83,-66.71 301.66,-63.73 307.75,-72.4 311.83,-66.71"/>
<text xml:space="preserve" text-anchor="middle" x="368.2" y="-84.5" font-family="Arial" font-size="10.00" fill="#8b2418"> ultimobeat </text>
</g>
</g>
</svg>
