<?xml version="1.0" encoding="UTF-8" standalone="no"?>
<!DOCTYPE svg PUBLIC "-//W3C//DTD SVG 1.1//EN"
 "http://www.w3.org/Graphics/SVG/1.1/DTD/svg11.dtd">
<!-- Generated by graphviz version 14.1.2 (0)
 -->
<!-- Title: PDG_Protobject Pages: 1 -->
<svg width="812pt" height="852pt"
 viewBox="0.00 0.00 812.00 852.00" xmlns="http://www.w3.org/2000/svg" xmlns:xlink="http://www.w3.org/1999/xlink">
<g id="graph0" class="graph" transform="scale(1 1) rotate(0) translate(21.6 830.6)">
<title>PDG_Protobject</title>
<polygon fill="#fbf6eb" stroke="none" points="-21.6,21.6 -21.6,-830.6 790.12,-830.6 790.12,21.6 -21.6,21.6"/>
<g id="clust1" class="cluster">
<title>cluster_loop</title>
<path fill="#fbf6eb" stroke="#8b2418" stroke-width="1.8" stroke-dasharray="5,2" d="M161.52,-8C161.52,-8 748.52,-8 748.52,-8 754.52,-8 760.52,-14 760.52,-20 760.52,-20 760.52,-789 760.52,-789 760.52,-795 754.52,-801 748.52,-801 748.52,-801 161.52,-801 161.52,-801 155.52,-801 149.52,-795 149.52,-789 149.52,-789 149.52,-20 149.52,-20 149.52,-14 155.52,-8 161.52,-8"/>
<text xml:space="preserve" text-anchor="start" x="183.39" y="-787.55" font-family="Arial" font-weight="bold" font-size="11.00">loop</text>
<text xml:space="preserve" text-anchor="start" x="157.52" y="-778.45" font-family="Arial" font-size="9.00" fill="#8b2418">alcance de control</text>
</g>
<!-- n1 -->
<g id="node1" class="node">
<title>n1</title>
<path fill="#34495e" stroke="#1a1612" stroke-width="1.5" d="M119.04,-326C119.04,-326 12,-326 12,-326 6,-326 0,-320 0,-314 0,-314 0,-302 0,-302 0,-296 6,-290 12,-290 12,-290 119.04,-290 119.04,-290 125.04,-290 131.04,-296 131.04,-302 131.04,-302 131.04,-314 131.04,-314 131.04,-320 125.04,-326 119.04,-326"/>
<text xml:space="preserve" text-anchor="middle" x="65.52" y="-304.3" font-family="Arial" font-size="11.00" fill="#fbf6eb">1 &#160;&#160;ProgramStartEvent</text>
</g>
<!-- n2 -->
<g id="node2" class="node">
<title>n2</title>
<path fill="#8b2418" stroke="#1a1612" stroke-width="1.5" d="M109.29,-238C109.29,-238 39.75,-238 39.75,-238 33.75,-238 27.75,-232 27.75,-226 27.75,-226 27.75,-214 27.75,-214 27.75,-208 33.75,-202 39.75,-202 39.75,-202 109.29,-202 109.29,-202 115.29,-202 121.29,-208 121.29,-214 121.29,-214 121.29,-226 121.29,-226 121.29,-232 115.29,-238 109.29,-238"/>
<text xml:space="preserve" text-anchor="middle" x="74.52" y="-216.3" font-family="Arial" font-size="11.00" fill="#fbf6eb">2 &#160;&#160;SetVariable</text>
</g>
<!-- n1&#45;&gt;n2 -->
<g id="edge1" class="edge">
<title>n1&#45;&gt;n2</title>
<path fill="none" stroke="#8b2418" stroke-width="2" d="M67.34,-289.6C68.49,-278.6 70.01,-264.08 71.36,-251.24"/>
<polygon fill="#8b2418" stroke="#8b2418" stroke-width="2" points="74.8,-251.99 72.36,-241.68 67.83,-251.26 74.8,-251.99"/>
</g>
<!-- n9 -->
<g id="node9" class="node">
<title>n9</title>
<path fill="#fbf6eb" stroke="#1a1612" stroke-width="1.5" d="M395.54,-150C395.54,-150 321.5,-150 321.5,-150 315.5,-150 309.5,-144 309.5,-138 309.5,-138 309.5,-126 309.5,-126 309.5,-120 315.5,-114 321.5,-114 321.5,-114 395.54,-114 395.54,-114 401.54,-114 407.54,-120 407.54,-126 407.54,-126 407.54,-138 407.54,-138 407.54,-144 401.54,-150 395.54,-150"/>
<text xml:space="preserve" text-anchor="middle" x="358.52" y="-128.3" font-family="Arial" font-size="11.00" fill="#1a1612">9 &#160;&#160;Arithmetic [&#45;]</text>
</g>
<!-- n2&#45;&gt;n9 -->
<g id="edge2" class="edge">
<title>n2&#45;&gt;n9</title>
<path fill="none" stroke="#4a3f33" stroke-width="1.3" d="M121.74,-204.7C169.93,-190.11 244.94,-167.39 297.59,-151.45"/>
<polygon fill="#4a3f33" stroke="#4a3f33" stroke-width="1.3" points="298.36,-154.87 306.92,-148.63 296.33,-148.17 298.36,-154.87"/>
<text xml:space="preserve" text-anchor="middle" x="259.02" y="-172.5" font-family="Arial" font-size="10.00" fill="#8b2418"> ultimobeat </text>
</g>
<!-- n3 -->
<g id="node3" class="node">
<title>n3</title>
<path fill="#fbf6eb" stroke="#1a1612" stroke-width="1.5" d="M293.91,-755C293.91,-755 225.12,-755 225.12,-755 219.12,-755 213.12,-749 213.12,-743 213.12,-743 213.12,-731 213.12,-731 213.12,-725 219.12,-719 225.12,-719 225.12,-719 293.91,-719 293.91,-719 299.91,-719 305.91,-725 305.91,-731 305.91,-731 305.91,-743 305.91,-743 305.91,-749 299.91,-755 293.91,-755"/>
<text xml:space="preserve" text-anchor="middle" x="259.52" y="-733.3" font-family="Arial" font-size="11.00" fill="#1a1612">3 &#160;&#160;ReadTilt #1</text>
</g>
<!-- n4 -->
<g id="node4" class="node">
<title>n4</title>
<path fill="#fbf6eb" stroke="#1a1612" stroke-width="1.5" d="M298.04,-667C298.04,-667 221,-667 221,-667 215,-667 209,-661 209,-655 209,-655 209,-643 209,-643 209,-637 215,-631 221,-631 221,-631 298.04,-631 298.04,-631 304.04,-631 310.04,-637 310.04,-643 310.04,-643 310.04,-655 310.04,-655 310.04,-661 304.04,-667 298.04,-667"/>
<text xml:space="preserve" text-anchor="middle" x="259.52" y="-645.3" font-family="Arial" font-size="11.00" fill="#1a1612">4 &#160;&#160;Arithmetic [+]</text>
</g>
<!-- n3&#45;&gt;n4 -->
<g id="edge3" class="edge">
<title>n3&#45;&gt;n4</title>
<path fill="none" stroke="#4a3f33" stroke-width="1.3" d="M259.52,-718.6C259.52,-707.36 259.52,-692.47 259.52,-679.43"/>
<polygon fill="#4a3f33" stroke="#4a3f33" stroke-width="1.3" points="263.02,-679.64 259.52,-669.64 256.02,-679.64 263.02,-679.64"/>
<text xml:space="preserve" text-anchor="middle" x="273.02" y="-689.5" font-family="Arial" font-size="10.00" fill="#8b2418"> tilt_1 </text>
</g>
<!-- n5 -->
<g id="node5" class="node">
<title>n5</title>
<path fill="#8b2418" stroke="#1a1612" stroke-width="1.5" d="M294.29,-579C294.29,-579 224.75,-579 224.75,-579 218.75,-579 212.75,-573 212.75,-567 212.75,-567 212.75,-555 212.75,-555 212.75,-549 218.75,-543 224.75,-543 224.75,-543 294.29,-543 294.29,-543 300.29,-543 306.29,-549 306.29,-555 306.29,-555 306.29,-567 306.29,-567 306.29,-573 300.29,-579 294.29,-579"/>
<text xml:space="preserve" text-anchor="middle" x="259.52" y="-557.3" font-family="Arial" font-size="11.00" fill="#fbf6eb">5 &#160;&#160;SetVariable</text>
</g>
<!-- n4&#45;&gt;n5 -->
<g id="edge4" class="edge">
<title>n4&#45;&gt;n5</title>
<path fill="none" stroke="#4a3f33" stroke-width="1.3" d="M259.52,-630.6C259.52,-619.36 259.52,-604.47 259.52,-591.43"/>
<polygon fill="#4a3f33" stroke="#4a3f33" stroke-width="1.3" points="263.02,-591.64 259.52,-581.64 256.02,-591.64 263.02,-591.64"/>
<text xml:space="preserve" text-anchor="middle" x="271.89" y="-601.5" font-family="Arial" font-size="10.00" fill="#8b2418"> bpm </text>
</g>
<!-- n6 -->
<g id="node6" class="node">
<title>n6</title>
<path fill="#fbf6eb" stroke="#1a1612" stroke-width="1.5" d="M276.66,-491C276.66,-491 200.38,-491 200.38,-491 194.38,-491 188.38,-485 188.38,-479 188.38,-479 188.38,-467 188.38,-467 188.38,-461 194.38,-455 200.38,-455 200.38,-455 276.66,-455 276.66,-455 282.66,-455 288.66,-461 288.66,-467 288.66,-467 288.66,-479 288.66,-479 288.66,-485 282.66,-491 276.66,-491"/>
<text xml:space="preserve" text-anchor="middle" x="238.52" y="-469.3" font-family="Arial" font-size="11.00" fill="#1a1612">6 &#160;&#160;Arithmetic [÷]</text>
</g>
<!-- n5&#45;&gt;n6 -->
<g id="edge6" class="edge">
<title>n5&#45;&gt;n6</title>
<path fill="none" stroke="#4a3f33" stroke-width="1.3" d="M255.27,-542.6C252.5,-531.25 248.81,-516.16 245.61,-503.02"/>
<polygon fill="#4a3f33" stroke="#4a3f33" stroke-width="1.3" points="249.07,-502.47 243.3,-493.58 242.27,-504.13 249.07,-502.47"/>
<text xml:space="preserve" text-anchor="middle" x="262.65" y="-513.5" font-family="Arial" font-size="10.00" fill="#8b2418"> bpm </text>
</g>
<!-- n7 -->
<g id="node7" class="node">
<title>n7</title>
<path fill="#8b2418" stroke="#1a1612" stroke-width="1.5" d="M321.29,-403C321.29,-403 251.75,-403 251.75,-403 245.75,-403 239.75,-397 239.75,-391 239.75,-391 239.75,-379 239.75,-379 239.75,-373 245.75,-367 251.75,-367 251.75,-367 321.29,-367 321.29,-367 327.29,-367 333.29,-373 333.29,-379 333.29,-379 333.29,-391 333.29,-391 333.29,-397 327.29,-403 321.29,-403"/>
<text xml:space="preserve" text-anchor="middle" x="286.52" y="-381.3" font-family="Arial" font-size="11.00" fill="#fbf6eb">7 &#160;&#160;SetVariable</text>
</g>
<!-- n5&#45;&gt;n7 -->
<g id="edge5" class="edge">
<title>n5&#45;&gt;n7</title>
<path fill="none" stroke="#8b2418" stroke-width="2" d="M273.7,-542.29C283.72,-528.93 296.71,-509.75 304.52,-491 314.3,-467.5 313.84,-460.31 316.52,-435 317.08,-429.7 318.3,-428.03 316.52,-423 315.43,-419.93 313.97,-416.93 312.27,-414.05"/>
<polygon fill="#8b2418" stroke="#8b2418" stroke-width="2" points="315.27,-412.23 306.62,-406.11 309.57,-416.29 315.27,-412.23"/>
</g>
<!-- n6&#45;&gt;n7 -->
<g id="edge7" class="edge">
<title>n6&#45;&gt;n7</title>
<path fill="none" stroke="#4a3f33" stroke-width="1.3" d="M240.76,-454.41C242.53,-444.69 245.65,-432.67 251.02,-423 253.03,-419.39 255.47,-415.87 258.13,-412.53"/>
<polygon fill="#4a3f33" stroke="#4a3f33" stroke-width="1.3" points="260.68,-414.94 264.7,-405.13 255.44,-410.29 260.68,-414.94"/>
<text xml:space="preserve" text-anchor="middle" x="281.77" y="-425.5" font-family="Arial" font-size="10.00" fill="#8b2418"> intervalobeat </text>
</g>
<!-- n10 -->
<g id="node10" class="node">
<title>n10</title>
<path fill="#fbf6eb" stroke="#1a1612" stroke-width="1.5" d="M309.66,-62C309.66,-62 215.38,-62 215.38,-62 209.38,-62 203.38,-56 203.38,-50 203.38,-50 203.38,-38 203.38,-38 203.38,-32 209.38,-26 215.38,-26 215.38,-26 309.66,-26 309.66,-26 315.66,-26 321.66,-32 321.66,-38 321.66,-38 321.66,-50 321.66,-50 321.66,-56 315.66,-62 309.66,-62"/>
<text xml:space="preserve" text-anchor="middle" x="262.52" y="-40.3" font-family="Arial" font-size="11.00" fill="#1a1612">10 &#160;&#160;Comparison [&gt;]</text>
</g>
<!-- n7&#45;&gt;n10 -->
<g id="edge9" class="edge">
<title>n7&#45;&gt;n10</title>
<path fill="none" stroke="#4a3f33" stroke-width="1.3" d="M244.29,-366.36C222.13,-354.01 199.52,-335.02 199.52,-309 199.52,-309 199.52,-309 199.52,-131 199.52,-107.58 214.92,-86.29 230.49,-70.76"/>
<polygon fill="#4a3f33" stroke="#4a3f33" stroke-width="1.3" points="232.71,-73.47 237.62,-64.09 227.93,-68.36 232.71,-73.47"/>
<text xml:space="preserve" text-anchor="middle" x="230.27" y="-216.5" font-family="Arial" font-size="10.00" fill="#8b2418"> intervalobeat </text>
</g>
<!-- n11 -->
<g id="node11" class="node">
<title>n11</title>
<path fill="#b8843a" stroke="#1a1612" stroke-width="1.5" d="M400.41,-326C400.41,-326 292.62,-326 292.62,-326 286.62,-326 280.62,-320 280.62,-314 280.62,-314 280.62,-302 280.62,-302 280.62,-296 286.62,-290 292.62,-290 292.62,-290 400.41,-290 400.41,-290 406.41,-290 412.41,-296 412.41,-302 412.41,-302 412.41,-314 412.41,-314 412.41,-320 406.41,-326 400.41,-326"/>
<text xml:space="preserve" text-anchor="middle" x="346.52" y="-304.3" font-family="Arial" font-size="11.00" fill="#fbf6eb">11 &#160;&#160;ConditionalBranch</text>
</g>
<!-- n7&#45;&gt;n11 -->
<g id="edge8" class="edge">
<title>n7&#45;&gt;n11</title>
<path fill="none" stroke="#8b2418" stroke-width="2" d="M300.44,-366.6C307.58,-357.68 316.45,-346.59 324.49,-336.53"/>
<polygon fill="#8b2418" stroke="#8b2418" stroke-width="2" points="327.07,-338.92 330.58,-328.92 321.6,-334.55 327.07,-338.92"/>
</g>
<!-- n8 -->
<g id="node8" class="node">
<title>n8</title>
<path fill="#fbf6eb" stroke="#1a1612" stroke-width="1.5" d="M730.54,-238C730.54,-238 626.5,-238 626.5,-238 620.5,-238 614.5,-232 614.5,-226 614.5,-226 614.5,-214 614.5,-214 614.5,-208 620.5,-202 626.5,-202 626.5,-202 730.54,-202 730.54,-202 736.54,-202 742.54,-208 742.54,-214 742.54,-214 742.54,-226 742.54,-226 742.54,-232 736.54,-238 730.54,-238"/>
<text xml:space="preserve" text-anchor="middle" x="678.52" y="-216.3" font-family="Arial" font-size="11.00" fill="#1a1612">8 &#160;&#160;ReadRuntimeMillis</text>
</g>
<!-- n8&#45;&gt;n9 -->
<g id="edge10" class="edge">
<title>n8&#45;&gt;n9</title>
<path fill="none" stroke="#4a3f33" stroke-width="1.3" d="M622.2,-201.3C590.66,-191.61 550.54,-179.65 514.52,-170 483.44,-161.68 448.63,-153.33 419.79,-146.67"/>
<polygon fill="#4a3f33" stroke="#4a3f33" stroke-width="1.3" points="420.68,-143.29 410.15,-144.46 419.12,-150.11 420.68,-143.29"/>
<text xml:space="preserve" text-anchor="middle" x="572.85" y="-172.5" font-family="Arial" font-size="10.00" fill="#8b2418"> time_1 </text>
</g>
<!-- n9&#45;&gt;n10 -->
<g id="edge11" class="edge">
<title>n9&#45;&gt;n10</title>
<path fill="none" stroke="#4a3f33" stroke-width="1.3" d="M339.09,-113.6C325.26,-101.21 306.45,-84.36 290.94,-70.46"/>
<polygon fill="#4a3f33" stroke="#4a3f33" stroke-width="1.3" points="293.5,-68.05 283.71,-63.99 288.83,-73.27 293.5,-68.05"/>
<text xml:space="preserve" text-anchor="middle" x="329.77" y="-84.5" font-family="Arial" font-size="10.00" fill="#8b2418"> delta </text>
</g>
<!-- n12 -->
<g id="node12" class="node">
<title>n12</title>
<path fill="#fbf6eb" stroke="#1a1612" stroke-width="1.5" d="M388.04,-238C388.04,-238 305,-238 305,-238 299,-238 293,-232 293,-226 293,-226 293,-214 293,-214 293,-208 299,-202 305,-202 305,-202 388.04,-202 388.04,-202 394.04,-202 400.04,-208 400.04,-214 400.04,-214 400.04,-226 400.04,-226 400.04,-232 394.04,-238 388.04,-238"/>
<text xml:space="preserve" text-anchor="middle" x="346.52" y="-216.3" font-family="Arial" font-size="11.00" fill="#1a1612">12 &#160;&#160;PlayDrum #1</text>
</g>
<!-- n11&#45;&gt;n12 -->
<g id="edge12" class="edge">
<title>n11&#45;&gt;n12</title>
<path fill="none" stroke="#8b2418" stroke-width="2" d="M346.52,-289.6C346.52,-278.71 346.52,-264.39 346.52,-251.64"/>
<polygon fill="#8b2418" stroke="#8b2418" stroke-width="2" points="350.02,-251.7 346.52,-241.7 343.02,-251.7 350.02,-251.7"/>
<text xml:space="preserve" text-anchor="middle" x="357.77" y="-260.5" font-family="Arial" font-size="10.00" fill="#8b2418"> true </text>
</g>
<!-- n14 -->
<g id="node14" class="node">
<title>n14</title>
<path fill="#8b2418" stroke="#1a1612" stroke-width="1.5" d="M570.29,-238C570.29,-238 494.75,-238 494.75,-238 488.75,-238 482.75,-232 482.75,-226 482.75,-226 482.75,-214 482.75,-214 482.75,-208 488.75,-202 494.75,-202 494.75,-202 570.29,-202 570.29,-202 576.29,-202 582.29,-208 582.29,-214 582.29,-214 582.29,-226 582.29,-226 582.29,-232 576.29,-238 570.29,-238"/>
<text xml:space="preserve" text-anchor="middle" x="532.52" y="-216.3" font-family="Arial" font-size="11.00" fill="#fbf6eb">14 &#160;&#160;SetVariable</text>
</g>
<!-- n11&#45;&gt;n14 -->
<g id="edge13" class="edge">
<title>n11&#45;&gt;n14</title>
<path fill="none" stroke="#8b2418" stroke-width="2" d="M384.61,-289.39C412.85,-276.33 451.62,-258.41 482.38,-244.18"/>
<polygon fill="#8b2418" stroke="#8b2418" stroke-width="2" points="483.81,-247.38 491.42,-240.01 480.87,-241.03 483.81,-247.38"/>
<text xml:space="preserve" text-anchor="middle" x="461.91" y="-260.5" font-family="Arial" font-size="10.00" fill="#8b2418"> true </text>
</g>
<!-- n12&#45;&gt;n12 -->
<g id="edge14" class="edge">
<title>n12&#45;&gt;n12</title>
<path fill="none" stroke="#5a6b3b" stroke-width="1.3" stroke-dasharray="5,2" d="M400.39,-228.25C418.01,-228.21 432.04,-225.46 432.04,-220 432.04,-215.82 423.81,-213.23 412.05,-212.23"/>
<polygon fill="#5a6b3b" stroke="#5a6b3b" stroke-width="1.3" points="412.49,-208.74 402.35,-211.83 412.2,-215.74 412.49,-208.74"/>
<text xml:space="preserve" text-anchor="middle" x="448.16" y="-216.5" font-family="Arial" font-size="10.00" fill="#5a6b3b"> sound </text>
</g>
<!-- n13 -->
<g id="node13" class="node">
<title>n13</title>
<path fill="#fbf6eb" stroke="#1a1612" stroke-width="1.5" d="M587.54,-326C587.54,-326 477.5,-326 477.5,-326 471.5,-326 465.5,-320 465.5,-314 465.5,-314 465.5,-302 465.5,-302 465.5,-296 471.5,-290 477.5,-290 477.5,-290 587.54,-290 587.54,-290 593.54,-290 599.54,-296 599.54,-302 599.54,-302 599.54,-314 599.54,-314 599.54,-320 593.54,-326 587.54,-326"/>
<text xml:space="preserve" text-anchor="middle" x="532.52" y="-304.3" font-family="Arial" font-size="11.00" fill="#1a1612">13 &#160;&#160;ReadRuntimeMillis</text>
</g>
<!-- n13&#45;&gt;n14 -->
<g id="edge15" class="edge">
<title>n13&#45;&gt;n14</title>
<path fill="none" stroke="#4a3f33" stroke-width="1.3" d="M532.52,-289.6C532.52,-278.36 532.52,-263.47 532.52,-250.43"/>
<polygon fill="#4a3f33" stroke="#4a3f33" stroke-width="1.3" points="536.02,-250.64 532.52,-240.64 529.02,-250.64 536.02,-250.64"/>
<text xml:space="preserve" text-anchor="middle" x="550.14" y="-260.5" font-family="Arial" font-size="10.00" fill="#8b2418"> time_1 </text>
</g>
<!-- n14&#45;&gt;n9 -->
<g id="edge16" class="edge">
<title>n14&#45;&gt;n9</title>
<path fill="none" stroke="#4a3f33" stroke-width="1.3" d="M496.89,-201.39C470.35,-188.27 433.88,-170.25 405.04,-155.99"/>
<polygon fill="#4a3f33" stroke="#4a3f33" stroke-width="1.3" points="406.68,-152.9 396.17,-151.61 403.58,-159.18 406.68,-152.9"/>
<text xml:space="preserve" text-anchor="middle" x="481.44" y="-172.5" font-family="Arial" font-size="10.00" fill="#8b2418"> ultimobeat </text>
</g>
</g>
</svg>
