<?xml version="1.0" encoding="UTF-8" standalone="no"?>
<!DOCTYPE svg PUBLIC "-//W3C//DTD SVG 1.1//EN"
 "http://www.w3.org/Graphics/SVG/1.1/DTD/svg11.dtd">
<!-- Generated by graphviz version 14.1.2 (0)
 -->
<!-- Title: PDG_Protobject Pages: 1 -->
<svg width="241pt" height="335pt"
 viewBox="0.00 0.00 241.00 335.00" xmlns="http://www.w3.org/2000/svg" xmlns:xlink="http://www.w3.org/1999/xlink">
<g id="graph0" class="graph" transform="scale(1 1) rotate(0) translate(21.6 313.6)">
<title>PDG_Protobject</title>
<polygon fill="#fbf6eb" stroke="none" points="-21.6,21.6 -21.6,-313.6 219.6,-313.6 219.6,21.6 -21.6,21.6"/>
<g id="clust1" class="cluster">
<title>cluster_loop</title>
<path fill="#fbf6eb" stroke="#8b2418" stroke-width="1.8" stroke-dasharray="5,2" d="M20,-8C20,-8 178,-8 178,-8 184,-8 190,-14 190,-20 190,-20 190,-272 190,-272 190,-278 184,-284 178,-284 178,-284 20,-284 20,-284 14,-284 8,-278 8,-272 8,-272 8,-20 8,-20 8,-14 14,-8 20,-8"/>
<text xml:space="preserve" text-anchor="start" x="41.88" y="-270.55" font-family="Arial" font-weight="bold" font-size="11.00">loop</text>
<text xml:space="preserve" text-anchor="start" x="16" y="-261.45" font-family="Arial" font-size="9.00" fill="#8b2418">alcance de control</text>
</g>
<!-- n1 -->
<g id="node1" class="node">
<title>n1</title>
<path fill="#fbf6eb" stroke="#1a1612" stroke-width="1.5" d="M155.14,-238C155.14,-238 42.86,-238 42.86,-238 36.86,-238 30.86,-232 30.86,-226 30.86,-226 30.86,-214 30.86,-214 30.86,-208 36.86,-202 42.86,-202 42.86,-202 155.14,-202 155.14,-202 161.14,-202 167.14,-208 167.14,-214 167.14,-214 167.14,-226 167.14,-226 167.14,-232 161.14,-238 155.14,-238"/>
<text xml:space="preserve" text-anchor="middle" x="99" y="-216.3" font-family="Arial" font-size="11.00" fill="#1a1612">1 &#160;&#160;ReadSoundLevel #1</text>
</g>
<!-- n2 -->
<g id="node2" class="node">
<title>n2</title>
<path fill="#fbf6eb" stroke="#1a1612" stroke-width="1.5" d="M149.15,-150C149.15,-150 48.85,-150 48.85,-150 42.85,-150 36.85,-144 36.85,-138 36.85,-138 36.85,-126 36.85,-126 36.85,-120 42.85,-114 48.85,-114 48.85,-114 149.15,-114 149.15,-114 155.15,-114 161.15,-120 161.15,-126 161.15,-126 161.15,-138 161.15,-138 161.15,-144 155.15,-150 149.15,-150"/>
<text xml:space="preserve" text-anchor="middle" x="99" y="-128.3" font-family="Arial" font-size="11.00" fill="#1a1612">2 &#160;&#160;NoiseToColour #1</text>
</g>
<!-- n1&#45;&gt;n2 -->
<g id="edge1" class="edge">
<title>n1&#45;&gt;n2</title>
<path fill="none" stroke="#4a3f33" stroke-width="1.3" d="M99,-201.6C99,-190.36 99,-175.47 99,-162.43"/>
<polygon fill="#4a3f33" stroke="#4a3f33" stroke-width="1.3" points="102.5,-162.64 99,-152.64 95.5,-162.64 102.5,-162.64"/>
<text xml:space="preserve" text-anchor="middle" x="120.38" y="-172.5" font-family="Arial" font-size="10.00" fill="#8b2418"> sound_1 </text>
</g>
<!-- n3 -->
<g id="node3" class="node">
<title>n3</title>
<path fill="#fbf6eb" stroke="#1a1612" stroke-width="1.5" d="M159.64,-62C159.64,-62 38.36,-62 38.36,-62 32.36,-62 26.36,-56 26.36,-50 26.36,-50 26.36,-38 26.36,-38 26.36,-32 32.36,-26 38.36,-26 38.36,-26 159.64,-26 159.64,-26 165.64,-26 171.64,-32 171.64,-38 171.64,-38 171.64,-50 171.64,-50 171.64,-56 165.64,-62 159.64,-62"/>
<text xml:space="preserve" text-anchor="middle" x="99" y="-40.3" font-family="Arial" font-size="11.00" fill="#1a1612">3 &#160;&#160;DisplaySoundLevel #1</text>
</g>
<!-- n2&#45;&gt;n3 -->
<g id="edge2" class="edge">
<title>n2&#45;&gt;n3</title>
<path fill="none" stroke="#4a3f33" stroke-width="1.3" d="M99,-113.6C99,-102.36 99,-87.47 99,-74.43"/>
<polygon fill="#4a3f33" stroke="#4a3f33" stroke-width="1.3" points="102.5,-74.64 99,-64.64 95.5,-74.64 102.5,-74.64"/>
<text xml:space="preserve" text-anchor="middle" x="115.12" y="-84.5" font-family="Arial" font-size="10.00" fill="#8b2418"> colour </text>
</g>
</g>
</svg>
