<?xml version="1.0" encoding="UTF-8" standalone="no"?>
<!DOCTYPE svg PUBLIC "-//W3C//DTD SVG 1.1//EN"
 "http://www.w3.org/Graphics/SVG/1.1/DTD/svg11.dtd">
<!-- Generated by graphviz version 14.1.2 (0)
 -->
<!-- Title: PDG_Protobject Pages: 1 -->
<svg width="341pt" height="335pt"
 viewBox="0.00 0.00 341.00 335.00" xmlns="http://www.w3.org/2000/svg" xmlns:xlink="http://www.w3.org/1999/xlink">
<g id="graph0" class="graph" transform="scale(1 1) rotate(0) translate(21.6 313.6)">
<title>PDG_Protobject</title>
<polygon fill="#fbf6eb" stroke="none" points="-21.6,21.6 -21.6,-313.6 319.6,-313.6 319.6,21.6 -21.6,21.6"/>
<g id="clust1" class="cluster">
<title>cluster_loop</title>
<path fill="#fbf6eb" stroke="#8b2418" stroke-width="1.8" stroke-dasharray="5,2" d="M20,-8C20,-8 278,-8 278,-8 284,-8 290,-14 290,-20 290,-20 290,-272 290,-272 290,-278 284,-284 278,-284 278,-284 20,-284 20,-284 14,-284 8,-278 8,-272 8,-272 8,-20 8,-20 8,-14 14,-8 20,-8"/>
<text xml:space="preserve" text-anchor="start" x="41.88" y="-270.55" font-family="Arial" font-weight="bold" font-size="11.00">loop</text>
<text xml:space="preserve" text-anchor="start" x="16" y="-261.45" font-family="Arial" font-size="9.00" fill="#8b2418">alcance de control</text>
</g>
<!-- n1 -->
<g id="node1" class="node">
<title>n1</title>
<path fill="#fbf6eb" stroke="#1a1612" stroke-width="1.5" d="M128.27,-150C128.27,-150 37.73,-150 37.73,-150 31.73,-150 25.73,-144 25.73,-138 25.73,-138 25.73,-126 25.73,-126 25.73,-120 31.73,-114 37.73,-114 37.73,-114 128.27,-114 128.27,-114 134.27,-114 140.27,-120 140.27,-126 140.27,-126 140.27,-138 140.27,-138 140.27,-144 134.27,-150 128.27,-150"/>
<text xml:space="preserve" text-anchor="middle" x="83" y="-128.3" font-family="Arial" font-size="11.00" fill="#1a1612">1 &#160;&#160;ClearDisplay #1</text>
</g>
<!-- n4 -->
<g id="node4" class="node">
<title>n4</title>
<path fill="#5a6b3b" stroke="#1a1612" stroke-width="1.5" d="M166.27,-62C166.27,-62 93.73,-62 93.73,-62 87.73,-62 81.73,-56 81.73,-50 81.73,-50 81.73,-38 81.73,-38 81.73,-32 87.73,-26 93.73,-26 93.73,-26 166.27,-26 166.27,-26 172.27,-26 178.27,-32 178.27,-38 178.27,-38 178.27,-50 178.27,-50 178.27,-56 172.27,-62 166.27,-62"/>
<text xml:space="preserve" text-anchor="middle" x="130" y="-40.3" font-family="Arial" font-size="11.00" fill="#fbf6eb">4 &#160;&#160;PlotPoint #1</text>
</g>
<!-- n1&#45;&gt;n4 -->
<g id="edge1" class="edge">
<title>n1&#45;&gt;n4</title>
<path fill="none" stroke="#8b2418" stroke-width="2" d="M86,-113.48C88.15,-103.79 91.62,-91.77 97,-82 98.79,-78.75 100.91,-75.54 103.21,-72.46"/>
<polygon fill="#8b2418" stroke="#8b2418" stroke-width="2" points="105.8,-74.82 109.49,-64.89 100.41,-70.35 105.8,-74.82"/>
</g>
<!-- n1&#45;&gt;n4 -->
<g id="edge2" class="edge">
<title>n1&#45;&gt;n4</title>
<path fill="none" stroke="#5a6b3b" stroke-width="1.3" stroke-dasharray="5,2" d="M92.51,-113.6C98.9,-101.9 107.47,-86.23 114.79,-72.82"/>
<polygon fill="#5a6b3b" stroke="#5a6b3b" stroke-width="1.3" points="117.67,-74.85 119.4,-64.4 111.53,-71.5 117.67,-74.85"/>
<text xml:space="preserve" text-anchor="middle" x="127.69" y="-84.5" font-family="Arial" font-size="10.00" fill="#5a6b3b"> display </text>
</g>
<!-- n2 -->
<g id="node2" class="node">
<title>n2</title>
<path fill="#fbf6eb" stroke="#1a1612" stroke-width="1.5" d="M260.14,-238C260.14,-238 147.86,-238 147.86,-238 141.86,-238 135.86,-232 135.86,-226 135.86,-226 135.86,-214 135.86,-214 135.86,-208 141.86,-202 147.86,-202 147.86,-202 260.14,-202 260.14,-202 266.14,-202 272.14,-208 272.14,-214 272.14,-214 272.14,-226 272.14,-226 272.14,-232 266.14,-238 260.14,-238"/>
<text xml:space="preserve" text-anchor="middle" x="204" y="-216.3" font-family="Arial" font-size="11.00" fill="#1a1612">2 &#160;&#160;ReadSoundLevel #1</text>
</g>
<!-- n3 -->
<g id="node3" class="node">
<title>n3</title>
<path fill="#fbf6eb" stroke="#1a1612" stroke-width="1.5" d="M260.14,-150C260.14,-150 183.86,-150 183.86,-150 177.86,-150 171.86,-144 171.86,-138 171.86,-138 171.86,-126 171.86,-126 171.86,-120 177.86,-114 183.86,-114 183.86,-114 260.14,-114 260.14,-114 266.14,-114 272.14,-120 272.14,-126 272.14,-126 272.14,-138 272.14,-138 272.14,-144 266.14,-150 260.14,-150"/>
<text xml:space="preserve" text-anchor="middle" x="222" y="-128.3" font-family="Arial" font-size="11.00" fill="#1a1612">3 &#160;&#160;Arithmetic [÷]</text>
</g>
<!-- n2&#45;&gt;n3 -->
<g id="edge3" class="edge">
<title>n2&#45;&gt;n3</title>
<path fill="none" stroke="#4a3f33" stroke-width="1.3" d="M207.64,-201.6C210.02,-190.25 213.18,-175.16 215.93,-162.02"/>
<polygon fill="#4a3f33" stroke="#4a3f33" stroke-width="1.3" points="219.28,-163.1 217.9,-152.6 212.42,-161.67 219.28,-163.1"/>
<text xml:space="preserve" text-anchor="middle" x="235.45" y="-172.5" font-family="Arial" font-size="10.00" fill="#8b2418"> sound_1 </text>
</g>
<!-- n3&#45;&gt;n4 -->
<g id="edge4" class="edge">
<title>n3&#45;&gt;n4</title>
<path fill="none" stroke="#4a3f33" stroke-width="1.3" d="M203.38,-113.6C190.13,-101.21 172.1,-84.36 157.23,-70.46"/>
<polygon fill="#4a3f33" stroke="#4a3f33" stroke-width="1.3" points="160.04,-68.29 150.34,-64.02 155.26,-73.4 160.04,-68.29"/>
<text xml:space="preserve" text-anchor="middle" x="196.13" y="-84.5" font-family="Arial" font-size="10.00" fill="#8b2418"> value </text>
</g>
</g>
</svg>
