<?xml version="1.0" encoding="UTF-8" standalone="no"?>
<!DOCTYPE svg PUBLIC "-//W3C//DTD SVG 1.1//EN"
 "http://www.w3.org/Graphics/SVG/1.1/DTD/svg11.dtd">
<!-- Generated by graphviz version 14.1.2 (0)
 -->
<!-- Title: PDG_MakeCode Pages: 1 -->
<svg width="404pt" height="247pt"
 viewBox="0.00 0.00 404.00 247.00" xmlns="http://www.w3.org/2000/svg" xmlns:xlink="http://www.w3.org/1999/xlink">
<g id="graph0" class="graph" transform="scale(1 1) rotate(0) translate(21.6 225.6)">
<title>PDG_MakeCode</title>
<polygon fill="#fbf6eb" stroke="none" points="-21.6,21.6 -21.6,-225.6 382.12,-225.6 382.12,21.6 -21.6,21.6"/>
<g id="clust1" class="cluster">
<title>cluster_loop</title>
<path fill="#fbf6eb" stroke="#8b2418" stroke-width="1.8" stroke-dasharray="5,2" d="M182.52,-8C182.52,-8 340.52,-8 340.52,-8 346.52,-8 352.52,-14 352.52,-20 352.52,-20 352.52,-184 352.52,-184 352.52,-190 346.52,-196 340.52,-196 340.52,-196 182.52,-196 182.52,-196 176.52,-196 170.52,-190 170.52,-184 170.52,-184 170.52,-20 170.52,-20 170.52,-14 176.52,-8 182.52,-8"/>
<text xml:space="preserve" text-anchor="start" x="204.39" y="-182.55" font-family="Arial" font-weight="bold" font-size="11.00">loop</text>
<text xml:space="preserve" text-anchor="start" x="178.52" y="-173.45" font-family="Arial" font-size="9.00" fill="#8b2418">alcance de control</text>
</g>
<!-- n1 -->
<g id="node1" class="node">
<title>n1</title>
<path fill="#34495e" stroke="#1a1612" stroke-width="1.5" d="M119.04,-150C119.04,-150 12,-150 12,-150 6,-150 0,-144 0,-138 0,-138 0,-126 0,-126 0,-120 6,-114 12,-114 12,-114 119.04,-114 119.04,-114 125.04,-114 131.04,-120 131.04,-126 131.04,-126 131.04,-138 131.04,-138 131.04,-144 125.04,-150 119.04,-150"/>
<text xml:space="preserve" text-anchor="middle" x="65.52" y="-128.3" font-family="Arial" font-size="11.00" fill="#fbf6eb">1 &#160;&#160;ProgramStartEvent</text>
</g>
<!-- n2 -->
<g id="node2" class="node">
<title>n2</title>
<path fill="#5a6b3b" stroke="#1a1612" stroke-width="1.5" d="M108.16,-62C108.16,-62 22.88,-62 22.88,-62 16.88,-62 10.88,-56 10.88,-50 10.88,-50 10.88,-38 10.88,-38 10.88,-32 16.88,-26 22.88,-26 22.88,-26 108.16,-26 108.16,-26 114.16,-26 120.16,-32 120.16,-38 120.16,-38 120.16,-50 120.16,-50 120.16,-56 114.16,-62 108.16,-62"/>
<text xml:space="preserve" text-anchor="middle" x="65.52" y="-40.3" font-family="Arial" font-size="11.00" fill="#fbf6eb">2 &#160;&#160;DrawImage #1</text>
</g>
<!-- n1&#45;&gt;n2 -->
<g id="edge1" class="edge">
<title>n1&#45;&gt;n2</title>
<path fill="none" stroke="#8b2418" stroke-width="2" d="M65.52,-113.6C65.52,-102.71 65.52,-88.39 65.52,-75.64"/>
<polygon fill="#8b2418" stroke="#8b2418" stroke-width="2" points="69.02,-75.7 65.52,-65.7 62.02,-75.7 69.02,-75.7"/>
</g>
<!-- n4 -->
<g id="node4" class="node">
<title>n4</title>
<path fill="#fbf6eb" stroke="#1a1612" stroke-width="1.5" d="M322.16,-62C322.16,-62 200.88,-62 200.88,-62 194.88,-62 188.88,-56 188.88,-50 188.88,-50 188.88,-38 188.88,-38 188.88,-32 194.88,-26 200.88,-26 200.88,-26 322.16,-26 322.16,-26 328.16,-26 334.16,-32 334.16,-38 334.16,-38 334.16,-50 334.16,-50 334.16,-56 328.16,-62 322.16,-62"/>
<text xml:space="preserve" text-anchor="middle" x="261.52" y="-40.3" font-family="Arial" font-size="11.00" fill="#1a1612">4 &#160;&#160;DisplaySoundLevel #1</text>
</g>
<!-- n2&#45;&gt;n4 -->
<g id="edge2" class="edge">
<title>n2&#45;&gt;n4</title>
<path fill="none" stroke="#5a6b3b" stroke-width="1.3" stroke-dasharray="5,2" d="M120.9,-44C138.16,-44 157.61,-44 176.42,-44"/>
<polygon fill="#5a6b3b" stroke="#5a6b3b" stroke-width="1.3" points="176.37,-47.5 186.37,-44 176.37,-40.5 176.37,-47.5"/>
<text xml:space="preserve" text-anchor="middle" x="154.52" y="-49.5" font-family="Arial" font-size="10.00" fill="#5a6b3b"> display </text>
</g>
<!-- n3 -->
<g id="node3" class="node">
<title>n3</title>
<path fill="#fbf6eb" stroke="#1a1612" stroke-width="1.5" d="M317.66,-150C317.66,-150 205.38,-150 205.38,-150 199.38,-150 193.38,-144 193.38,-138 193.38,-138 193.38,-126 193.38,-126 193.38,-120 199.38,-114 205.38,-114 205.38,-114 317.66,-114 317.66,-114 323.66,-114 329.66,-120 329.66,-126 329.66,-126 329.66,-138 329.66,-138 329.66,-144 323.66,-150 317.66,-150"/>
<text xml:space="preserve" text-anchor="middle" x="261.52" y="-128.3" font-family="Arial" font-size="11.00" fill="#1a1612">3 &#160;&#160;ReadSoundLevel #1</text>
</g>
<!-- n3&#45;&gt;n4 -->
<g id="edge3" class="edge">
<title>n3&#45;&gt;n4</title>
<path fill="none" stroke="#4a3f33" stroke-width="1.3" d="M261.52,-113.6C261.52,-102.36 261.52,-87.47 261.52,-74.43"/>
<polygon fill="#4a3f33" stroke="#4a3f33" stroke-width="1.3" points="265.02,-74.64 261.52,-64.64 258.02,-74.64 265.02,-74.64"/>
<text xml:space="preserve" text-anchor="middle" x="282.89" y="-84.5" font-family="Arial" font-size="10.00" fill="#8b2418"> sound_1 </text>
</g>
</g>
</svg>
