<svg xmlns="http://www.w3.org/2000/svg" width="1280" height="720" xmlns:v="https://vecta.io/nano"><defs><linearGradient id="A" gradientTransform="matrix(0,763.16823,762.53316,0,-752925.17,-1004795)" x1="1317.441" y1="988.242" x2="1316.696" y2="988.242" gradientUnits="userSpaceOnUse" spreadMethod="pad"><stop offset="0" stop-color="#f6a227"/><stop offset="1" stop-color="#ffc93c"/></linearGradient></defs><path d="M0 0h1280v720H0z" fill="url(#A)"/><path d="M1022.851 363.722c-.421 4.308-6.322 49.464-52.696 49.464-48.659 0-40.512-48.247-40.512-48.247l-.142-.31-4.977-33.313c26.079-5.34 80.661-17.44 106.961-21.221l-8.696 53.622z" fill="#bc9353"/><path d="M1023.546 349.43c-.46 4.383-6.362 50.305-52.705 50.305-48.659 0-40.512-49.057-40.512-49.057l-.142-.319c-52.537 17.976-76.003 110.737-103.453 157.691-4.632.531-95.028-60.94-95.639-60.139-4.131 5.185-20.721 24.86-20.721 24.86s54.042 77.039 90.476 106.602c-.1 1.372-.473 19.145-.726 28.717v3.325h319.858c-6.752-66.262-22.868-132.693-30.984-198.296-5.025-48.831-41.618-60.976-65.452-63.69z" fill="#1e5c93"/><path d="M801.178 581.393l-.801 26.698h-97.326c3.949-13.393 10.683-27.052 22.948-34.596 10.037-5.512 22.159-3.799 32.599-.452 6.376 2.107 12.34 5.68 16.9 10.653 8.603-.248 17.113-1.629 25.68-2.302zM678.221 414.4c-15.911-.341-12.483 12.975-14.336 24.404.06 7.045-1.337 8.992.323 12.725 0 7.956 5.557 14.221 8.523 21.239 3.706 5.862 11.312 5.937 17.232 8.058 7.593 1.798 15.926 3.617 23.484.872 8.961-4.981 11.989-15.607 18.073-23.275 3.528-3.883 8.722-11.246 1.917-14.846-10.245-5.202-18.72-13.367-28.704-19.083-7.965-5.145-16.723-10.263-26.512-10.095zm440.188-212.499c0 84.603-68.463 153.213-152.963 153.213-84.486 0-152.943-68.569-152.943-153.213 0-84.618 68.457-153.193 152.943-153.193 84.5 0 152.963 68.574 152.963 153.193" fill="#bc9353"/><path d="M935.756 226.274a14.591 14.615 0 0 0 14.575 14.62 14.632 14.656 0 0 0 14.597-14.62 14.622 14.645 0 0 0-14.597-14.6 14.601 14.625 0 0 0-14.575 14.6m-96.92 0a14.606 14.63 0 0 0 14.597 14.62 14.622 14.645 0 0 0 14.576-14.62 14.601 14.625 0 0 0-14.576-14.6 14.622 14.645 0 0 0-14.597 14.6"/><path d="M924.094 272.657a26.984 27.028 0 0 1-26.989 27.038 27.009 27.053 0 0 1-26.995-27.038m32.665-11.06a11.345 11.363 0 1 1 0-22.726" fill="none" stroke="#000" stroke-width="5.03" stroke-miterlimit="10"/><path d="M965.481 48.708c-80.515 0-146.476 62.355-152.446 141.497h187.569v-29.22h2.361c6.844 49.617 45.494 90.878 97.472 98.705 2.122.295 4.265.575 6.367.753a152.451 152.699 0 0 0 11.605-58.541c0-84.578-68.463-153.193-152.963-153.193"/><path d="M1148.034 243.401a31.487 31.539 0 0 0-32.245 1.866c-1.684 1.149-3.274 2.441-4.721 3.931a31.594 31.645 0 0 0 7.875 50.374c28.796 9.24 50.292 6.123 70.859 1.236-7.835-19.649-17.633-39.095-41.728-57.372"/><path d="M230.876 607.352c-19.883-.029-35.998 16.114-35.936 35.996v59.872c0 6.104 1.64 11.756 4.292 16.78H1280V612.94c-5.713-3.639-12.343-5.577-19.116-5.588z" fill="#ff7b54"/><g fill="#7c2869"><path d="M681.54 564.83h0c-6.182 24.737-28.409 42.088-53.904 42.088H461.875c-25.495 0-47.722-17.351-53.904-42.088h0z"/><path d="M397.45 543.786h294.613a10.52 10.52 0 0 1 10.522 10.522h0a10.52 10.52 0 0 1-10.522 10.522H397.45a10.52 10.52 0 0 1-10.522-10.522h0a10.52 10.52 0 0 1 10.522-10.522z"/></g><path d="M397.502 543.786v-.689c0-9.954 3.951-19.513 11.011-26.526 3.172-3.151 6.318-6.318 8.517-10.075 5.419-9.259 3.33-24.048 10.443-31.86 7.181-7.891 22.122-7.186 30.734-13.394 8.617-6.208 12.668-20.607 22.427-24.921 9.664-4.277 23.027 2.383 33.528.168 10.269-2.162 19.786-13.705 30.592-13.705s20.323 11.543 30.598 13.71c10.496 2.215 23.864-4.445 33.528-.168 9.759 4.319 13.81 18.713 22.427 24.921s23.553 5.503 30.734 13.394c7.113 7.813 5.019 22.601 10.443 31.86 1.768 3.02 3.951 5.245 6.266 7.265 8.323 7.25 13.31 17.593 13.31 28.635v1.384z" fill="#34c3ff"/><path d="M737.598 385.116c1.171 2.558 1.252 5.062.252 7.712-.614 1.633-1.634 2.824-5.095 5.97l-5.948 5.439-7.311 6.709-7.403 6.797-7.36 6.751-14.306 13.105-7.337 6.686-4.832 4.841c-4.288 5.471-6.245 10.83-6.244 17.098 0 6.11-1.647 11.801-5.103 17.624-1.192 2.007-1.894 2.809-13.07 14.919-8.105 8.782-12.089 12.972-12.702 13.352-1.797 1.118-4.297.574-5.367-1.166-.669-1.089-.738-3.27-.132-4.248.242-.392 5.265-5.877 11.161-12.189 11.723-12.55 11.459-12.216 11.22-14.202-.336-2.781-3.383-4.211-5.795-2.719-.599.371-4.453 4.363-11.68 12.098-11.701 12.526-11.532 12.368-13.325 12.216-2.488-.212-3.895-2.165-3.561-4.943l.126-1.04 11.28-12.26c8.567-9.312 11.314-12.41 11.425-12.881.403-1.712-.897-3.924-2.633-4.476a4.58 4.58 0 0 0-1.935-.119l-.955.193-11.522 12.149c-8.304 8.757-11.679 12.196-12.084 12.318-2.583.778-5.038-.723-5.345-3.266-.253-2.099-.698-1.538 12.057-15.192 10.634-11.385 11.769-12.542 13.768-14.033 5.861-4.374 11.797-6.663 18.226-7.03 4.61-.263 8.943-1.743 13.334-4.554 2.001-1.282 6.588-6.182 10.661-11.391l6.077-7.689 6.11-7.658 6.194-7.752 6.278-7.848 6.196-7.751 6.094-7.672c1.604-2.034 3.762-4.629 4.794-5.767 1.798-1.98 1.952-2.097 3.599-2.715 3.894-1.463 7.296-.814 10.249 1.954.93.872 1.478 1.614 1.944 2.631z" fill="#f9f9f9"/></svg>