<svg xmlns="http://www.w3.org/2000/svg" width="1280" height="720" xmlns:v="https://vecta.io/nano"><style><![CDATA[#B{animation:flashing 2s linear infinite}@keyframes flashing{0%{opacity:0}49%{opacity:0}50%{opacity:1}100%{opacity:1}}.B{clip-path:none}.C{fill:none}.D{stroke-miterlimit:10}.E{fill:#7c2869}.F{stroke:#000}.G{stroke-width:1.805}.H{stroke-width:18.053}.I{stroke-linecap:round}.J{stroke-width:2.275}]]></style><defs><linearGradient id="A" x1="638.924" y1="-20.589" x2="638.924" y2="742.563" gradientUnits="userSpaceOnUse" spreadMethod="pad"><stop offset="0" stop-color="#1f5e96"/><stop offset="1" stop-color="#3291ff"/></linearGradient></defs><path d="M0 0h1280v720H0z" fill="url(#A)" class="B"/><path d="M650.837 3.143l277.816 322.016 277.896 321.989H95.049l277.896-321.989z" fill="#ff7b54" class="B"/><path d="M650.837 3.143l277.816 322.016 277.896 321.989H95.049l277.896-321.989z" id="B" fill="#1ead28" class="B"/><path d="M455.733 356.848c-1.86-3.301-4.567-6.425-7.425-9.151-7.444-7.169-19.484-12.192-33.29-13.075-11.71-.761-26.324 3.301-34.858 7.713-5.132 2.634-8.14 5.447-10.255 9.03l85.848 5.502z" class="B E"/><g fill="#bc9353"><path d="M417.021 345.147l-5.376-.339c-4.585-.291-8.064-4.26-7.764-8.849l1.685-26.113 21.981 1.401-1.682 26.122a8.34 8.34 0 0 1-8.844 7.778" class="B"/><path d="M451.072 289.941c0 19.688-15.948 35.651-35.621 35.651s-35.621-15.963-35.621-35.651c0-19.695 15.95-35.648 35.621-35.648s35.621 15.953 35.621 35.648z" class="B"/></g><path d="M427.123 256.691c-17.356-6.304-36.091.865-43.392 16.074 13.695 3.595 27.718-.865 35.932-10.778-.05 13.94 9.181 27.372 23.908 32.725 2.199.79 4.401 1.363 6.617 1.748 3.883-16.235-5.865-33.524-23.082-39.769m-32.934 29.508c-.646 1.787-2.613 2.709-4.397 2.059s-2.707-2.615-2.058-4.402a3.44 3.44 0 0 1 4.409-2.061 3.42 3.42 0 0 1 2.046 4.404m17.804 6.14c-.661 1.789-2.624 2.709-4.409 2.061a3.44 3.44 0 0 1-2.059-4.411 3.43 3.43 0 0 1 4.407-2.052c1.786.65 2.707 2.615 2.061 4.402m-14.155 12.522a4.76 4.76 0 0 1-6.083 2.849c-2.452-.903-3.73-3.631-2.828-6.085a4.75 4.75 0 0 1 6.081-2.851c2.471.903 3.732 3.622 2.848 6.087" class="B"/><path d="M398.561 290.478c-1.39-.498-2.92.217-3.429 1.609a2.68 2.68 0 0 0 1.608 3.434" class="B C D F G"/><g class="E"><path d="M369.887 351.326c-7.254 36.376 25.893 51.575 25.893 51.575l38.167 1.77s23.675-15.399 24.276-28.135c.592-12.736-2.49-19.705-2.49-19.705l-46.015-7.253-39.831 1.731z" class="B"/><path d="M323.693 524.085c-1.588-5.305 20.949-84.3 21.748-88.834 4.634-26.517 43.827-39.752 43.827-39.752l53.543 1.158s43.175 38.649 45.921 51.113c19.455 88.618 74.839 173.067 74.839 173.067h-248.59l8.712-96.762z" class="B"/></g><path d="M442.378 251.179a11.58 11.58 0 0 0-7.846-14.337c-6.119-1.787-12.529 1.731-14.333 7.855a11.58 11.58 0 0 0 7.846 14.345 11.57 11.57 0 0 0 14.333-7.862" class="B"/><path d="M445.828 351.601s47.094 31.962 14.792 67.649c-7.435 8.214-14.55 12.389-21.079 13.942m-66.317-89.258s-54.098 17.685-62.492-29.742c-1.924-10.904-.863-19.086 1.902-25.229" class="B C D H I" stroke="#bc9353"/><path d="M391.24 345.261c0 11.014-8.936 19.95-19.944 19.95a19.96 19.96 0 0 1-19.943-19.95c0-11.024 8.938-19.96 19.943-19.96s19.944 8.936 19.944 19.96m82.971 8.56c0 11.014-8.937 19.95-19.943 19.95a19.96 19.96 0 0 1-19.944-19.95c0-11.014 8.936-19.96 19.944-19.96s19.943 8.943 19.943 19.96" class="B E"/><g class="C D F J"><path d="M318.166 291.944c-.985-1.589-3.1-2.078-4.688-1.062-1.588 1.007-2.077 3.104-1.061 4.693l3.486 4.065" class="B"/><path d="M305.865 293.44c1.73-3.282 5.809-4.551 9.096-2.813" class="B"/><path d="M306.861 292.048c1.907-2.651 1.907-7.092 0-9.914m4.85 7.949c1.919-2.654 1.919-7.101 0-9.914m4.671 10.957c2.095-2.502 2.425-6.93.723-9.895m119.39 143.747c-.05-1.625 1.043-3.113 2.687-3.47l5.34-.33m.882 15.135c-3.261-.159-6.982 2.24-8.317 5.382m1.335-13.001c-3.262.113-6.768 2.832-7.829 6.068m9.782-1.767c-3.27.111-6.765 2.829-7.839 6.066" class="B"/></g><path d="M.002 620.857v98.682h1279.996v-98.682z" fill="#a184dc" class="B"/><path d="M635.451 0h30.716l40 41.425H595.451z" class="B"/><path d="M830.545 620.857l19.221-58.657-36.927-4.609-10.461 63.266zm82.755-.036l4.567-65.159-12.781-18.041-18.055 21.889-1.071 61.347z" class="B" fill="#fff"/><g class="E"><path d="M911.317 480.129l-14.184-75.439-52.838.149-9.782 3.612c.05 3.932-.199 16.057 1.07 20.533 8.064 28.407 51.429 130.525 51.429 130.525l30.835-3.848-6.548-75.533z" class="B"/><path d="M834.531 408.283l-6.101 66.173-15.656 83.585 36.992 4.159 29.539-59.476 17.848-98.033z" class="B"/></g><path d="M817.603 360.443c1.665-3.415 4.194-6.68 6.88-9.586 7.022-7.6 18.731-13.329 32.482-15.012 11.635-1.44 26.466 1.758 35.253 5.652 5.274 2.333 8.45 4.968 10.782 8.421l-85.377 10.542z" fill="#fff" class="B"/><g fill="#bc9353"><path d="M854.258 346.426l5.376-.262a8.35 8.35 0 0 0 7.903-8.729l-1.297-26.132-22.001 1.101 1.298 26.132c.232 4.59 4.136 8.127 8.721 7.91" class="B"/><path d="M889.511 291.297c0 19.688-15.939 35.649-35.621 35.649-19.669 0-35.618-15.96-35.618-35.649 0-19.698 15.949-35.651 35.618-35.651 19.682 0 35.621 15.953 35.621 35.651z" class="B"/><path d="M857.755 266.501c-.65 11.785-7.086 22.19-16.656 28.191.706 2.454 1.175 5.014 1.318 7.674.433 7.46-1.458 14.516-5.049 20.461 5.536 2.906 11.891 4.438 18.601 4.043 19.633-1.156 34.614-18.022 33.477-37.671a35.64 35.64 0 0 0-3.45-13.312c-.61.077-1.213.161-1.823.197-10.159.592-19.539-3.14-26.418-9.584z" class="B"/></g><path d="M851.804 255.711c-19.633 1.158-34.613 18.024-33.478 37.674.764 12.953 8.357 23.844 19.042 29.46a35.45 35.45 0 0 0 5.049-20.459c-.163-2.661-.612-5.221-1.318-7.674 9.57-6.001 15.988-16.406 16.656-28.2 6.879 6.451 16.259 10.186 26.418 9.594.61-.036 1.213-.123 1.823-.197-6.06-12.661-19.323-21.061-34.192-20.177zm23.112 30.618a3.45 3.45 0 0 0 4.511 1.806 3.43 3.43 0 0 0 1.787-4.515c-.755-1.758-2.772-2.548-4.512-1.806a3.45 3.45 0 0 0-1.804 4.515m-17.399 7.169c.763 1.748 2.784 2.548 4.511 1.806a3.42 3.42 0 0 0 1.788-4.515 3.44 3.44 0 0 0-4.511-1.806c-1.749.761-2.539 2.784-1.804 4.515m14.885 11.645c1.054 2.427 3.836 3.528 6.251 2.492 2.396-1.045 3.515-3.829 2.472-6.246a4.76 4.76 0 0 0-6.242-2.492c-2.405 1.045-3.522 3.829-2.49 6.246" class="B"/><path d="M870.791 290.863c1.351-.583 2.923.029 3.515 1.382.572 1.356-.04 2.945-1.391 3.528" class="B C D F G"/><path d="M902.98 349.918c9.181 27.269-5.979 54.773-5.979 54.773l-62.667 5.512s-11.26-14.034-18.065-29.913c-5.018-11.72 1.318-19.811 1.318-19.811l45.517-9.933 39.858-.592z" fill="#fff" class="B"/><path d="M823.902 357.45c-9.737 8.919-36.036 37.56-7.503 65.573 7.908 7.768 15.245 11.522 21.871 12.697m60.94-92.99s55.038 14.467 60.632-33.354c1.277-11.026-.255-19.115-3.377-25.07" class="B C D H I" stroke="#bc9353"/><g fill="#fff"><path d="M885.151 345.092c.648 11.005 10.084 19.394 21.07 18.766 10.998-.65 19.38-10.094 18.75-21.089-.648-11.007-10.083-19.397-21.069-18.766-10.999.648-19.381 10.092-18.751 21.089" class="B"/><path d="M913.28 345.439a19.98 19.98 0 0 0 21.082 18.766c10.986-.631 19.379-10.102 18.751-21.099-.661-10.995-10.097-19.394-21.082-18.766-10.986.65-19.381 10.104-18.751 21.099" class="B"/><path d="M934.624 323.55c.66 10.998 10.094 19.397 21.082 18.766 10.986-.638 19.38-10.102 18.75-21.097-.649-10.998-10.087-19.397-21.082-18.766-10.986.648-19.38 10.102-18.75 21.097" class="B"/></g><path d="M832.782 319.918l-20.825 8.438 11.256 11.628z" class="B"/><g fill="#ff7b54"><path d="M832.64 319.938l-9.133-7.638-3.825 7.544z" class="B"/><path d="M832.64 319.938l1.203 11.843 8.018-2.745z" class="B"/></g><g fill="#fff"><path d="M793.496 358.382c.648 11.005 10.084 19.406 21.082 18.766 10.986-.631 19.379-10.092 18.751-21.089-.64-10.995-10.096-19.394-21.082-18.766-10.988.65-19.38 10.094-18.751 21.089" class="B"/><path d="M781.015 383.685c.649 11.005 10.085 19.397 21.071 18.766s19.38-10.092 18.751-21.09c-.63-11.005-10.084-19.397-21.083-18.766-10.985.631-19.376 10.094-18.739 21.089" class="B"/><path d="M788.572 418.168a19.98 19.98 0 0 0 21.082 18.766c10.986-.657 19.377-10.102 18.74-21.097a19.98 19.98 0 0 0-21.071-18.766c-10.986.628-19.381 10.092-18.751 21.097" class="B"/></g><path d="M914.765 602.881c-7.076-.884-28.533 1.779-28.533 1.779l-.29 16.177h46.953s-3.261-16.112-18.15-17.957m-105.835.49c6.636-.884 26.702 1.77 26.702 1.77l.04 15.717h-43.74s3.073-15.623 17.021-17.468" class="B"/><g class="C D F J"><path d="M951.757 288.371c.735-1.741 2.716-2.55 4.456-1.806 1.73.734 2.546 2.728 1.804 4.457l-2.8 4.573" class="B"/><path d="M964.156 287.901c-2.237-2.983-6.467-3.576-9.446-1.336" class="B"/><path d="M962.944 286.668c-2.314-2.314-3.017-6.697-1.588-9.784m-3.499 8.609c-2.312-2.305-3.017-6.699-1.588-9.784m-2.875 11.571c-2.472-2.126-3.477-6.463-2.293-9.642M841.608 427.396a3.4 3.4 0 0 0-3.017-3.179l-5.356.197m-1.241 12.934c3.205.612 6.24 3.848 6.774 7.224m-1.907-9.124c3.213.612 6.241 3.848 6.786 7.224" class="B"/></g></svg>