<?xml version="1.0" encoding="UTF-8" standalone="no"?>
<!DOCTYPE svg PUBLIC "-//W3C//DTD SVG 1.1//EN"
 "http://www.w3.org/Graphics/SVG/1.1/DTD/svg11.dtd">
<!-- Generated by graphviz version 14.1.2 (0)
 -->
<!-- Title: PDG_Protobject Pages: 1 -->
<svg width="549pt" height="596pt"
 viewBox="0.00 0.00 549.00 596.00" xmlns="http://www.w3.org/2000/svg" xmlns:xlink="http://www.w3.org/1999/xlink">
<g id="graph0" class="graph" transform="scale(1 1) rotate(0) translate(21.6 574.6)">
<title>PDG_Protobject</title>
<polygon fill="#fbf6eb" stroke="none" points="-21.6,21.6 -21.6,-574.6 527.37,-574.6 527.37,21.6 -21.6,21.6"/>
<g id="clust1" class="cluster">
<title>cluster_loop</title>
<path fill="#fbf6eb" stroke="#8b2418" stroke-width="1.8" stroke-dasharray="5,2" d="M20,-8C20,-8 275,-8 275,-8 281,-8 287,-14 287,-20 287,-20 287,-212 287,-212 287,-218 281,-224 275,-224 275,-224 20,-224 20,-224 14,-224 8,-218 8,-212 8,-212 8,-20 8,-20 8,-14 14,-8 20,-8"/>
<text xml:space="preserve" text-anchor="start" x="41.88" y="-210.55" font-family="Arial" font-weight="bold" font-size="11.00">loop</text>
<text xml:space="preserve" text-anchor="start" x="16" y="-201.45" font-family="Arial" font-size="9.00" fill="#8b2418">alcance de control</text>
</g>
<!-- n1 -->
<g id="node1" class="node">
<title>n1</title>
<path fill="#34495e" stroke="#1a1612" stroke-width="1.5" d="M347.52,-553C347.52,-553 240.48,-553 240.48,-553 234.48,-553 228.48,-547 228.48,-541 228.48,-541 228.48,-529 228.48,-529 228.48,-523 234.48,-517 240.48,-517 240.48,-517 347.52,-517 347.52,-517 353.52,-517 359.52,-523 359.52,-529 359.52,-529 359.52,-541 359.52,-541 359.52,-547 353.52,-553 347.52,-553"/>
<text xml:space="preserve" text-anchor="middle" x="294" y="-531.3" font-family="Arial" font-size="11.00" fill="#fbf6eb">1 &#160;&#160;ProgramStartEvent</text>
</g>
<!-- n2 -->
<g id="node2" class="node">
<title>n2</title>
<path fill="#8b2418" stroke="#1a1612" stroke-width="1.5" d="M328.77,-476C328.77,-476 259.23,-476 259.23,-476 253.23,-476 247.23,-470 247.23,-464 247.23,-464 247.23,-452 247.23,-452 247.23,-446 253.23,-440 259.23,-440 259.23,-440 328.77,-440 328.77,-440 334.77,-440 340.77,-446 340.77,-452 340.77,-452 340.77,-464 340.77,-464 340.77,-470 334.77,-476 328.77,-476"/>
<text xml:space="preserve" text-anchor="middle" x="294" y="-454.3" font-family="Arial" font-size="11.00" fill="#fbf6eb">2 &#160;&#160;SetVariable</text>
</g>
<!-- n1&#45;&gt;n2 -->
<g id="edge1" class="edge">
<title>n1&#45;&gt;n2</title>
<path fill="none" stroke="#8b2418" stroke-width="2" d="M294,-516.6C294,-508.52 294,-498.67 294,-489.42"/>
<polygon fill="#8b2418" stroke="#8b2418" stroke-width="2" points="297.5,-489.59 294,-479.59 290.5,-489.59 297.5,-489.59"/>
</g>
<!-- n3 -->
<g id="node3" class="node">
<title>n3</title>
<path fill="#fbf6eb" stroke="#1a1612" stroke-width="1.5" d="M493.77,-388C493.77,-388 364.23,-388 364.23,-388 358.23,-388 352.23,-382 352.23,-376 352.23,-376 352.23,-364 352.23,-364 352.23,-358 358.23,-352 364.23,-352 364.23,-352 493.77,-352 493.77,-352 499.77,-352 505.77,-358 505.77,-364 505.77,-364 505.77,-376 505.77,-376 505.77,-382 499.77,-388 493.77,-388"/>
<text xml:space="preserve" text-anchor="middle" x="429" y="-366.3" font-family="Arial" font-size="11.00" fill="#1a1612">3 &#160;&#160;SetBackgroundColor #1</text>
</g>
<!-- n2&#45;&gt;n3 -->
<g id="edge2" class="edge">
<title>n2&#45;&gt;n3</title>
<path fill="none" stroke="#8b2418" stroke-width="2" d="M321.65,-439.39C341.48,-426.75 368.48,-409.55 390.43,-395.57"/>
<polygon fill="#8b2418" stroke="#8b2418" stroke-width="2" points="392.29,-398.54 398.84,-390.21 388.52,-392.63 392.29,-398.54"/>
</g>
<!-- n6 -->
<g id="node6" class="node">
<title>n6</title>
<path fill="#8b2418" stroke="#1a1612" stroke-width="1.5" d="M201.27,-388C201.27,-388 116.73,-388 116.73,-388 110.73,-388 104.73,-382 104.73,-376 104.73,-376 104.73,-364 104.73,-364 104.73,-358 110.73,-352 116.73,-352 116.73,-352 201.27,-352 201.27,-352 207.27,-352 213.27,-358 213.27,-364 213.27,-364 213.27,-376 213.27,-376 213.27,-382 207.27,-388 201.27,-388"/>
<text xml:space="preserve" text-anchor="middle" x="159" y="-366.3" font-family="Arial" font-size="11.00" fill="#fbf6eb">6 &#160;&#160;ToggleVariable</text>
</g>
<!-- n2&#45;&gt;n6 -->
<g id="edge3" class="edge">
<title>n2&#45;&gt;n6</title>
<path fill="none" stroke="#4a3f33" stroke-width="1.3" d="M258.54,-439.36C247.52,-433.53 235.45,-426.79 224.75,-420 213.16,-412.64 200.96,-403.87 190.27,-395.8"/>
<polygon fill="#4a3f33" stroke="#4a3f33" stroke-width="1.3" points="192.56,-393.14 182.49,-389.83 188.3,-398.7 192.56,-393.14"/>
<text xml:space="preserve" text-anchor="middle" x="242.38" y="-410.5" font-family="Arial" font-size="10.00" fill="#8b2418"> estado </text>
</g>
<!-- n7 -->
<g id="node7" class="node">
<title>n7</title>
<path fill="#b8843a" stroke="#1a1612" stroke-width="1.5" d="M297.27,-300C297.27,-300 194.73,-300 194.73,-300 188.73,-300 182.73,-294 182.73,-288 182.73,-288 182.73,-276 182.73,-276 182.73,-270 188.73,-264 194.73,-264 194.73,-264 297.27,-264 297.27,-264 303.27,-264 309.27,-270 309.27,-276 309.27,-276 309.27,-288 309.27,-288 309.27,-294 303.27,-300 297.27,-300"/>
<text xml:space="preserve" text-anchor="middle" x="246" y="-278.3" font-family="Arial" font-size="11.00" fill="#fbf6eb">7 &#160;&#160;ConditionalBranch</text>
</g>
<!-- n2&#45;&gt;n7 -->
<g id="edge4" class="edge">
<title>n2&#45;&gt;n7</title>
<path fill="none" stroke="#4a3f33" stroke-width="1.3" d="M289.13,-439.36C280.87,-409.4 264.01,-348.29 253.99,-311.97"/>
<polygon fill="#4a3f33" stroke="#4a3f33" stroke-width="1.3" points="257.44,-311.29 251.4,-302.59 250.69,-313.16 257.44,-311.29"/>
<text xml:space="preserve" text-anchor="middle" x="292.4" y="-366.5" font-family="Arial" font-size="10.00" fill="#8b2418"> estado </text>
</g>
<!-- n4 -->
<g id="node4" class="node">
<title>n4</title>
<path fill="#fbf6eb" stroke="#1a1612" stroke-width="1.5" d="M474.27,-300C474.27,-300 383.73,-300 383.73,-300 377.73,-300 371.73,-294 371.73,-288 371.73,-288 371.73,-276 371.73,-276 371.73,-270 377.73,-264 383.73,-264 383.73,-264 474.27,-264 474.27,-264 480.27,-264 486.27,-270 486.27,-276 486.27,-276 486.27,-288 486.27,-288 486.27,-294 480.27,-300 474.27,-300"/>
<text xml:space="preserve" text-anchor="middle" x="429" y="-278.3" font-family="Arial" font-size="11.00" fill="#1a1612">4 &#160;&#160;ClearDisplay #1</text>
</g>
<!-- n3&#45;&gt;n4 -->
<g id="edge5" class="edge">
<title>n3&#45;&gt;n4</title>
<path fill="none" stroke="#8b2418" stroke-width="2" d="M429,-351.6C429,-340.71 429,-326.39 429,-313.64"/>
<polygon fill="#8b2418" stroke="#8b2418" stroke-width="2" points="432.5,-313.7 429,-303.7 425.5,-313.7 432.5,-313.7"/>
</g>
<!-- n3&#45;&gt;n4 -->
<g id="edge6" class="edge">
<title>n3&#45;&gt;n4</title>
<path fill="none" stroke="#5a6b3b" stroke-width="1.3" stroke-dasharray="5,2" d="M397.81,-351.46C386.92,-342.9 378.66,-331.88 384.25,-320 386.12,-316.03 388.65,-312.33 391.56,-308.94"/>
<polygon fill="#5a6b3b" stroke="#5a6b3b" stroke-width="1.3" points="393.88,-311.57 398.56,-302.06 388.98,-306.58 393.88,-311.57"/>
<text xml:space="preserve" text-anchor="middle" x="402.62" y="-322.5" font-family="Arial" font-size="10.00" fill="#5a6b3b"> display </text>
</g>
<!-- n8 -->
<g id="node9" class="node">
<title>n8</title>
<path fill="#5a6b3b" stroke="#1a1612" stroke-width="1.5" d="M257.27,-150C257.27,-150 184.73,-150 184.73,-150 178.73,-150 172.73,-144 172.73,-138 172.73,-138 172.73,-126 172.73,-126 172.73,-120 178.73,-114 184.73,-114 184.73,-114 257.27,-114 257.27,-114 263.27,-114 269.27,-120 269.27,-126 269.27,-126 269.27,-138 269.27,-138 269.27,-144 263.27,-150 257.27,-150"/>
<text xml:space="preserve" text-anchor="middle" x="221" y="-128.3" font-family="Arial" font-size="11.00" fill="#fbf6eb">8 &#160;&#160;PlotPoint #1</text>
</g>
<!-- n4&#45;&gt;n8 -->
<g id="edge7" class="edge">
<title>n4&#45;&gt;n8</title>
<path fill="none" stroke="#5a6b3b" stroke-width="1.3" stroke-dasharray="5,2" d="M371.09,-270.69C356.11,-268.25 339.98,-265.84 325,-264 298.03,-260.69 99.66,-263.99 81.25,-244 77.64,-240.08 77.69,-235.97 81.25,-232 92.42,-219.57 141.57,-232.42 156,-224 180.44,-209.72 198.13,-182.19 208.82,-161.14"/>
<polygon fill="#5a6b3b" stroke="#5a6b3b" stroke-width="1.3" points="211.89,-162.83 213.06,-152.3 205.58,-159.8 211.89,-162.83"/>
<text xml:space="preserve" text-anchor="middle" x="99.62" y="-234.5" font-family="Arial" font-size="10.00" fill="#5a6b3b"> display </text>
</g>
<!-- n5 -->
<g id="node5" class="node">
<title>n5</title>
<path fill="#34495e" stroke="#1a1612" stroke-width="1.5" d="M203.02,-476C203.02,-476 80.98,-476 80.98,-476 74.98,-476 68.98,-470 68.98,-464 68.98,-464 68.98,-452 68.98,-452 68.98,-446 74.98,-440 80.98,-440 80.98,-440 203.02,-440 203.02,-440 209.02,-440 215.02,-446 215.02,-452 215.02,-452 215.02,-464 215.02,-464 215.02,-470 209.02,-476 203.02,-476"/>
<text xml:space="preserve" text-anchor="middle" x="142" y="-454.3" font-family="Arial" font-size="11.00" fill="#fbf6eb">5 &#160;&#160;SuddenNoiseEvent #1</text>
</g>
<!-- n5&#45;&gt;n6 -->
<g id="edge8" class="edge">
<title>n5&#45;&gt;n6</title>
<path fill="none" stroke="#8b2418" stroke-width="2" d="M145.44,-439.6C147.61,-428.6 150.48,-414.08 153.02,-401.24"/>
<polygon fill="#8b2418" stroke="#8b2418" stroke-width="2" points="156.41,-402.13 154.92,-391.64 149.55,-400.77 156.41,-402.13"/>
</g>
<!-- n6&#45;&gt;n7 -->
<g id="edge9" class="edge">
<title>n6&#45;&gt;n7</title>
<path fill="none" stroke="#8b2418" stroke-width="2" d="M200.42,-351.26C209.35,-346.03 218.15,-339.62 225,-332 230.03,-326.41 233.98,-319.43 237.03,-312.51"/>
<polygon fill="#8b2418" stroke="#8b2418" stroke-width="2" points="240.27,-313.85 240.52,-303.26 233.72,-311.38 240.27,-313.85"/>
</g>
<!-- n6&#45;&gt;n7 -->
<g id="edge10" class="edge">
<title>n6&#45;&gt;n7</title>
<path fill="none" stroke="#4a3f33" stroke-width="1.3" d="M176.61,-351.6C189.02,-339.32 205.87,-322.67 219.85,-308.85"/>
<polygon fill="#4a3f33" stroke="#4a3f33" stroke-width="1.3" points="222.07,-311.58 226.72,-302.06 217.15,-306.6 222.07,-311.58"/>
<text xml:space="preserve" text-anchor="middle" x="225.33" y="-322.5" font-family="Arial" font-size="10.00" fill="#8b2418"> estado </text>
</g>
<!-- n10 -->
<g id="node8" class="node">
<title>n10</title>
<path fill="#5a6b3b" stroke="#1a1612" stroke-width="1.5" d="M428.27,-150C428.27,-150 349.73,-150 349.73,-150 343.73,-150 337.73,-144 337.73,-138 337.73,-138 337.73,-126 337.73,-126 337.73,-120 343.73,-114 349.73,-114 349.73,-114 428.27,-114 428.27,-114 434.27,-114 440.27,-120 440.27,-126 440.27,-126 440.27,-138 440.27,-138 440.27,-144 434.27,-150 428.27,-150"/>
<text xml:space="preserve" text-anchor="middle" x="389" y="-128.3" font-family="Arial" font-size="11.00" fill="#fbf6eb">10 &#160;&#160;PlotPoint #1</text>
</g>
<!-- n7&#45;&gt;n10 -->
<g id="edge12" class="edge">
<title>n7&#45;&gt;n10</title>
<path fill="none" stroke="#8b2418" stroke-width="2" d="M262.97,-263.44C287.8,-237.74 334.24,-189.67 363.29,-159.61"/>
<polygon fill="#8b2418" stroke="#8b2418" stroke-width="2" points="365.52,-162.34 369.95,-152.71 360.49,-157.47 365.52,-162.34"/>
<text xml:space="preserve" text-anchor="middle" x="303.5" y="-234.5" font-family="Arial" font-size="10.00" fill="#8b2418"> true </text>
</g>
<!-- n7&#45;&gt;n8 -->
<g id="edge11" class="edge">
<title>n7&#45;&gt;n8</title>
<path fill="none" stroke="#8b2418" stroke-width="2" d="M243.03,-263.44C238.86,-238.74 231.2,-193.38 226.1,-163.2"/>
<polygon fill="#8b2418" stroke="#8b2418" stroke-width="2" points="229.58,-162.8 224.47,-153.52 222.68,-163.96 229.58,-162.8"/>
<text xml:space="preserve" text-anchor="middle" x="250.55" y="-234.5" font-family="Arial" font-size="10.00" fill="#8b2418"> true </text>
</g>
<!-- n11 -->
<g id="node11" class="node">
<title>n11</title>
<path fill="#fbf6eb" stroke="#1a1612" stroke-width="1.5" d="M128.27,-150C128.27,-150 37.73,-150 37.73,-150 31.73,-150 25.73,-144 25.73,-138 25.73,-138 25.73,-126 25.73,-126 25.73,-120 31.73,-114 37.73,-114 37.73,-114 128.27,-114 128.27,-114 134.27,-114 140.27,-120 140.27,-126 140.27,-126 140.27,-138 140.27,-138 140.27,-144 134.27,-150 128.27,-150"/>
<text xml:space="preserve" text-anchor="middle" x="83" y="-128.3" font-family="Arial" font-size="11.00" fill="#1a1612">11 &#160;&#160;UnplotPoint #1</text>
</g>
<!-- n7&#45;&gt;n11 -->
<g id="edge13" class="edge">
<title>n7&#45;&gt;n11</title>
<path fill="none" stroke="#8b2418" stroke-width="2" d="M182.2,-268.21C166.44,-262.74 150.51,-254.98 138,-244 113.61,-222.59 98.87,-187.86 90.87,-162.95"/>
<polygon fill="#8b2418" stroke="#8b2418" stroke-width="2" points="94.26,-162.09 88.06,-153.5 87.56,-164.09 94.26,-162.09"/>
<text xml:space="preserve" text-anchor="middle" x="151.5" y="-234.5" font-family="Arial" font-size="10.00" fill="#8b2418"> false </text>
</g>
<!-- n10&#45;&gt;n11 -->
<g id="edge16" class="edge">
<title>n10&#45;&gt;n11</title>
<path fill="none" stroke="#5a6b3b" stroke-width="1.3" stroke-dasharray="5,2" d="M374.8,-150.6C358.19,-170.65 328.66,-201.38 295,-214 237.57,-235.53 213.04,-238.92 157,-214 132.46,-203.09 112.62,-179.57 99.68,-160.51"/>
<polygon fill="#5a6b3b" stroke="#5a6b3b" stroke-width="1.3" points="102.65,-158.65 94.29,-152.14 96.76,-162.44 102.65,-158.65"/>
<text xml:space="preserve" text-anchor="middle" x="191" y="-234.5" font-family="Arial" font-size="10.00" fill="#5a6b3b"> display </text>
</g>
<!-- n8&#45;&gt;n10 -->
<g id="edge15" class="edge">
<title>n8&#45;&gt;n10</title>
<path fill="none" stroke="#5a6b3b" stroke-width="1.3" stroke-dasharray="5,2" d="M269.59,-132C286.92,-132 306.71,-132 325.13,-132"/>
<polygon fill="#5a6b3b" stroke="#5a6b3b" stroke-width="1.3" points="325.03,-135.5 335.03,-132 325.03,-128.5 325.03,-135.5"/>
<text xml:space="preserve" text-anchor="middle" x="303.5" y="-137.5" font-family="Arial" font-size="10.00" fill="#5a6b3b"> display </text>
</g>
<!-- n9 -->
<g id="node10" class="node">
<title>n9</title>
<path fill="#4a3f33" stroke="#1a1612" stroke-width="1.5" d="M241.89,-62C241.89,-62 200.11,-62 200.11,-62 194.11,-62 188.11,-56 188.11,-50 188.11,-50 188.11,-38 188.11,-38 188.11,-32 194.11,-26 200.11,-26 200.11,-26 241.89,-26 241.89,-26 247.89,-26 253.89,-32 253.89,-38 253.89,-38 253.89,-50 253.89,-50 253.89,-56 247.89,-62 241.89,-62"/>
<text xml:space="preserve" text-anchor="middle" x="221" y="-40.3" font-family="Arial" font-size="11.00" fill="#fbf6eb">9 &#160;&#160;Delay</text>
</g>
<!-- n8&#45;&gt;n9 -->
<g id="edge14" class="edge">
<title>n8&#45;&gt;n9</title>
<path fill="none" stroke="#8b2418" stroke-width="2" d="M221,-113.6C221,-102.71 221,-88.39 221,-75.64"/>
<polygon fill="#8b2418" stroke="#8b2418" stroke-width="2" points="224.5,-75.7 221,-65.7 217.5,-75.7 224.5,-75.7"/>
<text xml:space="preserve" text-anchor="middle" x="232.25" y="-84.5" font-family="Arial" font-size="10.00" fill="#8b2418"> true </text>
</g>
<!-- n12 -->
<g id="node12" class="node">
<title>n12</title>
<path fill="#4a3f33" stroke="#1a1612" stroke-width="1.5" d="M106.89,-62C106.89,-62 59.11,-62 59.11,-62 53.11,-62 47.11,-56 47.11,-50 47.11,-50 47.11,-38 47.11,-38 47.11,-32 53.11,-26 59.11,-26 59.11,-26 106.89,-26 106.89,-26 112.89,-26 118.89,-32 118.89,-38 118.89,-38 118.89,-50 118.89,-50 118.89,-56 112.89,-62 106.89,-62"/>
<text xml:space="preserve" text-anchor="middle" x="83" y="-40.3" font-family="Arial" font-size="11.00" fill="#fbf6eb">12 &#160;&#160;Delay</text>
</g>
<!-- n11&#45;&gt;n12 -->
<g id="edge17" class="edge">
<title>n11&#45;&gt;n12</title>
<path fill="none" stroke="#8b2418" stroke-width="2" d="M83,-113.6C83,-102.71 83,-88.39 83,-75.64"/>
<polygon fill="#8b2418" stroke="#8b2418" stroke-width="2" points="86.5,-75.7 83,-65.7 79.5,-75.7 86.5,-75.7"/>
<text xml:space="preserve" text-anchor="middle" x="96.5" y="-84.5" font-family="Arial" font-size="10.00" fill="#8b2418"> false </text>
</g>
</g>
</svg>
