<?xml version="1.0" encoding="UTF-8" standalone="no"?>
<!DOCTYPE svg PUBLIC "-//W3C//DTD SVG 1.1//EN"
 "http://www.w3.org/Graphics/SVG/1.1/DTD/svg11.dtd">
<!-- Generated by graphviz version 14.1.2 (0)
 -->
<!-- Title: PDG_MakeCode Pages: 1 -->
<svg width="472pt" height="596pt"
 viewBox="0.00 0.00 472.00 596.00" xmlns="http://www.w3.org/2000/svg" xmlns:xlink="http://www.w3.org/1999/xlink">
<g id="graph0" class="graph" transform="scale(1 1) rotate(0) translate(21.6 574.6)">
<title>PDG_MakeCode</title>
<polygon fill="#fbf6eb" stroke="none" points="-21.6,21.6 -21.6,-574.6 450.87,-574.6 450.87,21.6 -21.6,21.6"/>
<g id="clust1" class="cluster">
<title>cluster_loop</title>
<path fill="#fbf6eb" stroke="#8b2418" stroke-width="1.8" stroke-dasharray="5,2" d="M159.27,-8C159.27,-8 409.27,-8 409.27,-8 415.27,-8 421.27,-14 421.27,-20 421.27,-20 421.27,-212 421.27,-212 421.27,-218 415.27,-224 409.27,-224 409.27,-224 159.27,-224 159.27,-224 153.27,-224 147.27,-218 147.27,-212 147.27,-212 147.27,-20 147.27,-20 147.27,-14 153.27,-8 159.27,-8"/>
<text xml:space="preserve" text-anchor="start" x="181.14" y="-210.55" font-family="Arial" font-weight="bold" font-size="11.00">loop</text>
<text xml:space="preserve" text-anchor="start" x="155.27" y="-201.45" font-family="Arial" font-size="9.00" fill="#8b2418">alcance de control</text>
</g>
<!-- n1 -->
<g id="node1" class="node">
<title>n1</title>
<path fill="#34495e" stroke="#1a1612" stroke-width="1.5" d="M201.79,-553C201.79,-553 94.75,-553 94.75,-553 88.75,-553 82.75,-547 82.75,-541 82.75,-541 82.75,-529 82.75,-529 82.75,-523 88.75,-517 94.75,-517 94.75,-517 201.79,-517 201.79,-517 207.79,-517 213.79,-523 213.79,-529 213.79,-529 213.79,-541 213.79,-541 213.79,-547 207.79,-553 201.79,-553"/>
<text xml:space="preserve" text-anchor="middle" x="148.27" y="-531.3" font-family="Arial" font-size="11.00" fill="#fbf6eb">1 &#160;&#160;ProgramStartEvent</text>
</g>
<!-- n2 -->
<g id="node2" class="node">
<title>n2</title>
<path fill="#8b2418" stroke="#1a1612" stroke-width="1.5" d="M183.04,-476C183.04,-476 113.5,-476 113.5,-476 107.5,-476 101.5,-470 101.5,-464 101.5,-464 101.5,-452 101.5,-452 101.5,-446 107.5,-440 113.5,-440 113.5,-440 183.04,-440 183.04,-440 189.04,-440 195.04,-446 195.04,-452 195.04,-452 195.04,-464 195.04,-464 195.04,-470 189.04,-476 183.04,-476"/>
<text xml:space="preserve" text-anchor="middle" x="148.27" y="-454.3" font-family="Arial" font-size="11.00" fill="#fbf6eb">2 &#160;&#160;SetVariable</text>
</g>
<!-- n1&#45;&gt;n2 -->
<g id="edge1" class="edge">
<title>n1&#45;&gt;n2</title>
<path fill="none" stroke="#8b2418" stroke-width="2" d="M148.27,-516.6C148.27,-508.52 148.27,-498.67 148.27,-489.42"/>
<polygon fill="#8b2418" stroke="#8b2418" stroke-width="2" points="151.77,-489.59 148.27,-479.59 144.77,-489.59 151.77,-489.59"/>
</g>
<!-- n4 -->
<g id="node4" class="node">
<title>n4</title>
<path fill="#8b2418" stroke="#1a1612" stroke-width="1.5" d="M312.54,-388C312.54,-388 228,-388 228,-388 222,-388 216,-382 216,-376 216,-376 216,-364 216,-364 216,-358 222,-352 228,-352 228,-352 312.54,-352 312.54,-352 318.54,-352 324.54,-358 324.54,-364 324.54,-364 324.54,-376 324.54,-376 324.54,-382 318.54,-388 312.54,-388"/>
<text xml:space="preserve" text-anchor="middle" x="270.27" y="-366.3" font-family="Arial" font-size="11.00" fill="#fbf6eb">4 &#160;&#160;ToggleVariable</text>
</g>
<!-- n2&#45;&gt;n4 -->
<g id="edge2" class="edge">
<title>n2&#45;&gt;n4</title>
<path fill="none" stroke="#4a3f33" stroke-width="1.3" d="M173.25,-439.39C191.26,-426.69 215.8,-409.4 235.69,-395.38"/>
<polygon fill="#4a3f33" stroke="#4a3f33" stroke-width="1.3" points="237.56,-398.34 243.71,-389.72 233.52,-392.62 237.56,-398.34"/>
<text xml:space="preserve" text-anchor="middle" x="234.2" y="-410.5" font-family="Arial" font-size="10.00" fill="#8b2418"> estado </text>
</g>
<!-- n5 -->
<g id="node5" class="node">
<title>n5</title>
<path fill="#b8843a" stroke="#1a1612" stroke-width="1.5" d="M264.54,-300C264.54,-300 162,-300 162,-300 156,-300 150,-294 150,-288 150,-288 150,-276 150,-276 150,-270 156,-264 162,-264 162,-264 264.54,-264 264.54,-264 270.54,-264 276.54,-270 276.54,-276 276.54,-276 276.54,-288 276.54,-288 276.54,-294 270.54,-300 264.54,-300"/>
<text xml:space="preserve" text-anchor="middle" x="213.27" y="-278.3" font-family="Arial" font-size="11.00" fill="#fbf6eb">5 &#160;&#160;ConditionalBranch</text>
</g>
<!-- n2&#45;&gt;n5 -->
<g id="edge3" class="edge">
<title>n2&#45;&gt;n5</title>
<path fill="none" stroke="#4a3f33" stroke-width="1.3" d="M148.69,-439.26C149.73,-417.85 153.26,-381.09 165.02,-352 171.12,-336.92 181.03,-321.92 190.28,-309.77"/>
<polygon fill="#4a3f33" stroke="#4a3f33" stroke-width="1.3" points="192.79,-312.25 196.26,-302.24 187.31,-307.9 192.79,-312.25"/>
<text xml:space="preserve" text-anchor="middle" x="182.64" y="-366.5" font-family="Arial" font-size="10.00" fill="#8b2418"> estado </text>
</g>
<!-- n3 -->
<g id="node3" class="node">
<title>n3</title>
<path fill="#34495e" stroke="#1a1612" stroke-width="1.5" d="M361.29,-476C361.29,-476 239.25,-476 239.25,-476 233.25,-476 227.25,-470 227.25,-464 227.25,-464 227.25,-452 227.25,-452 227.25,-446 233.25,-440 239.25,-440 239.25,-440 361.29,-440 361.29,-440 367.29,-440 373.29,-446 373.29,-452 373.29,-452 373.29,-464 373.29,-464 373.29,-470 367.29,-476 361.29,-476"/>
<text xml:space="preserve" text-anchor="middle" x="300.27" y="-454.3" font-family="Arial" font-size="11.00" fill="#fbf6eb">3 &#160;&#160;SuddenNoiseEvent #1</text>
</g>
<!-- n3&#45;&gt;n4 -->
<g id="edge4" class="edge">
<title>n3&#45;&gt;n4</title>
<path fill="none" stroke="#8b2418" stroke-width="2" d="M294.2,-439.6C290.32,-428.48 285.19,-413.77 280.68,-400.83"/>
<polygon fill="#8b2418" stroke="#8b2418" stroke-width="2" points="284.03,-399.82 277.43,-391.53 277.42,-402.13 284.03,-399.82"/>
</g>
<!-- n4&#45;&gt;n5 -->
<g id="edge5" class="edge">
<title>n4&#45;&gt;n5</title>
<path fill="none" stroke="#8b2418" stroke-width="2" d="M264.53,-351.43C260.93,-341.72 255.74,-329.7 249.27,-320 247.05,-316.68 244.52,-313.39 241.84,-310.23"/>
<polygon fill="#8b2418" stroke="#8b2418" stroke-width="2" points="244.43,-307.87 235.08,-302.88 239.28,-312.61 244.43,-307.87"/>
</g>
<!-- n4&#45;&gt;n5 -->
<g id="edge6" class="edge">
<title>n4&#45;&gt;n5</title>
<path fill="none" stroke="#4a3f33" stroke-width="1.3" d="M225.27,-351.36C217.57,-346.28 210.59,-339.91 206.02,-332 202.53,-325.97 201.98,-318.85 202.85,-311.93"/>
<polygon fill="#4a3f33" stroke="#4a3f33" stroke-width="1.3" points="206.24,-312.8 205.07,-302.27 199.42,-311.23 206.24,-312.8"/>
<text xml:space="preserve" text-anchor="middle" x="223.64" y="-322.5" font-family="Arial" font-size="10.00" fill="#8b2418"> estado </text>
</g>
<!-- n8 -->
<g id="node6" class="node">
<title>n8</title>
<path fill="#5a6b3b" stroke="#1a1612" stroke-width="1.5" d="M84.54,-150C84.54,-150 12,-150 12,-150 6,-150 0,-144 0,-138 0,-138 0,-126 0,-126 0,-120 6,-114 12,-114 12,-114 84.54,-114 84.54,-114 90.54,-114 96.54,-120 96.54,-126 96.54,-126 96.54,-138 96.54,-138 96.54,-144 90.54,-150 84.54,-150"/>
<text xml:space="preserve" text-anchor="middle" x="48.27" y="-128.3" font-family="Arial" font-size="11.00" fill="#fbf6eb">8 &#160;&#160;PlotPoint #1</text>
</g>
<!-- n5&#45;&gt;n8 -->
<g id="edge8" class="edge">
<title>n5&#45;&gt;n8</title>
<path fill="none" stroke="#8b2418" stroke-width="2" d="M149.25,-268.17C133.42,-262.7 117.4,-254.95 104.77,-244 80.12,-222.63 64.9,-187.89 56.56,-162.96"/>
<polygon fill="#8b2418" stroke="#8b2418" stroke-width="2" points="59.92,-162.01 53.61,-153.5 53.24,-164.09 59.92,-162.01"/>
<text xml:space="preserve" text-anchor="middle" x="116.02" y="-234.5" font-family="Arial" font-size="10.00" fill="#8b2418"> true </text>
</g>
<!-- n6 -->
<g id="node7" class="node">
<title>n6</title>
<path fill="#5a6b3b" stroke="#1a1612" stroke-width="1.5" d="M249.54,-150C249.54,-150 177,-150 177,-150 171,-150 165,-144 165,-138 165,-138 165,-126 165,-126 165,-120 171,-114 177,-114 177,-114 249.54,-114 249.54,-114 255.54,-114 261.54,-120 261.54,-126 261.54,-126 261.54,-138 261.54,-138 261.54,-144 255.54,-150 249.54,-150"/>
<text xml:space="preserve" text-anchor="middle" x="213.27" y="-128.3" font-family="Arial" font-size="11.00" fill="#fbf6eb">6 &#160;&#160;PlotPoint #1</text>
</g>
<!-- n5&#45;&gt;n6 -->
<g id="edge7" class="edge">
<title>n5&#45;&gt;n6</title>
<path fill="none" stroke="#8b2418" stroke-width="2" d="M213.27,-263.44C213.27,-238.74 213.27,-193.38 213.27,-163.2"/>
<polygon fill="#8b2418" stroke="#8b2418" stroke-width="2" points="216.77,-163.56 213.27,-153.56 209.77,-163.56 216.77,-163.56"/>
<text xml:space="preserve" text-anchor="middle" x="224.52" y="-234.5" font-family="Arial" font-size="10.00" fill="#8b2418"> true </text>
</g>
<!-- n9 -->
<g id="node9" class="node">
<title>n9</title>
<path fill="#fbf6eb" stroke="#1a1612" stroke-width="1.5" d="M390.91,-150C390.91,-150 305.62,-150 305.62,-150 299.62,-150 293.62,-144 293.62,-138 293.62,-138 293.62,-126 293.62,-126 293.62,-120 299.62,-114 305.62,-114 305.62,-114 390.91,-114 390.91,-114 396.91,-114 402.91,-120 402.91,-126 402.91,-126 402.91,-138 402.91,-138 402.91,-144 396.91,-150 390.91,-150"/>
<text xml:space="preserve" text-anchor="middle" x="348.27" y="-128.3" font-family="Arial" font-size="11.00" fill="#1a1612">9 &#160;&#160;UnplotPoint #1</text>
</g>
<!-- n5&#45;&gt;n9 -->
<g id="edge9" class="edge">
<title>n5&#45;&gt;n9</title>
<path fill="none" stroke="#8b2418" stroke-width="2" d="M234.91,-263.43C247.75,-252.59 264.04,-238.11 277.27,-224 295.97,-204.05 314.9,-179.51 328.51,-160.95"/>
<polygon fill="#8b2418" stroke="#8b2418" stroke-width="2" points="331.26,-163.12 334.28,-152.97 325.58,-159.02 331.26,-163.12"/>
<text xml:space="preserve" text-anchor="middle" x="282.65" y="-234.5" font-family="Arial" font-size="10.00" fill="#8b2418"> false </text>
</g>
<!-- n8&#45;&gt;n9 -->
<g id="edge12" class="edge">
<title>n8&#45;&gt;n9</title>
<path fill="none" stroke="#5a6b3b" stroke-width="1.3" stroke-dasharray="5,2" d="M61.88,-150.59C77.84,-170.62 106.31,-201.34 139.27,-214 196.53,-235.99 221.48,-239.49 277.27,-214 301.26,-203.04 320.25,-179.53 332.53,-160.48"/>
<polygon fill="#5a6b3b" stroke="#5a6b3b" stroke-width="1.3" points="335.4,-162.5 337.63,-152.14 329.43,-158.85 335.4,-162.5"/>
<text xml:space="preserve" text-anchor="middle" x="153.27" y="-234.5" font-family="Arial" font-size="10.00" fill="#5a6b3b"> display </text>
</g>
<!-- n6&#45;&gt;n8 -->
<g id="edge11" class="edge">
<title>n6&#45;&gt;n8</title>
<path fill="none" stroke="#5a6b3b" stroke-width="1.3" stroke-dasharray="5,2" d="M164.43,-132C146.95,-132 127.02,-132 108.67,-132"/>
<polygon fill="#5a6b3b" stroke="#5a6b3b" stroke-width="1.3" points="108.85,-128.5 98.85,-132 108.85,-135.5 108.85,-128.5"/>
<text xml:space="preserve" text-anchor="middle" x="130.77" y="-137.5" font-family="Arial" font-size="10.00" fill="#5a6b3b"> display </text>
</g>
<!-- n7 -->
<g id="node8" class="node">
<title>n7</title>
<path fill="#4a3f33" stroke="#1a1612" stroke-width="1.5" d="M234.16,-62C234.16,-62 192.38,-62 192.38,-62 186.38,-62 180.38,-56 180.38,-50 180.38,-50 180.38,-38 180.38,-38 180.38,-32 186.38,-26 192.38,-26 192.38,-26 234.16,-26 234.16,-26 240.16,-26 246.16,-32 246.16,-38 246.16,-38 246.16,-50 246.16,-50 246.16,-56 240.16,-62 234.16,-62"/>
<text xml:space="preserve" text-anchor="middle" x="213.27" y="-40.3" font-family="Arial" font-size="11.00" fill="#fbf6eb">7 &#160;&#160;Delay</text>
</g>
<!-- n6&#45;&gt;n7 -->
<g id="edge10" class="edge">
<title>n6&#45;&gt;n7</title>
<path fill="none" stroke="#8b2418" stroke-width="2" d="M213.27,-113.6C213.27,-102.71 213.27,-88.39 213.27,-75.64"/>
<polygon fill="#8b2418" stroke="#8b2418" stroke-width="2" points="216.77,-75.7 213.27,-65.7 209.77,-75.7 216.77,-75.7"/>
<text xml:space="preserve" text-anchor="middle" x="224.52" y="-84.5" font-family="Arial" font-size="10.00" fill="#8b2418"> true </text>
</g>
<!-- n10 -->
<g id="node10" class="node">
<title>n10</title>
<path fill="#4a3f33" stroke="#1a1612" stroke-width="1.5" d="M372.16,-62C372.16,-62 324.38,-62 324.38,-62 318.38,-62 312.38,-56 312.38,-50 312.38,-50 312.38,-38 312.38,-38 312.38,-32 318.38,-26 324.38,-26 324.38,-26 372.16,-26 372.16,-26 378.16,-26 384.16,-32 384.16,-38 384.16,-38 384.16,-50 384.16,-50 384.16,-56 378.16,-62 372.16,-62"/>
<text xml:space="preserve" text-anchor="middle" x="348.27" y="-40.3" font-family="Arial" font-size="11.00" fill="#fbf6eb">10 &#160;&#160;Delay</text>
</g>
<!-- n9&#45;&gt;n10 -->
<g id="edge13" class="edge">
<title>n9&#45;&gt;n10</title>
<path fill="none" stroke="#8b2418" stroke-width="2" d="M348.27,-113.6C348.27,-102.71 348.27,-88.39 348.27,-75.64"/>
<polygon fill="#8b2418" stroke="#8b2418" stroke-width="2" points="351.77,-75.7 348.27,-65.7 344.77,-75.7 351.77,-75.7"/>
<text xml:space="preserve" text-anchor="middle" x="361.77" y="-84.5" font-family="Arial" font-size="10.00" fill="#8b2418"> false </text>
</g>
</g>
</svg>
