<?xml version="1.0" encoding="UTF-8" standalone="no"?>
<!DOCTYPE svg PUBLIC "-//W3C//DTD SVG 1.1//EN"
 "http://www.w3.org/Graphics/SVG/1.1/DTD/svg11.dtd">
<!-- Generated by graphviz version 14.1.2 (0)
 -->
<!-- Title: PDG_MakeCode Pages: 1 -->
<svg width="467pt" height="676pt"
 viewBox="0.00 0.00 467.00 676.00" xmlns="http://www.w3.org/2000/svg" xmlns:xlink="http://www.w3.org/1999/xlink">
<g id="graph0" class="graph" transform="scale(1 1) rotate(0) translate(21.6 654.6)">
<title>PDG_MakeCode</title>
<polygon fill="#fbf6eb" stroke="none" points="-21.6,21.6 -21.6,-654.6 445.6,-654.6 445.6,21.6 -21.6,21.6"/>
<g id="clust1" class="cluster">
<title>cluster_loop</title>
<path fill="#fbf6eb" stroke="#8b2418" stroke-width="1.8" stroke-dasharray="5,2" d="M20,-8C20,-8 404,-8 404,-8 410,-8 416,-14 416,-20 416,-20 416,-613 416,-613 416,-619 410,-625 404,-625 404,-625 20,-625 20,-625 14,-625 8,-619 8,-613 8,-613 8,-20 8,-20 8,-14 14,-8 20,-8"/>
<text xml:space="preserve" text-anchor="start" x="41.88" y="-611.55" font-family="Arial" font-weight="bold" font-size="11.00">loop</text>
<text xml:space="preserve" text-anchor="start" x="16" y="-602.45" font-family="Arial" font-size="9.00" fill="#8b2418">alcance de control</text>
</g>
<!-- n1 -->
<g id="node1" class="node">
<title>n1</title>
<path fill="#fbf6eb" stroke="#1a1612" stroke-width="1.5" d="M128.27,-315C128.27,-315 37.73,-315 37.73,-315 31.73,-315 25.73,-309 25.73,-303 25.73,-303 25.73,-291 25.73,-291 25.73,-285 31.73,-279 37.73,-279 37.73,-279 128.27,-279 128.27,-279 134.27,-279 140.27,-285 140.27,-291 140.27,-291 140.27,-303 140.27,-303 140.27,-309 134.27,-315 128.27,-315"/>
<text xml:space="preserve" text-anchor="middle" x="83" y="-293.3" font-family="Arial" font-size="11.00" fill="#1a1612">1 &#160;&#160;ClearDisplay #1</text>
</g>
<!-- n6 -->
<g id="node6" class="node">
<title>n6</title>
<path fill="#5a6b3b" stroke="#1a1612" stroke-width="1.5" d="M252.27,-227C252.27,-227 179.73,-227 179.73,-227 173.73,-227 167.73,-221 167.73,-215 167.73,-215 167.73,-203 167.73,-203 167.73,-197 173.73,-191 179.73,-191 179.73,-191 252.27,-191 252.27,-191 258.27,-191 264.27,-197 264.27,-203 264.27,-203 264.27,-215 264.27,-215 264.27,-221 258.27,-227 252.27,-227"/>
<text xml:space="preserve" text-anchor="middle" x="216" y="-205.3" font-family="Arial" font-size="11.00" fill="#fbf6eb">6 &#160;&#160;PlotPoint #1</text>
</g>
<!-- n1&#45;&gt;n6 -->
<g id="edge1" class="edge">
<title>n1&#45;&gt;n6</title>
<path fill="none" stroke="#8b2418" stroke-width="2" d="M82.73,-278.58C83.49,-268.2 86.17,-255.43 94,-247 109.61,-230.19 132.59,-220.93 154.4,-215.86"/>
<polygon fill="#8b2418" stroke="#8b2418" stroke-width="2" points="154.95,-219.31 164.07,-213.92 153.58,-212.45 154.95,-219.31"/>
</g>
<!-- n1&#45;&gt;n6 -->
<g id="edge2" class="edge">
<title>n1&#45;&gt;n6</title>
<path fill="none" stroke="#5a6b3b" stroke-width="1.3" stroke-dasharray="5,2" d="M110.24,-278.39C130.05,-265.58 157.11,-248.08 178.9,-233.99"/>
<polygon fill="#5a6b3b" stroke="#5a6b3b" stroke-width="1.3" points="180.65,-237.02 187.15,-228.66 176.85,-231.15 180.65,-237.02"/>
<text xml:space="preserve" text-anchor="middle" x="175.84" y="-249.5" font-family="Arial" font-size="10.00" fill="#5a6b3b"> display </text>
</g>
<!-- n2 -->
<g id="node2" class="node">
<title>n2</title>
<path fill="#fbf6eb" stroke="#1a1612" stroke-width="1.5" d="M257.39,-579C257.39,-579 188.61,-579 188.61,-579 182.61,-579 176.61,-573 176.61,-567 176.61,-567 176.61,-555 176.61,-555 176.61,-549 182.61,-543 188.61,-543 188.61,-543 257.39,-543 257.39,-543 263.39,-543 269.39,-549 269.39,-555 269.39,-555 269.39,-567 269.39,-567 269.39,-573 263.39,-579 257.39,-579"/>
<text xml:space="preserve" text-anchor="middle" x="223" y="-557.3" font-family="Arial" font-size="11.00" fill="#1a1612">2 &#160;&#160;ReadTilt #1</text>
</g>
<!-- n3 -->
<g id="node3" class="node">
<title>n3</title>
<path fill="#fbf6eb" stroke="#1a1612" stroke-width="1.5" d="M261.14,-491C261.14,-491 184.86,-491 184.86,-491 178.86,-491 172.86,-485 172.86,-479 172.86,-479 172.86,-467 172.86,-467 172.86,-461 178.86,-455 184.86,-455 184.86,-455 261.14,-455 261.14,-455 267.14,-455 273.14,-461 273.14,-467 273.14,-467 273.14,-479 273.14,-479 273.14,-485 267.14,-491 261.14,-491"/>
<text xml:space="preserve" text-anchor="middle" x="223" y="-469.3" font-family="Arial" font-size="11.00" fill="#1a1612">3 &#160;&#160;Arithmetic [÷]</text>
</g>
<!-- n2&#45;&gt;n3 -->
<g id="edge3" class="edge">
<title>n2&#45;&gt;n3</title>
<path fill="none" stroke="#4a3f33" stroke-width="1.3" d="M223,-542.6C223,-531.36 223,-516.47 223,-503.43"/>
<polygon fill="#4a3f33" stroke="#4a3f33" stroke-width="1.3" points="226.5,-503.64 223,-493.64 219.5,-503.64 226.5,-503.64"/>
<text xml:space="preserve" text-anchor="middle" x="236.5" y="-513.5" font-family="Arial" font-size="10.00" fill="#8b2418"> tilt_1 </text>
</g>
<!-- n4 -->
<g id="node4" class="node">
<title>n4</title>
<path fill="#fbf6eb" stroke="#1a1612" stroke-width="1.5" d="M272.02,-403C272.02,-403 173.98,-403 173.98,-403 167.98,-403 161.98,-397 161.98,-391 161.98,-391 161.98,-379 161.98,-379 161.98,-373 167.98,-367 173.98,-367 173.98,-367 272.02,-367 272.02,-367 278.02,-367 284.02,-373 284.02,-379 284.02,-379 284.02,-391 284.02,-391 284.02,-397 278.02,-403 272.02,-403"/>
<text xml:space="preserve" text-anchor="middle" x="223" y="-381.3" font-family="Arial" font-size="11.00" fill="#1a1612">4 &#160;&#160;Arithmetic [round]</text>
</g>
<!-- n3&#45;&gt;n4 -->
<g id="edge4" class="edge">
<title>n3&#45;&gt;n4</title>
<path fill="none" stroke="#4a3f33" stroke-width="1.3" d="M223,-454.6C223,-443.36 223,-428.47 223,-415.43"/>
<polygon fill="#4a3f33" stroke="#4a3f33" stroke-width="1.3" points="226.5,-415.64 223,-405.64 219.5,-415.64 226.5,-415.64"/>
<text xml:space="preserve" text-anchor="middle" x="237.62" y="-425.5" font-family="Arial" font-size="10.00" fill="#8b2418"> value </text>
</g>
<!-- n5 -->
<g id="node5" class="node">
<title>n5</title>
<path fill="#fbf6eb" stroke="#1a1612" stroke-width="1.5" d="M261.52,-315C261.52,-315 184.48,-315 184.48,-315 178.48,-315 172.48,-309 172.48,-303 172.48,-303 172.48,-291 172.48,-291 172.48,-285 178.48,-279 184.48,-279 184.48,-279 261.52,-279 261.52,-279 267.52,-279 273.52,-285 273.52,-291 273.52,-291 273.52,-303 273.52,-303 273.52,-309 267.52,-315 261.52,-315"/>
<text xml:space="preserve" text-anchor="middle" x="223" y="-293.3" font-family="Arial" font-size="11.00" fill="#1a1612">5 &#160;&#160;Arithmetic [+]</text>
</g>
<!-- n4&#45;&gt;n5 -->
<g id="edge5" class="edge">
<title>n4&#45;&gt;n5</title>
<path fill="none" stroke="#4a3f33" stroke-width="1.3" d="M223,-366.6C223,-355.36 223,-340.47 223,-327.43"/>
<polygon fill="#4a3f33" stroke="#4a3f33" stroke-width="1.3" points="226.5,-327.64 223,-317.64 219.5,-327.64 226.5,-327.64"/>
<text xml:space="preserve" text-anchor="middle" x="237.62" y="-337.5" font-family="Arial" font-size="10.00" fill="#8b2418"> value </text>
</g>
<!-- n5&#45;&gt;n6 -->
<g id="edge6" class="edge">
<title>n5&#45;&gt;n6</title>
<path fill="none" stroke="#4a3f33" stroke-width="1.3" d="M221.58,-278.6C220.67,-267.36 219.46,-252.47 218.4,-239.43"/>
<polygon fill="#4a3f33" stroke="#4a3f33" stroke-width="1.3" points="221.9,-239.32 217.6,-229.63 214.92,-239.88 221.9,-239.32"/>
<text xml:space="preserve" text-anchor="middle" x="234.54" y="-249.5" font-family="Arial" font-size="10.00" fill="#8b2418"> value </text>
</g>
<!-- n9 -->
<g id="node9" class="node">
<title>n9</title>
<path fill="#fbf6eb" stroke="#1a1612" stroke-width="1.5" d="M294.64,-139C294.64,-139 221.36,-139 221.36,-139 215.36,-139 209.36,-133 209.36,-127 209.36,-127 209.36,-115 209.36,-115 209.36,-109 215.36,-103 221.36,-103 221.36,-103 294.64,-103 294.64,-103 300.64,-103 306.64,-109 306.64,-115 306.64,-115 306.64,-127 306.64,-127 306.64,-133 300.64,-139 294.64,-139"/>
<text xml:space="preserve" text-anchor="middle" x="258" y="-117.3" font-family="Arial" font-size="11.00" fill="#1a1612">9 &#160;&#160;PlayTone #1</text>
</g>
<!-- n6&#45;&gt;n9 -->
<g id="edge7" class="edge">
<title>n6&#45;&gt;n9</title>
<path fill="none" stroke="#8b2418" stroke-width="2" d="M224.5,-190.6C230.04,-179.25 237.41,-164.16 243.83,-151.02"/>
<polygon fill="#8b2418" stroke="#8b2418" stroke-width="2" points="246.8,-152.91 248.04,-142.39 240.51,-149.84 246.8,-152.91"/>
</g>
<!-- n7 -->
<g id="node7" class="node">
<title>n7</title>
<path fill="#fbf6eb" stroke="#1a1612" stroke-width="1.5" d="M386.39,-315C386.39,-315 317.61,-315 317.61,-315 311.61,-315 305.61,-309 305.61,-303 305.61,-303 305.61,-291 305.61,-291 305.61,-285 311.61,-279 317.61,-279 317.61,-279 386.39,-279 386.39,-279 392.39,-279 398.39,-285 398.39,-291 398.39,-291 398.39,-303 398.39,-303 398.39,-309 392.39,-315 386.39,-315"/>
<text xml:space="preserve" text-anchor="middle" x="352" y="-293.3" font-family="Arial" font-size="11.00" fill="#1a1612">7 &#160;&#160;ReadTilt #1</text>
</g>
<!-- n8 -->
<g id="node8" class="node">
<title>n8</title>
<path fill="#fbf6eb" stroke="#1a1612" stroke-width="1.5" d="M385.52,-227C385.52,-227 308.48,-227 308.48,-227 302.48,-227 296.48,-221 296.48,-215 296.48,-215 296.48,-203 296.48,-203 296.48,-197 302.48,-191 308.48,-191 308.48,-191 385.52,-191 385.52,-191 391.52,-191 397.52,-197 397.52,-203 397.52,-203 397.52,-215 397.52,-215 397.52,-221 391.52,-227 385.52,-227"/>
<text xml:space="preserve" text-anchor="middle" x="347" y="-205.3" font-family="Arial" font-size="11.00" fill="#1a1612">8 &#160;&#160;Arithmetic [+]</text>
</g>
<!-- n7&#45;&gt;n8 -->
<g id="edge8" class="edge">
<title>n7&#45;&gt;n8</title>
<path fill="none" stroke="#4a3f33" stroke-width="1.3" d="M350.99,-278.6C350.34,-267.36 349.47,-252.47 348.71,-239.43"/>
<polygon fill="#4a3f33" stroke="#4a3f33" stroke-width="1.3" points="352.22,-239.42 348.14,-229.64 345.23,-239.82 352.22,-239.42"/>
<text xml:space="preserve" text-anchor="middle" x="363.3" y="-249.5" font-family="Arial" font-size="10.00" fill="#8b2418"> tilt_1 </text>
</g>
<!-- n8&#45;&gt;n9 -->
<g id="edge9" class="edge">
<title>n8&#45;&gt;n9</title>
<path fill="none" stroke="#4a3f33" stroke-width="1.3" d="M328.99,-190.6C316.29,-178.32 299.06,-161.67 284.75,-147.85"/>
<polygon fill="#4a3f33" stroke="#4a3f33" stroke-width="1.3" points="287.33,-145.47 277.7,-141.04 282.46,-150.51 287.33,-145.47"/>
<text xml:space="preserve" text-anchor="middle" x="321.33" y="-161.5" font-family="Arial" font-size="10.00" fill="#8b2418"> pitch </text>
</g>
<!-- n10 -->
<g id="node10" class="node">
<title>n10</title>
<path fill="#4a3f33" stroke="#1a1612" stroke-width="1.5" d="M281.89,-62C281.89,-62 234.11,-62 234.11,-62 228.11,-62 222.11,-56 222.11,-50 222.11,-50 222.11,-38 222.11,-38 222.11,-32 228.11,-26 234.11,-26 234.11,-26 281.89,-26 281.89,-26 287.89,-26 293.89,-32 293.89,-38 293.89,-38 293.89,-50 293.89,-50 293.89,-56 287.89,-62 281.89,-62"/>
<text xml:space="preserve" text-anchor="middle" x="258" y="-40.3" font-family="Arial" font-size="11.00" fill="#fbf6eb">10 &#160;&#160;Delay</text>
</g>
<!-- n9&#45;&gt;n10 -->
<g id="edge10" class="edge">
<title>n9&#45;&gt;n10</title>
<path fill="none" stroke="#8b2418" stroke-width="2" d="M258,-102.6C258,-94.52 258,-84.67 258,-75.42"/>
<polygon fill="#8b2418" stroke="#8b2418" stroke-width="2" points="261.5,-75.59 258,-65.59 254.5,-75.59 261.5,-75.59"/>
</g>
</g>
</svg>
